<svg xmlns="http://www.w3.org/2000/svg" width="512" height="512" viewBox="0 0 512 512">
  <g id="color">
    <path fill="#ffffff" d="M 401.5 39 L 409 39.5 L 401.5 40 L 401.5 39 Z "/>
    <path fill="#ffffff" d="M 387.5 40 L 395 40.5 L 387.5 41 L 387.5 40 Z "/>
    <path fill="#ffffff" d="M 414.5 40 L 420 40.5 L 414.5 41 L 414.5 40 Z "/>
    <path fill="#ffffff" d="M 43.5 42 L 40 46.5 L 38.5 50 L 38 48.5 L 43.5 42 Z "/>
    <path fill="#ffffff" d="M 427.5 42 L 435 44.5 L 433.5 45 L 427.5 43 L 427.5 42 Z "/>
    <path fill="#ffffff" d="M 358.5 46 L 357.5 48 L 355.5 49 L 356.5 47 L 358.5 46 Z "/>
    <path fill="#ffffff" d="M 72.5 59 L 73 106.5 L 72 106.5 L 72.5 59 Z "/>
    <path fill="#ffffff" d="M 451.5 62 L 453 65.5 L 452 65.5 L 451.5 62 Z "/>
    <path fill="#ffffff" d="M 342.5 70 L 343 75.5 L 342 75.5 L 342.5 70 Z "/>
    <path fill="#ffffff" d="M 455.5 78 L 456 82.5 L 455 82.5 L 455.5 78 Z "/>
    <path fill="#ffffff" d="M 341.5 82 L 342 102.5 L 341 102.5 L 341.5 82 Z "/>
    <path fill="#ffffff" d="M 456.5 84 L 457 93.5 L 456 93.5 L 456.5 84 Z "/>
    <path fill="#ffffff" d="M 457.5 100 L 458 116.5 L 457 116.5 L 457.5 100 Z "/>
    <path fill="#ffffff" d="M 71.5 132 L 72 154.5 L 71 154.5 L 71.5 132 Z "/>
    <path fill="#ffffff" d="M 36.5 140 L 37 179.5 L 36 179.5 L 36.5 140 Z "/>
    <path fill="#ffffff" d="M 458.5 148 L 459 166.5 L 458 166.5 L 458.5 148 Z "/>
    <path fill="#ffffff" d="M 257.5 154 L 284 154.5 L 257.5 155 L 257.5 154 Z "/>
    <path fill="#ffffff" d="M 246.5 155 L 252 155.5 L 246.5 156 L 246.5 155 Z "/>
    <path fill="#ffffff" d="M 288.5 155 L 293 155.5 L 288.5 156 L 288.5 155 Z "/>
    <path fill="#ffffff" d="M 341.5 155 L 342 195.5 L 341 195.5 L 341.5 155 Z "/>
    <path fill="#ffffff" d="M 240.5 156 L 245 156.5 L 240.5 157 L 240.5 156 Z "/>
    <path fill="#ffffff" d="M 230.5 159 L 232 159.5 L 227.5 162 L 228.5 160 L 230.5 159 Z "/>
    <path fill="#ffffff" d="M 311.5 162 L 319 170.5 L 317 169.5 L 311.5 162 Z "/>
    <path fill="#ffffff" d="M 70.5 173 L 71 211.5 L 70 211.5 L 70.5 173 Z "/>
    <path fill="#ffffff" d="M 212.5 184 L 213 189.5 L 212 189.5 L 212.5 184 Z "/>
    <path fill="#ffffff" d="M 323.5 187 L 324 191.5 L 323 191.5 L 323.5 187 Z "/>
    <path fill="#ffffff" d="M 211.5 195 L 212 207.5 L 211 207.5 L 211.5 195 Z "/>
    <path fill="#ffffff" d="M 324.5 199 L 325 212.5 L 324 212.5 L 324.5 199 Z "/>
    <path fill="#ffffff" d="M 457.5 200 L 458 227.5 L 457 227.5 L 457.5 200 Z "/>
    <path fill="#ffffff" d="M 35.5 205 L 36 277.5 L 35 277.5 L 35.5 205 Z "/>
    <path fill="#ffffff" d="M 325.5 226 L 326 286.5 L 325 286.5 L 325.5 226 Z "/>
    <path fill="#ffffff" d="M 210.5 232 L 211 248.5 L 210 248.5 L 210.5 232 Z "/>
    <path fill="#ffffff" d="M 125.5 242 L 137 242.5 L 125.5 243 L 125.5 242 Z "/>
    <path fill="#ffffff" d="M 155.5 242 L 161 242.5 L 155.5 243 L 155.5 242 Z "/>
    <path fill="#ffffff" d="M 118.5 243 L 123 243.5 L 118.5 244 L 118.5 243 Z "/>
    <path fill="#ffffff" d="M 456.5 246 L 457 283.5 L 456 283.5 L 456.5 246 Z "/>
    <path fill="#ffffff" d="M 186.5 258 L 189 262.5 L 188 262.5 L 186.5 258 Z "/>
    <path fill="#ffffff" d="M 190.5 267 L 192 273.5 L 191 273.5 L 190.5 267 Z "/>
    <path fill="#ffffff" d="M 70.5 270 L 71 311.5 L 70 311.5 L 70.5 270 Z "/>
    <path fill="#ffffff" d="M 192.5 275 L 193 279.5 L 192 279.5 L 192.5 275 Z "/>
    <path fill="#ffffff" d="M 88.5 279 L 89 284.5 L 88 284.5 L 88.5 279 Z "/>
    <path fill="#ffffff" d="M 341.5 281 L 342 312.5 L 341 312.5 L 341.5 281 Z "/>
    <path fill="#ffffff" d="M 211.5 282 L 212 307.5 L 211 307.5 L 211.5 282 Z "/>
    <path fill="#ffffff" d="M 193.5 283 L 194 289.5 L 193 289.5 L 193.5 283 Z "/>
    <path fill="#ffffff" d="M 87.5 289 L 88 301.5 L 87 301.5 L 87.5 289 Z "/>
    <path fill="#ffffff" d="M 455.5 292 L 456 390.5 L 455 390.5 L 455.5 292 Z "/>
    <path fill="#ffffff" d="M 36.5 295 L 37 331.5 L 36 331.5 L 36.5 295 Z "/>
    <path fill="#ffffff" d="M 326.5 299 L 327 373.5 L 326 373.5 L 326.5 299 Z "/>
    <path fill="#ffffff" d="M 194.5 303 L 195 313.5 L 194 313.5 L 194.5 303 Z "/>
    <path fill="#ffffff" d="M 86.5 305 L 87 320.5 L 86 320.5 L 86.5 305 Z "/>
    <path fill="#ffffff" d="M 195.5 321 L 196 345.5 L 195 345.5 L 195.5 321 Z "/>
    <path fill="#ffffff" d="M 71.5 329 L 72 345.5 L 71 345.5 L 71.5 329 Z "/>
    <path fill="#ffffff" d="M 212.5 332 L 213 371.5 L 212 371.5 L 212.5 332 Z "/>
    <path fill="#ffffff" d="M 342.5 336 L 343 363.5 L 342 363.5 L 342.5 336 Z "/>
    <path fill="#ffffff" d="M 37.5 355 L 38 374.5 L 37 374.5 L 37.5 355 Z "/>
    <path fill="#ffffff" d="M 86.5 360 L 87 378.5 L 86 378.5 L 86.5 360 Z "/>
    <path fill="#ffffff" d="M 72.5 366 L 73 382.5 L 72 382.5 L 72.5 366 Z "/>
    <path fill="#ffffff" d="M 343.5 370 L 344 391.5 L 343 391.5 L 343.5 370 Z "/>
    <path fill="#ffffff" d="M 213.5 380 L 214 399.5 L 213 399.5 L 213.5 380 Z "/>
    <path fill="#ffffff" d="M 325.5 380 L 326 400.5 L 325 400.5 L 325.5 380 Z "/>
    <path fill="#ffffff" d="M 87.5 383 L 88 395.5 L 87 395.5 L 87.5 383 Z "/>
    <path fill="#ffffff" d="M 196.5 386 L 197 407.5 L 196 407.5 L 196.5 386 Z "/>
    <path fill="#ffffff" d="M 38.5 391 L 39 417.5 L 38 417.5 L 38.5 391 Z "/>
    <path fill="#ffffff" d="M 73.5 396 L 74 415.5 L 73 415.5 L 73.5 396 Z "/>
    <path fill="#ffffff" d="M 344.5 399 L 345 409.5 L 344 409.5 L 344.5 399 Z "/>
    <path fill="#ffffff" d="M 88.5 400 L 89 407.5 L 88 407.5 L 88.5 400 Z "/>
    <path fill="#ffffff" d="M 214.5 406 L 215 414.5 L 214 414.5 L 214.5 406 Z "/>
    <path fill="#ffffff" d="M 195.5 413 L 196 421.5 L 195 421.5 L 195.5 413 Z "/>
    <path fill="#ffffff" d="M 89.5 415 L 90 419.5 L 89 419.5 L 89.5 415 Z "/>
    <path fill="#ffffff" d="M 324.5 417 L 325 421 L 332 421.5 L 325.5 422 Q 322.8 420.8 324.5 417 Z "/>
    <path fill="#ffffff" d="M 74.5 419 L 75 424 L 78 424.5 L 75.5 425 Q 72.6 423.6 74.5 419 Z "/>
    <path fill="#ffffff" d="M 338.5 420 L 346 420.5 L 338.5 421 L 338.5 420 Z "/>
    <path fill="#ffffff" d="M 215.5 421 L 216 425 L 214 424.5 L 215.5 421 Z "/>
    <path fill="#ffffff" d="M 194.5 423 L 195 425 L 201 425.5 L 195.5 426 L 194.5 423 Z "/>
    <path fill="#ffffff" d="M 90.5 424 L 89.5 426 L 80 425.5 L 89.5 425 L 90.5 424 Z "/>
    <path fill="#ffffff" d="M 39.5 434 L 40 445.5 L 39 445.5 L 39.5 434 Z "/>
    <path fill="#ffffff" d="M 454.5 466 L 459 466.5 L 454.5 467 L 454.5 466 Z "/>
    <path fill="#ffffff" d="M 62.5 467 L 68 467.5 L 62.5 468 L 62.5 467 Z "/>
    <path fill="#ffffff" d="M 439.5 467 L 448 467.5 L 439.5 468 L 439.5 467 Z "/>
    <path fill="#ffffff" d="M 71.5 468 L 84 468.5 L 71.5 469 L 71.5 468 Z "/>
    <path fill="#ffffff" d="M 415.5 468 L 432 468.5 L 415.5 469 L 415.5 468 Z "/>
    <path fill="#ffffff" d="M 89.5 469 L 151 469.5 L 89.5 470 L 89.5 469 Z "/>
    <path fill="#ffffff" d="M 389.5 469 L 410 469.5 L 389.5 470 L 389.5 469 Z "/>
    <path fill="#ffffff" d="M 179.5 470 L 210 470.5 L 179.5 471 L 179.5 470 Z "/>
    <path fill="#ffffff" d="M 348.5 470 L 374 470.5 L 348.5 471 L 348.5 470 Z "/>
    <path fill="#ffffff" d="M 251.5 471 L 303 471.5 L 251.5 472 L 251.5 471 Z "/>
    <path fill="#4da3ff" d="M 390.5 53 L 413.5 53 Q 415.2 55.8 421.5 54 L 431.5 58 L 438 64.5 L 442 77.5 L 443 95.5 L 444 96.5 L 444 119.5 L 445 120.5 L 445 181.5 L 444 182.5 L 443 266.5 L 442 267.5 L 442 419 L 439.5 418 L 387.5 418 L 386.5 419 L 357 419 L 357 411.5 L 358 410.5 L 357 409.5 L 357 372.5 L 356 371.5 L 355 290.5 L 354 289.5 L 354 167.5 L 354 165.5 L 355 162.5 L 355 132.5 L 354 131.5 L 354 72.5 L 357 63.5 L 362.5 58 L 371.5 55 L 389.5 54 L 390.5 53 Z M 401 74 L 384 77 L 380 79 L 378 78 L 374 79 L 369 90 L 368 110 L 367 111 L 368 132 L 372 141 Q 376 146 383 148 L 391 148 L 392 149 L 415 148 L 426 142 L 431 134 L 433 124 L 432 95 L 431 90 L 427 83 Q 420 72 401 74 Z "/>
    <path fill="#4da3ff" d="M 253.5 168 L 283.5 168 L 284.5 169 L 295.5 170 L 306 175.5 L 309 183.5 L 310 195.5 L 311 196.5 L 311 223.5 L 312 224.5 L 312 306.5 L 313 307.5 L 313 370.5 L 312 371.5 L 311 421 L 270.5 422 L 269.5 423 L 236.5 423 L 235.5 424 L 228 424 L 228 408.5 L 227 407.5 L 227 383.5 L 226 382.5 L 226 321.5 L 225 320.5 L 225 285.5 L 224 284.5 L 224 192.5 L 227 179.5 L 232.5 173 L 240.5 170 L 252.5 169 L 253.5 168 Z M 273 183 Q 271 185 267 184 L 261 187 Q 252 194 249 207 Q 248 222 256 229 L 269 236 Q 284 238 291 231 Q 299 225 302 214 L 302 204 L 297 193 Q 292 186 284 183 L 273 183 Z "/>
    <path fill="#4da3ff" d="M 134.5 255 L 159.5 256 Q 168.9 257.5 174 263.5 L 179 276.5 L 180 291.5 L 181 292.5 L 181 313.5 L 182 314.5 L 182 413.5 L 181 414.5 L 181 422.5 L 182 425 L 111.5 426 L 110.5 425 L 102 425 L 101 394.5 L 100 393.5 L 100 369.5 L 99 368.5 L 99 304.5 L 100 303.5 L 101 273.5 L 102 268.5 L 106.5 261 L 115.5 257 L 133.5 256 L 134.5 255 Z "/>
    <path fill="#ffd43b" d="M 390.5 85 L 412.5 86 L 418 90.5 L 420 96.5 L 420 126.5 Q 418.8 132.3 414.5 135 L 405.5 137 L 386.5 137 L 380 132.5 L 378 125.5 L 377 97.5 L 378 96.5 L 378 87.5 L 379.5 86 L 389.5 86 L 390.5 85 Z "/>
    <path fill="#ff6b6b" d="M 267.5 194 L 269.5 194 Q 273.9 192.5 273 195.5 L 274 195.5 L 274.5 194 L 277.5 195 L 281.5 195 L 284 196.5 L 285.5 199 L 287 198.5 Q 284.8 199.8 287.5 201 L 289 201.5 L 288 204 L 290 204.5 L 289 206.5 L 290 208.5 L 289 210.5 L 290 211.5 L 288 215.5 L 285.5 219 Q 283.3 218.3 284 220.5 L 280.5 222 L 277.5 224 L 274.5 223 L 272.5 224 L 270.5 224 L 267 223 L 265.5 220 L 262 217.5 L 260 211.5 L 260 209.5 L 261 207.5 L 260.5 204 L 262 203.5 L 261 201.5 L 263 201.5 L 264 199.5 Q 261.3 197.7 265.5 196 Q 268 196.7 267.5 194 Z "/>
    <path fill="#66d9e8" d="M 386.5 52 L 416.5 52 L 421.5 53 Q 433.3 55.2 439 63.5 L 442 71.5 L 444 89.5 L 445 90.5 L 445 112.5 L 446 113.5 L 446 197.5 L 445 198.5 L 444 291.5 L 443 292.5 L 443 389.5 L 444 390.5 L 444 418.5 Q 442.3 421.8 435.5 420 L 434.5 419 L 392.5 419 L 391.5 420 L 363.5 420 Q 362.3 422.3 357.5 421 L 356 419.5 L 355 347.5 L 354 346.5 L 354 297.5 L 353 296.5 L 353 150.5 L 354 149.5 L 354 135.5 L 353 134.5 L 353 71.5 L 355 64.5 L 360.5 58 L 369.5 54 L 385.5 53 L 386.5 52 Z M 391 53 L 390 54 L 372 55 L 363 58 L 357 64 L 354 73 L 354 132 L 355 133 L 355 163 L 354 166 L 354 168 L 354 290 L 355 291 L 356 372 L 357 373 L 357 410 L 358 411 L 357 412 L 357 419 L 387 419 L 388 418 L 440 418 L 442 419 L 442 268 L 443 267 L 444 183 L 445 182 L 445 121 L 444 120 L 444 97 L 443 96 L 442 78 L 438 65 L 432 58 L 422 54 Q 415 56 414 53 L 391 53 Z "/>
    <path fill="#66d9e8" d="M 400.5 74 Q 419.6 72.4 427 82.5 L 431 89.5 L 432 94.5 L 433 123.5 L 431 133.5 L 426 142 L 414.5 148 L 391.5 149 L 390.5 148 L 382.5 148 Q 375.8 145.8 372 140.5 L 368 131.5 L 367 110.5 L 368 109.5 L 369 89.5 L 373.5 79 L 377.5 78 L 379.5 79 L 383.5 77 L 400.5 74 Z M 396 76 L 381 80 L 375 80 L 371 88 L 370 102 L 369 103 L 369 130 L 372 139 L 379 145 L 386 147 L 413 147 L 424 142 L 430 133 L 432 123 L 431 96 L 427 85 Q 423 79 415 76 L 396 76 Z "/>
    <path fill="#66d9e8" d="M 249.5 167 L 287.5 167 L 299.5 170 L 306 173 L 310 181.5 L 311 194.5 L 312 195.5 L 312 207.5 L 313 208.5 L 314 384.5 L 313 385.5 L 313 407.5 L 312 408.5 L 312 422 L 305.5 422 L 304.5 423 L 276.5 423 L 275.5 424 L 228.5 425 L 227 423.5 L 226 395.5 L 225 394.5 L 224 292.5 L 223 291.5 L 223 258.5 L 222 257.5 L 222 218.5 L 223 217.5 L 223 191.5 Q 225.2 190.3 224 185.5 L 226 178.5 L 231.5 172 L 238.5 169 L 249.5 167 Z M 254 168 L 253 169 L 241 170 L 233 173 L 227 180 L 224 193 L 224 285 L 225 286 L 225 321 L 226 322 L 226 383 L 227 384 L 227 408 L 228 409 L 228 424 L 236 424 L 237 423 L 270 423 L 271 422 L 311 421 L 312 372 L 313 371 L 313 308 L 312 307 L 312 225 L 311 224 L 311 197 L 310 196 L 309 184 L 306 176 L 296 170 L 285 169 L 284 168 L 254 168 Z "/>
    <path fill="#66d9e8" d="M 272.5 183 L 283.5 183 Q 291.9 186.1 297 192.5 L 302 203.5 L 302 213.5 Q 299.4 225.4 290.5 231 Q 283.7 237.7 268.5 236 L 256 228.5 Q 248.2 221.8 249 206.5 Q 251.6 193.6 260.5 187 L 266.5 184 Q 271.3 185.3 272.5 183 Z M 274 184 L 265 186 L 262 188 Q 252 194 250 208 Q 250 219 255 226 Q 260 233 271 235 L 282 234 L 293 228 L 299 219 L 301 212 L 300 201 L 297 195 L 286 185 L 274 184 Z "/>
    <path fill="#66d9e8" d="M 125.5 254 L 155.5 254 L 167.5 257 L 174 261 L 179 270.5 L 181 279.5 L 181 289.5 L 182 290.5 L 183 334.5 L 184 335.5 L 184 407.5 L 183 408.5 L 182 420.5 L 183 426 L 155.5 426 L 154.5 427 L 101 427 L 100 423.5 Q 102.8 421.8 101 415.5 L 100 414.5 L 100 401.5 L 99 400.5 L 97 327.5 L 98 326.5 L 99 277.5 L 101 267.5 L 107.5 259 L 117.5 255 Q 123.7 256.8 125.5 254 Z M 135 255 L 134 256 L 116 257 L 107 261 L 102 269 L 101 274 L 100 304 L 99 305 L 99 369 L 100 370 L 100 394 L 101 395 L 102 425 L 111 425 L 112 426 L 182 425 L 181 423 L 181 415 L 182 414 L 182 315 L 181 314 L 181 293 L 180 292 L 179 277 L 174 264 Q 169 258 160 256 L 135 255 Z "/>
  </g>
  <g id="line">
    <path fill="#1a1a1a" d="M 51.5 40 Q 64.8 38.2 69 45.5 L 72 53.5 L 72 131.5 L 71 132.5 L 71 172.5 L 70 173.5 L 70 311.5 L 71 312.5 L 71 345.5 L 72 346.5 L 73 415.5 Q 75.8 417.3 74 423.5 L 75.5 425 L 89.5 426 Q 92.3 424.8 90 423.5 L 89 400.5 L 88 399.5 L 88 383.5 L 87 382.5 L 87 360.5 L 86 359.5 L 86 321.5 L 87 320.5 L 87 302.5 L 88 301.5 L 88 285.5 L 89 284.5 L 90 267.5 Q 93 256 101.5 250 L 108.5 246 L 116.5 244 L 136.5 243 L 137.5 242 L 154.5 242 L 172.5 246 L 186 257.5 L 192 274.5 L 193 289.5 L 194 290.5 L 195 345.5 L 196 346.5 L 196 412.5 L 195 413.5 Q 196.5 421 194 424.5 Q 195.3 427.3 200.5 426 L 201.5 425 L 216 425 L 215 420.5 L 214 380.5 L 213 379.5 L 212 282.5 L 211 281.5 L 211 208.5 L 212 207.5 L 212 190.5 L 215 175.5 Q 218.3 167.8 224.5 163 L 235.5 158 L 252.5 155 L 287.5 155 L 305.5 159 L 317 168.5 L 320 173.5 L 323 184.5 L 324 212.5 L 325 213.5 L 326 379.5 L 325 380.5 L 325 416.5 L 324 420.5 Q 325.5 423.5 331.5 422 L 332.5 421 L 346 421 Q 343.6 413.1 345 399.5 L 344 398.5 L 343 336.5 L 342 335.5 L 341 196.5 L 342 195.5 L 342 76.5 L 345 61.5 Q 348.3 53.8 354.5 49 L 359.5 46 L 373.5 42 L 394.5 41 L 395.5 40 L 413.5 40 L 414.5 41 L 422.5 41 L 435.5 45 L 446 53.5 L 453 66.5 L 456 83.5 L 456 93.5 L 457 94.5 L 457 116.5 L 458 117.5 L 458 199.5 L 457 200.5 L 456 291.5 L 455 292.5 L 455 390.5 L 456 391.5 L 456 420 L 466.5 422 L 473 427.5 L 476 434.5 L 477 448.5 Q 474.8 449.7 476 454.5 L 470.5 463 L 463.5 466 L 454.5 466 L 453.5 467 L 415.5 468 L 414.5 469 L 389.5 469 L 388.5 470 L 348.5 470 L 347.5 471 L 210.5 471 L 209.5 470 L 151.5 470 L 150.5 469 L 84.5 469 L 83.5 468 L 68.5 468 L 51.5 465 L 43 458.5 L 40 447.5 L 40 434.5 L 39 433.5 L 39 391.5 L 38 390.5 L 38 355.5 L 37 354.5 L 36 180.5 L 37 179.5 L 37 55.5 L 40 46.5 L 44.5 42 L 51.5 40 Z M 387 52 L 386 53 L 370 54 L 361 58 L 355 65 L 353 72 L 353 135 L 354 136 L 354 150 L 353 151 L 353 297 L 354 298 L 354 347 L 355 348 L 356 420 L 358 421 Q 362 422 364 420 L 392 420 L 393 419 L 435 419 L 436 420 Q 442 422 444 419 L 444 391 L 443 390 L 443 293 L 444 292 L 445 199 L 446 198 L 446 114 L 445 113 L 445 91 L 444 90 L 442 72 L 439 64 Q 433 55 422 53 L 417 52 L 387 52 Z M 250 167 L 239 169 L 232 172 L 226 179 L 224 186 Q 225 190 223 192 L 223 218 L 222 219 L 222 258 L 223 259 L 223 292 L 224 293 L 225 395 L 226 396 L 227 424 L 229 425 L 276 424 L 277 423 L 305 423 L 306 422 L 312 422 L 312 409 L 313 408 L 313 386 L 314 385 L 313 209 L 312 208 L 312 196 L 311 195 L 310 182 L 306 173 L 300 170 L 288 167 L 250 167 Z M 126 254 Q 124 257 118 255 L 108 259 L 101 268 L 99 278 L 98 327 L 97 328 L 99 401 L 100 402 L 100 415 L 101 416 Q 103 422 100 424 L 101 427 L 155 427 L 156 426 L 183 426 L 182 421 L 183 409 L 184 408 L 184 336 L 183 335 L 182 291 L 181 290 L 181 280 L 179 271 L 174 261 L 168 257 L 156 254 L 126 254 Z "/>
    <path fill="#1a1a1a" d="M 395.5 76 L 414.5 76 Q 422.5 78.5 427 84.5 L 431 95.5 L 432 122.5 L 430 132.5 L 423.5 142 L 412.5 147 L 385.5 147 L 378.5 145 L 372 138.5 L 369 129.5 L 369 102.5 L 370 101.5 L 371 87.5 L 374.5 80 L 380.5 80 L 395.5 76 Z M 391 85 L 390 86 L 380 86 L 378 88 L 378 97 L 377 98 L 378 126 L 380 133 L 387 137 L 406 137 L 415 135 Q 419 132 420 127 L 420 97 L 418 91 L 413 86 L 391 85 Z "/>
    <path fill="#1a1a1a" d="M 273.5 184 L 285.5 185 L 297 194.5 L 300 200.5 L 301 211.5 L 299 218.5 L 293 228 L 281.5 234 L 270.5 235 Q 260.4 232.6 255 225.5 Q 249.7 219.3 250 207.5 Q 252.3 194.3 261.5 188 L 264.5 186 L 273.5 184 Z M 270 193 L 268 194 Q 262 198 260 205 Q 259 214 262 218 L 270 224 Q 278 226 283 222 Q 288 219 290 212 L 290 205 L 287 198 L 281 194 Q 275 193 274 195 L 270 193 Z "/>
  </g>
</svg>
