<svg xmlns="http://www.w3.org/2000/svg" width="512" height="512" viewBox="0 0 512 512">
  <g id="color">
    <path fill="#ffffff" d="M 233.5 36 L 282 36.5 L 233.5 37 L 233.5 36 Z "/>
    <path fill="#ffffff" d="M 211.5 37 L 221 37.5 L 211.5 38 L 211.5 37 Z "/>
    <path fill="#ffffff" d="M 294.5 37 L 304 37.5 L 294.5 38 L 294.5 37 Z "/>
    <path fill="#ffffff" d="M 196.5 38 L 206 38.5 L 196.5 39 L 196.5 38 Z "/>
    <path fill="#ffffff" d="M 309.5 38 L 319 38.5 L 309.5 39 L 309.5 38 Z "/>
    <path fill="#ffffff" d="M 187.5 39 L 194 39.5 L 187.5 40 L 187.5 39 Z "/>
    <path fill="#ffffff" d="M 320.5 39 L 327 39.5 L 320.5 40 L 320.5 39 Z "/>
    <path fill="#ffffff" d="M 178.5 40 L 183 40.5 L 178.5 41 L 178.5 40 Z "/>
    <path fill="#ffffff" d="M 332.5 40 L 337 40.5 L 332.5 41 L 332.5 40 Z "/>
    <path fill="#ffffff" d="M 161.5 42 L 166 42.5 L 161.5 43 L 161.5 42 Z "/>
    <path fill="#ffffff" d="M 349.5 42 L 354 42.5 L 349.5 43 L 349.5 42 Z "/>
    <path fill="#ffffff" d="M 155.5 43 L 160 43.5 L 155.5 44 L 155.5 43 Z "/>
    <path fill="#ffffff" d="M 355.5 43 L 360 43.5 L 355.5 44 L 355.5 43 Z "/>
    <path fill="#ffffff" d="M 116.5 51 L 119 51.5 L 113.5 53 L 113.5 52 L 116.5 51 Z "/>
    <path fill="#ffffff" d="M 409.5 55 L 414 56.5 L 412.5 57 L 409.5 56 L 409.5 55 Z "/>
    <path fill="#ffffff" d="M 94.5 59 L 96 59.5 L 92.5 61 L 92.5 60 L 94.5 59 Z "/>
    <path fill="#ffffff" d="M 420.5 59 L 424 60.5 L 422.5 61 L 420.5 59 Z "/>
    <path fill="#ffffff" d="M 86.5 63 L 85.5 65 L 83.5 66 L 84.5 64 L 86.5 63 Z "/>
    <path fill="#ffffff" d="M 442.5 75 L 445 80.5 L 444 80.5 L 442.5 75 Z "/>
    <path fill="#ffffff" d="M 70.5 78 L 71 79.5 L 69.5 84 L 69 80.5 L 70.5 78 Z "/>
    <path fill="#ffffff" d="M 445.5 82 L 446 88.5 L 445 88.5 L 445.5 82 Z "/>
    <path fill="#ffffff" d="M 444.5 90 L 446 94.5 L 445 94.5 L 444.5 90 Z "/>
    <path fill="#ffffff" d="M 69.5 91 L 70 92.5 L 68.5 95 L 68 93.5 L 69.5 91 Z "/>
    <path fill="#ffffff" d="M 65.5 104 L 66 108.5 L 65 108.5 L 65.5 104 Z "/>
    <path fill="#ffffff" d="M 448.5 109 L 449 117.5 L 448 117.5 L 448.5 109 Z "/>
    <path fill="#ffffff" d="M 64.5 110 L 65 117.5 L 64 117.5 L 64.5 110 Z "/>
    <path fill="#ffffff" d="M 449.5 120 L 450 130.5 L 449 130.5 L 449.5 120 Z "/>
    <path fill="#ffffff" d="M 63.5 121 L 64 129.5 L 63 129.5 L 63.5 121 Z "/>
    <path fill="#ffffff" d="M 450.5 140 L 451 147.5 L 450 147.5 L 450.5 140 Z "/>
    <path fill="#ffffff" d="M 449.5 156 L 450 165.5 L 449 165.5 L 449.5 156 Z "/>
    <path fill="#ffffff" d="M 63.5 157 L 64 164.5 L 63 164.5 L 63.5 157 Z "/>
    <path fill="#ffffff" d="M 448.5 168 L 449 175.5 L 448 175.5 L 448.5 168 Z "/>
    <path fill="#ffffff" d="M 64.5 169 L 65 177.5 L 64 177.5 L 64.5 169 Z "/>
    <path fill="#ffffff" d="M 65.5 179 L 66 183.5 L 65 183.5 L 65.5 179 Z "/>
    <path fill="#ffffff" d="M 447.5 179 L 448 183.5 L 447 183.5 L 447.5 179 Z "/>
    <path fill="#ffffff" d="M 445.5 190 L 446 191.5 L 443.5 195 L 444 193.5 L 445.5 190 Z "/>
    <path fill="#ffffff" d="M 444.5 208 L 446 211.5 L 445 211.5 L 444.5 208 Z "/>
    <path fill="#ffffff" d="M 65.5 220 L 66 224.5 L 65 224.5 L 65.5 220 Z "/>
    <path fill="#ffffff" d="M 448.5 226 L 449 233.5 L 448 233.5 L 448.5 226 Z "/>
    <path fill="#ffffff" d="M 64.5 227 L 65 234.5 L 64 234.5 L 64.5 227 Z "/>
    <path fill="#ffffff" d="M 449.5 236 L 450 247.5 L 449 247.5 L 449.5 236 Z "/>
    <path fill="#ffffff" d="M 63.5 238 L 64 244.5 L 63 244.5 L 63.5 238 Z "/>
    <path fill="#ffffff" d="M 449.5 272 L 450 281.5 L 449 281.5 L 449.5 272 Z "/>
    <path fill="#ffffff" d="M 63.5 274 L 64 282.5 L 63 282.5 L 63.5 274 Z "/>
    <path fill="#ffffff" d="M 448.5 284 L 449 292.5 L 448 292.5 L 448.5 284 Z "/>
    <path fill="#ffffff" d="M 64.5 287 L 65 294.5 L 64 294.5 L 64.5 287 Z "/>
    <path fill="#ffffff" d="M 447.5 296 L 448 300.5 L 447 300.5 L 447.5 296 Z "/>
    <path fill="#ffffff" d="M 65.5 297 L 66 301.5 L 65 301.5 L 65.5 297 Z "/>
    <path fill="#ffffff" d="M 68.5 311 L 72 315.5 L 69 313.5 L 68.5 311 Z "/>
    <path fill="#ffffff" d="M 443.5 326 L 446 330.5 L 445 330.5 L 443.5 326 Z "/>
    <path fill="#ffffff" d="M 65.5 339 L 66 344.5 L 65 344.5 L 65.5 339 Z "/>
    <path fill="#ffffff" d="M 448.5 344 L 449 350.5 L 448 350.5 L 448.5 344 Z "/>
    <path fill="#ffffff" d="M 64.5 346 L 65 354.5 L 64 354.5 L 64.5 346 Z "/>
    <path fill="#ffffff" d="M 449.5 353 L 450 363.5 L 449 363.5 L 449.5 353 Z "/>
    <path fill="#ffffff" d="M 63.5 358 L 64 366.5 L 63 366.5 L 63.5 358 Z "/>
    <path fill="#ffffff" d="M 450.5 372 L 451 383.5 L 450 383.5 L 450.5 372 Z "/>
    <path fill="#ffffff" d="M 449.5 393 L 450 402.5 L 449 402.5 L 449.5 393 Z "/>
    <path fill="#ffffff" d="M 63.5 394 L 64 401.5 L 63 401.5 L 63.5 394 Z "/>
    <path fill="#ffffff" d="M 64.5 405 L 65 413.5 L 64 413.5 L 64.5 405 Z "/>
    <path fill="#ffffff" d="M 448.5 405 L 449 413.5 L 448 413.5 L 448.5 405 Z "/>
    <path fill="#ffffff" d="M 65.5 415 L 66 420.5 L 65 420.5 L 65.5 415 Z "/>
    <path fill="#ffffff" d="M 445.5 429 L 446 430.5 L 444.5 433 L 444 431.5 L 445.5 429 Z "/>
    <path fill="#ffffff" d="M 68.5 432 L 71 435.5 L 69 434.5 L 68.5 432 Z "/>
    <path fill="#ffffff" d="M 429.5 447 L 428.5 449 L 426.5 450 L 427.5 448 L 429.5 447 Z "/>
    <path fill="#ffffff" d="M 93.5 452 L 97 453.5 L 95.5 454 L 93.5 452 Z "/>
    <path fill="#ffffff" d="M 418.5 452 L 420 452.5 L 416.5 454 L 416.5 453 L 418.5 452 Z "/>
    <path fill="#ffffff" d="M 104.5 456 L 109 457.5 L 106.5 458 L 104.5 456 Z "/>
    <path fill="#ffffff" d="M 394.5 460 L 397 460.5 L 391.5 462 L 391.5 461 L 394.5 460 Z "/>
    <path fill="#ffffff" d="M 160.5 469 L 166 469.5 L 160.5 470 L 160.5 469 Z "/>
    <path fill="#ffffff" d="M 349.5 469 L 354 469.5 L 349.5 470 L 349.5 469 Z "/>
    <path fill="#ffffff" d="M 167.5 470 L 172 470.5 L 167.5 471 L 167.5 470 Z "/>
    <path fill="#ffffff" d="M 343.5 470 L 348 470.5 L 343.5 471 L 343.5 470 Z "/>
    <path fill="#ffffff" d="M 174.5 471 L 179 471.5 L 174.5 472 L 174.5 471 Z "/>
    <path fill="#ffffff" d="M 336.5 471 L 341 471.5 L 336.5 472 L 336.5 471 Z "/>
    <path fill="#ffffff" d="M 183.5 472 L 188 472.5 L 183.5 473 L 183.5 472 Z "/>
    <path fill="#ffffff" d="M 326.5 472 L 331 472.5 L 326.5 473 L 326.5 472 Z "/>
    <path fill="#ffffff" d="M 192.5 473 L 198 473.5 L 192.5 474 L 192.5 473 Z "/>
    <path fill="#ffffff" d="M 317.5 473 L 323 473.5 L 317.5 474 L 317.5 473 Z "/>
    <path fill="#ffffff" d="M 199.5 474 L 208 474.5 L 199.5 475 L 199.5 474 Z "/>
    <path fill="#ffffff" d="M 307.5 474 L 315 474.5 L 307.5 475 L 307.5 474 Z "/>
    <path fill="#ffffff" d="M 212.5 475 L 220 475.5 L 212.5 476 L 212.5 475 Z "/>
    <path fill="#ffffff" d="M 294.5 475 L 302 475.5 L 294.5 476 L 294.5 475 Z "/>
    <path fill="#ffffff" d="M 230.5 476 L 248 476.5 L 230.5 477 L 230.5 476 Z "/>
    <path fill="#ffffff" d="M 263.5 476 L 283 476.5 L 263.5 477 L 263.5 476 Z "/>
    <path fill="#4da3ff" d="M 79 104 L 81.5 104 L 95.5 112 L 120.5 120 L 144.5 125 L 151.5 125 L 172.5 129 L 182.5 129 L 183.5 130 L 203.5 131 L 204.5 132 L 220.5 132 L 221.5 133 L 294.5 133 L 297.5 132 L 335.5 130 L 336.5 129 L 344.5 129 L 345.5 128 L 359.5 127 L 377.5 123 L 382.5 123 L 411.5 115 L 432.5 105 L 434 106.5 Q 432.3 112.8 435 114.5 L 436 151.5 L 435 154.5 L 435 167.5 L 434 168.5 L 433 183.5 Q 431.6 191.6 425.5 195 L 415.5 200 L 400.5 205 L 385.5 209 L 380.5 209 L 357.5 214 L 355.5 214 L 344.5 215 L 343.5 216 L 335.5 216 L 334.5 217 L 296.5 219 L 295.5 220 L 236.5 221 L 235.5 220 L 214.5 220 L 213.5 219 L 203.5 219 L 202.5 218 L 189.5 218 L 188.5 217 L 170.5 216 L 163.5 214 L 136.5 211 L 98.5 201 L 87.5 196 L 81 190.5 L 78 179.5 L 77 155.5 L 76 154.5 L 77 152.5 L 76 151.5 L 76 132.5 L 77 131.5 L 77 119.5 L 78 118.5 Q 77.2 109.3 79 104 Z "/>
    <path fill="#4da3ff" d="M 84.5 209 L 109.5 219 L 130.5 224 L 140.5 225 L 145.5 227 L 161.5 228 L 168.5 230 L 170.5 230 L 185.5 231 L 186.5 232 L 197.5 232 L 198.5 233 L 231.5 234 L 232.5 235 L 281.5 235 L 282.5 234 L 303.5 234 L 304.5 233 L 315.5 233 L 316.5 232 L 329.5 232 L 330.5 231 L 338.5 231 L 353.5 228 L 369.5 227 L 406.5 218 L 428.5 210 L 431 212.5 L 434 220.5 L 435 242.5 L 436 243.5 L 436 245.5 L 436 271.5 L 435 272.5 L 434 296.5 L 432 304.5 L 427.5 311 L 412.5 319 L 396.5 324 L 358.5 332 L 344.5 333 L 337.5 335 L 335.5 335 L 318.5 336 L 317.5 337 L 304.5 337 L 303.5 338 L 286.5 338 L 285.5 339 L 229.5 339 L 228.5 338 L 212.5 338 L 211.5 337 L 177.5 335 L 170.5 333 L 161.5 333 L 160.5 332 L 154.5 332 L 142.5 329 L 131.5 328 L 98.5 319 L 89.5 315 L 82 309.5 L 79 304.5 Q 80.3 299.8 78 298.5 L 78 287.5 L 77 286.5 L 77 275.5 L 76 274.5 L 76 247.5 L 77 246.5 L 77 235.5 L 78 234.5 L 79 218.5 L 84.5 209 Z M 377 242 L 366 247 Q 362 249 363 254 L 374 260 L 379 270 L 379 277 L 376 285 L 362 296 L 363 300 L 375 305 L 387 305 L 401 299 Q 409 292 413 281 Q 416 260 406 253 Q 407 250 405 251 L 403 248 L 391 242 L 377 242 Z M 311 254 L 301 258 Q 290 264 288 279 Q 287 292 293 299 Q 299 307 310 310 L 324 310 L 337 303 L 344 291 L 345 286 L 344 272 L 339 264 Q 334 257 326 254 L 314 254 L 313 255 L 311 254 Z "/>
    <path fill="#4da3ff" d="M 85.5 328 L 103.5 335 L 135.5 343 L 146.5 344 L 158.5 347 L 173.5 348 L 174.5 349 L 202.5 351 L 203.5 352 L 222.5 352 L 223.5 353 L 225.5 353 L 261.5 353 L 262.5 354 L 263.5 353 L 292.5 353 L 293.5 352 L 310.5 352 L 311.5 351 L 313.5 351 L 349.5 348 L 379.5 342 L 384.5 342 L 388.5 340 L 406.5 336 L 427.5 328 L 431 331.5 L 434 340.5 L 435 362.5 L 436 363.5 L 436 393.5 L 435 394.5 L 435 406.5 L 434 407.5 L 434 414.5 L 432 424.5 Q 430.5 431 425.5 434 L 405.5 443 Q 396.9 443.4 391.5 447 L 377.5 449 L 363.5 453 L 345.5 455 L 344.5 456 L 336.5 456 L 321.5 459 L 319.5 459 L 296.5 460 L 295.5 461 L 280.5 461 L 279.5 462 L 235.5 462 L 234.5 461 L 218.5 461 L 217.5 460 L 215.5 460 L 203.5 460 L 193.5 458 L 191.5 458 L 160.5 455 L 154.5 453 L 137.5 451 L 133.5 449 L 109.5 444 L 85 434 Q 86.1 431.3 83.5 432 L 79 424.5 L 78 407.5 L 77 406.5 L 77 395.5 L 76 394.5 L 76 392.5 L 76 365.5 L 77 364.5 L 77 354.5 L 78 353.5 L 78 341.5 Q 79.5 332.5 85.5 328 Z "/>
    <path fill="#ffd43b" d="M 309.5 260 L 313.5 261 Q 315 258.5 320.5 260 Q 330.3 262.8 335 270.5 L 337 274.5 L 338 284.5 L 335 292.5 L 331 298 L 321.5 303 L 312.5 303 Q 303.3 301.3 299 294.5 Q 294.6 288.9 295 278.5 Q 297.4 268.4 304.5 263 L 309.5 260 Z "/>
    <path fill="#ff6b6b" d="M 377.5 248 L 384.5 249 L 386.5 248 L 386.5 250 L 389.5 249 L 390 251 L 392.5 250 L 395 251.5 Q 392.8 252.8 395.5 254 L 397.5 255 Q 398.7 252.8 400 255.5 Q 397.5 257 401 258.5 L 401.5 260 L 403 259.5 L 402 261.5 Q 404.8 262.6 404 266 L 406 266.5 L 405 269.5 L 406 274.5 L 405 276.5 L 406 279 Q 403.3 277.9 404 280.5 L 404.5 282 L 403 281.5 L 402 284.5 L 402.5 286 L 399 288.5 Q 401.8 290.2 397.5 292 Q 395.8 289.2 394 293.5 Q 394.8 295.8 392.5 295 L 387.5 296 Q 384.9 295.3 386 298 L 382.5 298 L 380.5 298 Q 375.1 299.9 376 296.5 Q 373.2 294.8 377.5 293 Q 378.8 295.3 380 292.5 L 379.5 291 L 381 291.5 L 383 285 Q 385.7 286.1 385 283.5 L 386 281.5 L 385.5 280 Q 388.9 280.9 387 275.5 L 386 272.5 L 387 268 L 385 267.5 L 386 266.5 Q 382.9 264.8 384.5 263 L 383 262.5 L 383.5 261 L 382 260.5 L 382.5 259 L 379 256.5 L 377.5 253 L 376 253.5 L 376.5 252 L 374 250.5 L 377.5 248 Z "/>
    <path fill="#66d9e8" d="M 225.5 50 L 287.5 50 L 288.5 51 L 305.5 51 L 306.5 52 L 317.5 52 L 318.5 53 L 346.5 55 L 375.5 60 L 403.5 67 L 424.5 76 L 430 80.5 L 432 85.5 L 428.5 91 L 412.5 100 L 399.5 104 L 384.5 108 L 356.5 113 L 340.5 114 L 331.5 116 L 322.5 116 L 321.5 117 L 286.5 118 L 285.5 119 L 229.5 119 L 228.5 118 L 208.5 118 L 207.5 117 L 182.5 116 L 181.5 115 L 164.5 114 L 163.5 113 L 156.5 113 L 155.5 112 L 132.5 109 L 97.5 99 L 82 89.5 L 80 84.5 L 83.5 79 L 105.5 68 L 139.5 59 L 151.5 58 L 164.5 55 L 172.5 55 L 173.5 54 L 206.5 52 L 207.5 51 L 224.5 51 L 225.5 50 Z "/>
    <path fill="#66d9e8" d="M 79.5 101 L 84.5 105 L 104.5 114 L 135.5 122 L 147.5 123 L 160.5 126 L 185.5 128 L 186.5 129 L 196.5 129 L 197.5 130 L 209.5 130 L 210.5 131 L 283.5 132 L 284.5 131 L 307.5 131 L 308.5 130 L 331.5 129 L 332.5 128 L 350.5 127 L 369.5 123 L 381.5 122 L 413.5 113 L 433.5 103 L 435 105.5 L 436 121.5 L 437 122.5 L 437 160.5 L 436 161.5 L 436 171.5 L 435 172.5 L 434 185.5 L 427.5 195 L 416.5 201 L 401.5 206 L 360.5 215 L 353.5 215 L 352.5 216 L 329.5 218 L 328.5 219 L 301.5 220 L 300.5 221 L 282.5 221 L 281.5 222 L 230.5 222 L 229.5 221 L 212.5 221 L 211.5 220 L 185.5 219 L 184.5 218 L 176.5 218 L 175.5 217 L 152.5 215 L 140.5 212 L 135.5 212 L 97.5 202 L 88.5 198 L 81 192.5 L 78 186.5 L 77 173.5 L 76 172.5 L 75 129.5 L 76 128.5 L 77 105.5 L 79.5 101 Z M 79 104 Q 77 109 78 119 L 77 120 L 77 132 L 76 133 L 76 152 L 77 153 L 76 155 L 77 156 L 78 180 L 81 191 L 88 196 L 99 201 L 137 211 L 164 214 L 171 216 L 189 217 L 190 218 L 203 218 L 204 219 L 214 219 L 215 220 L 236 220 L 237 221 L 296 220 L 297 219 L 335 217 L 336 216 L 344 216 L 345 215 L 356 214 L 358 214 L 381 209 L 386 209 L 401 205 L 416 200 L 426 195 Q 432 192 433 184 L 434 169 L 435 168 L 435 155 L 436 152 L 435 115 Q 432 113 434 107 L 433 105 L 412 115 L 383 123 L 378 123 L 360 127 L 346 128 L 345 129 L 337 129 L 336 130 L 298 132 L 295 133 L 222 133 L 221 132 L 205 132 L 204 131 L 184 130 L 183 129 L 173 129 L 152 125 L 145 125 L 121 120 L 96 112 L 82 104 L 79 104 Z "/>
    <path fill="#66d9e8" d="M 83.5 208 L 86.5 208 L 107.5 217 L 142.5 225 L 148.5 225 L 163.5 228 L 189.5 230 L 190.5 231 L 200.5 231 L 201.5 232 L 214.5 232 L 215.5 233 L 271.5 234 L 272.5 233 L 299.5 233 L 300.5 232 L 324.5 231 L 325.5 230 L 335.5 230 L 336.5 229 L 344.5 229 L 345.5 228 L 365.5 226 L 409.5 216 L 428.5 208 L 434 215.5 L 435 226.5 L 436 227.5 L 436 237.5 L 437 238.5 L 437 278.5 L 436 279.5 L 436 289.5 L 435 290.5 L 434 302.5 Q 431.9 310.4 425.5 314 L 411.5 321 Q 401.5 322 394.5 326 L 354.5 334 L 321.5 337 L 320.5 338 L 309.5 338 L 308.5 339 L 291.5 339 L 290.5 340 L 224.5 340 L 223.5 339 L 206.5 339 L 205.5 338 L 175.5 336 L 174.5 335 L 158.5 334 L 152.5 332 L 130.5 329 L 97.5 320 L 81 310.5 L 77 301.5 L 76 278.5 L 75 277.5 L 75 245.5 L 76 244.5 L 77 221.5 Q 78.4 212.9 83.5 208 Z M 85 209 L 79 219 L 78 235 L 77 236 L 77 247 L 76 248 L 76 275 L 77 276 L 77 287 L 78 288 L 78 299 Q 80 300 79 305 L 82 310 L 90 315 L 99 319 L 132 328 L 143 329 L 155 332 L 161 332 L 162 333 L 171 333 L 178 335 L 212 337 L 213 338 L 229 338 L 230 339 L 286 339 L 287 338 L 304 338 L 305 337 L 318 337 L 319 336 L 336 335 L 338 335 L 345 333 L 359 332 L 397 324 L 413 319 L 428 311 L 432 305 L 434 297 L 435 273 L 436 272 L 436 246 L 436 244 L 435 243 L 434 221 L 431 213 L 429 210 L 407 218 L 370 227 L 354 228 L 339 231 L 331 231 L 330 232 L 317 232 L 316 233 L 305 233 L 304 234 L 283 234 L 282 235 L 233 235 L 232 234 L 199 233 L 198 232 L 187 232 L 186 231 L 171 230 L 169 230 L 162 228 L 146 227 L 141 225 L 131 224 L 110 219 L 85 209 Z "/>
    <path fill="#66d9e8" d="M 376.5 242 L 390.5 242 L 403 248 L 404.5 251 Q 406.8 250.3 406 252.5 Q 415.9 260.1 413 280.5 Q 409.3 292.3 400.5 299 L 386.5 305 L 374.5 305 L 363 299.5 L 362 295.5 L 376 284.5 L 379 276.5 L 379 269.5 L 373.5 260 L 363 254 Q 362.2 249 365.5 247 L 376.5 242 Z M 378 243 L 368 247 Q 363 248 364 253 L 371 256 Q 378 260 380 269 Q 382 281 376 287 L 363 297 L 364 299 L 367 301 L 377 304 L 385 304 L 393 302 L 400 298 Q 409 292 412 279 L 412 266 L 407 255 Q 402 247 393 244 L 378 243 Z "/>
    <path fill="#66d9e8" d="M 310.5 254 L 312.5 255 L 313.5 254 L 325.5 254 Q 334.2 256.8 339 263.5 L 344 271.5 L 345 285.5 L 344 290.5 L 337 303 L 323.5 310 L 309.5 310 Q 298.6 306.9 293 298.5 Q 287.3 291.7 288 278.5 Q 290.2 264.2 300.5 258 L 310.5 254 Z M 315 255 Q 313 258 308 256 L 299 261 L 293 268 L 289 279 L 289 286 L 292 295 L 296 301 Q 301 307 311 309 Q 325 311 332 305 L 340 297 L 344 285 L 344 277 L 337 262 L 325 255 L 315 255 Z "/>
    <path fill="#66d9e8" d="M 84.5 327 L 88.5 327 L 107.5 335 L 131.5 341 L 136.5 341 L 161.5 346 L 184.5 348 L 185.5 349 L 196.5 349 L 197.5 350 L 208.5 350 L 209.5 351 L 225.5 351 L 226.5 352 L 287.5 352 L 288.5 351 L 306.5 351 L 307.5 350 L 339.5 348 L 340.5 347 L 366.5 344 L 377.5 341 L 382.5 341 L 398.5 336 L 402.5 336 L 424.5 327 L 428.5 327 L 433 332.5 L 436 346.5 L 436 356.5 L 437 357.5 L 437 399.5 L 436 400.5 L 436 409.5 L 435 410.5 L 434 423.5 L 427.5 434 L 414.5 441 L 403.5 445 L 370.5 453 L 347.5 456 L 340.5 458 L 332.5 458 L 331.5 459 L 323.5 459 L 313.5 461 L 303.5 461 L 302.5 462 L 288.5 462 L 287.5 463 L 226.5 463 L 225.5 462 L 211.5 462 L 210.5 461 L 200.5 461 L 199.5 460 L 165.5 457 L 131.5 451 L 107.5 445 L 94.5 440 Q 85.2 436.8 80 429.5 L 78 425.5 L 77 412.5 L 76 411.5 L 75 362.5 L 76 361.5 L 77 339.5 Q 78.8 331.3 84.5 327 Z M 86 328 Q 79 332 78 342 L 78 354 L 77 355 L 77 365 L 76 366 L 76 393 L 76 395 L 77 396 L 77 407 L 78 408 L 79 425 L 84 432 Q 86 431 85 434 L 110 444 L 134 449 L 138 451 L 155 453 L 161 455 L 192 458 L 194 458 L 204 460 L 216 460 L 218 460 L 219 461 L 235 461 L 236 462 L 280 462 L 281 461 L 296 461 L 297 460 L 320 459 L 322 459 L 337 456 L 345 456 L 346 455 L 364 453 L 378 449 L 392 447 Q 397 443 406 443 L 426 434 Q 430 431 432 425 L 434 415 L 434 408 L 435 407 L 435 395 L 436 394 L 436 364 L 435 363 L 434 341 L 431 332 L 428 328 L 407 336 L 389 340 L 385 342 L 380 342 L 350 348 L 314 351 L 312 351 L 311 352 L 294 352 L 293 353 L 264 353 L 263 354 L 262 353 L 226 353 L 224 353 L 223 352 L 204 352 L 203 351 L 175 349 L 174 348 L 159 347 L 147 344 L 136 343 L 104 335 L 86 328 Z "/>
    <path fill="#f783ac" d="M 379.5 248 L 385 248.5 L 379.5 249 L 379.5 248 Z "/>
    <path fill="#f783ac" d="M 373.5 249 L 376 249.5 L 374 250.5 L 379 254.5 L 376.5 253 L 372 250.5 L 373.5 249 Z "/>
    <path fill="#f783ac" d="M 394.5 252 L 402 258.5 L 404 262.5 L 402 261.5 L 396.5 254 L 394.5 252 Z "/>
    <path fill="#f783ac" d="M 405.5 269 L 406 273.5 L 405 273.5 L 405.5 269 Z "/>
    <path fill="#f783ac" d="M 386.5 275 L 387 280 L 385 279.5 L 386.5 275 Z "/>
    <path fill="#f783ac" d="M 404.5 279 L 405 280.5 L 402.5 285 L 403 283.5 L 404.5 279 Z "/>
    <path fill="#f783ac" d="M 385.5 281 L 386 282.5 L 384.5 285 L 384 282.5 L 385.5 281 Z "/>
    <path fill="#f783ac" d="M 381.5 289 L 381 290.5 L 378.5 294 L 380 291.5 L 381.5 289 Z "/>
    <path fill="#f783ac" d="M 388.5 295 L 391 295.5 Q 390.3 297.8 386.5 297 L 386.5 296 L 388.5 295 Z "/>
  </g>
  <g id="line">
    <path fill="#1a1a1a" d="M 221.5 37 L 293.5 37 L 294.5 38 L 308.5 38 L 309.5 39 L 341.5 41 L 355.5 44 L 368.5 45 L 383.5 49 L 392.5 50 L 417.5 58 L 434.5 67 L 442 74.5 Q 446.2 79.3 445 89.5 L 444 92.5 L 446 95.5 L 448 106.5 L 449 130.5 L 450 131.5 L 450 155.5 L 449 156.5 L 447 186.5 L 442 197.5 L 439 200.5 L 444 207.5 L 448 222.5 L 449 247.5 L 450 248.5 L 450 271.5 L 449 272.5 L 447 303.5 L 439 320.5 L 446 331.5 L 448 341.5 L 449 363.5 L 450 364.5 L 450 392.5 L 449 393.5 L 448 417.5 L 446 428.5 Q 442.2 439.2 433.5 445 L 425.5 450 L 401.5 459 L 362.5 468 L 349.5 469 L 335.5 472 L 307.5 474 L 306.5 475 L 248.5 477 L 247.5 476 L 220.5 476 L 219.5 475 L 188.5 473 L 187.5 472 L 179.5 472 L 178.5 471 L 151.5 468 L 131.5 464 L 111.5 459 L 92.5 452 Q 79.5 446.5 71 436.5 L 68 431.5 L 66 423.5 L 64 394.5 L 63 393.5 L 63 367.5 L 64 366.5 L 64 355.5 L 65 354.5 L 66 337.5 L 75 319.5 Q 67.8 314.2 66 303.5 L 65 287.5 L 64 286.5 L 64 274.5 L 63 273.5 L 63 245.5 L 64 244.5 L 64 235.5 L 65 234.5 L 65 225.5 L 67 214.5 Q 69.4 206.4 75 201.5 Q 68.2 196.3 66 186.5 L 65 169.5 L 64 168.5 L 64 157.5 L 63 156.5 L 63 130.5 L 64 129.5 L 64 118.5 L 65 117.5 L 66 102.5 L 70 92.5 L 70 87.5 L 69 84.5 Q 70.5 74.5 77.5 70 L 91.5 61 L 122.5 50 L 173.5 41 L 205.5 39 L 206.5 38 L 220.5 38 L 221.5 37 Z M 226 50 L 225 51 L 208 51 L 207 52 L 174 54 L 173 55 L 165 55 L 152 58 L 140 59 L 106 68 L 84 79 L 80 85 L 82 90 L 98 99 L 133 109 L 156 112 L 157 113 L 164 113 L 165 114 L 182 115 L 183 116 L 208 117 L 209 118 L 229 118 L 230 119 L 286 119 L 287 118 L 322 117 L 323 116 L 332 116 L 341 114 L 357 113 L 385 108 L 400 104 L 413 100 L 429 91 L 432 86 L 430 81 L 425 76 L 404 67 L 376 60 L 347 55 L 319 53 L 318 52 L 307 52 L 306 51 L 289 51 L 288 50 L 226 50 Z M 80 101 L 77 106 L 76 129 L 75 130 L 76 173 L 77 174 L 78 187 L 81 193 L 89 198 L 98 202 L 136 212 L 141 212 L 153 215 L 176 217 L 177 218 L 185 218 L 186 219 L 212 220 L 213 221 L 230 221 L 231 222 L 282 222 L 283 221 L 301 221 L 302 220 L 329 219 L 330 218 L 353 216 L 354 215 L 361 215 L 402 206 L 417 201 L 428 195 L 434 186 L 435 173 L 436 172 L 436 162 L 437 161 L 437 123 L 436 122 L 435 106 L 434 103 L 414 113 L 382 122 L 370 123 L 351 127 L 333 128 L 332 129 L 309 130 L 308 131 L 285 131 L 284 132 L 211 131 L 210 130 L 198 130 L 197 129 L 187 129 L 186 128 L 161 126 L 148 123 L 136 122 L 105 114 L 85 105 L 80 101 Z M 84 208 Q 78 213 77 222 L 76 245 L 75 246 L 75 278 L 76 279 L 77 302 L 81 311 L 98 320 L 131 329 L 153 332 L 159 334 L 175 335 L 176 336 L 206 338 L 207 339 L 224 339 L 225 340 L 291 340 L 292 339 L 309 339 L 310 338 L 321 338 L 322 337 L 355 334 L 395 326 Q 402 322 412 321 L 426 314 Q 432 310 434 303 L 435 291 L 436 290 L 436 280 L 437 279 L 437 239 L 436 238 L 436 228 L 435 227 L 434 216 L 429 208 L 410 216 L 366 226 L 346 228 L 345 229 L 337 229 L 336 230 L 326 230 L 325 231 L 301 232 L 300 233 L 273 233 L 272 234 L 216 233 L 215 232 L 202 232 L 201 231 L 191 231 L 190 230 L 164 228 L 149 225 L 143 225 L 108 217 L 87 208 L 84 208 Z M 85 327 Q 79 331 77 340 L 76 362 L 75 363 L 76 412 L 77 413 L 78 426 L 80 430 Q 85 437 95 440 L 108 445 L 132 451 L 166 457 L 200 460 L 201 461 L 211 461 L 212 462 L 226 462 L 227 463 L 288 463 L 289 462 L 303 462 L 304 461 L 314 461 L 324 459 L 332 459 L 333 458 L 341 458 L 348 456 L 371 453 L 404 445 L 415 441 L 428 434 L 434 424 L 435 411 L 436 410 L 436 401 L 437 400 L 437 358 L 436 357 L 436 347 L 433 333 L 429 327 L 425 327 L 403 336 L 399 336 L 383 341 L 378 341 L 367 344 L 341 347 L 340 348 L 308 350 L 307 351 L 289 351 L 288 352 L 227 352 L 226 351 L 210 351 L 209 350 L 198 350 L 197 349 L 186 349 L 185 348 L 162 346 L 137 341 L 132 341 L 108 335 L 89 327 L 85 327 Z "/>
    <path fill="#1a1a1a" d="M 377.5 243 L 392.5 244 Q 402.1 246.9 407 254.5 L 412 265.5 L 412 278.5 Q 409 291.5 399.5 298 L 392.5 302 L 384.5 304 L 376.5 304 L 366.5 301 L 364 298.5 L 363 296.5 L 376 286.5 Q 381.7 281.2 380 268.5 Q 377.6 259.9 370.5 256 L 364 252.5 Q 363.5 247.5 367.5 247 L 377.5 243 Z M 378 248 L 372 251 L 378 254 Q 383 260 386 269 L 386 279 L 379 293 L 375 296 L 377 298 Q 391 299 398 292 Q 403 287 406 279 L 406 267 L 400 256 Q 395 250 387 248 L 378 248 Z "/>
    <path fill="#1a1a1a" d="M 314.5 255 L 324.5 255 L 337 262 L 344 276.5 L 344 284.5 L 340 296.5 L 331.5 305 Q 324.6 310.6 310.5 309 Q 301.1 306.9 296 300.5 L 292 294.5 L 289 285.5 L 289 278.5 L 293 267.5 L 298.5 261 L 307.5 256 Q 313 257.5 314.5 255 Z M 310 260 L 305 263 Q 297 268 295 279 Q 295 289 299 295 Q 303 301 313 303 L 322 303 L 331 298 L 335 293 L 338 285 L 337 275 L 335 271 Q 330 263 321 260 Q 315 259 314 261 L 310 260 Z "/>
  </g>
</svg>
