<svg xmlns="http://www.w3.org/2000/svg" width="512" height="512" viewBox="0 0 512 512">
  <g id="color">
    <path fill="#ffffff" d="M 131.5 36 L 186 36.5 L 131.5 37 L 131.5 36 Z "/>
    <path fill="#ffffff" d="M 301.5 36 L 332 36.5 L 301.5 37 L 301.5 36 Z "/>
    <path fill="#ffffff" d="M 119.5 37 L 130 37.5 L 119.5 38 L 119.5 37 Z "/>
    <path fill="#ffffff" d="M 189.5 37 L 295 37.5 L 189.5 38 L 189.5 37 Z "/>
    <path fill="#ffffff" d="M 110.5 38 L 115 38.5 L 110.5 39 L 110.5 38 Z "/>
    <path fill="#ffffff" d="M 342.5 39 L 346 40.5 L 344.5 41 L 342.5 39 Z "/>
    <path fill="#ffffff" d="M 100.5 40 L 103 40.5 L 98.5 42 L 98.5 41 L 100.5 40 Z "/>
    <path fill="#ffffff" d="M 349.5 42 L 354 45.5 L 351.5 44 L 349.5 42 Z "/>
    <path fill="#ffffff" d="M 79.5 67 L 80 71.5 L 79 71.5 L 79.5 67 Z "/>
    <path fill="#ffffff" d="M 78.5 75 L 79 139.5 L 78 139.5 L 78.5 75 Z "/>
    <path fill="#ffffff" d="M 428.5 118 L 432 123.5 L 430 122.5 L 428.5 118 Z "/>
    <path fill="#ffffff" d="M 433.5 128 Q 436 132.5 435 140.5 L 434 140.5 L 433.5 128 Z "/>
    <path fill="#ffffff" d="M 77.5 144 L 78 165.5 L 77 165.5 L 77.5 144 Z "/>
    <path fill="#ffffff" d="M 435.5 146 L 436 157.5 L 435 157.5 L 435.5 146 Z "/>
    <path fill="#ffffff" d="M 436.5 172 L 437 201.5 L 436 201.5 L 436.5 172 Z "/>
    <path fill="#ffffff" d="M 76.5 181 L 77 201.5 L 76 201.5 L 76.5 181 Z "/>
    <path fill="#ffffff" d="M 437.5 211 L 438 245.5 L 437 245.5 L 437.5 211 Z "/>
    <path fill="#ffffff" d="M 75.5 217 L 76 255.5 L 75 255.5 L 75.5 217 Z "/>
    <path fill="#ffffff" d="M 436.5 260 L 437 305.5 L 436 305.5 L 436.5 260 Z "/>
    <path fill="#ffffff" d="M 74.5 262 L 75 342.5 L 74 342.5 L 74.5 262 Z "/>
    <path fill="#ffffff" d="M 75.5 347 L 76 376.5 L 75 376.5 L 75.5 347 Z "/>
    <path fill="#ffffff" d="M 435.5 366 L 436 399.5 L 435 399.5 L 435.5 366 Z "/>
    <path fill="#ffffff" d="M 76.5 388 L 77 400.5 L 76 400.5 L 76.5 388 Z "/>
    <path fill="#ffffff" d="M 77.5 410 L 78 417.5 L 77 417.5 L 77.5 410 Z "/>
    <path fill="#ffffff" d="M 434.5 411 L 435 424.5 L 434 424.5 L 434.5 411 Z "/>
    <path fill="#ffffff" d="M 78.5 420 L 79 427.5 L 78 427.5 L 78.5 420 Z "/>
    <path fill="#ffffff" d="M 433.5 426 L 434 434.5 L 433 434.5 L 433.5 426 Z "/>
    <path fill="#ffffff" d="M 79.5 430 L 80 434.5 L 79 434.5 L 79.5 430 Z "/>
    <path fill="#ffffff" d="M 431.5 442 L 432 444.5 L 429.5 450 L 429 448.5 L 431.5 442 Z "/>
    <path fill="#ffffff" d="M 81.5 443 L 83 448.5 L 82 448.5 L 81.5 443 Z "/>
    <path fill="#ffffff" d="M 428.5 451 L 428 452.5 L 426.5 455 L 427 453.5 L 428.5 451 Z "/>
    <path fill="#ffffff" d="M 86.5 457 L 92 463.5 L 88 460.5 L 86.5 457 Z "/>
    <path fill="#ffffff" d="M 415.5 464 L 414.5 466 L 409.5 468 L 409.5 467 L 415.5 464 Z "/>
    <path fill="#ffffff" d="M 98.5 468 L 102 469.5 L 100.5 470 L 98.5 468 Z "/>
    <path fill="#ffffff" d="M 398.5 469 L 404 469.5 L 398.5 470 L 398.5 469 Z "/>
    <path fill="#ffffff" d="M 389.5 470 L 396 470.5 L 389.5 471 L 389.5 470 Z "/>
    <path fill="#ffffff" d="M 373.5 471 L 383 471.5 L 373.5 472 L 373.5 471 Z "/>
    <path fill="#ffffff" d="M 109.5 472 L 120 473.5 L 114.5 474 L 109.5 473 L 109.5 472 Z "/>
    <path fill="#ffffff" d="M 350.5 472 L 368 472.5 L 350.5 473 L 350.5 472 Z "/>
    <path fill="#ffffff" d="M 333.5 473 L 348 473.5 L 333.5 474 L 333.5 473 Z "/>
    <path fill="#ffffff" d="M 123.5 474 L 130 474.5 L 123.5 475 L 123.5 474 Z "/>
    <path fill="#ffffff" d="M 299.5 474 L 319 474.5 L 299.5 475 L 299.5 474 Z "/>
    <path fill="#ffffff" d="M 136.5 475 L 156 475.5 L 136.5 476 L 136.5 475 Z "/>
    <path fill="#ffffff" d="M 246.5 475 L 283 475.5 L 246.5 476 L 246.5 475 Z "/>
    <path fill="#ffffff" d="M 157.5 476 L 240 476.5 L 157.5 477 L 157.5 476 Z "/>
    <path fill="#4da3ff" d="M 300 222 L 310.5 225 L 321 234.5 L 327 245.5 L 328 262.5 Q 325.5 277 315.5 284 Q 308.8 291.8 293.5 291 L 301 282.5 Q 310 271.5 311 252.5 L 310 249.5 L 309 239.5 L 300 222 Z "/>
    <path fill="#ffd43b" d="M 151.5 48 L 166.5 48 L 167.5 49 L 329.5 49 L 331 50.5 L 330 51.5 L 330 61.5 L 329 62.5 L 329 81.5 L 330 82.5 L 330 99.5 L 333 115.5 L 341.5 129 L 349.5 134 L 361.5 137 Q 367.8 135.3 369.5 138 L 403.5 138 L 404.5 137 L 421.5 137 L 423 138.5 L 424 174.5 L 425 175.5 L 425 310.5 L 424 311.5 L 424 393.5 L 423 394.5 L 422 432.5 L 420 441.5 L 412.5 453 L 405.5 457 L 384.5 459 L 383.5 460 L 315.5 462 L 314.5 463 L 279.5 463 L 278.5 464 L 174.5 465 L 173.5 464 L 139.5 464 L 138.5 463 L 117.5 462 L 103.5 458 L 97 452.5 L 93 443.5 L 91 433.5 L 89 401.5 L 88 400.5 L 88 377.5 L 87 376.5 L 87 222.5 L 88 221.5 L 88 187.5 L 89 186.5 L 89 162.5 L 90 161.5 L 91 68.5 Q 92.4 59.9 97.5 55 L 103.5 52 L 120.5 49 L 150.5 49 L 151.5 48 Z M 293 210 L 284 212 L 280 216 L 280 220 L 293 233 L 299 249 L 298 264 L 291 277 Q 285 284 276 287 Q 272 288 273 295 L 283 301 L 292 303 L 306 302 L 321 295 L 333 282 L 337 274 L 340 260 L 339 246 L 337 240 L 326 222 L 310 212 L 302 210 L 293 210 Z M 207 216 L 196 219 L 188 224 Q 175 232 172 250 L 173 269 L 179 281 Q 188 293 207 297 L 217 297 L 226 295 L 240 286 Q 249 277 252 263 L 251 246 L 243 231 Q 236 222 226 218 L 216 216 L 207 216 Z "/>
    <path fill="#ffd43b" d="M 342.5 52 L 354 61.5 L 350.5 59 L 342 54 L 341.5 63 L 341 54.5 L 342.5 52 Z "/>
    <path fill="#ffd43b" d="M 355.5 62 L 357.5 65 L 355 63.5 L 355.5 62 Z "/>
    <path fill="#ffd43b" d="M 365.5 72 L 370 75.5 L 367.5 74 L 365.5 72 Z "/>
    <path fill="#ffd43b" d="M 371.5 77 L 386 89 L 387 91.5 L 375.5 81 L 371.5 77 Z "/>
    <path fill="#ffd43b" d="M 341.5 78 L 342 89.5 L 341 89.5 L 341.5 78 Z "/>
    <path fill="#ffd43b" d="M 342.5 91 L 343 101.5 L 344 102.5 L 342 101.5 L 342.5 91 Z "/>
    <path fill="#ffd43b" d="M 388.5 92 L 403.5 108 L 389.5 94 L 388 94 L 388.5 92 Z "/>
    <path fill="#ffd43b" d="M 343.5 105 L 345 108.5 L 343 107.5 L 343.5 105 Z "/>
    <path fill="#ffd43b" d="M 405.5 109 L 412 116.5 L 408 113.5 L 405.5 109 Z "/>
    <path fill="#ffd43b" d="M 344.5 110 L 346 113.5 L 345 113.5 L 344.5 110 Z "/>
    <path fill="#ffd43b" d="M 346.5 115 L 350.5 120 L 354 122.5 L 352.5 122 L 348 119.5 L 346.5 115 Z "/>
    <path fill="#ffd43b" d="M 359.5 124 L 374 125.5 L 366.5 126 Q 365 123.5 359.5 125 L 359.5 124 Z "/>
    <path fill="#ffd43b" d="M 382 125 L 386 125.5 L 382.5 127 L 382 125 Z "/>
    <path fill="#ffd43b" d="M 389.5 125 L 413 125.5 L 389.5 126 L 389.5 125 Z "/>
    <path fill="#ff6b6b" d="M 210 226 Q 215.3 224.8 214.5 228 L 218.5 228 L 220 227.5 L 219.5 229 L 222.5 228 L 228 231.5 L 229.5 234 L 231 233.5 Q 228.8 234.8 231.5 236 L 233 235.5 Q 230.8 236.7 233.5 238 Q 235.2 235.2 237 239.5 L 236.5 241 L 239 242.5 L 238 245 L 240 245.5 L 240 247.5 L 240.5 253 L 242 252.5 L 241 255.5 L 242 257.5 L 240 258.5 L 242 259 L 241.5 261 L 240 260.5 L 241 264.5 Q 238.4 265.9 239 270.5 L 236.5 273 L 235 273.5 L 235.5 275 Q 233.7 272.2 232 276.5 Q 234.7 278.2 230.5 280 L 229 279.5 L 225.5 284 L 223.5 283 L 223 285 L 218.5 286 L 213 285 Q 214.3 288 210.5 287 L 210.5 285 L 204 286 L 203.5 284 L 201.5 285 L 194 280.5 L 193.5 279 Q 192.3 281.3 191 278.5 L 189.5 275 L 187 273.5 L 187.5 272 L 185 270.5 L 184 268.5 L 184 264.5 L 182 257.5 L 182 255.5 L 182 251 Q 184.7 252.1 184 249.5 L 183 247.5 L 186.5 241 L 188 240.5 L 187.5 239 L 189 239.5 L 191 236.5 L 190 235.5 L 193.5 232 Q 196.7 227.9 204 229 Q 202.8 226 206.5 227 L 210 228 L 210 226 Z "/>
    <path fill="#ffa94d" d="M 342 54 L 355 62 L 356.5 65 L 359 65 Q 357.9 67.7 360.5 67 L 366.5 74 L 371 76 L 374.5 81 L 388 92 Q 386.9 94.7 389.5 94 L 403.5 108 L 405 108 L 411.5 117 L 414 118.5 L 417 125 L 389.5 125 L 386.5 126 L 382.5 125 L 377.5 126 L 375.5 125 L 373.5 125 L 358.5 124 L 355.5 122 L 354.5 123 L 351.5 120 L 347 116.5 L 344 109.5 L 344 107.5 L 343 103.5 L 343 101.5 L 342 78.5 L 341 77.5 L 342 75.5 L 342 73.5 L 341 67.5 L 342 64.5 L 342 62.5 L 342 54 Z "/>
    <path fill="#66d9e8" d="M 298.5 220 L 311.5 224 L 323 234.5 L 329 247.5 L 330 260.5 Q 327.3 277.8 315.5 286 L 300.5 293 L 292.5 293 L 290 291.5 Q 300.7 283.7 306 270.5 L 309 259.5 L 309 246.5 L 306 235.5 L 297 221.5 L 298.5 220 Z M 300 222 L 309 240 L 310 250 L 311 253 Q 310 272 301 283 L 294 291 Q 309 292 316 284 Q 326 277 328 263 L 327 246 L 321 235 L 311 225 L 300 222 Z "/>
    <path fill="#f783ac" d="M 214 226 L 221 228.5 L 219.5 229 L 214 228 L 214 226 Z "/>
    <path fill="#f783ac" d="M 203.5 227 L 204 229 L 200 228.5 L 203.5 227 Z "/>
    <path fill="#f783ac" d="M 228.5 232 L 230 232 L 230 234 L 232 234 L 232 236 Q 234.7 234.9 234 237.5 L 236.5 241 L 228.5 232 Z "/>
    <path fill="#f783ac" d="M 193.5 233 L 189 238.5 L 187.5 241 L 186 240.5 L 188 240 L 193.5 233 Z "/>
    <path fill="#f783ac" d="M 239.5 246 L 242 251.5 L 242 255.5 L 241.5 257 L 240 254.5 L 240 252.5 L 239.5 246 Z "/>
    <path fill="#f783ac" d="M 182.5 261 L 184 264.5 L 183 264.5 L 182.5 261 Z "/>
    <path fill="#f783ac" d="M 235.5 273 L 235 274.5 L 233.5 277 L 230 279.5 L 229.5 281 L 229 279.5 L 235.5 273 Z "/>
    <path fill="#f783ac" d="M 206.5 285 L 211 285.5 L 208.5 287 L 206.5 285 Z "/>
    <path fill="#f783ac" d="M 213 285 L 218 285.5 L 213 287 L 213 285 Z "/>
  </g>
  <g id="line">
    <path fill="#1a1a1a" d="M 130.5 37 L 294.5 38 L 295.5 37 L 332.5 37 L 346.5 41 L 354.5 46 L 400 86.5 Q 399.3 88.8 401.5 88 L 423 110.5 L 433 126.5 L 434 140.5 L 435 141.5 L 435 157.5 L 436 158.5 L 437 259.5 L 436 260.5 L 435 410.5 L 434 411.5 L 433 437.5 L 429 450.5 L 419.5 462 L 404.5 469 L 389.5 470 L 388.5 471 L 373.5 471 L 372.5 472 L 350.5 472 L 349.5 473 L 333.5 473 L 332.5 474 L 299.5 474 L 298.5 475 L 246.5 475 L 245.5 476 L 156.5 476 L 155.5 475 L 130.5 475 L 129.5 474 L 120.5 474 L 119.5 473 L 108.5 472 Q 95.6 469.4 89 460.5 L 83 450.5 L 81 442.5 L 80 430.5 L 79 429.5 L 79 420.5 L 78 419.5 L 78 410.5 L 77 409.5 L 76 347.5 L 75 346.5 L 75 256.5 L 76 255.5 L 77 166.5 L 78 165.5 L 78 140.5 L 79 139.5 L 79 72.5 L 82 57.5 L 90.5 46 L 103.5 40 L 114.5 39 L 115.5 38 L 129.5 38 L 130.5 37 Z M 152 48 L 151 49 L 121 49 L 104 52 L 98 55 Q 92 60 91 69 L 90 162 L 89 163 L 89 187 L 88 188 L 88 222 L 87 223 L 87 377 L 88 378 L 88 401 L 89 402 L 91 434 L 93 444 L 97 453 L 104 458 L 118 462 L 139 463 L 140 464 L 174 464 L 175 465 L 279 464 L 280 463 L 315 463 L 316 462 L 384 460 L 385 459 L 406 457 L 413 453 L 420 442 L 422 433 L 423 395 L 424 394 L 424 312 L 425 311 L 425 176 L 424 175 L 423 139 L 422 137 L 405 137 L 404 138 L 370 138 Q 368 135 362 137 L 350 134 L 342 129 L 333 116 L 330 100 L 330 83 L 329 82 L 329 63 L 330 62 L 330 52 L 331 51 L 330 49 L 168 49 L 167 48 L 152 48 Z M 343 52 L 341 55 L 341 90 L 342 91 L 342 102 L 344 112 L 348 120 L 360 125 L 382 126 L 383 127 L 384 126 L 413 126 L 418 125 L 412 116 L 388 92 L 386 89 L 385 89 L 367 72 Q 364 73 365 70 L 343 52 Z "/>
    <path fill="#1a1a1a" d="M 292.5 210 L 301.5 210 L 309.5 212 L 326 222 L 337 239.5 L 339 245.5 L 340 259.5 L 337 273.5 L 333 281.5 L 320.5 295 L 305.5 302 L 291.5 303 L 282.5 301 L 273 294.5 Q 271.8 288.3 275.5 287 Q 285.4 283.9 291 276.5 L 298 263.5 L 299 248.5 L 293 232.5 L 280 219.5 L 280 215.5 L 283.5 212 L 292.5 210 Z M 299 220 L 297 222 L 306 236 L 309 247 L 309 260 L 306 271 Q 301 284 290 292 L 293 293 L 301 293 L 316 286 Q 327 278 330 261 L 329 248 L 323 235 L 312 224 L 299 220 Z "/>
    <path fill="#1a1a1a" d="M 206.5 216 L 215.5 216 L 225.5 218 Q 236.3 222.2 243 230.5 L 251 245.5 L 252 262.5 Q 249 277.5 239.5 286 L 225.5 295 L 216.5 297 L 206.5 297 Q 188.3 293.3 179 280.5 L 173 268.5 L 172 249.5 Q 175.5 232.5 187.5 224 L 195.5 219 L 206.5 216 Z M 209 226 L 201 228 L 194 232 Q 185 239 182 252 L 183 266 L 190 278 L 197 283 L 209 287 Q 222 287 230 281 L 239 271 L 242 262 L 242 252 L 237 240 Q 232 232 223 228 L 216 226 L 209 226 Z "/>
  </g>
</svg>
