<svg xmlns="http://www.w3.org/2000/svg" width="512" height="512" viewBox="0 0 512 512">
  <g id="color">
    <path fill="#ffffff" d="M 328.5 37 L 330 37.5 L 326.5 40 L 328.5 37 Z "/>
    <path fill="#ffffff" d="M 177.5 39 L 179 39.5 L 173.5 42 L 173.5 41 L 177.5 39 Z "/>
    <path fill="#ffffff" d="M 189.5 39 L 190 41.5 L 187 43.5 L 189.5 39 Z "/>
    <path fill="#ffffff" d="M 338.5 39 L 344 41.5 L 342.5 42 L 338.5 40 L 338.5 39 Z "/>
    <path fill="#ffffff" d="M 345.5 42 L 349 44.5 L 347.5 44 L 345.5 42 Z "/>
    <path fill="#ffffff" d="M 250.5 43 L 265 43.5 L 250.5 44 L 250.5 43 Z "/>
    <path fill="#ffffff" d="M 239.5 44 L 247 44.5 L 239.5 45 L 239.5 44 Z "/>
    <path fill="#ffffff" d="M 267.5 44 L 275 44.5 L 267.5 45 L 267.5 44 Z "/>
    <path fill="#ffffff" d="M 163.5 46 L 162.5 48 L 160.5 49 L 161.5 47 L 163.5 46 Z "/>
    <path fill="#ffffff" d="M 175.5 49 L 174.5 51 L 172.5 52 L 173.5 50 L 175.5 49 Z "/>
    <path fill="#ffffff" d="M 341.5 52 L 345 54.5 L 343.5 54 L 341.5 52 Z "/>
    <path fill="#ffffff" d="M 311.5 53 L 316 54.5 L 314.5 55 L 311.5 54 L 311.5 53 Z "/>
    <path fill="#ffffff" d="M 319.5 56 L 323 57.5 L 321.5 58 L 319.5 56 Z "/>
    <path fill="#ffffff" d="M 348.5 56 L 352 58.5 L 350.5 58 L 348.5 56 Z "/>
    <path fill="#ffffff" d="M 187.5 59 L 186.5 61 L 183.5 62 L 183.5 61 L 187.5 59 Z "/>
    <path fill="#ffffff" d="M 181.5 62 L 180.5 64 L 178.5 65 L 179.5 63 L 181.5 62 Z "/>
    <path fill="#ffffff" d="M 332.5 62 L 336 64.5 L 334.5 64 L 332.5 62 Z "/>
    <path fill="#ffffff" d="M 134.5 66 L 115 86.5 L 114.5 88 L 114 86.5 L 134.5 66 Z "/>
    <path fill="#ffffff" d="M 174.5 66 L 173.5 68 L 171.5 69 L 172.5 67 L 174.5 66 Z "/>
    <path fill="#ffffff" d="M 339.5 66 L 343 68.5 L 341.5 68 L 339.5 66 Z "/>
    <path fill="#ffffff" d="M 344.5 69 L 349 72.5 L 346.5 71 L 344.5 69 Z "/>
    <path fill="#ffffff" d="M 165.5 72 L 164.5 74 L 161.5 76 L 163.5 73 L 165.5 72 Z "/>
    <path fill="#ffffff" d="M 384.5 107 L 389 112.5 L 386 110.5 L 384.5 107 Z "/>
    <path fill="#ffffff" d="M 109.5 109 L 109 110.5 L 106.5 114 L 108 111.5 L 109.5 109 Z "/>
    <path fill="#ffffff" d="M 415.5 110 L 418 113.5 L 416 112.5 L 415.5 110 Z "/>
    <path fill="#ffffff" d="M 406.5 116 L 409 119.5 L 407 118.5 L 406.5 116 Z "/>
    <path fill="#ffffff" d="M 419.5 117 L 422 120.5 L 420 119.5 L 419.5 117 Z "/>
    <path fill="#ffffff" d="M 118.5 121 L 118 122.5 L 116.5 125 L 117 123.5 L 118.5 121 Z "/>
    <path fill="#ffffff" d="M 422.5 122 L 425 127.5 L 424 127.5 L 422.5 122 Z "/>
    <path fill="#ffffff" d="M 395.5 124 L 398 127.5 L 396 126.5 L 395.5 124 Z "/>
    <path fill="#ffffff" d="M 115.5 126 L 115 127.5 L 113.5 130 L 114 128.5 L 115.5 126 Z "/>
    <path fill="#ffffff" d="M 399.5 131 L 402 136.5 L 401 136.5 L 399.5 131 Z "/>
    <path fill="#ffffff" d="M 426.5 131 L 428 134.5 L 427 134.5 L 426.5 131 Z "/>
    <path fill="#ffffff" d="M 95.5 134 L 96 135.5 L 93.5 140 L 93 138.5 L 95.5 134 Z "/>
    <path fill="#ffffff" d="M 84.5 135 L 85 136.5 L 83.5 139 L 83 137.5 L 84.5 135 Z "/>
    <path fill="#ffffff" d="M 416.5 136 L 418 139.5 L 417 139.5 L 416.5 136 Z "/>
    <path fill="#ffffff" d="M 108.5 139 L 109 140.5 L 106.5 145 L 106 143.5 L 108.5 139 Z "/>
    <path fill="#ffffff" d="M 429.5 139 L 431 142.5 L 430 142.5 L 429.5 139 Z "/>
    <path fill="#ffffff" d="M 92.5 141 L 93 142.5 L 91.5 145 L 91 143.5 L 92.5 141 Z "/>
    <path fill="#ffffff" d="M 81.5 143 L 82 144.5 L 80.5 147 L 80 145.5 L 81.5 143 Z "/>
    <path fill="#ffffff" d="M 105.5 146 L 106 147.5 L 104.5 150 L 104 148.5 L 105.5 146 Z "/>
    <path fill="#ffffff" d="M 432.5 148 L 434 152.5 L 433 152.5 L 432.5 148 Z "/>
    <path fill="#ffffff" d="M 78.5 152 L 79 153.5 L 77.5 157 L 77 154.5 L 78.5 152 Z "/>
    <path fill="#ffffff" d="M 423.5 155 L 425 160.5 L 424 160.5 L 423.5 155 Z "/>
    <path fill="#ffffff" d="M 409.5 156 L 411 161.5 L 410 161.5 L 409.5 156 Z "/>
    <path fill="#ffffff" d="M 101.5 157 L 102 159.5 L 100.5 162 L 100 160.5 L 101.5 157 Z "/>
    <path fill="#ffffff" d="M 426.5 166 L 428 173.5 L 427 173.5 L 426.5 166 Z "/>
    <path fill="#ffffff" d="M 413.5 171 L 414 175.5 L 413 175.5 L 413.5 171 Z "/>
    <path fill="#ffffff" d="M 439.5 176 L 440 180.5 L 439 180.5 L 439.5 176 Z "/>
    <path fill="#ffffff" d="M 81.5 182 L 82 188.5 L 81 189.5 L 80.5 199 L 80 189.5 L 81.5 182 Z "/>
    <path fill="#ffffff" d="M 429.5 182 L 430 187.5 L 429 187.5 L 429.5 182 Z "/>
    <path fill="#ffffff" d="M 440.5 182 L 441 188.5 L 440 188.5 L 440.5 182 Z "/>
    <path fill="#ffffff" d="M 95.5 183 L 96 187.5 L 95 187.5 L 95.5 183 Z "/>
    <path fill="#ffffff" d="M 415.5 184 L 416 188.5 L 415 188.5 L 415.5 184 Z "/>
    <path fill="#ffffff" d="M 71.5 185 L 72 190.5 L 71 190.5 L 71.5 185 Z "/>
    <path fill="#ffffff" d="M 430.5 189 L 431 197.5 L 430 197.5 L 430.5 189 Z "/>
    <path fill="#ffffff" d="M 94.5 190 L 95 199.5 L 94 199.5 L 94.5 190 Z "/>
    <path fill="#ffffff" d="M 70.5 192 L 72 229.5 L 71 229.5 Q 72.8 223.3 70 221.5 L 70.5 192 Z "/>
    <path fill="#ffffff" d="M 441.5 192 L 442 199.5 L 441 199.5 L 441.5 192 Z "/>
    <path fill="#ffffff" d="M 416.5 194 L 417 215.5 L 416 215.5 L 416.5 194 Z "/>
    <path fill="#ffffff" d="M 93.5 204 L 94 212.5 L 93 212.5 L 93.5 204 Z "/>
    <path fill="#ffffff" d="M 80.5 213 L 81 222.5 L 80 222.5 L 80.5 213 Z "/>
    <path fill="#ffffff" d="M 94.5 216 L 95 225.5 L 94 225.5 L 94.5 216 Z "/>
    <path fill="#ffffff" d="M 441.5 218 L 442 223.5 L 441 223.5 L 441.5 218 Z "/>
    <path fill="#ffffff" d="M 430.5 219 L 431 226.5 L 430 226.5 L 430.5 219 Z "/>
    <path fill="#ffffff" d="M 415.5 221 L 416 225.5 L 415 225.5 L 415.5 221 Z "/>
    <path fill="#ffffff" d="M 81.5 224 L 82 230.5 L 81 230.5 L 81.5 224 Z "/>
    <path fill="#ffffff" d="M 440.5 227 L 441 232.5 L 440 232.5 L 440.5 227 Z "/>
    <path fill="#ffffff" d="M 95.5 228 L 96 232.5 L 95 232.5 L 95.5 228 Z "/>
    <path fill="#ffffff" d="M 429.5 228 L 430 232.5 L 429 232.5 L 429.5 228 Z "/>
    <path fill="#ffffff" d="M 83.5 241 L 85 247.5 L 84 247.5 L 83.5 241 Z "/>
    <path fill="#ffffff" d="M 97.5 241 L 99 247.5 L 98 247.5 L 97.5 241 Z "/>
    <path fill="#ffffff" d="M 410.5 247 L 411 249.5 L 409.5 252 L 409 250.5 L 410.5 247 Z "/>
    <path fill="#ffffff" d="M 76.5 253 L 79 261.5 L 78 261.5 L 76.5 253 Z "/>
    <path fill="#ffffff" d="M 100.5 253 L 102 257.5 L 101 257.5 L 100.5 253 Z "/>
    <path fill="#ffffff" d="M 424.5 254 L 425 255.5 L 422.5 261 L 422 259.5 L 424.5 254 Z "/>
    <path fill="#ffffff" d="M 87.5 256 L 89 260.5 L 88 260.5 L 87.5 256 Z "/>
    <path fill="#ffffff" d="M 407.5 257 L 408 258.5 L 406.5 261 L 406 259.5 L 407.5 257 Z "/>
    <path fill="#ffffff" d="M 434.5 258 L 435 259.5 L 433.5 263 L 433 260.5 L 434.5 258 Z "/>
    <path fill="#ffffff" d="M 90.5 265 L 92 269.5 L 91 269.5 L 90.5 265 Z "/>
    <path fill="#ffffff" d="M 404.5 265 L 405 266.5 L 402.5 271 L 402 269.5 L 404.5 265 Z "/>
    <path fill="#ffffff" d="M 431.5 267 L 432 268.5 L 429.5 274 L 429 272.5 L 431.5 267 Z "/>
    <path fill="#ffffff" d="M 106.5 270 L 108 273.5 L 107 273.5 L 106.5 270 Z "/>
    <path fill="#ffffff" d="M 83.5 275 L 86 281.5 L 85 281.5 L 83.5 275 Z "/>
    <path fill="#ffffff" d="M 94.5 276 L 96 279.5 L 95 279.5 L 94.5 276 Z "/>
    <path fill="#ffffff" d="M 427.5 277 L 428 278.5 L 426.5 281 L 426 279.5 L 427.5 277 Z "/>
    <path fill="#ffffff" d="M 110.5 279 L 113 283.5 L 111 282.5 L 110.5 279 Z "/>
    <path fill="#ffffff" d="M 397.5 280 L 397 281.5 L 395.5 284 L 396 282.5 L 397.5 280 Z "/>
    <path fill="#ffffff" d="M 414.5 280 L 414 281.5 L 412.5 285 L 412 283.5 L 414.5 280 Z "/>
    <path fill="#ffffff" d="M 96.5 281 L 99 285.5 L 98 285.5 L 96.5 281 Z "/>
    <path fill="#ffffff" d="M 394.5 285 L 395 286.5 L 392 288.5 L 394.5 285 Z "/>
    <path fill="#ffffff" d="M 411.5 286 L 411 287.5 L 409.5 290 L 410 288.5 L 411.5 286 Z "/>
    <path fill="#ffffff" d="M 420.5 292 L 420 293.5 L 418.5 296 L 419 294.5 L 420.5 292 Z "/>
    <path fill="#ffffff" d="M 93.5 297 L 96 300.5 L 94 299.5 L 93.5 297 Z "/>
    <path fill="#ffffff" d="M 122.5 300 L 132 311.5 L 127 307.5 L 122.5 300 Z "/>
    <path fill="#ffffff" d="M 383.5 302 L 381 305.5 L 375.5 312 L 380 306.5 L 383.5 302 Z "/>
    <path fill="#ffffff" d="M 401.5 302 L 401 303.5 L 398.5 307 L 400 304.5 L 401.5 302 Z "/>
    <path fill="#ffffff" d="M 99.5 307 L 103 311.5 L 100 309.5 L 99.5 307 Z "/>
    <path fill="#ffffff" d="M 411.5 307 L 411 308.5 L 408.5 312 L 410 309.5 L 411.5 307 Z "/>
    <path fill="#ffffff" d="M 159.5 337 L 164 340.5 L 162.5 340 L 159.5 337 Z "/>
    <path fill="#ffffff" d="M 369.5 338 L 364.5 344 L 357.5 349 L 359.5 346 L 369.5 338 Z "/>
    <path fill="#ffffff" d="M 171.5 345 L 175 347.5 L 173.5 347 L 171.5 345 Z "/>
    <path fill="#ffffff" d="M 334.5 345 L 333.5 347 L 331.5 348 L 332.5 346 L 334.5 345 Z "/>
    <path fill="#ffffff" d="M 328.5 348 L 330 348.5 L 325.5 351 L 326.5 349 L 328.5 348 Z "/>
    <path fill="#ffffff" d="M 373.5 349 L 370.5 353 L 366.5 356 L 369.5 352 L 373.5 349 Z "/>
    <path fill="#ffffff" d="M 352.5 351 L 351.5 353 L 349.5 354 L 350.5 352 L 352.5 351 Z "/>
    <path fill="#ffffff" d="M 190.5 355 L 194 356.5 L 192.5 357 L 190.5 355 Z "/>
    <path fill="#ffffff" d="M 346.5 355 L 345.5 357 L 343.5 358 L 344.5 356 L 346.5 355 Z "/>
    <path fill="#ffffff" d="M 147.5 357 L 152 360.5 L 150.5 360 L 147.5 357 Z "/>
    <path fill="#ffffff" d="M 198.5 358 L 206 360.5 L 203.5 361 L 198.5 359 L 198.5 358 Z "/>
    <path fill="#ffffff" d="M 305.5 358 L 307 358.5 L 300.5 361 L 300.5 360 L 305.5 358 Z "/>
    <path fill="#ffffff" d="M 172.5 361 L 178 363.5 L 176.5 364 L 172.5 362 L 172.5 361 Z "/>
    <path fill="#ffffff" d="M 357.5 361 L 356.5 363 L 354.5 364 L 355.5 362 L 357.5 361 Z "/>
    <path fill="#ffffff" d="M 211.5 362 L 218 363.5 L 214.5 364 L 211.5 363 L 211.5 362 Z "/>
    <path fill="#ffffff" d="M 292.5 362 L 295 362.5 L 289.5 364 L 289.5 363 L 292.5 362 Z "/>
    <path fill="#ffffff" d="M 352.5 364 L 351.5 366 L 349.5 367 L 350.5 365 L 352.5 364 Z "/>
    <path fill="#ffffff" d="M 159.5 365 L 163 367.5 L 161.5 367 L 159.5 365 Z "/>
    <path fill="#ffffff" d="M 183.5 366 L 187 367.5 L 185.5 368 L 183.5 366 Z "/>
    <path fill="#ffffff" d="M 230.5 366 L 237 366.5 L 230.5 367 L 230.5 366 Z "/>
    <path fill="#ffffff" d="M 269.5 366 L 276 366.5 L 269.5 367 L 269.5 366 Z "/>
    <path fill="#ffffff" d="M 240.5 367 L 253 367.5 L 240.5 368 L 240.5 367 Z "/>
    <path fill="#ffffff" d="M 257.5 367 L 267 367.5 L 257.5 368 L 257.5 367 Z "/>
    <path fill="#ffffff" d="M 345.5 368 L 344.5 370 L 342.5 371 L 343.5 369 L 345.5 368 Z "/>
    <path fill="#ffffff" d="M 317.5 369 L 319 369.5 L 315.5 371 L 315.5 370 L 317.5 369 Z "/>
    <path fill="#ffffff" d="M 198.5 372 L 204 373.5 L 201.5 374 L 198.5 373 L 198.5 372 Z "/>
    <path fill="#ffffff" d="M 308.5 372 L 311 372.5 L 306.5 374 L 306.5 373 L 308.5 372 Z "/>
    <path fill="#ffffff" d="M 178.5 375 L 182 376.5 L 180.5 377 L 178.5 375 Z "/>
    <path fill="#ffffff" d="M 210.5 375 L 217 376.5 L 213.5 377 L 210.5 376 L 210.5 375 Z "/>
    <path fill="#ffffff" d="M 331.5 375 L 333 375.5 L 329.5 377 L 329.5 376 L 331.5 375 Z "/>
    <path fill="#ffffff" d="M 188.5 379 L 192 380.5 L 190.5 381 L 188.5 379 Z "/>
    <path fill="#ffffff" d="M 229.5 379 L 235 379.5 L 229.5 380 L 229.5 379 Z "/>
    <path fill="#ffffff" d="M 277.5 379 L 283 379.5 L 277.5 380 L 277.5 379 Z "/>
    <path fill="#ffffff" d="M 321.5 379 L 323 379.5 L 319.5 381 L 319.5 380 L 321.5 379 Z "/>
    <path fill="#ffffff" d="M 236.5 380 L 244 380.5 L 236.5 381 L 236.5 380 Z "/>
    <path fill="#ffffff" d="M 269.5 380 L 275 380.5 L 269.5 381 L 269.5 380 Z "/>
    <path fill="#ffffff" d="M 197.5 382 L 202 383.5 L 199.5 384 L 197.5 382 Z "/>
    <path fill="#ffffff" d="M 292.5 398 L 293 403.5 L 292 403.5 L 292.5 398 Z "/>
    <path fill="#ffffff" d="M 228.5 400 L 229 404.5 L 228 404.5 L 228.5 400 Z "/>
    <path fill="#ffffff" d="M 227.5 406 L 228 409.5 L 226.5 412 L 226 410.5 L 227.5 406 Z "/>
    <path fill="#ffffff" d="M 225.5 414 L 226 415.5 L 223.5 420 L 223 418.5 L 225.5 414 Z "/>
    <path fill="#ffffff" d="M 222.5 421 L 222 422.5 L 219.5 426 L 221 423.5 L 222.5 421 Z "/>
    <path fill="#ffffff" d="M 308.5 431 L 314 434.5 L 312.5 435 L 308.5 431 Z "/>
    <path fill="#ffffff" d="M 201.5 438 L 203 438.5 L 199.5 440 L 199.5 439 L 201.5 438 Z "/>
    <path fill="#ffffff" d="M 322.5 438 L 327 440.5 L 325.5 440 Q 321.8 439.8 322.5 438 Z "/>
    <path fill="#ffffff" d="M 194.5 441 L 196 441.5 L 191.5 444 L 192.5 442 L 194.5 441 Z "/>
    <path fill="#ffffff" d="M 189.5 444 L 187.5 447 L 183.5 450 L 186.5 446 L 189.5 444 Z "/>
    <path fill="#ffffff" d="M 182.5 451 L 181 453.5 L 180.5 455 L 180 453.5 L 182.5 451 Z "/>
    <path fill="#ffffff" d="M 179.5 469 L 183 473.5 L 179 470.5 L 179.5 469 Z "/>
    <path fill="#ffffff" d="M 184.5 474 L 198 474.5 L 184.5 475 L 184.5 474 Z "/>
    <path fill="#ffffff" d="M 207.5 475 L 226 475.5 L 207.5 476 L 207.5 475 Z "/>
    <path fill="#ffffff" d="M 285.5 475 L 331 475.5 L 285.5 476 L 285.5 475 Z "/>
    <path fill="#ffffff" d="M 229.5 476 L 281 476.5 L 229.5 477 L 229.5 476 Z "/>
    <path fill="#4da3ff" d="M 251.5 54 L 273.5 55 L 290.5 58 L 319.5 68 Q 337 76.5 351.5 88 L 370 106.5 L 372 109.5 L 386 129.5 L 399 160.5 L 404 184.5 L 405 214.5 L 404 215.5 L 404 224.5 L 402 231.5 L 402 237.5 Q 399 241.5 399 248.5 L 386 278.5 Q 371.3 303.8 349.5 322 L 324.5 339 L 292.5 352 L 271.5 356 L 263.5 356 L 262.5 357 L 243.5 357 L 242.5 356 L 224.5 355 L 215.5 352 L 211.5 352 L 191.5 345 L 165.5 330 L 141 307.5 L 126 287.5 L 113 260.5 L 106 235.5 L 105 221.5 L 104 220.5 L 104 198.5 L 105 197.5 L 105 191 Q 112.2 190.2 116.5 194 Q 124 203 135.5 208 L 145.5 209 L 151 207 Q 154 203.8 153 195.5 Q 148.7 190.3 148 181.5 L 149 178 L 162.5 173 L 168 168.5 Q 173.4 161.2 175 151 L 183.5 147 L 191 140.5 Q 195.7 135.7 194 124.5 Q 190.4 115.1 182.5 110 L 171 101.5 L 168 90.5 L 168 82 L 181.5 74 L 207.5 62 L 231.5 56 L 250.5 55 L 251.5 54 Z M 306 176 Q 293 179 285 186 Q 277 193 274 205 Q 272 220 279 227 L 290 233 L 306 234 L 310 236 L 316 246 L 317 271 L 322 283 Q 325 288 333 289 L 339 288 L 344 285 Q 355 276 361 261 L 363 252 L 363 236 L 369 224 Q 370 212 364 209 L 365 206 Q 367 194 362 190 Q 358 183 350 180 Q 337 179 332 186 L 327 185 L 318 178 L 311 176 L 306 176 Z M 175 205 L 167 208 L 161 214 L 161 220 Q 155 225 153 234 L 153 245 L 159 254 L 174 261 L 178 268 L 182 292 L 188 304 Q 193 313 206 316 L 212 314 L 215 309 L 215 280 L 219 271 L 230 255 L 233 242 L 230 229 Q 225 222 217 219 L 205 219 Q 197 217 194 212 Q 191 213 192 211 Q 187 204 175 205 Z "/>
    <path fill="#4da3ff" d="M 277.5 391 Q 282 390.5 282 391.5 L 282 404.5 L 284 414.5 L 290 428.5 L 300.5 440 Q 310.1 447.4 323.5 451 L 329 456.5 L 332 462.5 L 330.5 464 L 310.5 464 L 309.5 465 L 219.5 466 L 218.5 465 L 188 465 L 191 456 L 213.5 445 L 228 432.5 L 231 428.5 L 237 413.5 L 239 398.5 L 238 392 L 261.5 393 L 262.5 392 L 276.5 392 L 277.5 391 Z "/>
    <path fill="#51cf66" d="M 160.5 87 Q 164.3 85.8 163 89.5 L 162 91.5 Q 164.8 93.2 163 99.5 L 166 105.5 L 173.5 113 L 185 121.5 Q 187.9 125.1 187 132.5 L 182.5 139 L 169 147.5 Q 165.2 152.2 165 160.5 L 160.5 166 L 147.5 171 L 143 175.5 L 141 184.5 L 146 196.5 L 146 202 L 140.5 203 L 129.5 198 L 118.5 189 L 108.5 186 L 104 187 L 110 159.5 L 123 130.5 Q 135.3 108.8 153.5 93 L 160.5 87 Z "/>
    <path fill="#51cf66" d="M 306.5 182 L 314.5 183 L 325 189 Q 323.9 186.3 326.5 187 L 330 188 L 326 195.5 L 326 206.5 L 332.5 216 L 339.5 220 L 348.5 220 L 359 215 Q 357.9 212.3 360.5 213 Q 364 215 363 221.5 L 356 235.5 L 354 259.5 L 341.5 278 Q 338.7 281.7 332.5 282 L 326 276.5 L 324 268.5 L 322 241.5 L 313.5 231 L 304.5 227 L 289.5 226 L 283 221.5 Q 278.8 216.7 280 206.5 Q 282.2 194.7 290.5 189 L 298.5 184 L 306.5 182 Z "/>
    <path fill="#51cf66" d="M 174.5 210 L 184.5 212 Q 191.3 220.2 201.5 225 L 215.5 226 L 222 229 L 225 234.5 L 225 246.5 L 221 255.5 Q 213.4 263.4 209 274.5 L 207 282.5 L 207 293.5 L 208 294.5 L 208 306.5 Q 207.3 308.8 203.5 308 L 196 302.5 L 189 290.5 L 187 283.5 L 185 266.5 L 180 258 L 164.5 250 L 160 245.5 L 159 243.5 L 159 232.5 L 167 218.5 L 167 215.5 Q 164.3 213.8 168.5 212 L 174.5 210 Z "/>
    <path fill="#9775fa" d="M 339.5 188 Q 351.3 186.2 355 192.5 L 358 200.5 Q 356.8 208.3 351.5 212 Q 348.2 215.2 340.5 214 L 333 208.5 Q 330.3 205.2 331 198.5 Q 332.5 192 337.5 189 L 339.5 188 Z "/>
    <path fill="#66d9e8" d="M 242.5 53 L 270.5 53 L 271.5 54 L 288.5 56 L 300.5 59 L 318.5 66 Q 349.7 80.8 371 105.5 Q 387.5 124.5 397 150.5 L 404 174.5 L 407 207.5 L 406 208.5 L 406 221.5 L 405 222.5 L 404 234.5 Q 399.4 255.4 391 272.5 Q 375.3 302.3 350.5 323 L 325.5 340 L 300.5 351 L 268.5 358 L 236.5 358 L 213.5 354 L 184.5 343 Q 158.2 329.8 140 308.5 L 121 281.5 L 110 256.5 L 103 225.5 L 103 191.5 Q 104.8 188.3 111.5 190 L 117.5 193 L 130.5 204 L 140.5 208 L 144.5 208 L 151 203.5 L 152 196.5 L 147 186.5 L 147 179.5 L 151.5 175 Q 161.8 173.8 167 167.5 L 171 160.5 L 173 152.5 L 177.5 148 Q 185.5 145.5 190 139.5 Q 194 135.1 193 125.5 L 185.5 114 L 175.5 108 L 170 102.5 L 167 94.5 Q 167.7 86.5 166 82 Q 181.6 71.4 200.5 63 L 223.5 56 L 241.5 54 L 242.5 53 Z M 252 54 L 251 55 L 232 56 L 208 62 L 182 74 L 168 82 L 168 91 L 171 102 L 183 110 Q 190 115 194 125 Q 196 136 191 141 L 184 147 L 175 151 Q 173 161 168 169 L 163 173 L 149 178 L 148 182 Q 149 190 153 196 Q 154 204 151 207 L 146 209 L 136 208 Q 124 203 117 194 Q 112 190 105 191 L 105 198 L 104 199 L 104 221 L 105 222 L 106 236 L 113 261 L 126 288 L 141 308 L 166 330 L 192 345 L 212 352 L 216 352 L 225 355 L 243 356 L 244 357 L 263 357 L 264 356 L 272 356 L 293 352 L 325 339 L 350 322 Q 371 304 386 279 L 399 249 Q 399 242 402 238 L 402 232 L 404 225 L 404 216 L 405 215 L 404 185 L 399 161 L 386 130 L 372 110 L 370 107 L 352 88 Q 337 76 320 68 L 291 58 L 274 55 L 252 54 Z "/>
    <path fill="#66d9e8" d="M 305.5 176 L 310.5 176 L 317.5 178 L 326.5 185 L 331.5 186 Q 336.8 179.3 349.5 180 Q 357.6 182.9 362 189.5 Q 366.7 194.3 365 205.5 L 364 208.5 Q 370 212.5 369 223.5 L 363 235.5 L 363 251.5 L 361 260.5 Q 355.4 275.9 343.5 285 L 338.5 288 L 332.5 289 Q 325.1 287.9 322 282.5 L 317 270.5 L 316 245.5 L 309.5 236 L 305.5 234 L 289.5 233 L 279 226.5 Q 272 220 274 204.5 Q 277.1 193.1 284.5 186 Q 292.5 178.5 305.5 176 Z M 303 178 L 288 185 Q 278 193 275 207 Q 274 218 279 224 Q 278 226 281 225 L 282 228 L 289 231 L 303 232 L 311 235 Q 315 238 317 245 Q 320 253 318 267 Q 321 268 319 274 L 322 281 L 330 287 Q 338 288 342 285 Q 353 276 359 262 L 361 254 L 361 239 L 362 234 L 368 222 Q 368 212 362 209 L 364 204 Q 365 193 360 189 L 351 182 L 341 182 Q 334 184 331 189 L 317 179 Q 311 177 303 178 Z "/>
    <path fill="#66d9e8" d="M 174.5 205 Q 186.5 204.5 192 210.5 Q 191.3 212.8 193.5 212 Q 197.5 217 204.5 219 L 216.5 219 Q 225.2 221.8 230 228.5 L 233 241.5 L 230 254.5 L 219 270.5 L 215 279.5 L 215 308.5 L 211.5 314 L 205.5 316 Q 193.3 313.2 188 303.5 L 182 291.5 L 178 267.5 L 173.5 261 L 159 254 L 153 244.5 L 153 233.5 Q 155.5 225 161 219.5 L 161 213.5 L 166.5 208 L 174.5 205 Z M 173 207 L 165 211 L 162 215 L 163 217 L 162 221 L 155 232 L 154 237 Q 154 246 158 251 L 167 257 L 176 261 L 179 266 L 183 291 L 189 303 Q 194 310 203 314 L 211 313 L 214 307 L 214 297 L 213 296 Q 212 283 215 276 L 226 259 L 231 247 Q 232 236 229 230 L 221 222 Q 216 220 208 221 L 201 219 L 186 208 Q 181 206 173 207 Z "/>
    <path fill="#66d9e8" d="M 237 390 L 243.5 390 L 244.5 391 L 271.5 391 L 272.5 390 L 283 390 L 283 401.5 L 286 416.5 Q 290.9 431.6 302.5 440 Q 311 446 322.5 449 L 329 454.5 Q 333.3 457.9 333 465 L 323.5 465 L 322.5 466 L 291.5 466 L 290.5 467 L 188.5 467 Q 185.8 465.8 187 460.5 L 194.5 452 L 214.5 443 L 223 436.5 L 225 433.5 L 228 430.5 L 236 411.5 L 237 390 Z M 278 391 L 277 392 L 263 392 L 262 393 L 238 392 L 239 399 L 237 414 L 231 429 L 228 433 L 214 445 L 191 456 L 188 465 L 219 465 L 220 466 L 310 465 L 311 464 L 331 464 L 332 463 L 329 457 L 324 451 Q 310 447 301 440 L 290 429 L 284 415 L 282 405 L 282 392 Q 282 390 278 391 Z "/>
  </g>
  <g id="line">
    <path fill="#1a1a1a" d="M 330.5 37 Q 345.5 41 356.5 49 L 383 69 Q 381.9 71.7 384.5 71 Q 412.6 96.9 428 135.5 L 438 168.5 L 440 188.5 L 441 189.5 L 441 199.5 L 442 200.5 L 442 217.5 L 441 218.5 L 441 226.5 L 440 227.5 L 438 245.5 L 435 257.5 L 426 281.5 Q 409.3 316.8 382.5 342 Q 364.5 359 341.5 371 L 318.5 381 L 297.5 387 L 293.5 387 L 292 388.5 L 292 403.5 L 295 414.5 Q 298.7 424.8 306.5 431 L 312.5 435 L 329.5 442 L 336 447.5 Q 342.8 453.2 343 465.5 L 342 469.5 L 338.5 473 L 333.5 475 L 226.5 476 L 225.5 475 L 183.5 474 L 180 470.5 L 178 462.5 Q 179.8 452.3 186.5 447 L 210.5 435 L 219 427.5 L 228 409.5 L 229 389 L 214.5 387 L 192.5 381 L 163.5 368 Q 136.8 352.8 117 330.5 Q 91.9 303.1 79 263.5 L 72 232.5 L 72 222.5 L 71 221.5 L 71 191.5 L 72 190.5 L 72 182.5 L 76 160.5 L 86 131.5 L 96 112.5 L 113 88 Q 115.7 89.1 115 86.5 Q 133 65 157.5 50 L 179.5 39 L 189 38 Q 190 42.7 186.5 44 Q 148.4 60.9 123 90.5 Q 99.2 117.2 87 155.5 L 80 189.5 L 80 222.5 L 81 223.5 L 81 230.5 L 84 247.5 L 94 277.5 L 107 301.5 L 127 328 Q 129.7 326.9 129 329.5 L 133 332.5 Q 132.3 334.8 134.5 334 Q 160.1 359.9 198.5 373 L 236.5 381 L 274.5 381 L 307.5 374 L 338.5 361 L 364.5 344 L 386 323.5 Q 400.2 307.7 411 288.5 L 424 258.5 L 431 226.5 L 431 189.5 L 425 158.5 L 415 131.5 L 405 112.5 L 388 89 Q 385.3 90.1 386 87.5 Q 362.3 60.2 327 44.5 L 326 40.5 L 330.5 37 Z M 237 390 L 236 412 L 228 431 L 225 434 L 223 437 L 215 443 L 195 452 L 187 461 Q 186 466 189 467 L 291 467 L 292 466 L 323 466 L 324 465 L 333 465 Q 333 458 329 455 L 323 449 Q 311 446 303 440 Q 291 432 286 417 L 283 402 L 283 390 L 273 390 L 272 391 L 245 391 L 244 390 L 237 390 Z "/>
    <path fill="#1a1a1a" d="M 247.5 44 L 278.5 45 L 298.5 49 L 316.5 55 Q 336.3 63.2 352.5 75 L 376 96.5 Q 397.9 120.6 409 155.5 L 412 165.5 Q 412 175 415 181.5 L 415 188.5 L 416 189.5 L 416 220.5 L 412 243.5 L 409 253.5 L 398 279.5 Q 383.5 306.5 361.5 326 L 337.5 344 L 308.5 358 L 283.5 365 L 253.5 368 L 252.5 367 L 237.5 367 L 236.5 366 L 222.5 365 L 189.5 355 Q 155.1 339.4 132 312.5 Q 115.2 293.3 105 267.5 L 99 249.5 L 96 235.5 L 95 216.5 L 94 215.5 L 94 200.5 L 95 199.5 L 96 180.5 L 104 150.5 L 113 130.5 L 133 101 Q 135.7 102.1 135 99.5 Q 156.9 74.4 188.5 59 L 215.5 49 L 235.5 45 L 246.5 45 L 247.5 44 Z M 243 53 L 242 54 L 224 56 L 201 63 Q 182 71 166 82 Q 168 87 167 95 L 170 103 L 176 108 L 186 114 L 193 126 Q 194 135 190 140 Q 186 146 178 148 L 173 153 L 171 161 L 167 168 Q 162 174 152 175 L 147 180 L 147 187 L 152 197 L 151 204 L 145 208 L 141 208 L 131 204 L 118 193 L 112 190 Q 105 188 103 192 L 103 226 L 110 257 L 121 282 L 140 309 Q 158 330 185 343 L 214 354 L 237 358 L 269 358 L 301 351 L 326 340 L 351 323 Q 375 302 391 273 Q 399 255 404 235 L 405 223 L 406 222 L 406 209 L 407 208 L 404 175 L 397 151 Q 387 125 371 106 Q 350 81 319 66 L 301 59 L 289 56 L 272 54 L 271 53 L 243 53 Z M 161 87 L 154 93 Q 135 109 123 131 L 110 160 L 104 187 L 109 186 L 119 189 L 130 198 L 141 203 L 146 202 L 146 197 L 141 185 L 143 176 L 148 171 L 161 166 L 165 161 Q 165 152 169 148 L 183 139 L 187 133 Q 188 125 185 122 L 174 113 L 166 106 L 163 100 Q 165 93 162 92 L 163 90 Q 164 86 161 87 Z "/>
    <path fill="#1a1a1a" d="M 302.5 178 Q 311.4 176.6 316.5 179 L 326 186.5 L 325 189 L 314.5 183 L 306.5 182 Q 292.8 184.3 286 193.5 Q 279.2 200.2 280 214.5 L 285.5 224 L 289.5 226 L 308.5 228 L 320 237.5 L 323 246.5 L 323 259.5 L 324 260.5 L 325 273.5 L 330.5 281 L 333.5 282 Q 340.1 281.1 343 276.5 L 354 259.5 L 356 235.5 L 362 224.5 L 363 216.5 L 360.5 213 L 357.5 215 Q 352.6 221.6 339.5 220 L 329 212.5 Q 324.2 207.3 326 195.5 Q 329 188 335.5 184 L 340.5 182 L 350.5 182 L 360 188.5 Q 364.7 193.3 364 203.5 L 362 208.5 Q 368.1 211.9 368 221.5 L 362 233.5 L 361 238.5 L 361 253.5 L 359 261.5 Q 353.3 276.3 341.5 285 Q 337.5 288 329.5 287 L 322 280.5 L 319 273.5 Q 320.5 268 318 266.5 Q 319.8 253.2 317 244.5 Q 315.5 238 310.5 235 L 302.5 232 L 288.5 231 L 282 228 L 280.5 225 Q 278.3 225.8 279 223.5 Q 273.8 218.2 275 206.5 Q 278.2 192.7 287.5 185 L 302.5 178 Z M 340 188 L 338 189 Q 333 192 331 199 Q 330 205 333 209 L 341 214 Q 348 215 352 212 Q 357 208 358 201 L 355 193 Q 351 186 340 188 Z "/>
    <path fill="#1a1a1a" d="M 172.5 207 Q 180.8 205.8 185.5 208 L 200.5 219 L 207.5 221 Q 215.7 219.8 220.5 222 L 229 229.5 Q 232.4 235.6 231 246.5 L 226 258.5 L 215 275.5 Q 211.6 283.1 213 295.5 L 214 296.5 L 214 306.5 L 210.5 313 L 202.5 314 Q 193.7 310.3 189 302.5 L 183 290.5 L 179 265.5 L 175.5 261 L 166.5 257 L 158 250.5 Q 153.5 246 154 236.5 L 155 231.5 L 162 220.5 L 163 216.5 L 162 214.5 L 164.5 211 L 172.5 207 Z M 175 210 L 169 212 Q 164 214 167 216 L 167 219 L 159 233 L 159 244 L 160 246 L 165 250 L 180 258 L 185 267 L 187 284 L 189 291 L 196 303 L 204 308 Q 207 309 208 307 L 208 295 L 207 294 L 207 283 L 209 275 Q 213 263 221 256 L 225 247 L 225 235 L 222 229 L 216 226 L 202 225 Q 191 220 185 212 L 175 210 Z "/>
  </g>
</svg>
