<svg xmlns="http://www.w3.org/2000/svg" width="512" height="512" viewBox="0 0 512 512">
  <g id="color">
    <path fill="#ffffff" d="M 315.5 36 L 348 36.5 L 315.5 37 L 315.5 36 Z "/>
    <path fill="#ffffff" d="M 294.5 37 L 313 37.5 L 294.5 38 L 294.5 37 Z "/>
    <path fill="#ffffff" d="M 351.5 37 L 363 37.5 L 351.5 38 L 351.5 37 Z "/>
    <path fill="#ffffff" d="M 272.5 38 L 285 38.5 L 272.5 39 L 272.5 38 Z "/>
    <path fill="#ffffff" d="M 367.5 38 L 372 38.5 L 367.5 39 L 367.5 38 Z "/>
    <path fill="#ffffff" d="M 254.5 39 L 266 39.5 L 254.5 40 L 254.5 39 Z "/>
    <path fill="#ffffff" d="M 374.5 39 L 381 40.5 L 378.5 41 L 374.5 40 L 374.5 39 Z "/>
    <path fill="#ffffff" d="M 238.5 40 L 252 40.5 L 238.5 41 L 238.5 40 Z "/>
    <path fill="#ffffff" d="M 221.5 41 L 233 41.5 L 221.5 42 L 221.5 41 Z "/>
    <path fill="#ffffff" d="M 195.5 42 L 210 42.5 L 195.5 43 L 195.5 42 Z "/>
    <path fill="#ffffff" d="M 385.5 42 L 389 44.5 L 387.5 44 L 385.5 42 Z "/>
    <path fill="#ffffff" d="M 175.5 43 L 190 43.5 L 175.5 44 L 175.5 43 Z "/>
    <path fill="#ffffff" d="M 164.5 44 L 173 44.5 L 164.5 45 L 164.5 44 Z "/>
    <path fill="#ffffff" d="M 152.5 45 L 159 45.5 L 152.5 46 L 152.5 45 Z "/>
    <path fill="#ffffff" d="M 142.5 46 L 149 46.5 L 136.5 48 L 136.5 47 Q 141.3 48.2 142.5 46 Z "/>
    <path fill="#ffffff" d="M 125.5 49 L 129 49.5 L 118.5 52 L 118.5 51 L 125.5 49 Z "/>
    <path fill="#ffffff" d="M 112.5 53 L 114 53.5 L 110.5 55 L 110.5 54 L 112.5 53 Z "/>
    <path fill="#ffffff" d="M 398.5 59 L 400 63.5 L 399 63.5 L 398.5 59 Z "/>
    <path fill="#ffffff" d="M 97.5 62 L 91 69.5 L 88.5 73 L 90 70.5 L 97.5 62 Z "/>
    <path fill="#ffffff" d="M 405.5 74 L 408 77.5 L 406 76.5 L 405.5 74 Z "/>
    <path fill="#ffffff" d="M 408.5 79 L 410.5 80 L 411.5 79 L 420.5 79 L 420.5 80 Q 413 78.5 409.5 81 L 408.5 79 Z "/>
    <path fill="#ffffff" d="M 424.5 79 L 430 79.5 L 424.5 80 L 424.5 79 Z "/>
    <path fill="#ffffff" d="M 441.5 88 L 444 93.5 L 443 93.5 L 441.5 88 Z "/>
    <path fill="#ffffff" d="M 445.5 102 L 446 115.5 L 445 115.5 L 445.5 102 Z "/>
    <path fill="#ffffff" d="M 77.5 109 L 78 113.5 L 76.5 121 L 76 114.5 L 77.5 109 Z "/>
    <path fill="#ffffff" d="M 446.5 118 L 447 181.5 L 446 181.5 L 446.5 118 Z "/>
    <path fill="#ffffff" d="M 75.5 124 L 76 129.5 L 75 129.5 L 75.5 124 Z "/>
    <path fill="#ffffff" d="M 74.5 134 L 75 140.5 L 74 140.5 L 74.5 134 Z "/>
    <path fill="#ffffff" d="M 73.5 142 L 74 151.5 L 73 151.5 L 73.5 142 Z "/>
    <path fill="#ffffff" d="M 72.5 155 L 73 162.5 L 72 162.5 L 72.5 155 Z "/>
    <path fill="#ffffff" d="M 71.5 169 L 72 176.5 L 71 176.5 L 71.5 169 Z "/>
    <path fill="#ffffff" d="M 70.5 180 L 71 194.5 L 70 194.5 L 70.5 180 Z "/>
    <path fill="#ffffff" d="M 445.5 185 L 446 208.5 L 445 208.5 L 445.5 185 Z "/>
    <path fill="#ffffff" d="M 69.5 196 L 70 206.5 L 69 206.5 L 69.5 196 Z "/>
    <path fill="#ffffff" d="M 68.5 215 L 69 225.5 L 68 225.5 L 68.5 215 Z "/>
    <path fill="#ffffff" d="M 444.5 221 L 445 233.5 L 444 233.5 L 444.5 221 Z "/>
    <path fill="#ffffff" d="M 67.5 236 L 68 255.5 L 67 255.5 L 67.5 236 Z "/>
    <path fill="#ffffff" d="M 443.5 244 L 444 257.5 L 443 257.5 L 443.5 244 Z "/>
    <path fill="#ffffff" d="M 66.5 259 L 67 343.5 L 66 343.5 L 66.5 259 Z "/>
    <path fill="#ffffff" d="M 442.5 261 L 443 276.5 L 442 276.5 L 442.5 261 Z "/>
    <path fill="#ffffff" d="M 441.5 282 L 442 292.5 L 441 292.5 L 441.5 282 Z "/>
    <path fill="#ffffff" d="M 440.5 300 L 441 308.5 L 440 308.5 L 440.5 300 Z "/>
    <path fill="#ffffff" d="M 439.5 313 L 440 325.5 L 439 325.5 L 439.5 313 Z "/>
    <path fill="#ffffff" d="M 438.5 328 L 439 336.5 L 438 336.5 L 438.5 328 Z "/>
    <path fill="#ffffff" d="M 437.5 344 L 438 351.5 L 437 351.5 L 437.5 344 Z "/>
    <path fill="#ffffff" d="M 67.5 346 L 68 364.5 L 67 364.5 L 67.5 346 Z "/>
    <path fill="#ffffff" d="M 436.5 355 L 437 366.5 L 436 366.5 L 436.5 355 Z "/>
    <path fill="#ffffff" d="M 435.5 368 L 436 377.5 L 435 377.5 L 435.5 368 Z "/>
    <path fill="#ffffff" d="M 68.5 373 L 69 383.5 L 68 383.5 L 68.5 373 Z "/>
    <path fill="#ffffff" d="M 434.5 383 L 435 389.5 L 434 389.5 L 434.5 383 Z "/>
    <path fill="#ffffff" d="M 69.5 391 L 70 398.5 L 69 398.5 L 69.5 391 Z "/>
    <path fill="#ffffff" d="M 433.5 395 L 434 403.5 L 433 403.5 L 433.5 395 Z "/>
    <path fill="#ffffff" d="M 70.5 401 L 71 409.5 L 70 409.5 L 70.5 401 Z "/>
    <path fill="#ffffff" d="M 432.5 405 L 433 413.5 L 432 413.5 L 432.5 405 Z "/>
    <path fill="#ffffff" d="M 71.5 413 L 72 419.5 L 71 419.5 L 71.5 413 Z "/>
    <path fill="#ffffff" d="M 431.5 418 L 432 424.5 L 431 424.5 L 431.5 418 Z "/>
    <path fill="#ffffff" d="M 72.5 424 L 73 429.5 L 72 429.5 L 72.5 424 Z "/>
    <path fill="#ffffff" d="M 430.5 431 L 431 435.5 L 430 435.5 L 430.5 431 Z "/>
    <path fill="#ffffff" d="M 73.5 432 L 74 436.5 L 73 436.5 L 73.5 432 Z "/>
    <path fill="#ffffff" d="M 429.5 437 L 430 441.5 L 429 441.5 L 429.5 437 Z "/>
    <path fill="#ffffff" d="M 93.5 464 L 97 466.5 L 95.5 466 L 93.5 464 Z "/>
    <path fill="#ffffff" d="M 404.5 465 L 408 465.5 L 399.5 467 L 399.5 466 L 404.5 465 Z "/>
    <path fill="#ffffff" d="M 100.5 468 L 104 469.5 L 102.5 470 L 100.5 468 Z "/>
    <path fill="#ffffff" d="M 385.5 468 L 390 468.5 L 385.5 469 L 385.5 468 Z "/>
    <path fill="#ffffff" d="M 376.5 469 L 384 469.5 L 376.5 470 L 376.5 469 Z "/>
    <path fill="#ffffff" d="M 368.5 470 L 374 470.5 L 368.5 471 L 368.5 470 Z "/>
    <path fill="#ffffff" d="M 354.5 471 L 362 471.5 L 354.5 472 L 354.5 471 Z "/>
    <path fill="#ffffff" d="M 124.5 472 L 138 472.5 L 124.5 473 L 124.5 472 Z "/>
    <path fill="#ffffff" d="M 335.5 472 L 350 472.5 L 335.5 473 L 335.5 472 Z "/>
    <path fill="#ffffff" d="M 139.5 473 L 150 473.5 L 139.5 474 L 139.5 473 Z "/>
    <path fill="#ffffff" d="M 322.5 473 L 334 473.5 L 322.5 474 L 322.5 473 Z "/>
    <path fill="#ffffff" d="M 158.5 474 L 171 474.5 L 158.5 475 L 158.5 474 Z "/>
    <path fill="#ffffff" d="M 297.5 474 L 313 474.5 L 297.5 475 L 297.5 474 Z "/>
    <path fill="#ffffff" d="M 180.5 475 L 204 475.5 L 180.5 476 L 180.5 475 Z "/>
    <path fill="#ffffff" d="M 260.5 475 L 287 475.5 L 260.5 476 L 260.5 475 Z "/>
    <path fill="#ffffff" d="M 206.5 476 L 255 476.5 L 206.5 477 L 206.5 476 Z "/>
    <path fill="#4da3ff" d="M 302.5 50 L 355.5 50 L 356.5 51 L 366.5 51 L 376.5 53 L 383 56.5 L 388 70.5 L 389 89.5 L 390 90.5 L 390 92.5 L 391 111.5 L 391 113.5 L 390 118.5 L 391 119.5 L 391 152.5 L 390 155.5 L 391 158.5 L 390 161.5 L 391 163.5 L 390 164.5 L 390 191.5 L 389 193.5 L 390 198.5 L 389 199.5 L 389 236.5 L 388 237.5 L 387 288.5 L 386 289.5 L 385 324.5 L 383 332.5 L 384 335.5 L 383 336.5 L 382 356.5 L 380 361.5 L 380 363.5 L 380 368.5 L 377 377.5 L 372.5 382 L 367.5 385 L 358.5 387 L 356.5 387 L 345.5 389 L 329.5 389 L 327.5 390 L 325.5 390 L 311.5 390 L 310.5 391 L 232.5 391 L 228.5 391 L 217.5 391 L 216.5 390 L 156.5 390 L 155.5 391 L 131.5 391 L 125 392 L 124 388.5 L 124 365.5 L 123 361.5 L 123 359.5 L 122 324.5 L 123 322.5 L 123 320.5 L 122 317.5 L 123 315.5 L 122 314.5 L 122 276.5 Q 124.8 274.7 123 268.5 Q 120.5 267 122 261.5 L 123 260.5 L 123 222.5 L 124 221.5 L 125 168.5 L 126 167.5 L 127 156.5 L 126 154.5 L 127 153.5 L 127 135.5 L 128 134.5 L 127 132.5 L 128 131.5 L 129 103.5 L 131 93.5 L 132 67.5 L 134.5 61 L 147.5 60 L 148.5 59 L 150.5 59 L 186.5 56 L 188.5 56 L 221.5 55 L 222.5 54 L 244.5 54 L 245.5 53 L 257.5 53 L 258.5 52 L 301.5 51 L 302.5 50 Z M 200 132 L 197 136 L 200 147 L 204 152 Q 209 153 210 150 L 205 135 Q 204 131 200 132 Z M 249 133 L 243 140 L 239 152 Q 241 155 246 154 L 253 140 L 253 134 L 249 133 Z M 221 157 L 204 162 L 194 169 L 184 182 L 181 196 L 183 210 L 190 223 L 210 236 Q 209 238 212 237 L 217 255 Q 220 259 226 259 L 230 266 L 237 268 Q 244 268 249 265 L 253 261 L 256 252 L 255 250 L 258 245 L 258 238 L 253 228 L 253 219 L 260 204 L 260 186 L 254 174 L 243 163 L 238 160 Q 231 160 228 157 L 225 158 L 221 157 Z M 162 164 L 161 171 L 171 176 L 179 177 L 180 172 L 167 164 L 162 164 Z M 311 265 L 305 269 Q 302 268 303 271 L 300 272 L 297 279 L 292 278 Q 281 277 276 281 L 270 289 Q 270 300 276 306 Q 278 311 274 310 L 270 317 L 268 325 L 268 327 L 270 332 Q 277 341 293 339 L 297 349 Q 300 353 307 355 L 314 354 L 321 348 Q 320 345 323 346 L 324 341 L 331 341 L 332 342 Q 341 342 347 338 L 349 336 L 351 330 L 350 321 L 344 313 L 353 299 Q 354 291 351 288 Q 345 280 331 281 L 322 267 Q 319 264 311 265 Z "/>
    <path fill="#4da3ff" d="M 121.5 64 L 124 64.5 L 122 73.5 L 122 84.5 L 120 94.5 L 119 120.5 L 118 121.5 Q 119.7 129.7 117 133.5 L 118 135.5 L 117 136.5 L 116 173.5 L 115 174.5 L 115 189.5 L 114 190.5 L 115 192.5 L 114 193.5 L 114 216.5 L 113 218.5 L 114 221.5 L 113 222.5 L 113 267.5 L 112 268.5 L 113 270.5 L 112 271.5 L 112 327.5 L 113 328.5 L 114 384.5 L 116 392.5 L 102.5 396 L 89 404 L 89 406 L 87 406 L 87 408 Q 84.3 406.9 85 409.5 L 84 409.5 L 83 397.5 L 82 396.5 L 81 356.5 L 80 355.5 L 80 329.5 L 79 328.5 L 80 326.5 L 80 324.5 L 79 309.5 Q 81.7 307.8 80 301.5 L 79 300.5 L 79 292.5 L 80 287.5 Q 77.3 285.8 79 279.5 L 80 278.5 L 81 216.5 L 82 215.5 L 82 198.5 L 84 188.5 L 84 186.5 L 85 159.5 L 86 158.5 L 87 137.5 L 88 136.5 L 88 127.5 L 91 112.5 L 91 105.5 L 95 92.5 L 95 88.5 L 102 75 L 105 73.5 Q 104.3 71.3 106.5 72 L 111.5 68 L 121.5 64 Z "/>
    <path fill="#4da3ff" d="M 420.5 92 L 428.5 93 L 430 94.5 L 432 99.5 L 432 101.5 L 432 111.5 L 433 112.5 L 433 199.5 L 432 200.5 L 432 232.5 L 431 233.5 L 430 266.5 L 429 267.5 L 429 287.5 L 428 288.5 L 425.5 332 L 424 329.5 L 425 328.5 L 425 313.5 L 426 311.5 L 426 309.5 L 425 307.5 L 426 306.5 L 426 276.5 L 427 275.5 L 427 244.5 L 428 243.5 L 429 210.5 L 430 209.5 L 430 188.5 L 431 187.5 L 431 170.5 L 432 169.5 L 432 112.5 L 431 111.5 L 431 101.5 L 428.5 99 Q 422.4 96.8 420.5 92 Z "/>
    <path fill="#4da3ff" d="M 424.5 333 L 425 343.5 L 424 343.5 L 424.5 333 Z "/>
    <path fill="#4da3ff" d="M 424.5 345 L 425 346.5 L 424 347.5 L 423.5 356 L 423 346.5 L 424.5 345 Z "/>
    <path fill="#4da3ff" d="M 421.5 375 L 422 385.5 L 421 386.5 L 421 397.5 L 420 398.5 L 420 408.5 L 419 409.5 L 418 432.5 Q 414.8 435.8 416 443.5 L 414.5 445 L 412 443.5 L 414 425.5 L 419 400.5 L 419 391.5 L 420 390.5 L 421.5 375 Z "/>
    <path fill="#ffd43b" d="M 401 79 L 405 81.5 L 414 94.5 Q 412.5 100 415 101.5 L 415 163 L 418 161.5 L 419 110.5 L 418 109.5 L 418 100 L 420.5 100 L 425 103.5 L 426 105.5 L 426 124.5 L 427 125.5 L 427 155.5 L 426 156.5 L 426 179.5 L 425 180.5 L 425 198.5 L 424 199.5 L 424 222.5 L 423 223.5 L 423 240.5 L 422 241.5 L 422 260.5 L 421 261.5 L 421 298.5 L 420 299.5 L 420 326.5 L 419 327.5 L 418 356.5 L 417 357.5 L 416 380.5 L 414 388.5 L 414 396.5 L 411 411.5 L 411 418.5 L 408 429.5 L 407 440.5 L 405.5 442 L 397 437 L 399 425.5 L 401 421.5 L 402 410.5 L 404 405.5 L 405 393.5 L 407 386.5 L 409 358.5 L 410 357.5 L 410 337.5 L 408 336.5 L 406 363.5 L 405 364.5 L 404 380.5 L 401 393.5 L 401 401.5 L 394 431 L 391 429.5 Q 384.8 421.8 382 410.5 L 382 392.5 L 388 383.5 L 392 373.5 L 392 368.5 L 394 362.5 L 394 354.5 L 395 353.5 L 396 332.5 L 397 331.5 L 398 297.5 L 399 296.5 L 399 274.5 L 400 273.5 L 400 249.5 L 401 248.5 L 402 178.5 L 403 177.5 L 403 99.5 L 402 98.5 L 402 81.5 L 401 79 Z "/>
    <path fill="#ffd43b" d="M 214.5 165 L 228.5 165 Q 238.1 167.2 244 172 L 250 180.5 L 253 188.5 L 253 200.5 L 247 214.5 L 246 227.5 L 247 232 L 242 233 L 236 221.5 L 232 207.5 Q 238.1 204.1 239 195.5 L 235.5 190 L 231.5 189 L 227 192.5 Q 224.7 195.7 226 202.5 L 227 205.5 L 221.5 208 L 214.5 199 L 208.5 198 L 204 204.5 L 209.5 212 L 217.5 213 L 219 214.5 L 224 228.5 L 225 238.5 L 221.5 240 L 210.5 227 Q 199.1 223.4 193 214.5 L 189 206.5 L 189 189.5 Q 192.1 179.1 199.5 173 L 214.5 165 Z "/>
    <path fill="#ffd43b" d="M 231.5 194 L 234 194 L 234 199.5 L 231.5 203 Q 228.5 201.5 230 195.5 L 231.5 194 Z "/>
    <path fill="#ffd43b" d="M 209 202 L 214 203 L 216 209 Q 211 209.8 209 206.5 L 208 204.5 L 209 202 Z "/>
    <path fill="#ffd43b" d="M 225.5 211 Q 228.8 209.9 228 212.5 L 238 236 L 229 238 L 229 233.5 L 223 212 L 225.5 211 Z "/>
    <path fill="#ffd43b" d="M 248.5 237 Q 251.5 237.5 251 241.5 L 245.5 246 L 236.5 250 L 224.5 251 L 222 246 L 237.5 242 L 248.5 237 Z "/>
    <path fill="#ffd43b" d="M 245.5 252 Q 249.7 250.7 248 255.5 L 247 258 L 238.5 261 L 233 257.5 Q 232.2 254.9 235.5 256 L 245.5 252 Z "/>
    <path fill="#ffd43b" d="M 369.5 397 L 371 397.5 L 371 404.5 L 372 405.5 L 372 414.5 L 378 432 L 370.5 434 L 364.5 434 L 356.5 436 L 347.5 436 L 346.5 437 L 329.5 437 L 328.5 438 L 280.5 438 L 278 439.5 L 279.5 441 L 343.5 441 L 344.5 440 L 354.5 440 L 362.5 438 L 369.5 438 L 380.5 435 Q 389.1 446.4 402 453.5 Q 402.6 456.3 396.5 455 L 390.5 457 L 372.5 458 L 364.5 460 L 316.5 462 L 315.5 463 L 256.5 464 L 255.5 465 L 210.5 465 L 209.5 464 L 154.5 463 L 153.5 462 L 122.5 461 L 118.5 460 Q 116.8 462.8 110.5 461 Q 98.3 456.7 91 447.5 L 89 444.5 L 87 435.5 L 90 423.5 L 100.5 411 L 109.5 407 L 117.5 405 L 127.5 405 L 128.5 404 L 145.5 404 L 146.5 403 L 235.5 403 L 236.5 404 L 302.5 404 L 303.5 403 L 322.5 403 L 323.5 402 L 352.5 401 L 369.5 397 Z M 326 418 L 316 420 L 307 420 L 306 421 L 235 421 L 234 420 L 207 420 L 206 419 L 151 420 L 122 425 Q 117 424 119 428 L 134 425 L 157 424 L 158 423 L 217 423 L 218 424 L 244 424 L 245 425 L 300 425 L 301 424 L 315 424 L 316 423 L 335 421 L 335 418 L 326 418 Z "/>
    <path fill="#ffa94d" d="M 311.5 270 L 316.5 270 L 322 275.5 L 325 282.5 L 323.5 284 L 311.5 287 L 302 283 Q 302.1 275.5 307.5 272 L 311.5 270 Z "/>
    <path fill="#ffa94d" d="M 282.5 283 Q 290.5 282.3 295 284 L 294 292.5 L 292 294.5 L 293 296.5 L 284 302 Q 285.1 304.7 282.5 304 L 281 304.5 L 277 298.5 L 277.5 297 Q 274.5 297.9 276 293.5 L 275 289.5 L 278.5 285 L 282.5 283 Z "/>
    <path fill="#ffa94d" d="M 299 286 Q 304 285.2 306 288.5 L 304.5 291 L 298.5 294 L 298 288.5 L 299 286 Z "/>
    <path fill="#ffa94d" d="M 330 286 Q 342.1 284.1 347 290.5 L 348 296.5 L 345 303.5 L 340.5 308 L 331 299.5 L 330 286 Z "/>
    <path fill="#ffa94d" d="M 323.5 287 L 326 288.5 L 327 295 L 324.5 295 L 318 291 Q 316.2 286.1 322.5 288 L 323.5 287 Z "/>
    <path fill="#ffa94d" d="M 310.5 291 L 316.5 293 L 328 302.5 L 327 305.5 L 327 307.5 L 327 316.5 L 325.5 317 L 326 318.5 L 323.5 322 L 311.5 328 L 307.5 328 L 294 317.5 L 295 314.5 L 294 309.5 L 295 308.5 L 295 300.5 L 296.5 299 L 310.5 291 Z M 307 301 L 304 302 L 301 309 L 304 317 L 309 319 L 316 318 L 319 313 L 319 311 L 320 309 L 319 306 Q 317 299 307 301 Z "/>
    <path fill="#ffa94d" d="M 289.5 304 L 291 304.5 L 291 313 Q 287.2 313.8 286 310.5 L 285 307.5 L 289.5 304 Z "/>
    <path fill="#ffa94d" d="M 308.5 304 Q 314.8 302.8 316 306.5 L 317 308.5 L 316 310.5 L 317 311.5 L 313.5 315 L 310.5 316 L 305 312.5 Q 303.5 306.5 306.5 305 L 308.5 304 Z "/>
    <path fill="#ffa94d" d="M 331.5 306 L 336 309.5 L 337 311.5 L 331.5 316 L 330 312.5 L 331.5 306 Z "/>
    <path fill="#ffa94d" d="M 280.5 312 L 282.5 312 L 291 320.5 Q 290.3 328.5 292 333 L 284.5 334 Q 283.3 331.8 278.5 333 L 275 331 L 273 327.5 L 273 323.5 L 277.5 315 Q 279.8 315.8 279 313.5 L 280.5 312 Z "/>
    <path fill="#ffa94d" d="M 338.5 315 L 341 316.5 L 346 326.5 L 346 328.5 Q 345.8 333.3 342.5 335 L 337.5 337 L 335.5 337 L 327.5 336 L 326 334.5 Q 329 331.5 328 324.5 L 330.5 321 L 338.5 315 Z "/>
    <path fill="#ffa94d" d="M 295 325 L 303 328 L 304 330.5 L 296.5 333 L 295 330.5 L 295 328.5 L 295 325 Z "/>
    <path fill="#ffa94d" d="M 322.5 326 Q 325.5 325.1 324 329.5 L 321.5 334 L 316 332 L 317.5 329 L 322.5 326 Z "/>
    <path fill="#ffa94d" d="M 308.5 332 Q 310.8 331.3 310 333.5 Q 311.8 331.9 313.5 335 L 320 337 Q 319.3 344.5 313.5 348 L 306.5 350 L 300 344.5 L 297 337.5 L 300.5 335 L 302.5 335 L 308.5 332 Z "/>
    <path fill="#66d9e8" d="M 312.5 48 L 350.5 48 L 351.5 49 L 364.5 49 L 378.5 52 L 385 56.5 L 389 67.5 L 390 81.5 L 391 82.5 L 393 146.5 L 392 147.5 L 392 181.5 L 391 182.5 L 391 217.5 L 390 218.5 L 390 255.5 L 389 256.5 L 389 278.5 L 388 279.5 L 388 300.5 L 387 301.5 L 386 331.5 L 385 332.5 L 384 354.5 L 381 371.5 Q 378.9 379.9 372.5 384 L 362.5 388 L 351.5 390 L 340.5 390 L 339.5 391 L 299.5 392 L 298.5 393 L 237.5 393 L 236.5 392 L 145.5 392 L 144.5 393 L 127.5 393 L 124.5 394 L 123 392.5 L 123 380.5 L 122 379.5 L 120 290.5 L 121 289.5 L 121 241.5 L 122 240.5 L 123 177.5 L 124 176.5 L 125 141.5 L 126 140.5 L 126 124.5 L 127 123.5 L 127 110.5 L 128 109.5 L 128 97.5 L 129 96.5 L 129 83.5 L 131 72.5 L 131 62.5 L 132 60 L 134.5 59 L 158.5 57 L 159.5 56 L 208.5 54 L 209.5 53 L 230.5 53 L 231.5 52 L 250.5 52 L 251.5 51 L 265.5 51 L 266.5 50 L 284.5 50 L 285.5 49 L 311.5 49 L 312.5 48 Z M 303 50 L 302 51 L 259 52 L 258 53 L 246 53 L 245 54 L 223 54 L 222 55 L 189 56 L 187 56 L 151 59 L 149 59 L 148 60 L 135 61 L 132 68 L 131 94 L 129 104 L 128 132 L 127 133 L 128 135 L 127 136 L 127 154 L 126 155 L 127 157 L 126 168 L 125 169 L 124 222 L 123 223 L 123 261 L 122 262 Q 121 267 123 269 Q 125 275 122 277 L 122 315 L 123 316 L 122 318 L 123 321 L 123 323 L 122 325 L 123 360 L 123 362 L 124 366 L 124 389 L 125 392 L 132 391 L 156 391 L 157 390 L 217 390 L 218 391 L 229 391 L 233 391 L 311 391 L 312 390 L 326 390 L 328 390 L 330 389 L 346 389 L 357 387 L 359 387 L 368 385 L 373 382 L 377 378 L 380 369 L 380 364 L 380 362 L 382 357 L 383 337 L 384 336 L 383 333 L 385 325 L 386 290 L 387 289 L 388 238 L 389 237 L 389 200 L 390 199 L 389 194 L 390 192 L 390 165 L 391 164 L 390 162 L 391 159 L 390 156 L 391 153 L 391 120 L 390 119 L 391 114 L 391 112 L 390 93 L 390 91 L 389 90 L 388 71 L 383 57 L 377 53 L 367 51 L 357 51 L 356 50 L 303 50 Z "/>
    <path fill="#66d9e8" d="M 122.5 62 L 125 62 L 125 68.5 L 123 78.5 L 123 90.5 L 122 91.5 L 121 113.5 L 120 114.5 L 119 144.5 L 118 145.5 L 118 165.5 L 117 166.5 L 117 186.5 L 116 187.5 L 116 206.5 L 115 207.5 L 115 244.5 L 114 245.5 L 114 346.5 L 115 347.5 L 115 373.5 L 116 374.5 L 117 393.5 L 115.5 395 L 101.5 398 Q 93.2 401.2 88 407.5 L 83.5 413 L 82 411.5 L 82 402.5 L 81 401.5 L 80 373.5 L 79 372.5 L 79 345.5 L 78 344.5 L 78 255.5 L 79 254.5 L 79 225.5 L 80 224.5 L 80 206.5 L 81 205.5 L 81 193.5 L 82 192.5 L 83 163.5 L 85 153.5 L 85 142.5 L 86 141.5 L 86 131.5 L 88 123.5 L 89 108.5 L 95 84.5 L 103.5 72 Q 111.2 65.2 122.5 62 Z M 122 64 L 112 68 L 107 72 Q 104 71 105 74 L 102 75 L 95 89 L 95 93 L 91 106 L 91 113 L 88 128 L 88 137 L 87 138 L 86 159 L 85 160 L 84 187 L 84 189 L 82 199 L 82 216 L 81 217 L 80 279 L 79 280 Q 77 286 80 288 L 79 293 L 79 301 L 80 302 Q 82 308 79 310 L 80 325 L 80 327 L 79 329 L 80 330 L 80 356 L 81 357 L 82 397 L 83 398 L 84 410 L 85 410 Q 84 407 87 408 L 87 406 L 89 406 L 89 404 L 103 396 L 116 393 L 114 385 L 113 329 L 112 328 L 112 272 L 113 271 L 112 269 L 113 268 L 113 223 L 114 222 L 113 219 L 114 217 L 114 194 L 115 193 L 114 191 L 115 190 L 115 175 L 116 174 L 117 137 L 118 136 L 117 134 Q 120 130 118 122 L 119 121 L 120 95 L 122 85 L 122 74 L 124 65 L 122 64 Z "/>
    <path fill="#66d9e8" d="M 418 91 Q 429.5 88.8 433 95.5 Q 431.5 101 434 102.5 L 434 122.5 L 435 123.5 L 435 182.5 L 434 183.5 L 434 221.5 L 433 222.5 L 433 244.5 L 432 245.5 L 432 259.5 L 431 260.5 L 431 281.5 L 430 282.5 L 430 298.5 L 429 299.5 L 427 339.5 L 426 340.5 L 426 352.5 L 425 353.5 L 425 364.5 L 424 365.5 L 424 381.5 L 423 382.5 L 423 394.5 L 421 405.5 L 420 428.5 L 418 435.5 L 418 441.5 L 415.5 446 L 410 445 L 412 435.5 L 413 422.5 L 415 416.5 L 417 397.5 L 418 396.5 L 418 386.5 L 419 385.5 L 419 376.5 L 421 368.5 L 421 355.5 L 422 354.5 L 422 336.5 L 423 335.5 L 423 320.5 L 424 319.5 L 424 289.5 L 425 288.5 L 425 256.5 L 426 255.5 L 426 234.5 L 427 233.5 L 427 219.5 L 428 218.5 L 431 130.5 L 430 129.5 L 430 105.5 L 428 100 Q 421.7 98.2 418 92.5 L 418 91 Z M 421 92 Q 422 97 429 99 Q 430 103 432 100 L 430 95 L 429 93 L 421 92 Z M 432 101 L 431 112 L 432 112 L 432 101 Z M 433 112 L 432 170 L 431 171 L 431 188 L 430 189 L 430 210 L 429 211 L 428 244 L 427 245 L 427 276 L 426 277 L 426 307 L 425 308 L 426 310 L 426 312 L 425 314 L 425 329 L 424 330 L 426 332 L 428 289 L 429 288 L 429 268 L 430 267 L 431 234 L 432 233 L 432 201 L 433 200 L 433 112 Z M 425 333 L 424 344 L 425 344 L 425 333 Z M 425 345 L 423 347 L 424 356 L 424 348 L 425 347 L 425 345 Z M 422 375 L 420 391 L 419 392 L 419 401 L 414 426 L 412 444 L 415 445 L 416 444 Q 415 436 418 433 L 419 410 L 420 409 L 420 399 L 421 398 L 421 387 L 422 386 L 422 375 Z "/>
    <path fill="#66d9e8" d="M 199.5 132 Q 204.3 131.3 205 134.5 L 210 149.5 Q 209 153 203.5 152 L 200 146.5 L 197 135.5 L 199.5 132 Z M 202 133 L 199 134 Q 199 144 205 150 L 208 149 L 205 138 L 202 133 Z "/>
    <path fill="#66d9e8" d="M 248.5 133 L 253 134 L 253 139.5 L 246 154 Q 240.5 155.3 239 151.5 L 243 139.5 L 248.5 133 Z M 249 135 L 246 138 L 241 149 Q 239 154 245 152 L 252 137 L 249 135 Z "/>
    <path fill="#66d9e8" d="M 220.5 157 L 224.5 158 L 227.5 157 Q 230.7 160.3 237.5 160 L 242.5 163 L 254 173.5 L 260 185.5 L 260 203.5 L 253 218.5 L 253 227.5 L 258 237.5 L 258 244.5 L 255 249.5 L 256 251.5 L 253 260.5 L 248.5 265 Q 244.2 268.2 236.5 268 L 230 266 L 226 259 Q 219.9 258.7 217 254.5 L 212 237 Q 209.3 238.1 210 235.5 L 190 223 L 183 209.5 L 181 195.5 L 184 181.5 L 193.5 169 L 203.5 162 L 220.5 157 Z M 220 159 L 208 162 L 200 166 Q 187 175 183 192 L 183 204 L 189 219 Q 197 228 210 233 L 215 241 Q 216 250 219 255 L 226 258 Q 228 257 227 260 Q 229 265 236 266 Q 244 267 248 264 L 253 258 L 254 248 L 256 245 L 256 237 L 252 231 L 251 226 L 252 217 L 256 210 L 259 198 L 258 186 L 253 175 Q 246 166 236 161 L 227 159 L 220 159 Z "/>
    <path fill="#66d9e8" d="M 162 164 L 166.5 164 L 180 171.5 L 179 177 L 170.5 176 L 161 171 L 162 164 Z M 164 166 L 162 169 L 166 172 L 177 176 L 178 173 Q 173 167 164 166 Z "/>
    <path fill="#66d9e8" d="M 310.5 265 Q 318.8 264 322 267 L 330.5 281 Q 345 280 351 287.5 Q 354.2 290.8 353 298.5 L 344 312.5 L 350 320.5 L 351 329.5 L 349 335.5 L 346.5 338 Q 341.2 342.2 331.5 342 L 330.5 341 L 324 341 L 323 346 Q 320.3 344.9 321 347.5 L 313.5 354 L 306.5 355 Q 300 353.5 297 348.5 L 293 339 Q 276.8 340.5 270 331.5 L 268 326.5 L 268 324.5 L 270 316.5 L 274 310 Q 277.7 311.4 276 305.5 Q 269.7 300.3 270 288.5 L 275.5 281 Q 280.6 276.6 291.5 278 L 297 279 L 300 272 L 303 270.5 Q 302.3 268.3 304.5 269 L 310.5 265 Z M 314 266 L 305 269 L 298 281 L 294 280 Q 282 278 277 282 L 272 288 L 272 296 L 278 307 L 278 310 L 270 322 L 271 331 Q 276 339 293 337 L 298 348 L 305 353 Q 313 354 317 350 L 325 339 L 330 340 L 338 340 L 346 337 L 349 332 L 348 321 L 343 314 L 343 311 L 351 300 Q 353 291 349 288 Q 343 281 330 283 L 324 273 Q 321 267 314 266 Z "/>
  </g>
  <g id="line">
    <path fill="#1a1a1a" d="M 313.5 37 L 366.5 38 L 384.5 42 L 392 47.5 L 398 57.5 L 400 65.5 L 409.5 81 L 423.5 79 L 433.5 81 L 441 87.5 L 445 99.5 L 445 115.5 L 446 116.5 L 446 184.5 L 445 185.5 L 445 220.5 L 444 221.5 L 444 243.5 L 443 244.5 L 443 260.5 L 442 261.5 L 441 299.5 L 440 300.5 L 440 312.5 L 439 313.5 L 438 343.5 L 437 344.5 L 437 354.5 L 436 355.5 L 436 367.5 L 435 368.5 L 435 382.5 L 434 383.5 L 434 394.5 L 432 405.5 L 431 430.5 L 427 450.5 L 418.5 461 L 412.5 464 L 398.5 467 L 368.5 470 L 367.5 471 L 354.5 471 L 353.5 472 L 335.5 472 L 334.5 473 L 297.5 474 L 296.5 475 L 260.5 475 L 259.5 476 L 204.5 476 L 203.5 475 L 150.5 474 L 149.5 473 L 121.5 472 L 119.5 471 Q 118.2 473.2 113.5 472 Q 92.6 468.4 82 454.5 L 76 444.5 L 74 437.5 L 73 424.5 L 72 423.5 L 72 413.5 L 71 412.5 L 70 391.5 L 69 390.5 L 68 346.5 L 67 345.5 L 67 256.5 L 68 255.5 L 68 226.5 L 69 225.5 L 69 207.5 L 70 206.5 L 70 195.5 L 71 194.5 L 72 163.5 L 73 162.5 L 75 130.5 L 76 129.5 L 76 121.5 L 77 120.5 L 79 100.5 L 82 91.5 L 82 87.5 L 88 73.5 L 99.5 61 L 117.5 52 L 149.5 46 L 172.5 45 L 173.5 44 L 189.5 44 L 190.5 43 L 209.5 43 L 210.5 42 L 251.5 41 L 252.5 40 L 284.5 39 L 285.5 38 L 312.5 38 L 313.5 37 Z M 313 48 L 312 49 L 286 49 L 285 50 L 267 50 L 266 51 L 252 51 L 251 52 L 232 52 L 231 53 L 210 53 L 209 54 L 160 56 L 159 57 L 135 59 L 132 60 L 131 63 L 131 73 L 129 84 L 129 97 L 128 98 L 128 110 L 127 111 L 127 124 L 126 125 L 126 141 L 125 142 L 124 177 L 123 178 L 122 241 L 121 242 L 121 290 L 120 291 L 122 380 L 123 381 L 123 393 L 125 394 L 128 393 L 145 393 L 146 392 L 237 392 L 238 393 L 299 393 L 300 392 L 340 391 L 341 390 L 352 390 L 363 388 L 373 384 Q 379 380 381 372 L 384 355 L 385 333 L 386 332 L 387 302 L 388 301 L 388 280 L 389 279 L 389 257 L 390 256 L 390 219 L 391 218 L 391 183 L 392 182 L 392 148 L 393 147 L 391 83 L 390 82 L 389 68 L 385 57 L 379 52 L 365 49 L 352 49 L 351 48 L 313 48 Z M 123 62 Q 111 65 104 72 L 95 85 L 89 109 L 88 124 L 86 132 L 86 142 L 85 143 L 85 154 L 83 164 L 82 193 L 81 194 L 81 206 L 80 207 L 80 225 L 79 226 L 79 255 L 78 256 L 78 345 L 79 346 L 79 373 L 80 374 L 81 402 L 82 403 L 82 412 L 84 413 L 88 408 Q 93 401 102 398 L 116 395 L 117 394 L 116 375 L 115 374 L 115 348 L 114 347 L 114 246 L 115 245 L 115 208 L 116 207 L 116 188 L 117 187 L 117 167 L 118 166 L 118 146 L 119 145 L 120 115 L 121 114 L 122 92 L 123 91 L 123 79 L 125 69 L 125 62 L 123 62 Z M 401 79 L 402 82 L 402 99 L 403 100 L 403 178 L 402 179 L 401 249 L 400 250 L 400 274 L 399 275 L 399 297 L 398 298 L 397 332 L 396 333 L 395 354 L 394 355 L 394 363 L 392 369 L 392 374 L 388 384 L 382 393 L 382 411 Q 385 422 391 430 L 394 431 L 401 402 L 401 394 L 404 381 L 405 365 L 406 364 L 408 337 L 410 338 L 410 358 L 409 359 L 407 387 L 405 394 L 404 406 L 402 411 L 401 422 L 399 426 L 397 437 L 406 442 L 407 441 L 408 430 L 411 419 L 411 412 L 414 397 L 414 389 L 416 381 L 417 358 L 418 357 L 419 328 L 420 327 L 420 300 L 421 299 L 421 262 L 422 261 L 422 242 L 423 241 L 423 224 L 424 223 L 424 200 L 425 199 L 425 181 L 426 180 L 426 157 L 427 156 L 427 126 L 426 125 L 426 106 L 425 104 L 421 100 L 418 100 L 418 110 L 419 111 L 418 162 L 415 163 L 415 102 Q 413 100 414 95 L 405 82 L 401 79 Z M 418 91 L 418 93 Q 422 98 428 100 L 430 106 L 430 130 L 431 131 L 428 219 L 427 220 L 427 234 L 426 235 L 426 256 L 425 257 L 425 289 L 424 290 L 424 320 L 423 321 L 423 336 L 422 337 L 422 355 L 421 356 L 421 369 L 419 377 L 419 386 L 418 387 L 418 397 L 417 398 L 415 417 L 413 423 L 412 436 L 410 445 L 416 446 L 418 442 L 418 436 L 420 429 L 421 406 L 423 395 L 423 383 L 424 382 L 424 366 L 425 365 L 425 354 L 426 353 L 426 341 L 427 340 L 429 300 L 430 299 L 430 283 L 431 282 L 431 261 L 432 260 L 432 246 L 433 245 L 433 223 L 434 222 L 434 184 L 435 183 L 435 124 L 434 123 L 434 103 Q 432 101 433 96 Q 430 89 418 91 Z M 370 397 L 353 401 L 324 402 L 323 403 L 304 403 L 303 404 L 237 404 L 236 403 L 147 403 L 146 404 L 129 404 L 128 405 L 118 405 L 110 407 L 101 411 L 90 424 L 87 436 L 89 445 L 91 448 Q 98 457 111 461 Q 117 463 119 460 L 123 461 L 154 462 L 155 463 L 210 464 L 211 465 L 256 465 L 257 464 L 316 463 L 317 462 L 365 460 L 373 458 L 391 457 L 397 455 Q 403 456 402 454 Q 389 446 381 435 L 370 438 L 363 438 L 355 440 L 345 440 L 344 441 L 280 441 L 278 440 L 281 438 L 329 438 L 330 437 L 347 437 L 348 436 L 357 436 L 365 434 L 371 434 L 378 432 L 372 415 L 372 406 L 371 405 L 371 398 L 370 397 Z "/>
    <path fill="#1a1a1a" d="M 201.5 133 L 205 137.5 L 208 148.5 L 204.5 150 Q 199.2 144.2 199 134 L 201.5 133 Z "/>
    <path fill="#1a1a1a" d="M 248.5 135 L 252 136.5 L 244.5 152 Q 239.3 153.8 241 148.5 L 246 137.5 L 248.5 135 Z "/>
    <path fill="#1a1a1a" d="M 219.5 159 L 226.5 159 L 235.5 161 Q 246.2 165.8 253 174.5 L 258 185.5 L 259 197.5 L 256 209.5 L 252 216.5 L 251 225.5 L 252 230.5 L 256 236.5 L 256 244.5 L 254 247.5 L 253 257.5 L 247.5 264 Q 243.8 267.3 235.5 266 Q 229.4 264.6 227 259.5 Q 227.8 257.3 225.5 258 L 219 255 Q 215.6 249.6 215 240.5 L 209.5 233 Q 196.8 228.2 189 218.5 L 183 203.5 L 183 191.5 Q 187 174.5 199.5 166 L 207.5 162 L 219.5 159 Z M 215 165 L 200 173 Q 192 179 189 190 L 189 207 L 193 215 Q 199 223 211 227 L 222 240 L 225 239 L 224 229 L 219 215 L 218 213 L 210 212 L 204 205 L 209 198 L 215 199 L 222 208 L 227 206 L 226 203 Q 225 196 227 193 L 232 189 L 236 190 L 239 196 Q 238 204 232 208 L 236 222 L 242 233 L 247 232 L 246 228 L 247 215 L 253 201 L 253 189 L 250 181 L 244 172 Q 238 167 229 165 L 215 165 Z M 232 194 L 230 196 Q 228 201 232 203 L 234 200 L 234 194 L 232 194 Z M 209 202 L 208 205 L 209 207 Q 211 210 216 209 L 214 203 L 209 202 Z M 226 211 L 223 212 L 229 234 L 229 238 L 238 236 L 228 213 Q 229 210 226 211 Z M 249 237 L 238 242 L 222 246 L 225 251 L 237 250 L 246 246 L 251 242 Q 251 237 249 237 Z M 246 252 L 236 256 Q 232 255 233 258 L 239 261 L 247 258 L 248 256 Q 250 251 246 252 Z "/>
    <path fill="#1a1a1a" d="M 163.5 166 Q 173.4 166.6 178 172.5 L 176.5 176 L 165.5 172 L 162 168.5 L 163.5 166 Z "/>
    <path fill="#1a1a1a" d="M 313.5 266 Q 320.9 267.1 324 272.5 L 329.5 283 Q 343.4 281.1 349 287.5 Q 352.8 290.7 351 299.5 L 343 310.5 L 343 313.5 L 348 320.5 L 349 331.5 L 345.5 337 L 337.5 340 L 329.5 340 L 324.5 339 L 316.5 350 Q 313.3 354.3 304.5 353 L 298 347.5 L 292.5 337 Q 276.4 339.1 271 330.5 L 270 321.5 L 278 309.5 L 278 306.5 L 272 295.5 L 272 287.5 L 276.5 282 Q 282.3 278.3 293.5 280 L 298 281 L 305 269 L 313.5 266 Z M 312 270 L 308 272 L 301 282 L 312 287 L 324 284 L 325 283 L 322 276 L 317 270 L 312 270 Z M 283 283 L 280 284 L 275 290 Q 275 300 282 305 L 291 299 L 293 297 L 295 284 Q 291 282 283 283 Z M 299 286 L 298 292 Q 296 293 299 294 L 305 291 L 306 289 Q 304 285 299 286 Z M 330 286 L 331 300 L 341 308 Q 346 304 348 297 L 347 291 Q 343 284 330 286 Z M 324 287 L 323 288 Q 316 286 318 291 L 325 295 L 327 295 L 326 289 L 324 287 Z M 311 291 L 299 297 L 295 301 L 294 318 L 308 328 L 312 328 L 324 322 L 327 318 L 328 303 L 317 293 L 311 291 Z M 291 303 L 288 305 Q 285 306 285 310 L 291 314 L 291 303 Z M 331 306 L 330 316 Q 335 316 337 312 L 336 310 L 331 306 Z M 282 311 Q 275 315 273 324 L 273 328 L 275 331 L 283 334 L 291 334 L 292 333 L 291 321 L 282 311 Z M 339 315 L 331 321 L 328 325 L 328 330 L 326 335 L 332 337 Q 339 338 343 335 L 346 331 L 346 327 L 342 318 L 339 315 Z M 296 324 L 295 332 L 297 333 L 303 331 Q 305 332 304 330 L 296 324 Z M 323 326 L 315 331 L 322 334 L 324 330 Q 325 325 323 326 Z M 309 332 Q 304 336 297 336 L 300 345 L 307 350 L 313 349 Q 319 345 320 337 L 309 332 Z "/>
    <path fill="#1a1a1a" d="M 306.5 301 Q 317 299 319 305.5 Q 320 313 318 316 Q 315 318.7 308.5 319 L 304 317 L 302 313.5 L 302 306.5 L 306.5 301 Z M 309 304 L 307 305 Q 304 307 305 313 L 311 316 L 317 312 L 316 307 Q 315 303 309 304 Z "/>
    <path fill="#1a1a1a" d="M 325.5 418 L 334.5 418 L 335 421 L 315.5 423 L 314.5 424 L 300.5 424 L 299.5 425 L 244.5 425 L 243.5 424 L 217.5 424 L 216.5 423 L 157.5 423 L 156.5 424 L 133.5 425 L 119 428 Q 117.3 423.9 121.5 425 L 150.5 420 L 205.5 419 L 206.5 420 L 233.5 420 L 234.5 421 L 305.5 421 L 306.5 420 L 315.5 420 L 325.5 418 Z "/>
  </g>
</svg>
