<svg xmlns="http://www.w3.org/2000/svg" width="512" height="512" viewBox="0 0 512 512">
  <g id="color">
    <path fill="#ffffff" d="M 252.5 36 L 259 36.5 L 252.5 37 L 252.5 36 Z "/>
    <path fill="#ffffff" d="M 241.5 39 L 243 39.5 L 239.5 41 L 239.5 40 L 241.5 39 Z "/>
    <path fill="#ffffff" d="M 269.5 39 L 273 40.5 L 271.5 41 L 269.5 39 Z "/>
    <path fill="#ffffff" d="M 214.5 52 L 216 52.5 L 212.5 54 L 212.5 53 L 214.5 52 Z "/>
    <path fill="#ffffff" d="M 296.5 52 L 300 53.5 L 298.5 54 L 296.5 52 Z "/>
    <path fill="#ffffff" d="M 207.5 55 L 209 55.5 L 203.5 58 L 203.5 57 L 207.5 55 Z "/>
    <path fill="#ffffff" d="M 303.5 55 L 309 57.5 L 307.5 58 L 303.5 56 L 303.5 55 Z "/>
    <path fill="#ffffff" d="M 198.5 59 L 197.5 61 L 193.5 62 L 193.5 61 L 198.5 59 Z "/>
    <path fill="#ffffff" d="M 313.5 59 L 319 61.5 L 317.5 62 Q 313.5 61.5 313.5 59 Z "/>
    <path fill="#ffffff" d="M 320.5 62 L 327 64.5 L 325.5 65 L 320.5 63 L 320.5 62 Z "/>
    <path fill="#ffffff" d="M 187.5 63 L 189 63.5 L 185.5 65 L 185.5 64 L 187.5 63 Z "/>
    <path fill="#ffffff" d="M 178.5 66 L 181 66.5 L 176.5 68 L 176.5 67 L 178.5 66 Z "/>
    <path fill="#ffffff" d="M 332.5 66 L 336 67.5 L 334.5 68 L 332.5 66 Z "/>
    <path fill="#ffffff" d="M 169.5 69 L 172 69.5 L 166.5 71 L 166.5 70 L 169.5 69 Z "/>
    <path fill="#ffffff" d="M 341.5 69 L 346 70.5 L 343.5 71 L 341.5 69 Z "/>
    <path fill="#ffffff" d="M 158.5 72 L 161 72.5 L 151.5 75 L 151.5 74 L 158.5 72 Z "/>
    <path fill="#ffffff" d="M 141.5 76 L 145 76.5 L 136.5 78 L 136.5 77 L 141.5 76 Z "/>
    <path fill="#ffffff" d="M 123.5 79 L 128 79.5 L 123.5 80 L 123.5 79 Z "/>
    <path fill="#ffffff" d="M 384.5 79 L 389 79.5 L 384.5 80 L 384.5 79 Z "/>
    <path fill="#ffffff" d="M 117.5 80 L 122 80.5 L 117.5 81 L 117.5 80 Z "/>
    <path fill="#ffffff" d="M 390.5 80 L 395 80.5 L 390.5 81 L 390.5 80 Z "/>
    <path fill="#ffffff" d="M 110.5 81 L 115 81.5 L 110.5 82 L 110.5 81 Z "/>
    <path fill="#ffffff" d="M 397.5 81 L 403 81.5 L 397.5 82 L 397.5 81 Z "/>
    <path fill="#ffffff" d="M 99.5 82 L 105 82.5 L 99.5 83 L 99.5 82 Z "/>
    <path fill="#ffffff" d="M 408.5 82 L 413 82.5 L 408.5 83 L 408.5 82 Z "/>
    <path fill="#ffffff" d="M 94.5 83 L 98 83.5 L 92.5 85 L 92.5 84 L 94.5 83 Z "/>
    <path fill="#ffffff" d="M 414.5 83 Q 418.3 82.3 419 84.5 L 417.5 84 Q 413.5 84.8 414.5 83 Z "/>
    <path fill="#ffffff" d="M 90.5 85 L 85 91.5 L 83.5 95 L 83 93.5 L 90.5 85 Z "/>
    <path fill="#ffffff" d="M 422.5 86 Q 427.6 88.4 429 94.5 L 428 94.5 L 422.5 86 Z "/>
    <path fill="#ffffff" d="M 430.5 101 L 431 113.5 L 430 113.5 L 430.5 101 Z "/>
    <path fill="#ffffff" d="M 81.5 103 L 82 114.5 L 81 114.5 L 81.5 103 Z "/>
    <path fill="#ffffff" d="M 431.5 115 L 432 123.5 L 431 123.5 L 431.5 115 Z "/>
    <path fill="#ffffff" d="M 80.5 116 L 81 124.5 L 80 124.5 L 80.5 116 Z "/>
    <path fill="#ffffff" d="M 432.5 131 L 433 142.5 L 432 142.5 L 432.5 131 Z "/>
    <path fill="#ffffff" d="M 79.5 132 L 80 143.5 L 79 143.5 L 79.5 132 Z "/>
    <path fill="#ffffff" d="M 433.5 149 L 434 169.5 L 433 169.5 L 433.5 149 Z "/>
    <path fill="#ffffff" d="M 78.5 151 L 79 172.5 L 78 172.5 L 78.5 151 Z "/>
    <path fill="#ffffff" d="M 434.5 173 L 435 211.5 L 434 211.5 L 434.5 173 Z "/>
    <path fill="#ffffff" d="M 77.5 175 L 78 208.5 L 77 208.5 L 77.5 175 Z "/>
    <path fill="#ffffff" d="M 78.5 210 L 79 232.5 L 78 232.5 L 78.5 210 Z "/>
    <path fill="#ffffff" d="M 433.5 215 L 434 234.5 L 433 234.5 L 433.5 215 Z "/>
    <path fill="#ffffff" d="M 432.5 239 L 433 249.5 L 432 249.5 L 432.5 239 Z "/>
    <path fill="#ffffff" d="M 79.5 240 L 80 248.5 L 79 248.5 L 79.5 240 Z "/>
    <path fill="#ffffff" d="M 80.5 255 L 81 262.5 L 80 262.5 L 80.5 255 Z "/>
    <path fill="#ffffff" d="M 431.5 255 L 432 262.5 L 431 262.5 L 431.5 255 Z "/>
    <path fill="#ffffff" d="M 81.5 264 L 82 270.5 L 81 270.5 L 81.5 264 Z "/>
    <path fill="#ffffff" d="M 430.5 265 L 431 272.5 L 430 272.5 L 430.5 265 Z "/>
    <path fill="#ffffff" d="M 82.5 273 L 83 277.5 L 82 277.5 L 82.5 273 Z "/>
    <path fill="#ffffff" d="M 429.5 274 L 430 278.5 L 429 278.5 L 429.5 274 Z "/>
    <path fill="#ffffff" d="M 84.5 287 L 86 296.5 L 85 296.5 L 84.5 287 Z "/>
    <path fill="#ffffff" d="M 427.5 288 L 428 292.5 L 427 292.5 L 427.5 288 Z "/>
    <path fill="#ffffff" d="M 87.5 304 L 89 310.5 L 88 310.5 L 87.5 304 Z "/>
    <path fill="#ffffff" d="M 91.5 321 L 93 325.5 L 92 325.5 L 91.5 321 Z "/>
    <path fill="#ffffff" d="M 420.5 321 L 421 323.5 L 419.5 326 L 419 324.5 L 420.5 321 Z "/>
    <path fill="#ffffff" d="M 93.5 328 L 96 334.5 L 95 334.5 L 93.5 328 Z "/>
    <path fill="#ffffff" d="M 417.5 331 L 418 332.5 L 416.5 336 L 416 333.5 L 417.5 331 Z "/>
    <path fill="#ffffff" d="M 97.5 339 L 99 342.5 L 98 342.5 L 97.5 339 Z "/>
    <path fill="#ffffff" d="M 414.5 340 L 415 341.5 L 413.5 344 L 413 342.5 L 414.5 340 Z "/>
    <path fill="#ffffff" d="M 100.5 347 L 103 351.5 L 101 350.5 L 100.5 347 Z "/>
    <path fill="#ffffff" d="M 408.5 353 L 409 354.5 L 406.5 359 L 406 357.5 L 408.5 353 Z "/>
    <path fill="#ffffff" d="M 103.5 354 L 109 363.5 L 107 362.5 L 103.5 354 Z "/>
    <path fill="#ffffff" d="M 401.5 367 L 401 368.5 L 399.5 371 L 400 369.5 L 401.5 367 Z "/>
    <path fill="#ffffff" d="M 113.5 372 L 120 380.5 L 117 378.5 L 113.5 372 Z "/>
    <path fill="#ffffff" d="M 352.5 422 L 348.5 427 L 340.5 433 L 343.5 429 L 352.5 422 Z "/>
    <path fill="#ffffff" d="M 164.5 426 L 175 434.5 L 172.5 433 Q 166.5 430.5 164.5 426 Z "/>
    <path fill="#ffffff" d="M 337.5 434 L 336.5 436 L 333.5 438 L 335.5 435 L 337.5 434 Z "/>
    <path fill="#ffffff" d="M 327.5 441 L 326.5 443 L 324.5 444 L 325.5 442 L 327.5 441 Z "/>
    <path fill="#ffffff" d="M 189.5 444 L 194 447.5 L 192.5 447 L 189.5 444 Z "/>
    <path fill="#ffffff" d="M 322.5 444 L 320.5 447 L 318.5 448 L 319.5 446 L 322.5 444 Z "/>
    <path fill="#ffffff" d="M 195.5 448 L 199 450.5 L 197.5 450 L 195.5 448 Z "/>
    <path fill="#ffffff" d="M 200.5 451 L 204 453.5 L 202.5 453 L 200.5 451 Z "/>
    <path fill="#ffffff" d="M 311.5 451 L 309.5 454 L 307.5 455 L 308.5 453 L 311.5 451 Z "/>
    <path fill="#ffffff" d="M 205.5 454 L 209 456.5 L 207.5 456 L 205.5 454 Z "/>
    <path fill="#ffffff" d="M 212.5 458 L 222 463.5 L 220.5 463 L 213.5 460 L 212.5 458 Z "/>
    <path fill="#ffffff" d="M 299.5 458 L 298.5 460 L 296.5 461 L 297.5 459 L 299.5 458 Z "/>
    <path fill="#ffffff" d="M 231.5 468 L 237 470.5 L 235.5 471 L 231.5 469 L 231.5 468 Z "/>
    <path fill="#ffffff" d="M 279.5 468 L 281 468.5 L 275.5 471 L 275.5 470 L 279.5 468 Z "/>
    <path fill="#ffffff" d="M 238.5 471 L 245 473.5 L 243.5 474 L 238.5 472 L 238.5 471 Z "/>
    <path fill="#ffffff" d="M 270.5 472 L 272 472.5 L 268.5 474 L 268.5 473 L 270.5 472 Z "/>
    <path fill="#ffffff" d="M 260.5 475 L 264 475.5 Q 260.3 477.8 253.5 477 L 253.5 476 Q 259 477.5 260.5 475 Z "/>
    <path fill="#4da3ff" d="M 252.5 74 L 259.5 74 L 293.5 91 L 328.5 104 L 356.5 111 L 362.5 111 L 367.5 113 L 378.5 114 L 385.5 116 L 392.5 116 L 395 118.5 L 396 120.5 L 396 131.5 L 397 132.5 L 398 160.5 L 399 161.5 L 399 226.5 L 398 227.5 L 397 255.5 L 396 256.5 L 396 265.5 L 395 266.5 L 393 286.5 L 386 315.5 L 372 348.5 L 348.5 379 Q 346.3 378.3 347 380.5 Q 334.4 393.8 319 403 Q 320.1 405.7 317.5 405 L 297.5 419 L 274.5 432 L 258.5 439 L 254.5 439 L 243.5 435 L 214.5 419 L 188.5 401 L 169 385 L 167.5 382 Q 165.3 382.8 166 380.5 L 162 378 L 148 360.5 L 136 340.5 L 126 315.5 L 122 300.5 L 121 289.5 L 119 285.5 L 118 271.5 L 116 264.5 L 116 252.5 L 115 251.5 L 115 237.5 L 114 236.5 L 114 222.5 L 113 221.5 L 113 165.5 L 114 164.5 L 116 120.5 L 118.5 117 L 124.5 115 L 132.5 115 L 150.5 111 L 156.5 111 L 164.5 108 L 180.5 105 L 225.5 88 L 252.5 74 Z M 176 127 L 168 130 L 161 143 L 161 146 L 154 149 L 147 149 L 140 151 L 135 157 Q 134 164 137 167 L 143 171 L 145 174 Q 147 173 146 176 L 149 178 L 149 183 L 147 189 L 147 199 L 150 204 L 156 206 L 162 205 L 176 197 L 194 206 L 202 204 L 205 199 L 205 189 L 203 180 L 203 178 L 211 171 Q 215 168 217 162 L 216 155 L 211 150 L 200 149 L 193 147 L 184 130 L 176 127 Z M 323 327 L 313 332 L 306 343 Q 305 355 310 360 Q 314 365 321 367 L 331 367 L 339 363 Q 344 358 346 349 L 345 341 L 342 336 Q 337 327 323 327 Z "/>
    <path fill="#ffd43b" d="M 174 138 L 178 138 L 178 139.5 L 184 152.5 L 187.5 156 L 207 159 L 204.5 164 L 202 165.5 Q 202.8 167.8 200.5 167 L 193 175.5 L 193 181.5 L 196 194.5 L 193.5 196 L 179.5 188 L 172.5 188 L 157.5 196 L 156 193.5 L 159 182.5 L 159 175.5 L 146 161.5 L 146 159 L 161.5 157 L 167 155 L 174 138 Z "/>
    <path fill="#ffd43b" d="M 325.5 336 Q 332.1 336.9 335 341.5 L 336 350.5 L 330.5 357 L 324.5 358 L 320.5 357 L 317 353.5 L 315 346.5 L 318.5 339 L 325.5 336 Z "/>
    <path fill="#66d9e8" d="M 251.5 45 L 259.5 45 L 266.5 47 L 298.5 63 L 342.5 79 L 383.5 88 L 411.5 91 Q 418.1 91.9 421 96.5 Q 423.5 102 422 111.5 L 423 112.5 L 423 122.5 L 424 123.5 L 425 162.5 L 426 163.5 L 426 222.5 L 425 223.5 L 425 243.5 L 424 244.5 L 424 254.5 L 423 255.5 L 421 283.5 L 414 316.5 L 410 329.5 L 403 347.5 L 391 369.5 Q 377.8 389.3 360.5 405 L 335.5 426 L 295.5 452 L 266.5 466 Q 261.1 469.1 251.5 468 L 218.5 453 L 196.5 440 L 172.5 423 L 153 406.5 Q 153.8 404.3 151.5 405 L 149 401 L 146 399.5 L 126 376.5 L 116 360.5 L 104 335.5 L 96 308.5 L 93 293.5 L 93 286.5 L 91 280.5 L 91 274.5 L 90 273.5 L 88 242.5 L 87 241.5 L 86 166.5 L 87 165.5 L 87 142.5 L 88 141.5 L 90 100.5 L 91 96.5 L 95.5 92 L 129.5 88 L 169.5 79 L 213.5 63 L 240.5 49 L 251.5 45 Z M 256 64 L 247 66 L 218 81 L 190 92 L 158 101 L 135 104 L 134 105 L 125 105 L 115 108 L 107 118 L 106 142 L 105 143 L 105 158 L 104 159 L 104 183 L 103 184 L 106 258 L 107 259 L 107 268 L 108 269 L 109 282 L 111 288 L 113 304 L 119 321 L 120 328 L 132 354 L 150 378 L 152 381 L 155 382 L 161 389 Q 163 388 162 391 L 172 398 L 173 401 L 205 424 L 227 437 L 251 448 L 262 448 L 286 437 L 317 418 L 345 396 Q 360 382 373 365 L 381 352 L 392 328 L 403 284 L 403 276 L 406 259 L 406 247 L 407 246 L 408 206 L 409 205 L 408 155 L 407 154 L 407 141 L 406 140 L 406 124 L 403 114 Q 400 108 393 106 L 378 105 L 355 101 L 320 91 L 297 82 L 263 65 L 256 64 Z "/>
    <path fill="#66d9e8" d="M 253.5 72 L 261.5 73 L 277.5 82 L 302.5 93 L 331.5 103 L 334.5 103 L 337.5 105 L 346.5 106 L 371.5 112 L 392.5 114 L 397 118.5 L 398 121.5 L 399 150.5 L 400 151.5 L 400 167.5 L 401 168.5 L 401 217.5 L 400 218.5 L 400 236.5 L 399 237.5 L 398 263.5 L 397 264.5 L 395 284.5 L 391 304.5 L 383 329.5 L 369 356.5 L 356 373.5 L 344.5 385 L 327.5 400 L 292.5 424 L 268.5 437 L 260.5 440 L 251.5 440 Q 199.4 417.1 162 379.5 Q 145.2 362.8 134 340.5 L 125 317.5 L 120 298.5 L 116 276.5 L 116 269.5 L 114 260.5 L 114 248.5 L 113 247.5 L 112 215.5 L 111 214.5 L 111 170.5 L 112 169.5 L 112 152.5 L 113 151.5 L 113 138.5 L 114 137.5 L 114 121.5 L 118.5 115 L 151.5 110 L 184.5 102 L 223.5 87 L 253.5 72 Z M 253 74 L 226 88 L 181 105 L 165 108 L 157 111 L 151 111 L 133 115 L 125 115 L 119 117 L 116 121 L 114 165 L 113 166 L 113 222 L 114 223 L 114 237 L 115 238 L 115 252 L 116 253 L 116 265 L 118 272 L 119 286 L 121 290 L 122 301 L 126 316 L 136 341 L 148 361 L 162 378 L 166 381 Q 165 383 168 382 L 169 385 L 189 401 L 215 419 L 244 435 L 255 439 L 259 439 L 275 432 L 298 419 L 318 405 Q 320 406 319 403 Q 334 394 347 381 Q 346 378 349 379 L 372 349 L 386 316 L 393 287 L 395 267 L 396 266 L 396 257 L 397 256 L 398 228 L 399 227 L 399 162 L 398 161 L 397 133 L 396 132 L 396 121 L 395 119 L 393 116 L 386 116 L 379 114 L 368 113 L 363 111 L 357 111 L 329 104 L 294 91 L 260 74 L 253 74 Z "/>
    <path fill="#66d9e8" d="M 175.5 127 L 184 130 L 192.5 147 L 199.5 149 L 210.5 150 L 216 154.5 L 217 161.5 Q 215.5 168 210.5 171 L 203 177.5 L 203 179.5 L 205 188.5 L 205 198.5 L 201.5 204 L 193.5 206 L 175.5 197 L 161.5 205 L 155.5 206 L 150 204 L 147 198.5 L 147 188.5 L 149 182.5 L 149 177.5 L 146 176 Q 147.1 173.3 144.5 174 L 143 171 L 137 166.5 Q 134 163.5 135 156.5 L 139.5 151 L 146.5 149 L 153.5 149 L 161 145.5 L 161 142.5 L 168 130 L 175.5 127 Z M 174 129 L 172 130 L 168 134 L 161 149 L 159 150 L 146 151 L 138 154 L 137 157 Q 136 164 139 167 L 151 178 L 149 188 L 149 200 L 155 204 L 160 204 L 174 196 L 178 196 L 193 204 Q 201 205 203 200 Q 205 187 201 181 L 202 177 L 211 169 L 215 163 L 214 155 L 208 151 L 196 150 L 190 148 L 190 146 L 183 133 Q 181 128 174 129 Z "/>
    <path fill="#66d9e8" d="M 322.5 327 Q 336.8 326.8 342 335.5 L 345 340.5 L 346 348.5 Q 344.5 357.9 338.5 363 L 330.5 367 L 320.5 367 Q 313.8 364.8 310 359.5 Q 304.5 354.5 306 342.5 L 312.5 332 L 322.5 327 Z M 322 329 L 317 331 Q 310 335 308 343 Q 306 355 312 360 L 320 365 Q 330 367 336 363 Q 342 359 344 351 Q 345 340 340 336 Q 335 328 322 329 Z "/>
  </g>
  <g id="line">
    <path fill="#1a1a1a" d="M 251.5 37 L 259.5 37 L 268.5 39 L 314.5 61 L 340.5 69 L 343.5 71 L 372.5 78 L 396.5 81 L 397.5 82 L 413.5 83 Q 422.8 84.8 427 91.5 L 430 100.5 L 430 113.5 L 432 124.5 L 433 169.5 L 434 170.5 L 434 214.5 L 433 215.5 L 432 254.5 L 431 255.5 L 429 282.5 L 422 317.5 L 415 339.5 Q 396.2 386.2 360.5 416 L 338.5 434 L 306.5 455 L 267.5 474 L 259.5 476 L 252.5 476 L 230.5 468 L 194.5 448 Q 159.3 426.2 132 396.5 Q 114.8 377.7 103 353.5 L 93 327.5 L 89 312.5 L 83 281.5 L 83 273.5 L 82 272.5 L 82 264.5 L 80 254.5 L 79 210.5 L 78 209.5 L 78 173.5 L 79 172.5 L 79 144.5 L 80 143.5 L 80 125.5 L 82 114.5 L 82 100.5 Q 83.6 89.6 91.5 85 L 98.5 83 L 114.5 82 L 134.5 78 L 140.5 78 L 168.5 71 L 197.5 61 L 238.5 41 L 251.5 37 Z M 252 45 L 241 49 L 214 63 L 170 79 L 130 88 L 96 92 L 91 97 L 90 101 L 88 142 L 87 143 L 87 166 L 86 167 L 87 242 L 88 243 L 90 274 L 91 275 L 91 281 L 93 287 L 93 294 L 96 309 L 104 336 L 116 361 L 126 377 L 146 400 L 149 401 L 152 405 Q 154 404 153 407 L 173 423 L 197 440 L 219 453 L 252 468 Q 261 469 267 466 L 296 452 L 336 426 L 361 405 Q 378 389 391 370 L 403 348 L 410 330 L 414 317 L 421 284 L 423 256 L 424 255 L 424 245 L 425 244 L 425 224 L 426 223 L 426 164 L 425 163 L 424 124 L 423 123 L 423 113 L 422 112 Q 424 102 421 97 Q 418 92 412 91 L 384 88 L 343 79 L 299 63 L 267 47 L 260 45 L 252 45 Z "/>
    <path fill="#1a1a1a" d="M 255.5 64 L 262.5 65 L 296.5 82 L 319.5 91 L 354.5 101 L 377.5 105 L 392.5 106 Q 399.7 107.8 403 113.5 L 406 123.5 L 406 139.5 L 407 140.5 L 407 153.5 L 408 154.5 L 409 204.5 L 408 205.5 L 407 245.5 L 406 246.5 L 406 258.5 L 403 275.5 L 403 283.5 L 392 327.5 L 381 351.5 L 373 364.5 Q 360.3 381.8 344.5 396 L 316.5 418 L 285.5 437 L 261.5 448 L 250.5 448 L 226.5 437 L 204.5 424 L 173 401 L 171.5 398 L 162 391 Q 163.1 388.3 160.5 389 L 155 382 L 152 380.5 L 150 377.5 L 132 353.5 L 120 327.5 L 119 320.5 L 113 303.5 L 111 287.5 L 109 281.5 L 108 268.5 L 107 267.5 L 107 258.5 L 106 257.5 L 103 183.5 L 104 182.5 L 104 158.5 L 105 157.5 L 105 142.5 L 106 141.5 L 107 117.5 L 114.5 108 L 124.5 105 L 133.5 105 L 134.5 104 L 157.5 101 L 189.5 92 L 217.5 81 L 246.5 66 L 255.5 64 Z M 254 72 L 224 87 L 185 102 L 152 110 L 119 115 L 114 122 L 114 138 L 113 139 L 113 152 L 112 153 L 112 170 L 111 171 L 111 215 L 112 216 L 113 248 L 114 249 L 114 261 L 116 270 L 116 277 L 120 299 L 125 318 L 134 341 Q 145 363 162 380 Q 199 417 252 440 L 261 440 L 269 437 L 293 424 L 328 400 L 345 385 L 356 374 L 369 357 L 383 330 L 391 305 L 395 285 L 397 265 L 398 264 L 399 238 L 400 237 L 400 219 L 401 218 L 401 169 L 400 168 L 400 152 L 399 151 L 398 122 L 397 119 L 393 114 L 372 112 L 347 106 L 338 105 L 335 103 L 332 103 L 303 93 L 278 82 L 262 73 L 254 72 Z "/>
    <path fill="#1a1a1a" d="M 173.5 129 Q 181.1 127.9 183 132.5 L 190 145.5 L 190 148 L 195.5 150 L 207.5 151 L 214 154.5 L 215 162.5 L 210.5 169 L 202 176.5 L 201 180.5 Q 204.6 187.4 203 199.5 Q 201.1 205.1 192.5 204 L 177.5 196 L 173.5 196 L 159.5 204 L 154.5 204 L 149 199.5 L 149 187.5 L 151 177.5 L 139 166.5 Q 135.6 163.9 137 156.5 L 138 154 L 145.5 151 L 158.5 150 L 161 149 L 168 133.5 L 171.5 130 L 173.5 129 Z M 176 137 L 167 155 L 162 157 L 146 159 L 146 162 L 159 176 L 159 183 L 156 194 L 158 196 L 173 188 L 180 188 L 194 196 L 196 195 L 193 182 L 193 176 L 201 167 Q 203 168 202 166 L 205 164 L 207 159 L 188 156 L 184 153 L 178 139 L 176 137 Z "/>
    <path fill="#1a1a1a" d="M 321.5 329 Q 335 328 340 335.5 Q 345.2 339.8 344 350.5 Q 341.9 358.9 335.5 363 Q 330.5 367 319.5 365 L 312 359.5 Q 306.2 354.8 308 342.5 Q 310.1 334.6 316.5 331 L 321.5 329 Z M 326 336 L 319 339 L 315 347 L 317 354 L 321 357 L 325 358 L 331 357 L 336 351 L 335 342 Q 332 337 326 336 Z "/>
  </g>
</svg>
