<svg xmlns="http://www.w3.org/2000/svg" width="512" height="512" viewBox="0 0 512 512">
  <g id="color">
    <path fill="#ffffff" d="M 234.5 36 L 276 36.5 L 234.5 37 L 234.5 36 Z "/>
    <path fill="#ffffff" d="M 222.5 37 L 228 37.5 L 222.5 38 L 222.5 37 Z "/>
    <path fill="#ffffff" d="M 281.5 37 L 287 37.5 L 281.5 38 L 281.5 37 Z "/>
    <path fill="#ffffff" d="M 291.5 38 L 296 38.5 L 291.5 39 L 291.5 38 Z "/>
    <path fill="#ffffff" d="M 208.5 39 L 212 39.5 L 204.5 41 L 204.5 40 L 208.5 39 Z "/>
    <path fill="#ffffff" d="M 193.5 43 L 195 43.5 L 188.5 46 L 188.5 45 L 193.5 43 Z "/>
    <path fill="#ffffff" d="M 317.5 44 L 321 45.5 L 319.5 46 L 317.5 44 Z "/>
    <path fill="#ffffff" d="M 183.5 47 L 185 47.5 L 180.5 50 L 181.5 48 L 183.5 47 Z "/>
    <path fill="#ffffff" d="M 327.5 48 L 331 50.5 L 329.5 50 L 327.5 48 Z "/>
    <path fill="#ffffff" d="M 176.5 51 L 174.5 54 L 171.5 56 L 173.5 53 L 176.5 51 Z "/>
    <path fill="#ffffff" d="M 159.5 66 L 158 68.5 L 152.5 79 L 152 77.5 L 159.5 66 Z "/>
    <path fill="#ffffff" d="M 350.5 67 L 354 71.5 L 352 70.5 L 350.5 67 Z "/>
    <path fill="#ffffff" d="M 150.5 84 L 151 89.5 L 150 89.5 L 150.5 84 Z "/>
    <path fill="#ffffff" d="M 150.5 91 L 151 97.5 L 150 97.5 L 150.5 91 Z "/>
    <path fill="#ffffff" d="M 237.5 96 L 270.5 96 L 283 98 L 278 110.5 L 254.5 153 L 229 106.5 L 226 98 L 237.5 96 Z "/>
    <path fill="#ffffff" d="M 152.5 104 L 154 109.5 L 153 109.5 L 152.5 104 Z "/>
    <path fill="#ffffff" d="M 356.5 105 L 357 107.5 L 355.5 110 L 355 108.5 L 356.5 105 Z "/>
    <path fill="#ffffff" d="M 156.5 116 L 159 121.5 L 158 121.5 L 156.5 116 Z "/>
    <path fill="#ffffff" d="M 349.5 123 L 350 124.5 L 346.5 130 L 347 128.5 L 349.5 123 Z "/>
    <path fill="#ffffff" d="M 161.5 127 L 166 134.5 L 164 133.5 L 161.5 127 Z "/>
    <path fill="#ffffff" d="M 344.5 133 L 344 134.5 L 342.5 137 L 343 135.5 L 344.5 133 Z "/>
    <path fill="#ffffff" d="M 166.5 136 L 169 139.5 L 167 138.5 L 166.5 136 Z "/>
    <path fill="#ffffff" d="M 340.5 140 L 340 141.5 L 337.5 145 L 339 142.5 L 340.5 140 Z "/>
    <path fill="#ffffff" d="M 169.5 141 L 172 144.5 L 170 143.5 L 169.5 141 Z "/>
    <path fill="#ffffff" d="M 327.5 160 L 326 162.5 L 323.5 166 L 325 163.5 L 327.5 160 Z "/>
    <path fill="#ffffff" d="M 182.5 161 L 187 166.5 L 184 164.5 L 182.5 161 Z "/>
    <path fill="#ffffff" d="M 201.5 187 Q 204.5 187.5 204 191.5 L 199.5 198 L 199 196.5 L 203 191.5 L 203 189.5 L 201.5 187 Z "/>
    <path fill="#ffffff" d="M 306.5 191 L 309 194.5 L 307 193.5 L 306.5 191 Z "/>
    <path fill="#ffffff" d="M 311.5 201 L 312 210.5 L 311 210.5 L 311.5 201 Z "/>
    <path fill="#ffffff" d="M 197.5 202 L 198 209.5 L 197 209.5 L 197.5 202 Z "/>
    <path fill="#ffffff" d="M 199.5 214 L 202 219.5 L 195.5 223 L 195.5 222 L 201 220 L 199.5 214 Z "/>
    <path fill="#ffffff" d="M 308.5 217 L 310.5 220 L 312 220.5 L 310.5 221 L 308 220 L 308.5 217 Z "/>
    <path fill="#ffffff" d="M 191.5 224 L 190.5 226 L 188.5 227 L 189.5 225 L 191.5 224 Z "/>
    <path fill="#ffffff" d="M 333.5 232 L 338 235.5 L 335.5 234 L 333.5 232 Z "/>
    <path fill="#ffffff" d="M 146.5 261 L 145 263.5 L 142.5 267 L 144 264.5 L 146.5 261 Z "/>
    <path fill="#ffffff" d="M 141.5 268 L 140 270.5 L 138.5 273 L 139 271.5 L 141.5 268 Z "/>
    <path fill="#ffffff" d="M 372.5 272 L 376 276.5 L 374 275.5 L 372.5 272 Z "/>
    <path fill="#ffffff" d="M 382.5 290 L 384 293.5 L 383 293.5 L 382.5 290 Z "/>
    <path fill="#ffffff" d="M 126.5 296 L 127 297.5 L 125.5 300 L 125 298.5 L 126.5 296 Z "/>
    <path fill="#ffffff" d="M 122.5 308 L 123 311.5 L 121.5 315 L 121 312.5 L 122.5 308 Z "/>
    <path fill="#ffffff" d="M 391.5 320 L 392 324.5 L 391 324.5 L 391.5 320 Z "/>
    <path fill="#ffffff" d="M 392.5 326 L 393 330.5 L 392 330.5 L 392.5 326 Z "/>
    <path fill="#ffffff" d="M 118.5 330 L 119 339.5 L 118 339.5 L 118.5 330 Z "/>
    <path fill="#ffffff" d="M 393.5 336 L 394 350.5 L 393 350.5 L 393.5 336 Z "/>
    <path fill="#ffffff" d="M 118.5 347 L 119 356.5 L 118 356.5 L 118.5 347 Z "/>
    <path fill="#ffffff" d="M 392.5 357 L 393 361.5 L 392 361.5 L 392.5 357 Z "/>
    <path fill="#ffffff" d="M 391.5 363 L 392 367.5 L 391 367.5 L 391.5 363 Z "/>
    <path fill="#ffffff" d="M 125.5 387 L 128 392.5 L 127 392.5 L 125.5 387 Z "/>
    <path fill="#ffffff" d="M 383.5 393 L 384 394.5 L 381.5 399 L 381 397.5 L 383.5 393 Z "/>
    <path fill="#ffffff" d="M 134.5 407 L 137 410.5 L 135 409.5 L 134.5 407 Z "/>
    <path fill="#ffffff" d="M 370.5 417 L 370 418.5 L 367.5 422 L 369 419.5 L 370.5 417 Z "/>
    <path fill="#ffffff" d="M 182.5 456 L 186 458.5 L 184.5 458 L 182.5 456 Z "/>
    <path fill="#ffffff" d="M 325.5 458 L 324.5 460 L 322.5 461 L 323.5 459 L 325.5 458 Z "/>
    <path fill="#ffffff" d="M 315.5 463 L 317 463.5 L 311.5 466 L 311.5 465 L 315.5 463 Z "/>
    <path fill="#ffffff" d="M 303.5 468 L 305 468.5 L 301.5 470 L 301.5 469 L 303.5 468 Z "/>
    <path fill="#ffffff" d="M 219.5 472 L 225 473.5 L 222.5 474 L 219.5 473 L 219.5 472 Z "/>
    <path fill="#ffffff" d="M 290.5 472 L 293 472.5 L 286.5 474 L 286.5 473 L 290.5 472 Z "/>
    <path fill="#ffffff" d="M 233.5 475 L 238 475.5 L 233.5 476 L 233.5 475 Z "/>
    <path fill="#ffffff" d="M 241.5 476 L 249 476.5 L 241.5 477 L 241.5 476 Z "/>
    <path fill="#ffffff" d="M 264.5 476 L 272 476.5 L 264.5 477 L 264.5 476 Z "/>
    <path fill="#ffffff" d="M 253.5 477 L 261 477.5 L 253.5 478 L 253.5 477 Z "/>
    <path fill="#4da3ff" d="M 303.5 280 L 307.5 280 L 311 282 L 315 288.5 L 315 295.5 L 310.5 301 L 306.5 302 L 307 300.5 L 308 291.5 L 303.5 280 Z "/>
    <path fill="#4da3ff" d="M 255.5 309 Q 258.8 307.9 258 310.5 L 264 323.5 L 268.5 329 L 288.5 332 L 290 333.5 L 276 348.5 L 275 356.5 L 278 372 L 273.5 372 L 258.5 364 L 252.5 364 L 238.5 372 L 234 372 L 237 351.5 Q 233.7 343.3 226.5 339 Q 224.3 339.8 225 337.5 L 222 333.5 L 227.5 331 L 239.5 330 L 246 326.5 L 252 312.5 L 255.5 309 Z "/>
    <path fill="#4da3ff" d="M 325.5 321 L 328 322 L 328 326 L 326.5 326 L 324.5 327 L 323 323.5 L 325.5 321 Z "/>
    <path fill="#ffd43b" d="M 231.5 46 L 245 46.5 L 231.5 47 L 231.5 46 Z "/>
    <path fill="#ffd43b" d="M 266.5 46 L 278 46.5 L 266.5 47 L 266.5 46 Z "/>
    <path fill="#ffd43b" d="M 221.5 47 L 226 47.5 L 221.5 48 L 221.5 47 Z "/>
    <path fill="#ffd43b" d="M 214.5 48 L 219 48.5 L 213.5 50 L 214.5 48 Z "/>
    <path fill="#ffd43b" d="M 208.5 49 L 212 49.5 L 205.5 51 L 205.5 50 L 208.5 49 Z "/>
    <path fill="#ffd43b" d="M 303.5 50 L 306 51.5 L 305.5 54 L 305 51 L 303.5 50 Z "/>
    <path fill="#ffd43b" d="M 192.5 54 L 195 55.5 L 195 58.5 L 204 79.5 L 237 138.5 L 250 166.5 Q 239.2 170.7 233 179.5 L 229.5 186 L 218.5 184 Q 217.2 186.2 212.5 185 L 193 160.5 L 171 125.5 L 161 101.5 L 160 85.5 Q 164.3 71.3 175.5 64 L 192.5 54 Z "/>
    <path fill="#ffd43b" d="M 315.5 54 Q 331.2 59.3 341 70.5 Q 346.5 76 349 84.5 L 349 99.5 L 345 111.5 L 335 131.5 L 317 159.5 L 296.5 185 L 282.5 184 L 279 185 Q 278.1 175.7 271.5 171 L 259 165.5 Q 277.8 125.8 300 89.5 L 310 69.5 L 315.5 54 Z "/>
    <path fill="#ffd43b" d="M 205.5 58 L 207 61.5 L 206 61.5 L 205.5 58 Z "/>
    <path fill="#ffd43b" d="M 300.5 66 L 301 67.5 L 297.5 73 L 298 71.5 L 300.5 66 Z "/>
    <path fill="#ffd43b" d="M 291.5 85 L 291 86.5 L 288.5 90 L 282 88.5 L 286.5 88 L 288.5 89 L 291.5 85 Z "/>
    <path fill="#ffd43b" d="M 218.5 86 L 220 89 L 224.5 88 L 224.5 89 L 220.5 90 L 218.5 86 Z "/>
    <path fill="#ffd43b" d="M 241.5 86 L 268 86.5 L 241.5 87 L 241.5 86 Z "/>
    <path fill="#ffd43b" d="M 231.5 87 L 236 87.5 L 231.5 88 L 231.5 87 Z "/>
    <path fill="#ffd43b" d="M 259.5 176 L 264 177.5 L 262.5 178 L 259.5 177 L 259.5 176 Z "/>
    <path fill="#ffd43b" d="M 266.5 179 L 270 184.5 L 269 184.5 L 266.5 179 Z "/>
    <path fill="#ffd43b" d="M 212.5 195 L 210 198.5 L 208.5 201 L 209 199.5 L 212.5 195 Z "/>
    <path fill="#ffd43b" d="M 274.5 197 L 277 201.5 L 276 201.5 L 274.5 197 Z "/>
    <path fill="#ffd43b" d="M 286.5 199 L 287 206.5 L 286 206.5 L 286.5 199 Z "/>
    <path fill="#ffd43b" d="M 237.5 202 L 239 206.5 L 238 206.5 L 237.5 202 Z "/>
    <path fill="#ffd43b" d="M 250.5 209 L 264 209.5 L 250.5 210 L 250.5 209 Z "/>
    <path fill="#ffd43b" d="M 242.5 219 L 267.5 219 L 268.5 220 L 276.5 220 L 299.5 226 Q 332.2 237.8 353 261.5 Q 363.7 272.9 371 287.5 L 379 307.5 L 384 331.5 L 384 356.5 L 380 376.5 L 374 393.5 L 361 415.5 L 349 430 L 327.5 447 L 301.5 460 L 280.5 466 L 250.5 468 L 249.5 467 L 240.5 467 L 239.5 466 L 227.5 465 L 200.5 456 L 178.5 443 L 158 424.5 Q 142.7 407.8 134 384.5 L 128 358.5 L 128 329.5 L 133 306.5 L 144 281.5 Q 154.8 263.3 170.5 250 Q 185.8 236.3 206.5 228 L 224.5 222 L 234.5 220 L 241.5 220 L 242.5 219 Z M 254 237 L 253 238 L 243 238 L 237 240 L 232 240 L 219 244 L 204 251 L 182 267 L 182 269 L 173 278 L 159 302 L 152 330 L 152 355 L 157 377 Q 165 397 178 413 Q 190 427 208 436 L 227 444 L 250 448 L 264 448 L 265 447 L 277 446 L 297 440 L 319 427 L 324 422 L 327 420 Q 342 406 351 386 L 357 368 L 360 351 L 359 324 L 354 304 Q 347 287 337 274 L 320 257 L 301 246 L 278 239 L 254 237 Z "/>
    <path fill="#ffd43b" d="M 245.5 246 L 267.5 246 L 268.5 247 L 279.5 248 L 292.5 252 Q 315.4 261.1 330 278.5 L 339 291.5 L 348 312.5 L 351 326.5 L 352 342.5 L 351 343.5 L 351 355.5 L 349 366.5 L 344 380.5 Q 334.6 401.6 318.5 416 Q 303.8 429.3 282.5 436 L 268.5 439 L 243.5 439 Q 204.6 431.9 184 406.5 Q 170.7 391.8 164 370.5 L 160 350.5 L 160 332.5 L 165 309.5 L 172 294.5 Q 181.4 278.4 195.5 267 L 216.5 254 L 230.5 249 L 245.5 246 Z M 302 272 L 291 276 L 290 280 L 296 283 Q 300 286 301 293 L 300 299 L 295 307 L 301 310 Q 309 311 314 308 Q 320 304 322 295 L 322 289 L 317 279 Q 312 273 302 272 Z M 253 298 L 249 300 Q 242 307 239 318 L 237 320 L 221 322 L 215 325 L 211 331 Q 210 338 213 341 L 224 351 L 225 351 L 226 354 L 223 371 L 226 380 L 231 383 L 240 383 L 254 375 L 259 375 L 273 383 Q 279 384 283 382 L 288 376 L 288 366 L 285 354 L 292 348 L 300 339 L 301 335 L 298 327 L 291 322 L 275 320 L 266 304 Q 264 296 253 298 Z M 324 314 L 322 315 L 316 323 Q 315 328 318 331 L 324 334 Q 329 335 332 332 L 335 328 L 334 319 Q 332 313 324 314 Z "/>
    <path fill="#ffa94d" d="M 245.5 46 L 265.5 46 L 266.5 47 L 282.5 47 L 283.5 48 L 285.5 48 Q 290.3 46.8 291.5 49 L 293.5 49 L 305 51 Q 302.6 67.3 294 78.5 L 295 79.5 L 292 82.5 L 288.5 89 L 280.5 87 L 276.5 87 L 268.5 87 L 267.5 86 L 241.5 86 L 240.5 87 L 231.5 87 L 225.5 89 L 222.5 88 L 220 89 L 210 70.5 L 204 51 L 212.5 49 L 214.5 49 L 225.5 48 L 226.5 47 L 244.5 47 L 245.5 46 Z "/>
    <path fill="#ffa94d" d="M 252.5 176 L 254.5 177 L 258.5 176 Q 265.1 176.9 268 181.5 L 270 185.5 L 271 192.5 Q 268.5 194 272 195.5 Q 271.3 197.8 273.5 197 L 277 203.5 L 276 207.5 L 273.5 210 L 250.5 209 L 247.5 210 Q 240.8 211.7 239 208.5 Q 239.8 203.2 237 201.5 L 237 196.5 L 238 194.5 L 238 192.5 Q 239.4 181.9 247.5 178 L 252.5 176 Z "/>
    <path fill="#ffa94d" d="M 287.5 193 L 293.5 195 L 294.5 194 L 301 200.5 L 302 204.5 L 301 206.5 L 301 208.5 Q 301.6 213.6 298.5 215 L 285.5 213 L 284 211.5 Q 288.3 208.3 287 199.5 L 286 196 L 284 195.5 L 287.5 193 Z "/>
    <path fill="#ffa94d" d="M 215.5 194 L 217.5 194 L 224.5 195 Q 226.3 192.3 228 196.5 L 227 200.5 L 230 210.5 Q 228.3 212.8 223.5 212 L 221.5 214 L 211.5 215 L 209 214 L 207 208.5 L 207 204.5 L 207 202.5 L 210 199.5 L 213.5 195 L 215.5 194 Z "/>
    <path fill="#66d9e8" d="M 301.5 278 L 306.5 278 L 313 282.5 Q 317.7 286.3 316 296.5 L 310.5 303 L 305.5 305 L 304 301.5 Q 307.5 297.5 306 288.5 L 300 279.5 L 301.5 278 Z M 304 280 L 308 292 L 307 301 L 307 302 L 311 301 L 315 296 L 315 289 L 311 282 L 308 280 L 304 280 Z "/>
    <path fill="#66d9e8" d="M 254.5 307 L 259 308 L 267 325.5 L 269.5 328 L 287.5 330 L 292 333.5 L 277 349.5 L 277 358.5 L 279 365.5 L 279 374 L 273.5 374 L 260.5 366 L 254.5 365 L 242.5 372 L 233 374 L 232 369.5 L 235 357.5 L 235 350.5 L 220 334.5 L 220 332.5 L 224.5 330 L 238.5 329 L 244 327 L 251 311.5 L 254.5 307 Z M 256 309 L 252 313 L 246 327 L 240 330 L 228 331 L 222 334 L 225 338 Q 224 340 227 339 Q 234 343 237 352 L 234 372 L 239 372 L 253 364 L 259 364 L 274 372 L 278 372 L 275 357 L 276 349 L 290 334 L 289 332 L 269 329 L 264 324 L 258 311 Q 259 308 256 309 Z "/>
    <path fill="#66d9e8" d="M 324.5 320 Q 328.3 319.3 329 321.5 L 330 324.5 L 327.5 328 Q 322 329 321 325.5 Q 320.5 320.5 324.5 320 Z M 326 321 L 323 324 L 325 327 L 327 326 L 328 326 L 328 322 L 326 321 Z "/>
  </g>
  <g id="line">
    <path fill="#1a1a1a" d="M 228.5 37 L 280.5 37 L 281.5 38 L 290.5 38 L 306.5 41 L 324.5 47 L 333.5 52 L 350 66.5 L 358 81.5 L 359 95.5 L 354 114.5 L 345 132.5 L 319 172.5 L 306 188.5 L 306 191.5 Q 313 197 311 211.5 L 308 220 Q 340.2 232.1 361 256.5 Q 378.9 276.6 388 305.5 L 393 331.5 L 393 356.5 L 388 381.5 L 377 407.5 Q 364.3 429.3 345.5 445 Q 326.5 461 300.5 470 L 274.5 476 L 249.5 477 L 248.5 476 L 238.5 476 L 237.5 475 L 225.5 474 L 200.5 466 Q 173.2 453.8 154 433.5 L 152.5 431 Q 150.3 431.8 151 429.5 L 137 411.5 L 125 386.5 L 120 366.5 L 118 340.5 L 119 339.5 L 119 327.5 L 120 326.5 L 121 315.5 L 129 290.5 L 142 267.5 L 156 250 L 178.5 232 L 202 219.5 L 198 210.5 L 198 201.5 L 204 189.5 Q 179.9 160.6 161 126.5 L 154 110.5 L 150 90.5 Q 152.8 88.7 151 82.5 L 156 71.5 L 166.5 59 L 177.5 51 L 195.5 43 L 217.5 38 L 227.5 38 L 228.5 37 Z M 232 46 L 231 47 L 222 47 L 221 48 L 209 49 L 203 51 L 210 72 L 221 90 L 237 87 L 274 87 L 289 90 L 291 88 L 301 68 L 306 52 L 305 50 L 296 48 L 279 47 L 278 46 L 232 46 Z M 193 54 L 176 64 Q 164 71 160 86 L 161 102 L 171 126 L 193 161 L 213 185 Q 217 186 219 184 L 230 186 L 233 180 Q 239 171 250 167 L 237 139 L 204 80 L 195 59 L 195 56 L 193 54 Z M 316 54 L 310 70 L 300 90 Q 278 126 259 166 L 272 171 Q 278 176 279 185 L 283 184 L 297 185 L 317 160 L 335 132 L 345 112 L 349 100 L 349 85 Q 347 76 341 71 Q 331 59 316 54 Z M 238 96 L 226 98 L 229 107 L 255 153 L 278 111 L 283 98 L 271 96 L 238 96 Z M 252 176 L 246 179 Q 240 184 237 193 Q 235 203 239 209 L 241 210 L 270 210 L 271 211 L 273 211 L 277 207 L 276 199 L 274 197 L 271 195 Q 272 186 269 182 L 262 176 L 252 176 Z M 284 193 L 286 199 Q 288 208 284 212 L 293 215 L 299 215 L 302 210 Q 303 202 300 199 L 295 194 L 284 193 Z M 215 194 L 213 195 L 207 203 Q 206 210 209 214 L 213 216 L 230 212 L 228 203 L 228 196 L 227 194 L 215 194 Z M 243 219 L 242 220 L 235 220 L 225 222 L 207 228 Q 186 236 171 250 Q 155 263 144 282 L 133 307 L 128 330 L 128 359 L 134 385 Q 143 408 158 425 L 179 443 L 201 456 L 228 465 L 240 466 L 241 467 L 250 467 L 251 468 L 281 466 L 302 460 L 328 447 L 349 430 L 361 416 L 374 394 L 380 377 L 384 357 L 384 332 L 379 308 L 371 288 Q 364 273 353 262 Q 332 238 300 226 L 277 220 L 269 220 L 268 219 L 243 219 Z "/>
    <path fill="#1a1a1a" d="M 253.5 237 L 277.5 239 L 300.5 246 L 319.5 257 L 337 273.5 Q 347.4 286.6 354 303.5 L 359 323.5 L 360 350.5 L 357 367.5 L 351 385.5 Q 341.7 405.7 326.5 420 L 323.5 422 L 318.5 427 L 296.5 440 L 276.5 446 L 264.5 447 L 263.5 448 L 249.5 448 L 226.5 444 L 207.5 436 Q 190.2 426.8 178 412.5 Q 164.6 397.4 157 376.5 L 152 354.5 L 152 329.5 L 159 301.5 L 173 277.5 L 182 268.5 L 182 267 L 203.5 251 L 218.5 244 L 231.5 240 L 236.5 240 L 242.5 238 L 252.5 238 L 253.5 237 Z M 246 246 L 231 249 L 217 254 L 196 267 Q 181 278 172 295 L 165 310 L 160 333 L 160 351 L 164 371 Q 171 392 184 407 Q 205 432 244 439 L 269 439 L 283 436 Q 304 429 319 416 Q 335 402 344 381 L 349 367 L 351 356 L 351 344 L 352 343 L 351 327 L 348 313 L 339 292 L 330 279 Q 315 261 293 252 L 280 248 L 269 247 L 268 246 L 246 246 Z "/>
    <path fill="#1a1a1a" d="M 301.5 272 Q 311.8 272.8 317 278.5 L 322 288.5 L 322 294.5 Q 320.3 303.8 313.5 308 Q 308.9 310.9 300.5 310 L 295 306.5 L 300 298.5 L 301 292.5 Q 300.1 285.9 295.5 283 L 290 279.5 L 291 276 L 301.5 272 Z M 302 278 L 300 280 L 306 289 Q 308 298 304 302 L 306 305 L 311 303 L 316 297 Q 318 286 313 283 L 307 278 L 302 278 Z "/>
    <path fill="#1a1a1a" d="M 252.5 298 Q 263.6 296.4 266 303.5 L 274.5 320 L 290.5 322 L 298 326.5 L 301 334.5 L 300 338.5 L 291.5 348 L 285 353.5 L 288 365.5 L 288 375.5 L 282.5 382 Q 279.3 384.3 272.5 383 L 258.5 375 L 253.5 375 L 239.5 383 L 230.5 383 L 226 379.5 L 223 370.5 L 226 353.5 L 225 351 L 223.5 351 L 213 340.5 Q 210 337.5 211 330.5 L 214.5 325 L 220.5 322 L 236.5 320 L 239 317.5 Q 241.9 306.9 248.5 300 L 252.5 298 Z M 255 307 L 251 312 L 244 327 L 239 329 L 225 330 L 220 333 L 220 335 L 235 351 L 235 358 L 232 370 L 233 374 L 243 372 L 255 365 L 261 366 L 274 374 L 279 374 L 279 366 L 277 359 L 277 350 L 292 334 L 288 330 L 270 328 L 267 326 L 259 308 L 255 307 Z "/>
    <path fill="#1a1a1a" d="M 323.5 314 Q 331.6 313.4 334 318.5 L 335 327.5 L 331.5 332 Q 329.2 334.7 323.5 334 L 318 330.5 Q 315.3 328.2 316 322.5 L 321.5 315 L 323.5 314 Z M 325 320 Q 321 321 321 326 Q 322 329 328 328 L 330 325 L 329 322 Q 328 319 325 320 Z "/>
  </g>
</svg>
