<svg xmlns="http://www.w3.org/2000/svg" width="512" height="512" viewBox="0 0 512 512">
  <g id="color">
    <path fill="#ffffff" d="M 217.5 36 L 313 36.5 L 217.5 37 L 217.5 36 Z "/>
    <path fill="#ffffff" d="M 178.5 37 L 215 37.5 L 178.5 38 L 178.5 37 Z "/>
    <path fill="#ffffff" d="M 315.5 37 L 352 37.5 L 315.5 38 L 315.5 37 Z "/>
    <path fill="#ffffff" d="M 146.5 38 L 167 38.5 L 146.5 39 L 146.5 38 Z "/>
    <path fill="#ffffff" d="M 363.5 38 L 382 38.5 L 363.5 39 L 363.5 38 Z "/>
    <path fill="#ffffff" d="M 120.5 39 L 137 39.5 L 105.5 41 L 105.5 40 L 119.5 40 L 120.5 39 Z "/>
    <path fill="#ffffff" d="M 392.5 39 L 406 39.5 L 392.5 40 L 392.5 39 Z "/>
    <path fill="#ffffff" d="M 408.5 40 L 420 40.5 L 408.5 41 L 408.5 40 Z "/>
    <path fill="#ffffff" d="M 90.5 41 L 100 41.5 L 90.5 42 L 90.5 41 Z "/>
    <path fill="#ffffff" d="M 424.5 41 L 431 41.5 L 424.5 42 L 424.5 41 Z "/>
    <path fill="#ffffff" d="M 79.5 42 L 85 42.5 L 75.5 44 L 75.5 43 L 79.5 42 Z "/>
    <path fill="#ffffff" d="M 434.5 42 L 440 43.5 L 438.5 44 L 434.5 43 L 434.5 42 Z "/>
    <path fill="#ffffff" d="M 443.5 45 L 450 50.5 L 445.5 47 L 443.5 45 Z "/>
    <path fill="#ffffff" d="M 59.5 54 L 59 55.5 L 57.5 59 L 57 57.5 L 59.5 54 Z "/>
    <path fill="#ffffff" d="M 453.5 57 L 455 64.5 L 454 64.5 L 453.5 57 Z "/>
    <path fill="#ffffff" d="M 55.5 63 L 56 67.5 L 55 67.5 L 55.5 63 Z "/>
    <path fill="#ffffff" d="M 455.5 66 L 456 73.5 L 455 73.5 L 455.5 66 Z "/>
    <path fill="#ffffff" d="M 54.5 69 L 55 78.5 L 54 78.5 L 54.5 69 Z "/>
    <path fill="#ffffff" d="M 456.5 81 L 457 91.5 L 456 91.5 L 456.5 81 Z "/>
    <path fill="#ffffff" d="M 224.5 82 L 253.5 82 L 255 83.5 L 255 100.5 L 252.5 101 L 242.5 104 L 236 109.5 Q 232.8 112.8 234 120.5 L 240.5 129 L 248.5 132 L 253.5 132 L 255 133.5 L 255 154 L 235.5 154 L 234.5 155 L 203.5 155 L 202 153.5 L 202 130 Q 215.9 130.8 222 122.5 Q 225.3 118.8 224 110.5 L 218.5 103 L 212.5 100 L 203.5 99 L 202 97.5 L 202 83 L 223.5 83 L 224.5 82 Z "/>
    <path fill="#ffffff" d="M 263.5 82 L 297.5 82 L 298.5 83 L 314.5 83 L 316 84.5 L 316 100.5 L 314.5 102 Q 302.5 102.5 297 109.5 Q 293.7 113.2 295 121.5 L 301.5 130 L 309.5 133 L 314.5 133 L 316 134.5 L 316 152.5 L 314.5 154 L 262 154 L 262 133.5 L 263.5 132 L 275.5 130 L 282 125.5 Q 286.5 122 285 112.5 L 279.5 105 L 273.5 102 L 262 100 L 262 83.5 L 263.5 82 Z "/>
    <path fill="#ffffff" d="M 188.5 83 L 194 83 L 194 99 L 180.5 103 L 175 108.5 Q 172.4 111.4 173 117.5 Q 174.5 124 179.5 127 L 185.5 130 Q 191.6 129.3 194 131 L 194 155 L 144.5 155 L 142.5 156 L 141 154.5 Q 142.4 143.6 140 136.5 L 140 134.5 L 141 131 Q 154.6 131.3 161 123.5 Q 164.5 119.5 163 110.5 L 156.5 103 L 148.5 100 L 142.5 100 L 141 98.5 L 141 85 L 151.5 85 L 152.5 84 L 187.5 84 L 188.5 83 Z "/>
    <path fill="#ffffff" d="M 324.5 83 L 363.5 84 L 364.5 85 L 374 85 L 374 100.5 L 372.5 102 Q 359.5 102 355 110.5 L 353 119.5 Q 354.8 126.7 360.5 130 L 374 133 L 374 154 L 323 154 L 323 133.5 Q 323 132.5 327.5 133 L 337.5 130 L 344 124.5 Q 347.2 121.2 346 113.5 L 339.5 105 L 332.5 102 L 323 101 L 323 84.5 L 324.5 83 Z "/>
    <path fill="#ffffff" d="M 126.5 85 L 133 85 L 133 100 L 119.5 104 L 114 109.5 L 112 116.5 L 115 124.5 L 117.5 127 L 122.5 130 L 133 131 L 133 156 L 102 156 L 102 126.5 L 103 125.5 L 104 97.5 Q 104.9 90.9 109.5 88 L 115.5 86 L 125.5 86 L 126.5 85 Z "/>
    <path fill="#ffffff" d="M 382.5 85 L 401.5 86 L 407 89.5 L 410 102.5 L 410 119.5 L 411 120.5 L 412 154 L 382.5 154 L 381 152.5 L 381 133.5 L 383.5 133 L 395.5 130 L 403 123.5 Q 405.7 119.7 404 111.5 L 398.5 105 L 392.5 102 L 382.5 101 L 381 99.5 L 381 86.5 L 382.5 85 Z "/>
    <path fill="#ffffff" d="M 53.5 88 L 54 104.5 L 53 104.5 L 53.5 88 Z "/>
    <path fill="#ffffff" d="M 457.5 93 L 458 109.5 L 457 109.5 L 457.5 93 Z "/>
    <path fill="#ffffff" d="M 458.5 113 L 459 128.5 L 458 128.5 L 458.5 113 Z "/>
    <path fill="#ffffff" d="M 52.5 116 L 53 144.5 L 52 144.5 L 52.5 116 Z "/>
    <path fill="#ffffff" d="M 459.5 144 L 460 163.5 L 459 163.5 L 459.5 144 Z "/>
    <path fill="#ffffff" d="M 51.5 147 L 52 284.5 L 51 284.5 L 51.5 147 Z "/>
    <path fill="#ffffff" d="M 460.5 168 L 461 203.5 L 460 203.5 L 460.5 168 Z "/>
    <path fill="#ffffff" d="M 298.5 189 L 310.5 189 L 312.5 190 L 314.5 190 L 316 190.5 L 316 204 L 305.5 206 L 297 212.5 Q 294 215.5 294 221.5 L 299.5 231 L 304.5 234 L 314.5 235 L 316 236.5 L 316 251.5 L 314.5 253 Q 301 253.5 296 262.5 L 294 270.5 Q 295.8 277.7 301.5 281 L 309.5 284 L 314.5 284 L 316 285.5 L 316 303.5 L 312.5 304 L 302.5 307 L 297 312.5 Q 293.8 315.8 295 323.5 L 301.5 332 L 305.5 334 L 314.5 335 L 316 336.5 L 316 385.5 L 312.5 386 L 301.5 390 L 297 394.5 Q 293.7 398.2 295 406.5 L 301.5 414 Q 305.6 417.9 314.5 417 L 316 418.5 L 316 429.5 L 314.5 431 L 263.5 431 L 262 429.5 L 262 417.5 L 265.5 417 L 276.5 414 L 283 408.5 Q 286.2 405.2 285 397.5 L 282 391 L 272.5 386 L 263.5 385 L 262 383.5 Q 260.8 378.3 263.5 377 Q 276 376.5 282 371 L 285 365.5 L 285 357.5 L 278.5 349 Q 273.1 344.7 263 346 Q 261 343 262 335.5 L 263.5 334 L 274.5 332 L 283 325.5 Q 286.8 322.3 285 313.5 L 278.5 306 L 270.5 303 L 263.5 303 L 262 301.5 L 262 284.5 L 263.5 283 Q 277.8 283.3 283 274.5 Q 286.8 271.3 285 262.5 L 278.5 255 L 271.5 252 L 262 251 L 262 235.5 L 263.5 234 L 269.5 234 L 275.5 232 L 282 228 L 285 222.5 L 285 213.5 L 278.5 206 L 271.5 203 L 263.5 203 L 262 201.5 L 262 191.5 L 263.5 190 L 297.5 190 L 298.5 189 Z "/>
    <path fill="#ffffff" d="M 324.5 189 L 373.5 189 L 374 189.5 L 374 204 Q 361.1 204.3 355 212.5 Q 352.3 215.8 353 222.5 Q 354.3 228.3 358.5 231 L 363.5 234 L 374 235 L 374 303.5 Q 374 304.5 369.5 304 L 359.5 308 L 355 312.5 Q 352.3 315.8 353 322.5 L 356 329 L 358 329 Q 356.9 331.7 359.5 331 L 364.5 334 L 374 335 L 374 385.5 L 370.5 386 L 361.5 389 L 356 393.5 L 353 403.5 Q 353.9 410.1 358.5 413 L 367.5 417 L 374 417 L 374 429 L 355.5 429 L 354.5 430 L 323 430 L 323 417 L 329.5 417 Q 338.1 415.3 343 411 L 346 404.5 L 346 397.5 L 340.5 390 L 331.5 386 Q 325.4 386.8 323 385 L 323 335.5 Q 323 334.5 327.5 335 L 339.5 331 L 344 326.5 Q 347.2 323.2 346 315.5 L 339.5 307 L 332.5 304 L 323 303 L 323 285.5 L 324.5 284 L 333.5 283 Q 340.3 280.8 344 275.5 Q 347.2 272.2 346 264.5 L 339.5 256 L 335.5 254 L 323 252 L 323 236.5 L 324.5 235 Q 338.8 235.3 344 226.5 Q 347.2 223.2 346 215.5 L 340.5 208 L 334.5 205 L 323 203 L 323 190.5 L 324.5 189 Z "/>
    <path fill="#ffffff" d="M 382.5 189 L 413 189 L 413 205.5 L 414 206.5 L 414 254.5 L 415 256.5 L 415 258.5 L 415 324.5 L 414 325.5 L 413 401.5 L 412 402.5 L 411 417.5 L 406.5 425 Q 396.6 429.8 381 428 L 381 418.5 L 382.5 417 L 391.5 416 L 402 409.5 Q 406 406 404 396.5 L 397.5 389 L 390.5 386 L 384.5 386 L 381 383.5 L 381 336.5 L 382.5 335 Q 395.5 334.5 402 327.5 Q 405.7 323.2 404 313.5 L 398.5 307 Q 392.1 303.4 382.5 303 L 381 301.5 L 381 236.5 L 382.5 235 Q 396 235 402 227.5 Q 405.5 223.5 404 214.5 L 401 209 L 396.5 206 L 382.5 203 L 381 201.5 L 381 190.5 L 382.5 189 Z "/>
    <path fill="#ffffff" d="M 208.5 190 L 254.5 190 L 255 190.5 L 255 203 L 244.5 205 L 236 211.5 Q 232.8 214.8 234 222.5 L 240.5 231 Q 245.6 235.2 255 234 L 255 251.5 Q 255 252.5 250.5 252 L 240.5 256 L 236 260.5 Q 232.8 263.8 234 271.5 L 240.5 280 Q 245.6 284.2 255 283 L 255 302.5 L 252.5 303 L 240.5 307 L 236 311.5 Q 232.8 314.8 234 322.5 L 240.5 331 L 248.5 334 L 255 334 L 255 345.5 L 251.5 346 L 240.5 350 L 236 354.5 Q 233.3 357.8 234 364.5 Q 235.5 371 240.5 374 L 247.5 377 L 253.5 377 L 255 378.5 L 255 386 L 249.5 386 L 237 392 L 234 398.5 L 234 404.5 L 237.5 411 Q 243.6 417.1 255 417 L 255 430.5 L 254.5 431 L 202 431 L 202 415.5 L 204.5 415 L 217.5 411 L 223 405.5 Q 225.5 402 224 394.5 L 221 389 L 216.5 386 L 202 383 L 202 332.5 L 203.5 332 L 215.5 329 L 222 323.5 Q 225.8 320.3 224 311.5 L 220.5 306 L 211.5 301 L 202 300 L 202 232.5 L 203.5 231 Q 217.2 231.7 222 223.5 Q 225.8 220.3 224 211.5 L 219.5 205 Q 213 199.7 202 200 L 202 191 L 207.5 191 L 208.5 190 Z "/>
    <path fill="#ffffff" d="M 101 191 L 133 191 L 133 202 L 124.5 203 Q 117.8 205.3 114 210.5 L 113 222.5 L 119.5 230 L 128.5 233 L 133 233 L 133 250.5 L 129.5 251 Q 120 252.6 115 258.5 Q 111.5 262.5 113 271.5 L 117.5 278 L 126.5 282 L 131.5 282 L 133 283.5 L 133 301.5 L 130.5 302 L 122.5 304 L 115 309.5 L 112 317.5 L 113 322.5 L 116.5 328 L 123.5 332 L 133 333 L 134 369.5 L 133 370.5 L 133 383.5 L 131.5 385 Q 118.5 385 114 393.5 L 113 404.5 L 118.5 412 Q 124.5 415.8 133 416 L 134 426.5 L 133 429 L 126.5 429 L 125.5 428 L 111.5 428 L 107 424.5 L 106 422.5 L 106 409.5 L 105 408.5 L 105 395.5 L 104 394.5 L 103 349.5 L 102 348.5 L 101 277.5 L 100 276.5 L 100 196.5 L 101 191 Z "/>
    <path fill="#ffffff" d="M 141 191 L 193.5 191 L 194 191.5 L 194 199.5 L 192.5 201 L 188.5 201 L 180.5 204 L 175 209.5 Q 172.3 212.8 173 219.5 L 180.5 229 Q 183.5 232 190.5 231 L 195 233.5 L 194 235.5 L 194 301 Q 180.5 300.8 175 309.5 L 173 314.5 L 173 319.5 L 178.5 328 Q 184.2 331.8 193.5 332 L 195 333.5 L 194 335.5 L 194 347.5 L 195 348.5 L 195 357.5 L 194 358.5 L 194 384 L 185.5 385 Q 178.8 387.3 175 392.5 L 173 400.5 Q 174.3 407.3 178.5 411 L 184.5 414 L 193.5 415 L 195 416.5 L 194 431 L 149.5 430 L 148.5 429 L 141 429 L 141 416.5 L 142.5 415 Q 155.9 415.4 161 407.5 Q 165 404 163 394.5 L 157.5 388 Q 151.8 384.2 142.5 384 L 141 382.5 L 141 333.5 L 144.5 333 L 153.5 331 L 161 325.5 L 164 316.5 L 160 307 L 152.5 303 L 141 301 L 141 285.5 L 140 284.5 L 142.5 282 L 147.5 282 L 153.5 280 L 161 274.5 L 164 265.5 Q 162.6 257.4 156.5 254 L 148.5 251 L 142.5 251 L 141 249.5 L 141 233.5 L 143.5 233 L 152.5 231 L 160 227 Q 163.3 223.4 164 216.5 L 161 208.5 L 158.5 206 L 150.5 202 L 141 201 L 141 191 Z "/>
    <path fill="#ffffff" d="M 461.5 213 L 462 263.5 L 461 263.5 L 461.5 213 Z "/>
    <path fill="#ffffff" d="M 52.5 288 L 53 320.5 L 52 320.5 L 52.5 288 Z "/>
    <path fill="#ffffff" d="M 53.5 333 L 54 350.5 L 53 350.5 L 53.5 333 Z "/>
    <path fill="#ffffff" d="M 461.5 341 L 462 372.5 L 461 372.5 L 461.5 341 Z "/>
    <path fill="#ffffff" d="M 54.5 362 L 55 381.5 L 54 381.5 L 54.5 362 Z "/>
    <path fill="#ffffff" d="M 460.5 380 L 461 408.5 L 460 408.5 L 460.5 380 Z "/>
    <path fill="#ffffff" d="M 55.5 383 L 56 401.5 L 55 401.5 L 55.5 383 Z "/>
    <path fill="#ffffff" d="M 56.5 409 L 57 420.5 L 56 420.5 L 56.5 409 Z "/>
    <path fill="#ffffff" d="M 459.5 413 L 460 428.5 L 459 428.5 L 459.5 413 Z "/>
    <path fill="#ffffff" d="M 57.5 429 L 58 442.5 L 57 442.5 L 57.5 429 Z "/>
    <path fill="#ffffff" d="M 458.5 441 L 459 447.5 L 458 447.5 L 458.5 441 Z "/>
    <path fill="#ffffff" d="M 58.5 444 L 59 453.5 L 58 453.5 L 58.5 444 Z "/>
    <path fill="#ffffff" d="M 60.5 458 L 63 462.5 L 61 461.5 L 60.5 458 Z "/>
    <path fill="#ffffff" d="M 452.5 461 L 447.5 467 L 445.5 468 L 446.5 466 L 452.5 461 Z "/>
    <path fill="#ffffff" d="M 68.5 468 L 72 470.5 L 70.5 470 L 68.5 468 Z "/>
    <path fill="#ffffff" d="M 428.5 471 L 434 471.5 L 428.5 472 L 428.5 471 Z "/>
    <path fill="#ffffff" d="M 77.5 472 L 83 472.5 L 77.5 473 L 77.5 472 Z "/>
    <path fill="#ffffff" d="M 409.5 472 L 423 472.5 L 394.5 474 L 394.5 473 L 408.5 473 L 409.5 472 Z "/>
    <path fill="#ffffff" d="M 84.5 473 L 100 473.5 L 84.5 474 L 84.5 473 Z "/>
    <path fill="#ffffff" d="M 110.5 474 L 130 474.5 L 110.5 475 L 110.5 474 Z "/>
    <path fill="#ffffff" d="M 363.5 474 L 382 474.5 L 363.5 475 L 363.5 474 Z "/>
    <path fill="#ffffff" d="M 147.5 475 L 186 475.5 L 147.5 476 L 147.5 475 Z "/>
    <path fill="#ffffff" d="M 306.5 475 L 348 475.5 L 306.5 476 L 306.5 475 Z "/>
    <path fill="#ffffff" d="M 188.5 476 L 304 476.5 L 188.5 477 L 188.5 476 Z "/>
    <path fill="#4da3ff" d="M 194.5 106 Q 207.9 104.4 215 108 L 217 111.5 L 217 117.5 L 214.5 121 L 201.5 124 L 190.5 124 L 183.5 122 L 181 119.5 L 180 113.5 L 181 111 L 185.5 108 L 194.5 106 Z "/>
    <path fill="#4da3ff" d="M 131.5 107 L 148.5 107 L 156 111.5 Q 157.8 120.3 152.5 122 L 148.5 124 L 131.5 125 L 120 121 L 119 115.5 L 122.5 110 L 131.5 107 Z "/>
    <path fill="#4da3ff" d="M 251.5 108 L 271.5 108 L 277 111 L 278 119.5 L 277 122 L 269.5 125 L 253.5 126 L 250.5 125 L 247.5 125 L 241 120.5 Q 239.8 113.3 243.5 111 L 251.5 108 Z "/>
    <path fill="#4da3ff" d="M 316.5 108 Q 330.6 106.2 337 111 L 339 118.5 L 338 122 L 328.5 126 L 316.5 127 L 313.5 126 Q 305.3 126.3 302 121.5 Q 300.3 112.8 305.5 111 L 316.5 108 Z "/>
    <path fill="#4da3ff" d="M 372.5 108 L 389.5 108 L 397 113.5 L 398 118.5 L 396 122 L 390.5 125 L 385.5 126 L 383.5 126 Q 367.6 128.4 361 121.5 L 360 114.5 L 363.5 111 L 372.5 108 Z "/>
    <path fill="#ffd43b" d="M 219.5 44 L 304.5 44 L 305.5 45 L 355.5 45 L 356.5 46 L 402.5 47 L 403.5 48 L 420.5 48 L 421.5 49 L 435.5 50 Q 441.3 51.3 444 55.5 L 447 61.5 L 448 75.5 L 449 76.5 L 450 112.5 L 451 113.5 L 451 130.5 L 452 131.5 L 453 211.5 L 454 212.5 L 454 292.5 L 455 293.5 L 455 303.5 Q 452.7 304.8 454 309.5 L 455 311.5 L 454 312.5 L 454 372.5 L 453 373.5 L 452 436.5 L 449 453.5 L 442.5 461 L 434.5 464 L 426.5 464 L 425.5 465 L 388.5 466 L 387.5 467 L 360.5 467 L 359.5 468 L 192.5 469 L 191.5 468 L 100.5 467 L 99.5 466 L 77.5 465 L 70 460.5 L 66 452.5 L 65 426.5 L 64 425.5 L 64 406.5 L 63 405.5 L 62 359.5 L 61 358.5 L 60 279.5 L 59 278.5 L 59 150.5 L 60 149.5 L 60 108.5 L 61 107.5 L 62 70.5 L 64 61.5 L 70.5 54 L 81.5 50 L 100.5 49 L 101.5 48 L 122.5 48 L 123.5 47 L 142.5 47 L 143.5 46 L 169.5 46 L 170.5 45 L 218.5 45 L 219.5 44 Z M 89 59 L 86 60 L 82 67 Q 80 64 74 66 L 71 70 L 72 78 Q 77 86 91 85 L 93 83 L 97 73 L 97 64 Q 95 59 89 59 Z M 212 75 L 211 76 L 175 76 L 174 77 L 121 78 L 110 80 L 102 84 L 99 89 L 96 101 L 96 125 L 95 126 L 95 144 L 94 145 L 94 180 L 93 181 L 93 282 L 93 284 L 94 285 L 94 319 L 95 320 L 95 350 L 96 351 L 96 382 L 97 383 L 97 398 L 98 399 L 98 418 Q 101 419 99 425 L 102 431 L 111 435 L 147 436 L 148 437 L 173 437 L 174 438 L 331 438 L 332 437 L 360 437 L 361 436 L 380 436 L 381 435 L 400 435 L 410 432 Q 417 427 419 418 L 420 385 L 421 384 L 421 342 L 422 341 L 422 238 L 421 237 L 420 159 L 419 158 L 419 130 L 418 129 L 418 117 L 417 116 L 417 98 L 414 87 L 409 81 L 398 78 L 370 78 L 369 77 L 346 77 L 345 76 L 313 76 L 312 75 L 212 75 Z M 426 430 L 424 431 L 417 440 Q 416 448 419 451 L 423 453 L 431 453 L 436 450 L 440 442 Q 440 435 437 432 Q 434 429 426 430 Z "/>
    <path fill="#ffd43b" d="M 245.5 161 L 411.5 161 L 413 162.5 L 413 180.5 L 411.5 181 L 410.5 182 L 268.5 182 L 267.5 183 L 101 184 L 101 164.5 L 102.5 163 L 244.5 162 L 245.5 161 Z M 392 164 L 390 165 L 386 172 L 391 178 Q 400 180 401 174 L 401 170 L 399 166 L 396 164 L 392 164 Z "/>
    <path fill="#ffd43b" d="M 196.5 205 L 207 205.5 L 196.5 206 L 196.5 205 Z "/>
    <path fill="#ffd43b" d="M 190.5 226 L 195 226.5 L 190.5 227 L 190.5 226 Z "/>
    <path fill="#ffd43b" d="M 254.5 229 L 259 229.5 L 254.5 230 L 254.5 229 Z "/>
    <path fill="#ff6b6b" d="M 88.5 63 Q 93 62 94 64.5 L 95 70.5 L 90 82 L 87.5 81 L 83.5 82 L 76 78 L 74 74.5 L 74 70.5 Q 75.3 67.8 80.5 69 L 83.5 71 Q 86.8 69.8 86 66 L 88 65.5 Q 85.8 64.3 88.5 63 Z "/>
    <path fill="#51cf66" d="M 197.5 305 L 209.5 306 Q 215.3 307.3 218 311.5 L 219 318.5 L 215.5 323 L 203.5 327 L 191.5 327 L 183.5 325 L 179 320.5 L 178 316.5 L 182.5 309 L 197.5 305 Z "/>
    <path fill="#51cf66" d="M 131.5 307 L 148.5 307 Q 154.3 308.3 157 312.5 L 159 317.5 L 153.5 325 Q 144.1 330.1 127.5 328 Q 121 326.5 118 321.5 Q 116.3 311.8 122.5 310 L 131.5 307 Z "/>
    <path fill="#51cf66" d="M 255.5 308 Q 272.2 305.8 279 313.5 L 280 319.5 L 275.5 326 Q 266.5 331 250.5 329 L 245.5 328 L 240 323.5 L 239 318.5 L 242.5 312 L 255.5 308 Z "/>
    <path fill="#51cf66" d="M 314.5 309 L 330.5 309 L 339 313 L 341 320.5 L 336.5 327 L 326.5 330 L 311.5 330 L 303.5 327 L 301 324.5 L 300 318.5 L 304.5 312 L 314.5 309 Z "/>
    <path fill="#51cf66" d="M 372.5 309 L 389.5 309 Q 396 310.5 399 315.5 Q 400.4 324.9 394.5 327 L 384.5 330 L 371.5 330 L 363.5 328 L 359 323.5 L 359 316.5 L 361 313 L 372.5 309 Z "/>
    <path fill="#ffa94d" d="M 138.5 206 L 149.5 207 L 158 213.5 Q 158.9 221.1 156 224 Q 151.4 223.4 149.5 227 Q 144 225.5 142.5 228 L 140.5 227 Q 139.2 229.3 134.5 228 L 132.5 227 L 130.5 228 L 125.5 227 L 119 222.5 L 118 214.5 L 126.5 208 L 137.5 207 L 138.5 206 Z "/>
    <path fill="#ffa94d" d="M 190.5 206 L 210.5 206 L 218 211.5 L 219 217.5 L 214.5 224 L 205.5 227 L 195.5 227 L 190.5 226 L 188.5 226 L 185.5 226 L 180 223 L 178 215.5 L 182 209 L 190.5 206 Z "/>
    <path fill="#ffa94d" d="M 255.5 208 L 257.5 209 L 259.5 208 L 262.5 209 L 265.5 208 L 272.5 209 L 278 212 L 280 215.5 L 280 220.5 L 274.5 227 L 259.5 230 L 254.5 229 L 253.5 230 L 251.5 228 L 247.5 228 L 243 227 L 239 220.5 L 240 218.5 L 240 216.5 L 245.5 210 L 255.5 208 Z "/>
    <path fill="#ffa94d" d="M 314.5 209 L 316.5 210 L 317.5 209 L 329.5 209 L 339 213 L 341 221.5 L 337.5 226 L 329.5 230 Q 322 228.5 318.5 231 L 317.5 230 L 308.5 230 L 303 226.5 L 300 219.5 L 304 212 L 314.5 209 Z "/>
    <path fill="#ffa94d" d="M 371.5 209 L 386.5 209 L 387.5 210 L 389.5 210 L 397 213.5 Q 400 215.5 399 221.5 L 394.5 227 L 386.5 230 L 384.5 229 L 383.5 230 L 368.5 230 L 360 226 L 358 219.5 L 360 214 L 371.5 209 Z "/>
    <path fill="#ffa94d" d="M 129.5 256 L 131.5 257 L 134.5 256 L 147.5 256 L 154 258 Q 152.9 260.7 155.5 260 Q 159 262 158 268.5 L 157 272 L 152.5 275 L 136.5 278 L 133.5 277 L 127.5 277 L 122.5 275 L 119 271.5 L 118 265.5 L 122.5 259 L 129 258 L 129.5 256 Z "/>
    <path fill="#ffa94d" d="M 259.5 256 L 264.5 257 L 269.5 257 L 276 259 Q 274.9 261.7 277.5 261 L 280 264.5 L 280 266.5 L 277.5 273 L 274.5 275 L 265.5 278 L 255.5 278 L 253.5 278 L 251.5 277 L 249.5 278 L 240 272.5 L 239 268.5 L 240 263.5 L 242.5 261 L 252.5 257 L 255.5 258 L 259.5 256 Z "/>
    <path fill="#ffa94d" d="M 314.5 258 L 331.5 258 L 333.5 260 L 334.5 259 L 338.5 263 Q 341.1 262.2 340 265.5 L 340 267.5 L 341 269.5 L 336.5 276 L 326.5 279 L 324.5 279 Q 313.5 281 308.5 277 L 306.5 278 L 300 271.5 L 300 269.5 L 300 266.5 L 303 262 L 314.5 258 Z "/>
    <path fill="#9775fa" d="M 252.5 351 L 270.5 351 L 275.5 353 L 279 356.5 L 280 363.5 L 274.5 370 L 268.5 372 L 254.5 373 Q 253 370.5 247.5 372 L 240 366.5 L 239 360.5 L 241 356 L 245.5 353 L 252.5 351 Z "/>
    <path fill="#9775fa" d="M 197.5 388 L 210.5 389 L 219 395.5 Q 220.3 404.9 214.5 407 L 204.5 410 L 189.5 410 Q 182.1 408.9 179 403.5 L 178 398.5 L 182.5 392 L 186.5 390 L 197.5 388 Z "/>
    <path fill="#9775fa" d="M 134.5 389 Q 149.4 387.3 156 393 L 159 400.5 L 153.5 408 L 148.5 410 L 132.5 411 Q 131 408.5 125.5 410 L 118 404.5 Q 116 394 122.5 392 L 134.5 389 Z "/>
    <path fill="#9775fa" d="M 256.5 390 Q 273.3 387.7 279 396.5 L 280 403.5 L 276.5 408 L 273.5 410 L 264.5 412 L 250.5 412 L 241 407.5 Q 238.3 405.2 239 399.5 L 244.5 393 L 256.5 390 Z "/>
    <path fill="#9775fa" d="M 315.5 391 Q 332.1 388.7 339 395 Q 341.6 397.3 341 403.5 L 336.5 409 L 329.5 412 L 314.5 413 L 306.5 411 L 301 406.5 L 300 399.5 L 304.5 394 L 315.5 391 Z "/>
    <path fill="#9775fa" d="M 372.5 391 L 389.5 391 Q 395.3 392.3 398 396.5 L 399 403.5 L 397 408 L 387.5 412 L 367.5 412 Q 361.8 410.8 359 406.5 L 358 401.5 Q 359.4 395.4 364.5 393 L 372.5 391 Z "/>
    <path fill="#66d9e8" d="M 194.5 104 Q 211.6 101.4 218 109.5 L 219 117.5 L 214.5 123 L 201.5 126 L 191.5 126 L 182.5 123 L 179 119.5 L 178 114.5 L 183.5 107 L 194.5 104 Z M 195 106 L 186 108 L 181 111 L 180 114 L 181 120 L 184 122 L 191 124 L 202 124 L 215 121 L 217 118 L 217 112 L 215 108 Q 208 104 195 106 Z "/>
    <path fill="#66d9e8" d="M 133.5 105 L 148.5 105 Q 155 106.5 158 111.5 L 159 115.5 L 154.5 123 L 147.5 126 L 125.5 126 L 118 120.5 L 117 116.5 L 118 112.5 L 122.5 108 L 126.5 106 Q 132 107.5 133.5 105 Z M 132 107 L 123 110 L 119 116 L 120 121 L 132 125 L 149 124 L 153 122 Q 158 120 156 112 L 149 107 L 132 107 Z "/>
    <path fill="#66d9e8" d="M 252.5 106 L 270.5 106 L 279 111.5 L 280 119.5 L 278 123 L 268.5 127 L 248.5 127 Q 242.8 125.8 240 121.5 L 239 114.5 L 243.5 109 L 252.5 106 Z M 252 108 L 244 111 Q 240 113 241 121 L 248 125 L 251 125 L 254 126 L 270 125 L 277 122 L 278 120 L 277 111 L 272 108 L 252 108 Z "/>
    <path fill="#66d9e8" d="M 319.5 106 L 332.5 107 L 340 112.5 L 341 118.5 L 336.5 125 Q 327.1 130.1 310.5 128 Q 303.1 126.9 300 121.5 L 300 114.5 L 303 110 L 311.5 107 Q 317.8 108.8 319.5 106 Z M 317 108 L 306 111 Q 300 113 302 122 Q 305 126 314 126 L 317 127 L 329 126 L 338 122 L 339 119 L 337 111 Q 331 106 317 108 Z "/>
    <path fill="#66d9e8" d="M 375.5 106 L 388.5 106 L 397 110 L 399 113.5 L 399 120.5 L 389.5 127 L 371.5 128 L 363.5 126 L 359 121.5 L 358 115.5 L 361 110 L 368.5 107 Q 374 108.5 375.5 106 Z M 373 108 L 364 111 L 360 115 L 361 122 Q 368 128 384 126 L 386 126 L 391 125 L 396 122 L 398 119 L 397 114 L 390 108 L 373 108 Z "/>
    <path fill="#66d9e8" d="M 391.5 168 Q 396.6 167.4 398 170.5 Q 398.5 174.5 395.5 175 Q 389.4 176.3 390 173.5 L 389 171.5 L 391.5 168 Z "/>
    <path fill="#66d9e8" d="M 429.5 432 L 436 436.5 L 437 441.5 L 434 448 L 430.5 450 L 423.5 450 Q 418.3 448.3 420 439.5 L 424.5 434 L 429.5 432 Z "/>
  </g>
  <g id="line">
    <path fill="#1a1a1a" d="M 215.5 37 L 314.5 37 L 315.5 38 L 391.5 39 L 392.5 40 L 433.5 42 Q 444.5 44 450 51.5 L 453 56.5 L 455 65.5 L 456 91.5 L 457 92.5 L 457 109.5 L 458 110.5 L 458 128.5 L 459 129.5 L 460 203.5 L 461 204.5 L 461 263.5 L 462 264.5 L 462 333.5 L 461 337.5 L 462 340.5 L 461 341.5 L 461 379.5 L 460 380.5 L 459 440.5 L 456 455.5 L 447.5 466 L 435.5 471 L 394.5 473 L 393.5 474 L 306.5 475 L 305.5 476 L 186.5 476 L 185.5 475 L 130.5 475 L 129.5 474 L 83.5 473 L 72.5 471 L 63 463.5 L 59 454.5 L 59 444.5 L 58 443.5 L 57 409.5 L 56 408.5 L 56 383.5 L 55 382.5 L 55 362.5 L 54 361.5 L 53 288.5 L 52 287.5 L 52 145.5 L 53 144.5 L 53 105.5 L 54 104.5 L 55 68.5 L 57 59.5 L 63.5 50 L 71.5 45 L 85.5 42 L 119.5 41 L 120.5 40 L 136.5 40 L 137.5 39 L 214.5 38 L 215.5 37 Z M 220 44 L 219 45 L 171 45 L 170 46 L 144 46 L 143 47 L 124 47 L 123 48 L 102 48 L 101 49 L 82 50 L 71 54 L 64 62 L 62 71 L 61 108 L 60 109 L 60 150 L 59 151 L 59 279 L 60 280 L 61 359 L 62 360 L 63 406 L 64 407 L 64 426 L 65 427 L 66 453 L 70 461 L 78 465 L 100 466 L 101 467 L 192 468 L 193 469 L 360 468 L 361 467 L 388 467 L 389 466 L 426 465 L 427 464 L 435 464 L 443 461 L 449 454 L 452 437 L 453 374 L 454 373 L 454 313 L 455 312 L 454 310 Q 453 305 455 304 L 455 294 L 454 293 L 454 213 L 453 212 L 452 132 L 451 131 L 451 114 L 450 113 L 449 77 L 448 76 L 447 62 L 444 56 Q 441 51 436 50 L 422 49 L 421 48 L 404 48 L 403 47 L 357 46 L 356 45 L 306 45 L 305 44 L 220 44 Z "/>
    <path fill="#1a1a1a" d="M 88.5 59 Q 94.9 59.1 97 63.5 L 97 72.5 L 93 82.5 L 90.5 85 Q 76.8 85.7 72 77.5 L 71 69.5 L 73.5 66 Q 79.8 64.3 81.5 67 L 86 60 L 88.5 59 Z M 90 62 L 84 71 L 79 68 Q 74 67 73 72 L 75 77 L 84 82 L 90 82 L 95 71 L 94 65 Q 94 61 90 62 Z "/>
    <path fill="#1a1a1a" d="M 211.5 75 L 311.5 75 L 312.5 76 L 344.5 76 L 345.5 77 L 368.5 77 L 369.5 78 L 397.5 78 L 408.5 81 L 414 86.5 L 417 97.5 L 417 115.5 L 418 116.5 L 418 128.5 L 419 129.5 L 419 157.5 L 420 158.5 L 421 236.5 L 422 237.5 L 422 340.5 L 421 341.5 L 421 383.5 L 420 384.5 L 419 417.5 Q 416.6 427.1 409.5 432 L 399.5 435 L 380.5 435 L 379.5 436 L 360.5 436 L 359.5 437 L 331.5 437 L 330.5 438 L 173.5 438 L 172.5 437 L 147.5 437 L 146.5 436 L 110.5 435 L 102 430.5 L 99 424.5 Q 100.5 419 98 417.5 L 98 398.5 L 97 397.5 L 97 382.5 L 96 381.5 L 96 350.5 L 95 349.5 L 95 319.5 L 94 318.5 L 94 284.5 L 93 283.5 L 93 281.5 L 93 180.5 L 94 179.5 L 94 144.5 L 95 143.5 L 95 125.5 L 96 124.5 L 96 100.5 L 99 88.5 L 102 84 L 109.5 80 L 120.5 78 L 173.5 77 L 174.5 76 L 210.5 76 L 211.5 75 Z M 225 82 L 224 83 L 202 83 L 202 98 L 204 99 L 213 100 L 219 103 L 224 111 Q 225 119 222 123 Q 216 131 202 130 L 202 154 L 204 155 L 235 155 L 236 154 L 255 154 L 255 134 L 254 132 L 249 132 L 241 129 L 234 121 Q 233 113 236 110 L 243 104 L 253 101 L 255 101 L 255 84 L 254 82 L 225 82 Z M 264 82 L 262 84 L 262 100 L 274 102 L 280 105 L 285 113 Q 287 122 282 126 L 276 130 L 264 132 L 262 134 L 262 154 L 315 154 L 316 153 L 316 135 L 315 133 L 310 133 L 302 130 L 295 122 Q 294 113 297 110 Q 303 103 315 102 L 316 101 L 316 85 L 315 83 L 299 83 L 298 82 L 264 82 Z M 189 83 L 188 84 L 153 84 L 152 85 L 141 85 L 141 99 L 143 100 L 149 100 L 157 103 L 163 111 Q 165 120 161 124 Q 155 131 141 131 L 140 135 L 140 137 Q 142 144 141 155 L 143 156 L 145 155 L 194 155 L 194 131 Q 192 129 186 130 L 180 127 Q 175 124 173 118 Q 172 111 175 109 L 181 103 L 194 99 L 194 83 L 189 83 Z M 325 83 L 323 85 L 323 101 L 333 102 L 340 105 L 346 114 Q 347 121 344 125 L 338 130 L 328 133 Q 323 132 323 134 L 323 154 L 374 154 L 374 133 L 361 130 Q 355 127 353 120 L 355 111 Q 359 102 373 102 L 374 101 L 374 85 L 365 85 L 364 84 L 325 83 Z M 127 85 L 126 86 L 116 86 L 110 88 Q 105 91 104 98 L 103 126 L 102 127 L 102 156 L 133 156 L 133 131 L 123 130 L 118 127 L 115 125 L 112 117 L 114 110 L 120 104 L 133 100 L 133 85 L 127 85 Z M 383 85 L 381 87 L 381 100 L 383 101 L 393 102 L 399 105 L 404 112 Q 406 120 403 124 L 396 130 L 384 133 L 381 134 L 381 153 L 383 154 L 412 154 L 411 121 L 410 120 L 410 103 L 407 90 L 402 86 L 383 85 Z M 195 104 L 184 107 L 178 115 L 179 120 L 183 123 L 192 126 L 202 126 L 215 123 L 219 118 L 218 110 Q 212 101 195 104 Z M 134 105 Q 132 108 127 106 L 123 108 L 118 113 L 117 117 L 118 121 L 126 126 L 148 126 L 155 123 L 159 116 L 158 112 Q 155 107 149 105 L 134 105 Z M 253 106 L 244 109 L 239 115 L 240 122 Q 243 126 249 127 L 269 127 L 278 123 L 280 120 L 279 112 L 271 106 L 253 106 Z M 320 106 Q 318 109 312 107 L 303 110 L 300 115 L 300 122 Q 303 127 311 128 Q 327 130 337 125 L 341 119 L 340 113 L 333 107 L 320 106 Z M 376 106 Q 374 109 369 107 L 361 110 L 358 116 L 359 122 L 364 126 L 372 128 L 390 127 L 399 121 L 399 114 L 397 110 L 389 106 L 376 106 Z M 246 161 L 245 162 L 103 163 L 101 165 L 101 184 L 268 183 L 269 182 L 411 182 L 412 181 L 413 181 L 413 163 L 412 161 L 246 161 Z M 299 189 L 298 190 L 264 190 L 262 192 L 262 202 L 264 203 L 272 203 L 279 206 L 285 214 L 285 223 L 282 228 L 276 232 L 270 234 L 264 234 L 262 236 L 262 251 L 272 252 L 279 255 L 285 263 Q 287 271 283 275 Q 278 283 264 283 L 262 285 L 262 302 L 264 303 L 271 303 L 279 306 L 285 314 Q 287 322 283 326 L 275 332 L 264 334 L 262 336 Q 261 343 263 346 Q 273 345 279 349 L 285 358 L 285 366 L 282 371 Q 276 376 264 377 Q 261 378 262 384 L 264 385 L 273 386 L 282 391 L 285 398 Q 286 405 283 409 L 277 414 L 266 417 L 262 418 L 262 430 L 264 431 L 315 431 L 316 430 L 316 419 L 315 417 Q 306 418 302 414 L 295 407 Q 294 398 297 395 L 302 390 L 313 386 L 316 386 L 316 337 L 315 335 L 306 334 L 302 332 L 295 324 Q 294 316 297 313 L 303 307 L 313 304 L 316 304 L 316 286 L 315 284 L 310 284 L 302 281 Q 296 278 294 271 L 296 263 Q 301 254 315 253 L 316 252 L 316 237 L 315 235 L 305 234 L 300 231 L 294 222 Q 294 215 297 213 L 306 206 L 316 204 L 316 191 L 315 190 L 313 190 L 311 189 L 299 189 Z M 325 189 L 323 191 L 323 203 L 335 205 L 341 208 L 346 216 Q 347 223 344 227 Q 339 235 325 235 L 323 237 L 323 252 L 336 254 L 340 256 L 346 265 Q 347 272 344 276 Q 340 281 334 283 L 325 284 L 323 286 L 323 303 L 333 304 L 340 307 L 346 316 Q 347 323 344 327 L 340 331 L 328 335 Q 323 334 323 336 L 323 385 Q 325 387 332 386 L 341 390 L 346 398 L 346 405 L 343 411 Q 338 415 330 417 L 323 417 L 323 430 L 355 430 L 356 429 L 374 429 L 374 417 L 368 417 L 359 413 Q 354 410 353 404 L 356 394 L 362 389 L 371 386 L 374 386 L 374 335 L 365 334 L 360 331 Q 357 332 358 329 L 356 329 L 353 323 Q 352 316 355 313 L 360 308 L 370 304 Q 374 304 374 304 L 374 235 L 364 234 L 359 231 Q 354 228 353 223 Q 352 216 355 213 Q 361 204 374 204 L 374 190 L 374 189 L 325 189 Z M 383 189 L 381 191 L 381 202 L 383 203 L 397 206 L 401 209 L 404 215 Q 406 224 402 228 Q 396 235 383 235 L 381 237 L 381 302 L 383 303 Q 392 303 399 307 L 404 314 Q 406 323 402 328 Q 395 334 383 335 L 381 337 L 381 384 L 385 386 L 391 386 L 398 389 L 404 397 Q 406 406 402 410 L 392 416 L 383 417 L 381 419 L 381 428 Q 397 430 407 425 L 411 418 L 412 403 L 413 402 L 414 326 L 415 325 L 415 259 L 415 257 L 414 255 L 414 207 L 413 206 L 413 189 L 383 189 Z M 209 190 L 208 191 L 202 191 L 202 200 Q 213 200 220 205 L 224 212 Q 226 220 222 224 Q 217 232 204 231 L 202 233 L 202 300 L 212 301 L 221 306 L 224 312 Q 226 320 222 324 L 216 329 L 204 332 L 202 333 L 202 383 L 217 386 L 221 389 L 224 395 Q 226 402 223 406 L 218 411 L 205 415 L 202 416 L 202 431 L 255 431 L 255 431 L 255 417 Q 244 417 238 411 L 234 405 L 234 399 L 237 392 L 250 386 L 255 386 L 255 379 L 254 377 L 248 377 L 241 374 Q 236 371 234 365 Q 233 358 236 355 L 241 350 L 252 346 L 255 346 L 255 334 L 249 334 L 241 331 L 234 323 Q 233 315 236 312 L 241 307 L 253 303 L 255 303 L 255 283 Q 246 284 241 280 L 234 272 Q 233 264 236 261 L 241 256 L 251 252 Q 255 252 255 252 L 255 234 Q 246 235 241 231 L 234 223 Q 233 215 236 212 L 245 205 L 255 203 L 255 191 L 255 190 L 209 190 Z M 101 191 L 100 197 L 100 277 L 101 278 L 102 349 L 103 350 L 104 395 L 105 396 L 105 409 L 106 410 L 106 423 L 107 425 L 112 428 L 126 428 L 127 429 L 133 429 L 134 427 L 133 416 Q 124 416 119 412 L 113 405 L 114 394 Q 118 385 132 385 L 133 384 L 133 371 L 134 370 L 133 333 L 124 332 L 117 328 L 113 323 L 112 318 L 115 310 L 123 304 L 131 302 L 133 302 L 133 284 L 132 282 L 127 282 L 118 278 L 113 272 Q 112 263 115 259 Q 120 253 130 251 L 133 251 L 133 233 L 129 233 L 120 230 L 113 223 L 114 211 Q 118 205 125 203 L 133 202 L 133 191 L 101 191 Z M 141 191 L 141 201 L 151 202 L 159 206 L 161 209 L 164 217 Q 163 223 160 227 L 153 231 L 144 233 L 141 234 L 141 250 L 143 251 L 149 251 L 157 254 Q 163 257 164 266 L 161 275 L 154 280 L 148 282 L 143 282 L 140 285 L 141 286 L 141 301 L 153 303 L 160 307 L 164 317 L 161 326 L 154 331 L 145 333 L 141 334 L 141 383 L 143 384 Q 152 384 158 388 L 163 395 Q 165 404 161 408 Q 156 415 143 415 L 141 417 L 141 429 L 149 429 L 150 430 L 194 431 L 195 417 L 194 415 L 185 414 L 179 411 Q 174 407 173 401 L 175 393 Q 179 387 186 385 L 194 384 L 194 359 L 195 358 L 195 349 L 194 348 L 194 336 L 195 334 L 194 332 Q 184 332 179 328 L 173 320 L 173 315 L 175 310 Q 181 301 194 301 L 194 236 L 195 234 L 191 231 Q 184 232 181 229 L 173 220 Q 172 213 175 210 L 181 204 L 189 201 L 193 201 L 194 200 L 194 192 L 194 191 L 141 191 Z M 197 205 L 183 209 L 178 216 L 180 223 L 190 227 Q 206 229 215 224 L 219 219 L 218 212 Q 212 203 197 205 Z M 138 206 L 124 209 L 119 212 L 117 218 L 118 222 Q 121 227 129 228 L 144 228 Q 145 226 150 227 L 156 224 L 158 221 L 158 214 L 156 210 L 150 207 L 138 206 Z M 255 208 L 246 210 L 243 212 L 239 218 L 240 224 L 246 228 L 254 230 L 262 230 L 275 227 L 280 221 L 279 214 Q 272 206 255 208 Z M 315 209 L 305 212 L 300 218 L 301 225 L 309 230 L 318 230 L 319 231 Q 322 229 330 230 L 337 227 L 341 222 Q 342 215 339 213 Q 331 207 315 209 Z M 372 209 L 362 213 L 358 220 L 360 226 L 369 230 L 388 230 L 395 227 L 399 222 L 398 215 L 390 209 L 372 209 Z M 130 256 L 123 259 Q 116 261 118 271 L 125 276 L 134 278 L 151 276 L 156 273 L 158 270 L 157 262 L 154 258 L 149 256 L 130 256 Z M 258 256 L 244 260 L 239 267 L 240 273 Q 243 277 250 278 Q 266 280 276 275 L 280 270 L 279 263 Q 273 255 258 256 Z M 314 258 L 305 261 L 300 267 L 301 274 Q 304 278 311 279 L 329 279 L 337 276 L 341 271 L 340 264 L 332 258 L 314 258 Z M 198 305 L 183 309 L 178 317 L 179 321 L 184 325 L 192 327 L 204 327 L 216 323 L 219 319 L 218 312 Q 215 307 210 306 L 198 305 Z M 132 307 L 123 310 Q 116 312 118 322 Q 121 326 128 328 Q 144 330 154 325 L 159 318 L 157 313 Q 154 308 149 307 L 132 307 Z M 256 308 L 243 312 L 239 319 L 240 324 L 246 328 L 251 329 Q 267 331 276 326 L 280 320 L 279 314 Q 272 306 256 308 Z M 315 309 L 305 312 L 300 319 L 301 325 L 304 327 L 312 330 L 327 330 L 337 327 L 341 321 L 339 313 L 331 309 L 315 309 Z M 373 309 L 361 313 L 359 317 L 359 324 L 364 328 L 372 330 L 385 330 L 395 327 Q 400 325 399 316 Q 396 311 390 309 L 373 309 Z M 253 351 L 246 353 L 241 356 L 239 361 L 240 367 L 248 372 Q 253 371 255 373 L 269 372 L 275 370 L 280 364 L 279 357 L 276 353 L 271 351 L 253 351 Z M 198 388 L 187 390 L 183 392 L 178 399 L 179 404 Q 182 409 190 410 L 205 410 L 215 407 Q 220 405 219 396 L 211 389 L 198 388 Z M 135 389 L 123 392 Q 116 394 118 405 L 126 410 Q 131 409 133 411 L 149 410 L 154 408 L 159 401 L 156 393 Q 149 387 135 389 Z M 257 390 L 245 393 L 239 400 Q 238 405 241 408 L 251 412 L 265 412 L 274 410 L 277 408 L 280 404 L 279 397 Q 273 388 257 390 Z M 316 391 L 305 394 L 300 400 L 301 407 L 307 411 L 315 413 L 330 412 L 337 409 L 341 404 Q 342 397 339 395 Q 332 389 316 391 Z M 373 391 L 365 393 Q 359 395 358 402 L 359 407 Q 362 411 368 412 L 388 412 L 397 408 L 399 404 L 398 397 Q 395 392 390 391 L 373 391 Z "/>
    <path fill="#1a1a1a" d="M 391.5 164 L 395.5 164 L 399 166 L 401 169.5 L 401 173.5 Q 399.5 179.5 390.5 178 L 386 171.5 L 389.5 165 L 391.5 164 Z M 392 168 L 389 172 L 390 174 Q 389 176 396 175 Q 399 175 398 171 Q 397 167 392 168 Z "/>
    <path fill="#1a1a1a" d="M 425.5 430 Q 433.8 429 437 432 Q 439.7 435 440 441.5 L 436 450 L 430.5 453 L 422.5 453 L 419 451 Q 416 447.8 417 439.5 L 423.5 431 L 425.5 430 Z M 430 432 L 425 434 L 420 440 Q 418 448 424 450 L 431 450 L 434 448 L 437 442 L 436 437 L 430 432 Z "/>
  </g>
</svg>
