<svg xmlns="http://www.w3.org/2000/svg" width="512" height="512" viewBox="0 0 512 512">
  <g id="color">
    <path fill="#ffffff" d="M 264.5 91 L 269 91.5 Q 261.4 91.4 259 96.5 L 247.5 110 L 254 102.5 L 262.5 92 L 264.5 91 Z "/>
    <path fill="#ffffff" d="M 310.5 93 L 318.5 94 L 326 101.5 L 318.5 95 L 310.5 94 L 304.5 98 L 306.5 95 L 310.5 93 Z "/>
    <path fill="#ffffff" d="M 184.5 98 L 189 98.5 L 176.5 101 L 176.5 100 L 184.5 98 Z "/>
    <path fill="#ffffff" d="M 196.5 98 L 202 99.5 L 200.5 100 L 196.5 99 L 196.5 98 Z "/>
    <path fill="#ffffff" d="M 227.5 99 L 231 100.5 L 229.5 100 Q 226.5 100.5 227.5 99 Z "/>
    <path fill="#ffffff" d="M 203.5 100 L 210 105.5 L 205.5 102 L 203.5 100 Z "/>
    <path fill="#ffffff" d="M 350.5 101 L 349.5 103 L 346.5 104 L 346.5 103 L 350.5 101 Z "/>
    <path fill="#ffffff" d="M 326.5 103 L 332.5 109 L 334.5 109 L 336.5 108 L 336.5 109 L 332.5 110 L 326.5 103 Z "/>
    <path fill="#ffffff" d="M 284.5 104 L 289.5 106 L 291.5 105 L 291.5 106 L 287.5 107 L 284.5 104 Z "/>
    <path fill="#ffffff" d="M 344.5 104 L 343.5 106 L 340.5 107 L 340.5 106 L 344.5 104 Z "/>
    <path fill="#ffffff" d="M 125.5 113 L 123.5 116 L 118.5 120 L 122.5 115 L 125.5 113 Z "/>
    <path fill="#ffffff" d="M 385.5 114 L 384.5 116 L 378.5 119 L 379.5 117 L 385.5 114 Z "/>
    <path fill="#ffffff" d="M 401.5 119 Q 404 124.5 406.5 120 L 408 120.5 L 404.5 123 L 401.5 119 Z "/>
    <path fill="#ffffff" d="M 409.5 119 L 416 119.5 L 409.5 120 L 409.5 119 Z "/>
    <path fill="#ffffff" d="M 418.5 120 L 426 122.5 L 424.5 123 L 418.5 121 L 418.5 120 Z "/>
    <path fill="#ffffff" d="M 430.5 124 L 434 125.5 L 432.5 126 L 430.5 124 Z "/>
    <path fill="#ffffff" d="M 435.5 126 L 439 127.5 L 437.5 128 L 435.5 126 Z "/>
    <path fill="#ffffff" d="M 107.5 128 L 112 128.5 L 107.5 129 L 107.5 128 Z "/>
    <path fill="#ffffff" d="M 82.5 133 L 85 133.5 L 79.5 135 L 79.5 134 L 82.5 133 Z "/>
    <path fill="#ffffff" d="M 70.5 136 L 73 136.5 L 67.5 138 L 67.5 137 L 70.5 136 Z "/>
    <path fill="#ffffff" d="M 451.5 137 L 454 141.5 L 453 141.5 L 451.5 137 Z "/>
    <path fill="#ffffff" d="M 52.5 142 L 54 142.5 L 49.5 145 L 50.5 143 L 52.5 142 Z "/>
    <path fill="#ffffff" d="M 47.5 145 L 46.5 147 L 40.5 152 L 45.5 146 L 47.5 145 Z "/>
    <path fill="#ffffff" d="M 112.5 148 L 114 149.5 L 115 157.5 L 111.5 160 L 102.5 161 L 95.5 164 L 81.5 167 L 77 170.5 Q 78.5 177.5 75.5 177 L 56 183 L 54 167.5 L 56 162 L 60.5 160 L 73.5 158 L 81.5 155 L 86.5 155 L 112.5 148 Z "/>
    <path fill="#ffffff" d="M 455.5 149 L 456 153.5 L 455 153.5 L 455.5 149 Z "/>
    <path fill="#ffffff" d="M 38.5 155 L 39 156.5 L 37.5 160 L 37 157.5 L 38.5 155 Z "/>
    <path fill="#ffffff" d="M 36.5 162 L 37 171.5 L 36 171.5 L 36.5 162 Z "/>
    <path fill="#ffffff" d="M 461.5 169 L 464 173.5 L 463 173.5 L 461.5 169 Z "/>
    <path fill="#ffffff" d="M 116.5 175 Q 119.1 174.2 118 177.5 L 121 191.5 L 116.5 194 L 105.5 196 L 90.5 201 L 82.5 202 L 61.5 209 L 59 204.5 L 59 199.5 L 56 186.5 L 57.5 185 L 70.5 183 L 77.5 180 Q 79.8 185.3 89.5 183 L 109.5 178 L 116.5 175 Z "/>
    <path fill="#ffffff" d="M 464.5 175 L 466 178.5 L 465 178.5 L 464.5 175 Z "/>
    <path fill="#ffffff" d="M 37.5 176 L 39 188.5 L 38 188.5 L 37.5 176 Z "/>
    <path fill="#ffffff" d="M 467.5 183 L 470 190.5 L 469 190.5 L 467.5 183 Z "/>
    <path fill="#ffffff" d="M 120.5 197 L 123 198.5 L 125 209.5 L 123.5 211 L 119.5 211 L 115.5 213 L 97.5 217 L 91.5 219 L 89 221.5 Q 90 226 87.5 227 L 73.5 230 L 66.5 233 L 64 228.5 L 61 212.5 L 62.5 211 L 81.5 208 L 89.5 205 L 109.5 201 L 120.5 197 Z "/>
    <path fill="#ffffff" d="M 40.5 198 L 42 206.5 L 41 206.5 L 40.5 198 Z "/>
    <path fill="#ffffff" d="M 444.5 205 L 446 206.5 L 447 220.5 L 448 221.5 L 448 251.5 L 441 287.5 L 433 310.5 L 419 335.5 L 403 355 L 399 357 L 415 306.5 L 417 303.5 L 417 299.5 L 423 283.5 L 424 276.5 L 429 262.5 L 444.5 205 Z "/>
    <path fill="#ffffff" d="M 474.5 212 L 476 225.5 L 475 225.5 L 474.5 212 Z "/>
    <path fill="#ffffff" d="M 126.5 226 Q 128.8 225.3 128 227.5 L 131 236.5 L 129.5 238 L 99.5 245 L 96 247.5 L 95 252 L 71.5 257 L 70 255.5 L 66 236.5 L 67.5 235 L 80.5 233 L 89.5 230 L 92 231 L 92.5 233 L 101.5 233 L 126.5 226 Z "/>
    <path fill="#ffffff" d="M 47.5 233 L 49 240.5 L 48 240.5 L 47.5 233 Z "/>
    <path fill="#ffffff" d="M 476.5 233 L 477 242.5 L 476 242.5 L 476.5 233 Z "/>
    <path fill="#ffffff" d="M 50.5 248 L 52 255.5 L 51 255.5 L 50.5 248 Z "/>
    <path fill="#ffffff" d="M 475.5 249 L 476 257.5 L 475 257.5 L 475.5 249 Z "/>
    <path fill="#ffffff" d="M 131.5 252 Q 135.3 250.8 134 254.5 L 136 262 L 120.5 265 L 117.5 267 L 113.5 267 L 104.5 270 L 100 273.5 Q 100.8 277.3 98.5 278 L 77 283 L 72 265.5 L 72 260 L 95.5 256 Q 97.8 261.3 107.5 259 L 121.5 255 L 125.5 255 L 131.5 252 Z "/>
    <path fill="#ffffff" d="M 474.5 259 L 475 264.5 L 474 264.5 L 474.5 259 Z "/>
    <path fill="#ffffff" d="M 53.5 262 L 55 269.5 L 54 269.5 L 53.5 262 Z "/>
    <path fill="#ffffff" d="M 472.5 274 L 473 277.5 L 471.5 282 L 471 278.5 L 472.5 274 Z "/>
    <path fill="#ffffff" d="M 56.5 277 L 58 284.5 L 57 284.5 L 56.5 277 Z "/>
    <path fill="#ffffff" d="M 138.5 277 L 140 278.5 L 143 290.5 L 131.5 295 L 126.5 295 L 100.5 302 L 96.5 302 L 83.5 307 L 81 303.5 L 81 298.5 L 78 290.5 L 78 286 L 102 282 Q 100.9 284.7 103.5 284 L 106.5 286 L 117.5 284 L 138.5 277 Z "/>
    <path fill="#ffffff" d="M 59.5 292 L 61 298.5 L 60 298.5 L 59.5 292 Z "/>
    <path fill="#ffffff" d="M 140.5 297 Q 144.3 296.3 145 298.5 L 147 309.5 L 145.5 311 L 126.5 315 Q 122.2 318.7 114.5 319 L 111 321.5 Q 111.8 325.3 109.5 326 L 101.5 327 L 88 331 L 84 315.5 L 84 310.5 L 85.5 309 L 108.5 305 L 112.5 303 L 123.5 302 L 140.5 297 Z "/>
    <path fill="#ffffff" d="M 465.5 301 L 466 303.5 L 464.5 306 L 464 304.5 L 465.5 301 Z "/>
    <path fill="#ffffff" d="M 66.5 323 L 68 330.5 L 67 330.5 L 66.5 323 Z "/>
    <path fill="#ffffff" d="M 149.5 325 L 152 326.5 L 154 337 L 93 352 L 89 334 L 106.5 330 L 111.5 330 Q 113.1 334.9 120.5 334 L 146.5 327 L 149.5 325 Z "/>
    <path fill="#ffffff" d="M 453.5 331 L 453 332.5 L 449.5 339 L 450 337.5 L 453.5 331 Z "/>
    <path fill="#ffffff" d="M 69.5 337 L 71 344.5 L 70 344.5 L 69.5 337 Z "/>
    <path fill="#ffffff" d="M 153.5 342 L 156 343.5 L 158 352 L 130.5 359 L 126.5 359 L 120 362.5 L 117.5 369 L 99.5 374 L 97 370.5 Q 97.1 361.9 94 356.5 L 99.5 354 L 113.5 352 L 153.5 342 Z "/>
    <path fill="#ffffff" d="M 447.5 342 L 447 343.5 L 445.5 346 L 446 344.5 L 447.5 342 Z "/>
    <path fill="#ffffff" d="M 72.5 351 L 74 357.5 L 73 357.5 L 72.5 351 Z "/>
    <path fill="#ffffff" d="M 439.5 354 L 438 356.5 L 433.5 362 L 437 357.5 L 439.5 354 Z "/>
    <path fill="#ffffff" d="M 75.5 364 L 77 370.5 L 76 370.5 L 75.5 364 Z "/>
    <path fill="#ffffff" d="M 159.5 368 Q 163.3 367.3 164 369.5 L 167 384 L 140.5 389 L 115.5 396 L 107.5 396 L 103 390.5 L 99 377 L 120.5 373 Q 122.7 377.3 130.5 376 L 159.5 368 Z "/>
    <path fill="#ffffff" d="M 421.5 374 L 416.5 380 L 410.5 384 L 411.5 382 L 421.5 374 Z "/>
    <path fill="#ffffff" d="M 78.5 377 L 80 383.5 L 79 383.5 L 78.5 377 Z "/>
    <path fill="#ffffff" d="M 292 381 L 294.5 381 L 303 389.5 L 294.5 382 L 291.5 384 L 292 382.5 L 292 381 Z "/>
    <path fill="#ffffff" d="M 290.5 385 L 285.5 391 L 281 390.5 Q 288.7 390.7 290.5 385 Z "/>
    <path fill="#ffffff" d="M 316.5 385 L 319 386.5 L 323 392.5 L 319 389.5 L 318 386 L 316.5 385 Z "/>
    <path fill="#ffffff" d="M 271.5 387 L 271 388.5 Q 272.1 394.6 269.5 397 L 269 395.5 Q 271.5 394 270 388.5 L 271.5 387 Z "/>
    <path fill="#ffffff" d="M 275.5 388 L 279 389.5 L 277.5 390 L 275.5 388 Z "/>
    <path fill="#ffffff" d="M 395.5 391 L 397 391.5 L 393.5 393 L 393.5 392 L 395.5 391 Z "/>
    <path fill="#ffffff" d="M 324.5 393 L 326 397.5 L 324 396.5 L 324.5 393 Z "/>
    <path fill="#ffffff" d="M 268.5 398 L 269 399.5 L 266 401.5 L 268.5 398 Z "/>
    <path fill="#ffffff" d="M 327.5 399 L 331 401.5 L 329.5 402 L 327.5 399 Z "/>
    <path fill="#ffffff" d="M 384.5 399 L 384 400.5 L 377.5 408 L 376 407.5 L 383 401.5 L 384.5 399 Z "/>
    <path fill="#ffffff" d="M 84.5 402 L 86 405.5 L 85 405.5 L 84.5 402 Z "/>
    <path fill="#ffffff" d="M 334.5 403 L 339 404.5 L 336.5 405 L 334.5 403 Z "/>
    <path fill="#ffffff" d="M 262.5 405 L 261.5 407 L 256.5 409 L 256.5 408 L 262.5 405 Z "/>
    <path fill="#ffffff" d="M 344.5 406 L 351 407.5 L 347.5 408 L 344.5 407 L 344.5 406 Z "/>
    <path fill="#ffffff" d="M 176.5 407 Q 180.5 406.5 181 409.5 L 178.5 408 Q 175.5 408.5 176.5 407 Z "/>
    <path fill="#ffffff" d="M 358.5 409 L 364 409.5 L 358.5 410 L 358.5 409 Z "/>
    <path fill="#ffffff" d="M 185.5 412 L 190 414.5 L 188.5 415 L 185.5 412 Z "/>
    <path fill="#ffffff" d="M 89.5 413 Q 93.1 418.9 101 420.5 L 98.5 421 Q 91.7 418.5 89.5 413 Z "/>
    <path fill="#ffffff" d="M 148.5 413 L 153 413.5 L 145.5 415 L 145.5 414 L 148.5 413 Z "/>
    <path fill="#ffffff" d="M 230.5 413 L 235 413.5 L 226.5 415 L 226.5 414 L 230.5 413 Z "/>
    <path fill="#ffffff" d="M 135.5 416 L 138 416.5 L 131.5 418 L 131.5 417 L 135.5 416 Z "/>
    <path fill="#ffffff" d="M 194.5 416 L 211 417.5 L 199.5 418 L 194.5 417 L 194.5 416 Z "/>
    <path fill="#ffffff" d="M 212.5 416 L 218 416.5 L 212.5 417 L 212.5 416 Z "/>
    <path fill="#ffffff" d="M 119.5 419 L 124 419.5 L 113.5 421 L 113.5 420 Q 118.2 421.3 119.5 419 Z "/>
    <path fill="#4da3ff" d="M 266.5 100 L 284 115.5 L 284 143.5 Q 281.5 145 283 150.5 L 284 152.5 L 283 153.5 L 283 162.5 L 284 163.5 L 284 244.5 L 285 245.5 L 285 276.5 L 286 277.5 L 288 353.5 L 289 354.5 L 288 356.5 L 289 357.5 L 289 374.5 L 285 377.5 L 282 351.5 L 281 350.5 L 281 343.5 L 280 342.5 L 280 335.5 L 278 330.5 L 277 316.5 L 275 311.5 L 274 298.5 L 271 284.5 L 271 276.5 L 269 270.5 L 269 260.5 L 268 259.5 L 268 248.5 L 267 247.5 L 265 218.5 L 262 205.5 L 262 198.5 L 258 179.5 L 258 173.5 L 256 167.5 L 256 160.5 L 253 146.5 L 253 138.5 L 250 125.5 L 250 117.5 L 260 108.5 L 266.5 100 Z "/>
    <path fill="#4da3ff" d="M 311.5 103 L 314.5 103 L 319 107.5 L 321 112 L 328 117.5 L 327 128.5 L 326 129.5 L 326 140.5 L 324 147.5 L 323 166.5 L 320 180.5 L 320 189.5 L 317 206.5 L 317 215.5 L 315 225.5 L 315 234.5 L 314 235.5 L 313 264.5 L 312 265.5 L 312 267.5 L 311 290.5 L 309 300.5 L 309 302.5 L 307 330.5 L 306 331.5 L 305 347.5 L 304 348.5 L 304 350.5 L 302 376 L 299 374.5 L 299 365.5 L 298 364.5 L 298 333.5 L 297 332.5 L 297 302.5 L 296 301.5 L 296 270.5 L 295 269.5 L 295 251.5 L 294 250.5 L 294 184.5 L 293 183.5 L 293 124.5 L 292 123.5 L 292 115.5 L 311.5 103 Z "/>
    <path fill="#4da3ff" d="M 225.5 106 L 237.5 116 L 242 118 L 248 174.5 L 250 180.5 L 251 192.5 L 254 204.5 L 255 220.5 L 257 227.5 L 257 239.5 L 259 250.5 L 261 281.5 L 263 287.5 L 267 320.5 L 270 332.5 L 276 380 L 271 380 L 271 377.5 L 269 373.5 L 267 359.5 L 259 326.5 L 259 321.5 L 257 317.5 L 256 307.5 L 254 302.5 L 254 300.5 L 245 255.5 L 245 250.5 L 236 210.5 L 236 205.5 L 234 201.5 L 233 190.5 L 228 173.5 L 227 163.5 L 224 154.5 L 221 135.5 L 219 131.5 L 216 116.5 L 218 113 Q 220.7 114.1 220 111.5 L 225.5 106 Z "/>
    <path fill="#4da3ff" d="M 355.5 109 L 360 110 Q 363 119.3 370 125.5 L 370 129.5 L 358 171.5 L 358 176.5 L 354 190.5 L 354 195.5 L 352 199.5 L 352 204.5 L 339 264.5 L 339 269.5 L 333 291.5 L 333 296.5 Q 329.4 303.8 329 314.5 L 326 322.5 L 323 340.5 L 321 344.5 L 316 375.5 L 314.5 377 L 312.5 378 L 312 371.5 L 313 370.5 L 313 362.5 L 315 352.5 L 316 331.5 L 318 323.5 L 319 300.5 L 320 299.5 L 321 278.5 L 322 277.5 L 322 261.5 L 323 260.5 L 323 250.5 L 324 249.5 L 325 223.5 L 326 222.5 L 328 195.5 L 329 194.5 L 331 170.5 L 333 161.5 L 333 153.5 L 334 152.5 L 336 118 L 338.5 118 L 355.5 109 Z "/>
    <path fill="#4da3ff" d="M 389.5 122 Q 394.3 121.3 395 124.5 L 400 130.5 L 400 133.5 L 396 143.5 L 395 151.5 L 393 154.5 L 392 161.5 L 384 185.5 L 380 202.5 L 378 205.5 L 377 212.5 L 366 245.5 L 364 256.5 L 360 266.5 L 354 287.5 L 354 291.5 L 349 305.5 L 348 313.5 L 326.5 382 L 325 378.5 L 327 374.5 L 327 369.5 L 331 353.5 L 331 347.5 L 334 338.5 L 341 302.5 L 343 298.5 L 344 288.5 L 349 270.5 L 356 235.5 L 356 230.5 L 366 185.5 L 366 180.5 L 374 151.5 L 378 128 L 389.5 122 Z "/>
    <path fill="#4da3ff" d="M 396.5 240 Q 400.3 239.3 401 241.5 L 399.5 245 L 395 242 Q 396.5 247.4 393.5 249 Q 391.3 249.8 392 247.5 L 396.5 240 Z "/>
    <path fill="#4da3ff" d="M 407.5 243 Q 409.8 243.8 409 247.5 L 406 245.5 L 407.5 243 Z "/>
    <path fill="#4da3ff" d="M 396.5 252 L 398 256 Q 395.3 257.1 396 254.5 Q 393.8 253.3 396.5 252 Z "/>
    <path fill="#4da3ff" d="M 391.5 255 L 393 258.5 L 390 260 Q 389 256.2 391.5 255 Z "/>
    <path fill="#4da3ff" d="M 399 260 Q 402.8 258.5 402 261.5 Q 404.3 262.8 401.5 264 L 399 260 Z "/>
    <path fill="#4da3ff" d="M 394.5 263 L 396 267.5 L 393 265.5 L 394.5 263 Z "/>
    <path fill="#4da3ff" d="M 213.5 266 L 217 268.5 L 217 272.5 L 220 281.5 L 220 289 L 217.5 290 L 211.5 285 Q 203 287 201 282.5 Q 200.4 277.4 203.5 276 L 212 272.5 Q 210.8 267.3 213.5 266 Z "/>
    <path fill="#4da3ff" d="M 388.5 267 L 390 271.5 L 387 269.5 L 388.5 267 Z "/>
    <path fill="#4da3ff" d="M 398.5 272 L 400 275.5 L 398 274.5 L 398.5 272 Z "/>
    <path fill="#4da3ff" d="M 386 280 Q 388.7 278.9 388 281.5 L 389 284 Q 386.3 285.1 387 282.5 L 386 280 Z "/>
    <path fill="#4da3ff" d="M 382.5 284 L 383 287.5 L 381 286.5 L 382.5 284 Z "/>
    <path fill="#4da3ff" d="M 379 293 Q 381.7 291.9 381 294.5 L 382 299 L 379 297.5 L 379 293 Z "/>
    <path fill="#ffd43b" d="M 193.5 106 L 198.5 107 L 203 110.5 L 206 115.5 L 211 134.5 L 212 144.5 L 225 199.5 L 225 204.5 L 227 209.5 L 228 219.5 L 235 249.5 L 238 270.5 L 243 290.5 L 244 301.5 L 250 326.5 L 250 331.5 L 253 340.5 L 253 345.5 L 256 354.5 L 256 359.5 L 259 368.5 L 259 372.5 L 262 380.5 L 262 393.5 L 257.5 399 L 251.5 402 L 225.5 406 L 220.5 408 L 198.5 409 Q 186.6 406.4 181 397.5 L 176 386.5 L 175 377.5 L 169 360.5 L 168 353.5 L 166 350.5 L 165 342.5 L 160 328.5 L 159 320.5 L 149 283.5 L 149 279.5 L 147 275.5 L 144 257.5 L 141 248.5 L 140 239.5 L 132 206.5 L 130 192.5 L 128 187.5 L 127 177.5 L 125 172.5 L 125 167.5 L 121 149.5 L 120 136.5 Q 121.9 124.9 130.5 120 L 135.5 117 L 146.5 114 L 157.5 113 L 183.5 107 L 192.5 107 L 193.5 106 Z M 203 212 L 201 213 Q 196 214 197 220 L 193 220 L 185 224 L 183 229 L 184 237 Q 187 241 194 241 L 197 247 L 200 249 L 206 251 L 212 249 L 216 244 L 216 238 L 210 217 Q 208 212 203 212 Z M 212 261 Q 207 264 207 270 L 201 272 L 196 278 L 197 287 L 201 290 L 210 291 L 215 295 Q 222 296 225 293 L 226 291 L 226 283 L 220 264 Q 219 260 212 261 Z "/>
    <path fill="#ffd43b" d="M 411.5 126 L 431.5 133 Q 439.9 136.1 445 142.5 Q 448 146.5 447 154.5 L 441 184.5 L 439 188.5 L 438 197.5 L 413 287.5 L 379 391.5 L 372.5 400 L 370.5 401 L 357.5 401 L 335.5 396 L 332 393.5 L 338 379.5 L 354 327.5 L 368 273.5 L 376 249.5 L 376 245.5 L 382 229.5 L 385 215.5 L 398 174.5 L 398 170.5 L 404 151.5 L 409 128.5 L 411.5 126 Z M 397 235 L 394 236 Q 389 239 388 245 L 379 278 L 375 288 L 374 300 Q 377 305 385 306 Q 392 307 396 303 L 402 294 L 414 254 L 414 243 L 413 241 Q 408 235 397 235 Z "/>
    <path fill="#ffd43b" d="M 110.5 134 L 113 135.5 Q 113.7 141.6 112 144 L 103.5 145 L 74.5 153 L 65.5 154 L 56.5 157 L 52 160.5 Q 48.4 165.9 50 176.5 L 61 237.5 L 64 245.5 L 64 250.5 L 67 259.5 L 71 282.5 L 73 286.5 L 80 320.5 L 83 328.5 L 87 350.5 L 93 371.5 L 93 376.5 L 96 384.5 L 96 388.5 L 102.5 399 Q 106.8 402.7 116.5 401 L 142.5 394 L 169 389 L 174 402 L 163.5 405 L 155.5 405 Q 147.2 408.7 135.5 409 L 131.5 411 L 119.5 412 L 113.5 414 L 102.5 414 L 96 410.5 L 91 400.5 L 87 381.5 L 85 377.5 L 83 363.5 L 81 359.5 L 80 350.5 L 75 333.5 L 75 327.5 L 71 314.5 L 65 282.5 L 63 278.5 L 62 268.5 L 56 244.5 L 56 239.5 L 47 201.5 L 46 189.5 L 44 183.5 L 44 175.5 L 43 174.5 L 43 160.5 Q 44.6 153.6 50.5 151 L 70.5 143 L 105.5 136 L 110.5 134 Z "/>
    <path fill="#ffd43b" d="M 452 169 Q 454.7 167.9 454 170.5 L 461 188.5 L 466 210.5 L 467 228.5 L 468 229.5 L 468 246.5 L 467 247.5 L 467 258.5 L 463 280.5 L 453 312.5 L 438 341.5 Q 429 356.5 416.5 368 Q 405.1 379.5 390 386 L 392 375.5 L 395.5 369 L 411 357.5 Q 410.3 355.3 412.5 356 L 431 332.5 L 445 302.5 L 455 261.5 L 456 225.5 L 455 224.5 L 454 208.5 L 448 186.5 L 451 178.5 L 452 169 Z "/>
    <path fill="#ff6b6b" d="M 201 216 L 207 218.5 L 208 223.5 Q 205.5 225 209 226.5 Q 208.4 232.6 211 235.5 L 211 243.5 L 208.5 246 L 206.5 246 Q 202.1 247.5 203 244.5 L 201 244.5 L 196.5 237 Q 190.3 237.7 188 234.5 Q 189.3 229.7 187 228.5 L 192.5 224 Q 198.5 225.5 200 222.5 L 201 216 Z "/>
    <path fill="#66d9e8" d="M 266.5 98 L 275 105.5 Q 274.3 107.8 276.5 107 L 285 113 L 286 115.5 L 285 116.5 L 285 208.5 L 286 209.5 L 286 258.5 L 287 259.5 L 287 288.5 L 288 289.5 L 288 314.5 L 289 315.5 L 290 375.5 L 285.5 381 Q 282.5 381.9 284 377.5 L 282 370.5 L 281 353.5 L 276 327.5 L 275 313.5 L 270 289.5 L 263 215.5 L 254 164.5 L 253 149.5 L 252 148.5 L 248 117.5 L 259 107.5 L 266.5 98 Z M 267 100 L 260 109 L 250 118 L 250 126 L 253 139 L 253 147 L 256 161 L 256 168 L 258 174 L 258 180 L 262 199 L 262 206 L 265 219 L 267 248 L 268 249 L 268 260 L 269 261 L 269 271 L 271 277 L 271 285 L 274 299 L 275 312 L 277 317 L 278 331 L 280 336 L 280 343 L 281 344 L 281 351 L 282 352 L 285 378 L 289 375 L 289 358 L 288 357 L 289 355 L 288 354 L 286 278 L 285 277 L 285 246 L 284 245 L 284 164 L 283 163 L 283 154 L 284 153 L 283 151 Q 282 145 284 144 L 284 116 L 267 100 Z "/>
    <path fill="#66d9e8" d="M 312.5 101 L 314.5 101 L 319 105.5 L 322 111 L 325 112.5 Q 324.3 114.8 326.5 114 L 329 116.5 L 329 126.5 L 328 127.5 L 327 144.5 L 325 153.5 L 325 162.5 L 322 176.5 L 321 193.5 L 319 201.5 L 319 211.5 L 318 212.5 L 318 220.5 L 316 230.5 L 315 257.5 L 314 258.5 L 314 268.5 L 313 269.5 L 312 294.5 L 310 304.5 L 309 326.5 L 307 334.5 L 307 343.5 L 306 344.5 L 306 353.5 L 305 354.5 L 304 374.5 L 303 379 L 297 374.5 L 297 337.5 L 296 336.5 L 296 314.5 L 295 313.5 L 294 258.5 L 293 257.5 L 293 215.5 L 292 214.5 L 291 114.5 L 312.5 101 Z M 312 103 L 292 116 L 292 124 L 293 125 L 293 184 L 294 185 L 294 251 L 295 252 L 295 270 L 296 271 L 296 302 L 297 303 L 297 333 L 298 334 L 298 365 L 299 366 L 299 375 L 302 376 L 304 351 L 304 349 L 305 348 L 306 332 L 307 331 L 309 303 L 309 301 L 311 291 L 312 268 L 312 266 L 313 265 L 314 236 L 315 235 L 315 226 L 317 216 L 317 207 L 320 190 L 320 181 L 323 167 L 324 148 L 326 141 L 326 130 L 327 129 L 328 118 L 321 112 L 319 108 L 315 103 L 312 103 Z "/>
    <path fill="#66d9e8" d="M 224.5 105 L 229.5 107 L 238.5 115 L 244 117 L 244 127.5 L 246 135.5 L 246 146.5 L 247 147.5 L 248 162.5 L 249 163.5 L 250 177.5 L 252 183.5 L 253 196.5 L 255 202.5 L 257 223.5 L 258 224.5 L 262 276.5 L 263 277.5 L 265 297.5 L 269 317.5 L 269 323.5 L 272 335.5 L 273 350.5 L 274 351.5 L 274 357.5 L 278 382 Q 270.9 383.8 269 379.5 L 266 361.5 L 264 357.5 L 256 315.5 L 254 310.5 L 253 299.5 L 248 279.5 L 248 274.5 L 244 258.5 L 244 252.5 L 241 243.5 L 241 238.5 L 238 228.5 L 238 223.5 L 235 213.5 L 231 188.5 L 223 157.5 L 222 147.5 L 216 125.5 L 215 115.5 L 224.5 105 Z M 226 106 L 220 112 Q 221 114 218 113 L 216 117 L 219 132 L 221 136 L 224 155 L 227 164 L 228 174 L 233 191 L 234 202 L 236 206 L 236 211 L 245 251 L 245 256 L 254 301 L 254 303 L 256 308 L 257 318 L 259 322 L 259 327 L 267 360 L 269 374 L 271 378 L 271 380 L 276 380 L 270 333 L 267 321 L 263 288 L 261 282 L 259 251 L 257 240 L 257 228 L 255 221 L 254 205 L 251 193 L 250 181 L 248 175 L 242 118 L 238 116 L 226 106 Z "/>
    <path fill="#66d9e8" d="M 356.5 107 L 360 108 L 372 127.5 L 359 174.5 L 340 271.5 L 322 347.5 L 318 373.5 L 314.5 379 L 311.5 380 L 310 376.5 L 311 375.5 L 311 365.5 L 313 358.5 L 313 346.5 L 314 345.5 L 314 336.5 L 315 335.5 L 318 297.5 L 319 296.5 L 320 268.5 L 321 267.5 L 322 242.5 L 323 241.5 L 323 229.5 L 324 228.5 L 326 199.5 L 327 198.5 L 330 165.5 L 332 157.5 L 335 117.5 L 336.5 116 L 356.5 107 Z M 356 109 L 339 118 L 336 118 L 334 153 L 333 154 L 333 162 L 331 171 L 329 195 L 328 196 L 326 223 L 325 224 L 324 250 L 323 251 L 323 261 L 322 262 L 322 278 L 321 279 L 320 300 L 319 301 L 318 324 L 316 332 L 315 353 L 313 363 L 313 371 L 312 372 L 313 378 L 315 377 L 316 376 L 321 345 L 323 341 L 326 323 L 329 315 Q 329 304 333 297 L 333 292 L 339 270 L 339 265 L 352 205 L 352 200 L 354 196 L 354 191 L 358 177 L 358 172 L 370 130 L 370 126 Q 363 119 360 110 L 356 109 Z "/>
    <path fill="#66d9e8" d="M 389.5 120 Q 394.3 119.3 395 122.5 L 402 130.5 L 402 132.5 L 398 142.5 L 384 194.5 L 382 197.5 L 381 204.5 L 379 207.5 L 375 224.5 L 373 227.5 L 372 234.5 L 367 247.5 L 347 322.5 L 341 338.5 L 328 385 L 324 382.5 L 323 379.5 L 326 371.5 L 330 345.5 L 350 258.5 L 350 253.5 L 354 238.5 L 355 227.5 L 357 222.5 L 361 197.5 L 377 127 L 389.5 120 Z M 390 122 L 378 128 L 374 152 L 366 181 L 366 186 L 356 231 L 356 236 L 349 271 L 344 289 L 343 299 L 341 303 L 334 339 L 331 348 L 331 354 L 327 370 L 327 375 L 325 379 L 327 382 L 348 314 L 349 306 L 354 292 L 354 288 L 360 267 L 364 257 L 366 246 L 377 213 L 378 206 L 380 203 L 384 186 L 392 162 L 393 155 L 395 152 L 396 144 L 400 134 L 400 131 L 395 125 Q 394 121 390 122 Z "/>
    <path fill="#66d9e8" d="M 395.5 239 Q 406.3 237.7 410 243.5 L 411 248.5 L 410 251 L 407 249.5 Q 404.2 247.5 405 243 L 398.5 246 L 396 244.5 L 397 247.5 Q 396.5 251.5 391.5 251 Q 388.8 249.8 391 248.5 Q 390.8 241.3 395.5 239 Z M 397 240 L 395 242 L 400 245 L 401 242 Q 400 239 397 240 Z M 395 242 L 392 249 L 395 248 L 395 242 Z M 408 243 L 406 246 L 409 248 Q 410 244 408 243 Z "/>
    <path fill="#66d9e8" d="M 401.5 247 Q 404.8 245.9 404 248.5 Q 408 250.5 404 252.5 Q 404.8 254.8 402.5 254 L 400 248.5 L 401.5 247 Z "/>
    <path fill="#66d9e8" d="M 396.5 250 L 399 251.5 L 400 255.5 L 396.5 258 L 394 252.5 L 396.5 250 Z M 397 252 Q 394 253 396 255 Q 395 257 398 256 L 397 252 Z "/>
    <path fill="#66d9e8" d="M 391.5 253 Q 394.6 254.4 394 259.5 Q 392.8 262.8 389 262 L 388 257.5 L 389 254 L 391.5 253 Z M 392 255 Q 389 256 390 260 L 393 259 L 392 255 Z "/>
    <path fill="#66d9e8" d="M 407.5 253 L 409 256.5 L 406.5 261 L 404 255 L 407.5 253 Z "/>
    <path fill="#66d9e8" d="M 400.5 258 L 403 259.5 L 404 263.5 L 400.5 266 L 397 260.5 L 400.5 258 Z M 399 260 L 402 264 Q 404 263 402 262 Q 403 259 399 260 Z "/>
    <path fill="#66d9e8" d="M 393.5 262 L 397 263.5 L 398 267.5 L 394.5 270 Q 391.4 268.6 392 263.5 L 393.5 262 Z M 395 263 L 393 266 L 396 268 L 395 263 Z "/>
    <path fill="#66d9e8" d="M 214.5 264 L 219 270.5 L 219 274.5 L 222 283.5 L 222 288.5 Q 220.6 291.6 215.5 291 L 210.5 286 L 207.5 286 L 205.5 287 L 200 283.5 Q 198.5 276.5 202.5 275 L 211 271.5 Q 209.8 266.3 212.5 265 L 214.5 264 Z M 214 266 Q 211 267 212 273 L 204 276 Q 200 277 201 283 Q 203 287 212 285 L 218 290 L 220 289 L 220 282 L 217 273 L 217 269 L 214 266 Z "/>
    <path fill="#66d9e8" d="M 387.5 266 L 391 267.5 L 392 272.5 L 388 274 L 386 270.5 L 386 267.5 L 387.5 266 Z M 389 267 L 387 270 L 390 272 L 389 267 Z "/>
    <path fill="#66d9e8" d="M 403.5 266 L 406 267.5 L 405 271 Q 400.5 272.8 402 267.5 L 403.5 266 Z "/>
    <path fill="#66d9e8" d="M 398.5 270 L 401 271.5 L 402 277 L 398 278 L 396 272.5 L 398.5 270 Z M 399 272 L 398 275 L 400 276 L 399 272 Z "/>
    <path fill="#66d9e8" d="M 384.5 273 L 386 277 Q 382.3 278.5 383 275.5 L 384.5 273 Z "/>
    <path fill="#66d9e8" d="M 391 275 L 395 276.5 L 396 279.5 L 392 281 L 391 275 Z "/>
    <path fill="#66d9e8" d="M 386.5 278 L 389 279.5 L 391 283.5 Q 389.8 286.8 386 286 L 384 280.5 L 386.5 278 Z M 386 280 L 387 283 Q 386 285 389 284 L 388 282 Q 389 279 386 280 Z "/>
    <path fill="#66d9e8" d="M 381.5 282 L 384 283.5 L 385 289 L 381 290 L 382.5 294 L 385.5 290 Q 387.8 289.3 387 291.5 L 388 293.5 L 384 296.5 Q 383.3 298.8 385.5 298 L 388.5 296 L 391 299.5 L 389.5 301 L 381.5 301 L 378 298.5 L 377 295.5 L 380 288.5 L 380 283.5 L 381.5 282 Z M 383 284 L 381 287 L 383 288 L 383 284 Z M 379 293 L 379 298 L 382 299 L 381 295 Q 382 292 379 293 Z "/>
    <path fill="#66d9e8" d="M 396.5 283 L 400 285.5 L 397.5 289 Q 395.3 289.8 396 287.5 L 395 284.5 L 396.5 283 Z "/>
    <path fill="#66d9e8" d="M 391.5 286 L 394 290.5 L 390.5 292 Q 388 290.8 389 287 L 391.5 286 Z "/>
    <path fill="#66d9e8" d="M 392 293 L 397 293 L 397 294.5 L 393.5 299 L 392 298.5 L 392 293 Z "/>
  </g>
  <g id="line">
    <path fill="#1a1a1a" d="M 264.5 92 L 270.5 92 L 282.5 104 L 289.5 107 L 310.5 94 L 316.5 94 L 326 102.5 L 332.5 110 Q 343.8 107.3 351.5 101 L 359.5 100 L 366 104.5 L 376.5 119 L 386.5 114 L 394.5 113 L 401 118.5 L 404.5 123 Q 407.6 118.1 417.5 120 L 439.5 128 L 451 136.5 Q 456.9 144.1 455 159.5 L 458 162.5 L 464 174.5 L 471 195.5 L 474 210.5 L 475 225.5 L 476 226.5 L 476 248.5 L 475 249.5 L 474 267.5 L 470 287.5 L 462 312.5 L 448 341.5 L 429 368 L 426 369.5 Q 426.8 371.8 424.5 371 L 423 374 L 403.5 388 L 386 395.5 Q 383.4 402.9 377.5 407 L 373.5 409 L 364.5 410 L 342.5 406 L 326 399 L 325 393 L 320 389.5 L 317.5 385 L 307.5 390 L 303.5 390 L 294.5 381 L 292 381 Q 291.1 387.1 285.5 390 L 279.5 390 L 271.5 387 L 270 388.5 L 269 397.5 L 263.5 405 L 255.5 409 L 241.5 412 L 236.5 412 L 211.5 417 L 199.5 417 L 190.5 415 L 178.5 407 L 176.5 407 L 173.5 409 L 161.5 412 L 148.5 413 L 144.5 415 Q 133.5 415.5 125.5 419 L 119.5 419 L 112.5 421 L 101.5 421 Q 93.2 418.9 89 412.5 L 84 401.5 Q 84 394.5 81 390.5 L 80 381.5 L 71 346.5 L 71 341.5 L 68 332.5 L 68 327.5 Q 64.3 320.1 64 309.5 L 61 300.5 L 61 295.5 L 59 291.5 L 58 281.5 L 55 272.5 L 52 252.5 L 49 243.5 L 49 237.5 L 46 228.5 L 42 202.5 L 40 197.5 L 39 183.5 L 37 175.5 L 37 160.5 Q 38.8 151.3 45.5 147 L 62.5 139 L 104.5 129 L 111.5 129 L 115 126.5 Q 117.3 119.8 122.5 116 L 132.5 110 L 143.5 107 L 163.5 104 L 189.5 98 L 195.5 98 Q 205.5 99.5 210 106.5 L 212.5 110 L 215 108.5 L 220.5 101 L 226.5 99 L 231.5 101 L 240.5 109 L 245.5 111 L 255 102.5 L 262.5 93 L 264.5 92 Z M 267 98 L 259 108 L 248 118 L 252 149 L 253 150 L 254 165 L 263 216 L 270 290 L 275 314 L 276 328 L 281 354 L 282 371 L 284 378 Q 282 382 286 381 L 290 376 L 289 316 L 288 315 L 288 290 L 287 289 L 287 260 L 286 259 L 286 210 L 285 209 L 285 117 L 286 116 L 285 113 L 277 107 Q 274 108 275 106 L 267 98 Z M 313 101 L 291 115 L 292 215 L 293 216 L 293 258 L 294 259 L 295 314 L 296 315 L 296 337 L 297 338 L 297 375 L 303 379 L 304 375 L 305 355 L 306 354 L 306 345 L 307 344 L 307 335 L 309 327 L 310 305 L 312 295 L 313 270 L 314 269 L 314 259 L 315 258 L 316 231 L 318 221 L 318 213 L 319 212 L 319 202 L 321 194 L 322 177 L 325 163 L 325 154 L 327 145 L 328 128 L 329 127 L 329 117 L 327 114 Q 324 115 325 113 L 322 111 L 319 106 L 315 101 L 313 101 Z M 225 105 L 215 116 L 216 126 L 222 148 L 223 158 L 231 189 L 235 214 L 238 224 L 238 229 L 241 239 L 241 244 L 244 253 L 244 259 L 248 275 L 248 280 L 253 300 L 254 311 L 256 316 L 264 358 L 266 362 L 269 380 Q 271 384 278 382 L 274 358 L 274 352 L 273 351 L 272 336 L 269 324 L 269 318 L 265 298 L 263 278 L 262 277 L 258 225 L 257 224 L 255 203 L 253 197 L 252 184 L 250 178 L 249 164 L 248 163 L 247 148 L 246 147 L 246 136 L 244 128 L 244 117 L 239 115 L 230 107 L 225 105 Z M 194 106 L 193 107 L 184 107 L 158 113 L 147 114 L 136 117 L 131 120 Q 122 125 120 137 L 121 150 L 125 168 L 125 173 L 127 178 L 128 188 L 130 193 L 132 207 L 140 240 L 141 249 L 144 258 L 147 276 L 149 280 L 149 284 L 159 321 L 160 329 L 165 343 L 166 351 L 168 354 L 169 361 L 175 378 L 176 387 L 181 398 Q 187 406 199 409 L 221 408 L 226 406 L 252 402 L 258 399 L 262 394 L 262 381 L 259 373 L 259 369 L 256 360 L 256 355 L 253 346 L 253 341 L 250 332 L 250 327 L 244 302 L 243 291 L 238 271 L 235 250 L 228 220 L 227 210 L 225 205 L 225 200 L 212 145 L 211 135 L 206 116 L 203 111 L 199 107 L 194 106 Z M 357 107 L 337 116 L 335 118 L 332 158 L 330 166 L 327 199 L 326 200 L 324 229 L 323 230 L 323 242 L 322 243 L 321 268 L 320 269 L 319 297 L 318 298 L 315 336 L 314 337 L 314 346 L 313 347 L 313 359 L 311 366 L 311 376 L 310 377 L 312 380 L 315 379 L 318 374 L 322 348 L 340 272 L 359 175 L 372 128 L 360 108 L 357 107 Z M 390 120 L 377 127 L 361 198 L 357 223 L 355 228 L 354 239 L 350 254 L 350 259 L 330 346 L 326 372 L 323 380 L 324 383 L 328 385 L 341 339 L 347 323 L 367 248 L 372 235 L 373 228 L 375 225 L 379 208 L 381 205 L 382 198 L 384 195 L 398 143 L 402 133 L 402 131 L 395 123 Q 394 119 390 120 Z M 412 126 L 409 129 L 404 152 L 398 171 L 398 175 L 385 216 L 382 230 L 376 246 L 376 250 L 368 274 L 354 328 L 338 380 L 332 394 L 336 396 L 358 401 L 371 401 L 373 400 L 379 392 L 413 288 L 438 198 L 439 189 L 441 185 L 447 155 Q 448 147 445 143 Q 440 136 432 133 L 412 126 Z M 111 134 L 106 136 L 71 143 L 51 151 Q 45 154 43 161 L 43 175 L 44 176 L 44 184 L 46 190 L 47 202 L 56 240 L 56 245 L 62 269 L 63 279 L 65 283 L 71 315 L 75 328 L 75 334 L 80 351 L 81 360 L 83 364 L 85 378 L 87 382 L 91 401 L 96 411 L 103 414 L 114 414 L 120 412 L 132 411 L 136 409 Q 147 409 156 405 L 164 405 L 174 402 L 169 389 L 143 394 L 117 401 Q 107 403 103 399 L 96 389 L 96 385 L 93 377 L 93 372 L 87 351 L 83 329 L 80 321 L 73 287 L 71 283 L 67 260 L 64 251 L 64 246 L 61 238 L 50 177 Q 48 166 52 161 L 57 157 L 66 154 L 75 153 L 104 145 L 112 144 Q 114 142 113 136 L 111 134 Z M 113 148 L 87 155 L 82 155 L 74 158 L 61 160 L 56 162 L 54 168 L 56 183 L 76 177 Q 78 178 77 171 L 82 167 L 96 164 L 103 161 L 112 160 L 115 158 L 114 150 L 113 148 Z M 452 169 L 451 179 L 448 187 L 454 209 L 455 225 L 456 226 L 455 262 L 445 303 L 431 333 L 413 356 Q 410 355 411 358 L 396 369 L 392 376 L 390 386 Q 405 379 417 368 Q 429 356 438 342 L 453 313 L 463 281 L 467 259 L 467 248 L 468 247 L 468 230 L 467 229 L 466 211 L 461 189 L 454 171 Q 455 168 452 169 Z M 117 175 L 110 178 L 90 183 Q 80 185 78 180 L 71 183 L 58 185 L 56 187 L 59 200 L 59 205 L 62 209 L 83 202 L 91 201 L 106 196 L 117 194 L 121 192 L 118 178 Q 119 174 117 175 Z M 121 197 L 110 201 L 90 205 L 82 208 L 63 211 L 61 213 L 64 229 L 67 233 L 74 230 L 88 227 Q 90 226 89 222 L 92 219 L 98 217 L 116 213 L 120 211 L 124 211 L 125 210 L 123 199 L 121 197 Z M 445 205 L 429 263 L 424 277 L 423 284 L 417 300 L 417 304 L 415 307 L 399 357 L 403 355 L 419 336 L 433 311 L 441 288 L 448 252 L 448 222 L 447 221 L 446 207 L 445 205 Z M 127 226 L 102 233 L 93 233 L 92 231 L 90 230 L 81 233 L 68 235 L 66 237 L 70 256 L 72 257 L 95 252 L 96 248 L 100 245 L 130 238 L 131 237 L 128 228 Q 129 225 127 226 Z M 132 252 L 126 255 L 122 255 L 108 259 Q 98 261 96 256 L 72 260 L 72 266 L 77 283 L 99 278 Q 101 277 100 274 L 105 270 L 114 267 L 118 267 L 121 265 L 136 262 L 134 255 Q 135 251 132 252 Z M 139 277 L 118 284 L 107 286 L 104 284 Q 101 285 102 282 L 78 286 L 78 291 L 81 299 L 81 304 L 84 307 L 97 302 L 101 302 L 127 295 L 132 295 L 143 291 L 140 279 L 139 277 Z M 141 297 L 124 302 L 113 303 L 109 305 L 86 309 L 84 311 L 84 316 L 88 331 L 102 327 L 110 326 Q 112 325 111 322 L 115 319 Q 122 319 127 315 L 146 311 L 147 310 L 145 299 Q 144 296 141 297 Z M 150 325 L 147 327 L 121 334 Q 113 335 112 330 L 107 330 L 89 334 L 93 352 L 154 337 L 152 327 L 150 325 Z M 154 342 L 114 352 L 100 354 L 94 357 Q 97 362 97 371 L 100 374 L 118 369 L 120 363 L 127 359 L 131 359 L 158 352 L 156 344 L 154 342 Z M 160 368 L 131 376 Q 123 377 121 373 L 99 377 L 103 391 L 108 396 L 116 396 L 141 389 L 167 384 L 164 370 Q 163 367 160 368 Z "/>
    <path fill="#1a1a1a" d="M 202.5 212 Q 208.1 212.5 210 216.5 L 216 237.5 L 216 243.5 L 211.5 249 L 205.5 251 L 199.5 249 L 197 246.5 L 193.5 241 Q 186.9 240.6 184 236.5 L 183 228.5 L 185 224 L 192.5 220 L 197 220 Q 196 214.4 200.5 213 L 202.5 212 Z M 201 216 L 200 223 Q 199 226 193 224 L 187 229 L 188 235 Q 190 238 197 237 L 200 244 L 204 246 Q 210 247 211 244 L 211 236 L 207 219 Q 206 215 201 216 Z "/>
    <path fill="#1a1a1a" d="M 396.5 235 Q 407.8 234.7 413 240.5 L 414 242.5 L 414 253.5 L 402 293.5 L 395.5 303 Q 392 306.5 384.5 306 Q 377.1 304.9 374 299.5 L 375 287.5 L 379 277.5 L 388 244.5 Q 389.3 238.8 393.5 236 L 396.5 235 Z M 396 239 L 392 243 L 390 250 L 394 251 L 397 247 L 397 245 L 399 246 L 405 243 Q 404 247 407 250 L 410 251 L 411 249 L 410 244 Q 406 238 396 239 Z M 402 247 L 400 249 L 403 254 Q 405 255 404 253 Q 408 251 404 249 Q 405 246 402 247 Z M 397 250 L 394 253 L 397 258 L 400 256 L 399 252 L 397 250 Z M 392 253 L 389 254 L 388 258 L 389 262 Q 393 263 394 260 Q 395 254 392 253 Z M 408 253 L 404 255 L 407 261 L 409 257 L 408 253 Z M 401 258 L 397 261 L 401 266 L 404 264 L 403 260 L 401 258 Z M 394 262 L 392 264 Q 391 269 395 270 L 398 268 L 397 264 L 394 262 Z M 388 266 L 386 268 L 386 271 L 388 274 L 392 273 L 391 268 L 388 266 Z M 404 266 L 402 268 Q 401 273 405 271 L 406 268 L 404 266 Z M 399 270 L 396 273 L 398 278 L 402 277 L 401 272 L 399 270 Z M 385 273 L 383 276 Q 382 278 386 277 L 385 273 Z M 391 275 L 392 281 L 396 280 L 395 277 L 391 275 Z M 387 278 L 384 281 L 386 286 Q 390 287 391 284 L 389 280 L 387 278 Z M 382 282 L 380 284 L 380 289 L 377 296 L 378 299 L 382 301 L 390 301 L 391 300 L 389 296 L 386 298 Q 383 299 384 297 L 388 294 L 387 292 Q 388 289 386 290 L 383 294 L 381 290 L 385 289 L 384 284 L 382 282 Z M 397 283 L 395 285 L 396 288 Q 395 290 398 289 L 400 286 L 397 283 Z M 392 286 L 389 287 Q 388 291 391 292 L 394 291 L 392 286 Z M 392 293 L 392 299 L 394 299 L 397 295 L 397 293 L 392 293 Z "/>
    <path fill="#1a1a1a" d="M 211.5 261 Q 218.5 259.5 220 263.5 L 226 282.5 L 226 290.5 L 225 293 Q 222.1 295.9 214.5 295 L 209.5 291 L 200.5 290 L 197 286.5 L 196 277.5 L 200.5 272 L 207 270 Q 207.3 263.9 211.5 261 Z M 215 264 L 213 265 Q 210 266 211 272 L 203 275 Q 198 277 200 284 L 206 287 L 208 286 L 211 286 L 216 291 Q 221 292 222 289 L 222 284 L 219 275 L 219 271 L 215 264 Z "/>
  </g>
</svg>
