<svg xmlns="http://www.w3.org/2000/svg" width="512" height="512" viewBox="0 0 512 512">
  <g id="color">
    <path fill="#ffffff" d="M 253.5 36 L 266 36.5 L 253.5 37 L 253.5 36 Z "/>
    <path fill="#ffffff" d="M 237.5 37 L 246 37.5 L 237.5 38 L 237.5 37 Z "/>
    <path fill="#ffffff" d="M 272.5 37 L 280 37.5 L 272.5 38 L 272.5 37 Z "/>
    <path fill="#ffffff" d="M 231.5 38 L 236 38.5 L 231.5 39 L 231.5 38 Z "/>
    <path fill="#ffffff" d="M 281.5 38 L 286 38.5 L 281.5 39 L 281.5 38 Z "/>
    <path fill="#ffffff" d="M 297.5 41 L 303 42.5 L 301.5 43 L 297.5 42 L 297.5 41 Z "/>
    <path fill="#ffffff" d="M 202.5 45 L 205 45.5 L 200.5 47 L 200.5 46 L 202.5 45 Z "/>
    <path fill="#ffffff" d="M 192.5 49 L 194 49.5 L 190.5 51 L 190.5 50 L 192.5 49 Z "/>
    <path fill="#ffffff" d="M 185.5 52 L 187 52.5 L 182.5 55 L 183.5 53 L 185.5 52 Z "/>
    <path fill="#ffffff" d="M 329.5 52 L 333 54.5 L 331.5 54 L 329.5 52 Z "/>
    <path fill="#ffffff" d="M 176.5 57 L 175.5 59 L 173.5 60 L 174.5 58 L 176.5 57 Z "/>
    <path fill="#ffffff" d="M 338.5 57 L 342 59.5 L 340.5 59 L 338.5 57 Z "/>
    <path fill="#ffffff" d="M 171.5 60 L 170.5 62 L 168.5 63 L 169.5 61 L 171.5 60 Z "/>
    <path fill="#ffffff" d="M 379.5 93 L 385 99.5 L 382 97.5 L 379.5 93 Z "/>
    <path fill="#ffffff" d="M 119.5 112 L 119 113.5 L 117.5 116 L 118 114.5 L 119.5 112 Z "/>
    <path fill="#ffffff" d="M 392.5 112 L 395 115.5 L 393 114.5 L 392.5 112 Z "/>
    <path fill="#ffffff" d="M 116.5 117 L 117 118.5 L 113.5 124 L 114 122.5 L 116.5 117 Z "/>
    <path fill="#ffffff" d="M 396.5 119 L 399 124.5 L 398 124.5 L 396.5 119 Z "/>
    <path fill="#ffffff" d="M 400.5 128 L 402 131.5 L 401 131.5 L 400.5 128 Z "/>
    <path fill="#ffffff" d="M 108.5 135 L 109 136.5 L 106.5 142 L 106 140.5 L 108.5 135 Z "/>
    <path fill="#ffffff" d="M 100.5 165 L 101 170.5 L 100 170.5 L 100.5 165 Z "/>
    <path fill="#ffffff" d="M 411.5 166 L 412 170.5 L 411 170.5 L 411.5 166 Z "/>
    <path fill="#ffffff" d="M 99.5 172 L 100 177.5 L 99 177.5 L 99.5 172 Z "/>
    <path fill="#ffffff" d="M 412.5 172 L 413 179.5 L 412 179.5 L 412.5 172 Z "/>
    <path fill="#ffffff" d="M 98.5 182 L 99 203.5 L 98 203.5 L 98.5 182 Z "/>
    <path fill="#ffffff" d="M 413.5 182 L 414 202.5 L 413 202.5 L 413.5 182 Z "/>
    <path fill="#ffffff" d="M 412.5 205 L 413 210.5 L 412 210.5 L 412.5 205 Z "/>
    <path fill="#ffffff" d="M 99.5 209 L 100 214.5 L 99 214.5 L 99.5 209 Z "/>
    <path fill="#ffffff" d="M 409.5 224 L 410 227.5 L 408.5 231 L 408 228.5 L 409.5 224 Z "/>
    <path fill="#ffffff" d="M 103.5 232 L 105 237.5 L 104 237.5 L 103.5 232 Z "/>
    <path fill="#ffffff" d="M 405.5 239 L 406 240.5 L 404.5 243 L 404 241.5 L 405.5 239 Z "/>
    <path fill="#ffffff" d="M 106.5 243 L 108 246.5 L 107 246.5 L 106.5 243 Z "/>
    <path fill="#ffffff" d="M 110.5 253 L 113 258.5 L 112 258.5 L 110.5 253 Z "/>
    <path fill="#ffffff" d="M 399.5 253 L 400 254.5 L 396.5 260 L 397 258.5 L 399.5 253 Z "/>
    <path fill="#ffffff" d="M 114.5 262 L 117 265.5 L 115 264.5 L 114.5 262 Z "/>
    <path fill="#ffffff" d="M 390.5 270 L 390 271.5 L 387.5 275 L 389 272.5 L 390.5 270 Z "/>
    <path fill="#ffffff" d="M 121.5 274 L 125 278.5 L 122 276.5 L 121.5 274 Z "/>
    <path fill="#ffffff" d="M 125.5 280 L 131 286.5 L 127 283.5 L 125.5 280 Z "/>
    <path fill="#ffffff" d="M 334.5 335 L 334 336.5 L 332.5 340 L 332 338.5 L 334.5 335 Z "/>
    <path fill="#ffffff" d="M 182.5 347 L 184 351.5 L 183 351.5 L 182.5 347 Z "/>
    <path fill="#ffffff" d="M 326.5 356 L 327 357.5 L 324.5 363 L 324 361.5 L 326.5 356 Z "/>
    <path fill="#ffffff" d="M 186.5 359 L 188 363.5 L 187 363.5 L 186.5 359 Z "/>
    <path fill="#ffffff" d="M 327.5 382 L 328 387.5 L 327 387.5 L 327.5 382 Z "/>
    <path fill="#ffffff" d="M 184.5 384 L 185 388.5 L 184 388.5 L 184.5 384 Z "/>
    <path fill="#ffffff" d="M 184.5 401 L 185 406.5 L 184 406.5 L 184.5 401 Z "/>
    <path fill="#ffffff" d="M 327.5 401 L 328 406.5 L 327 406.5 L 327.5 401 Z "/>
    <path fill="#ffffff" d="M 326.5 409 L 327 412.5 L 325.5 416 L 325 413.5 L 326.5 409 Z "/>
    <path fill="#ffffff" d="M 193.5 430 L 203 438.5 L 201.5 438 L 193.5 430 Z "/>
    <path fill="#ffffff" d="M 206.5 440 L 210 441.5 L 208.5 442 L 206.5 440 Z "/>
    <path fill="#ffffff" d="M 303.5 440 L 305 440.5 L 301.5 442 L 301.5 441 L 303.5 440 Z "/>
    <path fill="#ffffff" d="M 214.5 443 L 218 444.5 L 216.5 444 Q 213.5 444.5 214.5 443 Z "/>
    <path fill="#ffffff" d="M 292.5 453 L 293 454.5 L 291.5 457 L 291 455.5 L 292.5 453 Z "/>
    <path fill="#ffffff" d="M 289.5 460 L 288 462.5 L 282.5 469 L 287 463.5 L 289.5 460 Z "/>
    <path fill="#ffffff" d="M 232.5 469 L 237 472.5 L 235.5 472 L 232.5 469 Z "/>
    <path fill="#ffffff" d="M 280.5 469 L 278.5 472 L 275.5 473 L 275.5 472 L 280.5 469 Z "/>
    <path fill="#ffffff" d="M 269.5 474 L 272 474.5 L 265.5 476 L 265.5 475 L 269.5 474 Z "/>
    <path fill="#ffffff" d="M 250.5 476 L 262 476.5 L 250.5 477 L 250.5 476 Z "/>
    <path fill="#4da3ff" d="M 310.5 374 Q 314.3 373.3 315 375.5 Q 314.2 381.8 317 384.5 L 317 404.5 L 313 418.5 L 304.5 428 L 296.5 432 L 280.5 435 L 238.5 436 L 237.5 435 L 226.5 435 L 213.5 432 L 203 426 Q 197.9 419.9 196 409.5 Q 197.3 404.8 195 403.5 L 195 386.5 L 198 375 Q 203.3 374 205.5 377 L 211.5 377 L 226.5 380 L 228.5 380 Q 234 378.5 235.5 381 L 237.5 380 L 238.5 381 L 267.5 381 L 269.5 380 L 271.5 380 L 296.5 378 L 310.5 374 Z "/>
    <path fill="#4da3ff" d="M 230 447 L 232.5 448 L 234.5 448 L 272.5 448 L 273.5 447 L 275.5 447 L 283 447.5 Q 280.2 456.7 273.5 462 L 265.5 465 L 263.5 465 L 255.5 466 L 241.5 463 L 232 454.5 L 230 447 Z "/>
    <path fill="#ffd43b" d="M 252.5 46 L 283.5 48 L 305.5 53 L 332.5 65 L 361 86 L 361 87.5 L 372 98.5 L 383 114.5 L 394 137.5 L 402 166.5 L 403 182.5 L 404 183.5 L 404 200.5 L 403 201.5 L 402 217.5 L 400 221.5 L 398 232.5 L 391 250.5 Q 381.7 268.7 369 283.5 L 334 318.5 L 328 326.5 L 321 340.5 L 316 358.5 L 311.5 363 L 297.5 367 L 285 368 L 284 361.5 L 284 324.5 L 285 323.5 L 285 315.5 L 286 314.5 L 287 299.5 L 290 288.5 L 290 283.5 L 295 264.5 L 305 240.5 L 305 237.5 Q 304 234 298.5 235 L 293 243.5 L 288 256.5 L 279 291.5 L 277 312.5 L 276 313.5 L 276 322.5 L 275 323.5 L 275 364.5 L 276 369 L 273.5 370 L 232.5 370 L 231.5 369 L 223.5 369 L 222.5 368 L 211.5 367 L 200.5 364 L 197 361.5 L 190 339.5 L 185 329.5 L 174 315 L 172.5 315 L 148 292.5 Q 127.6 271.9 116 242.5 L 109 213.5 L 108 182.5 L 109 181.5 L 111 160.5 L 114 148.5 L 122 127.5 Q 135.2 101.2 156.5 83 L 175.5 69 L 204.5 55 L 232.5 48 L 251.5 47 L 252.5 46 Z M 306 96 L 301 102 L 294 121 L 271 115 L 267 118 L 268 124 L 278 140 L 261 151 Q 257 152 258 157 L 268 160 L 274 160 L 283 162 L 283 173 L 282 174 L 282 188 L 284 189 Q 289 190 291 187 L 306 173 L 308 173 L 325 189 Q 329 190 330 188 L 330 173 L 329 172 L 329 163 L 332 162 L 352 160 Q 355 159 354 155 L 336 141 L 336 138 L 346 120 Q 347 115 345 114 L 339 114 L 318 121 L 309 97 L 306 96 Z M 209 168 L 202 170 L 199 174 Q 200 179 198 181 L 192 184 L 182 180 L 179 181 L 168 193 L 168 198 L 173 205 L 171 212 L 162 214 L 160 218 Q 158 228 161 234 L 165 237 L 172 238 L 176 245 L 172 252 L 173 258 Q 177 265 186 268 Q 193 268 196 263 L 203 265 L 206 274 L 210 276 L 223 276 L 227 274 L 229 271 L 230 263 L 235 261 Q 241 260 244 264 Q 249 265 252 262 L 260 252 L 260 248 L 255 241 L 257 233 L 266 231 L 269 225 L 267 211 L 265 208 L 255 206 L 253 201 L 256 195 L 256 188 Q 252 180 244 177 L 240 177 L 233 182 L 226 180 L 222 172 Q 219 166 209 168 Z "/>
    <path fill="#ffd43b" d="M 210.5 173 L 216 173.5 L 210.5 174 L 210.5 173 Z "/>
    <path fill="#ffd43b" d="M 174.5 193 L 174 194.5 L 173.5 197 L 173 194.5 L 174.5 193 Z "/>
    <path fill="#ffd43b" d="M 208.5 200 L 214 200.5 L 208.5 201 L 208.5 200 Z "/>
    <path fill="#ffd43b" d="M 209.5 206 L 219.5 206 L 228 212.5 L 230 216.5 Q 228.5 222 231 223.5 L 229 230.5 L 222.5 237 Q 218.5 240 210.5 239 Q 202.6 236.9 199 230.5 Q 196.1 226.9 197 219.5 Q 198.5 212.6 203.5 209 L 209.5 206 Z "/>
    <path fill="#ffd43b" d="M 167.5 217 L 166 219.5 L 165.5 221 L 165 219.5 L 167.5 217 Z "/>
    <path fill="#ffd43b" d="M 193.5 231 L 196 234.5 L 194 233.5 L 193.5 231 Z "/>
    <path fill="#ffd43b" d="M 194.5 257 L 199 257.5 L 194.5 258 L 194.5 257 Z "/>
    <path fill="#ffd43b" d="M 209.5 265 L 211 270 L 214 270.5 L 211.5 271 Q 207.9 269.1 209.5 265 Z "/>
    <path fill="#ff6b6b" d="M 304.5 107 L 307 108.5 L 307.5 110 L 309 109.5 L 308 112 L 310 112.5 L 309 114.5 L 310.5 118 L 312 117.5 L 311 119.5 L 313 119.5 L 312 121.5 L 314 122.5 L 313.5 124 L 315 124.5 Q 312.2 126.2 316.5 128 L 321 127.5 L 320.5 126 L 322.5 127 L 325.5 124 L 326.5 125 L 330 124 Q 328.8 121 332.5 122 L 334.5 121 L 337.5 123 L 339 122.5 L 338 125 L 336 125.5 Q 338.3 126.8 335.5 128 L 334 128.5 L 334.5 130 L 332 131.5 L 333 133.5 L 331 133.5 L 330 136.5 L 330.5 138 L 329 137.5 L 330 139.5 L 329 142.5 Q 331.5 147.3 334 145.5 L 335.5 148 Q 337.3 145.3 339 149.5 L 339.5 151 L 341 150.5 L 340.5 152 L 343 153.5 L 337.5 157 L 333.5 156 L 331.5 156 L 330 156.5 L 330.5 158 L 328.5 157 L 323 161.5 L 324 163.5 L 324 165.5 L 323 168.5 L 323 170.5 L 325 174.5 L 325 178.5 L 324.5 181 L 320 178.5 L 320.5 177 L 309 167.5 L 308.5 166 L 305.5 167 L 303.5 166 L 298.5 172 Q 296.3 171.3 297 173.5 L 293 175.5 L 293.5 177 L 291 177.5 Q 293.8 179.3 289.5 181 L 287 179.5 L 287 173.5 Q 290.5 174.5 289 167.5 Q 286.3 165.8 288 159.5 L 285.5 157 Q 280.9 157.6 279.5 155 L 275.5 156 L 275.5 155 L 277 154.5 L 274.5 154 L 272.5 155 L 270 154.5 Q 268.9 151.2 271.5 152 L 271.5 150 Q 272.8 152.3 274 149.5 L 275.5 147 L 277.5 146 L 279 146.5 L 282.5 142 L 284 142.5 L 284 139.5 L 278.5 129 Q 276.3 129.8 277 127.5 Q 273.5 126 276 124.5 L 277.5 122 Q 279.8 121.3 279 123.5 L 280.5 123 L 283.5 125 L 288 125.5 Q 287.2 128.1 290.5 127 L 292 126.5 L 292 128 L 296 128 L 297.5 125 L 299 124.5 L 299 122.5 L 300 118 L 302 117.5 L 301 115 Q 303.7 116.1 303 113.5 L 302.5 112 Q 304.8 112.8 304 110.5 L 303.5 109 L 305 109.5 L 304.5 107 Z "/>
    <path fill="#ffa94d" d="M 206.5 174 L 216.5 174 L 218 175.5 L 219 181.5 L 220.5 183 L 232.5 188 L 239.5 183 L 242.5 183 L 251 190.5 L 247 198.5 L 247 201.5 L 253.5 212 L 258.5 213 L 260.5 213 Q 263.1 212.2 262 215.5 L 263 216.5 L 263 226 L 254.5 228 L 252 230.5 L 249 240.5 L 254 250.5 L 247.5 258 L 244.5 258 L 236.5 254 L 226 259.5 Q 223.2 262.2 224 268.5 L 221.5 271 L 217.5 270 L 213.5 270 Q 210.2 271.1 211 268.5 L 206.5 260 L 198.5 257 L 194.5 257 L 187.5 262 L 185.5 262 L 183 261 L 180.5 257 L 178 255.5 L 178 251.5 L 182 244.5 L 175.5 233 L 166 231 L 165 223.5 L 166 220.5 L 168.5 217 L 175 216 L 179 203.5 L 174 197.5 L 174 194.5 L 178 188 L 182.5 186 L 188.5 190 L 192.5 190 L 202 184.5 L 204 176.5 L 206.5 174 Z M 209 200 L 200 205 L 192 217 L 192 230 L 194 234 L 205 243 L 213 245 L 221 244 L 227 241 Q 233 237 236 229 Q 238 216 233 211 Q 234 208 232 209 L 230 207 Q 226 201 219 200 L 209 200 Z "/>
    <path fill="#66d9e8" d="M 312.5 372 L 316 373.5 L 319 390.5 L 319 399.5 L 315 417.5 L 306.5 428 L 297.5 433 L 285.5 436 L 276.5 436 L 275.5 437 L 232.5 437 L 212.5 433 Q 203.8 429.8 199 422.5 L 194 407.5 L 193 392.5 L 194 391.5 L 194 383.5 L 197 373 L 209.5 376 L 215.5 376 L 230.5 379 L 275.5 379 L 276.5 378 L 293.5 377 L 312.5 372 Z M 311 374 L 297 378 L 272 380 L 270 380 L 268 381 L 239 381 L 238 380 L 236 381 Q 234 379 229 380 L 227 380 L 212 377 L 206 377 Q 203 374 198 375 L 195 387 L 195 404 Q 197 405 196 410 Q 198 420 203 426 L 214 432 L 227 435 L 238 435 L 239 436 L 281 435 L 297 432 L 305 428 L 313 419 L 317 405 L 317 385 Q 314 382 315 376 Q 314 373 311 374 Z "/>
    <path fill="#66d9e8" d="M 281.5 445 L 285 446.5 Q 282.6 456.6 275.5 462 Q 266.7 468.2 250.5 467 L 238.5 463 L 231 455.5 L 228 446 L 250.5 447 L 252.5 446 L 255.5 447 L 256.5 446 L 280.5 446 L 281.5 445 Z M 230 447 L 232 455 L 242 463 L 256 466 L 264 465 L 266 465 L 274 462 Q 280 457 283 448 L 276 447 L 274 447 L 273 448 L 235 448 L 233 448 L 230 447 Z "/>
    <path fill="#f783ac" d="M 305.5 106 L 308 107.5 L 309 111.5 L 308 111.5 L 305.5 106 Z "/>
    <path fill="#f783ac" d="M 304.5 108 L 305 109.5 L 303.5 112 L 303 110.5 L 304.5 108 Z "/>
    <path fill="#f783ac" d="M 309.5 113 L 312 119.5 L 311 119.5 L 309.5 113 Z "/>
    <path fill="#f783ac" d="M 337.5 120 Q 339.8 119.3 339 121.5 Q 337.8 124.2 336.5 122 L 335 121.5 L 337.5 120 Z "/>
    <path fill="#f783ac" d="M 328.5 123 L 330 123.5 L 325.5 126 L 326.5 124 L 328.5 123 Z "/>
    <path fill="#f783ac" d="M 314.5 125 Q 315.5 128 320.5 127 L 323.5 125 L 322.5 127 L 316.5 128 L 314.5 125 Z "/>
    <path fill="#f783ac" d="M 333.5 130 L 334 131.5 L 329.5 139 L 329 137.5 L 333.5 130 Z "/>
    <path fill="#f783ac" d="M 283.5 139 L 284 142.5 L 282 143.5 L 283.5 139 Z "/>
    <path fill="#f783ac" d="M 329.5 140 L 333 145.5 L 329 142.5 L 329.5 140 Z "/>
    <path fill="#f783ac" d="M 273.5 149 L 271.5 152 Q 268.9 151.2 270 154.5 L 268 153.5 L 273.5 149 Z "/>
    <path fill="#f783ac" d="M 339.5 150 L 345 154.5 Q 345.9 157.9 340.5 156 L 340.5 155 L 343 153.5 L 339.5 150 Z "/>
    <path fill="#f783ac" d="M 337.5 155 L 339 155.5 L 333.5 157 L 333.5 156 L 337.5 155 Z "/>
    <path fill="#f783ac" d="M 289.5 163 L 290 166.5 L 288.5 173 L 288 167.5 L 289.5 163 Z "/>
    <path fill="#f783ac" d="M 314.5 172 L 321 177.5 L 319.5 178 L 314.5 172 Z "/>
  </g>
  <g id="line">
    <path fill="#1a1a1a" d="M 246.5 37 L 271.5 37 L 272.5 38 L 280.5 38 L 281.5 39 L 293.5 40 L 316.5 47 Q 351.5 60.5 374 86.5 L 395 116.5 L 407 146.5 L 411 163.5 L 412 179.5 L 413 180.5 L 413 204.5 L 412 205.5 L 411 219.5 L 407 235.5 L 393 266.5 Q 376.8 292.3 354.5 312 L 344 321.5 L 332 338.5 L 323 366.5 L 327 380.5 L 328 400.5 L 324 419.5 Q 319.5 430.5 310.5 437 Q 304.1 442.1 295 443 L 290 459.5 L 281.5 469 L 272.5 474 L 264.5 476 L 248.5 476 L 237.5 473 L 225 462.5 L 219 451.5 L 218 444.5 L 216.5 443 Q 200.3 440.7 193 429.5 L 188 420.5 L 185 409.5 L 184 389.5 L 185 388.5 L 185 380.5 L 189 365.5 L 180 339.5 Q 171.8 325.2 159.5 315 L 136 293.5 Q 116.6 272.4 106 242.5 L 102 227.5 L 100 209.5 L 99 208.5 L 99 178.5 L 100 177.5 L 102 157.5 L 104 153.5 L 106 142.5 L 113 124.5 Q 124.1 101.1 141.5 84 Q 143.8 84.8 143 82.5 Q 162.7 63.2 189.5 51 L 207.5 44 L 223.5 40 L 235.5 39 L 236.5 38 L 245.5 38 L 246.5 37 Z M 253 46 L 252 47 L 233 48 L 205 55 L 176 69 L 157 83 Q 135 101 122 128 L 114 149 L 111 161 L 109 182 L 108 183 L 109 214 L 116 243 Q 128 272 148 293 L 173 315 L 174 315 L 185 330 L 190 340 L 197 362 L 201 364 L 212 367 L 223 368 L 224 369 L 232 369 L 233 370 L 274 370 L 276 369 L 275 365 L 275 324 L 276 323 L 276 314 L 277 313 L 279 292 L 288 257 L 293 244 L 299 235 Q 304 234 305 238 L 305 241 L 295 265 L 290 284 L 290 289 L 287 300 L 286 315 L 285 316 L 285 324 L 284 325 L 284 362 L 285 368 L 298 367 L 312 363 L 316 359 L 321 341 L 328 327 L 334 319 L 369 284 Q 382 269 391 251 L 398 233 L 400 222 L 402 218 L 403 202 L 404 201 L 404 184 L 403 183 L 402 167 L 394 138 L 383 115 L 372 99 L 361 88 L 361 86 L 333 65 L 306 53 L 284 48 L 253 46 Z M 313 372 L 294 377 L 277 378 L 276 379 L 231 379 L 216 376 L 210 376 L 197 373 L 194 384 L 194 392 L 193 393 L 194 408 L 199 423 Q 204 430 213 433 L 233 437 L 276 437 L 277 436 L 286 436 L 298 433 L 307 428 L 315 418 L 319 400 L 319 391 L 316 374 L 313 372 Z M 282 445 L 281 446 L 257 446 L 256 447 L 253 446 L 251 447 L 228 446 L 231 456 L 239 463 L 251 467 Q 267 468 276 462 Q 283 457 285 447 L 282 445 Z "/>
    <path fill="#1a1a1a" d="M 305.5 96 L 309 97 L 318 121 L 338.5 114 L 344.5 114 Q 347 115 346 119.5 L 336 137.5 L 336 140.5 L 354 154.5 Q 354.8 159.3 351.5 160 L 331.5 162 L 329 163 L 329 171.5 L 330 172.5 L 330 187.5 Q 329 190 324.5 189 L 307.5 173 L 305.5 173 L 290.5 187 Q 288.8 189.8 283.5 189 L 282 187.5 L 282 173.5 L 283 172.5 L 283 162 L 273.5 160 L 267.5 160 L 258 157 Q 257 152.3 260.5 151 L 278 139.5 L 268 123.5 L 267 117.5 L 270.5 115 L 294 121 L 301 101.5 L 305.5 96 Z M 305 105 L 299 123 L 296 127 Q 285 126 279 122 L 274 123 L 283 138 L 283 142 L 270 152 Q 267 151 268 154 L 270 155 L 286 157 L 288 160 L 288 173 L 287 174 L 287 181 L 290 181 L 304 167 L 309 167 L 323 181 L 325 181 L 325 175 L 324 174 L 324 161 L 328 158 L 339 157 L 340 156 Q 347 158 345 153 L 330 143 L 331 136 Q 337 129 339 120 Q 328 122 320 127 L 317 127 Q 310 119 308 107 L 305 105 Z "/>
    <path fill="#1a1a1a" d="M 208.5 168 Q 219 166 222 171.5 L 225.5 180 L 232.5 182 L 239.5 177 L 243.5 177 Q 251.7 180.3 256 187.5 L 256 194.5 L 253 200.5 L 255 206 L 264.5 208 L 267 210.5 L 269 224.5 L 265.5 231 L 257 233 L 255 240.5 L 260 247.5 L 260 251.5 L 251.5 262 Q 249.2 264.7 243.5 264 Q 241.3 260.2 234.5 261 L 230 263 L 229 270.5 L 226.5 274 L 222.5 276 L 209.5 276 L 206 273.5 L 202.5 265 L 195.5 263 Q 192.6 267.6 185.5 268 Q 177.3 264.7 173 257.5 L 172 251.5 L 176 244.5 L 171.5 238 L 164.5 237 L 161 233.5 Q 158.4 227.6 160 217.5 L 162 214 L 171 212 L 173 204.5 L 168 197.5 L 168 192.5 L 178.5 181 L 181.5 180 L 191.5 184 L 198 181 Q 199.6 178.9 199 173.5 L 201.5 170 L 208.5 168 Z M 211 173 L 206 174 L 203 178 L 202 184 L 191 190 L 184 186 L 180 187 L 173 195 L 173 197 L 178 203 L 178 208 L 175 215 Q 173 218 168 217 L 165 220 Q 164 228 166 232 L 176 234 L 181 243 L 181 247 L 177 255 L 186 262 L 189 262 L 194 258 L 200 258 L 207 261 L 212 271 Q 220 272 224 270 L 225 262 L 235 255 L 239 255 L 247 259 L 255 250 L 250 242 L 250 238 L 253 229 L 262 227 L 263 226 L 263 213 L 252 211 L 247 200 L 251 193 L 251 190 L 242 182 L 235 187 L 230 187 L 220 183 L 218 174 Q 216 172 211 173 Z "/>
    <path fill="#1a1a1a" d="M 214.5 200 L 223.5 202 L 232 209.5 L 235 214.5 L 236 225.5 Q 234.2 235.2 227.5 240 L 218.5 244 L 208.5 244 Q 200.5 241.5 196 235.5 L 192 227.5 L 192 217.5 Q 194.8 208.8 201.5 204 L 206.5 201 Q 212.8 202.7 214.5 200 Z M 210 206 L 204 209 Q 199 213 197 220 Q 196 227 199 231 Q 203 237 211 239 Q 219 240 223 237 L 229 231 L 231 224 Q 229 222 230 217 L 228 213 L 220 206 L 210 206 Z "/>
  </g>
</svg>
