<svg xmlns="http://www.w3.org/2000/svg" width="512" height="512" viewBox="0 0 512 512">
  <g id="color">
    <path fill="#ffffff" d="M 248.5 36 L 265 36.5 L 248.5 37 L 248.5 36 Z "/>
    <path fill="#ffffff" d="M 280.5 39 L 286 40.5 L 283.5 41 L 280.5 40 L 280.5 39 Z "/>
    <path fill="#ffffff" d="M 218.5 43 L 220 43.5 L 214.5 46 L 214.5 45 L 218.5 43 Z "/>
    <path fill="#ffffff" d="M 208.5 48 L 207.5 50 L 205.5 51 L 206.5 49 L 208.5 48 Z "/>
    <path fill="#ffffff" d="M 178.5 77 L 178 78.5 L 176.5 81 L 177 79.5 L 178.5 77 Z "/>
    <path fill="#ffffff" d="M 335.5 80 L 338 83.5 L 336 82.5 L 335.5 80 Z "/>
    <path fill="#ffffff" d="M 341.5 92 L 343 95.5 L 342 95.5 L 341.5 92 Z "/>
    <path fill="#ffffff" d="M 345.5 103 L 347 108.5 L 346 108.5 L 345.5 103 Z "/>
    <path fill="#ffffff" d="M 163.5 118 L 164 122.5 L 163 122.5 L 163.5 118 Z "/>
    <path fill="#ffffff" d="M 349.5 124 L 350 147.5 L 349 147.5 L 349.5 124 Z "/>
    <path fill="#ffffff" d="M 162.5 129 L 163 143.5 L 162 143.5 L 162.5 129 Z "/>
    <path fill="#ffffff" d="M 163.5 150 L 164 154.5 L 163 154.5 L 163.5 150 Z "/>
    <path fill="#ffffff" d="M 164.5 156 L 165 160.5 L 164 160.5 L 164.5 156 Z "/>
    <path fill="#ffffff" d="M 342.5 178 L 343 179.5 L 340.5 185 L 340 183.5 L 342.5 178 Z "/>
    <path fill="#ffffff" d="M 172.5 185 L 176 191.5 L 174 190.5 L 172.5 185 Z "/>
    <path fill="#ffffff" d="M 337.5 190 L 338 191.5 L 335.5 195 L 336 193.5 L 337.5 190 Z "/>
    <path fill="#ffffff" d="M 176.5 193 L 179 197.5 L 177 196.5 L 176.5 193 Z "/>
    <path fill="#ffffff" d="M 199.5 227 L 201 230.5 L 200 230.5 L 199.5 227 Z "/>
    <path fill="#ffffff" d="M 311.5 230 L 312 234.5 L 311 234.5 L 311.5 230 Z "/>
    <path fill="#ffffff" d="M 200.5 234 L 201 235.5 L 198 237.5 L 200.5 234 Z "/>
    <path fill="#ffffff" d="M 185.5 242 L 188 242.5 L 183.5 244 L 183.5 243 L 185.5 242 Z "/>
    <path fill="#ffffff" d="M 172.5 246 L 174 246.5 L 169.5 248 L 169.5 247 L 172.5 246 Z "/>
    <path fill="#ffffff" d="M 341.5 247 L 346 248.5 L 344.5 249 L 341.5 248 L 341.5 247 Z "/>
    <path fill="#ffffff" d="M 350.5 250 L 354 251.5 L 352.5 252 L 350.5 250 Z "/>
    <path fill="#ffffff" d="M 158.5 251 L 160 251.5 L 156.5 253 L 156.5 252 L 158.5 251 Z "/>
    <path fill="#ffffff" d="M 148.5 255 L 150 255.5 L 145.5 258 L 146.5 256 L 148.5 255 Z "/>
    <path fill="#ffffff" d="M 362.5 255 L 368 257.5 L 366.5 258 L 362.5 256 L 362.5 255 Z "/>
    <path fill="#ffffff" d="M 371.5 259 L 377 262.5 L 375.5 262 Q 371.5 261.5 371.5 259 Z "/>
    <path fill="#ffffff" d="M 133.5 263 L 132.5 265 L 127.5 268 L 128.5 266 L 133.5 263 Z "/>
    <path fill="#ffffff" d="M 380.5 264 L 384 266.5 L 382.5 266 L 380.5 264 Z "/>
    <path fill="#ffffff" d="M 90.5 305 L 90 306.5 L 88.5 309 L 89 307.5 L 90.5 305 Z "/>
    <path fill="#ffffff" d="M 251.5 308 L 261.5 308 L 264 310.5 L 264 336.5 L 265 339 L 271.5 342 L 295.5 342 L 297 343.5 Q 299.5 347 298 354.5 L 295.5 357 L 271.5 357 L 265 360.5 L 264 362.5 L 264 388.5 L 261.5 391 L 250.5 391 L 249 389.5 L 248 387.5 L 248 362.5 L 244.5 358 L 241.5 357 L 216.5 357 L 215 355.5 L 215 343.5 L 216.5 342 L 240.5 342 L 247 338.5 L 248 336.5 L 248 311.5 L 249 309 L 251.5 308 Z "/>
    <path fill="#ffffff" d="M 423.5 308 L 427 313.5 L 425 312.5 L 423.5 308 Z "/>
    <path fill="#ffffff" d="M 429.5 320 L 431 323.5 L 430 323.5 L 429.5 320 Z "/>
    <path fill="#ffffff" d="M 81.5 323 L 82 324.5 L 79.5 330 L 79 328.5 L 81.5 323 Z "/>
    <path fill="#ffffff" d="M 77.5 334 L 78 336.5 L 76.5 340 L 76 337.5 L 77.5 334 Z "/>
    <path fill="#ffffff" d="M 72.5 354 L 73 357.5 L 71.5 362 L 71 358.5 L 72.5 354 Z "/>
    <path fill="#ffffff" d="M 442.5 370 L 443 375.5 L 442 375.5 L 442.5 370 Z "/>
    <path fill="#ffffff" d="M 69.5 373 L 70 378.5 L 69 378.5 L 69.5 373 Z "/>
    <path fill="#ffffff" d="M 443.5 377 L 444 385.5 L 443 385.5 L 443.5 377 Z "/>
    <path fill="#ffffff" d="M 68.5 383 L 69 392.5 L 68 392.5 L 68.5 383 Z "/>
    <path fill="#ffffff" d="M 444.5 390 L 445 404.5 L 444 404.5 L 444.5 390 Z "/>
    <path fill="#ffffff" d="M 68.5 400 L 69 409.5 L 68 409.5 L 68.5 400 Z "/>
    <path fill="#ffffff" d="M 443.5 409 L 444 413.5 L 443 413.5 L 443.5 409 Z "/>
    <path fill="#ffffff" d="M 71.5 422 L 73 426.5 L 72 426.5 L 71.5 422 Z "/>
    <path fill="#ffffff" d="M 435.5 435 L 434 437.5 L 430.5 442 L 433 438.5 L 435.5 435 Z "/>
    <path fill="#ffffff" d="M 415.5 453 L 414.5 455 L 412.5 456 L 413.5 454 L 415.5 453 Z "/>
    <path fill="#ffffff" d="M 98.5 454 L 103 456.5 L 101.5 457 L 98.5 454 Z "/>
    <path fill="#ffffff" d="M 106.5 458 L 110 459.5 L 108.5 460 L 106.5 458 Z "/>
    <path fill="#ffffff" d="M 402.5 459 L 404 459.5 L 400.5 461 L 400.5 460 L 402.5 459 Z "/>
    <path fill="#ffffff" d="M 120.5 463 L 126 464.5 L 123.5 465 L 120.5 464 L 120.5 463 Z "/>
    <path fill="#ffffff" d="M 137.5 467 L 146 468.5 L 141.5 469 L 137.5 468 L 137.5 467 Z "/>
    <path fill="#ffffff" d="M 366.5 468 L 371 468.5 L 366.5 469 L 366.5 468 Z "/>
    <path fill="#ffffff" d="M 163.5 471 L 168 471.5 L 163.5 472 L 163.5 471 Z "/>
    <path fill="#ffffff" d="M 345.5 471 L 350 471.5 L 345.5 472 L 345.5 471 Z "/>
    <path fill="#ffffff" d="M 171.5 472 L 177 472.5 L 171.5 473 L 171.5 472 Z "/>
    <path fill="#ffffff" d="M 334.5 472 L 342 472.5 L 334.5 473 L 334.5 472 Z "/>
    <path fill="#ffffff" d="M 179.5 473 L 187 473.5 L 179.5 474 L 179.5 473 Z "/>
    <path fill="#ffffff" d="M 325.5 473 L 333 473.5 L 325.5 474 L 325.5 473 Z "/>
    <path fill="#ffffff" d="M 192.5 474 L 201 474.5 L 192.5 475 L 192.5 474 Z "/>
    <path fill="#ffffff" d="M 310.5 474 L 319 474.5 L 310.5 475 L 310.5 474 Z "/>
    <path fill="#ffffff" d="M 209.5 475 L 220 475.5 L 209.5 476 L 209.5 475 Z "/>
    <path fill="#ffffff" d="M 290.5 475 L 301 475.5 L 290.5 476 L 290.5 475 Z "/>
    <path fill="#ffffff" d="M 231.5 476 L 280 476.5 L 231.5 477 L 231.5 476 Z "/>
    <path fill="#4da3ff" d="M 244.5 52 L 268.5 52 L 278.5 54 L 295 60 Q 293.8 63 297.5 62 L 318 79.5 L 331 105.5 L 335 127.5 L 335 146.5 L 334 147.5 L 332 164.5 L 328 176.5 L 318 196.5 L 301 217.5 L 297 226.5 L 296 234.5 L 299 243.5 L 304.5 249 L 307.5 251 L 316.5 256 L 332.5 260 L 340.5 264 L 342.5 264 L 359.5 270 L 385 285 Q 383.9 287.7 386.5 287 L 395 294.5 Q 394.3 296.8 396.5 296 L 407 308.5 L 419 332.5 L 428 370.5 L 429 388.5 L 430 389.5 L 429 391.5 L 430 392.5 L 430 405.5 L 428 416.5 L 426 418.5 L 425 424.5 L 417.5 434 L 404.5 443 L 385.5 450 L 381.5 450 L 368.5 454 L 366.5 454 L 338.5 457 L 337.5 458 L 313.5 459 L 312.5 460 L 309.5 459 L 308.5 460 L 297.5 460 L 296.5 461 L 271.5 461 L 270.5 462 L 268.5 462 L 244.5 462 L 243.5 461 L 239.5 462 L 238.5 461 L 199.5 460 L 198.5 459 L 176.5 458 L 175.5 457 L 144.5 454 L 131.5 450 L 123.5 449 L 112.5 445 L 97.5 437 L 94 433.5 L 86 421.5 L 84 413.5 L 83 408.5 L 83 381.5 L 84 380.5 L 87 357.5 L 89 352.5 L 89 347.5 L 93 333.5 L 105 309.5 L 116 295 Q 118.7 296.1 118 293.5 L 121 292 L 121 290 Q 124.7 291.5 124 288.5 L 131.5 282 L 150.5 271 L 155.5 270 L 164.5 265 L 200.5 254 L 213 243.5 L 216 235.5 L 216 229.5 L 213 220.5 L 201 203 L 197 200.5 L 184 175.5 L 180 162.5 L 177 145.5 L 177 143.5 L 177 129.5 L 181 107.5 L 184 98.5 L 187 94.5 L 187 91.5 L 198 75 Q 200.7 76.1 200 73.5 L 204 71 L 205.5 68 L 222.5 58 L 244.5 52 Z M 249 299 L 246 300 L 239 310 L 239 332 L 216 332 L 212 334 Q 207 337 206 344 L 206 346 L 205 348 Q 204 356 207 361 L 216 367 L 239 367 L 239 390 L 241 395 Q 244 399 250 400 Q 263 402 269 398 L 273 392 L 273 371 L 274 370 L 273 368 L 298 367 L 303 364 L 307 356 L 307 343 L 303 335 L 295 332 L 274 332 L 274 331 L 273 330 L 273 309 L 271 305 L 264 299 L 249 299 Z "/>
    <path fill="#66d9e8" d="M 247.5 50 L 265.5 50 L 266.5 51 L 277.5 52 L 289.5 56 Q 307.6 63.9 319 78.5 L 333 106.5 L 337 128.5 L 337 144.5 L 336 145.5 L 334 163.5 L 330 176.5 L 321 194.5 L 300 222.5 L 298 229.5 L 298 236.5 L 304.5 247 L 316.5 254 L 349.5 264 L 370.5 274 Q 388.3 283.7 401 298.5 L 413 315.5 L 422 336.5 L 428 361.5 L 430 381.5 L 431 382.5 L 431 410.5 L 427 424.5 L 414.5 439 L 404.5 445 L 384.5 452 L 359.5 457 L 336.5 459 L 335.5 460 L 325.5 460 L 324.5 461 L 289.5 462 L 288.5 463 L 255.5 463 L 252.5 464 L 251.5 463 L 224.5 463 L 223.5 462 L 189.5 461 L 188.5 460 L 176.5 460 L 175.5 459 L 146.5 456 L 112.5 447 L 102.5 442 L 92 433.5 Q 85.5 427.5 83 417.5 L 81 406.5 L 81 385.5 L 82 384.5 L 85 357.5 L 93 329.5 L 105 306.5 L 120.5 289 L 141.5 274 L 170.5 261 L 180.5 259 L 200.5 252 L 212 242.5 Q 215.4 237.4 214 227.5 L 206 212.5 L 194 198.5 L 182 175.5 L 176 149.5 L 176 122.5 Q 179.2 103.2 187 88.5 Q 194 76 204.5 67 L 222.5 56 L 239.5 51 Q 245.7 52.8 247.5 50 Z M 245 52 L 223 58 L 206 68 L 204 71 L 200 74 Q 201 76 198 75 L 187 92 L 187 95 L 184 99 L 181 108 L 177 130 L 177 144 L 177 146 L 180 163 L 184 176 L 197 201 L 201 203 L 213 221 L 216 230 L 216 236 L 213 244 L 201 254 L 165 265 L 156 270 L 151 271 L 132 282 L 124 289 Q 125 291 121 290 L 121 292 L 118 294 Q 119 296 116 295 L 105 310 L 93 334 L 89 348 L 89 353 L 87 358 L 84 381 L 83 382 L 83 409 L 84 414 L 86 422 L 94 434 L 98 437 L 113 445 L 124 449 L 132 450 L 145 454 L 176 457 L 177 458 L 199 459 L 200 460 L 239 461 L 240 462 L 244 461 L 245 462 L 269 462 L 271 462 L 272 461 L 297 461 L 298 460 L 309 460 L 310 459 L 313 460 L 314 459 L 338 458 L 339 457 L 367 454 L 369 454 L 382 450 L 386 450 L 405 443 L 418 434 L 425 425 L 426 419 L 428 417 L 430 406 L 430 393 L 429 392 L 430 390 L 429 389 L 428 371 L 419 333 L 407 309 L 397 296 Q 394 297 395 295 L 387 287 Q 384 288 385 285 L 360 270 L 343 264 L 341 264 L 333 260 L 317 256 L 308 251 L 305 249 L 299 244 L 296 235 L 297 227 L 301 218 L 318 197 L 328 177 L 332 165 L 334 148 L 335 147 L 335 128 L 331 106 L 318 80 L 298 62 Q 294 63 295 60 L 279 54 L 269 52 L 245 52 Z "/>
    <path fill="#66d9e8" d="M 248.5 299 L 263.5 299 L 271 304.5 L 273 308.5 L 273 329.5 L 274 330.5 L 273.5 332 L 294.5 332 L 303 335 L 307 342.5 L 307 355.5 L 303 364 L 297.5 367 L 273 367.5 L 274 369.5 L 273 370.5 L 273 391.5 L 269 398 Q 262.7 401.8 249.5 400 Q 243.8 398.8 241 394.5 L 239 389.5 L 239 367 L 215.5 367 L 207 360.5 Q 204.1 355.9 205 347.5 L 206 345.5 L 206 343.5 Q 206.9 336.9 211.5 334 L 215.5 332 L 239 332 L 239 309.5 L 245.5 300 L 248.5 299 Z M 251 300 L 246 302 L 241 309 L 241 333 L 240 334 L 216 334 L 212 336 L 207 343 L 207 357 L 209 361 L 215 365 L 240 365 L 241 367 L 241 391 L 243 395 L 249 398 L 254 399 L 260 399 L 267 397 Q 271 394 272 389 L 272 367 L 274 365 L 298 365 L 300 364 L 305 358 L 305 342 L 304 340 L 297 334 L 274 334 L 272 333 L 272 312 L 270 306 Q 265 298 251 300 Z "/>
  </g>
  <g id="line">
    <path fill="#1a1a1a" d="M 244.5 37 L 267.5 37 L 268.5 38 L 279.5 39 L 292.5 43 Q 312 51 325 65.5 L 338 84.5 L 347 109.5 L 348 120.5 L 349 121.5 L 349 151.5 L 345 171.5 L 340 185.5 Q 330.2 208.2 314 224.5 L 311 230.5 L 311 234.5 L 313.5 238 L 316.5 240 L 349.5 250 L 370.5 259 Q 391.5 269.5 407 285.5 Q 418.7 298.3 427 314.5 L 436 338.5 L 442 367.5 L 443 385.5 L 444 386.5 L 444 408.5 L 440 426.5 Q 434.9 438.9 425.5 447 Q 414.4 455.9 399.5 461 L 382.5 466 L 353.5 471 L 334.5 472 L 324.5 474 L 310.5 474 L 309.5 475 L 290.5 475 L 289.5 476 L 220.5 476 L 219.5 475 L 201.5 475 L 200.5 474 L 187.5 474 L 186.5 473 L 159.5 471 L 126.5 465 Q 122.5 462 115.5 462 L 95.5 453 L 80 439.5 Q 73.2 430.8 70 418.5 L 68 393.5 L 69 392.5 L 69 379.5 L 70 378.5 L 71 362.5 L 73 357.5 L 75 343.5 L 82 322.5 Q 93.2 294.7 114.5 277 Q 131.1 263.1 152.5 254 L 174.5 246 L 190.5 242 L 201 235.5 L 201 228.5 L 180 200.5 L 171 182.5 L 166 166.5 L 163 149.5 L 163 123.5 L 167 103.5 L 176 81.5 Q 184.8 65.8 198.5 55 L 222.5 42 L 244.5 37 Z M 248 50 Q 246 53 240 51 L 223 56 L 205 67 Q 194 76 187 89 Q 179 103 176 123 L 176 150 L 182 176 L 194 199 L 206 213 L 214 228 Q 215 237 212 243 L 201 252 L 181 259 L 171 261 L 142 274 L 121 289 L 105 307 L 93 330 L 85 358 L 82 385 L 81 386 L 81 407 L 83 418 Q 85 428 92 434 L 103 442 L 113 447 L 147 456 L 176 459 L 177 460 L 189 460 L 190 461 L 224 462 L 225 463 L 252 463 L 253 464 L 256 463 L 289 463 L 290 462 L 325 461 L 326 460 L 336 460 L 337 459 L 360 457 L 385 452 L 405 445 L 415 439 L 427 425 L 431 411 L 431 383 L 430 382 L 428 362 L 422 337 L 413 316 L 401 299 Q 388 284 371 274 L 350 264 L 317 254 L 305 247 L 298 237 L 298 230 L 300 223 L 321 195 L 330 177 L 334 164 L 336 146 L 337 145 L 337 129 L 333 107 L 319 79 Q 308 64 290 56 L 278 52 L 267 51 L 266 50 L 248 50 Z "/>
    <path fill="#1a1a1a" d="M 250.5 300 Q 265.2 297.8 270 305.5 L 272 311.5 L 272 332.5 L 273.5 334 L 296.5 334 L 304 339.5 L 305 341.5 L 305 357.5 L 299.5 364 L 297.5 365 L 273.5 365 L 272 366.5 L 272 388.5 Q 270.8 394.3 266.5 397 L 259.5 399 L 253.5 399 L 248.5 398 L 243 394.5 L 241 390.5 L 241 366.5 L 239.5 365 L 214.5 365 L 209 360.5 L 207 356.5 L 207 342.5 L 211.5 336 L 215.5 334 L 239.5 334 L 241 332.5 L 241 308.5 L 245.5 302 L 250.5 300 Z M 252 308 L 249 309 L 248 312 L 248 337 L 247 339 L 241 342 L 217 342 L 215 344 L 215 356 L 217 357 L 242 357 L 245 358 L 248 363 L 248 388 L 249 390 L 251 391 L 262 391 L 264 389 L 264 363 L 265 361 L 272 357 L 296 357 L 298 355 Q 300 347 297 344 L 296 342 L 272 342 L 265 339 L 264 337 L 264 311 L 262 308 L 252 308 Z "/>
  </g>
</svg>
