<svg xmlns="http://www.w3.org/2000/svg" width="512" height="512" viewBox="0 0 512 512">
  <g id="color">
    <path fill="#ffffff" d="M 368.5 36 L 379 36.5 L 368.5 37 L 368.5 36 Z "/>
    <path fill="#ffffff" d="M 359.5 37 L 366 37.5 L 359.5 38 L 359.5 37 Z "/>
    <path fill="#ffffff" d="M 380.5 37 L 387 37.5 L 380.5 38 L 380.5 37 Z "/>
    <path fill="#ffffff" d="M 348.5 39 L 351 39.5 L 345.5 41 L 345.5 40 L 348.5 39 Z "/>
    <path fill="#ffffff" d="M 394.5 39 L 401 40.5 L 398.5 41 L 394.5 40 L 394.5 39 Z "/>
    <path fill="#ffffff" d="M 408.5 43 L 412 44.5 L 410.5 45 L 408.5 43 Z "/>
    <path fill="#ffffff" d="M 329.5 46 L 328.5 48 L 326.5 49 L 327.5 47 L 329.5 46 Z "/>
    <path fill="#ffffff" d="M 324.5 49 L 323.5 51 L 321.5 52 L 322.5 50 L 324.5 49 Z "/>
    <path fill="#ffffff" d="M 421.5 49 L 425 51.5 L 423.5 51 L 421.5 49 Z "/>
    <path fill="#ffffff" d="M 277.5 86 L 273.5 91 L 272 90.5 L 277.5 86 Z "/>
    <path fill="#ffffff" d="M 458.5 86 L 461 89.5 L 459 88.5 L 458.5 86 Z "/>
    <path fill="#ffffff" d="M 468.5 105 L 470 108.5 L 469 108.5 L 468.5 105 Z "/>
    <path fill="#ffffff" d="M 250.5 109 L 243.5 117 L 242 116.5 L 250.5 109 Z "/>
    <path fill="#ffffff" d="M 476.5 133 L 477 151.5 L 476 151.5 L 476.5 133 Z "/>
    <path fill="#ffffff" d="M 473.5 163 L 474 164.5 L 472.5 168 L 472 165.5 L 473.5 163 Z "/>
    <path fill="#ffffff" d="M 458.5 192 L 456 195.5 L 451.5 201 L 455 196.5 L 458.5 192 Z "/>
    <path fill="#ffffff" d="M 53.5 326 L 51 329.5 L 48.5 333 L 50 330.5 L 53.5 326 Z "/>
    <path fill="#ffffff" d="M 44.5 339 L 44 340.5 L 42.5 343 L 43 341.5 L 44.5 339 Z "/>
    <path fill="#ffffff" d="M 41.5 344 L 42 345.5 L 39.5 351 L 39 348.5 L 41.5 344 Z "/>
    <path fill="#ffffff" d="M 36.5 361 L 37 372.5 L 36 372.5 L 36.5 361 Z "/>
    <path fill="#ffffff" d="M 39.5 384 L 41 388.5 L 40 388.5 L 39.5 384 Z "/>
    <path fill="#ffffff" d="M 43.5 395 L 45 398.5 L 44 398.5 L 43.5 395 Z "/>
    <path fill="#ffffff" d="M 55.5 416 L 65 427.5 L 60 423.5 L 55.5 416 Z "/>
    <path fill="#ffffff" d="M 116.5 468 L 122 470.5 L 120.5 471 Q 116.5 470.5 116.5 468 Z "/>
    <path fill="#ffffff" d="M 123.5 471 L 130 473.5 L 128.5 474 L 123.5 472 L 123.5 471 Z "/>
    <path fill="#ffffff" d="M 166.5 472 L 168 472.5 L 164.5 474 L 164.5 473 L 166.5 472 Z "/>
    <path fill="#ffffff" d="M 136.5 475 L 141 475.5 L 136.5 476 L 136.5 475 Z "/>
    <path fill="#ffffff" d="M 142.5 476 L 154 476.5 L 142.5 477 L 142.5 476 Z "/>
    <path fill="#ffd43b" d="M 369.5 51 L 380 51.5 L 369.5 52 L 369.5 51 Z "/>
    <path fill="#ffa94d" d="M 360.5 52 L 387.5 52 L 402.5 56 L 417.5 63 L 435 77.5 L 437 80.5 L 448 94.5 L 460 120.5 L 463 132.5 L 463 152.5 Q 456.9 174.9 442.5 189 Q 440.3 188.3 441 190.5 L 422 208.5 L 403 229.5 L 403 231 L 400 232.5 L 391 244 L 388 245.5 L 357.5 279 L 355 280.5 L 308.5 328 Q 306.3 327.3 307 329.5 L 292 342 L 287.5 348 L 278 355 L 276.5 358 L 273.5 360 L 264 368 Q 265.1 370.7 262.5 370 L 221 407.5 L 219.5 410 L 210 417.5 L 206.5 422 Q 204.3 421.3 205 423.5 L 178.5 447 L 162.5 457 Q 154.6 461.6 140.5 460 L 130.5 457 L 109.5 447 Q 93.9 437.1 82 423.5 L 78 417 Q 75.3 418.1 76 415.5 Q 71.6 413 71 408 Q 68.3 409.1 69 406.5 Q 58.7 394.8 54 377.5 Q 56.5 376 53 374.5 L 53 359.5 L 57 349.5 L 69 332.5 L 96 303.5 L 102 295 L 105 293.5 L 109 287 Q 111.7 288.1 111 285.5 L 120 274 Q 122.7 275.1 122 272.5 L 181.5 201 Q 183.8 201.8 183 199.5 L 190.5 191 Q 192.8 191.8 192 189.5 L 205 176.5 L 205 175 L 208 173.5 Q 207.3 171.3 209.5 172 L 219 162.5 L 219 161 L 222 159.5 Q 221.3 157.3 223.5 158 L 242 140.5 Q 241.3 138.3 243.5 139 L 252 132 L 254.5 128 L 257.5 126 Q 274.4 108.4 294 95 Q 292.9 92.3 295.5 93 L 330.5 63 L 344.5 56 L 360.5 52 Z M 281 137 L 275 139 L 266 145 L 234 175 L 228 182 L 224 185 Q 225 187 223 186 L 221 189 L 219 190 L 171 240 Q 172 242 170 241 L 151 263 Q 146 268 144 278 Q 144 286 148 291 L 163 307 Q 162 309 165 308 L 189 333 L 189 334 L 191 334 L 216 358 L 226 364 L 235 364 L 252 353 L 307 301 L 313 294 L 317 291 L 318 288 L 322 286 Q 321 283 324 284 L 325 281 L 327 281 L 337 271 Q 336 268 339 269 L 344 263 Q 346 264 345 262 L 349 259 Q 348 256 351 257 L 354 253 L 357 251 L 366 240 L 372 229 L 371 217 L 364 208 Q 365 205 363 206 L 347 189 Q 344 190 345 188 L 339 182 L 337 180 L 301 145 Q 298 146 299 144 L 293 138 L 281 137 Z "/>
    <path fill="#ffa94d" d="M 266.5 193 L 268.5 193 L 280 201.5 Q 282.3 204.7 281 211.5 L 273.5 221 L 265.5 222 L 259 217.5 L 255 206.5 L 258.5 200 L 264 196.5 L 266.5 193 Z "/>
    <path fill="#ffa94d" d="M 264.5 264 Q 271.8 262.8 273 267.5 L 274 275.5 L 268.5 283 Q 265.3 287.3 256.5 286 L 251 281.5 Q 247.8 278.2 249 270.5 L 250 268 L 253.5 266 L 258.5 266 L 260.5 267 L 264.5 264 Z "/>
    <path fill="#9775fa" d="M 283.5 147 L 289.5 149 L 308 166.5 Q 307.3 168.8 309.5 168 L 312.5 172 L 318 176.5 L 329.5 189 Q 331.8 188.3 331 190.5 L 334 192 L 339.5 199 Q 341.8 198.3 341 200.5 L 357 216.5 Q 360.9 219.1 360 226.5 L 354 235.5 L 322.5 268 Q 320.3 267.3 321 269.5 L 314 275.5 L 312.5 278 Q 310.3 277.3 311 279.5 L 304 285.5 Q 304.8 287.8 302.5 287 L 297 294 L 295.5 294 L 287 302.5 Q 287.8 304.8 285.5 304 L 244.5 343 L 235.5 350 L 228.5 352 L 213.5 340 L 159 285.5 Q 155.3 283.3 156 276.5 L 161 268.5 L 179 247.5 L 237.5 186 L 247 177.5 L 250.5 173 L 274.5 151 L 283.5 147 Z M 267 192 L 264 193 L 263 197 L 259 199 L 255 204 Q 253 214 258 218 L 266 223 Q 274 224 277 220 L 282 211 L 281 202 L 271 193 L 267 192 Z M 265 263 L 263 264 Q 261 267 260 265 L 252 266 L 248 271 L 248 279 L 251 284 L 257 287 Q 264 288 268 285 L 275 277 Q 276 268 273 265 L 270 263 L 265 263 Z "/>
    <path fill="#f783ac" d="M 263.5 195 L 264 196.5 L 260.5 199 L 260.5 198 L 263 196.5 L 263.5 195 Z "/>
    <path fill="#f783ac" d="M 255.5 210 L 258 215.5 L 256 214.5 L 255.5 210 Z "/>
    <path fill="#f783ac" d="M 258.5 217 L 265.5 222 L 271.5 222 L 274.5 220 L 273.5 222 L 265.5 223 Q 259.5 221.8 258.5 217 Z "/>
    <path fill="#f783ac" d="M 264.5 263 Q 269.8 261.8 271 264.5 L 269.5 264 Q 263.5 263 261.5 266 L 262.5 264 L 264.5 263 Z "/>
    <path fill="#f783ac" d="M 251.5 266 L 250 268.5 L 248.5 273 L 248 270.5 L 251.5 266 Z "/>
    <path fill="#f783ac" d="M 274.5 274 L 275 276.5 L 267.5 285 L 265.5 286 L 266.5 284 L 273 278.5 L 274.5 274 Z "/>
    <path fill="#f783ac" d="M 248.5 275 L 252 283.5 L 251 283.5 Q 246.7 280.7 248.5 275 Z "/>
  </g>
  <g id="line">
    <path fill="#1a1a1a" d="M 366.5 37 L 388.5 38 L 405.5 42 Q 430.9 51.6 447 70.5 L 457 83.5 L 471 111.5 L 476 132.5 L 476 152.5 L 474 162.5 L 467 179.5 L 451 201.5 L 424 229.5 L 378 281.5 L 329.5 331 L 291 366.5 Q 291.8 368.8 289.5 368 L 202.5 448 L 182.5 464 L 163.5 474 L 154.5 476 L 141.5 476 L 130.5 474 L 106.5 464 L 79 444 L 74.5 438 L 72 436.5 Q 56.5 420 45 399.5 L 38 379.5 L 37 360.5 L 42 343.5 L 54 325.5 L 101 272.5 L 136 228.5 L 182 176.5 L 182 175 L 185 173.5 L 186.5 171 Q 188.8 171.8 188 169.5 L 215 143.5 L 216.5 141 L 219.5 139 L 252.5 108 L 314.5 56 L 330.5 46 L 340.5 42 Q 347.5 42 351.5 39 L 365.5 38 L 366.5 37 Z M 370 51 L 345 56 L 325 67 L 257 126 L 230 152 Q 227 151 228 154 L 221 160 Q 222 162 220 161 L 218 164 L 216 165 L 186 196 Q 149 236 116 281 L 74 327 L 60 345 L 53 359 L 53 376 L 59 392 Q 68 408 80 422 L 105 444 Q 120 454 140 460 Q 153 462 161 458 L 179 447 L 306 331 Q 355 284 401 233 Q 400 230 403 231 L 403 230 L 450 181 L 460 163 L 463 154 L 463 144 L 464 143 L 463 132 L 456 110 Q 449 92 437 80 Q 426 67 411 59 L 388 52 L 370 51 Z "/>
    <path fill="#1a1a1a" d="M 280.5 137 L 288.5 137 L 298 142 L 299.5 145 L 316 159.5 Q 315.3 161.8 317.5 161 L 359 201.5 L 371 216.5 L 372 228.5 L 362 244.5 L 329.5 278 L 252.5 352 L 234.5 364 L 226.5 364 Q 213.7 358.7 205.5 349 L 157 300.5 L 155 297.5 L 146 286.5 L 144 278.5 L 146 270.5 L 149 265.5 L 172 238 Q 174.7 239.1 174 236.5 L 182 227 Q 184.7 228.1 184 225.5 L 216.5 192 L 255.5 154 L 257 154 L 258.5 151 L 271.5 141 L 280.5 137 Z M 284 147 L 275 151 L 251 173 L 247 178 L 238 186 L 179 248 L 161 269 L 156 277 Q 155 283 159 286 L 214 340 L 229 352 L 236 350 L 245 343 L 286 304 Q 288 305 287 303 L 296 294 L 297 294 L 303 287 Q 305 288 304 286 L 311 280 Q 310 277 313 278 L 314 276 L 321 270 Q 320 267 323 268 L 354 236 L 360 227 Q 361 219 357 217 L 341 201 Q 342 198 340 199 L 334 192 L 331 191 Q 332 188 330 189 L 318 177 L 313 172 L 310 168 Q 307 169 308 167 L 290 149 L 284 147 Z "/>
  </g>
</svg>
