<svg xmlns="http://www.w3.org/2000/svg" width="512" height="512" viewBox="0 0 512 512">
  <g id="color">
    <path fill="#ffffff" d="M 463.5 48 L 468 48.5 L 463.5 49 L 463.5 48 Z "/>
    <path fill="#ffffff" d="M 452.5 50 L 456 50.5 L 448.5 52 L 448.5 51 L 452.5 50 Z "/>
    <path fill="#ffffff" d="M 436.5 53 L 441 53.5 L 431.5 55 L 431.5 54 L 436.5 53 Z "/>
    <path fill="#ffffff" d="M 468.5 56 L 467.5 58 L 463.5 59 L 463.5 58 L 468.5 56 Z "/>
    <path fill="#ffffff" d="M 413.5 57 L 418 57.5 L 409.5 59 L 409.5 58 L 413.5 57 Z "/>
    <path fill="#ffffff" d="M 277.5 60 L 287 60.5 L 277.5 61 L 277.5 60 Z "/>
    <path fill="#ffffff" d="M 454.5 60 L 457 60.5 L 451.5 62 L 451.5 61 L 454.5 60 Z "/>
    <path fill="#ffffff" d="M 382.5 63 L 386 63.5 L 378.5 65 L 378.5 64 L 382.5 63 Z "/>
    <path fill="#ffffff" d="M 439.5 63 L 443 63.5 L 435.5 65 L 435.5 64 L 439.5 63 Z "/>
    <path fill="#ffffff" d="M 423.5 66 L 427 66.5 L 418.5 68 L 418.5 67 L 423.5 66 Z "/>
    <path fill="#ffffff" d="M 236.5 69 L 239 69.5 L 233.5 71 L 233.5 70 L 236.5 69 Z "/>
    <path fill="#ffffff" d="M 296.5 70 L 298 73.5 L 297 73.5 L 296.5 70 Z "/>
    <path fill="#ffffff" d="M 318.5 76 L 322 76.5 L 315.5 78 L 315.5 77 L 318.5 76 Z "/>
    <path fill="#ffffff" d="M 371.5 76 L 375 76.5 L 367.5 78 L 367.5 77 L 371.5 76 Z "/>
    <path fill="#ffffff" d="M 223.5 78 L 223 79.5 L 222.5 94 L 222 79.5 L 223.5 78 Z "/>
    <path fill="#ffffff" d="M 357.5 79 L 361 79.5 L 353.5 81 L 353.5 80 L 357.5 79 Z "/>
    <path fill="#ffffff" d="M 322.5 86 L 326 86.5 L 319.5 88 L 319.5 87 L 322.5 86 Z "/>
    <path fill="#ffffff" d="M 308.5 89 L 311 89.5 L 305.5 91 L 305.5 90 L 308.5 89 Z "/>
    <path fill="#ffffff" d="M 295.5 92 L 298 92.5 L 292.5 94 L 292.5 93 L 295.5 92 Z "/>
    <path fill="#ffffff" d="M 222.5 95 L 221.5 97 L 218 96.5 L 222.5 95 Z "/>
    <path fill="#ffffff" d="M 282.5 95 L 285 95.5 L 284.5 97 L 286 97.5 L 281 98 L 282.5 95 Z "/>
    <path fill="#ffffff" d="M 295.5 99 L 300 99.5 L 295.5 100 L 295.5 99 Z "/>
    <path fill="#ffffff" d="M 242.5 102 L 246 103.5 L 245.5 106 L 245 103 L 238.5 104 L 238.5 103 L 242.5 102 Z "/>
    <path fill="#ffffff" d="M 314.5 102 L 325 103.5 L 320.5 104 Q 319.3 101.8 314.5 103 L 314.5 102 Z "/>
    <path fill="#ffffff" d="M 276 103 L 278 103.5 L 277 104.5 L 276.5 113 L 276 103 Z "/>
    <path fill="#ffffff" d="M 172.5 105 L 176 105.5 L 168.5 107 L 168.5 106 L 172.5 105 Z "/>
    <path fill="#ffffff" d="M 334.5 105 L 339 105.5 L 334.5 106 L 334.5 105 Z "/>
    <path fill="#ffffff" d="M 340.5 106 L 345 106.5 L 340.5 107 L 340.5 106 Z "/>
    <path fill="#ffffff" d="M 143.5 111 L 147 111.5 L 139.5 113 L 139.5 112 L 143.5 111 Z "/>
    <path fill="#ffffff" d="M 195.5 111 L 199 111.5 L 191.5 113 L 191.5 112 L 195.5 111 Z "/>
    <path fill="#ffffff" d="M 373.5 111 L 383 112.5 L 378.5 113 L 373.5 112 L 373.5 111 Z "/>
    <path fill="#ffffff" d="M 320.5 112 L 325 112.5 L 320.5 113 L 320.5 112 Z "/>
    <path fill="#ffffff" d="M 245.5 113 L 246 139.5 L 245 142 L 241 141.5 L 245 139.5 L 245.5 113 Z "/>
    <path fill="#ffffff" d="M 123.5 115 L 128 115.5 L 119.5 117 L 119.5 116 L 123.5 115 Z "/>
    <path fill="#ffffff" d="M 176.5 115 L 180 115.5 L 172.5 117 L 172.5 116 L 176.5 115 Z "/>
    <path fill="#ffffff" d="M 338.5 115 L 343 115.5 L 338.5 116 L 338.5 115 Z "/>
    <path fill="#ffffff" d="M 397.5 115 L 402 115.5 L 397.5 116 L 397.5 115 Z "/>
    <path fill="#ffffff" d="M 277.5 116 L 278 135.5 L 277 135.5 L 277.5 116 Z "/>
    <path fill="#ffffff" d="M 106.5 118 L 111 118.5 L 102.5 120 L 102.5 119 L 106.5 118 Z "/>
    <path fill="#ffffff" d="M 161.5 118 L 165 118.5 L 157.5 120 L 157.5 119 L 161.5 118 Z "/>
    <path fill="#ffffff" d="M 357.5 118 L 366 119.5 L 362.5 120 L 357.5 119 L 357.5 118 Z "/>
    <path fill="#ffffff" d="M 415.5 118 L 426 119.5 L 421.5 120 Q 420.3 117.8 415.5 119 L 415.5 118 Z "/>
    <path fill="#ffffff" d="M 89.5 121 L 94 121.5 L 85.5 123 L 85.5 122 L 89.5 121 Z "/>
    <path fill="#ffffff" d="M 146.5 121 L 150 121.5 L 142.5 123 L 142.5 122 L 146.5 121 Z "/>
    <path fill="#ffffff" d="M 436.5 121 L 441 121.5 L 436.5 122 L 436.5 121 Z "/>
    <path fill="#ffffff" d="M 75.5 124 L 78 124.5 L 71.5 126 L 71.5 125 L 75.5 124 Z "/>
    <path fill="#ffffff" d="M 397.5 125 L 403 125.5 L 397.5 126 L 397.5 125 Z "/>
    <path fill="#ffffff" d="M 460.5 125 L 465 125.5 L 460.5 126 L 460.5 125 Z "/>
    <path fill="#ffffff" d="M 474.5 127 L 478 129.5 L 477.5 133 L 475.5 128 L 474.5 127 Z "/>
    <path fill="#ffffff" d="M 107.5 128 L 113 128.5 L 107.5 129 L 107.5 128 Z "/>
    <path fill="#ffffff" d="M 416.5 128 L 422 128.5 L 416.5 129 L 416.5 128 Z "/>
    <path fill="#ffffff" d="M 90.5 131 L 95 131.5 L 90.5 132 L 90.5 131 Z "/>
    <path fill="#ffffff" d="M 436.5 131 L 442 131.5 L 436.5 132 L 436.5 131 Z "/>
    <path fill="#ffffff" d="M 38.5 133 L 40 133.5 L 36 136.5 L 37 138.5 L 35 137.5 L 38.5 133 Z "/>
    <path fill="#ffffff" d="M 73.5 134 L 78 134.5 L 69.5 136 L 69.5 135 L 73.5 134 Z "/>
    <path fill="#ffffff" d="M 456.5 134 L 461 134.5 L 456.5 135 L 456.5 134 Z "/>
    <path fill="#ffffff" d="M 475.5 134 L 474.5 136 L 462 135.5 L 474.5 135 L 475.5 134 Z "/>
    <path fill="#ffffff" d="M 58.5 137 L 62 137.5 L 54.5 139 L 54.5 138 L 58.5 137 Z "/>
    <path fill="#ffffff" d="M 278.5 138 L 280.5 141 L 297 141.5 L 280.5 142 Q 276.9 140.9 278.5 138 Z "/>
    <path fill="#ffffff" d="M 38.5 140 L 44 140.5 L 38.5 141 L 38.5 140 Z "/>
    <path fill="#ffffff" d="M 235.5 142 L 240 142.5 L 235.5 143 L 235.5 142 Z "/>
    <path fill="#ffffff" d="M 224.5 143 L 230 143.5 L 224.5 144 L 224.5 143 Z "/>
    <path fill="#ffffff" d="M 301.5 143 L 306 145.5 L 304.5 145 Q 300.7 144.8 301.5 143 Z "/>
    <path fill="#ffffff" d="M 311.5 151 L 314 155.5 L 313 155.5 L 311.5 151 Z "/>
    <path fill="#ffffff" d="M 207.5 155 L 208 156.5 L 207 157.5 L 207 168.5 L 205.5 170 L 186 169.5 L 206 169 L 206 157.5 L 207.5 155 Z "/>
    <path fill="#ffffff" d="M 315.5 166 L 325 166.5 L 315.5 167 L 315.5 166 Z "/>
    <path fill="#ffffff" d="M 326.5 167 L 334 167.5 L 326.5 168 L 326.5 167 Z "/>
    <path fill="#ffffff" d="M 177.5 170 L 184 170.5 L 177.5 171 L 177.5 170 Z "/>
    <path fill="#ffffff" d="M 378.5 192 L 385 199.5 L 381 196.5 L 378.5 192 Z "/>
    <path fill="#ffffff" d="M 127.5 207 L 127 208.5 L 124.5 212 L 126 209.5 L 127.5 207 Z "/>
    <path fill="#ffffff" d="M 392.5 211 L 395 214.5 L 393 213.5 L 392.5 211 Z "/>
    <path fill="#ffffff" d="M 123.5 213 L 123 214.5 L 121.5 217 L 122 215.5 L 123.5 213 Z "/>
    <path fill="#ffffff" d="M 395.5 216 L 398 219.5 L 396 218.5 L 395.5 216 Z "/>
    <path fill="#ffffff" d="M 120.5 218 L 120 219.5 L 118.5 222 L 119 220.5 L 120.5 218 Z "/>
    <path fill="#ffffff" d="M 399.5 223 L 402 226.5 L 400 225.5 L 399.5 223 Z "/>
    <path fill="#ffffff" d="M 114.5 228 L 115 229.5 L 112.5 233 L 113 231.5 L 114.5 228 Z "/>
    <path fill="#ffffff" d="M 408.5 240 L 410 243.5 L 409 243.5 L 408.5 240 Z "/>
    <path fill="#ffffff" d="M 234.5 243 L 240.5 243 L 246 246 L 252 258.5 L 253 269.5 L 252 269.5 L 251.5 266 L 250.5 268 L 250 261.5 L 251 258.5 L 249 253 L 247 252.5 L 247 250.5 L 245.5 248 Q 244.3 250.3 243 247.5 Q 245.3 246.2 242.5 245 L 239.5 246 L 239.5 244 L 234 244.5 L 234.5 246 L 231.5 245 L 230 245.5 L 234.5 243 Z "/>
    <path fill="#ffffff" d="M 300.5 243 Q 306.6 241.9 309 244.5 L 306.5 246 L 306.5 244 L 301 244.5 L 303 245.5 L 299.5 246 L 298 245.5 Q 299.1 248.8 296.5 248 L 293 250.5 L 293.5 252 L 292 251.5 L 289.5 258 L 289 255.5 Q 291.3 248.8 296.5 245 L 300.5 243 Z "/>
    <path fill="#ffffff" d="M 106.5 245 L 107 246.5 L 105.5 249 L 105 247.5 L 106.5 245 Z "/>
    <path fill="#ffffff" d="M 310.5 245 L 317 253.5 L 316 253.5 L 315.5 252 L 314 252.5 L 313.5 249 Q 312 251.5 310.5 248 Q 308.3 248.8 309 246.5 L 310.5 245 Z "/>
    <path fill="#ffffff" d="M 228.5 246 L 231 247.5 L 225.5 252 L 224 251.5 L 219.5 260 L 219 258.5 Q 222.3 250.8 228.5 246 Z "/>
    <path fill="#ffffff" d="M 412.5 250 L 414 253.5 L 413 253.5 L 412.5 250 Z "/>
    <path fill="#ffffff" d="M 101.5 258 L 102 259.5 L 100.5 263 L 100 260.5 L 101.5 258 Z "/>
    <path fill="#ffffff" d="M 318.5 258 L 321 267.5 L 321 275.5 L 320 275.5 L 319.5 269 L 318.5 275 L 318 264.5 L 319 261.5 L 318.5 258 Z "/>
    <path fill="#ffffff" d="M 415.5 258 L 417 262.5 L 416 262.5 L 415.5 258 Z "/>
    <path fill="#ffffff" d="M 217.5 264 L 218 266.5 L 217 269.5 L 218 270.5 L 218 278.5 L 216 278.5 L 216 290.5 L 217.5 291 L 221.5 292 L 222.5 291 L 230.5 291 L 230.5 292 L 215 293 L 215 274.5 L 217.5 264 Z "/>
    <path fill="#ffffff" d="M 287.5 264 L 289 268.5 L 289 287.5 L 289 289.5 Q 288.2 292.1 291.5 291 L 291.5 292 Q 287 293 286 290.5 L 286 273.5 L 287 272.5 L 287.5 264 Z M 288 278 L 287 286 L 288 286 L 288 278 Z "/>
    <path fill="#ffffff" d="M 418.5 267 L 420 272.5 L 419 272.5 L 418.5 267 Z "/>
    <path fill="#ffffff" d="M 97.5 271 L 98 273.5 L 96.5 277 L 96 274.5 L 97.5 271 Z "/>
    <path fill="#ffffff" d="M 421.5 279 L 423 285.5 L 422 285.5 L 421.5 279 Z "/>
    <path fill="#ffffff" d="M 253.5 281 L 254 291 L 251.5 290 L 250.5 291 L 236.5 291 L 236.5 290 L 250.5 290 Q 251.5 290 251 285.5 L 252 285.5 L 252.5 290 L 253.5 281 Z "/>
    <path fill="#ffffff" d="M 296.5 288 L 316.5 289 L 319.5 288 L 322 288.5 L 321 291 L 315.5 290 L 306.5 290 L 305.5 291 L 294.5 291 L 294.5 290 L 301 289.5 L 296.5 289 L 296.5 288 Z "/>
    <path fill="#ffffff" d="M 225.5 289 L 233 289.5 L 225.5 290 L 225.5 289 Z "/>
    <path fill="#ffffff" d="M 425.5 297 L 426 301.5 L 425 301.5 L 425.5 297 Z "/>
    <path fill="#ffffff" d="M 91.5 300 L 92 304.5 L 91 304.5 L 91.5 300 Z "/>
    <path fill="#ffffff" d="M 426.5 304 L 427 308.5 L 426 308.5 L 426.5 304 Z "/>
    <path fill="#ffffff" d="M 90.5 306 L 91 313.5 L 90 313.5 L 90.5 306 Z "/>
    <path fill="#ffffff" d="M 427.5 314 L 428 322.5 L 427 322.5 L 427.5 314 Z "/>
    <path fill="#ffffff" d="M 89.5 316 L 90 325.5 L 89 325.5 L 89.5 316 Z "/>
    <path fill="#ffffff" d="M 428.5 330 L 429 343.5 L 428 343.5 L 428.5 330 Z "/>
    <path fill="#ffffff" d="M 89.5 343 L 90 354.5 L 89 354.5 L 89.5 343 Z "/>
    <path fill="#ffffff" d="M 427.5 350 L 428 357.5 L 427 357.5 L 427.5 350 Z "/>
    <path fill="#ffffff" d="M 90.5 357 L 91 363.5 L 90 363.5 L 90.5 357 Z "/>
    <path fill="#ffffff" d="M 426.5 363 L 427 367.5 L 426 367.5 L 426.5 363 Z "/>
    <path fill="#ffffff" d="M 91.5 365 L 92 369.5 L 91 369.5 L 91.5 365 Z "/>
    <path fill="#ffffff" d="M 425.5 369 L 426 374.5 L 425 374.5 L 425.5 369 Z "/>
    <path fill="#ffffff" d="M 422.5 387 L 423 390.5 L 421.5 394 L 421 391.5 L 422.5 387 Z "/>
    <path fill="#ffffff" d="M 96.5 392 L 98 397.5 L 97 397.5 L 96.5 392 Z "/>
    <path fill="#ffffff" d="M 416.5 410 L 417 411.5 L 415.5 414 L 415 412.5 L 416.5 410 Z "/>
    <path fill="#ffffff" d="M 102.5 412 L 105 417.5 L 104 417.5 L 102.5 412 Z "/>
    <path fill="#ffffff" d="M 413.5 418 L 414 419.5 L 411.5 424 L 411 422.5 L 413.5 418 Z "/>
    <path fill="#ffffff" d="M 108.5 425 L 111 429.5 L 109 428.5 L 108.5 425 Z "/>
    <path fill="#ffffff" d="M 407.5 431 L 407 432.5 L 404.5 437 L 405 435.5 L 407.5 431 Z "/>
    <path fill="#ffffff" d="M 112.5 433 L 115 436.5 L 113 435.5 L 112.5 433 Z "/>
    <path fill="#ffffff" d="M 403.5 438 L 403 439.5 L 401.5 442 L 402 440.5 L 403.5 438 Z "/>
    <path fill="#ffffff" d="M 134.5 455 L 139 457.5 L 137.5 458 L 134.5 455 Z "/>
    <path fill="#ffffff" d="M 153.5 459 L 169 460.5 L 159.5 461 Q 158.3 458.8 153.5 460 L 153.5 459 Z "/>
    <path fill="#ffffff" d="M 371.5 459 L 378 459.5 L 371.5 460 L 371.5 459 Z "/>
    <path fill="#ffffff" d="M 337.5 460 L 370 460.5 L 337.5 461 L 337.5 460 Z "/>
    <path fill="#ffffff" d="M 173.5 461 L 181 461.5 L 173.5 462 L 173.5 461 Z "/>
    <path fill="#ffffff" d="M 300.5 461 L 320 461.5 L 300.5 462 L 300.5 461 Z "/>
    <path fill="#ffffff" d="M 188.5 462 L 200.5 462 L 202 463.5 L 200.5 463 L 188.5 463 L 188.5 462 Z "/>
    <path fill="#ffffff" d="M 266.5 462 L 285 462.5 L 266.5 463 L 266.5 462 Z "/>
    <path fill="#ffffff" d="M 205.5 463 L 207 463.5 L 203.5 465 L 203.5 464 L 205.5 463 Z "/>
    <path fill="#ffffff" d="M 208.5 463 L 262 463.5 L 208.5 464 L 208.5 463 Z "/>
    <path fill="#4da3ff" d="M 260.5 178 L 324.5 178 L 325.5 179 L 339.5 180 L 352.5 184 Q 362.3 189.3 369 197.5 L 392 232.5 L 399 247.5 L 408 272.5 L 415 304.5 L 417 343.5 L 416 344.5 L 416 357.5 L 415 358.5 L 415 366.5 L 412 378.5 L 412 383.5 L 405 408.5 L 395 430.5 L 385.5 443 L 378.5 447 L 373.5 448 L 335 449 L 338 436.5 L 338 431.5 L 340 424.5 L 340 416.5 L 342 409.5 L 342 407.5 L 344 398.5 L 344 389.5 L 346 383.5 L 349 352.5 L 350 351.5 L 351 317.5 L 352 316.5 L 352 286.5 L 351 285.5 L 350 252.5 L 348 245.5 L 348 237.5 L 345 220.5 L 340 202.5 L 331.5 189 L 329 190.5 L 339 228.5 L 340 248.5 L 341 249.5 Q 339.3 257.7 342 261.5 L 341 263.5 L 343 273.5 L 343 330.5 L 341 340.5 L 341.5 342 Q 339.3 342.8 340 340.5 L 336 334 L 328.5 331 L 271.5 331 L 270.5 332 L 246.5 332 L 245.5 333 L 213.5 333 L 212.5 334 L 195.5 334 L 193.5 335 L 192 333.5 L 192 290.5 L 193 288.5 L 192 285.5 L 193 284.5 L 193 274.5 L 194 273.5 L 195 247.5 L 198 236.5 L 198 229.5 L 204 203.5 L 212.5 180 L 237.5 180 L 238.5 179 L 259.5 179 L 260.5 178 Z M 235 233 L 228 235 L 219 241 L 213 250 L 209 259 L 206 274 L 206 285 L 209 299 L 215 301 L 251 301 L 252 302 L 261 301 L 263 299 L 265 293 L 263 262 L 257 245 L 247 235 L 240 233 L 235 233 Z M 300 233 L 290 238 L 281 249 L 277 265 L 277 290 L 279 297 L 285 301 L 298 301 L 299 300 L 317 300 L 318 301 Q 324 302 328 300 L 332 295 Q 331 289 333 288 L 332 269 L 330 258 Q 328 248 322 242 L 312 234 L 300 233 Z "/>
    <path fill="#4da3ff" d="M 196.5 180 L 202 180 L 202 182.5 L 197 191.5 L 190 213.5 L 184 243.5 L 183 263.5 L 181 272.5 L 181 287.5 L 180 288.5 L 180 341.5 L 181 342.5 L 181 360.5 L 182 361.5 L 183 384.5 L 184 385.5 L 184 394.5 L 186 402.5 L 187 419.5 L 189 424.5 L 191 438.5 L 194 446.5 L 194 451 L 163.5 450 L 162.5 449 L 145.5 448 L 138.5 446 L 129 438.5 Q 119.8 427.2 114 412.5 L 105 381.5 L 104 370.5 L 102 363.5 L 102 356.5 L 101 355.5 L 101 315.5 L 102 314.5 L 102 304.5 L 104 298.5 L 105 287.5 L 116 251.5 L 127 228.5 L 140 208.5 L 150.5 196 L 168.5 184 L 179.5 181 L 195.5 181 L 196.5 180 Z "/>
    <path fill="#4da3ff" d="M 235 245 Q 239.3 244 240.5 247 L 243 246 Q 241.3 250.1 245.5 249 L 251 260.5 Q 248.5 262 250 267.5 L 252 270.5 L 252 284.5 L 251 287 L 249 287.5 L 251 288.5 L 233.5 290 Q 231.8 287.3 225.5 289 L 218.5 292 L 217 290.5 L 217 279.5 L 218 278.5 L 219 262.5 L 224 252 L 228 249.5 L 227.5 248 L 229.5 248 Q 232.1 248.7 231 246 L 233.5 246 L 235 246.5 L 235 245 Z "/>
    <path fill="#4da3ff" d="M 303.5 245 L 306 245.5 L 304 246.5 L 306.5 247 L 309 245.5 L 310.5 249 L 314 250 L 318 259.5 L 318 267.5 L 317 271.5 L 318 275 L 320 275.5 L 320 287.5 L 319 287.5 L 318.5 286 L 316.5 289 L 296.5 288 Q 294.8 290.8 289.5 290 Q 286.8 288.8 289 287.5 L 289 268.5 L 288 266.5 L 292 252 L 294 251.5 L 293.5 250 Q 296.8 251.1 296 248.5 L 298 248.5 Q 296.9 245.2 299.5 246 L 301.5 247 L 303.5 245 Z "/>
    <path fill="#ffd43b" d="M 279.5 69 Q 285.9 69.1 288 73.5 L 290 85 L 275.5 89 L 269 94.5 Q 270.5 100 268 101.5 L 268 130.5 L 269 131.5 L 269 142.5 L 273.5 149 L 278.5 151 L 295.5 151 L 302 154 L 304 157.5 L 305 166 L 296.5 166 L 295.5 167 L 272.5 167 L 271.5 168 L 247.5 168 L 246.5 169 L 214 169 L 215 159.5 L 219.5 154 L 247.5 150 L 253 145.5 L 254 143.5 L 254 115.5 L 253 114.5 L 252 97.5 L 249.5 94 Q 246.3 91.7 239.5 93 L 238.5 94 L 231 94 L 230 82.5 L 232.5 79 L 279.5 69 Z "/>
    <path fill="#66d9e8" d="M 274.5 176 L 318.5 176 L 319.5 177 L 341.5 179 Q 359.3 183.2 369 195.5 L 394 233.5 L 407 264.5 L 413 286.5 L 417 309.5 L 417 319.5 L 418 320.5 L 418 351.5 L 417 352.5 L 417 362.5 L 413 385.5 L 404 415.5 Q 397.5 432 386.5 444 L 376.5 449 L 335.5 451 L 333 449.5 L 338 425.5 L 339 392.5 L 340 391.5 L 340 345.5 L 336 336 L 330.5 333 L 325.5 332 L 292.5 332 L 291.5 333 L 253.5 333 L 252.5 334 L 200.5 335 L 199.5 336 L 191 336 L 191 283.5 L 192 282.5 L 193 253.5 L 194 252.5 L 198 222.5 L 203 201.5 L 205 198.5 L 210 180.5 L 212.5 178 L 251.5 178 L 252.5 177 L 273.5 177 L 274.5 176 Z M 261 178 L 260 179 L 239 179 L 238 180 L 213 180 L 204 204 L 198 230 L 198 237 L 195 248 L 194 274 L 193 275 L 193 285 L 192 286 L 193 289 L 192 291 L 192 334 L 194 335 L 196 334 L 213 334 L 214 333 L 246 333 L 247 332 L 271 332 L 272 331 L 329 331 L 336 334 L 340 341 Q 339 343 342 342 L 341 341 L 343 331 L 343 274 L 341 264 L 342 262 Q 339 258 341 250 L 340 249 L 339 229 L 329 191 L 332 189 L 340 203 L 345 221 L 348 238 L 348 246 L 350 253 L 351 286 L 352 287 L 352 317 L 351 318 L 350 352 L 349 353 L 346 384 L 344 390 L 344 399 L 342 408 L 342 410 L 340 417 L 340 425 L 338 432 L 338 437 L 335 449 L 374 448 L 379 447 L 386 443 L 395 431 L 405 409 L 412 384 L 412 379 L 415 367 L 415 359 L 416 358 L 416 345 L 417 344 L 415 305 L 408 273 L 399 248 L 392 233 L 369 198 Q 362 189 353 184 L 340 180 L 326 179 L 325 178 L 261 178 Z "/>
    <path fill="#66d9e8" d="M 184.5 179 L 203.5 179 L 204 181.5 L 199 190.5 L 195 201.5 L 194 208.5 L 192 211.5 L 185 247.5 L 183 277.5 L 182 278.5 L 182 352.5 L 183 353.5 L 183 367.5 L 184 368.5 L 185 389.5 L 186 390.5 L 189 421.5 L 191 426.5 L 193 440.5 L 197 451.5 Q 195.3 454.8 188.5 453 L 187.5 452 L 169.5 452 L 168.5 451 L 157.5 451 L 156.5 450 L 142.5 449 Q 131.2 444.8 125 435.5 L 113 413.5 L 103 379.5 L 101 360.5 L 100 359.5 L 100 348.5 L 99 347.5 L 99 322.5 L 100 321.5 L 100 309.5 L 101 308.5 L 103 290.5 Q 106.1 285.1 106 276.5 L 114 252.5 L 128 224.5 L 142 203.5 L 154.5 191 L 169.5 182 L 184.5 179 Z M 197 180 L 196 181 L 180 181 L 169 184 L 151 196 L 140 209 L 127 229 L 116 252 L 105 288 L 104 299 L 102 305 L 102 315 L 101 316 L 101 356 L 102 357 L 102 364 L 104 371 L 105 382 L 114 413 Q 120 427 129 439 L 139 446 L 146 448 L 163 449 L 164 450 L 194 451 L 194 447 L 191 439 L 189 425 L 187 420 L 186 403 L 184 395 L 184 386 L 183 385 L 182 362 L 181 361 L 181 343 L 180 342 L 180 289 L 181 288 L 181 273 L 183 264 L 184 244 L 190 214 L 197 192 L 202 183 L 202 180 L 197 180 Z "/>
    <path fill="#66d9e8" d="M 234.5 233 L 239.5 233 L 246.5 235 L 257 244.5 L 263 261.5 L 265 292.5 L 263 298.5 L 260.5 301 L 251.5 302 L 250.5 301 L 214.5 301 L 209 299 L 206 284.5 L 206 273.5 L 209 258.5 L 213 249.5 L 219 241 L 227.5 235 L 234.5 233 Z M 233 235 L 226 238 L 214 251 L 208 270 L 208 289 L 210 297 L 213 299 L 218 300 L 235 300 L 236 299 L 260 300 L 263 296 L 263 273 Q 260 271 262 265 L 260 255 L 256 246 L 246 236 Q 241 234 233 235 Z "/>
    <path fill="#66d9e8" d="M 299.5 233 L 311.5 234 L 322 241.5 Q 328 247.5 330 257.5 L 332 268.5 L 333 287.5 Q 330.5 289 332 294.5 L 327.5 300 Q 324.3 302.3 317.5 301 L 316.5 300 L 298.5 300 L 297.5 301 L 284.5 301 L 279 296.5 L 277 289.5 L 277 264.5 L 281 248.5 L 289.5 238 L 299.5 233 Z M 304 234 L 295 236 L 292 238 Q 285 242 282 251 L 278 271 L 278 284 L 281 298 Q 282 300 288 299 L 290 299 L 321 299 L 322 300 L 327 299 L 331 294 L 331 273 Q 329 271 330 266 L 327 252 L 322 244 Q 316 235 304 234 Z "/>
    <path fill="#66d9e8" d="M 234.5 244 L 240 244.5 L 234.5 245 L 234.5 244 Z "/>
    <path fill="#66d9e8" d="M 301.5 244 L 307 244.5 L 301.5 245 L 301.5 244 Z "/>
    <path fill="#66d9e8" d="M 231.5 245 L 230.5 247 L 228.5 248 L 229.5 246 L 231.5 245 Z "/>
    <path fill="#66d9e8" d="M 242.5 245 L 246.5 250 Q 244.8 246.9 243 248.5 L 244 247.5 L 242.5 245 Z "/>
    <path fill="#66d9e8" d="M 315.5 252 L 318 258.5 L 317 258.5 L 315.5 254 L 314 254.5 L 315.5 252 Z "/>
    <path fill="#66d9e8" d="M 249.5 255 L 251 259.5 L 250 259.5 L 249.5 255 Z "/>
    <path fill="#66d9e8" d="M 290.5 256 L 291 257.5 L 288.5 266 L 288 263.5 L 290.5 256 Z "/>
    <path fill="#66d9e8" d="M 218.5 263 L 219 266.5 L 217.5 270 L 217 267.5 L 218.5 263 Z "/>
    <path fill="#66d9e8" d="M 251.5 266 L 253 270.5 L 251 269.5 L 251.5 266 Z "/>
    <path fill="#66d9e8" d="M 319.5 269 L 320 274.5 L 319 274.5 L 319.5 269 Z "/>
    <path fill="#66d9e8" d="M 252.5 272 L 253 289.5 Q 251.8 292.3 250.5 290 L 223.5 291 L 223.5 290 L 250.5 289 L 252 289.5 L 252.5 272 Z "/>
    <path fill="#66d9e8" d="M 320.5 276 L 321 288.5 L 320 288.5 L 320.5 276 Z "/>
    <path fill="#66d9e8" d="M 216.5 278 L 217 290.5 L 216 290.5 L 216.5 278 Z "/>
    <path fill="#66d9e8" d="M 287.5 278 L 288 285.5 L 287 285.5 L 287.5 278 Z "/>
    <path fill="#66d9e8" d="M 294.5 289 L 301 289.5 L 289.5 291 L 289.5 290 L 294.5 289 Z "/>
    <path fill="#66d9e8" d="M 192 341 L 221.5 341 L 222.5 342 L 262.5 342 L 263.5 341 L 327.5 341 L 331 345.5 L 331 382.5 L 330 383.5 L 330 415.5 L 329 416.5 L 329 427.5 L 326 442.5 L 326 449.5 L 324.5 451 L 266.5 452 L 265.5 453 L 205 453 L 199 424.5 L 197 402.5 L 196 401.5 L 194 373.5 L 193 372.5 L 192 341 Z "/>
  </g>
  <g id="line">
    <path fill="#1a1a1a" d="M 461.5 49 Q 469.2 47.2 471 51.5 L 470 56 L 450.5 62 L 407.5 69 L 382.5 75 L 371.5 76 L 362.5 79 L 357.5 79 L 352.5 81 L 322.5 86 L 318.5 88 L 308.5 89 L 287.5 95 L 282.5 95 L 281 96.5 L 281.5 98 L 289.5 98 L 320.5 104 L 328.5 104 L 340.5 107 L 347.5 107 L 378.5 113 L 391.5 114 L 421.5 120 L 429.5 120 L 460.5 126 L 473.5 127 L 477 129.5 Q 478.9 134.9 475.5 134 L 474.5 135 L 461.5 135 L 441.5 131 L 427.5 130 L 421.5 128 L 415.5 128 L 402.5 125 L 384.5 123 L 378.5 121 L 366.5 120 L 361.5 118 L 330.5 114 L 276 103 L 276 112.5 L 277 113.5 L 277 135.5 L 278 139.5 L 280.5 142 L 297.5 142 Q 306.4 144.1 311 150.5 L 314 156.5 L 315 167 L 336.5 168 L 354.5 173 Q 367.1 177.9 375 187.5 Q 390.3 205.7 402 227.5 Q 411.7 245.3 418 266.5 L 424 290.5 L 426 308.5 L 427 309.5 L 428 349.5 L 427 350.5 L 427 362.5 L 425 369.5 L 424 382.5 L 417 409.5 L 404 437.5 L 392.5 452 L 382.5 458 L 371.5 459 L 370.5 460 L 300.5 461 L 299.5 462 L 266.5 462 L 265.5 463 L 205.5 463 L 202.5 464 L 200.5 462 L 181.5 462 L 180.5 461 L 169.5 461 L 168.5 460 L 159.5 460 L 158.5 459 Q 151 460.5 147.5 458 L 142.5 459 L 131.5 454 L 121 446 Q 106.2 426.5 98 399.5 L 98 395.5 L 96 391.5 L 92 372.5 L 92 365.5 L 90 356.5 L 89 326.5 L 90 325.5 L 90 314.5 L 91 313.5 L 92 296.5 L 102 256.5 L 109 239.5 L 124 212.5 L 144.5 187 Q 155 176.5 171.5 172 L 183.5 171 L 184.5 170 L 205.5 170 L 207 168.5 Q 205 152 214.5 147 L 223.5 144 L 245 142 L 246 139.5 L 246 113.5 Q 243.5 112 245 106.5 L 246 103.5 L 242.5 102 L 237.5 104 L 232.5 104 L 216.5 108 L 195.5 111 L 186.5 114 L 181.5 114 L 171.5 117 L 161.5 118 L 156.5 120 L 146.5 121 L 120.5 127 L 107.5 128 L 85.5 133 L 73.5 134 L 47.5 140 L 37 140 L 36 136.5 L 40.5 133 L 57.5 130 L 65.5 127 L 74.5 126 L 78.5 124 Q 90.5 123.5 99.5 120 L 105.5 120 L 116.5 117 L 122.5 117 L 161.5 108 L 171.5 107 L 180.5 104 L 185.5 104 L 210.5 98 L 221.5 97 L 223 95.5 L 223 79.5 L 226.5 74 L 239.5 69 L 261.5 65 L 270.5 62 L 287.5 61 L 295 67.5 L 299 77.5 L 299 81 L 317.5 78 L 326.5 75 L 336.5 74 L 341.5 72 L 351.5 71 L 356.5 69 L 366.5 68 L 376.5 65 L 381.5 65 L 391.5 62 L 396.5 62 L 423.5 56 L 451.5 52 L 461.5 49 Z M 280 69 L 233 79 L 230 83 L 231 94 L 239 94 L 240 93 Q 246 92 250 94 L 252 98 L 253 115 L 254 116 L 254 144 L 253 146 L 248 150 L 220 154 L 215 160 L 214 169 L 247 169 L 248 168 L 272 168 L 273 167 L 296 167 L 297 166 L 305 166 L 304 158 L 302 154 L 296 151 L 279 151 L 274 149 L 269 143 L 269 132 L 268 131 L 268 102 Q 271 100 269 95 L 276 89 L 290 85 L 288 74 Q 286 69 280 69 Z M 275 176 L 274 177 L 253 177 L 252 178 L 213 178 L 210 181 L 205 199 L 203 202 L 198 223 L 194 253 L 193 254 L 192 283 L 191 284 L 191 336 L 200 336 L 201 335 L 253 334 L 254 333 L 292 333 L 293 332 L 326 332 L 331 333 L 336 336 L 340 346 L 340 392 L 339 393 L 338 426 L 333 450 L 336 451 L 377 449 L 387 444 Q 397 432 404 416 L 413 386 L 417 363 L 417 353 L 418 352 L 418 321 L 417 320 L 417 310 L 413 287 L 407 265 L 394 234 L 369 196 Q 359 183 342 179 L 320 177 L 319 176 L 275 176 Z M 185 179 L 170 182 L 155 191 L 142 204 L 128 225 L 114 253 L 106 277 Q 106 285 103 291 L 101 309 L 100 310 L 100 322 L 99 323 L 99 348 L 100 349 L 100 360 L 101 361 L 103 380 L 113 414 L 125 436 Q 131 445 143 449 L 157 450 L 158 451 L 169 451 L 170 452 L 188 452 L 189 453 Q 195 455 197 452 L 193 441 L 191 427 L 189 422 L 186 391 L 185 390 L 184 369 L 183 368 L 183 354 L 182 353 L 182 279 L 183 278 L 185 248 L 192 212 L 194 209 L 195 202 L 199 191 L 204 182 L 204 179 L 185 179 Z M 192 341 L 193 373 L 194 374 L 196 402 L 197 403 L 199 425 L 205 453 L 266 453 L 267 452 L 325 451 L 326 450 L 326 443 L 329 428 L 329 417 L 330 416 L 330 384 L 331 383 L 331 346 L 328 341 L 264 341 L 263 342 L 223 342 L 222 341 L 192 341 Z "/>
    <path fill="#1a1a1a" d="M 303.5 234 Q 316.3 235.3 322 243.5 L 327 251.5 L 330 265.5 Q 328.5 271 331 272.5 L 331 293.5 L 326.5 299 L 321.5 300 L 320.5 299 L 289.5 299 L 287.5 299 Q 282.3 300.3 281 297.5 L 278 283.5 L 278 270.5 L 282 250.5 Q 284.9 242.4 291.5 238 L 294.5 236 L 303.5 234 Z M 301 243 L 297 245 Q 291 249 289 256 L 287 265 L 287 273 L 286 274 L 286 291 L 288 292 L 306 291 L 307 290 L 316 290 L 321 291 L 322 289 L 321 288 L 321 268 Q 319 266 320 262 L 315 250 L 307 243 L 301 243 Z "/>
    <path fill="#1a1a1a" d="M 232.5 235 Q 240.8 233.7 245.5 236 L 256 245.5 L 260 254.5 L 262 264.5 Q 260.3 270.8 263 272.5 L 263 295.5 L 259.5 300 L 235.5 299 L 234.5 300 L 217.5 300 L 212.5 299 L 210 296.5 L 208 288.5 L 208 269.5 L 214 250.5 L 225.5 238 L 232.5 235 Z M 235 243 L 229 246 L 221 255 L 216 268 L 215 293 L 231 292 L 232 291 L 254 291 L 254 282 L 253 281 L 253 264 L 250 253 L 246 246 L 241 243 L 235 243 Z "/>
  </g>
</svg>
