<svg xmlns="http://www.w3.org/2000/svg" width="512" height="512" viewBox="0 0 512 512">
  <g id="color">
    <path fill="#ffffff" d="M 263.5 36 L 270 36.5 L 263.5 37 L 263.5 36 Z "/>
    <path fill="#ffffff" d="M 279.5 36 L 286 36.5 L 279.5 37 L 279.5 36 Z "/>
    <path fill="#ffffff" d="M 247.5 47 L 248 53.5 L 247 53.5 L 247.5 47 Z "/>
    <path fill="#ffffff" d="M 300.5 47 L 301 53.5 L 300 53.5 L 300.5 47 Z "/>
    <path fill="#ffffff" d="M 246.5 56 L 247 61.5 L 246 61.5 L 246.5 56 Z "/>
    <path fill="#ffffff" d="M 301.5 56 L 302 63.5 L 301 63.5 L 301.5 56 Z "/>
    <path fill="#ffffff" d="M 218.5 62 L 225 62.5 L 218.5 63 L 218.5 62 Z "/>
    <path fill="#ffffff" d="M 208.5 63 L 213 63.5 L 208.5 64 L 208.5 63 Z "/>
    <path fill="#ffffff" d="M 329.5 63 L 334 63.5 L 329.5 64 L 329.5 63 Z "/>
    <path fill="#ffffff" d="M 199.5 65 L 201 65.5 L 194.5 70 L 197.5 66 L 199.5 65 Z "/>
    <path fill="#ffffff" d="M 306.5 65 L 302.5 70 L 302 67.5 Q 304.2 69.2 306.5 65 Z "/>
    <path fill="#ffffff" d="M 345.5 66 L 350 71.5 L 349 71.5 L 345.5 66 Z "/>
    <path fill="#ffffff" d="M 245.5 70 L 246 78.5 L 245 78.5 L 245.5 70 Z "/>
    <path fill="#ffffff" d="M 351.5 80 L 352 84.5 L 351 84.5 L 351.5 80 Z "/>
    <path fill="#ffffff" d="M 191.5 82 L 192 88.5 L 191 88.5 L 191.5 82 Z "/>
    <path fill="#ffffff" d="M 242.5 82 L 243.5 88 L 245 87.5 L 244.5 97 L 243 95.5 L 242.5 82 Z "/>
    <path fill="#ffffff" d="M 352.5 90 L 353 100.5 L 352 100.5 L 352.5 90 Z "/>
    <path fill="#ffffff" d="M 190.5 92 L 191 100.5 L 190 100.5 L 190.5 92 Z "/>
    <path fill="#ffffff" d="M 189.5 104 L 190 119.5 L 189 119.5 L 189.5 104 Z "/>
    <path fill="#ffffff" d="M 353.5 104 L 354.5 109 L 356 108.5 L 353 110 L 353.5 104 Z "/>
    <path fill="#ffffff" d="M 363.5 105 L 380 105.5 L 363.5 106 L 363.5 105 Z "/>
    <path fill="#ffffff" d="M 391.5 111 Q 394.6 112.4 394 117.5 L 393 117.5 L 391.5 111 Z "/>
    <path fill="#ffffff" d="M 395.5 127 L 396 131.5 L 395 131.5 L 395.5 127 Z "/>
    <path fill="#ffffff" d="M 188.5 130 L 189 159.5 L 188 159.5 L 188.5 130 Z "/>
    <path fill="#ffffff" d="M 396.5 137 L 397 142.5 L 396 142.5 L 396.5 137 Z "/>
    <path fill="#ffffff" d="M 397.5 147 L 398 159.5 L 397 159.5 L 397.5 147 Z "/>
    <path fill="#ffffff" d="M 398.5 163 L 399 181.5 L 398 181.5 L 398.5 163 Z "/>
    <path fill="#ffffff" d="M 188.5 186 L 189 218.5 L 188 218.5 L 188.5 186 Z "/>
    <path fill="#ffffff" d="M 136.5 187 L 145 187.5 L 136.5 188 L 136.5 187 Z "/>
    <path fill="#ffffff" d="M 121.5 193 L 120.5 195 L 118.5 196 L 119.5 194 L 121.5 193 Z "/>
    <path fill="#ffffff" d="M 111.5 202 L 112 203.5 L 110.5 211 L 110 204.5 L 111.5 202 Z "/>
    <path fill="#ffffff" d="M 166.5 206 L 170 210.5 L 168 209.5 L 166.5 206 Z "/>
    <path fill="#ffffff" d="M 171.5 214 L 174 218.5 L 173 218.5 L 171.5 214 Z "/>
    <path fill="#ffffff" d="M 399.5 222 L 400 228.5 L 399 228.5 L 399.5 222 Z "/>
    <path fill="#ffffff" d="M 114.5 223 L 116 226.5 L 115 226.5 L 114.5 223 Z "/>
    <path fill="#ffffff" d="M 180.5 233 L 185 240.5 L 183 239.5 L 180.5 233 Z "/>
    <path fill="#ffffff" d="M 118.5 234 L 121 240.5 L 120 240.5 L 118.5 234 Z "/>
    <path fill="#ffffff" d="M 187.5 235 L 188 244 Q 184.2 245.5 185 242.5 L 187 242.5 L 187.5 235 Z "/>
    <path fill="#ffffff" d="M 400.5 237 L 401 246.5 L 400 246.5 L 400.5 237 Z "/>
    <path fill="#ffffff" d="M 123.5 247 L 125 251.5 L 124 251.5 L 123.5 247 Z "/>
    <path fill="#ffffff" d="M 401.5 256 L 402 298.5 L 401 298.5 L 401.5 256 Z "/>
    <path fill="#ffffff" d="M 132.5 274 L 134 277.5 L 133 277.5 L 132.5 274 Z "/>
    <path fill="#ffffff" d="M 141.5 299 L 143 302.5 L 142 302.5 L 141.5 299 Z "/>
    <path fill="#ffffff" d="M 400.5 305 L 401 311.5 L 400 311.5 L 400.5 305 Z "/>
    <path fill="#ffffff" d="M 146.5 311 L 148 314.5 L 147 314.5 L 146.5 311 Z "/>
    <path fill="#ffffff" d="M 399.5 317 L 400 321.5 L 399 321.5 L 399.5 317 Z "/>
    <path fill="#ffffff" d="M 149.5 318 L 153 325.5 L 152 325.5 L 149.5 318 Z "/>
    <path fill="#ffffff" d="M 398.5 324 L 399 328.5 L 398 328.5 L 398.5 324 Z "/>
    <path fill="#ffffff" d="M 153.5 327 L 157 333.5 L 156 333.5 L 153.5 327 Z "/>
    <path fill="#ffffff" d="M 157.5 335 L 160 338.5 L 158 337.5 L 157.5 335 Z "/>
    <path fill="#ffffff" d="M 162.5 344 L 165 347.5 L 163 346.5 L 162.5 344 Z "/>
    <path fill="#ffffff" d="M 393.5 346 L 394 348.5 L 392.5 351 L 392 349.5 L 393.5 346 Z "/>
    <path fill="#ffffff" d="M 171.5 359 L 174 362.5 L 172 361.5 L 171.5 359 Z "/>
    <path fill="#ffffff" d="M 386.5 364 L 387 365.5 L 383.5 371 L 384 369.5 L 386.5 364 Z "/>
    <path fill="#ffffff" d="M 179.5 371 L 184 376.5 L 181 374.5 L 179.5 371 Z "/>
    <path fill="#ffffff" d="M 377.5 380 L 376 382.5 L 373.5 386 L 375 383.5 L 377.5 380 Z "/>
    <path fill="#ffffff" d="M 197.5 394 L 202 398.5 L 202 417.5 L 201 417.5 L 201 398.5 L 197.5 394 Z "/>
    <path fill="#ffffff" d="M 365.5 402 L 366 411.5 L 365 411.5 L 365.5 402 Z "/>
    <path fill="#ffffff" d="M 366.5 415 L 367 420.5 L 366 420.5 L 366.5 415 Z "/>
    <path fill="#ffffff" d="M 367.5 422 L 368 426.5 L 367 426.5 L 367.5 422 Z "/>
    <path fill="#ffffff" d="M 199.5 429 L 200 433.5 L 199 433.5 L 199.5 429 Z "/>
    <path fill="#ffffff" d="M 198.5 435 L 199 439.5 L 198 439.5 L 198.5 435 Z "/>
    <path fill="#ffffff" d="M 370.5 441 L 373 450.5 L 372 450.5 L 370.5 441 Z "/>
    <path fill="#ffffff" d="M 374.5 456 L 375 462.5 L 374 462.5 L 374.5 456 Z "/>
    <path fill="#ffffff" d="M 193.5 457 L 194 463.5 L 193 463.5 L 193.5 457 Z "/>
    <path fill="#ffffff" d="M 194.5 465 L 197 468.5 L 194 466.5 L 194.5 465 Z "/>
    <path fill="#ffffff" d="M 354.5 472 L 361 472.5 L 354.5 473 L 354.5 472 Z "/>
    <path fill="#ffffff" d="M 207.5 473 L 212 473.5 L 207.5 474 L 207.5 473 Z "/>
    <path fill="#ffffff" d="M 344.5 473 L 352 473.5 L 344.5 474 L 344.5 473 Z "/>
    <path fill="#ffffff" d="M 216.5 474 L 221 474.5 L 216.5 475 L 216.5 474 Z "/>
    <path fill="#ffffff" d="M 333.5 474 L 340 474.5 L 333.5 475 L 333.5 474 Z "/>
    <path fill="#ffffff" d="M 226.5 475 L 233 475.5 L 226.5 476 L 226.5 475 Z "/>
    <path fill="#ffffff" d="M 317.5 475 L 326 475.5 L 317.5 476 L 317.5 475 Z "/>
    <path fill="#ffffff" d="M 241.5 476 L 256 476.5 L 241.5 477 L 241.5 476 Z "/>
    <path fill="#ffffff" d="M 289.5 476 L 309 476.5 L 289.5 477 L 289.5 476 Z "/>
    <path fill="#ffffff" d="M 261.5 477 L 282 477.5 L 261.5 478 L 261.5 477 Z "/>
    <path fill="#ffd43b" d="M 268.5 48 L 286.5 49 L 288 50.5 L 289 53.5 L 289 68.5 L 290 69.5 L 290 89.5 L 291 90.5 L 291 123 L 256 123 L 256 100.5 L 257 99.5 L 257 80.5 L 258 79.5 L 259 52.5 L 261.5 49 Q 267 50.5 268.5 48 Z "/>
    <path fill="#ffd43b" d="M 210.5 75 L 227.5 75 L 229 76.5 L 231 97.5 L 232 98.5 L 234 133.5 L 235 134.5 L 229.5 137 L 206.5 137 L 203.5 138 L 201 137 L 203 88.5 L 204 87.5 L 204 79.5 L 206.5 76 L 210.5 75 Z "/>
    <path fill="#ffd43b" d="M 315.5 75 Q 331.2 72.8 339 78.5 L 340 98.5 L 341 99.5 L 342 137.5 L 340.5 139 L 327.5 139 L 326.5 138 L 309 138 L 310 106.5 L 311 105.5 L 311 94.5 L 312 93.5 L 313 76 L 315.5 75 Z "/>
    <path fill="#ffd43b" d="M 364.5 118 L 380.5 118 L 382 119.5 L 386 162 L 360.5 162 L 359 160.5 L 362 125.5 Q 364.2 124.2 363 119.5 L 364.5 118 Z "/>
    <path fill="#ffd43b" d="M 255 135 L 290.5 135 L 292 136.5 L 292 171.5 L 293 172.5 L 293 197 L 259.5 196 L 254.5 197 L 253 195.5 L 253 184.5 L 254 183.5 L 255 135 Z "/>
    <path fill="#ffd43b" d="M 226.5 148 L 234.5 148 L 235 150.5 L 236 151.5 L 236 170.5 L 237 171.5 L 238 197 L 201 201 L 201 149 L 225.5 149 L 226.5 148 Z "/>
    <path fill="#ffd43b" d="M 309 150 L 339.5 150 L 342 151 L 342 202.5 L 340.5 204 L 339.5 203 L 307 199 L 307 185.5 L 308 184.5 L 308 152.5 L 309 150 Z "/>
    <path fill="#ffd43b" d="M 358 174 L 385.5 174 L 386 176.5 L 387 177.5 L 387 213 L 381.5 213 Q 374.8 209.2 364.5 209 L 356 205.5 L 357 178.5 L 358 174 Z "/>
    <path fill="#ffd43b" d="M 137.5 200 L 144.5 201 L 156 212.5 L 162 221.5 L 166 232.5 L 176 251.5 L 183 261.5 L 184 265.5 Q 177.4 288.4 160.5 301 L 156.5 303 L 146 277.5 L 139 253.5 L 123 210.5 L 123 207.5 L 137.5 200 Z "/>
    <path fill="#ffd43b" d="M 251.5 208 L 274.5 208 L 275.5 209 L 291.5 209 L 292.5 210 L 303.5 210 L 304.5 211 L 321.5 212 L 327.5 214 L 350.5 217 L 387 226 L 388 228.5 L 388 241.5 L 389 242.5 L 390 293.5 L 389 294.5 L 389 307.5 L 388 308.5 L 387 323.5 L 381 347.5 Q 371.9 372.4 354.5 389 L 329.5 391 L 328.5 392 L 318.5 392 L 317.5 393 L 304.5 393 L 303.5 394 L 243.5 394 L 242.5 393 L 211.5 391 L 205 384.5 Q 178.8 354.7 162 315.5 L 180 298.5 Q 190.6 285.6 196 267.5 L 199 251.5 L 199 243.5 L 200 242.5 L 201 214.5 L 202.5 213 L 220.5 211 L 221.5 210 L 250.5 209 L 251.5 208 Z M 283 264 L 269 271 Q 260 278 258 291 Q 258 303 263 311 Q 270 321 286 324 Q 298 324 306 318 Q 314 312 317 301 L 317 287 Q 315 278 309 273 Q 303 266 294 264 L 283 264 Z "/>
    <path fill="#ffd43b" d="M 345.5 401 L 353 401 L 353 409.5 L 354 410.5 L 356 432.5 L 362 460 L 355.5 461 L 344.5 461 L 343.5 462 L 333.5 462 L 332.5 463 L 318.5 463 L 317.5 464 L 297.5 464 L 296.5 465 L 248.5 465 L 247.5 464 L 231.5 464 L 230.5 463 L 206 461 L 211 439.5 L 213 416.5 L 214 415.5 L 214 403 L 219.5 404 L 230.5 404 L 231.5 405 L 246.5 405 L 247.5 406 L 296.5 406 L 297.5 405 L 327.5 404 L 328.5 403 L 336.5 403 L 345.5 401 Z "/>
    <path fill="#ff6b6b" d="M 281.5 272 Q 285 274.5 292.5 273 L 294 272.5 Q 293.3 274.8 295.5 274 L 297.5 274 L 299 274.5 L 298.5 276 L 300.5 277 Q 301.8 274.8 303 277.5 Q 300.8 278.8 303.5 280 Q 304.8 277.8 306 280.5 L 305.5 282 L 307 282.5 L 306 284.5 L 309 291.5 L 308 294 Q 310.7 292.9 310 295.5 L 308 299.5 L 309 301.5 L 308 304 L 304 306.5 Q 306.3 307.8 303.5 309 L 302 308.5 L 300.5 311 L 292 314.5 L 292.5 316 L 289.5 315 L 286.5 316 L 285.5 314 L 283 315.5 L 282.5 314 L 279.5 315 L 276 312.5 L 276.5 311 L 274.5 310 Q 272.7 312.8 271 308.5 Q 273.5 307 270 305.5 Q 270.8 303.3 268.5 304 L 268.5 302 L 267 301.5 L 268 298.5 L 266 298.5 L 267 292.5 L 266 289.5 Q 269.5 288 267 286.5 Q 266.3 284.3 268.5 285 L 268.5 283 Q 269.8 285.3 271 282.5 L 270 280.5 L 272 280.5 Q 271.5 276.5 274.5 276 L 276.5 276 L 278 275.5 L 277.5 274 L 279.5 275 L 283 273.5 L 281.5 272 Z "/>
    <path fill="#f783ac" d="M 283.5 272 L 293 272.5 Q 281.1 271.6 275.5 277 L 276.5 275 L 283.5 272 Z "/>
    <path fill="#f783ac" d="M 298.5 275 L 304 278 L 306 281.5 L 299.5 276 L 298.5 275 Z "/>
    <path fill="#f783ac" d="M 271.5 279 L 272 280.5 L 268.5 285 L 269 283.5 L 271.5 279 Z "/>
    <path fill="#f783ac" d="M 306.5 283 L 309 286.5 L 310 294 Q 307.3 295.1 308 292.5 L 308 290.5 L 306.5 283 Z "/>
    <path fill="#f783ac" d="M 266.5 292 L 267 296.5 L 266 296.5 L 266.5 292 Z "/>
    <path fill="#f783ac" d="M 309.5 296 L 310 297.5 L 308.5 300 L 308 297.5 L 309.5 296 Z "/>
    <path fill="#f783ac" d="M 269.5 304 L 275.5 311 L 278 312.5 L 276.5 312 L 269 305.5 L 269.5 304 Z "/>
    <path fill="#f783ac" d="M 306.5 304 L 306 305.5 Q 306.8 307.8 304.5 307 L 306.5 304 Z "/>
    <path fill="#f783ac" d="M 302.5 308 L 303 309.5 Q 299 314.5 291.5 316 L 289.5 316 L 287 315.5 L 290.5 314 L 292.5 314 L 295.5 314 L 302 309.5 L 302.5 308 Z "/>
  </g>
  <g id="line">
    <path fill="#1a1a1a" d="M 270.5 36 L 291.5 38 L 299 43.5 L 302.5 70 Q 304.8 65.3 310.5 64 L 328.5 63 L 344.5 66 L 349 70.5 L 352 85.5 L 352 100.5 L 353 101.5 L 353 110 L 362.5 106 L 381.5 106 L 391 110.5 L 395 124.5 L 396 142.5 L 397 143.5 L 397 159.5 L 398 160.5 L 399 228.5 L 400 229.5 L 400 246.5 L 401 247.5 L 401 304.5 L 400 305.5 L 400 316.5 L 399 317.5 L 398 329.5 L 392 352.5 Q 382.5 378 365 395.5 L 365 411.5 L 366 412.5 L 366 420.5 L 369 432.5 L 370 443.5 L 374 454.5 L 374 464.5 L 369.5 470 L 362.5 472 L 333.5 474 L 332.5 475 L 317.5 475 L 316.5 476 L 256.5 477 L 255.5 476 L 233.5 476 L 232.5 475 L 212.5 474 L 201.5 472 L 197 470 L 194 464.5 L 194 456.5 L 199 439.5 L 200 427.5 L 201 426.5 L 202 398.5 L 176 366.5 L 153 326.5 L 140 296.5 L 124 247.5 L 114 222.5 L 111 211.5 L 111 204.5 Q 112.4 198.4 117.5 196 L 134.5 188 L 146.5 188 L 161 199.5 L 170 211.5 L 185 241.5 L 185 244 L 188 243.5 L 188 219.5 L 189 218.5 L 189 186.5 L 188 185.5 L 188 160.5 L 189 159.5 L 189 120.5 L 190 119.5 L 190 101.5 L 191 100.5 L 192 77.5 L 194 70.5 L 197.5 67 L 205.5 64 L 227.5 63 L 236.5 66 L 240 69.5 L 242 79.5 L 243 95.5 L 244.5 97 L 246 62.5 L 247 61.5 L 248 46.5 L 253.5 39 L 270.5 36 Z M 269 48 Q 267 51 262 49 L 259 53 L 258 80 L 257 81 L 257 100 L 256 101 L 256 123 L 291 123 L 291 91 L 290 90 L 290 70 L 289 69 L 289 54 L 288 51 L 287 49 L 269 48 Z M 211 75 L 207 76 L 204 80 L 204 88 L 203 89 L 201 137 L 204 138 L 207 137 L 230 137 L 235 135 L 234 134 L 232 99 L 231 98 L 229 77 L 228 75 L 211 75 Z M 316 75 L 313 76 L 312 94 L 311 95 L 311 106 L 310 107 L 309 138 L 327 138 L 328 139 L 341 139 L 342 138 L 341 100 L 340 99 L 339 79 Q 331 73 316 75 Z M 365 118 L 363 120 Q 364 124 362 126 L 359 161 L 361 162 L 386 162 L 382 120 L 381 118 L 365 118 Z M 255 135 L 254 184 L 253 185 L 253 196 L 255 197 L 260 196 L 293 197 L 293 173 L 292 172 L 292 137 L 291 135 L 255 135 Z M 227 148 L 226 149 L 201 149 L 201 201 L 238 197 L 237 172 L 236 171 L 236 152 L 235 151 L 235 148 L 227 148 Z M 309 150 L 308 153 L 308 185 L 307 186 L 307 199 L 340 203 L 341 204 L 342 203 L 342 151 L 340 150 L 309 150 Z M 358 174 L 357 179 L 356 206 L 365 209 Q 375 209 382 213 L 387 213 L 387 178 L 386 177 L 386 174 L 358 174 Z M 138 200 L 123 208 L 123 211 L 139 254 L 146 278 L 157 303 L 161 301 Q 177 288 184 266 L 183 262 L 176 252 L 166 233 L 162 222 L 156 213 L 145 201 L 138 200 Z M 252 208 L 251 209 L 222 210 L 221 211 L 203 213 L 201 215 L 200 243 L 199 244 L 199 252 L 196 268 Q 191 286 180 299 L 162 316 Q 179 355 205 385 L 212 391 L 243 393 L 244 394 L 304 394 L 305 393 L 318 393 L 319 392 L 329 392 L 330 391 L 355 389 Q 372 372 381 348 L 387 324 L 388 309 L 389 308 L 389 295 L 390 294 L 389 243 L 388 242 L 388 229 L 387 226 L 351 217 L 328 214 L 322 212 L 305 211 L 304 210 L 293 210 L 292 209 L 276 209 L 275 208 L 252 208 Z M 346 401 L 337 403 L 329 403 L 328 404 L 298 405 L 297 406 L 248 406 L 247 405 L 232 405 L 231 404 L 220 404 L 214 403 L 214 416 L 213 417 L 211 440 L 206 461 L 231 463 L 232 464 L 248 464 L 249 465 L 297 465 L 298 464 L 318 464 L 319 463 L 333 463 L 334 462 L 344 462 L 345 461 L 356 461 L 362 460 L 356 433 L 354 411 L 353 410 L 353 401 L 346 401 Z "/>
    <path fill="#1a1a1a" d="M 282.5 264 L 293.5 264 Q 303.2 266.3 309 272.5 Q 314.5 278 317 286.5 L 317 300.5 Q 314 312 305.5 318 Q 298.3 323.8 285.5 324 Q 270.2 321.3 263 310.5 Q 257.7 303.3 258 290.5 Q 260 277.5 268.5 271 L 282.5 264 Z M 282 272 L 275 276 Q 268 280 266 290 L 266 299 L 271 309 Q 275 314 284 316 Q 296 318 301 312 Q 307 307 310 299 L 310 290 L 306 281 L 297 273 Q 291 271 282 272 Z "/>
  </g>
</svg>
