<svg xmlns="http://www.w3.org/2000/svg" width="512" height="512" viewBox="0 0 512 512">
  <g id="color">
    <path fill="#ffffff" d="M 236.5 143 L 237 147.5 L 236 147.5 L 236.5 143 Z "/>
    <path fill="#ffffff" d="M 276.5 143 L 277 147.5 L 276 147.5 L 276.5 143 Z "/>
    <path fill="#ffffff" d="M 235.5 150 L 236 155.5 L 235 155.5 L 235.5 150 Z "/>
    <path fill="#ffffff" d="M 277.5 150 L 278 156.5 L 277 156.5 L 277.5 150 Z "/>
    <path fill="#ffffff" d="M 234.5 160 L 235 161.5 L 231.5 163 L 231.5 162 Q 235 163 234.5 160 Z "/>
    <path fill="#ffffff" d="M 278.5 160 L 279 162 L 281 162.5 L 278 163 L 278.5 160 Z "/>
    <path fill="#ffffff" d="M 219.5 163 L 225 163.5 L 219.5 164 L 219.5 163 Z "/>
    <path fill="#ffffff" d="M 287.5 163 L 293 163.5 L 287.5 164 L 287.5 163 Z "/>
    <path fill="#ffffff" d="M 209.5 164 L 216 164.5 L 209.5 165 L 209.5 164 Z "/>
    <path fill="#ffffff" d="M 297.5 164 L 303 164.5 L 297.5 165 L 297.5 164 Z "/>
    <path fill="#ffffff" d="M 200.5 165 L 205 165.5 L 200.5 166 L 200.5 165 Z "/>
    <path fill="#ffffff" d="M 307.5 165 L 312 165.5 L 307.5 166 L 307.5 165 Z "/>
    <path fill="#ffffff" d="M 179.5 177 L 180 181.5 L 179 181.5 L 179.5 177 Z "/>
    <path fill="#ffffff" d="M 306.5 201 L 309 205.5 L 308 205.5 L 306.5 201 Z "/>
    <path fill="#ffffff" d="M 195.5 211 L 202 211.5 L 195.5 212 L 195.5 211 Z "/>
    <path fill="#ffffff" d="M 311.5 211 L 319 211.5 L 311.5 212 L 311.5 211 Z "/>
    <path fill="#ffffff" d="M 182.5 212 L 191 212.5 L 182.5 213 L 182.5 212 Z "/>
    <path fill="#ffffff" d="M 323.5 212 L 331 212.5 L 323.5 213 L 323.5 212 Z "/>
    <path fill="#ffffff" d="M 171.5 213 L 179 213.5 L 171.5 214 L 171.5 213 Z "/>
    <path fill="#ffffff" d="M 334.5 213 L 343 213.5 L 334.5 214 L 334.5 213 Z "/>
    <path fill="#ffffff" d="M 160.5 214 L 168 214.5 L 160.5 215 L 160.5 214 Z "/>
    <path fill="#ffffff" d="M 347.5 214 L 355 214.5 L 347.5 215 L 347.5 214 Z "/>
    <path fill="#ffffff" d="M 146.5 215 L 154 215.5 L 146.5 216 L 146.5 215 Z "/>
    <path fill="#ffffff" d="M 361.5 215 L 367 215.5 L 361.5 216 L 361.5 215 Z "/>
    <path fill="#ffffff" d="M 133.5 216 L 140 216.5 L 133.5 217 L 133.5 216 Z "/>
    <path fill="#ffffff" d="M 374.5 216 L 380 216.5 L 374.5 217 L 374.5 216 Z "/>
    <path fill="#ffffff" d="M 121.5 217 L 127 217.5 L 121.5 218 L 121.5 217 Z "/>
    <path fill="#ffffff" d="M 387.5 217 L 393 217.5 L 387.5 218 L 387.5 217 Z "/>
    <path fill="#ffffff" d="M 107.5 218 L 114 218.5 L 107.5 219 L 107.5 218 Z "/>
    <path fill="#ffffff" d="M 400.5 218 L 406 218.5 L 400.5 219 L 400.5 218 Z "/>
    <path fill="#ffffff" d="M 96.5 219 L 101 219.5 L 96.5 220 L 96.5 219 Z "/>
    <path fill="#ffffff" d="M 413.5 219 L 418 219.5 L 413.5 220 L 413.5 219 Z "/>
    <path fill="#ffffff" d="M 86.5 220 L 91 220.5 L 86.5 221 L 86.5 220 Z "/>
    <path fill="#ffffff" d="M 423.5 220 L 428 220.5 L 423.5 221 L 423.5 220 Z "/>
    <path fill="#ffffff" d="M 431.5 221 L 436 221.5 L 431.5 222 L 431.5 221 Z "/>
    <path fill="#ffffff" d="M 438.5 222 L 443 222.5 L 438.5 223 L 438.5 222 Z "/>
    <path fill="#ffffff" d="M 47.5 262 L 51 263.5 L 49.5 264 L 47.5 262 Z "/>
    <path fill="#ffffff" d="M 464.5 262 L 466 262.5 L 462.5 264 L 462.5 263 L 464.5 262 Z "/>
    <path fill="#ffffff" d="M 380.5 279 L 385 279.5 L 380.5 280 L 380.5 279 Z "/>
    <path fill="#ffffff" d="M 144.5 281 L 149 281.5 L 144.5 282 L 144.5 281 Z "/>
    <path fill="#ffffff" d="M 364.5 281 L 370 281.5 L 364.5 282 L 364.5 281 Z "/>
    <path fill="#ffffff" d="M 151.5 282 L 157 282.5 L 151.5 283 L 151.5 282 Z "/>
    <path fill="#ffffff" d="M 356.5 282 L 362 282.5 L 356.5 283 L 356.5 282 Z "/>
    <path fill="#ffffff" d="M 160.5 283 L 166 283.5 L 160.5 284 L 160.5 283 Z "/>
    <path fill="#ffffff" d="M 347.5 283 L 354 283.5 L 347.5 284 L 347.5 283 Z "/>
    <path fill="#ffffff" d="M 170.5 284 L 176 284.5 L 170.5 285 L 170.5 284 Z "/>
    <path fill="#ffffff" d="M 337.5 284 L 343 284.5 L 337.5 285 L 337.5 284 Z "/>
    <path fill="#ffffff" d="M 181.5 285 L 186 285.5 L 181.5 286 L 181.5 285 Z "/>
    <path fill="#ffffff" d="M 326.5 285 L 332 285.5 L 323.5 287 L 323.5 286 L 326.5 285 Z "/>
    <path fill="#ffffff" d="M 179.5 288 L 184 288.5 L 179.5 289 L 179.5 288 Z "/>
    <path fill="#ffffff" d="M 358.5 305 L 359 312.5 L 358 312.5 L 358.5 305 Z "/>
    <path fill="#ffffff" d="M 318.5 330 L 333 330.5 L 318.5 331 L 318.5 330 Z "/>
    <path fill="#ffffff" d="M 176.5 331 L 182 331.5 L 176.5 332 L 176.5 331 Z "/>
    <path fill="#ffffff" d="M 196.5 336 L 198 339.5 L 197 339.5 L 196.5 336 Z "/>
    <path fill="#ffffff" d="M 316.5 336 L 317 337.5 L 315.5 340 L 315 338.5 L 316.5 336 Z "/>
    <path fill="#ffffff" d="M 222.5 369 L 227 372.5 L 225.5 372 L 222.5 369 Z "/>
    <path fill="#ffffff" d="M 290.5 369 L 288.5 372 L 286.5 373 L 287.5 371 L 290.5 369 Z "/>
    <path fill="#ffffff" d="M 237.5 379 L 238 385.5 L 237 385.5 L 237.5 379 Z "/>
    <path fill="#ffffff" d="M 275.5 380 L 276 385.5 L 275 385.5 L 275.5 380 Z "/>
    <path fill="#ffffff" d="M 240.5 397 L 245 400.5 L 243.5 401 L 240.5 397 Z "/>
    <path fill="#ffffff" d="M 272.5 397 L 269.5 401 L 268 400.5 L 272.5 397 Z "/>
    <path fill="#ffffff" d="M 246.5 401 L 267 401.5 L 246.5 402 L 246.5 401 Z "/>
    <path fill="#4da3ff" d="M 250.5 181 Q 278 180 290 194.5 L 294 199.5 Q 303.5 211 307 228.5 L 312 255.5 L 314 285.5 L 312.5 287 L 298.5 289 L 296 285.5 L 293 275.5 L 281.5 261 L 278.5 259 Q 273.7 253.8 265.5 252 L 252.5 251 L 241.5 254 Q 232.8 258.3 227 265.5 L 219 277.5 L 214.5 290 L 199 288 L 200 267.5 L 201 266.5 L 201 255.5 L 209 217.5 L 217 201.5 L 224.5 193 L 238.5 184 L 250.5 181 Z M 233 203 L 225 206 Q 218 210 217 220 L 217 222 L 220 229 Q 224 234 231 236 Q 239 237 244 233 Q 249 229 250 222 L 248 212 L 245 207 Q 241 204 233 203 Z M 278 203 L 271 206 Q 265 210 263 218 L 264 225 L 268 232 L 277 236 L 286 235 L 289 233 Q 295 230 296 222 L 294 212 Q 289 204 278 203 Z "/>
    <path fill="#4da3ff" d="M 194.5 221 L 197 222 L 192 247.5 L 191 265.5 L 189 276 L 158.5 274 L 157.5 273 L 141.5 272 L 140.5 271 L 99.5 266 L 89.5 263 L 84.5 263 L 65.5 259 L 53.5 255 L 46 250.5 L 45 246.5 L 48 238 L 55.5 235 L 84.5 230 L 86.5 231 L 94.5 229 L 112.5 228 L 113.5 227 L 126.5 227 L 127.5 226 L 153.5 225 L 154.5 224 L 165.5 224 L 166.5 223 L 180.5 223 L 181.5 222 L 193.5 222 L 194.5 221 Z "/>
    <path fill="#4da3ff" d="M 316 221 L 318.5 222 L 332.5 222 L 333.5 223 L 344.5 223 L 345.5 224 L 358.5 224 L 359.5 225 L 373.5 225 L 374.5 226 L 420.5 229 L 427.5 231 L 435.5 231 L 436.5 232 L 453.5 234 L 466 239 Q 468.6 241.3 468 247.5 L 465.5 252 L 448.5 259 L 413.5 266 L 380.5 270 L 379.5 271 L 372.5 271 L 371.5 272 L 324 276 L 323 273.5 L 321 245.5 L 319 240.5 L 319 235.5 L 316 221 Z "/>
    <path fill="#4da3ff" d="M 215.5 329 Q 218.8 327.9 218 330.5 Q 222.2 341.3 230.5 348 L 242.5 355 L 259.5 357 L 270.5 355 L 278.5 351 L 289 341.5 L 295 329 L 308 330 L 307 336.5 L 301 348 Q 298.3 346.9 299 349.5 L 291.5 358 L 274.5 368 L 259.5 371 L 258.5 370 L 246.5 370 L 238.5 368 Q 226.3 363.2 218 354.5 L 209 342.5 L 205 331 L 215.5 329 Z "/>
    <path fill="#4da3ff" d="M 247 380 L 250.5 381 L 266 381 L 265 392 L 254.5 392 L 253.5 393 L 248 392 Q 245.7 388.3 247 380 Z "/>
    <path fill="#ffd43b" d="M 255.5 120 Q 261.1 120.5 263 124.5 L 269 145.5 L 271 174 L 261.5 172 L 250.5 172 L 242.5 174 L 242 162.5 L 243 161.5 L 244 146.5 L 247 131.5 L 253.5 121 L 255.5 120 Z "/>
    <path fill="#ffd43b" d="M 221.5 171 L 234 171 L 234 175.5 L 215.5 189 L 212.5 189 L 196.5 186 L 188 181.5 Q 187.3 177.8 189.5 177 L 197.5 174 L 220.5 172 L 221.5 171 Z "/>
    <path fill="#ffd43b" d="M 279 171 L 290.5 171 L 291.5 172 L 315.5 174 L 325 178.5 Q 325.8 182.3 323.5 183 L 312.5 187 L 297.5 189 L 279 175.5 L 279 171 Z "/>
    <path fill="#ffd43b" d="M 253.5 260 L 259.5 260 L 266.5 262 Q 275.5 266 281 273.5 L 288 286.5 L 289 291.5 L 287.5 293 L 275.5 296 Q 269.9 285.6 253.5 286 Q 243.5 287.5 239 294.5 Q 239.8 297.1 236.5 296 L 224 293 L 227 281.5 Q 231.6 272.1 239.5 266 L 248.5 261 L 253.5 260 Z "/>
    <path fill="#ffd43b" d="M 252.5 294 L 260.5 294 L 269 300.5 Q 271.9 304.1 271 311.5 Q 269.5 318 264.5 321 Q 260.9 323.9 253.5 323 L 245 317.5 Q 241 314 242 305.5 Q 243.5 299 248.5 296 L 252.5 294 Z "/>
    <path fill="#ffd43b" d="M 315.5 295 L 334.5 295 Q 343.9 296.6 349 302.5 L 351 310.5 Q 349.6 316.6 344.5 319 L 330.5 323 L 317.5 323 L 316.5 322 L 303.5 321 L 278 315 L 279 307.5 L 278 303 L 291.5 299 L 314.5 296 L 315.5 295 Z "/>
    <path fill="#ffd43b" d="M 182.5 296 L 204.5 297 L 205.5 298 L 228.5 301 L 235 303 L 234 309.5 L 235 315 L 204.5 323 L 178.5 324 L 167.5 320 L 164 316.5 Q 161.2 313.8 162 307.5 L 168.5 300 L 182.5 296 Z "/>
    <path fill="#ffd43b" d="M 235.5 322 Q 240 321 241 323.5 Q 240.3 325.8 242.5 325 Q 247.7 332.3 262.5 330 L 273 323.5 Q 272.1 320.1 277.5 322 L 287 325 Q 285.1 335.1 277.5 341 L 269.5 346 L 260.5 348 L 253.5 348 L 241.5 345 L 230 334.5 L 226 326.5 L 235.5 322 Z "/>
    <path fill="#ff6b6b" d="M 230.5 209 L 234.5 210 L 236.5 209 L 239 210 L 242 216 Q 244.7 214.9 244 217.5 L 243 220.5 L 243 222.5 L 241 225.5 L 241.5 227 Q 240.3 224.8 239 227.5 Q 239.8 229.8 237.5 229 L 235.5 229 L 230.5 230 L 228 228.5 L 228.5 227 L 226 225.5 L 225.5 224 L 224 224.5 L 223 217.5 Q 226.1 215.7 224.5 214 L 226 214.5 L 228.5 210 L 230 210.5 L 230.5 209 Z "/>
    <path fill="#ff6b6b" d="M 276.5 209 L 281.5 210 L 283 209.5 L 283.5 211 L 285 210.5 L 286.5 213 L 288 213.5 L 287 214.5 L 290 217.5 L 289 224.5 L 287.5 226 L 283 228 Q 284.1 230.7 281.5 230 L 278.5 229 L 276.5 229 Q 273.2 230.1 274 227.5 L 270 224.5 L 270 220.5 L 269 217.5 Q 272.1 215.7 270.5 214 L 274 211.5 L 274.5 210 L 276.5 211 L 276.5 209 Z "/>
    <path fill="#66d9e8" d="M 247.5 180 L 264.5 180 L 275.5 183 Q 288.7 189.3 297 200.5 L 305 216.5 L 311 240.5 L 314 271.5 L 315 272.5 L 315 288 L 297.5 291 L 290 273.5 L 278.5 260 L 267.5 254 L 249.5 253 Q 235.6 256.6 228 266.5 L 223 273.5 L 215.5 291 L 198 289 L 198 273.5 L 200 263.5 L 200 254.5 L 206 222.5 L 216 200.5 L 227.5 189 Q 235.4 182.4 247.5 180 Z M 251 181 L 239 184 L 225 193 L 217 202 L 209 218 L 201 256 L 201 267 L 200 268 L 199 288 L 215 290 L 219 278 L 227 266 Q 233 258 242 254 L 253 251 L 266 252 Q 274 254 279 259 L 282 261 L 293 276 L 296 286 L 299 289 L 313 287 L 314 286 L 312 256 L 307 229 Q 304 211 294 200 L 290 195 Q 278 180 251 181 Z "/>
    <path fill="#66d9e8" d="M 232.5 203 Q 240.5 203.7 245 207 L 248 211.5 L 250 221.5 Q 248.6 229.1 243.5 233 Q 239.4 236.9 230.5 236 Q 223.8 233.8 220 228.5 L 217 221.5 L 217 219.5 Q 217.6 209.6 224.5 206 L 232.5 203 Z M 230 205 L 226 207 Q 220 209 219 216 Q 218 224 221 228 Q 225 233 233 235 L 243 232 L 248 224 Q 249 214 245 210 Q 241 204 230 205 Z "/>
    <path fill="#66d9e8" d="M 277.5 203 Q 289.3 203.7 294 211.5 L 296 221.5 Q 294.8 229.8 288.5 233 L 285.5 235 L 276.5 236 L 268 232 L 264 224.5 L 263 217.5 Q 264.9 209.9 270.5 206 L 277.5 203 Z M 276 205 L 270 208 L 265 216 L 265 224 L 268 230 L 276 234 L 284 234 L 290 231 L 294 224 L 294 216 L 291 209 L 284 205 L 276 205 Z "/>
    <path fill="#66d9e8" d="M 188.5 220 L 198.5 220 L 199 223.5 L 194 243.5 L 191 276.5 L 189.5 278 L 146.5 274 L 145.5 273 L 131.5 272 L 117.5 269 L 91.5 266 L 86.5 264 L 81.5 264 L 64.5 260 L 49.5 255 L 45 251.5 L 44 243.5 L 49.5 236 L 67.5 231 L 90.5 229 L 99.5 227 L 135.5 225 L 136.5 224 L 147.5 224 L 148.5 223 L 160.5 223 L 161.5 222 L 173.5 222 L 174.5 221 L 187.5 221 L 188.5 220 Z M 195 221 L 194 222 L 182 222 L 181 223 L 167 223 L 166 224 L 155 224 L 154 225 L 128 226 L 127 227 L 114 227 L 113 228 L 95 229 L 87 231 L 85 230 L 56 235 L 48 238 L 45 247 L 46 251 L 54 255 L 66 259 L 85 263 L 90 263 L 100 266 L 141 271 L 142 272 L 158 273 L 159 274 L 189 276 L 191 266 L 192 248 L 197 222 L 195 221 Z "/>
    <path fill="#66d9e8" d="M 314 220 L 350.5 222 L 351.5 223 L 364.5 223 L 365.5 224 L 377.5 224 L 378.5 225 L 389.5 225 L 390.5 226 L 401.5 226 L 402.5 227 L 414.5 227 L 423.5 229 L 439.5 230 L 461.5 235 L 468 240.5 L 469 248.5 L 465.5 254 L 445.5 261 L 416.5 267 L 410.5 267 L 409.5 268 L 403.5 268 L 402.5 269 L 382.5 271 L 367.5 274 L 323.5 278 L 322 276.5 L 320 248.5 L 314 220 Z M 316 221 L 319 236 L 319 241 L 321 246 L 323 274 L 324 276 L 372 272 L 373 271 L 380 271 L 381 270 L 414 266 L 449 259 L 466 252 L 468 248 Q 469 241 466 239 L 454 234 L 437 232 L 436 231 L 428 231 L 421 229 L 375 226 L 374 225 L 360 225 L 359 224 L 346 224 L 345 223 L 334 223 L 333 222 L 319 222 L 316 221 Z "/>
    <path fill="#66d9e8" d="M 295.5 327 L 310 329 Q 308.7 338.5 304 345.5 L 288.5 362 L 269.5 371 L 249.5 372 Q 224.3 367.3 212 349.5 Q 205.4 341.3 203 330 L 219 328 Q 222.6 340.7 232.5 348 L 247.5 355 L 265.5 355 Q 280.8 350.8 289 339.5 L 295.5 327 Z M 216 329 L 205 331 L 209 343 L 218 355 Q 226 363 239 368 L 247 370 L 259 370 L 260 371 L 275 368 L 292 358 L 299 350 Q 298 347 301 348 L 307 337 L 308 330 L 295 329 L 289 342 L 279 351 L 271 355 L 260 357 L 243 355 L 231 348 Q 222 341 218 331 Q 219 328 216 329 Z "/>
    <path fill="#66d9e8" d="M 245 379 L 267.5 379 Q 268.5 379 268 383.5 Q 265.2 385.3 267 391.5 L 264.5 394 L 248.5 394 L 247 392.5 L 245 379 Z M 247 380 Q 246 388 248 392 L 254 393 L 255 392 L 265 392 L 266 381 L 251 381 L 247 380 Z "/>
    <path fill="#f783ac" d="M 239.5 211 Q 241.8 210.3 241 212.5 L 243 215.5 L 242 215.5 L 239.5 211 Z "/>
    <path fill="#f783ac" d="M 226.5 212 L 226 213.5 L 224.5 216 L 225 214.5 L 226.5 212 Z "/>
    <path fill="#f783ac" d="M 225.5 224 L 227.5 227 L 229 227.5 L 227.5 228 Q 223.9 226.9 225.5 224 Z "/>
    <path fill="#f783ac" d="M 286.5 226 L 284.5 229 L 283 228.5 L 286.5 226 Z "/>
    <path fill="#f783ac" d="M 231.5 229 L 236 229.5 L 231.5 230 L 231.5 229 Z "/>
  </g>
  <g id="line">
    <path fill="#1a1a1a" d="M 254.5 112 Q 265.3 112.3 269 119.5 L 274 131.5 L 278 163 L 319.5 167 Q 328 168.5 332 174.5 L 333 183.5 L 328.5 189 L 316.5 194 L 303 196.5 L 311 212 L 333.5 213 L 334.5 214 L 346.5 214 L 347.5 215 L 360.5 215 L 361.5 216 L 373.5 216 L 374.5 217 L 386.5 217 L 387.5 218 L 399.5 218 L 400.5 219 L 412.5 219 L 413.5 220 L 437.5 222 L 464.5 228 L 474 235.5 L 477 243.5 L 477 248.5 Q 475.8 255.3 471.5 259 L 456.5 266 L 415.5 275 L 409.5 275 L 388.5 279 L 380.5 279 L 372.5 281 L 356.5 282 L 355.5 283 L 326.5 285 L 323 286.5 L 342.5 289 L 354 296.5 Q 360 301.5 358 314.5 L 349.5 325 Q 338.1 332.4 318 330 L 317 335.5 L 311 348.5 L 300 363 L 285.5 373 L 276 377.5 L 274 393.5 L 269.5 400 L 267.5 401 L 245.5 401 L 240 396.5 L 238 388.5 L 238 379.5 L 235.5 376 Q 217.5 369.5 207 355.5 Q 198.3 345.2 195 331 Q 190.5 332.7 182.5 332 L 168.5 329 Q 161.8 326.8 158 321.5 Q 154.3 317.2 154 309.5 Q 155.6 298.6 163.5 294 L 176.5 289 L 190 288 Q 191.3 284.7 186.5 286 L 185.5 285 L 166.5 284 L 165.5 283 L 157.5 283 L 156.5 282 L 133.5 280 L 125.5 278 L 118.5 278 L 72.5 270 L 46.5 262 L 38 254.5 L 36 243.5 Q 37.8 234.3 44.5 230 L 59.5 225 L 82.5 221 L 202 212 L 210 196.5 L 190.5 192 L 181 185.5 L 180 176.5 L 185.5 170 L 198.5 166 L 233.5 163 L 235 161.5 L 239 131.5 L 242 122.5 L 249.5 114 L 254.5 112 Z M 256 120 L 254 121 L 247 132 L 244 147 L 243 162 L 242 163 L 243 174 L 251 172 L 262 172 L 271 174 L 269 146 L 263 125 Q 261 120 256 120 Z M 222 171 L 221 172 L 198 174 L 190 177 Q 187 178 188 182 L 197 186 L 213 189 L 216 189 L 234 176 L 234 171 L 222 171 Z M 279 171 L 279 176 L 298 189 L 313 187 L 324 183 Q 326 182 325 179 L 316 174 L 292 172 L 291 171 L 279 171 Z M 248 180 Q 235 182 228 189 L 216 201 L 206 223 L 200 255 L 200 264 L 198 274 L 198 289 L 216 291 L 223 274 L 228 267 Q 236 257 250 253 L 268 254 L 279 260 L 290 274 L 298 291 L 315 288 L 315 273 L 314 272 L 311 241 L 305 217 L 297 201 Q 289 189 276 183 L 265 180 L 248 180 Z M 189 220 L 188 221 L 175 221 L 174 222 L 162 222 L 161 223 L 149 223 L 148 224 L 137 224 L 136 225 L 100 227 L 91 229 L 68 231 L 50 236 L 44 244 L 45 252 L 50 255 L 65 260 L 82 264 L 87 264 L 92 266 L 118 269 L 132 272 L 146 273 L 147 274 L 190 278 L 191 277 L 194 244 L 199 224 L 199 220 L 189 220 Z M 314 220 L 320 249 L 322 277 L 324 278 L 368 274 L 383 271 L 403 269 L 404 268 L 410 268 L 411 267 L 417 267 L 446 261 L 466 254 L 469 249 L 468 241 L 462 235 L 440 230 L 424 229 L 415 227 L 403 227 L 402 226 L 391 226 L 390 225 L 379 225 L 378 224 L 366 224 L 365 223 L 352 223 L 351 222 L 314 220 Z M 254 260 L 249 261 L 240 266 Q 232 272 227 282 L 224 293 L 237 296 Q 240 297 239 295 Q 243 287 254 286 Q 270 286 276 296 L 288 293 L 289 292 L 288 287 L 281 274 Q 276 266 267 262 L 260 260 L 254 260 Z M 253 294 L 249 296 Q 244 299 242 306 Q 241 314 245 318 L 254 323 Q 261 324 265 321 Q 269 318 271 312 Q 272 304 269 301 L 261 294 L 253 294 Z M 316 295 L 315 296 L 292 299 L 278 303 L 279 308 L 278 315 L 304 321 L 317 322 L 318 323 L 331 323 L 345 319 Q 350 317 351 311 L 349 303 Q 344 297 335 295 L 316 295 Z M 183 296 L 169 300 L 162 308 Q 161 314 164 317 L 168 320 L 179 324 L 205 323 L 235 315 L 234 310 L 235 303 L 229 301 L 206 298 L 205 297 L 183 296 Z M 236 322 L 226 327 L 230 335 L 242 345 L 254 348 L 261 348 L 270 346 L 278 341 Q 285 335 287 325 L 278 322 Q 272 320 273 324 L 263 330 Q 248 332 243 325 Q 240 326 241 324 Q 240 321 236 322 Z M 296 327 L 289 340 Q 281 351 266 355 L 248 355 L 233 348 Q 223 341 219 328 L 203 330 Q 205 341 212 350 Q 224 367 250 372 L 270 371 L 289 362 L 304 346 Q 309 338 310 329 L 296 327 Z M 245 379 L 247 393 L 249 394 L 265 394 L 267 392 Q 265 385 268 384 Q 268 379 268 379 L 245 379 Z "/>
    <path fill="#1a1a1a" d="M 229.5 205 Q 241 203.5 245 209.5 Q 249.3 213.7 248 223.5 L 242.5 232 L 232.5 235 Q 224.8 233.1 221 227.5 Q 217.7 223.8 219 215.5 Q 220.4 209.4 225.5 207 L 229.5 205 Z M 231 209 L 229 210 L 223 218 L 224 225 L 231 230 L 237 230 L 242 227 L 244 223 L 244 217 L 241 211 Q 238 208 231 209 Z "/>
    <path fill="#1a1a1a" d="M 275.5 205 L 283.5 205 L 291 209 L 294 215.5 L 294 223.5 L 289.5 231 L 283.5 234 L 275.5 234 L 268 229.5 L 265 223.5 L 265 215.5 L 269.5 208 L 275.5 205 Z M 277 209 L 275 210 L 269 217 L 270 225 L 277 230 L 285 229 L 290 222 L 289 215 Q 287 208 277 209 Z "/>
  </g>
</svg>
