<svg xmlns="http://www.w3.org/2000/svg" width="512" height="512" viewBox="0 0 512 512">
  <g id="color">
    <path fill="#ffffff" d="M 131.5 36 L 140 36.5 L 131.5 37 L 131.5 36 Z "/>
    <path fill="#ffffff" d="M 373.5 36 L 380 36.5 L 373.5 37 L 373.5 36 Z "/>
    <path fill="#ffffff" d="M 121.5 37 L 126 37.5 L 116.5 39 L 116.5 38 L 121.5 37 Z "/>
    <path fill="#ffffff" d="M 144.5 37 L 153 38.5 L 149.5 39 L 144.5 38 L 144.5 37 Z "/>
    <path fill="#ffffff" d="M 363.5 37 L 368 37.5 L 359.5 39 L 359.5 38 L 363.5 37 Z "/>
    <path fill="#ffffff" d="M 386.5 37 L 391 37.5 L 386.5 38 L 386.5 37 Z "/>
    <path fill="#ffffff" d="M 427.5 37 L 429 37.5 L 420.5 43 L 422.5 40 L 427.5 37 Z "/>
    <path fill="#ffffff" d="M 443.5 37 L 447 39.5 L 445.5 39 L 443.5 37 Z "/>
    <path fill="#ffffff" d="M 87.5 39 L 95.5 46 L 97.5 45 L 97.5 46 L 94.5 47 L 87.5 39 Z "/>
    <path fill="#ffffff" d="M 109.5 40 L 111 40.5 L 106.5 42 L 106.5 41 L 109.5 40 Z "/>
    <path fill="#ffffff" d="M 158.5 40 L 165 42.5 L 163.5 43 L 158.5 41 L 158.5 40 Z "/>
    <path fill="#ffffff" d="M 401.5 40 L 408 42.5 L 406.5 43 L 401.5 41 L 401.5 40 Z "/>
    <path fill="#ffffff" d="M 101.5 43 L 103 43.5 L 99.5 45 L 99.5 44 L 101.5 43 Z "/>
    <path fill="#ffffff" d="M 344.5 43 L 346 43.5 L 341.5 46 L 342.5 44 L 344.5 43 Z "/>
    <path fill="#ffffff" d="M 409.5 43 L 413 44.5 L 411.5 45 L 409.5 43 Z "/>
    <path fill="#ffffff" d="M 60.5 44 L 60 45.5 L 58.5 49 L 58 47.5 L 60.5 44 Z "/>
    <path fill="#ffffff" d="M 419.5 44 L 417.5 47 L 416 46.5 L 419.5 44 Z "/>
    <path fill="#ffffff" d="M 339.5 46 L 338.5 48 L 336.5 49 L 337.5 47 L 339.5 46 Z "/>
    <path fill="#ffffff" d="M 246.5 49 L 272.5 49 L 276 50.5 L 273.5 51 L 272.5 50 L 246.5 50 L 245.5 51 L 235.5 51 L 235.5 50 L 245.5 50 L 246.5 49 Z "/>
    <path fill="#ffffff" d="M 57.5 51 L 58 58.5 L 57 58.5 L 57.5 51 Z "/>
    <path fill="#ffffff" d="M 277.5 51 L 282 53.5 L 280.5 54 L 277.5 51 Z "/>
    <path fill="#ffffff" d="M 282.5 55 L 285 58.5 L 284 58.5 L 282.5 55 Z "/>
    <path fill="#ffffff" d="M 223.5 59 L 224 63.5 L 223 63.5 L 223.5 59 Z "/>
    <path fill="#ffffff" d="M 285.5 60 L 286 68.5 L 285 68.5 L 285.5 60 Z "/>
    <path fill="#ffffff" d="M 192.5 62 L 200 71.5 L 198 70.5 L 192.5 62 Z "/>
    <path fill="#ffffff" d="M 317.5 64 L 315 67.5 L 311.5 74 L 311 72.5 L 317.5 64 Z "/>
    <path fill="#ffffff" d="M 61.5 67 L 64 70.5 L 61 72.5 L 63 69.5 L 61.5 67 Z "/>
    <path fill="#ffffff" d="M 450.5 67 L 449 69.5 L 451 72.5 L 448 70.5 L 450.5 67 Z "/>
    <path fill="#ffffff" d="M 284.5 70 L 285 71.5 L 278.5 77 L 278.5 76 L 284 71.5 L 284.5 70 Z "/>
    <path fill="#ffffff" d="M 224.5 72 L 228 76.5 L 225 74.5 L 224.5 72 Z "/>
    <path fill="#ffffff" d="M 60.5 74 L 57 78.5 L 47.5 94 L 48 92.5 Q 52.1 81.1 60.5 74 Z "/>
    <path fill="#ffffff" d="M 310.5 75 L 311 79.5 L 310 79.5 L 310.5 75 Z "/>
    <path fill="#ffffff" d="M 229.5 77 L 233.5 79 L 249 79.5 L 233.5 80 Q 229.5 79.5 229.5 77 Z "/>
    <path fill="#ffffff" d="M 266.5 78 L 274 78.5 L 262 80 L 261.5 92 L 261 79 L 266.5 78 Z "/>
    <path fill="#ffffff" d="M 200.5 82 L 200 83.5 L 195.5 89 L 199 84.5 L 200.5 82 Z "/>
    <path fill="#ffffff" d="M 311.5 82 L 317 88.5 L 313 85.5 L 311.5 82 Z "/>
    <path fill="#ffffff" d="M 250.5 84 L 251 102.5 Q 249.5 105.5 243.5 104 L 243.5 103 L 250 103 L 250.5 84 Z "/>
    <path fill="#ffffff" d="M 459.5 85 L 462 88.5 L 460 87.5 L 459.5 85 Z "/>
    <path fill="#ffffff" d="M 193.5 89 L 188.5 95 L 184.5 98 L 187.5 94 L 193.5 89 Z "/>
    <path fill="#ffffff" d="M 45.5 98 L 46 99.5 L 44.5 102 L 44 100.5 L 45.5 98 Z "/>
    <path fill="#ffffff" d="M 182.5 98 L 179.5 102 L 175.5 105 L 178.5 101 L 182.5 98 Z "/>
    <path fill="#ffffff" d="M 466.5 98 L 468 102.5 L 467 102.5 L 466.5 98 Z "/>
    <path fill="#ffffff" d="M 262.5 102 L 270 103.5 L 262 104 L 262.5 102 Z "/>
    <path fill="#ffffff" d="M 43.5 103 L 44 105.5 L 41.5 113 L 41 110.5 L 43.5 103 Z "/>
    <path fill="#ffffff" d="M 230.5 104 L 237 104.5 L 224.5 106 L 224.5 105 Q 229.2 106.3 230.5 104 Z "/>
    <path fill="#ffffff" d="M 276.5 104 L 288 105.5 L 282.5 106 Q 281.2 103.8 276.5 105 L 276.5 104 Z "/>
    <path fill="#ffffff" d="M 214.5 107 L 217 107.5 L 210.5 109 L 210.5 108 L 214.5 107 Z "/>
    <path fill="#ffffff" d="M 295.5 107 L 302 108.5 L 298.5 109 L 295.5 108 L 295.5 107 Z "/>
    <path fill="#ffffff" d="M 469.5 107 L 471 114.5 L 470 114.5 L 469.5 107 Z "/>
    <path fill="#ffffff" d="M 203.5 110 L 206 110.5 L 200.5 112 L 200.5 111 L 203.5 110 Z "/>
    <path fill="#ffffff" d="M 307.5 110 L 312 111.5 L 310.5 112 L 307.5 111 L 307.5 110 Z "/>
    <path fill="#ffffff" d="M 193.5 113 L 196 113.5 L 191.5 115 L 191.5 114 L 193.5 113 Z "/>
    <path fill="#ffffff" d="M 316.5 113 L 321 114.5 L 319.5 115 L 316.5 114 L 316.5 113 Z "/>
    <path fill="#ffffff" d="M 322.5 115 L 326 116.5 L 324.5 117 L 322.5 115 Z "/>
    <path fill="#ffffff" d="M 40.5 116 L 41 135.5 L 40 135.5 L 40.5 116 Z "/>
    <path fill="#ffffff" d="M 186.5 116 L 188 116.5 L 184.5 118 L 184.5 117 L 186.5 116 Z "/>
    <path fill="#ffffff" d="M 471.5 117 L 472 125.5 L 471 125.5 L 471.5 117 Z "/>
    <path fill="#ffffff" d="M 181.5 118 L 183 118.5 L 177.5 121 L 177.5 120 L 181.5 118 Z "/>
    <path fill="#ffffff" d="M 329.5 118 L 335 120.5 L 333.5 121 L 329.5 119 L 329.5 118 Z "/>
    <path fill="#ffffff" d="M 360.5 122 Q 363.5 122.5 363 126.5 L 357.5 133 L 356 132.5 L 359 130.5 L 362 124.5 L 360.5 122 Z "/>
    <path fill="#ffffff" d="M 169.5 124 L 168.5 126 L 165.5 127 L 165.5 126 L 169.5 124 Z "/>
    <path fill="#ffffff" d="M 342.5 124 L 346 126.5 L 344.5 126 L 342.5 124 Z "/>
    <path fill="#ffffff" d="M 163.5 127 L 162.5 129 L 160.5 130 L 161.5 128 L 163.5 127 Z "/>
    <path fill="#ffffff" d="M 471.5 127 L 472 135.5 L 471 135.5 L 471.5 127 Z "/>
    <path fill="#ffffff" d="M 152.5 130 L 155.5 132 L 158.5 130 L 157.5 132 L 154.5 133 L 152.5 130 Z "/>
    <path fill="#ffffff" d="M 470.5 138 L 471 141.5 L 469.5 146 L 469 142.5 L 470.5 138 Z "/>
    <path fill="#ffffff" d="M 41.5 139 L 44 149.5 L 43 149.5 L 41.5 139 Z "/>
    <path fill="#ffffff" d="M 117.5 147 L 115.5 150 L 111.5 153 L 114.5 149 L 117.5 147 Z "/>
    <path fill="#ffffff" d="M 467.5 150 L 468 152.5 L 466.5 155 L 466 153.5 L 467.5 150 Z "/>
    <path fill="#ffffff" d="M 44.5 151 L 46 154.5 L 45 154.5 L 44.5 151 Z "/>
    <path fill="#ffffff" d="M 384.5 151 L 384 152.5 L 393 162.5 L 383 153.5 L 384.5 151 Z "/>
    <path fill="#ffffff" d="M 109.5 153 L 107.5 156 L 104.5 158 L 106.5 155 L 109.5 153 Z "/>
    <path fill="#ffffff" d="M 406.5 156 L 414 161.5 L 412.5 161 Q 407.5 159.5 406.5 156 Z "/>
    <path fill="#ffffff" d="M 102.5 158 L 100.5 161 L 98.5 162 L 99.5 160 L 102.5 158 Z "/>
    <path fill="#ffffff" d="M 464.5 158 L 465 159.5 L 463.5 162 L 463 160.5 L 464.5 158 Z "/>
    <path fill="#ffffff" d="M 49.5 163 L 52 166.5 L 50 165.5 L 49.5 163 Z "/>
    <path fill="#ffffff" d="M 462.5 163 L 462 164.5 L 460.5 167 L 461 165.5 L 462.5 163 Z "/>
    <path fill="#ffffff" d="M 92.5 165 L 91.5 167 L 88.5 169 L 90.5 166 L 92.5 165 Z "/>
    <path fill="#ffffff" d="M 422.5 167 L 431 173.5 L 428.5 172 Q 423.5 170.5 422.5 167 Z "/>
    <path fill="#ffffff" d="M 52.5 168 L 56 172.5 L 53 170.5 L 52.5 168 Z "/>
    <path fill="#ffffff" d="M 459.5 168 L 459 169.5 L 454.5 175 L 458 170.5 L 459.5 168 Z "/>
    <path fill="#ffffff" d="M 80.5 173 L 79.5 175 L 77.5 176 L 78.5 174 L 80.5 173 Z "/>
    <path fill="#ffffff" d="M 432.5 174 L 441 178.5 L 439.5 179 L 433.5 176 L 432.5 174 Z "/>
    <path fill="#ffffff" d="M 452.5 176 L 450.5 179 L 449 178.5 L 452.5 176 Z "/>
    <path fill="#ffffff" d="M 73.5 177 L 72.5 179 L 70 178.5 L 73.5 177 Z "/>
    <path fill="#ffffff" d="M 64.5 179 L 69 179.5 L 64.5 180 L 64.5 179 Z "/>
    <path fill="#ffffff" d="M 410.5 185 L 417 194.5 L 415 193.5 L 410.5 185 Z "/>
    <path fill="#ffffff" d="M 95.5 194 L 95 195.5 L 91.5 202 L 92 200.5 L 95.5 194 Z "/>
    <path fill="#ffffff" d="M 419.5 200 L 422 203.5 L 420 202.5 L 419.5 200 Z "/>
    <path fill="#ffffff" d="M 89.5 205 L 90 206.5 L 87.5 210 L 88 208.5 L 89.5 205 Z "/>
    <path fill="#ffffff" d="M 422.5 205 L 425 210.5 L 424 210.5 L 422.5 205 Z "/>
    <path fill="#ffffff" d="M 86.5 211 L 87 212.5 L 85.5 215 L 85 213.5 L 86.5 211 Z "/>
    <path fill="#ffffff" d="M 425.5 212 L 428 217.5 L 427 217.5 L 425.5 212 Z "/>
    <path fill="#ffffff" d="M 83.5 218 L 84 219.5 L 82.5 222 L 82 220.5 L 83.5 218 Z "/>
    <path fill="#ffffff" d="M 428.5 219 L 430 222.5 L 429 222.5 L 428.5 219 Z "/>
    <path fill="#ffffff" d="M 80.5 226 L 81 227.5 L 79.5 230 L 79 228.5 L 80.5 226 Z "/>
    <path fill="#ffffff" d="M 431.5 227 L 433 230.5 L 432 230.5 L 431.5 227 Z "/>
    <path fill="#ffffff" d="M 77.5 235 L 78 237.5 L 76.5 241 L 76 238.5 L 77.5 235 Z "/>
    <path fill="#ffffff" d="M 434.5 236 L 436 241.5 L 435 241.5 L 434.5 236 Z "/>
    <path fill="#ffffff" d="M 74.5 246 L 75 249.5 L 73.5 254 L 73 250.5 L 74.5 246 Z "/>
    <path fill="#ffffff" d="M 437.5 247 L 439 255.5 L 438 255.5 L 437.5 247 Z "/>
    <path fill="#ffffff" d="M 71.5 263 L 72 269.5 L 71 269.5 L 71.5 263 Z "/>
    <path fill="#ffffff" d="M 440.5 265 L 442 272.5 L 442 283.5 L 441 283.5 L 440.5 265 Z "/>
    <path fill="#ffffff" d="M 70.5 271 L 71 280.5 L 70 280.5 L 70.5 271 Z "/>
    <path fill="#ffffff" d="M 441.5 294 L 442 305.5 L 440.5 313 L 440 306.5 L 441 305.5 L 441.5 294 Z "/>
    <path fill="#ffffff" d="M 70.5 296 L 71 305.5 L 70 305.5 L 70.5 296 Z "/>
    <path fill="#ffffff" d="M 71.5 307 L 72 314.5 L 71 314.5 L 71.5 307 Z "/>
    <path fill="#ffffff" d="M 73.5 323 L 75 330.5 L 74 330.5 L 73.5 323 Z "/>
    <path fill="#ffffff" d="M 438.5 323 L 439 326.5 L 437.5 331 L 437 327.5 L 438.5 323 Z "/>
    <path fill="#ffffff" d="M 435.5 336 L 436 338.5 L 434.5 342 L 434 339.5 L 435.5 336 Z "/>
    <path fill="#ffffff" d="M 76.5 337 L 78 341.5 L 77 341.5 L 76.5 337 Z "/>
    <path fill="#ffffff" d="M 432.5 346 L 433 348.5 L 431.5 351 L 431 349.5 L 432.5 346 Z "/>
    <path fill="#ffffff" d="M 79.5 347 L 82 353.5 L 81 353.5 L 79.5 347 Z "/>
    <path fill="#ffffff" d="M 82.5 355 L 84 358.5 L 83 358.5 L 82.5 355 Z "/>
    <path fill="#ffffff" d="M 429.5 355 L 430 356.5 L 428.5 359 L 428 357.5 L 429.5 355 Z "/>
    <path fill="#ffffff" d="M 84.5 360 L 87 365.5 L 86 365.5 L 84.5 360 Z "/>
    <path fill="#ffffff" d="M 427.5 360 L 428 361.5 L 425.5 366 L 425 364.5 L 427.5 360 Z "/>
    <path fill="#ffffff" d="M 418.5 379 L 418 380.5 L 416.5 383 L 417 381.5 L 418.5 379 Z "/>
    <path fill="#ffffff" d="M 96.5 384 L 99 387.5 L 97 386.5 L 96.5 384 Z "/>
    <path fill="#ffffff" d="M 415.5 384 L 415 385.5 L 413.5 388 L 414 386.5 L 415.5 384 Z "/>
    <path fill="#ffffff" d="M 99.5 389 L 105 396.5 L 102 394.5 L 99.5 389 Z "/>
    <path fill="#ffffff" d="M 410.5 392 L 409 394.5 L 399.5 407 L 403 402.5 L 410.5 392 Z "/>
    <path fill="#ffffff" d="M 105.5 398 L 119 413.5 L 112 407.5 L 105.5 398 Z "/>
    <path fill="#ffffff" d="M 124.5 424 L 124 425.5 L 122.5 428 L 123 426.5 L 124.5 424 Z "/>
    <path fill="#ffffff" d="M 387.5 424 L 393 434.5 L 392 434.5 L 387.5 424 Z "/>
    <path fill="#ffffff" d="M 118.5 435 L 119 436.5 L 116.5 441 L 116 439.5 L 118.5 435 Z "/>
    <path fill="#ffffff" d="M 115.5 442 L 116 443.5 L 114.5 446 L 114 444.5 L 115.5 442 Z "/>
    <path fill="#ffffff" d="M 396.5 442 L 399 448.5 L 398 448.5 L 396.5 442 Z "/>
    <path fill="#ffffff" d="M 112.5 450 L 113 452.5 L 112 453.5 L 112 463.5 L 116 470.5 L 113 468.5 Q 109.6 463.4 111 453.5 L 112.5 450 Z "/>
    <path fill="#ffffff" d="M 161.5 450 L 162 451.5 L 158 454.5 L 161.5 450 Z "/>
    <path fill="#ffffff" d="M 164.5 450 L 169 452.5 L 167.5 453 L 164.5 450 Z "/>
    <path fill="#ffffff" d="M 347.5 450 L 346.5 452 L 343.5 453 L 343.5 452 L 347.5 450 Z "/>
    <path fill="#ffffff" d="M 350.5 451 L 367 469.5 L 357 460.5 L 350.5 451 Z "/>
    <path fill="#ffffff" d="M 399.5 451 Q 402.4 455.2 401 463.5 L 399.5 467 L 399 464.5 L 400 463.5 L 400 454.5 L 399.5 451 Z "/>
    <path fill="#ffffff" d="M 170.5 453 L 181 458.5 L 179.5 459 L 171.5 455 L 170.5 453 Z "/>
    <path fill="#ffffff" d="M 341.5 453 L 340.5 455 L 331.5 459 L 331.5 458 L 341.5 453 Z "/>
    <path fill="#ffffff" d="M 182.5 459 L 188 461.5 L 186.5 462 L 182.5 460 L 182.5 459 Z "/>
    <path fill="#ffffff" d="M 328.5 459 L 330 459.5 L 326.5 461 L 326.5 460 L 328.5 459 Z "/>
    <path fill="#ffffff" d="M 189.5 462 L 194 463.5 L 191.5 464 L 189.5 462 Z "/>
    <path fill="#ffffff" d="M 321.5 462 L 323 462.5 L 318.5 464 L 318.5 463 L 321.5 462 Z "/>
    <path fill="#ffffff" d="M 198.5 465 L 203 466.5 L 200.5 467 L 198.5 465 Z "/>
    <path fill="#ffffff" d="M 312.5 465 L 314 465.5 L 309.5 467 L 309.5 466 L 312.5 465 Z "/>
    <path fill="#ffffff" d="M 208.5 468 L 214 469.5 L 211.5 470 L 208.5 469 L 208.5 468 Z "/>
    <path fill="#ffffff" d="M 302.5 468 L 305 468.5 L 299.5 470 L 299.5 469 L 302.5 468 Z "/>
    <path fill="#ffffff" d="M 398.5 468 L 396 471.5 Q 396.8 473.8 394.5 473 L 390.5 476 L 391.5 474 L 398.5 468 Z "/>
    <path fill="#ffffff" d="M 220.5 471 L 230 472.5 L 225.5 473 L 220.5 472 L 220.5 471 Z "/>
    <path fill="#ffffff" d="M 287.5 471 L 292 471.5 L 282.5 473 L 282.5 472 L 287.5 471 Z "/>
    <path fill="#ffffff" d="M 118.5 473 L 122 475.5 L 120.5 475 L 118.5 473 Z "/>
    <path fill="#ffffff" d="M 139.5 473 L 138.5 475 L 135.5 476 L 135.5 475 L 139.5 473 Z "/>
    <path fill="#ffffff" d="M 234.5 473 L 241 473.5 L 234.5 474 L 234.5 473 Z "/>
    <path fill="#ffffff" d="M 272.5 473 L 278 473.5 L 272.5 474 L 272.5 473 Z "/>
    <path fill="#ffffff" d="M 372.5 473 L 377 475.5 L 375.5 476 L 372.5 473 Z "/>
    <path fill="#ffffff" d="M 244.5 474 L 269 474.5 L 244.5 475 L 244.5 474 Z "/>
    <path fill="#ffffff" d="M 124.5 476 L 134 476.5 L 124.5 477 L 124.5 476 Z "/>
    <path fill="#ffffff" d="M 378.5 476 L 388 476.5 L 378.5 477 L 378.5 476 Z "/>
    <path fill="#4da3ff" d="M 238.5 152 L 273.5 152 Q 275 154.5 280.5 153 L 284.5 155 L 302.5 159 L 331 173 L 331 175 L 334 175 Q 332.9 177.7 335.5 177 L 338 178 L 339.5 181 L 342.5 182 L 354 192.5 L 363.5 204 Q 365.8 203.3 365 205.5 L 379 226.5 L 388 248.5 L 388 253.5 L 391 260.5 Q 390.1 268.9 393 273.5 L 394 295.5 L 393 296.5 L 391 316.5 L 386 334.5 L 371 365 Q 368.3 363.9 369 366.5 L 365 373 Q 362.3 371.9 363 374.5 L 358.5 380 Q 356.3 379.3 357 381.5 L 348 389 Q 349.1 391.7 346.5 391 Q 342.6 397 336 399 Q 337.1 401.7 334.5 401 L 310.5 415 L 290.5 422 L 285.5 422 L 280.5 424 L 267.5 425 L 266.5 426 L 246.5 426 L 245.5 425 L 237.5 425 L 231.5 423 L 226.5 423 L 203.5 416 L 176 401 Q 177.1 398.3 174.5 399 L 171 397 Q 172.1 394.3 169.5 395 L 152 378.5 L 149 373 Q 146.3 374.1 147 371.5 Q 142 368 141 362 Q 138 363.3 139 359.5 L 129 341.5 L 121 316.5 L 120 303.5 L 119 302.5 L 119 272.5 L 125 245.5 L 136 220 Q 139 221.3 138 217.5 L 142 211 Q 144.7 212.1 144 209.5 Q 152.5 195 165.5 185 L 170 183 L 171.5 180 L 173.5 180 L 184.5 171 L 206.5 160 L 215.5 157 L 220.5 157 L 230.5 153 Q 236.8 154.8 238.5 152 Z M 253 163 L 248 166 L 247 170 L 248 179 L 252 182 L 256 183 L 260 182 L 265 175 Q 266 168 263 166 Q 260 162 253 163 Z M 254 200 L 251 203 L 250 216 L 249 217 L 249 264 Q 252 265 250 272 L 247 273 Q 240 277 238 287 L 239 295 L 244 303 L 252 306 Q 260 307 264 304 L 266 305 L 268 308 L 272 310 Q 274 309 273 312 L 289 324 Q 291 323 290 326 L 309 338 Q 315 339 316 336 L 316 331 L 312 325 Q 309 326 310 324 L 299 314 Q 296 315 297 312 L 294 311 L 273 295 L 274 290 L 273 283 L 270 278 L 263 272 L 263 222 L 262 221 L 261 204 L 260 201 L 254 200 Z M 140 279 L 134 281 L 130 286 L 131 294 L 138 298 Q 144 299 147 296 L 150 292 L 149 284 Q 146 279 140 279 Z M 373 279 L 366 281 L 362 286 L 363 294 L 370 298 L 378 297 L 382 292 L 381 284 L 379 281 L 373 279 Z M 253 395 L 250 397 L 247 402 Q 246 409 249 413 L 255 415 L 262 413 L 265 407 L 264 400 Q 262 393 253 395 Z "/>
    <path fill="#4da3ff" d="M 314.5 334 L 312.5 337 L 310 336.5 L 314.5 334 Z "/>
    <path fill="#ffd43b" d="M 125.5 47 L 145.5 47 L 153.5 49 L 172.5 58 L 186 69 L 191 78.5 L 150.5 111 L 89.5 156 L 72.5 167 L 65.5 169 L 59 160.5 L 53 146.5 L 50 132.5 L 50 119.5 L 53 106.5 L 60 91.5 Q 68.9 77.4 81.5 67 Q 92.4 57.9 106.5 52 L 125.5 47 Z "/>
    <path fill="#ffd43b" d="M 366.5 47 L 386.5 47 L 405.5 52 L 425.5 63 L 445 81.5 Q 454.6 93.4 460 109.5 L 462 118.5 L 462 133.5 L 456 154.5 L 448 168 L 443.5 169 Q 379 127 321 78.5 L 321 75.5 L 326.5 69 L 329 67.5 Q 328.3 65.3 330.5 66 L 344.5 55 L 366.5 47 Z "/>
    <path fill="#ffd43b" d="M 247.5 113 L 264.5 113 L 265.5 114 L 282.5 115 L 312.5 122 L 339.5 134 L 366 151 Q 364.9 153.7 367.5 153 L 387 171.5 Q 408.4 194.6 421 226.5 L 430 259.5 L 431 277.5 L 432 278.5 L 432 300.5 L 431 301.5 L 431 310.5 L 427 332.5 L 418 358.5 L 404 384.5 L 386 408 Q 383.3 406.9 384 409.5 Q 356 439 314.5 455 L 293.5 461 L 282.5 462 L 276.5 464 L 238.5 464 L 206.5 458 L 176.5 446 L 149.5 429 L 126 407.5 Q 112.9 393.6 103 376.5 L 97 365.5 L 88 342.5 L 81 310.5 L 80 278.5 L 81 277.5 L 82 259.5 L 85 245.5 L 94 218.5 L 114 184.5 L 137.5 159 Q 158 140.5 184.5 128 L 213.5 118 L 229.5 115 L 236.5 115 L 237.5 114 L 246.5 114 L 247.5 113 Z M 244 140 L 215 145 L 194 153 Q 175 162 161 174 Q 137 194 122 223 L 111 253 L 108 269 L 108 279 L 107 280 L 108 310 L 113 332 L 122 355 L 140 383 Q 159 406 188 421 L 215 432 L 243 437 L 271 437 L 298 432 Q 329 422 352 403 L 375 379 L 390 355 L 399 332 L 405 300 L 404 269 L 399 247 L 390 223 L 378 203 L 370 193 Q 346 164 309 149 L 294 144 L 289 144 L 278 141 Q 271 143 270 140 L 244 140 Z "/>
    <path fill="#66d9e8" d="M 238.5 150 L 272.5 150 L 302.5 157 L 327.5 169 L 354 189 L 355.5 192 Q 357.8 191.3 357 193.5 L 375 215.5 L 389 246.5 L 395 273.5 L 395 304.5 L 389 331.5 L 378 356.5 Q 366.8 376.3 350.5 391 Q 330.8 409.3 303.5 420 L 274.5 427 L 246.5 428 L 245.5 427 L 237.5 427 L 222.5 424 L 203.5 418 Q 174.9 405.6 155 384.5 Q 133.9 363.1 123 331.5 L 117 304.5 L 117 273.5 L 123 245.5 L 134 220.5 Q 145.6 201.1 161.5 186 L 179.5 172 L 201.5 160 L 215.5 155 L 238.5 150 Z M 239 152 Q 237 155 231 153 L 221 157 L 216 157 L 207 160 L 185 171 L 174 180 L 172 180 L 170 183 L 166 185 Q 152 195 144 210 Q 145 212 142 211 L 138 218 Q 139 221 136 220 L 125 246 L 119 273 L 119 303 L 120 304 L 121 317 L 129 342 L 139 360 Q 138 363 141 362 Q 142 368 147 372 Q 146 374 149 373 L 152 379 L 170 395 Q 172 394 171 397 L 175 399 Q 177 398 176 401 L 204 416 L 227 423 L 232 423 L 238 425 L 246 425 L 247 426 L 267 426 L 268 425 L 281 424 L 286 422 L 291 422 L 311 415 L 335 401 Q 337 402 336 399 Q 343 397 347 391 Q 349 392 348 389 L 357 382 Q 356 379 359 380 L 363 375 Q 362 372 365 373 L 369 367 Q 368 364 371 365 L 386 335 L 391 317 L 393 297 L 394 296 L 393 274 Q 390 269 391 261 L 388 254 L 388 249 L 379 227 L 365 206 Q 366 203 364 204 L 354 193 L 343 182 L 340 181 L 338 178 L 336 177 Q 333 178 334 175 L 331 175 L 331 173 L 303 159 L 285 155 L 281 153 Q 275 155 274 152 L 239 152 Z "/>
    <path fill="#66d9e8" d="M 252.5 163 Q 260.5 161.5 263 165.5 Q 265.6 168.4 265 174.5 L 259.5 182 L 255.5 183 L 251.5 182 L 248 178.5 L 247 169.5 L 248 166 L 252.5 163 Z M 254 165 L 252 166 L 249 170 L 250 178 L 255 181 L 260 180 L 263 175 L 262 167 L 259 165 L 254 165 Z "/>
    <path fill="#66d9e8" d="M 253.5 200 L 260 201 L 261 203.5 L 262 220.5 L 263 221.5 L 263 272 L 270 277.5 L 273 282.5 L 274 289.5 L 273 294.5 L 293.5 311 L 297 312 Q 295.9 314.7 298.5 314 L 310 323.5 Q 309.3 325.8 311.5 325 L 316 330.5 L 316 335.5 Q 314.8 339.3 308.5 338 L 290 326 Q 291.1 323.3 288.5 324 L 273 312 Q 274.1 309.3 271.5 310 L 268 307.5 L 266 304.5 L 263.5 304 Q 259.8 307.3 251.5 306 L 244 303 L 239 294.5 L 238 286.5 Q 239.8 277.3 246.5 273 L 250 271.5 Q 251.8 265.2 249 263.5 L 249 216.5 L 250 215.5 L 251 202.5 L 253.5 200 Z M 255 202 L 252 208 L 252 216 L 251 217 L 251 266 Q 254 267 252 273 L 246 276 Q 241 280 240 287 L 241 295 L 244 300 L 252 304 Q 260 305 264 302 L 266 302 L 298 329 L 311 337 Q 315 338 315 335 L 314 331 L 305 321 L 271 296 L 272 291 Q 272 282 268 278 L 264 275 L 261 273 L 261 223 L 260 222 L 259 204 Q 258 201 255 202 Z "/>
    <path fill="#66d9e8" d="M 139.5 279 Q 146.1 279.4 149 283.5 L 150 291.5 L 146.5 296 Q 143.8 298.8 137.5 298 L 131 293.5 L 130 285.5 L 133.5 281 L 139.5 279 Z M 139 281 L 136 282 L 131 289 L 132 292 L 138 296 L 145 295 L 149 289 L 148 286 Q 146 281 139 281 Z "/>
    <path fill="#66d9e8" d="M 372.5 279 L 378.5 281 L 381 283.5 L 382 291.5 L 377.5 297 L 369.5 298 L 363 293.5 L 362 285.5 L 365.5 281 L 372.5 279 Z M 371 281 L 368 282 Q 362 284 364 292 L 370 296 L 377 295 Q 382 294 380 286 Q 378 281 371 281 Z "/>
    <path fill="#66d9e8" d="M 252.5 395 Q 262.3 393.3 264 399.5 L 265 406.5 L 262 413 L 254.5 415 L 249 413 Q 246.3 409.4 247 401.5 L 249.5 397 L 252.5 395 Z M 253 397 L 249 403 Q 248 411 254 413 L 260 412 L 263 407 L 262 400 Q 260 395 253 397 Z "/>
  </g>
  <g id="line">
    <path fill="#1a1a1a" d="M 74.5 36 L 82.5 37 L 86.5 39 L 95.5 47 L 105.5 42 L 115.5 39 L 120.5 39 L 126.5 37 L 143.5 37 Q 174.6 42.4 192 61.5 L 201 74.5 L 201 81.5 L 194.5 89 L 149 124.5 L 149 126.5 L 154.5 133 L 176.5 121 L 199.5 112 L 222.5 106 L 229.5 106 L 237.5 104 L 249.5 104 L 251 102.5 L 251 84.5 L 250 83.5 L 250 81.5 L 248.5 79 L 233.5 79 L 226 74.5 L 224 71.5 L 223 64.5 Q 225.2 63.3 224 58.5 L 228.5 53 L 233.5 51 L 245.5 51 L 246.5 50 L 272.5 50 L 282 54 L 285 59.5 L 285 69.5 L 279.5 76 L 274.5 78 L 261 79 L 262 104 L 275.5 104 L 306.5 110 Q 334.9 118.6 357.5 133 L 363 126.5 L 363 124.5 L 314 85.5 Q 309.5 83 311 74.5 Q 315.6 64.6 323.5 58 Q 334.4 48.4 348.5 42 L 368.5 37 L 385.5 37 L 400.5 40 L 417.5 47 L 422.5 41 Q 427.5 36 437.5 36 L 442.5 37 L 450 42.5 Q 455.5 47.5 454 59.5 L 448 70.5 Q 459 82 466 97.5 L 471 115.5 L 471 125.5 L 472 126.5 L 471 127.5 L 471 137.5 L 466 155.5 L 463 162.5 L 454 176 L 448.5 179 L 441.5 179 L 431.5 174 L 389.5 144 L 383 153.5 Q 410.2 177.8 426 213.5 L 431 225.5 L 437 246.5 L 437 251.5 L 440 262.5 L 442 293.5 L 441 294.5 L 441 305.5 L 440 306.5 L 439 322.5 L 434 342.5 L 428 359.5 L 413 388.5 L 393 415 L 390 416.5 L 388 419.5 L 386 422.5 L 399 449.5 L 400 463.5 Q 398.9 471.5 392.5 474 L 389.5 476 L 377.5 476 Q 365.6 470.4 358 460.5 L 349.5 450 L 323.5 462 L 298.5 470 L 287.5 471 L 281.5 473 L 272.5 473 L 271.5 474 L 241.5 474 L 240.5 473 L 230.5 473 L 224.5 471 L 219.5 471 L 203.5 467 Q 181.8 460.7 164.5 450 L 161 450 Q 154.8 461.5 144.5 470 L 134.5 476 L 122.5 476 L 116 471.5 Q 110.3 466.2 112 453.5 L 119 434.5 L 126 421.5 L 125 419 L 122 417.5 L 120.5 415 Q 118.3 415.8 119 413.5 Q 104.4 399.1 94 380.5 L 79 346.5 L 72 315.5 L 71 296.5 L 70 295.5 L 70 281.5 L 71 280.5 L 72 261.5 L 75 245.5 L 79 230.5 L 87 210.5 Q 103 177 129 153.5 L 122.5 145 L 114.5 149 L 76.5 176 Q 72.4 179.9 63.5 179 L 56 173.5 Q 48.3 163.7 44 150.5 L 41 138.5 L 41 113.5 L 47 94.5 L 64 69.5 Q 56.1 64.4 58 49.5 L 64.5 40 L 69.5 37 L 74.5 36 Z M 126 47 L 107 52 Q 92 58 82 67 Q 69 77 60 92 L 53 107 L 50 120 L 50 133 L 53 147 L 59 161 L 66 169 L 73 167 L 90 156 L 151 111 L 191 79 L 186 69 L 173 58 L 154 49 L 146 47 L 126 47 Z M 367 47 L 345 55 L 331 66 Q 328 65 329 68 L 327 69 L 321 76 L 321 79 Q 379 127 444 169 L 448 168 L 456 155 L 462 134 L 462 119 L 460 110 Q 455 93 445 82 L 426 63 L 406 52 L 387 47 L 367 47 Z M 248 113 L 247 114 L 238 114 L 237 115 L 230 115 L 214 118 L 185 128 Q 158 141 138 159 L 114 185 L 94 219 L 85 246 L 82 260 L 81 278 L 80 279 L 81 311 L 88 343 L 97 366 L 103 377 Q 113 394 126 408 L 150 429 L 177 446 L 207 458 L 239 464 L 277 464 L 283 462 L 294 461 L 315 455 Q 356 439 384 410 Q 383 407 386 408 L 404 385 L 418 359 L 427 333 L 431 311 L 431 302 L 432 301 L 432 279 L 431 278 L 430 260 L 421 227 Q 408 195 387 172 L 368 153 Q 365 154 366 151 L 340 134 L 313 122 L 283 115 L 266 114 L 265 113 L 248 113 Z "/>
    <path fill="#1a1a1a" d="M 243.5 140 L 269.5 140 Q 271.3 142.7 277.5 141 L 288.5 144 L 293.5 144 L 308.5 149 Q 346 164 370 192.5 L 378 202.5 L 390 222.5 L 399 246.5 L 404 268.5 L 405 299.5 L 399 331.5 L 390 354.5 L 375 378.5 L 351.5 403 Q 329.1 422.1 297.5 432 L 270.5 437 L 242.5 437 L 214.5 432 L 187.5 421 Q 159.4 406 140 382.5 L 122 354.5 L 113 331.5 L 108 309.5 L 107 279.5 L 108 278.5 L 108 268.5 L 111 252.5 L 122 222.5 Q 136.7 193.7 160.5 174 Q 175.3 161.8 193.5 153 L 214.5 145 L 243.5 140 Z M 239 150 L 216 155 L 202 160 L 180 172 L 162 186 Q 146 201 134 221 L 123 246 L 117 274 L 117 305 L 123 332 Q 134 363 155 385 Q 175 406 204 418 L 223 424 L 238 427 L 246 427 L 247 428 L 275 427 L 304 420 Q 331 409 351 391 Q 367 376 378 357 L 389 332 L 395 305 L 395 274 L 389 247 L 375 216 L 357 194 Q 358 191 356 192 L 354 189 L 328 169 L 303 157 L 273 150 L 239 150 Z "/>
    <path fill="#1a1a1a" d="M 253.5 165 L 258.5 165 L 262 167 L 263 174.5 L 259.5 180 L 254.5 181 L 250 177.5 L 249 169.5 L 251.5 166 L 253.5 165 Z "/>
    <path fill="#1a1a1a" d="M 254.5 202 Q 258.3 201.3 259 203.5 L 260 221.5 L 261 222.5 L 261 272.5 L 263.5 275 L 268 277.5 Q 272.2 281.8 272 290.5 L 271 295.5 L 304.5 321 L 314 330.5 L 315 333.5 Q 314 337 308.5 336 L 297.5 329 L 265.5 302 L 263.5 302 Q 259.8 305.3 251.5 304 L 244 300 L 241 294.5 L 240 286.5 Q 241.3 279.8 245.5 276 L 252 272.5 Q 253.5 267 251 265.5 L 251 216.5 L 252 215.5 L 252 207.5 L 254.5 202 Z "/>
    <path fill="#1a1a1a" d="M 138.5 281 Q 145.8 280.8 148 285.5 L 149 288.5 L 144.5 295 L 137.5 296 L 132 291.5 L 131 288.5 L 135.5 282 L 138.5 281 Z "/>
    <path fill="#1a1a1a" d="M 370.5 281 Q 377.8 280.8 380 285.5 Q 381.5 293.5 376.5 295 L 369.5 296 L 364 291.5 Q 362.5 283.5 367.5 282 L 370.5 281 Z "/>
    <path fill="#1a1a1a" d="M 252.5 397 Q 260.3 395.2 262 399.5 L 263 406.5 L 259.5 412 L 253.5 413 Q 247.9 411.1 249 402.5 L 252.5 397 Z "/>
  </g>
</svg>
