<svg xmlns="http://www.w3.org/2000/svg" width="512" height="512" viewBox="0 0 512 512">
  <g id="color">
    <path fill="#ffffff" d="M 211.5 36 L 222 36.5 L 211.5 37 L 211.5 36 Z "/>
    <path fill="#ffffff" d="M 201.5 37 L 210 37.5 L 201.5 38 L 201.5 37 Z "/>
    <path fill="#ffffff" d="M 223.5 37 L 233 37.5 L 223.5 38 L 223.5 37 Z "/>
    <path fill="#ffffff" d="M 175.5 43 L 177 43.5 L 173.5 45 L 173.5 44 L 175.5 43 Z "/>
    <path fill="#ffffff" d="M 168.5 46 L 170 46.5 L 165.5 49 L 166.5 47 L 168.5 46 Z "/>
    <path fill="#ffffff" d="M 270.5 46 L 275 47.5 L 273.5 48 L 270.5 47 L 270.5 46 Z "/>
    <path fill="#ffffff" d="M 281.5 50 L 285 51.5 L 283.5 52 L 281.5 50 Z "/>
    <path fill="#ffffff" d="M 288.5 53 L 292 54.5 L 290.5 55 L 288.5 53 Z "/>
    <path fill="#ffffff" d="M 301.5 59 L 305 61.5 L 303.5 61 L 301.5 59 Z "/>
    <path fill="#ffffff" d="M 308.5 63 L 312 65.5 L 310.5 65 L 308.5 63 Z "/>
    <path fill="#ffffff" d="M 313.5 66 L 317 68.5 L 315.5 68 L 313.5 66 Z "/>
    <path fill="#ffffff" d="M 318.5 69 L 322 71.5 L 320.5 71 L 318.5 69 Z "/>
    <path fill="#ffffff" d="M 327.5 75 L 332 78.5 L 329.5 77 L 327.5 75 Z "/>
    <path fill="#ffffff" d="M 130.5 79 L 130 80.5 L 128.5 83 L 129 81.5 L 130.5 79 Z "/>
    <path fill="#ffffff" d="M 337.5 83 L 342 86.5 L 338.5 84 L 337.5 83 Z "/>
    <path fill="#ffffff" d="M 126.5 86 L 126 87.5 L 124.5 91 L 124 89.5 L 126.5 86 Z "/>
    <path fill="#ffffff" d="M 122.5 94 L 123 95.5 L 121.5 98 L 121 96.5 L 122.5 94 Z "/>
    <path fill="#ffffff" d="M 119.5 102 L 120 104.5 L 118.5 108 L 118 105.5 L 119.5 102 Z "/>
    <path fill="#ffffff" d="M 115.5 119 L 116 124.5 L 115 124.5 L 115.5 119 Z "/>
    <path fill="#ffffff" d="M 114.5 127 L 115 134.5 L 114 134.5 L 114.5 127 Z "/>
    <path fill="#ffffff" d="M 278.5 133 L 294 133.5 L 278.5 134 L 276.5 135 L 276.5 134 L 278.5 133 Z "/>
    <path fill="#ffffff" d="M 273.5 135 L 272.5 137 L 270.5 138 L 271.5 136 L 273.5 135 Z "/>
    <path fill="#ffffff" d="M 303.5 136 L 307 137.5 L 305.5 138 L 303.5 136 Z "/>
    <path fill="#ffffff" d="M 387.5 137 L 390 140.5 L 388 139.5 L 387.5 137 Z "/>
    <path fill="#ffffff" d="M 268.5 138 L 266 141.5 L 261.5 150 L 261 148.5 L 268.5 138 Z "/>
    <path fill="#ffffff" d="M 317.5 142 L 321 144.5 L 319.5 144 L 317.5 142 Z "/>
    <path fill="#ffffff" d="M 390.5 142 L 393 145.5 L 391 144.5 L 390.5 142 Z "/>
    <path fill="#ffffff" d="M 322.5 145 L 326 147.5 L 324.5 147 L 322.5 145 Z "/>
    <path fill="#ffffff" d="M 114.5 149 L 115 158.5 L 114 158.5 L 114.5 149 Z "/>
    <path fill="#ffffff" d="M 394.5 149 L 400 158.5 L 398 157.5 L 394.5 149 Z "/>
    <path fill="#ffffff" d="M 258.5 160 L 259 164.5 L 258 164.5 L 258.5 160 Z "/>
    <path fill="#ffffff" d="M 400.5 160 L 403 165.5 L 402 165.5 L 400.5 160 Z "/>
    <path fill="#ffffff" d="M 115.5 162 L 117 168.5 L 116 168.5 L 115.5 162 Z "/>
    <path fill="#ffffff" d="M 256.5 169 L 257 170.5 L 255.5 173 L 255 171.5 L 256.5 169 Z "/>
    <path fill="#ffffff" d="M 404.5 169 L 406 172.5 L 405 172.5 L 404.5 169 Z "/>
    <path fill="#ffffff" d="M 118.5 173 L 121 176.5 L 118 174.5 L 118.5 173 Z "/>
    <path fill="#ffffff" d="M 254.5 174 L 254 175.5 L 257 181.5 L 255 180.5 L 253 175.5 L 254.5 174 Z "/>
    <path fill="#ffffff" d="M 407.5 176 L 410 182.5 L 409 182.5 L 407.5 176 Z "/>
    <path fill="#ffffff" d="M 121.5 178 L 123 180.5 L 121 181.5 L 122 179.5 L 121.5 178 Z "/>
    <path fill="#ffffff" d="M 356.5 178 L 361 183.5 L 358 181.5 L 356.5 178 Z "/>
    <path fill="#ffffff" d="M 119.5 185 L 120 187.5 L 119 188.5 L 118.5 198 L 118 188.5 L 119.5 185 Z "/>
    <path fill="#ffffff" d="M 411.5 187 L 413 190.5 L 412 190.5 L 411.5 187 Z "/>
    <path fill="#ffffff" d="M 364.5 190 L 367 193.5 L 365 192.5 L 364.5 190 Z "/>
    <path fill="#ffffff" d="M 367.5 195 L 370 198.5 L 368 197.5 L 367.5 195 Z "/>
    <path fill="#ffffff" d="M 125.5 208 L 129 210.5 L 127.5 210 L 125.5 208 Z "/>
    <path fill="#ffffff" d="M 374.5 208 L 377 213.5 L 376 213.5 L 374.5 208 Z "/>
    <path fill="#ffffff" d="M 249.5 209 L 249 210.5 L 248.5 219 L 248 210.5 L 249.5 209 Z "/>
    <path fill="#ffffff" d="M 130.5 211 L 131 220.5 L 130 220.5 L 130.5 211 Z "/>
    <path fill="#ffffff" d="M 377.5 215 L 379 218.5 L 378 218.5 L 377.5 215 Z "/>
    <path fill="#ffffff" d="M 129.5 223 L 130 224.5 L 128.5 227 L 128 225.5 L 129.5 223 Z "/>
    <path fill="#ffffff" d="M 421.5 223 L 423 230.5 L 422 230.5 L 421.5 223 Z "/>
    <path fill="#ffffff" d="M 381.5 225 L 383 228.5 L 382 228.5 L 381.5 225 Z "/>
    <path fill="#ffffff" d="M 384.5 233 L 386 238.5 L 385 238.5 L 384.5 233 Z "/>
    <path fill="#ffffff" d="M 424.5 239 L 425 243.5 L 424 243.5 L 424.5 239 Z "/>
    <path fill="#ffffff" d="M 264.5 241 L 269 244.5 L 267.5 244 L 264.5 241 Z "/>
    <path fill="#ffffff" d="M 387.5 243 L 390 252.5 L 389 252.5 L 387.5 243 Z "/>
    <path fill="#ffffff" d="M 425.5 245 L 426 250.5 L 425 250.5 L 425.5 245 Z "/>
    <path fill="#ffffff" d="M 106.5 248 L 104.5 251 L 102.5 252 L 103.5 250 L 106.5 248 Z "/>
    <path fill="#ffffff" d="M 426.5 254 L 427 258.5 L 426 258.5 L 426.5 254 Z "/>
    <path fill="#ffffff" d="M 288.5 258 L 306 276.5 L 302 273.5 L 288.5 258 Z "/>
    <path fill="#ffffff" d="M 391.5 259 L 393 266.5 L 392 266.5 L 391.5 259 Z "/>
    <path fill="#ffffff" d="M 427.5 264 L 428 270.5 L 427 270.5 L 427.5 264 Z "/>
    <path fill="#ffffff" d="M 428.5 273 L 429 297.5 L 428 297.5 L 428.5 273 Z "/>
    <path fill="#ffffff" d="M 394.5 275 L 395 279.5 L 394 279.5 L 394.5 275 Z "/>
    <path fill="#ffffff" d="M 306.5 278 L 311 283.5 L 308 281.5 L 306.5 278 Z "/>
    <path fill="#ffffff" d="M 395.5 281 L 396 288.5 L 395 288.5 L 395.5 281 Z "/>
    <path fill="#ffffff" d="M 311.5 285 L 314 288.5 L 312 287.5 L 311.5 285 Z "/>
    <path fill="#ffffff" d="M 62.5 294 L 62 295.5 L 58.5 302 L 59 300.5 L 62.5 294 Z "/>
    <path fill="#ffffff" d="M 397.5 298 L 400 302.5 L 398 301.5 L 397.5 298 Z "/>
    <path fill="#ffffff" d="M 57.5 303 L 58 304.5 L 55.5 309 L 55 307.5 L 57.5 303 Z "/>
    <path fill="#ffffff" d="M 405.5 308 L 411 309.5 L 407.5 310 L 405.5 308 Z "/>
    <path fill="#ffffff" d="M 324.5 312 L 326 316.5 L 325 316.5 L 324.5 312 Z "/>
    <path fill="#ffffff" d="M 53.5 313 L 54 314.5 L 52.5 318 L 52 315.5 L 53.5 313 Z "/>
    <path fill="#ffffff" d="M 49.5 326 L 50 329.5 L 48.5 333 L 48 330.5 L 49.5 326 Z "/>
    <path fill="#ffffff" d="M 411.5 328 L 427 328.5 L 411.5 329 L 411.5 328 Z "/>
    <path fill="#ffffff" d="M 403.5 329 L 408 329.5 L 403.5 330 L 403.5 329 Z "/>
    <path fill="#ffffff" d="M 429.5 329 Q 434.3 328.3 436 330.5 L 434.5 331 L 429.5 330 L 429.5 329 Z "/>
    <path fill="#ffffff" d="M 395.5 331 L 397 331.5 Q 390.8 333.3 387.5 338 L 391.5 333 L 395.5 331 Z "/>
    <path fill="#ffffff" d="M 330.5 336 L 331 340.5 L 330 340.5 L 330.5 336 Z "/>
    <path fill="#ffffff" d="M 47.5 337 L 48 341.5 L 47 341.5 L 47.5 337 Z "/>
    <path fill="#ffffff" d="M 331.5 344 L 332 369.5 L 331 369.5 L 331.5 344 Z "/>
    <path fill="#ffffff" d="M 46.5 346 L 47 360.5 L 46 360.5 L 46.5 346 Z "/>
    <path fill="#ffffff" d="M 394.5 355 L 395 375.5 L 394 375.5 L 394.5 355 Z "/>
    <path fill="#ffffff" d="M 437.5 355 L 438 374.5 L 440 379.5 L 438 378.5 L 437 374.5 L 437.5 355 Z "/>
    <path fill="#ffffff" d="M 47.5 366 L 48 370.5 L 47 370.5 L 47.5 366 Z "/>
    <path fill="#ffffff" d="M 329.5 380 L 330 383.5 L 328.5 388 L 328 384.5 L 329.5 380 Z "/>
    <path fill="#ffffff" d="M 441.5 381 L 445 383.5 L 443.5 383 L 441.5 381 Z "/>
    <path fill="#ffffff" d="M 51.5 388 L 54 394.5 L 53 394.5 L 51.5 388 Z "/>
    <path fill="#ffffff" d="M 379.5 390 L 376 394.5 L 373.5 398 L 375 395.5 L 379.5 390 Z "/>
    <path fill="#ffffff" d="M 326.5 394 L 327 395.5 L 324.5 401 L 324 399.5 L 326.5 394 Z "/>
    <path fill="#ffffff" d="M 55.5 399 L 57 402.5 L 56 402.5 L 55.5 399 Z "/>
    <path fill="#ffffff" d="M 372.5 399 L 372 400.5 L 370.5 403 L 371 401.5 L 372.5 399 Z "/>
    <path fill="#ffffff" d="M 369.5 404 L 370 405.5 L 368.5 408 L 368 406.5 L 369.5 404 Z "/>
    <path fill="#ffffff" d="M 322.5 405 L 323 406.5 L 321.5 409 L 321 407.5 L 322.5 405 Z "/>
    <path fill="#ffffff" d="M 319.5 412 L 320 413.5 L 317.5 417 L 318 415.5 L 319.5 412 Z "/>
    <path fill="#ffffff" d="M 364.5 420 L 365 425.5 L 364 425.5 L 364.5 420 Z "/>
    <path fill="#ffffff" d="M 364.5 433 L 366 441.5 L 365 441.5 L 364.5 433 Z "/>
    <path fill="#ffffff" d="M 367.5 446 L 370 451.5 L 369 451.5 L 367.5 446 Z "/>
    <path fill="#ffffff" d="M 92.5 450 L 98 454.5 L 95.5 453 L 92.5 450 Z "/>
    <path fill="#ffffff" d="M 104.5 458 L 108 460.5 L 106.5 460 L 104.5 458 Z "/>
    <path fill="#ffffff" d="M 278.5 458 L 277.5 460 L 275.5 461 L 276.5 459 L 278.5 458 Z "/>
    <path fill="#ffffff" d="M 456.5 458 L 449.5 466 L 446.5 468 L 448.5 465 L 456.5 458 Z "/>
    <path fill="#ffffff" d="M 109.5 461 L 115 463.5 L 113.5 464 L 109.5 462 L 109.5 461 Z "/>
    <path fill="#ffffff" d="M 119.5 465 L 123 466.5 L 121.5 467 L 119.5 465 Z "/>
    <path fill="#ffffff" d="M 264.5 465 L 266 465.5 L 262.5 467 L 262.5 466 L 264.5 465 Z "/>
    <path fill="#ffffff" d="M 128.5 468 L 134 469.5 L 130.5 470 L 128.5 468 Z "/>
    <path fill="#ffffff" d="M 256.5 468 L 258 468.5 L 253.5 470 L 253.5 469 L 256.5 468 Z "/>
    <path fill="#ffffff" d="M 385.5 468 L 390 470.5 L 388.5 471 L 385.5 468 Z "/>
    <path fill="#ffffff" d="M 437.5 471 L 439 471.5 L 435.5 473 L 435.5 472 L 437.5 471 Z "/>
    <path fill="#ffffff" d="M 144.5 472 L 155 473.5 L 150.5 474 Q 149.2 471.7 144.5 473 L 144.5 472 Z "/>
    <path fill="#ffffff" d="M 393.5 472 L 397 473.5 L 395.5 474 L 393.5 472 Z "/>
    <path fill="#ffffff" d="M 158.5 474 L 164 474.5 L 158.5 475 L 158.5 474 Z "/>
    <path fill="#ffffff" d="M 228.5 474 L 233 474.5 L 228.5 475 L 228.5 474 Z "/>
    <path fill="#ffffff" d="M 169.5 475 L 182 475.5 L 169.5 476 L 169.5 475 Z "/>
    <path fill="#ffffff" d="M 215.5 475 L 225 475.5 L 215.5 476 L 215.5 475 Z "/>
    <path fill="#ffffff" d="M 403.5 475 L 409 475.5 L 403.5 476 L 403.5 475 Z "/>
    <path fill="#ffffff" d="M 420.5 475 L 426 475.5 L 420.5 476 L 420.5 475 Z "/>
    <path fill="#ffffff" d="M 185.5 476 L 213 476.5 L 185.5 477 L 185.5 476 Z "/>
    <path fill="#ffffff" d="M 410.5 476 L 419 476.5 L 410.5 477 L 410.5 476 Z "/>
    <path fill="#4da3ff" d="M 205.5 49 L 237.5 50 L 269.5 58 L 298.5 71 L 331 92 Q 329.9 94.7 332.5 94 L 335 95 Q 333.9 97.7 336.5 97 L 345 104 L 346.5 107 L 349 108.5 Q 348.3 110.8 350.5 110 Q 358 115.8 362 124 Q 364.7 122.9 364 125.5 L 371 133.5 L 372 137 Q 374.7 135.9 374 138.5 L 382 150.5 L 382 153 Q 384.7 151.9 384 154.5 L 387 158.5 L 395 178.5 L 397 180.5 L 399 189.5 L 401 191.5 L 411 228.5 L 412 240.5 L 415 253.5 L 415 255.5 L 415 265.5 L 417 274.5 L 416 276.5 L 417 277.5 L 417 295.5 Q 416 299 410.5 298 L 408 293.5 L 406 271.5 L 399 240.5 L 388 208.5 L 378 190.5 L 378 188 Q 375 189.3 376 185.5 L 358 160 L 355 158.5 L 353 155.5 Q 336.7 136.3 311.5 126 L 296.5 122 L 281.5 121 L 265.5 126 L 258 132.5 L 252 140.5 L 248 151.5 L 246 165.5 L 241.5 171 L 233.5 174 L 218.5 177 L 172.5 178 L 170.5 178 L 139.5 174 L 130 170.5 L 127 164.5 L 127 156.5 L 126 155.5 L 126 129.5 L 129 117.5 L 129 115.5 L 130 107.5 L 137 90.5 L 145 78.5 L 152.5 71 Q 161.2 62.2 173.5 57 L 190.5 51 L 204.5 50 L 205.5 49 Z M 195 62 Q 177 67 165 77 L 149 97 L 145 105 L 145 111 Q 146 114 151 113 L 154 110 Q 157 99 163 93 Q 175 75 201 71 L 203 66 Q 201 62 195 62 Z M 143 122 L 139 127 L 139 139 Q 140 142 146 141 L 148 137 L 148 135 Q 150 131 149 125 Q 148 121 143 122 Z "/>
    <path fill="#4da3ff" d="M 243.5 184 Q 245.8 183.3 245 185.5 Q 248.6 188.4 247 196.5 L 244.5 199 L 236.5 202 L 220.5 203 L 219.5 204 L 217.5 203 L 206.5 205 L 188.5 205 L 187.5 204 L 178.5 204 L 173.5 205 L 172.5 204 L 140.5 202 L 133.5 200 L 131 197.5 L 130 190.5 Q 132.8 189.4 132 186 L 137.5 187 L 139.5 187 L 157.5 189 L 158.5 190 L 165.5 190 L 166.5 191 L 208.5 191 L 211.5 190 L 219.5 190 Q 223.1 187.1 230.5 188 L 243.5 184 Z "/>
    <path fill="#4da3ff" d="M 142 215 L 155.5 216 L 156.5 217 L 178.5 217 L 182.5 218 L 184.5 218 L 195.5 218 L 196.5 217 L 201.5 218 L 202.5 217 L 220.5 217 L 221.5 216 L 223.5 216 L 237 215 L 238 225.5 L 245 240 L 248 241.5 L 253.5 248 L 256.5 250 L 259 251 Q 257.9 253.7 260.5 253 Q 280.7 264.3 295 281.5 L 308 302.5 L 317 327.5 L 317 329.5 L 320 344.5 L 319 346.5 L 320 347.5 L 320 365.5 L 319 366.5 L 318 381.5 L 314 396.5 L 301 423 Q 298.3 421.9 299 424.5 L 289.5 436 Q 287.3 435.3 288 437.5 L 285 439 Q 286.1 441.7 283.5 441 L 272.5 449 L 272 445.5 L 273 444.5 L 273 436.5 Q 270.8 422.8 261.5 416 L 251.5 409 L 241.5 406 Q 234 407.5 230.5 405 L 208.5 409 L 180.5 423 L 177.5 423 L 171.5 420 L 156.5 416 L 142.5 416 L 129.5 420 L 119 428.5 L 114 438.5 L 113 448.5 L 113.5 450 L 103.5 445 L 87 430.5 L 77 417.5 L 67 398.5 L 60 375.5 L 58 355.5 Q 60.5 354 59 348.5 L 59 346.5 L 59 337.5 L 61 327.5 L 63 324.5 L 63 320.5 L 72 300.5 L 79 291.5 L 80 288 Q 82.7 289.1 82 286.5 L 97.5 270 L 100.5 268 L 108.5 261 L 121.5 253 L 134 240.5 L 141 228.5 L 142 215 Z M 134 262 L 128 265 Q 123 267 125 274 L 128 275 Q 136 274 140 269 L 139 263 L 134 262 Z M 113 281 L 106 285 L 95 299 L 86 314 Q 85 320 82 324 L 78 345 L 78 356 L 81 370 L 86 373 L 90 370 L 90 360 L 89 359 L 89 345 L 94 323 L 100 311 L 110 297 L 115 293 L 119 288 L 119 284 Q 118 280 113 281 Z "/>
    <path fill="#4da3ff" d="M 411.5 340 Q 424.1 338.4 432 341.5 L 428 346.5 L 426 353.5 L 426 372.5 L 428 383.5 L 435.5 392 L 445 398.5 L 447 401.5 L 452 409.5 L 452 412.5 L 443.5 419 Q 438.7 421.3 430.5 420 L 423.5 418 L 407.5 410 L 388.5 409 L 383.5 410 L 381.5 412 L 380 409.5 L 387.5 398 L 403 386.5 L 406 379.5 L 406 353.5 L 400.5 345 L 398 343.5 L 402.5 341 L 410.5 341 L 411.5 340 Z "/>
    <path fill="#ffd43b" d="M 227.5 413 L 234 413.5 L 227.5 414 L 227.5 413 Z "/>
    <path fill="#ffd43b" d="M 213.5 465 L 219 465.5 L 213.5 466 L 213.5 465 Z "/>
    <path fill="#ffa94d" d="M 226.5 413 Q 228 415.5 233.5 414 L 235.5 414 L 245.5 415 L 254.5 420 L 259 424.5 L 264 431.5 L 265 444.5 L 259 456 Q 256 455 257 458 L 254.5 458 L 248.5 461 L 238.5 462 L 235.5 464 L 232.5 463 L 219.5 466 Q 218.3 463.7 213.5 465 L 210.5 466 L 185.5 466 L 184.5 465 L 182.5 466 L 177.5 465 L 154.5 464 L 151.5 462 L 147.5 462 L 138.5 461 L 124 455.5 Q 119.1 451.4 121 440.5 L 122 437 Q 125 438.3 124 434.5 L 128 431.5 L 129.5 429 L 136.5 425 L 138.5 426 L 142.5 424 L 144.5 424 L 160.5 425 L 186.5 435 L 197.5 436 L 198.5 437 L 200.5 436 L 202.5 436 L 208 433.5 Q 209.8 427.4 202.5 430 L 200.5 429 L 195.5 430 L 189 426.5 L 203.5 419 L 226.5 413 Z M 227 426 L 225 427 L 223 431 L 228 433 L 230 429 L 227 426 Z "/>
    <path fill="#ffa94d" d="M 393.5 416 L 398.5 417 L 400.5 417 L 408.5 419 L 425.5 427 L 441.5 428 L 455.5 421 L 457 422.5 L 457 426.5 L 456 438.5 Q 452.4 448.4 445.5 455 L 440 458 Q 441.1 460.7 438.5 460 L 433.5 463 L 420.5 466 L 418.5 465 Q 416.8 467.8 410.5 466 L 407.5 465 L 404.5 464 L 402.5 465 L 399.5 463 L 397.5 463 L 390 460 Q 391.1 457.3 388.5 458 L 385 456 L 385 454 Q 382.3 455.1 383 452.5 L 377 444.5 L 374 429.5 L 378.5 423 L 383.5 419 L 393.5 416 Z M 389 430 L 386 431 L 385 435 L 390 447 L 395 450 L 400 448 Q 393 442 391 432 L 389 430 Z "/>
    <path fill="#66d9e8" d="M 206.5 47 L 224.5 47 L 225.5 48 L 241.5 49 L 268.5 56 L 283.5 62 Q 328.1 82.4 359 116.5 L 377 139.5 L 389 159.5 L 400 184.5 L 406 202.5 L 407 209.5 L 409 212.5 L 409 216.5 L 413 230.5 L 414 243.5 L 417 257.5 L 417 268.5 L 419 279.5 L 419 294.5 L 415.5 299 L 411.5 300 L 408 297.5 L 406 291.5 L 406 283.5 L 401 254.5 L 391 220.5 L 376 188.5 L 357 161 L 354 159.5 L 342.5 147 Q 329.2 135.3 311.5 128 L 292.5 123 L 279.5 123 Q 266.2 125.2 259 133.5 L 251 146.5 L 248 163.5 Q 246.8 169.3 242.5 172 L 232.5 176 L 222.5 178 L 215.5 178 L 214.5 179 L 175.5 180 L 174.5 179 L 163.5 179 L 162.5 178 L 146.5 177 L 141.5 175 L 132.5 174 L 128 170.5 L 125 160.5 L 124 134.5 L 125 133.5 L 125 124.5 L 128 109.5 L 132 97.5 Q 139.3 80.3 152.5 69 Q 161.8 60.3 174.5 55 L 188.5 50 L 199.5 49 L 206.5 47 Z M 206 49 L 205 50 L 191 51 L 174 57 Q 161 62 153 71 L 145 79 L 137 91 L 130 108 L 129 116 L 129 118 L 126 130 L 126 156 L 127 157 L 127 165 L 130 171 L 140 174 L 171 178 L 173 178 L 219 177 L 234 174 L 242 171 L 246 166 L 248 152 L 252 141 L 258 133 L 266 126 L 282 121 L 297 122 L 312 126 Q 337 136 353 156 L 355 159 L 358 160 L 376 186 Q 375 189 378 188 L 378 191 L 388 209 L 399 241 L 406 272 L 408 294 L 411 298 Q 416 299 417 296 L 417 278 L 416 277 L 417 275 L 415 266 L 415 256 L 415 254 L 412 241 L 411 229 L 401 192 L 399 190 L 397 181 L 395 179 L 387 159 L 384 155 Q 385 152 382 153 L 382 151 L 374 139 Q 375 136 372 137 L 371 134 L 364 126 Q 365 123 362 124 Q 358 116 351 110 Q 348 111 349 109 L 347 107 L 345 104 L 337 97 Q 334 98 335 95 L 333 94 Q 330 95 331 92 L 299 71 L 270 58 L 238 50 L 206 49 Z "/>
    <path fill="#66d9e8" d="M 194.5 62 Q 200.9 61.6 203 65.5 L 200.5 71 Q 175.1 75.1 163 92.5 Q 156.8 99.3 154 109.5 L 150.5 113 Q 145.8 113.8 145 110.5 L 145 104.5 L 149 96.5 L 164.5 77 Q 176.7 66.7 194.5 62 Z M 193 64 L 174 72 L 166 78 L 152 95 L 147 104 L 146 110 L 150 112 L 163 91 Q 171 81 182 75 L 200 69 Q 203 70 201 66 Q 199 62 193 64 Z "/>
    <path fill="#66d9e8" d="M 142.5 122 Q 148 121 149 124.5 Q 150.3 131.3 148 134.5 L 148 136.5 L 145.5 141 Q 140 142 139 138.5 L 139 126.5 L 142.5 122 Z M 144 123 L 140 129 Q 139 135 141 139 L 145 140 L 147 137 L 147 125 L 144 123 Z "/>
    <path fill="#66d9e8" d="M 241.5 183 Q 246.9 181.1 246 184.5 Q 249.8 187.7 249 195.5 L 244.5 201 L 233.5 204 L 215.5 205 L 214.5 206 L 166.5 206 L 165.5 205 L 151.5 205 L 150.5 204 L 138.5 203 Q 131.9 202.1 129 197.5 Q 127.4 187.4 132.5 184 L 148.5 186 L 154.5 188 L 162.5 188 L 163.5 189 L 213.5 189 L 214.5 188 L 221.5 188 Q 228 185 237.5 185 L 241.5 183 Z M 244 184 L 231 188 Q 223 187 220 190 L 212 190 L 209 191 L 167 191 L 166 190 L 159 190 L 158 189 L 140 187 L 138 187 L 132 186 Q 133 189 130 191 L 131 198 L 134 200 L 141 202 L 173 204 L 174 205 L 179 204 L 188 204 L 189 205 L 207 205 L 218 203 L 220 204 L 221 203 L 237 202 L 245 199 L 247 197 Q 249 188 245 186 Q 246 183 244 184 Z "/>
    <path fill="#66d9e8" d="M 142.5 213 Q 146 215.5 153.5 214 L 154.5 215 L 168.5 215 L 169.5 216 L 211.5 216 L 212.5 215 L 226.5 215 L 238 213 L 239 223.5 L 244 235.5 L 255.5 248 Q 278.6 260.4 295 279.5 Q 309.7 297.3 317 322.5 L 321 340.5 L 322 363.5 L 321 364.5 L 320 380.5 L 316 395.5 L 311 407.5 Q 301.9 427.4 286.5 441 L 273.5 450 L 269.5 451 L 270 449.5 Q 272.5 444 271 434.5 Q 268.3 423.3 260.5 417 Q 253.7 410.8 243.5 408 L 225.5 407 L 207.5 411 L 178.5 425 L 162.5 419 L 146.5 417 L 130.5 421 L 120 429.5 L 115 440.5 L 114.5 452 L 102.5 446 L 91 437 L 89.5 434 Q 87.3 434.8 88 432.5 Q 73.1 418.4 65 397.5 L 58 372.5 Q 59.5 367 57 365.5 L 57 341.5 L 62 318.5 L 72 297.5 Q 82.5 280.5 97.5 268 L 120.5 252 L 134 238.5 L 138 231.5 L 141 221.5 L 141 214.5 L 142.5 213 Z M 142 215 L 141 229 L 134 241 L 122 253 L 109 261 L 101 268 L 98 270 L 82 287 Q 83 289 80 288 L 79 292 L 72 301 L 63 321 L 63 325 L 61 328 L 59 338 L 59 347 L 59 349 Q 61 354 58 356 L 60 376 L 67 399 L 77 418 L 87 431 L 104 445 L 114 450 L 113 449 L 114 439 L 119 429 L 130 420 L 143 416 L 157 416 L 172 420 L 178 423 L 181 423 L 209 409 L 231 405 Q 234 408 242 406 L 252 409 L 262 416 Q 271 423 273 437 L 273 445 L 272 446 L 273 449 L 284 441 Q 286 442 285 439 L 288 438 Q 287 435 290 436 L 299 425 Q 298 422 301 423 L 314 397 L 318 382 L 319 367 L 320 366 L 320 348 L 319 347 L 320 345 L 317 330 L 317 328 L 308 303 L 295 282 Q 281 264 261 253 Q 258 254 259 251 L 257 250 L 254 248 L 248 242 L 245 240 L 238 226 L 237 215 L 224 216 L 222 216 L 221 217 L 203 217 L 202 218 L 197 217 L 196 218 L 185 218 L 183 218 L 179 217 L 157 217 L 156 216 L 142 215 Z "/>
    <path fill="#66d9e8" d="M 133.5 262 L 139 263 L 140 268.5 Q 136.1 274.1 127.5 275 L 125 274 Q 123.2 266.9 127.5 265 L 133.5 262 Z M 133 264 L 129 266 L 126 270 L 128 273 Q 133 274 136 271 Q 139 270 138 266 Q 137 263 133 264 Z "/>
    <path fill="#66d9e8" d="M 112.5 281 Q 118 280 119 283.5 L 119 287.5 L 114.5 293 L 110 296.5 L 100 310.5 L 94 322.5 L 89 344.5 L 89 358.5 L 90 359.5 L 90 369.5 L 85.5 373 L 81 369.5 L 78 355.5 L 78 344.5 L 82 323.5 Q 85.5 320 86 313.5 L 95 298.5 L 106 285 L 112.5 281 Z M 115 282 L 112 283 Q 86 302 80 341 Q 78 357 82 369 Q 83 372 87 371 L 88 370 L 88 340 L 92 324 Q 98 308 108 297 L 111 295 L 118 285 L 115 282 Z "/>
    <path fill="#66d9e8" d="M 405.5 339 L 429.5 339 L 434 341.5 L 428 351.5 L 427 367.5 L 430 384.5 L 436.5 391 L 446 397.5 Q 451.5 403 454 411.5 L 449.5 417 L 445.5 420 L 434.5 422 L 424.5 420 L 404.5 411 L 391.5 410 L 377 415 Q 380.4 399.7 392.5 392 L 401 386.5 Q 407.5 376 405 356.5 L 404 351.5 L 398.5 345 Q 395.9 345.8 397 342.5 L 405.5 339 Z M 412 340 L 411 341 L 403 341 L 398 344 L 401 345 L 406 354 L 406 380 L 403 387 L 388 398 L 380 410 L 382 412 L 384 410 L 389 409 L 408 410 L 424 418 L 431 420 Q 439 421 444 419 L 452 413 L 452 410 L 447 402 L 445 399 L 436 392 L 428 384 L 426 373 L 426 354 L 428 347 L 432 342 Q 424 338 412 340 Z "/>
  </g>
  <g id="line">
    <path fill="#1a1a1a" d="M 210.5 37 L 242.5 39 L 278.5 49 L 300.5 59 L 337 82 Q 335.9 84.7 338.5 84 L 367 110.5 Q 381.7 126.8 393 146.5 Q 405.4 168.6 414 194.5 L 423 231.5 L 425 250.5 L 426 251.5 L 427 270.5 L 428 271.5 L 428 298.5 L 420.5 308 L 411.5 310 L 404.5 308 L 400 303.5 L 397 297.5 L 396 281.5 L 389 246.5 L 377 212.5 Q 363.4 181.1 340.5 159 Q 327.6 145.9 309.5 138 L 293.5 133 L 278.5 133 Q 270 135.5 265 141.5 L 261 148.5 L 258 160.5 L 258 165.5 L 253 177.5 L 257 182.5 L 259 195.5 Q 257.3 204.8 250.5 209 L 248 210.5 Q 247 219.5 250 224.5 Q 253.8 234.2 261.5 240 L 287.5 258 L 302 272.5 Q 318.8 292.2 327 320.5 L 331 341.5 L 331 372.5 L 327 393.5 L 321 409.5 Q 312.6 428.1 299.5 442 Q 297.3 441.3 298 443.5 Q 279.1 462.6 249.5 471 L 235.5 474 L 215.5 475 L 214.5 476 L 182.5 476 L 181.5 475 L 155.5 474 L 149.5 472 L 137.5 471 L 123.5 467 Q 96.9 458.1 80 439.5 L 78 436.5 Q 68.5 427 62 414.5 L 51 387.5 L 47 365.5 L 47 342.5 L 51 321.5 L 58 302.5 Q 71.1 276.6 92.5 259 L 116.5 242 L 125 233.5 Q 132.2 226 131 211 L 124 208 L 119 198.5 L 119 188.5 L 123 179.5 Q 117.8 174.7 116 166.5 L 115 149.5 L 114 148.5 L 114 135.5 L 115 134.5 L 115 125.5 L 116 124.5 L 117 112.5 L 123 93.5 Q 132 72.5 148.5 59 Q 161 49 177.5 43 L 192.5 39 L 209.5 38 L 210.5 37 Z M 207 47 L 200 49 L 189 50 L 175 55 Q 162 60 153 69 Q 139 80 132 98 L 128 110 L 125 125 L 125 134 L 124 135 L 125 161 L 128 171 L 133 174 L 142 175 L 147 177 L 163 178 L 164 179 L 175 179 L 176 180 L 215 179 L 216 178 L 223 178 L 233 176 L 243 172 Q 247 169 248 164 L 251 147 L 259 134 Q 266 125 280 123 L 293 123 L 312 128 Q 329 135 343 147 L 354 160 L 357 161 L 376 189 L 391 221 L 401 255 L 406 284 L 406 292 L 408 298 L 412 300 L 416 299 L 419 295 L 419 280 L 417 269 L 417 258 L 414 244 L 413 231 L 409 217 L 409 213 L 407 210 L 406 203 L 400 185 L 389 160 L 377 140 L 359 117 Q 328 82 284 62 L 269 56 L 242 49 L 226 48 L 225 47 L 207 47 Z M 242 183 L 238 185 Q 228 185 222 188 L 215 188 L 214 189 L 164 189 L 163 188 L 155 188 L 149 186 L 133 184 Q 127 187 129 198 Q 132 202 139 203 L 151 204 L 152 205 L 166 205 L 167 206 L 215 206 L 216 205 L 234 204 L 245 201 L 249 196 Q 250 188 246 185 Q 247 181 242 183 Z M 143 213 L 141 215 L 141 222 L 138 232 L 134 239 L 121 252 L 98 268 Q 82 280 72 298 L 62 319 L 57 342 L 57 366 Q 60 367 58 373 L 65 398 Q 73 418 88 433 Q 87 435 90 434 L 91 437 L 103 446 L 115 452 L 115 441 L 120 430 L 131 421 L 147 417 L 163 419 L 179 425 L 208 411 L 226 407 L 244 408 Q 254 411 261 417 Q 268 423 271 435 Q 273 444 270 450 L 270 451 L 274 450 L 287 441 Q 302 427 311 408 L 316 396 L 320 381 L 321 365 L 322 364 L 321 341 L 317 323 Q 310 297 295 280 Q 279 260 256 248 L 244 236 L 239 224 L 238 213 L 227 215 L 213 215 L 212 216 L 170 216 L 169 215 L 155 215 L 154 214 Q 146 216 143 213 Z M 227 413 L 204 419 L 191 426 Q 188 425 189 428 Q 195 431 207 430 L 208 434 L 205 436 L 189 435 L 162 425 Q 157 426 156 424 Q 138 422 130 429 Q 124 433 121 441 Q 119 450 123 455 L 128 458 L 139 461 L 144 461 L 155 464 L 175 465 L 176 466 L 220 466 L 228 464 L 241 463 L 257 458 Q 262 453 265 445 Q 267 431 260 426 Q 255 418 246 415 L 235 413 L 227 413 Z "/>
    <path fill="#1a1a1a" d="M 192.5 64 Q 199.3 62.2 201 65.5 Q 202.5 69.9 199.5 69 L 181.5 75 Q 170.8 81.3 163 90.5 L 149.5 112 L 146 109.5 L 147 103.5 L 152 94.5 L 165.5 78 L 173.5 72 L 192.5 64 Z "/>
    <path fill="#1a1a1a" d="M 143.5 123 L 147 124.5 L 147 136.5 L 144.5 140 L 141 138.5 Q 138.7 135.3 140 128.5 L 143.5 123 Z "/>
    <path fill="#1a1a1a" d="M 132.5 264 Q 137 263 138 265.5 Q 138.8 270.3 135.5 271 Q 133.2 273.7 127.5 273 L 126 269.5 L 128.5 266 L 132.5 264 Z "/>
    <path fill="#1a1a1a" d="M 114.5 282 L 118 284.5 L 111 295 L 108 296.5 Q 98.4 308.4 92 323.5 L 88 339.5 L 88 369.5 L 86.5 371 Q 82.5 371.5 82 368.5 Q 78 357.5 80 340.5 Q 86.5 302.5 111.5 283 L 114.5 282 Z "/>
    <path fill="#1a1a1a" d="M 408.5 329 L 428.5 329 L 433.5 330 Q 440 331.5 443 336.5 L 444 343.5 L 437 355.5 L 437 374.5 L 438 378.5 L 442.5 383 L 451 388 L 451 390 Q 453.7 388.9 453 391.5 Q 468.2 404.3 467 433.5 Q 463.6 454.6 449.5 465 L 431.5 474 L 420.5 475 L 419.5 476 L 409.5 476 L 392.5 472 Q 381 467.5 374 458.5 L 366 442.5 L 364 426.5 L 367 410.5 L 370 403.5 L 381.5 388 L 394 379.5 L 395 375.5 L 395 355.5 L 389 350.5 L 386 342.5 L 387 338.5 L 391.5 334 L 397.5 331 L 408.5 329 Z M 406 339 L 397 343 Q 396 346 399 345 L 404 352 L 405 357 Q 408 376 401 387 L 393 392 Q 380 400 377 415 L 392 410 L 405 411 L 425 420 L 435 422 L 446 420 L 450 417 L 454 412 Q 452 403 446 398 L 437 391 L 430 385 L 427 368 L 428 352 L 434 342 L 430 339 L 406 339 Z M 392 416 L 380 422 L 374 430 L 377 445 L 383 454 Q 389 460 399 464 L 409 466 L 428 465 L 444 457 Q 452 450 456 439 L 457 421 L 455 421 L 452 424 L 442 428 L 430 428 L 400 416 L 392 416 Z "/>
    <path fill="#1a1a1a" d="M 226.5 426 L 230 428.5 L 227.5 432 Q 223.8 432.8 223 430.5 L 224.5 427 L 226.5 426 Z "/>
    <path fill="#1a1a1a" d="M 388.5 430 L 391 431.5 Q 392.3 441.2 399 445.5 L 399 449 L 395.5 450 L 390 446.5 Q 385 442.5 386 432.5 L 388.5 430 Z "/>
  </g>
</svg>
