<svg xmlns="http://www.w3.org/2000/svg" width="512" height="512" viewBox="0 0 512 512">
  <g id="color">
    <path fill="#ffffff" d="M 241.5 36 L 270 36.5 L 241.5 37 L 241.5 36 Z "/>
    <path fill="#ffffff" d="M 230.5 37 L 235 37.5 L 230.5 38 L 230.5 37 Z "/>
    <path fill="#ffffff" d="M 276.5 37 L 281 37.5 L 276.5 38 L 276.5 37 Z "/>
    <path fill="#ffffff" d="M 222.5 38 L 227 38.5 L 222.5 39 L 222.5 38 Z "/>
    <path fill="#ffffff" d="M 284.5 38 L 294 39.5 L 289.5 40 L 284.5 39 L 284.5 38 Z "/>
    <path fill="#ffffff" d="M 207.5 41 L 210 41.5 L 200.5 44 L 200.5 43 L 207.5 41 Z "/>
    <path fill="#ffffff" d="M 301.5 41 L 311 43.5 L 308.5 44 L 301.5 42 L 301.5 41 Z "/>
    <path fill="#ffffff" d="M 192.5 45 L 195 45.5 L 190.5 47 L 190.5 46 L 192.5 45 Z "/>
    <path fill="#ffffff" d="M 184.5 48 L 186 48.5 L 182.5 50 L 182.5 49 L 184.5 48 Z "/>
    <path fill="#ffffff" d="M 238.5 48 L 272.5 48 Q 274.2 50.8 280.5 49 L 297.5 52 L 321.5 59 L 345.5 70 L 367.5 84 L 395 109.5 Q 414.2 131.3 425 161.5 L 432 191.5 L 432 199.5 L 433 200.5 L 433 227.5 L 432 228.5 L 432 236.5 L 431 237.5 L 429 254.5 L 418 291.5 L 397 334.5 Q 358 394.5 305.5 441 Q 291.8 453.8 273.5 462 Q 265.2 466.2 252.5 466 L 242.5 464 L 227.5 457 L 199 436 L 197.5 433 L 185 421.5 Q 185.8 419.3 183.5 420 L 181 416 L 178 414.5 L 176.5 412 Q 174.3 412.8 175 410.5 Q 127 365.5 97 302.5 L 86 271.5 L 80 244.5 L 79 229.5 L 78 228.5 L 78 197.5 L 83 169.5 L 93 143.5 Q 106.1 117.1 126.5 98 Q 149.6 75.6 181.5 62 L 212.5 52 L 217.5 52 L 230.5 49 L 237.5 49 L 238.5 48 Z M 135 184 L 126 188 Q 119 192 117 202 L 117 219 L 118 224 L 125 241 L 135 255 Q 148 270 167 279 L 185 286 L 200 289 L 211 289 L 223 284 L 226 281 L 230 270 L 229 257 L 223 238 L 215 223 L 205 211 L 203 208 Q 191 196 175 189 L 157 184 L 135 184 Z M 355 184 Q 328 189 312 204 Q 288 224 281 261 Q 279 273 284 280 Q 289 287 301 289 L 312 289 L 336 283 Q 352 276 366 265 L 384 244 L 391 229 L 394 217 L 394 203 L 390 193 Q 385 186 376 184 L 355 184 Z M 158 298 L 148 303 Q 140 309 138 320 Q 137 332 143 339 L 150 344 L 160 347 L 169 346 L 175 343 L 180 338 L 180 336 L 169 331 L 162 323 L 162 314 Q 164 307 169 304 L 169 301 L 167 298 L 158 298 Z M 352 300 L 349 303 L 348 302 Q 341 302 339 305 Q 333 309 331 317 L 331 326 L 335 334 L 346 340 Q 356 341 362 337 Q 369 332 371 322 L 370 313 L 367 308 L 358 301 L 352 300 Z M 301 353 L 299 354 L 294 361 L 282 372 L 271 377 L 261 379 L 245 378 L 232 374 Q 222 369 216 362 L 211 362 L 207 367 L 209 372 L 230 385 L 251 390 L 261 390 L 262 389 L 273 388 Q 285 384 294 377 L 307 361 L 306 356 L 301 353 Z "/>
    <path fill="#ffffff" d="M 327.5 49 L 331 50.5 L 329.5 51 L 327.5 49 Z "/>
    <path fill="#ffffff" d="M 168.5 55 L 167.5 57 L 164.5 58 L 164.5 57 L 168.5 55 Z "/>
    <path fill="#ffffff" d="M 342.5 55 L 352 60.5 L 350.5 60 L 343.5 57 L 342.5 55 Z "/>
    <path fill="#ffffff" d="M 162.5 58 L 161.5 60 L 157.5 62 L 158.5 60 L 162.5 58 Z "/>
    <path fill="#ffffff" d="M 155.5 62 L 154.5 64 L 152.5 65 L 153.5 63 L 155.5 62 Z "/>
    <path fill="#ffffff" d="M 355.5 62 L 359 64.5 L 357.5 64 L 355.5 62 Z "/>
    <path fill="#ffffff" d="M 360.5 65 L 364 67.5 L 362.5 67 L 360.5 65 Z "/>
    <path fill="#ffffff" d="M 365.5 68 L 371 72.5 L 368.5 71 L 365.5 68 Z "/>
    <path fill="#ffffff" d="M 139.5 72 L 137.5 75 L 127.5 83 L 132.5 77 L 139.5 72 Z "/>
    <path fill="#ffffff" d="M 105.5 104 L 102 108.5 L 99.5 112 L 101 109.5 L 105.5 104 Z "/>
    <path fill="#ffffff" d="M 411.5 112 L 416 117.5 L 413 115.5 L 411.5 112 Z "/>
    <path fill="#ffffff" d="M 416.5 119 L 419 122.5 L 417 121.5 L 416.5 119 Z "/>
    <path fill="#ffffff" d="M 91.5 123 L 91 124.5 L 89.5 127 L 90 125.5 L 91.5 123 Z "/>
    <path fill="#ffffff" d="M 419.5 124 L 422 127.5 L 420 126.5 L 419.5 124 Z "/>
    <path fill="#ffffff" d="M 423.5 131 L 426 134.5 L 424 133.5 L 423.5 131 Z "/>
    <path fill="#ffffff" d="M 84.5 136 L 84 137.5 L 82.5 141 L 82 139.5 L 84.5 136 Z "/>
    <path fill="#ffffff" d="M 426.5 136 L 429 141.5 L 428 141.5 L 426.5 136 Z "/>
    <path fill="#ffffff" d="M 430.5 145 L 432 148.5 L 431 148.5 L 430.5 145 Z "/>
    <path fill="#ffffff" d="M 77.5 151 L 78 152.5 L 76.5 156 L 76 153.5 L 77.5 151 Z "/>
    <path fill="#ffffff" d="M 434.5 155 L 436 158.5 L 435 158.5 L 434.5 155 Z "/>
    <path fill="#ffffff" d="M 74.5 160 L 75 161.5 L 73.5 165 L 73 162.5 L 74.5 160 Z "/>
    <path fill="#ffffff" d="M 437.5 164 L 439 169.5 L 438 169.5 L 437.5 164 Z "/>
    <path fill="#ffffff" d="M 441.5 181 L 443 189.5 L 442 189.5 L 441.5 181 Z "/>
    <path fill="#ffffff" d="M 67.5 192 L 68 197.5 L 67 197.5 L 67.5 192 Z "/>
    <path fill="#ffffff" d="M 443.5 194 L 444 199.5 L 443 199.5 L 443.5 194 Z "/>
    <path fill="#ffffff" d="M 66.5 200 L 67 226.5 L 66 226.5 L 66.5 200 Z "/>
    <path fill="#ffffff" d="M 444.5 209 L 445 217.5 L 444 217.5 L 444.5 209 Z "/>
    <path fill="#ffffff" d="M 443.5 227 L 444 232.5 L 443 232.5 L 443.5 227 Z "/>
    <path fill="#ffffff" d="M 67.5 229 L 68 234.5 L 67 234.5 L 67.5 229 Z "/>
    <path fill="#ffffff" d="M 442.5 236 L 443 241.5 L 441.5 247 L 441 242.5 L 442.5 236 Z "/>
    <path fill="#ffffff" d="M 68.5 239 L 69 243.5 L 68 243.5 L 68.5 239 Z "/>
    <path fill="#ffffff" d="M 69.5 246 L 71 254.5 L 70 254.5 L 69.5 246 Z "/>
    <path fill="#ffffff" d="M 438.5 259 L 439 262.5 L 437.5 266 L 437 263.5 L 438.5 259 Z "/>
    <path fill="#ffffff" d="M 72.5 262 L 75 271.5 L 74 271.5 L 72.5 262 Z "/>
    <path fill="#ffffff" d="M 434.5 275 L 435 277.5 L 433.5 280 L 433 278.5 L 434.5 275 Z "/>
    <path fill="#ffffff" d="M 76.5 276 L 78 281.5 L 77 281.5 L 76.5 276 Z "/>
    <path fill="#ffffff" d="M 428.5 294 L 429 295.5 L 427.5 298 L 427 296.5 L 428.5 294 Z "/>
    <path fill="#ffffff" d="M 83.5 297 L 85 300.5 L 84 300.5 L 83.5 297 Z "/>
    <path fill="#ffffff" d="M 425.5 301 L 426 302.5 L 424.5 305 L 424 303.5 L 425.5 301 Z "/>
    <path fill="#ffffff" d="M 155.5 305 Q 159.9 303.5 159 306.5 Q 154.8 310.8 155 319.5 Q 157 330.5 164.5 336 L 169 338.5 Q 165.4 341.9 156.5 340 Q 150.8 338.8 148 334.5 Q 143 329 145 316.5 L 152.5 307 L 155.5 305 Z "/>
    <path fill="#ffffff" d="M 422.5 308 L 423 309.5 L 420.5 314 L 420 312.5 L 422.5 308 Z "/>
    <path fill="#ffffff" d="M 89.5 311 L 92 316.5 L 91 316.5 L 89.5 311 Z "/>
    <path fill="#ffffff" d="M 97.5 328 L 100 331.5 L 98 330.5 L 97.5 328 Z "/>
    <path fill="#ffffff" d="M 411.5 331 L 411 332.5 L 409.5 335 L 410 333.5 L 411.5 331 Z "/>
    <path fill="#ffffff" d="M 405.5 341 L 405 342.5 L 403.5 345 L 404 343.5 L 405.5 341 Z "/>
    <path fill="#ffffff" d="M 400.5 349 L 400 350.5 L 397.5 354 L 399 351.5 L 400.5 349 Z "/>
    <path fill="#ffffff" d="M 394.5 358 L 393 360.5 L 391.5 363 L 392 361.5 L 394.5 358 Z "/>
    <path fill="#ffffff" d="M 135.5 384 L 145 394.5 L 140 390.5 L 135.5 384 Z "/>
    <path fill="#ffffff" d="M 203.5 453 L 210 458.5 L 207.5 457 L 203.5 453 Z "/>
    <path fill="#ffffff" d="M 296.5 461 L 294.5 464 L 292.5 465 L 293.5 463 L 296.5 461 Z "/>
    <path fill="#ffffff" d="M 215.5 462 L 219 464.5 L 217.5 464 L 215.5 462 Z "/>
    <path fill="#ffffff" d="M 220.5 465 L 224 467.5 L 222.5 467 L 220.5 465 Z "/>
    <path fill="#ffffff" d="M 288.5 466 L 287.5 468 L 285.5 469 L 286.5 467 L 288.5 466 Z "/>
    <path fill="#ffffff" d="M 282.5 469 L 284 469.5 L 278.5 472 L 278.5 471 L 282.5 469 Z "/>
    <path fill="#ffffff" d="M 236.5 473 L 241 474.5 L 238.5 475 L 236.5 473 Z "/>
    <path fill="#ffffff" d="M 273.5 473 L 275 473.5 L 270.5 475 L 270.5 474 L 273.5 473 Z "/>
    <path fill="#ffffff" d="M 247.5 476 L 255 476.5 L 247.5 477 L 247.5 476 Z "/>
    <path fill="#ffffff" d="M 258.5 476 L 264 476.5 L 258.5 477 L 258.5 476 Z "/>
    <path fill="#ff6b6b" d="M 344.5 308 L 347.5 309 Q 349.3 306.3 355.5 308 L 357.5 309 L 359 308.5 L 359.5 310 Q 361.3 307.3 363 311.5 L 362.5 313 Q 364.8 312.3 364 314.5 L 365 316.5 L 365 318.5 L 364 322.5 L 364.5 324 Q 362.3 323.3 363 325.5 L 362 328.5 L 360.5 331 L 359 330.5 L 357.5 333 L 355.5 332 L 355.5 334 L 354.5 333 L 345.5 333 L 344 333.5 L 344.5 332 L 342.5 331 Q 340.8 333.8 339 329.5 L 339.5 328 L 338 327.5 L 338 323.5 Q 339.5 318 337 316.5 L 339 316.5 L 340 313.5 L 339 312.5 L 342.5 309 L 344.5 308 Z "/>
    <path fill="#f783ac" d="M 349.5 306 L 356.5 307 L 358 308.5 L 356.5 309 Q 354.8 306.3 348.5 308 L 344.5 310 L 345.5 308 L 349.5 306 Z "/>
    <path fill="#f783ac" d="M 342.5 310 L 340 313.5 Q 337 317 337.5 324 L 337 317.5 L 342.5 310 Z "/>
    <path fill="#f783ac" d="M 339.5 328 Q 342.5 335 354.5 333 L 356.5 332 L 356.5 333 Q 353 335.5 345.5 334 L 339.5 328 Z "/>
  </g>
  <g id="line">
    <path fill="#1a1a1a" d="M 235.5 37 L 275.5 37 L 276.5 38 L 283.5 38 L 289.5 40 L 300.5 41 L 324.5 48 L 341.5 55 L 364.5 68 Q 385.8 81.8 402 100.5 Q 423.9 125.1 436 159.5 L 443 190.5 L 444 226.5 L 443 227.5 L 443 235.5 L 441 242.5 L 440 254.5 L 433 281.5 Q 422.9 311.9 408 337.5 Q 368.8 400.3 314.5 448 L 284.5 469 L 269.5 475 L 255.5 477 L 254.5 476 L 241.5 475 L 224.5 468 L 202.5 453 L 185.5 437 L 184 437 L 182.5 434 L 180 432.5 L 178.5 430 Q 176.3 430.8 177 428.5 Q 125.8 381.7 92 317.5 L 82 294.5 L 72 261.5 L 68 238.5 L 68 229.5 L 67 228.5 L 67 198.5 L 68 197.5 L 68 188.5 L 71 172.5 L 80 145.5 Q 93.4 114.9 115.5 93 Q 117.8 93.8 117 91.5 L 144.5 69 L 169.5 55 L 195.5 45 L 206.5 43 L 210.5 41 L 227.5 38 L 234.5 38 L 235.5 37 Z M 239 48 L 238 49 L 231 49 L 218 52 L 213 52 L 182 62 Q 150 76 127 98 Q 106 117 93 144 L 83 170 L 78 198 L 78 229 L 79 230 L 80 245 L 86 272 L 97 303 Q 127 366 175 411 Q 174 413 177 412 L 178 415 L 181 416 L 184 420 Q 186 419 185 422 L 198 433 L 199 436 L 228 457 L 243 464 L 253 466 Q 265 466 274 462 Q 292 454 306 441 Q 358 394 397 335 L 418 292 L 429 255 L 431 238 L 432 237 L 432 229 L 433 228 L 433 201 L 432 200 L 432 192 L 425 162 Q 414 131 395 110 L 368 84 L 346 70 L 322 59 L 298 52 L 281 49 Q 274 51 273 48 L 239 48 Z "/>
    <path fill="#1a1a1a" d="M 134.5 184 L 156.5 184 L 174.5 189 Q 191 196 203 207.5 L 205 210.5 L 215 222.5 L 223 237.5 L 229 256.5 L 230 269.5 L 226 280.5 L 222.5 284 L 210.5 289 L 199.5 289 L 184.5 286 L 166.5 279 Q 148 269.5 135 254.5 L 125 240.5 L 118 223.5 L 117 218.5 L 117 201.5 Q 118.9 192.4 125.5 188 L 134.5 184 Z "/>
    <path fill="#1a1a1a" d="M 354.5 184 L 375.5 184 Q 384.9 186.1 390 192.5 L 394 202.5 L 394 216.5 L 391 228.5 L 384 243.5 L 365.5 265 Q 352.3 275.8 335.5 283 L 311.5 289 L 300.5 289 Q 289.2 287.3 284 279.5 Q 279.2 273.3 281 260.5 Q 288.1 224.1 311.5 204 Q 327.9 188.9 354.5 184 Z "/>
    <path fill="#1a1a1a" d="M 157.5 298 L 166.5 298 L 169 300.5 L 169 303.5 Q 163.7 306.7 162 313.5 L 162 322.5 L 168.5 331 L 180 335.5 L 180 337.5 L 174.5 343 L 168.5 346 L 159.5 347 L 149.5 344 L 143 338.5 Q 137.1 332.4 138 319.5 Q 140.1 308.6 147.5 303 L 157.5 298 Z M 156 305 L 153 307 L 145 317 Q 143 329 148 335 Q 151 339 157 340 Q 165 342 169 339 L 165 336 Q 157 331 155 320 Q 155 311 159 307 Q 160 304 156 305 Z "/>
    <path fill="#1a1a1a" d="M 351.5 300 L 357.5 301 L 367 307.5 L 370 312.5 L 371 321.5 Q 369.3 332.3 361.5 337 Q 356.4 341.3 345.5 340 L 335 333.5 L 331 325.5 L 331 316.5 Q 333.1 309.1 338.5 305 Q 341.5 302 347.5 302 L 348.5 303 L 351.5 300 Z M 350 306 L 343 309 L 337 317 Q 336 326 339 330 L 345 334 L 350 335 L 356 334 L 361 331 L 365 324 Q 366 315 363 312 Q 359 306 350 306 Z "/>
    <path fill="#1a1a1a" d="M 300.5 353 L 306 355.5 L 307 360.5 L 293.5 377 Q 284.9 384.4 272.5 388 L 261.5 389 L 260.5 390 L 250.5 390 L 229.5 385 L 209 372 L 207 366.5 L 210.5 362 L 215.5 362 Q 222 369.5 231.5 374 L 244.5 378 L 260.5 379 L 270.5 377 L 281.5 372 L 294 360.5 L 298.5 354 L 300.5 353 Z "/>
  </g>
</svg>
