<svg xmlns="http://www.w3.org/2000/svg" width="512" height="512" viewBox="0 0 512 512">
  <g id="color">
    <path fill="#ffffff" d="M 170.5 100 L 191 100.5 L 170.5 101 L 170.5 100 Z "/>
    <path fill="#ffffff" d="M 202.5 100 L 222 100.5 L 202.5 101 L 202.5 100 Z "/>
    <path fill="#ffffff" d="M 151.5 101 L 163 101.5 L 151.5 102 L 151.5 101 Z "/>
    <path fill="#ffffff" d="M 228.5 101 L 241 101.5 L 228.5 102 L 228.5 101 Z "/>
    <path fill="#ffffff" d="M 279.5 101 L 280 103.5 L 278 104.5 L 279.5 101 Z "/>
    <path fill="#ffffff" d="M 141.5 102 L 149 102.5 L 141.5 103 L 141.5 102 Z "/>
    <path fill="#ffffff" d="M 243.5 102 L 253 102.5 L 243.5 103 L 243.5 102 Z "/>
    <path fill="#ffffff" d="M 132.5 103 L 138 103.5 L 132.5 104 L 132.5 103 Z "/>
    <path fill="#ffffff" d="M 257.5 103 L 265 103.5 L 257.5 104 L 257.5 103 Z "/>
    <path fill="#ffffff" d="M 271.5 104 L 277 104.5 L 271.5 105 L 271.5 104 Z "/>
    <path fill="#ffffff" d="M 113.5 105 L 118 105.5 L 113.5 106 L 113.5 105 Z "/>
    <path fill="#ffffff" d="M 105.5 106 L 112 106.5 L 105.5 107 L 105.5 106 Z "/>
    <path fill="#ffffff" d="M 176.5 106 L 212.5 106 L 213.5 107 L 231.5 107 L 232.5 108 L 261.5 109 L 262.5 110 L 272.5 110 L 278 111 L 277 119.5 L 278 122 Q 285.9 126.3 299.5 126 L 307.5 124 L 311 121.5 L 312 117.5 Q 309.8 116.3 312.5 115 L 328.5 118 L 345.5 123 Q 358.2 127.8 365 138.5 L 372 150 L 328.5 153 L 327.5 154 L 320.5 154 L 319.5 155 L 278.5 161 L 267.5 164 L 255.5 164 L 247.5 162 L 237.5 162 L 236.5 161 L 216.5 160 L 205.5 158 L 192.5 158 L 191.5 157 L 173.5 157 L 172.5 156 L 155.5 156 L 154.5 155 L 136.5 155 L 135.5 154 L 118.5 154 L 117.5 153 L 81.5 152 L 80.5 151 L 70.5 151 L 69.5 150 L 57.5 149 L 56 147.5 L 60 132.5 L 68.5 122 L 74.5 119 L 94.5 114 L 108.5 113 L 124.5 110 L 132.5 110 L 133.5 109 L 157.5 108 L 158.5 107 L 175.5 107 L 176.5 106 Z M 259 111 L 259 112 L 263 112 L 259 111 Z M 183 122 L 183 123 L 189 123 L 183 122 Z M 86 123 L 83 124 L 85 127 L 115 127 L 116 126 L 182 127 L 183 128 L 196 128 L 197 129 L 208 129 L 209 130 Q 218 129 224 131 L 225 127 L 203 126 L 202 125 L 189 125 L 188 124 L 175 124 L 174 123 L 86 123 Z M 243 131 L 241 134 L 248 138 Q 255 144 257 156 Q 259 159 260 156 L 258 147 L 253 139 Q 249 133 243 131 Z M 347 149 L 347 150 L 351 150 L 347 149 Z M 149 153 L 149 154 L 158 154 L 149 153 Z M 172 154 L 172 155 L 177 155 L 172 154 Z M 260 162 L 260 163 L 266 163 L 260 162 Z "/>
    <path fill="#ffffff" d="M 70.5 114 L 72 114.5 L 65.5 118 L 66.5 116 L 70.5 114 Z "/>
    <path fill="#ffffff" d="M 336.5 114 L 342 115.5 L 339.5 116 L 336.5 115 L 336.5 114 Z "/>
    <path fill="#ffffff" d="M 63.5 118 L 58 124.5 L 56.5 127 L 57 125.5 L 63.5 118 Z "/>
    <path fill="#ffffff" d="M 349.5 118 L 354 120.5 L 352.5 120 Q 348.8 119.8 349.5 118 Z "/>
    <path fill="#ffffff" d="M 48.5 155 L 49 159.5 L 48 159.5 L 48.5 155 Z "/>
    <path fill="#ffffff" d="M 388.5 163 L 391 166.5 L 389 165.5 L 388.5 163 Z "/>
    <path fill="#ffffff" d="M 46.5 169 L 47 173.5 L 46 173.5 L 46.5 169 Z "/>
    <path fill="#ffffff" d="M 362.5 169 Q 364 171.5 369.5 170 L 375 174.5 L 396 216.5 L 398 224.5 L 395.5 228 L 368.5 236 L 352.5 238 L 346.5 240 L 324.5 242 L 316.5 244 L 304.5 244 L 299 235.5 L 295 223.5 L 294 216.5 L 286 190.5 L 286 182.5 L 290.5 179 L 295.5 178 L 325.5 174 L 332.5 172 L 338.5 172 L 339.5 171 L 361.5 170 L 362.5 169 Z "/>
    <path fill="#ffffff" d="M 45.5 178 L 46 183.5 L 45 183.5 L 45.5 178 Z "/>
    <path fill="#ffffff" d="M 214.5 179 L 227.5 179 L 228.5 180 L 242.5 181 Q 249.9 182.1 253 187.5 L 263 216.5 L 265 228 Q 262 226 254.5 227 L 247 231 Q 244.1 235.3 244 243.5 L 242.5 245 L 234.5 243 L 213.5 241 L 209 237.5 L 208 224.5 L 209 223.5 L 210 187.5 L 211 182.5 L 214.5 179 Z "/>
    <path fill="#ffffff" d="M 397.5 180 L 400 184.5 L 399 184.5 L 397.5 180 Z "/>
    <path fill="#ffffff" d="M 44.5 186 L 45 194.5 L 44 194.5 L 44.5 186 Z "/>
    <path fill="#ffffff" d="M 400.5 186 L 404 192.5 L 403 192.5 L 400.5 186 Z "/>
    <path fill="#ffffff" d="M 43.5 197 L 44 203.5 L 43 203.5 L 43.5 197 Z "/>
    <path fill="#ffffff" d="M 406.5 198 L 409 203.5 L 408 203.5 L 406.5 198 Z "/>
    <path fill="#ffffff" d="M 410.5 207 L 413 212.5 L 412 212.5 L 410.5 207 Z "/>
    <path fill="#ffffff" d="M 42.5 211 L 43 218.5 L 42 218.5 L 42.5 211 Z "/>
    <path fill="#ffffff" d="M 41.5 228 L 42 275.5 L 41 275.5 L 41.5 228 Z "/>
    <path fill="#ffffff" d="M 48.5 234 L 86.5 239 L 87.5 240 L 119.5 243 L 126.5 245 L 144.5 246 L 159.5 249 L 191 252 L 191 275 L 183.5 275 L 182.5 274 L 154.5 271 L 141.5 268 L 126.5 267 L 105.5 263 L 98.5 263 L 69.5 258 L 54.5 257 Q 53.3 254.8 48.5 256 L 47 254.5 L 47 235.5 L 48.5 234 Z M 59 255 L 59 256 L 63 256 L 59 255 Z "/>
    <path fill="#ffffff" d="M 437.5 238 L 441 240.5 L 439.5 240 L 437.5 238 Z "/>
    <path fill="#ffffff" d="M 461.5 258 L 465 264.5 L 464 264.5 L 461.5 258 Z "/>
    <path fill="#ffffff" d="M 459.5 278 L 463 279.5 L 465 300.5 Q 463.5 304.5 456.5 303 L 451 298.5 Q 448.5 295 450 287.5 L 453 281 L 459.5 278 Z M 452 291 L 451 296 L 452 296 L 452 291 Z M 463 295 L 462 301 L 463 301 L 463 295 Z "/>
    <path fill="#ffffff" d="M 469.5 283 L 470 287.5 L 469 287.5 L 469.5 283 Z "/>
    <path fill="#ffffff" d="M 42.5 285 L 43 293.5 L 42 293.5 L 42.5 285 Z "/>
    <path fill="#ffffff" d="M 425.5 294 Q 432 294 435 297.5 L 439 310.5 L 439 316.5 L 442 331.5 L 438.5 334 L 418.5 341 L 411.5 342 L 389.5 349 L 385 349 L 385 331.5 L 386 330.5 L 387 311.5 L 393.5 303 L 414.5 296 L 425.5 294 Z M 433 324 L 423 329 L 399 335 Q 393 333 394 337 Q 392 338 395 339 L 410 337 L 433 329 L 435 325 L 433 324 Z "/>
    <path fill="#ffffff" d="M 470.5 294 L 471 319.5 L 470 319.5 L 470.5 294 Z "/>
    <path fill="#ffffff" d="M 43.5 301 L 44 306.5 L 43 306.5 L 43.5 301 Z "/>
    <path fill="#ffffff" d="M 94.5 301 Q 97.1 300.3 96 303 L 86.5 308 L 84 306.5 Q 87.8 302.3 94.5 301 Z "/>
    <path fill="#ffffff" d="M 356.5 303 Q 366.9 301.6 369 308.5 Q 371.3 313.3 370 321.5 L 365.5 328 Q 362.5 331 355.5 330 L 352 323.5 L 352 308.5 L 354.5 304 L 356.5 303 Z M 355 321 L 354 326 L 355 326 L 355 321 Z "/>
    <path fill="#ffffff" d="M 83.5 308 L 85 308.5 L 81 311.5 L 76.5 321 L 76 319.5 Q 78.1 312.1 83.5 308 Z "/>
    <path fill="#ffffff" d="M 44.5 313 Q 53.2 311.8 56 316.5 L 57 336 L 49.5 335 L 44 330.5 L 43 314.5 L 44.5 313 Z "/>
    <path fill="#ffffff" d="M 36.5 315 L 37 324.5 L 36 324.5 L 36.5 315 Z "/>
    <path fill="#ffffff" d="M 470.5 321 L 474 323.5 L 472.5 323 L 470.5 321 Z "/>
    <path fill="#ffffff" d="M 265.5 326 L 269.5 326 L 273 327.5 L 258.5 332 L 258.5 330 L 257 329.5 L 265.5 326 Z "/>
    <path fill="#ffffff" d="M 467.5 327 L 470 329.5 L 470 341.5 L 464.5 350 L 434.5 363 L 391.5 377 L 356.5 385 L 338.5 386 Q 336.7 383.3 330.5 385 L 324 381.5 Q 320.7 374.1 322 363 L 349.5 363 L 390.5 355 L 434.5 342 L 454.5 334 L 467.5 327 Z "/>
    <path fill="#ffffff" d="M 100.5 330 Q 106.1 330.5 108 334.5 Q 111 339.5 110 348.5 Q 109.1 355.1 104.5 358 L 100.5 359 L 96 355.5 Q 91.8 350.7 93 340.5 Q 93.9 333.9 98.5 331 L 100.5 330 Z "/>
    <path fill="#ffffff" d="M 476.5 330 L 477 339.5 L 476 339.5 L 476.5 330 Z "/>
    <path fill="#ffffff" d="M 64.5 336 L 67 337.5 L 65.5 338 L 64.5 337 L 59.5 342 L 56 341.5 Q 62.9 341.4 64.5 336 Z "/>
    <path fill="#ffffff" d="M 249.5 336 L 250.5 338 L 252 337.5 L 244.5 346 L 244 344.5 Q 245.3 338.8 249.5 336 Z "/>
    <path fill="#ffffff" d="M 69.5 338 L 72 339.5 L 71.5 351 L 71 339 L 69.5 338 Z "/>
    <path fill="#ffffff" d="M 50.5 341 L 55 341.5 L 50.5 342 L 50.5 341 Z "/>
    <path fill="#ffffff" d="M 148.5 353 L 148 354.5 L 147.5 357 L 147 354.5 L 148.5 353 Z "/>
    <path fill="#ffffff" d="M 146.5 358 L 147 361.5 L 145.5 364 L 145 362.5 L 146.5 358 Z "/>
    <path fill="#ffffff" d="M 269.5 360 Q 279.3 358.3 281 364.5 Q 284.3 370.2 284 379.5 L 278.5 391 L 271.5 393 L 267 391 L 263 383.5 L 262 374.5 L 265 364.5 L 269.5 360 Z "/>
    <path fill="#ffffff" d="M 188.5 361 L 193 361.5 L 188.5 362 L 188.5 361 Z "/>
    <path fill="#ffffff" d="M 74.5 362 L 77 367.5 L 76 367.5 L 74.5 362 Z "/>
    <path fill="#ffffff" d="M 450.5 362 L 452 362.5 L 448.5 364 L 448.5 363 L 450.5 362 Z "/>
    <path fill="#ffffff" d="M 218.5 366 L 223 366.5 L 218.5 367 L 218.5 366 Z "/>
    <path fill="#ffffff" d="M 224.5 367 L 229 367.5 L 224.5 368 L 224.5 367 Z "/>
    <path fill="#ffffff" d="M 238.5 369 L 239 375.5 L 238 375.5 L 238.5 369 Z "/>
    <path fill="#ffffff" d="M 142.5 370 L 142 371.5 L 139.5 375 L 141 372.5 L 142.5 370 Z "/>
    <path fill="#ffffff" d="M 442.5 371 L 443 372.5 L 441.5 375 L 441 373.5 L 442.5 371 Z "/>
    <path fill="#ffffff" d="M 238.5 378 L 239 385.5 L 238 385.5 L 238.5 378 Z "/>
    <path fill="#ffffff" d="M 125.5 384 L 127 384.5 L 123.5 386 L 123.5 385 L 125.5 384 Z "/>
    <path fill="#ffffff" d="M 102.5 387 L 116 387.5 L 102.5 388 L 102.5 387 Z "/>
    <path fill="#ffffff" d="M 335.5 391 L 349 391.5 L 335.5 392 L 335.5 391 Z "/>
    <path fill="#ffffff" d="M 424.5 391 L 426 391.5 L 422.5 393 L 422.5 392 L 424.5 391 Z "/>
    <path fill="#ffffff" d="M 394.5 392 L 398 393.5 L 396.5 394 L 394.5 392 Z "/>
    <path fill="#ffffff" d="M 404.5 395 L 413 395.5 L 404.5 396 L 404.5 395 Z "/>
    <path fill="#ffffff" d="M 242.5 398 L 245 402.5 L 243 401.5 L 242.5 398 Z "/>
    <path fill="#ffffff" d="M 322.5 399 L 323 400.5 L 320.5 404 L 321 402.5 L 322.5 399 Z "/>
    <path fill="#ffffff" d="M 259.5 419 L 264 421.5 L 262.5 422 L 259.5 419 Z "/>
    <path fill="#ffffff" d="M 274.5 424 L 284 424.5 L 274.5 425 L 274.5 424 Z "/>
    <path fill="#4da3ff" d="M 56 156 L 80.5 159 L 82.5 159 L 111.5 160 L 112.5 161 L 114.5 161 L 134.5 161 L 136.5 162 L 138.5 161 L 139.5 162 L 173.5 163 L 174.5 164 L 187.5 164 L 194 165 L 194 172.5 L 193 173.5 L 193 187.5 L 192 188.5 L 192 201.5 L 191 202.5 L 190 247 L 173.5 246 L 150.5 242 L 142.5 242 L 135.5 240 L 133.5 241 L 132.5 240 L 110.5 238 L 109.5 237 L 107.5 237 L 99.5 237 L 78.5 233 L 70.5 233 L 58.5 230 L 50.5 230 L 49 228.5 L 51 191.5 L 53 184.5 L 53 176.5 L 54 175.5 L 54 168.5 L 56 156 Z "/>
    <path fill="#4da3ff" d="M 368.5 157 L 370.5 158 L 375.5 157 Q 395.6 185.9 408 222.5 L 416.5 234 L 441.5 249 L 454 259.5 L 454 261.5 L 459 268.5 L 459 274 L 455.5 274 L 450 277 L 445 286.5 L 445 297.5 L 448 304 L 457.5 308 L 459.5 308 L 463 307 L 463 321.5 L 460.5 322 L 450.5 328 L 446 329 L 442 300.5 L 436.5 292 L 427.5 289 L 426.5 290 L 418.5 290 L 396.5 296 Q 389.8 298.3 386 303.5 L 383 308.5 L 381 317.5 L 380 349 L 375.5 351 L 370.5 351 L 366.5 353 L 361.5 353 L 354.5 355 Q 348.3 353.3 346.5 356 L 321.5 356 L 317 358.5 Q 313.1 363.6 313.5 373 L 311 367.5 L 310 357.5 L 306 344.5 L 299 332 L 296 330.5 L 294.5 328 L 286.5 322 L 276.5 318 L 263.5 318 L 251.5 323 L 246 327.5 L 244 330.5 L 236 342.5 L 232 361 L 210.5 357 L 203.5 357 L 197 354.5 L 197 338.5 L 196 337.5 L 197 335.5 L 196 334.5 L 196 298.5 L 195 297.5 L 195 286.5 L 196 284.5 L 195 283.5 L 195 272.5 L 196 268.5 L 196 266.5 L 196 225.5 L 197 224.5 L 196 221.5 L 197 220.5 L 197 200.5 L 198 199.5 L 198 186.5 L 199 185.5 L 200 165 L 216.5 167 L 218.5 167 L 226.5 167 L 234.5 169 L 236.5 169 Q 242 167.5 243.5 170 L 245.5 170 L 261 171 L 268 191.5 L 269 199.5 L 273 209.5 L 281 242.5 L 281 272.5 L 280 273.5 L 280 284.5 L 279 285.5 L 279 310.5 L 283 310.5 L 282.5 312 Q 285.1 312.8 284 309.5 L 285 307.5 L 284 303.5 L 285 302.5 L 285 281.5 L 286 280.5 L 286 269.5 L 287 268.5 L 287 245.5 L 286 242.5 L 285 232.5 L 276 202.5 L 275 194.5 Q 270 186.5 269 174.5 L 267 171.5 L 280.5 168 L 282.5 168 L 302.5 165 L 308.5 163 L 310.5 163 L 321.5 162 L 322.5 161 L 324.5 161 L 339.5 160 L 340.5 159 L 351.5 159 L 352.5 158 L 367.5 158 L 368.5 157 Z M 352 163 L 351 164 L 342 164 L 328 167 L 315 168 L 313 168 L 308 170 L 300 170 L 290 172 L 285 175 L 279 182 L 279 190 L 281 194 L 283 207 L 286 213 L 293 240 L 298 248 L 305 251 L 314 251 L 315 250 L 338 248 L 357 244 L 362 244 L 364 244 L 371 242 L 373 242 L 388 238 L 390 238 L 392 236 L 395 236 L 401 233 L 404 228 L 403 216 L 380 169 L 369 163 L 352 163 Z M 215 172 L 210 174 L 204 184 L 203 204 L 203 206 L 202 208 L 202 237 L 204 242 L 214 248 L 228 249 L 230 249 L 237 251 L 243 251 L 245 261 L 253 266 L 262 266 L 274 261 L 275 259 L 274 254 L 270 254 L 261 258 L 253 258 L 251 251 L 252 238 L 253 235 L 256 234 L 264 235 L 270 247 Q 274 248 275 246 L 275 238 L 272 230 L 269 213 L 267 210 L 266 203 L 261 189 L 257 182 Q 253 176 246 175 L 236 173 L 227 173 L 225 173 L 224 172 L 215 172 Z M 205 257 L 202 260 L 203 266 L 209 267 L 219 267 L 221 263 Q 219 257 211 258 L 209 258 L 205 257 Z M 444 258 L 425 268 L 391 277 L 374 279 L 369 281 L 367 280 L 360 282 L 348 282 L 345 283 Q 344 287 347 288 L 359 288 L 360 287 L 374 286 L 409 279 L 436 270 L 446 263 Q 447 259 444 258 Z M 300 259 L 300 261 L 299 260 L 298 263 L 300 262 L 299 264 L 300 266 L 318 280 Q 320 279 319 282 L 325 287 Q 324 289 327 288 L 332 297 L 334 306 L 335 332 L 336 333 L 336 351 Q 337 354 341 353 L 342 351 L 340 307 L 337 294 L 335 291 L 335 288 Q 332 289 333 287 L 318 272 Q 315 273 316 270 L 310 267 L 304 260 L 302 261 L 302 260 L 300 259 Z M 229 268 L 225 269 L 221 281 L 211 283 L 208 292 L 211 300 L 215 302 L 220 303 L 222 314 L 229 318 L 238 317 L 241 314 L 243 307 Q 242 304 250 305 L 251 302 L 253 303 L 256 295 L 254 288 L 244 283 L 243 275 L 241 270 Q 237 267 229 268 Z M 357 298 L 350 301 L 348 309 L 347 312 L 347 321 L 350 332 L 355 335 L 363 335 L 369 332 Q 374 328 375 321 Q 376 310 372 305 Q 368 297 357 298 Z "/>
    <path fill="#4da3ff" d="M 49 261 L 72.5 263 L 79.5 265 L 106.5 268 L 111.5 270 L 135.5 272 L 148.5 275 L 157.5 275 L 158.5 276 L 164.5 276 L 190 280.5 L 190 282.5 L 190 332.5 L 191 333.5 L 191 354 L 169.5 351 L 156.5 347 L 149.5 347 L 136 344 L 134 326.5 L 128 310 Q 125.3 311.1 126 308.5 L 118.5 300 L 106.5 293 L 93.5 293 L 90.5 294 Q 80.3 296.8 75 304.5 Q 67.5 314.5 65.5 330 L 64 328.5 L 63 315.5 L 58.5 309 L 51 306 Q 48.7 300.4 50 289.5 L 49 288.5 L 49 261 Z "/>
    <path fill="#ff6b6b" d="M 293.5 94 L 297 94 Q 295.9 96.7 298.5 96 L 302 97.5 L 302 99.5 Q 301.3 101.8 303.5 101 L 303 102.5 L 303.5 104 L 305 103.5 L 304 105.5 Q 308 107.5 306 115.5 L 306 117.5 Q 306.8 119.8 304.5 119 L 302.5 120 Q 301 117.5 299.5 121 L 297.5 120 L 294 121 Q 295.3 117.7 290.5 119 L 287.5 120 Q 285.3 120.8 286 118.5 L 284 118.5 L 283 108 L 285 107.5 L 284 105.5 L 286 102.5 L 286 100.5 L 287 97 L 290 97 Q 288.8 94 292.5 95 L 293.5 94 Z "/>
    <path fill="#ff6b6b" d="M 235.5 273 Q 237.8 272.3 237 274.5 Q 240.5 276 238 277.5 L 239 284.5 L 238 286.5 L 240.5 287 L 242 287.5 L 241.5 289 L 244.5 288 L 247 288.5 Q 246.3 290.8 248.5 290 L 251 291 L 250 295.5 L 251 297.5 L 246.5 301 Q 239.7 299.3 238 302.5 L 237 311 L 235 311.5 L 235.5 313 L 234 312.5 L 234 314 L 230 314 Q 231.1 311.3 228.5 312 L 227 308 L 225 307.5 L 225 300.5 L 223.5 298 L 221.5 298 Q 215.1 297.9 213 293.5 L 214 288 L 220.5 286 L 222.5 287 L 226 283.5 Q 224.9 275.9 229.5 274 Q 234.3 275.3 235.5 273 Z "/>
    <path fill="#66d9e8" d="M 258.5 111 L 263 111.5 L 258.5 112 L 258.5 111 Z "/>
    <path fill="#66d9e8" d="M 182.5 122 L 189 122.5 L 182.5 123 L 182.5 122 Z "/>
    <path fill="#66d9e8" d="M 346.5 149 L 351 149.5 L 346.5 150 L 346.5 149 Z "/>
    <path fill="#66d9e8" d="M 148.5 153 L 158 153.5 L 148.5 154 L 148.5 153 Z "/>
    <path fill="#66d9e8" d="M 56.5 154 L 66.5 156 L 75.5 156 L 76.5 157 L 89.5 157 L 90.5 158 L 126.5 159 L 127.5 160 L 144.5 160 L 145.5 161 L 163.5 161 L 164.5 162 L 182.5 162 L 183.5 163 L 193.5 163 L 196 165.5 L 195 166.5 L 193 211.5 L 192 212.5 L 192 237.5 L 191 238.5 L 191 247.5 L 189.5 249 Q 184.7 246.8 176.5 248 L 161.5 245 L 144.5 244 L 129.5 241 L 104.5 239 L 88.5 236 L 81.5 236 L 59.5 232 L 52.5 232 L 47 229.5 L 48 224.5 L 48 209.5 L 49 208.5 L 49 195.5 L 52 178.5 L 53 162.5 L 54 157.5 L 56.5 154 Z M 56 156 L 54 169 L 54 176 L 53 177 L 53 185 L 51 192 L 49 229 L 51 230 L 59 230 L 71 233 L 79 233 L 100 237 L 108 237 L 110 237 L 111 238 L 133 240 L 134 241 L 136 240 L 143 242 L 151 242 L 174 246 L 190 247 L 191 203 L 192 202 L 192 189 L 193 188 L 193 174 L 194 173 L 194 165 L 188 164 L 175 164 L 174 163 L 140 162 L 139 161 L 137 162 L 135 161 L 115 161 L 113 161 L 112 160 L 83 159 L 81 159 L 56 156 Z "/>
    <path fill="#66d9e8" d="M 171.5 154 L 177 154.5 L 171.5 155 L 171.5 154 Z "/>
    <path fill="#66d9e8" d="M 372.5 155 Q 378.3 154.3 379 158.5 Q 397.9 188.6 411 224.5 L 417.5 233 L 442.5 248 L 455 258.5 L 460 266.5 L 461 275 Q 452 274.7 449 281.5 L 447 285.5 L 446 293.5 L 448 300.5 L 452.5 305 L 463.5 306 L 465 307.5 L 465 321.5 L 462.5 324 L 445 331 L 440 299.5 L 435.5 293 Q 431.5 289.5 422.5 291 L 395.5 298 L 387 304.5 L 383 313.5 L 382 344.5 L 381 351 L 351.5 357 L 323.5 357 L 317 361.5 L 316 363.5 L 316 374 L 311 374 L 311 372.5 L 308 361.5 L 308 356.5 L 304 344.5 L 293.5 329 Q 285 319.5 267.5 319 Q 253.8 321.3 246 329.5 L 236 346.5 L 235 356.5 L 232.5 362 L 205.5 359 L 196 355.5 L 195 328.5 L 194 327.5 L 194 229.5 L 195 228.5 L 195 210.5 L 196 209.5 L 198 165.5 L 199.5 164 L 212.5 164 L 222.5 166 L 232.5 166 L 242.5 168 L 260.5 169 L 263 171.5 L 270 197.5 L 274 207.5 L 282 239.5 L 283 244.5 L 283 266.5 L 282 267.5 L 281 294.5 L 280 295.5 L 280 297.5 L 280 310.5 L 281 311.5 L 279 310.5 L 279 285.5 L 280 284.5 L 280 273.5 L 281 272.5 L 281 242.5 L 273 209.5 L 269 199.5 L 268 191.5 L 261 171 L 245.5 170 L 244.5 169 L 242.5 169 Q 237 170.5 235.5 168 L 233.5 168 L 218.5 167 L 217.5 166 L 215.5 167 L 214.5 166 L 205.5 166 L 200 165 L 199 185.5 L 198 186.5 L 198 199.5 L 197 200.5 L 197 220.5 L 196 223.5 L 196 225.5 L 196 266.5 L 195 267.5 L 196 271.5 L 195 272.5 L 195 283.5 L 196 285.5 L 195 286.5 L 195 297.5 L 196 298.5 L 196 334.5 L 197 336.5 L 197 338.5 L 197 354.5 L 198.5 356 L 210.5 357 L 232 361 L 236 342.5 L 244 329 Q 246.7 330.1 246 327.5 L 251.5 323 L 263.5 318 L 276.5 318 L 286.5 322 L 296 329.5 L 297.5 332 Q 299.8 331.3 299 333.5 L 306 344.5 L 310 357.5 L 311 367.5 L 313.5 373 L 315 361.5 L 318.5 357 L 321.5 356 L 346.5 356 Q 348.3 353.3 354.5 355 L 355.5 354 L 366.5 353 L 370.5 351 L 375.5 351 L 380 349 L 382 311.5 Q 384.5 303.5 390.5 299 L 405.5 293 L 409.5 293 L 418.5 290 L 429.5 289 L 439 294.5 L 442 300.5 L 446 329 L 463 322 L 463 307.5 L 461.5 307 L 459.5 308 L 456.5 307 L 453.5 307 L 448 304 L 445 297.5 L 445 286.5 L 450 277 L 455.5 274 L 459 274 Q 460 267.8 457 264.5 L 448.5 254 L 415 232.5 L 408 222.5 L 405 212.5 L 391 182.5 L 375.5 157 L 369.5 158 L 367.5 158 L 340.5 159 L 323.5 162 L 321.5 162 L 315.5 162 L 309.5 164 L 307.5 164 L 297.5 165 L 281.5 169 L 279.5 169 L 274.5 169 L 267 171.5 L 269 174.5 Q 270 186.5 275 194.5 L 275 198.5 L 279 209.5 L 280 217.5 L 283 224.5 L 285 232.5 L 285 238.5 L 287 243.5 L 287 245.5 L 287 268.5 L 286 269.5 L 286 280.5 L 285 281.5 L 285 302.5 L 284 306.5 L 285 308.5 L 284 312 L 282 311.5 L 283 310.5 L 283 290.5 L 284 289.5 L 284 277.5 L 285 276.5 L 286 249.5 L 282 226.5 L 272 190.5 L 269 184.5 L 266 170.5 L 271.5 168 L 288.5 166 L 304.5 162 L 318.5 161 L 333.5 158 L 359.5 157 L 360.5 156 L 371.5 156 L 372.5 155 Z "/>
    <path fill="#66d9e8" d="M 259.5 162 L 266 162.5 L 259.5 163 L 259.5 162 Z "/>
    <path fill="#66d9e8" d="M 351.5 163 L 368.5 163 L 380 169 L 403 215.5 L 404 227.5 L 401 233 L 394.5 236 L 391.5 236 L 389.5 238 L 387.5 238 L 372.5 242 L 370.5 242 L 363.5 244 L 361.5 244 L 356.5 244 L 337.5 248 L 314.5 250 L 313.5 251 L 304.5 251 L 298 248 L 293 239.5 L 286 212.5 L 283 206.5 L 281 193.5 L 279 189.5 L 279 181.5 L 284.5 175 L 289.5 172 L 299.5 170 L 307.5 170 L 312.5 168 L 314.5 168 L 327.5 167 L 341.5 164 L 350.5 164 L 351.5 163 Z M 358 164 L 357 165 L 346 165 L 325 169 L 299 172 L 286 176 L 281 182 L 281 192 L 283 196 L 285 208 L 295 241 L 298 246 L 304 249 L 318 249 L 326 247 L 354 244 L 390 236 L 400 232 L 403 227 L 402 218 L 379 171 L 371 165 L 358 164 Z "/>
    <path fill="#66d9e8" d="M 214.5 172 L 223.5 172 L 224.5 173 L 226.5 173 L 235.5 173 L 245.5 175 Q 253.1 176.4 257 181.5 L 261 188.5 L 266 202.5 L 267 209.5 L 269 212.5 L 272 229.5 L 275 237.5 L 275 245.5 Q 274 248 269.5 247 L 263.5 235 L 255.5 234 L 253 235 L 252 237.5 L 251 250.5 L 253 258 L 260.5 258 L 269.5 254 L 274 254 L 275 258.5 L 274 261 L 261.5 266 L 252.5 266 L 245 260.5 L 243 251 L 236.5 251 L 229.5 249 L 227.5 249 L 213.5 248 L 204 241.5 L 202 236.5 L 202 207.5 L 203 205.5 L 203 203.5 L 204 183.5 L 209.5 174 L 214.5 172 Z M 213 174 L 211 175 L 206 182 L 205 187 L 204 219 L 203 220 L 203 236 L 205 241 L 213 246 L 245 250 Q 244 257 247 261 L 252 264 L 257 265 L 267 263 L 272 260 L 273 260 L 273 256 L 269 256 L 259 260 L 253 259 L 250 255 L 250 239 L 251 236 L 257 232 L 265 234 Q 269 237 269 245 L 273 246 L 274 244 L 264 202 L 256 183 L 250 178 L 239 175 L 213 174 Z "/>
    <path fill="#66d9e8" d="M 58.5 255 L 63 255.5 L 58.5 256 L 58.5 255 Z "/>
    <path fill="#66d9e8" d="M 204.5 257 L 208.5 258 L 210.5 258 Q 219.1 256.9 221 262.5 L 218.5 267 L 208.5 267 L 203 266 L 202 259.5 L 204.5 257 Z M 205 259 L 203 263 L 206 265 L 218 266 L 219 263 Q 215 258 205 259 Z "/>
    <path fill="#66d9e8" d="M 443.5 258 Q 446.5 258.5 446 262.5 L 435.5 270 L 408.5 279 L 373.5 286 L 359.5 287 L 358.5 288 L 346.5 288 Q 344 286.8 345 283 L 347.5 282 L 359.5 282 L 366.5 280 L 368.5 281 L 373.5 279 L 390.5 277 L 424.5 268 L 443.5 258 Z M 443 260 L 434 266 L 407 275 L 398 276 L 383 280 L 371 281 L 365 283 L 355 283 L 354 284 L 347 284 L 346 286 L 349 287 L 377 284 L 414 276 L 434 269 L 445 262 L 443 260 Z "/>
    <path fill="#66d9e8" d="M 47 259 L 74.5 262 L 75.5 263 L 82.5 263 L 83.5 264 L 90.5 264 L 103.5 267 L 125.5 269 L 132.5 271 L 153.5 273 L 174.5 277 L 188.5 278 L 191 279 L 191 314.5 L 192 315.5 L 192 344.5 L 193 345.5 L 193 356 L 166.5 351 L 161.5 351 L 135 345 L 133 328.5 L 130 318.5 Q 125.8 307.7 117.5 301 L 106.5 295 L 95.5 294 Q 82.3 296.3 76 305.5 L 69 319.5 L 68 331 L 65.5 332 L 63 331 L 61 314.5 L 57.5 310 L 51.5 308 L 49 305.5 L 48 280.5 L 47 279.5 L 47 259 Z M 49 261 L 49 289 L 50 290 Q 49 300 51 306 L 59 309 L 63 316 L 64 329 L 66 330 Q 68 315 75 305 Q 80 297 91 294 L 94 293 L 107 293 L 119 300 L 126 309 Q 125 311 128 310 L 134 327 L 136 344 L 150 347 L 157 347 L 170 351 L 191 354 L 191 334 L 190 333 L 190 283 L 190 281 L 165 276 L 159 276 L 158 275 L 149 275 L 136 272 L 112 270 L 107 268 L 80 265 L 73 263 L 49 261 Z "/>
    <path fill="#66d9e8" d="M 299.5 259 Q 304.3 259.3 306 262.5 L 309.5 267 L 316 270 Q 314.9 272.7 317.5 272 L 333 286.5 Q 332.3 289.1 335 288 L 335 290.5 L 337 293.5 L 340 306.5 L 342 350.5 L 341 353 Q 337.2 353.8 336 350.5 L 336 332.5 L 335 331.5 L 334 305.5 L 332 296.5 L 326.5 288 Q 324.3 288.8 325 286.5 L 319 281.5 Q 319.8 279.3 317.5 280 L 300 265.5 L 298 260.5 L 299.5 259 Z M 299 260 L 299 263 Q 302 262 301 265 L 327 285 L 334 298 L 335 309 L 336 310 L 336 320 L 337 321 L 337 340 L 338 341 L 338 351 L 340 351 L 340 329 L 339 328 L 338 305 L 336 296 L 332 288 L 323 279 L 321 276 L 308 267 L 303 262 L 299 260 Z "/>
    <path fill="#66d9e8" d="M 228.5 268 Q 237.4 266.9 241 270 L 243 274.5 L 244 283 L 254 287.5 L 256 294.5 L 253 303 L 249.5 305 L 243 305 L 241 313.5 L 237.5 317 L 228.5 318 L 222 313.5 L 220 303 L 214.5 302 L 211 299.5 L 208 291.5 L 211 283 L 221 281 L 225 269 L 228.5 268 Z M 231 269 L 228 270 L 224 274 L 223 282 L 222 283 L 214 284 L 210 289 L 211 298 L 214 300 L 222 302 Q 221 309 224 314 L 230 317 L 237 316 L 240 312 L 241 304 L 251 303 L 254 298 L 253 289 Q 251 284 244 285 L 242 284 L 241 274 Q 239 268 231 269 Z "/>
    <path fill="#66d9e8" d="M 451.5 291 L 452 295.5 L 451 295.5 L 451.5 291 Z "/>
    <path fill="#66d9e8" d="M 462.5 295 L 463 299.5 L 462 299.5 L 462.5 295 Z "/>
    <path fill="#66d9e8" d="M 356.5 298 Q 368.2 297.3 372 304.5 Q 376.3 309.7 375 320.5 Q 373.5 328.1 368.5 332 L 362.5 335 L 354.5 335 L 350 331.5 L 347 320.5 L 347 311.5 L 348 308.5 L 350 301 L 356.5 298 Z M 359 299 L 351 302 L 349 309 Q 347 322 351 331 L 357 334 L 362 334 L 368 331 Q 373 327 374 319 L 374 314 L 371 306 Q 367 300 359 299 Z "/>
    <path fill="#66d9e8" d="M 362.5 305 L 367 308.5 L 366.5 310 L 363.5 306 L 362.5 305 Z "/>
    <path fill="#66d9e8" d="M 354.5 321 L 355 325.5 L 354 325.5 L 354.5 321 Z "/>
    <path fill="#f783ac" d="M 297.5 95 L 303 99.5 L 302.5 101 L 298.5 96 L 297.5 95 Z "/>
    <path fill="#f783ac" d="M 303.5 102 L 305 105.5 L 304 105.5 L 303.5 102 Z "/>
    <path fill="#f783ac" d="M 232.5 272 L 235 273.5 Q 229.2 272.7 227.5 276 L 229.5 273 L 232.5 272 Z "/>
    <path fill="#f783ac" d="M 214.5 295 L 218 297.5 L 216.5 298 L 214.5 295 Z "/>
    <path fill="#f783ac" d="M 225.5 308 Q 228.1 307.2 227 310.5 L 230 312.5 L 228.5 313 L 225.5 308 Z "/>
  </g>
  <g id="line">
    <path fill="#1a1a1a" d="M 293.5 89 Q 303.6 88.9 307 95.5 L 310 107.5 L 311.5 109 L 346.5 117 Q 357.8 121.2 365 129.5 L 374 140.5 L 391 167.5 Q 405 192 415 220.5 L 420.5 228 L 449.5 246 L 461 257.5 L 466 267.5 L 469 281.5 Q 467.5 287 470 288.5 L 470 321.5 L 471.5 323 L 474 324.5 Q 477.7 330.3 476 341.5 Q 474.3 349.8 468.5 354 L 444 365 Q 441.5 381.1 429.5 389 L 415.5 395 L 401.5 395 L 391.5 391 L 384.5 385 L 380.5 385 L 371.5 388 L 354.5 391 L 330.5 391 L 325 390 Q 322.7 404.6 313.5 413 Q 300.3 425.3 273.5 424 Q 272.3 421.8 267.5 423 L 258.5 419 L 250 411.5 L 242 397.5 L 239 386.5 Q 240.3 379.7 238 376.5 L 239 375.5 L 239 369 L 203.5 364 L 192.5 361 L 174.5 359 L 148.5 353 L 147 354.5 L 144 367.5 L 135.5 379 Q 128.7 384.7 118.5 387 L 100.5 387 Q 86.4 384.1 80 373.5 L 73 358.5 L 72 339.5 L 70.5 338 Q 65.9 338.6 64.5 336 L 59.5 341 L 55.5 342 L 42 338 L 39 333.5 L 37 326.5 L 37 313.5 L 42.5 307 Q 45.3 307.6 44 301.5 L 43 300.5 L 43 285.5 L 42 284.5 L 42 219.5 L 43 218.5 L 43 204.5 L 45 194.5 L 47 165.5 L 49 159.5 L 51 142.5 L 56 127.5 L 64.5 118 L 74.5 113 L 86.5 110 L 103.5 107 L 111.5 107 L 118.5 105 L 148.5 103 L 149.5 102 L 162.5 102 L 163.5 101 L 201.5 100 L 202.5 101 L 227.5 101 L 228.5 102 L 242.5 102 L 243.5 103 L 278.5 105 L 280 103.5 L 281 97.5 L 287.5 91 L 293.5 89 Z M 294 94 L 287 97 L 283 109 L 283 118 L 287 120 L 292 121 Q 301 122 306 119 Q 308 105 302 98 Q 300 93 294 94 Z M 177 106 L 176 107 L 159 107 L 158 108 L 134 109 L 133 110 L 125 110 L 109 113 L 95 114 L 75 119 L 69 122 L 60 133 L 56 148 L 58 149 L 70 150 L 71 151 L 81 151 L 82 152 L 118 153 L 119 154 L 136 154 L 137 155 L 155 155 L 156 156 L 173 156 L 174 157 L 192 157 L 193 158 L 206 158 L 217 160 L 237 161 L 238 162 L 248 162 L 256 164 L 268 164 L 279 161 L 320 155 L 321 154 L 328 154 L 329 153 L 372 150 L 365 139 Q 358 128 346 123 L 329 118 L 313 115 Q 310 116 312 118 L 311 122 L 308 124 L 300 126 Q 286 126 278 122 L 277 120 L 278 111 L 273 110 L 263 110 L 262 109 L 233 108 L 232 107 L 214 107 L 213 106 L 177 106 Z M 57 154 L 54 158 L 53 163 L 52 179 L 49 196 L 49 209 L 48 210 L 48 225 L 47 230 L 53 232 L 60 232 L 82 236 L 89 236 L 105 239 L 130 241 L 145 244 L 162 245 L 177 248 Q 185 247 190 249 L 191 248 L 191 239 L 192 238 L 192 213 L 193 212 L 195 167 L 196 166 L 194 163 L 184 163 L 183 162 L 165 162 L 164 161 L 146 161 L 145 160 L 128 160 L 127 159 L 91 158 L 90 157 L 77 157 L 76 156 L 67 156 L 57 154 Z M 373 155 L 372 156 L 361 156 L 360 157 L 334 158 L 319 161 L 305 162 L 289 166 L 272 168 L 266 171 L 269 185 L 272 191 L 282 227 L 286 250 L 285 277 L 284 278 L 284 290 L 283 291 L 283 310 Q 282 313 280 310 L 281 281 L 282 280 L 282 268 L 283 267 L 283 245 L 282 240 L 274 208 L 270 198 L 263 172 L 261 169 L 243 168 L 233 166 L 223 166 L 213 164 L 200 164 L 198 166 L 196 210 L 195 211 L 195 229 L 194 230 L 194 328 L 195 329 L 196 356 L 206 359 L 233 362 L 235 357 L 236 347 L 246 330 Q 254 321 268 319 Q 285 320 294 329 L 304 345 L 308 357 L 308 362 L 311 373 L 311 374 L 316 374 L 316 364 L 317 362 L 324 357 L 352 357 L 381 351 L 382 345 L 383 314 L 387 305 L 396 298 L 423 291 Q 432 290 436 293 L 440 300 L 445 331 L 463 324 L 465 322 L 465 308 L 464 306 L 453 305 L 448 301 L 446 294 L 447 286 L 449 282 Q 452 275 461 275 L 460 267 L 455 259 L 443 248 L 418 233 L 411 225 Q 398 189 379 159 Q 378 154 373 155 Z M 49 234 L 47 236 L 47 255 L 49 256 Q 53 255 55 257 L 70 258 L 99 263 L 106 263 L 127 267 L 142 268 L 155 271 L 183 274 L 184 275 L 191 275 L 191 252 L 160 249 L 145 246 L 127 245 L 120 243 L 88 240 L 87 239 L 49 234 Z M 47 259 L 47 280 L 48 281 L 49 306 L 52 308 L 58 310 L 61 315 L 63 331 L 66 332 L 68 331 L 69 320 L 76 306 Q 82 296 96 294 L 107 295 L 118 301 Q 126 308 130 319 L 133 329 L 135 345 L 162 351 L 167 351 L 193 356 L 193 346 L 192 345 L 192 316 L 191 315 L 191 279 L 189 278 L 175 277 L 154 273 L 133 271 L 126 269 L 104 267 L 91 264 L 84 264 L 83 263 L 76 263 L 75 262 L 47 259 Z M 460 278 L 453 281 L 450 288 Q 449 295 451 299 L 457 303 Q 464 305 465 301 L 463 280 L 460 278 Z M 426 294 L 415 296 L 394 303 L 387 312 L 386 331 L 385 332 L 385 349 L 390 349 L 412 342 L 419 341 L 439 334 L 442 332 L 439 317 L 439 311 L 435 298 Q 432 294 426 294 Z M 95 301 L 89 303 Q 84 305 88 307 L 96 303 Q 97 300 95 301 Z M 45 313 L 43 315 L 44 331 L 50 335 L 57 336 L 56 317 Q 53 312 45 313 Z M 80 313 L 77 317 L 78 319 L 80 315 L 80 313 Z M 266 326 L 257 330 L 260 331 L 273 328 L 270 326 L 266 326 Z M 468 327 L 455 334 L 435 342 L 391 355 L 350 363 L 322 363 Q 321 374 324 382 L 331 385 Q 337 383 339 386 L 357 385 L 392 377 L 435 363 L 465 350 L 470 342 L 470 330 L 468 327 Z M 101 330 L 99 331 Q 94 334 93 341 Q 92 351 96 356 L 101 359 L 105 358 Q 109 355 110 349 Q 111 340 108 335 Q 106 330 101 330 Z M 250 336 Q 245 339 244 345 L 245 346 L 251 339 L 250 336 Z M 270 360 L 265 365 L 262 375 L 263 384 L 267 391 L 272 393 L 279 391 L 284 380 Q 284 370 281 365 Q 279 358 270 360 Z "/>
    <path fill="#1a1a1a" d="M 85.5 123 L 173.5 123 L 174.5 124 L 187.5 124 L 188.5 125 L 201.5 125 L 202.5 126 L 225 127 L 223.5 131 Q 218 128.5 208.5 130 L 207.5 129 L 196.5 129 L 195.5 128 L 182.5 128 L 181.5 127 L 115.5 126 L 114.5 127 L 84.5 127 L 83 124 L 85.5 123 Z "/>
    <path fill="#1a1a1a" d="M 242.5 131 Q 249.3 133.3 253 138.5 L 258 146.5 L 260 155.5 Q 258.5 158.5 257 155.5 Q 254.8 144.2 247.5 138 L 241 133.5 L 242.5 131 Z "/>
    <path fill="#1a1a1a" d="M 357.5 164 L 370.5 165 L 379 170.5 L 402 217.5 L 403 226.5 L 397.5 233 L 389.5 236 L 353.5 244 L 325.5 247 L 317.5 249 L 303.5 249 L 298 246 L 295 240.5 L 285 207.5 L 283 195.5 L 281 191.5 L 281 181.5 L 285.5 176 L 298.5 172 L 324.5 169 L 345.5 165 L 356.5 165 L 357.5 164 Z M 363 169 L 362 170 L 340 171 L 339 172 L 333 172 L 326 174 L 296 178 L 291 179 L 286 183 L 286 191 L 294 217 L 295 224 L 299 236 L 305 244 L 317 244 L 325 242 L 347 240 L 353 238 L 369 236 L 396 228 L 398 225 L 396 217 L 375 175 L 370 170 Q 364 172 363 169 Z "/>
    <path fill="#1a1a1a" d="M 212.5 174 L 238.5 175 L 249.5 178 L 256 182.5 L 264 201.5 L 274 243.5 L 273 246 L 269 244.5 Q 269 237 264.5 234 L 256.5 232 L 251 235.5 L 250 238.5 L 250 254.5 L 252.5 259 L 258.5 260 L 268.5 256 L 273 256 Q 273.8 259.8 270.5 261 L 263.5 264 L 256.5 265 L 251.5 264 L 247 260.5 Q 244.1 256.6 245 250 L 212.5 246 L 205 240.5 L 203 235.5 L 203 219.5 L 204 218.5 L 205 186.5 L 206 181.5 L 210.5 175 L 212.5 174 Z M 215 179 L 211 183 L 210 188 L 209 224 L 208 225 L 209 238 L 214 241 L 235 243 L 243 245 L 244 244 Q 244 235 247 231 L 255 227 Q 262 226 265 228 L 263 217 L 253 188 Q 250 182 243 181 L 229 180 L 228 179 L 215 179 Z "/>
    <path fill="#1a1a1a" d="M 204.5 259 Q 214.9 257.6 219 262.5 L 217.5 266 L 205.5 265 L 203 262.5 L 204.5 259 Z "/>
    <path fill="#1a1a1a" d="M 300.5 260 L 303 261 L 307.5 267 Q 321.4 275.6 332 287.5 L 336 295.5 L 338 304.5 L 339 327.5 L 340 328.5 L 340 351 L 338 350.5 L 338 340.5 L 337 339.5 L 337 320.5 L 336 319.5 L 336 309.5 L 335 308.5 L 334 297.5 L 327 285 L 301 264.5 L 299 261.5 L 300.5 260 Z "/>
    <path fill="#1a1a1a" d="M 442.5 260 Q 445.1 259.2 444 262.5 L 433.5 269 L 413.5 276 L 376.5 284 L 348.5 287 L 346 286 L 346.5 284 L 353.5 284 L 354.5 283 L 364.5 283 L 370.5 281 L 382.5 280 L 397.5 276 L 406.5 275 L 433.5 266 L 442.5 260 Z "/>
    <path fill="#1a1a1a" d="M 230.5 269 Q 238.6 268.4 241 273.5 L 242 283.5 L 243.5 285 Q 250.8 284.2 253 288.5 L 254 297.5 L 249.5 303 L 241 304 L 240 311.5 L 236.5 316 L 229.5 317 L 224 313.5 Q 221.3 308.9 222 302 L 213.5 300 L 211 297.5 L 210 288.5 L 213.5 284 L 221.5 283 L 223 281.5 L 224 273.5 L 227.5 270 L 230.5 269 Z M 233 272 L 230 273 Q 225 276 226 284 Q 224 288 217 286 L 213 291 L 214 296 L 217 298 L 224 299 L 225 301 Q 224 307 226 311 L 231 314 L 236 313 Q 239 310 238 303 L 240 301 L 249 300 Q 252 299 251 292 L 247 288 L 241 287 L 239 286 L 239 277 L 237 273 L 233 272 Z "/>
    <path fill="#1a1a1a" d="M 358.5 299 Q 367.1 299.9 371 305.5 L 374 313.5 L 374 318.5 Q 372.8 326.8 367.5 331 L 361.5 334 L 356.5 334 L 351 330.5 Q 347.3 322.2 349 308.5 L 351 302 L 358.5 299 Z M 357 303 L 355 304 L 352 309 L 352 324 L 356 330 Q 363 331 366 328 L 370 322 Q 371 313 369 309 Q 367 302 357 303 Z "/>
    <path fill="#1a1a1a" d="M 432.5 324 L 435 325 L 432.5 329 L 409.5 337 L 394.5 339 Q 391.8 337.8 394 336.5 Q 393.1 333.1 398.5 335 L 422.5 329 L 432.5 324 Z "/>
  </g>
</svg>
