<svg xmlns="http://www.w3.org/2000/svg" width="512" height="512" viewBox="0 0 512 512">
  <g id="color">
    <path fill="#ffffff" d="M 241.5 106 L 271 106.5 L 241.5 107 L 241.5 106 Z "/>
    <path fill="#ffffff" d="M 230.5 107 L 238 107.5 L 230.5 108 L 230.5 107 Z "/>
    <path fill="#ffffff" d="M 275.5 107 L 283 107.5 L 275.5 108 L 275.5 107 Z "/>
    <path fill="#ffffff" d="M 223.5 108 L 228 108.5 L 223.5 109 L 223.5 108 Z "/>
    <path fill="#ffffff" d="M 285.5 108 L 290 108.5 L 285.5 109 L 285.5 108 Z "/>
    <path fill="#ffffff" d="M 186.5 116 L 189 116.5 L 183.5 118 L 183.5 117 L 186.5 116 Z "/>
    <path fill="#ffffff" d="M 174.5 120 L 176 120.5 L 172.5 122 L 172.5 121 L 174.5 120 Z "/>
    <path fill="#ffffff" d="M 162.5 125 L 164 125.5 L 160.5 127 L 160.5 126 L 162.5 125 Z "/>
    <path fill="#ffffff" d="M 143.5 134 L 142.5 136 L 140.5 137 L 141.5 135 L 143.5 134 Z "/>
    <path fill="#ffffff" d="M 369.5 134 L 373 136.5 L 371.5 136 L 369.5 134 Z "/>
    <path fill="#ffffff" d="M 134.5 139 L 133.5 141 L 131.5 142 L 132.5 140 L 134.5 139 Z "/>
    <path fill="#ffffff" d="M 127.5 143 L 125.5 146 L 123.5 147 L 124.5 145 L 127.5 143 Z "/>
    <path fill="#ffffff" d="M 470.5 231 L 472 234.5 L 471 234.5 L 470.5 231 Z "/>
    <path fill="#ffffff" d="M 37.5 246 L 38 250.5 L 37 250.5 L 37.5 246 Z "/>
    <path fill="#ffffff" d="M 476.5 253 L 477 260.5 L 476 260.5 L 476.5 253 Z "/>
    <path fill="#ffffff" d="M 36.5 254 L 37 259.5 L 36 259.5 L 36.5 254 Z "/>
    <path fill="#ffffff" d="M 37.5 262 L 38 266.5 L 37 266.5 L 37.5 262 Z "/>
    <path fill="#ffffff" d="M 42.5 280 L 44 283.5 L 43 283.5 L 42.5 280 Z "/>
    <path fill="#ffffff" d="M 470.5 280 L 471 281.5 L 469.5 284 L 469 282.5 L 470.5 280 Z "/>
    <path fill="#ffffff" d="M 45.5 287 L 48 290.5 L 46 289.5 L 45.5 287 Z "/>
    <path fill="#ffffff" d="M 467.5 287 L 467 288.5 L 465.5 291 L 466 289.5 L 467.5 287 Z "/>
    <path fill="#ffffff" d="M 120.5 362 L 124 364.5 L 122.5 364 L 120.5 362 Z "/>
    <path fill="#ffffff" d="M 128.5 367 L 132 369.5 L 130.5 369 L 128.5 367 Z "/>
    <path fill="#ffffff" d="M 384.5 367 L 383.5 369 L 381.5 370 L 382.5 368 L 384.5 367 Z "/>
    <path fill="#ffffff" d="M 137.5 372 L 141 374.5 L 139.5 374 L 137.5 372 Z "/>
    <path fill="#ffffff" d="M 375.5 372 L 374.5 374 L 372.5 375 L 373.5 373 L 375.5 372 Z "/>
    <path fill="#ffffff" d="M 359.5 380 L 361 380.5 L 355.5 383 L 355.5 382 L 359.5 380 Z "/>
    <path fill="#ffffff" d="M 154.5 381 L 160 383.5 L 158.5 384 L 154.5 382 L 154.5 381 Z "/>
    <path fill="#ffffff" d="M 166.5 386 L 170 387.5 L 168.5 388 L 166.5 386 Z "/>
    <path fill="#ffffff" d="M 345.5 386 L 347 386.5 L 343.5 388 L 343.5 387 L 345.5 386 Z "/>
    <path fill="#ffffff" d="M 192.5 395 L 198 396.5 L 195.5 397 L 192.5 396 L 192.5 395 Z "/>
    <path fill="#ffffff" d="M 318.5 395 L 321 395.5 L 315.5 397 L 315.5 396 L 318.5 395 Z "/>
    <path fill="#ffffff" d="M 217.5 401 L 222 401.5 L 217.5 402 L 217.5 401 Z "/>
    <path fill="#ffffff" d="M 224.5 402 L 229 402.5 L 224.5 403 L 224.5 402 Z "/>
    <path fill="#ffffff" d="M 234.5 403 L 240 403.5 L 234.5 404 L 234.5 403 Z "/>
    <path fill="#ffffff" d="M 273.5 403 L 280 403.5 L 273.5 404 L 273.5 403 Z "/>
    <path fill="#ffffff" d="M 250.5 404 L 260 404.5 L 250.5 405 L 250.5 404 Z "/>
    <path fill="#4da3ff" d="M 225.5 163 Q 228.3 162.4 227 168.5 L 226 169.5 L 226 184.5 L 227 185.5 L 227 194 Q 224.3 195.1 225 192.5 L 222 182.5 L 222 171.5 L 225.5 163 Z "/>
    <path fill="#4da3ff" d="M 286 163 L 289 164.5 L 291 171.5 L 291 181.5 L 288 194 L 286 193.5 L 286 184.5 L 287 183.5 L 287 169.5 L 286 163 Z "/>
    <path fill="#4da3ff" d="M 183 168 Q 187.1 166.3 186 170.5 L 185 171.5 L 185 190.5 L 187 201 L 184 199.5 L 181 187.5 L 181 176.5 L 183 168 Z "/>
    <path fill="#4da3ff" d="M 327 168 Q 331.1 166.3 330 170.5 Q 333.7 176.3 332 187.5 L 330 197.5 L 327.5 201 Q 324.5 201.9 326 197.5 L 328 190.5 L 328 171.5 L 327 168 Z "/>
    <path fill="#4da3ff" d="M 250.5 172 L 259.5 173 L 264.5 172 L 265.5 173 L 280 173 Q 281.5 178.4 278.5 180 L 276.5 180 L 274.5 179 L 236.5 179 L 233 180 L 233 173 L 249.5 173 L 250.5 172 Z "/>
    <path fill="#4da3ff" d="M 208.5 175 L 215 175 L 215 181 L 192 185 L 191 181.5 L 192 178 L 208.5 175 Z "/>
    <path fill="#4da3ff" d="M 298 175 L 305.5 175 L 321 178 L 321 184.5 L 319.5 185 L 314.5 183 L 298 181 L 298 175 Z "/>
    <path fill="#4da3ff" d="M 173.5 182 L 174 187.5 L 172 186.5 Q 171.3 182.8 173.5 182 Z "/>
    <path fill="#4da3ff" d="M 339.5 182 Q 342 183 341 187.5 L 339 188.5 L 339.5 182 Z "/>
    <path fill="#ffd43b" d="M 243.5 116 L 279.5 117 L 280.5 118 L 300.5 120 L 317.5 124 L 346.5 134 L 373 148.5 L 378 164.5 L 384 192 Q 368.5 186.1 350 183 Q 348.6 179 355.5 181 L 361 179 L 362 172.5 Q 359 165 352.5 161 L 334.5 152 L 329.5 151 L 296.5 151 L 273.5 142 L 254.5 139 L 239.5 142 L 216.5 151 L 183.5 151 L 178.5 152 Q 161.5 157 152 169.5 L 151 176.5 L 152 179 Q 155.5 182 163 181 Q 164.3 184.3 159.5 183 L 129 192 L 133 176.5 L 134 167.5 L 141.5 147 L 166.5 134 L 195.5 124 L 212.5 120 L 231.5 118 L 232.5 117 L 242.5 117 L 243.5 116 Z "/>
    <path fill="#ffd43b" d="M 249.5 144 L 263.5 144 L 297.5 156 L 316.5 156 Q 317.8 153.8 322.5 155 L 323.5 156 L 334.5 157 L 345.5 162 L 357 172.5 L 355.5 176 L 341.5 176 L 337 173.5 Q 336.5 166 331.5 163 L 325.5 162 Q 320.3 164 322 172 L 296 169 Q 295.6 160.6 289.5 157 Q 284.1 156.4 282 158 L 280 164.5 Q 282.3 165.8 279.5 167 L 267.5 167 L 264 163.5 L 263 161.5 L 268 157.5 L 266.5 155 L 258.5 158 L 251.5 154 L 250 157.5 L 253 162 L 246.5 167 L 232 167 L 233 163.5 L 228.5 157 Q 221.6 156.1 220 160.5 L 217 169 L 192.5 172 Q 189.8 170.8 191 165.5 L 187.5 162 Q 179.6 161.1 178 166.5 L 174.5 175 Q 167.8 177.3 157.5 176 L 156 172.5 L 160.5 167 Q 168 160.5 178.5 157 L 194.5 155 L 195.5 156 L 215.5 156 L 249.5 144 Z "/>
    <path fill="#ffd43b" d="M 131.5 153 L 132 156.5 L 126 175.5 L 120 207.5 L 119 225.5 L 118 226.5 L 117 261.5 L 118 262.5 L 119 289.5 L 120 290.5 L 120 297.5 L 121 298.5 L 123 315.5 L 134 359 Q 119.6 352.2 108 341.5 L 101 314.5 L 101 309.5 L 97 291.5 L 96 268.5 L 95 267.5 L 95 245.5 L 96 244.5 L 96 230.5 L 97 229.5 L 98 213.5 L 102 197.5 L 102 192.5 L 108 170.5 L 112.5 166 L 131.5 153 Z "/>
    <path fill="#ffd43b" d="M 381.5 153 L 404 168 L 411 192.5 L 415 213.5 L 416 229.5 L 417 230.5 L 417 245.5 L 418 246.5 L 418 267.5 L 417 268.5 L 416 290.5 L 411 318.5 L 405 340.5 L 401.5 345 L 385.5 356 L 378.5 359 L 379 357.5 L 389 320.5 L 393 297.5 L 394 279.5 L 395 278.5 L 395 263.5 L 396 262.5 L 396 243.5 L 395 242.5 L 395 226.5 L 394 225.5 L 393 207.5 L 390 195.5 L 389 184.5 L 381 156.5 L 381.5 153 Z "/>
    <path fill="#ffd43b" d="M 257.5 164 L 259 167 L 256 165.5 L 257.5 164 Z "/>
    <path fill="#ffd43b" d="M 98.5 177 Q 101.1 176.2 100 179.5 L 96 192.5 L 94 207.5 L 91.5 210 Q 69.8 220.3 52.5 235 L 53 233.5 L 56 225.5 L 69 206.5 L 89.5 185 L 98.5 177 Z "/>
    <path fill="#ffd43b" d="M 413 177 L 414.5 177 L 435 196.5 Q 450.8 212.2 461 233.5 L 459.5 235 L 455.5 231 L 419 207.5 L 416 187.5 L 413 177 Z "/>
    <path fill="#ffd43b" d="M 249 184 L 260.5 184 L 262 185.5 L 256.5 191 L 254.5 191 L 249 184 Z "/>
    <path fill="#ffd43b" d="M 233.5 185 L 242.5 185 L 244 186.5 L 251 194.5 L 251 196.5 L 246 202.5 L 249.5 204 L 255.5 199 Q 257.7 203.9 264 203 Q 265 199.2 262.5 198 L 259 195.5 Q 258.3 193.3 260.5 194 L 268.5 185 L 279.5 185 L 281 186.5 L 280 194.5 L 283.5 199 L 287.5 200 L 293 196.5 L 296 187 L 315.5 189 L 322 191.5 L 320 197.5 L 320 202.5 L 322.5 206 L 329.5 207 L 334 202.5 L 337.5 194 Q 343.8 193.2 346.5 196 L 357 204.5 Q 356.6 210.1 352.5 212 L 339.5 217 L 325.5 217 L 310.5 212 L 294.5 210 L 293.5 211 L 281.5 212 L 263.5 217 L 249.5 217 L 231.5 212 L 214.5 210 L 198.5 213 L 187.5 217 L 174.5 217 L 166.5 215 L 157 208.5 L 156 204.5 L 166.5 196 Q 169.2 193.2 175.5 194 L 179 202.5 L 183.5 207 Q 190 208 192 204.5 L 193 197.5 L 191 191.5 L 192.5 190 L 217 187 Q 217.4 194.8 222.5 199 L 227.5 200 L 232 197.5 L 233 188.5 L 232 186.5 L 233.5 185 Z "/>
    <path fill="#ffd43b" d="M 164.5 188 L 167 189.5 L 164.5 193 Q 156.2 195.2 152 201.5 L 151 207.5 L 154.5 213 Q 160.3 218.7 169.5 221 Q 176.6 223.4 187.5 222 L 207.5 216 L 220.5 215 L 249.5 222 L 263.5 222 L 286.5 216 L 299.5 215 L 325.5 222 L 338.5 222 L 349.5 219 L 359 213 L 362 207.5 L 362 203.5 L 355.5 196 L 346 190.5 L 347.5 188 L 375.5 195 L 385 199.5 L 388 213.5 L 388 222.5 L 389 223.5 L 390 267.5 L 389 268.5 L 388 291.5 L 383 320.5 L 376 347.5 L 370 365 L 340.5 379 L 312.5 388 L 287.5 393 L 250.5 395 L 249.5 394 L 226.5 393 L 200.5 388 L 170.5 378 L 143 364.5 L 137 347.5 L 130 320.5 L 125 291.5 L 124 267.5 L 123 266.5 L 123 239.5 L 124 238.5 L 124 224.5 L 125 223.5 L 126 207.5 Q 128.2 206.3 127 201.5 L 129.5 198 L 164.5 188 Z "/>
    <path fill="#ffd43b" d="M 89.5 217 Q 93.7 215.7 92 220.5 L 91 221.5 L 91 233.5 L 90 234.5 L 90 279.5 L 91 280.5 L 92 297.5 L 100 334.5 L 97.5 333 L 78 315.5 Q 62.5 300 52 279.5 L 47 265.5 L 46 252.5 L 49 246 L 64.5 233 L 89.5 217 Z "/>
    <path fill="#ffd43b" d="M 421 217 L 425.5 218 L 447.5 232 L 466 248.5 L 467 260.5 Q 463.2 278.7 454 291.5 Q 440.7 312.2 422.5 328 L 413.5 335 L 413 331.5 L 417 318.5 L 418 308.5 L 421 297.5 L 422 279.5 L 423 278.5 L 423 258.5 L 424 257.5 L 423 256.5 L 423 234.5 L 422 233.5 Q 423 223 421 217 Z "/>
    <path fill="#66d9e8" d="M 286.5 161 L 290 163.5 Q 293.4 171.1 292 183.5 L 289 195 Q 285.2 196 284 193.5 L 285 182.5 L 286 181.5 L 286 170.5 L 284 163.5 L 286.5 161 Z M 286 163 L 287 170 L 287 184 L 286 185 L 286 194 L 288 194 L 291 182 L 291 172 L 289 165 L 286 163 Z "/>
    <path fill="#66d9e8" d="M 224.5 162 Q 228.3 161.3 229 163.5 L 227 170.5 L 227 181.5 L 228 182.5 L 229 193.5 Q 226 199 223 192.5 Q 219.3 184.2 221 170.5 L 222 165.5 L 224.5 162 Z M 226 163 L 222 172 L 222 183 L 225 193 Q 224 195 227 194 L 227 186 L 226 185 L 226 170 L 227 169 Q 228 162 226 163 Z "/>
    <path fill="#66d9e8" d="M 183.5 167 Q 189.6 165.2 187 172.5 L 186 173.5 L 186 185.5 L 189 200.5 Q 187.3 204.8 185.5 202 Q 183.3 202.8 184 200.5 L 180 191.5 L 180 173.5 L 181 169.5 L 183.5 167 Z M 183 168 L 181 177 L 181 188 L 184 200 L 187 201 L 185 191 L 185 172 L 186 171 Q 187 166 183 168 Z "/>
    <path fill="#66d9e8" d="M 326 167 Q 330.7 166 332 169.5 Q 334.8 178.2 333 191.5 L 331 198.5 L 327.5 203 L 325 201.5 L 324 199.5 L 327 186.5 L 327 173.5 L 326 167 Z M 327 168 L 328 172 L 328 191 L 326 198 Q 324 202 328 201 L 330 198 L 332 188 Q 334 176 330 171 Q 331 166 327 168 Z "/>
    <path fill="#66d9e8" d="M 236.5 171 L 273.5 171 L 274.5 172 L 281 172 L 281 181 L 274.5 181 L 273.5 180 L 238.5 180 L 232 181 L 231 175.5 L 232 172 L 236.5 171 Z M 251 172 L 250 173 L 233 173 L 233 180 L 237 179 L 275 179 L 277 180 L 279 180 Q 282 178 280 173 L 266 173 L 265 172 L 260 173 L 251 172 Z "/>
    <path fill="#66d9e8" d="M 214.5 173 Q 217.1 172.2 216 175.5 L 217 180.5 L 216 183 L 207.5 183 L 190 186 L 190 177.5 L 191.5 177 L 214.5 173 Z M 209 175 L 192 178 L 191 182 L 192 185 L 215 181 L 215 175 L 209 175 Z "/>
    <path fill="#66d9e8" d="M 297 173 L 314.5 176 L 320.5 176 L 323 178.5 L 323 186 L 318.5 186 L 312.5 184 L 298.5 183 L 297 181.5 L 297 173 Z M 298 175 L 298 181 L 315 183 L 320 185 L 321 185 L 321 178 L 306 175 L 298 175 Z "/>
    <path fill="#66d9e8" d="M 173.5 180 Q 176.3 179.4 175 185.5 L 176 189 L 171 189 L 171 187.5 L 170 184.5 L 173.5 180 Z M 174 182 Q 171 183 172 187 L 174 188 L 174 182 Z "/>
    <path fill="#66d9e8" d="M 338 180 L 342 182.5 L 343 186.5 L 340.5 190 L 338 189.5 L 338 180 Z M 340 182 L 339 189 L 341 188 Q 342 183 340 182 Z "/>
  </g>
  <g id="line">
    <path fill="#1a1a1a" d="M 238.5 107 L 274.5 107 L 275.5 108 L 299.5 110 L 324.5 116 L 349.5 125 Q 408.9 151.6 449 197.5 Q 461.7 211.8 470 230.5 L 476 250.5 L 476 262.5 L 469 284.5 L 459 301.5 Q 444.2 321.7 425.5 338 L 387.5 366 L 361.5 380 L 340.5 389 L 311.5 398 L 284.5 403 L 273.5 403 L 272.5 404 L 240.5 404 L 239.5 403 L 229.5 403 L 228.5 402 L 216.5 401 L 187.5 394 L 162.5 385 L 141.5 375 Q 97.7 351.8 66 316.5 Q 53 302.5 44 284.5 L 38 267.5 L 37 251.5 Q 40.2 232.2 49 218.5 Q 66.2 191.2 90.5 171 Q 118.6 146.1 154.5 129 L 192.5 115 L 213.5 110 L 237.5 108 L 238.5 107 Z M 244 116 L 243 117 L 233 117 L 232 118 L 213 120 L 196 124 L 167 134 L 142 147 L 134 168 L 133 177 L 129 192 L 160 183 Q 164 184 163 181 Q 156 182 152 179 L 151 177 L 152 170 Q 162 157 179 152 L 184 151 L 217 151 L 240 142 L 255 139 L 274 142 L 297 151 L 330 151 L 335 152 L 353 161 Q 359 165 362 173 L 361 179 L 356 181 Q 349 179 350 183 Q 368 186 384 192 L 378 165 L 373 149 L 347 134 L 318 124 L 301 120 L 281 118 L 280 117 L 244 116 Z M 250 144 L 216 156 L 196 156 L 195 155 L 179 157 Q 168 161 161 167 L 156 173 L 158 176 Q 168 177 175 175 L 178 167 Q 180 161 188 162 L 191 166 Q 190 171 193 172 L 217 169 L 220 161 Q 222 156 229 157 L 233 164 L 232 167 L 247 167 L 253 162 L 250 158 L 252 154 L 259 158 L 267 155 L 268 158 L 263 162 L 264 164 L 268 167 L 280 167 Q 282 166 280 165 L 282 158 Q 284 156 290 157 Q 296 161 296 169 L 322 172 Q 320 164 326 162 L 332 163 Q 336 166 337 174 L 342 176 L 356 176 L 357 173 L 346 162 L 335 157 L 324 156 L 323 155 Q 318 154 317 156 L 298 156 L 264 144 L 250 144 Z M 132 153 L 113 166 L 108 171 L 102 193 L 102 198 L 98 214 L 97 230 L 96 231 L 96 245 L 95 246 L 95 268 L 96 269 L 97 292 L 101 310 L 101 315 L 108 342 Q 120 352 134 359 L 123 316 L 121 299 L 120 298 L 120 291 L 119 290 L 118 263 L 117 262 L 118 227 L 119 226 L 120 208 L 126 176 L 132 157 L 132 153 Z M 382 153 L 381 157 L 389 185 L 390 196 L 393 208 L 394 226 L 395 227 L 395 243 L 396 244 L 396 263 L 395 264 L 395 279 L 394 280 L 393 298 L 389 321 L 379 358 L 379 359 L 386 356 L 402 345 L 405 341 L 411 319 L 416 291 L 417 269 L 418 268 L 418 247 L 417 246 L 417 231 L 416 230 L 415 214 L 411 193 L 404 168 L 382 153 Z M 287 161 L 284 164 L 286 171 L 286 182 L 285 183 L 284 194 Q 285 196 289 195 L 292 184 Q 293 171 290 164 L 287 161 Z M 225 162 L 222 166 L 221 171 Q 219 184 223 193 Q 226 199 229 194 L 228 183 L 227 182 L 227 171 L 229 164 Q 228 161 225 162 Z M 258 164 L 256 166 L 259 167 L 258 164 Z M 184 167 L 181 170 L 180 174 L 180 192 L 184 201 Q 183 203 186 202 Q 187 205 189 201 L 186 186 L 186 174 L 187 173 Q 190 165 184 167 Z M 326 167 L 327 174 L 327 187 L 324 200 L 325 202 L 328 203 L 331 199 L 333 192 Q 335 178 332 170 Q 331 166 326 167 Z M 237 171 L 232 172 L 231 176 L 232 181 L 239 180 L 274 180 L 275 181 L 281 181 L 281 172 L 275 172 L 274 171 L 237 171 Z M 215 173 L 192 177 L 190 178 L 190 186 L 208 183 L 216 183 L 217 181 L 216 176 Q 217 172 215 173 Z M 297 173 L 297 182 L 299 183 L 313 184 L 319 186 L 323 186 L 323 179 L 321 176 L 315 176 L 297 173 Z M 99 177 L 90 185 L 69 207 L 56 226 L 53 234 L 53 235 Q 70 220 92 210 L 94 208 L 96 193 L 100 180 Q 101 176 99 177 Z M 413 177 L 416 188 L 419 208 L 442 221 L 461 235 Q 452 213 435 197 L 415 177 L 413 177 Z M 174 180 L 170 185 L 171 188 L 171 189 L 176 189 L 175 186 Q 176 179 174 180 Z M 338 180 L 338 190 L 341 190 L 343 187 L 342 183 L 338 180 Z M 249 184 L 255 191 L 257 191 L 262 186 L 261 184 L 249 184 Z M 234 185 L 232 187 L 233 189 L 232 198 L 228 200 L 223 199 Q 217 195 217 187 L 193 190 L 191 192 L 193 198 L 192 205 Q 190 208 184 207 L 179 203 L 176 194 Q 169 193 167 196 L 156 205 L 157 209 L 167 215 L 175 217 L 188 217 L 199 213 L 215 210 L 232 212 L 250 217 L 264 217 L 282 212 L 294 211 L 295 210 L 311 212 L 326 217 L 340 217 L 353 212 Q 357 210 357 205 L 347 196 Q 344 193 338 194 L 334 203 L 330 207 L 323 206 L 320 203 L 320 198 L 322 192 L 316 189 L 296 187 L 293 197 L 288 200 L 284 199 L 280 195 L 281 187 L 280 185 L 269 185 L 261 194 Q 258 193 259 196 L 263 198 Q 265 199 264 203 Q 258 204 256 199 L 250 204 L 246 203 L 251 197 L 251 195 L 244 187 L 243 185 L 234 185 Z M 165 188 L 130 198 L 127 202 Q 128 206 126 208 L 125 224 L 124 225 L 124 239 L 123 240 L 123 267 L 124 268 L 125 292 L 130 321 L 137 348 L 143 365 L 171 378 L 201 388 L 227 393 L 250 394 L 251 395 L 288 393 L 313 388 L 341 379 L 370 365 L 376 348 L 383 321 L 388 292 L 389 269 L 390 268 L 389 224 L 388 223 L 388 214 L 385 200 L 376 195 L 348 188 L 346 191 L 356 196 L 362 204 L 362 208 L 359 213 L 350 219 L 339 222 L 326 222 L 300 215 L 287 216 L 264 222 L 250 222 L 221 215 L 208 216 L 188 222 Q 177 223 170 221 Q 160 219 155 213 L 151 208 L 152 202 Q 156 195 165 193 L 167 190 L 165 188 Z M 90 217 L 65 233 L 49 246 L 46 253 L 47 266 L 52 280 Q 62 300 78 316 L 98 333 L 100 335 L 92 298 L 91 281 L 90 280 L 90 235 L 91 234 L 91 222 L 92 221 Q 94 216 90 217 Z M 421 217 Q 423 223 422 234 L 423 235 L 423 257 L 424 258 L 423 259 L 423 279 L 422 280 L 421 298 L 418 309 L 417 319 L 413 332 L 414 335 L 423 328 Q 441 312 454 292 Q 463 279 467 261 L 466 249 L 448 232 L 426 218 L 421 217 Z "/>
  </g>
</svg>
