<svg xmlns="http://www.w3.org/2000/svg" width="512" height="512" viewBox="0 0 512 512">
  <g id="color">
    <path fill="#ffffff" d="M 294.5 38 L 299 41.5 L 300 43.5 L 298 42.5 L 296.5 40 L 294.5 38 Z "/>
    <path fill="#ffffff" d="M 309.5 43 L 311 43.5 L 304.5 48 L 307.5 44 L 309.5 43 Z "/>
    <path fill="#ffffff" d="M 318.5 43 L 323 44.5 L 321.5 45 L 318.5 44 L 318.5 43 Z "/>
    <path fill="#ffffff" d="M 235.5 45 L 243 45.5 L 235.5 46 L 235.5 45 Z "/>
    <path fill="#ffffff" d="M 300.5 45 L 301.5 52 L 303.5 49 L 303 50.5 L 300.5 54 L 300.5 45 Z "/>
    <path fill="#ffffff" d="M 326.5 46 L 334 52.5 L 335 61.5 L 333.5 64 L 333 62.5 Q 335.8 60.7 334 54.5 L 328.5 48 L 326.5 46 Z "/>
    <path fill="#ffffff" d="M 223.5 50 L 221.5 53 L 219.5 54 L 220.5 52 L 223.5 50 Z "/>
    <path fill="#ffffff" d="M 217.5 56 L 217 57.5 L 215.5 66 L 215 59.5 L 217.5 56 Z "/>
    <path fill="#ffffff" d="M 253.5 59 L 256 63.5 L 254 62.5 L 253.5 59 Z "/>
    <path fill="#ffffff" d="M 178.5 64 L 184 64.5 L 178.5 65 L 178.5 64 Z "/>
    <path fill="#ffffff" d="M 189.5 64 Q 197.9 63.1 201 67.5 L 199.5 67 Q 196.2 64.3 189.5 65 L 189.5 64 Z "/>
    <path fill="#ffffff" d="M 330.5 69 L 331 70.5 L 329.5 73 L 329 71.5 L 330.5 69 Z "/>
    <path fill="#ffffff" d="M 220.5 77 L 222 80.5 L 221 80.5 L 220.5 77 Z "/>
    <path fill="#ffffff" d="M 151.5 81 L 152 85.5 L 151 85.5 L 151.5 81 Z "/>
    <path fill="#ffffff" d="M 207.5 82 L 208 87.5 L 207 87.5 L 207.5 82 Z "/>
    <path fill="#ffffff" d="M 223.5 86 L 224 90.5 L 223 90.5 L 223.5 86 Z "/>
    <path fill="#ffffff" d="M 152.5 88 L 153 92.5 L 152 92.5 L 152.5 88 Z "/>
    <path fill="#ffffff" d="M 208.5 89 L 209 95.5 L 208 95.5 L 208.5 89 Z "/>
    <path fill="#ffffff" d="M 153.5 96 L 154 100.5 L 153 100.5 L 153.5 96 Z "/>
    <path fill="#ffffff" d="M 341.5 97 L 344 100.5 L 342 99.5 L 341.5 97 Z "/>
    <path fill="#ffffff" d="M 209.5 98 L 210 103.5 L 209 103.5 L 209.5 98 Z "/>
    <path fill="#ffffff" d="M 154.5 106 L 155 115.5 L 154 115.5 L 154.5 106 Z "/>
    <path fill="#ffffff" d="M 347.5 108 L 349 111.5 L 348 111.5 L 347.5 108 Z "/>
    <path fill="#ffffff" d="M 374.5 114 L 389 114.5 L 374.5 115 L 374.5 114 Z "/>
    <path fill="#ffffff" d="M 363.5 115 L 368 115.5 L 363.5 116 L 363.5 115 Z "/>
    <path fill="#ffffff" d="M 355.5 116 L 360 116.5 L 355.5 117 L 355.5 116 Z "/>
    <path fill="#ffffff" d="M 285.5 128 L 291 129.5 Q 289.8 132.3 288.5 130 Q 283.4 131.3 285.5 128 Z "/>
    <path fill="#ffffff" d="M 154.5 133 L 155 141.5 L 154 141.5 L 154.5 133 Z "/>
    <path fill="#ffffff" d="M 404.5 134 L 405 139.5 L 404 139.5 L 404.5 134 Z "/>
    <path fill="#ffffff" d="M 403.5 154 L 404 156.5 L 402.5 159 L 402 157.5 L 403.5 154 Z "/>
    <path fill="#ffffff" d="M 372.5 168 L 381 168.5 L 372.5 169 L 372.5 168 Z "/>
    <path fill="#ffffff" d="M 365.5 169 L 370 169.5 L 365.5 170 L 365.5 169 Z "/>
    <path fill="#ffffff" d="M 356.5 171 L 359 171.5 L 356 172.5 L 361 176.5 L 358.5 175 L 355 172.5 L 356.5 171 Z "/>
    <path fill="#ffffff" d="M 127.5 190 L 126 192.5 L 124.5 195 L 125 193.5 L 127.5 190 Z "/>
    <path fill="#ffffff" d="M 117.5 207 L 118 208.5 L 116.5 211 L 116 209.5 L 117.5 207 Z "/>
    <path fill="#ffffff" d="M 113.5 218 L 114 220.5 L 112.5 224 L 112 221.5 L 113.5 218 Z "/>
    <path fill="#ffffff" d="M 390.5 223 L 391 227.5 L 390 227.5 L 390.5 223 Z "/>
    <path fill="#ffffff" d="M 109.5 236 L 110 241.5 L 109 241.5 L 109.5 236 Z "/>
    <path fill="#ffffff" d="M 390.5 236 L 391 240.5 L 390 240.5 L 390.5 236 Z "/>
    <path fill="#ffffff" d="M 108.5 245 L 109 262.5 L 108 262.5 L 108.5 245 Z "/>
    <path fill="#ffffff" d="M 387.5 248 L 388 249.5 L 386 253.5 L 386.5 255 L 385 252.5 L 387.5 248 Z "/>
    <path fill="#ffffff" d="M 388.5 258 L 391 261.5 L 389 260.5 L 388.5 258 Z "/>
    <path fill="#ffffff" d="M 109.5 266 L 110 270.5 L 109 270.5 L 109.5 266 Z "/>
    <path fill="#ffffff" d="M 394.5 269 L 396 272.5 L 395 272.5 L 394.5 269 Z "/>
    <path fill="#ffffff" d="M 111.5 280 L 114 287.5 L 113 287.5 L 111.5 280 Z "/>
    <path fill="#ffffff" d="M 398.5 280 L 400 285.5 L 399 285.5 L 398.5 280 Z "/>
    <path fill="#ffffff" d="M 402.5 298 L 403 302.5 L 402 302.5 L 402.5 298 Z "/>
    <path fill="#ffffff" d="M 403.5 305 L 404 331.5 L 403 331.5 L 403.5 305 Z "/>
    <path fill="#ffffff" d="M 122.5 306 Q 127 307 126 313.5 L 125 313.5 L 125 309.5 L 122.5 306 Z "/>
    <path fill="#ffffff" d="M 402.5 334 L 403 339.5 L 402 339.5 L 402.5 334 Z "/>
    <path fill="#ffffff" d="M 134.5 344 L 136 347.5 L 135 347.5 L 134.5 344 Z "/>
    <path fill="#ffffff" d="M 141.5 359 L 144 362.5 L 142 361.5 L 141.5 359 Z "/>
    <path fill="#ffffff" d="M 145.5 366 L 149 370.5 L 147 369.5 L 145.5 366 Z "/>
    <path fill="#ffffff" d="M 149.5 372 L 154 377.5 L 151 375.5 L 149.5 372 Z "/>
    <path fill="#ffffff" d="M 394.5 376 L 395 378.5 L 393.5 382 L 393 379.5 L 394.5 376 Z "/>
    <path fill="#ffffff" d="M 390.5 389 L 391 391.5 L 389.5 394 L 389 392.5 L 390.5 389 Z "/>
    <path fill="#ffffff" d="M 386.5 402 L 387 403.5 L 385.5 406 L 385 404.5 L 386.5 402 Z "/>
    <path fill="#ffffff" d="M 382.5 412 L 383 413.5 L 380.5 418 L 380 416.5 L 382.5 412 Z "/>
    <path fill="#ffffff" d="M 378.5 421 L 379 422.5 L 370.5 437 L 371 435.5 L 378.5 421 Z "/>
    <path fill="#ffffff" d="M 369.5 438 L 369 439.5 L 367.5 442 L 368 440.5 L 369.5 438 Z "/>
    <path fill="#ffffff" d="M 234.5 450 L 239 453.5 L 237.5 453 L 234.5 450 Z "/>
    <path fill="#ffffff" d="M 242.5 455 L 246 457.5 L 244.5 457 L 242.5 455 Z "/>
    <path fill="#ffffff" d="M 249.5 459 L 253 461.5 L 251.5 461 L 249.5 459 Z "/>
    <path fill="#ffffff" d="M 256.5 463 L 262 465.5 L 260.5 466 L 256.5 464 L 256.5 463 Z "/>
    <path fill="#ffffff" d="M 270.5 469 L 274 470.5 L 272.5 471 L 270.5 469 Z "/>
    <path fill="#ffffff" d="M 279.5 472 L 284 473.5 L 281.5 474 L 279.5 472 Z "/>
    <path fill="#ffffff" d="M 331.5 473 L 333 473.5 L 329.5 475 L 329.5 474 L 331.5 473 Z "/>
    <path fill="#ffffff" d="M 296.5 476 L 301 476.5 L 296.5 477 L 296.5 476 Z "/>
    <path fill="#ffffff" d="M 304.5 477 L 317 477.5 L 304.5 478 L 304.5 477 Z "/>
    <path fill="#ff6b6b" d="M 170.5 170 Q 179.2 168.3 182 172.5 L 182.5 174 Q 184.3 171.2 186 175.5 L 187.5 179 L 188.5 178 L 192 181.5 L 192.5 183 L 194.5 183 Q 201.9 185.6 206 191.5 L 207 193.5 L 207 195.5 L 207.5 197 L 209 196.5 L 210 200.5 L 209 203.5 L 210 205.5 L 209 208.5 L 210 212.5 L 209 212.5 L 208.5 211 L 208 213.5 L 209 216 L 207 216.5 L 208 218.5 L 206 218.5 L 207 220.5 L 203.5 226 L 202 225.5 Q 202.8 231.3 198.5 232 Q 196.3 231.3 197 233.5 L 195 233.5 L 189.5 241 Q 186.2 239.9 187 242.5 L 178.5 249 L 176.5 248 L 176.5 250 L 175 249.5 L 173.5 252 L 171.5 253 Q 170.3 250.7 169 253.5 Q 169.9 256.5 165.5 255 L 164.5 258 L 154.5 265 L 153 264.5 L 151.5 267 L 149 268.5 L 139.5 280 L 138 280.5 L 139 281.5 L 136 284.5 L 135 288 L 133 288.5 L 133 290.5 L 131.5 293 L 130 292.5 L 131 294.5 L 128.5 295 L 126 293.5 L 124 288.5 L 124.5 287 L 123 286.5 L 124 283.5 L 122 283.5 L 123 281.5 L 121 281.5 L 122 277 Q 118 278.4 120 271.5 L 119 266.5 Q 121.5 265 118 263.5 L 119 251.5 Q 116.2 249.8 118 243.5 L 120 241.5 L 119 238.5 Q 117.5 234.1 120.5 235 L 120 233.5 Q 119.3 230.9 122 232 L 122 229.5 L 121 229.5 L 120.5 231 L 120 229.5 Q 123.5 228 121 226.5 L 122.5 222 L 124 222.5 L 123 219.5 L 125 219.5 L 124 216.5 L 125 214 L 127 213.5 L 126 211.5 L 128 211.5 L 127 209.5 L 129 208.5 L 128.5 207 L 130 206.5 L 129.5 205 L 131 205.5 L 130 203.5 L 133 201.5 L 132.5 200 L 134 200.5 L 133 198.5 L 135 198.5 L 134 196.5 L 143.5 186 Q 144.8 188.3 146 185.5 Q 145.2 182.5 149 184 L 149 181.5 L 164.5 172 L 167.5 173 L 167.5 171 L 170.5 172 L 170.5 170 Z "/>
    <path fill="#ff6b6b" d="M 339.5 177 L 342.5 178 L 344.5 178 L 353 182.5 L 353.5 184 L 354.5 183 L 359 187.5 L 360 191 Q 364.7 190.3 366 194.5 Q 363.5 196 367 197.5 L 367.5 199 Q 368.8 196.8 370 199.5 L 373 204.5 L 372.5 206 L 374 206.5 L 373.5 208 Q 375.8 207.3 375 209.5 L 375.5 212 L 377 212.5 L 376.5 214 Q 379.1 213.2 378 216.5 L 380 220.5 L 379 221.5 L 381 223.5 L 380 225.5 L 380.5 228 Q 383.9 227.1 382 232.5 L 380 236.5 L 381 239.5 L 379 239.5 L 380 242.5 L 379 245 L 377 245.5 Q 379.8 247.3 375.5 249 L 373 249 Q 374.3 252 370.5 251 Q 364.7 254.7 353.5 253 L 349 252 L 348.5 250 L 346 251 L 345.5 249 L 343.5 250 L 339 248 L 338.5 246 L 336.5 246 Q 334.3 246.8 335 244.5 L 332 243.5 L 331.5 242 Q 330.3 244.3 329 241.5 L 327.5 239 L 326.5 240 L 322.5 236 L 315 229.5 L 313 224 L 309 222.5 L 309.5 221 L 307 219.5 L 309 216.5 L 308 214.5 L 309 212 Q 311.7 213.1 311 210.5 L 310.5 209 L 313 207.5 L 312 205.5 L 313 203 L 315 202.5 L 314.5 201 L 316 200.5 L 315.5 199 L 317 198.5 Q 314.5 197 318 195.5 L 319.5 193 Q 322.8 194.1 322 191.5 L 324 188 L 327 186.5 L 329.5 183 Q 332.8 184.1 332 181.5 L 337.5 178 L 339 178.5 L 339.5 177 Z "/>
    <path fill="#ff6b6b" d="M 231.5 211 L 236.5 213 L 253.5 228 L 265.5 233 L 279.5 236 L 283.5 235 L 285.5 236 L 289.5 235 L 291.5 236 L 294 235 L 296 240.5 L 295 241.5 L 297 243.5 L 296 244.5 Q 299.1 246.3 297.5 248 L 299 248.5 L 298 250.5 L 300 250.5 L 299 253 Q 302 251.8 301 255.5 L 303 263.5 L 302 267 L 304 267.5 L 304 280 L 302 280.5 L 303 285.5 L 300 293.5 L 301 295.5 L 299 295.5 L 300 297.5 L 294 301.5 Q 296.3 302.8 293.5 304 L 292 303.5 L 290.5 306 L 286.5 308 L 285 307.5 Q 285.8 310.1 282.5 309 L 280.5 308 Q 278.8 311.8 271.5 310 L 268 309 Q 269.3 312 265.5 311 L 264 310.5 Q 264.8 312.8 262.5 312 L 260 312.5 L 258.5 315 L 253 319.5 L 253.5 326 L 255.5 325 L 258.5 327 L 260.5 324 L 262 324.5 L 264.5 321 L 266 321.5 L 266.5 320 Q 268 322.5 269.5 319 L 272 319.5 L 269 320.5 L 271.5 322 L 273 321.5 L 271 327 L 269 327.5 L 269.5 329 L 268 329.5 L 269 330.5 L 265.5 334 L 261.5 336 L 260 335.5 L 256 341.5 L 258 342 Q 256.9 344.7 259.5 344 L 262.5 346 L 264.5 344 L 272 342 Q 270.9 339.3 273.5 340 L 276.5 335 L 278 334.5 L 278 332.5 L 279 329 L 281 328.5 L 280.5 327 L 282 326.5 L 282 324.5 Q 281.3 322.3 283.5 323 L 284 320.5 L 286.5 317 L 291.5 315 L 293.5 316 L 296 315 Q 295.3 318.4 298 319.5 L 298 329.5 L 297 333 Q 300.3 331.7 299 336.5 L 298 339.5 L 299 339.5 L 299.5 338 L 301 342.5 Q 298.5 344 302 345.5 L 303 347.5 L 302 348.5 Q 305.1 350.3 303.5 352 L 305 352.5 L 304.5 354 Q 306.8 353.3 306 355.5 L 312.5 363 Q 315.8 364.1 315 361.5 Q 318 360.5 317 355.5 L 314 350.5 L 314.5 349 L 313 348.5 L 313.5 347 Q 311.3 347.8 312 345.5 L 310 341.5 L 308 334.5 L 309 332 Q 305.7 333.3 307 328.5 L 308 327.5 L 308 317.5 L 308 315.5 L 307 309 L 309 308.5 Q 306.8 307.3 308 302.5 Q 311.5 301 309 299.5 Q 308.3 297.3 310.5 298 L 310.5 296 L 312.5 295 L 313.5 298 Q 317.3 296.8 316 300.5 Q 318 298.8 320 302.5 L 319.5 304 L 321.5 305 Q 322.8 302.8 324 305.5 L 324.5 307 L 326 306.5 L 327.5 309 L 330 310.5 L 329 312.5 L 329 314.5 L 329.5 320 L 330.5 316 L 331 324.5 L 333 327.5 L 332.5 329 L 340.5 333 L 343 332 Q 341.9 329.3 344.5 330 L 344 328.5 L 345 326.5 L 343 326 L 341.5 323 L 340 322.5 L 341 319.5 L 339 316.5 L 338 308.5 L 339 306.5 L 337 306.5 L 338 304.5 L 336 304.5 L 336.5 303 L 329 297.5 L 328.5 296 Q 327.3 298.3 326 295.5 L 326 294 Q 322.3 295.5 323 292.5 L 320.5 289 Q 318.3 289.8 319 287.5 L 318.5 285 L 317 284.5 L 317.5 283 L 316 282.5 L 316.5 281 L 315 280.5 L 316 278.5 L 315 276 Q 312.3 277.1 313 274.5 L 313 272.5 L 314 267.5 L 312 267.5 Q 310.5 262 313 260.5 L 311 256.5 Q 313.5 255 310 253.5 L 308 247.5 L 308.5 246 L 307 245.5 L 307.5 244 L 306 243.5 Q 308.5 242 305 240.5 L 306.5 236 L 307 238 L 311 238 L 311 239.5 L 314 240.5 Q 311.2 242.3 315.5 244 Q 317.3 241.3 319 245.5 L 320.5 248 L 321.5 247 L 324.5 250 L 332 254.5 L 332.5 256 L 334 255.5 L 333.5 257 L 335.5 256 L 336.5 258 L 339 257 L 339.5 259 L 343.5 259 Q 347.8 262 355 261 L 355.5 263 L 359.5 263 Q 365.8 264.8 367.5 262 L 369 262.5 Q 368.2 259.9 371.5 261 L 373 261.5 Q 372.1 258.5 376.5 260 L 381 263.5 L 382 265.5 L 381.5 267 Q 383.8 266.3 383 268.5 L 383.5 271 Q 386.1 270.2 385 273.5 L 385.5 276 Q 387.8 275.3 387 277.5 L 388 279.5 L 387.5 281 Q 389.8 280.3 389 282.5 L 388.5 284 Q 390.8 283.3 390 285.5 L 389 287.5 L 391 287.5 L 390 291.5 L 392 291.5 L 391 295.5 L 393 299.5 L 392 301.5 L 392.5 304 L 394 304.5 L 394 313.5 L 394 315.5 Q 395.3 320.3 393 321.5 L 394 322.5 L 394 332.5 L 392 332.5 L 393 339.5 L 391 339.5 L 392 341.5 L 391 344.5 L 392 347.5 L 390 347.5 L 391 353 L 389 353.5 L 390 357.5 Q 386.5 359 389 360.5 Q 389.8 362.8 387.5 362 L 388 363.5 L 388 366 Q 385.3 364.9 386 367.5 L 387 369.5 L 386 374 L 384 374.5 L 385 376.5 Q 381.5 378 384 379.5 L 382.5 385 L 381 384.5 L 382 386.5 L 380 387 L 381 389.5 L 379 390.5 L 379 392.5 Q 380.5 396.9 377.5 396 L 378 397.5 Q 378.8 399.8 376.5 399 L 377 400.5 Q 377.8 402.8 375.5 402 L 375.5 404 L 374 404.5 L 375 407 L 373 407.5 L 374 409.5 L 372 414 L 370 414.5 L 370.5 416 L 369 416.5 L 369 418.5 Q 369.8 420.8 367.5 420 L 367 422.5 Q 367.8 424.8 365.5 424 L 365.5 426 L 364 426.5 L 364 428.5 Q 364.8 430.8 362.5 430 L 362.5 432 Q 359.9 431.2 361 434.5 L 358.5 438 L 357 437.5 L 356 439.5 Q 358.2 440.8 355.5 442 Q 352.9 441.2 354 444.5 L 350 447 Q 350.8 451.7 346.5 453 L 344 454.5 Q 344.8 456.8 342.5 456 Q 341.4 458.8 338 458 L 336.5 461 L 335 460.5 Q 335.8 462.8 333.5 462 L 328.5 465 L 326.5 464 L 326.5 466 L 324.5 465 L 320.5 467 L 317.5 466 L 315.5 468 L 302.5 468 L 299.5 466 L 295 467 Q 296.3 464 292.5 465 L 290 466 L 289.5 464 L 285.5 465 Q 283.5 462.2 279 463 L 278.5 461 L 276.5 462 L 276.5 460 L 273.5 461 L 271 460 L 270.5 458 L 268.5 458 Q 266.3 458.8 267 456.5 L 265.5 457 L 256 453 L 255.5 451 Q 254 453.5 252.5 450 Q 250.3 450.8 251 448.5 L 248.5 448 L 241 443.5 L 240.5 442 Q 239.3 444.3 238 441.5 L 237.5 440 Q 236 442.5 234.5 439 L 229 435.5 L 228.5 434 Q 227.3 436.3 226 433.5 L 224.5 431 L 223 431.5 Q 223.8 428.9 220.5 430 L 211 421.5 L 210.5 420 Q 209.3 422.3 208 419.5 L 206.5 417 L 205.5 418 L 201 413.5 Q 201.8 410.9 198.5 412 L 190 403.5 L 190 402 L 185 399.5 Q 187.8 397.7 183.5 396 Q 182.2 398.2 181 395.5 Q 183.8 393.8 179.5 392 Q 177.3 392.8 178 390.5 L 172 385.5 Q 173.1 382.2 170.5 383 L 163 374.5 L 163.5 373 L 159 369.5 L 159.5 368 L 157 366.5 L 157.5 365 L 155 363.5 L 155.5 362 L 154 361.5 L 154.5 360 L 152 358.5 L 152.5 357 L 151 356.5 L 152 353.5 L 151 353.5 L 150.5 355 L 150 352 Q 147.3 353.1 148 350.5 L 145 345.5 L 145.5 344 Q 142.9 344.8 144 341.5 L 142 337.5 L 142.5 336 L 141 335.5 L 142 333.5 L 140 333.5 L 141 330 Q 138 331.3 139 327.5 L 138 325.5 L 139 322.5 L 137 322.5 L 138 318.5 L 136 318.5 L 137 312 L 135 311.5 Q 137.2 310.2 136 305.5 L 138 303.5 L 137.5 302 L 139 302.5 L 138 300.5 L 140 299.5 L 139.5 298 L 141 297.5 L 140.5 296 L 142 295.5 L 142 293.5 L 145.5 288 L 147 287.5 Q 144.8 286.2 147.5 285 L 150 283.5 L 149 282.5 L 153.5 278 L 156 276.5 L 159.5 272 L 161 272.5 L 163.5 269 L 167.5 266 L 169 266.5 L 170.5 264 L 172 264.5 L 173.5 262 L 175.5 261 L 177 261.5 L 177.5 260 Q 178.8 262.3 180 259.5 Q 179.3 257.3 181.5 258 L 186 255.5 L 186 254 Q 189.7 255.5 189 252.5 L 193 250.5 L 195.5 247 L 209 235.5 Q 206.8 234.3 209.5 233 Q 212.1 233.8 211 230.5 L 214 228.5 L 213.5 227 L 215 226.5 L 214.5 225 L 216 225.5 L 215 223.5 L 216.5 221 L 218 221.5 L 217 218.5 L 219 217.5 L 218 215 L 222.5 213 L 224.5 214 L 228.5 212 L 231 213 L 231.5 211 Z "/>
    <path fill="#9775fa" d="M 279.5 45 L 291 47 L 291 56.5 L 289 64.5 L 289 75.5 Q 290 80 296.5 79 L 303 71.5 L 312 53 Q 321.1 52.2 325 57.5 L 319 71.5 L 317 80.5 L 319 86.5 L 335 104.5 L 341 120 L 305.5 129 Q 300.6 122.9 292.5 120 L 284.5 119 Q 266.1 122.1 257 134.5 L 250 150.5 L 250 167.5 L 252 176.5 Q 245.5 190.5 234.5 200 Q 229.8 203.8 221.5 204 L 219 201.5 L 215 188.5 L 203 176.5 L 203 149.5 L 209 128.5 Q 215.5 114 225.5 103 Q 227.8 103.8 227 101.5 Q 234.9 97.9 233 84.5 L 225 62.5 Q 229.8 54.9 241 55 Q 245.6 71.2 257.5 81 L 261.5 82 L 267 80 L 272 69.5 L 275 48.5 L 277.5 46 L 279.5 45 Z "/>
    <path fill="#9775fa" d="M 179.5 74 L 192.5 74 L 197 77.5 L 199 95.5 L 200 96.5 L 200 107.5 L 201 108.5 L 201 126.5 L 195 143.5 L 194 160.5 Q 191.8 161.8 193 166.5 L 191.5 168 L 179.5 161 L 169.5 161 L 161 163 L 163 151.5 L 163 144.5 L 164 143.5 L 165 121.5 L 164 120.5 L 164 102.5 L 162 92.5 L 162 81.5 L 165.5 78 L 179.5 74 Z "/>
    <path fill="#9775fa" d="M 372.5 124 L 388.5 124 L 392 127.5 L 395 135.5 L 396 144.5 Q 393.3 146.3 395 152.5 L 391.5 158 L 378.5 158 L 377.5 159 L 369.5 159 L 353.5 162 Q 332.2 168.1 318 180 L 304 200.5 L 297 219.5 L 295 233 L 273.5 233 L 260.5 229 Q 246.6 222.9 238 211.5 L 237 208 L 249 198.5 L 259 183.5 L 261 178.5 L 261 172.5 L 259 167.5 L 259 150.5 Q 262.4 139.9 270.5 134 L 283.5 139 L 295.5 140 L 296.5 139 L 308.5 138 L 340.5 129 L 362.5 125 L 371.5 125 L 372.5 124 Z "/>
    <path fill="#f783ac" d="M 186.5 176 L 190 180.5 L 187 178.5 L 186.5 176 Z "/>
    <path fill="#f783ac" d="M 359.5 188 L 361.5 191 Q 359.3 191.8 360 189.5 L 359.5 188 Z "/>
    <path fill="#f783ac" d="M 323.5 189 L 322 191.5 Q 322.8 193.8 320.5 193 L 323.5 189 Z "/>
    <path fill="#f783ac" d="M 205.5 193 L 208 196.5 L 207 196.5 L 205.5 193 Z "/>
    <path fill="#f783ac" d="M 363.5 193 L 369 199.5 L 367 198.5 L 363.5 193 Z "/>
    <path fill="#f783ac" d="M 134.5 197 L 135 198.5 L 131.5 203 L 133 200.5 L 134.5 197 Z "/>
    <path fill="#f783ac" d="M 313.5 205 L 313 206.5 L 311.5 209 L 311 207.5 L 313.5 205 Z "/>
    <path fill="#f783ac" d="M 209.5 208 L 210 210.5 L 208.5 214 L 208 211.5 L 209.5 208 Z "/>
    <path fill="#f783ac" d="M 236.5 209 L 248.5 222 Q 258.6 229.9 273.5 233 L 295 233 L 294.5 238 L 294 235 L 290.5 236 L 286.5 235 L 284.5 236 L 280.5 235 L 278.5 236 L 265.5 233 L 253.5 228 L 236.5 213 L 232 211.5 L 236.5 209 Z "/>
    <path fill="#f783ac" d="M 216.5 223 L 216 224.5 L 214.5 227 L 215 225.5 L 216.5 223 Z "/>
    <path fill="#f783ac" d="M 311.5 224 Q 313.8 223.3 313 225.5 L 314.5 228 L 311.5 224 Z "/>
    <path fill="#f783ac" d="M 305.5 233 L 309.5 238 Q 306.2 239.1 307 236.5 L 306 236.5 L 305.5 239 L 304 234.5 L 305.5 233 Z "/>
    <path fill="#f783ac" d="M 311.5 239 L 317 245.5 L 316 245.5 L 311.5 239 Z "/>
    <path fill="#f783ac" d="M 298.5 249 L 300 252.5 L 299 252.5 L 298.5 249 Z "/>
    <path fill="#f783ac" d="M 118.5 251 L 119 256.5 L 118 256.5 L 118.5 251 Z "/>
    <path fill="#f783ac" d="M 359.5 262 L 367 262.5 L 359.5 263 L 359.5 262 Z "/>
    <path fill="#f783ac" d="M 314.5 276 L 316 279.5 L 315 279.5 L 314.5 276 Z "/>
    <path fill="#f783ac" d="M 122.5 281 L 124 285.5 L 123 285.5 L 122.5 281 Z "/>
    <path fill="#f783ac" d="M 130.5 292 L 131 293.5 L 128.5 297 L 128 295.5 L 130.5 292 Z "/>
    <path fill="#f783ac" d="M 318.5 302 L 323 305.5 L 320.5 304 L 318.5 302 Z "/>
    <path fill="#f783ac" d="M 336.5 303 L 339 307.5 L 338 307.5 L 336.5 303 Z "/>
    <path fill="#f783ac" d="M 296.5 313 L 297 317.5 L 296 317.5 Q 297.1 314.2 294.5 315 L 292.5 316 L 292.5 315 L 296.5 313 Z "/>
    <path fill="#f783ac" d="M 329.5 314 L 330 319.5 L 329 319.5 L 329.5 314 Z "/>
    <path fill="#f783ac" d="M 307.5 317 L 308 327.5 L 307 327.5 L 307.5 317 Z "/>
    <path fill="#f783ac" d="M 272.5 319 L 273 320.5 Q 271.8 323.3 270.5 321 L 269 320.5 L 272.5 319 Z "/>
    <path fill="#f783ac" d="M 358.5 436 L 358 437.5 L 355.5 441 L 357 438.5 L 358.5 436 Z "/>
  </g>
  <g id="line">
    <path fill="#1a1a1a" d="M 277.5 36 L 290.5 37 L 298 41.5 L 300 44.5 L 300.5 54 L 307.5 45 Q 310.5 42 317.5 43 Q 327.6 45.4 333 52.5 L 334 61.5 Q 328.3 69.3 327 81.5 L 333 86.5 L 344 101.5 L 351.5 118 L 368.5 115 L 390.5 115 L 398 119.5 L 404 133.5 L 405 148.5 L 401 161.5 L 395.5 167 L 392.5 168 L 372.5 168 L 356.5 171 L 355 172.5 L 367 181 L 379 196.5 L 387 211.5 Q 391 221.5 391 235.5 Q 388.7 236.8 390 241.5 L 385 253.5 L 394 268.5 L 401 290.5 L 402 302.5 L 403 303.5 L 403 333.5 L 402 334.5 L 401 349.5 Q 397.5 357.5 397 368.5 L 384 409.5 L 367 442.5 Q 359.3 454.8 348.5 464 Q 339 472 325.5 476 L 301.5 477 L 300.5 476 L 288.5 475 L 274.5 471 Q 255.3 464.2 239.5 454 Q 200.9 429.6 170 397.5 L 145 365.5 L 133 341.5 L 128 325.5 L 126 309.5 L 120 302.5 L 115 292.5 L 111 279.5 L 110 266.5 L 109 265.5 L 109 242.5 L 110 241.5 L 111 228.5 L 118 206.5 Q 126.7 187.7 141.5 175 L 149 169.5 L 152 160.5 L 154 142.5 L 155 141.5 L 155 106.5 L 154 105.5 L 152 80.5 L 155.5 74 L 168.5 67 L 188.5 64 L 197.5 66 L 203 69.5 L 206 74.5 L 209 103.5 L 210.5 107 L 223 92.5 L 224 86.5 L 216 66.5 L 216 59.5 L 220.5 53 L 233.5 46 L 243.5 46 L 249 50.5 L 259 71 Q 263.9 72.8 262 66.5 L 266 46.5 Q 267.3 40.8 271.5 38 L 277.5 36 Z M 280 45 L 278 46 L 275 49 L 272 70 L 267 80 L 262 82 L 258 81 Q 246 71 241 55 Q 230 55 225 63 L 233 85 Q 235 98 227 102 Q 228 104 226 103 Q 216 114 209 129 L 203 150 L 203 177 L 215 189 L 219 202 L 222 204 Q 230 204 235 200 Q 245 190 252 177 L 250 168 L 250 151 L 257 135 Q 266 122 285 119 L 293 120 Q 301 123 306 129 L 341 120 L 335 105 L 319 87 L 317 81 L 319 72 L 325 58 Q 321 52 312 53 L 303 72 L 297 79 Q 290 80 289 76 L 289 65 L 291 57 L 291 47 L 280 45 Z M 180 74 L 166 78 L 162 82 L 162 93 L 164 103 L 164 121 L 165 122 L 164 144 L 163 145 L 163 152 L 161 163 L 170 161 L 180 161 L 193 168 L 195 144 L 201 127 L 201 109 L 200 108 L 200 97 L 199 96 L 197 78 L 193 74 L 180 74 Z M 373 124 L 372 125 L 363 125 L 341 129 L 309 138 L 297 139 L 296 140 L 284 139 L 271 134 Q 262 140 259 151 L 259 168 L 261 173 L 261 179 L 259 184 L 249 199 L 234 211 L 219 213 Q 216 227 207 237 L 188 254 L 160 272 Q 143 286 135 309 Q 138 334 148 352 L 159 370 L 181 396 L 184 397 L 185 400 L 187 400 L 199 412 L 221 430 L 246 447 L 274 461 L 283 463 L 286 465 L 303 468 L 316 468 L 327 466 Q 336 463 343 456 L 346 454 L 360 437 L 374 410 L 386 374 L 391 354 L 393 334 L 394 333 L 394 305 L 393 304 L 392 292 Q 387 273 379 260 Q 372 259 368 262 L 356 262 L 342 259 L 333 255 L 316 243 L 314 241 L 312 239 L 306 233 L 304 235 Q 306 246 311 255 L 313 276 L 321 292 L 332 299 L 338 308 L 340 323 L 344 327 L 343 332 L 341 333 L 337 332 L 331 325 L 330 311 L 316 298 Q 313 299 314 297 L 310 294 L 307 309 L 307 332 Q 310 346 317 356 L 317 360 Q 316 363 312 362 L 306 356 L 300 342 L 298 333 Q 299 322 297 316 Q 299 314 297 313 L 287 317 L 275 338 Q 271 343 264 345 L 258 344 L 257 342 L 258 339 L 266 334 Q 272 329 273 319 Q 263 319 259 326 L 255 325 Q 252 324 253 320 L 265 311 L 285 309 L 294 304 L 301 296 L 304 280 L 303 261 L 295 239 Q 295 222 300 211 L 306 197 L 318 180 Q 332 168 354 162 L 370 159 L 378 159 L 379 158 L 392 158 L 395 153 Q 393 146 396 145 L 395 136 L 392 128 L 389 124 L 373 124 Z M 286 128 Q 283 131 289 130 Q 290 132 291 130 L 286 128 Z M 171 170 Q 154 175 144 186 L 134 197 L 126 212 L 120 230 L 119 243 L 118 244 L 118 264 L 119 265 L 120 277 L 124 290 L 128 296 Q 127 298 130 297 Q 134 285 143 276 L 158 262 L 190 241 L 205 225 L 210 213 L 210 200 L 206 192 Q 201 185 193 182 L 181 171 Q 177 169 171 170 Z M 340 177 L 330 183 L 316 198 L 307 218 Q 309 225 315 230 Q 329 247 354 253 L 366 253 L 375 250 L 380 243 L 382 234 L 382 229 L 379 217 L 366 195 L 352 181 L 344 177 L 340 177 Z "/>
  </g>
</svg>
