<svg xmlns="http://www.w3.org/2000/svg" width="512" height="512" viewBox="0 0 512 512">
  <g id="color">
    <path fill="#ffffff" d="M 249.5 36 L 256 36.5 L 249.5 37 L 249.5 36 Z "/>
    <path fill="#ffffff" d="M 258.5 36 L 263 36.5 L 258.5 37 L 258.5 36 Z "/>
    <path fill="#ffffff" d="M 272.5 39 L 276 40.5 L 274.5 41 L 272.5 39 Z "/>
    <path fill="#ffffff" d="M 215.5 60 L 215 61.5 L 213.5 65 L 213 63.5 L 215.5 60 Z "/>
    <path fill="#ffffff" d="M 297.5 62 L 299 65.5 L 298 65.5 L 297.5 62 Z "/>
    <path fill="#ffffff" d="M 251.5 68 Q 264.5 66.5 268 74.5 Q 270.7 77.8 270 84.5 L 266 92 L 260.5 95 L 251.5 95 L 244 89.5 Q 241.1 85.9 242 78.5 L 246.5 71 L 251.5 68 Z "/>
    <path fill="#ffffff" d="M 210.5 74 L 211 78.5 L 210 78.5 L 210.5 74 Z "/>
    <path fill="#ffffff" d="M 301.5 76 L 302 86.5 L 301 86.5 L 301.5 76 Z "/>
    <path fill="#ffffff" d="M 210.5 84 L 211 88.5 L 210 88.5 L 210.5 84 Z "/>
    <path fill="#ffffff" d="M 298.5 97 L 299 98.5 L 297.5 101 L 297 99.5 L 298.5 97 Z "/>
    <path fill="#ffffff" d="M 228.5 117 L 231 120.5 L 230 120.5 L 228.5 117 Z "/>
    <path fill="#ffffff" d="M 219.5 125 L 225 125.5 L 219.5 126 L 219.5 125 Z "/>
    <path fill="#ffffff" d="M 288.5 125 L 295 125.5 L 288.5 126 L 288.5 125 Z "/>
    <path fill="#ffffff" d="M 207.5 126 L 212 126.5 L 207.5 127 L 207.5 126 Z "/>
    <path fill="#ffffff" d="M 301.5 126 L 307 126.5 L 301.5 127 L 301.5 126 Z "/>
    <path fill="#ffffff" d="M 198.5 127 L 203 127.5 L 198.5 128 L 198.5 127 Z "/>
    <path fill="#ffffff" d="M 310.5 127 L 315 127.5 L 310.5 128 L 310.5 127 Z "/>
    <path fill="#ffffff" d="M 191.5 128 L 196 128.5 L 191.5 129 L 191.5 128 Z "/>
    <path fill="#ffffff" d="M 316.5 128 L 321 128.5 L 316.5 129 L 316.5 128 Z "/>
    <path fill="#ffffff" d="M 165.5 133 L 167 133.5 L 159.5 139 L 163.5 134 L 165.5 133 Z "/>
    <path fill="#ffffff" d="M 253.5 148 Q 260.4 147.1 262 151.5 L 263 157.5 L 260.5 161 L 253.5 162 L 249 158.5 Q 247.5 149.5 253.5 148 Z "/>
    <path fill="#ffffff" d="M 155.5 150 L 156 160.5 L 155 160.5 L 155.5 150 Z "/>
    <path fill="#ffffff" d="M 190.5 181 L 195 181.5 L 190.5 182 L 190.5 181 Z "/>
    <path fill="#ffffff" d="M 196.5 182 L 202 182.5 L 196.5 183 L 196.5 182 Z "/>
    <path fill="#ffffff" d="M 310.5 182 L 316 182.5 L 310.5 183 L 310.5 182 Z "/>
    <path fill="#ffffff" d="M 203.5 183 L 210 183.5 L 203.5 184 L 203.5 183 Z "/>
    <path fill="#ffffff" d="M 302.5 183 L 309 183.5 L 302.5 184 L 302.5 183 Z "/>
    <path fill="#ffffff" d="M 214.5 184 L 220 184.5 L 214.5 185 L 214.5 184 Z "/>
    <path fill="#ffffff" d="M 291.5 184 L 298 184.5 L 291.5 185 L 291.5 184 Z "/>
    <path fill="#ffffff" d="M 228.5 185 L 230 185.5 L 230 198.5 L 229 198.5 L 229 186.5 L 228.5 185 Z "/>
    <path fill="#ffffff" d="M 282.5 188 L 283 201.5 L 282 201.5 L 282.5 188 Z "/>
    <path fill="#ffffff" d="M 228.5 202 L 229 215.5 L 228 215.5 L 228.5 202 Z "/>
    <path fill="#ffffff" d="M 283.5 207 L 284 220.5 L 283 220.5 L 283.5 207 Z "/>
    <path fill="#ffffff" d="M 227.5 222 L 228 233.5 L 227 233.5 L 227.5 222 Z "/>
    <path fill="#ffffff" d="M 284.5 226 L 285 238.5 L 284 238.5 L 284.5 226 Z "/>
    <path fill="#ffffff" d="M 226.5 246 L 227 256.5 L 226 256.5 L 226.5 246 Z "/>
    <path fill="#ffffff" d="M 285.5 247 L 286 258.5 L 285 258.5 L 285.5 247 Z "/>
    <path fill="#ffffff" d="M 225.5 266 L 226 281.5 L 225 281.5 L 225.5 266 Z "/>
    <path fill="#ffffff" d="M 75.5 269 L 72 273.5 L 70.5 276 L 71 274.5 L 75.5 269 Z "/>
    <path fill="#ffffff" d="M 286.5 271 L 287 282.5 L 286 282.5 L 286.5 271 Z "/>
    <path fill="#ffffff" d="M 439.5 273 L 443 278.5 L 442 278.5 L 439.5 273 Z "/>
    <path fill="#ffffff" d="M 400.5 283 L 397.5 287 L 395.5 288 L 396.5 286 L 400.5 283 Z "/>
    <path fill="#ffffff" d="M 224.5 286 L 225 302.5 L 224 302.5 L 224.5 286 Z "/>
    <path fill="#ffffff" d="M 287.5 292 L 288 304.5 L 287 304.5 L 287.5 292 Z "/>
    <path fill="#ffffff" d="M 446.5 292 L 447 297.5 L 446 297.5 L 446.5 292 Z "/>
    <path fill="#ffffff" d="M 447.5 300 L 448 304.5 L 447 304.5 L 447.5 300 Z "/>
    <path fill="#ffffff" d="M 223.5 306 L 224 317.5 L 223 317.5 L 223.5 306 Z "/>
    <path fill="#ffffff" d="M 63.5 308 L 64 314.5 L 63 314.5 L 63.5 308 Z "/>
    <path fill="#ffffff" d="M 288.5 308 L 289 323.5 L 288 323.5 L 288.5 308 Z "/>
    <path fill="#ffffff" d="M 368.5 308 L 367 310.5 L 365.5 314 L 365 312.5 L 368.5 308 Z "/>
    <path fill="#ffffff" d="M 448.5 310 L 449 315.5 L 448 315.5 L 448.5 310 Z "/>
    <path fill="#ffffff" d="M 62.5 322 L 63 329.5 L 62 329.5 L 62.5 322 Z "/>
    <path fill="#ffffff" d="M 366.5 324 L 370 328.5 L 367 326.5 L 366.5 324 Z "/>
    <path fill="#ffffff" d="M 222.5 326 L 223 336.5 L 222 336.5 L 222.5 326 Z "/>
    <path fill="#ffffff" d="M 289.5 330 L 290 340.5 L 289 340.5 L 289.5 330 Z "/>
    <path fill="#ffffff" d="M 130.5 334 L 133 337.5 L 130 335.5 L 130.5 334 Z "/>
    <path fill="#ffffff" d="M 448.5 337 L 449 341.5 L 448 341.5 L 448.5 337 Z "/>
    <path fill="#ffffff" d="M 63.5 338 L 64 342.5 L 63 342.5 L 63.5 338 Z "/>
    <path fill="#ffffff" d="M 65.5 350 L 68 354.5 L 66 353.5 L 65.5 350 Z "/>
    <path fill="#ffffff" d="M 419.5 354 L 421.5 357 Q 419.7 353.9 418 355.5 L 419.5 354 Z "/>
    <path fill="#ffffff" d="M 293.5 356 L 295 359.5 L 294 359.5 L 293.5 356 Z "/>
    <path fill="#ffffff" d="M 88.5 357 L 87.5 359 L 84.5 360 L 84.5 359 L 88.5 357 Z "/>
    <path fill="#ffffff" d="M 417.5 357 L 418 358.5 L 415.5 362 L 416 360.5 L 417.5 357 Z "/>
    <path fill="#ffffff" d="M 423.5 357 L 428 359.5 L 426.5 360 L 423.5 357 Z "/>
    <path fill="#ffffff" d="M 94.5 358 L 98 364.5 L 97 364.5 L 94.5 358 Z "/>
    <path fill="#ffffff" d="M 72.5 359 L 76 360.5 L 73.5 361 L 72.5 359 Z "/>
    <path fill="#ffffff" d="M 439.5 359 L 438.5 361 L 436 360.5 L 439.5 359 Z "/>
    <path fill="#ffffff" d="M 158.5 362 L 163 365.5 L 161.5 365 L 158.5 362 Z "/>
    <path fill="#ffffff" d="M 215.5 363 L 215 364.5 L 213.5 367 L 214 365.5 L 215.5 363 Z "/>
    <path fill="#ffffff" d="M 211.5 369 L 206.5 375 L 203.5 376 L 203.5 375 Q 209.3 373.7 211.5 369 Z "/>
    <path fill="#ffffff" d="M 411.5 369 L 411 370.5 L 409.5 373 L 410 371.5 L 411.5 369 Z "/>
    <path fill="#ffffff" d="M 177.5 373 L 184 375.5 L 182.5 376 L 177.5 374 L 177.5 373 Z "/>
    <path fill="#ffffff" d="M 333.5 373 L 335 373.5 L 331.5 375 L 331.5 374 L 333.5 373 Z "/>
    <path fill="#ffffff" d="M 104.5 376 L 108 380.5 L 105 378.5 L 104.5 376 Z "/>
    <path fill="#ffffff" d="M 254.5 413 Q 261.8 413.3 264 418.5 L 265 425.5 L 261.5 430 L 255.5 432 L 248 427.5 L 247 419.5 L 251.5 414 L 254.5 413 Z "/>
    <path fill="#ffffff" d="M 148.5 422 L 153 425.5 L 150.5 424 L 148.5 422 Z "/>
    <path fill="#ffffff" d="M 163.5 431 L 171 435.5 L 169.5 435 Q 163.9 434.2 163.5 431 Z "/>
    <path fill="#ffffff" d="M 346.5 432 L 345.5 434 L 341.5 436 L 342.5 434 L 346.5 432 Z "/>
    <path fill="#ffffff" d="M 174.5 437 L 180 439.5 L 178.5 440 L 174.5 438 L 174.5 437 Z "/>
    <path fill="#ffffff" d="M 336.5 437 L 335.5 439 L 332.5 440 L 332.5 439 L 336.5 437 Z "/>
    <path fill="#ffffff" d="M 324.5 442 L 326 442.5 L 322.5 444 L 322.5 443 L 324.5 442 Z "/>
    <path fill="#ffffff" d="M 188.5 443 L 192 444.5 L 190.5 445 L 188.5 443 Z "/>
    <path fill="#ffffff" d="M 319.5 444 L 321 444.5 L 317.5 446 L 317.5 445 L 319.5 444 Z "/>
    <path fill="#ffffff" d="M 309.5 448 L 311 448.5 L 307.5 450 L 307.5 449 L 309.5 448 Z "/>
    <path fill="#ffffff" d="M 210.5 452 L 216 454.5 L 214.5 455 L 210.5 453 L 210.5 452 Z "/>
    <path fill="#ffffff" d="M 230.5 462 L 234 464.5 L 232.5 464 L 230.5 462 Z "/>
    <path fill="#ffd43b" d="M 251.5 44 Q 274.9 44.1 285 57.5 Q 293.6 67 294 84.5 Q 290.8 103.3 277.5 112 Q 275.3 111.3 276 113.5 L 273 117.5 Q 273.6 122.9 272 125 L 240.5 125 L 239 123.5 L 239 118.5 L 236 112 L 228 106.5 Q 217.7 97.3 218 77.5 Q 221.3 60.8 232.5 52 Q 240.3 46.3 251.5 44 Z M 252 60 L 245 63 Q 236 68 234 80 Q 234 91 240 97 L 251 103 L 262 103 L 271 98 L 277 88 Q 279 76 275 71 Q 271 64 264 61 L 252 60 Z "/>
    <path fill="#ffd43b" d="M 245.5 132 L 287.5 133 L 288.5 134 L 317.5 136 L 342.5 141 L 346 143.5 Q 350 150 348 162.5 L 343.5 169 L 318.5 174 L 291.5 176 L 290.5 177 L 280.5 177 L 279.5 178 L 233.5 178 L 232.5 177 L 222.5 177 L 221.5 176 L 193.5 174 L 182.5 171 L 171.5 170 L 166 168 Q 162.1 161.3 164 147.5 L 168.5 141 Q 179.5 140.5 187.5 137 L 202.5 136 L 203.5 135 L 224.5 134 L 225.5 133 L 244.5 133 L 245.5 132 Z M 253 140 L 246 144 L 241 152 Q 240 161 244 165 L 252 170 Q 262 172 266 167 L 271 159 Q 272 151 269 148 Q 265 139 253 140 Z "/>
    <path fill="#9775fa" d="M 238 186 L 273.5 186 L 274 186.5 L 274 193.5 L 275 194.5 L 275 214.5 L 276 215.5 L 276 235.5 L 277 236.5 L 278 274.5 L 279 275.5 L 279 294.5 L 280 295.5 L 281 339.5 L 286 361.5 L 296 378 L 303.5 383 L 318.5 386 L 338.5 381 L 350.5 375 L 375 355.5 L 388 340.5 L 393 330.5 L 388.5 327 L 384.5 327 L 376.5 324 L 373 320.5 L 373 316.5 L 377.5 310 Q 400.9 295.9 420.5 278 Q 422.7 274.3 429.5 275 L 434 278.5 L 437 285.5 L 439 303.5 L 440 304.5 L 440 311.5 L 441 312.5 L 441 337.5 Q 438.5 339 440 344.5 L 436.5 352 L 432.5 353 Q 424.2 350.7 420.5 344 L 416.5 343 L 414 345.5 Q 407.7 362.7 398 376.5 L 376.5 402 Q 362.5 415.5 344.5 425 Q 322.1 436.6 296.5 445 L 275.5 456 L 259.5 469 L 253.5 469 L 227.5 451 L 181.5 432 L 160.5 421 Q 142 410 128 394.5 L 110 370.5 L 98 345.5 L 95.5 343 L 91.5 344 L 84.5 351 L 77.5 353 L 74 350.5 L 71 339.5 L 71 309.5 L 76 281.5 L 80.5 276 L 85.5 275 L 136 311 L 139 316.5 L 139 319.5 L 136.5 323 L 127.5 327 L 123.5 327 L 119 330.5 L 124 340.5 L 139.5 358 Q 153.4 371.1 171.5 380 L 187.5 385 L 196.5 386 L 208.5 383 L 220 372.5 L 228 354.5 L 230 344.5 L 230 335.5 L 231 334.5 L 233 269.5 L 234 268.5 L 234 249.5 L 235 248.5 L 237 192.5 L 238 186 Z M 252 406 L 246 409 L 242 413 L 239 422 L 240 429 L 242 433 L 252 439 Q 262 441 267 436 L 272 428 Q 274 416 269 412 L 261 406 L 252 406 Z "/>
  </g>
  <g id="line">
    <path fill="#1a1a1a" d="M 256.5 36 Q 280.8 38.2 292 53.5 L 300 69.5 Q 302.6 77.4 301 89.5 Q 297.3 106.8 285.5 116 L 281 119.5 L 281 125 L 287.5 125 L 288.5 126 L 309.5 127 L 316.5 129 L 340.5 132 Q 349 133.5 353 139.5 L 356 149.5 L 356 161.5 L 354 169.5 L 349.5 175 L 324.5 181 L 282 185 L 284 238.5 L 285 239.5 L 285 258.5 L 286 259.5 L 286 282.5 L 287 283.5 L 287 304.5 L 288 305.5 L 289 340.5 L 293 357.5 Q 296.8 368.8 305.5 375 L 309.5 377 L 325.5 377 Q 358.7 365.7 378 340.5 L 382 334.5 L 371.5 330 L 368 326.5 Q 364 323 365 314.5 L 371.5 305 L 397.5 287 L 415.5 272 Q 420 267.5 428.5 267 L 436.5 270 L 439 272.5 L 443 279.5 L 446 291.5 L 446 297.5 L 448 305.5 L 448 315.5 L 449 316.5 L 449 336.5 L 446 351.5 L 440.5 359 L 432.5 361 Q 423.9 359.6 419.5 354 Q 404.2 387.7 378.5 411 Q 361.8 425.7 340.5 436 L 302.5 451 L 282.5 461 L 262.5 476 L 252.5 477 L 247.5 475 Q 238.2 465.3 225.5 459 L 211.5 452 L 173.5 437 L 158.5 429 Q 137.6 416.9 122 399.5 Q 104.1 380.5 94 355 L 91.5 355 L 83.5 360 L 76.5 361 Q 70.8 359.8 68 355.5 L 64 345.5 Q 65.8 339.3 63 337.5 L 63 315.5 L 64 314.5 L 65 295.5 L 68 281.5 Q 70.5 273.5 76.5 269 L 85.5 267 L 93.5 270 Q 113.4 287.6 136.5 302 L 145 310.5 Q 147.7 313.8 147 320.5 L 141.5 329 L 130 334 L 139 347 L 160.5 365 L 179.5 375 Q 187.8 378.7 201.5 377 Q 208.7 375.2 212 369.5 L 219 356.5 L 223 336.5 L 223 318.5 L 224 317.5 L 225 282.5 L 226 281.5 L 226 257.5 L 227 256.5 L 227 234.5 L 228 233.5 L 228 216.5 L 229 215.5 L 230 185 L 210.5 184 L 209.5 183 L 202.5 183 L 201.5 182 L 175.5 179 Q 172.6 176.4 166.5 177 L 159 171.5 L 156 161.5 L 156 148.5 L 159 139.5 L 163.5 135 L 167.5 133 L 182.5 130 L 188.5 130 L 203.5 127 L 211.5 127 L 212.5 126 L 224.5 126 L 231 125 Q 232.5 118.7 228.5 117 L 220 109.5 Q 210.5 99 210 79.5 L 212 68.5 L 217 57.5 L 227.5 46 L 237.5 40 L 246.5 37 L 255.5 37 L 256.5 36 Z M 252 44 Q 240 46 233 52 Q 221 61 218 78 Q 218 97 228 107 L 236 112 L 239 119 L 239 124 L 241 125 L 272 125 Q 274 123 273 118 L 276 114 Q 275 111 278 112 Q 291 103 294 85 Q 294 67 285 58 Q 275 44 252 44 Z M 246 132 L 245 133 L 226 133 L 225 134 L 204 135 L 203 136 L 188 137 Q 180 141 169 141 L 164 148 Q 162 161 166 168 L 172 170 L 183 171 L 194 174 L 222 176 L 223 177 L 233 177 L 234 178 L 280 178 L 281 177 L 291 177 L 292 176 L 319 174 L 344 169 L 348 163 Q 350 150 346 144 L 343 141 L 318 136 L 289 134 L 288 133 L 246 132 Z M 238 186 L 237 193 L 235 249 L 234 250 L 234 269 L 233 270 L 231 335 L 230 336 L 230 345 L 228 355 L 220 373 L 209 383 L 197 386 L 188 385 L 172 380 Q 153 371 140 358 L 124 341 L 119 331 L 124 327 L 128 327 L 137 323 L 139 320 L 139 317 L 136 311 L 86 275 L 81 276 L 76 282 L 71 310 L 71 340 L 74 351 L 78 353 L 85 351 L 92 344 L 96 343 L 98 346 L 110 371 L 128 395 Q 142 410 161 421 L 182 432 L 228 451 L 254 469 L 260 469 L 276 456 L 297 445 Q 322 437 345 425 Q 362 415 377 402 L 398 377 Q 408 363 414 346 L 417 343 L 421 344 Q 424 351 433 353 L 437 352 L 440 345 Q 439 339 441 338 L 441 313 L 440 312 L 440 305 L 439 304 L 437 286 L 434 279 L 430 275 Q 423 274 421 278 Q 401 296 378 310 L 373 317 L 373 321 L 377 324 L 385 327 L 389 327 L 393 331 L 388 341 L 375 356 L 351 375 L 339 381 L 319 386 L 304 383 L 296 378 L 286 362 L 281 340 L 280 296 L 279 295 L 279 276 L 278 275 L 277 237 L 276 236 L 276 216 L 275 215 L 275 195 L 274 194 L 274 187 L 274 186 L 238 186 Z "/>
    <path fill="#1a1a1a" d="M 251.5 60 L 263.5 61 Q 271 64 275 70.5 Q 278.7 76.3 277 87.5 L 270.5 98 L 261.5 103 L 250.5 103 L 240 96.5 Q 233.7 91.3 234 79.5 Q 235.9 67.9 244.5 63 L 251.5 60 Z M 252 68 L 247 71 L 242 79 Q 241 86 244 90 L 252 95 L 261 95 L 266 92 L 270 85 Q 271 78 268 75 Q 265 66 252 68 Z "/>
    <path fill="#1a1a1a" d="M 252.5 140 Q 265.1 139.4 269 147.5 Q 272.2 150.8 271 158.5 L 265.5 167 Q 261.7 171.7 251.5 170 L 244 164.5 Q 239.8 160.7 241 151.5 L 245.5 144 L 252.5 140 Z M 254 148 Q 247 150 249 159 L 254 162 L 261 161 L 263 158 L 262 152 Q 260 147 254 148 Z "/>
    <path fill="#1a1a1a" d="M 251.5 406 L 260.5 406 L 269 411.5 Q 273.7 416.3 272 427.5 L 266.5 436 Q 262 440.5 251.5 439 L 242 432.5 L 240 428.5 L 239 421.5 L 242 412.5 L 245.5 409 L 251.5 406 Z M 255 413 L 252 414 L 247 420 L 248 428 L 256 432 L 262 430 L 265 426 L 264 419 Q 262 413 255 413 Z "/>
  </g>
</svg>
