<svg xmlns="http://www.w3.org/2000/svg" width="512" height="512" viewBox="0 0 512 512">
  <g id="color">
    <path fill="#ffffff" d="M 114.5 105 L 135 105.5 L 114.5 106 L 114.5 105 Z "/>
    <path fill="#ffffff" d="M 158.5 105 L 184 105.5 L 158.5 106 L 158.5 105 Z "/>
    <path fill="#ffffff" d="M 90.5 106 L 106 106.5 L 90.5 107 L 90.5 106 Z "/>
    <path fill="#ffffff" d="M 191.5 106 L 204 106.5 L 191.5 107 L 191.5 106 Z "/>
    <path fill="#ffffff" d="M 69.5 107 L 79 107.5 L 69.5 108 L 69.5 107 Z "/>
    <path fill="#ffffff" d="M 219.5 107 L 241 107.5 L 219.5 108 L 219.5 107 Z "/>
    <path fill="#ffffff" d="M 363.5 107 L 382 107.5 L 363.5 108 L 363.5 107 Z "/>
    <path fill="#ffffff" d="M 449.5 107 L 464 107.5 L 449.5 108 L 449.5 107 Z "/>
    <path fill="#ffffff" d="M 53.5 108 L 61 108.5 L 53.5 109 L 53.5 108 Z "/>
    <path fill="#ffffff" d="M 261.5 108 L 286 108.5 L 261.5 109 L 261.5 108 Z "/>
    <path fill="#ffffff" d="M 320.5 108 L 349 108.5 L 320.5 109 L 320.5 108 Z "/>
    <path fill="#ffffff" d="M 466.5 108 L 473 112.5 L 474 114.5 L 472 113.5 L 469.5 110 Q 465.7 109.7 466.5 108 Z "/>
    <path fill="#ffffff" d="M 46.5 109 L 51 109.5 L 46.5 110 L 46.5 109 Z "/>
    <path fill="#ffffff" d="M 37.5 118 L 38 178.5 L 37 178.5 L 37.5 118 Z "/>
    <path fill="#ffffff" d="M 475.5 127 L 476 142.5 L 475 142.5 L 475.5 127 Z "/>
    <path fill="#ffffff" d="M 476.5 152 L 477 180.5 L 476 180.5 L 476.5 152 Z "/>
    <path fill="#ffffff" d="M 475.5 194 L 476 209.5 L 475 209.5 L 475.5 194 Z "/>
    <path fill="#ffffff" d="M 36.5 197 L 37 218.5 L 36 218.5 L 36.5 197 Z "/>
    <path fill="#ffffff" d="M 248.5 200 Q 270.1 197.9 278 209.5 Q 284.9 217.3 286 230 L 283 231.5 Q 281.5 239.5 286.5 241 L 290 242.5 L 290 272.5 L 289 273.5 L 289 291.5 L 288 296 L 281 295 L 281 280.5 Q 287 276.5 288 267.5 Q 286.8 259.8 282.5 255 L 269.5 254 L 265 257.5 L 265 260.5 L 261 265.5 L 260 272 L 253.5 276 Q 249.9 273.1 242.5 274 L 233 279.5 L 231 285 Q 227 286.4 229 279.5 L 230 277 L 239 272.5 L 233.5 272 L 227 276.5 L 225 282.5 L 227.5 287 L 230 288.5 Q 231.5 294.5 228.5 296 L 224.5 297 L 223 295.5 L 223 281.5 L 222 280.5 L 222 242 Q 227.7 242.4 230 238.5 L 231 232.5 L 227.5 228 L 225 226.5 Q 227.6 212.1 237.5 205 L 248.5 200 Z M 253 221 L 249 223 L 245 228 L 243 237 Q 242 243 246 244 L 245 244 L 242 247 L 239 255 Q 238 264 240 269 L 243 270 L 246 268 L 250 271 Q 257 272 258 268 L 257 261 Q 255 258 250 259 L 247 261 L 248 253 Q 252 250 251 248 L 255 250 L 259 249 Q 262 247 262 243 L 265 241 L 263 226 Q 260 221 253 221 Z "/>
    <path fill="#ffffff" d="M 369.5 208 L 427.5 208 L 428.5 209 L 467 209 L 467 227.5 L 466 228.5 L 466 299.5 L 466 301.5 L 465.5 303 L 422.5 303 L 419.5 302 L 418.5 303 L 382.5 303 L 381.5 304 L 363.5 304 L 362.5 305 L 316.5 306 L 315 304.5 Q 315.8 298.4 314 296 L 310 295 L 309 246.5 L 308 240 L 313 236.5 Q 314 230 310.5 228 L 300 227 L 300 217.5 L 297 209 L 313.5 209 L 314.5 210 L 340.5 210 L 341.5 209 L 368.5 209 L 369.5 208 Z "/>
    <path fill="#ffffff" d="M 44 209 L 68.5 210 L 69.5 209 L 168.5 209 L 169.5 210 L 215 210.5 L 212 216.5 L 211 227 Q 203.5 226 200 229 L 198 234.5 L 200 239 L 204 241.5 L 203 245.5 L 202 295 L 198 296 Q 196.4 298.1 197 303.5 L 195.5 305 L 174.5 305 L 173.5 304 L 93.5 304 L 92.5 305 L 78.5 305 L 77.5 306 L 55.5 306 L 54.5 307 L 44 307 L 44 287.5 L 43 286.5 L 43 217.5 L 44 216.5 L 44 209 Z "/>
    <path fill="#ffffff" d="M 474.5 223 L 475 240.5 L 474 240.5 L 474.5 223 Z "/>
    <path fill="#ffffff" d="M 35.5 224 L 36 280.5 L 35 280.5 L 35.5 224 Z "/>
    <path fill="#ffffff" d="M 474.5 281 L 475 299.5 L 474 299.5 L 474.5 281 Z "/>
    <path fill="#ffffff" d="M 36.5 286 L 37 301.5 L 36 301.5 L 36.5 286 Z "/>
    <path fill="#ffffff" d="M 259.5 292 Q 263.7 290.9 262 295 L 257 295 L 257 293 L 259.5 292 Z "/>
    <path fill="#ffffff" d="M 243.5 293 L 246 294.5 L 242 296 L 243.5 293 Z "/>
    <path fill="#ffffff" d="M 37.5 310 L 38 327.5 L 37 327.5 L 37.5 310 Z "/>
    <path fill="#ffffff" d="M 475.5 313 L 476 328.5 L 475 328.5 L 475.5 313 Z "/>
    <path fill="#ffffff" d="M 476.5 337 L 477 367.5 L 476 367.5 L 476.5 337 Z "/>
    <path fill="#ffffff" d="M 37.5 353 L 38 388.5 L 37 388.5 L 37.5 353 Z "/>
    <path fill="#ffffff" d="M 475.5 377 L 476 386.5 L 475 386.5 L 475.5 377 Z "/>
    <path fill="#ffffff" d="M 473.5 395 L 474 396.5 L 471 398.5 L 473.5 395 Z "/>
    <path fill="#ffffff" d="M 45.5 402 L 49 403.5 L 46.5 404 L 45.5 402 Z "/>
    <path fill="#ffffff" d="M 119.5 403 L 150 403.5 L 119.5 404 L 119.5 403 Z "/>
    <path fill="#ffffff" d="M 175.5 403 L 201 403.5 L 175.5 404 L 175.5 403 Z "/>
    <path fill="#ffffff" d="M 417.5 403 L 461 403.5 L 417.5 404 L 417.5 403 Z "/>
    <path fill="#ffffff" d="M 50.5 404 L 111 404.5 L 50.5 405 L 50.5 404 Z "/>
    <path fill="#ffffff" d="M 211.5 404 L 228 404.5 L 211.5 405 L 211.5 404 Z "/>
    <path fill="#ffffff" d="M 402.5 404 L 412 404.5 L 402.5 405 L 402.5 404 Z "/>
    <path fill="#ffffff" d="M 244.5 405 L 260 405.5 L 244.5 406 L 244.5 405 Z "/>
    <path fill="#ffffff" d="M 384.5 405 L 393 405.5 L 384.5 406 L 384.5 405 Z "/>
    <path fill="#ffffff" d="M 281.5 406 L 301 406.5 L 281.5 407 L 281.5 406 Z "/>
    <path fill="#ffffff" d="M 357.5 406 L 373 406.5 L 357.5 407 L 357.5 406 Z "/>
    <path fill="#ffffff" d="M 315.5 407 L 346 407.5 L 315.5 408 L 315.5 407 Z "/>
    <path fill="#ffd43b" d="M 251.5 187 L 260.5 187 L 269.5 189 Q 281.1 193.4 288 202.5 L 295 217.5 L 296 227 L 290 227 L 290 223.5 Q 286.6 208.4 275.5 201 Q 267.4 194.6 252.5 195 L 243.5 197 L 235.5 201 L 229 207.5 L 225 213.5 L 222 225.5 L 220.5 227 L 216 227 L 216 219.5 Q 219.1 205.1 228.5 197 L 241.5 189 L 251.5 187 Z "/>
    <path fill="#ffd43b" d="M 252.5 224 Q 259.4 223.1 261 227.5 Q 262.5 231.9 259.5 231 Q 257.5 228 251.5 229 L 248 231 L 248 228.5 L 252.5 224 Z "/>
    <path fill="#ffd43b" d="M 204.5 231 L 224.5 231 L 227 233.5 L 225.5 237 L 217.5 238 L 216.5 237 L 205.5 237 L 203 236 Q 202 232.2 204.5 231 Z "/>
    <path fill="#ffd43b" d="M 289.5 231 L 307.5 231 L 309 232.5 Q 309.5 236.5 306.5 237 L 288.5 238 Q 285.5 237.5 286 233.5 L 289.5 231 Z "/>
    <path fill="#ffd43b" d="M 250.5 232 L 258.5 232 L 260 233.5 L 262 238.5 L 256.5 246 Q 250 247 249 242.5 L 246 237 L 249 235.5 Q 246.3 233.7 250.5 232 Z "/>
    <path fill="#ffd43b" d="M 207.5 241 L 217.5 241 L 219 242.5 L 219 250.5 L 218 251.5 L 218 281.5 L 219 282.5 L 219 295 Q 216.6 293.3 210.5 294 L 207.5 295 L 206 293.5 L 206 276.5 L 207 275.5 L 207 244.5 L 206 242.5 L 207.5 241 Z "/>
    <path fill="#ffd43b" d="M 294.5 241 L 304.5 241 L 305 241.5 L 305 280.5 Q 307.5 282 306 287.5 L 305 290.5 L 306 293.5 L 302.5 295 Q 301 292.5 295.5 294 Q 294.3 296.3 293 293.5 L 294 258.5 L 293 257.5 L 293 242.5 L 294.5 241 Z "/>
    <path fill="#ffd43b" d="M 245 244 L 248 245.5 L 251 249.5 L 246 253.5 L 244 259.5 L 244 264.5 L 246 267.5 L 242.5 270 L 240 269 L 241 266.5 L 242 252.5 L 245 244 Z "/>
    <path fill="#ffd43b" d="M 251.5 261 L 255 262 L 256 265.5 Q 255.3 268.8 250.5 268 Q 247.5 267.5 248 263.5 L 251.5 261 Z "/>
    <path fill="#ffd43b" d="M 214.5 298 Q 219.9 296.1 219 299.5 L 214.5 305 L 202.5 305 L 200 302.5 L 201.5 299 L 213.5 299 L 214.5 298 Z "/>
    <path fill="#ffd43b" d="M 293.5 298 L 311 299 L 311 304 L 309.5 304 L 308.5 305 L 297 305 L 293.5 298 Z "/>
    <path fill="#ffd43b" d="M 253.5 299 L 287.5 300 L 292 304.5 L 293 312.5 L 288.5 320 L 286.5 321 L 264.5 321 L 263.5 322 L 232.5 322 L 223.5 320 L 219 315.5 L 218 306.5 L 222.5 301 L 224.5 300 L 252.5 300 L 253.5 299 Z "/>
    <path fill="#ff6b6b" d="M 274.5 256 L 279.5 259 L 281 258.5 L 282 263 Q 285.7 261.6 284 267.5 L 284 269.5 Q 285.1 272.8 282.5 272 L 283 273.5 L 277.5 279 L 275.5 278 L 272.5 279 L 269.5 278 L 266 276.5 Q 268.3 275.3 265.5 274 L 264 273.5 L 265 271.5 L 263 271.5 L 264 267.5 L 264 265.5 Q 262.9 262.2 265.5 263 L 265 261.5 L 266.5 259 L 274.5 256 Z "/>
    <path fill="#ff6b6b" d="M 262.5 276 L 266.5 282 L 268 281.5 L 268.5 283 L 270 282.5 Q 269.3 284.8 271.5 284 L 274.5 283 L 277.5 284 L 277.5 282 L 279 284.5 L 277 287.5 L 278 291.5 L 277 293.5 L 277.5 295 L 274 294 Q 275 290.2 272.5 289 L 269.5 295 Q 264.7 296.7 266 292.5 L 263.5 288 L 261.5 289 L 258 286.5 L 259 284.5 L 259 282.5 L 258 279.5 L 259 277 L 262.5 276 Z "/>
    <path fill="#ff6b6b" d="M 244.5 278 L 253.5 279 L 255 280.5 L 255 284.5 L 254 286.5 L 254.5 288 L 251.5 287 L 249.5 287 L 245.5 287 L 242 289 L 241.5 291 L 240 290.5 L 238.5 293 L 236 294.5 L 236.5 296 Q 234.3 296.8 235 294.5 Q 232.3 293.8 233 289.5 L 233.5 287 Q 236.1 287.8 235 284.5 L 235.5 282 L 239 280.5 L 239.5 279 L 241.5 279 L 244.5 278 Z "/>
    <path fill="#51cf66" d="M 106.5 113 L 181.5 113 L 182.5 114 L 233.5 115 L 234.5 116 L 333.5 117 L 334.5 116 L 370.5 116 L 371.5 115 L 459.5 115 L 464.5 116 L 467 118.5 L 468 155.5 L 469 158.5 L 468 163.5 L 469 168.5 L 468 169.5 L 468 202 L 389.5 201 L 388.5 202 L 360.5 202 L 359.5 203 L 342.5 203 L 341.5 204 L 294.5 204 Q 290.7 195.8 283.5 191 L 268.5 184 L 254.5 182 L 253.5 183 L 242.5 184 L 231.5 189 L 220 199.5 L 216.5 205 L 205.5 203 L 204.5 204 L 173.5 204 L 172.5 203 L 89.5 203 L 88.5 204 L 44 205 L 45 138.5 L 44 137.5 Q 45.5 126 43 118.5 L 45.5 116 L 49.5 115 L 78.5 115 L 79.5 114 L 105.5 114 L 106.5 113 Z "/>
    <path fill="#51cf66" d="M 106.5 309 L 167.5 310 L 168.5 311 L 213.5 311 L 215 312.5 Q 215 321.5 221.5 324 L 229.5 326 L 285.5 326 Q 292.7 324.2 296 318.5 L 298 310 L 311.5 310 L 312.5 311 L 364.5 311 L 365.5 310 L 385.5 310 L 386.5 309 L 467 309 L 469 360.5 L 468 361.5 L 467 390.5 L 463.5 395 L 424.5 395 L 423.5 396 L 403.5 396 L 402.5 397 L 367.5 398 L 366.5 399 L 288.5 399 L 287.5 398 L 256.5 398 L 255.5 397 L 149.5 395 L 148.5 396 L 112.5 396 L 111.5 397 L 49.5 397 L 45 391.5 L 44 371.5 L 45 368.5 L 45 311.5 L 46.5 310 L 48.5 311 L 82.5 311 L 83.5 310 L 105.5 310 L 106.5 309 Z "/>
    <path fill="#f783ac" d="M 281.5 259 L 283 262.5 L 282 262.5 L 281.5 259 Z "/>
    <path fill="#f783ac" d="M 264.5 266 L 264 267.5 L 265 272.5 L 264 272.5 L 263 267.5 L 264.5 266 Z "/>
    <path fill="#f783ac" d="M 260.5 275 Q 263.1 274.3 262 277 Q 258.2 275.5 259 278.5 L 258 278.5 L 260.5 275 Z "/>
    <path fill="#f783ac" d="M 241.5 278 L 244 278.5 L 240.5 280 L 241.5 278 Z "/>
    <path fill="#f783ac" d="M 271.5 278 L 274.5 279 L 276 278.5 Q 276.9 281.5 272.5 280 L 271.5 278 Z "/>
    <path fill="#f783ac" d="M 235.5 283 L 235 284.5 L 234.5 287 L 234 284.5 L 235.5 283 Z "/>
    <path fill="#f783ac" d="M 254.5 286 L 253.5 288 L 251 287.5 L 254.5 286 Z "/>
    <path fill="#f783ac" d="M 248.5 291 Q 254.2 289.4 252 295 L 249 294.5 L 251 294 Q 252.3 291 248.5 292 L 248.5 291 Z "/>
  </g>
  <g id="line">
    <path fill="#1a1a1a" d="M 135.5 105 L 190.5 106 L 191.5 107 L 218.5 107 L 219.5 108 L 260.5 108 L 261.5 109 L 348.5 109 L 349.5 108 L 381.5 108 L 382.5 107 L 448.5 107 L 449.5 108 L 465.5 108 L 472 112.5 L 475 119.5 L 476 193.5 L 475 194.5 L 475 222.5 L 474 223.5 L 474 299.5 L 475 300.5 L 475 328.5 L 476 329.5 L 476 376.5 L 475 377.5 L 475 391.5 L 471 400 L 462.5 403 L 417.5 403 L 416.5 404 L 402.5 404 L 401.5 405 L 357.5 406 L 356.5 407 L 301.5 407 L 300.5 406 L 260.5 406 L 259.5 405 L 201.5 404 L 200.5 403 L 119.5 403 L 118.5 404 L 49.5 404 Q 43 402.5 40 397.5 L 38 392.5 L 38 310.5 L 37 309.5 L 37 286.5 L 36 285.5 L 36 219.5 L 37 218.5 L 37 179.5 L 38 178.5 L 38 116.5 L 42.5 111 L 51.5 109 L 60.5 109 L 61.5 108 L 105.5 107 L 106.5 106 L 134.5 106 L 135.5 105 Z M 107 113 L 106 114 L 80 114 L 79 115 L 50 115 L 46 116 L 43 119 Q 46 126 44 138 L 45 139 L 44 205 L 89 204 L 90 203 L 173 203 L 174 204 L 205 204 L 206 203 L 217 205 L 220 200 L 232 189 L 243 184 L 254 183 L 255 182 L 269 184 L 284 191 Q 291 196 295 204 L 342 204 L 343 203 L 360 203 L 361 202 L 389 202 L 390 201 L 468 202 L 468 170 L 469 169 L 468 164 L 469 159 L 468 156 L 467 119 L 465 116 L 460 115 L 372 115 L 371 116 L 335 116 L 334 117 L 235 116 L 234 115 L 183 114 L 182 113 L 107 113 Z M 252 187 L 242 189 L 229 197 Q 219 205 216 220 L 216 227 L 221 227 L 222 226 L 225 214 L 229 208 L 236 201 L 244 197 L 253 195 Q 267 195 276 201 Q 287 208 290 224 L 290 227 L 296 227 L 295 218 L 288 203 Q 281 193 270 189 L 261 187 L 252 187 Z M 249 200 L 238 205 Q 228 212 225 227 L 228 228 L 231 233 L 230 239 Q 228 242 222 242 L 222 281 L 223 282 L 223 296 L 225 297 L 229 296 Q 232 295 230 289 L 228 287 L 225 283 L 227 277 L 234 272 L 239 273 L 230 277 L 229 280 Q 227 286 231 285 L 233 280 L 243 274 Q 250 273 254 276 L 260 272 L 262 264 L 265 262 L 263 267 L 263 272 L 266 277 L 272 280 L 278 279 L 284 272 L 283 261 L 281 258 Q 276 259 275 256 L 266 260 L 265 258 L 270 254 L 283 255 Q 287 260 288 268 Q 287 277 281 281 L 281 295 L 288 296 L 289 292 L 289 274 L 290 273 L 290 243 L 287 241 Q 282 239 283 232 L 286 230 Q 285 217 278 210 Q 270 198 249 200 Z M 370 208 L 369 209 L 342 209 L 341 210 L 315 210 L 314 209 L 297 209 L 300 218 L 300 227 L 311 228 Q 314 230 313 237 L 308 240 L 309 247 L 310 295 L 314 296 Q 316 298 315 305 L 317 306 L 363 305 L 364 304 L 382 304 L 383 303 L 419 303 L 420 302 L 423 303 L 466 303 L 466 302 L 466 300 L 466 229 L 467 228 L 467 209 L 429 209 L 428 208 L 370 208 Z M 44 209 L 44 217 L 43 218 L 43 287 L 44 288 L 44 307 L 55 307 L 56 306 L 78 306 L 79 305 L 93 305 L 94 304 L 174 304 L 175 305 L 196 305 L 197 304 Q 196 298 198 296 L 202 295 L 203 246 L 204 242 L 200 239 L 198 235 L 200 229 Q 204 226 211 227 L 212 217 L 215 211 L 170 210 L 169 209 L 70 209 L 69 210 L 44 209 Z M 205 231 Q 202 232 203 236 L 206 237 L 217 237 L 218 238 L 226 237 L 227 234 L 225 231 L 205 231 Z M 290 231 L 286 234 Q 286 238 289 238 L 307 237 Q 310 236 309 233 L 308 231 L 290 231 Z M 208 241 L 206 243 L 207 245 L 207 276 L 206 277 L 206 294 L 208 295 L 211 294 Q 217 293 219 295 L 219 283 L 218 282 L 218 252 L 219 251 L 219 243 L 218 241 L 208 241 Z M 295 241 L 293 243 L 293 258 L 294 259 L 293 294 Q 294 296 296 294 Q 301 293 303 295 L 306 294 L 305 291 L 306 288 Q 308 282 305 281 L 305 242 L 305 241 L 295 241 Z M 261 275 L 258 278 L 258 289 L 264 289 Q 266 290 265 294 Q 266 296 271 295 L 273 289 Q 275 290 274 294 L 278 295 L 278 286 L 279 284 Q 278 281 277 283 Q 270 284 267 281 L 263 277 L 261 275 Z M 242 278 L 238 280 L 233 288 L 233 296 L 237 296 L 238 294 L 246 287 L 251 288 L 255 288 L 255 281 Q 252 276 242 278 Z M 248 291 L 248 294 L 252 295 L 253 293 Q 252 290 248 291 Z M 260 292 L 257 293 L 257 295 L 262 295 Q 264 291 260 292 Z M 244 293 L 242 296 L 246 295 L 244 293 Z M 215 298 L 214 299 L 202 299 L 200 303 L 203 305 L 215 305 L 219 300 Q 220 296 215 298 Z M 294 298 L 297 305 L 309 305 L 310 304 L 311 304 L 311 299 L 294 298 Z M 254 299 L 253 300 L 225 300 L 223 301 L 218 307 L 219 316 L 224 320 L 233 322 L 264 322 L 265 321 L 287 321 L 289 320 L 293 313 L 292 305 L 288 300 L 254 299 Z M 107 309 L 106 310 L 84 310 L 83 311 L 49 311 L 47 310 L 45 312 L 45 369 L 44 372 L 45 392 L 50 397 L 112 397 L 113 396 L 149 396 L 150 395 L 256 397 L 257 398 L 288 398 L 289 399 L 367 399 L 368 398 L 403 397 L 404 396 L 424 396 L 425 395 L 464 395 L 467 391 L 468 362 L 469 361 L 467 309 L 387 309 L 386 310 L 366 310 L 365 311 L 313 311 L 312 310 L 298 310 L 296 319 Q 293 324 286 326 L 230 326 L 222 324 Q 215 321 215 313 L 214 311 L 169 311 L 168 310 L 107 309 Z "/>
    <path fill="#1a1a1a" d="M 252.5 221 Q 260 221 263 225.5 L 265 241 L 262 242.5 Q 261.8 247.3 258.5 249 L 254.5 250 L 248 246.5 L 243 240.5 L 243 236.5 L 245 227.5 L 248.5 223 L 252.5 221 Z M 253 224 L 248 229 L 248 231 L 252 229 Q 258 228 260 231 Q 262 232 261 228 Q 259 223 253 224 Z M 251 232 Q 246 234 249 236 L 246 237 L 249 243 Q 250 247 257 246 L 262 239 L 260 234 L 259 232 L 251 232 Z "/>
    <path fill="#1a1a1a" d="M 244.5 244 L 245 245.5 L 242 252.5 L 240.5 267 L 239 265.5 L 239 254.5 L 242 246.5 L 244.5 244 Z "/>
    <path fill="#1a1a1a" d="M 247.5 252 L 248 255.5 L 247 260.5 L 249.5 259 Q 255.5 257.5 257 260.5 L 258 267.5 Q 256.8 272.3 249.5 271 L 244 264.5 L 244 259.5 L 247.5 252 Z M 252 261 L 248 264 Q 247 267 251 268 Q 255 269 256 266 L 255 262 L 252 261 Z "/>
  </g>
</svg>
