<svg xmlns="http://www.w3.org/2000/svg" width="512" height="512" viewBox="0 0 512 512">
  <g id="color">
    <path fill="#ffffff" d="M 250.5 85 L 263 85.5 L 250.5 86 L 250.5 85 Z "/>
    <path fill="#ffffff" d="M 238.5 86 L 244 86.5 L 238.5 87 L 238.5 86 Z "/>
    <path fill="#ffffff" d="M 269.5 86 L 275 86.5 L 269.5 87 L 269.5 86 Z "/>
    <path fill="#ffffff" d="M 166.5 104 L 170 108.5 L 168 107.5 L 166.5 104 Z "/>
    <path fill="#ffffff" d="M 170.5 110 L 172 112.5 L 170 113.5 L 171 111.5 L 170.5 110 Z "/>
    <path fill="#ffffff" d="M 342.5 110 L 342 111.5 L 343 113.5 L 341 112.5 L 342.5 110 Z "/>
    <path fill="#ffffff" d="M 108.5 217 L 109 223.5 L 108 223.5 L 108.5 217 Z "/>
    <path fill="#ffffff" d="M 404.5 217 L 405 222.5 L 404 222.5 L 404.5 217 Z "/>
    <path fill="#ffffff" d="M 66.5 222 L 77 222.5 L 66.5 223 L 66.5 222 Z "/>
    <path fill="#ffffff" d="M 436.5 222 L 447 222.5 L 436.5 223 L 436.5 222 Z "/>
    <path fill="#ffffff" d="M 105.5 254 L 106 260.5 L 105 260.5 L 105.5 254 Z "/>
    <path fill="#ffffff" d="M 407.5 254 L 408 260.5 L 407 260.5 L 407.5 254 Z "/>
    <path fill="#ffffff" d="M 476.5 255 L 477 260.5 L 476 260.5 L 476.5 255 Z "/>
    <path fill="#ffffff" d="M 36.5 256 L 37 260.5 L 36 260.5 L 36.5 256 Z "/>
    <path fill="#ffffff" d="M 106.5 280 L 107 306.5 L 106 306.5 L 106.5 280 Z "/>
    <path fill="#ffffff" d="M 406.5 281 L 407 306.5 L 406 306.5 L 406.5 281 Z "/>
    <path fill="#ffffff" d="M 36.5 286 L 37 302.5 L 36 302.5 L 36.5 286 Z "/>
    <path fill="#ffffff" d="M 476.5 286 L 477 304.5 L 476 304.5 L 476.5 286 Z "/>
    <path fill="#ffffff" d="M 404.5 288 L 405 317.5 L 404 317.5 L 404.5 288 Z "/>
    <path fill="#ffffff" d="M 108.5 289 L 109 316.5 L 108 316.5 L 108.5 289 Z "/>
    <path fill="#ffffff" d="M 406.5 329 L 407 357.5 L 405 358.5 L 406.5 329 Z "/>
    <path fill="#ffffff" d="M 106.5 330 L 108 357.5 L 106 356.5 L 106.5 330 Z "/>
    <path fill="#ffffff" d="M 476.5 343 L 477 359.5 L 476 359.5 L 476.5 343 Z "/>
    <path fill="#ffffff" d="M 36.5 344 L 37 359.5 L 36 359.5 L 36.5 344 Z "/>
    <path fill="#ffffff" d="M 107.5 360 L 108 381.5 L 107 381.5 L 107.5 360 Z "/>
    <path fill="#ffffff" d="M 405.5 363 L 406 383.5 L 405 383.5 L 405.5 363 Z "/>
    <path fill="#ffffff" d="M 407.5 368 L 408 378.5 L 407 378.5 L 407.5 368 Z "/>
    <path fill="#ffffff" d="M 36.5 370 L 37 376.5 L 36 376.5 L 36.5 370 Z "/>
    <path fill="#ffffff" d="M 105.5 370 L 106 378.5 L 105 378.5 L 105.5 370 Z "/>
    <path fill="#ffffff" d="M 476.5 372 L 477 376.5 L 476 376.5 L 476.5 372 Z "/>
    <path fill="#ffffff" d="M 65.5 407 L 76 407.5 L 65.5 408 L 65.5 407 Z "/>
    <path fill="#ffffff" d="M 437.5 407 L 447 407.5 L 437.5 408 L 437.5 407 Z "/>
    <path fill="#ffffff" d="M 403.5 426 L 404 427.5 L 402.5 430 L 402 428.5 L 403.5 426 Z "/>
    <path fill="#ffffff" d="M 110.5 429 L 114 435.5 L 112 434.5 L 110.5 429 Z "/>
    <path fill="#ffffff" d="M 236.5 454 L 301 454.5 L 236.5 455 L 236.5 454 Z "/>
    <path fill="#ffffff" d="M 340.5 454 L 360 454.5 L 340.5 455 L 340.5 454 Z "/>
    <path fill="#ffffff" d="M 147.5 455 L 157 455.5 L 147.5 456 L 147.5 455 Z "/>
    <path fill="#ffffff" d="M 188.5 455 L 217 455.5 L 188.5 456 L 188.5 455 Z "/>
    <path fill="#ffd43b" d="M 197.5 155 Q 206.7 154.8 210 160.5 Q 212.8 163.2 212 169.5 Q 210.8 175.3 206.5 178 L 198.5 180 Q 192 178.5 189 173.5 Q 186.7 170.3 188 163.5 L 193.5 157 L 197.5 155 Z "/>
    <path fill="#ffd43b" d="M 311.5 155 Q 320.6 155.4 324 161.5 Q 326.3 164.7 325 171.5 L 318.5 179 L 312.5 180 L 306.5 178 L 304 175.5 Q 300.7 172.3 301 165.5 L 305.5 158 L 311.5 155 Z "/>
    <path fill="#51cf66" d="M 163.5 67 Q 170.4 66.1 172 70.5 L 188 98.5 L 189 103 L 180.5 107 L 161 77.5 L 160 70.5 L 163.5 67 Z "/>
    <path fill="#51cf66" d="M 344.5 67 Q 351.8 65.8 353 70.5 Q 353.6 76.6 351 79.5 L 334 106 L 330.5 106 L 324 103 L 324 100.5 L 330 89.5 L 344.5 67 Z "/>
    <path fill="#51cf66" d="M 243.5 96 L 270.5 96 Q 272 98.5 277.5 97 L 295.5 101 L 311.5 107 L 336.5 121 L 364 146.5 L 375 161.5 L 385 180.5 L 393 206.5 L 395 221.5 L 393.5 223 L 119.5 223 L 118 220.5 L 119 219.5 L 121 201.5 L 133 170.5 Q 146.2 146.2 166.5 129 Q 181.7 115.7 201.5 107 L 221.5 100 L 243.5 96 Z M 199 149 L 192 151 Q 184 155 182 164 Q 181 175 186 180 L 195 185 Q 204 186 210 183 Q 216 179 218 170 Q 218 162 215 158 Q 210 150 199 149 Z M 312 149 L 304 152 L 298 158 L 295 167 L 296 174 L 299 179 L 309 185 L 319 185 L 327 180 L 331 172 Q 332 160 327 156 Q 323 149 312 149 Z "/>
    <path fill="#51cf66" d="M 68.5 232 L 81.5 234 L 91 241.5 L 94 246.5 L 96 256.5 L 97 350.5 L 96 351.5 L 96 376.5 L 95 381.5 L 86.5 393 Q 79.7 398.7 66.5 398 Q 57.9 396.1 53 390.5 Q 47.6 384.4 46 374.5 L 46 345.5 L 47 344.5 L 47 304.5 L 46 303.5 L 46 258.5 L 48 248.5 L 51 242.5 L 57.5 236 L 68.5 232 Z "/>
    <path fill="#51cf66" d="M 118 232 L 395 232 L 395 366.5 L 396 367.5 L 396 418.5 Q 393.6 430.6 385.5 437 Q 378.6 442.1 368.5 444 L 275.5 444 L 274.5 445 L 149.5 446 L 135.5 443 L 124 434.5 L 120 427.5 L 117 416.5 L 117 369.5 L 118 368.5 L 118 232 Z "/>
    <path fill="#51cf66" d="M 438.5 232 L 449.5 233 Q 457.3 236.3 462 242.5 L 465 248.5 L 467 257.5 L 467 305.5 L 466 306.5 L 466 341.5 L 467 342.5 L 467 375.5 Q 465 386 458.5 392 L 446.5 398 L 439.5 398 L 429.5 395 L 423 389.5 L 419 383.5 L 417 373.5 L 416 290.5 L 417 289.5 L 417 258.5 Q 419.7 256.7 418 250.5 Q 419.7 242.2 425.5 238 Q 430.3 233.3 438.5 232 Z "/>
  </g>
  <g id="line">
    <path fill="#1a1a1a" d="M 163.5 57 Q 175.9 57.1 180 65.5 L 198.5 97 L 216.5 91 L 235.5 87 L 268.5 86 L 269.5 87 L 277.5 87 L 292.5 90 L 314.5 97 L 336 61 L 344.5 57 L 349.5 57 Q 357.8 58.2 361 64.5 L 363 74.5 L 359 84.5 L 341 112.5 Q 354.1 120.4 364 131.5 Q 387.8 155.2 399 191.5 L 404 213.5 L 404 222.5 L 405 223.5 L 405 287.5 L 404 288.5 L 404 317.5 L 405 318.5 L 406 415.5 L 404 425.5 L 400 434.5 L 390.5 445 L 382.5 450 L 365.5 454 L 236.5 454 L 235.5 455 L 157.5 456 L 156.5 455 L 144.5 455 L 132.5 452 Q 121.8 448.2 116 439.5 Q 110.3 432.2 108 421.5 Q 109.5 416 107 414.5 L 107 382.5 L 108 381.5 L 109 289.5 L 108 288.5 L 108 224.5 L 109 223.5 L 110 207.5 L 116 184.5 L 120 174.5 Q 132.5 147.5 152.5 128 L 172 112.5 L 154 84.5 Q 150 79.5 150 70.5 Q 151.4 62.4 157.5 59 L 163.5 57 Z M 164 67 L 160 71 L 161 78 L 181 107 L 189 103 L 188 99 L 172 71 Q 170 66 164 67 Z M 345 67 L 330 90 L 324 101 L 324 103 L 331 106 L 334 106 L 351 80 Q 354 77 353 71 Q 352 66 345 67 Z M 244 96 L 222 100 L 202 107 Q 182 116 167 129 Q 146 146 133 171 L 121 202 L 119 220 L 118 221 L 120 223 L 394 223 L 395 222 L 393 207 L 385 181 L 375 162 L 364 147 L 337 121 L 312 107 L 296 101 L 278 97 Q 272 99 271 96 L 244 96 Z M 118 232 L 118 369 L 117 370 L 117 417 L 120 428 L 124 435 L 136 443 L 150 446 L 275 445 L 276 444 L 369 444 Q 379 442 386 437 Q 394 431 396 419 L 396 368 L 395 367 L 395 232 L 118 232 Z "/>
    <path fill="#1a1a1a" d="M 198.5 149 Q 210.3 149.7 215 157.5 Q 218.2 161.8 218 169.5 Q 216.3 178.8 209.5 183 Q 204.4 186.4 194.5 185 L 186 179.5 Q 180.7 174.8 182 163.5 Q 184.4 154.9 191.5 151 L 198.5 149 Z M 198 155 L 194 157 L 188 164 Q 187 170 189 174 Q 192 178 199 180 L 207 178 Q 211 175 212 170 Q 213 163 210 161 Q 207 155 198 155 Z "/>
    <path fill="#1a1a1a" d="M 311.5 149 Q 322.7 148.8 327 155.5 Q 332.3 160.2 331 171.5 L 327 180 L 318.5 185 L 308.5 185 L 299 178.5 L 296 173.5 L 295 166.5 L 298 157.5 L 303.5 152 L 311.5 149 Z M 312 155 L 306 158 L 301 166 Q 301 172 304 176 L 307 178 L 313 180 L 319 179 L 325 172 Q 326 165 324 162 Q 321 155 312 155 Z "/>
    <path fill="#1a1a1a" d="M 64.5 223 L 78.5 223 Q 89.4 225.6 96 232.5 Q 102.5 239.5 105 250.5 L 107 329.5 L 106 330.5 L 106 369.5 L 105 370.5 L 105 380.5 Q 101.8 394.3 91.5 401 Q 82.9 409.4 63.5 407 Q 49.8 403.8 43 393.5 Q 38.5 387.5 37 378.5 L 36 360.5 L 37 359.5 L 37 286.5 L 36 285.5 L 36 261.5 L 37 260.5 L 37 252.5 L 40 242.5 L 50.5 229 L 64.5 223 Z M 69 232 L 58 236 L 51 243 L 48 249 L 46 259 L 46 304 L 47 305 L 47 345 L 46 346 L 46 375 Q 48 384 53 391 Q 58 396 67 398 Q 80 399 87 393 L 95 382 L 96 377 L 96 352 L 97 351 L 96 257 L 94 247 L 91 242 L 82 234 L 69 232 Z "/>
    <path fill="#1a1a1a" d="M 434.5 223 Q 445.4 221.6 452.5 224 Q 462.4 227.1 468 234.5 Q 474 241.5 476 252.5 L 477 285.5 L 476 286.5 L 476 359.5 L 477 360.5 L 477 371.5 L 476 372.5 L 475 383.5 L 472 390.5 L 461.5 402 Q 452.7 409.2 434.5 407 Q 420.4 403.1 413 392.5 L 408 381.5 L 406 307.5 L 407 306.5 L 407 261.5 L 408 260.5 L 408 250.5 Q 410.8 238.3 418.5 231 L 434.5 223 Z M 439 232 Q 430 233 426 238 Q 420 242 418 251 Q 420 257 417 259 L 417 290 L 416 291 L 417 374 L 419 384 L 423 390 L 430 395 L 440 398 L 447 398 L 459 392 Q 465 386 467 376 L 467 343 L 466 342 L 466 307 L 467 306 L 467 258 L 465 249 L 462 243 Q 457 236 450 233 L 439 232 Z "/>
  </g>
</svg>
