<svg xmlns="http://www.w3.org/2000/svg" width="512" height="512" viewBox="0 0 512 512">
  <g id="color">
    <path fill="#ffffff" d="M 372.5 54 L 381 54.5 L 372.5 55 L 372.5 54 Z "/>
    <path fill="#ffffff" d="M 369.5 55 L 368.5 57 L 366.5 58 L 367.5 56 L 369.5 55 Z "/>
    <path fill="#ffffff" d="M 387.5 57 L 394 62.5 L 390.5 60 L 387.5 57 Z "/>
    <path fill="#ffffff" d="M 360.5 63 L 360 64.5 L 358.5 67 L 359 65.5 L 360.5 63 Z "/>
    <path fill="#ffffff" d="M 395.5 64 L 400 69.5 L 395 65.5 L 395.5 64 Z "/>
    <path fill="#ffffff" d="M 441.5 67 L 451 67.5 L 438.5 69 L 438.5 68 L 441.5 67 Z "/>
    <path fill="#ffffff" d="M 357.5 68 L 358 70.5 L 356.5 74 L 356 71.5 L 357.5 68 Z "/>
    <path fill="#ffffff" d="M 434.5 69 L 436 69.5 L 425.5 74 L 425.5 73 L 434.5 69 Z "/>
    <path fill="#ffffff" d="M 420.5 75 L 422 75.5 L 418.5 77 L 418.5 76 L 420.5 75 Z "/>
    <path fill="#ffffff" d="M 461.5 76 Q 464.7 79.3 463 87.5 L 462 87.5 Q 462.6 79.3 461.5 76 Z "/>
    <path fill="#ffffff" d="M 354.5 81 L 355 95.5 L 353.5 101 L 353 96.5 L 354 95.5 L 354.5 81 Z "/>
    <path fill="#ffffff" d="M 229.5 86 L 252.5 86 L 259 87.5 L 253.5 88 L 252.5 87 L 229.5 87 Q 227.7 89.8 221.5 88 L 221.5 87 Q 227.7 88.7 229.5 86 Z "/>
    <path fill="#ffffff" d="M 205.5 89 L 211 89.5 L 201.5 91 L 201.5 90 L 205.5 89 Z "/>
    <path fill="#ffffff" d="M 266.5 89 L 271 90.5 L 269.5 91 L 266.5 90 L 266.5 89 Z "/>
    <path fill="#ffffff" d="M 190.5 92 L 194 92.5 L 186.5 94 L 186.5 93 L 190.5 92 Z "/>
    <path fill="#ffffff" d="M 460.5 93 L 461 94.5 L 456.5 104 L 456 102.5 L 460.5 93 Z "/>
    <path fill="#ffffff" d="M 181.5 94 L 184 94.5 L 177.5 96 L 177.5 95 L 181.5 94 Z "/>
    <path fill="#ffffff" d="M 169.5 97 L 172 97.5 L 166.5 99 L 166.5 98 L 169.5 97 Z "/>
    <path fill="#ffffff" d="M 158.5 100 L 161 100.5 L 155.5 102 L 155.5 101 L 158.5 100 Z "/>
    <path fill="#ffffff" d="M 352.5 102 L 353 103.5 L 348 107.5 L 352.5 102 Z "/>
    <path fill="#ffffff" d="M 148.5 103 L 151 103.5 L 145.5 105 L 145.5 104 L 148.5 103 Z "/>
    <path fill="#ffffff" d="M 288.5 103 L 291 106.5 L 289 105.5 L 288.5 103 Z "/>
    <path fill="#ffffff" d="M 142.5 105 L 144 105.5 L 137.5 108 L 137.5 107 L 142.5 105 Z "/>
    <path fill="#ffffff" d="M 455.5 105 L 456 106.5 Q 453.3 108.8 454 114.5 L 462.5 125 L 464 125.5 L 462.5 126 Q 454 122 453 110.5 L 455.5 105 Z "/>
    <path fill="#ffffff" d="M 133.5 108 L 135 108.5 L 131.5 110 L 131.5 109 L 133.5 108 Z "/>
    <path fill="#ffffff" d="M 291.5 108 L 293 112.5 L 292 112.5 L 291.5 108 Z "/>
    <path fill="#ffffff" d="M 346.5 108 L 345.5 110 L 342.5 111 L 342.5 110 L 346.5 108 Z "/>
    <path fill="#ffffff" d="M 126.5 111 L 128 111.5 L 124.5 113 L 124.5 112 L 126.5 111 Z "/>
    <path fill="#ffffff" d="M 121.5 113 L 123 113.5 L 117.5 116 L 118.5 114 L 121.5 113 Z "/>
    <path fill="#ffffff" d="M 293.5 114 L 294 121.5 L 292.5 126 L 292 122.5 L 293.5 114 Z "/>
    <path fill="#ffffff" d="M 114.5 116 L 116 116.5 L 110.5 119 L 110.5 118 L 114.5 116 Z "/>
    <path fill="#ffffff" d="M 108.5 119 L 107.5 121 L 99.5 125 L 100.5 123 L 108.5 119 Z "/>
    <path fill="#ffffff" d="M 325.5 119 L 318 127.5 L 316.5 131 L 316 129.5 L 325.5 119 Z "/>
    <path fill="#ffffff" d="M 97.5 125 L 96.5 127 L 94.5 128 L 95.5 126 L 97.5 125 Z "/>
    <path fill="#ffffff" d="M 89.5 130 L 88.5 132 L 86.5 133 L 87.5 131 L 89.5 130 Z "/>
    <path fill="#ffffff" d="M 289.5 131 L 288 133.5 Q 288.8 135.8 286.5 135 L 289.5 131 Z "/>
    <path fill="#ffffff" d="M 315.5 132 L 316 134.5 Q 313.7 135.7 315 140.5 L 316 143.5 L 315 143.5 L 314 135.5 L 315.5 132 Z "/>
    <path fill="#ffffff" d="M 81.5 135 L 79.5 138 L 76.5 140 L 78.5 137 L 81.5 135 Z "/>
    <path fill="#ffffff" d="M 284.5 136 L 282.5 139 L 277.5 141 L 277.5 140 L 284.5 136 Z "/>
    <path fill="#ffffff" d="M 473.5 139 L 475 142.5 L 474 142.5 L 473.5 139 Z "/>
    <path fill="#ffffff" d="M 261.5 143 L 269 143.5 L 261.5 144 L 261.5 143 Z "/>
    <path fill="#ffffff" d="M 242.5 144 L 253 144.5 L 242.5 145 L 242.5 144 Z "/>
    <path fill="#ffffff" d="M 228.5 145 L 241 145.5 L 228.5 146 L 228.5 145 Z "/>
    <path fill="#ffffff" d="M 316.5 145 L 322.5 153 L 330 157.5 L 328.5 157 Q 321.1 154.4 317 148.5 L 316.5 145 Z "/>
    <path fill="#ffffff" d="M 475.5 145 L 476 152.5 L 475 152.5 L 475.5 145 Z "/>
    <path fill="#ffffff" d="M 218.5 146 L 226 146.5 L 218.5 147 L 218.5 146 Z "/>
    <path fill="#ffffff" d="M 208.5 147 L 214 147.5 L 201.5 149 L 201.5 148 Q 207 149.5 208.5 147 Z "/>
    <path fill="#ffffff" d="M 189.5 150 L 193 150.5 L 185.5 152 L 185.5 151 L 189.5 150 Z "/>
    <path fill="#ffffff" d="M 174.5 153 L 178 153.5 L 171.5 155 L 171.5 154 L 174.5 153 Z "/>
    <path fill="#ffffff" d="M 162.5 156 L 166 156.5 L 160.5 158 L 160.5 157 L 162.5 156 Z "/>
    <path fill="#ffffff" d="M 156.5 158 L 158 158.5 L 151.5 161 L 151.5 160 L 156.5 158 Z "/>
    <path fill="#ffffff" d="M 332.5 158 L 337 159.5 L 334.5 160 L 332.5 158 Z "/>
    <path fill="#ffffff" d="M 139.5 164 L 142 164.5 L 137.5 166 L 137.5 165 L 139.5 164 Z "/>
    <path fill="#ffffff" d="M 358.5 167 L 361 171.5 L 360 171.5 L 358.5 167 Z "/>
    <path fill="#ffffff" d="M 461.5 167 L 463 167.5 L 458.5 169 L 458.5 168 L 461.5 167 Z "/>
    <path fill="#ffffff" d="M 48.5 168 L 48 169.5 L 46.5 172 L 47 170.5 L 48.5 168 Z "/>
    <path fill="#ffffff" d="M 452.5 169 L 456 169.5 L 451.5 171 L 435.5 171 L 435.5 170 L 451.5 170 L 452.5 169 Z "/>
    <path fill="#ffffff" d="M 123.5 172 L 122.5 174 L 120.5 175 L 121.5 173 L 123.5 172 Z "/>
    <path fill="#ffffff" d="M 427.5 172 L 426.5 174 L 422.5 177 L 425.5 173 L 427.5 172 Z "/>
    <path fill="#ffffff" d="M 238.5 173 L 244 173.5 L 238.5 174 L 238.5 173 Z "/>
    <path fill="#ffffff" d="M 225.5 174 L 232 174.5 L 225.5 175 L 225.5 174 Z "/>
    <path fill="#ffffff" d="M 249.5 174 L 255 174.5 L 249.5 175 L 249.5 174 Z "/>
    <path fill="#ffffff" d="M 361.5 174 L 363 182.5 L 362 182.5 L 361.5 174 Z "/>
    <path fill="#ffffff" d="M 118.5 175 L 117.5 177 L 115.5 178 L 116.5 176 L 118.5 175 Z "/>
    <path fill="#ffffff" d="M 217.5 175 L 222 175.5 L 213.5 177 L 213.5 176 L 217.5 175 Z "/>
    <path fill="#ffffff" d="M 258.5 175 L 266 176.5 L 262.5 177 L 258.5 176 L 258.5 175 Z "/>
    <path fill="#ffffff" d="M 203.5 178 L 207 178.5 L 201.5 180 L 201.5 179 L 203.5 178 Z "/>
    <path fill="#ffffff" d="M 271.5 178 L 276 179.5 L 274.5 180 L 271.5 179 L 271.5 178 Z "/>
    <path fill="#ffffff" d="M 42.5 179 L 43 180.5 L 41.5 183 L 41 181.5 L 42.5 179 Z "/>
    <path fill="#ffffff" d="M 197.5 180 L 199 180.5 L 192.5 183 L 192.5 182 L 197.5 180 Z "/>
    <path fill="#ffffff" d="M 277.5 180 L 283 182.5 L 281.5 183 L 277.5 181 L 277.5 180 Z "/>
    <path fill="#ffffff" d="M 419.5 181 L 419 182.5 L 416.5 187 L 417 185.5 L 419.5 181 Z "/>
    <path fill="#ffffff" d="M 188.5 183 L 190 183.5 L 186.5 185 L 186.5 184 L 188.5 183 Z "/>
    <path fill="#ffffff" d="M 284.5 183 L 288 185.5 L 286.5 185 L 284.5 183 Z "/>
    <path fill="#ffffff" d="M 40.5 184 L 41 185.5 L 38.5 193 L 38 190.5 L 40.5 184 Z "/>
    <path fill="#ffffff" d="M 180.5 186 L 182 186.5 L 178.5 188 L 178.5 187 L 180.5 186 Z "/>
    <path fill="#ffffff" d="M 289.5 186 L 304 198.5 L 308 204.5 L 306 203.5 L 295.5 191 Q 290.3 189.3 289.5 186 Z "/>
    <path fill="#ffffff" d="M 415.5 188 L 415 189.5 L 413.5 192 L 414 190.5 L 415.5 188 Z "/>
    <path fill="#ffffff" d="M 100.5 189 L 101 190.5 L 97.5 196 L 97 194.5 L 100.5 189 Z "/>
    <path fill="#ffffff" d="M 364.5 189 L 366 193.5 L 365 193.5 L 364.5 189 Z "/>
    <path fill="#ffffff" d="M 169.5 191 L 171 191.5 L 166.5 194 L 167.5 192 L 169.5 191 Z "/>
    <path fill="#ffffff" d="M 37.5 195 L 38 210.5 L 37 210.5 L 37.5 195 Z "/>
    <path fill="#ffffff" d="M 410.5 196 L 410 197.5 L 406.5 202 L 409 198.5 L 410.5 196 Z "/>
    <path fill="#ffffff" d="M 97.5 198 L 99.5 201 L 105 204.5 L 103.5 204 L 97 199.5 L 97.5 198 Z "/>
    <path fill="#ffffff" d="M 147.5 202 L 149 202.5 L 143.5 205 L 143.5 204 L 147.5 202 Z "/>
    <path fill="#ffffff" d="M 404.5 203 L 405 205 L 400.5 208 L 404.5 203 Z "/>
    <path fill="#ffffff" d="M 372.5 205 L 377 208.5 L 374.5 207 L 372.5 205 Z "/>
    <path fill="#ffffff" d="M 109.5 206 L 116 207.5 L 112.5 208 L 109.5 207 L 109.5 206 Z "/>
    <path fill="#ffffff" d="M 136.5 206 L 139 206.5 L 132.5 208 L 132.5 207 L 136.5 206 Z "/>
    <path fill="#ffffff" d="M 308.5 206 L 311 209.5 L 309 208.5 L 308.5 206 Z "/>
    <path fill="#ffffff" d="M 119.5 208 L 130 208.5 L 119.5 209 L 119.5 208 Z "/>
    <path fill="#ffffff" d="M 398.5 208 L 397.5 210 L 394.5 211 L 394.5 210 L 398.5 208 Z "/>
    <path fill="#ffffff" d="M 311.5 211 L 313 215.5 L 312 215.5 L 311.5 211 Z "/>
    <path fill="#ffffff" d="M 383.5 211 L 393 211.5 L 383.5 212 L 383.5 211 Z "/>
    <path fill="#ffffff" d="M 38.5 213 L 41 221.5 L 40 221.5 L 38.5 213 Z "/>
    <path fill="#ffffff" d="M 314.5 221 Q 317.8 227.8 316 239.5 L 314.5 244 L 314 240.5 L 315 239.5 L 315 225.5 L 314.5 221 Z "/>
    <path fill="#ffffff" d="M 41.5 223 L 46 231.5 L 44 230.5 L 41.5 223 Z "/>
    <path fill="#ffffff" d="M 228.5 234 L 240.5 235 L 247 237.5 L 239.5 246 Q 224 257 195.5 255 L 190 253.5 L 192 252.5 L 190 251.5 Q 204.5 238 228.5 234 Z "/>
    <path fill="#ffffff" d="M 49.5 237 Q 56.8 245.8 67 251.5 L 65.5 251 Q 54.9 245.8 49.5 237 Z "/>
    <path fill="#ffffff" d="M 312.5 249 L 313 251.5 L 311.5 254 L 311 252.5 L 312.5 249 Z "/>
    <path fill="#ffffff" d="M 76.5 256 L 80 257.5 L 78.5 258 L 76.5 256 Z "/>
    <path fill="#ffffff" d="M 82.5 258 L 90 260.5 L 88.5 261 L 82.5 259 L 82.5 258 Z "/>
    <path fill="#ffffff" d="M 307.5 261 L 307 262.5 L 305.5 265 L 306 263.5 L 307.5 261 Z "/>
    <path fill="#ffffff" d="M 90.5 262 L 91 263.5 L 88.5 268 L 88 266.5 L 90.5 262 Z "/>
    <path fill="#ffffff" d="M 87.5 269 L 88 270.5 L 86.5 274 L 86 271.5 L 87.5 269 Z "/>
    <path fill="#ffffff" d="M 301.5 270 L 299 273.5 L 292.5 281 L 298 274.5 L 301.5 270 Z "/>
    <path fill="#ffffff" d="M 84.5 280 L 85 285.5 L 84 288.5 L 85 289.5 L 85 297.5 L 84 297.5 L 83 286.5 L 84.5 280 Z "/>
    <path fill="#ffffff" d="M 288.5 283 L 284.5 288 L 278.5 292 L 280.5 289 L 288.5 283 Z "/>
    <path fill="#ffffff" d="M 273.5 294 L 272.5 296 L 270.5 297 L 271.5 295 L 273.5 294 Z "/>
    <path fill="#ffffff" d="M 268.5 297 L 267.5 299 L 264.5 300 L 265.5 298 L 268.5 297 Z "/>
    <path fill="#ffffff" d="M 85.5 300 L 88 307.5 L 87 307.5 L 85.5 300 Z "/>
    <path fill="#ffffff" d="M 257.5 306 L 264 313.5 L 262 312.5 L 257.5 306 Z "/>
    <path fill="#ffffff" d="M 88.5 310 L 91 314.5 L 89 313.5 L 88.5 310 Z "/>
    <path fill="#ffffff" d="M 91.5 316 L 94 319.5 L 92 318.5 L 91.5 316 Z "/>
    <path fill="#ffffff" d="M 94.5 321 L 108 335.5 L 96 324.5 L 94.5 321 Z "/>
    <path fill="#ffffff" d="M 267.5 322 Q 269.8 324.8 269 330.5 L 268 330.5 L 267.5 322 Z "/>
    <path fill="#ffffff" d="M 268.5 335 L 269 339.5 L 266.5 346 L 266 344.5 L 268.5 335 Z "/>
    <path fill="#ffffff" d="M 112.5 338 L 116 340.5 L 114.5 340 L 112.5 338 Z "/>
    <path fill="#ffffff" d="M 119.5 342 L 124 344.5 L 122.5 345 L 119.5 342 Z "/>
    <path fill="#ffffff" d="M 130.5 347 L 135 348.5 L 132.5 349 L 130.5 347 Z "/>
    <path fill="#ffffff" d="M 140.5 350 L 148 351.5 L 143.5 352 L 140.5 351 L 140.5 350 Z "/>
    <path fill="#ffffff" d="M 263.5 351 L 263 352.5 L 258.5 358 L 262 353.5 L 263.5 351 Z "/>
    <path fill="#ffffff" d="M 156.5 353 L 161 353.5 L 156.5 354 L 156.5 353 Z "/>
    <path fill="#ffffff" d="M 160.5 357 L 161 369.5 L 160 369.5 L 160.5 357 Z "/>
    <path fill="#ffffff" d="M 247.5 366 L 246.5 368 L 244.5 369 L 245.5 367 L 247.5 366 Z "/>
    <path fill="#ffffff" d="M 242.5 369 L 241.5 371 L 238.5 372 L 238.5 371 L 242.5 369 Z "/>
    <path fill="#ffffff" d="M 236.5 372 L 235.5 374 L 232.5 375 L 233.5 373 L 236.5 372 Z "/>
    <path fill="#ffffff" d="M 161.5 373 L 163 380.5 L 162 380.5 L 161.5 373 Z "/>
    <path fill="#ffffff" d="M 226.5 380 L 227 387.5 L 226 387.5 L 226.5 380 Z "/>
    <path fill="#ffffff" d="M 163.5 383 L 166 390.5 L 165 390.5 L 163.5 383 Z "/>
    <path fill="#ffffff" d="M 227.5 390 L 230 396.5 L 228 395.5 L 227.5 390 Z "/>
    <path fill="#ffffff" d="M 166.5 392 L 168 395.5 L 167 395.5 L 166.5 392 Z "/>
    <path fill="#ffffff" d="M 230.5 398 L 233 402.5 L 231 401.5 L 230.5 398 Z "/>
    <path fill="#ffffff" d="M 171.5 403 L 174 406.5 L 172 405.5 L 171.5 403 Z "/>
    <path fill="#ffffff" d="M 174.5 408 L 177 411.5 L 175 410.5 L 174.5 408 Z "/>
    <path fill="#ffffff" d="M 177.5 413 L 182 418.5 L 179 416.5 L 177.5 413 Z "/>
    <path fill="#ffffff" d="M 186.5 425 Q 188.8 424.3 188 426.5 L 199.5 439 L 186.5 425 Z "/>
    <path fill="#ffffff" d="M 255.5 429 L 258 432.5 L 257 432.5 L 255.5 429 Z "/>
    <path fill="#ffffff" d="M 258.5 434 L 260 439.5 L 259 439.5 L 258.5 434 Z "/>
    <path fill="#ffffff" d="M 201.5 439 L 215 449.5 L 213.5 449 Q 205 445.3 201.5 439 Z "/>
    <path fill="#ffffff" d="M 259.5 443 L 260 447.5 L 258.5 450 L 258 448.5 L 259.5 443 Z "/>
    <path fill="#ffffff" d="M 216.5 450 L 227 455.5 L 225.5 456 L 217.5 452 L 216.5 450 Z "/>
    <path fill="#ffffff" d="M 228.5 456 L 234 457.5 L 231.5 458 L 228.5 457 L 228.5 456 Z "/>
    <path fill="#ffffff" d="M 250.5 456 L 252 456.5 L 247.5 458 L 247.5 457 L 250.5 456 Z "/>
    <path fill="#ffffff" d="M 236.5 458 L 246 458.5 L 236.5 459 L 236.5 458 Z "/>
    <path fill="#ff6b6b" d="M 378.5 68 L 380.5 71 L 381.5 70 L 385 73.5 Q 382.8 74.8 385.5 76 L 388 77.5 Q 385.7 78.8 388.5 80 Q 389.8 77.8 391 80.5 Q 388.8 81.7 391.5 83 L 393.5 83 L 402 89 L 402.5 91 L 403.5 90 L 406.5 93 L 414.5 93 L 415 91 L 417.5 91 L 420 92 Q 418.9 89.3 421.5 90 L 423.5 89 L 425 89.5 L 425.5 88 L 427 88.5 Q 426.3 86.3 428.5 87 L 430 87.5 Q 429.3 85.3 431.5 86 Q 433.2 83.2 438.5 84 L 440.5 82 L 444.5 83 L 444.5 81 L 447 82.5 Q 446.3 84.8 448.5 84 L 448.5 85 Q 446.3 84.3 447 86.5 L 448 89 Q 445.3 87.9 446 90.5 L 446.5 92 L 445 91.5 L 446 94.5 L 444 94.5 L 445 96.5 L 443 97.5 L 443.5 99 L 442 99.5 L 443 101.5 L 441 101.5 L 442 103.5 L 440 104.5 L 441 107.5 L 439 113.5 L 440 116.5 L 439 118.5 L 441 118.5 L 440 121.5 L 442 121.5 L 441.5 123 L 443 123.5 L 442.5 125 L 446 127.5 Q 443.8 128.8 446.5 130 L 450 132.5 L 450.5 135 L 451.5 134 L 455 137.5 L 455 139 L 457 139 Q 455.9 141.7 458.5 141 L 462 148.5 L 458.5 154 L 456.5 153 L 456.5 155 L 454.5 154 L 454 156 L 449.5 155 L 449.5 157 Q 444.8 158.2 443.5 156 Q 442 158.5 436.5 157 L 433.5 156 L 432 156.5 L 432.5 158 L 426.5 157 L 426.5 159 L 422.5 160 L 420.5 160 Q 418.3 159.3 419 161.5 L 415 163 L 413.5 166 L 410.5 168 L 410.5 170 L 409 169.5 L 408 171.5 L 408.5 173 L 407 172.5 L 408 174.5 L 405 176.5 L 405 178.5 L 404 182 L 402 182.5 L 402.5 184 L 401 184.5 Q 403.3 185.8 400.5 187 Q 397.2 185.9 398 188.5 L 398.5 190 Q 397.2 187.8 396 190.5 L 396 194 Q 393.3 192.9 394 195.5 L 392 195.5 L 391.5 197 L 390 196.5 L 389.5 198 L 385 197.5 L 384.5 196 L 383 196.5 Q 385.3 195.3 382.5 194 L 380 192.5 L 380.5 191 Q 378.3 191.8 379 189.5 L 377 183.5 L 378 180.5 L 377 180.5 L 376.5 182 L 376 177.5 L 377 174.5 L 375 174.5 L 376 169 L 374 168.5 L 374.5 167 L 373 166.5 L 374 164 Q 371.3 165.1 372 162.5 Q 368.9 160.8 370.5 159 L 366 155.5 L 364.5 153 Q 363.3 155.3 362 152.5 L 362 151 L 358 151 Q 359.1 148.3 356.5 149 L 354.5 150 L 354.5 149 L 356 148.5 L 353.5 148 L 349.5 149 L 342.5 146 L 340 147 L 339.5 145 L 335.5 145 Q 333.3 145.8 334 143.5 Q 331.5 145.3 329 140.5 L 330 137.5 L 329 135.5 L 332 134 L 333.5 131 L 337.5 128 L 339 128.5 Q 338.3 126.3 340.5 127 L 343.5 126 L 346.5 124 L 348.5 124 Q 350.8 124.8 350 122.5 L 351.5 123 L 353 122.5 L 352.5 121 L 354 121.5 L 355.5 119 L 360.5 115 L 362 115.5 L 365 107 L 367 106.5 L 366 104.5 L 369 90.5 Q 366.3 88.7 368 82.5 L 369.5 76 L 371 76.5 L 370 73.5 L 373 71.5 Q 370.7 70.3 373.5 69 L 375.5 69 L 378.5 68 Z "/>
    <path fill="#ff6b6b" d="M 230.5 100 L 234.5 101 L 235.5 100 L 246.5 100 L 248.5 101 L 252.5 100 L 252.5 102 L 259 101 Q 257.9 103.7 260.5 103 L 267.5 105 L 269 104.5 L 270.5 107 L 272 106.5 Q 271.2 109.1 274.5 108 Q 279.9 111.1 280 119.5 L 277.5 124 Q 275.3 123.3 276 125.5 Q 274 129.2 272 127.5 L 271.5 129 L 269.5 129 L 265.5 130 Q 263.8 127.3 257.5 129 Q 254.2 132.2 246.5 131 L 243.5 130 Q 242.3 133.3 236.5 132 L 234.5 131 L 230.5 132 L 228.5 131 L 226.5 131 L 223 131.5 L 225 132.5 L 222.5 133 L 219.5 132 L 211.5 134 L 208.5 133 L 205.5 135 L 202.5 134 L 198 134.5 L 198.5 136 L 193 135 Q 194.3 138 190.5 137 Q 189.3 134.8 184.5 136 L 178.5 139 L 176 138 Q 177.3 141 173.5 140 L 171.5 139 L 171.5 141 L 169.5 140 L 167 140.5 Q 167.8 142.8 165.5 142 L 163.5 143 L 159.5 142 L 159.5 143 L 161 143.5 L 159.5 144 Q 158 141.5 156.5 145 L 153.5 146 L 150.5 145 L 150.5 147 L 148.5 146 L 142.5 149 L 141 148.5 L 140.5 150 L 138 149 Q 139.1 151.7 136.5 151 L 134.5 152 L 132.5 151 L 132.5 153 L 130.5 154 L 128.5 154 L 125.5 156 L 120.5 159 L 119 158.5 L 118.5 160 L 117 159.5 L 116.5 161 L 115 160.5 L 114.5 162 L 112.5 161 L 112.5 163 Q 111.2 160.8 110 163.5 L 109.5 165 L 107.5 164 L 106.5 167 L 105 166.5 L 103.5 169 Q 101.8 166.2 100 170.5 L 96.5 175 L 95.5 174 L 92.5 177 L 90 178.5 L 91 180.5 L 88 182 L 86 188 L 84 188.5 L 84 190.5 Q 85.1 193.8 82.5 193 L 83 196.5 L 82 198.5 L 82.5 201 Q 84.8 200.3 84 202.5 L 84 204.5 L 86.5 208 L 98 216.5 Q 97.3 218.8 99.5 218 L 101.5 218 Q 103.8 217.3 103 219.5 L 104.5 219 L 107.5 221 L 110.5 220 L 119.5 223 L 122.5 222 Q 127.3 220.8 128.5 223 L 132.5 223 L 135 222.5 L 134.5 221 L 136.5 222 L 139.5 220 L 141.5 221 Q 143.2 217.9 145 219.5 Q 144.3 217.3 146.5 218 L 148 218.5 Q 147.3 216.3 149.5 217 L 151.5 218 L 151.5 216 L 153 216.5 L 153.5 215 L 155.5 216 L 155.5 214 L 157.5 215 L 159.5 212 L 161.5 211 L 163 211.5 Q 162.3 209.3 164.5 210 L 167 209.5 L 167.5 208 L 169 208.5 L 170.5 206 L 172.5 207 L 175 206 Q 173.9 203.3 176.5 204 L 179 203.5 Q 178.3 201.3 180.5 202 L 184.5 200 L 186 200.5 L 186.5 199 L 188.5 200 L 188.5 198 L 190.5 199 L 191.5 197 L 195.5 197 L 197 196.5 L 196.5 195 L 203.5 193 L 206 194 L 206.5 192 L 210 193 L 210.5 191 L 214 192 Q 212.7 188.7 217.5 190 L 219.5 191 L 219.5 189 L 224.5 190 L 227.5 188 L 228.5 189 L 237 189 L 237.5 187 L 247 187 Q 245.7 190.7 251.5 189 L 255 188.5 Q 254.2 191.1 257.5 190 L 259.5 189 L 259.5 191 L 263.5 190 L 263.5 192 L 267.5 191 L 267.5 192 L 266 192.5 L 268.5 193 L 271 192 L 271.5 194 L 273.5 193 L 276 194 L 276.5 196 Q 277.8 193.8 279 196.5 L 279.5 198 L 281.5 198 L 284 199.5 L 283.5 201 L 285.5 200 L 286.5 203 L 294 208.5 L 293.5 210 L 296 211.5 Q 294.5 215.9 297.5 215 L 298 217.5 L 298.5 220 L 300 219.5 L 301 222.5 L 300.5 226 Q 303.1 225.2 302 228.5 L 302 230.5 L 301 236.5 L 302 238.5 L 300 238.5 L 301 240.5 L 300.5 243 Q 298.3 242.3 299 244.5 L 299 246.5 L 297.5 250 L 296 250.5 L 297 252.5 L 294.5 256 Q 291.5 255.1 293 259.5 L 287 264.5 Q 289.8 266.2 285.5 268 L 284 267.5 L 284 269.5 L 279.5 274 L 277 274 Q 278.3 277 274.5 276 L 274.5 278 L 273 277.5 L 271.5 280 L 270 279.5 L 268.5 282 L 266.5 282 Q 264.3 281.3 265 283.5 L 259.5 287 L 257.5 287 L 254.5 289 L 249.5 290 L 245.5 293 L 244 292.5 Q 244.8 295.1 241.5 294 L 239.5 294 L 237 294.5 L 237.5 296 L 234.5 295 L 234.5 297 L 231 296 Q 232.1 298.7 229.5 298 L 227.5 297 L 227.5 299 L 224.5 301 L 223 300.5 L 224 306.5 L 223.5 308 L 227 310.5 Q 226.3 312.8 228.5 312 L 231.5 311 L 231.5 313 L 235.5 312 L 237.5 313 L 240.5 312 L 243 313 Q 241.7 316.3 246.5 315 L 248.5 319 Q 249.8 316.8 251 319.5 L 250.5 321 L 253 322.5 L 252.5 324 Q 254.8 323.3 254 325.5 L 253.5 327 Q 256.5 326.1 255 330.5 L 254 335.5 L 255 337.5 L 253 343 L 251 343.5 Q 253.3 344.8 250.5 346 L 248 346 L 248 349 Q 245.3 347.9 246 350.5 Q 243.5 355.3 241 353.5 L 239.5 356 L 238 355.5 L 237.5 357 L 236 356.5 L 235.5 358 L 234 357.5 Q 234.8 359.8 232.5 359 L 229.5 361 L 228 360.5 Q 228.8 362.8 226.5 362 L 221.5 366 Q 220.3 363.8 219 366.5 L 217 371 L 215 371.5 L 215 373.5 L 214.5 375 L 213 374.5 L 214 377.5 L 212 378 L 213 389.5 L 212 392.5 L 214 392.5 L 213 395.5 L 215 395.5 L 214 398.5 L 216 398.5 L 217 401.5 L 217 403.5 L 219 406.5 L 219.5 409 L 221 409.5 L 220.5 411 L 223 412.5 L 225 415.5 L 224.5 417 L 229 420.5 Q 226.8 421.8 229.5 423 Q 231.8 422.3 231 424.5 L 238 430.5 L 240 433.5 L 241.5 436 L 243 435.5 Q 240.8 436.8 243.5 438 L 245 437.5 L 244.5 439 L 246 439.5 L 245 442.5 L 245.5 444 L 243.5 445 L 241.5 444 L 238.5 445 L 234.5 443 L 232.5 443 L 228 442 L 227.5 440 L 226 440.5 L 225.5 439 L 224 439.5 L 223.5 438 Q 221.8 440.8 220 436.5 L 219.5 435 L 218 435.5 Q 220.3 434.3 217.5 433 L 216 433.5 L 215.5 432 Q 214.3 434.3 213 431.5 Q 215.3 430.3 212.5 429 L 210.5 430 Q 206.8 428 208.5 426 L 206.5 426 L 200 419.5 Q 200.8 417.3 198.5 418 L 197 414 L 193 411.5 L 193.5 410 L 190 407.5 L 189.5 404 L 188 404.5 Q 190.5 403 187 401.5 Q 187.8 399.3 185.5 400 Q 182.8 398.7 185 397.5 L 184.5 396 L 183 396.5 L 184 395.5 L 181 392.5 L 181 388.5 Q 181.8 386.3 179.5 387 L 179.5 385 Q 177.3 385.8 178 383.5 Q 180.5 382 177 380.5 L 176 377.5 L 177 375.5 L 175 375.5 L 176 363.5 L 174 360.5 L 175 360.5 L 175.5 362 L 176 354.5 L 175 351.5 L 176 346.5 L 176 344.5 L 175.5 343 Q 174.2 345.3 173 342.5 L 172.5 341 L 171 341.5 L 171.5 340 L 167.5 339 L 163.5 341 L 163.5 340 L 165 339.5 L 162.5 339 L 157.5 340 L 154.5 338 L 151.5 339 L 151.5 337 L 148 338 Q 149.3 335 145.5 336 L 142.5 337 L 142.5 335 L 138.5 336 L 138.5 334 L 135.5 335 L 135 333 L 132.5 334 L 131.5 332 L 129.5 333 L 125 331 L 124.5 329 L 123 329.5 L 123.5 328 L 121.5 327 Q 120 329.5 118.5 326 L 114 322.5 L 114 321 L 112 321 Q 113.1 318.3 110.5 319 Q 105 317.4 106 311 L 103 309.5 L 104 307.5 L 102 307.5 L 100.5 300 L 99 300.5 L 100 297 Q 97.3 298.1 98 295.5 L 98 293.5 L 99 288.5 L 98 284.5 L 98 282.5 Q 97.3 280.3 99.5 281 L 99.5 279 Q 101.8 279.8 101 277.5 L 99 277.5 Q 102.1 275.8 100.5 274 L 102 274.5 L 101 272.5 L 103 272 L 102 269.5 L 104 269.5 L 105 267.5 L 105 265.5 L 106.5 263 L 108 262.5 L 107.5 261 L 109 261.5 L 108 259.5 L 108 257.5 L 109 255.5 L 108.5 253 L 102 249.5 L 102.5 248 L 98.5 249 L 94 248 Q 95.3 245 91.5 246 L 90 246.5 L 90.5 245 L 87.5 246 L 87.5 244 L 85.5 245 Q 84 241.5 82.5 244 L 81 243.5 L 81.5 242 L 79.5 243 L 78.5 241 L 77 241.5 L 76.5 240 L 75 240.5 L 74.5 239 L 73 239.5 L 72.5 238 Q 70.8 240.8 69 236.5 L 68.5 235 Q 66.8 237.7 65 233.5 Q 65.8 231.3 63.5 232 Q 58.7 229.5 60.5 227 L 57 224.5 L 56 222.5 L 57 220.5 L 55 220.5 L 55.5 219 L 54 218.5 L 54.5 217 Q 52.3 217.8 53 215.5 L 53.5 214 Q 51.3 214.8 52 212.5 L 53 210 Q 50 211.3 51 207.5 L 52 205.5 L 51 201.5 L 52 199.5 L 51 197.5 Q 54.5 196 52 194.5 L 52.5 192 L 53.5 194 L 54 191.5 L 53 189.5 L 55 184 L 57 184 L 57 180 L 58.5 180 L 58.5 178 L 60 178.5 L 62 175.5 L 61.5 174 L 63 173.5 L 62 172.5 L 66 168.5 L 74.5 159 Q 76.8 159.8 76 157.5 Q 78.5 152.7 81 154.5 L 83.5 151 L 86.5 149 L 88 149.5 L 90.5 146 L 92 146.5 L 93.5 144 L 95 144.5 Q 94.2 141.9 97.5 143 L 99.5 140 L 101 140.5 Q 100.3 138.3 102.5 139 Q 104.3 135.9 106 137.5 Q 105.3 135.3 107.5 136 L 113 134.5 L 112.5 133 L 114.5 134 L 114.5 132 L 116.5 133 L 116.5 131 L 118.5 131 L 121.5 129 L 134.5 123 L 136 123.5 L 136.5 122 Q 138 124.5 139.5 121 L 141.5 120 L 144.5 121 L 148 120 Q 146.9 117.3 149.5 118 L 152.5 117 L 154 117.5 L 154.5 116 L 157 117 Q 155.8 114 159.5 115 L 161.5 114 L 164 115 L 164.5 113 L 167 114 L 167.5 112 Q 169 114.5 170.5 111 L 173.5 112 Q 175 108.5 176.5 111 L 179 110.5 L 178.5 109 L 181.5 110 L 184.5 108 L 186.5 109 L 188.5 107 L 198.5 105 L 200.5 106 L 204.5 104 L 207.5 105 L 207.5 103 L 213.5 104 L 213.5 102 L 219 103 L 219.5 101 L 220.5 103 Q 222 99.5 223.5 102 L 227.5 101 L 232.5 102 L 232.5 101 Q 229.5 101.5 230.5 100 Z M 225 233 L 225 235 L 224 234 L 222 235 L 219 236 L 217 235 L 216 238 L 215 237 L 213 238 L 209 240 L 208 239 L 205 240 L 205 242 L 203 241 L 199 246 Q 192 244 194 249 L 190 252 L 185 252 Q 186 255 184 254 L 180 258 L 179 262 L 183 267 L 185 266 Q 187 265 186 268 L 190 267 L 194 268 L 192 269 L 197 269 L 199 269 L 208 268 L 210 268 L 214 269 Q 220 271 219 267 L 223 268 Q 224 264 226 267 Q 228 268 227 265 L 230 266 Q 232 267 231 264 L 234 265 L 235 263 L 238 264 L 237 263 L 239 262 L 241 262 Q 240 259 245 260 L 244 259 L 246 259 L 246 258 Q 247 255 249 257 L 252 253 L 256 250 L 255 249 L 258 247 L 257 245 L 259 244 L 259 242 Q 256 243 257 241 L 257 239 L 255 236 L 253 237 L 251 235 Q 249 238 248 236 L 246 237 L 245 236 L 244 236 L 239 235 L 237 233 L 234 234 L 225 233 Z "/>
    <path fill="#f783ac" d="M 375.5 68 L 378 68.5 L 372.5 72 L 375.5 68 Z "/>
    <path fill="#f783ac" d="M 386.5 77 L 389 78 L 392 82.5 L 386.5 77 Z "/>
    <path fill="#f783ac" d="M 446.5 81 L 448.5 84 Q 446.3 84.8 447 82.5 L 446.5 81 Z "/>
    <path fill="#f783ac" d="M 446.5 89 L 447 90.5 L 444.5 96 L 444 94.5 L 446.5 89 Z "/>
    <path fill="#f783ac" d="M 405.5 91 L 415 92.5 L 406.5 93 L 405.5 91 Z "/>
    <path fill="#f783ac" d="M 233.5 100 L 236 101.5 L 234.5 101 L 228.5 102 L 228.5 101 L 233.5 100 Z "/>
    <path fill="#f783ac" d="M 247.5 100 L 249 100.5 L 245.5 102 L 245.5 101 L 247.5 100 Z "/>
    <path fill="#f783ac" d="M 252.5 101 L 257 101.5 L 252.5 102 L 252.5 101 Z "/>
    <path fill="#f783ac" d="M 259.5 102 L 268 104.5 L 266.5 105 L 259.5 103 L 259.5 102 Z "/>
    <path fill="#f783ac" d="M 361.5 114 L 362 115.5 L 358 118.5 L 361.5 114 Z "/>
    <path fill="#f783ac" d="M 439.5 117 L 442 122.5 L 440 121.5 L 439.5 117 Z "/>
    <path fill="#f783ac" d="M 145.5 119 L 148 119.5 L 141.5 122 L 142.5 120 L 145.5 119 Z "/>
    <path fill="#f783ac" d="M 345.5 124 L 344.5 126 L 342.5 127 L 343.5 125 L 345.5 124 Z "/>
    <path fill="#f783ac" d="M 257.5 129 L 265 129.5 L 257.5 130 L 257.5 129 Z "/>
    <path fill="#f783ac" d="M 118.5 130 L 120 130.5 L 110.5 135 L 110.5 134 L 118.5 130 Z "/>
    <path fill="#f783ac" d="M 220.5 131 L 221.5 133 L 219.5 133 L 216 132.5 L 220.5 131 Z "/>
    <path fill="#f783ac" d="M 198.5 134 L 203 134.5 L 198.5 135 L 198.5 134 Z "/>
    <path fill="#f783ac" d="M 184.5 136 L 190 136.5 L 181.5 138 L 181.5 137 L 184.5 136 Z "/>
    <path fill="#f783ac" d="M 171.5 139 L 173 139.5 L 169.5 141 L 169.5 140 L 171.5 139 Z "/>
    <path fill="#f783ac" d="M 159.5 142 L 163 142.5 L 158.5 144 L 159.5 142 Z "/>
    <path fill="#f783ac" d="M 353.5 148 L 358 149.5 L 356.5 150 L 353.5 149 L 353.5 148 Z "/>
    <path fill="#f783ac" d="M 112.5 161 L 114 161.5 L 110.5 164 L 112.5 161 Z "/>
    <path fill="#f783ac" d="M 107.5 164 L 109 164.5 L 105.5 167 L 107.5 164 Z "/>
    <path fill="#f783ac" d="M 410.5 168 L 410 169.5 L 406.5 175 L 407 173.5 L 410.5 168 Z "/>
    <path fill="#f783ac" d="M 374.5 169 Q 377.9 168.1 376 173.5 L 377 176.5 L 375 175.5 L 375 173.5 L 374.5 169 Z "/>
    <path fill="#f783ac" d="M 97.5 172 L 89.5 181 L 90 179.5 L 91.5 177 L 97.5 172 Z "/>
    <path fill="#f783ac" d="M 60 175 L 62 175.5 L 58.5 180 L 59 178.5 L 60 175 Z "/>
    <path fill="#f783ac" d="M 398 187 L 400 187.5 L 396.5 192 L 396 190.5 L 398 187 Z "/>
    <path fill="#f783ac" d="M 228.5 188 L 237 188.5 L 228.5 189 L 228.5 188 Z "/>
    <path fill="#f783ac" d="M 247.5 188 L 252 188.5 L 247.5 189 L 247.5 188 Z "/>
    <path fill="#f783ac" d="M 220.5 189 L 225 189.5 L 218.5 191 L 218.5 190 L 220.5 189 Z "/>
    <path fill="#f783ac" d="M 263.5 191 L 269 192.5 L 266.5 193 L 263.5 192 L 263.5 191 Z "/>
    <path fill="#f783ac" d="M 282.5 199 L 290 204.5 L 287.5 203 Q 282.9 201.8 282.5 199 Z "/>
    <path fill="#f783ac" d="M 83.5 203 L 87 207.5 L 84 205.5 L 83.5 203 Z "/>
    <path fill="#f783ac" d="M 297.5 216 L 299 219.5 L 298 219.5 L 297.5 216 Z "/>
    <path fill="#f783ac" d="M 55.5 219 L 58 222.5 L 56 221.5 L 55.5 219 Z "/>
    <path fill="#f783ac" d="M 301.5 229 L 301 230.5 L 300.5 234 L 300 230.5 L 301.5 229 Z "/>
    <path fill="#f783ac" d="M 225 233 L 231 233.5 L 225 235 L 225 233 Z "/>
    <path fill="#f783ac" d="M 234.5 233 L 238 234.5 L 235.5 235 L 234.5 233 Z "/>
    <path fill="#f783ac" d="M 216.5 235 L 218.5 236 L 220 235.5 L 216 237 L 216.5 235 Z "/>
    <path fill="#f783ac" d="M 202.5 241 Q 205.1 240.3 204 243 L 201.5 244 L 201 242.5 L 202.5 241 Z "/>
    <path fill="#f783ac" d="M 89.5 245 L 94 246.5 L 91.5 247 L 89.5 245 Z "/>
    <path fill="#f783ac" d="M 185.5 252 L 192 252.5 L 185.5 253 L 185.5 252 Z "/>
    <path fill="#f783ac" d="M 108.5 255 L 110 257.5 L 108 258.5 L 109 256.5 L 108.5 255 Z "/>
    <path fill="#f783ac" d="M 104.5 267 L 104 268.5 L 102.5 272 L 102 270.5 L 104.5 267 Z "/>
    <path fill="#f783ac" d="M 218.5 267 L 219 269 L 213 268.5 L 218.5 267 Z "/>
    <path fill="#f783ac" d="M 192.5 268 L 197 268.5 L 192.5 269 L 192.5 268 Z "/>
    <path fill="#f783ac" d="M 259.5 285 L 257.5 288 L 256 287.5 L 259.5 285 Z "/>
    <path fill="#f783ac" d="M 249.5 290 L 252 290.5 L 248.5 292 L 249.5 290 Z "/>
    <path fill="#f783ac" d="M 99.5 297 L 101 302.5 L 100 302.5 L 99.5 297 Z "/>
    <path fill="#f783ac" d="M 225.5 298 L 224 300.5 L 223.5 305 L 223 300.5 L 225.5 298 Z "/>
    <path fill="#f783ac" d="M 246.5 316 L 249 317 L 251 320.5 L 246.5 316 Z "/>
    <path fill="#f783ac" d="M 119.5 325 L 125 329.5 L 123.5 329 L 119.5 325 Z "/>
    <path fill="#f783ac" d="M 254.5 331 L 255 335.5 L 254 335.5 L 254.5 331 Z "/>
    <path fill="#f783ac" d="M 162.5 339 L 166.5 340 L 168.5 340 Q 172.3 339.3 173 341.5 L 171.5 341 Q 164 342 162.5 339 Z "/>
    <path fill="#f783ac" d="M 174.5 342 L 177 345.5 L 175 344.5 L 174.5 342 Z "/>
    <path fill="#f783ac" d="M 176.5 351 L 177 353.5 L 175 362.5 L 176 363.5 L 176 371.5 L 175 371.5 L 174 362.5 L 176.5 351 Z "/>
    <path fill="#f783ac" d="M 213.5 394 L 215 398.5 L 214 398.5 L 213.5 394 Z "/>
    <path fill="#f783ac" d="M 186.5 400 L 190 405.5 L 189 405.5 L 186 401.5 L 186.5 400 Z "/>
    <path fill="#f783ac" d="M 207.5 426 L 216 432.5 L 213.5 431 L 207.5 427 L 207.5 426 Z "/>
    <path fill="#f783ac" d="M 217.5 433 L 219.5 436 L 217 435 L 217.5 433 Z "/>
    <path fill="#f783ac" d="M 240.5 433 L 242 436 Q 244.7 434.9 244 437.5 L 244.5 439 Q 240.4 436.7 240.5 433 Z "/>
  </g>
  <g id="line">
    <path fill="#1a1a1a" d="M 370.5 55 L 382.5 55 L 395 64.5 L 403.5 75 Q 407 79.5 416.5 78 L 436.5 69 L 451.5 68 Q 458.4 69.6 461 75.5 Q 463.2 80.3 462 88.5 L 454 107.5 L 453 114.5 Q 456 122 462.5 126 L 466 128.5 Q 472 134.5 475 143.5 L 475 154.5 Q 472 162 465.5 166 L 451.5 170 L 435.5 170 L 430.5 171 Q 424.8 172.3 422 176.5 L 406 203 L 393.5 211 L 381.5 211 L 372 204.5 L 364 188.5 L 361 170.5 L 355.5 164 L 330.5 158 L 318 148.5 L 315 140.5 L 315 135.5 Q 317.6 124.1 326.5 119 L 345.5 110 L 353 103.5 L 355 95.5 Q 353.3 82.8 356 74.5 L 358 67.5 L 365.5 58 L 370.5 55 Z M 376 68 L 374 69 L 369 77 L 368 99 L 363 113 L 354 121 L 335 130 L 329 136 L 329 141 L 337 146 L 358 150 L 365 154 L 373 165 L 375 171 L 377 186 L 383 197 L 386 198 Q 391 199 393 196 Q 395 197 394 194 L 396 194 L 411 169 Q 417 161 428 158 L 450 157 L 459 154 L 462 150 L 460 143 Q 447 133 440 118 L 441 105 Q 446 96 449 85 L 447 81 L 435 84 L 420 91 L 415 92 L 405 91 L 393 83 L 385 74 L 379 68 L 376 68 Z "/>
    <path fill="#1a1a1a" d="M 229.5 87 L 252.5 87 L 253.5 88 L 265.5 89 L 278.5 94 L 288 102.5 L 293 113.5 L 293 121.5 L 292 126.5 L 286 136 L 274.5 142 L 269.5 143 L 242.5 144 L 241.5 145 L 228.5 145 L 227.5 146 L 208.5 147 L 162.5 156 L 126.5 170 L 110.5 180 L 102 187.5 L 100 190.5 Q 95.9 192.4 97 199.5 Q 102.8 205.7 112.5 208 L 129.5 209 L 144.5 205 L 177.5 188 L 199.5 180 L 222.5 175 L 248.5 174 L 270.5 178 L 283.5 183 Q 295 189 303 198.5 L 311 210.5 L 311 213.5 L 314 219.5 L 315 239.5 Q 312.8 240.8 314 245.5 L 308 260.5 Q 300.5 273.5 289.5 283 L 269.5 297 L 255 303 Q 253.5 306.7 256.5 306 Q 268.4 314.6 269 334.5 L 266 346.5 L 258 359 L 243.5 369 L 233.5 373 L 227 378.5 L 226 387.5 L 228 395.5 L 233 404.5 L 257 431.5 L 260 442.5 L 258 450.5 L 252.5 456 Q 246 459.5 234.5 458 Q 205.3 448.2 188 426.5 L 186 423.5 Q 173.2 410.3 166 391.5 L 161 372.5 L 161 356.5 L 161 354.5 L 160.5 353 L 153.5 353 L 128.5 347 L 116.5 341 Q 104.7 334.8 97 324.5 L 88 309.5 L 85 299.5 Q 86.2 291.2 84 286.5 L 85 285.5 L 86 274.5 L 91 261.5 L 87.5 259 L 80.5 258 L 67.5 252 Q 56.8 245.8 49 236.5 L 41 222.5 L 38 212.5 L 38 193.5 Q 46.3 162.8 68.5 146 L 98.5 125 L 135.5 108 L 184.5 94 L 189.5 94 L 198.5 91 L 204.5 91 L 217.5 88 L 228.5 88 L 229.5 87 Z M 231 100 L 230 101 L 220 101 L 213 103 L 208 103 L 188 108 L 179 109 L 142 120 Q 106 133 80 154 Q 67 164 58 179 Q 53 186 51 198 L 52 214 L 60 229 L 72 239 Q 85 247 105 250 L 108 254 L 108 261 Q 101 269 98 282 L 98 297 L 106 315 Q 115 327 130 333 L 147 338 L 173 342 L 176 347 L 175 360 L 174 361 L 175 376 L 181 393 L 196 416 Q 207 429 223 439 L 239 445 Q 244 446 246 444 L 245 438 Q 231 426 221 411 L 213 392 Q 211 377 217 370 L 225 363 L 243 354 Q 252 349 255 338 Q 257 325 251 320 Q 247 314 241 312 L 228 311 Q 223 310 224 302 L 229 298 L 252 291 Q 267 284 280 274 L 293 260 L 299 249 L 302 239 L 301 223 L 294 209 Q 286 198 274 193 L 260 189 L 248 188 L 247 187 L 227 188 L 203 193 L 171 206 L 151 217 L 134 222 Q 108 224 94 214 Q 86 210 83 201 L 84 191 L 91 180 L 112 163 L 139 150 L 165 143 L 168 141 L 200 135 L 214 134 L 215 133 L 268 130 L 274 128 Q 279 126 280 120 L 278 112 L 273 106 L 259 101 Q 254 102 253 100 L 231 100 Z "/>
    <path fill="#1a1a1a" d="M 249.5 236 L 256 238.5 L 258 243.5 Q 255.1 251.6 248.5 256 L 236.5 263 L 223.5 267 Q 218 265.5 216.5 268 L 194.5 268 L 183.5 266 L 180 262.5 Q 178.8 255.3 183.5 254 L 189.5 253 L 195.5 255 L 214.5 255 L 232.5 250 L 244 241.5 L 247.5 237 L 249.5 236 Z "/>
  </g>
</svg>
