<svg xmlns="http://www.w3.org/2000/svg" width="512" height="512" viewBox="0 0 512 512">
  <g id="color">
    <path fill="#ffffff" d="M 74.5 36 L 79 36.5 L 74.5 37 L 74.5 36 Z "/>
    <path fill="#ffffff" d="M 434.5 36 L 439 36.5 L 434.5 37 L 434.5 36 Z "/>
    <path fill="#ffffff" d="M 98.5 55 L 101 58.5 L 99 57.5 L 98.5 55 Z "/>
    <path fill="#ffffff" d="M 455.5 61 L 456 66.5 L 455 66.5 L 455.5 61 Z "/>
    <path fill="#ffffff" d="M 239.5 64 L 247 64.5 L 239.5 65 L 239.5 64 Z "/>
    <path fill="#ffffff" d="M 265.5 64 L 275 64.5 L 265.5 65 L 265.5 64 Z "/>
    <path fill="#ffffff" d="M 57.5 65 L 58 69.5 L 57 69.5 L 57.5 65 Z "/>
    <path fill="#ffffff" d="M 230.5 65 L 237 65.5 L 230.5 66 L 230.5 65 Z "/>
    <path fill="#ffffff" d="M 277.5 65 L 284 65.5 L 277.5 66 L 277.5 65 Z "/>
    <path fill="#ffffff" d="M 285.5 66 L 290 66.5 L 285.5 67 L 285.5 66 Z "/>
    <path fill="#ffffff" d="M 208.5 69 L 211 69.5 L 205.5 71 L 205.5 70 L 208.5 69 Z "/>
    <path fill="#ffffff" d="M 456.5 69 L 457 90.5 L 456 90.5 L 456.5 69 Z "/>
    <path fill="#ffffff" d="M 194.5 73 L 196 73.5 L 191.5 75 L 191.5 74 L 194.5 73 Z "/>
    <path fill="#ffffff" d="M 56.5 75 L 57 81.5 L 56 81.5 L 56.5 75 Z "/>
    <path fill="#ffffff" d="M 180.5 78 L 182 78.5 L 178.5 80 L 178.5 79 L 180.5 78 Z "/>
    <path fill="#ffffff" d="M 332.5 78 L 336 79.5 L 334.5 80 L 332.5 78 Z "/>
    <path fill="#ffffff" d="M 173.5 81 L 175 81.5 L 169.5 84 L 169.5 83 L 173.5 81 Z "/>
    <path fill="#ffffff" d="M 348.5 85 L 360 91.5 L 358.5 91 L 349.5 87 L 348.5 85 Z "/>
    <path fill="#ffffff" d="M 57.5 87 L 58 93.5 L 57 93.5 L 57.5 87 Z "/>
    <path fill="#ffffff" d="M 131.5 90 L 135 92.5 L 133.5 92 L 131.5 90 Z "/>
    <path fill="#ffffff" d="M 155.5 90 L 154.5 92 L 152.5 93 L 153.5 91 L 155.5 90 Z "/>
    <path fill="#ffffff" d="M 380.5 91 L 379.5 93 L 377.5 94 L 378.5 92 L 380.5 91 Z "/>
    <path fill="#ffffff" d="M 455.5 93 L 456 98.5 L 455 98.5 L 455.5 93 Z "/>
    <path fill="#ffffff" d="M 148.5 94 L 147.5 96 L 145.5 97 L 146.5 95 L 148.5 94 Z "/>
    <path fill="#ffffff" d="M 374.5 94 L 376 94.5 L 370.5 97 L 370.5 96 L 374.5 94 Z "/>
    <path fill="#ffffff" d="M 59.5 105 L 61 112.5 L 60 112.5 L 59.5 105 Z "/>
    <path fill="#ffffff" d="M 64.5 125 L 66 128.5 L 65 128.5 L 64.5 125 Z "/>
    <path fill="#ffffff" d="M 447.5 129 L 448 130.5 L 446.5 133 L 446 131.5 L 447.5 129 Z "/>
    <path fill="#ffffff" d="M 68.5 135 L 70 138.5 L 69 138.5 L 68.5 135 Z "/>
    <path fill="#ffffff" d="M 73.5 146 L 76 149.5 L 74 148.5 L 73.5 146 Z "/>
    <path fill="#ffffff" d="M 439.5 147 L 439 148.5 L 437.5 151 L 438 149.5 L 439.5 147 Z "/>
    <path fill="#ffffff" d="M 76.5 151 L 80 155.5 L 77 153.5 L 76.5 151 Z "/>
    <path fill="#ffffff" d="M 426.5 166 L 422 171.5 L 421.5 174 L 421 171.5 L 426.5 166 Z "/>
    <path fill="#ffffff" d="M 90.5 179 L 91 184.5 L 90 184.5 L 90.5 179 Z "/>
    <path fill="#ffffff" d="M 423.5 185 L 424 191.5 L 423 191.5 L 423.5 185 Z "/>
    <path fill="#ffffff" d="M 89.5 188 L 90 193.5 L 89 193.5 L 89.5 188 Z "/>
    <path fill="#ffffff" d="M 424.5 196 L 425 204.5 L 424 204.5 L 424.5 196 Z "/>
    <path fill="#ffffff" d="M 88.5 201 L 89 209.5 L 88 209.5 L 88.5 201 Z "/>
    <path fill="#ffffff" d="M 425.5 207 L 426 228.5 L 425 228.5 L 425.5 207 Z "/>
    <path fill="#ffffff" d="M 88.5 223 L 89 236.5 L 88 236.5 L 88.5 223 Z "/>
    <path fill="#ffffff" d="M 424.5 232 L 425 243.5 L 424 243.5 L 424.5 232 Z "/>
    <path fill="#ffffff" d="M 89.5 244 L 90 250.5 L 89 250.5 L 89.5 244 Z "/>
    <path fill="#ffffff" d="M 423.5 249 L 424 254.5 L 423 254.5 L 423.5 249 Z "/>
    <path fill="#ffffff" d="M 90.5 254 L 91 261.5 L 90 261.5 L 90.5 254 Z "/>
    <path fill="#ffffff" d="M 91.5 263 L 92 268.5 L 91 268.5 L 91.5 263 Z "/>
    <path fill="#ffffff" d="M 421.5 268 L 422 272.5 L 420.5 278 L 420 273.5 L 421.5 268 Z "/>
    <path fill="#ffffff" d="M 99.5 303 L 101 308.5 L 100 308.5 L 99.5 303 Z "/>
    <path fill="#ffffff" d="M 102.5 313 L 105 321.5 L 104 321.5 L 102.5 313 Z "/>
    <path fill="#ffffff" d="M 408.5 322 L 409 323.5 L 407.5 327 L 407 324.5 L 408.5 322 Z "/>
    <path fill="#ffffff" d="M 111.5 344 L 114 353.5 L 113 353.5 L 111.5 344 Z "/>
    <path fill="#ffffff" d="M 116.5 363 L 118 366.5 L 117 366.5 L 116.5 363 Z "/>
    <path fill="#ffffff" d="M 395.5 367 L 396 368.5 L 394.5 371 L 394 369.5 L 395.5 367 Z "/>
    <path fill="#ffffff" d="M 119.5 371 L 123 378.5 L 122 378.5 L 119.5 371 Z "/>
    <path fill="#ffffff" d="M 124.5 382 L 127 385.5 L 125 384.5 L 124.5 382 Z "/>
    <path fill="#ffffff" d="M 387.5 385 L 387 386.5 L 385.5 389 L 386 387.5 L 387.5 385 Z "/>
    <path fill="#ffffff" d="M 174.5 436 L 180 440.5 L 177.5 439 L 174.5 436 Z "/>
    <path fill="#ffffff" d="M 332.5 441 L 330.5 444 L 327.5 446 L 329.5 443 L 332.5 441 Z "/>
    <path fill="#ffffff" d="M 315.5 454 L 313.5 457 L 311.5 458 L 312.5 456 L 315.5 454 Z "/>
    <path fill="#ffffff" d="M 308.5 459 L 307.5 461 L 305.5 462 L 306.5 460 L 308.5 459 Z "/>
    <path fill="#ffffff" d="M 211.5 463 L 215 465.5 L 213.5 465 L 211.5 463 Z "/>
    <path fill="#ffffff" d="M 300.5 464 L 299.5 466 L 297.5 467 L 298.5 465 L 300.5 464 Z "/>
    <path fill="#ffffff" d="M 294.5 467 L 296 467.5 L 290.5 470 L 290.5 469 L 294.5 467 Z "/>
    <path fill="#ffffff" d="M 220.5 468 L 226 470.5 L 224.5 471 L 220.5 469 L 220.5 468 Z "/>
    <path fill="#ffffff" d="M 281.5 472 L 284 472.5 L 275.5 475 L 275.5 474 L 281.5 472 Z "/>
    <path fill="#ffffff" d="M 248.5 476 L 255 476.5 L 248.5 477 L 248.5 476 Z "/>
    <path fill="#ffffff" d="M 258.5 476 L 266 476.5 L 258.5 477 L 258.5 476 Z "/>
    <path fill="#ff6b6b" d="M 240 77 L 245.5 78 L 246.5 77 L 272.5 77 Q 274 80.5 275.5 78 Q 282.2 76.8 284.5 80 L 288 79 L 288.5 81 L 292.5 80 L 307.5 83 L 315.5 87 L 317.5 87 L 325 89 L 325.5 91 L 327.5 90 L 335 93 Q 333.9 95.7 336.5 95 L 338.5 95 L 343 97.5 L 343.5 99 L 345 98.5 Q 344.3 100.8 346.5 100 L 348.5 100 L 358 105.5 L 355 116.5 L 353 118.5 L 354 119.5 L 354 129.5 L 356 134.5 L 355 136.5 L 357 136.5 L 359 142.5 L 358.5 144 L 361 145.5 L 370 160 L 377 165.5 Q 376.2 168.5 380 167 L 380 169 L 382.5 169 L 395.5 176 L 408.5 177 L 410 178.5 L 409 182.5 L 411 184.5 L 412 196.5 L 412 198.5 L 411 200.5 L 413 202.5 L 413 232.5 L 411 239.5 Q 413.7 241.3 412 247.5 L 411 248.5 L 411 256.5 L 409 259.5 Q 411.2 260.8 410 265.5 L 406 287 L 404 287.5 L 405 292 L 403 292.5 L 404 296 L 402 296.5 L 403 298.5 L 400 309 L 398 309.5 L 399 311.5 L 397 318.5 L 395 320.5 L 395 324.5 L 390 343 L 388 343.5 L 389 346.5 L 387 354.5 L 385 356.5 L 386 358.5 L 385 361 L 383 361.5 L 384 363.5 L 380 373 L 378 373.5 L 378 375.5 L 371 389 L 368 390.5 L 369 391.5 L 365 395.5 L 352.5 410 L 322.5 434 L 320 434 L 318.5 437 L 300.5 450 Q 299.3 447.8 298 450.5 Q 298.9 453.5 294.5 452 L 294.5 454 L 271.5 463 L 269.5 463 L 264.5 464 L 262.5 464 L 246.5 464 L 224 457 L 223.5 455 Q 222.3 457.3 221 454.5 L 220.5 453 L 218.5 453 L 213 449.5 L 212.5 448 L 211 448.5 L 209.5 446 Q 207.8 448.7 206 444.5 L 205.5 443 Q 204 445.5 202.5 442 L 196 437.5 Q 196.8 434.9 193.5 436 L 185 428.5 L 184.5 427 L 183 427.5 Q 183.8 424.9 180.5 426 L 174 420.5 Q 174.8 417.9 171.5 419 L 170 416 Q 160.9 412.1 155 403.5 L 150 396 L 146 393.5 L 144 388 Q 141.3 389.1 142 386.5 L 136 377.5 L 136 375.5 L 135.5 374 L 134 374.5 L 133 371.5 L 133.5 370 Q 131.3 370.8 132 368.5 L 128 357.5 L 128.5 356 Q 126.3 356.8 127 354.5 Q 129.5 353 126 351.5 L 127 349.5 L 125 349 L 126 345.5 L 124 345 L 125 341.5 L 123 340.5 Q 125.5 339 122 337.5 L 123 335.5 L 121 332.5 Q 123.5 331 120 329.5 L 112 301.5 L 112.5 300 Q 109.5 300.9 111 296.5 L 109 291.5 Q 111.5 290 108 288.5 L 105 271.5 Q 107.5 270 104 268.5 L 103 256.5 L 103.5 253 Q 100.5 253.9 102 249.5 L 102 247.5 L 103 242.5 L 101 238.5 L 101 236.5 Q 99.5 231 102 229.5 L 101 228.5 L 101 206.5 L 101 204.5 Q 100 198.5 103 196.5 L 102 193.5 L 102 191.5 L 104 182.5 L 103 180.5 L 106 179 Q 104.7 175.3 110.5 177 L 113.5 178 Q 115.8 178.8 115 176.5 Q 116.8 178.1 118.5 175 L 127.5 172 L 148 155.5 Q 145.8 154.3 148.5 153 Q 151.1 153.8 150 150.5 L 156 141.5 L 156 139.5 L 157.5 135 L 159 135.5 L 158 132.5 L 160 122.5 L 158 113.5 Q 160.5 112 157 110.5 L 155 106.5 L 158.5 103 L 184.5 91 L 186 91.5 Q 185.3 89.3 187.5 90 L 191.5 88 L 204.5 84 L 206.5 85 L 206.5 83 L 208.5 84 L 210.5 82 L 215.5 81 L 217.5 81 L 223.5 80 L 225 80.5 Q 224.4 77.8 230.5 79 Q 232.3 76.2 238.5 78 L 240 78.5 L 240 77 Z M 172 190 L 171 191 L 151 191 L 147 194 Q 148 196 145 195 L 148 202 L 159 204 L 164 203 L 166 203 L 173 204 L 172 204 L 172 205 L 175 204 L 180 205 Q 181 208 183 206 L 191 209 L 190 211 L 194 212 Q 197 211 196 214 L 198 213 L 199 216 L 201 215 L 215 225 L 241 248 L 255 255 L 264 253 L 266 253 Q 268 254 267 251 L 270 251 L 270 250 L 272 250 L 272 249 L 276 246 L 279 244 L 283 240 L 284 241 Q 286 240 284 239 L 290 234 Q 292 235 291 233 L 296 229 L 301 224 L 302 225 L 302 224 L 316 213 L 334 205 L 337 206 L 337 204 L 339 205 L 342 203 L 359 203 L 360 204 L 367 201 L 366 200 L 368 196 L 363 191 L 344 191 L 343 190 L 342 192 L 336 191 L 336 193 L 333 192 L 332 194 L 321 197 L 319 197 L 318 199 Q 297 208 283 224 Q 279 223 280 226 L 272 233 Q 269 237 267 236 L 265 239 L 259 242 L 255 242 L 248 238 Q 245 237 247 236 L 244 235 L 240 231 L 239 231 L 222 216 L 218 212 L 217 212 L 211 207 Q 208 208 209 205 L 207 205 L 191 196 L 182 194 L 182 192 L 177 193 L 177 191 L 172 192 L 172 190 Z M 273 331 L 271 333 L 263 335 L 260 334 L 254 337 L 251 336 L 250 338 L 225 347 L 223 347 L 222 349 L 221 348 L 204 357 L 202 357 L 201 359 L 198 361 Q 194 360 195 363 L 187 367 Q 182 369 183 377 L 187 379 L 191 379 L 199 374 L 202 374 L 201 373 L 205 370 L 207 371 L 206 370 L 233 356 L 235 357 L 235 355 L 253 349 L 255 350 L 255 348 L 263 347 L 265 347 Q 266 344 271 345 L 272 346 Q 271 343 275 344 L 277 344 L 284 344 L 292 352 Q 291 354 294 353 Q 301 359 305 369 L 307 369 Q 306 372 309 371 L 312 377 L 315 380 L 314 381 L 324 384 L 326 381 Q 325 376 327 375 L 326 374 L 321 369 L 321 366 L 320 366 L 308 351 L 303 346 L 304 345 Q 303 342 302 344 L 296 337 L 294 337 L 286 332 L 274 332 L 273 331 Z "/>
    <path fill="#ffa94d" d="M 76.5 49 L 84 55.5 Q 92.1 72.1 103 85 L 106 86.5 L 106 88 L 108 88 Q 106.9 90.7 109.5 90 L 129.5 105 L 145 112.5 L 148 122.5 L 144 137.5 L 139 146 Q 136.3 144.9 137 147.5 L 135 151 L 133 151 Q 134.1 153.7 131.5 153 L 126.5 158 L 117.5 163 L 104.5 165 L 98 159.5 L 92 150 Q 89.3 151.1 90 148.5 Q 82 138 77 124.5 L 72 106.5 L 70 90.5 L 70 88.5 L 70 70.5 L 71 68.5 L 71 66.5 L 72 56.5 L 76.5 49 Z "/>
    <path fill="#ffa94d" d="M 436.5 49 L 439 50 L 442 58.5 L 444 69.5 L 444 88.5 L 443 89.5 L 443 98.5 L 441 108.5 L 437 119.5 L 437 121.5 L 434 130.5 L 422 152 Q 419.3 150.9 420 153.5 L 412.5 163 Q 409.8 165.8 403.5 165 L 391.5 161 L 379 150.5 Q 379.8 148.3 377.5 149 L 367 131.5 L 366 117.5 L 371.5 110 L 382.5 106 Q 385.9 101.4 392.5 100 L 410 84.5 L 412 81.5 L 417 76.5 L 431 53.5 L 434.5 50 L 436.5 49 Z "/>
    <path fill="#f783ac" d="M 301.5 342 L 303.5 345 Q 301.3 345.8 302 343.5 L 301.5 342 Z "/>
  </g>
  <g id="line">
    <path fill="#1a1a1a" d="M 72.5 37 L 81.5 37 Q 89 40 93 46.5 Q 101.2 63.8 113.5 77 Q 115.8 76.3 115 78.5 L 132.5 92 L 142.5 97 L 145.5 97 L 168.5 84 L 199.5 72 L 228.5 66 L 246.5 65 L 247.5 64 L 264.5 64 L 265.5 65 L 276.5 65 L 277.5 66 L 291.5 67 L 313.5 72 L 336.5 80 L 362.5 93 L 367.5 97 L 371.5 97 Q 390.2 88.2 403 73.5 L 419 48.5 L 426.5 40 Q 430.7 35.7 440.5 37 L 448 42.5 L 453 51.5 L 455 60.5 Q 453.5 66 456 67.5 L 456 92.5 L 455 93.5 L 453 111.5 L 445 136.5 L 437 151.5 L 421 171.5 L 421 173.5 L 423 181.5 L 424 204.5 L 425 205.5 L 425 231.5 L 424 232.5 L 423 260.5 L 418 289.5 L 409 321.5 L 407 324.5 L 396 366.5 Q 382.9 400.4 357.5 422 L 316.5 454 L 296.5 467 L 274.5 475 L 255.5 477 L 254.5 476 L 244.5 476 L 235.5 474 Q 220.4 469.6 208.5 462 L 159.5 425 L 141 406.5 L 129 390.5 L 118 368.5 L 105 319.5 L 98 299.5 L 91 262.5 L 90 244.5 L 89 243.5 L 88 210.5 L 89 209.5 L 89 194.5 L 90 193.5 L 92 171.5 Q 73.4 152.6 64 124.5 L 58 97.5 L 57 70.5 L 61 50.5 Q 63.9 42.4 70.5 38 L 72.5 37 Z M 77 49 L 73 54 L 70 67 L 70 95 L 71 96 L 72 108 L 78 128 Q 87 150 104 165 L 115 164 L 129 157 L 143 140 L 148 125 L 148 120 L 146 114 L 141 109 L 127 103 L 114 94 L 99 80 L 82 53 L 77 49 Z M 436 49 L 430 55 Q 422 72 410 85 Q 395 101 372 110 L 366 118 L 366 127 L 368 135 L 376 148 Q 385 161 403 165 L 412 164 Q 426 149 435 129 L 440 114 L 443 100 L 443 91 L 444 90 L 444 70 L 442 59 L 439 50 L 436 49 Z M 241 77 L 240 78 L 232 78 L 211 82 L 197 86 L 181 92 L 159 103 L 155 107 L 159 115 Q 157 121 160 123 Q 158 143 147 156 Q 139 165 128 172 L 115 177 Q 107 176 104 178 L 103 181 L 102 199 L 101 200 L 101 240 L 102 241 L 102 253 L 103 254 L 103 262 L 104 263 L 106 281 L 112 301 L 112 305 L 119 324 L 128 360 L 133 373 Q 142 390 155 404 L 172 419 L 216 452 L 235 461 L 247 464 L 268 464 L 273 463 L 295 454 L 310 444 L 353 410 L 374 385 L 386 359 L 389 344 L 404 296 L 406 283 L 408 278 L 409 267 L 410 266 L 410 258 L 411 257 L 411 249 L 412 248 L 412 234 L 413 233 L 413 203 L 412 202 L 412 193 L 411 192 L 410 179 L 409 177 L 400 177 L 391 174 L 379 167 L 370 160 L 359 144 L 354 130 L 354 118 L 358 106 L 338 94 L 304 82 L 282 78 L 274 78 L 273 77 L 241 77 Z "/>
    <path fill="#1a1a1a" d="M 150.5 191 L 171.5 191 L 190.5 196 Q 205.6 202.4 217.5 212 L 251.5 241 L 259.5 242 L 272.5 233 L 298.5 210 L 320.5 197 L 342.5 191 L 362.5 191 L 367 194.5 Q 367.8 200.3 364.5 202 L 362.5 203 L 341.5 203 L 325.5 208 L 305.5 220 L 278.5 244 L 268.5 251 Q 263 255.5 251.5 254 L 240.5 248 L 214.5 225 L 190.5 209 L 172.5 203 L 150.5 203 L 148 202 L 146 195.5 L 148.5 192 L 150.5 191 Z "/>
    <path fill="#1a1a1a" d="M 271.5 332 L 285.5 332 L 291.5 335 L 308 350.5 L 326 374.5 L 326 380.5 Q 324.8 384.3 318.5 383 L 315 380.5 Q 302.8 360.2 285.5 345 L 283.5 344 L 272.5 344 L 248.5 350 Q 242 354.5 232.5 356 L 204.5 370 L 194.5 377 Q 192.2 379.7 186.5 379 L 183 376.5 Q 181.5 368.5 186.5 367 L 201.5 358 L 230.5 344 L 250.5 337 L 271.5 332 Z "/>
  </g>
</svg>
