<svg xmlns="http://www.w3.org/2000/svg" width="512" height="512" viewBox="0 0 512 512">
  <g id="color">
    <path fill="#ffffff" d="M 244.5 37 L 272.5 37 L 273.5 38 L 284 38.5 L 273.5 39 L 272.5 38 L 244.5 38 L 243.5 39 L 232.5 39 L 232.5 38 L 243.5 38 L 244.5 37 Z "/>
    <path fill="#ffffff" d="M 223.5 39 L 229 39.5 L 223.5 40 L 223.5 39 Z "/>
    <path fill="#ffffff" d="M 288.5 39 L 293 39.5 L 288.5 40 L 288.5 39 Z "/>
    <path fill="#ffffff" d="M 216.5 40 L 221 40.5 L 216.5 41 L 216.5 40 Z "/>
    <path fill="#ffffff" d="M 296.5 40 L 301 40.5 L 296.5 41 L 296.5 40 Z "/>
    <path fill="#ffffff" d="M 210.5 41 L 215 41.5 L 210.5 42 L 210.5 41 Z "/>
    <path fill="#ffffff" d="M 201.5 43 L 204 43.5 L 197.5 45 L 197.5 44 L 201.5 43 Z "/>
    <path fill="#ffffff" d="M 313.5 43 L 320 44.5 L 317.5 45 L 313.5 44 L 313.5 43 Z "/>
    <path fill="#ffffff" d="M 190.5 46 L 193 46.5 L 187.5 48 L 187.5 47 L 190.5 46 Z "/>
    <path fill="#ffffff" d="M 325.5 46 L 331 47.5 L 328.5 48 L 325.5 47 L 325.5 46 Z "/>
    <path fill="#ffffff" d="M 180.5 49 L 183 49.5 L 178.5 51 L 178.5 50 L 180.5 49 Z "/>
    <path fill="#ffffff" d="M 336.5 49 L 340 50.5 L 338.5 51 L 336.5 49 Z "/>
    <path fill="#ffffff" d="M 173.5 52 L 175 52.5 L 168.5 55 L 168.5 54 L 173.5 52 Z "/>
    <path fill="#ffffff" d="M 344.5 52 L 348 53.5 L 346.5 54 L 344.5 52 Z "/>
    <path fill="#ffffff" d="M 166.5 55 L 165.5 57 L 162.5 58 L 163.5 56 L 166.5 55 Z "/>
    <path fill="#ffffff" d="M 351.5 55 L 355 56.5 L 353.5 57 L 351.5 55 Z "/>
    <path fill="#ffffff" d="M 159.5 58 L 161 58.5 L 157.5 60 L 157.5 59 L 159.5 58 Z "/>
    <path fill="#ffffff" d="M 358.5 58 L 369 63.5 L 367.5 63 L 358.5 59 L 358.5 58 Z "/>
    <path fill="#ffffff" d="M 153.5 61 L 152.5 63 L 146.5 66 L 147.5 64 L 153.5 61 Z "/>
    <path fill="#ffffff" d="M 370.5 64 L 374 66.5 L 372.5 66 L 370.5 64 Z "/>
    <path fill="#ffffff" d="M 142.5 67 L 141.5 69 L 139.5 70 L 140.5 68 L 142.5 67 Z "/>
    <path fill="#ffffff" d="M 137.5 70 L 136.5 72 L 134.5 73 L 135.5 71 L 137.5 70 Z "/>
    <path fill="#ffffff" d="M 128.5 76 L 126.5 79 L 118.5 85 L 121.5 81 L 128.5 76 Z "/>
    <path fill="#ffffff" d="M 426.5 112 L 435 122.5 L 432 120.5 L 426.5 112 Z "/>
    <path fill="#ffffff" d="M 79.5 123 L 78 125.5 L 75.5 129 L 77 126.5 L 79.5 123 Z "/>
    <path fill="#ffffff" d="M 435.5 124 L 441 131.5 L 439 130.5 L 435.5 124 Z "/>
    <path fill="#ffffff" d="M 71.5 134 L 71 135.5 L 69.5 138 L 70 136.5 L 71.5 134 Z "/>
    <path fill="#ffffff" d="M 444.5 138 L 447 141.5 L 445 140.5 L 444.5 138 Z "/>
    <path fill="#ffffff" d="M 68.5 139 L 68 140.5 L 66.5 143 L 67 141.5 L 68.5 139 Z "/>
    <path fill="#ffffff" d="M 65.5 144 L 65 145.5 L 63.5 148 L 64 146.5 L 65.5 144 Z "/>
    <path fill="#ffffff" d="M 62.5 149 L 62 150.5 L 57.5 160 L 57 158.5 L 62.5 149 Z "/>
    <path fill="#ffffff" d="M 450.5 149 L 453 153.5 L 452 153.5 L 450.5 149 Z "/>
    <path fill="#ffffff" d="M 456.5 161 L 459 166.5 L 458 166.5 L 456.5 161 Z "/>
    <path fill="#ffffff" d="M 53.5 167 L 54 168.5 L 51.5 174 L 51 172.5 L 53.5 167 Z "/>
    <path fill="#ffffff" d="M 460.5 171 L 462 175.5 L 461 175.5 L 460.5 171 Z "/>
    <path fill="#ffffff" d="M 463.5 180 L 465 184.5 L 464 184.5 L 463.5 180 Z "/>
    <path fill="#ffffff" d="M 46.5 186 L 47 188.5 L 45.5 192 L 45 189.5 L 46.5 186 Z "/>
    <path fill="#ffffff" d="M 466.5 189 L 468 194.5 L 467 194.5 L 466.5 189 Z "/>
    <path fill="#ffffff" d="M 469.5 200 L 471 207.5 L 470 207.5 L 469.5 200 Z "/>
    <path fill="#ffffff" d="M 40.5 210 L 41 214.5 L 39.5 221 L 39 215.5 L 40.5 210 Z "/>
    <path fill="#ffffff" d="M 472.5 216 L 474 226.5 L 473 226.5 L 472.5 216 Z "/>
    <path fill="#ffffff" d="M 38.5 224 L 39 229.5 L 38 229.5 L 38.5 224 Z "/>
    <path fill="#ffffff" d="M 474.5 231 L 475 235.5 L 474 235.5 L 474.5 231 Z "/>
    <path fill="#ffffff" d="M 37.5 234 L 38 268.5 L 37 268.5 L 37.5 234 Z "/>
    <path fill="#ffffff" d="M 475.5 241 L 476 274.5 L 475 274.5 L 475.5 241 Z "/>
    <path fill="#ffffff" d="M 38.5 273 L 39 279.5 L 38 279.5 L 38.5 273 Z "/>
    <path fill="#ffffff" d="M 474.5 280 L 475 285.5 L 474 285.5 L 474.5 280 Z "/>
    <path fill="#ffffff" d="M 39.5 283 L 41 293.5 L 40 293.5 L 39.5 283 Z "/>
    <path fill="#ffffff" d="M 473.5 289 L 474 293.5 L 472.5 299 L 472 294.5 L 473.5 289 Z "/>
    <path fill="#ffffff" d="M 42.5 301 L 44 307.5 L 43 307.5 L 42.5 301 Z "/>
    <path fill="#ffffff" d="M 470.5 306 L 471 309.5 L 469.5 313 L 469 310.5 L 470.5 306 Z "/>
    <path fill="#ffffff" d="M 45.5 314 L 47 320.5 L 46 320.5 L 45.5 314 Z "/>
    <path fill="#ffffff" d="M 48.5 325 L 50 329.5 L 49 329.5 L 48.5 325 Z "/>
    <path fill="#ffffff" d="M 464.5 328 L 465 329.5 L 463.5 333 L 463 330.5 L 464.5 328 Z "/>
    <path fill="#ffffff" d="M 51.5 334 L 53 337.5 L 52 337.5 L 51.5 334 Z "/>
    <path fill="#ffffff" d="M 461.5 337 L 462 338.5 L 459.5 343 L 459 341.5 L 461.5 337 Z "/>
    <path fill="#ffffff" d="M 54.5 342 L 56 345.5 L 55 345.5 L 54.5 342 Z "/>
    <path fill="#ffffff" d="M 458.5 344 L 459 345.5 L 456.5 350 L 456 348.5 L 458.5 344 Z "/>
    <path fill="#ffffff" d="M 57.5 349 L 60 354.5 L 59 354.5 L 57.5 349 Z "/>
    <path fill="#ffffff" d="M 455.5 351 L 455 352.5 L 453.5 356 L 453 354.5 L 455.5 351 Z "/>
    <path fill="#ffffff" d="M 60.5 356 L 66 365.5 L 64 364.5 L 60.5 356 Z "/>
    <path fill="#ffffff" d="M 452.5 357 L 452 358.5 L 450.5 361 L 451 359.5 L 452.5 357 Z "/>
    <path fill="#ffffff" d="M 447.5 366 L 447 367.5 L 441.5 376 L 443 373.5 L 447.5 366 Z "/>
    <path fill="#ffffff" d="M 66.5 367 L 69 370.5 L 67 369.5 L 66.5 367 Z "/>
    <path fill="#ffffff" d="M 69.5 372 L 72 375.5 L 70 374.5 L 69.5 372 Z "/>
    <path fill="#ffffff" d="M 72.5 377 L 79 385.5 L 76 383.5 L 72.5 377 Z "/>
    <path fill="#ffffff" d="M 440.5 377 L 440 378.5 L 434.5 386 L 436 383.5 L 440.5 377 Z "/>
    <path fill="#ffffff" d="M 433.5 387 L 431 390.5 L 424.5 399 L 424 397.5 L 433.5 387 Z "/>
    <path fill="#ffffff" d="M 105.5 415 L 117 425.5 L 113.5 423 L 105.5 415 Z "/>
    <path fill="#ffffff" d="M 399.5 421 L 395.5 426 L 385.5 433 L 387.5 430 L 399.5 421 Z "/>
    <path fill="#ffffff" d="M 122.5 429 L 131 435.5 L 128.5 434 Q 123.5 432.5 122.5 429 Z "/>
    <path fill="#ffffff" d="M 383.5 433 L 382.5 435 L 371.5 442 L 372.5 440 L 383.5 433 Z "/>
    <path fill="#ffffff" d="M 132.5 436 L 136 438.5 L 134.5 438 L 132.5 436 Z "/>
    <path fill="#ffffff" d="M 137.5 439 L 141 441.5 L 139.5 441 L 137.5 439 Z "/>
    <path fill="#ffffff" d="M 142.5 442 L 147 444.5 L 145.5 444 Q 141.8 443.8 142.5 442 Z "/>
    <path fill="#ffffff" d="M 369.5 442 L 368.5 444 L 366.5 445 L 367.5 443 L 369.5 442 Z "/>
    <path fill="#ffffff" d="M 358.5 448 L 357.5 450 L 354.5 451 L 354.5 450 L 358.5 448 Z "/>
    <path fill="#ffffff" d="M 156.5 449 L 160 450.5 L 158.5 451 L 156.5 449 Z "/>
    <path fill="#ffffff" d="M 352.5 451 L 351.5 453 L 348.5 454 L 348.5 453 L 352.5 451 Z "/>
    <path fill="#ffffff" d="M 163.5 452 L 167 453.5 L 165.5 454 L 163.5 452 Z "/>
    <path fill="#ffffff" d="M 171.5 455 L 176 456.5 L 173.5 457 L 171.5 455 Z "/>
    <path fill="#ffffff" d="M 343.5 455 L 345 455.5 L 341.5 457 L 341.5 456 L 343.5 455 Z "/>
    <path fill="#ffffff" d="M 177.5 457 L 185 459.5 L 182.5 460 L 177.5 458 L 177.5 457 Z "/>
    <path fill="#ffffff" d="M 339.5 457 L 338.5 459 L 334.5 460 L 334.5 459 L 339.5 457 Z "/>
    <path fill="#ffffff" d="M 186.5 460 L 196 462.5 L 193.5 463 L 186.5 461 L 186.5 460 Z "/>
    <path fill="#ffffff" d="M 328.5 461 L 330 461.5 L 326.5 463 L 326.5 462 L 328.5 461 Z "/>
    <path fill="#ffffff" d="M 322.5 463 L 324 463.5 L 316.5 466 L 316.5 465 L 322.5 463 Z "/>
    <path fill="#ffffff" d="M 201.5 464 L 208 465.5 L 205.5 466 L 201.5 465 L 201.5 464 Z "/>
    <path fill="#ffffff" d="M 309.5 467 L 312 467.5 L 306.5 469 L 306.5 468 L 309.5 467 Z "/>
    <path fill="#ffffff" d="M 229.5 470 L 240 471.5 L 234.5 472 L 229.5 471 L 229.5 470 Z "/>
    <path fill="#ffffff" d="M 295.5 470 L 300 470.5 L 290.5 472 L 290.5 471 L 295.5 470 Z "/>
    <path fill="#ffffff" d="M 243.5 472 L 248 472.5 L 243.5 473 L 243.5 472 Z "/>
    <path fill="#ffffff" d="M 282.5 472 L 287 472.5 L 282.5 473 L 282.5 472 Z "/>
    <path fill="#ffffff" d="M 252.5 473 L 267 473.5 L 252.5 474 L 252.5 473 Z "/>
    <path fill="#ffffff" d="M 268.5 473 L 280 473.5 L 268.5 474 L 268.5 473 Z "/>
    <path fill="#ff6b6b" d="M 247.5 51 L 270.5 51 L 275.5 53 L 276.5 52 L 284.5 52 L 285.5 53 L 293.5 53 L 315 57 L 315.5 59 L 318.5 58 L 335 63 Q 333.9 65.7 336.5 65 L 338.5 65 L 358 73 L 358.5 75 L 360.5 74 L 362.5 77 L 364.5 77 Q 366.8 76.3 366 78.5 Q 367.8 76.9 369.5 80 L 372 81.5 L 372.5 83 L 374.5 83 L 378 85.5 L 378.5 87 L 380.5 87 L 404 106.5 L 406 109.5 L 413 116.5 L 412.5 118 L 418 122.5 Q 416.9 125.8 419.5 125 L 421 129 L 424 130.5 L 426 133.5 L 425.5 135 L 428 136.5 L 443 163.5 L 442 165.5 L 444 165.5 L 443 167.5 L 445 168 L 452 187.5 L 451 189.5 L 453 189.5 L 452 193 Q 454.7 191.9 454 194.5 L 453.5 196 Q 456.5 195.1 455 199.5 L 459 213.5 L 459 217.5 Q 456.5 219 460 220.5 L 462 244.5 L 462 248.5 Q 464.8 254.8 463 265.5 L 461 268.5 L 462 269.5 L 462 279.5 L 455 316.5 L 443 347.5 L 437.5 356 L 436 356.5 L 436.5 358 L 435 358.5 L 435.5 360 L 433 361.5 L 433 363.5 L 431.5 366 L 430 366.5 L 430 368.5 Q 424.8 378.8 416.5 386 L 415 386.5 L 415.5 388 Q 413.3 387.3 414 389.5 L 410 392 L 408.5 396 L 407 395.5 L 405.5 399 L 395.5 408 L 394 407.5 L 388.5 414 L 378.5 421 L 377 420.5 L 374.5 424 L 364.5 430 L 363 429.5 L 362.5 431 Q 361.2 428.8 360 431.5 Q 360.8 433.8 358.5 433 L 348.5 439 L 347 438.5 Q 347.8 440.8 345.5 440 L 334.5 445 L 333 444.5 Q 333.8 446.8 331.5 446 L 329.5 447 L 328 446.5 Q 328.8 448.8 326.5 448 L 313.5 453 L 312 452.5 Q 312.9 455.5 308.5 454 L 306.5 453 L 306.5 455 L 301.5 456 Q 300 453.5 298.5 457 L 296.5 456 L 294 456.5 Q 294.9 459.5 290.5 458 L 289.5 459 L 277.5 460 L 275.5 460 L 271.5 459 L 270.5 460 L 262.5 460 L 260.5 460 L 257.5 459 L 256.5 460 L 248.5 460 L 247.5 459 L 235.5 458 L 233.5 456 L 228.5 457 L 213.5 454 L 211.5 452 L 209.5 453 Q 208 449.5 206.5 452 Q 204.3 452.8 205 450.5 L 203.5 451 L 197 450 L 196.5 448 L 194.5 449 L 186 446.5 L 186.5 445 L 183.5 446 L 172 441.5 L 172.5 440 L 170.5 441 L 169.5 439 L 168 439.5 L 167.5 438 L 166 438.5 L 165.5 437 L 163.5 438 L 149 430.5 L 148.5 429 L 146.5 429 Q 129 420.5 116 407.5 Q 116.8 404.9 113.5 406 Q 107 402.5 104.5 395 L 97 388.5 L 85 372.5 L 85.5 371 Q 83.3 371.8 84 369.5 L 81 365.5 L 81.5 364 L 79 362.5 L 79.5 361 L 78 360.5 L 78.5 359 L 76 357.5 L 64 329.5 L 64.5 328 Q 61.9 328.8 63 325.5 L 61 322.5 L 57 305.5 L 57.5 304 Q 54.5 304.9 56 300.5 L 54 292.5 L 54 290.5 L 53 284.5 Q 55.5 283 52 281.5 L 51 260.5 L 52 258.5 L 51 257.5 L 51 244.5 L 51 242.5 L 52 238.5 Q 49.3 236.8 51 230.5 L 52 229.5 L 53 216.5 L 55 214.5 L 54 210.5 L 56 201 L 58 200.5 L 57 197.5 L 64 175.5 L 80.5 145 Q 83.1 145.8 82 142.5 L 85 140.5 L 84.5 139 L 86 138.5 L 85 137.5 L 88 134.5 L 90.5 131 L 92 130.5 L 91 129.5 L 96 124.5 L 102.5 117 Q 104.8 117.8 104 115.5 L 107 111 L 111 110 L 111 108 Q 113.7 109.1 113 106.5 L 128.5 93 L 130 93.5 L 132.5 90 L 135.5 88 L 137 88.5 L 138.5 86 L 143.5 83 L 145 83.5 Q 144.3 81.3 146.5 82 L 158.5 74 L 160.5 75 L 160.5 73 L 167.5 70 L 169 70.5 Q 168.3 68.3 170.5 69 L 178.5 65 L 180.5 66 L 180.5 64 L 201.5 58 L 203 58.5 Q 202.2 55.9 205.5 57 L 223.5 53 L 240.5 52 L 242.5 53 L 247.5 51 Z M 157 155 L 146 159 Q 144 162 143 160 L 133 172 L 130 184 L 132 184 L 133 189 L 143 195 Q 145 194 144 197 L 146 196 L 146 198 L 148 197 L 148 199 L 150 198 L 158 201 L 158 203 L 160 202 L 162 203 L 161 205 L 162 207 L 157 216 L 155 228 L 153 232 Q 156 233 154 235 Q 157 248 166 256 L 168 255 L 174 258 Q 186 260 192 255 L 196 251 L 197 252 L 201 245 L 204 243 L 203 242 L 206 232 Q 209 233 211 230 L 219 230 L 221 230 L 221 228 L 226 226 L 225 225 L 229 213 L 228 213 L 223 201 L 223 199 L 222 198 Q 217 196 220 195 L 219 194 L 208 184 L 208 182 L 206 182 L 202 179 L 199 176 L 198 176 L 190 170 L 187 167 L 186 167 L 171 158 L 157 155 Z M 353 155 L 343 158 L 329 166 Q 327 169 326 167 L 325 169 L 312 179 Q 308 178 309 181 Q 308 183 307 181 L 305 184 Q 302 183 303 186 L 297 190 L 297 193 L 290 201 Q 291 203 289 202 L 289 204 L 285 215 L 287 224 L 287 226 L 295 230 L 303 230 L 304 229 L 304 231 Q 305 233 307 231 L 309 238 L 308 240 L 310 240 Q 311 246 316 250 Q 315 252 318 251 L 321 256 L 323 255 L 329 258 Q 341 260 347 255 L 355 246 Q 354 243 357 244 L 356 243 L 360 231 L 360 229 L 358 227 Q 359 220 356 218 L 357 216 L 355 215 L 351 207 L 354 202 L 356 203 L 356 201 L 370 196 L 372 196 L 372 195 L 376 192 Q 378 193 377 190 L 380 189 Q 379 186 382 187 L 381 186 L 383 179 L 381 178 L 381 175 L 377 168 Q 370 156 353 155 Z M 254 288 L 252 290 Q 247 291 246 289 L 245 291 L 242 290 L 241 292 L 234 293 L 219 300 L 217 300 L 216 302 L 206 309 L 193 323 L 191 324 L 191 326 L 181 343 L 180 348 L 178 349 L 179 353 L 177 354 L 179 363 Q 182 364 180 366 L 184 367 L 192 367 L 215 354 L 222 352 L 224 352 Q 226 353 225 351 L 227 351 L 231 348 L 242 345 L 243 347 L 243 345 L 248 344 L 251 345 L 252 345 L 253 343 L 272 343 L 272 345 L 274 344 L 281 345 L 281 347 L 283 346 Q 285 345 284 348 L 286 347 L 295 350 Q 297 349 296 352 L 298 351 L 305 354 L 306 357 L 308 356 L 310 357 L 311 360 L 313 359 L 322 364 L 323 367 L 325 366 L 328 367 L 332 366 L 335 360 Q 333 353 336 352 L 334 351 L 335 347 L 333 346 L 332 343 L 333 340 L 332 340 L 327 330 L 327 328 L 326 327 L 323 324 L 323 322 L 322 321 L 319 318 Q 310 306 297 299 L 297 298 L 296 297 L 294 297 Q 291 298 292 296 L 291 296 L 275 290 Q 268 292 269 288 L 267 289 L 255 289 L 254 288 Z "/>
    <path fill="#ff6b6b" d="M 156.5 168 L 159.5 169 L 161.5 168 Q 177.5 175 190 185.5 Q 189.2 188.1 192.5 187 L 197.5 193 L 198.5 192 L 209 202.5 L 212 206.5 L 211.5 208 Q 213.8 207.3 213 209.5 L 215 215.5 L 214 215.5 L 213.5 213 L 212.5 217 L 211.5 215 L 209.5 216 L 197.5 207 L 181 199 L 180.5 197 L 178.5 198 L 168 193 L 167.5 191 L 165.5 191 L 154 187 L 153.5 185 L 151.5 186 L 144 181.5 Q 144.4 173.4 150.5 171 L 153 171 Q 151.8 168 155.5 169 L 156.5 168 Z "/>
    <path fill="#ff6b6b" d="M 351.5 168 Q 357.6 166.8 357 169.5 L 358.5 169 L 367 175.5 L 369 178.5 L 366 184 L 360.5 186 L 359 185.5 Q 359.8 187.8 357.5 187 L 354.5 188 L 353 187.5 L 351.5 190 L 346.5 192 L 345 191.5 Q 345.8 193.8 343.5 193 L 335.5 197 L 334 196.5 Q 334.8 198.8 332.5 198 L 300.5 217 L 298 216 L 300 208 L 302 207.5 Q 299.8 206.3 302.5 205 Q 305.1 205.8 304 202.5 L 318.5 189 L 320 189.5 L 324.5 184 L 335.5 177 L 337 177.5 L 338.5 175 L 351.5 168 Z "/>
    <path fill="#ff6b6b" d="M 337.5 210 L 338.5 212 L 340 211.5 L 341 213.5 L 340.5 215 L 343 216.5 L 342 218.5 L 344 219 L 345 222.5 L 344.5 224 Q 347.9 223.1 346 228.5 L 345 231.5 L 346 235.5 L 340.5 244 L 336.5 245 L 333.5 244 L 333.5 245 L 335 245.5 L 332.5 246 Q 326 244.5 323 239.5 L 322 237.5 L 322.5 236 L 320 234.5 L 317 222.5 L 329.5 214 L 331 214.5 L 331.5 213 L 333 213.5 L 334.5 211 L 337.5 210 Z "/>
    <path fill="#ff6b6b" d="M 174.5 211 L 176.5 212 L 178.5 211 L 180.5 214 L 182 213.5 L 182.5 215 L 184.5 214 L 196 222.5 L 195.5 225 L 194 224.5 L 195 228.5 L 193 235 L 191 235.5 L 191.5 237 Q 188.9 236.2 190 239.5 Q 186.8 245.3 178.5 246 L 178.5 244 L 174.5 245 L 172 244 L 172 242 Q 169.3 243.1 170 240.5 L 168 236.5 L 168.5 235 Q 165.5 235.9 167 231.5 L 168 229.5 L 167 225.5 L 168 221 L 170 220.5 L 170 218.5 L 174.5 211 Z "/>
    <path fill="#ff6b6b" d="M 251.5 302 L 254.5 303 Q 256.3 300.3 262.5 302 L 264.5 303 L 269.5 302 Q 270.8 304.2 275.5 303 L 285 307 L 285.5 309 L 287.5 308 L 291 310.5 L 291.5 312 L 293.5 312 Q 303.7 317.3 310 326.5 L 316 335.5 L 315 337.5 L 318 338.5 L 319 341.5 L 318 343.5 L 318.5 345 L 314.5 346 L 312.5 343 L 310.5 344 L 305.5 340 L 303.5 340 L 278.5 331 L 275.5 332 Q 274 328.5 272.5 331 L 255.5 330 L 254.5 331 L 246.5 331 L 245 330.5 Q 245.8 333.1 242.5 332 L 241 331.5 Q 241.9 334.5 237.5 333 L 216.5 340 L 215 339.5 Q 215.8 342.1 212.5 341 L 207.5 344 L 206 343.5 Q 206.8 345.8 204.5 345 L 196.5 350 L 194.5 347 L 193 347.5 Q 194.7 339.7 199.5 335 L 201 334.5 Q 198.8 333.2 201.5 332 L 204 330.5 Q 201.3 328.8 205.5 327 Q 207.8 327.8 207 325.5 Q 213.5 317 223.5 312 L 225 312.5 L 225.5 311 L 227 311.5 L 228.5 309 L 230.5 308 Q 232 310.5 233.5 307 L 238.5 305 L 241 306 Q 239.8 303 243.5 304 L 245 304.5 Q 244.2 301.9 247.5 303 L 249.5 303 L 251.5 302 Z "/>
    <path fill="#f783ac" d="M 367.5 178 L 369 182 L 366.5 183 L 368 180.5 L 367.5 178 Z "/>
    <path fill="#f783ac" d="M 213.5 213 L 215 216.5 L 213 217 L 213.5 213 Z "/>
    <path fill="#f783ac" d="M 208.5 229 Q 210.8 228.3 210 230.5 L 207 232 L 208.5 229 Z "/>
    <path fill="#f783ac" d="M 318.5 342 L 320 347.5 L 318.5 347 L 316 345.5 L 319 344.5 L 318.5 342 Z "/>
    <path fill="#f783ac" d="M 194.5 347 L 196 350 Q 192.2 351.5 193 348.5 L 194.5 347 Z "/>
  </g>
  <g id="line">
    <path fill="#1a1a1a" d="M 244.5 38 L 272.5 38 L 273.5 39 L 295.5 40 L 312.5 43 L 343.5 52 Q 391.6 70.4 422 106.5 Q 451.4 140.1 466 188.5 L 471 208.5 L 472 220.5 L 474 227.5 L 474 235.5 L 475 236.5 L 475 279.5 L 468 318.5 L 456 350.5 Q 437.5 388.5 407.5 415 Q 378 441.5 338.5 458 L 305.5 469 Q 296 469 289.5 472 L 268.5 473 L 267.5 474 L 266.5 473 L 248.5 473 L 247.5 472 L 240.5 472 L 233.5 470 L 221.5 469 L 185.5 460 L 162.5 452 Q 119.5 434 91 401.5 Q 61.6 368.9 47 321.5 L 47 317.5 L 42 300.5 L 41 288.5 L 39 282.5 L 39 273.5 L 38 272.5 L 38 230.5 L 39 229.5 L 39 221.5 L 40 220.5 L 41 209.5 L 47 185.5 L 54 166.5 L 63 148.5 Q 80.5 117 106.5 94 L 133.5 73 L 167.5 55 L 204.5 43 L 221.5 40 L 243.5 39 L 244.5 38 Z M 248 51 L 247 52 L 232 52 L 231 53 L 212 55 L 178 65 L 153 77 L 139 86 L 107 111 L 85 138 Q 73 155 64 176 L 55 205 L 53 222 L 52 223 L 52 230 L 51 231 L 51 273 L 52 274 L 52 282 L 54 289 L 55 300 L 61 323 L 76 358 Q 89 380 106 399 Q 129 422 161 437 L 187 447 L 205 451 L 209 453 L 249 460 L 283 460 L 304 456 L 324 450 L 341 443 L 369 428 Q 390 415 407 398 Q 406 395 409 396 Q 434 370 449 334 L 455 317 L 455 313 L 459 300 L 459 294 L 462 280 L 462 267 L 463 266 L 461 227 L 459 220 L 459 214 L 452 187 L 444 166 L 431 141 Q 420 123 406 110 L 404 107 Q 378 80 341 65 L 326 61 L 323 59 L 294 53 L 272 52 L 271 51 L 248 51 Z "/>
    <path fill="#1a1a1a" d="M 156.5 155 L 170.5 158 L 186.5 167 L 206.5 182 L 219 194.5 L 225 203.5 L 228 217.5 L 225 225.5 L 222.5 228 Q 218.8 231.3 210.5 230 L 208.5 229 L 206 232.5 L 203 242.5 L 196.5 251 L 184.5 258 L 173.5 258 Q 164.4 255.5 160 248.5 L 155 238.5 L 154 228.5 L 157 215.5 L 163 204.5 L 138.5 193 L 133 188.5 Q 130.3 185.2 131 178.5 Q 133.9 166.9 142.5 161 L 156.5 155 Z M 157 168 L 151 171 Q 144 173 144 182 L 152 186 L 187 201 L 210 216 L 215 217 Q 215 208 209 203 L 185 181 L 165 169 L 157 168 Z M 176 210 L 173 211 L 167 226 Q 165 237 170 242 L 178 246 L 186 244 L 194 233 L 196 223 Q 188 214 176 210 Z "/>
    <path fill="#1a1a1a" d="M 352.5 155 Q 369.6 156.4 377 167.5 Q 382.5 173 382 184.5 L 378.5 190 L 375.5 192 Q 366.5 199 353.5 202 L 351 204.5 L 357 218.5 L 359 233.5 L 354 247.5 L 346.5 255 Q 340.7 259.6 328.5 258 L 316 251 Q 308.5 242.4 306 229 Q 302.2 230.8 294.5 230 L 288 225.5 L 285 214.5 L 290 200.5 L 306.5 182 L 331.5 164 L 342.5 158 L 352.5 155 Z M 352 168 L 329 181 L 314 193 L 301 207 L 298 217 L 307 214 L 335 197 L 369 182 Q 370 178 367 176 L 360 169 L 352 168 Z M 338 210 Q 326 215 317 223 L 318 230 L 323 240 Q 326 244 333 246 L 341 244 L 346 236 L 346 225 L 340 211 L 338 210 Z "/>
    <path fill="#1a1a1a" d="M 252.5 289 L 268.5 289 L 289.5 295 Q 307.4 303.1 319 317.5 L 331 337.5 L 335 351.5 L 335 359.5 L 332 366 L 327.5 367 L 323.5 366 L 304.5 354 L 287.5 347 L 271.5 343 L 252.5 343 L 236.5 346 L 214.5 354 L 191.5 367 L 183.5 367 L 181 366 L 178 360.5 L 178 353.5 Q 185.2 324.7 205.5 309 L 216.5 301 L 233.5 293 L 252.5 289 Z M 251 302 L 231 308 L 216 317 Q 200 328 193 348 L 194 351 L 221 338 L 242 332 L 255 331 L 256 330 L 267 330 L 268 331 L 281 332 L 298 337 L 319 347 L 320 348 L 318 339 L 310 327 Q 299 312 281 305 L 270 302 L 251 302 Z "/>
  </g>
</svg>
