<svg xmlns="http://www.w3.org/2000/svg" width="512" height="512" viewBox="0 0 512 512">
  <g id="color">
    <path fill="#ffffff" d="M 240.5 42 L 252 42.5 L 240.5 43 L 240.5 42 Z "/>
    <path fill="#ffffff" d="M 274.5 42 L 285 42.5 L 274.5 43 L 274.5 42 Z "/>
    <path fill="#ffffff" d="M 230.5 43 L 239 43.5 L 230.5 44 L 230.5 43 Z "/>
    <path fill="#ffffff" d="M 286.5 43 L 294 43.5 L 286.5 44 L 286.5 43 Z "/>
    <path fill="#ffffff" d="M 224.5 44 L 229 44.5 L 224.5 45 L 224.5 44 Z "/>
    <path fill="#ffffff" d="M 295.5 44 L 300 44.5 L 295.5 45 L 295.5 44 Z "/>
    <path fill="#ffffff" d="M 217.5 45 L 221 45.5 L 212.5 47 L 212.5 46 L 217.5 45 Z "/>
    <path fill="#ffffff" d="M 303.5 45 L 311 46.5 L 307.5 47 L 303.5 46 L 303.5 45 Z "/>
    <path fill="#ffffff" d="M 203.5 48 L 206 48.5 L 200.5 50 L 200.5 49 L 203.5 48 Z "/>
    <path fill="#ffffff" d="M 318.5 48 L 324 49.5 L 321.5 50 L 318.5 49 L 318.5 48 Z "/>
    <path fill="#ffffff" d="M 192.5 51 L 195 51.5 L 190.5 53 L 190.5 52 L 192.5 51 Z "/>
    <path fill="#ffffff" d="M 328.5 51 L 334 52.5 L 331.5 53 L 328.5 52 L 328.5 51 Z "/>
    <path fill="#ffffff" d="M 183.5 54 L 185 54.5 L 180.5 56 L 180.5 55 L 183.5 54 Z "/>
    <path fill="#ffffff" d="M 338.5 54 L 343 55.5 L 341.5 56 L 338.5 55 L 338.5 54 Z "/>
    <path fill="#ffffff" d="M 175.5 57 L 177 57.5 L 173.5 59 L 173.5 58 L 175.5 57 Z "/>
    <path fill="#ffffff" d="M 346.5 57 L 350 58.5 L 348.5 59 L 346.5 57 Z "/>
    <path fill="#ffffff" d="M 170.5 59 L 172 59.5 L 166.5 62 L 166.5 61 L 170.5 59 Z "/>
    <path fill="#ffffff" d="M 351.5 59 L 357 61.5 L 355.5 62 L 351.5 60 L 351.5 59 Z "/>
    <path fill="#ffffff" d="M 163.5 62 L 165 62.5 L 159.5 65 L 159.5 64 L 163.5 62 Z "/>
    <path fill="#ffffff" d="M 358.5 62 L 363 64.5 L 361.5 64 Q 357.8 63.8 358.5 62 Z "/>
    <path fill="#ffffff" d="M 364.5 65 L 369 67.5 L 367.5 67 Q 363.7 66.8 364.5 65 Z "/>
    <path fill="#ffffff" d="M 151.5 68 L 150.5 70 L 144.5 73 L 145.5 71 L 151.5 68 Z "/>
    <path fill="#ffffff" d="M 370.5 68 L 391 81.5 L 388.5 80 L 371.5 70 L 370.5 68 Z "/>
    <path fill="#ffffff" d="M 142.5 73 L 141.5 75 L 139.5 76 L 140.5 74 L 142.5 73 Z "/>
    <path fill="#ffffff" d="M 134.5 78 L 132.5 81 L 130.5 82 L 131.5 80 L 134.5 78 Z "/>
    <path fill="#ffffff" d="M 426.5 114 L 432 120.5 L 429 118.5 L 426.5 114 Z "/>
    <path fill="#ffffff" d="M 87.5 120 L 83 125.5 L 79.5 130 L 82 126.5 L 87.5 120 Z "/>
    <path fill="#ffffff" d="M 435.5 126 L 440 131.5 L 437 129.5 L 435.5 126 Z "/>
    <path fill="#ffffff" d="M 78.5 131 L 78 132.5 L 73.5 139 L 74 137.5 L 78.5 131 Z "/>
    <path fill="#ffffff" d="M 440.5 133 L 443 136.5 L 441 135.5 L 440.5 133 Z "/>
    <path fill="#ffffff" d="M 443.5 138 L 446 141.5 L 444 140.5 L 443.5 138 Z "/>
    <path fill="#ffffff" d="M 72.5 140 L 71 142.5 L 67.5 148 L 68 146.5 L 72.5 140 Z "/>
    <path fill="#ffffff" d="M 446.5 143 L 449 146.5 L 447 145.5 L 446.5 143 Z "/>
    <path fill="#ffffff" d="M 66.5 149 L 66 150.5 L 64.5 153 L 65 151.5 L 66.5 149 Z "/>
    <path fill="#ffffff" d="M 455.5 160 L 457 163.5 L 456 163.5 L 455.5 160 Z "/>
    <path fill="#ffffff" d="M 457.5 165 L 460 170.5 L 459 170.5 L 457.5 165 Z "/>
    <path fill="#ffffff" d="M 57.5 166 L 58 167.5 L 53.5 176 L 53 174.5 L 57.5 166 Z "/>
    <path fill="#ffffff" d="M 460.5 172 L 463 178.5 L 462 178.5 L 460.5 172 Z "/>
    <path fill="#ffffff" d="M 52.5 177 L 53 178.5 L 51.5 181 L 51 179.5 L 52.5 177 Z "/>
    <path fill="#ffffff" d="M 463.5 180 L 465 184.5 L 464 184.5 L 463.5 180 Z "/>
    <path fill="#ffffff" d="M 49.5 185 L 50 186.5 L 48.5 190 L 48 187.5 L 49.5 185 Z "/>
    <path fill="#ffffff" d="M 466.5 189 L 468 195.5 L 467 195.5 L 466.5 189 Z "/>
    <path fill="#ffffff" d="M 46.5 194 L 47 196.5 L 45.5 200 L 45 197.5 L 46.5 194 Z "/>
    <path fill="#ffffff" d="M 469.5 201 L 471 207.5 L 470 207.5 L 469.5 201 Z "/>
    <path fill="#ffffff" d="M 43.5 204 L 44 207.5 L 42.5 211 L 42 208.5 L 43.5 204 Z "/>
    <path fill="#ffffff" d="M 472.5 214 L 473 218.5 L 472 218.5 L 472.5 214 Z "/>
    <path fill="#ffffff" d="M 40.5 217 L 41 222.5 L 39.5 227 L 39 223.5 L 40.5 217 Z "/>
    <path fill="#ffffff" d="M 474.5 228 L 475 232.5 L 474 232.5 L 474.5 228 Z "/>
    <path fill="#ffffff" d="M 38.5 230 L 39 235.5 L 38 235.5 L 38.5 230 Z "/>
    <path fill="#ffffff" d="M 475.5 235 L 476 245.5 L 475 245.5 L 475.5 235 Z "/>
    <path fill="#ffffff" d="M 37.5 237 L 38 275.5 L 37 275.5 L 37.5 237 Z "/>
    <path fill="#ffffff" d="M 476.5 247 L 477 266.5 L 476 266.5 L 476.5 247 Z "/>
    <path fill="#ffffff" d="M 475.5 269 L 476 279.5 L 475 279.5 L 475.5 269 Z "/>
    <path fill="#ffffff" d="M 38.5 278 L 39 283.5 L 38 283.5 L 38.5 278 Z "/>
    <path fill="#ffffff" d="M 474.5 282 L 475 286.5 L 474 286.5 L 474.5 282 Z "/>
    <path fill="#ffffff" d="M 39.5 287 L 41 296.5 L 40 296.5 L 39.5 287 Z "/>
    <path fill="#ffffff" d="M 473.5 290 L 474 294.5 L 472.5 299 L 472 295.5 L 473.5 290 Z "/>
    <path fill="#ffffff" d="M 42.5 303 L 44 309.5 L 43 309.5 L 42.5 303 Z "/>
    <path fill="#ffffff" d="M 470.5 305 L 471 307.5 L 469.5 312 L 469 308.5 L 470.5 305 Z "/>
    <path fill="#ffffff" d="M 45.5 315 L 47 319.5 L 46 319.5 L 45.5 315 Z "/>
    <path fill="#ffffff" d="M 467.5 317 L 468 319.5 L 466.5 322 L 466 320.5 L 467.5 317 Z "/>
    <path fill="#ffffff" d="M 48.5 324 L 50 328.5 L 49 328.5 L 48.5 324 Z "/>
    <path fill="#ffffff" d="M 464.5 326 L 465 327.5 L 463.5 330 L 463 328.5 L 464.5 326 Z "/>
    <path fill="#ffffff" d="M 462.5 331 L 463 332.5 L 460.5 338 L 460 336.5 L 462.5 331 Z "/>
    <path fill="#ffffff" d="M 51.5 333 L 53 336.5 L 52 336.5 L 51.5 333 Z "/>
    <path fill="#ffffff" d="M 459.5 339 L 460 340.5 L 457.5 345 L 457 343.5 L 459.5 339 Z "/>
    <path fill="#ffffff" d="M 54.5 340 L 64 358.5 L 62 357.5 L 54 341.5 L 54.5 340 Z "/>
    <path fill="#ffffff" d="M 450.5 358 L 450 359.5 L 448.5 362 L 449 360.5 L 450.5 358 Z "/>
    <path fill="#ffffff" d="M 64.5 360 L 67 363.5 L 65 362.5 L 64.5 360 Z "/>
    <path fill="#ffffff" d="M 447.5 363 L 447 364.5 L 445.5 367 L 446 365.5 L 447.5 363 Z "/>
    <path fill="#ffffff" d="M 67.5 365 L 70 368.5 L 68 367.5 L 67.5 365 Z "/>
    <path fill="#ffffff" d="M 444.5 368 L 444 369.5 L 442.5 372 L 443 370.5 L 444.5 368 Z "/>
    <path fill="#ffffff" d="M 73.5 374 L 81 383.5 L 77 380.5 L 73.5 374 Z "/>
    <path fill="#ffffff" d="M 81.5 385 L 103 408.5 L 91 397.5 L 81.5 385 Z "/>
    <path fill="#ffffff" d="M 430.5 388 L 428 391.5 L 420.5 400 L 427 392.5 L 430.5 388 Z "/>
    <path fill="#ffffff" d="M 114.5 418 L 132 431.5 L 130.5 431 Q 119.5 426 114.5 418 Z "/>
    <path fill="#ffffff" d="M 396.5 421 L 393.5 425 L 383.5 432 L 384.5 430 L 396.5 421 Z "/>
    <path fill="#ffffff" d="M 378.5 434 L 377.5 436 L 375.5 437 L 376.5 435 L 378.5 434 Z "/>
    <path fill="#ffffff" d="M 141.5 437 L 145 439.5 L 143.5 439 L 141.5 437 Z "/>
    <path fill="#ffffff" d="M 373.5 437 L 372.5 439 L 370.5 440 L 371.5 438 L 373.5 437 Z "/>
    <path fill="#ffffff" d="M 146.5 440 L 150 442.5 L 148.5 442 L 146.5 440 Z "/>
    <path fill="#ffffff" d="M 368.5 440 L 367.5 442 L 352.5 449 L 352.5 448 L 368.5 440 Z "/>
    <path fill="#ffffff" d="M 157.5 446 L 162 448.5 L 160.5 448 Q 156.7 447.7 157.5 446 Z "/>
    <path fill="#ffffff" d="M 164.5 449 L 177 454.5 L 175.5 455 L 165.5 451 L 164.5 449 Z "/>
    <path fill="#ffffff" d="M 350.5 449 L 349.5 451 L 345.5 452 L 345.5 451 L 350.5 449 Z "/>
    <path fill="#ffffff" d="M 342.5 452 L 344 452.5 L 340.5 454 L 340.5 453 L 342.5 452 Z "/>
    <path fill="#ffffff" d="M 178.5 455 L 183 456.5 L 180.5 457 L 178.5 455 Z "/>
    <path fill="#ffffff" d="M 334.5 455 L 336 455.5 L 332.5 457 L 332.5 456 L 334.5 455 Z "/>
    <path fill="#ffffff" d="M 184.5 457 L 192 459.5 L 189.5 460 L 184.5 458 L 184.5 457 Z "/>
    <path fill="#ffffff" d="M 325.5 458 L 328 458.5 L 323.5 460 L 323.5 459 L 325.5 458 Z "/>
    <path fill="#ffffff" d="M 197.5 461 L 203 462.5 L 200.5 463 L 197.5 462 L 197.5 461 Z "/>
    <path fill="#ffffff" d="M 315.5 461 L 318 461.5 L 312.5 463 L 312.5 462 L 315.5 461 Z "/>
    <path fill="#ffffff" d="M 205.5 463 L 213 464.5 L 208.5 465 L 205.5 464 L 205.5 463 Z "/>
    <path fill="#ffffff" d="M 301.5 464 L 306 464.5 L 297.5 466 L 297.5 465 L 301.5 464 Z "/>
    <path fill="#ffffff" d="M 220.5 466 L 234 467.5 L 226.5 468 Q 225.3 465.8 220.5 467 L 220.5 466 Z "/>
    <path fill="#ffffff" d="M 289.5 466 L 294 466.5 L 288.5 468 L 281.5 468 L 281.5 467 Q 287.7 468.7 289.5 466 Z "/>
    <path fill="#ffffff" d="M 235.5 468 L 243 468.5 L 235.5 469 L 235.5 468 Z "/>
    <path fill="#ffffff" d="M 272.5 468 L 280 468.5 L 272.5 469 L 272.5 468 Z "/>
    <path fill="#ffffff" d="M 253.5 469 L 261 469.5 L 253.5 470 L 253.5 469 Z "/>
    <path fill="#ffd43b" d="M 321.5 158 L 323 161.5 L 321 162.5 L 322 159.5 L 321.5 158 Z "/>
    <path fill="#ffd43b" d="M 370.5 211 L 373 214.5 L 370 212.5 L 370.5 211 Z "/>
    <path fill="#ffd43b" d="M 252.5 455 L 259 455.5 L 252.5 456 L 252.5 455 Z "/>
    <path fill="#ffa94d" d="M 242.5 56 L 283.5 56 L 284.5 57 L 292.5 57 L 297.5 59 L 304.5 59 Q 309.9 62.1 318.5 62 L 345.5 71 L 379 89 Q 377.9 91.7 380.5 91 L 399 105.5 Q 398.3 107.8 400.5 107 L 409 114.5 L 425 133.5 L 439 156.5 L 450 181.5 L 456 201.5 L 456 203.5 L 459 213.5 L 460 225.5 L 462 232.5 L 463 269.5 L 462 270.5 L 462 281.5 L 460 286.5 L 460 288.5 L 459 299.5 L 457 301.5 L 456 310.5 L 454 313.5 L 450 328.5 Q 440.9 351.6 428 370 Q 425.3 368.9 426 371.5 L 416.5 384 Q 414.3 383.3 415 385.5 L 410 392 L 405 395.5 L 401.5 400 L 393 406 L 391.5 409 L 358.5 431 L 346.5 437 L 316.5 448 L 314.5 448 L 312.5 449 L 310.5 449 L 306.5 449 L 304.5 451 L 299.5 451 L 287.5 454 L 275.5 454 L 274.5 455 L 259.5 456 Q 258 453.5 252.5 455 L 249.5 456 L 238.5 454 L 235.5 455 L 234.5 454 L 220.5 453 L 210.5 450 L 208.5 450 L 180.5 442 L 167.5 435 L 156 431 Q 157.3 428 153.5 429 Q 122 411.5 99 385.5 L 94.5 379 Q 92.3 379.8 93 377.5 L 82 363.5 L 68 339.5 L 65 329.5 L 62 324.5 L 55 300.5 L 55 298.5 L 51 278.5 L 50 251.5 L 51 250.5 L 51 235.5 L 52 234.5 L 53 223.5 L 55 219.5 L 54 217.5 L 56 214.5 L 56 212.5 L 57 204.5 L 65 184.5 L 65 181.5 L 74 163.5 L 87 142.5 L 105 120 L 108 118.5 L 110 115.5 L 139.5 91 L 144 90 Q 142.9 87.3 145.5 88 L 170.5 74 L 173.5 74 L 177.5 71 L 201.5 63 L 209.5 62 L 213.5 60 L 231.5 58 L 232.5 57 L 241.5 57 L 242.5 56 Z M 194 111 L 187 115 L 180 124 Q 181 126 178 125 L 172 135 L 152 147 Q 141 149 135 153 L 132 160 L 133 167 L 142 174 Q 147 173 148 177 L 144 185 L 142 194 L 144 207 L 147 213 L 136 218 Q 132 220 133 226 L 138 228 L 155 222 L 168 221 L 169 220 L 190 220 L 201 222 L 208 225 L 215 225 L 217 222 L 214 216 L 219 207 L 220 202 L 220 190 L 214 176 L 207 168 L 194 162 Q 195 155 200 153 Q 199 150 202 151 L 202 149 L 207 141 L 209 131 Q 210 122 207 118 Q 204 110 194 111 Z M 319 111 L 315 112 Q 309 115 308 123 L 308 133 L 311 144 L 321 158 L 322 162 L 320 164 L 312 167 Q 301 174 297 189 L 297 203 L 302 214 L 300 219 Q 299 224 303 225 L 309 225 L 316 222 L 321 222 L 328 220 L 330 220 L 357 221 L 379 228 L 382 227 L 384 224 L 383 220 L 371 213 L 371 209 L 375 199 L 374 198 L 374 189 L 369 177 L 375 173 L 378 173 Q 377 170 380 171 L 384 166 Q 383 160 385 159 L 380 152 Q 377 153 378 150 Q 372 151 370 147 L 366 147 L 351 139 Q 340 132 334 120 L 327 112 L 319 111 Z M 255 255 Q 253 258 248 256 L 246 256 L 230 260 L 228 260 L 206 270 L 191 281 L 173 301 L 164 320 L 161 335 L 161 337 L 160 339 L 161 356 L 167 369 L 177 377 L 183 378 L 185 378 Q 190 377 192 379 Q 205 376 214 369 L 235 353 L 245 348 L 257 345 L 270 346 L 272 346 L 281 349 L 292 355 Q 305 367 322 376 L 334 379 L 345 378 L 353 373 L 360 362 L 363 348 L 360 325 L 360 323 Q 352 302 339 288 Q 327 275 312 267 L 290 259 L 288 259 L 275 256 L 256 256 L 255 255 Z M 258 367 Q 246 369 239 375 Q 233 378 232 387 L 236 389 Q 243 387 248 381 L 254 379 L 257 378 L 273 378 L 278 381 Q 280 380 279 383 L 286 387 L 291 387 L 294 382 L 293 380 L 287 374 Q 284 375 285 372 L 270 367 L 258 367 Z "/>
    <path fill="#ffa94d" d="M 320.5 121 L 325 124.5 L 332 136 L 335 137.5 L 340 145 L 342.5 145 L 349.5 151 L 374 161.5 L 371.5 164 L 367.5 165 L 365.5 165 L 354.5 165 L 346.5 163 Q 336.2 158.8 329 151.5 Q 329.8 149.3 327.5 150 L 319 135.5 L 318 123.5 L 320.5 121 Z "/>
    <path fill="#ffa94d" d="M 194.5 122 Q 199.3 120.3 198 124.5 L 199 129.5 Q 195.4 147.4 182.5 156 L 166.5 164 Q 159.4 166.4 148.5 165 Q 147.3 162 143 163 L 144.5 160 L 168.5 150 L 177 143.5 L 179 140.5 L 194.5 122 Z "/>
    <path fill="#ffa94d" d="M 176.5 171 L 189.5 171 Q 198.7 173.8 204 180.5 L 206 183.5 L 209 187.5 L 210 197.5 L 209 200.5 Q 208.1 207.6 203.5 211 L 199.5 212 L 193.5 210 L 173.5 209 L 172.5 210 L 158 210 L 153 199.5 L 153 189.5 Q 155.4 180.4 162.5 176 L 176.5 171 Z M 184 180 L 182 181 L 176 188 L 176 198 L 178 198 L 178 200 L 186 204 L 196 201 Q 200 200 199 194 L 198 194 L 190 193 L 188 190 Q 187 184 190 182 Q 190 179 184 180 Z "/>
    <path fill="#ffa94d" d="M 327.5 171 L 339.5 171 Q 343.5 174 350.5 174 L 360 181.5 Q 364.4 187.1 364 197.5 L 361 206.5 L 357.5 210 L 333.5 209 L 329.5 210 L 327.5 210 L 322.5 210 L 316.5 212 L 312 209.5 L 307 199.5 L 307 189.5 L 313 179 L 327.5 171 Z M 327 180 L 324 181 L 318 188 L 318 196 L 322 202 L 328 204 Q 334 205 337 202 L 341 197 Q 343 189 340 186 Q 337 179 327 180 Z "/>
    <path fill="#ffa94d" d="M 248.5 269 L 273.5 269 L 279.5 271 L 281.5 271 L 292.5 273 L 306.5 279 L 321.5 289 L 334 301.5 Q 348 316.5 350 343.5 L 350 345.5 L 348 356.5 L 341.5 365 L 333.5 366 L 329.5 364 L 327.5 364 L 310 354 Q 311.3 351 307.5 352 L 306 349 L 291.5 340 L 279.5 335 L 266.5 332 L 256.5 332 L 254.5 332 L 234.5 338 L 206.5 358 L 204 358 Q 205.1 360.7 202.5 360 L 194.5 365 L 183.5 366 L 176 360.5 L 173 351.5 L 173 349.5 L 173 335.5 L 175 332.5 L 174 330.5 L 184 307 Q 186.7 308.1 186 305.5 L 193 296 L 196 294.5 Q 195.3 292.3 197.5 293 L 207.5 284 L 220.5 277 L 230.5 273 L 248.5 269 Z "/>
  </g>
  <g id="line">
    <path fill="#1a1a1a" d="M 252.5 42 L 273.5 42 L 274.5 43 L 285.5 43 L 286.5 44 L 302.5 45 L 307.5 47 L 317.5 48 L 343.5 56 Q 392.2 75.3 424 111.5 L 426 114.5 Q 439.3 129.3 449 147.5 Q 459 166.5 466 188.5 L 474 224.5 L 475 245.5 L 476 246.5 L 476 268.5 L 475 269.5 L 475 281.5 L 474 282.5 L 472 300.5 Q 468.4 306.9 468 316.5 L 460 338.5 L 442 372.5 L 420 401 Q 417.3 399.9 418 402.5 L 415 404 L 413.5 407 Q 411.3 406.3 412 408.5 L 409 410 Q 410.1 412.7 407.5 412 Q 376.5 441.5 331.5 457 L 296.5 466 L 272.5 468 L 271.5 469 L 243.5 469 L 242.5 468 L 234.5 468 L 225.5 466 L 217.5 466 Q 212.1 462.9 203.5 463 L 162.5 449 Q 121.2 429.3 92 397.5 Q 66.2 370.3 51 332.5 L 47 317.5 L 45 314.5 L 39 286.5 L 39 278.5 L 38 277.5 L 38 236.5 L 44 203.5 L 51 181.5 L 58 165.5 L 64 153.5 L 79 130.5 L 96 110 Q 98.7 111.1 98 108.5 L 101 107 Q 99.9 104.3 102.5 105 L 118.5 90 L 138.5 76 L 158.5 65 L 179.5 56 L 206.5 48 L 216.5 47 L 221.5 45 L 238.5 44 L 239.5 43 L 251.5 43 L 252.5 42 Z M 243 56 L 242 57 L 232 57 L 219 60 L 214 60 L 171 74 L 140 91 L 110 116 L 108 119 L 105 120 L 81 152 L 65 182 L 65 185 L 57 205 L 54 218 L 52 235 L 51 236 L 51 251 L 50 252 L 51 279 L 53 286 L 53 292 L 57 310 L 62 322 L 62 325 Q 76 360 99 386 Q 125 415 163 434 L 181 442 L 210 451 L 215 451 L 227 454 L 235 454 L 236 455 L 249 455 L 250 456 L 288 454 L 300 451 L 305 451 L 309 449 L 313 449 L 327 445 Q 371 429 402 400 Q 426 377 442 347 L 450 329 L 454 314 L 456 311 Q 456 304 459 300 L 461 283 L 462 282 L 462 272 L 463 271 L 462 233 L 460 226 L 459 214 L 450 182 Q 435 142 409 115 Q 393 98 373 85 L 341 69 L 319 62 L 305 59 L 299 59 L 293 57 L 285 57 L 284 56 L 243 56 Z "/>
    <path fill="#1a1a1a" d="M 193.5 111 Q 204.1 110.4 207 117.5 Q 209.9 122.1 209 130.5 L 204 146.5 L 193 162 L 203.5 166 L 214 175.5 L 220 189.5 L 220 201.5 L 214 215.5 L 217 221.5 L 214.5 225 L 207.5 225 L 200.5 222 L 189.5 220 L 168.5 220 L 167.5 221 L 154.5 222 L 137.5 228 L 133 224.5 Q 132 219 135.5 218 L 144.5 215 L 147 212.5 L 144 206.5 L 142 193.5 L 144 184.5 L 148 175 Q 138.5 174.2 134 167.5 L 132 159.5 L 135 153 Q 141.2 148.6 151.5 147 L 172 135 L 186 115 L 193.5 111 Z M 193 122 Q 188 133 179 141 L 177 144 Q 165 155 146 159 L 143 163 L 149 165 L 168 164 L 183 156 Q 195 147 199 130 L 198 125 L 198 122 L 193 122 Z M 177 171 L 163 176 Q 155 180 153 190 Q 151 203 157 209 L 161 211 Q 164 208 173 210 L 174 209 L 185 209 L 186 210 L 194 210 L 203 212 Q 208 208 210 200 Q 211 188 206 183 Q 200 174 190 171 L 177 171 Z "/>
    <path fill="#1a1a1a" d="M 318.5 111 L 326.5 112 L 334 119.5 Q 339.8 131.7 350.5 139 L 365.5 147 L 376.5 150 L 383 155.5 Q 385.3 158.7 384 165.5 L 379.5 171 L 369 175 L 374 188.5 L 374 201.5 L 370 212.5 L 372.5 215 L 383 219 L 384 223.5 L 381.5 227 L 378.5 228 L 356.5 221 Q 350.3 222.8 348.5 220 L 326.5 220 L 320.5 222 L 315.5 222 L 308.5 225 L 302.5 225 Q 299 224 300 218.5 L 302 213.5 L 297 202.5 L 297 188.5 Q 300.9 174.4 311.5 167 L 323 161.5 L 323 159.5 Q 314.7 151.8 310 140.5 L 308 132.5 L 308 122.5 L 313.5 113 L 318.5 111 Z M 321 121 L 318 124 L 318 133 L 326 149 Q 336 161 355 165 Q 368 167 374 162 L 372 159 L 369 159 L 349 150 L 342 145 L 325 125 L 321 121 Z M 328 171 L 313 179 L 307 190 L 307 201 L 315 212 L 323 210 L 333 210 L 334 209 L 358 210 L 361 207 L 364 198 Q 364 187 360 182 L 351 174 Q 344 174 340 171 L 328 171 Z "/>
    <path fill="#1a1a1a" d="M 183.5 180 Q 190.5 178.5 190 181.5 Q 187 183.5 188 189.5 L 190.5 193 L 197.5 194 L 199 193.5 Q 199.7 199.7 195.5 201 L 185.5 204 L 178 199.5 Q 174.2 196.3 176 187.5 L 181.5 181 L 183.5 180 Z "/>
    <path fill="#1a1a1a" d="M 326.5 180 Q 336.5 179.5 340 185.5 Q 342.5 189 341 196.5 L 336.5 202 Q 333.6 204.6 327.5 204 L 319 197.5 Q 316.7 194.3 318 187.5 L 323.5 181 L 326.5 180 Z "/>
    <path fill="#1a1a1a" d="M 247.5 256 L 274.5 256 L 297.5 261 Q 322.3 270.2 339 287.5 Q 350.7 300.3 358 317.5 L 361 328.5 L 363 347.5 L 360 361.5 Q 356.4 369.9 349.5 375 L 343.5 378 L 333.5 379 L 324.5 377 L 314.5 372 L 291.5 355 L 280.5 349 Q 271.1 344.4 256.5 345 L 244.5 348 L 234.5 353 L 213.5 369 L 198.5 377 L 195.5 378 L 180.5 378 Q 171.4 375.5 167 368.5 L 161 355.5 L 160 338.5 Q 162.8 336.7 161 330.5 L 167 311.5 Q 176.1 293.6 190.5 281 Q 202 270.5 217.5 264 L 235.5 258 L 240.5 258 L 247.5 256 Z M 249 269 L 238 271 L 223 276 L 208 284 L 198 293 Q 195 292 196 295 L 193 296 L 182 311 L 177 322 L 173 336 Q 171 352 176 361 L 184 366 L 191 366 L 201 362 L 235 338 L 243 335 L 258 332 L 272 333 L 288 338 L 323 362 L 333 366 L 342 365 L 348 357 L 350 348 Q 349 317 334 302 Q 318 282 293 273 L 275 269 L 249 269 Z "/>
    <path fill="#1a1a1a" d="M 257.5 367 L 269.5 367 L 277.5 369 L 293 379.5 Q 294.3 385.8 290.5 387 L 285.5 387 L 272.5 378 L 254.5 378 Q 244 381.5 237.5 389 L 235.5 389 L 232 384.5 L 238.5 375 Q 245.9 368.9 257.5 367 Z "/>
  </g>
</svg>
