<svg xmlns="http://www.w3.org/2000/svg" width="512" height="512" viewBox="0 0 512 512">
  <g id="color">
    <path fill="#ffffff" d="M 218.5 40 L 235 40.5 L 218.5 41 L 218.5 40 Z "/>
    <path fill="#ffffff" d="M 209.5 41 L 214 41.5 L 204.5 43 L 204.5 42 L 209.5 41 Z "/>
    <path fill="#ffffff" d="M 237.5 41 L 250 43.5 L 243.5 44 L 237.5 42 L 237.5 41 Z "/>
    <path fill="#ffffff" d="M 252.5 42 L 290 42.5 L 252.5 43 L 252.5 42 Z "/>
    <path fill="#ffffff" d="M 292.5 43 L 298 43.5 L 292.5 44 L 292.5 43 Z "/>
    <path fill="#ffffff" d="M 195.5 44 L 198 44.5 L 192.5 46 L 192.5 45 L 195.5 44 Z "/>
    <path fill="#ffffff" d="M 301.5 44 L 311 45.5 L 306.5 46 L 301.5 45 L 301.5 44 Z "/>
    <path fill="#ffffff" d="M 185.5 47 L 188 47.5 L 183.5 49 L 183.5 48 L 185.5 47 Z "/>
    <path fill="#ffffff" d="M 318.5 47 L 324 48.5 L 321.5 49 L 318.5 48 L 318.5 47 Z "/>
    <path fill="#ffffff" d="M 176.5 50 L 179 50.5 L 174.5 52 L 174.5 51 L 176.5 50 Z "/>
    <path fill="#ffffff" d="M 329.5 50 L 335 51.5 L 332.5 52 L 329.5 51 L 329.5 50 Z "/>
    <path fill="#ffffff" d="M 336.5 52 L 343 54.5 L 341.5 55 L 336.5 53 L 336.5 52 Z "/>
    <path fill="#ffffff" d="M 169.5 53 L 171 53.5 L 167.5 55 L 167.5 54 L 169.5 53 Z "/>
    <path fill="#ffffff" d="M 344.5 55 L 351 57.5 L 349.5 58 L 344.5 56 L 344.5 55 Z "/>
    <path fill="#ffffff" d="M 352.5 58 L 356 59.5 L 354.5 60 L 352.5 58 Z "/>
    <path fill="#ffffff" d="M 149.5 63 L 148.5 65 L 146.5 66 L 147.5 64 L 149.5 63 Z "/>
    <path fill="#ffffff" d="M 144.5 66 L 143.5 68 L 141.5 69 L 142.5 67 L 144.5 66 Z "/>
    <path fill="#ffffff" d="M 369.5 66 L 373 68.5 L 371.5 68 L 369.5 66 Z "/>
    <path fill="#ffffff" d="M 139.5 69 L 138.5 71 L 136.5 72 L 137.5 70 L 139.5 69 Z "/>
    <path fill="#ffffff" d="M 378.5 71 L 383 74.5 L 380.5 73 L 378.5 71 Z "/>
    <path fill="#ffffff" d="M 387.5 77 L 393 81.5 L 390.5 80 L 387.5 77 Z "/>
    <path fill="#ffffff" d="M 123.5 80 L 119.5 85 L 115.5 88 L 119.5 83 L 123.5 80 Z "/>
    <path fill="#ffffff" d="M 395.5 83 Q 411.1 93.9 423 108.5 L 428 114.5 L 422 109.5 L 404.5 91 Q 397.7 87.8 395.5 83 Z "/>
    <path fill="#ffffff" d="M 431.5 120 L 436 125.5 L 433 123.5 L 431.5 120 Z "/>
    <path fill="#ffffff" d="M 76.5 130 L 76 131.5 L 71.5 138 L 73 135.5 L 76.5 130 Z "/>
    <path fill="#ffffff" d="M 438.5 130 L 442 134.5 L 440 133.5 L 438.5 130 Z "/>
    <path fill="#ffffff" d="M 442.5 136 L 447 143.5 L 445 142.5 L 442.5 136 Z "/>
    <path fill="#ffffff" d="M 70.5 139 L 70 140.5 L 67.5 145 L 68 143.5 L 70.5 139 Z "/>
    <path fill="#ffffff" d="M 447.5 145 L 455 159.5 L 454 159.5 L 447.5 145 Z "/>
    <path fill="#ffffff" d="M 65.5 148 L 65 149.5 L 60.5 159 L 60 157.5 L 65.5 148 Z "/>
    <path fill="#ffffff" d="M 456.5 163 L 458 166.5 L 457 166.5 L 456.5 163 Z "/>
    <path fill="#ffffff" d="M 56.5 166 L 57 167.5 L 55.5 170 L 55 168.5 L 56.5 166 Z "/>
    <path fill="#ffffff" d="M 458.5 168 L 461 174.5 L 460 174.5 L 458.5 168 Z "/>
    <path fill="#ffffff" d="M 53.5 173 L 54 174.5 L 52.5 177 L 52 175.5 L 53.5 173 Z "/>
    <path fill="#ffffff" d="M 461.5 176 L 464 182.5 L 463 182.5 L 461.5 176 Z "/>
    <path fill="#ffffff" d="M 50.5 181 L 51 183.5 L 49.5 186 L 49 184.5 L 50.5 181 Z "/>
    <path fill="#ffffff" d="M 464.5 185 L 466 189.5 L 465 189.5 L 464.5 185 Z "/>
    <path fill="#ffffff" d="M 48.5 187 L 49 189.5 L 47.5 193 L 47 190.5 L 48.5 187 Z "/>
    <path fill="#ffffff" d="M 467.5 195 L 469 201.5 L 468 201.5 L 467.5 195 Z "/>
    <path fill="#ffffff" d="M 45.5 198 L 46 200.5 L 44.5 204 L 44 201.5 L 45.5 198 Z "/>
    <path fill="#ffffff" d="M 470.5 208 L 472 215.5 L 471 215.5 L 470.5 208 Z "/>
    <path fill="#ffffff" d="M 42.5 209 L 43 213.5 L 41.5 218 L 41 214.5 L 42.5 209 Z "/>
    <path fill="#ffffff" d="M 40.5 220 L 41 224.5 L 40 224.5 L 40.5 220 Z "/>
    <path fill="#ffffff" d="M 473.5 224 L 474 230.5 L 473 230.5 L 473.5 224 Z "/>
    <path fill="#ffffff" d="M 39.5 226 L 40 232.5 L 38.5 241 L 38 233.5 L 39.5 226 Z "/>
    <path fill="#ffffff" d="M 474.5 232 L 475 238.5 L 474 238.5 L 474.5 232 Z "/>
    <path fill="#ffffff" d="M 475.5 244 L 476 257.5 L 475 257.5 L 475.5 244 Z "/>
    <path fill="#ffffff" d="M 37.5 246 L 38 264.5 L 37 264.5 L 37.5 246 Z "/>
    <path fill="#ffffff" d="M 476.5 260 L 477 264.5 L 476 264.5 L 476.5 260 Z "/>
    <path fill="#ffffff" d="M 37.5 267 L 38 280.5 L 37 280.5 L 37.5 267 Z "/>
    <path fill="#ffffff" d="M 475.5 268 L 476 279.5 L 475 279.5 L 475.5 268 Z "/>
    <path fill="#ffffff" d="M 38.5 285 L 40 298.5 L 39 298.5 L 38.5 285 Z "/>
    <path fill="#ffffff" d="M 474.5 285 L 475 291.5 L 473.5 299 L 473 292.5 L 474.5 285 Z "/>
    <path fill="#ffffff" d="M 41.5 306 L 43 313.5 L 42 313.5 L 41.5 306 Z "/>
    <path fill="#ffffff" d="M 471.5 306 L 472 309.5 L 470.5 313 L 470 310.5 L 471.5 306 Z "/>
    <path fill="#ffffff" d="M 468.5 318 L 469 321.5 L 467.5 325 L 467 322.5 L 468.5 318 Z "/>
    <path fill="#ffffff" d="M 44.5 319 L 46 325.5 L 45 325.5 L 44.5 319 Z "/>
    <path fill="#ffffff" d="M 465.5 329 L 466 331.5 L 464.5 334 L 464 332.5 L 465.5 329 Z "/>
    <path fill="#ffffff" d="M 47.5 330 L 49 335.5 L 48 335.5 L 47.5 330 Z "/>
    <path fill="#ffffff" d="M 463.5 335 L 464 336.5 L 461.5 342 L 461 340.5 L 463.5 335 Z "/>
    <path fill="#ffffff" d="M 49.5 337 L 52 343.5 L 51 343.5 L 49.5 337 Z "/>
    <path fill="#ffffff" d="M 460.5 343 L 461 344.5 L 458.5 349 L 458 347.5 L 460.5 343 Z "/>
    <path fill="#ffffff" d="M 52.5 345 L 55 350.5 L 54 350.5 L 52.5 345 Z "/>
    <path fill="#ffffff" d="M 457.5 350 L 458 351.5 L 453.5 360 L 453 358.5 L 457.5 350 Z "/>
    <path fill="#ffffff" d="M 55.5 352 L 58 357.5 L 57 357.5 L 55.5 352 Z "/>
    <path fill="#ffffff" d="M 452.5 361 L 452 362.5 L 450.5 365 L 451 363.5 L 452.5 361 Z "/>
    <path fill="#ffffff" d="M 60.5 363 L 65 370.5 L 63 369.5 L 60.5 363 Z "/>
    <path fill="#ffffff" d="M 449.5 366 L 449 367.5 L 447.5 370 L 448 368.5 L 449.5 366 Z "/>
    <path fill="#ffffff" d="M 446.5 371 L 446 372.5 L 444.5 375 L 445 373.5 L 446.5 371 Z "/>
    <path fill="#ffffff" d="M 65.5 372 L 68 375.5 L 66 374.5 L 65.5 372 Z "/>
    <path fill="#ffffff" d="M 443.5 376 L 443 377.5 L 441.5 380 L 442 378.5 L 443.5 376 Z "/>
    <path fill="#ffffff" d="M 68.5 377 L 71 380.5 L 69 379.5 L 68.5 377 Z "/>
    <path fill="#ffffff" d="M 71.5 382 L 78 390.5 L 75 388.5 L 71.5 382 Z "/>
    <path fill="#ffffff" d="M 82.5 397 L 87 402.5 L 86 402.5 L 82.5 397 Z "/>
    <path fill="#ffffff" d="M 420.5 405 L 420 406.5 L 416.5 411 L 416 409 L 419 407.5 L 420.5 405 Z "/>
    <path fill="#ffffff" d="M 403.5 421 L 405 421.5 L 400.5 425 L 403.5 421 Z "/>
    <path fill="#ffffff" d="M 112.5 426 L 120 432.5 L 116.5 430 L 112.5 426 Z "/>
    <path fill="#ffffff" d="M 121.5 433 L 129 438.5 L 127.5 438 Q 122.5 436.5 121.5 433 Z "/>
    <path fill="#ffffff" d="M 387.5 433 L 385.5 436 L 380.5 439 L 381.5 437 L 387.5 433 Z "/>
    <path fill="#ffffff" d="M 130.5 439 L 134 441.5 L 132.5 441 L 130.5 439 Z "/>
    <path fill="#ffffff" d="M 378.5 439 L 377.5 441 L 375.5 442 L 376.5 440 L 378.5 439 Z "/>
    <path fill="#ffffff" d="M 135.5 442 L 143 446.5 L 141.5 446 Q 135.9 445.2 135.5 442 Z "/>
    <path fill="#ffffff" d="M 373.5 442 L 372.5 444 L 353.5 453 L 353.5 452 L 373.5 442 Z "/>
    <path fill="#ffffff" d="M 150.5 450 L 156 452.5 L 154.5 453 L 150.5 451 L 150.5 450 Z "/>
    <path fill="#ffffff" d="M 157.5 453 L 163 455.5 L 161.5 456 Q 157.5 455.5 157.5 453 Z "/>
    <path fill="#ffffff" d="M 350.5 453 L 352 453.5 L 348.5 455 L 348.5 454 L 350.5 453 Z "/>
    <path fill="#ffffff" d="M 164.5 456 L 168 457.5 L 166.5 458 L 164.5 456 Z "/>
    <path fill="#ffffff" d="M 343.5 456 L 345 456.5 L 340.5 458 L 340.5 457 L 343.5 456 Z "/>
    <path fill="#ffffff" d="M 172.5 459 L 177 460.5 L 174.5 461 L 172.5 459 Z "/>
    <path fill="#ffffff" d="M 334.5 459 L 337 459.5 L 331.5 461 L 331.5 460 L 334.5 459 Z "/>
    <path fill="#ffffff" d="M 181.5 462 L 187 463.5 L 184.5 464 L 181.5 463 L 181.5 462 Z "/>
    <path fill="#ffffff" d="M 324.5 462 L 327 462.5 L 321.5 464 L 321.5 463 L 324.5 462 Z "/>
    <path fill="#ffffff" d="M 189.5 464 L 195 465.5 L 192.5 466 L 189.5 465 L 189.5 464 Z "/>
    <path fill="#ffffff" d="M 317.5 464 L 320 464.5 L 310.5 467 L 310.5 466 L 317.5 464 Z "/>
    <path fill="#ffffff" d="M 201.5 467 L 210 468.5 L 205.5 469 L 201.5 468 L 201.5 467 Z "/>
    <path fill="#ffffff" d="M 304.5 467 L 307 467.5 Q 304.3 469.8 298.5 469 L 298.5 468 Q 303.3 469.3 304.5 467 Z "/>
    <path fill="#ffffff" d="M 219.5 470 L 236 471.5 L 227.5 472 Q 225.7 469.3 219.5 471 L 219.5 470 Z "/>
    <path fill="#ffffff" d="M 283.5 470 L 289 470.5 L 282.5 472 L 274.5 472 L 274.5 471 L 282.5 471 L 283.5 470 Z "/>
    <path fill="#ffffff" d="M 242.5 472 L 269 472.5 L 242.5 473 L 242.5 472 Z "/>
    <path fill="#4da3ff" d="M 164.5 205 L 174.5 207 L 196 215 Q 196.1 227.6 188.5 234 L 180.5 239 L 175.5 239 Q 168.8 236.8 165 231.5 L 161 218.5 L 162 217.5 L 162 209.5 L 164.5 205 Z "/>
    <path fill="#4da3ff" d="M 345.5 205 Q 351.8 202.8 350 208.5 L 351 209.5 L 351 224.5 Q 349.1 232.2 343.5 236 L 336.5 239 L 332.5 239 L 323 232.5 Q 316.9 226.2 317 215 L 345.5 205 Z "/>
    <path fill="#ff6b6b" d="M 333.5 318 Q 338.5 317.5 339 321.5 L 338 323.5 L 347.5 339 L 350 340.5 L 349 343 L 351 343.5 L 350 344.5 L 351.5 347 Q 349.3 346.3 350 348.5 L 352 351.5 L 351 352.5 L 351 360.5 L 351.5 364 L 350 363.5 L 349 369.5 L 349.5 371 L 348 370.5 L 345 375.5 L 346 377.5 L 342 379.5 L 342.5 381 Q 341.3 378.8 340 381.5 Q 340.8 384.1 337.5 383 L 337.5 385 L 335.5 384 L 335.5 386 L 332.5 385 L 332.5 387 Q 330.3 387.8 331 385.5 L 329.5 386 L 321 386.5 L 321.5 388 Q 319.3 388.8 320 386.5 L 319 386.5 L 318.5 388 L 317 385 L 315 385.5 L 315.5 387 L 312 385.5 L 312.5 384 Q 310.3 383.3 311 385.5 L 310 385.5 L 309.5 384 Q 308 386.5 306.5 383 L 301 381 L 302 378.5 L 300.5 378 Q 298.7 380.8 297 376.5 Q 298.1 373.2 295.5 374 L 293 372.5 L 293 370.5 Q 293.8 367.9 290.5 369 L 286 363.5 L 286.5 362 L 285 361.5 L 285.5 360 Q 283.3 360.8 284 358.5 L 284 356.5 L 283.5 354 L 282.5 356 L 282 354.5 L 283 352.5 L 281 352.5 L 282 349.5 L 280 349.5 L 281 346.5 L 279 346.5 L 280 342 L 277 340.5 L 278 335.5 L 277.5 334 L 279 334.5 Q 278.3 332.3 280.5 333 L 282 333.5 Q 281.2 330.9 284.5 332 L 292.5 330 L 295.5 331 L 300.5 329 L 304 330.5 L 303 333.5 L 304 336 Q 306.7 334.9 306 337.5 L 307 340 Q 309.7 338.9 309 341.5 L 310.5 344 L 309 343.5 L 310.5 347 L 312 346.5 L 311 349.5 L 312.5 352 L 314 351.5 L 313 354.5 L 316 355.5 Q 313.8 356.8 316.5 358 L 322.5 359 L 322.5 358 L 321 357.5 L 324.5 355 L 326 355.5 L 325.5 347 L 324 347.5 L 325 344.5 L 323 338 L 320 337.5 L 322 336.5 L 319 336 L 314 326.5 L 315 324.5 L 313 324.5 L 317.5 322 L 325.5 320 L 328.5 321 L 331 321 Q 329.9 318.3 332.5 319 L 333.5 318 Z "/>
    <path fill="#ffa94d" d="M 216.5 55 L 219 55.5 L 218 58 Q 214.7 56.9 216 61 L 226.5 61 L 232.5 59 L 257.5 57 L 258.5 56 L 281.5 56 L 282.5 57 L 300.5 58 L 310.5 61 L 316.5 61 L 319.5 63 L 326.5 64 L 329.5 66 L 341.5 69 Q 375.8 82.7 400 106.5 Q 399.3 108.8 401.5 108 L 408 116 L 411 117.5 L 426 136.5 L 442 165.5 L 450 185.5 L 457 212.5 Q 454.5 214 458 215.5 L 458 222.5 L 461 235.5 L 461 248.5 L 462 249.5 L 462 274.5 L 461 275.5 L 461 287.5 L 458 299.5 L 458 304.5 L 453 323.5 L 450 328.5 L 450 330.5 L 449 335.5 L 437 360.5 L 419 387 Q 416.3 385.9 417 388.5 L 413 394 Q 410.3 392.9 411 395.5 L 407 398.5 L 403.5 403 L 400.5 405 L 377.5 424 L 371.5 426 L 353.5 437 L 350.5 437 L 337.5 444 L 334.5 444 L 319.5 450 L 314.5 450 L 311.5 452 L 300.5 454 L 298.5 454 L 281.5 457 L 279.5 457 Q 273.3 455.3 271.5 458 L 239.5 458 L 236.5 457 L 228.5 456 L 226.5 456 L 219.5 456 L 202.5 452 L 196.5 452 L 193.5 450 L 179.5 447 L 174.5 444 L 170.5 444 L 163 441 Q 164.3 437.7 159.5 439 L 141.5 430 L 121 415.5 Q 121.8 413.3 119.5 414 L 108 405 Q 109.1 402.3 106.5 403 L 105 400 Q 102.3 401.1 103 398.5 L 93 387.5 L 92 384 L 89 382.5 L 76 362.5 L 76.5 361 Q 74.3 361.8 75 359.5 L 64 337.5 L 55 306.5 L 55 300.5 L 52 286.5 L 51 260.5 L 51 258.5 L 52 255.5 L 53 230.5 L 59 200.5 L 66 182.5 L 67 176.5 L 76 160.5 L 78 154 Q 81 155.3 80 151.5 Q 94.8 124.8 116.5 105 L 137.5 88 L 163.5 72 L 199.5 58 L 204.5 58 L 216.5 55 Z M 141 186 L 139 187 L 136 192 L 137 194 L 143 197 L 151 199 Q 152 205 149 208 L 149 220 L 148 221 L 152 235 L 157 243 L 167 250 L 174 252 Q 183 253 189 250 L 198 244 L 200 241 Q 199 238 202 239 L 205 234 L 209 219 L 208 209 L 196 200 L 190 199 L 179 194 L 149 186 L 141 186 Z M 366 186 L 321 199 L 309 205 L 304 213 L 305 225 L 313 241 Q 317 248 327 250 L 331 252 L 340 252 L 352 247 Q 358 241 362 233 Q 365 227 364 217 L 364 215 L 365 213 L 364 208 L 364 206 L 362 205 L 361 201 L 365 198 L 374 196 Q 377 195 376 190 Q 374 184 366 186 Z M 357 300 L 354 302 L 346 303 L 344 303 L 342 305 L 338 305 L 319 311 L 315 311 L 312 313 L 305 314 L 303 314 L 301 316 L 293 317 L 280 322 L 275 322 L 273 324 L 266 325 L 264 325 L 262 327 L 249 330 L 247 330 L 242 333 L 238 333 L 216 341 L 209 342 L 202 346 L 189 350 L 184 356 L 185 359 L 188 360 L 193 359 L 195 360 L 197 358 L 208 355 L 210 355 L 218 351 L 225 350 L 267 337 L 268 339 L 269 352 L 272 360 L 282 378 Q 292 391 310 397 L 312 397 L 317 399 Q 327 400 335 398 L 343 395 L 351 389 L 358 381 L 362 372 L 363 366 L 364 363 L 364 349 L 361 338 L 359 336 L 356 327 L 350 319 L 348 316 Q 349 313 351 315 L 355 313 L 366 311 L 371 307 L 370 302 L 369 300 L 357 300 Z "/>
    <path fill="#66d9e8" d="M 162 203 L 167.5 203 L 180.5 208 L 183.5 208 L 198 214 L 197 223.5 L 191 235 L 183.5 240 L 176.5 241 Q 169 239.6 165 234.5 Q 158 227 160 210.5 L 162 203 Z M 165 205 L 162 210 L 162 218 L 161 219 L 165 232 Q 169 237 176 239 L 181 239 L 189 234 Q 196 228 196 215 L 175 207 L 165 205 Z "/>
    <path fill="#66d9e8" d="M 345.5 203 Q 351.6 201.8 351 204.5 Q 354.3 211.7 353 223.5 Q 351.5 232.5 345.5 237 Q 341.2 241.2 332.5 241 L 322 235 Q 315.7 227.2 315 214 L 326.5 209 L 345.5 203 Z M 346 205 L 317 215 Q 317 226 323 233 L 333 239 L 337 239 L 344 236 Q 349 232 351 225 L 351 210 L 350 209 Q 352 203 346 205 Z "/>
    <path fill="#f783ac" d="M 338.5 322 L 349 338.5 L 347.5 339 L 344 331.5 L 339 325.5 L 338.5 322 Z "/>
    <path fill="#f783ac" d="M 297.5 328 Q 302 327 303 329.5 L 301.5 330 L 299.5 329 L 293 331 Q 291.7 327.7 296.5 329 L 297.5 328 Z "/>
    <path fill="#f783ac" d="M 303.5 331 L 309 339.5 L 307 340 L 306 336 Q 303.3 337.1 304 334.5 L 303.5 331 Z "/>
    <path fill="#f783ac" d="M 321.5 338 Q 324.1 337.2 323 340.5 Q 327.2 345.3 326 355.5 L 325 358 L 318.5 359 L 313 354.5 L 309 343.5 L 311 344.5 L 315 356 L 322.5 358 Q 327 356 325 347.5 L 321.5 338 Z "/>
    <path fill="#f783ac" d="M 278.5 342 Q 281.5 341.1 280 345.5 L 285 357.5 L 283 358 L 283 354.5 L 278.5 342 Z "/>
    <path fill="#f783ac" d="M 350 347 Q 353.3 345.7 352 350.5 L 351 350.5 L 350 347 Z "/>
    <path fill="#f783ac" d="M 351.5 352 L 353 356.5 L 351.5 361 L 351.5 352 Z "/>
    <path fill="#f783ac" d="M 351.5 362 L 351 365.5 L 346.5 376 Q 344.3 375.3 345 377.5 L 344 380 Q 341.3 378.9 342 381.5 L 340 382.5 L 348 371.5 L 351.5 362 Z "/>
    <path fill="#f783ac" d="M 291 369 Q 293.7 367.9 293 370.5 L 293.5 372 L 291 370.5 L 291 369 Z "/>
    <path fill="#f783ac" d="M 294.5 373 L 297 374 L 296.5 376 L 294.5 373 Z "/>
    <path fill="#f783ac" d="M 337.5 383 L 339 383.5 L 332.5 386 L 332.5 385 L 337.5 383 Z "/>
    <path fill="#f783ac" d="M 330.5 385 L 331 387 L 322.5 388 L 321.5 386 L 329.5 386 L 330.5 385 Z "/>
  </g>
  <g id="line">
    <path fill="#1a1a1a" d="M 214.5 41 L 236.5 41 Q 240.6 44.9 249.5 44 L 250.5 43 L 291.5 43 L 325.5 49 L 351.5 58 L 368.5 66 Q 399.6 82.9 422 108.5 L 442 135.5 L 456 162.5 L 464 183.5 L 469 202.5 L 470 212.5 L 472 216.5 L 474 238.5 L 475 239.5 L 476 267.5 L 475 268.5 L 475 284.5 L 474 285.5 L 472 305.5 L 467 325.5 L 461 342.5 L 453 360.5 L 441 380.5 L 422 405 L 419 406.5 L 417.5 409 L 414.5 411 Q 383.6 442.6 337.5 459 L 309.5 467 L 304.5 467 L 291.5 470 L 283.5 470 L 273.5 472 L 236.5 472 L 226.5 470 L 216.5 470 L 187.5 464 Q 167 458.5 149.5 450 Q 112.4 432.1 87 402.5 L 65 371.5 L 58 358.5 L 49 336.5 L 41 305.5 L 40 292.5 L 38 284.5 L 38 267.5 L 37 265.5 L 38 264.5 L 38 241.5 L 39 240.5 L 41 218.5 L 49 186.5 L 57 165.5 Q 77.8 118.8 114.5 88 L 135.5 72 L 166.5 55 L 191.5 46 L 214.5 41 Z M 217 55 L 205 58 L 200 58 L 162 73 Q 136 86 117 105 Q 101 119 89 137 Q 77 155 67 177 L 66 183 L 59 201 L 57 214 L 55 219 L 53 238 L 52 239 L 52 253 L 51 254 L 51 272 L 52 273 L 53 295 L 58 319 L 64 338 L 78 367 L 92 387 L 103 399 L 105 402 L 124 418 L 147 433 L 166 442 L 197 452 L 220 456 L 226 456 L 227 457 L 237 457 L 238 458 L 272 458 L 273 457 L 290 456 L 320 450 L 335 444 L 338 444 L 378 424 L 401 406 L 411 396 Q 410 393 413 394 L 433 368 L 447 341 L 458 306 L 460 289 L 461 288 L 461 277 L 462 276 L 461 236 L 458 222 L 458 216 L 449 183 L 438 157 L 426 137 Q 413 117 396 102 Q 393 103 394 100 L 362 78 L 337 67 L 317 61 L 312 61 L 301 58 L 283 57 L 282 56 L 259 56 L 258 57 L 233 59 L 227 61 L 216 61 Q 215 57 218 58 L 219 56 L 217 55 Z "/>
    <path fill="#1a1a1a" d="M 140.5 186 L 148.5 186 L 177.5 194 L 199.5 202 L 207 207.5 Q 209.9 211.1 209 218.5 Q 206.8 219.8 208 224.5 L 203 236.5 L 193.5 247 L 182.5 252 L 174.5 252 L 166.5 250 L 155 239.5 L 149 226.5 L 149 209.5 L 152 199 L 142.5 197 L 137 193.5 Q 135.8 188.3 138.5 187 L 140.5 186 Z M 162 203 L 160 211 Q 158 227 165 235 Q 169 240 177 241 L 184 240 L 191 235 L 197 224 L 198 214 L 184 208 L 181 208 L 168 203 L 162 203 Z "/>
    <path fill="#1a1a1a" d="M 365.5 186 Q 373.8 184.7 376 189.5 Q 377 195 373.5 196 L 363.5 198 L 361 200.5 L 364 208.5 L 364 226.5 Q 360.4 239.4 351.5 247 Q 344.4 252.9 330.5 252 Q 319 249 313 240.5 L 305 224.5 L 304 212.5 L 308.5 205 L 326.5 197 L 365.5 186 Z M 346 203 L 327 209 L 315 214 Q 316 227 322 235 L 333 241 Q 341 241 346 237 Q 352 233 353 224 Q 354 212 351 205 Q 352 202 346 203 Z "/>
    <path fill="#1a1a1a" d="M 358.5 300 Q 366.7 298.9 370 301 L 371 306.5 L 365.5 311 L 349.5 314 L 348 315.5 L 356 326.5 L 361 338.5 L 364 349.5 L 364 361.5 L 358 380.5 L 350.5 389 L 334.5 398 Q 327.8 400.3 317.5 399 Q 294.1 393.9 282 377.5 L 272 359.5 L 269 350.5 L 268 338.5 L 266.5 337 L 224.5 350 L 217.5 351 L 195.5 359 L 187.5 360 L 185 359 Q 183.5 351.8 188.5 350 L 258.5 327 L 272.5 324 L 307.5 313 L 311.5 313 L 325.5 308 L 329.5 308 L 358.5 300 Z M 334 318 L 318 322 L 313 325 L 322 341 L 325 349 L 325 355 L 321 358 L 318 357 L 313 351 L 307 336 L 302 328 L 297 328 L 277 334 Q 279 357 291 371 Q 300 384 319 388 L 329 388 L 341 383 L 348 375 L 352 366 Q 351 361 353 360 L 352 347 L 349 338 L 339 322 Q 339 318 334 318 Z "/>
  </g>
</svg>
