<svg xmlns="http://www.w3.org/2000/svg" width="512" height="512" viewBox="0 0 512 512">
  <g id="color">
    <path fill="#ffffff" d="M 216.5 37 Q 224.9 39.1 229 45.5 L 223.5 41 L 216.5 38 L 216.5 37 Z "/>
    <path fill="#ffffff" d="M 78.5 39 L 86 39.5 L 78.5 40 L 78.5 39 Z "/>
    <path fill="#ffffff" d="M 73.5 40 L 76 40.5 L 71.5 42 L 71.5 41 L 73.5 40 Z "/>
    <path fill="#ffffff" d="M 88.5 40 L 93 41.5 L 91.5 42 L 88.5 41 L 88.5 40 Z "/>
    <path fill="#ffffff" d="M 94.5 42 L 98 44.5 L 96.5 44 L 94.5 42 Z "/>
    <path fill="#ffffff" d="M 99.5 45 L 109 55.5 L 107 54.5 L 99.5 45 Z "/>
    <path fill="#ffffff" d="M 207.5 46 Q 218.2 46.8 222 54.5 L 221 61 Q 217.1 63.9 208.5 63 L 206.5 62 L 202 64.5 L 189 97 L 187 96.5 L 187 86.5 L 195 58.5 Q 197.3 51.8 202.5 48 L 207.5 46 Z "/>
    <path fill="#ffffff" d="M 229.5 47 L 232 50.5 L 230 49.5 L 229.5 47 Z "/>
    <path fill="#ffffff" d="M 188.5 49 L 189 50.5 L 184.5 60 L 184 58.5 L 188.5 49 Z "/>
    <path fill="#ffffff" d="M 76.5 50 Q 93.2 48.3 98 58.5 L 105 72.5 L 109 87 L 106.5 88 Q 99 80 96 67.5 L 91.5 63 L 75.5 64 L 70 60.5 L 69 55.5 L 76.5 50 Z "/>
    <path fill="#ffffff" d="M 59.5 52 L 60 54.5 L 59 59.5 L 60 62.5 L 59 62.5 L 58 55.5 L 59.5 52 Z "/>
    <path fill="#ffffff" d="M 232.5 53 L 233 60.5 L 232 60.5 L 232.5 53 Z "/>
    <path fill="#ffffff" d="M 109.5 57 L 114 67.5 L 113 67.5 L 109.5 57 Z "/>
    <path fill="#ffffff" d="M 231.5 63 L 231 64.5 L 227.5 69 L 230 65.5 L 231.5 63 Z "/>
    <path fill="#ffffff" d="M 60.5 64 L 64.5 69 L 68 71.5 L 66.5 71 L 61 66.5 L 60.5 64 Z "/>
    <path fill="#ffffff" d="M 182.5 65 L 183 67.5 L 181.5 72 L 181 68.5 L 182.5 65 Z "/>
    <path fill="#ffffff" d="M 114.5 70 L 117 78.5 L 116 78.5 L 114.5 70 Z "/>
    <path fill="#ffffff" d="M 69.5 72 L 74 73.5 L 71.5 74 L 69.5 72 Z "/>
    <path fill="#ffffff" d="M 209.5 72 L 220 72.5 L 209 73 L 208.5 75 L 208 73.5 L 209.5 72 Z "/>
    <path fill="#ffffff" d="M 75.5 74 L 86.5 74 L 89 76.5 L 90 79.5 L 88 78.5 L 86.5 75 L 75.5 75 L 75.5 74 Z "/>
    <path fill="#ffffff" d="M 180.5 74 L 181 77.5 L 178.5 81 L 179 79.5 L 180.5 74 Z "/>
    <path fill="#ffffff" d="M 207.5 76 L 208 77.5 L 205.5 83 L 205 81.5 L 207.5 76 Z "/>
    <path fill="#ffffff" d="M 146.5 77 L 160.5 77 L 161.5 78 L 171 78.5 L 161.5 79 L 160.5 78 L 146.5 78 L 145.5 79 L 137.5 79 L 137.5 78 L 145.5 78 L 146.5 77 Z "/>
    <path fill="#ffffff" d="M 125.5 80 L 130 80.5 L 122.5 82 L 122.5 81 L 125.5 80 Z "/>
    <path fill="#ffffff" d="M 204.5 84 L 205.5 87 L 211 89.5 L 209.5 90 L 203 85.5 L 204.5 84 Z "/>
    <path fill="#ffffff" d="M 92.5 85 L 98 92.5 L 97 92.5 L 92.5 85 Z "/>
    <path fill="#ffffff" d="M 142.5 88 L 164.5 88 L 165.5 89 L 178 90 L 178 102.5 L 183.5 109 Q 192.8 110.3 195 104.5 L 199.5 97 Q 223 105 237 122.5 Q 246.3 133.2 252 147.5 L 257 165.5 L 258 183.5 L 256 194.5 L 250 208.5 L 233.5 227 L 206.5 243 L 169.5 256 L 142.5 262 L 114.5 262 L 98.5 258 Q 83.4 251.4 72 242 Q 73.1 239.3 70.5 240 Q 61.1 231.4 56 218.5 L 53 209.5 L 52 194.5 L 53 193.5 L 53 183.5 Q 55.6 180.6 55 174.5 L 61 157.5 L 74 130.5 L 85 115 Q 87.7 116.1 87 113.5 L 90 112 Q 88.9 109.3 91.5 110 L 95.5 106 L 112.5 96 L 126.5 91 L 142.5 88 Z M 108 136 L 99 140 L 92 152 L 91 164 L 87 166 L 81 173 Q 80 178 82 180 Q 81 182 88 181 Q 91 181 90 177 L 94 173 L 101 171 L 101 155 L 103 150 Q 104 146 110 147 L 113 152 L 115 159 Q 114 163 116 165 L 116 182 L 121 185 L 125 183 L 125 159 L 119 143 Q 115 137 108 136 Z M 189 136 L 183 138 Q 176 143 173 152 L 172 161 L 164 165 Q 157 170 159 183 L 164 186 L 167 185 L 168 184 L 169 175 L 173 171 L 178 171 L 181 169 Q 183 165 182 156 L 184 151 L 190 146 L 192 147 L 194 150 L 197 158 L 197 179 L 196 180 L 197 184 Q 198 186 204 185 L 206 183 L 206 174 L 207 173 L 206 155 L 201 143 Q 198 136 189 136 Z "/>
    <path fill="#ffffff" d="M 212.5 90 L 220 94.5 L 218.5 94 Q 212.9 93.2 212.5 90 Z "/>
    <path fill="#ffffff" d="M 92.5 95 L 91.5 97 L 76 110.5 L 71.5 116 L 75 111.5 L 85.5 100 L 92.5 95 Z "/>
    <path fill="#ffffff" d="M 221.5 95 L 229 100.5 L 226.5 99 Q 221.9 97.8 221.5 95 Z "/>
    <path fill="#ffffff" d="M 230.5 101 L 240 109 L 250 121.5 L 246 118.5 L 230.5 101 Z "/>
    <path fill="#ffffff" d="M 68.5 120 L 67 122.5 L 63.5 129 L 64 127.5 L 68.5 120 Z "/>
    <path fill="#ffffff" d="M 250.5 123 L 256 131.5 L 254 130.5 L 250.5 123 Z "/>
    <path fill="#ffffff" d="M 256.5 133 L 259 137.5 L 257 136.5 L 256.5 133 Z "/>
    <path fill="#ffffff" d="M 259.5 139 L 262 144.5 L 261 144.5 L 259.5 139 Z "/>
    <path fill="#ffffff" d="M 54.5 146 L 55 147.5 L 53.5 150 L 53 148.5 L 54.5 146 Z "/>
    <path fill="#ffffff" d="M 262.5 146 L 264 150.5 L 263 150.5 L 262.5 146 Z "/>
    <path fill="#ffffff" d="M 52.5 151 L 53 152.5 L 50.5 158 L 50 155.5 L 52.5 151 Z "/>
    <path fill="#ffffff" d="M 48.5 161 L 49 163.5 L 47.5 166 L 47 164.5 L 48.5 161 Z "/>
    <path fill="#ffffff" d="M 46.5 167 L 47 169.5 L 45.5 173 L 45 170.5 L 46.5 167 Z "/>
    <path fill="#ffffff" d="M 267.5 167 L 269 180.5 L 267.5 189 L 267 181.5 Q 269.3 180.3 268 175.5 L 267 174.5 L 267.5 167 Z "/>
    <path fill="#ffffff" d="M 43.5 178 L 44 182.5 L 43 183.5 L 42.5 192 L 42 183.5 L 43.5 178 Z "/>
    <path fill="#ffffff" d="M 266.5 192 L 267 195.5 L 265.5 199 L 265 196.5 L 266.5 192 Z "/>
    <path fill="#ffffff" d="M 42.5 202 L 44 212.5 L 43 212.5 L 42.5 202 Z "/>
    <path fill="#ffffff" d="M 263.5 203 L 264 204.5 L 262.5 207 L 262 205.5 L 263.5 203 Z "/>
    <path fill="#ffffff" d="M 44.5 214 L 47 221.5 L 46 221.5 L 44.5 214 Z "/>
    <path fill="#ffffff" d="M 256.5 217 L 255 219.5 L 249.5 226 L 254 220.5 L 256.5 217 Z "/>
    <path fill="#ffffff" d="M 47.5 223 L 49 226.5 L 48 226.5 L 47.5 223 Z "/>
    <path fill="#ffffff" d="M 50.5 230 L 53 233.5 L 51 232.5 L 50.5 230 Z "/>
    <path fill="#ffffff" d="M 261.5 237 L 265 239.5 L 263.5 239 L 261.5 237 Z "/>
    <path fill="#ffffff" d="M 266.5 240 L 270 242.5 L 268.5 242 L 266.5 240 Z "/>
    <path fill="#ffffff" d="M 353.5 249 L 370 250.5 L 361.5 251 Q 359.8 248.3 353.5 250 L 352.5 251 L 343.5 251 L 343.5 250 L 352.5 250 L 353.5 249 Z "/>
    <path fill="#ffffff" d="M 68.5 251 L 83 261.5 L 81.5 261 Q 72.1 257.7 68.5 251 Z "/>
    <path fill="#ffffff" d="M 373.5 251 L 382 252.5 L 377.5 253 L 373.5 252 L 373.5 251 Z "/>
    <path fill="#ffffff" d="M 323.5 254 L 326 254.5 L 321.5 256 L 321.5 255 L 323.5 254 Z "/>
    <path fill="#ffffff" d="M 387.5 254 L 395 256.5 L 393.5 257 L 387.5 255 L 387.5 254 Z "/>
    <path fill="#ffffff" d="M 318.5 256 L 320 256.5 L 314.5 259 L 315.5 257 L 318.5 256 Z "/>
    <path fill="#ffffff" d="M 396.5 257 L 400 258.5 L 398.5 259 L 396.5 257 Z "/>
    <path fill="#ffffff" d="M 311.5 259 L 313 259.5 L 308.5 262 L 309.5 260 L 311.5 259 Z "/>
    <path fill="#ffffff" d="M 401.5 259 L 412 264.5 L 410.5 264 L 401.5 260 L 401.5 259 Z "/>
    <path fill="#ffffff" d="M 305.5 262 L 307 262.5 L 300.5 267 L 302.5 264 L 305.5 262 Z "/>
    <path fill="#ffffff" d="M 90.5 265 L 94 266.5 L 92.5 267 L 90.5 265 Z "/>
    <path fill="#ffffff" d="M 413.5 265 L 420 269.5 L 417.5 268 Q 412.8 267.2 413.5 265 Z "/>
    <path fill="#ffffff" d="M 298.5 267 L 294.5 272 L 292 270.5 L 291 268.5 L 293 269.5 L 293.5 271 L 298.5 267 Z "/>
    <path fill="#ffffff" d="M 98.5 268 L 104 269.5 L 101.5 270 L 98.5 269 L 98.5 268 Z "/>
    <path fill="#ffffff" d="M 105.5 270 L 113 271.5 L 108.5 272 L 105.5 271 L 105.5 270 Z "/>
    <path fill="#ffffff" d="M 115.5 272 L 124 272.5 L 115.5 273 L 115.5 272 Z "/>
    <path fill="#ffffff" d="M 130.5 272 L 133 273.5 L 132.5 287 L 132 273 L 130.5 272 Z "/>
    <path fill="#ffffff" d="M 428.5 275 L 439 284.5 L 437.5 285 L 428.5 275 Z "/>
    <path fill="#ffffff" d="M 439.5 286 Q 441.8 285.3 441 287.5 L 445.5 293 L 439.5 286 Z "/>
    <path fill="#ffffff" d="M 133.5 290 L 135 295.5 L 134 295.5 L 133.5 290 Z "/>
    <path fill="#ffffff" d="M 449.5 298 L 455 305.5 L 453 304.5 L 449.5 298 Z "/>
    <path fill="#ffffff" d="M 136.5 300 L 138 303.5 L 137 303.5 L 136.5 300 Z "/>
    <path fill="#ffffff" d="M 138.5 305 L 143 313.5 L 141 312.5 L 138.5 305 Z "/>
    <path fill="#ffffff" d="M 455.5 307 L 460 314.5 L 458 313.5 L 455.5 307 Z "/>
    <path fill="#ffffff" d="M 143.5 315 L 152 325.5 L 147 321.5 L 143.5 315 Z "/>
    <path fill="#ffffff" d="M 463.5 322 L 465 325.5 L 464 325.5 L 463.5 322 Z "/>
    <path fill="#ffffff" d="M 465.5 327 L 468 334.5 L 467 334.5 L 465.5 327 Z "/>
    <path fill="#ffffff" d="M 468.5 336 L 471 346.5 L 470 346.5 L 468.5 336 Z "/>
    <path fill="#ffffff" d="M 166.5 340 L 175 346 L 172.5 350 L 174 347.5 L 170.5 344 L 166.5 340 Z "/>
    <path fill="#ffffff" d="M 471.5 349 L 473 360.5 L 471.5 369 L 471 360.5 L 471 358.5 L 471.5 349 Z "/>
    <path fill="#ffffff" d="M 184.5 353 L 189 355.5 L 187.5 356 L 184.5 354 L 182 355.5 L 184.5 353 Z "/>
    <path fill="#ffffff" d="M 163.5 355 L 162.5 357 L 160.5 358 L 161.5 356 L 163.5 355 Z "/>
    <path fill="#ffffff" d="M 269.5 355 L 272 356.5 L 271.5 358 L 271 356 L 266.5 358 L 266.5 357 L 269.5 355 Z "/>
    <path fill="#ffffff" d="M 180.5 356 L 177.5 360 L 166.5 367 L 167.5 365 L 180.5 356 Z "/>
    <path fill="#ffffff" d="M 158.5 358 L 157.5 360 L 155.5 361 L 156.5 359 L 158.5 358 Z "/>
    <path fill="#ffffff" d="M 264.5 358 L 263.5 360 L 260.5 361 L 260.5 360 L 264.5 358 Z "/>
    <path fill="#ffffff" d="M 153.5 361 L 152.5 363 L 150.5 364 L 151.5 362 L 153.5 361 Z "/>
    <path fill="#ffffff" d="M 200 361 L 205 362.5 L 203.5 363 L 201.5 362 L 200 362.5 L 200 361 Z "/>
    <path fill="#ffffff" d="M 257.5 361 L 259 361.5 L 251.5 364 L 251.5 363 L 257.5 361 Z "/>
    <path fill="#ffffff" d="M 188.5 363 L 189 364.5 L 187.5 367 L 187 365.5 L 188.5 363 Z "/>
    <path fill="#ffffff" d="M 199.5 364 L 200 365.5 L 197.5 371 L 197 369.5 L 199.5 364 Z "/>
    <path fill="#ffffff" d="M 247.5 364 L 250 364.5 L 243.5 366 L 243.5 365 L 247.5 364 Z "/>
    <path fill="#ffffff" d="M 223.5 366 L 241 366.5 L 223 367 L 221.5 370 L 222 368.5 L 223.5 366 Z "/>
    <path fill="#ffffff" d="M 144.5 367 L 140 372.5 L 136.5 378 L 137 376.5 L 144.5 367 Z "/>
    <path fill="#ffffff" d="M 277.5 368 L 282 373.5 L 279 371.5 L 277.5 368 Z "/>
    <path fill="#ffffff" d="M 161.5 369 L 160.5 371 L 158.5 372 L 159.5 370 L 161.5 369 Z "/>
    <path fill="#ffffff" d="M 185.5 370 L 185 371.5 L 183.5 374 L 184 372.5 L 185.5 370 Z "/>
    <path fill="#ffffff" d="M 156.5 372 L 155.5 374 L 148 379.5 L 146.5 382 L 147 380.5 L 150.5 376 L 156.5 372 Z "/>
    <path fill="#ffffff" d="M 218.5 375 L 218 376.5 L 216.5 379 L 217 377.5 L 218.5 375 Z "/>
    <path fill="#ffffff" d="M 469.5 375 L 470 377.5 L 468.5 380 L 468 378.5 L 469.5 375 Z "/>
    <path fill="#ffffff" d="M 194.5 376 L 194 377.5 L 192.5 380 L 193 378.5 L 194.5 376 Z "/>
    <path fill="#ffffff" d="M 134.5 381 L 135 382.5 L 133.5 386 L 133 383.5 L 134.5 381 Z "/>
    <path fill="#ffffff" d="M 214.5 381 L 213 383.5 Q 213.8 385.8 211.5 385 L 214.5 381 Z "/>
    <path fill="#ffffff" d="M 467.5 381 L 468 382.5 L 462.5 391 L 463 389.5 L 467.5 381 Z "/>
    <path fill="#ffffff" d="M 145.5 383 L 145 384.5 L 144.5 387 L 144 384.5 L 145.5 383 Z "/>
    <path fill="#ffffff" d="M 189.5 384 L 188 386.5 L 178.5 402 L 178 400.5 L 189.5 384 Z "/>
    <path fill="#ffffff" d="M 196.5 386 L 193 390.5 L 189.5 396 L 190 394.5 L 196.5 386 Z "/>
    <path fill="#ffffff" d="M 172.5 389 L 172 390.5 L 168.5 399 L 168 396.5 L 172.5 389 Z "/>
    <path fill="#ffffff" d="M 131.5 391 L 132 395.5 L 131 395.5 L 131.5 391 Z "/>
    <path fill="#ffffff" d="M 142.5 391 L 143 395.5 L 141.5 401 L 141 396.5 L 142.5 391 Z "/>
    <path fill="#ffffff" d="M 297.5 392 L 298 404.5 L 299 405.5 L 299 428.5 L 298 428.5 L 297.5 392 Z "/>
    <path fill="#ffffff" d="M 203 393 L 205 393.5 Q 200.3 396.8 198.5 403 L 198 401.5 L 203 393 Z "/>
    <path fill="#ffffff" d="M 130.5 397 L 131 401.5 L 130 401.5 L 130.5 397 Z "/>
    <path fill="#ffffff" d="M 188.5 397 L 189 398.5 L 187.5 403 L 187 399.5 L 188.5 397 Z "/>
    <path fill="#ffffff" d="M 308 398 L 310 398.5 L 309 399.5 L 308.5 412 L 308 398 Z "/>
    <path fill="#ffffff" d="M 311.5 399 L 315 401.5 L 313.5 401 L 311.5 399 Z "/>
    <path fill="#ffffff" d="M 450.5 402 L 448.5 405 L 445.5 407 L 447.5 404 L 450.5 402 Z "/>
    <path fill="#ffffff" d="M 177.5 403 L 178 405.5 L 176.5 411 L 176 406.5 L 177.5 403 Z "/>
    <path fill="#ffffff" d="M 140.5 404 L 141 409.5 L 140 409.5 L 140.5 404 Z "/>
    <path fill="#ffffff" d="M 166.5 404 L 167 407.5 L 165.5 414 L 165 408.5 L 166.5 404 Z "/>
    <path fill="#ffffff" d="M 186.5 404 L 187 408.5 L 186 408.5 L 186.5 404 Z "/>
    <path fill="#ffffff" d="M 129.5 406 L 130 413.5 L 128.5 422 L 128 414.5 L 129.5 406 Z "/>
    <path fill="#ffffff" d="M 443.5 407 L 442.5 409 L 435.5 412 L 435.5 411 L 443.5 407 Z "/>
    <path fill="#ffffff" d="M 196.5 409 L 197 430.5 L 196 430.5 L 196.5 409 Z "/>
    <path fill="#ffffff" d="M 330.5 409 L 336 411.5 L 334.5 411 Q 329.7 411 330.5 409 Z "/>
    <path fill="#ffffff" d="M 139.5 411 L 140 418.5 L 139 418.5 L 139.5 411 Z "/>
    <path fill="#ffffff" d="M 338.5 412 L 342 413.5 L 340.5 414 L 338.5 412 Z "/>
    <path fill="#ffffff" d="M 433.5 412 L 432.5 414 L 427.5 415 L 427.5 414 L 433.5 412 Z "/>
    <path fill="#ffffff" d="M 175.5 415 L 176 438.5 L 175 438.5 L 175.5 415 Z "/>
    <path fill="#ffffff" d="M 346.5 415 L 353 416.5 L 349.5 417 L 346.5 416 L 346.5 415 Z "/>
    <path fill="#ffffff" d="M 424.5 415 L 426 415.5 L 421.5 417 L 421.5 416 L 424.5 415 Z "/>
    <path fill="#ffffff" d="M 359.5 418 Q 364.6 417.4 366 420.5 L 365.5 424 L 362.5 419 Q 358.5 419.8 359.5 418 Z "/>
    <path fill="#ffffff" d="M 412.5 418 L 416 418.5 L 408.5 420 L 408.5 419 L 412.5 418 Z "/>
    <path fill="#ffffff" d="M 138.5 420 L 139 424.5 L 138 424.5 L 138.5 420 Z "/>
    <path fill="#ffffff" d="M 377.5 420 L 379.5 421 L 394 421.5 L 379.5 422 L 377 421 L 376.5 425 L 376 421.5 L 377.5 420 Z "/>
    <path fill="#ffffff" d="M 395.5 420 L 404 420.5 L 395.5 421 L 395.5 420 Z "/>
    <path fill="#ffffff" d="M 164.5 422 L 165 429.5 L 164 429.5 L 164.5 422 Z "/>
    <path fill="#ffffff" d="M 309.5 424 L 310 431.5 L 309 431.5 L 309.5 424 Z "/>
    <path fill="#ffffff" d="M 366.5 427 L 369 439.5 L 368 439.5 L 366.5 427 Z "/>
    <path fill="#ffffff" d="M 377.5 427 L 379 436.5 L 378 436.5 L 377.5 427 Z "/>
    <path fill="#ffffff" d="M 126.5 428 L 127 431.5 L 125.5 434 L 125 432.5 L 126.5 428 Z "/>
    <path fill="#ffffff" d="M 137.5 428 L 138 431.5 L 136.5 436 L 136 432.5 L 137.5 428 Z "/>
    <path fill="#ffffff" d="M 186.5 429 L 187 437.5 L 186 437.5 L 186.5 429 Z "/>
    <path fill="#ffffff" d="M 299.5 433 L 300 437.5 L 299 437.5 L 299.5 433 Z "/>
    <path fill="#ffffff" d="M 310.5 435 L 312 442.5 L 315.5 448 L 318 449.5 L 316.5 449 L 313 446.5 L 310 439.5 L 310.5 435 Z "/>
    <path fill="#ffffff" d="M 124.5 436 L 124 437.5 L 118.5 445 L 116.5 446 L 117.5 444 L 122 440.5 L 124.5 436 Z "/>
    <path fill="#ffffff" d="M 197.5 436 L 198 454.5 L 197 454.5 L 197.5 436 Z "/>
    <path fill="#ffffff" d="M 135.5 437 L 136 438.5 L 133.5 443 L 134 441.5 L 135.5 437 Z "/>
    <path fill="#ffffff" d="M 300.5 439 L 302 444.5 L 301 444.5 L 300.5 439 Z "/>
    <path fill="#ffffff" d="M 175.5 440 L 176 451.5 L 174 459.5 L 170.5 465 L 171 463.5 L 175 451.5 L 175.5 440 Z "/>
    <path fill="#ffffff" d="M 369.5 441 L 371 447.5 L 370 447.5 L 369.5 441 Z "/>
    <path fill="#ffffff" d="M 380.5 442 L 382 447.5 L 381 447.5 L 380.5 442 Z "/>
    <path fill="#ffffff" d="M 132.5 444 L 132 445.5 L 124.5 454 L 122.5 455 L 123.5 453 L 131 446.5 L 132.5 444 Z "/>
    <path fill="#ffffff" d="M 302.5 446 L 304 449.5 L 303 449.5 L 302.5 446 Z "/>
    <path fill="#ffffff" d="M 111.5 447 L 113 447.5 L 108.5 449 L 108.5 448 L 111.5 447 Z "/>
    <path fill="#ffffff" d="M 105.5 449 L 107 449.5 L 103.5 451 L 103.5 450 L 105.5 449 Z "/>
    <path fill="#ffffff" d="M 164.5 450 L 165 453.5 L 162.5 458 L 163 456.5 L 164.5 450 Z "/>
    <path fill="#ffffff" d="M 319.5 450 L 326 454.5 Q 327 461 322.5 462 L 318 461.5 Q 323.5 462 325 458.5 Q 326 453 322.5 452 Q 318.7 451.7 319.5 450 Z "/>
    <path fill="#ffffff" d="M 382.5 450 L 387 459.5 L 385 458.5 L 382.5 450 Z "/>
    <path fill="#ffffff" d="M 304.5 451 L 309 456.5 L 305 453.5 L 304.5 451 Z "/>
    <path fill="#ffffff" d="M 102.5 452 L 103 453.5 L 103 455.5 L 102.5 457 L 101 454.5 L 102.5 452 Z "/>
    <path fill="#ffffff" d="M 372.5 453 L 374 457.5 L 373 457.5 L 372.5 453 Z "/>
    <path fill="#ffffff" d="M 119.5 455 L 121 455.5 L 115.5 458 L 115.5 457 L 119.5 455 Z "/>
    <path fill="#ffffff" d="M 310.5 457 L 314 459.5 L 312.5 460 L 310.5 457 Z "/>
    <path fill="#ffffff" d="M 104.5 458 L 109.5 459 L 113.5 458 L 113.5 459 L 105.5 460 L 104.5 458 Z "/>
    <path fill="#ffffff" d="M 196.5 458 L 197 460.5 L 195.5 464 L 195 461.5 L 196.5 458 Z "/>
    <path fill="#ffffff" d="M 161.5 459 L 159.5 462 L 157.5 463 L 158.5 461 L 161.5 459 Z "/>
    <path fill="#ffffff" d="M 185.5 459 L 186 460.5 L 178.5 469 L 184 462.5 L 185.5 459 Z "/>
    <path fill="#ffffff" d="M 155.5 463 L 153 466.5 L 154 472 L 157 472.5 L 154.5 473 Q 151.4 471.6 152 466.5 L 155.5 463 Z "/>
    <path fill="#ffffff" d="M 376.5 463 L 385 470.5 L 383.5 470 L 379 468 L 376.5 463 Z "/>
    <path fill="#ffffff" d="M 396.5 463 L 404.5 464 L 406 465.5 L 404.5 465 L 396.5 464 L 396.5 463 Z "/>
    <path fill="#ffffff" d="M 169.5 466 L 166.5 470 L 164.5 471 L 165.5 469 L 169.5 466 Z "/>
    <path fill="#ffffff" d="M 193.5 467 L 193 468.5 L 189.5 473 L 192 469.5 L 193.5 467 Z "/>
    <path fill="#ffffff" d="M 407.5 467 Q 409.8 467.8 409 471.5 Q 407 477 397.5 475 L 397.5 474 Q 406 476 408 471.5 L 407.5 467 Z "/>
    <path fill="#ffffff" d="M 162.5 471 L 161.5 473 L 158 472.5 L 162.5 471 Z "/>
    <path fill="#ffffff" d="M 386.5 471 L 391 472.5 L 388.5 473 L 386.5 471 Z "/>
    <path fill="#ffd43b" d="M 239.5 238 L 237 241.5 L 233.5 246 L 236 242.5 L 239.5 238 Z "/>
    <path fill="#ffd43b" d="M 259.5 249 L 261 249.5 L 259 250 L 258.5 252 L 258 250.5 L 259.5 249 Z "/>
    <path fill="#ffd43b" d="M 219.5 258 L 221 258.5 L 216.5 262 L 219.5 258 Z "/>
    <path fill="#ffd43b" d="M 354.5 260 L 359 260.5 L 354.5 261 L 354.5 260 Z "/>
    <path fill="#ffd43b" d="M 368.5 261 L 373 261.5 L 368.5 262 L 368.5 261 Z "/>
    <path fill="#ffd43b" d="M 180.5 280 L 182 280.5 L 177.5 282 L 177.5 281 L 180.5 280 Z "/>
    <path fill="#ffd43b" d="M 150.5 287 L 155 287.5 L 150.5 288 L 150.5 287 Z "/>
    <path fill="#ffd43b" d="M 145.5 288 L 148 288.5 L 144.5 290 L 145.5 288 Z "/>
    <path fill="#ffd43b" d="M 288.5 295 L 289 305.5 L 288 305.5 L 288.5 295 Z "/>
    <path fill="#ffd43b" d="M 149.5 304 L 152 307.5 L 150 306.5 L 149.5 304 Z "/>
    <path fill="#ffd43b" d="M 347.5 358 L 351 360.5 L 349.5 360 L 347.5 358 Z "/>
    <path fill="#ffd43b" d="M 362.5 406 L 361.5 408 L 358 407.5 L 362.5 406 Z "/>
    <path fill="#ffa94d" d="M 241.5 236 L 243.5 236 L 250 241 L 248 252.5 L 239 274.5 L 225.5 290 L 214 299.5 L 213 303.5 L 218.5 307 L 226 304 L 228.5 300 L 233 298 Q 231.9 295.3 234.5 296 Q 252.9 278.6 259 250 L 263.5 251 L 274 259.5 L 279 266.5 L 287 285.5 L 287 287.5 L 288 289.5 L 288 309.5 L 284 324.5 L 277 337 L 273 339.5 Q 273.8 341.8 271.5 341 L 264.5 347 L 246.5 355 L 244.5 355 Q 237.4 357.4 226.5 356 L 227 352.5 L 226 345.5 L 222.5 342 Q 217.4 341.4 216 344.5 L 216 346.5 L 216 354 L 212.5 354 L 199.5 350 L 188.5 344 L 166 326.5 Q 166.8 324.3 164.5 325 L 160 318 Q 157.3 319.1 158 316.5 L 156 313 Q 153.3 314.1 154 311.5 L 148 302.5 L 144 290.5 L 148.5 288 L 154.5 288 L 160.5 286 L 162.5 286 L 173.5 284 L 191.5 277 L 221 259 L 222.5 256 L 237 242.5 L 241.5 236 Z "/>
    <path fill="#ffa94d" d="M 346.5 260 L 349.5 261 L 353.5 260 L 358.5 261 L 362.5 260 L 375.5 263 L 377.5 262 L 390.5 267 Q 392 264.5 393.5 268 L 412.5 277 Q 424.8 284.7 434 295.5 L 442.5 307 Q 445.1 306.2 444 309.5 L 452 321.5 L 461 347.5 L 460 349.5 L 462 354.5 L 461 359.5 L 462 365.5 L 456 382.5 L 444.5 395 L 428.5 404 L 411.5 409 L 409.5 409 L 404.5 410 L 402.5 410 L 397.5 411 L 395.5 411 L 389.5 410 Q 388 412.5 382.5 411 L 380.5 410 L 378.5 410 L 374 410 Q 375 407 372 408 L 372 401.5 L 366 380.5 Q 361.8 376.5 361 370 L 358 368.5 L 354.5 363 Q 347.9 356.4 337 355 L 336.5 353 L 334.5 353 L 317.5 347 L 315.5 347 L 311.5 346 L 309.5 347 L 306.5 345 L 301 348.5 Q 299.8 354.6 302.5 354 L 305.5 356 L 309.5 356 L 328.5 361 L 330.5 363 L 343.5 368 L 351 374.5 L 355 380.5 L 362 403.5 L 362 405.5 L 361.5 407 L 354.5 407 L 351.5 405 L 349.5 405 L 331.5 399 L 312.5 387 L 310 387 Q 311.3 384 307.5 385 L 294 374 L 289 366 Q 286.3 367.1 287 364.5 Q 281 358.5 278 349.5 L 281 345 Q 283.7 346.1 283 343.5 L 289 336.5 L 297 319.5 L 297 317.5 L 298 314.5 L 297 312.5 L 299 308.5 L 298 305.5 L 299 304.5 L 299 295.5 L 297 287.5 L 297 285.5 L 296 282.5 L 297 279 L 315.5 268 Q 321.5 268.5 323.5 265 L 336.5 262 L 341.5 262 L 346.5 260 Z "/>
  </g>
  <g id="line">
    <path fill="#1a1a1a" d="M 205.5 36 L 215.5 37 Q 224.2 39.8 229 46.5 L 232 51.5 L 232 62.5 L 226.5 69 L 220.5 72 L 209.5 72 L 208 73.5 L 205 83.5 L 203 85.5 L 229.5 101 L 246 117.5 L 252 125.5 L 262 145.5 L 267 164.5 L 268 180.5 L 267 181.5 L 267 191.5 L 262 207.5 L 248 228.5 L 278 249 L 278 251 Q 280.7 249.9 280 252.5 L 286 258.5 L 293.5 272 L 305.5 263 L 326.5 254 L 340.5 251 L 360.5 250 L 361.5 251 L 372.5 251 Q 375.8 253.7 382.5 253 L 400.5 259 L 423.5 272 L 439 285 L 455 306.5 L 463 321.5 L 471 347.5 L 471 358.5 L 472 359.5 L 471 360.5 L 471 370.5 L 468 380.5 Q 462.5 394 451.5 402 Q 438.7 412.2 420.5 417 L 407.5 420 L 379.5 421 L 377.5 420 Q 375.3 420.8 376 424.5 L 382 451.5 L 386.5 460 L 392.5 463 L 407 466 L 408 471.5 L 405.5 474 L 395.5 474 L 385.5 471 L 376 462.5 L 371 449.5 L 368 431.5 L 366 426.5 L 366 420.5 L 364.5 419 L 336.5 412 L 308 398 L 308 411.5 L 309 413.5 L 309 415.5 L 310 439.5 L 315.5 449 L 325 454.5 Q 326 460 322.5 461 L 314.5 460 L 306 453.5 L 302 445.5 L 299 432.5 L 299 405.5 L 298 404.5 Q 299 394 297 388 L 295.5 388 L 282 374.5 L 270.5 355 Q 262 361 250.5 364 L 242.5 366 L 223.5 366 L 222 367.5 L 216 379.5 L 205 393 Q 202.3 391.9 203 394.5 L 198 401.5 L 196 409.5 L 196 430.5 L 197 431.5 L 197 457.5 L 195 464.5 L 189 474 L 185.5 476 L 180.5 476 Q 177.4 474.6 178 469.5 L 186 460.5 L 187 447.5 L 188 446.5 L 187 445.5 L 187 429.5 L 186 428.5 L 186 409.5 L 189 396.5 L 206 375.5 L 212 364 L 200 361 L 195 375.5 L 180 396.5 L 176 406.5 L 175 438.5 L 175 440.5 Q 176.6 460.6 166.5 469 L 157.5 473 L 154 472 L 153 466.5 L 162 459.5 L 165 453.5 L 165 414.5 L 168 399.5 L 173 388.5 L 185 372.5 L 191 359.5 L 191 356 L 184.5 353 L 147 379.5 L 144 384.5 L 141 396.5 L 141 403.5 L 140 404.5 L 139 419.5 L 136 436.5 Q 132.6 447.1 124.5 453 L 114.5 458 L 105.5 459 L 103 458 L 102 454.5 L 103 451 L 118.5 445 L 123 440.5 L 127 431.5 L 129 421.5 L 130 402.5 L 133 386.5 Q 136.4 373.9 145.5 367 Q 161.8 358.8 175 347.5 Q 175.8 345.3 173.5 346 L 165 340 L 163.5 337 L 152 326.5 Q 141.6 315.4 136 299.5 L 133 289.5 L 133 273.5 L 131.5 272 L 124.5 273 L 123.5 272 L 108.5 271 L 89.5 265 Q 70.7 256.3 58 241.5 Q 48.3 230.2 44 213.5 L 43 202.5 L 42 201.5 L 42 192.5 L 43 191.5 L 43 183.5 L 45 173.5 L 55 145.5 L 71 116.5 L 85.5 101 L 98 93 L 86.5 74 L 74.5 74 Q 66.2 72.3 62 66.5 Q 58.5 63 59 55.5 Q 60.4 47.4 66.5 44 L 76.5 40 L 87.5 40 Q 100.3 43.7 107 53.5 L 114 68.5 L 117 83 L 135.5 79 L 160.5 78 L 161.5 79 L 173.5 79 L 178.5 81 L 181 77.5 L 181 72.5 L 184 60.5 L 189 48.5 L 197.5 39 L 205.5 36 Z M 208 46 L 203 48 Q 197 52 195 59 L 187 87 L 187 97 L 189 97 L 202 65 L 207 62 L 209 63 Q 217 64 221 61 L 222 55 Q 218 47 208 46 Z M 77 50 L 69 56 L 70 61 L 76 64 L 92 63 L 96 68 Q 99 80 107 88 L 109 87 L 105 73 L 98 59 Q 93 48 77 50 Z M 143 88 L 127 91 L 113 96 L 96 106 L 92 110 Q 89 109 90 112 L 87 114 Q 88 116 85 115 L 74 131 L 61 158 L 55 175 Q 56 181 53 184 L 53 194 L 52 195 L 53 210 L 56 219 Q 61 231 71 240 Q 73 239 72 242 Q 83 251 99 258 L 115 262 L 143 262 L 170 256 L 207 243 L 234 227 L 250 209 L 256 195 L 258 184 L 257 166 L 252 148 Q 246 133 237 123 Q 223 105 200 97 L 195 105 Q 193 110 184 109 L 178 103 L 178 90 L 166 89 L 165 88 L 143 88 Z M 242 235 L 233 247 L 212 265 L 193 276 L 172 284 L 158 287 L 146 288 L 144 290 Q 145 300 150 307 L 162 323 Q 175 337 194 347 L 208 353 L 216 354 L 217 345 L 223 342 L 226 346 L 226 356 L 248 355 L 256 352 L 272 342 L 277 337 L 285 324 L 289 306 L 288 289 Q 285 284 285 278 L 275 261 Q 269 253 260 249 L 258 251 L 256 261 L 251 274 L 237 294 L 221 306 Q 214 307 213 304 L 214 300 L 222 294 Q 234 284 242 270 L 248 254 L 250 241 L 242 235 Z M 345 260 L 323 265 Q 309 270 299 278 L 296 282 L 299 297 L 296 322 L 289 337 L 280 347 Q 281 349 278 348 L 278 352 L 281 358 L 291 371 L 294 373 Q 293 375 296 374 L 297 377 L 324 395 L 341 403 L 359 408 Q 362 409 363 407 L 357 386 L 352 376 L 346 369 L 337 364 L 302 354 L 301 349 L 305 346 L 315 347 L 326 350 L 352 361 Q 360 367 364 378 L 369 391 L 369 395 L 373 410 L 377 411 L 399 411 L 407 409 L 413 409 Q 431 405 445 395 Q 458 385 462 367 L 461 347 L 454 326 Q 445 305 430 292 Q 431 289 429 290 L 427 287 L 407 273 L 389 265 L 367 260 L 345 260 Z "/>
    <path fill="#1a1a1a" d="M 107.5 136 Q 115.3 137.2 119 142.5 L 125 158.5 L 125 182.5 L 120.5 185 L 116 181.5 L 116 164.5 Q 113.8 163.3 115 158.5 L 113 151.5 L 109.5 147 Q 104 146 103 149.5 L 101 154.5 L 101 171 L 93.5 173 L 90 176.5 Q 90.5 180.5 87.5 181 Q 81.4 182.3 82 179.5 Q 79.5 178 81 172.5 L 86.5 166 L 91 163.5 L 92 151.5 L 98.5 140 L 107.5 136 Z "/>
    <path fill="#1a1a1a" d="M 188.5 136 Q 197.6 136.4 201 142.5 L 206 154.5 L 207 172.5 L 206 173.5 L 206 182.5 L 203.5 185 Q 198.3 186.3 197 183.5 L 196 179.5 L 197 178.5 L 197 157.5 L 194 149.5 L 191.5 147 L 189.5 146 L 184 150.5 L 182 155.5 Q 183 164.5 181 169 L 177.5 171 L 172.5 171 L 169 174.5 L 168 183.5 L 166.5 185 L 163.5 186 L 159 182.5 Q 157.1 169.6 163.5 165 L 172 160.5 L 173 151.5 Q 175.8 142.8 182.5 138 L 188.5 136 Z "/>
  </g>
</svg>
