<svg xmlns="http://www.w3.org/2000/svg" width="512" height="512" viewBox="0 0 512 512">
  <g id="color">
    <path fill="#ffffff" d="M 137.5 39 L 139 39.5 L 134.5 42 L 135.5 40 L 137.5 39 Z "/>
    <path fill="#ffffff" d="M 132.5 42 L 131.5 44 L 128.5 46 L 130.5 43 L 132.5 42 Z "/>
    <path fill="#ffffff" d="M 197.5 76 L 201 80.5 L 198 78.5 L 197.5 76 Z "/>
    <path fill="#ffffff" d="M 203.5 85 L 207 89.5 L 205 88.5 L 203.5 85 Z "/>
    <path fill="#ffffff" d="M 403.5 87 L 444 87.5 L 403.5 88 L 403.5 87 Z "/>
    <path fill="#ffffff" d="M 389.5 88 L 394 88.5 L 389.5 89 L 389.5 88 Z "/>
    <path fill="#ffffff" d="M 384.5 89 L 387 89.5 L 382.5 91 L 382.5 90 L 384.5 89 Z "/>
    <path fill="#ffffff" d="M 209.5 94 L 213 98.5 L 210 96.5 L 209.5 94 Z "/>
    <path fill="#ffffff" d="M 463.5 98 L 465 101.5 L 464 101.5 L 463.5 98 Z "/>
    <path fill="#ffffff" d="M 213.5 100 L 217 104.5 L 214 102.5 L 213.5 100 Z "/>
    <path fill="#ffffff" d="M 371.5 101 L 372 102.5 L 370.5 107 L 370 103.5 L 371.5 101 Z "/>
    <path fill="#ffffff" d="M 217.5 106 L 220 109.5 L 218 108.5 L 217.5 106 Z "/>
    <path fill="#ffffff" d="M 466.5 108 L 467 112.5 L 466 112.5 L 466.5 108 Z "/>
    <path fill="#ffffff" d="M 369.5 112 L 370 121.5 L 369 121.5 L 369.5 112 Z "/>
    <path fill="#ffffff" d="M 467.5 117 L 468 143.5 L 467 143.5 L 467.5 117 Z "/>
    <path fill="#ffffff" d="M 370.5 128 L 371 139.5 L 370 139.5 L 370.5 128 Z "/>
    <path fill="#ffffff" d="M 233.5 130 L 237 134.5 L 234 132.5 L 233.5 130 Z "/>
    <path fill="#ffffff" d="M 371.5 142 L 372 152.5 L 371 152.5 L 371.5 142 Z "/>
    <path fill="#ffffff" d="M 49.5 143 L 49 144.5 L 47.5 147 L 48 145.5 L 49.5 143 Z "/>
    <path fill="#ffffff" d="M 243.5 145 L 246 148.5 L 244 147.5 L 243.5 145 Z "/>
    <path fill="#ffffff" d="M 468.5 145 L 469 157.5 L 468 157.5 L 468.5 145 Z "/>
    <path fill="#ffffff" d="M 46.5 148 L 46 149.5 L 44.5 153 L 44 151.5 L 46.5 148 Z "/>
    <path fill="#ffffff" d="M 247.5 152 L 250 156.5 L 249 156.5 L 247.5 152 Z "/>
    <path fill="#ffffff" d="M 42.5 156 L 43 157.5 L 42 158.5 L 42 168.5 L 43 170.5 L 42 170.5 Q 39.3 166.7 41 158.5 L 42.5 156 Z "/>
    <path fill="#ffffff" d="M 372.5 157 L 373 167.5 L 372 167.5 L 372.5 157 Z "/>
    <path fill="#ffffff" d="M 251.5 162 L 252 167.5 L 251 167.5 L 251.5 162 Z "/>
    <path fill="#ffffff" d="M 469.5 169 L 470 184.5 L 469 184.5 L 469.5 169 Z "/>
    <path fill="#ffffff" d="M 99.5 178 L 103 179.5 L 102.5 182 L 102 179 Q 98.7 179.8 99.5 178 Z "/>
    <path fill="#ffffff" d="M 55.5 179 L 79 180.5 L 60.5 181 L 55.5 180 L 55.5 179 Z "/>
    <path fill="#ffffff" d="M 80.5 179 L 90 179.5 L 80.5 180 L 80.5 179 Z "/>
    <path fill="#ffffff" d="M 199.5 179 L 210 179.5 L 199.5 180 L 199.5 179 Z "/>
    <path fill="#ffffff" d="M 238.5 179 L 240 179.5 Q 237.9 181.9 232.5 181 L 232.5 180 Q 237.3 181.3 238.5 179 Z "/>
    <path fill="#ffffff" d="M 373.5 179 L 374 196.5 L 373 196.5 L 373.5 179 Z "/>
    <path fill="#ffffff" d="M 211.5 180 L 220 180.5 L 211.5 181 L 211.5 180 Z "/>
    <path fill="#ffffff" d="M 101.5 183 L 102 190.5 L 101 190.5 L 101.5 183 Z "/>
    <path fill="#ffffff" d="M 193.5 184 L 194 189.5 L 193 189.5 L 193.5 184 Z "/>
    <path fill="#ffffff" d="M 100.5 193 L 101 197.5 L 100 197.5 L 100.5 193 Z "/>
    <path fill="#ffffff" d="M 192.5 195 L 193 202.5 L 192 202.5 L 192.5 195 Z "/>
    <path fill="#ffffff" d="M 470.5 203 L 471 235.5 L 470 235.5 L 470.5 203 Z "/>
    <path fill="#ffffff" d="M 99.5 204 L 100 212.5 L 99 212.5 L 99.5 204 Z "/>
    <path fill="#ffffff" d="M 191.5 204 L 192 219.5 L 191 219.5 L 191.5 204 Z "/>
    <path fill="#ffffff" d="M 374.5 211 L 375 231.5 L 374 231.5 L 374.5 211 Z "/>
    <path fill="#ffffff" d="M 98.5 215 L 99 231.5 L 98 231.5 L 98.5 215 Z "/>
    <path fill="#ffffff" d="M 190.5 230 L 191 238.5 L 190 238.5 L 190.5 230 Z "/>
    <path fill="#ffffff" d="M 97.5 238 L 98 263.5 L 97 263.5 L 97.5 238 Z "/>
    <path fill="#ffffff" d="M 373.5 241 L 374 254.5 L 373 254.5 L 373.5 241 Z "/>
    <path fill="#ffffff" d="M 191.5 250 L 192 264.5 L 191 264.5 L 191.5 250 Z "/>
    <path fill="#ffffff" d="M 469.5 252 L 470 264.5 L 469 264.5 L 469.5 252 Z "/>
    <path fill="#ffffff" d="M 372.5 262 L 373 268.5 L 372 268.5 L 372.5 262 Z "/>
    <path fill="#ffffff" d="M 192.5 267 L 193 275.5 L 192 275.5 L 192.5 267 Z "/>
    <path fill="#ffffff" d="M 98.5 269 L 99 283.5 L 98 283.5 L 98.5 269 Z "/>
    <path fill="#ffffff" d="M 371.5 272 L 372 278.5 L 371 278.5 L 371.5 272 Z "/>
    <path fill="#ffffff" d="M 468.5 273 L 469 281.5 L 468 281.5 L 468.5 273 Z "/>
    <path fill="#ffffff" d="M 370.5 280 L 371 285.5 L 370 285.5 L 370.5 280 Z "/>
    <path fill="#ffffff" d="M 467.5 283 L 468 290.5 L 467 290.5 L 467.5 283 Z "/>
    <path fill="#ffffff" d="M 99.5 286 L 100 293.5 L 99 293.5 L 99.5 286 Z "/>
    <path fill="#ffffff" d="M 466.5 293 L 467 297.5 L 466 297.5 L 466.5 293 Z "/>
    <path fill="#ffffff" d="M 100.5 299 L 101 303.5 L 100 303.5 L 100.5 299 Z "/>
    <path fill="#ffffff" d="M 465.5 302 L 466 306.5 L 465 306.5 L 465.5 302 Z "/>
    <path fill="#ffffff" d="M 101.5 306 L 103 315.5 L 102 315.5 L 101.5 306 Z "/>
    <path fill="#ffffff" d="M 464.5 309 L 465 313.5 L 463.5 318 L 463 314.5 L 464.5 309 Z "/>
    <path fill="#ffffff" d="M 200.5 315 L 203 321.5 L 202 321.5 L 200.5 315 Z "/>
    <path fill="#ffffff" d="M 361.5 322 L 362 323.5 L 360.5 326 L 360 324.5 L 361.5 322 Z "/>
    <path fill="#ffffff" d="M 104.5 324 L 106 331.5 L 105 331.5 L 104.5 324 Z "/>
    <path fill="#ffffff" d="M 461.5 325 L 462 328.5 L 460.5 332 L 460 329.5 L 461.5 325 Z "/>
    <path fill="#ffffff" d="M 204.5 326 L 207 331.5 L 206 331.5 L 204.5 326 Z "/>
    <path fill="#ffffff" d="M 207.5 333 L 210 336.5 L 208 335.5 L 207.5 333 Z "/>
    <path fill="#ffffff" d="M 210.5 338 L 214 343.5 L 212 342.5 L 210.5 338 Z "/>
    <path fill="#ffffff" d="M 458.5 338 L 459 340.5 L 457.5 344 L 457 341.5 L 458.5 338 Z "/>
    <path fill="#ffffff" d="M 352.5 342 L 352 343.5 L 349.5 347 L 351 344.5 L 352.5 342 Z "/>
    <path fill="#ffffff" d="M 455.5 349 L 456 350.5 L 453.5 356 L 453 354.5 L 455.5 349 Z "/>
    <path fill="#ffffff" d="M 111.5 352 L 113 356.5 L 112 356.5 L 111.5 352 Z "/>
    <path fill="#ffffff" d="M 114.5 361 L 116 364.5 L 115 364.5 L 114.5 361 Z "/>
    <path fill="#ffffff" d="M 234.5 364 L 238 366.5 L 236.5 366 L 234.5 364 Z "/>
    <path fill="#ffffff" d="M 329.5 365 L 328.5 367 L 326.5 368 L 327.5 366 L 329.5 365 Z "/>
    <path fill="#ffffff" d="M 323.5 368 L 325 368.5 L 319.5 371 L 319.5 370 L 323.5 368 Z "/>
    <path fill="#ffffff" d="M 448.5 368 L 449 369.5 L 447.5 372 L 447 370.5 L 448.5 368 Z "/>
    <path fill="#ffffff" d="M 250.5 372 L 255 373.5 L 253.5 374 L 250.5 373 L 250.5 372 Z "/>
    <path fill="#ffffff" d="M 120.5 375 L 127 387.5 L 125 386.5 L 120 376.5 L 120.5 375 Z "/>
    <path fill="#ffffff" d="M 261.5 375 L 271 376.5 L 265.5 377 L 261.5 376 L 261.5 375 Z "/>
    <path fill="#ffffff" d="M 296.5 376 L 301 376.5 L 296.5 377 L 296.5 376 Z "/>
    <path fill="#ffffff" d="M 274.5 377 L 293 377.5 L 274.5 378 L 274.5 377 Z "/>
    <path fill="#ffffff" d="M 438.5 389 L 438 390.5 L 436.5 393 L 437 391.5 L 438.5 389 Z "/>
    <path fill="#ffffff" d="M 128.5 391 L 131 394.5 L 129 393.5 L 128.5 391 Z "/>
    <path fill="#ffffff" d="M 435.5 394 L 435 395.5 L 433.5 398 L 434 396.5 L 435.5 394 Z "/>
    <path fill="#ffffff" d="M 429.5 403 L 428 405.5 L 425.5 409 L 427 406.5 L 429.5 403 Z "/>
    <path fill="#ffffff" d="M 140.5 409 L 146 415.5 L 142 412.5 L 140.5 409 Z "/>
    <path fill="#ffffff" d="M 424.5 410 L 422 413.5 L 416.5 420 L 421 414.5 L 424.5 410 Z "/>
    <path fill="#ffffff" d="M 176.5 444 L 181 447.5 L 179.5 447 L 176.5 444 Z "/>
    <path fill="#ffffff" d="M 182.5 448 L 187 451.5 L 185.5 451 L 182.5 448 Z "/>
    <path fill="#ffffff" d="M 377.5 451 L 376.5 453 L 374.5 454 L 375.5 452 L 377.5 451 Z "/>
    <path fill="#ffffff" d="M 199.5 458 L 205 460.5 L 203.5 461 L 199.5 459 L 199.5 458 Z "/>
    <path fill="#ffffff" d="M 364.5 458 L 363.5 460 L 360.5 461 L 360.5 460 L 364.5 458 Z "/>
    <path fill="#ffffff" d="M 357.5 461 L 359 461.5 L 353.5 464 L 353.5 463 L 357.5 461 Z "/>
    <path fill="#ffffff" d="M 208.5 462 L 212 463.5 L 210.5 464 L 208.5 462 Z "/>
    <path fill="#ffffff" d="M 216.5 465 L 220 466.5 L 218.5 467 L 216.5 465 Z "/>
    <path fill="#ffffff" d="M 347.5 465 L 349 465.5 L 344.5 467 L 344.5 466 L 347.5 465 Z "/>
    <path fill="#ffffff" d="M 225.5 468 L 231 469.5 L 228.5 470 L 225.5 469 L 225.5 468 Z "/>
    <path fill="#ffffff" d="M 253.5 474 L 259 474.5 L 253.5 475 L 253.5 474 Z "/>
    <path fill="#ffffff" d="M 307.5 474 L 312 474.5 L 307.5 475 L 307.5 474 Z "/>
    <path fill="#ffffff" d="M 263.5 475 L 273 475.5 L 263.5 476 L 263.5 475 Z "/>
    <path fill="#ffffff" d="M 294.5 475 L 303 475.5 L 294.5 476 L 294.5 475 Z "/>
    <path fill="#ffffff" d="M 274.5 476 L 293 476.5 L 274.5 477 L 274.5 476 Z "/>
    <path fill="#4da3ff" d="M 147.5 52 L 157.5 54 L 174 69.5 L 185 84.5 L 186 88 Q 188.7 86.9 188 89.5 L 222 141.5 L 230 151.5 L 236 165 L 232.5 166 L 217.5 166 L 206.5 164 L 187.5 164 L 181 168.5 L 178 183.5 L 178 185.5 L 177 211.5 L 176 212.5 L 176 232.5 L 175 235.5 L 176 236.5 L 176 260.5 L 177 261.5 L 178 283.5 L 184 314.5 L 187 324.5 L 196 344.5 L 214 369 L 219 371.5 Q 218.3 373.8 220.5 373 L 242.5 386 L 255.5 390 L 276.5 393 L 278.5 393 L 289.5 393 L 290.5 392 L 305.5 391 L 323.5 386 L 335.5 380 L 352 367.5 L 354 364.5 Q 365.2 353.7 372 338.5 L 382 307.5 L 382 302.5 L 386 283.5 L 387 266.5 L 388 265.5 L 388 245.5 L 389 244.5 L 389 185.5 L 388 184.5 L 388 161.5 L 387 160.5 L 386 131.5 L 385 130.5 L 385 107.5 L 386 105 L 393.5 103 L 419.5 103 L 422.5 102 L 424.5 102 L 434.5 102 L 435.5 103 Q 444.8 102.2 450 104 L 452 114.5 L 452 134.5 L 453 135.5 L 453 154.5 L 454 155.5 L 454 180.5 L 455 181.5 L 455 209.5 L 456 210.5 L 455 215.5 L 456 216.5 L 456 237.5 L 455 241.5 L 456 243.5 L 455 244.5 L 454 275.5 L 453 276.5 L 453 286.5 L 451 294.5 L 451 301.5 L 443 340.5 L 432 369.5 L 413 402 Q 410.3 400.9 411 403.5 L 402.5 413 Q 400.3 412.3 401 414.5 L 398 416 L 396.5 419 L 387 426 Q 388.1 428.7 385.5 428 L 366.5 441 L 352.5 448 L 346.5 449 L 344.5 451 L 332.5 455 L 320.5 458 L 299.5 460 L 298.5 461 L 268.5 461 L 267.5 460 L 251.5 459 L 236.5 456 L 219.5 451 L 214.5 448 L 211.5 448 L 185.5 433 L 162 412.5 L 149 396.5 L 134 370.5 L 124 343.5 L 121 328.5 L 119 324.5 L 119 318.5 L 116 307.5 L 114 279.5 L 113 278.5 L 113 220.5 L 114 219.5 L 114 208.5 L 115 207.5 L 116 187.5 L 118 178.5 L 118 169.5 L 116 166 Q 109.6 161.6 96.5 163 L 95.5 164 L 83.5 164 L 82.5 165 L 59.5 165 L 57 164 L 59 156.5 L 70 140.5 L 133.5 61 L 136 59.5 Q 135.3 57.3 137.5 58 Q 140.5 53 147.5 52 Z M 409 114 L 400 117 L 395 124 L 396 130 L 413 141 L 419 152 L 421 160 L 421 171 L 416 185 L 418 193 L 422 196 L 426 197 Q 433 198 436 194 L 443 186 L 448 172 L 448 154 L 447 149 Q 444 135 435 127 Q 429 120 421 116 L 415 114 L 409 114 Z M 180 367 L 175 369 L 170 376 Q 169 382 171 386 Q 174 387 172 389 L 180 392 Q 186 393 189 390 L 194 383 L 194 375 L 190 369 Q 187 366 180 367 Z M 201 394 L 199 395 L 193 402 L 193 410 L 192 411 Q 191 413 194 412 L 201 422 L 217 431 L 225 433 L 228 434 Q 240 436 247 432 Q 252 430 253 424 L 253 417 L 250 411 L 245 408 L 234 407 L 224 403 Q 221 404 222 402 L 221 402 L 219 401 L 216 398 L 215 398 Q 211 392 201 394 Z "/>
    <path fill="#ffd43b" d="M 410.5 116 Q 411.7 118.2 416.5 117 L 425.5 121 L 435 129.5 L 445 149.5 L 446 154.5 L 446 170.5 Q 443.2 185.2 433.5 193 Q 431.2 195.7 425.5 195 L 420 191.5 Q 417.7 188.3 419 181.5 L 423 171.5 L 423 157.5 Q 419.6 142.4 408.5 135 L 399 131 L 397 127.5 L 397 124.5 L 400.5 119 L 410.5 116 Z "/>
    <path fill="#ff6b6b" d="M 182.5 369 Q 188.9 369.7 191 374.5 L 192 379.5 Q 191.1 386.1 186.5 389 L 181.5 390 L 177.5 389 L 173 384.5 L 172 375.5 L 177.5 370 L 182.5 369 Z "/>
    <path fill="#ff6b6b" d="M 201.5 396 L 207.5 396 L 225.5 407 L 231.5 409 L 243.5 410 L 250 415.5 L 251 422.5 L 245.5 430 L 233.5 432 L 231.5 432 L 224.5 431 L 221.5 429 L 219.5 429 L 211.5 426 L 199 417 L 196 412.5 L 195 404.5 L 196 401.5 L 198.5 398 L 201.5 396 Z "/>
    <path fill="#51cf66" d="M 405.5 116 L 410 116.5 L 405.5 117 L 405.5 116 Z "/>
    <path fill="#51cf66" d="M 411.5 116 L 416 116.5 L 411.5 117 L 411.5 116 Z "/>
    <path fill="#51cf66" d="M 420.5 118 L 425 120.5 L 423.5 120 Q 419.7 119.8 420.5 118 Z "/>
    <path fill="#51cf66" d="M 435.5 130 Q 440.8 134.8 443 142.5 L 442 142.5 L 435.5 130 Z "/>
    <path fill="#51cf66" d="M 406.5 134 L 410 136.5 L 408.5 136 L 406.5 134 Z "/>
    <path fill="#51cf66" d="M 417.5 145 L 421 151.5 L 420 151.5 L 417.5 145 Z "/>
    <path fill="#51cf66" d="M 446.5 158 L 447 166.5 L 446 166.5 L 446.5 158 Z "/>
    <path fill="#51cf66" d="M 422.5 167 L 423 171.5 L 422 171.5 L 422.5 167 Z "/>
    <path fill="#51cf66" d="M 418.5 182 L 419 187.5 L 418 187.5 L 418.5 182 Z "/>
    <path fill="#51cf66" d="M 441.5 183 L 441 184.5 L 439.5 187 L 440 185.5 L 441.5 183 Z "/>
    <path fill="#9775fa" d="M 179.5 367 L 185 367.5 L 179.5 368 L 179.5 367 Z "/>
    <path fill="#9775fa" d="M 176.5 368 L 178 368.5 L 173 371.5 L 171.5 374 L 172 372.5 L 174.5 369 L 176.5 368 Z "/>
    <path fill="#9775fa" d="M 186.5 368 L 193 373.5 L 194 382.5 L 193 382.5 Q 194.6 371.4 187.5 369 L 186.5 368 Z "/>
    <path fill="#9775fa" d="M 170.5 381 Q 171.6 387.4 176.5 390 L 178 390.5 L 176.5 391 L 173 389 L 170 383.5 L 170.5 381 Z "/>
    <path fill="#9775fa" d="M 192.5 384 L 193 385.5 L 188 389.5 L 192.5 384 Z "/>
    <path fill="#9775fa" d="M 179.5 391 L 185 391.5 L 179.5 392 L 179.5 391 Z "/>
    <path fill="#9775fa" d="M 200.5 394 L 202 394.5 L 195 399.5 L 193.5 405 L 193 401.5 L 198.5 395 L 200.5 394 Z "/>
    <path fill="#9775fa" d="M 210.5 395 L 214 397.5 L 211.5 396 L 210.5 395 Z "/>
    <path fill="#9775fa" d="M 215.5 398 L 221 402.5 L 219.5 402 L 215.5 398 Z "/>
    <path fill="#9775fa" d="M 224.5 404 L 233 406.5 L 229.5 407 L 224.5 405 L 224.5 404 Z "/>
    <path fill="#9775fa" d="M 234.5 407 Q 247.9 406.1 252 414.5 L 253 423.5 L 252 423.5 Q 253.6 412.4 246.5 410 L 240.5 408 L 234.5 408 L 234.5 407 Z "/>
    <path fill="#9775fa" d="M 194.5 412 L 203.5 422 L 207 424.5 L 204.5 423 L 194 413.5 L 194.5 412 Z "/>
    <path fill="#9775fa" d="M 251.5 425 L 252 426.5 Q 249.6 431.6 243.5 433 L 243.5 432 L 251 426.5 L 251.5 425 Z "/>
    <path fill="#9775fa" d="M 213.5 428 L 218 430.5 L 216.5 431 L 213.5 428 Z "/>
    <path fill="#9775fa" d="M 227.5 433 L 242 433.5 L 227.5 434 L 227.5 433 Z "/>
    <path fill="#66d9e8" d="M 145.5 51 Q 154.1 49.9 158.5 53 L 174 67.5 L 232 151.5 L 238 164.5 L 235.5 167 L 212.5 167 L 211.5 166 L 201.5 166 L 200.5 165 L 189.5 165 L 183 168.5 L 180 180.5 L 179 203.5 L 178 204.5 L 177 250.5 L 178 251.5 L 179 277.5 L 183 298.5 L 183 304.5 L 190 327.5 L 197 343.5 Q 205.4 358.1 217.5 369 Q 232.2 381.8 253.5 388 L 271.5 390 L 272.5 391 L 294.5 391 L 295.5 390 L 312.5 388 L 326.5 383 Q 342.5 375.5 354 363.5 Q 364.5 352 371 336.5 L 377 320.5 L 381 304.5 L 384 280.5 L 385 279.5 L 386 258.5 L 387 257.5 L 388 209.5 L 387 208.5 L 387 175.5 L 386 174.5 L 386 153.5 L 385 152.5 L 385 142.5 L 384 141.5 L 383 110.5 L 384 106.5 L 387.5 103 L 389.5 102 L 400.5 102 L 401.5 101 L 442.5 101 L 451 103 L 453 108.5 L 453 129.5 L 454 130.5 L 455 166.5 L 456 167.5 L 457 247.5 L 456 248.5 L 455 282.5 L 454 283.5 L 452 306.5 L 448 327.5 L 441 351.5 Q 426.3 392.8 397.5 420 Q 375.1 441.1 343.5 453 L 331.5 457 L 312.5 461 L 303.5 461 L 293.5 463 L 273.5 463 L 272.5 462 L 246.5 460 L 233.5 457 L 210.5 449 Q 181.2 435.8 161 413.5 Q 147.7 399.3 138 381.5 Q 127.6 361.9 121 338.5 L 120 330.5 L 117 321.5 L 117 316.5 L 114 303.5 L 114 295.5 L 113 294.5 L 112 271.5 L 111 270.5 L 111 230.5 L 112 229.5 L 113 202.5 L 114 201.5 L 114 191.5 L 115 190.5 L 117 170.5 L 110.5 165 L 88.5 165 L 78.5 167 L 61.5 167 L 55 165 L 55 161.5 L 59 153.5 L 74 132.5 L 135.5 57 L 145.5 51 Z M 148 52 Q 141 53 138 58 Q 135 57 136 60 L 134 61 L 70 141 L 59 157 L 57 164 L 60 165 L 83 165 L 84 164 L 96 164 L 97 163 Q 110 162 116 166 L 118 170 L 118 179 L 116 188 L 115 208 L 114 209 L 114 220 L 113 221 L 113 279 L 114 280 L 116 308 L 119 319 L 119 325 L 121 329 L 124 344 L 134 371 L 149 397 L 162 413 L 186 433 L 212 448 L 215 448 L 220 451 L 237 456 L 252 459 L 268 460 L 269 461 L 299 461 L 300 460 L 321 458 L 333 455 L 345 451 L 347 449 L 353 448 L 367 441 L 386 428 Q 388 429 387 426 L 397 419 L 398 416 L 401 415 Q 400 412 403 413 L 411 404 Q 410 401 413 402 L 432 370 L 443 341 L 451 302 L 451 295 L 453 287 L 453 277 L 454 276 L 455 245 L 456 244 L 455 242 L 456 238 L 456 217 L 455 216 L 456 211 L 455 210 L 455 182 L 454 181 L 454 156 L 453 155 L 453 136 L 452 135 L 452 115 L 450 104 Q 445 102 436 103 L 435 102 L 425 102 L 423 102 L 420 103 L 394 103 L 386 105 L 385 108 L 385 131 L 386 132 L 387 161 L 388 162 L 388 185 L 389 186 L 389 245 L 388 246 L 388 266 L 387 267 L 386 284 L 382 303 L 382 308 L 372 339 Q 365 354 354 365 L 352 368 L 336 380 L 324 386 L 306 391 L 291 392 L 290 393 L 279 393 L 277 393 L 256 390 L 243 386 L 221 373 Q 218 374 219 372 L 214 369 L 196 345 L 187 325 L 184 315 L 178 284 L 177 262 L 176 261 L 176 237 L 175 236 L 176 233 L 176 213 L 177 212 L 178 186 L 178 184 L 181 169 L 188 164 L 207 164 L 218 166 L 233 166 L 236 165 L 230 152 L 222 142 L 188 90 Q 189 87 186 88 L 185 85 L 174 70 L 158 54 L 148 52 Z "/>
    <path fill="#66d9e8" d="M 408.5 114 L 414.5 114 L 420.5 116 Q 429.4 119.6 435 126.5 Q 443.6 134.9 447 148.5 L 448 153.5 L 448 171.5 L 443 185.5 L 435.5 194 Q 432.7 197.7 425.5 197 L 421.5 196 L 418 192.5 L 416 184.5 L 421 170.5 L 421 159.5 L 419 151.5 L 413 141 L 396 129.5 L 395 123.5 L 399.5 117 L 408.5 114 Z M 406 116 L 400 119 L 396 126 L 397 129 L 402 133 L 409 136 L 417 145 L 421 153 L 423 162 Q 423 175 418 183 L 419 192 L 424 195 Q 431 196 435 193 L 443 182 L 447 167 Q 447 141 435 129 L 422 118 Q 416 115 406 116 Z "/>
    <path fill="#f783ac" d="M 178.5 368 Q 189.6 366.4 192 373.5 Q 194.3 376.7 193 383.5 L 187.5 390 L 178.5 391 L 172 385.5 L 170 378.5 L 171 374.5 L 174.5 370 L 178.5 368 Z M 183 369 L 178 370 L 172 376 L 173 385 L 178 389 L 182 390 L 187 389 Q 191 386 192 380 L 191 375 Q 189 370 183 369 Z "/>
    <path fill="#f783ac" d="M 203.5 394 L 211.5 396 Q 217.4 402.6 226.5 406 L 244.5 409 L 251 414.5 Q 253.3 417.7 252 424.5 L 246.5 431 L 242.5 433 L 226.5 433 Q 205.8 428.2 195 413.5 L 193 405.5 Q 193.9 398.9 198.5 396 L 203.5 394 Z M 202 396 L 199 398 L 196 402 L 195 405 L 196 413 L 199 417 L 212 426 L 220 429 L 222 429 L 225 431 L 232 432 L 234 432 L 246 430 L 251 423 L 250 416 L 244 410 L 232 409 L 226 407 L 208 396 L 202 396 Z "/>
  </g>
  <g id="line">
    <path fill="#1a1a1a" d="M 147.5 37 L 157.5 38 L 166.5 42 L 184 58.5 L 197 75.5 L 243 144.5 L 250 157.5 L 251 168.5 Q 249.4 175.4 243.5 178 L 231.5 181 L 220.5 181 L 209.5 179 L 194 179 L 192 203.5 L 191 204.5 L 191 229.5 L 190 230.5 L 190 238.5 L 191 239.5 L 191 264.5 L 192 265.5 L 193 283.5 L 200 316.5 L 210 339.5 Q 217.5 352 228.5 361 Q 250.4 379.6 292.5 378 Q 294.3 375.2 300.5 377 L 320.5 371 L 328.5 367 L 342 357 L 356 337.5 L 365 314.5 Q 365.5 304.5 369 297.5 L 371 279.5 L 372 278.5 L 372 269.5 L 373 268.5 L 373 255.5 L 374 254.5 L 375 211.5 L 374 210.5 L 373 157.5 L 372 156.5 L 372 142.5 L 371 141.5 L 371 128.5 L 370 127.5 L 370 107.5 L 375 95 L 381.5 91 L 394.5 88 L 447.5 88 Q 458.4 89.6 463 97.5 L 466 105.5 Q 464.3 111.8 467 113.5 L 467 143.5 L 468 144.5 L 469 184.5 L 470 185.5 L 470 251.5 L 469 252.5 L 469 272.5 L 468 273.5 L 468 282.5 L 467 283.5 L 465 308.5 L 460 333.5 L 453 357.5 Q 437.1 402.1 405.5 431 Q 383.2 451.7 352.5 464 L 330.5 471 L 315.5 474 L 294.5 475 L 293.5 476 L 273.5 476 L 272.5 475 L 250.5 474 L 235.5 471 L 207.5 462 Q 177.5 449 156 427.5 L 154.5 425 Q 152.3 425.8 153 423.5 Q 138.4 409.1 128 390.5 L 117 368.5 L 110 348.5 L 104 323.5 L 101 299.5 L 100 298.5 L 99 269.5 L 98 268.5 L 98 232.5 L 99 231.5 L 100 198.5 L 101 197.5 L 103 179.5 L 99.5 178 L 98.5 179 L 80.5 179 L 79.5 180 L 60.5 180 L 51.5 178 L 43 171.5 Q 40.8 166.8 42 158.5 L 47 147.5 L 60 128.5 L 114 60.5 L 127.5 46 L 141.5 38 Q 146.3 39.3 147.5 37 Z M 146 51 L 136 57 L 74 133 L 59 154 L 55 162 L 55 165 L 62 167 L 79 167 L 89 165 L 111 165 L 117 171 L 115 191 L 114 192 L 114 202 L 113 203 L 112 230 L 111 231 L 111 271 L 112 272 L 113 295 L 114 296 L 114 304 L 117 317 L 117 322 L 120 331 L 121 339 Q 128 362 138 382 Q 148 399 161 414 Q 181 436 211 449 L 234 457 L 247 460 L 273 462 L 274 463 L 294 463 L 304 461 L 313 461 L 332 457 L 344 453 Q 375 441 398 420 Q 426 393 441 352 L 448 328 L 452 307 L 454 284 L 455 283 L 456 249 L 457 248 L 456 168 L 455 167 L 454 131 L 453 130 L 453 109 L 451 103 L 443 101 L 402 101 L 401 102 L 390 102 L 388 103 L 384 107 L 383 111 L 384 142 L 385 143 L 385 153 L 386 154 L 386 175 L 387 176 L 387 209 L 388 210 L 387 258 L 386 259 L 385 280 L 384 281 L 381 305 L 377 321 L 371 337 Q 364 352 354 364 Q 343 376 327 383 L 313 388 L 296 390 L 295 391 L 273 391 L 272 390 L 254 388 Q 232 382 218 369 Q 205 358 197 344 L 190 328 L 183 305 L 183 299 L 179 278 L 178 252 L 177 251 L 178 205 L 179 204 L 180 181 L 183 169 L 190 165 L 201 165 L 202 166 L 212 166 L 213 167 L 236 167 L 238 165 L 232 152 L 174 68 L 159 53 Q 154 50 146 51 Z "/>
  </g>
</svg>
