<svg xmlns="http://www.w3.org/2000/svg" width="512" height="512" viewBox="0 0 512 512">
  <g id="color">
    <path fill="#ffffff" d="M 413.5 35 Q 422.5 33.5 427 36.5 L 424.5 37 L 423.5 36 L 414.5 36 L 411.5 37 L 411.5 36 L 413.5 35 Z "/>
    <path fill="#ffffff" d="M 408.5 37 L 410 37.5 Q 399.5 41 394 49.5 L 390.5 55 L 391 53.5 Q 394.7 44.7 402.5 40 L 408.5 37 Z "/>
    <path fill="#ffffff" d="M 428.5 37 L 436 43.5 L 430.5 39 L 428.5 37 Z "/>
    <path fill="#ffffff" d="M 436.5 45 L 439 49.5 L 438 49.5 L 436.5 45 Z "/>
    <path fill="#ffffff" d="M 439.5 51 L 440 62.5 L 438.5 65 L 438 63.5 L 439 62.5 L 439.5 51 Z "/>
    <path fill="#ffffff" d="M 236.5 57 L 266 57.5 L 236.5 58 L 236.5 57 Z "/>
    <path fill="#ffffff" d="M 227.5 58 L 235 58.5 L 227.5 59 L 227.5 58 Z "/>
    <path fill="#ffffff" d="M 267.5 58 L 275 58.5 L 267.5 59 L 267.5 58 Z "/>
    <path fill="#ffffff" d="M 388.5 58 L 389 59.5 L 386.5 64 L 386 62.5 L 388.5 58 Z "/>
    <path fill="#ffffff" d="M 218.5 59 L 224 59.5 L 212.5 61 L 212.5 60 Q 217.2 61.3 218.5 59 Z "/>
    <path fill="#ffffff" d="M 279.5 59 L 284 59.5 L 279.5 60 L 279.5 59 Z "/>
    <path fill="#ffffff" d="M 285.5 60 L 290 60.5 L 285.5 61 L 285.5 60 Z "/>
    <path fill="#ffffff" d="M 203.5 62 L 206 62.5 L 199.5 64 L 199.5 63 L 203.5 62 Z "/>
    <path fill="#ffffff" d="M 296.5 62 L 304 63.5 L 300.5 64 L 296.5 63 L 296.5 62 Z "/>
    <path fill="#ffffff" d="M 192.5 65 L 195 65.5 L 189.5 67 L 189.5 66 L 192.5 65 Z "/>
    <path fill="#ffffff" d="M 309.5 65 L 315 66.5 L 312.5 67 L 309.5 66 L 309.5 65 Z "/>
    <path fill="#ffffff" d="M 385.5 65 L 386 66.5 L 384.5 70 L 384 67.5 L 385.5 65 Z "/>
    <path fill="#ffffff" d="M 437.5 66 L 437 67.5 L 429.5 76 L 436 68.5 L 437.5 66 Z "/>
    <path fill="#ffffff" d="M 185.5 67 L 187 67.5 L 180.5 70 L 180.5 69 L 185.5 67 Z "/>
    <path fill="#ffffff" d="M 317.5 67 L 324 69.5 L 322.5 70 L 317.5 68 L 317.5 67 Z "/>
    <path fill="#ffffff" d="M 177.5 70 L 179 70.5 L 175.5 72 L 175.5 71 L 177.5 70 Z "/>
    <path fill="#ffffff" d="M 325.5 70 L 332 72.5 L 330.5 73 L 325.5 71 L 325.5 70 Z "/>
    <path fill="#ffffff" d="M 170.5 73 L 172 73.5 L 162.5 78 L 162.5 77 L 170.5 73 Z "/>
    <path fill="#ffffff" d="M 333.5 73 L 337 74.5 L 335.5 75 L 333.5 73 Z "/>
    <path fill="#ffffff" d="M 338.5 75 L 344 77.5 L 342.5 78 L 338.5 76 L 338.5 75 Z "/>
    <path fill="#ffffff" d="M 382.5 75 L 383 79.5 L 381.5 85 L 381 80.5 L 382.5 75 Z "/>
    <path fill="#ffffff" d="M 423.5 78 L 422.5 80 L 418.5 81 L 418.5 80 L 423.5 78 Z "/>
    <path fill="#ffffff" d="M 154.5 81 L 153.5 83 L 143.5 89 L 145.5 86 L 154.5 81 Z "/>
    <path fill="#ffffff" d="M 351.5 81 L 359 85.5 L 357.5 86 L 352.5 83 L 351.5 81 Z "/>
    <path fill="#ffffff" d="M 414.5 81 L 416 81.5 L 413.5 83 L 405.5 84 L 405.5 83 L 414.5 81 Z "/>
    <path fill="#ffffff" d="M 401.5 84 L 404 84.5 L 399.5 86 L 399.5 85 L 401.5 84 Z "/>
    <path fill="#ffffff" d="M 360.5 86 L 364 88.5 L 362.5 88 L 360.5 86 Z "/>
    <path fill="#ffffff" d="M 381.5 87 L 383.5 90 L 385 90.5 L 383.5 91 Q 379.9 89.9 381.5 87 Z "/>
    <path fill="#ffffff" d="M 141.5 89 L 140.5 91 L 134.5 95 L 136.5 92 L 141.5 89 Z "/>
    <path fill="#ffffff" d="M 389.5 89 L 391 89.5 L 387.5 91 L 387.5 90 L 389.5 89 Z "/>
    <path fill="#ffffff" d="M 368.5 91 L 372 93.5 L 370.5 93 L 368.5 91 Z "/>
    <path fill="#ffffff" d="M 132.5 95 L 129.5 99 L 125.5 102 L 128.5 98 L 132.5 95 Z "/>
    <path fill="#ffffff" d="M 377.5 97 L 386 104.5 L 382.5 102 L 377.5 97 Z "/>
    <path fill="#ffffff" d="M 437.5 102 L 447 102.5 L 437.5 103 L 437.5 102 Z "/>
    <path fill="#ffffff" d="M 431.5 103 L 435 103.5 L 428.5 105 L 428.5 104 L 431.5 103 Z "/>
    <path fill="#ffffff" d="M 449.5 103 L 455 104.5 L 453.5 105 L 449.5 104 L 449.5 103 Z "/>
    <path fill="#ffffff" d="M 456.5 105 L 465 110.5 L 463.5 111 L 456.5 106 L 456.5 105 Z "/>
    <path fill="#ffffff" d="M 388.5 106 L 414 132.5 L 409 128.5 L 388.5 106 Z "/>
    <path fill="#ffffff" d="M 421.5 106 L 424 106.5 L 420.5 108 L 421.5 106 Z "/>
    <path fill="#ffffff" d="M 116.5 108 L 103 122.5 L 95.5 131 L 101 124.5 L 116.5 108 Z "/>
    <path fill="#ffffff" d="M 415.5 109 L 413 112.5 L 412.5 115 L 412 112.5 L 415.5 109 Z "/>
    <path fill="#ffffff" d="M 465.5 112 L 468 115.5 L 467 115.5 L 465.5 112 Z "/>
    <path fill="#ffffff" d="M 468.5 117 Q 471.7 120.3 470 128.5 L 469 128.5 Q 469.6 120.3 468.5 117 Z "/>
    <path fill="#ffffff" d="M 417.5 119 L 421 121.5 L 419.5 121 L 417.5 119 Z "/>
    <path fill="#ffffff" d="M 467.5 132 L 468 133.5 L 462 138.5 L 467.5 132 Z "/>
    <path fill="#ffffff" d="M 91.5 136 L 89 139.5 L 86.5 143 L 88 140.5 L 91.5 136 Z "/>
    <path fill="#ffffff" d="M 441.5 138 L 447 140.5 L 445.5 141 Q 441.5 140.5 441.5 138 Z "/>
    <path fill="#ffffff" d="M 449.5 141 L 456 141.5 L 449.5 142 L 449.5 141 Z "/>
    <path fill="#ffffff" d="M 422.5 145 L 427 151.5 L 425 150.5 L 422.5 145 Z "/>
    <path fill="#ffffff" d="M 83.5 147 L 83 148.5 L 81.5 151 L 82 149.5 L 83.5 147 Z "/>
    <path fill="#ffffff" d="M 427.5 153 L 430 156.5 L 428 155.5 L 427.5 153 Z "/>
    <path fill="#ffffff" d="M 78.5 155 L 78 156.5 L 76.5 159 L 77 157.5 L 78.5 155 Z "/>
    <path fill="#ffffff" d="M 75.5 160 L 75 161.5 L 73.5 165 L 73 163.5 L 75.5 160 Z "/>
    <path fill="#ffffff" d="M 433.5 164 L 438 173.5 L 437 173.5 L 433 165.5 L 433.5 164 Z "/>
    <path fill="#ffffff" d="M 67.5 176 L 68 177.5 L 65.5 182 L 65 180.5 L 67.5 176 Z "/>
    <path fill="#ffffff" d="M 439.5 177 L 441 180.5 L 440 180.5 L 439.5 177 Z "/>
    <path fill="#ffffff" d="M 441.5 182 L 443 185.5 L 442 185.5 L 441.5 182 Z "/>
    <path fill="#ffffff" d="M 64.5 183 L 65 184.5 L 62.5 190 L 62 188.5 L 64.5 183 Z "/>
    <path fill="#ffffff" d="M 444.5 190 L 446 195.5 L 445 195.5 L 444.5 190 Z "/>
    <path fill="#ffffff" d="M 61.5 191 L 62 192.5 L 60.5 196 L 60 193.5 L 61.5 191 Z "/>
    <path fill="#ffffff" d="M 58.5 200 L 59 202.5 L 57.5 206 L 57 203.5 L 58.5 200 Z "/>
    <path fill="#ffffff" d="M 447.5 200 L 449 206.5 L 448 206.5 L 447.5 200 Z "/>
    <path fill="#ffffff" d="M 56.5 208 L 57 210.5 L 54.5 218 L 54 215.5 L 56.5 208 Z "/>
    <path fill="#ffffff" d="M 449.5 209 L 452 221.5 L 451 221.5 L 449.5 209 Z "/>
    <path fill="#ffffff" d="M 53.5 220 L 54 223.5 L 52.5 228 L 52 224.5 L 53.5 220 Z "/>
    <path fill="#ffffff" d="M 173.5 223 Q 186 221 192 225.5 Q 192.8 227.8 190.5 227 Q 181.1 232.1 182 247.5 L 185 256 L 175.5 256 L 161.5 260 L 151.5 261 L 148 258.5 L 147 256.5 L 147 243.5 L 155.5 231 Q 162.5 225 173.5 223 Z "/>
    <path fill="#ffffff" d="M 325.5 223 Q 338.7 221.3 345 225 Q 346.1 227.7 343.5 227 L 340 229 L 335 239.5 L 335 249.5 L 338 254.5 L 336.5 256 L 322.5 257 Q 315.5 261 304.5 261 L 301 258.5 L 299 252.5 L 299 247.5 Q 301.2 235.7 309.5 230 L 318.5 225 L 325.5 223 Z "/>
    <path fill="#ffffff" d="M 452.5 225 L 454 232.5 L 454 242.5 L 453 242.5 L 452.5 225 Z "/>
    <path fill="#ffffff" d="M 50.5 235 L 51 239.5 L 49.5 245 L 49 239.5 L 50.5 235 Z "/>
    <path fill="#ffffff" d="M 454.5 247 L 455 256.5 L 454 256.5 L 454.5 247 Z "/>
    <path fill="#ffffff" d="M 47.5 253 L 48 257.5 L 47 257.5 L 47.5 253 Z "/>
    <path fill="#ffffff" d="M 46.5 259 L 47 263.5 L 46 263.5 L 46.5 259 Z "/>
    <path fill="#ffffff" d="M 455.5 262 L 457 278.5 L 456 278.5 L 455.5 262 Z "/>
    <path fill="#ffffff" d="M 45.5 268 L 46 272.5 L 45 272.5 L 45.5 268 Z "/>
    <path fill="#ffffff" d="M 44.5 274 L 45 282.5 L 44 282.5 L 44.5 274 Z "/>
    <path fill="#ffffff" d="M 457.5 283 L 458 289.5 L 457 289.5 L 457.5 283 Z "/>
    <path fill="#ffffff" d="M 43.5 284 L 44 291.5 L 43 291.5 L 43.5 284 Z "/>
    <path fill="#ffffff" d="M 458.5 292 L 459 304.5 L 458 304.5 L 458.5 292 Z "/>
    <path fill="#ffffff" d="M 42.5 298 L 43 312.5 L 42 317.5 L 43 318.5 L 43 336.5 L 42 336.5 L 41 312.5 L 42 311.5 L 42.5 298 Z "/>
    <path fill="#ffffff" d="M 459.5 306 L 460 331.5 L 459 331.5 L 459.5 306 Z "/>
    <path fill="#ffffff" d="M 458.5 333 L 459 342.5 L 458 342.5 L 458.5 333 Z "/>
    <path fill="#ffffff" d="M 43.5 341 L 44 345.5 L 43 345.5 L 43.5 341 Z "/>
    <path fill="#ffffff" d="M 44.5 347 L 45 353.5 L 44 353.5 L 44.5 347 Z "/>
    <path fill="#ffffff" d="M 456.5 350 L 457 353.5 L 455.5 358 L 455 354.5 L 456.5 350 Z "/>
    <path fill="#ffffff" d="M 46.5 361 L 48 367.5 L 47 367.5 L 46.5 361 Z "/>
    <path fill="#ffffff" d="M 453.5 362 L 454 364.5 L 452.5 368 L 452 365.5 L 453.5 362 Z "/>
    <path fill="#ffffff" d="M 451.5 369 L 452 370.5 L 449.5 375 L 449 373.5 L 451.5 369 Z "/>
    <path fill="#ffffff" d="M 49.5 372 L 51 376.5 L 50 376.5 L 49.5 372 Z "/>
    <path fill="#ffffff" d="M 448.5 376 L 449 377.5 L 447.5 380 L 447 378.5 L 448.5 376 Z "/>
    <path fill="#ffffff" d="M 52.5 381 L 54 385.5 L 53 385.5 L 52.5 381 Z "/>
    <path fill="#ffffff" d="M 446.5 381 L 447 382.5 L 441.5 392 L 442 390.5 L 446.5 381 Z "/>
    <path fill="#ffffff" d="M 54.5 387 L 57 392.5 L 56 392.5 L 54.5 387 Z "/>
    <path fill="#ffffff" d="M 57.5 394 L 62 401.5 L 60 400.5 L 57.5 394 Z "/>
    <path fill="#ffffff" d="M 438.5 396 L 437 398.5 L 431.5 406 L 433 403.5 L 438.5 396 Z "/>
    <path fill="#ffffff" d="M 62.5 403 L 68 410.5 L 65 408.5 L 62.5 403 Z "/>
    <path fill="#ffffff" d="M 79.5 424 L 91 434.5 L 88.5 433 L 79.5 424 Z "/>
    <path fill="#ffffff" d="M 411.5 425 L 413 425.5 L 399.5 435 L 400.5 433 L 411.5 425 Z "/>
    <path fill="#ffffff" d="M 394.5 437 L 393.5 439 L 391.5 440 L 392.5 438 L 394.5 437 Z "/>
    <path fill="#ffffff" d="M 96.5 438 L 100 440.5 L 98.5 440 L 96.5 438 Z "/>
    <path fill="#ffffff" d="M 389.5 440 L 388.5 442 L 386.5 443 L 387.5 441 L 389.5 440 Z "/>
    <path fill="#ffffff" d="M 383.5 443 L 385 443.5 L 380.5 446 L 381.5 444 L 383.5 443 Z "/>
    <path fill="#ffffff" d="M 110.5 446 L 116 448.5 L 114.5 449 L 110.5 447 L 110.5 446 Z "/>
    <path fill="#ffffff" d="M 377.5 446 L 379 446.5 L 369.5 451 L 369.5 450 L 377.5 446 Z "/>
    <path fill="#ffffff" d="M 117.5 449 L 121 450.5 L 119.5 451 L 117.5 449 Z "/>
    <path fill="#ffffff" d="M 366.5 451 L 368 451.5 L 364.5 453 L 364.5 452 L 366.5 451 Z "/>
    <path fill="#ffffff" d="M 124.5 452 L 129 453.5 L 126.5 454 L 124.5 452 Z "/>
    <path fill="#ffffff" d="M 130.5 454 L 135 455.5 L 132.5 456 L 130.5 454 Z "/>
    <path fill="#ffffff" d="M 359.5 454 L 361 454.5 L 354.5 457 L 354.5 456 L 359.5 454 Z "/>
    <path fill="#ffffff" d="M 139.5 457 L 145 458.5 L 142.5 459 L 139.5 458 L 139.5 457 Z "/>
    <path fill="#ffffff" d="M 350.5 457 L 352 457.5 L 348.5 459 L 348.5 458 L 350.5 457 Z "/>
    <path fill="#ffffff" d="M 344.5 459 L 347 459.5 L 338.5 462 L 338.5 461 L 344.5 459 Z "/>
    <path fill="#ffffff" d="M 150.5 460 L 156 461.5 L 153.5 462 L 150.5 461 L 150.5 460 Z "/>
    <path fill="#ffffff" d="M 335.5 462 L 337 462.5 L 329.5 465 L 329.5 464 L 335.5 462 Z "/>
    <path fill="#ffffff" d="M 162.5 463 L 170 464.5 L 166.5 465 L 162.5 464 L 162.5 463 Z "/>
    <path fill="#ffffff" d="M 172.5 465 L 179 466.5 L 175.5 467 L 172.5 466 L 172.5 465 Z "/>
    <path fill="#ffffff" d="M 326.5 465 L 328 465.5 L 322.5 467 L 322.5 466 L 326.5 465 Z "/>
    <path fill="#ffffff" d="M 185.5 468 L 194 469.5 L 189.5 470 L 185.5 469 L 185.5 468 Z "/>
    <path fill="#ffffff" d="M 314.5 468 L 318 468.5 L 310.5 470 L 310.5 469 L 314.5 468 Z "/>
    <path fill="#ffffff" d="M 201.5 471 L 210 472.5 L 206.5 473 L 201.5 472 L 201.5 471 Z "/>
    <path fill="#ffffff" d="M 301.5 471 L 305 471.5 L 298.5 473 L 298.5 472 L 301.5 471 Z "/>
    <path fill="#ffffff" d="M 213.5 473 L 227 474.5 L 218.5 475 L 213.5 474 L 213.5 473 Z "/>
    <path fill="#ffffff" d="M 291.5 473 L 295 473.5 Q 290.9 475.9 283.5 475 L 283.5 474 Q 289.8 475.8 291.5 473 Z "/>
    <path fill="#ffffff" d="M 228.5 475 L 235 475.5 L 228.5 476 L 228.5 475 Z "/>
    <path fill="#ffffff" d="M 274.5 475 L 281 475.5 L 274.5 476 L 274.5 475 Z "/>
    <path fill="#ffffff" d="M 242.5 476 L 269 476.5 L 242.5 477 L 242.5 476 Z "/>
    <path fill="#4da3ff" d="M 416.5 45 Q 425.6 45.4 429 51.5 L 430 58.5 Q 428.5 65 423.5 68 L 417.5 71 L 402.5 75 L 400.5 75 L 395.5 76 Q 393 75 394 70.5 L 400 57.5 L 406.5 50 L 416.5 45 Z "/>
    <path fill="#4da3ff" d="M 439.5 112 L 450.5 113 L 458 117.5 Q 460.7 120.8 460 127.5 Q 457.8 133.3 447.5 131 L 437 123.5 Q 437.8 121.3 435.5 122 L 433 118 L 431 118 Q 432.1 115.3 429.5 116 L 429.5 115 L 439.5 112 Z "/>
    <path fill="#ffd43b" d="M 235.5 74 L 267.5 74 L 268.5 75 L 276.5 75 L 277.5 76 L 284.5 76 L 294.5 78 L 302.5 81 L 317.5 84 L 353.5 101 Q 376.6 114.9 394 134.5 Q 406.2 147.3 415 163.5 L 426 185.5 L 434 211.5 L 437 228.5 L 437 236.5 L 438 237.5 L 438 253.5 L 440 264.5 L 441 286.5 L 443 294.5 L 444 327.5 L 443 328.5 L 443 337.5 Q 440 344 440 353.5 L 432 375.5 Q 422.3 395.3 406.5 409 Q 393.7 420.7 377.5 429 L 353.5 440 L 341.5 443 L 330.5 448 L 308.5 454 L 304.5 454 L 300.5 456 L 283.5 459 L 272.5 459 L 271.5 460 L 236.5 460 L 235.5 459 L 217.5 458 L 194.5 453 L 188.5 453 L 133.5 439 L 109.5 428 Q 95.4 419.6 85 407.5 L 74 392.5 L 63 364.5 L 60 349.5 L 59 334.5 L 58 333.5 L 58 301.5 L 59 300.5 L 59 289.5 L 60 288.5 L 60 278.5 L 62 270.5 L 63 255.5 L 65 250.5 L 65 244.5 Q 68.5 235.5 69 223.5 L 77 195.5 L 95 158.5 L 109 139.5 L 120.5 127 Q 122.8 127.8 122 125.5 L 145.5 106 L 179.5 87 L 200.5 81 L 203.5 79 L 225.5 75 L 234.5 75 L 235.5 74 Z M 185 172 L 176 184 L 164 192 L 156 194 L 144 194 L 140 197 Q 139 203 143 204 Q 155 206 163 203 L 179 195 L 190 183 L 191 173 L 185 172 Z M 317 172 L 314 175 L 315 182 L 321 189 L 323 192 Q 333 200 347 204 L 363 204 L 365 203 L 366 198 L 362 194 L 346 193 L 334 187 Q 327 182 323 174 Q 322 171 317 172 Z M 333 213 L 332 214 L 323 214 L 305 222 Q 293 229 290 246 L 291 261 L 294 266 L 302 270 L 313 270 L 326 266 L 348 266 L 355 268 Q 363 269 367 266 L 373 256 L 373 243 L 365 227 Q 354 214 333 213 Z M 170 214 L 152 222 L 141 234 L 137 247 Q 136 259 141 265 Q 144 270 152 271 L 160 270 L 173 266 L 195 266 L 202 268 Q 210 269 214 266 Q 218 262 220 256 L 220 243 L 218 236 L 213 228 Q 205 218 191 214 L 170 214 Z M 255 306 L 254 307 L 245 307 L 233 311 L 221 318 L 210 332 L 208 340 L 209 348 L 212 353 L 221 358 L 229 358 L 247 351 Q 252 353 254 350 L 266 351 L 283 358 L 291 357 L 296 354 Q 300 351 301 346 Q 302 331 295 324 Q 283 306 255 306 Z "/>
    <path fill="#ffd43b" d="M 248.5 316 L 265.5 316 Q 276.1 318.4 283 324.5 L 285 327.5 Q 292.3 331.7 291 344.5 Q 289.1 349.1 281.5 348 L 268.5 342 L 263.5 341 L 248.5 341 Q 237.5 343 229.5 348 L 221.5 348 L 219 347 Q 217.1 344.3 218 337.5 Q 220.6 330.1 226.5 326 L 233.5 321 L 248.5 316 Z "/>
    <path fill="#66d9e8" d="M 413.5 44 Q 426.4 42.1 430 49.5 Q 432.6 52.4 432 58.5 L 425.5 69 L 410.5 75 L 392.5 79 L 391 75.5 L 393 67.5 L 404 49 L 413.5 44 Z M 417 45 L 407 50 L 400 58 L 394 71 Q 393 75 396 76 L 401 75 L 403 75 L 418 71 L 424 68 Q 428 65 430 59 L 429 52 Q 426 45 417 45 Z "/>
    <path fill="#66d9e8" d="M 441.5 110 L 452.5 112 L 460 117.5 Q 462.8 120.2 462 126.5 L 458.5 132 Q 455.3 134.3 448.5 133 Q 435 127 427 115.5 L 428.5 113 L 441.5 110 Z M 440 112 L 430 115 L 430 116 Q 432 115 431 118 L 433 118 L 436 122 Q 438 121 437 124 L 448 131 Q 458 133 460 128 Q 461 121 458 118 L 451 113 L 440 112 Z "/>
  </g>
  <g id="line">
    <path fill="#1a1a1a" d="M 414.5 36 L 427.5 37 L 436 44.5 Q 441 50 439 62.5 Q 435.8 71.3 428.5 76 L 417.5 81 L 401.5 84 L 385.5 91 L 382 88.5 L 381 85.5 L 384 70.5 L 389 57.5 Q 394 47.5 402.5 41 L 414.5 36 Z M 414 44 L 404 49 L 393 68 L 391 79 L 411 75 L 426 69 L 432 59 Q 433 52 430 50 Q 426 42 414 44 Z "/>
    <path fill="#1a1a1a" d="M 235.5 58 L 278.5 59 L 316.5 67 L 337.5 75 L 372.5 94 Q 392.9 108.7 409 127.5 L 430 157.5 L 443 186.5 L 449 207.5 L 452 222.5 L 453 242.5 L 454 243.5 L 454 256.5 L 455 257.5 L 455 270.5 L 456 271.5 L 457 289.5 L 458 290.5 L 459 332.5 L 458 333.5 L 458 343.5 L 455 358.5 L 452 368.5 L 441 392.5 Q 429.3 411.3 412.5 425 Q 397.5 437 379.5 446 L 353.5 457 L 350.5 457 L 325.5 466 L 301.5 471 L 297.5 473 L 283.5 474 L 282.5 475 L 274.5 475 L 273.5 476 L 235.5 476 L 226.5 474 L 210.5 473 L 205.5 471 L 199.5 471 L 188.5 468 L 183.5 468 L 138.5 457 L 123.5 452 L 103.5 443 L 78 424 L 78 422 Q 75.3 423.1 76 420.5 Q 64.4 409.1 57 393.5 L 48 368.5 L 43 340.5 L 43 318.5 L 42 313.5 L 43 312.5 L 43 292.5 L 44 291.5 L 44 283.5 L 45 282.5 L 45 273.5 L 46 272.5 L 48 251.5 L 51 239.5 L 52 228.5 L 54 223.5 L 54 218.5 L 62 190.5 Q 80.6 140.1 117.5 108 Q 141.9 85.9 174.5 72 L 187.5 67 L 191.5 67 L 206.5 62 L 217.5 61 L 224.5 59 L 234.5 59 L 235.5 58 Z M 236 74 L 235 75 L 226 75 L 204 79 L 201 81 L 180 87 L 146 106 L 122 126 Q 123 128 121 127 L 109 140 L 95 159 L 77 196 L 69 224 Q 69 236 65 245 L 65 251 L 63 256 L 62 271 L 60 279 L 60 289 L 59 290 L 59 301 L 58 302 L 58 334 L 59 335 L 60 350 L 63 365 L 74 393 L 85 408 Q 95 420 110 428 L 134 439 L 189 453 L 195 453 L 218 458 L 236 459 L 237 460 L 272 460 L 273 459 L 284 459 L 301 456 L 305 454 L 309 454 L 331 448 L 342 443 L 354 440 L 378 429 Q 394 421 407 409 Q 422 395 432 376 L 440 354 Q 440 344 443 338 L 443 329 L 444 328 L 443 295 L 441 287 L 440 265 L 438 254 L 438 238 L 437 237 L 437 229 L 434 212 L 426 186 L 415 164 Q 406 147 394 135 Q 377 115 354 101 L 318 84 L 303 81 L 295 78 L 285 76 L 278 76 L 277 75 L 269 75 L 268 74 L 236 74 Z "/>
    <path fill="#1a1a1a" d="M 435.5 103 Q 445.8 101.7 452.5 104 L 465 111 L 469 119.5 L 469 129.5 L 461.5 139 Q 457.2 142.7 447.5 141 L 440.5 138 L 430 130 L 428.5 127 L 413 115.5 Q 412.3 109.8 416.5 109 L 435.5 103 Z M 442 110 L 429 113 L 427 116 Q 435 127 449 133 Q 455 134 459 132 L 462 127 Q 463 120 460 118 L 453 112 L 442 110 Z "/>
    <path fill="#1a1a1a" d="M 184.5 172 L 191 173 L 190 182.5 L 178.5 195 L 162.5 203 Q 154.6 205.6 142.5 204 Q 138.8 202.8 140 196.5 L 143.5 194 L 155.5 194 L 163.5 192 L 176 184 L 184.5 172 Z "/>
    <path fill="#1a1a1a" d="M 316.5 172 Q 321.8 170.8 323 173.5 Q 326.6 181.9 333.5 187 L 345.5 193 L 361.5 194 L 366 197.5 L 365 203 L 362.5 204 L 346.5 204 Q 332.8 199.7 323 191.5 L 321 188.5 L 315 181.5 L 314 174.5 L 316.5 172 Z "/>
    <path fill="#1a1a1a" d="M 332.5 213 Q 354.3 214.3 365 226.5 L 373 242.5 L 373 255.5 L 367 266 Q 363.4 269.1 354.5 268 L 347.5 266 L 325.5 266 L 312.5 270 L 301.5 270 L 294 266 L 291 260.5 L 290 245.5 Q 292.9 229.4 304.5 222 L 322.5 214 L 331.5 214 L 332.5 213 Z M 326 223 L 319 225 L 310 230 Q 301 236 299 248 L 299 253 L 301 259 L 305 261 Q 316 261 323 257 L 337 256 L 338 255 L 335 250 L 335 240 L 340 229 L 344 227 Q 346 228 345 225 Q 339 221 326 223 Z "/>
    <path fill="#1a1a1a" d="M 169.5 214 L 190.5 214 Q 204.8 217.7 213 227.5 L 218 235.5 L 220 242.5 L 220 255.5 Q 218.4 262.5 213.5 266 Q 209.5 269 201.5 268 L 194.5 266 L 172.5 266 L 159.5 270 L 151.5 271 Q 144.1 269.9 141 264.5 Q 135.6 258.9 137 246.5 L 141 233.5 L 151.5 222 L 169.5 214 Z M 174 223 Q 163 225 156 231 L 147 244 L 147 257 L 148 259 L 152 261 L 162 260 L 176 256 L 185 256 L 182 248 Q 181 232 191 227 Q 193 228 192 226 Q 186 221 174 223 Z "/>
    <path fill="#1a1a1a" d="M 254.5 306 Q 283.5 306 295 323.5 Q 302 330.5 301 345.5 Q 299.8 351.3 295.5 354 L 290.5 357 L 282.5 358 L 265.5 351 L 253.5 350 Q 252 352.5 246.5 351 L 228.5 358 L 220.5 358 L 212 352.5 L 209 347.5 L 208 339.5 L 210 331.5 L 220.5 318 L 232.5 311 L 244.5 307 L 253.5 307 L 254.5 306 Z M 249 316 L 234 321 L 227 326 Q 221 330 218 338 Q 217 344 219 347 L 222 348 L 230 348 Q 237 343 249 341 L 264 341 L 269 342 L 282 348 Q 289 349 291 345 Q 292 332 285 328 L 283 325 Q 276 318 266 316 L 249 316 Z "/>
  </g>
</svg>
