<svg xmlns="http://www.w3.org/2000/svg" width="512" height="512" viewBox="0 0 512 512">
  <g id="color">
    <path fill="#ffffff" d="M 353.5 35 L 372 35.5 L 353.5 36 L 353.5 35 Z "/>
    <path fill="#ffffff" d="M 233.5 36 L 242 36.5 L 233.5 37 L 233.5 36 Z "/>
    <path fill="#ffffff" d="M 342.5 36 L 349 36.5 L 342.5 37 L 342.5 36 Z "/>
    <path fill="#ffffff" d="M 229.5 37 L 231 37.5 L 225.5 40 L 226.5 38 L 229.5 37 Z "/>
    <path fill="#ffffff" d="M 244.5 37 L 252 43.5 L 246.5 39 L 244.5 37 Z "/>
    <path fill="#ffffff" d="M 333.5 37 L 338 37.5 L 333.5 38 L 333.5 37 Z "/>
    <path fill="#ffffff" d="M 383.5 37 L 386 38 L 387 40.5 L 383.5 37 Z "/>
    <path fill="#ffffff" d="M 222.5 40 L 224 40.5 Q 215.4 44.4 210 51.5 L 208.5 54 L 209 52.5 L 216.5 44 L 222.5 40 Z "/>
    <path fill="#ffffff" d="M 320.5 40 L 323 40.5 L 315.5 43 L 315.5 42 L 320.5 40 Z "/>
    <path fill="#ffffff" d="M 312.5 43 L 314 43.5 L 310.5 45 L 310.5 44 L 312.5 43 Z "/>
    <path fill="#ffffff" d="M 305.5 46 L 307 46.5 L 302.5 49 L 303.5 47 L 305.5 46 Z "/>
    <path fill="#ffffff" d="M 254.5 49 L 257 52.5 L 255 51.5 L 254.5 49 Z "/>
    <path fill="#ffffff" d="M 300.5 49 L 298.5 52 L 296.5 53 L 297.5 51 L 300.5 49 Z "/>
    <path fill="#ffffff" d="M 386.5 55 L 387 57.5 L 385.5 61 L 385 58.5 L 386.5 55 Z "/>
    <path fill="#ffffff" d="M 258.5 56 L 260 59.5 L 259 59.5 L 258.5 56 Z "/>
    <path fill="#ffffff" d="M 206.5 57 L 207 65.5 L 206 65.5 L 206.5 57 Z "/>
    <path fill="#ffffff" d="M 261.5 63 L 264 69.5 L 263 69.5 L 261.5 63 Z "/>
    <path fill="#ffffff" d="M 383.5 66 L 384 67.5 L 382.5 70 L 382 68.5 L 383.5 66 Z "/>
    <path fill="#ffffff" d="M 207.5 67 L 217 79.5 L 214 77.5 L 207.5 67 Z "/>
    <path fill="#ffffff" d="M 264.5 72 L 266 76.5 L 265 76.5 L 264.5 72 Z "/>
    <path fill="#ffffff" d="M 275.5 75 L 275 76.5 L 273.5 80 L 273 78.5 L 275.5 75 Z "/>
    <path fill="#ffffff" d="M 377.5 80 L 378 81.5 L 374.5 87 L 375 85.5 L 377.5 80 Z "/>
    <path fill="#ffffff" d="M 272.5 81 L 272 82.5 L 270.5 86 L 270 84.5 L 272.5 81 Z "/>
    <path fill="#ffffff" d="M 373.5 88 L 373 89.5 L 371.5 92 L 372 90.5 L 373.5 88 Z "/>
    <path fill="#ffffff" d="M 223.5 90 L 226 93.5 L 224 92.5 L 223.5 90 Z "/>
    <path fill="#ffffff" d="M 229.5 101 L 232 105.5 L 231 105.5 L 229.5 101 Z "/>
    <path fill="#ffffff" d="M 232.5 107 L 234 110.5 L 233 110.5 L 232.5 107 Z "/>
    <path fill="#ffffff" d="M 347.5 116 L 346.5 118 L 344.5 119 L 345.5 117 L 347.5 116 Z "/>
    <path fill="#ffffff" d="M 236.5 118 L 238 122.5 L 237 122.5 L 236.5 118 Z "/>
    <path fill="#ffffff" d="M 342.5 119 L 341.5 121 L 339.5 122 L 340.5 120 L 342.5 119 Z "/>
    <path fill="#ffffff" d="M 336.5 122 L 338 122.5 L 332.5 125 L 332.5 124 L 336.5 122 Z "/>
    <path fill="#ffffff" d="M 325.5 126 L 328 126.5 L 322.5 128 L 322.5 127 L 325.5 126 Z "/>
    <path fill="#ffffff" d="M 274 127 L 277 127.5 L 275 128 L 274.5 147 L 274 127 Z "/>
    <path fill="#ffffff" d="M 239.5 128 L 241 134.5 L 240 134.5 L 239.5 128 Z "/>
    <path fill="#ffffff" d="M 285.5 129 L 292 129.5 L 285.5 130 L 285.5 129 Z "/>
    <path fill="#ffffff" d="M 305.5 129 L 313 129.5 L 304.5 131 L 293.5 131 L 293.5 130 L 304.5 130 L 305.5 129 Z "/>
    <path fill="#ffffff" d="M 172.5 135 L 187 135.5 L 172.5 136 L 172.5 135 Z "/>
    <path fill="#ffffff" d="M 326.5 135 L 343 135.5 L 326.5 136 L 326.5 135 Z "/>
    <path fill="#ffffff" d="M 163.5 136 L 170 136.5 L 163.5 137 L 163.5 136 Z "/>
    <path fill="#ffffff" d="M 188.5 136 L 196 136.5 L 188.5 137 L 188.5 136 Z "/>
    <path fill="#ffffff" d="M 317.5 136 L 325 136.5 L 317.5 137 L 317.5 136 Z "/>
    <path fill="#ffffff" d="M 344.5 136 L 351 136.5 L 344.5 137 L 344.5 136 Z "/>
    <path fill="#ffffff" d="M 358.5 138 L 367 140.5 L 365.5 141 L 358.5 139 L 358.5 138 Z "/>
    <path fill="#ffffff" d="M 207.5 139 L 214 140.5 L 211.5 141 L 207.5 140 L 207.5 139 Z "/>
    <path fill="#ffffff" d="M 302.5 139 L 306 139.5 L 300.5 141 L 300.5 140 L 302.5 139 Z "/>
    <path fill="#ffffff" d="M 140.5 142 L 142 142.5 L 138.5 144 L 138.5 143 L 140.5 142 Z "/>
    <path fill="#ffffff" d="M 218.5 142 L 223 143.5 L 221.5 144 L 218.5 143 L 218.5 142 Z "/>
    <path fill="#ffffff" d="M 293.5 142 L 295 142.5 L 290.5 144 L 290.5 143 L 293.5 142 Z "/>
    <path fill="#ffffff" d="M 372.5 142 L 376 143.5 L 374.5 144 L 372.5 142 Z "/>
    <path fill="#ffffff" d="M 135.5 144 L 137 144.5 L 131.5 147 L 131.5 146 L 135.5 144 Z "/>
    <path fill="#ffffff" d="M 287.5 144 L 289 144.5 L 284.5 146 L 284.5 145 L 287.5 144 Z "/>
    <path fill="#ffffff" d="M 377.5 144 L 383 146.5 L 381.5 147 L 377.5 145 L 377.5 144 Z "/>
    <path fill="#ffffff" d="M 227.5 145 L 232 146.5 L 230.5 147 L 227.5 146 L 227.5 145 Z "/>
    <path fill="#ffffff" d="M 237.5 148 L 242.5 149 L 244 148.5 L 240.5 150 L 237.5 149 L 237.5 148 Z "/>
    <path fill="#ffffff" d="M 386.5 148 L 390 150.5 L 388.5 150 L 386.5 148 Z "/>
    <path fill="#ffffff" d="M 121.5 151 L 120.5 153 L 118.5 154 L 119.5 152 L 121.5 151 Z "/>
    <path fill="#ffffff" d="M 396.5 154 L 400 156.5 L 398.5 156 L 396.5 154 Z "/>
    <path fill="#ffffff" d="M 416.5 171 L 426 182.5 L 423 180.5 L 416.5 171 Z "/>
    <path fill="#ffffff" d="M 94.5 173 L 95 174.5 L 91 177.5 L 94.5 173 Z "/>
    <path fill="#ffffff" d="M 428.5 187 L 431 190.5 L 429 189.5 L 428.5 187 Z "/>
    <path fill="#ffffff" d="M 82.5 191 L 82 192.5 L 77.5 202 L 77 200.5 L 82.5 191 Z "/>
    <path fill="#ffffff" d="M 435.5 200 L 438 205.5 L 437 205.5 L 435.5 200 Z "/>
    <path fill="#ffffff" d="M 76.5 203 L 77 204.5 L 75.5 207 L 75 205.5 L 76.5 203 Z "/>
    <path fill="#ffffff" d="M 438.5 207 L 440 210.5 L 439 210.5 L 438.5 207 Z "/>
    <path fill="#ffffff" d="M 73.5 211 L 74 212.5 L 71.5 218 L 71 216.5 L 73.5 211 Z "/>
    <path fill="#ffffff" d="M 442.5 218 L 444 223.5 L 443 223.5 L 442.5 218 Z "/>
    <path fill="#ffffff" d="M 66.5 237 L 67 242.5 L 66 242.5 L 66.5 237 Z "/>
    <path fill="#ffffff" d="M 447.5 242 L 448 246.5 L 447 246.5 L 447.5 242 Z "/>
    <path fill="#ffffff" d="M 65.5 244 L 66 249.5 L 65 249.5 L 65.5 244 Z "/>
    <path fill="#ffffff" d="M 448.5 249 L 449 260.5 L 448 260.5 L 448.5 249 Z "/>
    <path fill="#ffffff" d="M 64.5 256 L 65 279.5 L 64 279.5 L 64.5 256 Z "/>
    <path fill="#ffffff" d="M 449.5 262 L 450 274.5 L 449 274.5 L 449.5 262 Z "/>
    <path fill="#ffffff" d="M 448.5 276 L 449 286.5 L 448 286.5 L 448.5 276 Z "/>
    <path fill="#ffffff" d="M 65.5 286 L 66 292.5 L 65 292.5 L 65.5 286 Z "/>
    <path fill="#ffffff" d="M 447.5 290 L 448 295.5 L 447 295.5 L 447.5 290 Z "/>
    <path fill="#ffffff" d="M 66.5 294 L 67 299.5 L 66 299.5 L 66.5 294 Z "/>
    <path fill="#ffffff" d="M 445.5 304 L 446 308.5 L 445 308.5 L 445.5 304 Z "/>
    <path fill="#ffffff" d="M 443.5 316 L 444 318.5 L 442.5 323 L 442 319.5 L 443.5 316 Z "/>
    <path fill="#ffffff" d="M 72.5 326 L 74 332.5 L 73 332.5 L 72.5 326 Z "/>
    <path fill="#ffffff" d="M 75.5 338 L 77 342.5 L 76 342.5 L 75.5 338 Z "/>
    <path fill="#ffffff" d="M 437.5 340 L 438 341.5 L 435.5 347 L 435 345.5 L 437.5 340 Z "/>
    <path fill="#ffffff" d="M 78.5 348 L 80 351.5 L 79 351.5 L 78.5 348 Z "/>
    <path fill="#ffffff" d="M 434.5 349 L 435 350.5 L 432.5 356 L 432 354.5 L 434.5 349 Z "/>
    <path fill="#ffffff" d="M 81.5 356 L 84 362.5 L 83 362.5 L 81.5 356 Z "/>
    <path fill="#ffffff" d="M 430.5 360 L 431 361.5 L 429.5 364 L 429 362.5 L 430.5 360 Z "/>
    <path fill="#ffffff" d="M 84.5 364 L 87 370.5 L 86 370.5 L 84.5 364 Z "/>
    <path fill="#ffffff" d="M 427.5 368 L 428 369.5 L 425.5 374 L 425 372.5 L 427.5 368 Z "/>
    <path fill="#ffffff" d="M 90.5 378 L 96 389.5 L 95 389.5 L 90 379.5 L 90.5 378 Z "/>
    <path fill="#ffffff" d="M 421.5 381 L 422 382.5 L 419.5 387 L 419 385.5 L 421.5 381 Z "/>
    <path fill="#ffffff" d="M 418.5 388 L 418 389.5 L 413.5 398 L 414 396.5 L 418.5 388 Z "/>
    <path fill="#ffffff" d="M 96.5 391 L 100 396.5 L 98 395.5 L 96.5 391 Z "/>
    <path fill="#ffffff" d="M 103.5 403 L 106 406.5 L 104 405.5 L 103.5 403 Z "/>
    <path fill="#ffffff" d="M 106.5 408 L 109 411.5 L 107 410.5 L 106.5 408 Z "/>
    <path fill="#ffffff" d="M 406.5 409 L 406 410.5 L 403.5 414 L 405 411.5 L 406.5 409 Z "/>
    <path fill="#ffffff" d="M 402.5 415 L 402 416.5 L 399.5 420 L 401 417.5 L 402.5 415 Z "/>
    <path fill="#ffffff" d="M 119.5 427 L 134 442.5 L 122 431.5 L 119.5 427 Z "/>
    <path fill="#ffffff" d="M 135.5 444 L 155 460.5 L 152.5 459 Q 141.4 453.2 135.5 444 Z "/>
    <path fill="#ffffff" d="M 358.5 460 L 357.5 462 L 354.5 464 L 356.5 461 L 358.5 460 Z "/>
    <path fill="#ffffff" d="M 250.5 464 Q 261.6 462.4 268 465.5 L 264.5 466 L 263.5 465 L 250.5 465 L 245.5 466 L 245.5 465 L 250.5 464 Z "/>
    <path fill="#ffffff" d="M 352.5 464 L 351.5 466 L 342.5 470 L 342.5 469 L 352.5 464 Z "/>
    <path fill="#ffffff" d="M 273.5 467 L 277 468.5 L 275.5 469 L 273.5 467 Z "/>
    <path fill="#ffffff" d="M 172.5 470 L 179 472.5 L 177.5 473 L 172.5 471 L 172.5 470 Z "/>
    <path fill="#ffffff" d="M 230.5 470 L 232 470.5 L 225.5 473 L 225.5 472 L 230.5 470 Z "/>
    <path fill="#ffffff" d="M 281.5 470 L 289 472.5 L 286.5 473 L 281.5 471 L 281.5 470 Z "/>
    <path fill="#ffffff" d="M 339.5 470 L 341 470.5 L 337.5 472 L 337.5 471 L 339.5 470 Z "/>
    <path fill="#ffffff" d="M 221.5 473 L 223 473.5 L 213.5 476 L 213.5 475 L 221.5 473 Z "/>
    <path fill="#ffffff" d="M 184.5 474 L 191 475.5 L 187.5 476 L 184.5 475 L 184.5 474 Z "/>
    <path fill="#ffffff" d="M 293.5 474 L 301 475.5 L 297.5 476 L 293.5 475 L 293.5 474 Z "/>
    <path fill="#ffffff" d="M 194.5 476 L 210 476.5 L 194.5 477 L 194.5 476 Z "/>
    <path fill="#ffffff" d="M 304.5 476 L 320 476.5 L 304.5 477 L 304.5 476 Z "/>
    <path fill="#ff6b6b" d="M 173.5 145 L 188.5 145 L 199 147.5 L 198.5 149 L 203.5 148 L 203.5 149 L 202 149.5 L 204.5 150 L 208 149.5 L 207.5 151 L 210.5 150 L 221 153 L 221.5 155 L 223.5 154 L 229.5 157 L 232.5 157 L 234.5 159 L 236.5 158 L 242.5 161 L 246.5 160 Q 248 163.5 249.5 161 L 265.5 161 L 266.5 162 L 270.5 160 Q 272 162.5 273.5 159 L 275.5 160 L 281.5 157 L 282.5 159 L 284.5 156 L 291.5 154 L 293 154.5 Q 292.3 152.3 294.5 153 L 303.5 150 L 305 150.5 Q 304.1 147.5 308.5 149 L 311.5 148 L 314.5 149 L 314.5 147 L 325.5 145 L 340.5 145 L 341.5 146 L 349.5 146 Q 352.4 148.6 358.5 148 L 370.5 152 L 374 154.5 L 374.5 156 L 377.5 155 L 387 160.5 L 387.5 162 L 389.5 162 L 403 172.5 L 403.5 174 L 404.5 173 L 412 180.5 L 419 190.5 L 418.5 192 L 421 193.5 L 420 195.5 L 424 198.5 L 431 216.5 L 430 218.5 L 432 218.5 L 431 220.5 L 433 221 L 432 225.5 L 434 225.5 L 435 230.5 L 434 232.5 L 436 232.5 L 437 239.5 L 437 241.5 L 438 248.5 L 437 250.5 L 439 252.5 L 439 285.5 Q 435.5 287 438 288.5 L 437.5 294 L 436.5 290 L 436 294.5 L 437 296.5 L 437 298.5 Q 437.6 303.1 435 304.5 L 436 307.5 L 432 325 L 430 325.5 L 431 328.5 L 428.5 336 L 427 335.5 L 428 339.5 L 426.5 344 L 425.5 342 L 425 344.5 L 425.5 346 L 424 345.5 L 425 348.5 L 424 348.5 L 423.5 347 L 423 349.5 L 424 351.5 L 422.5 354 L 421 353.5 L 422 357 L 420 357.5 L 421 359.5 L 419.5 362 L 418 361.5 L 419 364.5 L 412.5 378 L 411 377.5 L 412 379.5 L 396 408.5 L 387.5 419 L 386 418.5 Q 386.8 423.3 383.5 424 L 382 423.5 L 383 425.5 L 371.5 437 L 369 437.5 L 370 438.5 L 364.5 444 L 345.5 457 L 342.5 456 L 342.5 457 L 344 457.5 L 332.5 463 L 330.5 462 L 330.5 464 L 324.5 466 L 318.5 466 Q 316.8 463.3 310.5 465 L 310.5 466 L 317 466.5 L 304.5 467 L 284 460.5 L 286 459.5 L 283.5 459 L 280.5 460 L 275 457.5 L 275.5 456 L 270 457 L 269.5 455 L 265.5 456 L 264.5 455 L 249.5 455 L 248.5 454 L 248 456 L 238.5 457 L 216.5 465 L 215 464.5 Q 215.6 467.3 209.5 466 L 208.5 467 L 196.5 467 L 183 463.5 L 183.5 462 L 180.5 463 L 178 461.5 L 178.5 460 L 175.5 461 L 171 459 L 170.5 457 L 168.5 457 L 167 457 Q 168.5 453.3 165.5 454 L 165.5 456 L 162 453.5 L 161.5 452 Q 160 454.5 158.5 451 L 144 440 L 143.5 437 L 142.5 438 L 134 429.5 L 134.5 428 L 129 423.5 L 130 421 Q 126.2 421.8 125 418.5 L 120 411.5 L 121 409.5 L 118 408.5 L 116 405.5 L 116.5 404 L 113 401.5 L 112 399.5 L 112.5 398 L 110 396.5 L 103 382.5 L 103.5 381 L 101 379.5 L 100 377.5 L 101 375 Q 98.3 376.1 99 373.5 L 94 363.5 L 86 340.5 Q 88.5 339 85 337.5 L 81 323.5 L 81.5 320 Q 78.5 320.9 80 316.5 L 78 306.5 Q 80.5 305 77 303.5 L 75 288.5 L 76 286.5 L 74 279.5 L 74 257.5 L 76 254.5 L 75 251.5 L 75 249.5 L 76 239.5 L 79 233.5 L 78 230.5 Q 81.5 229 79 227.5 Q 81.4 213.4 87.5 203 L 88.5 205 L 90 197 L 93 196.5 L 91 195.5 L 94 193.5 L 94 191.5 L 96.5 188 L 98 187.5 L 97 186.5 L 100.5 183 L 102 182.5 L 101 181.5 L 106.5 176 L 110 173.5 L 114.5 168 L 121.5 163 L 123 163.5 L 124.5 161 L 126.5 160 L 128.5 161 L 128.5 159 L 130 159.5 Q 129.3 157.3 131.5 158 Q 132.8 160.3 134 157.5 L 135.5 155 L 138.5 154 L 140 154.5 Q 139.3 152.3 141.5 153 L 143.5 152 L 145.5 153 L 145.5 151 L 148.5 150 L 151 151 Q 149.8 148 153.5 149 L 162.5 147 Q 164 149.5 165.5 146 Q 171.8 147.8 173.5 145 Z M 300 169 L 289 175 L 279 178 L 273 177 L 273 179 L 270 179 L 270 177 L 269 179 L 260 180 L 258 180 Q 249 182 246 178 L 244 179 L 243 177 L 242 179 L 234 177 Q 230 178 231 176 L 230 176 L 226 175 L 225 172 L 223 173 L 216 170 L 212 171 L 212 174 L 216 179 L 218 178 L 228 183 Q 231 182 230 185 L 233 185 L 236 187 L 236 185 L 238 186 L 240 186 Q 243 188 250 187 L 254 189 L 257 188 L 259 188 L 261 189 L 264 187 L 279 186 L 300 178 Q 304 177 303 172 L 300 169 Z M 222 409 L 221 415 L 223 414 L 222 416 L 227 418 L 231 424 L 232 422 L 233 425 L 236 425 Q 238 424 237 427 L 239 426 L 243 428 Q 246 427 245 430 L 247 429 Q 251 428 253 430 Q 257 431 259 429 Q 263 428 265 430 L 267 430 L 265 429 Q 273 427 279 422 L 278 424 L 280 424 Q 279 420 283 419 L 283 414 L 279 414 Q 272 419 263 421 Q 251 423 244 420 Q 234 417 228 410 L 222 409 Z M 257 453 L 257 454 L 264 454 L 257 453 Z "/>
    <path fill="#51cf66" d="M 345.5 46 L 377.5 46 Q 378.5 46 378 50.5 L 374 64.5 L 364 85.5 L 345.5 106 L 336.5 112 L 315.5 119 L 310.5 120 L 288.5 120 Q 287 117.5 281.5 119 L 279.5 117 L 278 117.5 L 293.5 101 L 312.5 88 L 330.5 80 L 334 76.5 Q 334.5 72.5 331.5 72 L 322.5 74 L 303.5 84 Q 287.8 93.8 275.5 107 L 274 103.5 Q 280.7 79.7 296.5 65 L 317.5 52 L 345.5 46 Z "/>
    <path fill="#ffa94d" d="M 237.5 46 L 244 50.5 L 252 66.5 L 260 93.5 L 261 105.5 L 263 109.5 L 263 118.5 L 264 119.5 L 264 148.5 L 261.5 152 Q 254.8 153.8 253 150.5 L 251 131.5 L 249 128.5 L 248 119.5 Q 245 116.5 245 110.5 L 235 88.5 L 222 69.5 Q 231.9 67.4 237 60.5 L 234.5 57 L 224.5 62 L 217 62 L 216 59.5 Q 222.9 48.9 237.5 46 Z "/>
    <path fill="#f783ac" d="M 368.5 153 L 373 154.5 L 371.5 155 L 368.5 154 L 368.5 153 Z "/>
    <path fill="#f783ac" d="M 223.5 172 L 227 173.5 L 225.5 174 L 223.5 172 Z "/>
    <path fill="#f783ac" d="M 409.5 179 L 412 182.5 L 409 180.5 L 409.5 179 Z "/>
    <path fill="#f783ac" d="M 436.5 290 L 437 294.5 L 436 294.5 L 436.5 290 Z "/>
    <path fill="#f783ac" d="M 425.5 342 L 426 344.5 L 422.5 352 L 422 350.5 L 425.5 342 Z "/>
    <path fill="#f783ac" d="M 418.5 361 L 419 362.5 L 417.5 365 L 417 363.5 L 418.5 361 Z "/>
    <path fill="#f783ac" d="M 119.5 407 L 123 412.5 L 120 410.5 L 119.5 407 Z "/>
    <path fill="#f783ac" d="M 274.5 414 L 273.5 416 L 271.5 417 L 272.5 415 L 274.5 414 Z "/>
    <path fill="#f783ac" d="M 279.5 422 L 280 424 L 277.5 425 L 279.5 422 Z "/>
    <path fill="#f783ac" d="M 134.5 428 L 138 430.5 L 136.5 431 L 134.5 428 Z "/>
    <path fill="#f783ac" d="M 147.5 440 L 152 443.5 L 150.5 444 L 147.5 440 Z "/>
    <path fill="#f783ac" d="M 256.5 453 L 264 453.5 L 256.5 454 L 256.5 453 Z "/>
    <path fill="#f783ac" d="M 346.5 454 L 348 454.5 L 341.5 458 L 342.5 456 L 346.5 454 Z "/>
    <path fill="#f783ac" d="M 281.5 458 L 288 460.5 L 286.5 461 L 281.5 459 L 281.5 458 Z "/>
    <path fill="#f783ac" d="M 180.5 460 L 184 462.5 L 182.5 463 L 180 462 L 180.5 460 Z "/>
    <path fill="#f783ac" d="M 332.5 461 L 334 461.5 L 330.5 463 L 330.5 462 L 332.5 461 Z "/>
    <path fill="#f783ac" d="M 292.5 462 L 296 463.5 L 294.5 463 Q 291.5 463.5 292.5 462 Z "/>
    <path fill="#f783ac" d="M 310.5 465 L 318 465.5 L 310.5 466 L 310.5 465 Z "/>
  </g>
  <g id="line">
    <path fill="#1a1a1a" d="M 349.5 36 L 377.5 36 L 382.5 37 L 387 41.5 L 388 48.5 Q 379.9 90.4 352.5 113 L 338.5 122 L 321.5 128 L 305.5 129 L 304.5 130 L 292.5 130 L 291.5 129 L 281.5 129 L 274 127 L 274 148.5 L 276.5 149 L 310.5 138 L 324.5 137 L 325.5 136 L 343.5 136 L 368.5 141 L 383.5 147 Q 400.4 155.1 413 167.5 Q 412.3 169.8 414.5 169 Q 433 188.5 442 217.5 L 448 247.5 L 449 275.5 L 448 276.5 L 447 298.5 L 441 328.5 L 435 348.5 L 425 374.5 L 412 400.5 L 399 420.5 Q 386.9 437.4 371.5 451 L 353.5 464 L 336.5 472 L 322.5 476 L 301.5 476 L 263.5 464 L 250.5 464 L 212.5 476 L 191.5 476 L 179.5 473 L 163.5 466 L 148.5 456 L 134 444 L 113 418.5 L 101 399.5 L 87 371.5 L 78 347.5 L 67 301.5 L 67 294.5 L 65 285.5 L 65 250.5 L 66 249.5 L 68 230.5 L 77 202.5 Q 87.1 178.6 105.5 163 L 122.5 151 L 148.5 140 L 170.5 136 L 187.5 136 L 214.5 141 L 242.5 150 Q 245.3 148.8 243 147.5 L 241 131.5 L 234 109.5 Q 223.5 85 207 66.5 L 207 56.5 L 216.5 45 L 231.5 37 L 243.5 37 L 252 44.5 L 264 70.5 L 268 88 Q 270.7 89.1 270 86.5 Q 278.5 65.5 295.5 53 Q 307.4 44.4 323.5 40 L 338.5 37 L 348.5 37 L 349.5 36 Z M 238 46 Q 223 49 216 60 L 218 62 L 225 62 L 235 57 L 237 61 L 233 65 L 222 70 L 235 89 L 245 111 L 252 138 L 253 151 L 255 152 Q 261 153 264 151 L 264 120 L 263 119 L 263 110 L 261 105 L 260 94 L 252 67 L 244 51 L 238 46 Z M 346 46 L 318 52 L 297 65 Q 279 80 274 107 L 304 84 L 323 74 L 332 72 Q 335 73 334 77 L 331 80 L 313 88 L 294 101 L 278 117 L 278 118 L 289 120 L 311 120 L 316 119 L 337 112 L 346 106 L 364 86 L 374 65 L 378 51 Q 378 46 378 46 L 346 46 Z M 174 145 L 173 146 L 155 148 L 143 152 Q 127 158 115 168 Q 95 183 85 208 L 81 219 L 76 240 L 75 257 L 74 258 L 74 280 L 75 281 L 75 292 L 78 305 L 78 311 L 87 345 L 94 364 L 113 402 Q 126 422 143 438 Q 145 437 144 440 L 164 455 L 186 465 L 197 467 L 215 466 L 239 457 L 249 455 L 265 455 L 275 457 L 296 465 L 305 467 L 317 467 L 318 466 L 329 465 L 352 454 L 365 444 Q 382 428 396 409 L 418 368 L 427 344 L 431 326 L 433 322 L 437 302 L 438 287 L 439 286 L 439 253 L 438 252 L 437 237 L 434 225 Q 427 198 412 181 Q 398 164 378 155 L 359 148 Q 352 149 350 146 L 342 146 L 341 145 L 326 145 L 310 148 L 281 158 L 268 161 L 248 161 Q 246 159 242 160 L 230 157 L 215 151 L 195 146 L 174 145 Z "/>
    <path fill="#1a1a1a" d="M 214.5 170 L 234.5 178 L 247.5 179 L 248.5 180 L 264.5 180 L 265.5 179 L 278.5 178 L 288.5 175 L 298.5 170 L 301.5 170 Q 303.8 170.8 303 174.5 L 295.5 180 L 278.5 186 L 263.5 187 L 262.5 188 L 250.5 188 L 249.5 187 L 236.5 186 L 224.5 182 Q 216.5 179.5 212 173.5 Q 210.9 170.2 213.5 171 L 214.5 170 Z "/>
    <path fill="#1a1a1a" d="M 222 409 L 227.5 410 Q 233.9 416.6 243.5 420 Q 251 422.5 262.5 421 Q 272.1 419.1 278.5 414 L 283 414 Q 284.3 420.4 279.5 422 L 264.5 429 L 252.5 430 L 237.5 426 L 223 415.5 L 222 409 Z "/>
  </g>
</svg>
