<svg xmlns="http://www.w3.org/2000/svg" width="512" height="512" viewBox="0 0 512 512">
  <g id="color">
    <path fill="#ffffff" d="M 261.5 118 L 268 118.5 L 261.5 119 L 261.5 118 Z "/>
    <path fill="#ffffff" d="M 402.5 118 L 411 118.5 L 402.5 119 L 402.5 118 Z "/>
    <path fill="#ffffff" d="M 116.5 119 L 127 119.5 L 116.5 120 L 116.5 119 Z "/>
    <path fill="#ffffff" d="M 279.5 121 L 286 124.5 L 284.5 124 L 279.5 122 L 279.5 121 Z "/>
    <path fill="#ffffff" d="M 137.5 122 L 141 123.5 L 139.5 124 L 137.5 122 Z "/>
    <path fill="#ffffff" d="M 94.5 126 L 93.5 128 L 91.5 129 L 92.5 127 L 94.5 126 Z "/>
    <path fill="#ffffff" d="M 164.5 146 L 167 149.5 L 165 148.5 L 164.5 146 Z "/>
    <path fill="#ffffff" d="M 315.5 161 L 318 164.5 L 316 163.5 L 315.5 161 Z "/>
    <path fill="#ffffff" d="M 461.5 164 L 464 168.5 L 463 168.5 L 461.5 164 Z "/>
    <path fill="#ffffff" d="M 323.5 171 L 327 173.5 L 325.5 174 L 323.5 171 Z "/>
    <path fill="#ffffff" d="M 50.5 176 L 50 177.5 L 48.5 180 L 49 178.5 L 50.5 176 Z "/>
    <path fill="#ffffff" d="M 467.5 176 L 469 179.5 L 468 179.5 L 467.5 176 Z "/>
    <path fill="#ffffff" d="M 47.5 181 L 48 182.5 L 44.5 189 L 44 187.5 L 47.5 181 Z "/>
    <path fill="#ffffff" d="M 401.5 182 Q 409.8 180.7 412 185.5 L 409.5 184 L 401.5 183 L 399.5 184 L 399.5 183 L 401.5 182 Z "/>
    <path fill="#ffffff" d="M 471.5 187 L 473 191.5 L 472 191.5 L 471.5 187 Z "/>
    <path fill="#ffffff" d="M 134.5 198 L 137 201.5 L 135 200.5 L 134.5 198 Z "/>
    <path fill="#ffffff" d="M 280.5 203 L 283 206.5 L 281 205.5 L 280.5 203 Z "/>
    <path fill="#ffffff" d="M 139.5 207 L 142 210.5 L 140 209.5 L 139.5 207 Z "/>
    <path fill="#ffffff" d="M 476.5 207 L 477 217.5 L 476 217.5 L 476.5 207 Z "/>
    <path fill="#ffffff" d="M 91.5 210 L 91 211.5 L 89.5 214 L 90 212.5 L 91.5 210 Z "/>
    <path fill="#ffffff" d="M 284.5 210 L 287 213.5 L 285 212.5 L 284.5 210 Z "/>
    <path fill="#ffffff" d="M 411.5 211 L 418 218.5 L 416 217.5 L 411.5 211 Z "/>
    <path fill="#ffffff" d="M 36.5 213 L 37 220.5 L 36 220.5 L 36.5 213 Z "/>
    <path fill="#ffffff" d="M 144.5 215 L 148 219.5 L 145 217.5 L 144.5 215 Z "/>
    <path fill="#ffffff" d="M 87.5 217 L 87 218.5 L 85.5 221 L 86 219.5 L 87.5 217 Z "/>
    <path fill="#ffffff" d="M 419.5 224 L 420 230.5 L 419 230.5 L 419.5 224 Z "/>
    <path fill="#ffffff" d="M 378.5 227 L 379 228.5 L 376.5 233 L 376 231.5 L 378.5 227 Z "/>
    <path fill="#ffffff" d="M 39.5 230 L 46 237.5 L 40 232.5 L 39.5 230 Z "/>
    <path fill="#ffffff" d="M 466.5 235 L 465.5 237 L 462.5 238 L 462.5 237 L 466.5 235 Z "/>
    <path fill="#ffffff" d="M 210.5 236 L 208.5 239 L 206.5 240 L 207.5 238 L 210.5 236 Z "/>
    <path fill="#ffffff" d="M 453.5 238 L 461 238.5 L 453.5 239 L 453.5 238 Z "/>
    <path fill="#ffffff" d="M 171.5 241 L 175 242.5 L 173.5 243 L 171.5 241 Z "/>
    <path fill="#ffffff" d="M 55.5 242 L 63 242.5 L 55.5 243 L 55.5 242 Z "/>
    <path fill="#ffffff" d="M 313.5 242 L 318 243.5 L 315.5 244 L 313.5 242 Z "/>
    <path fill="#ffffff" d="M 407.5 246 L 406.5 248 L 403.5 249 L 403.5 248 L 407.5 246 Z "/>
    <path fill="#ffffff" d="M 373.5 253 L 386 253.5 L 373.5 254 L 373.5 253 Z "/>
    <path fill="#ffffff" d="M 226.5 257 L 227 259.5 L 225.5 262 L 225 260.5 L 226.5 257 Z "/>
    <path fill="#ffffff" d="M 222.5 270 L 223 271.5 L 221.5 274 L 221 272.5 L 222.5 270 Z "/>
    <path fill="#ffffff" d="M 104.5 272 L 106 272.5 L 102.5 274 L 102.5 273 L 104.5 272 Z "/>
    <path fill="#ffffff" d="M 246.5 272 L 248 272.5 L 243.5 275 L 244.5 273 L 246.5 272 Z "/>
    <path fill="#ffffff" d="M 138.5 273 L 142 274.5 L 140.5 275 L 138.5 273 Z "/>
    <path fill="#ffffff" d="M 95.5 276 L 94.5 278 L 89.5 281 L 90.5 279 L 95.5 276 Z "/>
    <path fill="#ffffff" d="M 174.5 276 L 175 283.5 L 174 283.5 L 174.5 276 Z "/>
    <path fill="#ffffff" d="M 164.5 297 L 167 300.5 L 165 299.5 L 164.5 297 Z "/>
    <path fill="#ffffff" d="M 62.5 307 L 62 308.5 L 59.5 312 L 61 309.5 L 62.5 307 Z "/>
    <path fill="#ffffff" d="M 460.5 313 L 464 318.5 L 462 317.5 L 460.5 313 Z "/>
    <path fill="#ffffff" d="M 56.5 316 L 56 317.5 L 54.5 320 L 55 318.5 L 56.5 316 Z "/>
    <path fill="#ffffff" d="M 319.5 318 L 327 324.5 L 325.5 325 L 319.5 318 Z "/>
    <path fill="#ffffff" d="M 51.5 325 L 51 326.5 L 49.5 329 L 50 327.5 L 51.5 325 Z "/>
    <path fill="#ffffff" d="M 467.5 327 L 469 330.5 L 468 330.5 L 467.5 327 Z "/>
    <path fill="#ffffff" d="M 401.5 333 Q 408.8 331.8 411 335.5 L 409.5 335 L 401.5 334 L 401.5 333 Z "/>
    <path fill="#ffffff" d="M 115.5 335 L 122 335.5 L 115.5 336 L 115.5 335 Z "/>
    <path fill="#ffffff" d="M 259.5 335 L 264 335.5 L 259.5 336 L 259.5 335 Z "/>
    <path fill="#ffffff" d="M 111.5 337 L 110.5 339 L 106.5 342 L 109.5 338 L 111.5 337 Z "/>
    <path fill="#ffffff" d="M 41.5 345 L 42 346.5 L 39.5 352 L 39 350.5 L 41.5 345 Z "/>
    <path fill="#ffffff" d="M 134.5 349 L 137 352.5 L 135 351.5 L 134.5 349 Z "/>
    <path fill="#ffffff" d="M 280.5 354 L 283 357.5 L 281 356.5 L 280.5 354 Z "/>
    <path fill="#ffffff" d="M 238.5 356 L 237 358.5 L 234.5 362 L 236 359.5 L 238.5 356 Z "/>
    <path fill="#ffffff" d="M 476.5 357 L 477 369.5 L 476 369.5 L 476.5 357 Z "/>
    <path fill="#ffffff" d="M 139.5 358 L 142 361.5 L 140 360.5 L 139.5 358 Z "/>
    <path fill="#ffffff" d="M 284.5 361 L 287 364.5 L 285 363.5 L 284.5 361 Z "/>
    <path fill="#ffffff" d="M 36.5 363 L 37 371.5 L 36 371.5 L 36.5 363 Z "/>
    <path fill="#ffffff" d="M 430.5 368 L 434 372.5 L 431 370.5 L 430.5 368 Z "/>
    <path fill="#ffffff" d="M 38.5 378 L 42 383.5 L 39 381.5 L 38.5 378 Z "/>
    <path fill="#ffffff" d="M 350.5 386 L 348.5 389 L 346.5 390 L 347.5 388 L 350.5 386 Z "/>
    <path fill="#ffffff" d="M 448.5 387 L 453 388.5 L 450.5 389 L 448.5 387 Z "/>
    <path fill="#ffffff" d="M 464.5 387 L 463.5 389 L 461 388.5 L 464.5 387 Z "/>
    <path fill="#ffffff" d="M 454.5 389 L 460 389.5 L 454.5 390 L 454.5 389 Z "/>
    <path fill="#ffffff" d="M 339.5 392 L 341 392.5 L 337.5 394 L 337.5 393 L 339.5 392 Z "/>
    <path fill="#ffffff" d="M 57.5 393 L 63 393.5 L 57.5 394 L 57.5 393 Z "/>
    <path fill="#ffffff" d="M 198.5 393 L 200 393.5 L 195.5 395 L 195.5 394 L 198.5 393 Z "/>
    <path fill="#ffffff" d="M 320.5 395 L 331 395.5 L 320.5 396 L 320.5 395 Z "/>
    <path fill="#4da3ff" d="M 264.5 130 Q 282.6 132.4 291 144.5 L 307 171.5 L 317.5 183 Q 322.7 187.8 334.5 186 L 344.5 182 L 360 167.5 Q 369.6 152.1 382.5 140 Q 391.3 131.3 407.5 130 L 418.5 133 L 430 140 L 433.5 145 L 436 146.5 Q 447.9 161.1 456 179.5 L 464 203.5 L 465 216.5 L 460.5 226 L 456.5 227 Q 449.3 225.2 446 219.5 L 439 208.5 L 428 185.5 L 418.5 175 Q 413 169.5 401.5 170 Q 385.5 174.5 377 186.5 L 359 211.5 L 347.5 223 L 344.5 225 Q 337.7 232.7 323.5 233 L 314.5 230 L 304 219.5 L 286 188.5 L 275.5 177 L 269.5 173 L 258.5 172 L 252.5 174 L 241 182 L 217 214.5 L 204.5 227 L 194.5 232 L 183.5 233 L 176.5 231 L 167 225 L 165.5 222 L 162 219.5 Q 150.7 205.8 143 188.5 L 132.5 177 Q 127.3 171.7 116.5 172 L 105.5 176 L 96 183 L 96 185 Q 93.3 183.9 94 186.5 L 85 197.5 L 70 223.5 L 63.5 230 L 57.5 231 L 51 226.5 L 49 223.5 L 48 214.5 Q 51.8 197.8 59 184.5 L 72 163.5 L 84.5 149 Q 86.8 149.8 86 147.5 Q 94.3 138.8 106.5 134 L 117.5 131 L 123.5 131 L 135.5 134 L 149 144.5 L 159 159.5 L 166 173.5 L 176.5 184 Q 180.8 189.2 191.5 188 Q 206.6 183.1 215 171.5 Q 226.6 152.6 242.5 138 L 251.5 133 L 264.5 130 Z "/>
    <path fill="#4da3ff" d="M 259.5 281 Q 269.8 279.8 275.5 283 Q 285.6 286.9 291 295.5 L 307 322.5 L 314.5 331 Q 319.6 338.9 334.5 337 Q 348.9 332.4 357 321.5 L 371 302.5 L 384.5 289 L 394.5 283 L 401.5 281 L 408.5 281 L 421.5 285 L 436 297.5 Q 448.5 313 457 332.5 L 464 353.5 L 465 366.5 L 463 373.5 L 459.5 377 L 454.5 377 L 446 370.5 L 439 359.5 L 428 336.5 L 418.5 326 L 408.5 321 L 400.5 321 Q 385.8 325.3 378 336.5 L 362 358.5 L 345.5 376 Q 338.1 382.1 326.5 384 Q 325 381.5 319.5 383 L 313.5 380 L 304 370.5 L 286 339.5 L 275.5 328 L 269.5 324 L 257.5 323 Q 247.3 326.3 241 333.5 L 237.5 338 Q 235.3 337.3 236 339.5 L 216 366.5 L 206.5 376 Q 199.4 382.9 186.5 384 L 173.5 380 L 162 370.5 Q 149.8 355.2 141 336.5 L 131.5 327 L 122.5 323 L 113.5 323 Q 101.5 327.5 94 336.5 L 86 346.5 L 70 374.5 L 64.5 380 L 56.5 381 L 51 377.5 L 48 368.5 L 49 366.5 L 49 364.5 L 52 350.5 L 62 329.5 L 73 312.5 L 89.5 295 L 107.5 284 L 115.5 282 L 126.5 282 Q 137.9 284.6 145 291.5 Q 144.3 293.8 146.5 293 L 154 302.5 L 166 324.5 L 176.5 335 L 181.5 338 L 189.5 339 Q 208.2 333.2 218 318.5 L 222 311.5 L 238.5 292 L 241.5 290 Q 248.2 283.2 259.5 281 Z "/>
    <path fill="#66d9e8" d="M 262.5 129 L 272.5 130 L 279.5 133 L 293 145.5 L 310 173.5 L 318.5 182 Q 323.3 186.7 334.5 185 L 345.5 180 L 360 165.5 L 379.5 141 L 394.5 131 L 402.5 129 L 409.5 129 L 421.5 133 L 439 148.5 Q 450.5 163 458 181.5 L 464 197.5 L 465 207.5 L 464 207.5 L 463 199.5 L 456 179.5 Q 447.5 160 434.5 145 L 430 141.5 Q 430.8 139.3 428.5 140 Q 420.3 130.7 403.5 130 Q 385.4 133.9 376 146.5 L 360 167.5 L 348.5 179 L 334.5 186 L 323.5 186 Q 315.4 183.1 311 176.5 L 294 148.5 L 284.5 138 Q 277.4 131.1 264.5 130 Q 263 132.5 257.5 131 L 245.5 136 L 232 148.5 L 215 171.5 L 206.5 180 L 195.5 187 L 184.5 188 Q 172.5 183.5 166 173.5 L 159 159.5 L 144.5 140 L 135.5 134 L 129.5 132 L 117.5 131 Q 97.6 135.1 86 147.5 Q 86.8 149.8 84.5 149 L 72 163.5 L 59 184.5 L 50 206.5 L 48 219.5 Q 48.9 226.1 53.5 229 Q 55.8 231.7 61.5 231 L 70 223.5 Q 80.6 202.2 94 185 L 96 185 Q 94.9 182.3 97.5 183 Q 102.9 176.4 111.5 173 L 121.5 172 Q 133.7 175.3 140 184.5 L 152 205.5 L 164.5 222 L 167 223.5 Q 166.3 225.8 168.5 225 Q 174.9 233.6 190.5 233 Q 208.2 228.3 217 214.5 L 241 182 L 254.5 173 L 265.5 172 Q 276.8 175.8 283 184.5 L 304 219.5 L 314.5 230 L 323.5 233 L 328.5 233 Q 339.3 230.7 346 225 Q 344.9 222.3 347.5 223 L 359 211.5 L 377 186.5 L 385.5 178 Q 392.5 170 407.5 170 Q 419.1 172.9 425 181.5 L 432 192.5 L 443 215.5 L 451.5 225 L 457.5 227 L 462 224.5 Q 465.7 218.7 465.5 209 L 466 217.5 Q 465.1 224.1 460.5 227 L 455.5 228 Q 447.3 224.7 443 217.5 L 427 186.5 L 416.5 175 Q 411.5 171 402.5 171 L 391.5 175 L 377 188.5 L 359 213.5 L 348.5 224 L 336.5 232 Q 331.1 235.1 321.5 234 Q 310.6 230.9 305 222.5 L 288 193.5 L 277.5 180 L 267.5 174 L 256.5 174 Q 245.5 178 239 186.5 L 221 211.5 L 208.5 225 L 195.5 233 Q 190.4 235.4 181.5 234 Q 166.6 229.4 159 217.5 Q 149.4 205.6 143 190.5 L 133.5 179 L 124.5 174 L 113.5 174 Q 100.8 178.8 93 188.5 Q 81.2 203.2 73 221.5 L 65.5 230 Q 63.2 232.7 57.5 232 Q 51.4 230.6 49 225.5 Q 46.1 221.9 47 214.5 L 50 201.5 L 61 178.5 L 75 157.5 L 90.5 142 Q 102.5 130 126.5 130 Q 143.5 134 152 146.5 L 165 169.5 L 175.5 182 Q 180.5 188 193.5 186 Q 207.4 180.9 215 169.5 Q 226 152 240.5 138 L 250.5 132 L 262.5 129 Z "/>
    <path fill="#66d9e8" d="M 397.5 216 Q 408.3 214.2 411 220.5 Q 413.7 223.8 413 230.5 Q 411.4 237.4 405.5 240 Q 396 247.2 379 246 L 386 227.5 L 395.5 217 L 397.5 216 Z "/>
    <path fill="#66d9e8" d="M 214.5 259 Q 219.8 257.3 218 262.5 L 211 279.5 L 200.5 291 L 189.5 292 L 183 286.5 L 182 275.5 L 187.5 268 L 196.5 263 L 214.5 259 Z "/>
    <path fill="#66d9e8" d="M 258.5 280 Q 270 278.5 276.5 282 L 290 292.5 L 310 324.5 L 317.5 332 L 324.5 336 L 333.5 336 Q 349.3 330.8 358 318.5 L 380.5 291 L 393.5 282 L 400.5 280 L 410.5 280 Q 425.4 283.6 434 293.5 L 445 307.5 L 458 331.5 L 465 352.5 L 466 367.5 L 464 374.5 L 460.5 378 L 456.5 379 Q 447.9 376.6 444 369.5 L 429 340.5 L 416.5 326 L 407.5 322 L 401.5 322 Q 390.9 325.2 384 331 L 362 360.5 L 348.5 375 L 335.5 383 Q 330.5 386 321.5 385 Q 310.9 381.6 305 373.5 Q 294.8 360.7 288 344.5 L 277.5 331 L 267.5 325 L 255.5 325 Q 244.2 330.2 237 339.5 Q 224.9 358.9 209.5 375 L 194.5 384 L 182.5 385 Q 167.4 380.1 159 368.5 L 150 355.5 L 141 338.5 L 132.5 329 Q 126.5 323 112.5 325 Q 99.6 330.1 92 340.5 L 86 348.5 L 72 373.5 L 65.5 381 Q 62.3 383.3 55.5 382 L 49 376.5 L 47 370.5 L 47 364.5 L 50 352.5 L 59 332.5 Q 69.6 312.1 85.5 297 Q 94.4 288.4 106.5 283 Q 114.4 279.4 127.5 281 Q 143.8 285.2 152 297.5 L 169 327 Q 171.7 325.9 171 328.5 L 180.5 336 L 192.5 337 Q 206 332 214 321.5 Q 225.8 301.8 242.5 287 Q 248.9 281.9 258.5 280 Z M 260 281 Q 248 283 242 290 L 239 292 L 222 312 L 218 319 Q 208 333 190 339 L 182 338 L 177 335 L 166 325 L 154 303 L 147 293 Q 144 294 145 292 Q 138 285 127 282 L 116 282 L 108 284 L 90 295 L 73 313 L 62 330 L 52 351 L 49 365 L 49 367 L 48 369 L 51 378 L 57 381 L 65 380 L 70 375 L 86 347 L 94 337 Q 101 327 114 323 L 123 323 L 132 327 L 141 337 Q 150 355 162 371 L 174 380 L 187 384 Q 199 383 207 376 L 216 367 L 236 340 Q 235 337 238 338 L 241 334 Q 247 326 258 323 L 270 324 L 276 328 L 286 340 L 304 371 L 314 380 L 320 383 Q 325 382 327 384 Q 338 382 346 376 L 362 359 L 378 337 Q 386 325 401 321 L 409 321 L 419 326 L 428 337 L 439 360 L 446 371 L 455 377 L 460 377 L 463 374 L 465 367 L 464 354 L 457 333 Q 449 313 436 298 L 422 285 L 409 281 L 402 281 L 395 283 L 385 289 L 371 303 L 357 322 Q 349 332 335 337 Q 320 339 315 331 L 307 323 L 291 296 Q 286 287 276 283 Q 270 280 260 281 Z "/>
  </g>
  <g id="line">
    <path fill="#1a1a1a" d="M 258.5 119 Q 270.9 117.6 278.5 121 Q 289.1 124.9 296 132.5 Q 309 147.5 318 166.5 L 325.5 174 L 330.5 175 L 339.5 171 L 352 158.5 L 370 135 L 381.5 126 L 391.5 121 L 399.5 119 L 412.5 119 Q 434.7 124.3 446 140.5 L 458 157.5 L 470 182.5 L 476 204.5 L 476 220.5 Q 474.2 230.2 467.5 235 Q 463 239.5 452.5 238 Q 441.2 233.8 435 224.5 L 420 195.5 L 409.5 183 L 401.5 182 Q 390.8 186.3 385 195.5 L 366 221.5 L 355.5 232 L 342.5 241 L 333.5 244 L 322.5 245 L 308.5 240 L 298 230.5 Q 286.8 216.7 279 199.5 L 269.5 187 L 261.5 184 Q 251.3 186.8 246 194.5 L 229 218.5 L 216.5 232 L 201.5 242 L 190.5 245 L 183.5 245 L 168.5 240 L 150 223.5 Q 140 210.5 133 194.5 L 126.5 187 Q 123.5 184 117.5 184 Q 105.9 187.4 100 196.5 Q 90 209.5 83 225.5 L 73.5 237 Q 68.3 243.8 54.5 242 Q 45.8 239.2 41 232.5 Q 35 225.5 37 210.5 Q 50.3 162.3 83.5 134 Q 93.7 125.2 108.5 121 Q 116.8 118.3 129.5 120 Q 149.1 124.4 159 138.5 L 174 163.5 L 182.5 174 L 189.5 176 L 196.5 173 L 207 162.5 L 223 140.5 L 231.5 132 L 249.5 121 L 258.5 119 Z M 263 129 L 251 132 L 241 138 Q 226 152 215 170 Q 207 181 194 186 Q 181 188 176 182 L 165 170 L 152 147 Q 143 134 127 130 Q 103 130 91 142 L 75 158 L 61 179 L 50 202 L 47 215 Q 46 222 49 226 Q 51 231 58 232 Q 63 233 66 230 L 73 222 Q 81 203 93 189 Q 101 179 114 174 L 125 174 L 134 179 L 143 191 Q 149 206 159 218 Q 167 229 182 234 Q 190 235 196 233 L 209 225 L 221 212 L 239 187 Q 246 178 257 174 L 268 174 L 278 180 L 288 194 L 305 223 Q 311 231 322 234 Q 331 235 337 232 L 349 224 L 359 214 L 377 189 L 392 175 L 403 171 Q 412 171 417 175 L 427 187 L 443 218 Q 447 225 456 228 L 461 227 Q 465 224 466 218 L 465 203 L 460 187 Q 452 165 439 149 L 422 133 L 410 129 L 403 129 L 395 131 L 380 141 L 360 166 L 346 180 L 335 185 Q 323 187 319 182 L 310 174 L 293 146 L 280 133 L 273 130 L 263 129 Z "/>
    <path fill="#1a1a1a" d="M 398.5 209 Q 411.9 208.1 416 216.5 Q 420.8 221.7 419 233.5 L 410.5 245 Q 396.8 254.3 372.5 253 Q 369.8 251.8 371 246.5 L 380 224.5 L 389.5 213 L 398.5 209 Z M 398 216 L 396 217 L 386 228 L 379 246 Q 396 247 406 240 Q 411 237 413 231 Q 414 224 411 221 Q 408 214 398 216 Z "/>
    <path fill="#1a1a1a" d="M 217.5 251 Q 224.2 249.2 226 252.5 L 227 256.5 L 223 269.5 L 216 284.5 L 205.5 296 L 193.5 300 L 183.5 297 L 178 291.5 Q 173.2 286.3 175 274.5 Q 177.4 265.4 184.5 261 L 198.5 255 L 212.5 253 L 217.5 251 Z M 215 259 L 197 263 L 188 268 L 182 276 L 183 287 L 190 292 L 201 291 L 211 280 L 218 263 Q 220 257 215 259 Z "/>
    <path fill="#1a1a1a" d="M 260.5 269 Q 273.8 268.7 282.5 273 L 299 286.5 L 319 318.5 L 325.5 325 Q 333.8 326.3 337.5 323 L 349 312.5 Q 360.4 294.9 375.5 281 L 392.5 271 L 408.5 269 Q 410 271.5 415.5 270 L 429.5 276 L 447 292.5 Q 461.2 310.3 470 333.5 L 476 355.5 L 476 371.5 Q 474.2 381.2 467.5 386 Q 463 390.1 453.5 389 Q 441.2 385.3 435 375.5 L 419 344.5 L 409.5 334 L 401.5 333 Q 390.1 337.6 384 347.5 Q 372.4 366.9 356.5 382 Q 348.3 389.8 336.5 394 Q 329.4 396.4 318.5 395 Q 305.5 391 298 381.5 L 270 338 L 263.5 335 L 259.5 335 Q 250.1 338.6 245 346.5 L 219 381 L 205.5 391 L 194.5 395 L 185.5 396 Q 161.4 391.6 150 374.5 Q 140 361.5 133 345.5 L 126.5 338 Q 123.6 333.9 115.5 335 Q 104.8 339.3 99 348.5 L 82 377.5 L 70.5 390 Q 65.7 394.2 55.5 393 Q 46.4 391.1 42 384.5 Q 34.8 377.7 37 361.5 Q 49.1 318.6 76.5 291 L 96.5 276 L 110.5 271 L 126.5 270 Q 148.8 273.7 159 289.5 L 175 316.5 L 181.5 324 Q 184.4 327.6 192.5 326 L 205 315.5 L 222 292.5 L 234.5 280 L 250.5 271 L 260.5 269 Z M 259 280 Q 249 282 243 287 Q 226 302 214 322 Q 206 332 193 337 L 181 336 L 171 329 Q 172 326 169 327 L 152 298 Q 144 285 128 281 Q 114 279 107 283 Q 94 288 86 297 Q 70 312 59 333 L 50 353 L 47 365 L 47 371 L 49 377 L 56 382 Q 62 383 66 381 L 72 374 L 86 349 L 92 341 Q 100 330 113 325 Q 127 323 133 329 L 141 339 L 150 356 L 159 369 Q 167 380 183 385 L 195 384 L 210 375 Q 225 359 237 340 Q 244 330 256 325 L 268 325 L 278 331 L 288 345 Q 295 361 305 374 Q 311 382 322 385 Q 331 386 336 383 L 349 375 L 362 361 L 384 331 Q 391 325 402 322 L 408 322 L 417 326 L 429 341 L 444 370 Q 448 377 457 379 L 461 378 L 464 375 L 466 368 L 465 353 L 458 332 L 445 308 L 434 294 Q 425 284 411 280 L 401 280 L 394 282 L 381 291 L 358 319 Q 349 331 334 336 L 325 336 L 318 332 L 310 325 L 290 293 L 277 282 Q 270 279 259 280 Z "/>
  </g>
</svg>
