<svg xmlns="http://www.w3.org/2000/svg" width="512" height="512" viewBox="0 0 512 512">
  <g id="color">
    <path fill="#ffffff" d="M 305.5 37 L 360 37.5 L 305.5 38 L 305.5 37 Z "/>
    <path fill="#ffffff" d="M 123.5 44 L 157 44.5 L 123.5 45 L 123.5 44 Z "/>
    <path fill="#ffffff" d="M 366.5 44 L 367 50.5 L 366 50.5 L 366.5 44 Z "/>
    <path fill="#ffffff" d="M 110.5 45 L 114 45.5 Q 108.6 45.6 106.5 49 L 108.5 46 L 110.5 45 Z "/>
    <path fill="#ffffff" d="M 160.5 45 Q 166.1 45.5 168 49.5 L 167.5 51 L 164.5 47 L 160.5 46 L 160.5 45 Z "/>
    <path fill="#ffffff" d="M 314.5 45 L 351.5 45 Q 352.8 47.3 357.5 46 L 359 47.5 L 359 81.5 L 358 82.5 L 358 107 Q 355.3 108.9 348.5 108 L 343.5 102 L 339.5 100 L 325.5 100 L 320.5 101 L 316 104.5 L 313.5 108 L 305 107 L 304 78.5 L 303 77.5 L 303 47.5 L 304.5 46 L 313.5 46 L 314.5 45 Z "/>
    <path fill="#ffffff" d="M 294.5 48 L 295 54.5 L 293.5 56 L 230.5 56 L 230.5 55 L 293.5 55 L 294 54.5 L 294.5 48 Z "/>
    <path fill="#ffffff" d="M 104.5 52 L 105 56.5 L 104 56.5 L 104.5 52 Z "/>
    <path fill="#ffffff" d="M 168.5 52 L 169 56 L 204 56.5 L 169.5 57 Q 166.8 55.8 168.5 52 Z "/>
    <path fill="#ffffff" d="M 367.5 54 L 368.5 55 L 389 55.5 L 367 56 L 367.5 54 Z "/>
    <path fill="#ffffff" d="M 405.5 56 L 417 56.5 L 405.5 57 L 405.5 56 Z "/>
    <path fill="#ffffff" d="M 88.5 57 L 92 57.5 L 86.5 59 L 86.5 58 L 88.5 57 Z "/>
    <path fill="#ffffff" d="M 425.5 58 L 430 60.5 L 428.5 60 Q 424.7 59.8 425.5 58 Z "/>
    <path fill="#ffffff" d="M 432.5 63 L 435 66.5 L 434 66.5 L 432.5 63 Z "/>
    <path fill="#ffffff" d="M 75.5 72 L 76 77.5 L 75 77.5 L 75.5 72 Z "/>
    <path fill="#ffffff" d="M 436.5 72 L 437 79.5 L 436 79.5 L 436.5 72 Z "/>
    <path fill="#ffffff" d="M 74.5 81 L 75 102.5 L 74 102.5 L 74.5 81 Z "/>
    <path fill="#ffffff" d="M 437.5 83 L 438 222.5 L 437 222.5 L 437.5 83 Z "/>
    <path fill="#ffffff" d="M 73.5 113 L 74 223.5 L 73 223.5 L 73.5 113 Z "/>
    <path fill="#ffffff" d="M 316.5 156 Q 328.6 154.4 334 159.5 L 338 173.5 L 336 182.5 L 330.5 189 L 323.5 191 L 313.5 191 L 308.5 190 L 303 184.5 Q 299.8 178.8 301 168.5 Q 301.9 161.9 306.5 159 L 316.5 156 Z M 315 161 L 312 163 L 306 173 Q 306 179 309 182 L 316 186 Q 323 187 327 184 Q 331 181 332 175 L 330 167 Q 327 159 315 161 Z "/>
    <path fill="#ffffff" d="M 438.5 250 L 439 346.5 L 438 346.5 L 438.5 250 Z "/>
    <path fill="#ffffff" d="M 74.5 269 L 75 439.5 L 74 439.5 L 74.5 269 Z "/>
    <path fill="#ffffff" d="M 437.5 367 L 438 445.5 L 437 445.5 L 437.5 367 Z "/>
    <path fill="#ffffff" d="M 75.5 442 L 76 447.5 L 75 447.5 L 75.5 442 Z "/>
    <path fill="#ffffff" d="M 434.5 454 L 430.5 459 L 427.5 460 L 427.5 459 L 434.5 454 Z "/>
    <path fill="#ffffff" d="M 78.5 455 L 85 459.5 L 83.5 460 L 78.5 455 Z "/>
    <path fill="#ffffff" d="M 86.5 460 L 96 460.5 L 86.5 461 L 86.5 460 Z "/>
    <path fill="#ffffff" d="M 351.5 461 L 419 461.5 L 351.5 462 L 351.5 461 Z "/>
    <path fill="#ffffff" d="M 115.5 473 L 120.5 475 L 140 475.5 L 120.5 476 L 115.5 474 L 115.5 473 Z "/>
    <path fill="#ffffff" d="M 309.5 475 L 331 475.5 L 309.5 476 L 309.5 475 Z "/>
    <path fill="#ffffff" d="M 164.5 476 L 202 476.5 L 164.5 477 L 164.5 476 Z "/>
    <path fill="#ffffff" d="M 203.5 476 L 210 476.5 L 203.5 477 L 203.5 476 Z "/>
    <path fill="#ffffff" d="M 244.5 476 L 291 476.5 L 244.5 477 L 244.5 476 Z "/>
    <path fill="#ffd43b" d="M 381.5 168 L 415.5 168 L 416.5 169 L 429 169 Q 430.6 171.1 430 176.5 L 429 177.5 L 429 186.5 L 430 187.5 L 430 281.5 L 431 283.5 L 430 288.5 L 431 289.5 L 431 326.5 L 430 327.5 L 430 433.5 L 428.5 435 L 419.5 435 L 418.5 436 L 387.5 436 L 386.5 435 L 377.5 435 L 374 431.5 L 374 416.5 L 373 415.5 L 373 354.5 L 372 353.5 L 372 201.5 L 373 200.5 L 373 177.5 L 375 170 L 381.5 168 Z "/>
    <path fill="#ffd43b" d="M 98.5 224 L 129.5 224 L 134.5 225 L 138 228.5 L 139 231.5 L 139 247.5 L 140 248.5 L 140 373.5 L 139 374.5 L 139 421.5 L 137 434 L 125.5 436 L 92.5 436 L 91.5 435 L 83 435 L 82 432.5 L 82 374.5 L 83 373.5 L 83 303.5 L 82 302.5 L 82 226.5 L 83.5 225 L 97.5 225 L 98.5 224 Z "/>
    <path fill="#ffd43b" d="M 195.5 298 L 196 302.5 L 195 302.5 L 195.5 298 Z "/>
    <path fill="#ffd43b" d="M 195.5 330 L 196 334.5 L 195 334.5 L 195.5 330 Z "/>
    <path fill="#ffd43b" d="M 255.5 366 L 256 371.5 L 255 371.5 L 255.5 366 Z "/>
    <path fill="#ffd43b" d="M 231.5 429 L 236 429.5 L 231.5 430 L 231.5 429 Z "/>
    <path fill="#51cf66" d="M 137.5 52 L 160 53 L 161 55.5 L 161 124.5 L 160 127 L 154.5 128 L 119.5 128 L 113 125.5 L 112 56.5 L 114.5 53 L 136.5 53 L 137.5 52 Z "/>
    <path fill="#51cf66" d="M 268.5 63 L 293.5 63 L 295 64.5 L 296 86.5 L 297 87.5 L 297 107.5 L 298 111.5 L 300.5 114 L 308.5 116 L 315.5 116 L 322 111.5 L 324.5 108 L 338.5 108 L 340 109.5 L 343.5 115 L 353.5 116 Q 355 113.5 360.5 115 L 365 111.5 L 366 107.5 L 366 74.5 L 367 73.5 L 367 64 L 420.5 65 L 426 67 L 429 75.5 L 430 129.5 L 429 130.5 L 429 161 L 411.5 161 L 410.5 160 L 382.5 160 L 373.5 162 L 369 165.5 L 367 169.5 L 366 180.5 L 365 181.5 L 364 323.5 L 365 324.5 L 366 428.5 L 368 436.5 L 372.5 441 L 378.5 443 L 390.5 443 L 391.5 444 L 413.5 444 L 414.5 443 L 429 443 Q 429.7 449.5 425.5 452 L 415.5 454 L 350.5 454 L 342.5 457 L 333.5 466 L 327.5 468 L 185.5 469 L 184.5 468 L 124.5 468 L 119.5 467 L 115 463.5 L 108.5 456 Q 101.6 450.9 87.5 453 L 85 450.5 L 84 443 L 96.5 443 L 97.5 444 L 121.5 444 L 122.5 443 L 133.5 443 L 143 438.5 L 146 429.5 L 146 408.5 L 147 407.5 L 148 254.5 L 147 253.5 L 147 233.5 L 145 225.5 L 141.5 220 L 134.5 217 L 112.5 216 L 111.5 217 L 87.5 217 L 82 218 L 81 143.5 L 82 142.5 L 83 74.5 L 87.5 67 Q 92.6 63.6 102.5 65 L 104 66.5 L 104 75.5 L 105 76.5 L 105 127.5 L 109.5 134 L 117.5 136 L 155.5 136 L 160.5 135 L 167 130.5 L 169 121.5 L 169 65 L 195.5 65 L 196.5 64 L 267.5 64 L 268.5 63 Z M 318 148 Q 316 151 311 149 L 302 153 Q 295 158 293 169 L 293 178 L 297 190 L 306 197 L 317 199 L 329 198 L 336 195 Q 343 190 345 180 L 345 168 L 339 153 L 330 149 L 318 148 Z M 206 225 L 193 228 Q 187 233 189 244 L 180 245 Q 177 246 178 250 L 182 252 Q 187 250 189 254 L 188 256 L 188 269 L 181 270 Q 178 271 178 275 Q 180 279 187 277 L 188 279 L 188 296 Q 186 299 181 297 Q 178 297 178 302 Q 180 305 187 304 L 188 306 L 188 323 Q 186 326 181 324 Q 178 325 178 329 Q 180 333 187 331 L 188 333 L 188 350 Q 186 353 181 351 Q 178 352 178 356 Q 180 359 187 358 L 188 360 L 188 377 Q 186 380 181 378 Q 178 379 178 383 Q 180 387 187 385 L 189 389 L 189 412 L 188 413 L 180 413 Q 177 414 178 418 L 181 420 L 189 420 L 190 432 L 197 436 L 207 436 L 208 437 L 245 437 L 246 436 L 258 435 Q 263 432 261 422 L 263 420 Q 269 421 272 419 L 273 417 L 272 415 Q 270 411 264 413 L 262 412 L 263 387 Q 264 384 271 385 L 273 382 L 272 380 Q 271 377 265 378 L 263 377 L 263 360 L 265 358 Q 270 359 272 357 L 273 355 L 272 353 Q 271 350 265 351 L 263 350 L 263 331 Q 269 332 272 330 L 273 327 Q 270 322 263 323 L 262 306 L 264 304 Q 269 306 271 303 L 272 303 L 272 298 Q 270 296 264 297 L 262 296 L 262 279 Q 264 275 271 277 L 273 274 L 272 272 Q 270 268 264 270 Q 260 264 261 254 Q 263 250 270 252 Q 273 251 272 247 Q 269 243 261 244 L 260 230 L 256 226 Q 249 228 248 225 L 237 225 L 235 226 L 232 229 L 231 234 L 228 237 L 222 236 Q 217 234 218 228 Q 215 223 206 225 Z "/>
    <path fill="#ffa94d" d="M 319.5 168 L 324 171.5 Q 325 177 321.5 178 L 319.5 179 L 314 175.5 Q 313 170 316.5 169 L 319.5 168 Z "/>
    <path fill="#ffa94d" d="M 200.5 233 L 209.5 233 L 212 235.5 L 215.5 241 Q 219.3 244.7 226.5 245 Q 233.9 243.9 237 238.5 L 240.5 233 Q 249.4 231.8 253 234 L 254 243.5 L 254 245.5 L 254 281.5 L 255 284.5 L 255 286.5 L 255 298.5 L 254 299.5 L 255 300.5 L 255 339.5 L 256 340.5 L 255 344.5 L 256 345.5 L 256 365.5 Q 253.7 366.8 255 371.5 L 256 372.5 L 256 382.5 L 256 384.5 L 255 386.5 L 255 411.5 L 254 413.5 L 254 415.5 L 254 426.5 L 252.5 427 L 249.5 429 L 237.5 429 L 236.5 430 L 231.5 429 L 230.5 430 L 221.5 430 L 219.5 429 L 215.5 430 L 214.5 429 L 204.5 429 L 203.5 428 L 201.5 428 Q 197.1 429.5 198 426.5 L 197 425.5 Q 198.7 417.3 196 413.5 L 197 410.5 L 196 407.5 L 197 404.5 L 196 403.5 L 196 366.5 L 195 361.5 L 196 357.5 L 195 355.5 L 196 352.5 L 195 351.5 L 195 341.5 L 196 337.5 L 195 335.5 L 196 330.5 L 195 329.5 L 195 303.5 L 196 298.5 L 195 297.5 L 195 285.5 L 196 283.5 L 195 278.5 L 196 274.5 L 195 271.5 L 196 270.5 L 196 248.5 L 197 247.5 L 197 245.5 Q 195.9 237.3 198 234 L 200.5 233 Z "/>
  </g>
  <g id="line">
    <path fill="#1a1a1a" d="M 303.5 38 L 360.5 38 L 365 41.5 L 367 56 L 421.5 57 L 432 62.5 L 436 70.5 L 436 79.5 L 437 80.5 L 438 366.5 L 437 367.5 L 437 446.5 L 435 453.5 L 430.5 458 L 422.5 461 L 351.5 461 L 344 465 L 337.5 473 L 331.5 475 L 309.5 475 L 308.5 476 L 210.5 477 Q 209 474.5 203.5 476 L 201.5 476 L 140.5 476 L 139.5 475 L 120.5 475 L 114.5 473 L 101.5 461 L 85.5 460 L 78 454.5 L 75 441.5 L 74 103.5 L 75 102.5 L 75 78.5 Q 77.7 76.8 76 70.5 Q 78.3 63.8 83.5 60 Q 91.6 55.4 105 57 Q 103.7 49.5 108.5 47 L 114.5 45 L 159.5 45 L 167 49.5 L 168 55.5 L 169.5 57 L 203.5 57 L 204.5 56 L 293.5 56 L 295 54.5 L 295 47.5 L 297 40 L 303.5 38 Z M 315 45 L 314 46 L 305 46 L 303 48 L 303 78 L 304 79 L 305 107 L 314 108 L 316 105 L 321 101 L 326 100 L 340 100 L 344 102 L 349 108 Q 355 109 358 107 L 358 83 L 359 82 L 359 48 L 358 46 Q 353 47 352 45 L 315 45 Z M 138 52 L 137 53 L 115 53 L 112 57 L 113 126 L 120 128 L 155 128 L 160 127 L 161 125 L 161 56 L 160 53 L 138 52 Z M 269 63 L 268 64 L 197 64 L 196 65 L 169 65 L 169 122 L 167 131 L 161 135 L 156 136 L 118 136 L 110 134 L 105 128 L 105 77 L 104 76 L 104 67 L 103 65 Q 93 64 88 67 L 83 75 L 82 143 L 81 144 L 82 218 L 88 217 L 112 217 L 113 216 L 135 217 L 142 220 L 145 226 L 147 234 L 147 254 L 148 255 L 147 408 L 146 409 L 146 430 L 143 439 L 134 443 L 123 443 L 122 444 L 98 444 L 97 443 L 84 443 L 85 451 L 88 453 Q 102 451 109 456 L 115 464 L 120 467 L 125 468 L 185 468 L 186 469 L 328 468 L 334 466 L 343 457 L 351 454 L 416 454 L 426 452 Q 430 450 429 443 L 415 443 L 414 444 L 392 444 L 391 443 L 379 443 L 373 441 L 368 437 L 366 429 L 365 325 L 364 324 L 365 182 L 366 181 L 367 170 L 369 166 L 374 162 L 383 160 L 411 160 L 412 161 L 429 161 L 429 131 L 430 130 L 429 76 L 426 67 L 421 65 L 367 64 L 367 74 L 366 75 L 366 108 L 365 112 L 361 115 Q 355 114 354 116 L 344 115 L 340 110 L 339 108 L 325 108 L 322 112 L 316 116 L 309 116 L 301 114 L 298 112 L 297 108 L 297 88 L 296 87 L 295 65 L 294 63 L 269 63 Z M 382 168 L 375 170 L 373 178 L 373 201 L 372 202 L 372 354 L 373 355 L 373 416 L 374 417 L 374 432 L 378 435 L 387 435 L 388 436 L 419 436 L 420 435 L 429 435 L 430 434 L 430 328 L 431 327 L 431 290 L 430 289 L 431 284 L 430 282 L 430 188 L 429 187 L 429 178 L 430 177 Q 431 171 429 169 L 417 169 L 416 168 L 382 168 Z M 99 224 L 98 225 L 84 225 L 82 227 L 82 303 L 83 304 L 83 374 L 82 375 L 82 433 L 83 435 L 92 435 L 93 436 L 126 436 L 137 434 L 139 422 L 139 375 L 140 374 L 140 249 L 139 248 L 139 232 L 138 229 L 135 225 L 130 224 L 99 224 Z "/>
    <path fill="#1a1a1a" d="M 317.5 148 L 329.5 149 L 339 153 L 345 167.5 L 345 179.5 Q 343.3 190.3 335.5 195 L 328.5 198 L 316.5 199 L 305.5 197 L 297 189.5 L 293 177.5 L 293 168.5 Q 294.8 158.3 301.5 153 L 310.5 149 Q 316 150.5 317.5 148 Z M 317 156 L 307 159 Q 302 162 301 169 Q 300 179 303 185 L 309 190 L 314 191 L 324 191 L 331 189 L 336 183 L 338 174 L 334 160 Q 329 154 317 156 Z "/>
    <path fill="#1a1a1a" d="M 314.5 161 Q 327.1 158.9 330 166.5 L 332 174.5 Q 331.1 181.1 326.5 184 Q 323.2 187.2 315.5 186 L 309 181.5 Q 306 178.5 306 172.5 L 311.5 163 L 314.5 161 Z M 319 168 L 317 169 Q 313 170 314 176 L 319 179 L 322 178 Q 325 177 324 172 L 319 168 Z "/>
    <path fill="#1a1a1a" d="M 205.5 225 Q 214.9 223.1 218 227.5 Q 217.1 234.4 221.5 236 L 227.5 237 L 231 233.5 L 232 228.5 L 234.5 226 L 236.5 225 L 247.5 225 Q 249.2 227.8 255.5 226 L 260 229.5 L 261 244 Q 268.5 242.8 272 246.5 Q 272.8 251.3 269.5 252 Q 262.8 250.3 261 253.5 Q 259.6 264.4 263.5 270 Q 270.3 268.2 272 271.5 L 273 273.5 L 270.5 277 Q 263.8 275.3 262 278.5 L 262 295.5 L 263.5 297 Q 269.6 296.3 272 298 L 272 303 L 270.5 303 Q 269 305.5 263.5 304 L 262 305.5 L 263 323 Q 270.3 322 273 326.5 L 272 330 Q 269.2 331.9 263 331 L 263 349.5 L 264.5 351 Q 270.5 349.5 272 352.5 L 273 354.5 L 272 357 Q 269.9 358.6 264.5 358 L 263 359.5 L 263 376.5 L 264.5 378 Q 270.5 376.5 272 379.5 L 273 381.5 L 270.5 385 Q 264.5 383.5 263 386.5 L 262 411.5 L 263.5 413 Q 270.3 411.3 272 414.5 L 273 416.5 L 272 419 Q 269.3 420.9 262.5 420 L 261 421.5 Q 263 432 257.5 435 L 245.5 436 L 244.5 437 L 207.5 437 L 206.5 436 L 196.5 436 L 190 431.5 L 189 420 L 180.5 420 L 178 417.5 Q 177.3 413.8 179.5 413 L 187.5 413 L 189 411.5 L 189 388.5 L 186.5 385 Q 179.5 386.5 178 382.5 Q 177.5 378.5 180.5 378 Q 186.5 379.5 188 376.5 L 188 359.5 L 186.5 358 Q 180 359 178 355.5 Q 177.5 351.5 180.5 351 Q 186.5 352.5 188 349.5 L 188 332.5 L 186.5 331 Q 179.5 332.5 178 328.5 Q 177.5 324.5 180.5 324 Q 186.5 325.5 188 322.5 L 188 305.5 L 186.5 304 Q 180 305 178 301.5 Q 177.5 297.5 180.5 297 Q 186.5 298.5 188 295.5 L 188 278.5 L 186.5 277 Q 179.5 278.5 178 274.5 Q 177.5 270.5 180.5 270 L 188 269 L 188 255.5 L 189 253.5 Q 187.5 250.5 181.5 252 L 178 249.5 Q 177.3 245.8 179.5 245 L 189 244 Q 187.3 233 192.5 228 L 205.5 225 Z M 200 233 L 197 236 L 196 271 L 195 272 L 195 366 L 196 367 L 196 417 L 197 418 L 197 428 L 203 429 L 215 429 L 216 430 L 237 430 L 238 429 Q 247 431 253 428 L 254 427 L 254 416 L 255 415 L 255 387 L 256 386 L 255 283 L 254 282 L 254 241 Q 252 239 253 235 L 252 233 L 239 233 L 237 239 Q 234 244 227 245 Q 219 245 216 241 L 211 235 L 211 233 L 200 233 Z "/>
  </g>
</svg>
