<svg xmlns="http://www.w3.org/2000/svg" width="512" height="512" viewBox="0 0 512 512">
  <g id="color">
    <path fill="#ffffff" d="M 137.5 87 L 158 87.5 L 137.5 88 L 137.5 87 Z "/>
    <path fill="#ffffff" d="M 356.5 87 L 376 87.5 L 356.5 88 L 356.5 87 Z "/>
    <path fill="#ffffff" d="M 118.5 90 L 121 90.5 L 115.5 92 L 115.5 91 L 118.5 90 Z "/>
    <path fill="#ffffff" d="M 105.5 94 L 107 94.5 L 101.5 97 L 101.5 96 L 105.5 94 Z "/>
    <path fill="#ffffff" d="M 325.5 94 L 327 94.5 L 320.5 97 L 320.5 96 L 325.5 94 Z "/>
    <path fill="#ffffff" d="M 406.5 94 L 410 95.5 L 408.5 96 L 406.5 94 Z "/>
    <path fill="#ffffff" d="M 189.5 95 L 193 96.5 L 191.5 97 L 189.5 95 Z "/>
    <path fill="#ffffff" d="M 96.5 98 L 98 98.5 L 93.5 101 L 94.5 99 L 96.5 98 Z "/>
    <path fill="#ffffff" d="M 418.5 99 L 422 101.5 L 420.5 101 L 418.5 99 Z "/>
    <path fill="#ffffff" d="M 202.5 101 L 206 103.5 L 204.5 103 L 202.5 101 Z "/>
    <path fill="#ffffff" d="M 310.5 101 L 309.5 103 L 304.5 106 L 305.5 104 L 310.5 101 Z "/>
    <path fill="#ffffff" d="M 228.5 124 L 232 128.5 L 230 127.5 L 228.5 124 Z "/>
    <path fill="#ffffff" d="M 284.5 124 L 283 126.5 L 281.5 129 L 282 127.5 L 284.5 124 Z "/>
    <path fill="#ffffff" d="M 280.5 130 L 280 131.5 L 278.5 134 L 279 132.5 L 280.5 130 Z "/>
    <path fill="#ffffff" d="M 54.5 135 L 54 136.5 L 52.5 139 L 53 137.5 L 54.5 135 Z "/>
    <path fill="#ffffff" d="M 248.5 138 L 264 138.5 L 248.5 139 L 248.5 138 Z "/>
    <path fill="#ffffff" d="M 50.5 142 L 50 143.5 L 48.5 146 L 49 144.5 L 50.5 142 Z "/>
    <path fill="#ffffff" d="M 466.5 149 L 469 154.5 L 468 154.5 L 466.5 149 Z "/>
    <path fill="#ffffff" d="M 45.5 151 L 46 152.5 L 44.5 155 L 44 153.5 L 45.5 151 Z "/>
    <path fill="#ffffff" d="M 128.5 161 L 145.5 161 L 151.5 163 Q 161.8 167.2 168 175.5 L 170 178.5 Q 169.5 181.5 165.5 181 L 157.5 179 L 141.5 178 L 123.5 182 L 114 188.5 Q 111 191.5 112 198.5 L 117.5 206 L 128 214.5 Q 131.8 219.2 132 227.5 L 129 235 L 122.5 239 L 116.5 239 Q 108.5 236.5 104 230.5 Q 98 223.4 96 212.5 L 96 197.5 Q 100.1 179.1 112.5 169 L 128.5 161 Z "/>
    <path fill="#ffffff" d="M 366.5 161 L 384.5 161 L 387.5 162 Q 399.5 166.5 407 175.5 L 416 192.5 L 417 197.5 L 417 212.5 L 412 226.5 L 404.5 235 Q 400.5 240 390.5 239 L 383 233.5 L 381 224.5 L 383 217.5 L 391.5 208 L 400 201.5 L 401 192.5 L 397 186 L 383.5 180 L 368.5 178 L 367.5 179 L 356.5 179 L 344 181 L 343 178.5 L 352.5 168 L 366.5 161 Z "/>
    <path fill="#ffffff" d="M 40.5 165 L 41 167.5 L 39.5 171 L 39 168.5 L 40.5 165 Z "/>
    <path fill="#ffffff" d="M 472.5 165 L 474 170.5 L 473 170.5 L 472.5 165 Z "/>
    <path fill="#ffffff" d="M 36.5 185 L 37 205.5 L 36 205.5 L 36.5 185 Z "/>
    <path fill="#ffffff" d="M 476.5 186 L 477 205.5 L 476 205.5 L 476.5 186 Z "/>
    <path fill="#ffffff" d="M 43.5 233 L 45 236.5 L 44 236.5 L 43.5 233 Z "/>
    <path fill="#ffffff" d="M 469.5 233 L 470 234.5 L 468.5 237 L 468 235.5 L 469.5 233 Z "/>
    <path fill="#ffffff" d="M 465.5 242 L 466 243.5 L 463.5 247 L 464 245.5 L 465.5 242 Z "/>
    <path fill="#ffffff" d="M 155.5 273 Q 158.3 272.4 157 278.5 L 156 278.5 L 155.5 273 Z "/>
    <path fill="#ffffff" d="M 356 273 L 358 273.5 L 356.5 277 L 356 273 Z "/>
    <path fill="#ffffff" d="M 438.5 274 L 437.5 276 L 434.5 278 L 436.5 275 L 438.5 274 Z "/>
    <path fill="#ffffff" d="M 147.5 279 L 146.5 281 L 144.5 282 L 145.5 280 L 147.5 279 Z "/>
    <path fill="#ffffff" d="M 365.5 279 L 369 281.5 L 367.5 281 L 365.5 279 Z "/>
    <path fill="#ffffff" d="M 430.5 279 L 429.5 281 L 424.5 283 L 424.5 282 L 430.5 279 Z "/>
    <path fill="#ffffff" d="M 137.5 284 L 139 284.5 L 135.5 286 L 135.5 285 L 137.5 284 Z "/>
    <path fill="#ffffff" d="M 374.5 284 L 381 286.5 L 379.5 287 L 374.5 285 L 374.5 284 Z "/>
    <path fill="#ffffff" d="M 354.5 287 L 355 289.5 L 353.5 293 L 353 290.5 L 354.5 287 Z "/>
    <path fill="#ffffff" d="M 109.5 288 L 123 288.5 L 109.5 289 L 109.5 288 Z "/>
    <path fill="#ffffff" d="M 390.5 288 L 404 288.5 L 390.5 289 L 390.5 288 Z "/>
    <path fill="#ffffff" d="M 159.5 291 L 161 295.5 L 160 295.5 L 159.5 291 Z "/>
    <path fill="#ffffff" d="M 167.5 310 L 170 313.5 L 168 312.5 L 167.5 310 Z "/>
    <path fill="#ffffff" d="M 184.5 332 L 187 335.5 L 185 334.5 L 184.5 332 Z "/>
    <path fill="#ffffff" d="M 328.5 332 L 328 333.5 L 326.5 336 L 327 334.5 L 328.5 332 Z "/>
    <path fill="#ffffff" d="M 189.5 342 L 191 347.5 L 190 347.5 L 189.5 342 Z "/>
    <path fill="#ffffff" d="M 318.5 366 L 319 369.5 L 317.5 373 L 317 370.5 L 318.5 366 Z "/>
    <path fill="#ffffff" d="M 198.5 381 L 201 386.5 L 200 386.5 L 198.5 381 Z "/>
    <path fill="#ffffff" d="M 314.5 381 L 315 382.5 L 312.5 387 L 312 385.5 L 314.5 381 Z "/>
    <path fill="#ffffff" d="M 307.5 395 L 306 397.5 L 303.5 401 L 305 398.5 L 307.5 395 Z "/>
    <path fill="#ffffff" d="M 292.5 411 L 290.5 414 L 287.5 416 L 289.5 413 L 292.5 411 Z "/>
    <path fill="#ffffff" d="M 253.5 424 L 260 424.5 L 253.5 425 L 253.5 424 Z "/>
    <path fill="#ffa94d" d="M 144.5 94 L 146.5 95 L 161.5 95 L 182.5 100 L 204.5 111 L 217 121 L 227 134.5 Q 229.7 136.8 229 142.5 Q 223 154.6 213.5 163 L 200.5 171 L 187.5 175 L 178.5 175 L 177.5 176 L 175 175 Q 172.1 167.8 165.5 163 L 149.5 155 Q 141.6 152.4 129.5 154 L 114.5 159 L 103 168 L 96 177.5 L 91 188.5 L 89 198.5 L 89 210.5 L 91 220.5 L 96 231.5 L 106.5 242 Q 111.8 246.2 121.5 246 L 128.5 244 L 134 239.5 L 139 228.5 L 139 223.5 L 135 212.5 L 126 201 Q 128.1 199.4 133.5 200 Q 148.3 204.3 156 215.5 L 162 229.5 L 162 247.5 Q 157.5 263 146.5 272 Q 134.5 282 112.5 282 L 95.5 278 Q 80.6 271.9 70 261.5 Q 55.4 247.6 48 226.5 L 44 209.5 L 43 193.5 L 44 192.5 L 45 176.5 L 53 152.5 Q 63 131 80.5 117 L 93.5 108 L 111.5 100 L 132.5 95 L 143.5 95 L 144.5 94 Z "/>
    <path fill="#ffa94d" d="M 350.5 95 L 379.5 95 L 401.5 100 Q 430.8 110.2 448 132.5 L 462 156.5 L 469 180.5 L 470 197.5 L 469 198.5 L 469 209.5 L 464 229.5 Q 455.6 251.1 439.5 265 Q 429.3 273.8 415.5 279 Q 409.8 278.3 407.5 281 L 394.5 282 L 377.5 278 L 366 272 Q 367.1 269.3 364.5 270 Q 357.3 263.3 353 253.5 Q 349.2 244.8 351 230.5 Q 354.8 213.3 367.5 205 Q 374.8 199.1 388 200 Q 389.5 203.8 386.5 203 Q 375.4 210.4 374 227.5 L 379 240 L 387.5 245 L 395.5 246 L 400.5 245 L 411 238.5 L 413 235.5 L 417 231.5 L 423 217.5 L 424 197.5 Q 420.4 177.1 407.5 166 Q 400.3 158.2 388.5 155 Q 380.2 152.3 367.5 154 Q 350 157.5 341 169.5 L 338 175 L 335.5 176 L 334.5 175 L 321.5 174 L 312.5 171 Q 301.8 165.8 294 157.5 Q 286.7 150.3 283 139.5 L 296 121 L 313.5 108 L 325.5 102 L 350.5 95 Z "/>
    <path fill="#ffa94d" d="M 236.5 144 L 247.5 146 L 263.5 146 L 264.5 145 L 276.5 144 L 285 157.5 L 298.5 171 L 317.5 180 L 326.5 182 L 336.5 182 L 338 183.5 L 340.5 187 L 347.5 188 L 354.5 186 L 369.5 185 L 370.5 186 L 383.5 187 L 393 192.5 L 392.5 195 L 382.5 193 L 372.5 195 L 364.5 199 L 353 209.5 Q 346.4 217.4 344 229.5 L 344 247.5 L 349 259.5 L 350 265.5 L 349 266.5 L 349 281.5 L 346 293.5 L 341 304.5 L 325 324.5 L 317 338.5 L 314 349.5 L 311 370.5 L 306 384.5 Q 298.8 397.8 287.5 407 Q 274.6 418.6 248.5 417 Q 226.5 412 215 396.5 Q 207.9 388.1 204 376.5 L 199 355.5 L 198 345.5 L 193 331.5 L 176 310.5 L 167 293.5 L 164 281.5 Q 165.7 273.3 163 269.5 L 163 267.5 L 163 261.5 Q 167.5 255.5 169 246.5 L 169 230.5 Q 165.3 210.7 151.5 201 Q 143.5 194 129.5 193 L 120 195 L 121.5 191 L 133.5 186 L 149.5 185 L 150.5 186 L 158.5 186 L 168.5 188 L 175 184.5 Q 174.3 182.3 176.5 183 L 177.5 182 L 192.5 181 L 201.5 178 L 215 171 Q 213.9 168.3 216.5 169 L 225 161.5 L 236.5 144 Z M 204 242 L 198 244 L 192 252 Q 191 260 194 264 Q 196 269 203 270 Q 210 271 214 268 L 218 262 Q 219 252 215 248 Q 211 243 204 242 Z M 305 243 L 301 245 L 295 254 Q 293 262 297 266 L 304 270 Q 313 272 317 267 L 321 261 Q 323 252 319 248 L 314 243 L 305 243 Z M 236 332 L 233 335 L 233 340 L 236 346 Q 241 354 252 355 L 253 358 L 254 371 L 257 373 Q 261 373 261 371 L 260 369 L 260 357 L 274 349 L 280 340 L 280 335 Q 279 332 276 333 L 272 341 Q 268 347 260 349 L 252 349 L 244 344 L 239 335 L 236 332 Z "/>
    <path fill="#ffa94d" d="M 202.5 249 Q 208.9 249.1 211 253.5 L 212 258.5 L 208.5 263 L 205.5 264 L 200 261 L 198 255.5 L 202.5 249 Z "/>
    <path fill="#ffa94d" d="M 307.5 249 L 313 251.5 L 314 258.5 L 311.5 262 L 307.5 264 L 302 260.5 L 301 256.5 L 305.5 250 L 307.5 249 Z "/>
  </g>
  <g id="line">
    <path fill="#1a1a1a" d="M 133.5 88 L 160.5 88 L 186.5 94 Q 212.3 103.7 228 123.5 L 236.5 137 L 247.5 138 L 248.5 139 L 263.5 139 L 264.5 138 L 276.5 137 L 278 135.5 Q 285.2 119.7 298.5 110 L 311.5 101 L 336.5 91 L 352.5 88 L 379.5 88 L 402.5 93 L 417.5 99 Q 438 109.5 452 126.5 L 462 140.5 L 471 160.5 L 476 183.5 L 476 208.5 L 471 230.5 L 463 247.5 Q 455.5 260.5 444.5 270 Q 432.6 280.6 415.5 286 L 406.5 288 L 386.5 288 L 373.5 284 L 356 273 L 355 286.5 L 351 299.5 L 340 318.5 Q 330.1 327.1 324 339.5 L 321 349.5 L 317 374.5 L 312 387.5 Q 305 401.5 293.5 411 Q 284.9 418.4 272.5 422 L 264.5 424 L 248.5 424 Q 224 419 211 402.5 Q 202.7 393.3 198 380.5 L 193 359.5 L 192 349.5 L 188 337.5 L 183 329.5 L 170 314.5 L 162 299.5 L 157 281.5 L 157 273 L 143.5 282 L 134.5 286 L 125.5 288 L 105.5 288 Q 77 281.5 61 262.5 Q 45.7 245.8 39 220.5 L 38 209.5 L 37 208.5 L 37 182.5 Q 44.8 135.8 75.5 112 L 88.5 103 L 107.5 94 L 133.5 88 Z M 145 94 L 144 95 L 133 95 L 112 100 L 94 108 L 81 117 Q 62 132 52 155 L 45 177 L 44 193 L 43 194 L 44 210 L 49 230 Q 56 247 68 260 Q 84 277 113 282 Q 134 282 147 272 L 159 257 L 162 248 L 162 230 L 156 216 Q 147 201 125 200 L 135 213 L 139 224 L 139 229 L 134 240 Q 129 244 122 246 Q 112 246 107 242 L 96 232 L 91 221 L 89 211 L 89 199 L 91 189 L 96 178 L 103 168 L 112 161 L 130 154 Q 142 152 150 155 L 166 163 Q 172 168 175 175 L 178 176 L 179 175 L 189 175 L 201 171 L 214 163 Q 223 155 229 143 Q 230 137 227 135 L 217 121 L 205 111 L 183 100 L 162 95 L 147 95 L 145 94 Z M 351 95 L 326 102 L 314 108 L 296 121 L 283 140 Q 287 150 294 158 L 300 163 L 313 171 L 322 174 L 335 175 L 336 176 L 338 175 L 341 170 Q 350 158 368 154 Q 380 152 389 155 L 402 161 L 408 166 Q 420 177 424 198 L 423 218 L 417 232 L 411 239 L 401 245 L 396 246 L 388 245 L 379 240 L 374 228 Q 375 210 387 203 Q 390 204 388 200 Q 375 199 368 205 Q 355 213 351 231 L 351 247 L 352 252 L 362 268 Q 368 275 378 278 L 395 282 L 408 281 L 416 279 Q 429 274 439 266 Q 455 252 464 230 L 469 210 L 469 199 L 470 198 L 469 181 L 462 157 L 448 133 Q 431 110 402 100 L 380 95 L 351 95 Z M 237 144 L 225 162 Q 215 172 202 178 L 187 182 L 178 182 L 177 183 Q 174 182 175 185 L 169 188 L 159 186 L 152 186 L 151 185 L 134 186 L 122 191 L 119 195 L 130 193 Q 143 194 152 201 Q 165 211 169 231 L 169 247 Q 168 256 163 262 L 164 282 L 167 294 L 172 305 L 188 325 L 196 339 L 203 374 Q 207 387 215 397 Q 226 412 249 417 Q 275 419 288 407 Q 299 398 306 385 L 311 371 L 314 350 L 317 339 L 325 325 Q 336 315 343 301 L 349 283 L 349 269 L 350 268 L 350 263 L 344 248 L 344 230 Q 346 217 353 210 L 365 199 L 377 194 Q 381 195 383 193 L 392 195 L 394 195 L 393 193 L 384 187 L 371 186 L 370 185 L 355 186 L 348 188 L 341 187 L 338 184 L 337 182 L 327 182 L 312 178 L 297 169 L 285 158 L 277 144 L 265 145 L 264 146 L 248 146 L 237 144 Z M 129 161 L 113 169 Q 100 179 96 198 L 96 213 Q 98 223 104 231 Q 109 237 117 239 L 123 239 L 129 235 L 132 228 Q 132 219 128 215 L 118 206 L 112 199 Q 111 192 114 189 L 124 182 L 142 178 L 158 179 L 166 181 Q 170 181 170 179 L 168 176 Q 162 167 152 163 L 146 161 L 129 161 Z M 367 161 L 353 168 L 343 179 L 344 181 L 357 179 L 368 179 L 369 178 L 384 180 L 397 186 L 401 193 L 400 202 L 392 208 L 383 218 L 381 225 L 383 234 L 391 239 Q 401 240 405 235 L 412 227 L 417 213 L 417 198 L 416 193 L 407 176 Q 400 166 388 162 L 385 161 L 367 161 Z "/>
    <path fill="#1a1a1a" d="M 203.5 242 Q 211.3 242.7 215 247.5 Q 219.3 251.7 218 261.5 L 213.5 268 Q 210.2 271.2 202.5 270 L 194 263.5 Q 190.7 259.8 192 251.5 L 197.5 244 L 203.5 242 Z M 203 249 L 198 256 L 200 261 L 206 264 L 209 263 L 212 259 L 211 254 Q 209 249 203 249 Z "/>
    <path fill="#1a1a1a" d="M 304.5 243 Q 315 241 318 246.5 Q 322.7 250.3 321 260.5 L 316.5 267 L 310.5 270 L 303.5 270 L 297 265.5 Q 293.2 262.3 295 253.5 L 299.5 246 L 304.5 243 Z M 308 249 L 306 250 L 301 257 L 302 261 L 308 264 L 312 262 Q 315 260 314 253 Q 312 249 308 249 Z "/>
    <path fill="#1a1a1a" d="M 234.5 333 Q 238.3 332.3 239 334.5 L 243.5 344 L 251.5 349 L 259.5 349 Q 267.5 346.5 272 340.5 L 275.5 333 Q 279.3 332.3 280 334.5 L 280 339.5 L 273.5 349 L 260 356.5 L 260 368.5 L 261 370.5 Q 260.5 373.5 256.5 373 L 254 370.5 L 253 356.5 L 251.5 355 Q 240.7 353.3 236 345.5 L 233 339.5 L 233 334.5 L 234.5 333 Z "/>
  </g>
</svg>
