<svg xmlns="http://www.w3.org/2000/svg" width="512" height="512" viewBox="0 0 512 512">
  <g id="color">
    <path fill="#ffffff" d="M 301.5 67 L 305 68.5 L 303.5 69 L 301.5 67 Z "/>
    <path fill="#ffffff" d="M 281.5 69 L 277 74.5 L 275.5 77 L 276 75.5 L 281.5 69 Z "/>
    <path fill="#ffffff" d="M 313.5 73 L 322 79.5 L 319.5 78 Q 314.5 76.5 313.5 73 Z "/>
    <path fill="#ffffff" d="M 274.5 78 L 275 79.5 L 272.5 84 L 272 82.5 L 274.5 78 Z "/>
    <path fill="#ffffff" d="M 269.5 95 L 270 102.5 L 269 102.5 L 269.5 95 Z "/>
    <path fill="#ffffff" d="M 345.5 98 L 356 107.5 L 350.5 103 L 345.5 98 Z "/>
    <path fill="#ffffff" d="M 384.5 130 L 398 141.5 L 394.5 139 Q 387.4 135.3 384.5 130 Z "/>
    <path fill="#ffffff" d="M 269.5 132 L 270 144.5 L 269 144.5 L 269.5 132 Z "/>
    <path fill="#ffffff" d="M 400.5 143 L 411 152.5 L 405.5 148 L 400.5 143 Z "/>
    <path fill="#ffffff" d="M 270.5 146 L 271 157.5 L 269.5 159 L 259.5 159 L 259.5 158 L 270 158 L 270.5 146 Z "/>
    <path fill="#ffffff" d="M 131.5 156 L 201 156.5 L 131.5 157 L 131.5 156 Z "/>
    <path fill="#ffffff" d="M 111.5 157 L 119 157.5 L 111.5 158 L 111.5 157 Z "/>
    <path fill="#ffffff" d="M 227.5 157 L 255 157.5 L 227.5 158 L 227.5 157 Z "/>
    <path fill="#ffffff" d="M 101.5 158 L 109 158.5 L 101.5 159 L 101.5 158 Z "/>
    <path fill="#ffffff" d="M 86.5 161 L 89 161.5 L 84.5 163 L 84.5 162 L 86.5 161 Z "/>
    <path fill="#ffffff" d="M 68.5 169 L 67.5 171 L 58.5 178 L 63.5 172 L 68.5 169 Z "/>
    <path fill="#ffffff" d="M 49.5 188 L 49 189.5 L 47.5 192 L 48 190.5 L 49.5 188 Z "/>
    <path fill="#ffffff" d="M 46.5 193 L 47 194.5 L 44.5 199 L 44 197.5 L 46.5 193 Z "/>
    <path fill="#ffffff" d="M 42.5 204 L 43 205.5 L 41.5 210 L 41 206.5 L 42.5 204 Z "/>
    <path fill="#ffffff" d="M 473.5 209 L 476 213.5 L 475 213.5 L 473.5 209 Z "/>
    <path fill="#ffffff" d="M 39.5 217 L 40 221.5 L 39 221.5 L 39.5 217 Z "/>
    <path fill="#ffffff" d="M 38.5 224 L 39 239.5 L 38 239.5 L 38.5 224 Z "/>
    <path fill="#ffffff" d="M 475.5 229 L 476 230.5 L 473.5 234 L 474 232.5 L 475.5 229 Z "/>
    <path fill="#ffffff" d="M 37.5 242 L 38 261.5 L 37 261.5 L 37.5 242 Z "/>
    <path fill="#ffffff" d="M 36.5 279 L 37 354.5 L 36 354.5 L 36.5 279 Z "/>
    <path fill="#ffffff" d="M 232.5 281 L 257 281.5 L 232.5 282 L 232.5 281 Z "/>
    <path fill="#ffffff" d="M 151.5 282 L 208 282.5 L 151.5 283 L 149 284 L 148.5 287 L 148 284.5 L 151.5 282 Z "/>
    <path fill="#ffffff" d="M 272.5 283 L 273 290.5 L 272 290.5 L 272.5 283 Z "/>
    <path fill="#ffffff" d="M 412.5 289 L 408.5 294 L 403.5 298 L 407.5 293 L 412.5 289 Z "/>
    <path fill="#ffffff" d="M 147.5 291 L 148 298.5 L 147 298.5 L 147.5 291 Z "/>
    <path fill="#ffffff" d="M 271.5 298 L 272 309.5 L 271 309.5 L 271.5 298 Z "/>
    <path fill="#ffffff" d="M 146.5 305 L 147 333.5 L 146 333.5 L 146.5 305 Z "/>
    <path fill="#ffffff" d="M 381.5 314 L 378.5 318 L 368.5 326 L 372.5 321 L 381.5 314 Z "/>
    <path fill="#ffffff" d="M 270.5 318 L 271 335.5 L 270 335.5 L 270.5 318 Z "/>
    <path fill="#ffffff" d="M 145.5 337 L 146 358.5 L 145 358.5 L 145.5 337 Z "/>
    <path fill="#ffffff" d="M 271.5 340 L 272 346.5 L 271 346.5 L 271.5 340 Z "/>
    <path fill="#ffffff" d="M 342.5 345 L 344 345.5 L 338.5 350 L 342.5 345 Z "/>
    <path fill="#ffffff" d="M 146.5 362 L 147 411.5 L 145.5 418 L 145 412.5 L 146 411.5 L 146.5 362 Z "/>
    <path fill="#ffffff" d="M 276.5 363 L 279 366.5 L 277 365.5 L 276.5 363 Z "/>
    <path fill="#ffffff" d="M 313.5 368 L 312.5 370 L 310.5 371 L 311.5 369 L 313.5 368 Z "/>
    <path fill="#ffffff" d="M 284.5 372 L 289 374.5 L 287.5 375 L 284.5 372 Z "/>
    <path fill="#ffffff" d="M 305.5 372 L 307 372.5 L 303.5 374 L 303.5 373 L 305.5 372 Z "/>
    <path fill="#ffffff" d="M 291.5 375 L 297 375.5 L 291.5 376 L 291.5 375 Z "/>
    <path fill="#ffffff" d="M 37.5 377 L 38 410.5 L 37 410.5 L 37.5 377 Z "/>
    <path fill="#ffffff" d="M 38.5 413 L 40 421.5 L 39 421.5 L 38.5 413 Z "/>
    <path fill="#ffffff" d="M 40.5 424 L 43 429.5 L 41 428.5 L 40.5 424 Z "/>
    <path fill="#ffffff" d="M 48.5 437 L 54 440.5 L 52.5 441 L 48.5 437 Z "/>
    <path fill="#ffffff" d="M 134.5 437 L 132.5 440 L 129.5 441 L 129.5 440 L 134.5 437 Z "/>
    <path fill="#ffffff" d="M 55.5 441 L 60 442.5 L 57.5 443 L 55.5 441 Z "/>
    <path fill="#ffffff" d="M 126.5 441 L 128 441.5 L 123.5 443 L 123.5 442 L 126.5 441 Z "/>
    <path fill="#ffffff" d="M 67.5 444 L 73 444.5 L 67.5 445 L 67.5 444 Z "/>
    <path fill="#ffffff" d="M 110.5 444 L 115 444.5 L 110.5 445 L 110.5 444 Z "/>
    <path fill="#ffffff" d="M 75.5 445 L 107 445.5 L 75.5 446 L 75.5 445 Z "/>
    <path fill="#4da3ff" d="M 290.5 82 L 300.5 83 L 316 94.5 Q 315.2 97.1 318.5 96 L 332 107.5 L 332 109 L 335 109 Q 333.9 111.7 336.5 111 L 354 125.5 Q 353.3 127.8 355.5 127 L 358 128 Q 356.9 130.7 359.5 130 L 361.5 133 L 362.5 132 L 365.5 135 Q 367.8 134.3 367 136.5 L 375 142.5 Q 374.3 144.8 376.5 144 L 380 146.5 Q 379.3 148.8 381.5 148 L 385 150.5 Q 384.3 152.8 386.5 152 L 389.5 156 L 390.5 155 L 393.5 158 L 396 159.5 Q 395.3 161.8 397.5 161 L 409 170.5 Q 408.3 172.8 410.5 172 L 422 180 Q 420.9 182.7 423.5 182 L 443 198.5 L 444.5 201 Q 446.8 200.3 446 202.5 L 446 204.5 L 445 210.5 L 436 222 L 434.5 222 L 400.5 252 L 336.5 300 L 300.5 329 L 290.5 333 L 286 333 L 286 314.5 L 287 313.5 L 287 311.5 L 287 293.5 L 288 292.5 L 288 276.5 L 289 274.5 L 288 271.5 L 286 266.5 L 285 256.5 L 279.5 250 L 265.5 246 L 239.5 246 L 238.5 247 L 199.5 247 L 197.5 248 L 195.5 248 L 166.5 248 L 165.5 249 L 141.5 250 L 129.5 254 L 122 261.5 L 117 272.5 L 114 298.5 L 113 299.5 L 113 365.5 L 112 366.5 L 111 391.5 L 110 392.5 L 108 410.5 L 98.5 430 L 96.5 431 L 81.5 431 L 67.5 428 L 65.5 428 Q 59.3 428.7 57 425.5 L 53 414.5 L 52 322.5 Q 49.8 321.3 51 316.5 L 52 312.5 L 51 311.5 L 51 300.5 L 52 299.5 L 52 266.5 L 53 265.5 L 54 220.5 L 59 202.5 L 63 194.5 L 70.5 186 L 90.5 176 L 103.5 175 L 107.5 173 L 116.5 173 L 117.5 172 L 222.5 172 L 223.5 173 L 264.5 173 L 266.5 174 L 268.5 174 L 280.5 173 L 285 169.5 L 286 166.5 L 286 150.5 L 285 149.5 L 285 132.5 L 284 131.5 L 284 100.5 L 287 86.5 L 290.5 82 Z "/>
    <path fill="#66d9e8" d="M 290.5 80 Q 299.4 79.1 303.5 83 L 322.5 97 L 441.5 195 L 462 215.5 L 463 225.5 L 453.5 237 L 398.5 284 L 377.5 301 L 369 306 Q 370.1 308.7 367.5 308 L 306.5 357 L 299.5 361 L 291.5 361 L 288 357.5 L 285 344.5 Q 286.7 338.2 284 336.5 L 284 309.5 L 285 308.5 L 285 294.5 L 286 293.5 L 287 272.5 L 283.5 268 L 281.5 267 L 257.5 267 L 256.5 268 L 150.5 269 L 141.5 272 L 138 275.5 L 134 288.5 L 134 302.5 L 133 303.5 L 133 411.5 L 129 426 L 123.5 429 L 106.5 432 L 73.5 432 L 59.5 429 L 54 424.5 L 51 412.5 L 50 270.5 L 51 269.5 L 52 224.5 L 53 223.5 L 54 212.5 Q 58 195 69.5 185 L 85.5 176 L 108.5 171 L 121.5 171 L 122.5 170 L 220.5 170 L 221.5 171 L 279.5 172 L 283 169.5 L 285 163.5 L 284 162.5 L 284 147.5 L 283 146.5 L 282 103.5 L 286 84.5 L 290.5 80 Z M 291 82 L 287 87 L 284 101 L 284 132 L 285 133 L 285 150 L 286 151 L 286 167 L 285 170 L 281 173 L 269 174 L 267 174 L 265 173 L 224 173 L 223 172 L 118 172 L 117 173 L 108 173 L 104 175 L 91 176 L 71 186 L 63 195 L 59 203 L 54 221 L 53 266 L 52 267 L 52 300 L 51 301 L 51 312 L 52 313 L 51 317 Q 50 321 52 323 L 53 415 L 57 426 Q 59 429 66 428 L 68 428 L 82 431 L 97 431 L 99 430 L 108 411 L 110 393 L 111 392 L 112 367 L 113 366 L 113 300 L 114 299 L 117 273 L 122 262 L 130 254 L 142 250 L 166 249 L 167 248 L 196 248 L 198 248 L 200 247 L 239 247 L 240 246 L 266 246 L 280 250 L 285 257 L 286 267 L 288 272 L 289 275 L 288 277 L 288 293 L 287 294 L 287 312 L 287 314 L 286 315 L 286 333 L 291 333 L 301 329 L 337 300 L 401 252 L 435 222 L 436 222 L 445 211 L 446 205 L 446 203 Q 447 200 445 201 L 443 199 L 424 182 Q 421 183 422 180 L 411 172 Q 408 173 409 171 L 398 161 Q 395 162 396 160 L 394 158 L 391 155 L 390 156 L 387 152 Q 384 153 385 151 L 382 148 Q 379 149 380 147 L 377 144 Q 374 145 375 143 L 367 137 Q 368 134 366 135 L 363 132 L 362 133 L 360 130 Q 357 131 358 128 L 356 127 Q 353 128 354 126 L 337 111 Q 334 112 335 109 L 332 109 L 332 108 L 319 96 Q 315 97 316 95 L 301 83 L 291 82 Z "/>
  </g>
  <g id="line">
    <path fill="#1a1a1a" d="M 291.5 66 L 300.5 67 L 305.5 69 L 322.5 80 L 420.5 160 L 456.5 191 L 470 204.5 Q 477.6 210.9 477 225.5 Q 471.9 239.4 461.5 248 L 423.5 281 L 314.5 368 L 299.5 375 L 289.5 375 Q 282.8 372.8 279 367.5 L 275 360.5 L 272 349.5 L 272 340.5 L 271 339.5 L 271 310.5 L 272 309.5 L 272 291.5 L 273 290.5 L 273 281 L 232.5 281 L 231.5 282 L 151.5 282 L 148 284.5 L 147 304.5 L 146 305.5 L 145 358.5 L 146 359.5 L 146 411.5 L 143 426.5 L 135.5 437 Q 128.6 442.1 118.5 444 L 110.5 444 L 109.5 445 L 73.5 445 L 72.5 444 L 60.5 443 L 47 437 L 40 423.5 L 38 412.5 L 38 377.5 L 37 376.5 L 37 262.5 L 38 261.5 L 38 240.5 L 39 239.5 L 40 214.5 L 47 192.5 L 57 178 L 69.5 169 L 79.5 164 L 100.5 159 L 118.5 158 L 119.5 157 L 226.5 157 L 227.5 158 L 258.5 158 L 259.5 159 L 269.5 159 L 271 157.5 L 271 146.5 L 270 145.5 L 270 132.5 L 269 131.5 L 269 103.5 L 270 102.5 L 270 94.5 L 272 84.5 Q 275.1 74.6 282.5 69 L 291.5 66 Z M 291 80 L 286 85 L 282 104 L 283 147 L 284 148 L 284 163 L 285 164 L 283 170 L 280 172 L 222 171 L 221 170 L 123 170 L 122 171 L 109 171 L 86 176 L 70 185 Q 58 195 54 213 L 53 224 L 52 225 L 51 270 L 50 271 L 51 413 L 54 425 L 60 429 L 74 432 L 107 432 L 124 429 L 129 426 L 133 412 L 133 304 L 134 303 L 134 289 L 138 276 L 142 272 L 151 269 L 257 268 L 258 267 L 282 267 L 284 268 L 287 273 L 286 294 L 285 295 L 285 309 L 284 310 L 284 337 Q 287 338 285 345 L 288 358 L 292 361 L 300 361 L 307 357 L 368 308 Q 370 309 369 306 L 378 301 L 399 284 L 454 237 L 463 226 L 462 216 L 442 195 L 323 97 L 304 83 Q 299 79 291 80 Z "/>
  </g>
</svg>
