<svg xmlns="http://www.w3.org/2000/svg" width="512" height="512" viewBox="0 0 512 512">
  <g id="color">
    <path fill="#ffffff" d="M 260.5 62 L 282 62.5 L 260.5 63 L 260.5 62 Z "/>
    <path fill="#ffffff" d="M 244.5 63 L 252 63.5 L 244.5 64 L 244.5 63 Z "/>
    <path fill="#ffffff" d="M 290.5 63 L 298 63.5 L 290.5 64 L 290.5 63 Z "/>
    <path fill="#ffffff" d="M 235.5 64 L 242 64.5 L 235.5 65 L 235.5 64 Z "/>
    <path fill="#ffffff" d="M 299.5 64 L 307 64.5 L 299.5 65 L 299.5 64 Z "/>
    <path fill="#ffffff" d="M 203.5 70 L 206 70.5 L 196.5 73 L 196.5 72 L 203.5 70 Z "/>
    <path fill="#ffffff" d="M 347.5 74 L 351 75.5 L 349.5 76 L 347.5 74 Z "/>
    <path fill="#ffffff" d="M 355.5 77 L 359 78.5 L 357.5 79 L 355.5 77 Z "/>
    <path fill="#ffffff" d="M 171.5 80 L 173 80.5 L 166.5 83 L 166.5 82 L 171.5 80 Z "/>
    <path fill="#ffffff" d="M 369.5 83 L 382 89.5 L 380.5 89 L 369.5 84 L 369.5 83 Z "/>
    <path fill="#ffffff" d="M 161.5 84 L 163 84.5 L 159.5 86 L 159.5 85 L 161.5 84 Z "/>
    <path fill="#ffffff" d="M 148.5 90 L 150 90.5 L 143.5 94 L 144.5 92 L 148.5 90 Z "/>
    <path fill="#ffffff" d="M 385.5 91 L 389 93.5 L 387.5 93 L 385.5 91 Z "/>
    <path fill="#ffffff" d="M 140.5 94 L 142 94.5 L 137.5 97 L 138.5 95 L 140.5 94 Z "/>
    <path fill="#ffffff" d="M 390.5 94 L 394 96.5 L 392.5 96 L 390.5 94 Z "/>
    <path fill="#ffffff" d="M 135.5 97 L 134.5 99 L 129.5 102 L 130.5 100 L 135.5 97 Z "/>
    <path fill="#ffffff" d="M 395.5 97 L 401 101.5 L 398.5 100 L 395.5 97 Z "/>
    <path fill="#ffffff" d="M 115.5 110 L 112.5 114 L 107.5 118 L 111.5 113 L 115.5 110 Z "/>
    <path fill="#ffffff" d="M 437.5 136 L 443 142.5 L 440 140.5 L 437.5 136 Z "/>
    <path fill="#ffffff" d="M 88.5 137 L 87 139.5 L 85.5 142 L 86 140.5 L 88.5 137 Z "/>
    <path fill="#ffffff" d="M 84.5 143 L 84 144.5 L 82.5 147 L 83 145.5 L 84.5 143 Z "/>
    <path fill="#ffffff" d="M 445.5 147 L 449 151.5 L 447 150.5 L 445.5 147 Z "/>
    <path fill="#ffffff" d="M 80.5 150 L 81 151.5 L 79.5 154 L 79 152.5 L 80.5 150 Z "/>
    <path fill="#ffffff" d="M 452.5 158 L 455 161.5 L 453 160.5 L 452.5 158 Z "/>
    <path fill="#ffffff" d="M 76.5 162 L 77 166.5 L 76 166.5 L 76.5 162 Z "/>
    <path fill="#ffffff" d="M 75.5 169 L 76 174.5 L 75 174.5 L 75.5 169 Z "/>
    <path fill="#ffffff" d="M 459.5 171 L 462 176.5 L 461 176.5 L 459.5 171 Z "/>
    <path fill="#ffffff" d="M 76.5 177 L 78 183.5 L 77 183.5 L 76.5 177 Z "/>
    <path fill="#ffffff" d="M 463.5 180 L 465 183.5 L 464 183.5 L 463.5 180 Z "/>
    <path fill="#ffffff" d="M 78.5 186 L 81 191.5 L 79 190.5 L 78.5 186 Z "/>
    <path fill="#ffffff" d="M 470.5 201 L 472 207.5 L 471 207.5 L 470.5 201 Z "/>
    <path fill="#ffffff" d="M 107.5 215 L 111 217.5 L 109.5 217 L 107.5 215 Z "/>
    <path fill="#ffffff" d="M 474.5 220 L 475 225.5 L 474 225.5 L 474.5 220 Z "/>
    <path fill="#ffffff" d="M 475.5 227 L 476 233.5 L 475 233.5 L 475.5 227 Z "/>
    <path fill="#ffffff" d="M 126.5 230 L 130 234.5 L 128 233.5 L 126.5 230 Z "/>
    <path fill="#ffffff" d="M 161.5 234 L 171.5 236 L 178 241.5 Q 182.4 247.1 182 257.5 Q 180 268 173.5 274 Q 166.8 281.8 151.5 281 Q 143.2 279.3 139 273.5 Q 136.2 271.8 137 266.5 L 144 255.5 L 146 243.5 L 145 239.5 L 147.5 237 L 161.5 234 Z "/>
    <path fill="#ffffff" d="M 131.5 239 L 132 247.5 L 131 247.5 L 131.5 239 Z "/>
    <path fill="#ffffff" d="M 476.5 244 L 477 250.5 L 476 250.5 L 476.5 244 Z "/>
    <path fill="#ffffff" d="M 129.5 252 L 130 253.5 L 126.5 258 L 128 255.5 L 129.5 252 Z "/>
    <path fill="#ffffff" d="M 475.5 259 L 476 264.5 L 475 264.5 L 475.5 259 Z "/>
    <path fill="#ffffff" d="M 474.5 267 L 475 271.5 L 474 271.5 L 474.5 267 Z "/>
    <path fill="#ffffff" d="M 102.5 274 L 104 274.5 L 100.5 276 L 100.5 275 L 102.5 274 Z "/>
    <path fill="#ffffff" d="M 90.5 278 L 93 278.5 L 87.5 280 L 87.5 279 L 90.5 278 Z "/>
    <path fill="#ffffff" d="M 471.5 283 L 472 286.5 L 470.5 290 L 470 287.5 L 471.5 283 Z "/>
    <path fill="#ffffff" d="M 54.5 288 L 56 288.5 L 52.5 291 L 54.5 288 Z "/>
    <path fill="#ffffff" d="M 468.5 295 L 469 296.5 L 467.5 300 L 467 297.5 L 468.5 295 Z "/>
    <path fill="#ffffff" d="M 42.5 300 L 42 301.5 L 40.5 305 L 40 303.5 L 42.5 300 Z "/>
    <path fill="#ffffff" d="M 39.5 306 L 40 307.5 L 37.5 315 L 37 311.5 L 39.5 306 Z "/>
    <path fill="#ffffff" d="M 464.5 306 L 465 307.5 L 463.5 310 L 463 308.5 L 464.5 306 Z "/>
    <path fill="#ffffff" d="M 462.5 311 L 463 312.5 L 460.5 317 L 460 315.5 L 462.5 311 Z "/>
    <path fill="#ffffff" d="M 36.5 320 L 37 324.5 L 36 324.5 L 36.5 320 Z "/>
    <path fill="#ffffff" d="M 452.5 332 L 452 333.5 L 448.5 339 L 449 337.5 L 452.5 332 Z "/>
    <path fill="#ffffff" d="M 38.5 335 L 40 340.5 L 39 340.5 L 38.5 335 Z "/>
    <path fill="#ffffff" d="M 40.5 343 L 43 349.5 L 42 349.5 L 40.5 343 Z "/>
    <path fill="#ffffff" d="M 441.5 349 L 440 351.5 L 436.5 356 L 439 352.5 L 441.5 349 Z "/>
    <path fill="#ffffff" d="M 48.5 361 L 51 364.5 L 49 363.5 L 48.5 361 Z "/>
    <path fill="#ffffff" d="M 51.5 366 L 55 370.5 L 52 368.5 L 51.5 366 Z "/>
    <path fill="#ffffff" d="M 93.5 408 L 98 411.5 L 96.5 411 L 93.5 408 Z "/>
    <path fill="#ffffff" d="M 373.5 410 L 372.5 412 L 370.5 413 L 371.5 411 L 373.5 410 Z "/>
    <path fill="#ffffff" d="M 99.5 412 L 104 415.5 L 101.5 414 L 99.5 412 Z "/>
    <path fill="#ffffff" d="M 105.5 416 L 109 418.5 L 107.5 418 L 105.5 416 Z "/>
    <path fill="#ffffff" d="M 362.5 416 L 361.5 418 L 359.5 419 L 360.5 417 L 362.5 416 Z "/>
    <path fill="#ffffff" d="M 118.5 423 L 123 425.5 L 121.5 426 L 118.5 423 Z "/>
    <path fill="#ffffff" d="M 348.5 423 L 350 423.5 L 346.5 425 L 346.5 424 L 348.5 423 Z "/>
    <path fill="#ffffff" d="M 341.5 426 L 343 426.5 L 339.5 428 L 339.5 427 L 341.5 426 Z "/>
    <path fill="#ffffff" d="M 126.5 427 L 132 429.5 L 130.5 430 L 126.5 428 L 126.5 427 Z "/>
    <path fill="#ffffff" d="M 336.5 428 L 338 428.5 L 334.5 430 L 334.5 429 L 336.5 428 Z "/>
    <path fill="#ffffff" d="M 133.5 430 L 137 431.5 L 135.5 432 L 133.5 430 Z "/>
    <path fill="#ffffff" d="M 331.5 430 L 333 430.5 L 329.5 432 L 329.5 431 L 331.5 430 Z "/>
    <path fill="#ffffff" d="M 323.5 433 L 325 433.5 L 318.5 436 L 318.5 435 L 323.5 433 Z "/>
    <path fill="#ffffff" d="M 310.5 437 L 313 437.5 L 307.5 439 L 307.5 438 L 310.5 437 Z "/>
    <path fill="#ffffff" d="M 166.5 441 L 173 442.5 L 169.5 443 L 166.5 442 L 166.5 441 Z "/>
    <path fill="#ffffff" d="M 295.5 441 L 298 441.5 L 291.5 443 L 291.5 442 L 295.5 441 Z "/>
    <path fill="#ffffff" d="M 179.5 444 L 188 445.5 L 183.5 446 L 179.5 445 L 179.5 444 Z "/>
    <path fill="#ffffff" d="M 275.5 445 L 280 445.5 L 275.5 446 L 275.5 445 Z "/>
    <path fill="#ffffff" d="M 268.5 446 L 273 446.5 L 268.5 447 L 268.5 446 Z "/>
    <path fill="#ffffff" d="M 198.5 447 L 204 447.5 L 198.5 448 L 198.5 447 Z "/>
    <path fill="#ffffff" d="M 258.5 447 L 264 447.5 L 258.5 448 L 258.5 447 Z "/>
    <path fill="#ffffff" d="M 206.5 448 L 220 448.5 L 206.5 449 L 206.5 448 Z "/>
    <path fill="#ffffff" d="M 244.5 448 L 256 448.5 L 244.5 449 L 244.5 448 Z "/>
    <path fill="#ffffff" d="M 222.5 449 L 241 449.5 L 222.5 450 L 222.5 449 Z "/>
    <path fill="#4da3ff" d="M 365.5 271 L 372.5 271 L 380 277.5 L 383.5 282 L 391.5 284 L 397 287.5 Q 399.5 291 398 298.5 L 394 306.5 L 377.5 326 L 361.5 336 L 351.5 337 L 341 328.5 L 338 316.5 L 341 307.5 L 350 295.5 L 351 283.5 L 357.5 274 L 365.5 271 Z "/>
    <path fill="#ffd43b" d="M 262.5 76 L 294.5 77 L 295.5 78 L 315.5 80 L 328.5 84 L 332.5 84 L 353.5 91 Q 374.8 99.7 392.5 112 L 421 137.5 Q 442.1 160.9 454 193.5 L 461 221.5 L 463 250.5 L 462 251.5 L 461 270.5 L 458 284.5 L 452 299.5 L 452 302.5 L 444 319.5 Q 426.8 351.3 400.5 374 Q 365.4 404.9 316.5 422 L 309.5 423 L 292.5 429 L 269.5 433 L 255.5 434 L 254.5 435 L 209.5 435 L 208.5 434 L 185.5 432 L 181.5 430 L 172.5 429 L 164.5 426 L 160.5 426 L 133.5 416 L 101.5 398 Q 84.9 386.6 72 371.5 Q 58.9 357.1 52 336.5 Q 49.2 327.8 51 314.5 Q 53.7 304.8 61.5 300 L 73.5 296 L 87.5 294 L 105.5 289 L 124.5 278 L 127 278 L 134.5 288 L 148.5 294 L 161.5 294 L 177.5 288 L 186 280.5 L 193 269.5 L 195 261.5 L 195 249.5 Q 192.6 235.4 183.5 228 L 171.5 222 L 155.5 221 L 140.5 225 L 129.5 213 L 107.5 200 L 97 191.5 L 90 179.5 L 89 170.5 L 92 158.5 L 97 148.5 L 104 139 Q 106.7 140.1 106 137.5 L 117.5 126 L 134.5 114 L 164.5 98 L 191.5 88 L 219.5 81 L 230.5 80 L 237.5 78 L 261.5 77 L 262.5 76 Z M 365 259 L 357 261 L 347 267 L 340 279 L 338 293 L 328 306 L 326 313 Q 325 329 333 338 Q 340 347 354 349 L 367 347 L 381 339 L 400 320 L 410 300 Q 412 287 407 281 Q 402 272 390 271 L 387 268 L 378 260 L 365 259 Z M 255 321 L 247 324 L 236 334 Q 230 336 222 335 L 214 339 Q 205 345 202 356 Q 200 375 207 385 Q 213 393 225 396 L 238 395 L 252 389 Q 261 388 267 391 Q 281 393 288 386 Q 294 380 297 371 Q 299 356 294 350 Q 289 342 280 340 L 273 328 Q 269 319 255 321 Z "/>
    <path fill="#ff6b6b" d="M 254.5 332 Q 256 334.5 261.5 333 L 266 335.5 L 265 337.5 L 267 337.5 L 266 339.5 L 268 339.5 L 267 341.5 L 269 342.5 L 269 344.5 L 269.5 346 Q 271.3 343.3 273 347.5 L 272.5 349 L 274.5 348 L 274.5 350 L 277.5 351 L 279 350.5 L 278.5 352 L 281.5 353 Q 283.3 350.3 285 354.5 L 284 356.5 L 286 356.5 L 285 358.5 L 287 358.5 L 286 363.5 L 286 365.5 L 287 367.5 L 285 368 L 286 371.5 L 284 371.5 L 285 373.5 L 280 377.5 L 278.5 380 Q 275.3 377.7 268.5 379 L 265.5 380 L 265.5 379 L 268 378.5 L 263.5 378 L 260.5 379 L 260.5 377 L 248.5 380 L 245.5 379 L 245.5 381 L 242.5 380 L 242.5 382 L 237.5 384 L 234.5 383 L 226.5 385 L 224.5 384 L 223 384.5 L 221.5 382 L 219.5 381 Q 217.8 383.8 216 379.5 L 216.5 378 L 214 376.5 L 214.5 375 Q 211.9 375.8 213 372.5 L 212 368.5 L 212 366.5 L 213 363.5 L 212 360.5 L 212.5 358 L 213.5 360 L 214 357.5 L 213 355.5 L 218.5 348 L 220.5 348 L 223 347.5 L 222.5 346 L 225.5 347 L 225.5 346 L 224 345.5 L 225.5 345 L 229.5 346 L 231.5 345 Q 232.8 347.3 237.5 346 L 237.5 345 L 236 344.5 L 238.5 344 L 240 344.5 L 241.5 342 L 246.5 338 Q 248.3 340.7 250 336.5 Q 247.7 335.3 250.5 334 L 252.5 334 L 255 333.5 L 254.5 332 Z "/>
    <path fill="#66d9e8" d="M 367.5 269 L 371.5 269 L 378 272 L 384.5 281 Q 393.3 281.4 398 285 Q 400.9 288.9 400 297.5 L 395 308.5 L 377.5 328 Q 369.2 336.2 355.5 339 Q 354.3 336.7 349.5 338 L 340 329.5 L 337 323.5 Q 338.2 318.8 336 317.5 L 339 307.5 Q 344.9 302.9 348 295.5 L 349 285.5 L 351 279.5 L 356.5 273 L 367.5 269 Z M 366 271 L 358 274 L 351 284 L 350 296 L 341 308 L 338 317 L 341 329 L 352 337 L 362 336 L 378 326 L 394 307 L 398 299 Q 400 291 397 288 L 392 284 L 384 282 L 380 278 L 373 271 L 366 271 Z "/>
    <path fill="#f783ac" d="M 255.5 332 Q 262.8 330.8 265 334.5 L 263.5 334 L 255.5 333 Q 248.3 334.8 245.5 341 L 247 338.5 L 248.5 336 L 255.5 332 Z "/>
    <path fill="#f783ac" d="M 265.5 336 L 267 339.5 L 266 339.5 L 265.5 336 Z "/>
    <path fill="#f783ac" d="M 268.5 343 L 272.5 348 L 282 352.5 L 280.5 352 Q 272.7 350.8 269 345.5 L 268.5 343 Z "/>
    <path fill="#f783ac" d="M 226.5 345 L 230 345.5 L 219.5 349 L 220.5 347 L 226.5 345 Z "/>
    <path fill="#f783ac" d="M 232.5 345 L 238 345.5 L 232.5 346 L 232.5 345 Z "/>
    <path fill="#f783ac" d="M 283.5 354 L 286 358.5 L 285 358.5 L 283.5 354 Z "/>
    <path fill="#f783ac" d="M 285.5 368 L 286 370.5 L 283.5 374 L 284 372.5 L 285.5 368 Z "/>
    <path fill="#f783ac" d="M 216.5 378 L 223 383.5 L 221.5 384 L 219 383 L 216.5 378 Z "/>
    <path fill="#f783ac" d="M 248.5 378 L 250 378.5 L 245.5 380 L 245.5 379 L 248.5 378 Z "/>
    <path fill="#f783ac" d="M 263.5 378 L 277 379.5 L 268.5 380 L 263.5 379 L 263.5 378 Z "/>
    <path fill="#f783ac" d="M 237.5 382 L 236.5 384 L 230.5 385 L 230.5 384 L 237.5 382 Z "/>
  </g>
  <g id="line">
    <path fill="#1a1a1a" d="M 252.5 63 L 289.5 63 L 290.5 64 L 307.5 65 L 346.5 74 Q 372.9 83.1 394.5 97 Q 415.5 111 432 129.5 Q 452.8 152.7 465 184.5 L 474 218.5 L 474 225.5 L 476 234.5 L 476 258.5 L 475 259.5 L 473 278.5 L 469 294.5 L 460 317.5 Q 452.5 334.5 442 348.5 L 421 374 L 419.5 374 L 396.5 395 L 374.5 410 L 350.5 423 L 326.5 433 L 303.5 440 L 274.5 446 L 258.5 447 L 257.5 448 L 244.5 448 L 243.5 449 L 220.5 449 L 219.5 448 L 194.5 447 L 182.5 444 L 177.5 444 L 157.5 439 L 125.5 427 L 109.5 419 L 89.5 406 L 61 379.5 Q 50.4 366.6 43 350.5 L 37 329.5 L 37 315.5 Q 39.8 298.8 51.5 291 L 66.5 284 L 89.5 280 L 101.5 276 Q 116.3 270.3 126 259.5 L 132 247.5 L 132 239.5 Q 129.5 231 123.5 226 Q 113.2 216.8 99.5 211 L 85 198.5 L 78 185.5 L 76 176.5 L 76 167.5 L 79 154.5 L 85 142.5 Q 93.7 128.2 106.5 118 Q 131.9 96.4 165.5 83 L 206.5 70 L 226.5 66 L 251.5 64 L 252.5 63 Z M 263 76 L 262 77 L 238 78 L 231 80 L 220 81 L 192 88 L 165 98 L 135 114 L 118 126 L 106 138 Q 107 140 104 139 L 97 149 L 92 159 L 89 171 L 90 180 L 97 192 L 108 200 L 130 213 L 141 225 L 156 221 L 172 222 L 184 228 Q 193 235 195 250 L 195 262 L 193 270 L 186 281 L 178 288 L 162 294 L 149 294 L 135 288 L 127 278 L 125 278 L 106 289 L 88 294 L 74 296 L 62 300 Q 54 305 51 315 Q 49 328 52 337 Q 59 357 72 372 Q 85 387 102 398 L 134 416 L 161 426 L 165 426 L 173 429 L 182 430 L 186 432 L 209 434 L 210 435 L 255 435 L 256 434 L 270 433 L 293 429 L 310 423 L 317 422 Q 365 405 401 374 Q 427 351 444 320 L 452 303 L 452 300 L 458 285 L 461 271 L 462 252 L 463 251 L 461 222 L 454 194 Q 442 161 421 138 L 393 112 Q 375 100 354 91 L 333 84 L 329 84 L 316 80 L 296 78 L 295 77 L 263 76 Z M 162 234 L 148 237 L 145 240 L 146 244 L 144 256 L 137 267 Q 136 272 139 274 Q 143 279 152 281 Q 167 282 174 274 Q 180 268 182 258 Q 182 247 178 242 L 172 236 L 162 234 Z "/>
    <path fill="#1a1a1a" d="M 364.5 259 L 377.5 260 L 387 267.5 L 389.5 271 Q 401.6 272.4 407 280.5 Q 411.8 286.7 410 299.5 L 400 319.5 L 380.5 339 L 366.5 347 L 353.5 349 Q 339.8 346.8 333 337.5 Q 325.3 329.2 326 312.5 L 328 305.5 L 338 292.5 L 340 278.5 L 347 267 L 356.5 261 L 364.5 259 Z M 368 269 L 357 273 L 351 280 L 349 286 L 348 296 Q 345 303 339 308 L 336 318 Q 338 319 337 324 L 340 330 L 350 338 Q 354 337 356 339 Q 369 336 378 328 L 395 309 L 400 298 Q 401 289 398 285 Q 393 281 385 281 L 378 272 L 372 269 L 368 269 Z "/>
    <path fill="#1a1a1a" d="M 254.5 321 Q 268.5 319.5 273 327.5 L 279.5 340 Q 289.5 342 294 349.5 Q 299.1 356.4 297 370.5 Q 294.1 380.1 287.5 386 Q 281.3 392.8 266.5 391 Q 261.4 387.6 251.5 389 L 237.5 395 L 224.5 396 Q 212.6 393.4 207 384.5 Q 199.5 375 202 355.5 Q 205.1 344.6 213.5 339 L 221.5 335 Q 230.4 336.4 235.5 334 L 246.5 324 L 254.5 321 Z M 255 332 L 240 344 L 225 345 L 219 348 Q 214 352 212 359 Q 210 373 216 380 Q 220 385 228 386 L 238 384 L 255 378 L 260 378 L 266 380 L 279 380 Q 285 376 287 368 Q 289 359 285 355 L 274 348 Q 267 344 266 336 Q 264 330 255 332 Z "/>
  </g>
</svg>
