<svg xmlns="http://www.w3.org/2000/svg" width="512" height="512" viewBox="0 0 512 512">
  <g id="color">
    <path fill="#ffffff" d="M 220.5 169 L 294 169.5 L 220.5 170 L 220.5 169 Z "/>
    <path fill="#ffffff" d="M 140.5 170 L 195 170.5 L 140.5 171 L 140.5 170 Z "/>
    <path fill="#ffffff" d="M 308.5 170 L 341 170.5 L 308.5 171 L 308.5 170 Z "/>
    <path fill="#ffffff" d="M 90.5 171 L 116 171.5 L 90.5 172 L 90.5 171 Z "/>
    <path fill="#ffffff" d="M 47.5 172 L 54 172.5 L 47.5 173 L 47.5 172 Z "/>
    <path fill="#ffffff" d="M 65.5 172 L 78 172.5 L 65.5 173 L 65.5 172 Z "/>
    <path fill="#ffffff" d="M 37.5 184 L 38 202.5 L 37 202.5 L 37.5 184 Z "/>
    <path fill="#ffffff" d="M 373.5 187 L 385 187.5 L 373.5 188 L 373.5 187 Z "/>
    <path fill="#ffffff" d="M 392.5 188 L 401 188.5 L 392.5 189 L 392.5 188 Z "/>
    <path fill="#ffffff" d="M 404.5 189 L 410 189.5 L 404.5 190 L 404.5 189 Z "/>
    <path fill="#ffffff" d="M 355.5 195 L 356 204.5 L 355 204.5 L 355.5 195 Z "/>
    <path fill="#ffffff" d="M 36.5 211 L 37 265.5 L 36 265.5 L 36.5 211 Z "/>
    <path fill="#ffffff" d="M 356.5 222 L 357 262.5 L 356 262.5 L 356.5 222 Z "/>
    <path fill="#ffffff" d="M 363.5 223 L 364 240.5 L 363 240.5 L 363.5 223 Z "/>
    <path fill="#ffffff" d="M 443.5 245 L 442.5 247 L 440 246.5 L 443.5 245 Z "/>
    <path fill="#ffffff" d="M 474.5 272 L 475 280.5 L 474 280.5 L 474.5 272 Z "/>
    <path fill="#ffffff" d="M 37.5 275 L 38 286.5 L 37 286.5 L 37.5 275 Z "/>
    <path fill="#ffffff" d="M 355.5 276 L 356 282.5 L 355 282.5 L 355.5 276 Z "/>
    <path fill="#ffffff" d="M 363.5 277 L 364 283.5 L 360.5 286 L 360.5 285 L 363 283.5 L 363.5 277 Z "/>
    <path fill="#ffffff" d="M 475.5 292 L 476 299.5 L 475 299.5 L 475.5 292 Z "/>
    <path fill="#ffffff" d="M 42.5 293 L 48 295.5 L 46.5 295 Q 41.9 295.8 42.5 293 Z "/>
    <path fill="#ffffff" d="M 266.5 293 L 273 293.5 L 266.5 294 L 266.5 293 Z "/>
    <path fill="#ffffff" d="M 274.5 298 L 275 310.5 L 274 310.5 L 274.5 298 Z "/>
    <path fill="#ffffff" d="M 476.5 303 L 477 310.5 L 476 310.5 L 476.5 303 Z "/>
    <path fill="#ffffff" d="M 247.5 313 L 246.5 315 L 244 314.5 L 247.5 313 Z "/>
    <path fill="#ffffff" d="M 197.5 315 L 242 315.5 L 197.5 316 L 197.5 315 Z "/>
    <path fill="#ffffff" d="M 57.5 316 L 64 316.5 L 57.5 317 L 57.5 316 Z "/>
    <path fill="#ffffff" d="M 67.5 320 L 68 324.5 L 67 324.5 L 67.5 320 Z "/>
    <path fill="#ffffff" d="M 283.5 320 Q 288 319 289 321.5 L 287.5 321 Q 282.5 322 283.5 320 Z "/>
    <path fill="#ffffff" d="M 337 321 L 374 321.5 L 338.5 322 L 337.5 323 L 337 321 Z "/>
    <path fill="#ffffff" d="M 392.5 321 L 397 321.5 L 392.5 322 L 392.5 321 Z "/>
    <path fill="#ffffff" d="M 447.5 321 L 464 321.5 L 447.5 322 L 447.5 321 Z "/>
    <path fill="#ffffff" d="M 78.5 339 L 83 341.5 L 81.5 342 L 78.5 339 Z "/>
    <path fill="#ffffff" d="M 134.5 339 L 139 341.5 L 137.5 342 L 134.5 339 Z "/>
    <path fill="#ffffff" d="M 408.5 339 L 413 341.5 L 411.5 342 L 408.5 339 Z "/>
    <path fill="#ffffff" d="M 323.5 340 L 325 340.5 L 321.5 342 L 321.5 341 L 323.5 340 Z "/>
    <path fill="#4da3ff" d="M 208.5 178 L 295.5 178 L 296.5 179 L 301.5 178 L 302.5 179 L 341.5 179 L 346 182.5 L 347 202.5 L 348 203.5 L 348 205.5 L 348 270.5 L 347 271.5 L 347 273.5 L 347 284 L 342.5 284 L 341.5 285 L 323 285 L 322 243.5 L 321 238.5 L 315.5 228 L 304.5 224 L 294.5 224 L 285.5 227 L 282 230.5 L 277 238.5 L 276 243.5 L 275 273.5 L 276 274.5 L 276 285 L 178.5 286 L 177.5 287 L 123.5 287 Q 122.2 284.7 117.5 286 L 116.5 287 L 51.5 287 L 46 286 L 46 269.5 L 45 268.5 L 45 208.5 L 46 207.5 L 46 182.5 L 47.5 181 L 49.5 180 L 69.5 180 L 73.5 181 L 74.5 180 L 112.5 180 Q 114.2 177.3 120.5 179 L 122.5 179 L 207.5 179 L 208.5 178 Z "/>
    <path fill="#4da3ff" d="M 373 196 L 410.5 198 Q 422 201 428 209.5 L 429 213 L 412.5 215 L 406 220.5 L 403 227.5 L 402 239.5 Q 403.8 248.8 410.5 253 L 415.5 255 L 425.5 256 L 426.5 255 L 448.5 254 L 464 265.5 L 466 271.5 L 468 310.5 L 464.5 313 L 446 313 Q 443.9 301.5 434.5 296 L 425.5 293 L 417.5 293 L 407.5 297 L 401 302 L 397 313 L 339.5 313 L 337 310.5 Q 335.1 300.9 327.5 297 L 325 295.5 L 325.5 294 L 363.5 294 L 370 289.5 L 372 275.5 L 371 274.5 L 371 242.5 L 372 241.5 L 372 200.5 L 373 196 Z "/>
    <path fill="#4da3ff" d="M 425.5 222 L 432.5 224 L 436 223 L 441 241.5 L 439 244.5 L 439.5 246 L 417.5 246 L 415 245 L 414.5 243 L 413 243.5 L 413.5 242 L 412 241.5 L 412 228 L 414 227.5 L 413.5 226 Q 414.8 228.3 416 225.5 L 417.5 223 Q 423.8 224.7 425.5 222 Z "/>
    <path fill="#4da3ff" d="M 296.5 233 Q 307.3 231.7 311 237.5 L 313 248.5 L 313 257.5 L 314 258.5 L 314 278.5 L 313 285 L 286.5 285 L 286 283.5 L 285 282.5 L 285 263.5 L 284 260.5 L 285 259.5 L 285 246.5 L 287 238.5 L 289.5 236 L 296.5 233 Z M 305 254 L 302 255 L 301 258 L 302 263 Q 303 265 308 264 Q 311 263 310 257 Q 309 253 305 254 Z "/>
    <path fill="#4da3ff" d="M 284 295 L 302 295.5 L 294 301.5 L 287.5 312 Q 283.8 312.8 283 310.5 L 283 297.5 L 284 295 Z "/>
    <path fill="#ffd43b" d="M 88.5 301 L 98.5 302 L 106 308.5 Q 110.1 312.9 109 322.5 L 103.5 332 Q 98.5 337.5 86.5 336 L 78 330.5 L 74 323.5 L 74 314.5 Q 76.3 307.8 81.5 304 L 88.5 301 Z "/>
    <path fill="#ffd43b" d="M 144.5 301 Q 157.9 300.1 162 308.5 Q 166.5 313 165 323.5 L 159.5 332 Q 154.5 337.5 142.5 336 Q 136 334.5 133 329.5 Q 128.5 325 130 314.5 Q 131.8 307.3 137.5 304 L 144.5 301 Z "/>
    <path fill="#ffd43b" d="M 310.5 301 L 317.5 301 L 327 307.5 L 331 316.5 L 331 321.5 Q 328.8 329.8 322.5 334 Q 317.8 337.3 308.5 336 Q 302 334.5 299 329.5 L 296 324.5 L 295 317.5 Q 296.8 308.3 303.5 304 L 310.5 301 Z "/>
    <path fill="#ffd43b" d="M 419.5 301 Q 432.1 300.4 436 308.5 Q 440.5 313 439 323.5 L 432.5 333 Q 427.3 337.3 416.5 336 L 407 329.5 Q 402.5 325 404 314.5 Q 406.3 307.8 411.5 304 L 419.5 301 Z "/>
    <path fill="#66d9e8" d="M 255.5 176 L 260.5 177 L 343.5 178 L 347 181.5 Q 349.6 187.4 348 197.5 L 349 198.5 L 349 276.5 Q 346.5 278 348 283.5 L 345.5 286 L 322.5 286 L 321 284.5 L 322 269.5 L 321 268.5 L 321 248.5 Q 318.5 247 320 241.5 L 317 232.5 L 312.5 228 L 302.5 225 L 295.5 225 Q 286.5 226.5 282 232.5 L 279 237.5 L 277 246.5 L 277 283.5 Q 279.7 285.3 275.5 287 L 89.5 288 L 88.5 289 L 66.5 289 L 65.5 288 L 46.5 288 L 45 286.5 L 44 284.5 L 43 231.5 L 44 230.5 L 44 182.5 L 47.5 179 L 59.5 178 L 60.5 179 L 98.5 179 L 99.5 178 L 176.5 178 L 177.5 177 L 254.5 177 L 255.5 176 Z M 209 178 L 208 179 L 123 179 L 121 179 Q 114 177 113 180 L 75 180 L 74 181 L 70 180 L 50 180 L 48 181 L 46 183 L 46 208 L 45 209 L 45 269 L 46 270 L 46 286 L 52 287 L 117 287 L 118 286 Q 122 285 124 287 L 178 287 L 179 286 L 276 285 L 276 275 L 275 274 L 276 244 L 277 239 L 282 231 L 286 227 L 295 224 L 305 224 L 316 228 L 321 239 L 322 244 L 323 285 L 342 285 L 343 284 L 347 284 L 347 274 L 347 272 L 348 271 L 348 206 L 348 204 L 347 203 L 346 183 L 342 179 L 303 179 L 302 178 L 297 179 L 296 178 L 209 178 Z "/>
    <path fill="#66d9e8" d="M 373.5 195 L 393.5 195 L 394.5 196 L 411.5 197 Q 423.2 199.8 429 208.5 L 432 215 L 413.5 216 L 407 221.5 Q 401.9 228.4 404 242.5 L 409.5 251 L 417.5 254 L 438.5 254 L 447.5 252 L 460.5 260 L 465 264.5 L 468 275.5 L 469 311.5 L 466.5 314 L 447.5 315 L 445 314 Q 443.4 305.3 437.5 300 Q 431 293 415.5 295 L 404 301 L 399 309.5 L 398 314 L 338.5 315 L 336 312.5 L 333 304.5 L 326.5 298 L 314 293.5 L 365.5 292 L 369 288.5 L 370 286.5 L 371 197.5 L 373.5 195 Z M 373 196 L 372 201 L 372 242 L 371 243 L 371 275 L 372 276 L 370 290 L 364 294 L 326 294 L 325 296 L 328 297 Q 335 301 337 311 L 340 313 L 397 313 L 401 302 L 408 297 L 418 293 L 426 293 L 435 296 Q 444 301 446 313 L 465 313 L 468 311 L 466 272 L 464 266 L 449 254 L 427 255 L 426 256 L 416 255 L 411 253 Q 404 249 402 240 L 403 228 L 406 221 L 413 215 L 429 213 L 428 210 Q 422 201 411 198 L 373 196 Z "/>
    <path fill="#66d9e8" d="M 420.5 221 L 429.5 221 L 436 222.5 L 431.5 224 L 425.5 222 Q 423.8 224.7 417.5 223 L 416 224.5 L 413.5 228 L 412 228.5 L 412 242 L 415 243.5 Q 414.3 245.8 416.5 245 L 417.5 246 L 439.5 246 L 440 243.5 L 441 241.5 L 436 224.5 L 438 225.5 L 443 246 L 430.5 248 L 422.5 248 Q 421.2 245.7 416.5 247 L 411 242.5 L 411 227.5 L 414.5 223 L 420.5 221 Z "/>
    <path fill="#66d9e8" d="M 294.5 232 Q 307.8 229.8 312 236.5 L 315 253.5 L 315 285.5 L 313.5 287 L 304.5 287 L 302.5 286 L 301.5 287 L 289.5 287 L 284 286 L 284 278.5 L 283 277.5 L 283 250.5 L 285 240.5 L 289.5 234 L 294.5 232 Z M 297 233 L 290 236 L 287 239 L 285 247 L 285 260 L 284 261 L 285 264 L 285 283 L 286 284 L 287 285 L 313 285 L 314 279 L 314 259 L 313 258 L 313 249 L 311 238 Q 307 232 297 233 Z "/>
    <path fill="#66d9e8" d="M 304.5 254 Q 309.3 253.3 310 256.5 Q 311.3 262.8 307.5 264 Q 303 265 302 262.5 L 301 257.5 L 302 255 L 304.5 254 Z M 306 255 L 303 256 L 302 259 L 303 262 L 307 263 Q 310 262 309 258 L 306 255 Z "/>
    <path fill="#66d9e8" d="M 226.5 293 L 254.5 293 L 256 294.5 L 244.5 307 L 242.5 308 L 211.5 308 L 210.5 309 L 208.5 308 L 207.5 309 L 169 309 Q 167.9 302.4 162.5 299 L 157 295.5 L 181.5 295 L 182.5 294 L 225.5 294 L 226.5 293 Z "/>
    <path fill="#66d9e8" d="M 284.5 293 L 311 293.5 L 300.5 298 L 296 301.5 Q 291 305.8 290 313 Q 283.9 314.7 282 311.5 L 281 300.5 L 282 295.5 L 284.5 293 Z M 284 295 L 283 298 L 283 311 Q 284 313 288 312 L 294 302 L 302 296 L 284 295 Z "/>
    <path fill="#66d9e8" d="M 55 295 L 81.5 295 L 82 297 L 74 301 L 70 309 L 56.5 309 L 55 307.5 L 55 295 Z "/>
    <path fill="#66d9e8" d="M 101 295 L 137.5 295 L 138 297 L 129 302.5 L 124.5 310 L 114.5 310 L 113 308.5 L 106.5 299 L 101 297 L 101 295 Z "/>
  </g>
  <g id="line">
    <path fill="#1a1a1a" d="M 195.5 170 L 307.5 170 L 308.5 171 L 342.5 171 Q 349.1 171.9 352 176.5 L 355 186.5 L 355 204.5 L 356 205.5 L 356 275.5 L 355 276.5 L 355 286 L 359.5 285 L 361.5 286 Q 365.5 284.5 364 277.5 L 363 276.5 L 363 241.5 L 364 240.5 L 364 199.5 L 366 192.5 L 369.5 189 L 371.5 188 L 391.5 188 L 392.5 189 L 403.5 189 L 404.5 190 L 415.5 191 Q 425.9 194.1 432 201.5 L 442 217.5 L 450 243.5 L 455.5 250 Q 464.6 252.9 470 259.5 L 474 269.5 L 476 312.5 L 471.5 319 L 466.5 321 L 447.5 321 L 445 323.5 Q 443.4 334.4 435.5 339 L 424.5 343 L 417.5 343 Q 408.6 340.9 403 335.5 Q 397.7 329.7 397 321 L 337.5 321 Q 336.5 321 337 325.5 Q 334.5 333.5 328.5 338 Q 321.7 343.7 308.5 343 Q 299.1 340.9 294 334.5 L 287.5 320 Q 279.2 321.3 277 316.5 L 275 312.5 L 275 296.5 L 276 294.5 L 272.5 293 Q 266.4 292.3 264 294 L 261 299.5 L 248.5 313 L 243.5 315 L 197.5 315 L 196.5 316 L 172 316 Q 172.6 330.2 164.5 337 Q 157.1 343.6 142.5 343 L 129 335.5 Q 123.1 328.5 123 317 L 116 317 L 116 320.5 L 112 332.5 L 105.5 339 L 94.5 343 L 86.5 343 Q 76.3 340.3 71 332.5 L 68 325.5 L 67 318.5 L 68 316 L 54.5 316 L 50 312.5 Q 46.6 306.4 48 295.5 L 46.5 294 Q 40.3 294.7 39 290.5 Q 36.5 285 38 275.5 L 37 274.5 L 37 203.5 L 38 202.5 L 38 182.5 Q 39.3 176.8 43.5 174 L 54.5 172 L 64.5 172 L 65.5 173 L 77.5 173 L 78.5 172 L 115.5 172 L 116.5 171 L 194.5 171 L 195.5 170 Z M 256 176 L 255 177 L 178 177 L 177 178 L 100 178 L 99 179 L 61 179 L 60 178 L 48 179 L 44 183 L 44 231 L 43 232 L 44 285 L 45 287 L 47 288 L 66 288 L 67 289 L 89 289 L 90 288 L 276 287 Q 280 285 277 284 L 277 247 L 279 238 L 282 233 Q 286 226 296 225 L 303 225 L 313 228 L 317 233 L 320 242 Q 319 247 321 249 L 321 269 L 322 270 L 321 285 L 323 286 L 346 286 L 348 284 Q 347 278 349 277 L 349 199 L 348 198 Q 350 187 347 182 L 344 178 L 261 177 L 256 176 Z M 374 195 L 371 198 L 370 287 L 369 289 L 366 292 L 312 294 L 327 298 L 333 305 L 336 313 L 339 315 L 398 314 L 399 310 L 404 301 L 416 295 Q 431 293 438 300 Q 443 305 445 314 L 448 315 L 467 314 L 469 312 L 468 276 L 465 265 L 461 260 L 448 252 L 439 254 L 418 254 L 410 251 L 404 243 Q 402 228 407 222 L 414 216 L 432 215 L 429 209 Q 423 200 412 197 L 395 196 L 394 195 L 374 195 Z M 421 221 L 415 223 L 411 228 L 411 243 L 417 247 Q 421 246 423 248 L 443 247 L 444 246 L 437 224 L 436 222 Q 431 223 430 221 L 421 221 Z M 295 232 L 290 234 L 285 241 L 283 251 L 283 278 L 284 279 L 284 286 L 290 287 L 302 287 L 303 286 L 305 287 L 314 287 L 315 286 L 315 254 L 312 237 Q 308 230 295 232 Z M 227 293 L 226 294 L 183 294 L 182 295 L 157 296 L 163 299 Q 168 302 169 309 L 208 309 L 209 308 L 211 309 L 212 308 L 243 308 L 245 307 L 256 295 L 255 293 L 227 293 Z M 285 293 L 282 296 L 281 301 L 282 312 Q 284 315 290 313 Q 291 306 296 302 L 301 298 L 311 294 L 285 293 Z M 55 295 L 55 308 L 57 309 L 70 309 L 74 301 L 82 297 L 82 295 L 55 295 Z M 101 295 L 101 297 L 107 299 L 113 309 L 115 310 L 125 310 L 129 303 L 138 297 L 138 295 L 101 295 Z M 89 301 L 82 304 Q 76 308 74 315 L 74 324 L 78 331 L 87 336 Q 99 338 104 332 L 109 323 Q 110 313 106 309 L 99 302 L 89 301 Z M 145 301 L 138 304 Q 132 307 130 315 Q 129 325 133 330 Q 136 334 143 336 Q 155 338 160 332 L 165 324 Q 167 313 162 309 Q 158 300 145 301 Z M 311 301 L 304 304 Q 297 308 295 318 L 296 325 L 299 330 Q 302 334 309 336 Q 318 337 323 334 Q 329 330 331 322 L 331 317 L 327 308 L 318 301 L 311 301 Z M 420 301 L 412 304 Q 406 308 404 315 Q 403 325 407 330 L 417 336 Q 427 337 433 333 L 439 324 Q 441 313 436 309 Q 432 300 420 301 Z "/>
    <path fill="#1a1a1a" d="M 305.5 255 L 309 257.5 Q 309.8 262.3 306.5 263 L 303 262 L 302 258.5 L 303 256 L 305.5 255 Z "/>
  </g>
</svg>
