<svg xmlns="http://www.w3.org/2000/svg" width="512" height="512" viewBox="0 0 512 512">
  <g id="color">
    <path fill="#ffffff" d="M 250.5 35 L 263 35.5 L 250.5 36 L 250.5 35 Z "/>
    <path fill="#ffffff" d="M 243.5 36 L 248 36.5 L 243.5 37 L 243.5 36 Z "/>
    <path fill="#ffffff" d="M 265.5 36 L 270 36.5 L 265.5 37 L 265.5 36 Z "/>
    <path fill="#ffffff" d="M 228.5 40 L 230 40.5 L 226.5 42 L 226.5 41 L 228.5 40 Z "/>
    <path fill="#ffffff" d="M 200.5 61 L 200 62.5 L 197.5 66 L 199 63.5 L 200.5 61 Z "/>
    <path fill="#ffffff" d="M 195.5 69 L 195 70.5 L 193.5 73 L 194 71.5 L 195.5 69 Z "/>
    <path fill="#ffffff" d="M 321.5 77 L 323 80.5 L 322 80.5 L 321.5 77 Z "/>
    <path fill="#ffffff" d="M 190.5 79 L 191 81.5 L 189.5 84 L 189 82.5 L 190.5 79 Z "/>
    <path fill="#ffffff" d="M 179.5 88 L 177 91.5 L 175.5 94 L 176 92.5 L 179.5 88 Z "/>
    <path fill="#ffffff" d="M 233.5 98 L 236 98.5 L 230.5 102 L 233.5 98 Z "/>
    <path fill="#ffffff" d="M 274.5 99 L 276 99.5 L 271 103.5 L 270.5 105 L 270 103.5 L 274.5 99 Z "/>
    <path fill="#ffffff" d="M 339.5 99 L 340 103.5 L 339 103.5 L 339.5 99 Z "/>
    <path fill="#ffffff" d="M 173.5 100 L 174 105.5 L 173 105.5 L 173.5 100 Z "/>
    <path fill="#ffffff" d="M 282.5 100 L 285 103.5 L 284 103.5 L 282.5 100 Z "/>
    <path fill="#ffffff" d="M 229.5 103 L 231 109.5 L 230 109.5 L 229.5 103 Z "/>
    <path fill="#ffffff" d="M 276.5 104 Q 280.5 103.5 281 106.5 L 278.5 105 L 274.5 107 L 276.5 104 Z "/>
    <path fill="#ffffff" d="M 285.5 105 L 286 107.5 L 284 108.5 L 285.5 105 Z "/>
    <path fill="#ffffff" d="M 173.5 108 L 174 114.5 L 173 114.5 L 173.5 108 Z "/>
    <path fill="#ffffff" d="M 270.5 108 L 272.5 109 L 274 108.5 L 271.5 110 L 270.5 108 Z "/>
    <path fill="#ffffff" d="M 241.5 109 L 239.5 112 L 238 111.5 L 241.5 109 Z "/>
    <path fill="#ffffff" d="M 258.5 111 Q 262.3 110.3 263 112.5 L 262.5 114 L 262 112 Q 257.6 113 258.5 111 Z "/>
    <path fill="#ffffff" d="M 339.5 111 L 340 115.5 L 339 115.5 L 339.5 111 Z "/>
    <path fill="#ffffff" d="M 221.5 115 L 229 115.5 L 221.5 116 L 221.5 115 Z "/>
    <path fill="#ffffff" d="M 230.5 116 L 234 120.5 L 233 120.5 L 230.5 116 Z "/>
    <path fill="#ffffff" d="M 253.5 116 Q 252.8 124.2 257.5 127 L 264 128.5 L 259.5 129 L 254 124.5 Q 251.7 121.6 253.5 116 Z "/>
    <path fill="#ffffff" d="M 175.5 121 L 180.5 128 L 184 129.5 L 182.5 130 L 176 124.5 L 175.5 121 Z "/>
    <path fill="#ffffff" d="M 264.5 122 Q 268.3 121.3 269 123.5 L 268.5 125 L 268 123 Q 263.6 124 264.5 122 Z "/>
    <path fill="#ffffff" d="M 336.5 124 L 332.5 129 L 329.5 130 L 329.5 129 L 336.5 124 Z "/>
    <path fill="#ffffff" d="M 223.5 127 L 229 127.5 L 223.5 128 L 223.5 127 Z "/>
    <path fill="#ffffff" d="M 186.5 130 Q 191 129 192 131.5 L 190.5 131 Q 185.5 132 186.5 130 Z "/>
    <path fill="#ffffff" d="M 322.5 130 L 327 130.5 L 321.5 132 L 322.5 130 Z "/>
    <path fill="#ffffff" d="M 194.5 138 Q 197.5 139.5 194.5 141 L 191 140.5 L 195 139.5 L 194.5 138 Z "/>
    <path fill="#ffffff" d="M 185.5 141 L 189 141.5 L 183.5 143 L 183.5 142 L 185.5 141 Z "/>
    <path fill="#ffffff" d="M 339.5 151 L 341 155.5 L 340 155.5 L 339.5 151 Z "/>
    <path fill="#ffffff" d="M 172.5 154 L 173 156.5 L 171.5 162 L 171 157.5 L 172.5 154 Z "/>
    <path fill="#ffffff" d="M 342.5 163 L 343 168.5 L 342 168.5 L 342.5 163 Z "/>
    <path fill="#ffffff" d="M 170.5 164 L 171 170.5 L 170 170.5 L 170.5 164 Z "/>
    <path fill="#ffffff" d="M 351.5 193 L 356 198.5 L 353 196.5 L 351.5 193 Z "/>
    <path fill="#ffffff" d="M 151.5 208 L 151 209.5 L 149.5 212 L 150 210.5 L 151.5 208 Z "/>
    <path fill="#ffffff" d="M 364.5 213 L 368 218.5 L 366 217.5 L 364.5 213 Z "/>
    <path fill="#ffffff" d="M 146.5 217 L 146 218.5 L 144.5 222 L 144 220.5 L 146.5 217 Z "/>
    <path fill="#ffffff" d="M 141.5 227 L 142 228.5 L 140.5 231 L 140 229.5 L 141.5 227 Z "/>
    <path fill="#ffffff" d="M 375.5 237 L 377 240.5 L 376 240.5 L 375.5 237 Z "/>
    <path fill="#ffffff" d="M 379.5 249 L 381 254.5 L 380 254.5 L 379.5 249 Z "/>
    <path fill="#ffffff" d="M 127.5 276 L 128 280.5 L 127 280.5 L 127.5 276 Z "/>
    <path fill="#ffffff" d="M 171.5 288 Q 174 289 173 293.5 L 172 293.5 L 171.5 291 L 170.5 294 L 170 291.5 L 171.5 288 Z "/>
    <path fill="#ffffff" d="M 341.5 288 L 343 292.5 L 342 292.5 L 341.5 291 L 339.5 299 L 339 296.5 L 341.5 288 Z "/>
    <path fill="#ffffff" d="M 388.5 295 L 389 301.5 L 388 301.5 L 388.5 295 Z "/>
    <path fill="#ffffff" d="M 124.5 298 L 125 317.5 L 124 317.5 L 124.5 298 Z "/>
    <path fill="#ffffff" d="M 170.5 299 L 174 305.5 L 173 305.5 L 170.5 299 Z "/>
    <path fill="#ffffff" d="M 389.5 304 L 390 310.5 L 389 310.5 L 389.5 304 Z "/>
    <path fill="#ffffff" d="M 180.5 308 L 185 310.5 L 183.5 311 L 180.5 308 Z "/>
    <path fill="#ffffff" d="M 332.5 308 L 331.5 310 L 328.5 311 L 328.5 310 L 332.5 308 Z "/>
    <path fill="#ffffff" d="M 175.5 310 L 176 317.5 L 175 317.5 L 175.5 310 Z "/>
    <path fill="#ffffff" d="M 324 311 L 326 311.5 L 324.5 317 L 324 311 Z "/>
    <path fill="#ffffff" d="M 337.5 311 L 338 316.5 L 337 316.5 L 337.5 311 Z "/>
    <path fill="#ffffff" d="M 388.5 313 L 389 319.5 L 388 319.5 L 388.5 313 Z "/>
    <path fill="#ffffff" d="M 188.5 317 L 189 325.5 L 188 325.5 L 188.5 317 Z "/>
    <path fill="#ffffff" d="M 174.5 319 L 175 320.5 L 169.5 325 L 169.5 324 L 174 320.5 L 174.5 319 Z "/>
    <path fill="#ffffff" d="M 338.5 319 L 342 323.5 L 338 320.5 L 338.5 319 Z "/>
    <path fill="#ffffff" d="M 325.5 322 L 326 326.5 L 325 326.5 L 325.5 322 Z "/>
    <path fill="#ffffff" d="M 165.5 324 L 165 325.5 L 164.5 329 L 164 325.5 L 165.5 324 Z "/>
    <path fill="#ffffff" d="M 385.5 328 L 386 329.5 L 383.5 333 L 384 331.5 L 385.5 328 Z "/>
    <path fill="#ffffff" d="M 326.5 329 L 327 333.5 L 326 333.5 L 326.5 329 Z "/>
    <path fill="#ffffff" d="M 187.5 331 L 188 335.5 L 187 335.5 L 187.5 331 Z "/>
    <path fill="#ffffff" d="M 327.5 336 L 328 340.5 L 327 340.5 L 327.5 336 Z "/>
    <path fill="#ffffff" d="M 186.5 341 L 187 349.5 L 186 349.5 L 186.5 341 Z "/>
    <path fill="#ffffff" d="M 328.5 345 L 329 350.5 L 328 350.5 L 328.5 345 Z "/>
    <path fill="#ffffff" d="M 260.5 350 L 262 354.5 L 261 354.5 L 260.5 350 Z "/>
    <path fill="#ffffff" d="M 185.5 352 L 186 362.5 L 185 362.5 L 185.5 352 Z "/>
    <path fill="#ffffff" d="M 329.5 357 L 330 362.5 L 329 362.5 L 329.5 357 Z "/>
    <path fill="#ffffff" d="M 264.5 364 L 266 371.5 L 265 371.5 L 264.5 364 Z "/>
    <path fill="#ffffff" d="M 184.5 367 L 185 377.5 L 184 377.5 L 184.5 367 Z "/>
    <path fill="#ffffff" d="M 330.5 369 L 331 376.5 L 330 376.5 L 330.5 369 Z "/>
    <path fill="#ffffff" d="M 331.5 379 L 332 396.5 L 331 396.5 L 331.5 379 Z "/>
    <path fill="#ffffff" d="M 269.5 388 L 270 392.5 L 269 392.5 L 269.5 388 Z "/>
    <path fill="#ffffff" d="M 183.5 394 L 184 424.5 L 183 424.5 L 183.5 394 Z "/>
    <path fill="#ffffff" d="M 243.5 407 L 244 411.5 L 242.5 418 L 242 412.5 L 243.5 407 Z "/>
    <path fill="#ffffff" d="M 332.5 410 L 333 424.5 L 332 424.5 L 332.5 410 Z "/>
    <path fill="#ffffff" d="M 273.5 414 L 274 419.5 L 273 419.5 L 273.5 414 Z "/>
    <path fill="#ffffff" d="M 241.5 421 L 242 425.5 L 241 425.5 L 241.5 421 Z "/>
    <path fill="#ffffff" d="M 274.5 421 L 275 425.5 L 274 425.5 L 274.5 421 Z "/>
    <path fill="#ffffff" d="M 275.5 430 L 276 434.5 L 275 434.5 L 275.5 430 Z "/>
    <path fill="#ffffff" d="M 240.5 431 L 241 435.5 L 240 435.5 L 240.5 431 Z "/>
    <path fill="#ffffff" d="M 331.5 433 L 332 439 L 334 439.5 L 332.5 440 Q 329.4 438.4 331.5 433 Z "/>
    <path fill="#ffffff" d="M 184.5 436 L 185 438.5 L 182.5 440 L 182.5 439 Q 185.4 439.7 184.5 436 Z "/>
    <path fill="#ffffff" d="M 239.5 440 L 240 446.5 L 239 446.5 L 239.5 440 Z "/>
    <path fill="#ffffff" d="M 276.5 440 L 277 445.5 L 276 445.5 L 276.5 440 Z "/>
    <path fill="#ffffff" d="M 238.5 449 L 239 455.5 L 238 455.5 L 238.5 449 Z "/>
    <path fill="#ffffff" d="M 277.5 450 L 278 454.5 L 277 454.5 L 277.5 450 Z "/>
    <path fill="#ffffff" d="M 278.5 456 L 279 461.5 L 278 461.5 L 278.5 456 Z "/>
    <path fill="#ffffff" d="M 352.5 456 Q 355.9 459.6 354 468.5 L 353 468.5 Q 353.6 459.6 352.5 456 Z "/>
    <path fill="#ffffff" d="M 237.5 458 L 238 462.5 L 237 462.5 L 237.5 458 Z "/>
    <path fill="#ffffff" d="M 162.5 459 L 163 467.5 L 162 467.5 L 162.5 459 Z "/>
    <path fill="#ffffff" d="M 279.5 463 Q 279.3 467.3 282 468.5 L 279 466.5 L 279.5 463 Z "/>
    <path fill="#ffffff" d="M 236.5 466 L 233.5 470 L 232 469.5 L 236.5 466 Z "/>
    <path fill="#ffffff" d="M 163.5 469 L 167 473.5 L 163 470.5 L 163.5 469 Z "/>
    <path fill="#ffffff" d="M 174.5 476 L 179 476.5 L 174.5 477 L 174.5 476 Z "/>
    <path fill="#ffffff" d="M 197.5 476 L 205 476.5 L 197.5 477 L 197.5 476 Z "/>
    <path fill="#ffffff" d="M 312.5 476 L 319 476.5 L 312.5 477 L 312.5 476 Z "/>
    <path fill="#ffffff" d="M 337.5 476 L 342 476.5 L 337.5 477 L 337.5 476 Z "/>
    <path fill="#ffffff" d="M 180.5 477 L 195 477.5 L 180.5 478 L 180.5 477 Z "/>
    <path fill="#ffffff" d="M 321.5 477 L 336 477.5 L 321.5 478 L 321.5 477 Z "/>
    <path fill="#4da3ff" d="M 189.5 147 L 198.5 147 L 201 149.5 L 203 152.5 L 199.5 161 L 193.5 163 L 177.5 175 L 177 163.5 L 179 154.5 L 183.5 149 L 189.5 147 Z "/>
    <path fill="#4da3ff" d="M 314.5 147 Q 328.8 145.8 334 153.5 L 336 161.5 L 336 171.5 L 337 174 L 334.5 174 Q 325.1 164.9 312 159.5 L 311 151.5 L 314.5 147 Z "/>
    <path fill="#4da3ff" d="M 202.5 167 L 217.5 176 L 240.5 182 Q 250.1 180.6 254 183 L 253 246.5 L 254 247.5 L 254 278.5 L 252.5 280 L 237.5 280 L 236.5 279 L 219.5 278 L 199 273 L 202 231.5 L 201 228 L 197.5 227 L 194 229.5 L 188 239 Q 185 237.8 186 241.5 L 176 257.5 L 175 262.5 L 172 266.5 L 168.5 276 L 155.5 275 Q 144.3 272.2 137 265.5 Q 141.3 236.8 154.5 217 Q 160.3 220.2 170.5 219 L 181 213 L 186 205.5 L 187 191.5 L 181 181.5 Q 189.6 172.1 202.5 167 Z "/>
    <path fill="#4da3ff" d="M 309.5 167 L 317.5 170 L 335 183 L 347 197.5 L 360 217.5 L 370 239.5 L 371 246.5 L 375 255.5 L 376 264.5 L 375 267 L 357.5 275 L 345.5 276 L 332 247.5 Q 325.2 240.9 322 232 Q 319.3 233.1 320 230.5 L 316.5 228 L 314.5 229 Q 313.3 226.8 312 229.5 L 312 247.5 L 313 248.5 L 313 263.5 L 314 264.5 L 314 273 L 304.5 276 L 299.5 276 L 286.5 279 L 261 280 L 260 226.5 Q 262.3 225.3 261 220.5 L 260 215.5 L 260 213.5 L 260 188.5 L 259 185.5 L 260 182 L 277.5 181 L 292.5 177 L 301.5 172 L 304 172 Q 302.9 169.3 305.5 170 L 309.5 167 Z "/>
    <path fill="#4da3ff" d="M 193.5 244 L 194 247.5 L 193 248.5 L 193 262.5 L 191 273.5 L 191 275.5 L 191 287.5 L 189 296.5 L 189 298.5 Q 190.5 305.5 187.5 305 L 182 302 L 178 288.5 L 178 271.5 L 187 252.5 L 193.5 244 Z "/>
    <path fill="#4da3ff" d="M 320.5 244 L 334 267.5 Q 336.7 275.8 335 288.5 L 334 291.5 L 334 295.5 L 332 301 Q 329.3 299.9 330 302.5 L 326.5 304 L 324 303.5 L 322 270.5 L 321 269.5 L 321 259.5 L 320 258.5 L 320.5 244 Z "/>
    <path fill="#4da3ff" d="M 199 280 L 212.5 284 L 218.5 284 L 234 287 L 234 295.5 L 232.5 297 L 231.5 296 L 223.5 296 L 222.5 295 L 211.5 294 L 198 290 Q 197 283.1 199 280 Z "/>
    <path fill="#4da3ff" d="M 197 297 L 210.5 301 L 227.5 304 L 229.5 304 L 249.5 305 L 250.5 306 L 266.5 306 L 267.5 305 L 277.5 305 L 278.5 304 L 298.5 302 L 315.5 297 L 317 298.5 L 318 317.5 L 320 323.5 L 322 351.5 L 324 360.5 L 324 362.5 L 326 401 Q 320.6 401.3 317.5 405 L 301.5 409 L 287.5 409 Q 286.2 406.8 281.5 408 L 278 405.5 L 275 382.5 L 272 373.5 L 272 371.5 L 265 343 L 275 340 L 275 335 L 268.5 335 Q 263.1 338.6 252.5 337 L 243.5 334 L 241 335 Q 240 339.7 243.5 341 L 251 344.5 L 246 364.5 L 244 367.5 L 244 373.5 L 241 384.5 L 238 405.5 L 236.5 407 L 227.5 409 L 215.5 409 L 198.5 405 L 190 400.5 L 190 379.5 L 191 378.5 L 191 361.5 L 192 360.5 L 192 358.5 L 192 346.5 L 193 345.5 L 194 324.5 L 195 323.5 L 196 303.5 L 197 302.5 L 197 300.5 L 197 297 Z "/>
    <path fill="#ffd43b" d="M 254.5 40 L 272.5 42 L 289.5 48 Q 301.4 55.1 310 65.5 L 319 85 Q 306.4 74.1 287.5 68 L 268.5 64 L 244.5 64 L 222.5 69 L 205.5 77 L 195.5 85 L 195 81.5 Q 200.7 65.7 212.5 56 L 223.5 48 L 233.5 44 L 254.5 40 Z "/>
    <path fill="#ffd43b" d="M 187.5 90 L 188 95.5 L 187 96.5 L 187 112.5 L 190 124.5 L 187.5 126 L 180 120.5 L 178 111.5 L 178 101.5 Q 179.1 94.1 184.5 91 L 187.5 90 Z "/>
    <path fill="#ffd43b" d="M 325 90 Q 330.4 90.7 333 95.5 Q 336.3 101.3 335 111.5 L 333 120.5 L 328.5 125 L 324.5 126 L 324 121.5 L 326 112.5 L 326 95.5 L 325 90 Z "/>
    <path fill="#ffd43b" d="M 288.5 115 Q 294.7 114.3 296 118.5 Q 296.5 123.5 292.5 124 L 286.5 126 L 281 124 L 280 121.5 L 284.5 116 L 288.5 115 Z "/>
    <path fill="#ffd43b" d="M 209.5 155 Q 221.7 162.3 238.5 165 Q 244 163.5 245.5 166 L 268.5 166 L 288.5 162 Q 295 157.5 304.5 156 Q 307.3 157.3 306 162.5 L 293.5 170 L 282.5 174 L 271.5 175 L 270.5 176 L 262.5 176 L 261.5 177 L 252.5 177 L 251.5 176 L 235.5 175 L 225.5 172 L 213.5 167 L 207 161.5 Q 206 156 209.5 155 Z "/>
    <path fill="#ffd43b" d="M 134 271 L 148.5 279 L 159.5 282 L 166.5 282 L 168 283.5 L 165 291.5 L 165 299.5 Q 170.6 304.9 171 315.5 L 170 319 L 166.5 320 L 161.5 315 L 159.5 315 Q 156.8 316.3 159 317.5 L 159 331.5 L 153.5 338 L 144.5 339 L 135 332.5 L 131 324.5 L 129 315.5 L 129 301.5 L 130 300.5 L 131 286.5 L 134 271 Z "/>
    <path fill="#ffd43b" d="M 377.5 271 L 380 272.5 L 382 291.5 L 384 298.5 L 384 317.5 Q 382.1 329.6 374.5 336 Q 370.7 340.2 361.5 339 L 356 334.5 Q 352.2 329.8 354 319.5 L 355 315 Q 351.2 314 350 316.5 L 348.5 319 L 345.5 320 L 343 319 L 342 313.5 Q 343.7 304.2 349 298.5 L 349 295.5 L 346 286.5 L 346 282 Q 366.5 281.8 377.5 271 Z "/>
    <path fill="#ffd43b" d="M 189.5 407 L 209.5 414 L 227.5 415 L 236.5 413 Q 239.3 414.3 237 415.5 L 236 435.5 L 235 436.5 L 233 461.5 L 232 465 L 210.5 471 L 202.5 471 L 201.5 472 L 176.5 472 L 168 468.5 L 167 461.5 Q 168.9 452.4 175.5 448 Q 180.5 442.5 192.5 444 L 201.5 448 L 205 448 L 205 444 L 203.5 444 L 196.5 440 Q 191.1 440.6 189 439 L 189 409.5 L 188 408.5 L 189.5 407 Z "/>
    <path fill="#ffd43b" d="M 325.5 407 L 327 407.5 L 327 438.5 Q 325.5 441.5 319.5 440 L 311 445.5 Q 309.7 449.7 314.5 448 Q 319.8 442.8 331.5 444 Q 341.4 446.1 346 453.5 Q 349.9 457.6 349 466.5 L 346.5 470 L 340.5 472 L 315.5 472 L 314.5 471 L 300.5 470 L 284 465 L 282 452.5 L 280 423.5 L 278 413 L 289.5 415 L 299.5 415 L 300.5 414 L 311.5 413 L 325.5 407 Z "/>
    <path fill="#ff6b6b" d="M 236.5 99 L 241 102.5 Q 242.3 108.8 238.5 110 L 235.5 111 L 231 107.5 Q 230.9 101.9 234.5 100 L 236.5 99 Z "/>
    <path fill="#ff6b6b" d="M 276.5 100 L 283 102 L 284 107.5 L 281 105.5 Q 281.8 103.3 279.5 104 L 276.5 103 L 272.5 106 L 272 103.5 L 276.5 100 Z "/>
    <path fill="#ff6b6b" d="M 259.5 113 L 260 114.5 L 257 120.5 L 258 123 L 266 124 Q 267.1 126.7 264.5 126 L 260.5 127 L 255 122.5 L 254 119.5 L 254 117.5 L 257.5 114 L 259.5 113 Z "/>
    <path fill="#ff6b6b" d="M 220.5 117 Q 229.2 115.3 232 119.5 Q 233 124 230.5 125 L 222.5 126 L 219 123.5 L 218 120.5 L 220.5 117 Z "/>
    <path fill="#ff6b6b" d="M 173.5 187 L 175.5 187 L 180 189.5 L 179.5 191 Q 181.8 190.3 181 192.5 Q 178.5 194 180 199.5 L 180.5 203 L 179 202.5 L 180 204.5 L 178 205.5 L 178.5 207 Q 177.3 204.8 176 207.5 Q 178.7 209.2 174.5 211 L 172.5 212 L 171 211.5 Q 171.8 213.8 169.5 213 Q 168 210.5 162.5 212 L 160.5 213 L 157 210.5 L 158.5 207 L 160 207.5 L 159 205.5 L 162 203.5 L 161.5 202 L 164 200.5 Q 161.8 199.3 164.5 198 L 167 196.5 Q 164.8 195.3 167.5 194 L 169 193.5 L 168 192.5 L 173.5 187 Z "/>
    <path fill="#51cf66" d="M 286.5 114 Q 295.3 112.3 297 117.5 Q 298 124 293.5 125 Q 290.6 127.6 284.5 127 L 280 125 L 279 119.5 L 286.5 114 Z M 289 115 L 285 116 L 280 122 L 281 124 L 287 126 L 293 124 Q 297 124 296 119 Q 295 114 289 115 Z "/>
    <path fill="#51cf66" d="M 313.5 279 Q 317.7 277.7 316 282.5 Q 318.5 284 317 289.5 L 315.5 291 L 301.5 295 L 286.5 298 L 278 298 L 278 287.5 L 277 286.5 L 278.5 285 L 287.5 285 L 288.5 284 L 299.5 283 L 313.5 279 Z "/>
    <path fill="#51cf66" d="M 240 286 L 272.5 286 L 273 286.5 L 273 295.5 L 273 297.5 L 272.5 299 L 258.5 299 L 256.5 300 L 255.5 299 L 240 299 L 240 286 Z "/>
    <path fill="#66d9e8" d="M 253.5 68 L 271.5 69 L 293.5 75 Q 309.3 81.7 320 93.5 L 322 108.5 L 318 127.5 Q 313.3 140 306 149 L 291.5 156 L 280.5 158 L 276.5 160 L 251.5 162 L 221.5 156 L 207 149 Q 198.8 138.8 194 124.5 L 192 114.5 L 192 95.5 L 199.5 87 L 219.5 75 L 236.5 70 L 252.5 69 L 253.5 68 Z M 234 98 L 229 104 L 230 109 Q 229 111 232 110 L 232 112 L 240 112 L 243 108 L 242 101 Q 240 97 234 98 Z M 275 99 L 270 104 L 270 109 L 273 110 L 274 108 Q 274 105 279 105 L 281 109 Q 285 110 286 108 L 285 103 Q 283 98 275 99 Z M 259 111 L 257 112 L 253 117 L 254 125 L 260 129 Q 266 130 268 127 L 269 125 L 268 122 L 262 123 Q 258 122 259 118 L 262 116 L 263 113 Q 262 110 259 111 Z M 287 114 L 279 120 L 280 125 L 285 127 Q 291 128 294 125 Q 298 124 297 118 Q 295 112 287 114 Z M 222 115 L 220 116 L 216 121 L 217 124 L 224 128 Q 230 129 233 126 L 234 120 Q 232 113 222 115 Z "/>
    <path fill="#66d9e8" d="M 191.5 145 Q 201.3 143.3 203 149.5 L 204 155.5 L 200.5 162 L 192.5 165 L 177.5 177 L 175 177 L 177 155.5 L 182.5 148 L 191.5 145 Z M 190 147 L 184 149 L 179 155 L 177 164 L 178 175 L 194 163 L 200 161 L 203 153 L 201 150 L 199 147 L 190 147 Z "/>
    <path fill="#66d9e8" d="M 314.5 145 L 320.5 145 L 328.5 147 L 335 152.5 L 338 166.5 L 338 177.5 L 336.5 177 Q 325.6 166.9 311 160.5 L 309 151.5 L 314.5 145 Z M 315 147 L 311 152 L 312 160 Q 325 165 335 174 L 337 174 L 336 172 L 336 162 L 334 154 Q 329 146 315 147 Z "/>
    <path fill="#66d9e8" d="M 202.5 165 L 222.5 176 L 237.5 180 L 254.5 181 L 256 182.5 L 255 184.5 L 255 281 L 222.5 280 L 199.5 275 L 197 272.5 L 198 271.5 L 198 257.5 L 199 256.5 L 199 246.5 L 200 245.5 L 200 229.5 Q 198.8 226.8 197.5 229 L 195 230.5 Q 178.9 250.7 170 277 L 153.5 276 Q 142.6 272.4 135 265.5 L 142 238.5 L 153 215 L 162.5 218 L 169.5 218 Q 176.9 215.9 181 210.5 Q 186 205.5 186 195.5 L 185 190.5 L 180 180.5 Q 189.3 170.8 202.5 165 Z M 203 167 Q 190 172 181 182 L 187 192 L 186 206 L 181 213 L 171 219 Q 160 220 155 217 Q 141 237 137 266 Q 144 272 156 275 L 169 276 L 172 267 L 175 263 L 176 258 L 186 242 Q 185 238 188 239 L 194 230 L 198 227 L 201 228 L 202 232 L 199 273 L 220 278 L 237 279 L 238 280 L 253 280 L 254 279 L 254 248 L 253 247 L 254 183 Q 250 181 241 182 L 218 176 L 203 167 Z "/>
    <path fill="#66d9e8" d="M 308.5 166 L 312.5 166 L 323.5 172 L 345 192.5 L 357 209.5 L 367 228.5 L 376 253.5 L 378 265.5 Q 370.4 272.4 359.5 276 L 344.5 278 L 333 252.5 L 321 233.5 L 315 227.5 L 316.5 228 L 320 230.5 L 322 233.5 L 332 247.5 L 345.5 276 L 357.5 275 L 375 267 L 376 260.5 L 371 246.5 L 370 239.5 L 360 217.5 L 347 197.5 L 335 183 L 317.5 170 L 309.5 167 L 304 170 Q 305.3 173 301.5 172 L 292.5 177 L 277.5 181 L 260 182 L 259 187.5 L 260 188.5 L 260 213.5 L 261 214.5 L 260 219.5 Q 262.3 220.8 261 225.5 L 260 226.5 L 260 240.5 L 261 241.5 L 261 280 L 286.5 279 L 287.5 278 L 304.5 276 L 314 273 L 314 264.5 L 313 263.5 L 313 248.5 L 312 247.5 L 312 229.5 L 314 228.5 Q 311.5 232 313 239.5 L 314 240.5 L 315 270.5 L 316 271.5 L 315 274 L 290.5 280 L 260.5 281 L 259 279.5 L 259 194.5 L 258 193.5 L 258 182.5 L 259.5 181 L 275.5 180 L 290.5 176 Q 301.3 172.8 308.5 166 Z "/>
    <path fill="#66d9e8" d="M 193 240 L 195 240.5 L 195 255.5 L 193 266.5 L 191 302.5 L 190 306 L 186.5 306 L 180 301.5 L 177 291.5 L 177 270.5 L 193 240 Z M 194 244 L 187 253 L 178 272 L 178 289 L 182 302 L 188 305 Q 191 305 189 299 L 189 297 L 191 288 L 191 276 L 191 274 L 193 263 L 193 249 L 194 248 L 194 244 Z "/>
    <path fill="#66d9e8" d="M 318 240 Q 320.7 238.9 320 241.5 L 326 249.5 L 336 269.5 L 336 293.5 L 333 301.5 L 330.5 304 Q 328.3 307 323 306 L 322 290.5 L 321 289.5 L 321 275.5 L 320 274.5 L 320 264.5 L 319 263.5 L 318 240 Z M 321 244 L 320 259 L 321 260 L 321 270 L 322 271 L 324 304 L 327 304 L 330 303 Q 329 300 332 301 L 334 296 L 334 292 L 335 289 Q 337 276 334 268 L 321 244 Z "/>
    <path fill="#66d9e8" d="M 197 279 L 202.5 279 L 206.5 281 L 221.5 284 L 236 285 L 235 298 L 226.5 298 L 210.5 295 L 198.5 292 L 196 289.5 L 197 279 Z M 199 280 Q 197 283 198 290 L 212 294 L 223 295 L 224 296 L 232 296 L 233 297 L 234 296 L 234 287 L 219 284 L 213 284 L 199 280 Z "/>
    <path fill="#66d9e8" d="M 196 295 L 208.5 299 L 224.5 302 L 231.5 302 L 232.5 303 L 241.5 303 L 242.5 304 L 273.5 304 L 274.5 303 L 282.5 303 L 283.5 302 L 290.5 302 L 300.5 300 L 316.5 295 L 318 296.5 Q 316.5 302 319 303.5 L 319 312.5 L 320 313.5 L 320 321.5 L 322 329.5 L 325 366.5 L 326 367.5 L 327 401.5 Q 312.4 411.9 285.5 410 L 277 408 L 271 370.5 L 263 343.5 L 271.5 340 L 274 337.5 Q 273.3 335.3 269.5 336 L 265.5 338 L 250.5 338 L 242 336 L 244.5 340 Q 250.3 340.3 253 343.5 L 246 366.5 L 239 408 L 230.5 410 L 212.5 410 L 197.5 406 L 188 400.5 L 189 395.5 L 190 354.5 L 192 344.5 L 193 319.5 L 194 318.5 L 195 299.5 L 196 295 Z M 197 297 L 197 301 L 197 303 L 196 304 L 195 324 L 194 325 L 193 346 L 192 347 L 192 359 L 192 361 L 191 362 L 191 379 L 190 380 L 190 401 L 199 405 L 216 409 L 228 409 L 237 407 L 238 406 L 241 385 L 244 374 L 244 368 L 246 365 L 251 345 L 244 341 Q 240 340 241 335 L 244 334 L 253 337 Q 263 339 269 335 L 275 335 L 275 340 L 265 343 L 272 372 L 272 374 L 275 383 L 278 406 L 282 408 Q 286 407 288 409 L 302 409 L 318 405 Q 321 401 326 401 L 324 363 L 324 361 L 322 352 L 320 324 L 318 318 L 317 299 L 316 297 L 299 302 L 279 304 L 278 305 L 268 305 L 267 306 L 251 306 L 250 305 L 230 304 L 228 304 L 211 301 L 197 297 Z "/>
    <path fill="#f783ac" d="M 236.5 98 L 242 101.5 L 243 105.5 L 239.5 111 L 234.5 112 L 231 109.5 L 230 102.5 L 236.5 98 Z M 237 99 L 235 100 Q 231 102 231 108 L 236 111 L 239 110 Q 242 109 241 103 L 237 99 Z "/>
    <path fill="#f783ac" d="M 276.5 99 Q 282.7 98.3 284 102.5 L 285 107.5 Q 283.8 110.3 282.5 108 Q 280.3 108.8 281 106.5 Q 280.5 103.5 276.5 104 L 272.5 109 L 270 107.5 Q 270.5 102 274.5 100 L 276.5 99 Z M 277 100 L 272 104 L 273 106 L 277 103 L 280 104 Q 282 103 281 106 L 284 108 L 283 102 L 277 100 Z "/>
    <path fill="#f783ac" d="M 257.5 112 Q 263.4 109.9 262 114.5 L 259 116 L 258.5 118 L 258 116.5 L 260 113.5 L 258.5 114 L 254.5 117 L 254 115.5 L 257.5 112 Z "/>
    <path fill="#f783ac" d="M 220.5 116 Q 230.8 113.8 233 119.5 L 234 122.5 L 231.5 126 L 222.5 127 L 218 125 L 217 119.5 L 220.5 116 Z M 221 117 L 218 121 L 219 124 L 223 126 L 231 125 Q 233 124 232 120 Q 229 115 221 117 Z "/>
    <path fill="#f783ac" d="M 254.5 120 L 258.5 126 L 263.5 127 L 266 126 Q 267.4 122 260.5 124 L 258 123 L 257 120.5 L 259 120 L 260.5 123 L 267.5 123 L 268 125.5 Q 266 129 259.5 128 L 255 124.5 L 254.5 120 Z "/>
    <path fill="#f783ac" d="M 174 186 L 178 187.5 L 176.5 187 L 174.5 188 L 174 186 Z "/>
    <path fill="#f783ac" d="M 180.5 193 L 181 199.5 L 180 199.5 L 180.5 193 Z "/>
    <path fill="#f783ac" d="M 178.5 205 L 178 206.5 Q 178.8 208.8 176.5 208 L 175 208.5 L 178.5 205 Z "/>
    <path fill="#f783ac" d="M 162.5 212 L 169 212.5 L 162.5 213 L 162.5 212 Z "/>
  </g>
  <g id="line">
    <path fill="#1a1a1a" d="M 248.5 36 L 264.5 36 L 285.5 41 Q 301.8 47.7 312 60.5 L 321 75.5 L 324 86 Q 333.2 86.1 337 92.5 L 339 97.5 L 340 110.5 L 337 123.5 L 332.5 128 Q 329.5 131 322.5 130 L 321 131.5 L 318 141 L 331.5 143 L 338 148.5 L 342 160.5 L 343 183.5 Q 366.2 208.3 378 244.5 Q 378.4 253.1 382 258.5 L 386 280.5 L 388 301.5 L 389 302.5 L 389 312.5 L 386 327.5 Q 382.8 336.3 375.5 341 Q 371.1 345 361.5 344 Q 355.8 342.8 353 338.5 L 350 332.5 L 349 324 L 344.5 325 L 339 320.5 Q 336.5 317 338 309.5 L 344 295.5 L 341.5 288 L 338 302.5 L 333.5 308 L 327.5 311 L 324 311 L 325 326.5 L 328 341.5 L 330 376.5 L 331 377.5 L 332 432.5 Q 329.8 433.7 331 438.5 L 341.5 443 L 347 447.5 L 353 458.5 L 353 469.5 Q 350 474.5 343.5 476 L 319.5 477 L 318.5 476 L 308.5 476 L 307.5 475 L 296.5 474 L 286.5 471 L 280 466.5 L 277 449.5 L 275 421.5 L 272 407.5 L 270 388.5 L 265 364.5 L 259 344 Q 256.3 342.9 257 345.5 L 253 357.5 L 246 388.5 L 246 394.5 L 242 412.5 L 237 465.5 L 233.5 469 L 214.5 475 L 197.5 476 L 196.5 477 L 179.5 477 L 169.5 475 L 164 470.5 Q 161.3 466.7 163 458.5 Q 165.5 450 171.5 445 L 185 438.5 L 184 435.5 L 184 378.5 L 185 377.5 L 185 363.5 L 186 362.5 L 187 336.5 L 189 325.5 L 189 311 L 185.5 311 L 178 306.5 L 175 302.5 L 173 289.5 L 171.5 288 L 169 297.5 L 175 308.5 L 175 318.5 L 170.5 324 L 166.5 325 Q 165.3 322.8 164 325.5 Q 164.1 337.6 156.5 342 Q 152.9 344.9 145.5 344 Q 134.8 341.7 130 333.5 L 125 319.5 L 125 295.5 L 126 294.5 L 126 287.5 L 129 274.5 L 130 263.5 L 135 244.5 L 142 226.5 L 153 205.5 L 170 183.5 L 170 171.5 L 171 170.5 L 172 157.5 L 175 148.5 L 179.5 144 L 189.5 141 L 194.5 141 L 196 139.5 L 190.5 130 L 184.5 130 L 177 124.5 L 174 116.5 Q 175.3 109.7 173 106.5 L 174 105.5 L 175 94.5 L 180.5 88 Q 183.5 85.2 189 86 Q 194.6 63.9 210.5 51 L 230.5 40 L 248.5 36 Z M 255 40 L 234 44 L 224 48 L 213 56 Q 201 66 195 82 L 196 85 L 206 77 L 223 69 L 245 64 L 269 64 L 288 68 Q 306 74 319 85 L 310 66 Q 301 55 290 48 L 273 42 L 255 40 Z M 254 68 L 253 69 L 237 70 L 220 75 L 200 87 L 192 96 L 192 115 L 194 125 Q 199 139 207 149 L 222 156 L 252 162 L 277 160 L 281 158 L 292 156 L 306 149 Q 313 140 318 128 L 322 109 L 320 94 Q 309 82 294 75 L 272 69 L 254 68 Z M 188 90 L 185 91 Q 179 94 178 102 L 178 112 L 180 121 L 188 126 L 190 125 L 187 113 L 187 97 L 188 96 L 188 90 Z M 325 90 L 326 96 L 326 113 L 324 122 L 325 126 L 329 125 L 333 121 L 335 112 Q 336 101 333 96 Q 330 91 325 90 Z M 192 145 L 183 148 L 177 156 L 175 177 L 178 177 L 193 165 L 201 162 L 204 156 L 203 150 Q 201 143 192 145 Z M 315 145 L 309 152 L 311 161 Q 326 167 337 177 L 338 178 L 338 167 L 335 153 L 329 147 L 321 145 L 315 145 Z M 210 155 Q 206 156 207 162 L 214 167 L 226 172 L 236 175 L 252 176 L 253 177 L 262 177 L 263 176 L 271 176 L 272 175 L 283 174 L 294 170 L 306 163 Q 307 157 305 156 Q 295 158 289 162 L 269 166 L 246 166 Q 244 164 239 165 Q 222 162 210 155 Z M 203 165 Q 189 171 180 181 L 185 191 L 186 196 Q 186 206 181 211 Q 177 216 170 218 L 163 218 L 153 215 L 142 239 L 135 266 Q 143 272 154 276 L 170 277 Q 179 251 195 231 L 198 229 Q 199 227 200 230 L 200 246 L 199 247 L 199 257 L 198 258 L 198 272 L 197 273 L 200 275 L 223 280 L 255 281 L 255 185 L 256 183 L 255 181 L 238 180 L 223 176 L 203 165 Z M 309 166 Q 301 173 291 176 L 276 180 L 260 181 L 258 183 L 258 194 L 259 195 L 259 280 L 261 281 L 291 280 L 315 274 L 316 272 L 315 271 L 315 255 L 314 254 L 313 231 L 317 229 L 321 234 L 333 253 L 345 278 L 360 276 Q 370 272 378 266 L 376 254 L 367 229 L 357 210 L 345 193 L 324 172 L 313 166 L 309 166 Z M 176 185 Q 164 195 157 211 L 165 214 L 175 211 L 181 203 Q 184 188 176 185 Z M 193 240 L 177 271 L 177 292 L 180 302 L 187 306 L 190 306 L 191 303 L 193 267 L 195 256 L 195 241 L 193 240 Z M 318 240 L 319 264 L 320 265 L 320 275 L 321 276 L 321 290 L 322 291 L 323 306 Q 328 307 331 304 L 333 302 L 336 294 L 336 270 L 326 250 L 320 242 Q 321 239 318 240 Z M 134 271 L 131 287 L 130 301 L 129 302 L 129 316 L 131 325 L 135 333 L 145 339 L 154 338 L 159 332 L 159 318 Q 157 316 160 315 L 162 315 L 167 320 L 170 319 L 171 316 Q 171 305 165 300 L 165 292 L 168 284 L 167 282 L 160 282 L 149 279 L 134 271 Z M 378 271 Q 367 282 346 282 L 346 287 L 349 296 L 349 299 Q 344 304 342 314 L 343 319 L 346 320 L 349 319 L 350 317 Q 351 314 355 315 L 354 320 Q 352 330 356 335 L 362 339 Q 371 340 375 336 Q 382 330 384 318 L 384 299 L 382 292 L 380 273 L 378 271 Z M 197 279 L 196 290 L 199 292 L 211 295 L 227 298 L 235 298 L 236 285 L 222 284 L 207 281 L 203 279 L 197 279 Z M 314 279 L 300 283 L 289 284 L 288 285 L 279 285 L 277 287 L 278 288 L 278 298 L 287 298 L 302 295 L 316 291 L 317 290 Q 319 284 316 283 Q 318 278 314 279 Z M 240 286 L 240 299 L 256 299 L 257 300 L 259 299 L 273 299 L 273 298 L 273 296 L 273 287 L 273 286 L 240 286 Z M 196 295 L 195 300 L 194 319 L 193 320 L 192 345 L 190 355 L 189 396 L 188 401 L 198 406 L 213 410 L 231 410 L 239 408 L 246 367 L 253 344 Q 250 340 245 340 Q 240 338 244 336 L 251 338 L 266 338 L 270 336 Q 273 335 274 338 L 272 340 L 263 344 L 271 371 L 277 408 L 286 410 Q 312 412 327 402 L 326 368 L 325 367 L 322 330 L 320 322 L 320 314 L 319 313 L 319 304 Q 317 302 318 297 L 317 295 L 301 300 L 291 302 L 284 302 L 283 303 L 275 303 L 274 304 L 243 304 L 242 303 L 233 303 L 232 302 L 225 302 L 209 299 L 196 295 Z M 190 407 L 188 409 L 189 410 L 189 439 Q 191 441 197 440 L 204 444 L 205 444 L 205 448 L 202 448 L 193 444 Q 181 443 176 448 Q 169 452 167 462 L 168 469 L 177 472 L 202 472 L 203 471 L 211 471 L 232 465 L 233 462 L 235 437 L 236 436 L 237 416 Q 239 414 237 413 L 228 415 L 210 414 L 190 407 Z M 326 407 L 312 413 L 301 414 L 300 415 L 290 415 L 278 413 L 280 424 L 282 453 L 284 465 L 301 470 L 315 471 L 316 472 L 341 472 L 347 470 L 349 467 Q 350 458 346 454 Q 341 446 332 444 Q 320 443 315 448 Q 310 450 311 446 L 320 440 Q 325 441 327 439 L 327 408 L 326 407 Z "/>
  </g>
</svg>
