<svg xmlns="http://www.w3.org/2000/svg" width="512" height="512" viewBox="0 0 512 512">
  <g id="color">
    <path fill="#ffffff" d="M 245.5 36 L 273 36.5 L 245.5 37 L 245.5 36 Z "/>
    <path fill="#ffffff" d="M 218.5 37 L 231 37.5 L 218.5 38 L 218.5 37 Z "/>
    <path fill="#ffffff" d="M 284.5 37 L 297 37.5 L 284.5 38 L 284.5 37 Z "/>
    <path fill="#ffffff" d="M 199.5 38 L 207 38.5 L 199.5 39 L 199.5 38 Z "/>
    <path fill="#ffffff" d="M 307.5 38 L 315 38.5 L 307.5 39 L 307.5 38 Z "/>
    <path fill="#ffffff" d="M 185.5 39 L 194 39.5 L 185.5 40 L 185.5 39 Z "/>
    <path fill="#ffffff" d="M 319.5 39 L 328 39.5 L 319.5 40 L 319.5 39 Z "/>
    <path fill="#ffffff" d="M 175.5 40 L 184 40.5 L 175.5 41 L 175.5 40 Z "/>
    <path fill="#ffffff" d="M 330.5 40 L 338 40.5 L 330.5 41 L 330.5 40 Z "/>
    <path fill="#ffffff" d="M 167.5 41 L 173 41.5 L 167.5 42 L 167.5 41 Z "/>
    <path fill="#ffffff" d="M 341.5 41 L 347 41.5 L 341.5 42 L 341.5 41 Z "/>
    <path fill="#ffffff" d="M 158.5 42 L 163 42.5 L 158.5 43 L 158.5 42 Z "/>
    <path fill="#ffffff" d="M 350.5 42 L 355 42.5 L 350.5 43 L 350.5 42 Z "/>
    <path fill="#ffffff" d="M 150.5 43 L 155 43.5 L 150.5 44 L 150.5 43 Z "/>
    <path fill="#ffffff" d="M 358.5 43 L 363 43.5 L 358.5 44 L 358.5 43 Z "/>
    <path fill="#ffffff" d="M 143.5 44 L 149 44.5 L 143.5 45 L 143.5 44 Z "/>
    <path fill="#ffffff" d="M 364.5 44 L 369 44.5 L 364.5 45 L 364.5 44 Z "/>
    <path fill="#ffffff" d="M 126.5 48 L 129 48.5 L 124.5 50 L 124.5 49 L 126.5 48 Z "/>
    <path fill="#ffffff" d="M 383.5 48 L 388 49.5 L 386.5 50 L 383.5 49 L 383.5 48 Z "/>
    <path fill="#ffffff" d="M 109.5 59 L 108 61.5 L 106.5 64 L 107 62.5 L 109.5 59 Z "/>
    <path fill="#ffffff" d="M 104.5 67 L 105 68.5 L 102.5 75 L 102 72.5 L 104.5 67 Z "/>
    <path fill="#ffffff" d="M 407.5 67 L 409 71.5 L 408 71.5 L 407.5 67 Z "/>
    <path fill="#ffffff" d="M 411.5 85 L 412 92.5 L 411 92.5 L 411.5 85 Z "/>
    <path fill="#ffffff" d="M 100.5 87 L 101 93.5 L 100 93.5 L 100.5 87 Z "/>
    <path fill="#ffffff" d="M 412.5 96 L 413 105.5 L 412 105.5 L 412.5 96 Z "/>
    <path fill="#ffffff" d="M 99.5 97 L 100 107.5 L 99 107.5 L 99.5 97 Z "/>
    <path fill="#ffffff" d="M 413.5 108 L 414 119.5 L 413 119.5 L 413.5 108 Z "/>
    <path fill="#ffffff" d="M 98.5 110 L 99 119.5 L 98 119.5 L 98.5 110 Z "/>
    <path fill="#ffffff" d="M 414.5 127 L 415 137.5 L 414 137.5 L 414.5 127 Z "/>
    <path fill="#ffffff" d="M 97.5 128 L 98 139.5 L 97 139.5 L 97.5 128 Z "/>
    <path fill="#ffffff" d="M 415.5 149 L 416 165.5 L 415 165.5 L 415.5 149 Z "/>
    <path fill="#ffffff" d="M 96.5 151 L 97 166.5 L 96 166.5 L 96.5 151 Z "/>
    <path fill="#ffffff" d="M 416.5 176 L 417 204.5 L 416 204.5 L 416.5 176 Z "/>
    <path fill="#ffffff" d="M 95.5 177 L 96 201.5 L 95 201.5 L 95.5 177 Z "/>
    <path fill="#ffffff" d="M 94.5 208 L 95 304.5 L 94 304.5 L 94.5 208 Z "/>
    <path fill="#ffffff" d="M 417.5 210 L 418 306.5 L 417 306.5 L 417.5 210 Z "/>
    <path fill="#ffffff" d="M 95.5 312 L 96 336.5 L 95 336.5 L 95.5 312 Z "/>
    <path fill="#ffffff" d="M 416.5 315 L 417 339.5 L 416 339.5 L 416.5 315 Z "/>
    <path fill="#ffffff" d="M 96.5 348 L 97 362.5 L 96 362.5 L 96.5 348 Z "/>
    <path fill="#ffffff" d="M 415.5 351 L 416 366.5 L 415 366.5 L 415.5 351 Z "/>
    <path fill="#ffffff" d="M 97.5 377 L 98 389.5 L 97 389.5 L 97.5 377 Z "/>
    <path fill="#ffffff" d="M 414.5 379 L 415 390.5 L 414 390.5 L 414.5 379 Z "/>
    <path fill="#ffffff" d="M 98.5 397 L 99 409.5 L 98 409.5 L 98.5 397 Z "/>
    <path fill="#ffffff" d="M 413.5 400 L 414 412.5 L 413 412.5 L 413.5 400 Z "/>
    <path fill="#ffffff" d="M 99.5 412 L 100 424.5 L 99 424.5 L 99.5 412 Z "/>
    <path fill="#ffffff" d="M 412.5 415 L 413 428.5 L 412 428.5 L 412.5 415 Z "/>
    <path fill="#ffffff" d="M 100.5 430 L 101 439.5 L 100 439.5 L 100.5 430 Z "/>
    <path fill="#ffffff" d="M 411.5 433 L 412 441.5 L 411 441.5 L 411.5 433 Z "/>
    <path fill="#ffffff" d="M 395.5 467 L 397 467.5 L 392.5 469 L 392.5 468 L 395.5 467 Z "/>
    <path fill="#ffffff" d="M 122.5 469 L 127 469.5 L 122.5 470 L 122.5 469 Z "/>
    <path fill="#ffffff" d="M 385.5 469 L 391 469.5 L 385.5 470 L 385.5 469 Z "/>
    <path fill="#ffffff" d="M 131.5 470 L 136 470.5 L 131.5 471 L 131.5 470 Z "/>
    <path fill="#ffffff" d="M 376.5 470 L 381 470.5 L 376.5 471 L 376.5 470 Z "/>
    <path fill="#ffffff" d="M 141.5 471 L 148 471.5 L 141.5 472 L 141.5 471 Z "/>
    <path fill="#ffffff" d="M 365.5 471 L 371 471.5 L 365.5 472 L 365.5 471 Z "/>
    <path fill="#ffffff" d="M 151.5 472 L 160 472.5 L 151.5 473 L 151.5 472 Z "/>
    <path fill="#ffffff" d="M 351.5 472 L 361 472.5 L 351.5 473 L 351.5 472 Z "/>
    <path fill="#ffffff" d="M 162.5 473 L 171 473.5 L 162.5 474 L 162.5 473 Z "/>
    <path fill="#ffffff" d="M 340.5 473 L 350 473.5 L 340.5 474 L 340.5 473 Z "/>
    <path fill="#ffffff" d="M 177.5 474 L 186 474.5 L 177.5 475 L 177.5 474 Z "/>
    <path fill="#ffffff" d="M 324.5 474 L 334 474.5 L 324.5 475 L 324.5 474 Z "/>
    <path fill="#ffffff" d="M 197.5 475 L 211 475.5 L 197.5 476 L 197.5 475 Z "/>
    <path fill="#ffffff" d="M 301.5 475 L 314 475.5 L 301.5 476 L 301.5 475 Z "/>
    <path fill="#ffffff" d="M 223.5 476 L 289 476.5 L 223.5 477 L 223.5 476 Z "/>
    <path fill="#4da3ff" d="M 230.5 48 L 285.5 48 L 286.5 49 L 303.5 49 L 304.5 50 L 318.5 50 L 319.5 51 L 350.5 53 L 384.5 60 L 390.5 63 L 396 68.5 L 398 71.5 L 400 81.5 L 401 98.5 L 402 99.5 L 402 114.5 L 403 115.5 L 405 184.5 L 406 185.5 L 407 276.5 Q 404.8 277.8 406 282.5 L 407 284.5 L 406 285.5 L 406 294.5 L 406 296.5 L 406 332.5 L 405 333.5 L 405 356.5 L 404 357.5 L 404 383.5 L 403 384.5 L 402 421.5 L 401 422.5 L 400 446.5 L 398 452.5 L 395.5 455 L 389.5 458 L 364.5 460 L 363.5 461 L 352.5 461 L 351.5 462 L 328.5 463 L 327.5 464 L 277.5 465 L 274.5 466 L 272.5 466 L 267.5 465 L 266.5 466 L 245.5 466 L 244.5 465 L 203.5 465 L 202.5 464 L 184.5 464 L 183.5 463 L 167.5 463 L 166.5 462 L 145.5 461 L 137.5 459 L 121.5 458 L 114 452.5 L 112 445.5 L 111 422.5 L 110 421.5 L 110 402.5 L 109 401.5 L 109 382.5 L 108 381.5 L 108 352.5 L 107 351.5 L 107 327.5 L 106 326.5 L 106 287.5 L 105 286.5 L 105 272.5 L 106 268.5 L 106 266.5 Q 107.8 260.2 105 258.5 L 105 235.5 L 106 234.5 L 107 162.5 L 108 161.5 L 108 141.5 L 109 140.5 L 108 137.5 L 109 136.5 L 109 117.5 L 110 116.5 L 110 102.5 L 111 101.5 L 111 91.5 L 112 90.5 L 113 76.5 Q 114.8 67.3 121.5 63 L 129.5 59 L 162.5 53 L 184.5 52 L 194.5 50 L 229.5 49 L 230.5 48 Z M 236 82 L 235 83 L 196 84 L 195 85 L 176 86 L 174 86 L 167 88 L 152 89 L 143 93 L 136 103 L 134 114 L 133 134 L 131 145 L 131 158 L 130 159 L 129 217 L 128 218 L 128 264 L 129 265 Q 131 271 128 273 L 129 277 L 129 286 L 128 287 L 129 288 L 129 316 L 129 318 L 130 320 L 129 322 L 130 323 L 130 337 L 131 338 L 131 351 L 132 352 L 132 366 L 134 377 L 134 388 L 136 397 L 143 403 L 153 405 L 163 405 L 174 407 L 188 407 L 189 408 L 246 409 L 247 410 L 269 410 L 270 409 L 273 410 L 275 410 L 277 409 L 305 409 L 306 408 L 325 408 L 326 407 L 339 407 L 340 406 L 353 406 L 361 404 L 367 404 L 371 402 L 376 397 L 378 389 L 380 356 L 381 355 L 381 341 L 382 340 L 382 323 L 382 321 L 383 318 L 383 294 L 384 293 L 384 285 L 383 284 L 384 282 L 384 226 L 383 225 L 384 216 L 384 214 L 383 212 L 383 182 L 383 180 L 382 178 L 382 159 L 381 158 L 381 144 L 379 133 L 378 112 L 376 103 L 373 97 Q 369 91 362 89 L 348 88 L 341 86 L 320 85 L 319 84 L 305 84 L 304 83 L 264 82 L 262 82 L 240 82 L 239 83 L 236 82 Z "/>
    <path fill="#4da3ff" d="M 221.5 95 L 293.5 95 L 295.5 96 L 297.5 96 L 337.5 98 L 351.5 101 L 357.5 101 L 361.5 102 L 364 104.5 L 366 121.5 L 367 122.5 L 369 163.5 L 370 164.5 L 370 185.5 L 371 186.5 L 372 281.5 L 371 282.5 L 371 313.5 L 370 314.5 L 368 366.5 L 367 367.5 L 366 385.5 L 363.5 392 L 346.5 393 L 345.5 394 L 333.5 394 L 332.5 395 L 297.5 396 L 296.5 397 L 215.5 397 L 214.5 396 L 196.5 396 L 195.5 395 L 180.5 395 L 179.5 394 L 155.5 393 Q 154 390.5 148.5 392 L 147 390.5 L 146 375.5 L 145 374.5 L 145 364.5 L 144 363.5 L 143 332.5 L 142 331.5 L 142 329.5 L 141 275.5 L 140 274.5 L 140 224.5 L 141 223.5 L 141 193.5 L 142 192.5 L 144 135.5 L 145 134.5 L 145 123.5 L 146 122.5 L 147 109.5 L 149.5 103 L 169.5 99 L 202.5 97 L 203.5 96 L 220.5 96 L 221.5 95 Z M 247 173 L 246 174 L 231 174 L 230 175 L 212 176 L 203 178 L 197 181 L 191 190 L 189 198 L 189 212 L 193 224 L 201 229 L 211 231 L 211 241 L 210 242 L 210 256 L 215 269 L 225 274 L 230 275 L 256 276 L 257 277 Q 264 274 277 276 L 288 274 L 294 271 Q 301 267 302 257 L 302 239 L 301 238 L 301 231 L 315 228 L 319 225 L 318 224 L 321 220 L 323 213 L 322 193 L 318 185 Q 319 182 316 183 L 316 181 Q 312 181 310 178 L 301 176 L 281 175 L 280 174 L 267 174 L 266 173 L 252 173 L 251 174 L 247 173 Z M 185 335 L 179 338 L 176 340 Q 168 345 166 357 L 166 362 L 169 371 L 175 379 L 186 383 Q 199 385 205 379 L 208 377 Q 213 372 215 364 Q 216 349 210 343 L 197 335 L 185 335 Z M 251 335 L 239 341 Q 236 342 238 344 L 236 344 L 232 353 L 232 366 L 236 374 Q 242 382 254 384 L 263 383 L 274 377 L 280 366 Q 282 352 276 346 Q 277 343 275 344 L 273 342 Q 267 333 251 335 Z M 315 335 L 310 337 L 302 343 L 297 355 L 298 368 L 302 375 L 314 383 Q 327 385 335 380 L 342 373 L 346 362 L 344 350 L 342 346 L 331 336 Q 325 333 315 335 Z "/>
    <path fill="#4da3ff" d="M 234.5 186 L 279.5 186 L 289.5 188 L 292.5 187 L 308 191 Q 312.8 197.4 311 211.5 L 308.5 217 L 298 218 L 297 210.5 L 302 206.5 Q 303.3 200.3 299.5 199 L 290.5 197 L 277.5 197 L 276.5 196 L 233.5 196 L 232.5 197 L 221.5 197 L 211 199 L 210 205.5 L 212.5 209 Q 217.1 207.7 215 213.5 L 214 218 Q 205.8 219.4 202 215.5 L 201 197.5 L 205.5 190 L 219.5 187 L 233.5 187 L 234.5 186 Z "/>
    <path fill="#4da3ff" d="M 236.5 208 L 257.5 208 L 259 209.5 L 260 223.5 L 261 224.5 L 262 256.5 L 261 257.5 L 261 264 L 238.5 264 L 225.5 261 L 223 258.5 L 222 249.5 L 222 247.5 L 224 225.5 L 225 220.5 L 227 218.5 L 228 209 L 235.5 209 L 236.5 208 Z M 235 230 L 233 231 L 230 234 L 227 242 L 227 247 L 230 254 Q 233 258 240 259 L 248 257 L 253 251 Q 254 244 251 241 L 247 239 L 242 241 L 240 242 L 242 237 L 240 231 L 237 230 L 235 230 Z "/>
    <path fill="#4da3ff" d="M 271.5 208 L 284 209 L 288 225.5 L 290 252.5 Q 287.7 253.7 289 258.5 L 286.5 261 L 274.5 264 Q 272.3 263.3 273 259.5 L 273 257.5 L 274 248.5 L 273 245.5 L 273 243.5 L 274 240.5 L 273 239.5 L 273 225.5 L 272 224.5 Q 273.4 215.6 271 210.5 L 271.5 208 Z "/>
    <path fill="#4da3ff" d="M 253.5 347 Q 262.5 346.5 266 351.5 Q 268.7 354.8 268 361.5 L 263 370 L 252.5 371 L 248 368.5 Q 248.8 366.3 246.5 367 Q 242.9 364.1 244 356.5 L 248.5 349 L 253.5 347 Z "/>
    <path fill="#4da3ff" d="M 317.5 347 L 324.5 347 L 330 350.5 Q 334.3 353.7 333 362.5 L 327.5 370 L 316.5 371 L 311 367 L 309 358.5 L 313.5 349 L 317.5 347 Z "/>
    <path fill="#4da3ff" d="M 185.5 348 Q 195.8 346.2 200 350.5 L 203 360.5 L 198.5 369 Q 195.5 372 188.5 371 L 184.5 370 L 180 365.5 Q 177.7 362.3 179 355.5 L 183.5 349 L 185.5 348 Z "/>
    <path fill="#66d9e8" d="M 236.5 46 L 300.5 47 L 301.5 48 L 317.5 48 L 327.5 50 L 355.5 52 L 384.5 58 Q 392.6 60.9 397 67.5 L 400 73.5 L 402 84.5 L 403 106.5 L 404 107.5 L 404 121.5 L 405 122.5 L 405 142.5 L 406 143.5 L 407 199.5 L 408 200.5 L 408 317.5 L 407 318.5 L 406 375.5 L 405 376.5 L 405 400.5 L 404 401.5 L 402 444.5 L 399 453.5 L 395.5 457 L 389.5 460 Q 383.3 458.3 381.5 461 L 351.5 463 L 350.5 464 L 338.5 464 L 337.5 465 L 321.5 465 L 320.5 466 L 299.5 466 L 298.5 467 L 215.5 467 L 214.5 466 L 172.5 465 L 171.5 464 L 160.5 464 L 149.5 462 L 129.5 461 L 119.5 459 L 113 453.5 L 111 449.5 L 110 432.5 L 109 431.5 L 108 397.5 L 107 396.5 L 107 373.5 L 106 372.5 L 106 346.5 L 105 345.5 L 105 312.5 L 104 311.5 L 104 201.5 L 105 200.5 L 105 171.5 L 106 170.5 L 107 123.5 L 108 122.5 L 108 108.5 L 109 107.5 L 110 85.5 L 111 84.5 L 112 73.5 Q 114.9 65.4 121.5 61 L 130.5 57 L 157.5 52 L 176.5 51 L 177.5 50 L 186.5 50 L 197.5 48 L 235.5 47 L 236.5 46 Z M 231 48 L 230 49 L 195 50 L 185 52 L 163 53 L 130 59 L 122 63 Q 115 67 113 77 L 112 91 L 111 92 L 111 102 L 110 103 L 110 117 L 109 118 L 109 137 L 108 138 L 109 141 L 108 142 L 108 162 L 107 163 L 106 235 L 105 236 L 105 259 Q 108 260 106 267 L 106 269 L 105 273 L 105 287 L 106 288 L 106 327 L 107 328 L 107 352 L 108 353 L 108 382 L 109 383 L 109 402 L 110 403 L 110 422 L 111 423 L 112 446 L 114 453 L 122 458 L 138 459 L 146 461 L 167 462 L 168 463 L 184 463 L 185 464 L 203 464 L 204 465 L 245 465 L 246 466 L 267 466 L 268 465 L 273 466 L 275 466 L 278 465 L 328 464 L 329 463 L 352 462 L 353 461 L 364 461 L 365 460 L 390 458 L 396 455 L 398 453 L 400 447 L 401 423 L 402 422 L 403 385 L 404 384 L 404 358 L 405 357 L 405 334 L 406 333 L 406 297 L 406 295 L 406 286 L 407 285 L 406 283 Q 405 278 407 277 L 406 186 L 405 185 L 403 116 L 402 115 L 402 100 L 401 99 L 400 82 L 398 72 L 396 69 L 391 63 L 385 60 L 351 53 L 320 51 L 319 50 L 305 50 L 304 49 L 287 49 L 286 48 L 231 48 Z "/>
    <path fill="#66d9e8" d="M 235.5 82 L 238.5 83 L 239.5 82 L 261.5 82 L 263.5 82 L 303.5 83 L 304.5 84 L 318.5 84 L 319.5 85 L 340.5 86 L 347.5 88 L 361.5 89 Q 368.9 91.1 373 96.5 L 376 102.5 L 378 111.5 L 379 132.5 L 381 143.5 L 381 157.5 L 382 158.5 L 382 177.5 L 383 179.5 L 383 181.5 L 383 211.5 L 384 213.5 L 384 215.5 L 383 224.5 L 384 225.5 L 384 281.5 L 383 283.5 L 384 284.5 L 384 292.5 L 383 293.5 L 383 317.5 L 382 320.5 L 382 322.5 L 382 339.5 L 381 340.5 L 381 354.5 L 380 355.5 L 378 388.5 L 376 396.5 L 370.5 402 L 366.5 404 L 360.5 404 L 352.5 406 L 339.5 406 L 338.5 407 L 325.5 407 L 324.5 408 L 305.5 408 L 304.5 409 L 276.5 409 L 274.5 410 L 272.5 410 L 269.5 409 L 268.5 410 L 246.5 410 L 245.5 409 L 188.5 408 L 187.5 407 L 173.5 407 L 162.5 405 L 152.5 405 L 142.5 403 L 136 396.5 L 134 387.5 L 134 376.5 L 132 365.5 L 132 351.5 L 131 350.5 L 131 337.5 L 130 336.5 L 130 322.5 L 129 321.5 L 130 319.5 L 129 317.5 L 129 315.5 L 129 287.5 L 128 286.5 L 129 285.5 L 129 276.5 L 128 272.5 Q 130.8 270.8 129 264.5 L 128 263.5 L 128 217.5 L 129 216.5 L 130 158.5 L 131 157.5 L 131 144.5 L 133 133.5 L 134 113.5 L 136 102.5 L 142.5 93 L 151.5 89 L 166.5 88 L 173.5 86 L 175.5 86 L 194.5 85 L 195.5 84 L 234.5 83 L 235.5 82 Z M 232 84 L 231 85 L 209 85 L 208 86 L 180 87 L 173 89 L 151 91 L 143 95 L 137 105 Q 138 109 136 111 L 136 120 L 134 130 L 134 138 L 133 139 L 133 153 L 132 154 L 131 204 L 130 205 L 130 293 L 131 294 L 131 322 L 132 323 L 132 343 L 133 344 L 133 359 L 135 370 L 135 379 L 136 380 L 136 391 L 139 398 Q 142 402 149 403 L 169 404 L 170 405 L 184 405 L 185 406 L 200 406 L 201 407 L 225 407 L 226 408 L 311 407 L 312 406 L 329 406 L 330 405 L 356 404 L 370 401 Q 374 398 376 392 L 377 372 L 379 361 L 380 326 L 381 325 L 381 299 L 382 298 L 382 205 L 381 204 L 380 154 L 379 153 L 379 139 L 378 138 L 378 128 L 376 119 L 376 110 L 374 102 L 371 97 L 362 91 L 335 88 L 334 87 L 308 86 L 307 85 L 286 85 L 285 84 L 232 84 Z "/>
    <path fill="#66d9e8" d="M 225.5 93 L 288.5 93 L 289.5 94 L 306.5 94 L 307.5 95 L 342.5 97 L 343.5 98 L 360.5 100 L 365 103.5 L 369 126.5 L 370 152.5 L 371 153.5 L 371 171.5 L 372 172.5 L 372 193.5 L 373 194.5 L 373 302.5 L 372 303.5 L 372 325.5 L 371 326.5 L 371 344.5 L 370 345.5 L 369 373.5 L 367 382.5 L 367 390.5 L 364.5 393 L 353.5 395 L 330.5 396 L 329.5 397 L 313.5 397 L 312.5 398 L 289.5 398 L 288.5 399 L 225.5 399 L 224.5 398 L 199.5 398 L 198.5 397 L 183.5 397 L 182.5 396 L 158.5 395 L 157.5 394 L 149.5 394 L 146 391.5 L 145 389.5 L 144 372.5 L 143 371.5 L 143 358.5 L 142 357.5 L 142 344.5 L 141 343.5 L 141 323.5 L 140 322.5 L 140 301.5 L 139 300.5 L 139 197.5 L 140 196.5 L 140 174.5 L 141 173.5 L 141 154.5 L 142 153.5 L 143 126.5 L 144 125.5 L 146 105.5 L 149.5 101 L 170.5 97 L 205.5 95 L 206.5 94 L 224.5 94 L 225.5 93 Z M 222 95 L 221 96 L 204 96 L 203 97 L 170 99 L 150 103 L 147 110 L 146 123 L 145 124 L 145 135 L 144 136 L 142 193 L 141 194 L 141 224 L 140 225 L 140 275 L 141 276 L 142 330 L 142 332 L 143 333 L 144 364 L 145 365 L 145 375 L 146 376 L 147 391 L 149 392 Q 154 391 156 393 L 180 394 L 181 395 L 196 395 L 197 396 L 215 396 L 216 397 L 297 397 L 298 396 L 333 395 L 334 394 L 346 394 L 347 393 L 364 392 L 366 386 L 367 368 L 368 367 L 370 315 L 371 314 L 371 283 L 372 282 L 371 187 L 370 186 L 370 165 L 369 164 L 367 123 L 366 122 L 364 105 L 362 102 L 358 101 L 352 101 L 338 98 L 298 96 L 296 96 L 294 95 L 222 95 Z "/>
    <path fill="#66d9e8" d="M 246.5 173 L 250.5 174 L 251.5 173 L 265.5 173 L 266.5 174 L 279.5 174 L 280.5 175 L 300.5 176 L 309.5 178 Q 311.5 181.2 316 181 L 316 183 Q 318.7 181.9 318 184.5 L 322 192.5 L 323 212.5 L 321 219.5 L 318 223.5 L 318.5 225 L 314.5 228 L 301 231 L 301 237.5 L 302 238.5 L 302 256.5 Q 300.5 266.5 293.5 271 L 287.5 274 L 276.5 276 Q 264.4 274.4 256.5 277 L 255.5 276 L 229.5 275 L 224.5 274 L 215 269 L 210 255.5 L 210 241.5 L 211 240.5 L 211 231 L 200.5 229 L 193 223.5 L 189 211.5 L 189 197.5 L 191 189.5 L 196.5 181 L 202.5 178 L 211.5 176 L 229.5 175 L 230.5 174 L 245.5 174 L 246.5 173 Z M 241 175 L 240 176 L 217 177 L 200 181 L 194 187 L 190 202 L 190 210 L 195 224 L 200 227 L 207 229 L 212 229 L 213 231 Q 214 235 212 237 L 212 258 L 216 267 Q 220 272 228 273 L 245 274 L 246 275 L 279 274 L 291 271 L 294 269 L 299 262 L 300 258 L 300 237 Q 298 235 299 231 L 301 229 L 313 227 L 316 225 L 319 221 L 322 210 L 322 201 L 318 187 L 310 180 L 296 177 L 273 176 L 272 175 L 241 175 Z "/>
    <path fill="#66d9e8" d="M 237.5 184 L 276.5 184 L 277.5 185 L 287.5 185 L 288.5 186 L 296.5 186 L 305.5 188 L 310 191.5 L 313 200.5 L 313 209.5 L 312 214.5 L 308.5 219 L 297 220 L 295 209.5 L 301 205.5 Q 301.8 200.8 298.5 200 L 282.5 199 L 281.5 198 L 249.5 198 L 245.5 197 L 244.5 198 L 217.5 199 L 213.5 200 L 211 202.5 L 212 207 L 217 209.5 L 215 220 L 203.5 219 L 201 216.5 L 199 209.5 L 199 200.5 L 200 195.5 L 204.5 189 L 214.5 186 L 236.5 185 L 237.5 184 Z M 235 186 L 234 187 L 220 187 L 206 190 L 201 198 L 202 216 Q 206 219 214 218 L 215 214 Q 217 208 213 209 L 210 206 L 211 199 L 222 197 L 233 197 L 234 196 L 277 196 L 278 197 L 291 197 L 300 199 Q 303 200 302 207 L 297 211 L 298 218 L 309 217 L 311 212 Q 313 197 308 191 L 293 187 L 290 188 L 280 186 L 235 186 Z "/>
    <path fill="#66d9e8" d="M 238.5 206 L 258.5 206 L 260 207.5 L 262 218.5 L 262 229.5 L 263 230.5 L 263 263.5 L 262 266 L 234.5 265 L 226.5 263 L 222 259.5 L 221 257.5 L 221 235.5 L 222 234.5 L 223 221.5 L 227 208 L 238.5 206 Z M 237 208 L 236 209 L 228 209 L 227 219 L 225 221 L 224 226 L 222 248 L 222 250 L 223 259 L 226 261 L 239 264 L 261 264 L 261 258 L 262 257 L 261 225 L 260 224 L 259 210 L 258 208 L 237 208 Z "/>
    <path fill="#66d9e8" d="M 270 207 L 284.5 207 L 286 208.5 L 291 235.5 L 291 257.5 L 287.5 262 L 278.5 265 L 272.5 265 Q 270 264 271 259.5 L 272 258.5 L 272 236.5 L 271 235.5 L 270 207 Z M 272 208 L 271 211 Q 273 216 272 225 L 273 226 L 273 240 L 274 241 L 273 244 L 273 246 L 274 249 L 273 258 L 273 260 Q 272 263 275 264 L 287 261 L 289 259 Q 288 254 290 253 L 288 226 L 284 209 L 272 208 Z "/>
    <path fill="#66d9e8" d="M 234.5 230 L 236.5 230 L 240 231 L 242 236.5 L 240 241.5 L 241.5 241 L 246.5 239 L 251 241 Q 253.7 243.6 253 250.5 L 247.5 257 L 239.5 259 Q 232.9 258.1 230 253.5 L 227 246.5 L 227 241.5 L 230 233.5 L 232.5 231 L 234.5 230 Z M 234 232 L 229 241 Q 228 250 232 254 L 238 257 Q 249 259 251 252 Q 252 245 250 242 L 248 241 Q 243 240 242 243 Q 244 250 239 248 L 238 246 L 240 235 Q 239 231 234 232 Z "/>
    <path fill="#66d9e8" d="M 184.5 335 L 196.5 335 L 210 343 Q 215.9 349.3 215 363.5 Q 213.1 372.1 207.5 377 L 204.5 379 Q 199.2 385.2 185.5 383 L 175 379 L 169 370.5 L 166 361.5 L 166 356.5 Q 167.7 345.2 175.5 340 L 178.5 338 L 184.5 335 Z M 189 336 L 184 337 L 177 341 Q 170 346 168 355 L 168 364 L 173 374 L 178 378 L 188 382 L 195 382 L 204 378 Q 210 373 213 366 Q 215 353 210 347 Q 206 340 198 337 L 189 336 Z "/>
    <path fill="#66d9e8" d="M 250.5 335 Q 267 333 273 341.5 L 274.5 344 Q 276.8 343.3 276 345.5 Q 282 351.5 280 365.5 L 274 377 L 262.5 383 L 253.5 384 Q 241.7 381.8 236 373.5 L 232 365.5 L 232 352.5 L 236 344 L 238 343.5 Q 235.8 342.3 238.5 341 L 250.5 335 Z M 254 336 L 245 339 L 235 350 L 233 358 L 234 367 L 237 372 Q 242 380 253 382 L 261 382 L 272 376 Q 277 371 279 362 Q 279 353 276 348 Q 270 336 254 336 Z "/>
    <path fill="#66d9e8" d="M 314.5 335 Q 324.6 333.4 330.5 336 L 342 345.5 L 344 349.5 L 346 361.5 L 342 372.5 L 334.5 380 Q 327.3 384.8 313.5 383 L 302 374.5 L 298 367.5 L 297 354.5 L 302 343 L 309.5 337 L 314.5 335 Z M 319 336 L 309 340 Q 301 344 299 354 Q 297 367 303 373 L 310 379 L 318 382 L 324 382 L 335 378 Q 341 373 344 364 Q 345 351 339 345 L 329 337 L 319 336 Z "/>
    <path fill="#66d9e8" d="M 189.5 345 Q 198.1 345.4 202 350.5 Q 205.7 354.8 204 364.5 L 198.5 371 Q 195.2 373.7 188.5 373 Q 181.3 371.2 178 365.5 L 177 356.5 L 178 352.5 L 183.5 347 L 189.5 345 Z M 186 348 L 184 349 L 179 356 Q 178 362 180 366 L 185 370 L 189 371 Q 196 372 199 369 L 203 361 L 200 351 Q 196 346 186 348 Z "/>
    <path fill="#66d9e8" d="M 255.5 345 Q 256.7 347.3 261.5 346 L 268 351.5 L 270 359.5 L 268 366.5 L 263.5 371 Q 260.2 373.7 253.5 373 Q 247 371.5 244 366.5 L 242 358.5 L 244 351.5 L 248.5 347 L 255.5 345 Z M 254 347 L 249 349 L 244 357 Q 243 364 247 367 Q 249 366 248 369 L 253 371 L 263 370 L 268 362 Q 269 355 266 352 Q 263 346 254 347 Z "/>
    <path fill="#66d9e8" d="M 319.5 345 Q 329.6 344.9 333 351.5 Q 335.9 355.1 335 362.5 Q 333.6 368.6 328.5 371 Q 324.9 373.9 317.5 373 L 310 367.5 Q 306.5 363.5 308 354.5 L 313.5 347 L 319.5 345 Z M 318 347 L 314 349 L 309 359 L 311 367 L 317 371 L 328 370 L 333 363 Q 334 354 330 351 L 325 347 L 318 347 Z "/>
  </g>
  <g id="line">
    <path fill="#1a1a1a" d="M 231.5 37 L 306.5 38 L 307.5 39 L 318.5 39 L 319.5 40 L 329.5 40 L 330.5 41 L 357.5 43 L 358.5 44 L 375.5 46 L 391.5 51 L 402 58.5 Q 407.7 65.3 410 75.5 L 411 92.5 L 412 93.5 L 412 105.5 L 413 106.5 L 413 119.5 L 414 120.5 L 415 165.5 L 416 166.5 L 416 204.5 L 417 205.5 L 417 314.5 L 416 315.5 L 415 378.5 L 414 379.5 L 414 399.5 L 413 400.5 L 413 414.5 L 412 415.5 L 411 447.5 Q 408.8 459.3 400.5 465 L 391.5 469 Q 386 467.5 384.5 470 L 365.5 471 L 364.5 472 L 351.5 472 L 350.5 473 L 340.5 473 L 339.5 474 L 324.5 474 L 323.5 475 L 301.5 475 L 300.5 476 L 211.5 476 L 210.5 475 L 186.5 475 L 185.5 474 L 171.5 474 L 170.5 473 L 127.5 470 L 117.5 468 L 106 459.5 L 101 446.5 L 100 412.5 L 99 411.5 L 98 377.5 L 97 376.5 L 96 312.5 L 95 311.5 L 95 202.5 L 96 201.5 L 96 167.5 L 97 166.5 L 98 120.5 L 99 119.5 L 99 108.5 L 100 107.5 L 101 82.5 L 105 66.5 L 113.5 55 L 120.5 51 L 132.5 47 L 155.5 43 L 193.5 40 L 194.5 39 L 230.5 38 L 231.5 37 Z M 237 46 L 236 47 L 198 48 L 187 50 L 178 50 L 177 51 L 158 52 L 131 57 L 122 61 Q 115 65 112 74 L 111 85 L 110 86 L 109 108 L 108 109 L 108 123 L 107 124 L 106 171 L 105 172 L 105 201 L 104 202 L 104 312 L 105 313 L 105 346 L 106 347 L 106 373 L 107 374 L 107 397 L 108 398 L 109 432 L 110 433 L 111 450 L 113 454 L 120 459 L 130 461 L 150 462 L 161 464 L 172 464 L 173 465 L 215 466 L 216 467 L 299 467 L 300 466 L 321 466 L 322 465 L 338 465 L 339 464 L 351 464 L 352 463 L 382 461 Q 383 458 390 460 L 396 457 L 399 454 L 402 445 L 404 402 L 405 401 L 405 377 L 406 376 L 407 319 L 408 318 L 408 201 L 407 200 L 406 144 L 405 143 L 405 123 L 404 122 L 404 108 L 403 107 L 402 85 L 400 74 L 397 68 Q 393 61 385 58 L 356 52 L 328 50 L 318 48 L 302 48 L 301 47 L 237 46 Z "/>
    <path fill="#1a1a1a" d="M 231.5 84 L 284.5 84 L 285.5 85 L 306.5 85 L 307.5 86 L 333.5 87 L 334.5 88 L 361.5 91 L 371 96.5 L 374 101.5 L 376 109.5 L 376 118.5 L 378 127.5 L 378 137.5 L 379 138.5 L 379 152.5 L 380 153.5 L 381 203.5 L 382 204.5 L 382 297.5 L 381 298.5 L 381 324.5 L 380 325.5 L 379 360.5 L 377 371.5 L 376 391.5 Q 374.5 398 369.5 401 L 355.5 404 L 329.5 405 L 328.5 406 L 311.5 406 L 310.5 407 L 225.5 408 L 224.5 407 L 200.5 407 L 199.5 406 L 184.5 406 L 183.5 405 L 169.5 405 L 168.5 404 L 148.5 403 Q 141.9 402.1 139 397.5 L 136 390.5 L 136 379.5 L 135 378.5 L 135 369.5 L 133 358.5 L 133 343.5 L 132 342.5 L 132 322.5 L 131 321.5 L 131 293.5 L 130 292.5 L 130 204.5 L 131 203.5 L 132 153.5 L 133 152.5 L 133 138.5 L 134 137.5 L 134 129.5 L 136 119.5 L 136 110.5 Q 138.3 109.3 137 104.5 L 142.5 95 L 150.5 91 L 172.5 89 L 179.5 87 L 207.5 86 L 208.5 85 L 230.5 85 L 231.5 84 Z M 226 93 L 225 94 L 207 94 L 206 95 L 171 97 L 150 101 L 146 106 L 144 126 L 143 127 L 142 154 L 141 155 L 141 174 L 140 175 L 140 197 L 139 198 L 139 301 L 140 302 L 140 323 L 141 324 L 141 344 L 142 345 L 142 358 L 143 359 L 143 372 L 144 373 L 145 390 L 146 392 L 150 394 L 158 394 L 159 395 L 183 396 L 184 397 L 199 397 L 200 398 L 225 398 L 226 399 L 289 399 L 290 398 L 313 398 L 314 397 L 330 397 L 331 396 L 354 395 L 365 393 L 367 391 L 367 383 L 369 374 L 370 346 L 371 345 L 371 327 L 372 326 L 372 304 L 373 303 L 373 195 L 372 194 L 372 173 L 371 172 L 371 154 L 370 153 L 369 127 L 365 104 L 361 100 L 344 98 L 343 97 L 308 95 L 307 94 L 290 94 L 289 93 L 226 93 Z "/>
    <path fill="#1a1a1a" d="M 240.5 175 L 271.5 175 L 272.5 176 L 295.5 177 L 309.5 180 L 318 186.5 L 322 200.5 L 322 209.5 L 319 220.5 L 315.5 225 L 312.5 227 L 300.5 229 L 299 230.5 Q 297.8 235.2 300 236.5 L 300 257.5 L 299 261.5 L 293.5 269 L 290.5 271 L 278.5 274 L 245.5 275 L 244.5 274 L 227.5 273 Q 219.9 271.6 216 266.5 L 212 257.5 L 212 236.5 Q 214.3 235.2 213 230.5 L 211.5 229 L 206.5 229 L 199.5 227 L 195 224 L 190 209.5 L 190 201.5 L 194 186.5 L 199.5 181 L 216.5 177 L 239.5 176 L 240.5 175 Z M 238 184 L 237 185 L 215 186 L 205 189 L 200 196 L 199 201 L 199 210 L 201 217 L 204 219 L 215 220 L 217 210 L 212 207 L 211 203 L 214 200 L 218 199 L 245 198 L 246 197 L 250 198 L 282 198 L 283 199 L 299 200 Q 302 201 301 206 L 295 210 L 297 220 L 309 219 L 312 215 L 313 210 L 313 201 L 310 192 L 306 188 L 297 186 L 289 186 L 288 185 L 278 185 L 277 184 L 238 184 Z M 239 206 L 227 208 L 223 222 L 222 235 L 221 236 L 221 258 L 222 260 L 227 263 L 235 265 L 262 266 L 263 264 L 263 231 L 262 230 L 262 219 L 260 208 L 259 206 L 239 206 Z M 270 207 L 271 236 L 272 237 L 272 259 L 271 260 Q 270 264 273 265 L 279 265 L 288 262 L 291 258 L 291 236 L 286 209 L 285 207 L 270 207 Z "/>
    <path fill="#1a1a1a" d="M 234.5 232 Q 239.3 231.3 240 234.5 L 238 245.5 L 239 248 Q 244.3 249.8 242 242.5 Q 243 240 247.5 241 Q 252.8 242.8 251 251.5 Q 248.6 258.6 237.5 257 L 232 253.5 Q 227.8 249.7 229 240.5 L 232 233 L 234.5 232 Z "/>
    <path fill="#1a1a1a" d="M 188.5 336 L 197.5 337 Q 205.6 339.9 210 346.5 Q 214.7 352.4 213 364.5 Q 210.2 373.2 203.5 378 L 194.5 382 L 187.5 382 L 177.5 378 L 173 373.5 L 168 363.5 L 168 354.5 Q 170.1 345.6 176.5 341 L 183.5 337 L 188.5 336 Z M 190 345 L 184 347 L 178 353 L 177 357 L 178 366 Q 181 371 189 373 Q 195 374 199 371 L 204 365 Q 206 355 202 351 Q 198 345 190 345 Z "/>
    <path fill="#1a1a1a" d="M 253.5 336 Q 270.3 336.3 276 347.5 Q 279.1 352.9 279 361.5 Q 277.4 371 271.5 376 L 260.5 382 L 252.5 382 Q 241.8 379.7 237 371.5 L 234 366.5 L 233 357.5 L 235 349.5 L 244.5 339 L 253.5 336 Z M 256 345 L 249 347 L 244 352 L 242 359 L 244 367 Q 247 371 254 373 Q 260 374 264 371 L 268 367 L 270 360 L 268 352 L 262 346 Q 257 347 256 345 Z "/>
    <path fill="#1a1a1a" d="M 318.5 336 L 328.5 337 L 339 344.5 Q 344.9 350.6 344 363.5 Q 341.2 372.7 334.5 378 L 323.5 382 L 317.5 382 L 309.5 379 L 303 372.5 Q 297.2 366.8 299 353.5 Q 301.4 344.4 308.5 340 L 318.5 336 Z M 320 345 L 314 347 L 308 355 Q 307 364 310 368 L 318 373 Q 325 374 329 371 Q 334 369 335 363 Q 336 355 333 352 Q 330 345 320 345 Z "/>
  </g>
</svg>
