<svg xmlns="http://www.w3.org/2000/svg" width="512" height="512" viewBox="0 0 512 512">
  <g id="color">
    <path fill="#ffffff" d="M 243.5 42 L 245 42.5 L 238.5 46 L 239.5 44 L 243.5 42 Z "/>
    <path fill="#ffffff" d="M 220.5 62 L 219 64.5 L 216.5 68 L 218 65.5 L 220.5 62 Z "/>
    <path fill="#ffffff" d="M 254.5 68 L 259.5 68 L 265.5 70 L 277 80.5 L 288 97.5 L 296 116.5 L 296 121 Q 276.1 129.8 259.5 143 L 255.5 144 Q 237.8 130.2 217 119.5 Q 224.2 90.2 243.5 73 L 254.5 68 Z "/>
    <path fill="#ffffff" d="M 215.5 69 L 215 70.5 L 213.5 73 L 214 71.5 L 215.5 69 Z "/>
    <path fill="#ffffff" d="M 298.5 71 L 301 74.5 L 299 73.5 L 298.5 71 Z "/>
    <path fill="#ffffff" d="M 212.5 74 L 212 75.5 L 209.5 80 L 210 78.5 L 212.5 74 Z "/>
    <path fill="#ffffff" d="M 302.5 78 L 305 82.5 L 304 82.5 L 302.5 78 Z "/>
    <path fill="#ffffff" d="M 159.5 86 L 170 86.5 L 159.5 87 L 159.5 86 Z "/>
    <path fill="#ffffff" d="M 346.5 86 L 356 86.5 L 346.5 87 L 346.5 86 Z "/>
    <path fill="#ffffff" d="M 129.5 93 L 145 93.5 L 129.5 94 L 129.5 93 Z "/>
    <path fill="#ffffff" d="M 122.5 94 L 128 94.5 L 122.5 95 L 122.5 94 Z "/>
    <path fill="#ffffff" d="M 182.5 94 L 186 98.5 L 184 97.5 L 182.5 94 Z "/>
    <path fill="#ffffff" d="M 201.5 96 L 202 97.5 L 200.5 100 L 200 98.5 L 201.5 96 Z "/>
    <path fill="#ffffff" d="M 111.5 97 L 113 97.5 L 104.5 102 L 105.5 100 L 111.5 97 Z "/>
    <path fill="#ffffff" d="M 311.5 97 L 313 100.5 L 312 100.5 L 311.5 97 Z "/>
    <path fill="#ffffff" d="M 329.5 99 L 330 100.5 L 328.5 103 L 328 101.5 L 329.5 99 Z "/>
    <path fill="#ffffff" d="M 327.5 104 L 328 105.5 L 325.5 107 L 325.5 106 Q 328 106.7 327.5 104 Z "/>
    <path fill="#ffffff" d="M 190.5 106 L 194 107.5 L 192.5 108 L 190.5 106 Z "/>
    <path fill="#ffffff" d="M 134.5 117 L 142.5 117 L 143 118.5 L 149.5 128 Q 155.7 134.8 170.5 133 Q 177.1 131.6 180.5 127 L 183.5 127 L 190 130 L 182 166.5 L 181 177 L 150.5 182 Q 140.9 186.3 129 187 L 118 159.5 L 115 146.5 L 115 137.5 Q 116.8 127.8 122.5 122 L 134.5 117 Z "/>
    <path fill="#ffffff" d="M 90.5 118 L 91 119.5 L 89.5 123 L 89 120.5 L 90.5 118 Z "/>
    <path fill="#ffffff" d="M 372.5 120 L 384.5 122 L 393 127 Q 398.5 133.8 398 147.5 L 394 164.5 L 383.5 187 L 341.5 178 L 336.5 178 L 331 175.5 L 329 159.5 L 323 133.5 L 336.5 128 Q 341.7 134.8 355.5 133 Q 365.4 130.9 370 123.5 L 372.5 120 Z "/>
    <path fill="#ffffff" d="M 87.5 131 L 88 141.5 L 87 141.5 L 87.5 131 Z "/>
    <path fill="#ffffff" d="M 425.5 133 L 426 142.5 L 425 142.5 L 425.5 133 Z "/>
    <path fill="#ffffff" d="M 210.5 141 L 230.5 153 L 237 158.5 L 219.5 173 L 203 174 L 208 146.5 L 210.5 141 Z "/>
    <path fill="#ffffff" d="M 301.5 144 Q 305.7 142.7 304 147.5 L 309 167.5 L 309 174 L 290.5 173 L 277 160.5 Q 276.3 158.3 278.5 159 L 301.5 144 Z "/>
    <path fill="#ffffff" d="M 89.5 152 L 91 158.5 L 90 158.5 L 89.5 152 Z "/>
    <path fill="#ffffff" d="M 423.5 153 L 424 156.5 L 422.5 160 L 422 157.5 L 423.5 153 Z "/>
    <path fill="#ffffff" d="M 93.5 167 L 96 173.5 L 95 173.5 L 93.5 167 Z "/>
    <path fill="#ffffff" d="M 97.5 178 L 100 183.5 L 99 183.5 L 97.5 178 Z "/>
    <path fill="#ffffff" d="M 414.5 181 L 415 182.5 L 412.5 187 L 412 185.5 L 414.5 181 Z "/>
    <path fill="#ffffff" d="M 295.5 188 L 299 190.5 L 297.5 190 L 295.5 188 Z "/>
    <path fill="#ffffff" d="M 408.5 194 L 409 196 L 413 197.5 L 411.5 198 L 408 195.5 L 408.5 194 Z "/>
    <path fill="#ffffff" d="M 102.5 196 L 104 196.5 L 100.5 198 L 100.5 197 L 102.5 196 Z "/>
    <path fill="#ffffff" d="M 173.5 199 Q 180.7 196.7 178 204.5 L 177 205.5 L 177 214.5 L 160.5 233 Q 156.5 233.5 156 230.5 L 141 207.5 L 144.5 205 L 173.5 199 Z "/>
    <path fill="#ffffff" d="M 335.5 199 L 359.5 203 L 372 207.5 L 352.5 237 L 349 234.5 L 336 218.5 L 335 201.5 L 334 200.5 L 335.5 199 Z "/>
    <path fill="#ffffff" d="M 92.5 200 L 94 200.5 L 90.5 202 L 90.5 201 L 92.5 200 Z "/>
    <path fill="#ffffff" d="M 419.5 200 L 423 201.5 L 421.5 202 L 419.5 200 Z "/>
    <path fill="#ffffff" d="M 76.5 208 L 75.5 210 L 71.5 212 L 72.5 210 L 76.5 208 Z "/>
    <path fill="#ffffff" d="M 436.5 208 L 442 211.5 L 440.5 211 Q 436.5 210.5 436.5 208 Z "/>
    <path fill="#ffffff" d="M 443.5 212 L 447 214.5 L 445.5 214 L 443.5 212 Z "/>
    <path fill="#ffffff" d="M 113.5 215 Q 117.3 214.3 118 216.5 Q 128.3 235.7 142 251.5 L 143 255.5 Q 127.5 274 115.5 296 Q 88.6 287.4 71 269.5 L 65 259.5 L 64 254.5 L 68 243.5 L 78.5 233 L 90.5 225 L 113.5 215 Z "/>
    <path fill="#ffffff" d="M 396.5 215 Q 427.1 222.9 445 243.5 Q 448.8 248.2 449 256.5 L 442.5 268 Q 423.3 266.8 417 278.5 L 414 288 L 395.5 296 L 392 296 Q 381.4 275.4 367 257.5 L 396.5 215 Z "/>
    <path fill="#ffffff" d="M 472.5 239 L 475 243.5 L 474 243.5 L 472.5 239 Z "/>
    <path fill="#ffffff" d="M 36.5 249 L 37 258.5 L 36 258.5 L 36.5 249 Z "/>
    <path fill="#ffffff" d="M 37.5 261 L 41 269.5 L 39 268.5 L 37.5 261 Z "/>
    <path fill="#ffffff" d="M 474.5 265 L 475 266.5 L 473.5 269 L 473 267.5 L 474.5 265 Z "/>
    <path fill="#ffffff" d="M 158 274 L 161 275.5 L 177 294.5 L 178 312 L 156.5 309 L 140.5 305 L 139 303.5 L 158 274 Z "/>
    <path fill="#ffffff" d="M 468.5 276 L 460 285.5 L 459.5 290 L 459 285.5 L 468.5 276 Z "/>
    <path fill="#ffffff" d="M 351.5 277 Q 361.9 288.6 369 303.5 Q 353.6 309.9 334 311 L 335 296.5 L 351.5 277 Z "/>
    <path fill="#ffffff" d="M 69.5 297 L 73 299.5 L 71.5 299 L 69.5 297 Z "/>
    <path fill="#ffffff" d="M 458.5 299 L 459 300.5 L 456.5 304 L 457 302.5 L 458.5 299 Z "/>
    <path fill="#ffffff" d="M 76.5 301 L 80 303.5 L 78.5 303 L 76.5 301 Z "/>
    <path fill="#ffffff" d="M 96.5 311 L 100 312.5 L 98.5 313 L 96.5 311 Z "/>
    <path fill="#ffffff" d="M 405.5 314 L 407 314.5 L 403.5 317 L 403 315 L 405.5 314 Z "/>
    <path fill="#ffffff" d="M 432.5 314 L 442 314.5 L 432.5 315 L 432.5 314 Z "/>
    <path fill="#ffffff" d="M 103.5 318 L 104 319.5 L 101.5 324 L 101 322.5 L 103.5 318 Z "/>
    <path fill="#ffffff" d="M 405.5 320 L 407 323.5 L 406 323.5 L 405.5 320 Z "/>
    <path fill="#ffffff" d="M 128.5 323 L 158.5 331 L 175.5 333 L 181 335.5 L 189 381 L 160.5 391 L 143.5 394 L 134.5 394 L 121.5 390 L 116 384.5 L 114 379.5 L 113 368.5 L 114 367.5 L 114 359.5 L 120 339.5 L 128.5 323 Z "/>
    <path fill="#ffffff" d="M 378.5 323 L 381 324.5 L 391 350.5 L 391 354.5 L 394 363.5 L 394 376.5 Q 392.6 385.1 387.5 390 Q 379.1 397.1 361.5 395 L 340.5 390 L 322 379.5 Q 322.9 367.4 327 358.5 L 330 336.5 L 332.5 333 L 353.5 330 L 358.5 328 L 371.5 326 L 378.5 323 Z "/>
    <path fill="#ffffff" d="M 98.5 329 L 99 330.5 L 97.5 333 L 97 331.5 L 98.5 329 Z "/>
    <path fill="#ffffff" d="M 410.5 332 L 412 335.5 L 411 335.5 L 410.5 332 Z "/>
    <path fill="#ffffff" d="M 203 337 L 219.5 338 L 236 352.5 L 211.5 369 L 208 369 Q 207.7 358.1 204 349.5 L 203 337 Z "/>
    <path fill="#ffffff" d="M 297.5 337 L 308.5 337 L 309 339.5 L 302 370 L 299.5 370 L 276 355 L 281.5 348 L 293.5 338 L 297.5 337 Z "/>
    <path fill="#ffffff" d="M 94.5 340 L 95 342.5 L 93.5 346 L 93 343.5 L 94.5 340 Z "/>
    <path fill="#ffffff" d="M 413.5 340 L 415 345.5 L 414 345.5 L 413.5 340 Z "/>
    <path fill="#ffffff" d="M 90.5 355 L 91 359.5 L 90 359.5 L 90.5 355 Z "/>
    <path fill="#ffffff" d="M 418.5 360 L 419 364.5 L 418 364.5 L 418.5 360 Z "/>
    <path fill="#ffffff" d="M 89.5 361 L 90 365.5 L 89 365.5 L 89.5 361 Z "/>
    <path fill="#ffffff" d="M 419.5 367 L 420 380.5 L 419 380.5 L 419.5 367 Z "/>
    <path fill="#ffffff" d="M 255.5 369 L 257.5 369 Q 274 382.5 294 392.5 Q 287.5 423.5 267.5 441 Q 262.5 446 252.5 446 Q 242.6 442.9 237 435.5 Q 221.9 418.2 216 393 L 236.5 382 L 255.5 369 Z "/>
    <path fill="#ffffff" d="M 89.5 381 L 90 385.5 L 89 385.5 L 89.5 381 Z "/>
    <path fill="#ffffff" d="M 418.5 382 L 419 386.5 L 418 386.5 L 418.5 382 Z "/>
    <path fill="#ffffff" d="M 94.5 399 L 97 402.5 L 95 401.5 L 94.5 399 Z "/>
    <path fill="#ffffff" d="M 196.5 404 L 198 407.5 L 197 407.5 L 196.5 404 Z "/>
    <path fill="#ffffff" d="M 191.5 405 L 193 405.5 L 189.5 407 L 189.5 406 L 191.5 405 Z "/>
    <path fill="#ffffff" d="M 107.5 412 L 114 415.5 L 112.5 416 Q 107.9 414.8 107.5 412 Z "/>
    <path fill="#ffffff" d="M 398.5 412 L 397.5 414 L 391.5 416 L 391.5 415 L 398.5 412 Z "/>
    <path fill="#ffffff" d="M 200.5 415 L 202 418.5 L 201 418.5 L 200.5 415 Z "/>
    <path fill="#ffffff" d="M 361.5 417 L 370 417.5 L 361.5 418 L 361.5 417 Z "/>
    <path fill="#ffffff" d="M 375.5 417 L 383 417.5 L 375.5 418 L 375.5 417 Z "/>
    <path fill="#ffffff" d="M 124.5 418 L 131 418.5 L 124.5 419 L 124.5 418 Z "/>
    <path fill="#ffffff" d="M 140.5 418 L 149 418.5 L 140.5 419 L 140.5 418 Z "/>
    <path fill="#ffffff" d="M 204.5 424 L 207 428.5 L 205 427.5 L 204.5 424 Z "/>
    <path fill="#ffffff" d="M 313.5 426 L 318 426.5 L 313.5 427 L 313.5 426 Z "/>
    <path fill="#ffffff" d="M 300.5 436 L 300 437.5 L 298.5 440 L 299 438.5 L 300.5 436 Z "/>
    <path fill="#ffffff" d="M 221.5 453 L 236 466.5 L 234.5 466 L 221.5 453 Z "/>
    <path fill="#ffffff" d="M 238.5 468 L 244 470.5 L 242.5 471 L 238.5 469 L 238.5 468 Z "/>
    <path fill="#4da3ff" d="M 256.5 48 L 267.5 51 L 281 61.5 L 297 85.5 L 308 112.5 L 302.5 116 L 287 83.5 L 273.5 68 L 265.5 63 L 252.5 62 Q 238.8 66.3 231 76.5 L 218 97.5 L 209 119.5 L 209 123.5 L 206 129.5 L 200 153.5 L 194 193.5 L 186.5 202 L 187 198.5 L 188 183.5 L 192 165.5 L 194 148.5 L 204 113.5 L 219 79.5 L 233.5 60 Q 241.7 50.7 256.5 48 Z "/>
    <path fill="#4da3ff" d="M 161.5 95 Q 173.2 94.3 177 101.5 Q 180.5 105.5 179 114.5 L 172.5 123 L 162.5 125 Q 154.6 122.9 151 116.5 L 150 108.5 L 151 105.5 L 151 103.5 L 155.5 98 L 161.5 95 Z "/>
    <path fill="#4da3ff" d="M 125.5 103 L 141 103 L 141 108.5 L 140 111 L 127.5 112 L 119 116 L 116.5 120 Q 114.3 119.3 115 121.5 L 110 130.5 L 109 146.5 L 112 162.5 L 116 173.5 L 131 204.5 L 147 229.5 L 177 269 Q 179.7 267.9 179 270.5 L 183 274.5 L 190 293.5 L 199 305.5 L 197 304.5 L 190 295 Q 187.3 296.1 188 293.5 L 185 292 L 181 285.5 L 167 270.5 L 161 261 Q 158.3 262.1 159 259.5 Q 134.7 231.3 116 197.5 L 100 161.5 L 96 142.5 L 96 134.5 L 100 117.5 L 105.5 111 L 115.5 105 L 125.5 103 Z "/>
    <path fill="#4da3ff" d="M 189.5 116 L 192 117.5 Q 193 122 190.5 123 L 187 121.5 L 189.5 116 Z "/>
    <path fill="#4da3ff" d="M 214 130 L 218.5 130 L 247 148.5 L 245.5 151 L 242.5 153 L 240.5 153 L 237.5 150 L 213 134.5 L 214 130 Z "/>
    <path fill="#4da3ff" d="M 314.5 139 Q 317.1 138.2 316 141.5 L 319 150.5 L 321 167.5 L 323 173.5 L 325 196.5 L 327 206 Q 324.3 207.1 325 204.5 Q 319.3 201.3 318 193.5 L 316 171.5 L 310 141 L 314.5 139 Z "/>
    <path fill="#4da3ff" d="M 268.5 167 L 271.5 167 L 288 181.5 L 285.5 183 L 271 178 L 268.5 174 L 266 172.5 Q 266.8 170.3 264.5 171 L 265.5 169 L 268.5 167 Z "/>
    <path fill="#4da3ff" d="M 326.5 221 L 343 239.5 Q 345.6 240.9 345 245.5 L 340.5 249 L 338 248 L 331 237.5 L 330 230.5 Q 326.2 226.6 326.5 221 Z "/>
    <path fill="#4da3ff" d="M 362.5 266 L 381 292.5 L 400 328.5 L 410 360.5 L 411 379.5 L 409 389.5 L 400.5 402 L 390.5 407 L 382.5 409 L 361.5 409 L 340 404 L 339 396 L 357.5 401 L 378.5 401 Q 390.4 398.4 396 389.5 L 400 378.5 L 400 376.5 L 399 357.5 L 391 331.5 L 383 313.5 L 372 296.5 L 372 294.5 L 358 274.5 L 358 271.5 L 362.5 266 Z "/>
    <path fill="#4da3ff" d="M 208.5 314 L 223.5 324 L 232 326 L 232.5 328 L 233.5 327 L 240.5 334 L 249 341.5 L 243.5 346 L 240.5 345 L 214 321.5 Q 214.8 319.3 212.5 320 L 208 315.5 L 208.5 314 Z "/>
    <path fill="#4da3ff" d="M 270.5 359 L 288 369 Q 286.9 371.7 289.5 371 L 301.5 379 L 304 379 L 302.5 382 L 298.5 385 L 272.5 370 L 265 363.5 L 270.5 359 Z "/>
    <path fill="#ffd43b" d="M 245.5 186 L 266.5 186 L 283.5 191 Q 300 198 310 211.5 Q 317.7 220.8 322 233.5 L 325 248.5 L 325 259.5 L 323 270.5 L 316 287.5 Q 308.9 299.4 298.5 308 Q 287.5 317 271.5 321 L 266.5 322 L 247.5 322 Q 218.7 316.8 204 297.5 Q 188.4 281.1 188 249.5 L 193 228.5 Q 199.2 214.2 209.5 204 Q 223 190.5 245.5 186 Z M 239 213 L 231 216 Q 221 223 217 237 Q 217 243 220 248 L 227 252 Q 237 253 243 249 Q 251 243 255 233 Q 256 224 254 220 Q 250 212 239 213 Z "/>
    <path fill="#ff6b6b" d="M 237 218 Q 246 216.3 249 221.5 L 248 222.5 L 251 225.5 Q 251.5 231.5 248 233.5 L 248.5 235 L 247 235.5 L 247.5 237 L 246 236.5 L 243.5 242 Q 241.3 241.3 242 243.5 L 240 243.5 Q 240.8 245.8 238.5 245 Q 236.2 248.7 229.5 248 L 224 244.5 Q 221 241.3 222 235 L 224 234.5 L 223 232 Q 225.7 233.1 225 230.5 L 229 224.5 L 230.5 222 Q 232 224.5 233.5 221 L 237 220 L 237 218 Z "/>
    <path fill="#51cf66" d="M 345.5 94 Q 359.5 92.5 364 100.5 Q 367.8 105.2 366 115.5 L 361.5 122 Q 357.5 127.5 346.5 126 L 337 118.5 Q 333.5 114.5 335 105.5 L 340 97 L 345.5 94 Z "/>
    <path fill="#51cf66" d="M 374.5 103 L 394.5 105 L 405.5 110 L 413 117.5 L 418 131.5 L 418 146.5 L 412 169.5 L 398 199.5 L 381 226.5 L 363.5 250 L 360 248.5 L 356 241.5 Q 375.7 215.7 391 185.5 L 399 165.5 L 403 148.5 L 403 138.5 L 401 131.5 L 395 122 Q 387.6 115.8 374 116 L 374 105.5 L 373 104.5 L 374.5 103 Z "/>
    <path fill="#51cf66" d="M 326.5 114 Q 330.7 118.1 331 125 L 305.5 136 L 276.5 154 L 270.5 156 L 263 149.5 Q 290.7 127.7 326.5 114 Z "/>
    <path fill="#51cf66" d="M 255.5 154 L 265 160.5 L 263.5 163 L 240.5 180 L 224.5 185 L 207 196 Q 208.1 198.7 205.5 198 Q 189.8 212.3 183 235.5 L 170.5 249 L 164 240.5 Q 182.7 215.7 205.5 195 L 209 192.5 Q 208.3 190.3 210.5 191 Q 231 170.5 255.5 154 Z "/>
    <path fill="#51cf66" d="M 350.5 249 L 353 250.5 L 357 258.5 Q 327.8 297.3 292.5 330 L 243.5 369 L 210.5 389 L 182.5 402 L 167.5 407 L 150.5 411 L 129.5 412 L 116.5 409 Q 107.5 405.5 102 398.5 L 97 386.5 L 96 367.5 L 99 350.5 L 107 327.5 L 128 288.5 L 147 261 L 152 264.5 L 155 270.5 Q 134.7 296.2 120 327.5 L 110 355.5 L 108 374.5 L 110 383.5 L 115.5 392 L 124.5 397 L 140.5 399 L 141.5 398 L 150.5 398 L 164.5 395 L 189.5 386 L 205.5 378 L 241.5 356 L 277.5 327 Q 299.5 320 313 304.5 Q 323.9 292.4 329 274.5 L 350.5 249 Z "/>
    <path fill="#9775fa" d="M 202 181 Q 207.4 179.5 209 182.5 Q 206.6 186.9 201 187 L 202 181 Z "/>
    <path fill="#9775fa" d="M 301 181 L 309.5 181 L 311 182.5 L 312 190 L 308.5 190 L 301 182.5 L 301 181 Z "/>
    <path fill="#9775fa" d="M 172.5 185 L 179.5 185 L 180 187.5 L 177.5 194 L 153.5 198 L 137 202 L 134 194.5 L 146.5 190 L 172.5 185 Z "/>
    <path fill="#9775fa" d="M 333 185 L 352.5 187 L 377.5 193 L 379 194.5 L 375.5 202 L 371.5 202 L 343.5 195 L 338.5 195 L 333 192.5 L 333 185 Z "/>
    <path fill="#9775fa" d="M 108.5 202 Q 112.5 204 113 209.5 L 83.5 224 L 66 238.5 L 61 246.5 L 60 259.5 Q 64.5 271.5 73.5 279 Q 90.5 292.8 113 300 L 108.5 308 Q 73.7 297.8 52 274.5 L 45 263.5 L 43 252.5 L 47 241.5 L 60.5 227 L 80.5 214 L 108.5 202 Z "/>
    <path fill="#9775fa" d="M 403.5 203 L 410.5 204 L 439.5 218 Q 453.2 225.8 463 237.5 Q 469.8 244.2 470 257.5 Q 466.6 270.6 457.5 278 L 455.5 278 L 448 272 L 448 268.5 L 453 259.5 L 453 249.5 Q 448.8 236.7 438.5 230 L 412.5 215 L 400 211 Q 399.4 205.7 403.5 203 Z "/>
    <path fill="#9775fa" d="M 433.5 275 Q 445.5 274.5 450 281.5 Q 453 285.5 453 292.5 Q 451.5 301 445.5 305 Q 441.5 308 434.5 308 Q 426.9 306.2 423 300.5 Q 419.7 295.8 421 286.5 Q 422.6 279.6 428.5 277 L 433.5 275 Z "/>
    <path fill="#9775fa" d="M 411.5 294 Q 414.8 292.9 414 295.5 L 416 303 L 399 309 L 396 303.5 L 396 300 L 411.5 294 Z "/>
    <path fill="#9775fa" d="M 185 306 L 187.5 306 L 194 312.5 L 196 318.5 L 199 347.5 L 201 352.5 L 204 372.5 L 196.5 376 L 195 374.5 L 190 351.5 L 190 345.5 L 187 332.5 L 185 306 Z "/>
    <path fill="#9775fa" d="M 324 307 Q 326.7 305.9 326 308.5 L 327 312.5 L 326 313.5 L 326 322.5 L 325 323.5 L 325 330.5 L 322 342.5 L 321 353.5 L 315 377 L 311.5 377 L 306 374 L 314 337.5 L 316 316.5 L 324 307 Z "/>
    <path fill="#9775fa" d="M 135 309 L 140.5 309 L 162.5 315 L 177.5 317 L 179 318.5 L 180 327 L 162.5 325 L 133.5 318 L 132 316.5 L 135 309 Z "/>
    <path fill="#9775fa" d="M 367.5 309 Q 373.6 307.8 373 310.5 L 376 317 L 358.5 322 L 332 326 L 333 317 L 367.5 309 Z "/>
    <path fill="#9775fa" d="M 201.5 322 L 207 325.5 L 208 330 Q 202.6 331.5 201 328.5 L 200 323.5 L 201.5 322 Z "/>
    <path fill="#9775fa" d="M 308.5 324 L 311 325.5 L 310 330 Q 306.2 331 305 328.5 L 308.5 324 Z "/>
    <path fill="#9775fa" d="M 250.5 329 L 251.5 330 L 260.5 330 L 262.5 329 L 264.5 332 L 250.5 333 L 248.5 330 L 250.5 329 Z "/>
    <path fill="#9775fa" d="M 312.5 386 Q 324.6 385.9 329 393.5 Q 332.1 397.9 331 406.5 Q 329.5 413 324.5 416 Q 321 420 312.5 419 L 303 413.5 L 299 402.5 L 302 393.5 L 307.5 388 L 312.5 386 Z "/>
    <path fill="#9775fa" d="M 208.5 397 Q 212.9 395.5 212 398.5 L 224 425.5 L 236 442 L 247.5 449 Q 252.2 451.3 260.5 450 Q 270.6 446.1 277 438.5 L 284 429.5 L 293.5 413 L 296 414.5 L 300 419.5 L 300 421.5 Q 290.9 444.4 273.5 459 L 259.5 466 L 250.5 466 Q 236.8 461.7 229 451.5 L 217 434.5 Q 208.5 419.5 203 401.5 L 204 399 L 208.5 397 Z "/>
    <path fill="#66d9e8" d="M 252.5 47 L 264.5 48 Q 274.9 52.6 282 60.5 L 295 78.5 L 304 97.5 L 309 110.5 L 309 113.5 L 301.5 118 L 290 91.5 Q 283.8 78.7 273.5 70 Q 267 63.5 254.5 63 L 245.5 66 L 233 76.5 L 225 87.5 L 213 113.5 L 203 146.5 L 203 151.5 L 198 172.5 L 196 192.5 L 195 195.5 L 185.5 205 L 184 202.5 L 185 201.5 L 186 185.5 L 191 161.5 L 192 150.5 L 203 111.5 L 214 85.5 Q 221.8 69.8 233.5 58 Q 240.7 50.2 252.5 47 Z M 257 48 Q 242 51 234 60 L 219 80 L 204 114 L 194 149 L 192 166 L 188 184 L 187 199 Q 185 200 188 201 L 194 194 L 200 154 L 206 130 L 209 124 L 209 120 L 218 98 L 231 77 Q 239 66 253 62 L 266 63 L 274 68 L 287 84 L 303 116 L 308 113 L 297 86 L 281 62 L 268 51 L 257 48 Z "/>
    <path fill="#66d9e8" d="M 159.5 94 Q 174.2 91.8 178 100.5 Q 182.2 104.3 181 113.5 Q 178.4 120.9 172.5 125 L 160.5 126 L 152 120.5 Q 146.9 116.1 149 104.5 L 155.5 96 L 159.5 94 Z M 162 95 L 156 98 L 151 104 L 151 106 L 150 109 L 151 117 Q 155 123 163 125 L 173 123 L 179 115 Q 181 106 177 102 Q 173 94 162 95 Z "/>
    <path fill="#66d9e8" d="M 126.5 101 L 141.5 101 L 143 102.5 L 142 112 Q 137.5 113.7 129.5 113 Q 120.2 116.2 115 123.5 L 112 129.5 L 111 141.5 L 110 142.5 L 114 163.5 L 130 199.5 Q 153.3 240.2 184 273.5 Q 189.3 293.3 201.5 306 L 204 307.5 L 205.5 310 Q 216.9 321.1 234.5 326 L 249.5 340 L 251 340 L 249.5 344 L 242.5 348 Q 216.6 328.4 195 304.5 L 193.5 302 Q 191.3 302.8 192 300.5 Q 145.7 253.3 112 193.5 L 99 163.5 L 95 144.5 L 95 128.5 Q 97.4 113.4 108.5 107 L 114.5 104 L 126.5 101 Z M 126 103 L 116 105 L 106 111 L 100 118 L 96 135 L 96 143 L 100 162 L 116 198 Q 135 231 159 260 Q 158 262 161 261 L 167 271 L 181 286 L 185 292 L 188 294 L 190 297 L 195 301 Q 186 290 183 275 L 179 271 Q 180 268 177 269 L 147 230 L 131 205 L 116 174 L 112 163 L 109 147 L 110 131 L 115 122 Q 114 119 117 120 L 119 116 L 128 112 L 140 111 L 141 109 L 141 103 L 126 103 Z M 209 314 L 208 316 L 213 320 Q 215 319 214 322 L 241 345 L 244 346 L 249 342 L 241 334 L 234 327 L 233 328 L 232 326 L 224 324 L 209 314 Z "/>
    <path fill="#66d9e8" d="M 188.5 114 L 194 116.5 L 193 123.5 L 191.5 125 Q 186.8 124.8 185 121.5 L 188.5 114 Z M 190 116 L 187 122 L 191 123 Q 193 122 192 118 L 190 116 Z "/>
    <path fill="#66d9e8" d="M 214.5 127 L 223.5 131 L 249 148.5 Q 250.1 151.8 247.5 151 L 241.5 155 L 212 135.5 Q 211.3 129.3 214.5 127 Z M 214 130 L 213 135 L 238 150 L 241 153 L 243 153 L 246 151 L 247 149 L 219 130 L 214 130 Z "/>
    <path fill="#66d9e8" d="M 315.5 137 L 318 140.5 L 320 148.5 L 322 164.5 L 325 175.5 L 328 208 L 319 200.5 L 317 195.5 L 314 168.5 L 308 141.5 L 315.5 137 Z M 315 139 L 310 141 L 316 172 L 318 194 Q 319 201 325 205 Q 324 207 327 206 L 325 197 L 323 174 L 321 168 L 319 151 L 316 142 Q 317 138 315 139 Z "/>
    <path fill="#66d9e8" d="M 268.5 165 Q 274.7 165.8 277.5 170 L 296 187.5 Q 294.8 190.3 293.5 188 L 272.5 180 L 262 170.5 Q 261.3 168.3 263.5 169 L 268.5 165 Z M 269 167 L 266 169 L 265 171 Q 267 170 266 173 L 269 174 L 271 178 L 286 183 L 288 182 L 272 167 L 269 167 Z "/>
    <path fill="#66d9e8" d="M 322.5 214 L 323 216 Q 325.7 214.9 325 217.5 L 344 238.5 L 347 244.5 L 341.5 252 L 336 247.5 L 330 239.5 L 328 229.5 L 321 215.5 L 322.5 214 Z M 327 221 Q 326 227 330 231 L 331 238 L 338 248 L 341 249 L 345 246 Q 346 241 343 240 L 327 221 Z "/>
    <path fill="#66d9e8" d="M 361 264 L 366 267.5 Q 387.3 296.7 403 331.5 L 411 357.5 L 412 383.5 Q 409.5 396 401.5 403 L 392.5 408 L 385.5 410 L 380.5 411 L 364.5 411 L 344.5 407 L 338 403.5 L 337 394 L 363.5 400 L 375.5 400 L 385.5 397 L 395 388.5 L 398 380.5 L 398 362.5 L 397 361.5 L 396 350.5 L 388 328.5 Q 375.6 300.4 358 277.5 L 356 271.5 L 361 264 Z M 363 266 L 358 272 L 358 275 L 372 295 L 372 297 L 383 314 L 391 332 L 399 358 L 400 377 L 400 379 L 396 390 Q 390 398 379 401 L 358 401 L 339 396 L 340 404 L 362 409 L 383 409 L 391 407 L 401 402 L 409 390 L 411 380 L 410 361 L 400 329 L 381 293 L 363 266 Z "/>
    <path fill="#66d9e8" d="M 271.5 357 L 307 380.5 L 299.5 386 L 296.5 386 L 263 365 L 267.5 359 L 271.5 357 Z M 271 359 L 265 364 L 273 370 L 299 385 L 303 382 L 304 379 L 302 379 L 290 371 Q 287 372 288 369 L 271 359 Z "/>
    <path fill="#f783ac" d="M 235.5 219 L 237 219.5 L 230.5 224 L 233.5 220 L 235.5 219 Z "/>
    <path fill="#f783ac" d="M 226.5 228 L 225 230.5 L 224.5 232 L 224 230.5 L 226.5 228 Z "/>
    <path fill="#f783ac" d="M 247.5 235 L 247 236.5 L 245.5 239 L 246 237.5 L 247.5 235 Z "/>
  </g>
  <g id="line">
    <path fill="#1a1a1a" d="M 252.5 40 L 261.5 40 L 274.5 45 L 291 60.5 Q 307.7 81.3 315 110 L 318.5 110 L 328 105.5 Q 329.4 95.4 336.5 91 Q 342.8 84.8 357.5 87 Q 365.3 89.8 369.5 96 L 384.5 96 L 401.5 100 Q 412.2 103.8 418 112.5 L 424 124.5 L 425 129.5 L 425 147.5 L 418 173.5 L 408 195.5 L 411.5 198 L 423.5 202 L 449.5 216 L 468 232.5 Q 476.2 240.8 477 256.5 L 472 271.5 L 459 285.5 L 459 289.5 L 460 292.5 Q 457.7 293.8 459 298.5 L 456 304.5 L 449.5 311 Q 443.7 316.2 430.5 314 L 421.5 309 L 418.5 309 L 403 315 L 412 336.5 L 417 353.5 L 417 358.5 L 419 365.5 L 419 381.5 L 417 391.5 L 414 398.5 L 404.5 409 L 390.5 416 L 370.5 418 L 369.5 417 L 352.5 416 L 336 412 Q 334.9 418.8 328.5 422 L 318.5 426 L 311.5 426 L 306.5 425 L 297 442.5 L 279.5 463 L 266.5 471 L 258.5 473 L 251.5 473 L 237.5 468 L 221 452.5 Q 209.5 438 202 419.5 L 197 404 L 161.5 416 L 150.5 417 L 149.5 418 L 131.5 419 L 114.5 416 Q 103.3 412.3 97 403.5 Q 87.5 390.5 89 366.5 L 95 339.5 L 104 319.5 L 105 314 Q 72.6 303.6 50 282.5 L 39 266.5 Q 35.4 259.6 37 247.5 Q 42.2 231.7 54.5 223 L 77.5 208 L 105 195.5 L 92 163.5 L 88 145.5 L 88 127.5 Q 90.6 113.1 99.5 105 L 116.5 96 L 127.5 95 L 128.5 94 L 147.5 94 Q 153.5 84.5 171.5 87 L 182 93.5 L 188.5 106 L 196.5 109 L 203 92.5 L 216 68.5 L 234.5 48 L 247.5 41 L 252.5 40 Z M 253 47 Q 241 50 234 58 Q 222 70 214 86 L 203 112 L 192 151 L 191 162 L 186 186 L 185 202 L 184 203 L 186 205 L 195 196 L 196 193 L 198 173 L 203 152 L 203 147 L 213 114 L 225 88 L 233 77 L 246 66 L 255 63 Q 267 64 274 70 Q 284 79 290 92 L 302 118 L 309 114 L 309 111 L 304 98 L 295 79 L 282 61 Q 275 53 265 48 L 253 47 Z M 255 68 L 244 73 Q 224 90 217 120 Q 238 130 256 144 L 260 143 Q 276 130 296 121 L 296 117 L 288 98 L 277 81 L 266 70 L 260 68 L 255 68 Z M 160 94 L 156 96 L 149 105 Q 147 116 152 121 L 161 126 L 173 125 Q 178 121 181 114 Q 182 104 178 101 Q 174 92 160 94 Z M 346 94 L 340 97 L 335 106 Q 334 115 337 119 L 347 126 Q 357 127 362 122 L 366 116 Q 368 105 364 101 Q 360 92 346 94 Z M 127 101 L 115 104 L 109 107 Q 97 113 95 129 L 95 145 L 99 164 L 112 194 Q 146 253 192 301 Q 191 303 194 302 L 195 305 Q 217 328 243 348 L 250 344 L 251 340 L 250 340 L 235 326 Q 217 321 206 310 L 204 308 L 202 306 Q 189 293 184 274 Q 153 240 130 200 L 114 164 L 110 143 L 111 142 L 112 130 L 115 124 Q 120 116 130 113 Q 138 114 142 112 L 143 103 L 142 101 L 127 101 Z M 375 103 L 373 105 L 374 106 L 374 116 Q 388 116 395 122 L 401 132 L 403 139 L 403 149 L 399 166 L 391 186 Q 376 216 356 242 L 360 249 L 364 250 L 381 227 L 398 200 L 412 170 L 418 147 L 418 132 L 413 118 L 406 110 L 395 105 L 375 103 Z M 189 114 L 185 122 Q 187 125 192 125 L 193 124 L 194 117 L 189 114 Z M 327 114 Q 291 128 263 150 L 271 156 L 277 154 L 306 136 L 331 125 Q 331 118 327 114 Z M 135 117 L 123 122 Q 117 128 115 138 L 115 147 L 118 160 L 129 187 Q 141 186 151 182 L 181 177 L 182 167 L 190 130 L 184 127 L 181 127 Q 177 132 171 133 Q 156 135 150 128 L 143 119 L 143 117 L 135 117 Z M 373 120 L 370 124 Q 365 131 356 133 Q 342 135 337 128 L 323 134 L 329 160 L 331 176 L 337 178 L 342 178 L 384 187 L 394 165 L 398 148 Q 399 134 393 127 L 385 122 L 373 120 Z M 215 127 Q 211 129 212 136 L 242 155 L 248 151 Q 250 152 249 149 L 224 131 L 215 127 Z M 316 137 L 308 142 L 314 169 L 317 196 L 319 201 L 328 208 L 325 176 L 322 165 L 320 149 L 318 141 L 316 137 Z M 211 141 L 208 147 L 203 174 L 220 173 L 237 159 L 231 153 L 211 141 Z M 302 144 L 279 159 Q 276 158 277 161 L 291 173 L 309 174 L 309 168 L 304 148 Q 306 143 302 144 Z M 256 154 Q 231 170 211 191 Q 208 190 209 193 L 206 195 Q 183 216 164 241 L 171 249 L 183 236 Q 190 212 206 198 Q 208 199 207 196 L 225 185 L 241 180 L 264 163 L 265 161 L 256 154 Z M 269 165 L 264 169 Q 261 168 262 171 L 273 180 Q 287 183 297 190 L 298 190 L 278 170 Q 275 166 269 165 Z M 202 181 L 201 188 L 209 183 L 209 181 L 202 181 Z M 301 181 L 301 183 L 310 190 Q 311 192 312 190 L 311 183 L 310 181 L 301 181 Z M 173 185 L 147 190 L 134 195 L 137 202 L 154 198 L 178 194 L 180 188 L 180 185 L 173 185 Z M 333 185 L 333 193 L 339 195 L 344 195 L 372 202 L 376 202 L 379 195 L 378 193 L 353 187 L 333 185 Z M 246 186 Q 223 190 210 204 Q 199 214 193 229 L 188 250 Q 188 281 204 298 Q 219 317 248 322 L 267 322 L 272 321 Q 288 317 299 308 Q 309 299 316 288 L 323 271 L 325 260 L 325 249 L 322 234 Q 318 221 310 212 Q 300 198 284 191 L 267 186 L 246 186 Z M 174 199 L 145 205 L 141 208 L 156 231 Q 157 233 161 233 L 177 215 L 177 206 L 178 205 Q 181 197 174 199 Z M 336 199 L 334 201 L 335 202 L 336 219 L 349 235 L 353 237 L 372 208 L 360 203 L 336 199 Z M 109 202 L 81 214 L 61 227 L 47 242 L 43 253 L 45 264 L 52 275 Q 74 298 109 308 L 113 300 Q 90 293 74 279 Q 64 272 60 260 L 61 247 L 66 239 L 84 224 L 113 210 Q 113 204 109 202 Z M 404 203 Q 399 206 400 211 L 413 215 L 439 230 Q 449 237 453 250 L 453 260 L 448 269 L 448 272 L 456 278 L 458 278 Q 467 271 470 258 Q 470 244 463 238 Q 453 226 440 218 L 411 204 L 404 203 Z M 321 213 L 328 230 L 330 240 L 336 248 L 342 252 L 347 245 L 344 239 L 325 218 L 323 215 L 321 213 Z M 114 215 L 91 225 L 79 233 L 68 244 L 64 255 L 65 260 L 71 270 Q 89 287 116 296 Q 127 274 143 256 L 142 252 Q 128 236 118 217 Q 117 214 114 215 Z M 397 215 L 367 258 Q 381 275 392 296 L 396 296 L 414 288 L 417 279 Q 423 267 443 268 L 449 257 Q 449 248 445 244 Q 427 223 397 215 Z M 351 249 L 329 275 Q 324 292 313 305 Q 299 320 278 327 L 242 356 L 206 378 L 190 386 L 165 395 L 151 398 L 142 398 L 141 399 L 125 397 L 116 392 L 110 384 L 108 375 L 110 356 L 120 328 Q 135 296 155 271 L 152 265 L 147 261 L 128 289 L 107 328 L 99 351 L 96 368 L 97 387 L 102 399 Q 107 406 117 409 L 130 412 L 151 411 L 168 407 L 183 402 L 211 389 L 244 369 L 293 330 Q 328 297 357 259 L 353 251 L 351 249 Z M 361 264 L 356 272 L 358 278 Q 376 300 388 329 L 396 351 L 397 362 L 398 363 L 398 381 L 395 389 L 386 397 L 376 400 L 364 400 L 337 394 L 338 404 L 345 407 L 365 411 L 381 411 L 386 410 L 393 408 L 402 403 Q 409 396 412 384 L 411 358 L 403 332 Q 387 297 366 268 L 361 264 Z M 158 274 L 139 304 L 141 305 L 157 309 L 178 312 L 177 295 L 161 276 L 158 274 Z M 434 275 L 429 277 Q 423 280 421 287 Q 420 296 423 301 Q 427 306 435 308 Q 441 308 446 305 Q 452 301 453 293 Q 453 286 450 282 Q 445 275 434 275 Z M 352 277 L 335 297 L 334 311 Q 354 310 369 304 Q 362 289 352 277 Z M 412 294 L 396 300 L 396 304 L 399 309 L 416 303 L 414 296 Q 415 293 412 294 Z M 185 305 L 188 340 L 190 346 L 192 363 L 195 375 L 197 376 L 204 373 L 201 353 L 199 348 L 196 319 L 194 313 L 185 305 Z M 327 306 L 324 307 L 316 317 L 314 338 L 306 374 L 312 377 L 315 377 L 321 354 L 322 343 L 325 331 L 325 324 L 326 323 L 326 314 L 327 313 L 327 306 Z M 135 309 L 132 317 L 134 318 L 163 325 L 180 327 L 179 319 L 178 317 L 163 315 L 141 309 L 135 309 Z M 368 309 L 333 317 L 332 326 L 359 322 L 376 317 L 373 311 Q 374 308 368 309 Z M 202 321 L 200 323 L 201 329 L 203 330 L 210 330 L 207 326 L 202 321 Z M 129 323 L 120 340 L 114 360 L 114 368 L 113 369 L 114 380 L 116 385 L 122 390 L 135 394 L 144 394 L 161 391 L 189 381 L 181 336 L 176 333 L 159 331 L 129 323 Z M 310 323 L 305 328 L 305 330 L 310 330 L 311 327 Q 312 322 310 323 Z M 379 323 L 372 326 L 359 328 L 354 330 L 333 333 L 330 337 L 327 359 Q 323 367 322 380 L 341 390 L 362 395 Q 379 397 388 390 Q 393 385 394 377 L 394 364 L 391 355 L 391 351 L 381 325 L 379 323 Z M 251 329 L 247 331 L 251 333 L 265 332 Q 268 331 265 329 L 261 330 L 252 330 L 251 329 Z M 203 337 L 204 350 Q 208 358 208 369 L 212 369 L 236 353 L 220 338 L 203 337 Z M 298 337 L 294 338 L 282 348 L 276 355 L 300 370 L 302 370 L 309 340 L 309 337 L 298 337 Z M 272 357 L 268 359 L 263 365 L 297 386 L 300 386 L 307 381 L 272 357 Z M 256 369 L 237 382 L 216 393 Q 222 418 237 436 Q 243 443 253 446 Q 263 446 268 441 Q 288 424 294 393 Q 274 382 258 369 L 256 369 Z M 313 386 L 308 388 L 302 394 L 299 403 L 303 414 L 313 419 Q 321 420 325 416 Q 329 413 331 407 Q 332 398 329 394 Q 325 386 313 386 Z M 209 397 L 203 401 Q 211 431 229 452 Q 237 462 251 466 L 260 466 L 274 459 Q 291 444 300 422 L 300 420 L 294 412 Q 287 427 277 439 Q 271 446 261 450 Q 252 451 248 449 L 236 442 L 224 426 L 212 399 Q 213 395 209 397 Z "/>
    <path fill="#1a1a1a" d="M 238.5 213 Q 250.2 212.3 254 219.5 Q 256.2 224.2 255 232.5 Q 251.2 243.2 242.5 249 Q 237.3 253.3 226.5 252 L 220 247.5 Q 217 243.5 217 236.5 L 223 223.5 L 230.5 216 L 238.5 213 Z M 238 218 L 231 222 L 222 235 Q 221 242 224 245 L 230 248 L 237 247 L 242 244 Q 248 239 251 230 L 250 223 Q 248 216 238 218 Z "/>
  </g>
</svg>
