<svg xmlns="http://www.w3.org/2000/svg" width="512" height="512" viewBox="0 0 512 512">
  <g id="color">
    <path fill="#ffffff" d="M 248.5 112 L 266 112.5 L 248.5 113 L 248.5 112 Z "/>
    <path fill="#ffffff" d="M 232.5 113 L 244 113.5 L 232.5 114 L 232.5 113 Z "/>
    <path fill="#ffffff" d="M 271.5 113 L 282 113.5 L 271.5 114 L 271.5 113 Z "/>
    <path fill="#ffffff" d="M 221.5 114 L 227 114.5 L 221.5 115 L 221.5 114 Z "/>
    <path fill="#ffffff" d="M 287.5 114 L 293 114.5 L 287.5 115 L 287.5 114 Z "/>
    <path fill="#ffffff" d="M 297.5 115 L 302 115.5 L 297.5 116 L 297.5 115 Z "/>
    <path fill="#ffffff" d="M 204.5 116 L 209 116.5 L 204.5 117 L 204.5 116 Z "/>
    <path fill="#ffffff" d="M 304.5 116 L 314 117.5 L 309.5 118 L 304.5 117 L 304.5 116 Z "/>
    <path fill="#ffffff" d="M 339.5 124 L 346 126.5 L 344.5 127 L 339.5 125 L 339.5 124 Z "/>
    <path fill="#ffffff" d="M 169.5 125 L 171 125.5 L 167.5 127 L 167.5 126 L 169.5 125 Z "/>
    <path fill="#ffffff" d="M 159.5 129 L 161 129.5 L 155.5 132 L 155.5 131 L 159.5 129 Z "/>
    <path fill="#ffffff" d="M 352.5 129 L 358 131.5 L 356.5 132 L 352.5 130 L 352.5 129 Z "/>
    <path fill="#ffffff" d="M 151.5 133 L 150.5 135 L 146.5 137 L 147.5 135 L 151.5 133 Z "/>
    <path fill="#ffffff" d="M 363.5 134 L 367 136.5 L 365.5 136 L 363.5 134 Z "/>
    <path fill="#ffffff" d="M 370.5 138 L 374 140.5 L 372.5 140 L 370.5 138 Z "/>
    <path fill="#ffffff" d="M 375.5 141 L 381 145.5 L 378.5 144 L 375.5 141 Z "/>
    <path fill="#ffffff" d="M 136.5 142 L 135.5 144 L 132.5 146 L 134.5 143 L 136.5 142 Z "/>
    <path fill="#ffffff" d="M 242.5 153 L 285.5 154 L 286.5 155 L 295.5 155 L 322.5 160 L 338.5 165 L 357.5 174 L 362.5 177 L 377 191.5 L 392 212 L 378.5 208 L 349.5 203 L 303.5 200 L 302.5 199 L 236.5 198 L 235.5 199 L 212.5 199 L 211.5 200 L 198.5 200 L 197.5 201 L 187.5 201 L 186.5 202 L 162.5 203 L 134.5 208 L 121 212 Q 133 192.2 150.5 177 L 164.5 169 L 186.5 161 L 210.5 156 L 227.5 155 L 228.5 154 L 241.5 154 L 242.5 153 Z "/>
    <path fill="#ffffff" d="M 41.5 243 L 42 244.5 L 40.5 247 L 40 245.5 L 41.5 243 Z "/>
    <path fill="#ffffff" d="M 476.5 263 L 477 270.5 L 476 270.5 L 476.5 263 Z "/>
    <path fill="#ffffff" d="M 36.5 264 L 37 271.5 L 36 271.5 L 36.5 264 Z "/>
    <path fill="#ffffff" d="M 477.5 273 L 478 290.5 L 477 290.5 L 477.5 273 Z "/>
    <path fill="#ffffff" d="M 35.5 274 L 36 288.5 L 35 288.5 L 35.5 274 Z "/>
    <path fill="#ffffff" d="M 36.5 292 L 37 299.5 L 36 299.5 L 36.5 292 Z "/>
    <path fill="#ffffff" d="M 476.5 293 L 477 300.5 L 476 300.5 L 476.5 293 Z "/>
    <path fill="#ffffff" d="M 37.5 303 L 38 307.5 L 37 307.5 L 37.5 303 Z "/>
    <path fill="#ffffff" d="M 475.5 304 L 476 308.5 L 475 308.5 L 475.5 304 Z "/>
    <path fill="#ffffff" d="M 39.5 315 L 41 318.5 L 40 318.5 L 39.5 315 Z "/>
    <path fill="#ffffff" d="M 473.5 315 L 474 317.5 L 471.5 321 L 472 319.5 L 473.5 315 Z "/>
    <path fill="#ffffff" d="M 453.5 333 L 456 333.5 L 449.5 335 L 449.5 334 L 453.5 333 Z "/>
    <path fill="#ffffff" d="M 66.5 335 Q 71 334 72 336.5 L 70.5 336 Q 65.5 337 66.5 335 Z "/>
    <path fill="#ffffff" d="M 442.5 335 L 446 335.5 L 441.5 337 L 442.5 335 Z "/>
    <path fill="#ffffff" d="M 236.5 354 L 236 355.5 L 232.5 361 L 233 359.5 L 236.5 354 Z "/>
    <path fill="#ffffff" d="M 281.5 362 L 284 365.5 L 282 364.5 L 281.5 362 Z "/>
    <path fill="#ffffff" d="M 285.5 369 L 289 373.5 L 287 372.5 L 285.5 369 Z "/>
    <path fill="#ffffff" d="M 226.5 370 L 226 371.5 L 223.5 375 L 225 372.5 L 226.5 370 Z "/>
    <path fill="#ffffff" d="M 410.5 376 L 408.5 379 L 406.5 380 L 407.5 378 L 410.5 376 Z "/>
    <path fill="#ffffff" d="M 219.5 380 L 209.5 391 L 207.5 392 L 208.5 390 L 219.5 380 Z "/>
    <path fill="#ffffff" d="M 402.5 381 L 401.5 383 L 398.5 384 L 398.5 383 L 402.5 381 Z "/>
    <path fill="#ffffff" d="M 118.5 385 L 122 386.5 L 120.5 387 L 118.5 385 Z "/>
    <path fill="#ffffff" d="M 391.5 386 L 393 386.5 L 389.5 388 L 389.5 387 L 391.5 386 Z "/>
    <path fill="#ffffff" d="M 131.5 390 L 136 391.5 L 133.5 392 L 131.5 390 Z "/>
    <path fill="#ffffff" d="M 380.5 390 L 382 390.5 L 377.5 392 L 377.5 391 L 380.5 390 Z "/>
    <path fill="#ffffff" d="M 201.5 394 L 203 394.5 L 199.5 396 L 199.5 395 L 201.5 394 Z "/>
    <path fill="#ffffff" d="M 365.5 394 L 368 394.5 L 360.5 396 L 360.5 395 L 365.5 394 Z "/>
    <path fill="#ffffff" d="M 312.5 395 L 316 396.5 L 314.5 397 L 312.5 395 Z "/>
    <path fill="#ffffff" d="M 169.5 398 L 176 398.5 L 169.5 399 L 169.5 398 Z "/>
    <path fill="#ffffff" d="M 186.5 398 L 191 398.5 L 186.5 399 L 186.5 398 Z "/>
    <path fill="#ffffff" d="M 337.5 398 L 344 398.5 L 337.5 399 L 337.5 398 Z "/>
    <path fill="#4da3ff" d="M 235.5 123 L 277.5 123 L 278.5 124 L 288.5 124 L 289.5 125 L 311.5 127 L 343.5 136 L 364.5 146 L 366 145.5 Q 363.3 147.3 367.5 149 Q 379.6 155.4 388 165.5 L 411 190.5 L 411 192 L 413 192 L 413 194 Q 415.7 192.9 415 195.5 L 444 227.5 L 429.5 229 L 428.5 230 L 408 216.5 L 401 205.5 L 382.5 183 Q 380.3 183.8 381 181.5 L 363.5 166 L 342.5 156 L 312.5 148 L 293.5 146 L 292.5 145 L 284.5 145 L 283.5 144 L 281.5 144 L 232.5 144 L 231.5 145 L 221.5 145 L 220.5 146 L 206.5 147 L 183.5 152 L 156.5 162 Q 141.9 169.4 132 181.5 Q 132.8 183.8 130.5 183 L 118 200 Q 115.3 198.9 116 201.5 L 101.5 219 Q 92.4 222.4 86.5 229 L 77.5 229 L 76.5 228 L 68 227.5 L 70 227 L 70 225.5 L 95.5 197 L 98 195.5 L 99.5 193 Q 101.8 193.8 101 191.5 L 121 170.5 L 121 169 L 125 166.5 L 132.5 158 L 145.5 148 L 158.5 141 L 181.5 132 L 208.5 126 L 223.5 125 L 224.5 124 L 234.5 124 L 235.5 123 Z "/>
    <path fill="#4da3ff" d="M 225.5 208 L 289.5 208 L 290.5 209 L 303.5 209 L 305.5 210 L 307.5 210 L 342.5 212 L 356.5 215 L 358.5 215 L 369.5 216 L 378.5 219 L 382.5 219 L 399.5 225 L 414 233.5 Q 412.8 236.3 411.5 234 L 403.5 232 L 376.5 230 L 375.5 229 L 350.5 229 L 349.5 230 L 294.5 231 L 293.5 232 L 219.5 232 L 218.5 231 L 138.5 229 L 137.5 230 L 109.5 232 L 98.5 236 L 98 234.5 L 113.5 225 L 143.5 216 L 162.5 214 L 163.5 213 L 180.5 212 L 181.5 211 L 194.5 211 L 195.5 210 L 207.5 210 L 208.5 209 L 224.5 209 L 225.5 208 Z "/>
    <path fill="#4da3ff" d="M 148.5 240 L 188.5 241 L 189.5 242 L 214.5 242 L 215.5 243 L 265.5 243 L 266.5 244 L 275.5 244 L 276.5 243 L 297.5 243 L 298.5 242 L 365.5 241 L 370.5 240 L 371.5 241 L 394.5 242 L 413 246 L 412 248.5 L 414 253.5 L 416 268.5 L 416 270.5 L 418 274.5 L 417 277.5 L 417.5 279 L 416 278.5 L 415 293.5 Q 417.9 297.1 417 304.5 L 415 305.5 L 416 301.5 L 414 302.5 L 414 309.5 L 412 317 Q 415 315.8 414 319.5 L 411 318.5 L 413 322.5 L 412 325.5 L 412.5 327 L 411 326.5 L 412 330.5 L 411 330.5 L 410.5 328 L 408 335.5 L 408.5 337 L 405.5 339 L 404.5 337 L 403 339.5 L 404 341.5 L 403 341.5 L 402.5 340 L 402 342 L 399 343.5 L 400.5 346 L 397.5 345 L 388 352.5 L 386.5 355 L 385 354.5 Q 385.9 357.5 381.5 356 L 376 360.5 L 378 357.5 L 374 360.5 L 372.5 363 L 369.5 364 L 369 362 L 364 361 Q 365.1 364.5 357.5 363 L 350.5 365 L 347.5 363 Q 344.9 366.9 337.5 366 L 334.5 365 L 334.5 366 L 339 367.5 L 336.5 368 L 333 367 L 332.5 364 L 332 366 L 330 365.5 Q 332.7 363.8 328.5 362 L 324.5 361 Q 323.3 363.3 322 360.5 L 322 358 Q 319.3 359.1 320 356.5 L 318 355.5 L 319 357.5 L 309 348.5 L 308 345.5 Q 310.3 344.3 307.5 343 L 306.5 345 L 301 337.5 Q 303.3 336.2 300.5 335 L 299.5 336 L 295 331.5 L 295 329.5 L 294.5 328 Q 293.3 330.3 292 327.5 Q 292.8 325.3 290.5 326 L 287 322.5 Q 289.3 321.3 286.5 320 L 281.5 318 L 281.5 319 L 284 320.5 L 282.5 320 L 274 315.5 L 276 314.5 L 273.5 314 L 271.5 315 L 271.5 314 L 273 313.5 L 270.5 313 L 267.5 314 L 266.5 311 L 264.5 311 L 260 311.5 L 264 312.5 L 259 313 L 260 310.5 L 253 310 L 251.5 313 L 246.5 312 L 246 314 L 235 317 L 234.5 315 L 232 316 L 231 320 L 227.5 322 L 226.5 320 Q 223.8 321.3 226 322.5 L 224.5 325 Q 222.3 324.3 223 326.5 L 219 329.5 Q 221.2 330.8 218.5 332 Q 216.8 329.3 215 333.5 L 212 340 L 209 341.5 L 207 346 L 204.5 347 L 202.5 346 L 198 351.5 L 199 353.5 L 191.5 361 L 190 360.5 Q 191.1 363.8 188.5 363 L 183.5 365 L 182 364.5 L 181.5 366 Q 180 363.5 178.5 367 L 175 366 L 174.5 368 L 163 368 L 163 365 L 158 365 L 157.5 367 L 154.5 365 L 150 366 Q 151.1 363.3 148.5 364 L 145 365 L 144.5 363 L 141.5 364 L 141.5 363 L 144 362.5 L 140.5 362 L 137 363 Q 138.5 359.2 135.5 360 L 135.5 362 Q 132.2 363.1 133 360.5 L 129.5 359 L 126.5 360 L 124 358.5 L 126 357.5 L 120.5 355 L 120.5 357 L 111 350.5 L 111 348.5 L 110.5 347 L 109 347.5 L 110 345.5 L 108.5 343 L 107.5 346 L 105 338 Q 102.3 339.1 103 336.5 L 104 333.5 L 103 333.5 L 102.5 335 L 102 333.5 L 103 331 L 101 330.5 L 104 328.5 Q 104.8 324.8 102.5 324 L 101.5 329 L 98 312.5 L 98.5 311 Q 95.9 311.8 97 308.5 Q 99.5 307 96 305.5 L 96 303 Q 98.7 304.1 98 301.5 L 97 299.5 L 97.5 298 Q 94.5 298.9 96 294.5 L 97 292.5 L 97 290.5 L 96.5 277 L 95.5 290 L 95 268.5 L 96 268.5 L 96.5 276 L 97 262.5 L 96.5 261 L 98 260.5 Q 95.5 259 99 257.5 L 98.5 253 L 97 253.5 L 98.5 248 L 100 248.5 Q 98.8 244.8 102.5 246 L 125.5 241 L 147.5 241 L 148.5 240 Z M 113 255 L 106 258 Q 101 261 100 268 L 101 277 Q 103 281 105 278 L 104 280 L 111 284 L 123 283 Q 129 280 130 273 L 128 262 Q 124 254 113 255 Z M 394 255 L 389 257 Q 384 260 383 266 Q 383 270 387 272 L 393 271 L 396 266 L 401 267 L 402 272 L 396 277 L 397 283 L 401 284 Q 407 283 411 280 L 414 274 Q 414 265 410 261 Q 407 262 408 260 L 401 255 L 394 255 Z M 279 315 L 278 317 L 281 318 L 281 316 L 279 315 Z M 409 326 L 407 329 L 409 330 L 409 326 Z M 403 336 L 401 340 L 403 339 L 403 336 Z M 114 350 L 113 352 L 118 355 L 118 354 L 114 350 Z M 385 351 L 383 353 Q 380 352 381 355 L 386 353 L 385 351 Z M 354 361 L 352 362 L 351 364 L 354 363 L 356 363 L 358 362 L 354 361 Z "/>
    <path fill="#4da3ff" d="M 112.5 266 Q 118 265 119 268.5 Q 119.8 272.3 117.5 273 Q 112.3 274.3 111 271.5 Q 110 267 112.5 266 Z "/>
    <path fill="#9775fa" d="M 62.5 238 L 77.5 238 L 78 240.5 Q 70.7 248.7 68 261.5 L 67 273.5 L 66 274.5 L 66 302.5 L 67 303.5 L 69 327 L 58.5 325 L 49 317.5 L 46 308.5 L 45 295.5 L 44 294.5 L 44 269.5 L 48 248.5 L 54.5 241 L 62.5 238 Z "/>
    <path fill="#9775fa" d="M 436.5 238 Q 456.8 235.8 464 246.5 L 469 267.5 L 469 295.5 L 465 315.5 L 458.5 323 L 445.5 327 Q 443 326 444 321.5 L 445 320.5 L 446 304.5 L 447 303.5 L 447 273.5 L 444 256.5 L 440 246.5 L 435 239.5 L 436.5 238 Z "/>
    <path fill="#66d9e8" d="M 242.5 121 L 270.5 121 L 271.5 122 L 294.5 123 L 295.5 124 L 309.5 125 L 330.5 130 Q 367.4 140.6 390 165.5 L 405 181.5 L 405 183 Q 407.7 181.9 407 184.5 L 439 218.5 L 447 230 L 426.5 231 Q 418.8 223.2 408 218.5 L 383 185.5 L 369.5 172 Q 359 164 345.5 159 L 331.5 154 L 327.5 154 L 314.5 150 L 303.5 149 L 296.5 147 L 288.5 147 L 287.5 146 L 243.5 145 L 242.5 146 L 225.5 146 L 224.5 147 L 217.5 147 L 210.5 149 L 198.5 150 L 167.5 159 Q 144.6 167.1 131 184.5 L 102.5 220 L 86.5 231 L 81.5 231 L 80.5 230 L 66 230 L 67.5 226 Q 69.8 226.8 69 224.5 L 133.5 155 L 156.5 140 L 185.5 129 L 210.5 124 L 226.5 123 L 227.5 122 L 241.5 122 L 242.5 121 Z M 236 123 L 235 124 L 225 124 L 224 125 L 209 126 L 182 132 L 159 141 L 146 148 L 133 158 L 125 167 L 121 169 L 121 171 L 101 192 Q 102 194 100 193 L 98 196 L 96 197 L 70 226 L 70 227 L 68 228 L 77 228 L 78 229 L 87 229 Q 92 222 102 219 L 116 202 Q 115 199 118 200 L 131 183 Q 133 184 132 182 Q 142 169 157 162 L 184 152 L 207 147 L 221 146 L 222 145 L 232 145 L 233 144 L 282 144 L 284 144 L 285 145 L 293 145 L 294 146 L 313 148 L 343 156 L 364 166 L 381 182 Q 380 184 383 183 L 401 206 L 408 217 L 429 230 L 430 229 L 444 228 L 415 196 Q 416 193 413 194 L 413 192 L 411 192 L 411 191 L 388 166 Q 378 154 365 146 L 349 138 L 329 131 L 325 131 L 312 127 L 290 125 L 289 124 L 279 124 L 278 123 L 236 123 Z "/>
    <path fill="#66d9e8" d="M 234.5 206 L 280.5 206 L 281.5 207 L 297.5 207 L 298.5 208 L 313.5 208 L 314.5 209 L 338.5 210 L 339.5 211 L 347.5 211 L 348.5 212 L 367.5 214 L 396.5 222 Q 411 228 422 237.5 Q 422.8 240.1 419.5 239 L 404.5 234 L 382.5 232 L 381.5 231 L 337.5 231 L 336.5 232 L 285.5 233 L 284.5 234 L 230.5 234 L 229.5 233 L 202.5 233 L 201.5 232 L 177.5 232 L 176.5 231 L 133.5 231 L 132.5 232 L 122.5 232 L 121.5 233 L 108.5 234 L 91.5 239 L 92 237.5 Q 91.3 235.3 93.5 236 Q 103 227 116.5 222 L 150.5 213 L 157.5 213 L 174.5 210 L 184.5 210 L 185.5 209 L 199.5 209 L 200.5 208 L 214.5 208 L 215.5 207 L 233.5 207 L 234.5 206 Z M 226 208 L 225 209 L 209 209 L 208 210 L 196 210 L 195 211 L 182 211 L 181 212 L 164 213 L 163 214 L 144 216 L 114 225 L 98 235 L 99 236 L 110 232 L 138 230 L 139 229 L 219 231 L 220 232 L 294 232 L 295 231 L 350 230 L 351 229 L 376 229 L 377 230 L 404 232 L 412 234 Q 413 236 414 234 L 400 225 L 383 219 L 379 219 L 370 216 L 359 215 L 357 215 L 343 212 L 308 210 L 306 210 L 304 209 L 291 209 L 290 208 L 226 208 Z "/>
    <path fill="#66d9e8" d="M 128.5 239 L 182.5 239 L 183.5 240 L 204.5 240 L 205.5 241 L 226.5 241 L 227.5 242 L 280.5 242 L 281.5 241 L 308.5 241 L 309.5 240 L 330.5 240 L 331.5 239 L 384.5 239 L 414.5 245 L 424.5 249 L 435 256.5 L 439 272.5 L 439 307.5 L 435 330.5 L 430 344.5 Q 425.1 356.1 415.5 363 L 401.5 373 L 379.5 383 L 353.5 389 L 339.5 390 L 338.5 391 L 325.5 391 Q 307.7 387.3 299 374.5 L 280 344 L 267.5 336 L 254.5 334 L 245.5 336 L 236 341 L 234.5 344 Q 232.3 343.3 233 345.5 Q 223.4 356.4 217 370.5 L 204.5 384 Q 197.6 389.1 187.5 391 L 175.5 391 L 174.5 390 L 166.5 390 L 165.5 389 L 148.5 387 L 123.5 379 Q 102.1 369.9 88 353.5 L 80 336.5 L 76 319.5 L 75 307.5 L 74 306.5 L 74 272.5 L 77 257.5 L 80.5 254 L 101.5 244 L 128.5 239 Z M 149 240 L 148 241 L 126 241 L 103 246 Q 99 245 100 249 L 98 249 L 99 258 Q 95 259 98 261 L 97 261 L 97 263 L 97 276 L 96 269 L 95 269 L 96 290 L 97 277 L 97 291 L 97 293 L 96 295 Q 94 299 98 298 L 97 300 L 98 302 Q 99 304 96 303 L 97 306 L 98 304 L 98 306 L 97 309 Q 96 312 99 311 L 98 313 L 100 324 L 102 323 Q 105 324 104 329 L 101 331 L 103 331 L 104 334 L 103 337 Q 102 339 105 338 L 108 346 L 109 343 L 110 346 L 109 348 L 111 347 L 111 349 L 113 352 L 114 350 L 118 354 L 117 356 L 121 357 L 120 354 L 125 356 Q 126 359 128 357 L 127 360 L 130 359 L 133 361 Q 132 363 136 362 L 136 360 Q 139 359 137 363 L 140 363 L 139 362 L 139 361 L 144 362 L 145 365 L 149 364 Q 151 363 150 366 L 155 365 L 158 367 L 158 365 L 163 365 L 163 368 L 175 368 L 175 366 L 179 367 Q 180 363 182 366 L 182 365 L 186 362 L 186 364 L 190 363 L 192 358 Q 191 355 194 356 L 197 354 L 192 360 L 199 354 L 198 352 L 201 348 L 204 346 L 206 346 Q 208 347 207 345 L 208 343 L 206 344 L 208 341 L 209 343 L 210 341 L 208 340 L 210 339 Q 209 341 212 340 L 215 334 L 220 331 L 217 330 Q 218 327 220 329 L 223 327 Q 222 324 225 325 L 226 323 Q 224 321 227 320 L 228 322 L 231 320 L 232 316 L 235 315 L 235 317 L 243 315 L 242 314 L 242 313 L 246 314 L 248 311 L 249 312 L 247 313 L 252 313 L 253 310 L 265 311 L 267 311 Q 269 312 267 314 L 270 314 L 270 312 L 276 314 L 277 317 Q 279 318 278 316 L 280 316 Q 282 315 281 318 L 284 318 L 293 326 L 292 328 L 294 327 L 295 330 L 298 332 L 296 333 Q 297 335 299 333 L 298 335 Q 299 337 301 335 Q 303 336 301 338 L 307 345 L 307 344 L 310 346 L 308 346 L 310 349 L 310 348 L 311 348 L 310 350 Q 311 352 313 350 L 316 353 L 315 353 L 318 357 L 318 356 L 320 357 Q 319 359 322 358 L 322 361 Q 323 363 325 361 L 329 362 Q 333 364 330 366 L 332 366 L 333 364 L 333 367 L 336 367 L 335 366 L 335 365 L 338 366 Q 345 367 348 363 L 350 364 L 354 361 L 358 362 L 357 362 L 355 362 L 351 364 L 351 365 L 358 363 Q 365 364 364 361 L 369 362 L 370 364 L 373 363 L 378 356 L 379 356 L 378 359 L 382 356 Q 386 357 385 355 L 387 355 L 388 353 L 388 351 L 390 351 L 392 350 L 391 348 Q 393 343 395 346 L 400 340 L 397 344 L 398 345 L 402 342 L 401 340 L 403 336 L 404 339 L 405 337 L 406 339 L 409 337 L 408 336 L 409 331 L 408 331 Q 409 333 406 332 Q 405 329 408 330 L 407 329 L 409 326 Q 408 323 411 324 L 409 327 L 410 330 L 412 326 L 411 323 L 413 323 L 411 319 L 414 320 Q 415 316 412 317 L 414 310 L 414 303 L 416 301 L 416 305 L 417 305 Q 418 297 415 294 Q 413 283 417 278 L 415 274 L 416 272 L 415 269 L 414 274 L 411 280 L 403 284 L 397 283 L 396 277 L 402 272 L 401 267 L 396 266 L 393 271 L 387 272 L 383 267 L 385 261 Q 388 256 394 255 L 401 255 L 408 260 Q 407 262 410 261 L 413 269 L 416 269 L 414 254 L 412 249 L 413 246 L 395 242 L 372 241 L 371 240 L 366 241 L 299 242 L 298 243 L 277 243 L 276 244 L 267 244 L 266 243 L 216 243 L 215 242 L 190 242 L 189 241 L 149 240 Z M 392 257 L 390 258 Q 384 260 385 269 L 389 271 L 391 270 L 393 265 L 396 264 L 402 266 Q 405 267 404 273 L 397 278 L 398 282 L 407 281 L 412 274 L 412 270 L 409 262 L 401 257 L 392 257 Z M 260 311 L 259 313 L 264 313 L 260 311 Z M 102 324 L 101 329 L 102 329 L 102 324 Z "/>
    <path fill="#66d9e8" d="M 112.5 255 Q 124.2 254.3 128 261.5 L 130 272.5 Q 128.9 280.4 122.5 283 L 110.5 284 L 101 276.5 L 100 267.5 L 102 261.5 L 105 258.5 L 104.5 257 L 106.5 258 L 112.5 255 Z M 111 257 L 106 260 L 102 266 Q 101 275 104 279 L 114 283 L 123 281 L 128 274 Q 129 265 126 262 Q 122 255 111 257 Z "/>
    <path fill="#66d9e8" d="M 113.5 264 Q 118.6 263.4 120 266.5 L 121 270.5 L 120 274 Q 117.9 275.6 112.5 275 L 110 274 L 109 268.5 L 111.5 265 L 113.5 264 Z M 113 266 Q 110 267 111 272 Q 112 274 118 273 Q 120 272 119 269 Q 118 265 113 266 Z "/>
    <path fill="#66d9e8" d="M 384.5 351 L 385.5 353 L 381 355 Q 379.9 352.3 382.5 353 L 384.5 351 Z "/>
  </g>
  <g id="line">
    <path fill="#1a1a1a" d="M 244.5 113 L 286.5 114 L 287.5 115 L 303.5 116 L 328.5 121 L 349.5 128 L 362.5 134 L 374.5 141 L 391 154 L 391 155.5 L 470 240.5 L 474 250.5 L 476 260.5 L 477 292.5 L 476 293.5 L 475 311.5 Q 472.5 322 465.5 328 L 456.5 333 L 448.5 335 L 442.5 335 L 441 336.5 Q 436.3 356.8 422.5 368 Q 402.6 385.1 373.5 393 L 348.5 398 L 326.5 399 L 316.5 397 L 307.5 393 L 292 378.5 L 280 358.5 L 270.5 347 Q 264.5 341 250.5 343 Q 242.5 345.5 238 351.5 L 223 375.5 L 209.5 390 L 196.5 397 L 185.5 399 L 176.5 399 L 175.5 398 L 165.5 398 L 164.5 397 L 152.5 396 L 124.5 388 Q 100.9 379.1 85 362.5 L 79 354.5 L 70.5 335 Q 53 335 45 325.5 Q 39.9 319.7 38 310.5 L 37 292.5 L 36 291.5 L 36 272.5 L 37 271.5 L 38 254.5 L 43 240.5 L 122 155.5 L 122 154 L 126 151.5 Q 125.3 149.3 127.5 150 Q 146.8 132.8 174.5 124 L 209.5 116 L 226.5 115 L 227.5 114 L 243.5 114 L 244.5 113 Z M 243 121 L 242 122 L 228 122 L 227 123 L 211 124 L 186 129 L 157 140 L 134 155 L 74 219 L 66 228 L 66 230 L 81 230 L 82 231 L 87 231 L 103 220 L 131 185 Q 145 167 168 159 L 199 150 L 211 149 L 218 147 L 225 147 L 226 146 L 243 146 L 244 145 L 288 146 L 289 147 L 297 147 L 304 149 L 315 150 L 328 154 L 332 154 L 346 159 Q 359 164 370 172 L 383 186 L 408 219 Q 419 223 427 231 L 447 230 L 439 219 L 407 185 Q 408 182 405 183 L 405 182 L 390 166 Q 368 140 331 130 L 310 125 L 296 124 L 295 123 L 272 122 L 271 121 L 243 121 Z M 243 153 L 242 154 L 229 154 L 228 155 L 211 156 L 187 161 L 165 169 L 151 177 Q 133 192 121 212 L 135 208 L 163 203 L 187 202 L 188 201 L 198 201 L 199 200 L 212 200 L 213 199 L 236 199 L 237 198 L 303 199 L 304 200 L 350 203 L 379 208 L 392 212 L 377 192 L 363 177 L 358 174 L 339 165 L 323 160 L 296 155 L 287 155 L 286 154 L 243 153 Z M 235 206 L 234 207 L 216 207 L 215 208 L 201 208 L 200 209 L 186 209 L 185 210 L 175 210 L 158 213 L 151 213 L 117 222 Q 103 227 94 236 Q 91 235 92 238 L 92 239 L 109 234 L 122 233 L 123 232 L 133 232 L 134 231 L 177 231 L 178 232 L 202 232 L 203 233 L 230 233 L 231 234 L 285 234 L 286 233 L 337 232 L 338 231 L 382 231 L 383 232 L 405 234 L 420 239 Q 423 240 422 238 Q 411 228 397 222 L 368 214 L 349 212 L 348 211 L 340 211 L 339 210 L 315 209 L 314 208 L 299 208 L 298 207 L 282 207 L 281 206 L 235 206 Z M 63 238 L 55 241 L 48 249 L 44 270 L 44 295 L 45 296 L 46 309 L 49 318 L 59 325 L 69 327 L 67 304 L 66 303 L 66 275 L 67 274 L 68 262 Q 71 249 78 241 L 78 238 L 63 238 Z M 437 238 L 435 240 L 440 247 L 444 257 L 447 274 L 447 304 L 446 305 L 445 321 L 444 322 Q 443 326 446 327 L 459 323 L 465 316 L 469 296 L 469 268 L 464 247 Q 457 236 437 238 Z M 129 239 L 102 244 L 81 254 L 77 258 L 74 273 L 74 307 L 75 308 L 76 320 L 80 337 L 88 354 Q 102 370 124 379 L 149 387 L 166 389 L 167 390 L 175 390 L 176 391 L 188 391 Q 198 389 205 384 L 217 371 Q 223 356 233 346 Q 232 343 235 344 L 236 341 L 246 336 L 255 334 L 268 336 L 280 344 L 299 375 Q 308 387 326 391 L 339 391 L 340 390 L 354 389 L 380 383 L 402 373 L 416 363 Q 425 356 430 345 L 435 331 L 439 308 L 439 273 L 435 257 L 425 249 L 415 245 L 385 239 L 332 239 L 331 240 L 310 240 L 309 241 L 282 241 L 281 242 L 228 242 L 227 241 L 206 241 L 205 240 L 184 240 L 183 239 L 129 239 Z "/>
    <path fill="#1a1a1a" d="M 110.5 257 Q 122.3 255.2 126 261.5 Q 129.3 265.2 128 273.5 L 122.5 281 L 113.5 283 Q 106.1 281.9 103 276.5 Q 100.5 273 102 265.5 L 105.5 260 L 110.5 257 Z M 114 264 L 112 265 L 109 269 L 110 274 L 113 275 Q 118 276 120 274 L 121 271 L 120 267 Q 119 263 114 264 Z "/>
    <path fill="#1a1a1a" d="M 391.5 257 L 400.5 257 L 410 264.5 Q 412.6 267.4 412 273.5 L 406.5 281 L 399.5 282 Q 396.5 281.5 397 277.5 L 404 272.5 Q 404.6 267.4 401.5 266 L 395.5 264 L 393 265 L 390.5 270 L 388.5 271 L 385 268.5 Q 384.4 260.4 389.5 258 L 391.5 257 Z "/>
  </g>
</svg>
