<svg xmlns="http://www.w3.org/2000/svg" width="512" height="512" viewBox="0 0 512 512">
  <g id="color">
    <path fill="#ffffff" d="M 248.5 40 L 265 40.5 L 248.5 41 L 248.5 40 Z "/>
    <path fill="#ffffff" d="M 241.5 41 L 246 41.5 L 241.5 42 L 241.5 41 Z "/>
    <path fill="#ffffff" d="M 267.5 41 L 277 42.5 L 273.5 43 Q 272.3 40.8 267.5 42 L 267.5 41 Z "/>
    <path fill="#ffffff" d="M 228.5 44 L 231 44.5 L 223.5 47 L 223.5 46 L 228.5 44 Z "/>
    <path fill="#ffffff" d="M 286.5 45 L 290 46.5 L 288.5 47 L 286.5 45 Z "/>
    <path fill="#ffffff" d="M 218.5 48 L 220 48.5 L 212.5 52 L 212.5 51 L 218.5 48 Z "/>
    <path fill="#ffffff" d="M 293.5 48 L 300 51.5 L 298.5 51 L 293.5 49 L 293.5 48 Z "/>
    <path fill="#ffffff" d="M 210.5 52 L 209.5 54 L 206.5 56 L 208.5 53 L 210.5 52 Z "/>
    <path fill="#ffffff" d="M 308.5 56 L 315 61.5 L 311.5 59 L 308.5 56 Z "/>
    <path fill="#ffffff" d="M 183.5 77 L 183 78.5 L 181.5 81 L 182 79.5 L 183.5 77 Z "/>
    <path fill="#ffffff" d="M 329.5 77 L 332 80.5 L 330 79.5 L 329.5 77 Z "/>
    <path fill="#ffffff" d="M 333.5 84 L 336 87.5 L 334 86.5 L 333.5 84 Z "/>
    <path fill="#ffffff" d="M 339.5 96 L 341 100.5 L 340 100.5 L 339.5 96 Z "/>
    <path fill="#ffffff" d="M 169.5 112 L 170 120.5 L 169 120.5 L 169.5 112 Z "/>
    <path fill="#ffffff" d="M 343.5 112 L 344 119.5 L 343 119.5 L 343.5 112 Z "/>
    <path fill="#ffffff" d="M 167.5 122 L 169 122.5 L 163.5 125 L 163.5 124 L 167.5 122 Z "/>
    <path fill="#ffffff" d="M 229.5 124 L 231 124.5 L 227.5 126 L 227.5 125 L 229.5 124 Z "/>
    <path fill="#ffffff" d="M 156.5 127 L 158 127.5 L 154.5 129 L 154.5 128 L 156.5 127 Z "/>
    <path fill="#ffffff" d="M 147.5 131 L 149 131.5 L 144.5 134 L 145.5 132 L 147.5 131 Z "/>
    <path fill="#ffffff" d="M 364.5 131 L 370 133.5 L 368.5 134 L 364.5 132 L 364.5 131 Z "/>
    <path fill="#ffffff" d="M 136.5 136 L 138 136.5 L 134.5 138 L 134.5 137 L 136.5 136 Z "/>
    <path fill="#ffffff" d="M 375.5 136 L 379 137.5 L 377.5 138 L 375.5 136 Z "/>
    <path fill="#ffffff" d="M 103.5 151 L 105 151.5 L 97.5 155 L 97.5 154 L 103.5 151 Z "/>
    <path fill="#ffffff" d="M 408.5 151 L 414 153.5 L 412.5 154 L 408.5 152 L 408.5 151 Z "/>
    <path fill="#ffffff" d="M 92.5 156 L 94 156.5 L 88.5 159 L 88.5 158 L 92.5 156 Z "/>
    <path fill="#ffffff" d="M 353.5 156 L 357 157.5 L 355.5 158 L 353.5 156 Z "/>
    <path fill="#ffffff" d="M 419.5 156 L 423 157.5 L 421.5 158 L 419.5 156 Z "/>
    <path fill="#ffffff" d="M 428.5 160 L 433 162.5 L 431.5 162 Q 427.8 161.7 428.5 160 Z "/>
    <path fill="#ffffff" d="M 371.5 164 L 380 168.5 L 375.5 169 L 375.5 168 L 377 167.5 L 371.5 165 L 371.5 164 Z "/>
    <path fill="#ffffff" d="M 134.5 167 L 136 167.5 L 134 168.5 L 150 169.5 L 133.5 170 L 132.5 168 L 134.5 167 Z "/>
    <path fill="#ffffff" d="M 66.5 168 L 68 168.5 L 62.5 172 L 64.5 169 L 66.5 168 Z "/>
    <path fill="#ffffff" d="M 331.5 168 L 336 168.5 L 331.5 169 L 331.5 168 Z "/>
    <path fill="#ffffff" d="M 244.5 169 L 250 169.5 L 244.5 170 L 244.5 169 Z "/>
    <path fill="#ffffff" d="M 192.5 170 L 199 170.5 L 192.5 171 L 192.5 170 Z "/>
    <path fill="#ffffff" d="M 60.5 173 L 60 174.5 L 58.5 179 L 58 176.5 L 60.5 173 Z "/>
    <path fill="#ffffff" d="M 453.5 175 Q 456 176 455 180.5 L 454 180.5 L 453.5 175 Z "/>
    <path fill="#ffffff" d="M 454.5 182 L 455 187.5 L 453.5 190 L 453 188.5 L 454.5 182 Z "/>
    <path fill="#ffffff" d="M 441.5 195 L 447 195.5 L 441.5 196 L 441.5 195 Z "/>
    <path fill="#ffffff" d="M 74.5 196 L 76 196.5 L 76 204.5 L 75 204.5 Q 75.6 197.8 74.5 196 Z "/>
    <path fill="#ffffff" d="M 437.5 196 L 438 203.5 L 437 203.5 L 437.5 196 Z "/>
    <path fill="#ffffff" d="M 84.5 215 L 87 216.5 L 86.5 241 L 86 216 L 84.5 215 Z "/>
    <path fill="#ffffff" d="M 427.5 215 L 429 215.5 L 427 216 L 426.5 245 L 426 216.5 L 427.5 215 Z "/>
    <path fill="#ffffff" d="M 85.5 257 L 86 281.5 L 85 281.5 L 85.5 257 Z "/>
    <path fill="#ffffff" d="M 427.5 261 L 428 284.5 L 427 284.5 L 427.5 261 Z "/>
    <path fill="#ffffff" d="M 84.5 304 L 85 332.5 L 84 332.5 L 84.5 304 Z "/>
    <path fill="#ffffff" d="M 428.5 306 L 429 342.5 L 428 342.5 L 428.5 306 Z "/>
    <path fill="#ffffff" d="M 83.5 362 L 84 380.5 L 83 380.5 L 83.5 362 Z "/>
    <path fill="#ffffff" d="M 428.5 396 L 429 402.5 L 428 402.5 L 428.5 396 Z "/>
    <path fill="#ffffff" d="M 79.5 404 L 81 404.5 L 76 408.5 L 73.5 416 L 73 412.5 L 79.5 404 Z "/>
    <path fill="#ffffff" d="M 432.5 404 L 438 408.5 L 439 411.5 L 438 411.5 L 433.5 405 L 432.5 404 Z "/>
    <path fill="#ffffff" d="M 68.5 421 L 73 421.5 L 68.5 422 L 68.5 421 Z "/>
    <path fill="#ffffff" d="M 57.5 431 L 58 440.5 L 57 440.5 L 57.5 431 Z "/>
    <path fill="#ffffff" d="M 455.5 431 L 456 435.5 L 455 435.5 L 455.5 431 Z "/>
    <path fill="#ffffff" d="M 47.5 442 L 57 442.5 L 47.5 443 L 47.5 442 Z "/>
    <path fill="#ffffff" d="M 456.5 442 L 464 442.5 L 456.5 443 L 456.5 442 Z "/>
    <path fill="#ffffff" d="M 474.5 449 Q 476.9 451.1 476 456.5 L 475 456.5 L 474.5 449 Z "/>
    <path fill="#ffffff" d="M 37.5 451 L 38 455.5 L 37 455.5 L 37.5 451 Z "/>
    <path fill="#ffffff" d="M 37.5 459 Q 37 465 40 467.5 L 38 466.5 L 37.5 459 Z "/>
    <path fill="#ffffff" d="M 475.5 460 L 476 464.5 L 471.5 470 L 470 469.5 L 474 466.5 L 475.5 460 Z "/>
    <path fill="#ffffff" d="M 43.5 470 L 48 470.5 L 43.5 471 L 43.5 470 Z "/>
    <path fill="#ffffff" d="M 424.5 470 L 468 470.5 L 424.5 471 L 424.5 470 Z "/>
    <path fill="#ffffff" d="M 49.5 471 L 61 471.5 L 49.5 472 L 49.5 471 Z "/>
    <path fill="#ffffff" d="M 73.5 471 L 123 471.5 L 73.5 472 L 73.5 471 Z "/>
    <path fill="#ffffff" d="M 314.5 471 L 412 471.5 L 314.5 472 L 314.5 471 Z "/>
    <path fill="#ffffff" d="M 143.5 472 L 275 472.5 L 143.5 473 L 143.5 472 Z "/>
    <path fill="#4da3ff" d="M 250.5 48 Q 259.4 46.6 264.5 49 Q 273.9 52.6 279 60.5 Q 284.5 65.6 286 74 Q 288.7 72.9 288 75.5 L 294 89.5 Q 293.3 95.6 295 98 L 292 97.5 L 292.5 96 L 288.5 96 L 277 91 L 276.5 89 Q 275 91.5 273.5 88 L 259.5 84 L 257.5 85 L 255.5 84 L 247.5 86 Q 246 83.5 244.5 87 L 233.5 91 L 229.5 94 L 219 97 L 220 86.5 L 225 74 Q 228 75.3 227 71.5 L 233 61 Q 235.7 62.1 235 59.5 L 240 55.5 L 241.5 53 L 250.5 48 Z "/>
    <path fill="#4da3ff" d="M 224.5 54 Q 228.9 52.5 228 55.5 L 225 60 L 222 60.5 L 222.5 62 L 221 62.5 L 222 65 Q 219.3 63.9 220 66.5 L 211 85.5 L 210 94.5 L 208 98.5 L 208 100.5 Q 208.5 104.5 205.5 105 L 195.5 108 L 182.5 115 L 177 116 L 178 106.5 L 181 101.5 L 181 97.5 L 183 92.5 L 196 72 L 213.5 59 L 224.5 54 Z "/>
    <path fill="#4da3ff" d="M 285.5 54 L 291.5 55 L 297.5 59 L 300 59 L 301.5 62 Q 308.9 63.1 312 68.5 Q 311.3 70.8 313.5 70 L 319 77 L 321 77.5 L 320.5 79 Q 322.8 78.3 322 80.5 L 330 92.5 L 335 106.5 L 336 114.5 L 333.5 116 L 305 102.5 L 301 82.5 L 298 78.5 L 293 65 Q 290.3 66.1 291 63.5 L 285.5 54 Z "/>
    <path fill="#4da3ff" d="M 252.5 93 L 260.5 93 L 263.5 95 L 272.5 97 L 293.5 108 L 296.5 108 L 311.5 116 L 328 122 L 328.5 124 Q 329.8 121.8 331 124.5 L 331.5 126 L 333.5 125 L 357.5 137 L 362.5 138 L 384.5 149 L 391.5 151 L 395.5 154 L 427 167 Q 425.8 170 429.5 169 L 446 176 Q 448 179 447 186.5 Q 445.8 189.3 444.5 187 L 440 186 Q 438.8 189 442.5 188 L 442.5 189 L 285.5 189 L 284.5 190 L 282.5 190 L 147 189.5 L 150 188.5 L 146.5 188 L 145.5 189 L 69.5 189 L 69.5 187 L 67.5 188 Q 64.5 186 65 180.5 L 68.5 175 L 73.5 174 L 83.5 169 L 87 169 L 87.5 167 L 89 167.5 Q 88.3 165.3 90.5 166 L 92 166.5 Q 91.3 164.3 93.5 165 L 97.5 162 L 102.5 161 L 121.5 151 Q 131.1 149.1 137.5 144 L 140.5 144 L 160.5 134 L 162 134.5 Q 161.3 132.3 163.5 133 L 167.5 130 L 180.5 125 L 182 125.5 Q 181.2 122.9 184.5 124 L 187.5 121 L 195.5 118 L 197 118.5 Q 196.3 116.3 198.5 117 L 214.5 109 L 225 106.5 L 223 105.5 L 245.5 96 L 247 96.5 Q 246.1 93.5 250.5 95 L 252.5 93 Z M 252 107 L 238 113 Q 234 112 235 115 L 230 116 L 213 125 Q 208 124 209 127 L 207 127 L 196 133 Q 190 131 191 135 L 190 134 L 189 136 L 148 154 Q 143 153 144 156 L 121 166 L 120 174 L 125 176 L 135 176 L 136 177 L 166 177 L 168 177 L 172 178 L 174 178 L 261 177 L 262 176 L 341 176 L 342 177 L 345 176 L 371 176 L 372 177 Q 384 179 391 175 Q 394 174 393 169 L 385 162 L 372 156 Q 368 157 369 154 L 361 152 L 324 135 Q 321 136 322 133 Q 313 133 309 128 Q 306 129 307 127 L 306 127 Q 303 128 304 125 Q 295 124 288 119 L 288 118 L 281 115 Q 277 116 278 113 L 262 107 L 252 107 Z M 399 187 L 399 188 L 411 188 L 399 187 Z M 162 188 L 162 189 L 179 189 L 162 188 Z M 197 188 L 197 189 L 206 189 L 197 188 Z M 210 188 L 210 189 L 214 189 L 210 188 Z M 259 188 L 259 189 L 264 189 L 259 188 Z M 267 188 L 267 189 L 271 189 L 267 188 Z "/>
    <path fill="#4da3ff" d="M 254.5 115 L 257.5 116 L 259.5 116 L 267.5 118 L 277.5 124 L 293.5 130 L 299.5 134 L 328.5 146 L 332.5 149 L 337.5 150 L 350.5 157 L 367 163 Q 365.7 166.3 370.5 165 L 376 167.5 L 373.5 168 L 370.5 167 L 369.5 168 L 339.5 168 L 337.5 167 L 336.5 168 L 325.5 168 L 320.5 167 L 319.5 168 L 311.5 168 L 309.5 168 L 147.5 169 L 144.5 168 L 142.5 169 L 142.5 167 L 139.5 168 L 139 166 L 165.5 155 L 167 155.5 Q 166.3 153.3 168.5 154 L 243.5 120 L 247.5 117 L 254.5 115 Z "/>
    <path fill="#4da3ff" d="M 92.5 197 L 105.5 198 Q 106.7 195.8 111.5 197 L 112.5 198 L 122 198 L 122 205.5 L 119.5 208 L 116.5 209 L 88.5 209 Q 86.3 204.8 84 206.5 L 83 198 L 91.5 198 L 92.5 197 Z "/>
    <path fill="#4da3ff" d="M 334.5 197 L 350.5 197 L 351.5 198 L 361.5 198 L 363 199.5 L 360.5 207 L 359 206.5 Q 359.8 209.1 356.5 208 L 355.5 209 L 328.5 209 Q 327.4 206.3 324 207 L 323 198 L 333.5 198 L 334.5 197 Z "/>
    <path fill="#4da3ff" d="M 373.5 197 Q 380.5 195.5 382 199.5 L 382 204.5 L 384 211.5 L 387.5 215 L 393 217 L 393 250.5 L 392 251.5 L 392 307.5 L 391 308.5 Q 393.5 310 392 315.5 L 391 316.5 L 391 401.5 L 389.5 403 L 383 407.5 Q 379 411 379.5 419 L 377.5 418 L 375.5 419 L 373 418 Q 373.4 407.9 366.5 404 L 362 402 L 363 396.5 L 362 391.5 L 363 388.5 L 362 385.5 L 363 384.5 L 363 341.5 L 362 340.5 L 362 302.5 L 361 301.5 L 360 217.5 L 367 214 L 371 206.5 L 371 198 L 373.5 197 Z "/>
    <path fill="#4da3ff" d="M 400.5 197 L 425.5 197 L 430 198 Q 431.8 204.1 428.5 206 Q 425.2 204.9 426 207.5 L 424.5 209 L 397.5 209 L 392 206.5 L 391 200.5 L 391.5 198 L 399.5 198 L 400.5 197 Z "/>
    <path fill="#4da3ff" d="M 131 198 L 142 198 L 142 205.5 Q 142.9 212.1 147.5 215 L 151 216 L 151.5 218 L 153 217.5 L 152 299.5 L 151 300.5 L 151 330.5 L 150 331.5 L 150 393.5 Q 152.8 395.3 151 401.5 L 148 402.5 Q 148.8 404.8 146.5 404 Q 139.4 408.1 140 419 L 133 420 Q 133.5 408.9 126.5 404 L 122 401.5 L 122 313.5 L 121 312.5 L 121 258.5 L 120 257.5 L 121 254.5 L 120 253.5 L 120 217.5 L 128 212.5 Q 132 207.1 131 198 Z "/>
    <path fill="#4da3ff" d="M 154.5 198 L 156.5 198 L 188.5 199 L 190 200.5 L 188 205.5 L 188.5 207 L 183.5 209 L 155.5 209 L 154 206 L 151 206 L 151 199 L 154.5 198 Z "/>
    <path fill="#4da3ff" d="M 250.5 198 L 313.5 198 Q 314.5 198 314 202.5 L 315 207.5 L 320.5 215 L 326 217.5 L 326 243.5 L 325 245.5 L 325 247.5 L 325 283.5 L 324 287.5 L 325 292.5 L 324 293.5 L 324 321.5 L 323 324.5 L 324 327.5 L 323 334.5 Q 325.3 335.8 324 340.5 L 323 341.5 L 323 393.5 L 323 395.5 L 324 400.5 L 315 407.5 Q 312.1 411.4 313 418 L 309.5 420 L 302 420 L 301.5 418 L 300 418.5 L 300 408.5 L 301 407.5 L 301 369.5 L 300 367.5 L 301 365.5 L 299 359.5 L 299 353.5 L 293 335 Q 290.3 336.1 291 333.5 L 284.5 325 L 281.5 323 L 273.5 318 L 266.5 317 L 263.5 315 L 250.5 315 L 239.5 318 L 230 323 Q 231.1 325.7 228.5 325 L 221 334.5 L 216 344.5 L 216 346.5 L 212 367.5 L 212 403.5 Q 214.8 405.2 213 411.5 L 213 413.5 L 212 421 L 201.5 421 L 201 419.5 L 199 409.5 L 193.5 404 L 190 403 L 189 399.5 L 190 397.5 L 189 393.5 L 190 391.5 L 189 386.5 L 190 384.5 L 190 382.5 L 189 378.5 L 190 377.5 L 190 350.5 Q 187.3 348.8 189 342.5 L 189 340.5 L 189 298.5 L 188 297.5 L 188 288.5 L 189 283.5 L 188 282.5 L 187 217.5 L 195 212.5 L 198 208.5 L 199 199 L 249.5 199 L 250.5 198 Z M 256 208 L 243 211 L 232 219 L 230 224 Q 231 226 228 225 L 226 234 L 226 245 L 228 253 L 236 263 L 252 270 Q 258 272 260 269 L 262 270 L 276 264 L 282 257 Q 281 254 284 255 L 287 244 Q 288 233 285 228 L 285 226 L 281 221 Q 282 218 280 219 L 277 215 L 275 214 Q 272 215 273 213 L 272 211 L 256 208 Z M 256 275 L 253 276 L 251 284 L 239 286 Q 238 292 242 294 L 244 294 Q 243 297 246 296 Q 247 300 244 303 Q 243 308 247 309 L 256 305 Q 261 305 264 308 Q 268 309 269 307 Q 270 301 267 299 L 268 296 L 273 292 L 274 287 L 273 285 Q 265 286 262 284 L 260 276 L 256 275 Z "/>
    <path fill="#4da3ff" d="M 94 218 L 107.5 218 L 111 219 L 111 235.5 L 112 236.5 L 112 277.5 L 113 282.5 L 112 283.5 L 112 292.5 L 113 293.5 L 113 332.5 Q 115.8 334.3 114 340.5 L 114 342.5 L 114 390.5 L 113 391.5 L 113 401 L 94.5 401 L 93.5 400 L 92 400.5 L 91 357.5 L 92 356.5 L 92 291.5 L 93 290.5 L 93 246.5 L 94 243.5 L 93 238.5 L 94 237.5 L 94 223.5 L 95 221.5 L 94 218 Z "/>
    <path fill="#4da3ff" d="M 162 218 L 178 218 L 178 227.5 L 179 228.5 L 179 270.5 L 180 271.5 L 180 303.5 L 181 304.5 L 181 401 L 174.5 401 L 173.5 400 L 172.5 401 L 160.5 401 L 159 399.5 L 159 318.5 L 160 317.5 L 160 273.5 L 161 272.5 L 161 235.5 L 162 234.5 L 162 218 Z "/>
    <path fill="#4da3ff" d="M 335.5 218 L 351 218 L 351 229.5 L 352 230.5 L 352 272.5 L 353 273.5 L 353 307.5 L 354 308.5 L 354 401 L 333.5 401 L 333 398.5 L 332 397.5 L 332 305.5 L 333 304.5 L 333 271.5 L 334 270.5 L 334 219.5 L 335.5 218 Z "/>
    <path fill="#4da3ff" d="M 402 218 L 419 218 L 419 238.5 L 420 240.5 L 420 242.5 L 422 385.5 L 421 386.5 L 421 401 L 400 400.5 L 400 398.5 L 400 390.5 L 399 389.5 L 399 353.5 L 399 351.5 L 400 296.5 L 401 295.5 L 401 238.5 L 402 237.5 L 402 235.5 L 402 218 Z "/>
    <path fill="#4da3ff" d="M 256.5 285 L 260.5 290 L 265 290.5 L 261 295.5 L 263 300.5 L 261.5 301 L 255.5 298 L 251.5 301 Q 252.1 293 249 290 Q 253.7 291 255 287.5 L 256.5 285 Z "/>
    <path fill="#4da3ff" d="M 277.5 379 L 280 380.5 L 277.5 382 L 277.5 379 Z "/>
    <path fill="#4da3ff" d="M 105.5 409 L 109.5 410 L 111.5 410 Q 120.5 408.5 123 413.5 L 124 418.5 L 120.5 420 L 84.5 420 L 81 417.5 Q 81.3 412.8 84.5 411 L 87.5 410 L 104.5 410 L 105.5 409 Z "/>
    <path fill="#4da3ff" d="M 168.5 409 L 175.5 410 L 177.5 409 Q 179.3 411.7 185.5 410 L 190 412.5 L 191 419.5 L 189.5 421 L 157.5 421 L 156.5 420 L 150 420 L 149 413.5 L 150 411 Q 155.9 408.6 167.5 410 L 168.5 409 Z "/>
    <path fill="#4da3ff" d="M 344.5 409 L 346.5 410 L 359.5 410 L 364 413.5 Q 365.3 419.6 362.5 419 L 361.5 420 L 351.5 420 Q 350.3 417.8 345.5 419 L 344.5 420 L 332.5 420 Q 331 417.5 325.5 419 Q 324.3 421.3 323 418.5 L 322 413.5 L 326.5 410 L 343.5 410 L 344.5 409 Z "/>
    <path fill="#4da3ff" d="M 404.5 409 L 406.5 410 Q 408.3 407.3 414.5 409 L 415.5 410 L 425.5 410 Q 426.6 412.8 430 412 L 431 420 L 425.5 419 L 421.5 420 L 420.5 419 L 393.5 419 L 392.5 418 L 390.5 418 Q 387.5 418.7 389 415 Q 391.7 416.1 391 413.5 L 393.5 410 L 403.5 410 L 404.5 409 Z "/>
    <path fill="#ffd43b" d="M 252.5 215 Q 268.5 214.5 275 223.5 Q 281.8 229.7 280 244.5 Q 277.8 252.3 272.5 257 L 264.5 262 L 253.5 263 Q 243.2 261.3 238 254.5 Q 231.2 248.3 233 233.5 Q 235.5 225 241.5 220 L 252.5 215 Z "/>
    <path fill="#ffd43b" d="M 252.5 322 L 260.5 322 L 272.5 325 L 282 332.5 L 287 339.5 L 292 354.5 L 292 360.5 L 294 368.5 L 294 412.5 Q 291.3 414.3 293 420.5 L 291.5 422 L 221.5 422 L 220 420.5 L 220 412.5 L 219 411.5 L 219 368.5 L 223 346.5 L 227 337.5 L 231.5 332 L 234.5 330 L 241.5 325 L 252.5 322 Z M 275 373 Q 270 375 271 384 L 277 388 L 283 387 L 286 383 Q 287 376 284 374 Q 281 372 275 373 Z "/>
    <path fill="#66d9e8" d="M 251.5 46 Q 259.8 44.8 264.5 47 Q 274.8 51.7 281 60.5 Q 293.3 76.2 298 99.5 Q 296.8 102.3 295.5 100 L 264.5 87 L 252.5 86 L 242.5 89 L 216 101 L 216 95.5 L 220 81.5 Q 226.7 64.7 238.5 53 L 251.5 46 Z M 251 48 L 242 53 L 240 56 L 235 60 Q 236 62 233 61 L 227 72 Q 228 75 225 74 L 220 87 L 219 97 L 230 94 L 234 91 L 245 87 Q 246 83 248 86 L 256 84 L 258 85 L 260 84 L 274 88 Q 275 91 277 89 L 277 91 L 289 96 L 293 96 L 292 98 L 295 98 Q 293 96 294 90 L 288 76 Q 289 73 286 74 Q 285 66 279 61 Q 274 53 265 49 Q 259 47 251 48 Z "/>
    <path fill="#66d9e8" d="M 230.5 50 Q 233.8 48.9 233 51.5 Q 223.7 60.7 218 73.5 L 212 89.5 L 209 105 Q 194.6 109.3 182.5 117 L 175 119 L 177 103.5 L 183 88.5 Q 191.2 74.2 203.5 64 L 219.5 54 L 230.5 50 Z M 225 54 L 214 59 L 196 72 L 183 93 L 181 98 L 181 102 L 178 107 L 177 116 L 183 115 L 196 108 L 206 105 Q 209 105 208 101 L 208 99 L 210 95 L 211 86 L 220 67 Q 219 64 222 65 L 221 63 L 223 62 L 222 61 L 225 60 L 228 56 Q 229 53 225 54 Z "/>
    <path fill="#66d9e8" d="M 280 50 Q 306.3 56.5 321 75.5 Q 330.2 85.8 335 100.5 L 338 119 L 330.5 117 Q 318.4 109.3 304 105 L 301 88.5 L 296 75.5 L 291 65.5 L 280 50 Z M 286 54 L 291 64 Q 290 66 293 65 L 298 79 L 301 83 L 305 103 L 334 116 L 336 115 L 335 107 L 330 93 L 322 81 Q 323 78 321 79 L 321 78 L 319 77 L 314 70 Q 311 71 312 69 Q 309 63 302 62 L 300 59 L 298 59 L 292 55 L 286 54 Z "/>
    <path fill="#66d9e8" d="M 253.5 91 L 259.5 91 L 275.5 97 L 448 176 Q 449.9 178.7 449 185.5 L 445.5 190 L 184.5 192 L 183.5 191 L 80.5 191 L 79.5 190 Q 78 192.5 72.5 191 L 65 189 Q 63 186 64 178.5 L 66.5 175 L 138.5 143 L 142.5 140 L 175.5 126 L 188.5 119 L 195.5 117 L 208.5 110 L 253.5 91 Z M 253 93 Q 251 96 247 95 L 246 98 L 246 96 L 223 106 L 225 107 L 215 109 L 199 117 Q 196 116 197 119 L 196 118 L 188 121 Q 185 122 187 124 L 185 124 Q 181 123 182 126 L 181 125 L 168 130 L 164 133 Q 161 132 162 135 L 161 134 L 141 144 L 136 145 L 136 147 L 134 146 L 134 148 L 133 147 L 125 150 L 125 152 L 124 151 L 112 157 L 107 158 L 103 161 L 98 162 L 94 165 Q 91 164 92 167 L 91 166 Q 88 165 89 168 L 88 167 L 87 169 L 81 170 L 81 172 L 80 171 L 69 175 L 65 181 Q 64 186 68 188 L 70 187 L 70 189 L 146 189 L 147 188 L 150 189 L 147 190 L 283 190 L 285 190 L 286 189 L 443 189 L 443 188 Q 439 189 440 186 L 445 187 L 447 187 Q 448 179 446 176 L 435 171 L 433 172 L 433 171 L 430 169 Q 426 170 427 167 L 424 166 L 422 167 L 422 166 L 395 153 L 393 154 L 389 154 L 393 153 L 383 147 L 380 148 L 380 147 L 363 138 L 360 139 L 358 139 L 360 138 L 351 133 L 349 134 L 349 133 L 334 125 L 332 126 L 331 125 Q 330 122 329 124 L 328 122 Q 321 121 317 117 L 314 118 L 314 117 L 297 108 L 294 108 L 273 97 L 264 95 L 261 93 L 253 93 Z "/>
    <path fill="#66d9e8" d="M 251.5 107 L 261.5 107 L 278 113 Q 276.8 116 280.5 115 L 287.5 117 L 289 116.5 L 287.5 119 L 297.5 123 L 299 122.5 L 298.5 124 L 304 125 Q 302.9 127.7 305.5 127 L 307 126.5 Q 306.3 128.8 308.5 128 Q 313.2 133 322 133 Q 320.9 135.7 323.5 135 L 325 134.5 L 324.5 136 L 333 139 Q 332 136 335 137 Q 336.1 139.7 333.5 139 L 333.5 140 L 353.5 148 L 355 147.5 L 354.5 149 L 365.5 154 L 369 154 Q 367.8 157 371.5 156 L 373 155.5 L 372.5 157 L 387.5 164 L 389 163.5 L 388.5 165 L 393 168.5 Q 394 174 390.5 175 Q 384 179 371.5 177 L 370.5 176 L 344.5 176 L 341.5 177 L 340.5 176 L 261.5 176 L 260.5 177 L 173.5 178 L 171.5 178 L 167.5 177 L 165.5 177 L 135.5 177 L 134.5 176 L 124.5 176 L 123 176.5 L 123.5 175 L 120 174 L 121 166 L 123 165.5 L 121 164.5 L 122.5 164 L 124.5 164 L 142 156.5 L 140 155.5 L 141.5 155 L 144 156 Q 142.7 152.7 147.5 154 L 153 151.5 L 152.5 150 L 155.5 151 L 169 144.5 Q 166.8 143.3 169.5 142 L 169.5 144 L 189 136 L 189.5 134 L 191 134.5 Q 190.1 131.1 195.5 133 L 206.5 127 L 209 127 Q 207.7 123.7 212.5 125 L 226 118.5 L 225.5 117 L 227.5 118 Q 229.7 114.5 235 115 Q 233.8 112 237.5 113 L 251.5 107 Z M 256 108 L 238 114 L 215 126 L 150 155 L 143 157 L 141 159 L 138 159 L 125 166 Q 120 167 121 172 L 126 175 L 150 175 L 151 176 L 227 176 L 228 175 L 301 175 L 302 174 L 360 174 L 361 175 L 388 175 L 390 174 L 392 171 L 391 169 L 376 159 L 373 159 L 351 148 L 332 141 L 300 126 Q 298 122 297 125 Q 279 113 256 108 Z "/>
    <path fill="#66d9e8" d="M 253.5 114 L 266.5 116 L 278.5 123 L 282 123 L 282.5 125 L 284 124.5 Q 284.8 126.8 282.5 126 L 267.5 118 L 258.5 115 L 256.5 115 L 247.5 117 L 231.5 125 L 232.5 123 L 248.5 115 L 250.5 115 L 253.5 114 Z "/>
    <path fill="#66d9e8" d="M 285.5 125 L 293 129.5 L 291.5 130 L 285 127 L 285.5 125 Z "/>
    <path fill="#66d9e8" d="M 226.5 126 L 228 126.5 L 220.5 130 L 220.5 129 L 226.5 126 Z "/>
    <path fill="#66d9e8" d="M 218.5 130 L 217.5 132 L 214.5 133 L 214.5 132 L 218.5 130 Z "/>
    <path fill="#66d9e8" d="M 294.5 130 L 297.5 132 L 299 131.5 L 299.5 133 L 301.5 133 L 318.5 140 L 321.5 143 Q 323 140.5 324.5 144 L 329.5 145 L 348 154.5 L 346.5 155 L 299.5 134 Q 294.9 132.8 294.5 130 Z "/>
    <path fill="#66d9e8" d="M 212.5 132 L 213 134 L 183 147 L 183.5 145 L 185.5 145 L 212.5 132 Z "/>
    <path fill="#66d9e8" d="M 179.5 147 L 182 147.5 L 174.5 151 L 174.5 150 L 179.5 147 Z "/>
    <path fill="#66d9e8" d="M 170.5 151 L 173 151.5 L 167 154 L 166.5 156 L 164.5 156 L 156.5 159 L 157.5 157 L 163.5 154 L 165.5 154 L 170.5 151 Z "/>
    <path fill="#66d9e8" d="M 349.5 154 L 355 157.5 L 353.5 158 L 349 155.5 L 349.5 154 Z "/>
    <path fill="#66d9e8" d="M 356.5 158 L 363.5 160 L 375 166.5 L 373 167.5 L 375 168.5 L 336.5 169 L 337.5 167 L 339.5 168 L 369.5 168 L 369.5 167 L 368 166.5 L 369.5 166 L 372.5 167 L 372.5 166 L 367 165 Q 368.1 162.3 365.5 163 L 356.5 159 L 356.5 158 Z "/>
    <path fill="#66d9e8" d="M 152.5 159 L 155 159.5 L 149.5 162 L 150.5 160 L 152.5 159 Z "/>
    <path fill="#66d9e8" d="M 147.5 161 L 148 163 L 140.5 166 L 140.5 165 L 147.5 161 Z "/>
    <path fill="#66d9e8" d="M 138.5 165 L 139.5 168 L 142.5 167 L 141.5 169 L 134 168.5 L 136 168 L 136.5 166 L 137.5 168 L 138.5 165 Z "/>
    <path fill="#66d9e8" d="M 310.5 167 L 309.5 169 L 302 168.5 L 310.5 167 Z "/>
    <path fill="#66d9e8" d="M 320.5 167 L 331 168.5 L 312.5 169 L 312.5 168 Q 318.7 169.8 320.5 167 Z "/>
    <path fill="#66d9e8" d="M 238.5 168 L 301 168.5 L 274.5 169 L 269.5 170 L 265.5 169 L 264.5 170 L 250.5 170 Q 249.3 167.7 244.5 169 L 242.5 170 L 238.5 169 L 236.5 170 L 236.5 169 L 238.5 168 Z "/>
    <path fill="#66d9e8" d="M 150.5 169 L 225 169.5 L 200.5 170 L 199.5 171 Q 198 168.5 192.5 170 L 190.5 170 L 182.5 171 L 180.5 171 L 172.5 170 L 170.5 170 L 150.5 170 L 150.5 169 Z "/>
    <path fill="#66d9e8" d="M 398.5 187 L 411 187.5 L 398.5 188 L 398.5 187 Z "/>
    <path fill="#66d9e8" d="M 161.5 188 L 179 188.5 L 161.5 189 L 161.5 188 Z "/>
    <path fill="#66d9e8" d="M 196.5 188 L 206 188.5 L 196.5 189 L 196.5 188 Z "/>
    <path fill="#66d9e8" d="M 209.5 188 L 214 188.5 L 209.5 189 L 209.5 188 Z "/>
    <path fill="#66d9e8" d="M 258.5 188 L 264 188.5 L 258.5 189 L 258.5 188 Z "/>
    <path fill="#66d9e8" d="M 266.5 188 L 271 188.5 L 266.5 189 L 266.5 188 Z "/>
    <path fill="#66d9e8" d="M 396.5 195 L 432 196 Q 433.6 206.3 427.5 210 L 422.5 211 L 397.5 211 L 391 209 Q 387.7 204.9 389 196 L 395.5 196 L 396.5 195 Z M 401 197 L 400 198 L 392 198 L 391 201 L 392 207 L 398 209 L 425 209 L 426 208 Q 425 205 429 206 Q 432 204 430 198 L 426 197 L 401 197 Z "/>
    <path fill="#66d9e8" d="M 82.5 196 L 122.5 196 L 124 197.5 Q 125 205.8 122 209 L 114.5 211 L 89.5 211 L 83 209 Q 80.3 205.4 81 197.5 L 82.5 196 Z M 93 197 L 92 198 L 83 198 L 84 207 Q 86 205 89 209 L 117 209 L 120 208 L 122 206 L 122 198 L 113 198 L 112 197 Q 107 196 106 198 L 93 197 Z "/>
    <path fill="#66d9e8" d="M 130 196 L 142.5 196 L 143 197.5 L 144 198.5 L 144 206.5 L 147 213 L 155 216.5 L 153 319.5 L 152 320.5 L 152 404 L 145 407.5 Q 141.2 410.7 142 418.5 L 139.5 422 Q 132.7 423.8 131 420.5 L 131 413.5 L 124.5 405 L 120 402.5 L 121 362.5 L 120 361.5 L 120 295.5 L 119 294.5 L 118 216.5 L 123.5 214 L 128 209.5 L 129 198.5 L 130 196 Z M 131 198 Q 132 207 128 213 Q 126 216 122 216 L 122 218 L 120 218 L 120 254 L 121 255 L 120 258 L 121 259 L 121 313 L 122 314 L 122 402 L 127 404 Q 133 409 133 420 L 140 419 Q 139 408 147 404 Q 149 405 148 403 L 151 402 Q 153 395 150 394 L 150 332 L 151 331 L 151 301 L 152 300 L 153 218 L 152 218 L 151 216 L 148 215 Q 143 212 142 206 L 142 198 L 131 198 Z "/>
    <path fill="#66d9e8" d="M 269.5 196 L 314.5 196 L 316 197.5 L 317 208.5 L 320.5 213 L 327 215 Q 328.8 217.4 328 223.5 L 327 224.5 L 327 270.5 L 326 271.5 L 326 314.5 L 325 315.5 L 325 404 Q 318.6 404.3 316 409.5 L 314 420.5 L 312.5 422 L 299.5 422 L 299 420.5 L 298 416.5 L 299 415.5 L 300 384.5 L 299 383.5 L 299 365.5 L 296 349.5 L 292 337.5 L 280.5 324 Q 270.3 315.7 250.5 317 L 237.5 321 L 225 331.5 Q 218.9 340.4 216 352.5 L 215 366.5 L 214 367.5 L 214 390.5 L 213 393.5 L 214 394.5 L 215 420.5 L 212.5 423 L 200.5 423 Q 197.1 419.4 198 411.5 L 192.5 405 L 188 404 L 187 400.5 L 188 399.5 L 188 320.5 L 187 319.5 L 187 276.5 L 186 275.5 L 186 225.5 Q 183.3 223.8 185 217.5 L 186 215 L 193 213 L 197 204.5 L 197 197 L 268.5 197 L 269.5 196 Z M 251 198 L 250 199 L 199 199 L 198 209 L 195 213 Q 193 216 189 216 L 189 218 L 187 218 L 188 283 L 189 284 L 188 289 L 188 298 L 189 299 L 189 341 L 189 343 Q 187 349 190 351 L 190 378 L 189 379 L 190 383 L 190 385 L 189 387 L 190 392 L 189 394 L 190 398 L 189 400 L 190 403 L 194 404 L 199 410 L 201 420 L 202 421 L 212 421 L 213 414 L 213 412 Q 215 405 212 404 L 212 368 L 216 347 L 216 345 L 221 335 L 229 325 Q 231 326 230 323 L 240 318 L 251 315 L 264 315 L 267 317 L 274 318 L 282 323 L 285 325 L 291 334 Q 290 336 293 335 L 299 354 L 299 360 L 301 366 L 300 368 L 301 370 L 301 408 L 300 409 L 300 419 L 302 418 L 302 420 L 310 420 L 313 418 Q 312 411 315 408 L 324 401 L 323 396 L 323 394 L 323 342 L 324 341 Q 325 336 323 335 L 324 328 L 323 325 L 324 322 L 324 294 L 325 293 L 324 288 L 325 284 L 325 248 L 325 246 L 326 244 L 326 218 L 321 215 L 315 208 L 314 203 Q 314 198 314 198 L 251 198 Z "/>
    <path fill="#66d9e8" d="M 322.5 196 L 363.5 196 L 364 196.5 L 364 205.5 L 361.5 209 L 355.5 211 L 330.5 211 L 325.5 210 L 322 206.5 L 321 197.5 L 322.5 196 Z M 335 197 L 334 198 L 323 198 L 324 207 Q 327 206 329 209 L 356 209 L 357 208 Q 360 209 359 207 L 361 207 L 363 200 L 362 198 L 352 198 L 351 197 L 335 197 Z "/>
    <path fill="#66d9e8" d="M 370 196 L 382.5 196 L 383 197.5 L 384 198.5 L 385 209.5 L 389.5 214 L 395 216.5 L 394 292.5 L 393 293.5 L 393 358.5 L 392 359.5 L 392 371.5 L 393 372.5 L 393 402.5 L 385 407.5 L 383 410.5 L 382 419.5 L 380.5 421 Q 373.8 422.8 372 419.5 Q 371.7 410.3 366.5 406 L 361 404 L 360 399.5 L 361 398.5 L 361 328.5 L 360 327.5 L 360 284.5 L 359 283.5 L 359 230.5 L 358 229.5 L 358 216.5 L 363.5 214 L 368 209.5 L 370 196 Z M 374 197 L 371 198 L 371 207 L 367 214 L 360 218 L 361 302 L 362 303 L 362 341 L 363 342 L 363 385 L 362 386 L 363 389 L 362 392 L 363 397 L 362 402 L 367 404 Q 373 408 373 418 L 376 419 L 378 418 L 380 419 Q 379 411 383 408 L 390 403 L 391 402 L 391 317 L 392 316 Q 394 310 391 309 L 392 308 L 392 252 L 393 251 L 393 217 L 388 215 L 384 212 L 382 205 L 382 200 Q 381 196 374 197 Z "/>
    <path fill="#66d9e8" d="M 149 197 L 190.5 197 L 191 197.5 L 191 206.5 L 187.5 210 L 182.5 211 L 155.5 211 L 150 207.5 L 149 197 Z M 155 198 L 151 199 L 151 206 L 154 206 L 156 209 L 184 209 L 189 207 L 188 206 L 190 201 L 189 199 L 157 198 L 155 198 Z "/>
    <path fill="#66d9e8" d="M 255.5 208 L 271.5 211 L 273 212.5 Q 272.3 214.8 274.5 214 L 277 215 L 279.5 219 Q 281.8 218.3 281 220.5 L 285 225.5 L 285 227.5 Q 288.3 233.2 287 243.5 L 284 255 Q 281.3 253.9 282 256.5 L 275.5 264 L 261.5 270 L 259.5 269 Q 257.8 271.7 251.5 270 L 236 262.5 L 228 252.5 L 226 244.5 L 226 233.5 L 228 225 Q 230.7 226.1 230 223.5 L 232 219 L 242.5 211 L 255.5 208 Z M 253 210 L 240 215 L 231 225 L 227 238 L 229 250 L 233 257 Q 239 265 252 268 L 263 268 L 274 263 Q 282 257 285 246 L 285 233 L 280 222 L 269 212 L 261 210 L 253 210 Z "/>
    <path fill="#66d9e8" d="M 93.5 216 L 113 216 L 113 251.5 L 114 252.5 L 114 307.5 L 115 308.5 L 115 401.5 L 113.5 403 L 91.5 403 L 90 401.5 L 90 307.5 L 91 306.5 L 92 217.5 L 93.5 216 Z M 94 218 L 95 222 L 94 224 L 94 238 L 93 239 L 94 244 L 93 247 L 93 291 L 92 292 L 92 357 L 91 358 L 92 401 L 94 400 L 95 401 L 113 401 L 113 392 L 114 391 L 114 343 L 114 341 Q 116 334 113 333 L 113 294 L 112 293 L 112 284 L 113 283 L 112 278 L 112 237 L 111 236 L 111 219 L 108 218 L 94 218 Z "/>
    <path fill="#66d9e8" d="M 161.5 216 L 180 216 L 180 237.5 L 181 238.5 L 182 324.5 L 183 325.5 L 183 394.5 Q 180.5 396 182 401.5 L 180.5 403 Q 175.7 400.7 167.5 402 Q 165.8 404.8 159.5 403 L 158 401.5 Q 159.8 395.3 157 393.5 L 157 331.5 L 158 330.5 L 158 288.5 L 159 287.5 L 160 217.5 L 161.5 216 Z M 162 218 L 162 235 L 161 236 L 161 273 L 160 274 L 160 318 L 159 319 L 159 400 L 161 401 L 173 401 L 174 400 L 175 401 L 181 401 L 181 305 L 180 304 L 180 272 L 179 271 L 179 229 L 178 228 L 178 218 L 162 218 Z "/>
    <path fill="#66d9e8" d="M 333 216 L 353 216 L 353 243.5 L 354 244.5 L 355 332.5 L 356 333.5 L 356 393.5 Q 353.3 395.3 355 401.5 L 353.5 403 L 335.5 402 L 332.5 403 L 331 401.5 Q 332.8 395.3 330 393.5 L 330 324.5 L 331 323.5 L 331 276.5 L 332 275.5 L 332 239.5 L 333 238.5 L 333 216 Z M 336 218 L 334 220 L 334 271 L 333 272 L 333 305 L 332 306 L 332 398 L 333 399 L 334 401 L 354 401 L 354 309 L 353 308 L 353 274 L 352 273 L 352 231 L 351 230 L 351 218 L 336 218 Z "/>
    <path fill="#66d9e8" d="M 401.5 216 L 419.5 216 L 421 217.5 L 422 304.5 L 423 305.5 L 423 401.5 L 420.5 403 L 419.5 402 L 410.5 402 L 409.5 403 L 399.5 403 L 398 401.5 L 398 304.5 L 399 303.5 L 400 217.5 L 401.5 216 Z M 402 218 L 402 236 L 402 238 L 401 239 L 401 296 L 400 297 L 399 352 L 399 354 L 399 390 L 400 391 L 400 399 L 400 401 L 421 401 L 421 387 L 422 386 L 420 243 L 420 241 L 419 239 L 419 218 L 402 218 Z "/>
    <path fill="#66d9e8" d="M 255.5 275 L 260 276 L 262 284 Q 265 286 272.5 285 L 274 286.5 L 273 292 L 268 295.5 L 267 298.5 Q 270 300.5 269 306.5 Q 268 309 263.5 308 Q 261.5 304.5 255.5 305 L 246.5 309 Q 243 308 244 302.5 Q 246.8 300.5 246 296 Q 243 297 244 294 L 241.5 294 Q 238 291.7 239 286 L 251 284 L 253 276 L 255.5 275 Z M 257 276 L 254 279 L 252 286 L 243 287 L 241 291 L 248 295 L 246 307 L 249 307 L 257 302 L 267 307 Q 268 301 265 298 L 265 295 L 267 295 Q 266 292 269 293 Q 273 292 272 287 L 261 286 L 257 276 Z "/>
    <path fill="#66d9e8" d="M 255 282 Q 258.8 280.5 258 283.5 L 260 288 Q 265.7 287 268 290.5 L 263 296.5 L 265 301.5 L 262.5 303 L 255.5 300 L 249 303 L 249 296.5 L 250 295.5 L 245 290.5 L 246.5 289 L 253 288 L 255 282 Z M 257 285 L 255 288 Q 254 291 249 290 Q 252 293 252 301 L 256 298 L 262 301 L 263 301 L 261 296 L 265 291 L 261 290 L 257 285 Z "/>
    <path fill="#66d9e8" d="M 277.5 377 L 281 379.5 L 279.5 383 Q 275.5 383.5 275 380.5 L 277.5 377 Z M 278 379 L 278 382 L 280 381 L 278 379 Z "/>
    <path fill="#66d9e8" d="M 86.5 408 L 118.5 408 L 125 412.5 L 126 420.5 L 124.5 422 L 89.5 422 L 85.5 421 L 80.5 422 Q 77.8 420.8 79 415.5 L 83.5 409 L 86.5 408 Z M 106 409 L 105 410 L 88 410 L 85 411 Q 81 413 81 418 L 85 420 L 121 420 L 124 419 L 123 414 Q 121 408 112 410 L 110 410 L 106 409 Z "/>
    <path fill="#66d9e8" d="M 155.5 408 L 184.5 408 L 188.5 409 L 192 412.5 L 193 421.5 L 189.5 423 L 186.5 422 L 184.5 423 Q 183.3 420.8 178.5 422 L 177.5 423 L 169.5 423 L 168.5 422 L 147 422 Q 145.6 413.8 149.5 410 L 155.5 408 Z M 169 409 L 168 410 Q 156 409 150 411 L 149 414 L 150 420 L 157 420 L 158 421 L 190 421 L 191 420 L 190 413 L 186 410 Q 179 412 178 409 L 176 410 L 169 409 Z "/>
    <path fill="#66d9e8" d="M 327.5 408 L 358.5 408 L 365 411.5 L 366 421 L 333.5 422 Q 332.3 419.7 327.5 421 L 325.5 422 L 323.5 421 L 321.5 422 Q 318.5 420.5 320 414.5 L 322.5 410 L 327.5 408 Z M 345 409 L 344 410 L 327 410 L 322 414 L 323 419 Q 324 421 326 419 Q 331 418 333 420 L 345 420 L 346 419 Q 350 418 352 420 L 362 420 L 363 419 Q 365 420 364 414 L 360 410 L 347 410 L 345 409 Z "/>
    <path fill="#66d9e8" d="M 394.5 408 L 426.5 408 L 433 412.5 L 434 421 L 431.5 422 L 430.5 421 L 388.5 421 L 387 419.5 Q 386.4 411.4 391.5 409 L 394.5 408 Z M 405 409 L 404 410 L 394 410 L 391 414 Q 392 416 389 415 Q 387 419 391 418 L 393 418 L 394 419 L 421 419 L 422 420 L 426 419 L 431 420 L 430 412 Q 427 413 426 410 L 416 410 L 415 409 Q 408 407 407 410 L 405 409 Z "/>
  </g>
  <g id="line">
    <path fill="#1a1a1a" d="M 246.5 41 L 266.5 41 L 285.5 45 Q 309.8 53.8 325 71.5 Q 333.5 82 339 95.5 L 343 111.5 L 343 119.5 L 345.5 123 L 434.5 163 L 452 172 L 455 181.5 L 452 193 L 447.5 195 L 437 196 L 436 209.5 L 431.5 214 L 426 216.5 L 427 284.5 L 428 285.5 L 428 342.5 L 429 343.5 L 429 392.5 L 429 394.5 L 428 403 Q 433.9 403.9 437 408.5 L 439 412.5 L 440 422 L 448.5 423 L 453 426.5 L 455 430.5 L 456 443 L 469.5 444 L 474 448.5 L 476 459.5 L 475 464.5 L 471.5 469 L 469.5 470 L 424.5 470 L 423.5 471 L 314.5 471 L 313.5 472 L 123.5 472 L 122.5 471 L 73.5 471 L 72.5 472 L 61.5 472 L 60.5 471 L 48.5 471 L 40 469 L 38 464.5 L 37 456.5 Q 39.3 455.3 38 450.5 L 41.5 445 L 45.5 443 L 57 443 Q 59.3 439.4 58 430.5 L 63.5 423 L 73 422 Q 72.3 410.1 79.5 405 L 85 403 L 84 398.5 L 84 333.5 L 85 332.5 L 85 282.5 L 86 281.5 L 87 216.5 L 81.5 214 L 77 209.5 L 76 196 L 64.5 195 L 61 193 L 59 188.5 L 58 179.5 L 61 172 L 113.5 147 L 120.5 145 L 122.5 143 L 169 123 L 170 120.5 L 170 111.5 L 172 101.5 L 176 90.5 Q 184.1 72.6 198.5 61 Q 208.7 52.2 222.5 47 L 246.5 41 Z M 252 46 L 239 53 Q 227 65 220 82 L 216 96 L 216 101 L 243 89 L 253 86 L 265 87 L 296 100 Q 297 102 298 100 Q 293 76 281 61 Q 275 52 265 47 Q 260 45 252 46 Z M 231 50 L 220 54 L 204 64 Q 191 74 183 89 L 177 104 L 175 119 L 183 117 Q 195 109 209 105 L 212 90 L 218 74 Q 224 61 233 52 Q 234 49 231 50 Z M 280 50 L 291 66 L 296 76 L 301 89 L 304 105 Q 318 109 331 117 L 338 119 L 335 101 Q 330 86 321 76 Q 306 57 280 50 Z M 254 91 L 209 110 L 196 117 L 189 119 L 176 126 L 143 140 L 139 143 L 67 175 L 64 179 Q 63 186 65 189 L 73 191 L 184 191 L 185 192 L 446 190 L 449 186 Q 450 179 448 176 L 276 97 L 260 91 L 254 91 Z M 397 195 L 396 196 L 389 196 Q 388 205 391 209 L 398 211 L 423 211 L 428 210 Q 434 206 432 196 L 397 195 Z M 83 196 L 81 198 Q 80 205 83 209 L 90 211 L 115 211 L 122 209 Q 125 206 124 198 L 123 196 L 83 196 Z M 130 196 L 129 199 L 128 210 L 124 214 L 118 217 L 119 295 L 120 296 L 120 362 L 121 363 L 120 403 L 125 405 L 131 414 L 131 421 Q 133 424 140 422 L 142 419 Q 141 411 145 408 L 152 404 L 152 321 L 153 320 L 155 217 L 147 213 L 144 207 L 144 199 L 143 198 L 143 196 L 130 196 Z M 270 196 L 269 197 L 197 197 L 197 205 L 193 213 L 186 215 L 185 218 Q 183 224 186 226 L 186 276 L 187 277 L 187 320 L 188 321 L 188 400 L 187 401 L 188 404 L 193 405 L 198 412 Q 197 419 201 423 L 213 423 L 215 421 L 214 395 L 213 394 L 214 391 L 214 368 L 215 367 L 216 353 Q 219 340 225 332 L 238 321 L 251 317 Q 270 316 281 324 L 292 338 L 296 350 L 299 366 L 299 384 L 300 385 L 299 416 L 298 417 L 299 421 L 300 422 L 313 422 L 314 421 L 316 410 Q 319 404 325 404 L 325 316 L 326 315 L 326 272 L 327 271 L 327 225 L 328 224 Q 329 217 327 215 L 321 213 L 317 209 L 316 198 L 315 196 L 270 196 Z M 323 196 L 321 198 L 322 207 L 326 210 L 331 211 L 356 211 L 362 209 L 364 206 L 364 197 L 364 196 L 323 196 Z M 370 196 L 368 210 L 364 214 L 358 217 L 358 230 L 359 231 L 359 284 L 360 285 L 360 328 L 361 329 L 361 399 L 360 400 L 361 404 L 367 406 Q 372 410 372 420 Q 374 423 381 421 L 382 420 L 383 411 L 385 408 L 393 403 L 393 373 L 392 372 L 392 360 L 393 359 L 393 294 L 394 293 L 395 217 L 390 214 L 385 210 L 384 199 L 383 198 L 383 196 L 370 196 Z M 149 197 L 150 208 L 156 211 L 183 211 L 188 210 L 191 207 L 191 198 L 191 197 L 149 197 Z M 94 216 L 92 218 L 91 307 L 90 308 L 90 402 L 92 403 L 114 403 L 115 402 L 115 309 L 114 308 L 114 253 L 113 252 L 113 216 L 94 216 Z M 162 216 L 160 218 L 159 288 L 158 289 L 158 331 L 157 332 L 157 394 Q 160 395 158 402 L 160 403 Q 166 405 168 402 Q 176 401 181 403 L 182 402 Q 181 396 183 395 L 183 326 L 182 325 L 181 239 L 180 238 L 180 216 L 162 216 Z M 333 216 L 333 239 L 332 240 L 332 276 L 331 277 L 331 324 L 330 325 L 330 394 Q 333 395 331 402 L 333 403 L 336 402 L 354 403 L 355 402 Q 353 395 356 394 L 356 334 L 355 333 L 354 245 L 353 244 L 353 216 L 333 216 Z M 402 216 L 400 218 L 399 304 L 398 305 L 398 402 L 400 403 L 410 403 L 411 402 L 420 402 L 421 403 L 423 402 L 423 306 L 422 305 L 421 218 L 420 216 L 402 216 Z M 253 322 L 242 325 L 235 330 L 232 332 L 227 338 L 223 347 L 219 369 L 219 412 L 220 413 L 220 421 L 222 422 L 292 422 L 293 421 Q 291 414 294 413 L 294 369 L 292 361 L 292 355 L 287 340 L 282 333 L 273 325 L 261 322 L 253 322 Z M 87 408 L 84 409 L 79 416 Q 78 421 81 422 L 86 421 L 90 422 L 125 422 L 126 421 L 125 413 L 119 408 L 87 408 Z M 156 408 L 150 410 Q 146 414 147 422 L 169 422 L 170 423 L 178 423 L 179 422 Q 183 421 185 423 L 187 422 L 190 423 L 193 422 L 192 413 L 189 409 L 185 408 L 156 408 Z M 328 408 L 323 410 L 320 415 Q 318 420 322 422 L 324 421 L 326 422 L 328 421 Q 332 420 334 422 L 366 421 L 365 412 L 359 408 L 328 408 Z M 395 408 L 392 409 Q 386 411 387 420 L 389 421 L 431 421 L 432 422 L 434 421 L 433 413 L 427 408 L 395 408 Z "/>
    <path fill="#1a1a1a" d="M 255.5 108 L 262.5 109 L 275.5 114 L 331.5 141 L 385.5 164 L 391 168.5 L 392 170.5 L 389.5 174 L 387.5 175 L 360.5 175 L 359.5 174 L 301.5 174 L 300.5 175 L 227.5 175 L 226.5 176 L 150.5 176 L 149.5 175 L 125.5 175 L 121 171.5 Q 120.5 166.5 124.5 166 L 214.5 126 L 237.5 114 L 255.5 108 Z M 252 114 Q 219 131 184 145 L 182 147 L 132 169 L 134 170 L 171 170 L 172 171 L 200 171 L 201 170 L 274 170 L 275 169 L 380 169 L 373 164 L 297 131 L 267 116 Q 261 113 252 114 Z "/>
    <path fill="#1a1a1a" d="M 252.5 210 L 260.5 210 L 268.5 212 L 280 221.5 L 285 232.5 L 285 245.5 Q 282.1 257.1 273.5 263 L 262.5 268 L 251.5 268 Q 239.2 265.3 233 256.5 L 229 249.5 L 227 237.5 L 231 224.5 L 239.5 215 L 252.5 210 Z M 253 215 L 242 220 Q 236 225 233 234 Q 231 248 238 255 Q 243 261 254 263 L 265 262 L 273 257 Q 278 252 280 245 Q 282 230 275 224 Q 269 214 253 215 Z "/>
    <path fill="#1a1a1a" d="M 255.5 277 L 259 279.5 L 261 286 L 272 287 Q 272.8 291.7 268.5 293 Q 265.9 292.3 267 295 L 265 295 L 265 297.5 Q 268 300.8 267 307 L 256.5 302 L 248.5 307 L 246 307 L 248 295 L 241 290.5 L 242.5 287 L 252 286 L 255.5 277 Z M 255 282 L 253 288 L 247 289 L 245 291 L 250 296 L 249 297 L 249 303 L 256 300 L 263 303 L 265 302 L 263 297 L 268 291 Q 266 287 260 288 L 258 284 Q 259 280 255 282 Z "/>
    <path fill="#1a1a1a" d="M 274.5 373 Q 281.3 372.1 284 374 Q 286.6 376.3 286 382.5 L 282.5 387 L 276.5 388 L 271 383.5 Q 269.7 375.2 274.5 373 Z M 278 377 L 275 381 Q 276 384 280 383 L 281 380 L 278 377 Z "/>
  </g>
</svg>
