<svg xmlns="http://www.w3.org/2000/svg" width="512" height="512" viewBox="0 0 512 512">
  <g id="color">
    <path fill="#ffffff" d="M 131.5 36 L 145 36.5 L 131.5 37 L 131.5 36 Z "/>
    <path fill="#ffffff" d="M 369.5 36 L 382 36.5 L 369.5 37 L 369.5 36 Z "/>
    <path fill="#ffffff" d="M 123.5 37 L 129 37.5 L 123.5 38 L 123.5 37 Z "/>
    <path fill="#ffffff" d="M 364.5 37 L 367 37.5 L 362.5 39 L 362.5 38 L 364.5 37 Z "/>
    <path fill="#ffffff" d="M 384.5 37 L 390 37.5 L 384.5 38 L 384.5 37 Z "/>
    <path fill="#ffffff" d="M 111.5 41 L 107 46.5 L 105.5 50 L 105 48.5 L 111.5 41 Z "/>
    <path fill="#ffffff" d="M 401.5 41 L 408 48.5 L 406 47.5 L 401.5 41 Z "/>
    <path fill="#ffffff" d="M 159.5 45 L 162 48.5 L 161 48.5 L 159.5 45 Z "/>
    <path fill="#ffffff" d="M 353.5 45 L 353 46.5 L 351.5 49 L 352 47.5 L 353.5 45 Z "/>
    <path fill="#ffffff" d="M 230.5 56 L 285 56.5 L 230.5 57 L 230.5 56 Z "/>
    <path fill="#ffffff" d="M 204.5 57 L 215 57.5 L 204.5 58 L 204.5 57 Z "/>
    <path fill="#ffffff" d="M 298.5 57 L 310 57.5 L 298.5 58 L 298.5 57 Z "/>
    <path fill="#ffffff" d="M 188.5 58 L 200 58.5 L 188.5 59 L 188.5 58 Z "/>
    <path fill="#ffffff" d="M 315.5 58 L 325 58.5 L 315.5 59 L 315.5 58 Z "/>
    <path fill="#ffffff" d="M 178.5 59 L 186 59.5 L 178.5 60 L 178.5 59 Z "/>
    <path fill="#ffffff" d="M 327.5 59 L 336 59.5 L 327.5 60 L 327.5 59 Z "/>
    <path fill="#ffffff" d="M 168.5 60 L 173 60.5 L 168.5 61 L 168.5 60 Z "/>
    <path fill="#ffffff" d="M 340.5 60 L 346 60.5 L 340.5 61 L 340.5 60 Z "/>
    <path fill="#ffffff" d="M 101.5 63 L 102 67.5 L 101 67.5 L 101.5 63 Z "/>
    <path fill="#ffffff" d="M 413.5 76 L 414 80.5 L 413 80.5 L 413.5 76 Z "/>
    <path fill="#ffffff" d="M 99.5 77 L 100 82.5 L 99 82.5 L 99.5 77 Z "/>
    <path fill="#ffffff" d="M 414.5 83 L 415 91.5 L 414 91.5 L 414.5 83 Z "/>
    <path fill="#ffffff" d="M 98.5 87 L 99 96.5 L 98 96.5 L 98.5 87 Z "/>
    <path fill="#ffffff" d="M 415.5 97 L 416 106.5 L 415 106.5 L 415.5 97 Z "/>
    <path fill="#ffffff" d="M 97.5 99 L 98 112.5 L 97 112.5 L 97.5 99 Z "/>
    <path fill="#ffffff" d="M 416.5 118 L 417 136.5 L 416 136.5 L 416.5 118 Z "/>
    <path fill="#ffffff" d="M 97.5 140 L 98 154.5 L 97 154.5 L 97.5 140 Z "/>
    <path fill="#ffffff" d="M 415.5 148 L 416 158.5 L 415 158.5 L 415.5 148 Z "/>
    <path fill="#ffffff" d="M 98.5 157 L 99 165.5 L 98 165.5 L 98.5 157 Z "/>
    <path fill="#ffffff" d="M 414.5 163 L 415 170.5 L 414 170.5 L 414.5 163 Z "/>
    <path fill="#ffffff" d="M 99.5 170 L 100 174.5 L 99 174.5 L 99.5 170 Z "/>
    <path fill="#ffffff" d="M 413.5 173 L 414 177.5 L 413 177.5 L 413.5 173 Z "/>
    <path fill="#ffffff" d="M 101.5 185 L 102 189.5 L 101 189.5 L 101.5 185 Z "/>
    <path fill="#ffffff" d="M 173.5 190 L 180 190.5 L 173.5 191 L 173.5 190 Z "/>
    <path fill="#ffffff" d="M 333.5 190 L 340 190.5 L 333.5 191 L 333.5 190 Z "/>
    <path fill="#ffffff" d="M 183.5 191 L 192 191.5 L 183.5 192 L 183.5 191 Z "/>
    <path fill="#ffffff" d="M 321.5 191 L 330 191.5 L 321.5 192 L 321.5 191 Z "/>
    <path fill="#ffffff" d="M 164.5 192 L 165 195.5 L 163.5 198 L 163 196.5 L 164.5 192 Z "/>
    <path fill="#ffffff" d="M 194.5 192 L 207 192.5 L 194.5 193 L 194.5 192 Z "/>
    <path fill="#ffffff" d="M 306.5 192 L 318 192.5 L 306.5 193 L 306.5 192 Z "/>
    <path fill="#ffffff" d="M 208.5 193 L 209 205.5 L 208 205.5 L 208.5 193 Z "/>
    <path fill="#ffffff" d="M 304.5 193 L 305 205.5 L 304 205.5 L 304.5 193 Z "/>
    <path fill="#ffffff" d="M 350.5 199 L 354 205.5 L 352 204.5 L 350.5 199 Z "/>
    <path fill="#ffffff" d="M 104.5 200 Q 106.3 206.3 111 209.5 L 106 205.5 L 104.5 200 Z "/>
    <path fill="#ffffff" d="M 209.5 207 L 212 212.5 L 210 211.5 L 209.5 207 Z "/>
    <path fill="#ffffff" d="M 302.5 211 L 302 212.5 L 296.5 219 L 301 213.5 L 302.5 211 Z "/>
    <path fill="#ffffff" d="M 398.5 211 L 400 211.5 L 392.5 214 L 392.5 213 L 398.5 211 Z "/>
    <path fill="#ffffff" d="M 116.5 212 L 121 213.5 L 118.5 214 L 116.5 212 Z "/>
    <path fill="#ffffff" d="M 385.5 214 L 390 214.5 L 385.5 215 L 385.5 214 Z "/>
    <path fill="#ffffff" d="M 133.5 215 L 142 215.5 L 133.5 216 L 133.5 215 Z "/>
    <path fill="#ffffff" d="M 372.5 215 L 380 215.5 L 372.5 216 L 372.5 215 Z "/>
    <path fill="#ffffff" d="M 218.5 219 L 223 221.5 L 221.5 222 L 218.5 219 Z "/>
    <path fill="#ffffff" d="M 294.5 219 L 293.5 221 L 290.5 222 L 290.5 221 L 294.5 219 Z "/>
    <path fill="#ffffff" d="M 224.5 222 Q 226.8 222.8 226 226.5 L 225 226.5 L 224.5 222 Z "/>
    <path fill="#ffffff" d="M 288.5 230 L 289 237.5 L 288 237.5 L 288.5 230 Z "/>
    <path fill="#ffffff" d="M 224.5 233 L 225 239.5 L 224 239.5 L 224.5 233 Z "/>
    <path fill="#ffffff" d="M 289.5 241 L 290 249.5 L 289 249.5 L 289.5 241 Z "/>
    <path fill="#ffffff" d="M 223.5 246 L 224 253.5 L 223 253.5 L 223.5 246 Z "/>
    <path fill="#ffffff" d="M 290.5 253 L 291 260.5 L 290 260.5 L 290.5 253 Z "/>
    <path fill="#ffffff" d="M 222.5 256 L 223 265.5 L 222 265.5 L 222.5 256 Z "/>
    <path fill="#ffffff" d="M 291.5 267 L 292 273.5 L 291 273.5 L 291.5 267 Z "/>
    <path fill="#ffffff" d="M 221.5 269 L 222 275.5 L 221 275.5 L 221.5 269 Z "/>
    <path fill="#ffffff" d="M 292.5 280 L 293 288.5 L 292 288.5 L 292.5 280 Z "/>
    <path fill="#ffffff" d="M 220.5 283 L 221 289.5 L 220 289.5 L 220.5 283 Z "/>
    <path fill="#ffffff" d="M 293.5 292 L 294 301.5 L 293 301.5 L 293.5 292 Z "/>
    <path fill="#ffffff" d="M 219.5 296 L 220 303.5 L 219 303.5 L 219.5 296 Z "/>
    <path fill="#ffffff" d="M 294.5 303 L 295 310.5 L 294 310.5 L 294.5 303 Z "/>
    <path fill="#ffffff" d="M 218.5 306 L 219 314.5 L 218 314.5 L 218.5 306 Z "/>
    <path fill="#ffffff" d="M 295.5 316 L 296 323.5 L 295 323.5 L 295.5 316 Z "/>
    <path fill="#ffffff" d="M 217.5 318 L 218 325.5 L 217 325.5 L 217.5 318 Z "/>
    <path fill="#ffffff" d="M 296.5 330 L 297 336.5 L 296 336.5 L 296.5 330 Z "/>
    <path fill="#ffffff" d="M 216.5 332 L 217 338.5 L 216 338.5 L 216.5 332 Z "/>
    <path fill="#ffffff" d="M 297.5 340 L 298 347.5 L 297 347.5 L 297.5 340 Z "/>
    <path fill="#ffffff" d="M 215.5 344 L 216 350.5 L 215 350.5 L 215.5 344 Z "/>
    <path fill="#ffffff" d="M 298.5 350 L 299 358.5 L 298 358.5 L 298.5 350 Z "/>
    <path fill="#ffffff" d="M 214.5 353 L 215 363.5 L 214 363.5 L 214.5 353 Z "/>
    <path fill="#ffffff" d="M 299.5 363 L 300 369.5 L 299 369.5 L 299.5 363 Z "/>
    <path fill="#ffffff" d="M 213.5 366 L 214 373.5 L 213 373.5 L 213.5 366 Z "/>
    <path fill="#ffffff" d="M 300.5 376 L 301 383.5 L 300 383.5 L 300.5 376 Z "/>
    <path fill="#ffffff" d="M 212.5 379 L 213 385.5 L 212 385.5 L 212.5 379 Z "/>
    <path fill="#ffffff" d="M 301.5 388 L 302 398.5 L 301 398.5 L 301.5 388 Z "/>
    <path fill="#ffffff" d="M 211.5 393 L 212 403.5 L 211 403.5 L 211.5 393 Z "/>
    <path fill="#ffffff" d="M 302.5 400 L 303 434.5 L 302 434.5 L 302.5 400 Z "/>
    <path fill="#ffffff" d="M 210.5 408 L 211 429.5 L 210 429.5 L 210.5 408 Z "/>
    <path fill="#ffffff" d="M 211.5 433 L 212 437.5 L 211 437.5 L 211.5 433 Z "/>
    <path fill="#ffffff" d="M 301.5 436 L 302 440.5 L 301 440.5 L 301.5 436 Z "/>
    <path fill="#ffffff" d="M 213.5 446 L 216 452.5 L 215 452.5 L 213.5 446 Z "/>
    <path fill="#ffffff" d="M 298.5 450 L 299 451.5 L 295.5 457 L 296 455.5 L 298.5 450 Z "/>
    <path fill="#ffffff" d="M 217.5 456 L 220 459.5 L 218 458.5 L 217.5 456 Z "/>
    <path fill="#ffffff" d="M 294.5 458 L 294 459.5 L 291.5 463 L 293 460.5 L 294.5 458 Z "/>
    <path fill="#ffffff" d="M 283.5 469 L 282.5 471 L 277.5 473 L 277.5 472 L 283.5 469 Z "/>
    <path fill="#ffffff" d="M 249.5 476 L 265 476.5 L 249.5 477 L 249.5 476 Z "/>
    <path fill="#4da3ff" d="M 219 195 L 293.5 195 L 294 195.5 L 294 203.5 L 288.5 211 L 286.5 212 L 227.5 212 L 221 207.5 Q 218.1 202.6 219 195 Z "/>
    <path fill="#4da3ff" d="M 238.5 224 L 261.5 224 L 262.5 225 L 274 225 L 275 227.5 L 275 239 L 277 238.5 L 276 235.5 L 277 235.5 L 278 241 Q 274.7 239.7 276 244.5 Q 278.7 247.8 278 254.5 L 278 256.5 L 278.5 267 L 280 266.5 L 279 273.5 L 281 273.5 Q 278.8 274.8 280 279.5 L 281 280.5 L 282 305.5 Q 284.6 308.4 284 314.5 L 283 316.5 L 283 318.5 L 284 320.5 L 284 332.5 L 286 335.5 L 287 347.5 L 286 348.5 L 286 367.5 L 287.5 372 L 288.5 369 L 289 382.5 L 290 383.5 L 289 385.5 L 290 386.5 L 290 403.5 L 291 404.5 L 292 426.5 L 289 440.5 L 289 442.5 Q 290.5 446.9 287.5 446 L 286.5 449 L 285 449.5 L 285 451.5 L 284.5 454 Q 283.2 451.7 282 454.5 L 278.5 459 L 272 461.5 L 272.5 463 L 268.5 464 L 265 463 Q 266.1 465.7 263.5 465 Q 262.2 462.8 257.5 464 L 256.5 465 L 245.5 465 Q 234 462 228 453.5 L 223 441.5 L 222 425.5 L 221 424.5 L 221 413.5 L 222 412.5 L 222 395.5 L 223 394.5 L 223 383.5 L 224 377 L 228.5 375 L 231 384 L 235.5 385 L 241 380.5 L 243 358.5 L 239.5 354 Q 234.1 353.4 232 355 Q 233.1 357.7 230.5 357 L 226.5 360 L 226 353.5 L 231 350 L 232.5 347 L 241 341 L 244 335.5 L 244 332.5 Q 243.3 328.3 237.5 329 L 228.5 336 L 228 321.5 L 229 320.5 L 231 287.5 L 232 286.5 L 232 273.5 L 233 272.5 L 233 260.5 L 234 259.5 L 234 249.5 L 235 248.5 L 236 225 L 238.5 224 Z M 271 237 L 269 239 L 270 241 Q 274 239 271 237 Z "/>
    <path fill="#ffd43b" d="M 131.5 46 Q 146.9 43.6 152 51.5 L 156 61.5 L 156 72.5 L 155 73.5 L 155 83.5 L 154 84.5 L 153 141.5 L 154 142.5 L 154 166.5 L 155 167.5 L 155 177.5 L 156 178.5 L 156 189.5 L 153 198.5 L 147.5 204 L 134.5 206 L 133.5 205 L 121.5 204 L 114 199.5 L 109 177.5 L 106 134.5 L 107 130.5 L 106 129.5 L 106 115.5 L 107 114.5 L 107 101.5 L 108 100.5 L 108 87.5 L 109 86.5 L 110 70.5 L 114 52.5 L 117.5 49 L 131.5 46 Z "/>
    <path fill="#ffd43b" d="M 369.5 46 L 381.5 46 L 391.5 48 L 395.5 49 L 399 52.5 L 403 68.5 L 404 82.5 L 405 83.5 L 405 95.5 L 406 96.5 L 406 107.5 L 407 108.5 L 407 148.5 L 406 149.5 L 405 169.5 L 404 170.5 L 404 178.5 L 402 189.5 L 400 197.5 L 395.5 203 L 387.5 205 L 373.5 206 L 365.5 204 L 361 199.5 L 357 188.5 L 357 182.5 L 358 181.5 L 359 149.5 L 360 148.5 L 360 103.5 L 359 102.5 L 359 81.5 L 358 80.5 L 357 63.5 L 359 55.5 L 364.5 48 L 369.5 46 Z "/>
    <path fill="#ffd43b" d="M 223.5 66 L 291.5 66 L 292.5 67 L 307.5 67 L 308.5 68 L 346.5 70 L 349 72.5 L 350 106.5 L 351 107.5 L 351 146.5 L 350 147.5 L 349 178.5 L 347.5 180 L 330.5 181 L 329.5 182 L 300.5 183 L 299.5 184 L 248.5 185 L 247.5 184 L 212.5 184 L 211.5 183 L 184.5 182 L 183.5 181 L 165 180 L 164 177.5 L 164 162.5 L 163 161.5 L 162 119.5 L 163 118.5 L 164 74.5 L 166.5 70 L 177.5 70 L 178.5 69 L 201.5 68 L 202.5 67 L 222.5 67 L 223.5 66 Z "/>
    <path fill="#66d9e8" d="M 218 193 L 240.5 193 L 241.5 194 L 273.5 194 L 274.5 193 L 294.5 193 L 296 195.5 L 295 196.5 L 295 205.5 L 289.5 212 Q 286 214.5 278.5 213 L 277.5 214 L 231.5 214 Q 230.3 211.8 225.5 213 L 220 208.5 L 218 204.5 L 218 193 Z M 219 195 Q 218 203 221 208 L 228 212 L 287 212 L 289 211 L 294 204 L 294 196 L 294 195 L 219 195 Z "/>
    <path fill="#66d9e8" d="M 238.5 222 Q 245.3 220.7 248.5 223 L 250.5 223 L 259.5 222 L 260.5 223 L 278 223 L 279 226.5 L 281 261.5 L 282 262.5 L 282 275.5 L 283 276.5 L 283 288.5 L 284 289.5 L 284 299.5 L 285 300.5 L 285 310.5 L 286 311.5 L 286 324.5 L 287 325.5 L 287 335.5 L 288 336.5 L 289 359.5 L 291 370.5 L 294 424.5 L 293 425.5 L 293 434.5 L 290 448.5 L 281.5 460 L 266.5 467 L 247.5 467 Q 233.1 463.9 226 453.5 L 222 444.5 L 221 432.5 L 220 431.5 L 220 401.5 L 221 400.5 L 222 377.5 L 223.5 376 L 231 372 L 231 380.5 L 233.5 383 L 239 382 L 240 377.5 L 241 357.5 Q 239.8 354.8 234.5 356 L 224.5 364 L 224 353.5 L 226.5 350 L 241 338.5 L 242 332.5 Q 241 330 236.5 331 L 226.5 339 L 226 328.5 L 227 327.5 L 227 314.5 L 228 313.5 L 228 303.5 L 229 302.5 L 230 278.5 L 231 277.5 L 231 266.5 L 232 265.5 L 232 254.5 L 233 253.5 L 233 242.5 L 234 241.5 L 234 227.5 L 235 223 L 238.5 222 Z M 239 224 L 236 225 L 235 249 L 234 250 L 234 260 L 233 261 L 233 273 L 232 274 L 232 287 L 231 288 L 229 321 L 228 322 L 229 336 L 238 329 Q 243 328 244 333 L 244 336 L 241 341 L 233 347 L 231 350 L 226 354 L 227 360 L 231 357 Q 233 358 232 355 Q 234 353 240 354 L 243 359 L 241 381 L 236 385 L 231 384 L 229 375 L 224 377 L 223 384 L 223 395 L 222 396 L 222 413 L 221 414 L 221 425 L 222 426 L 223 442 L 228 454 Q 234 462 246 465 L 257 465 L 258 464 Q 262 463 264 465 Q 266 466 265 463 L 269 464 L 273 463 L 272 462 L 279 459 L 282 455 Q 283 452 285 454 L 285 452 L 285 450 L 287 449 L 288 446 Q 291 447 289 443 L 289 441 L 292 427 L 291 405 L 290 404 L 290 387 L 289 386 L 290 384 L 289 383 L 289 369 L 288 372 L 286 368 L 286 349 L 287 348 L 286 336 L 285 336 L 285 335 L 283 319 L 283 317 L 284 315 Q 285 308 282 306 L 282 296 L 281 295 L 281 281 L 279 274 L 280 267 L 279 267 L 278 257 L 278 255 Q 279 248 276 245 Q 275 240 278 241 L 278 238 L 275 239 L 275 228 L 274 225 L 263 225 L 262 224 L 239 224 Z "/>
    <path fill="#66d9e8" d="M 270.5 237 Q 274 239 269.5 241 L 269 238.5 L 270.5 237 Z "/>
  </g>
  <g id="line">
    <path fill="#1a1a1a" d="M 129.5 37 Q 150.9 34.1 159 44.5 Q 164.3 51 165 61 L 185.5 60 L 186.5 59 L 199.5 59 L 200.5 58 L 214.5 58 L 215.5 57 L 297.5 57 L 298.5 58 L 314.5 58 L 315.5 59 L 326.5 59 L 327.5 60 L 348 61 Q 349.4 50.6 354 44 L 359.5 40 L 367.5 37 L 383.5 37 L 398.5 40 L 406 46.5 L 410 56.5 L 413 73.5 L 413 80.5 L 414 81.5 L 415 106.5 L 416 107.5 L 416 147.5 L 415 148.5 L 415 162.5 L 414 163.5 L 412 187.5 L 408 202.5 L 405 208 L 400.5 211 L 391.5 214 L 368.5 215 Q 359.1 212.9 354 206.5 L 350 198.5 L 348 189 L 344.5 190 L 321.5 191 L 320.5 192 L 306.5 192 L 304 193 L 304 207.5 Q 301.4 214.9 295.5 219 L 287 223.5 L 288 225.5 L 290 260.5 L 291 261.5 L 293 301.5 L 295 311.5 L 296 336.5 L 297 337.5 L 297 347.5 L 298 348.5 L 298 358.5 L 299 359.5 L 299 369.5 L 300 370.5 L 300 383.5 L 301 384.5 L 302 435.5 L 299 449.5 L 291 464 L 284.5 469 L 270.5 475 L 265.5 476 L 248.5 476 L 239.5 474 L 230.5 470 L 220 460.5 L 216 453.5 L 212 440.5 Q 213.8 434.3 211 432.5 L 211 404.5 L 212 403.5 L 212 386.5 L 213 385.5 L 213 374.5 L 215 363.5 L 215 351.5 L 216 350.5 L 217 326.5 L 218 325.5 L 218 315.5 L 219 314.5 L 219 304.5 L 220 303.5 L 221 276.5 L 223 265.5 L 224 240.5 L 225 239.5 L 226 223.5 Q 217.2 220.3 212 213.5 L 209 206.5 L 209 193 L 206.5 192 L 192.5 192 L 191.5 191 L 180.5 191 L 179.5 190 L 168.5 190 L 166.5 189 L 164 192.5 Q 164 199.5 161 203.5 L 155.5 210 L 144.5 215 L 128.5 215 L 115.5 212 L 107 205.5 L 103 195.5 L 100 178.5 L 100 170.5 L 99 169.5 L 98 140.5 L 97 139.5 L 97 113.5 L 98 112.5 L 98 97.5 L 99 96.5 L 100 74.5 L 104 52.5 Q 106.6 45.1 112.5 41 L 129.5 37 Z M 132 46 L 118 49 L 114 53 L 110 71 L 109 87 L 108 88 L 108 101 L 107 102 L 107 115 L 106 116 L 106 130 L 107 131 L 106 135 L 109 178 L 114 200 L 122 204 L 134 205 L 135 206 L 148 204 L 153 199 L 156 190 L 156 179 L 155 178 L 155 168 L 154 167 L 154 143 L 153 142 L 154 85 L 155 84 L 155 74 L 156 73 L 156 62 L 152 52 Q 147 44 132 46 Z M 370 46 L 365 48 L 359 56 L 357 64 L 358 81 L 359 82 L 359 103 L 360 104 L 360 149 L 359 150 L 358 182 L 357 183 L 357 189 L 361 200 L 366 204 L 374 206 L 388 205 L 396 203 L 400 198 L 402 190 L 404 179 L 404 171 L 405 170 L 406 150 L 407 149 L 407 109 L 406 108 L 406 97 L 405 96 L 405 84 L 404 83 L 403 69 L 399 53 L 396 49 L 392 48 L 382 46 L 370 46 Z M 224 66 L 223 67 L 203 67 L 202 68 L 179 69 L 178 70 L 167 70 L 164 75 L 163 119 L 162 120 L 163 162 L 164 163 L 164 178 L 165 180 L 184 181 L 185 182 L 212 183 L 213 184 L 248 184 L 249 185 L 300 184 L 301 183 L 330 182 L 331 181 L 348 180 L 349 179 L 350 148 L 351 147 L 351 108 L 350 107 L 349 73 L 347 70 L 309 68 L 308 67 L 293 67 L 292 66 L 224 66 Z M 218 193 L 218 205 L 220 209 L 226 213 Q 230 212 232 214 L 278 214 L 279 213 Q 286 215 290 212 L 295 206 L 295 197 L 296 196 L 295 193 L 275 193 L 274 194 L 242 194 L 241 193 L 218 193 Z M 239 222 L 235 223 L 234 228 L 234 242 L 233 243 L 233 254 L 232 255 L 232 266 L 231 267 L 231 278 L 230 279 L 229 303 L 228 304 L 228 314 L 227 315 L 227 328 L 226 329 L 227 339 L 237 331 Q 241 330 242 333 L 241 339 L 227 350 L 224 354 L 225 364 L 235 356 Q 240 355 241 358 L 240 378 L 239 382 L 234 383 L 231 381 L 231 372 L 224 376 L 222 378 L 221 401 L 220 402 L 220 432 L 221 433 L 222 445 L 226 454 Q 233 464 248 467 L 267 467 L 282 460 L 290 449 L 293 435 L 293 426 L 294 425 L 291 371 L 289 360 L 288 337 L 287 336 L 287 326 L 286 325 L 286 312 L 285 311 L 285 301 L 284 300 L 284 290 L 283 289 L 283 277 L 282 276 L 282 263 L 281 262 L 279 227 L 278 223 L 261 223 L 260 222 L 251 223 L 249 223 Q 245 221 239 222 Z "/>
  </g>
</svg>
