<svg xmlns="http://www.w3.org/2000/svg" width="512" height="512" viewBox="0 0 512 512">
  <g id="color">
    <path fill="#ffffff" d="M 171.5 37 L 192 37.5 L 171.5 38 L 171.5 37 Z "/>
    <path fill="#ffffff" d="M 252.5 37 L 282 37.5 L 252.5 38 L 252.5 37 Z "/>
    <path fill="#ffffff" d="M 154.5 38 L 168 38.5 L 154.5 39 L 154.5 38 Z "/>
    <path fill="#ffffff" d="M 289.5 38 L 320 38.5 L 289.5 39 L 289.5 38 Z "/>
    <path fill="#ffffff" d="M 143.5 39 L 151 39.5 L 143.5 40 L 143.5 39 Z "/>
    <path fill="#ffffff" d="M 325.5 39 L 344 39.5 L 325.5 40 L 325.5 39 Z "/>
    <path fill="#ffffff" d="M 133.5 40 L 138 40.5 L 133.5 41 L 133.5 40 Z "/>
    <path fill="#ffffff" d="M 359.5 40 L 376 40.5 L 359.5 41 L 359.5 40 Z "/>
    <path fill="#ffffff" d="M 126.5 41 L 131 41.5 L 124.5 43 L 124.5 42 L 126.5 41 Z "/>
    <path fill="#ffffff" d="M 380.5 41 L 398 41.5 L 380.5 42 L 380.5 41 Z "/>
    <path fill="#ffffff" d="M 120.5 43 L 122 43.5 Q 110.9 47.4 104.5 56 L 111.5 48 L 120.5 43 Z "/>
    <path fill="#ffffff" d="M 99.5 65 L 100 67.5 L 98.5 72 L 98 68.5 L 99.5 65 Z "/>
    <path fill="#ffffff" d="M 423.5 65 Q 425.8 67.8 425 73.5 L 424 73.5 L 423.5 65 Z "/>
    <path fill="#ffffff" d="M 425.5 75 L 426 84.5 L 425 84.5 L 425.5 75 Z "/>
    <path fill="#ffffff" d="M 96.5 80 L 97 87.5 L 96 87.5 L 96.5 80 Z "/>
    <path fill="#ffffff" d="M 95.5 89 L 96 110.5 L 95 110.5 L 95.5 89 Z "/>
    <path fill="#ffffff" d="M 390 94 L 421 94.5 L 391.5 95 L 390 96.5 L 389.5 217 L 389 96.5 L 390 94 Z "/>
    <path fill="#ffffff" d="M 94.5 116 L 95 131.5 L 94 131.5 L 94.5 116 Z "/>
    <path fill="#ffffff" d="M 93.5 143 L 94 159.5 L 93 159.5 L 93.5 143 Z "/>
    <path fill="#ffffff" d="M 92.5 163 L 93 186.5 L 92 186.5 L 92.5 163 Z "/>
    <path fill="#ffffff" d="M 91.5 190 L 92 208.5 L 91 208.5 L 91.5 190 Z "/>
    <path fill="#ffffff" d="M 390.5 219 L 391 271.5 L 390 271.5 L 390.5 219 Z "/>
    <path fill="#ffffff" d="M 90.5 222 L 91 240.5 L 90 240.5 L 90.5 222 Z "/>
    <path fill="#ffffff" d="M 89.5 246 L 90 272.5 L 89 272.5 L 89.5 246 Z "/>
    <path fill="#ffffff" d="M 88.5 277 L 89 302.5 L 88 302.5 L 88.5 277 Z "/>
    <path fill="#ffffff" d="M 391.5 298 L 392 330.5 L 391 330.5 L 391.5 298 Z "/>
    <path fill="#ffffff" d="M 392.5 351 L 393 391.5 L 392 391.5 L 392.5 351 Z "/>
    <path fill="#ffffff" d="M 88.5 375 L 89 394.5 L 88 394.5 L 88.5 375 Z "/>
    <path fill="#ffffff" d="M 393.5 393 L 394 420 L 397 420.5 L 394.5 421 L 393 419.5 L 393.5 393 Z "/>
    <path fill="#ffffff" d="M 89.5 397 L 90 413.5 L 89 413.5 L 89.5 397 Z "/>
    <path fill="#ffffff" d="M 90.5 416 L 91 424.5 L 90 424.5 L 90.5 416 Z "/>
    <path fill="#ffffff" d="M 401.5 419 L 417 419.5 L 401.5 420 L 401.5 419 Z "/>
    <path fill="#ffffff" d="M 420.5 423 Q 423.1 425.4 422 431.5 L 421 431.5 L 420.5 423 Z "/>
    <path fill="#ffffff" d="M 91.5 431 L 92 437.5 L 91 437.5 L 91.5 431 Z "/>
    <path fill="#ffffff" d="M 421.5 438 L 422 442.5 L 420.5 446 L 420 443.5 L 421.5 438 Z "/>
    <path fill="#ffffff" d="M 92.5 439 L 93 443.5 L 92 443.5 L 92.5 439 Z "/>
    <path fill="#ffffff" d="M 415.5 456 L 415 457.5 L 411.5 462 L 414 458.5 L 415.5 456 Z "/>
    <path fill="#ffffff" d="M 404.5 467 L 403.5 469 L 400.5 470 L 400.5 469 L 404.5 467 Z "/>
    <path fill="#ffffff" d="M 118.5 470 L 135 471.5 L 121.5 472 L 118.5 471 L 118.5 470 Z "/>
    <path fill="#ffffff" d="M 397.5 470 L 399 470.5 L 394.5 472 L 394.5 471 L 397.5 470 Z "/>
    <path fill="#ffffff" d="M 139.5 472 L 160 472.5 L 139.5 473 L 139.5 472 Z "/>
    <path fill="#ffffff" d="M 174.5 473 L 195 473.5 L 174.5 474 L 174.5 473 Z "/>
    <path fill="#ffffff" d="M 378.5 473 L 386 473.5 L 378.5 474 L 378.5 473 Z "/>
    <path fill="#ffffff" d="M 201.5 474 L 224 474.5 L 201.5 475 L 201.5 474 Z "/>
    <path fill="#ffffff" d="M 363.5 474 L 376 474.5 L 363.5 475 L 363.5 474 Z "/>
    <path fill="#ffffff" d="M 226.5 475 L 247 475.5 L 226.5 476 L 226.5 475 Z "/>
    <path fill="#ffffff" d="M 346.5 475 L 362 475.5 L 346.5 476 L 346.5 475 Z "/>
    <path fill="#ffffff" d="M 265.5 476 L 331 476.5 L 265.5 477 L 265.5 476 Z "/>
    <path fill="#ffd43b" d="M 208.5 46 L 288.5 47 L 289.5 48 L 377.5 50 L 378.5 51 L 388 51 L 384 60.5 L 381 74.5 L 381 100.5 L 380 101.5 L 380 188.5 L 381 189.5 L 381 280.5 L 382 281.5 L 382 338.5 L 383 339.5 L 384 421 L 381.5 422 L 326 423 L 333 402.5 L 333 382.5 L 332 378.5 L 340 348.5 L 340 336.5 L 335 321.5 L 323.5 309 L 310.5 302 L 294.5 298 L 267.5 281 L 260.5 279 L 249.5 279 L 235.5 284 L 219.5 296 L 202.5 299 L 196.5 302 L 186 311.5 Q 180.3 319.3 180 332.5 L 173 342.5 L 169 351.5 L 169 364.5 L 177 380.5 L 179 403.5 Q 181.9 411.6 188.5 416 L 194 419.5 L 191.5 421 L 190.5 420 L 149.5 420 L 147 421 L 146 426.5 L 147 427.5 L 147 437.5 Q 144.5 451 134.5 457 Q 129.4 461.9 118.5 461 Q 111.1 458.9 107 453.5 L 102 442.5 L 101 429.5 L 100 428.5 L 100 417.5 L 99 416.5 L 98 368.5 L 97 367.5 L 97 316.5 L 98 315.5 L 98 272.5 L 99 271.5 L 99 243.5 L 100 242.5 L 100 214.5 L 101 213.5 L 101 185.5 L 102 184.5 L 102 162.5 L 103 161.5 L 103 139.5 L 104 138.5 L 105 90.5 L 106 89.5 L 106 79.5 L 108 69.5 Q 111.2 61.2 117.5 56 L 122.5 53 L 133.5 50 L 142.5 50 L 153.5 48 L 168.5 48 L 169.5 47 L 207.5 47 L 208.5 46 Z "/>
    <path fill="#ffd43b" d="M 401.5 54 L 404.5 54 L 409 57 Q 416.8 66.8 416 85 L 391.5 85 L 390 83.5 L 392 64.5 L 399.5 55 L 401.5 54 Z "/>
    <path fill="#ffd43b" d="M 156 429 L 208.5 430 L 211 432.5 L 220.5 443 L 231.5 448 L 248.5 448 L 269.5 440 L 296.5 440 L 301.5 439 L 315.5 432 L 377.5 431 L 378.5 430 L 411.5 429 Q 414.3 430.3 413 435.5 L 410 447.5 L 404 457 L 393.5 463 L 376.5 464 L 375.5 465 L 364.5 465 L 363.5 466 L 340.5 466 L 339.5 467 L 251.5 467 L 250.5 466 L 217.5 466 L 216.5 465 L 192.5 465 L 191.5 464 L 161.5 464 L 160.5 463 L 143 463 L 154 445.5 L 156 429 Z "/>
    <path fill="#ff6b6b" d="M 254.5 285 L 264 286.5 L 263.5 288 L 266.5 287 L 268.5 290 L 270 289.5 L 270.5 291 L 272.5 291 Q 282.4 301.6 299 305.5 L 298.5 307 L 302.5 306 L 304.5 309 L 305.5 307 L 306.5 309 L 308.5 309 L 315 311.5 L 315.5 313 L 317.5 312 L 324 317.5 L 328 322.5 L 327.5 324 L 330 325.5 Q 334.2 330.8 334 340.5 L 334 342.5 Q 333.8 354.1 330 361 L 328 361.5 L 329 363.5 Q 325.9 368.9 327 378.5 L 325 382.5 L 327 387.5 L 326 387.5 L 325.5 385 L 325 389 L 327 389.5 L 327 403.5 L 323 414 L 321 414.5 L 321 416.5 L 314.5 425 L 305.5 431 L 295.5 434 L 269.5 434 L 260.5 436 L 249.5 441 L 239.5 443 L 237.5 443 Q 225.4 441.1 219 433.5 L 210 421 Q 201.1 413.6 189 409 L 184 399.5 L 184 380.5 L 176 364.5 L 174 356.5 L 175 353 L 177 352.5 L 176 350.5 L 185 336.5 L 187 325 Q 189.7 326.1 189 323.5 L 189 321.5 Q 190.6 312.6 197.5 309 L 204.5 306 L 206 306.5 Q 205.2 303.9 208.5 305 L 210.5 306 L 210.5 304 Q 223.2 303.1 229.5 296 L 231 296.5 L 235.5 291 L 243.5 287 L 249.5 286 Q 251.3 288.8 257.5 287 L 257.5 286 Q 253.5 286.8 254.5 285 Z M 249 308 L 231 314 L 229 314 L 228 316 L 221 320 L 212 330 L 209 332 L 209 334 L 202 347 L 199 362 Q 197 368 200 370 L 199 378 L 201 378 L 200 380 L 202 380 L 203 386 Q 207 397 215 405 L 215 407 L 217 406 Q 226 417 241 420 L 242 422 L 245 421 Q 246 424 248 422 Q 252 421 254 423 L 263 423 L 274 421 L 288 414 L 290 414 L 290 413 L 294 410 L 301 403 L 302 404 L 306 399 L 305 397 L 312 383 Q 311 380 314 381 L 313 380 L 314 376 Q 313 368 316 369 Q 317 365 314 366 Q 315 356 312 350 L 313 346 L 312 346 Q 308 334 300 327 L 293 319 L 282 313 Q 279 314 280 312 L 279 312 L 266 308 L 249 308 Z "/>
    <path fill="#ff6b6b" d="M 251.5 312 Q 263.6 310.4 270.5 314 L 272.5 314 L 286.5 320 L 301 333.5 L 305 340.5 L 305 343.5 L 307 345.5 L 311 358.5 L 311 360.5 Q 312.5 366 310 367.5 L 311 369.5 L 309.5 376 L 308 375.5 L 309 380 L 307 380.5 L 308 383.5 L 304 392 Q 300.3 390.5 301 393.5 L 301.5 395 L 300 394.5 L 298.5 399 Q 297.3 396.8 296 399.5 L 297 400.5 L 289.5 408 L 288 407.5 L 285.5 411 L 281.5 413 L 280 412.5 Q 280.8 414.8 278.5 414 L 270.5 417 L 267 416 Q 268.3 419.3 263.5 418 L 262.5 419 L 253.5 419 L 250.5 418 Q 245.1 419.9 246 416.5 L 243.5 416 Q 223.9 412.6 215 398.5 L 211 392.5 L 211.5 391 Q 209.3 391.8 210 389.5 L 205 379.5 L 204 368.5 L 203 367.5 L 203 357.5 L 211 336.5 L 222.5 324 L 234.5 316 L 248.5 313 Q 250 315.5 251.5 312 Z M 234 335 L 231 341 L 229 342 L 230 344 L 225 346 Q 221 345 222 348 L 221 351 L 223 352 L 225 351 L 228 355 Q 226 361 230 363 L 232 363 L 238 358 L 242 360 Q 246 361 247 359 L 246 357 L 247 354 L 246 350 L 247 348 L 250 347 L 249 344 Q 247 339 246 342 L 239 341 L 237 336 L 236 336 L 234 335 Z M 310 361 L 309 367 L 310 367 L 310 361 Z M 272 371 L 270 373 Q 271 377 269 379 L 271 381 L 272 391 L 275 393 L 277 392 L 280 388 L 284 390 L 287 394 L 291 393 L 293 391 L 287 380 L 289 380 L 291 375 L 287 372 L 272 371 Z "/>
    <path fill="#ff6b6b" d="M 234.5 340 L 236 340.5 L 234 341 Q 232.9 343.7 235.5 343 Q 236.7 340.8 238 343.5 L 238.5 345 L 242 344 L 243 346.5 L 242 349.5 L 243 354.5 L 235.5 356 L 232.5 358 L 231 354.5 L 228 350.5 Q 231.1 348.8 229.5 347 L 232 345.5 L 234.5 340 Z "/>
    <path fill="#ff6b6b" d="M 275.5 373 L 281 374 L 281.5 376 L 283.5 375 L 283 376.5 L 283.5 378 L 285 377.5 L 283 380.5 L 287 387 L 284.5 386 Q 283 388.5 281.5 385 L 280 384.5 L 280.5 383 L 278 383.5 Q 280.7 385.3 276.5 387 Q 272.3 388.3 274 383.5 L 273 378.5 L 274 375.5 L 273 375.5 L 272.5 377 L 272 375.5 Q 273.3 372.8 274.5 375 L 276 374.5 L 275.5 373 Z "/>
    <path fill="#f783ac" d="M 250 285 L 258 286.5 L 250 287 L 250 285 Z "/>
    <path fill="#f783ac" d="M 208.5 332 L 210 332.5 L 207 334.5 L 206.5 336 L 206 334.5 L 208.5 332 Z "/>
    <path fill="#f783ac" d="M 242.5 345 Q 244.8 344.3 244 346.5 L 242 347.5 L 242.5 345 Z "/>
    <path fill="#f783ac" d="M 228.5 347 Q 231.5 348.5 228.5 350 Q 226.3 350.8 227 348.5 L 228.5 347 Z "/>
    <path fill="#f783ac" d="M 221.5 350 Q 223.8 349.3 223 351.5 L 223.5 353 L 221.5 350 Z "/>
    <path fill="#f783ac" d="M 245.5 350 Q 248.5 349.1 247 353.5 L 245 352.5 L 245.5 350 Z "/>
    <path fill="#f783ac" d="M 309.5 361 L 311 367.5 L 309 366.5 L 309.5 361 Z "/>
    <path fill="#f783ac" d="M 274.5 373 L 275.5 375 Q 272.9 374.2 274 377.5 L 273 377.5 L 274.5 373 Z "/>
    <path fill="#f783ac" d="M 325.5 385 L 327 388.5 L 325 389 L 325.5 385 Z "/>
    <path fill="#f783ac" d="M 284.5 386 L 288 387 Q 289.1 389.7 286.5 389 L 284.5 386 Z "/>
    <path fill="#f783ac" d="M 301 392 L 303 392.5 L 300.5 396 L 300 394.5 L 301 392 Z "/>
    <path fill="#f783ac" d="M 306.5 396 L 306 397.5 L 301.5 404 L 301 402.5 L 306.5 396 Z "/>
    <path fill="#f783ac" d="M 297.5 398 L 298 400 L 295.5 401 L 297.5 398 Z "/>
  </g>
  <g id="line">
    <path fill="#1a1a1a" d="M 192.5 37 L 251.5 37 L 252.5 38 L 284.5 38 L 286.5 39 L 288.5 38 L 289.5 39 L 324.5 39 L 325.5 40 L 358.5 40 L 359.5 41 L 398.5 42 Q 409.8 44.2 416 51.5 L 423 63.5 L 425 74.5 L 425 86.5 L 424 91.5 L 421.5 94 L 390.5 94 L 390 95.5 L 389 96.5 L 389 216.5 L 390 217.5 L 390 271.5 L 391 272.5 L 392 391.5 L 393 392.5 L 393 419.5 L 394.5 421 L 397.5 420 L 417.5 420 L 421 425.5 L 422 437.5 L 419 449.5 L 409.5 464 L 393.5 472 L 378.5 473 L 377.5 474 L 346.5 475 L 345.5 476 L 247.5 476 L 246.5 475 L 224.5 475 L 223.5 474 L 160.5 473 L 159.5 472 L 121.5 471 Q 109.8 469.1 103 463 L 103 461 Q 100.3 462.1 101 459.5 L 94 448.5 L 92 438.5 L 92 431.5 L 91 430.5 L 90 397.5 L 89 396.5 L 89 375.5 L 88 374.5 L 88 303.5 L 89 302.5 L 91 209.5 L 92 208.5 L 92 187.5 L 93 186.5 L 94 132.5 L 95 131.5 L 97 76.5 L 100 64.5 L 104 56.5 L 111.5 49 L 122.5 43 L 131.5 41 L 150.5 40 L 151.5 39 L 167.5 39 L 168.5 38 L 191.5 38 L 192.5 37 Z M 209 46 L 208 47 L 170 47 L 169 48 L 154 48 L 143 50 L 134 50 L 123 53 L 118 56 Q 111 61 108 70 L 106 80 L 106 90 L 105 91 L 104 139 L 103 140 L 103 162 L 102 163 L 102 185 L 101 186 L 101 214 L 100 215 L 100 243 L 99 244 L 99 272 L 98 273 L 98 316 L 97 317 L 97 368 L 98 369 L 99 417 L 100 418 L 100 429 L 101 430 L 102 443 L 107 454 Q 111 459 119 461 Q 129 462 135 457 Q 144 451 147 438 L 147 428 L 146 427 L 147 421 L 150 420 L 191 420 L 192 421 L 195 420 L 189 416 Q 182 412 179 404 L 177 381 L 169 365 L 169 352 L 173 343 L 180 333 Q 180 319 186 312 L 197 302 L 203 299 L 220 296 L 236 284 L 250 279 L 261 279 L 268 281 L 295 298 L 311 302 L 324 309 L 335 322 L 340 337 L 340 349 L 332 379 L 333 383 L 333 403 L 326 423 L 382 422 L 384 421 L 383 340 L 382 339 L 382 282 L 381 281 L 381 190 L 380 189 L 380 102 L 381 101 L 381 75 L 384 61 L 388 51 L 379 51 L 378 50 L 290 48 L 289 47 L 209 46 Z M 402 54 L 400 55 L 392 65 L 390 84 L 392 85 L 416 85 Q 417 67 409 57 L 405 54 L 402 54 Z M 251 285 L 236 291 Q 230 298 221 302 L 207 305 L 198 309 L 189 320 L 185 337 L 177 349 L 174 357 L 176 365 L 184 381 L 184 400 L 189 409 L 205 417 L 219 434 Q 225 441 237 443 L 250 441 L 270 434 L 296 434 Q 307 432 315 425 Q 324 417 327 404 L 327 386 L 326 385 L 328 365 L 334 348 L 333 332 L 324 318 L 314 310 L 291 303 L 283 299 Q 276 292 267 287 L 260 285 L 251 285 Z M 156 429 L 154 446 L 143 463 L 161 463 L 162 464 L 192 464 L 193 465 L 217 465 L 218 466 L 251 466 L 252 467 L 340 467 L 341 466 L 364 466 L 365 465 L 376 465 L 377 464 L 394 463 L 404 457 L 410 448 L 413 436 Q 414 430 412 429 L 379 430 L 378 431 L 316 432 L 302 439 L 297 440 L 270 440 L 249 448 L 232 448 L 221 443 L 211 433 L 209 430 L 156 429 Z "/>
    <path fill="#1a1a1a" d="M 248.5 308 L 265.5 308 L 279.5 312 L 293.5 320 L 300 326.5 Q 307.8 334.7 312 346.5 L 315 368.5 L 314 369.5 L 313 380.5 L 305 397.5 L 293.5 410 Q 283.6 418.1 269.5 422 L 253.5 423 L 252.5 422 L 241.5 421 L 231.5 417 Q 220 411 212 401.5 L 201 379.5 L 199 361.5 L 202 346.5 L 206 337.5 L 220.5 320 Q 231.9 311.4 248.5 308 Z M 250 312 L 235 316 L 223 324 L 211 337 L 203 358 L 203 368 L 206 384 L 215 399 L 229 411 L 240 416 L 252 419 L 269 418 Q 281 415 290 408 L 304 392 L 308 384 L 311 370 L 310 354 L 301 334 Q 292 323 280 316 L 265 312 L 250 312 Z "/>
    <path fill="#1a1a1a" d="M 233.5 335 L 237 336 L 240.5 342 Q 247.2 340.3 249 343.5 L 245 352.5 L 247 358.5 Q 246 361 241.5 360 L 237.5 358 L 231.5 363 L 229.5 363 L 228 361.5 L 228 353 L 221 348.5 L 222 346 L 230 344 Q 230 338.2 233.5 335 Z M 235 340 L 232 346 L 227 349 L 231 354 L 231 358 Q 234 359 236 356 L 243 357 L 242 354 Q 241 347 244 345 L 239 344 L 236 342 Q 237 339 235 340 Z "/>
    <path fill="#1a1a1a" d="M 271.5 371 L 286.5 372 L 291 374.5 Q 291.5 378.5 288.5 379 Q 285.9 378.2 287 381.5 L 293 390.5 Q 292.5 393.5 288.5 393 L 279.5 388 L 276.5 392 L 274.5 393 L 272 390.5 L 271 386.5 L 270 372.5 L 271.5 371 Z M 275 373 L 272 376 L 274 387 Q 278 388 280 384 L 287 389 L 289 388 L 283 381 L 285 375 L 275 373 Z "/>
  </g>
</svg>
