<svg xmlns="http://www.w3.org/2000/svg" width="512" height="512" viewBox="0 0 512 512">
  <g id="color">
    <path fill="#ffffff" d="M 240.5 37 L 283 37.5 L 240.5 38 L 240.5 37 Z "/>
    <path fill="#ffffff" d="M 223.5 38 L 233 38.5 L 223.5 39 L 223.5 38 Z "/>
    <path fill="#ffffff" d="M 289.5 38 L 297 38.5 L 289.5 39 L 289.5 38 Z "/>
    <path fill="#ffffff" d="M 211.5 39 L 217 39.5 L 211.5 40 L 211.5 39 Z "/>
    <path fill="#ffffff" d="M 301.5 39 L 308 39.5 L 301.5 40 L 301.5 39 Z "/>
    <path fill="#ffffff" d="M 203.5 40 L 210 40.5 L 203.5 41 L 203.5 40 Z "/>
    <path fill="#ffffff" d="M 309.5 40 L 316 40.5 L 309.5 41 L 309.5 40 Z "/>
    <path fill="#ffffff" d="M 196.5 41 L 201 41.5 L 196.5 42 L 196.5 41 Z "/>
    <path fill="#ffffff" d="M 183.5 43 L 188 43.5 L 180.5 45 L 180.5 44 L 183.5 43 Z "/>
    <path fill="#ffffff" d="M 330.5 43 L 337 44.5 L 334.5 45 L 330.5 44 L 330.5 43 Z "/>
    <path fill="#ffffff" d="M 170.5 46 L 174 46.5 L 167.5 48 L 167.5 47 L 170.5 46 Z "/>
    <path fill="#ffffff" d="M 342.5 46 L 347 47.5 L 345.5 48 L 342.5 47 L 342.5 46 Z "/>
    <path fill="#ffffff" d="M 350.5 49 Q 357.4 50.6 361 55.5 L 357.5 53 L 350.5 50 L 350.5 49 Z "/>
    <path fill="#ffffff" d="M 362.5 56 L 372 66.5 L 369 64.5 L 362.5 56 Z "/>
    <path fill="#ffffff" d="M 372.5 68 L 375 71.5 L 373 70.5 L 372.5 68 Z "/>
    <path fill="#ffffff" d="M 375.5 73 L 378 78.5 L 377 78.5 L 375.5 73 Z "/>
    <path fill="#ffffff" d="M 134.5 78 L 135 79.5 L 133.5 82 L 133 80.5 L 134.5 78 Z "/>
    <path fill="#ffffff" d="M 379.5 84 L 381 90.5 L 380 90.5 L 379.5 84 Z "/>
    <path fill="#ffffff" d="M 245.5 86 L 272.5 86 L 273.5 87 L 318.5 88 L 319.5 89 L 335.5 90 L 341 93.5 L 352 142.5 L 352 149.5 L 355 164.5 L 356 188.5 L 355 192.5 L 350.5 197 L 337.5 201 L 310.5 203 L 309 201.5 L 309 190.5 L 307 182.5 Q 304.9 174.6 298.5 171 L 286.5 168 L 227.5 168 L 226.5 169 L 212.5 170 L 205 175.5 L 202 183.5 L 201 201.5 L 199.5 203 L 180.5 202 L 179.5 201 L 168.5 200 L 159.5 197 L 156 193.5 L 155 191.5 L 155 169.5 L 156 168.5 L 156 159.5 L 159 146.5 L 160 133.5 L 162 129.5 L 164 114.5 L 170 92 L 175.5 90 L 191.5 89 L 192.5 88 L 204.5 88 L 205.5 87 L 244.5 87 L 245.5 86 Z "/>
    <path fill="#ffffff" d="M 131.5 87 L 132 90.5 L 131 91.5 L 130.5 104 L 130 91.5 L 131.5 87 Z "/>
    <path fill="#ffffff" d="M 380.5 98 L 381 100.5 L 380 101.5 L 379.5 110 L 379 101.5 L 380.5 98 Z "/>
    <path fill="#ffffff" d="M 130.5 105 L 131 109.5 L 130 109.5 L 130.5 105 Z "/>
    <path fill="#ffffff" d="M 380.5 111 L 381 115.5 L 380 115.5 L 380.5 111 Z "/>
    <path fill="#ffffff" d="M 381.5 119 L 382 123.5 L 381 123.5 L 381.5 119 Z "/>
    <path fill="#ffffff" d="M 127.5 122 L 128 126.5 L 127 126.5 L 127.5 122 Z "/>
    <path fill="#ffffff" d="M 382.5 127 L 383 133.5 L 382 133.5 L 382.5 127 Z "/>
    <path fill="#ffffff" d="M 126.5 128 L 127 132.5 L 126 132.5 L 126.5 128 Z "/>
    <path fill="#ffffff" d="M 383.5 135 L 384 142.5 L 383 142.5 L 383.5 135 Z "/>
    <path fill="#ffffff" d="M 124.5 143 L 125 147.5 L 123.5 155 L 123 148.5 L 124.5 143 Z "/>
    <path fill="#ffffff" d="M 384.5 144 L 385 149.5 L 384 149.5 L 384.5 144 Z "/>
    <path fill="#ffffff" d="M 385.5 155 L 386 160.5 L 385 160.5 L 385.5 155 Z "/>
    <path fill="#ffffff" d="M 122.5 158 L 123 162.5 L 122 162.5 L 122.5 158 Z "/>
    <path fill="#ffffff" d="M 386.5 164 L 387 172.5 L 386 172.5 L 386.5 164 Z "/>
    <path fill="#ffffff" d="M 121.5 167 L 122 172.5 L 121 172.5 L 121.5 167 Z "/>
    <path fill="#ffffff" d="M 120.5 174 L 121 183.5 L 120 183.5 L 120.5 174 Z "/>
    <path fill="#ffffff" d="M 387.5 174 L 388 184.5 L 387 184.5 L 387.5 174 Z "/>
    <path fill="#ffffff" d="M 119.5 186 L 120 194.5 L 119 194.5 L 119.5 186 Z "/>
    <path fill="#ffffff" d="M 388.5 190 L 389 198.5 L 388 198.5 L 388.5 190 Z "/>
    <path fill="#ffffff" d="M 360.5 200 L 363 201.5 L 359.5 202 L 360.5 200 Z "/>
    <path fill="#ffffff" d="M 118.5 203 L 119 221.5 L 118 221.5 L 118.5 203 Z "/>
    <path fill="#ffffff" d="M 389.5 204 L 390 221.5 L 391 222.5 L 391 274.5 L 390 274.5 L 390 222.5 L 389 221.5 L 389.5 204 Z "/>
    <path fill="#ffffff" d="M 117.5 233 L 118 241.5 L 117 241.5 L 117.5 233 Z "/>
    <path fill="#ffffff" d="M 118.5 251 L 119 266.5 L 118 266.5 L 118.5 251 Z "/>
    <path fill="#ffffff" d="M 168.5 258 Q 180.7 262.3 188 271.5 L 188 277.5 L 181.5 284 L 174.5 287 L 169.5 287 L 163 282.5 Q 159.9 278.1 161 269.5 Q 162.8 261.9 168.5 258 Z M 168 261 L 165 268 L 168 266 L 168 269 L 166 270 Q 163 271 164 277 L 162 277 L 163 280 L 165 280 Q 164 282 167 281 L 167 283 L 169 283 L 168 282 L 173 281 L 173 283 L 181 282 L 184 279 Q 185 276 182 277 L 182 275 L 182 273 L 183 271 L 182 268 L 175 264 L 173 265 L 173 264 L 168 261 Z "/>
    <path fill="#ffffff" d="M 343.5 258 L 347 260.5 Q 352 265.5 352 275.5 L 348 285 Q 345.1 287.9 337.5 287 Q 330.1 284.9 326 279.5 L 324 273.5 L 327.5 268 L 330.5 266 L 343.5 258 Z M 341 263 L 331 269 L 332 271 L 328 278 L 333 282 L 337 283 Q 341 284 342 281 L 346 282 L 350 279 Q 348 277 349 273 L 347 270 L 347 267 Q 344 268 345 265 L 341 263 Z "/>
    <path fill="#ffffff" d="M 119.5 276 L 120 280.5 L 119 280.5 L 119.5 276 Z "/>
    <path fill="#ffffff" d="M 389.5 276 L 392.5 281 L 395 282.5 L 393.5 282 L 390 281 L 389.5 276 Z "/>
    <path fill="#ffffff" d="M 111.5 288 L 111 289.5 L 109.5 292 L 110 290.5 L 111.5 288 Z "/>
    <path fill="#ffffff" d="M 108.5 293 L 109 294.5 L 106.5 301 L 106 298.5 L 108.5 293 Z "/>
    <path fill="#ffffff" d="M 406.5 300 L 408 307.5 L 407 307.5 L 406.5 300 Z "/>
    <path fill="#ffffff" d="M 104.5 309 L 105 314.5 L 104 314.5 L 104.5 309 Z "/>
    <path fill="#ffffff" d="M 408.5 312 L 409 319.5 L 408 319.5 L 408.5 312 Z "/>
    <path fill="#ffffff" d="M 103.5 316 L 104 345.5 L 103 345.5 L 103.5 316 Z "/>
    <path fill="#ffffff" d="M 408.5 343 L 409 348.5 L 408 348.5 L 408.5 343 Z "/>
    <path fill="#ffffff" d="M 104.5 347 L 105 353.5 L 104 353.5 L 104.5 347 Z "/>
    <path fill="#ffffff" d="M 404.5 364 L 404 365.5 L 402.5 368 L 403 366.5 L 404.5 364 Z "/>
    <path fill="#ffffff" d="M 108.5 365 Q 113.5 371.5 122 374.5 L 121.5 376 L 121 374 Q 111.7 372.1 108.5 365 Z "/>
    <path fill="#ffffff" d="M 393.5 372 L 395 372.5 L 391.5 374 L 391.5 373 L 393.5 372 Z "/>
    <path fill="#ffffff" d="M 390.5 380 L 391 391.5 L 389.5 399 L 389 392.5 L 390 391.5 L 390.5 380 Z "/>
    <path fill="#ffffff" d="M 122.5 387 L 123 393.5 L 122 393.5 L 122.5 387 Z "/>
    <path fill="#ffffff" d="M 123.5 397 L 125 406.5 L 124 406.5 L 123.5 397 Z "/>
    <path fill="#ffffff" d="M 166.5 405 L 167 406.5 L 165.5 409 L 165 407.5 L 166.5 405 Z "/>
    <path fill="#ffffff" d="M 345.5 405 Q 348.5 405.5 348 409.5 L 347 409.5 L 345.5 406 L 342.5 407 L 342.5 406 L 345.5 405 Z "/>
    <path fill="#ffffff" d="M 174.5 408 L 185 410.5 L 181.5 411 L 174.5 409 L 174.5 408 Z "/>
    <path fill="#ffffff" d="M 334.5 408 L 337 408.5 L 329.5 410 L 329.5 409 L 334.5 408 Z "/>
    <path fill="#ffffff" d="M 164.5 410 L 165 411.5 L 163.5 414 L 163 412.5 L 164.5 410 Z "/>
    <path fill="#ffffff" d="M 315.5 411 L 321 411.5 L 315.5 412 L 315.5 411 Z "/>
    <path fill="#ffffff" d="M 348.5 411 L 352 416.5 L 349 414.5 L 348.5 411 Z "/>
    <path fill="#ffffff" d="M 194.5 412 L 202 412.5 L 194.5 413 L 194.5 412 Z "/>
    <path fill="#ffffff" d="M 303.5 412 L 313 412.5 L 303.5 413 L 303.5 412 Z "/>
    <path fill="#ffffff" d="M 203.5 413 L 216 413.5 L 203.5 414 L 203.5 413 Z "/>
    <path fill="#ffffff" d="M 288.5 413 L 302 413.5 L 288.5 414 L 288.5 413 Z "/>
    <path fill="#ffffff" d="M 227.5 414 L 229 414.5 L 229 434.5 L 228 434.5 L 228 415.5 L 227.5 414 Z "/>
    <path fill="#ffffff" d="M 284.5 414 L 285 430.5 L 284 430.5 L 284.5 414 Z "/>
    <path fill="#ffffff" d="M 383.5 416 L 380.5 420 L 378.5 421 L 379.5 419 L 383.5 416 Z "/>
    <path fill="#ffffff" d="M 142.5 423 L 148 423.5 L 142.5 424 L 142.5 423 Z "/>
    <path fill="#ffffff" d="M 365.5 423 L 370 423.5 L 365.5 424 L 365.5 423 Z "/>
    <path fill="#ffffff" d="M 283.5 434 L 284 444.5 L 283 444.5 L 283.5 434 Z "/>
    <path fill="#ffffff" d="M 229.5 443 L 230 452.5 L 229 452.5 L 229.5 443 Z "/>
    <path fill="#ffffff" d="M 282.5 448 L 283 455.5 L 282 455.5 L 282.5 448 Z "/>
    <path fill="#ffffff" d="M 230.5 454 L 231 459.5 L 230 459.5 L 230.5 454 Z "/>
    <path fill="#ffffff" d="M 232.5 464 L 238.5 471 L 243 473.5 L 241.5 473 Q 234.6 471.4 232 465.5 L 232.5 464 Z "/>
    <path fill="#ffffff" d="M 248.5 475 L 254 475.5 L 248.5 476 L 248.5 475 Z "/>
    <path fill="#ffffff" d="M 259.5 475 L 264 475.5 L 259.5 476 L 259.5 475 Z "/>
    <path fill="#4da3ff" d="M 156.5 97 L 159 97.5 L 154 115.5 L 153 124.5 L 151 128.5 L 151 130.5 L 151 135.5 L 147 154.5 L 147 161.5 L 146 162.5 L 145 189.5 L 146 192.5 Q 145.4 197.1 148 198.5 L 140.5 199 Q 137.2 196.3 130.5 197 L 129 195.5 L 130 178.5 L 132 170.5 L 132 168.5 L 134 144.5 L 141 104 L 156.5 97 Z "/>
    <path fill="#4da3ff" d="M 352 97 L 357.5 98 L 369 104 L 372 119.5 L 372 121.5 L 372 128.5 L 375 145.5 L 374 147.5 L 375 148.5 L 375 156.5 L 377 166.5 L 379 195.5 L 370.5 199 L 363 199 L 365 193.5 Q 363.6 184.6 366 179.5 L 365 178.5 L 365 167.5 L 364 166.5 L 363 149.5 L 359 132.5 L 360 131.5 L 358 127.5 L 357 117.5 L 352 97 Z "/>
    <path fill="#4da3ff" d="M 244.5 177 L 289.5 178 L 296 181.5 L 299 188.5 L 300 202 L 295.5 203 L 217.5 203 L 215.5 203 L 210 202 L 211 185.5 L 215.5 179 L 219.5 178 L 221.5 178 L 243.5 178 L 244.5 177 Z "/>
    <path fill="#4da3ff" d="M 129.5 232 L 144.5 235 L 148.5 237 L 152.5 237 L 159.5 240 L 176.5 242 L 182.5 244 L 190.5 244 L 191.5 245 L 218.5 248 L 220.5 247 L 221.5 248 L 233.5 248 L 234.5 249 L 272.5 249 L 273.5 248 L 288.5 248 L 289.5 247 L 292.5 248 L 293.5 247 L 305.5 247 L 327.5 243 L 329.5 243 L 355.5 239 L 379.5 232 L 380 245.5 L 381 246.5 L 380 249.5 Q 382.8 251.3 381 257.5 Q 378.8 258.8 380 263.5 L 380 265.5 L 379 303.5 L 378 304.5 L 377 321.5 L 373 342.5 L 373 348.5 L 365 377.5 L 358.5 386 Q 356.3 385.3 357 387.5 L 347.5 395 Q 340 395.5 335.5 399 L 330.5 399 L 318.5 402 L 310.5 402 L 309.5 403 L 293.5 403 L 292.5 404 L 285 404 L 284 386.5 L 301 370.5 L 302 361.5 L 299 351.5 L 291 339.5 L 290 325.5 L 288 320.5 L 288 313.5 L 287 312.5 L 287 306.5 L 285 300.5 L 282 278.5 Q 280.2 268.8 274.5 263 L 270.5 260 L 259.5 258 L 256.5 259 L 245.5 259 L 236 265.5 L 233 270.5 L 230 281.5 L 229 292.5 L 227 297.5 L 226 311.5 L 224 318.5 L 224 324.5 L 223 325.5 L 222 339.5 Q 212 349 210 366.5 L 214.5 374 L 218 376.5 Q 217.3 378.8 219.5 378 L 228 385.5 L 228 402.5 L 226.5 405 L 224.5 404 L 220.5 405 L 219.5 404 L 188.5 402 L 176.5 399 L 160.5 392 L 152 383.5 L 145 371.5 L 138 347.5 L 136 330.5 L 134 325.5 L 131 294.5 L 130 293.5 L 130 285.5 L 129 284.5 L 128 233.5 L 129.5 232 Z M 145 243 L 143 244 L 136 252 Q 135 264 143 268 Q 146 267 145 270 L 151 271 L 153 284 L 156 289 Q 159 295 168 296 L 178 296 L 190 290 Q 196 285 198 277 Q 198 265 191 261 L 176 250 Q 169 249 166 246 L 156 243 L 145 243 Z M 357 243 Q 342 247 331 254 Q 328 253 329 256 L 326 257 Q 319 262 315 271 L 315 279 L 318 285 Q 324 293 335 296 Q 349 298 355 291 L 360 283 L 361 271 L 371 267 Q 376 264 377 257 L 374 248 Q 370 241 357 243 Z "/>
    <path fill="#4da3ff" d="M 391.5 293 L 396 298.5 L 397 308.5 L 399 312.5 L 399 314.5 L 399 347.5 L 396 359.5 L 393.5 362 Q 389 365.2 382 365 L 381 358.5 L 385 344.5 L 388 314.5 L 390 306.5 L 390 295.5 L 391.5 293 Z "/>
    <path fill="#4da3ff" d="M 118.5 296 L 120 297.5 L 124 332.5 L 126 337.5 L 126 343.5 L 130 356.5 L 131 365.5 L 130 365.5 L 129.5 364 L 125.5 365 Q 119 363.5 116 358.5 L 114 351.5 L 114 349.5 L 113 323.5 L 114 322.5 L 115 305.5 L 118.5 296 Z "/>
    <path fill="#4da3ff" d="M 248.5 337 L 266.5 337 L 281 345.5 Q 280.3 347.8 282.5 347 L 289 356.5 L 291 364.5 Q 284.7 373.7 274.5 379 L 265.5 383 L 253.5 384 L 244.5 382 L 233 376 L 232.5 374 L 231 374.5 Q 231.8 372.3 229.5 373 L 222 365.5 L 222 361.5 Q 225.1 351.1 232.5 345 L 235.5 343 L 248.5 337 Z "/>
    <path fill="#ffd43b" d="M 230.5 46 L 289.5 46 L 290.5 47 L 301.5 47 L 302.5 48 L 323.5 50 L 338.5 53 L 346.5 56 L 356.5 62 L 362 67.5 L 370 80.5 L 372 87.5 L 372 94.5 L 370.5 94 L 349.5 85 L 328.5 81 L 320.5 81 L 319.5 80 L 307.5 80 L 306.5 79 L 203.5 79 L 202.5 80 L 181.5 81 L 161.5 85 L 140 94 L 139 91.5 Q 142.7 72.2 155.5 62 Q 164.6 55.6 177.5 53 L 200.5 49 L 229.5 47 L 230.5 46 Z "/>
    <path fill="#ffd43b" d="M 127 200 L 142.5 201 L 143.5 202 L 153.5 202 L 163.5 207 L 188.5 210 L 189.5 211 L 230.5 212 L 231.5 213 L 275.5 213 L 276.5 212 L 302.5 212 L 303.5 211 L 320.5 211 L 329.5 209 L 337.5 209 L 353.5 205 L 357.5 202 L 366.5 202 L 367.5 201 L 381 200 L 382 219.5 L 379.5 222 L 366.5 225 L 363.5 227 L 322.5 235 L 314.5 235 L 313.5 236 L 297.5 237 L 296.5 238 L 280.5 238 L 279.5 239 L 230.5 239 L 229.5 238 L 213.5 238 L 212.5 237 L 202.5 237 L 195.5 235 L 180.5 234 L 175.5 232 L 165.5 231 L 148.5 227 L 128.5 221 L 126 218.5 L 127 200 Z "/>
    <path fill="#ffd43b" d="M 147.5 252 L 152.5 252 L 160 254 L 154.5 263 L 147 260 L 146 253.5 L 147.5 252 Z "/>
    <path fill="#ffd43b" d="M 360.5 252 Q 366 251 367 254.5 Q 367.8 259.3 364.5 260 L 357.5 262 L 353 256.5 L 353 254 L 360.5 252 Z "/>
    <path fill="#ffd43b" d="M 167.5 260 L 177.5 265 L 179 264.5 Q 176.3 266.2 180.5 268 L 182.5 267 L 182 268.5 L 184 271.5 L 182 271.5 L 183 273.5 L 182 277 Q 184.7 275.9 184 278.5 Q 179.7 280.7 181.5 283 L 177.5 282 L 172.5 283 L 172.5 281 L 168 281.5 L 168.5 283 L 167 283 L 167 281 Q 164.3 282.1 165 279.5 L 163 279.5 L 162 276.5 L 164 276.5 Q 162.8 271.3 165.5 270 L 168 268.5 L 167.5 266 L 165 267.5 L 168 261.5 L 165 262.5 L 167.5 260 Z "/>
    <path fill="#ffd43b" d="M 340.5 263 L 344.5 265 L 346 264.5 L 345 267 Q 348 265.8 347 269.5 L 349 272.5 Q 347.7 277.3 350 278.5 L 345.5 282 L 341.5 281 Q 340.8 283.8 336.5 283 L 332.5 282 L 331 282.5 L 332 281.5 L 328 277.5 L 332 270.5 L 331 268.5 L 331.5 266 L 333.5 267 L 340.5 263 Z "/>
    <path fill="#ffd43b" d="M 249.5 268 Q 259.8 266.7 266.5 269 L 271 273.5 L 275 291.5 L 280 332 L 262.5 327 L 250.5 327 L 232 332 L 233 329.5 L 233 320.5 L 235 314.5 L 239 284.5 L 242 273.5 L 245.5 269 L 249.5 268 Z "/>
    <path fill="#51cf66" d="M 128.5 199 L 142 200.5 L 135.5 201 Q 134 198.5 128.5 200 L 128.5 199 Z "/>
    <path fill="#51cf66" d="M 374.5 199 L 381 199.5 L 369.5 201 L 369.5 200 L 374.5 199 Z "/>
    <path fill="#51cf66" d="M 143.5 201 L 151 201.5 L 143.5 202 L 143.5 201 Z "/>
    <path fill="#66d9e8" d="M 157.5 95 Q 162.3 93.3 161 97.5 L 156 114.5 L 149 152.5 L 148 169.5 L 147 170.5 L 147 190.5 L 150 201 L 129.5 199 L 127 196.5 L 133 139.5 L 135 133.5 L 137 113.5 Q 139.6 110.6 139 104.5 L 140.5 103 L 157.5 95 Z M 157 97 L 141 104 L 134 145 L 132 169 L 132 171 L 130 179 L 129 196 L 131 197 Q 137 196 141 199 L 148 199 Q 145 197 146 193 L 145 190 L 146 163 L 147 162 L 147 155 L 151 136 L 151 131 L 151 129 L 153 125 L 154 116 L 159 98 L 157 97 Z "/>
    <path fill="#66d9e8" d="M 350 95 L 357.5 96 L 371 104.5 L 374 121.5 L 375 139.5 L 377 147.5 L 378 169.5 L 379 170.5 L 379 180.5 L 380 181.5 L 380 197.5 L 378.5 199 L 368.5 201 L 361.5 201 Q 358.8 199.8 361 198.5 L 364 188.5 L 364 176.5 L 363 175.5 L 363 165.5 L 362 164.5 L 362 156.5 L 361 155.5 L 359 137.5 L 357 132.5 L 356 121.5 L 353 112.5 L 350 95 Z M 352 97 L 357 118 L 358 128 L 360 132 L 359 133 L 363 150 L 364 167 L 365 168 L 365 179 L 366 180 Q 364 185 365 194 L 363 199 L 371 199 L 379 196 L 377 167 L 375 157 L 375 149 L 374 148 L 375 146 L 372 129 L 372 122 L 372 120 L 369 104 L 358 98 L 352 97 Z "/>
    <path fill="#66d9e8" d="M 221.5 176 L 223.5 176 L 287.5 176 L 294.5 178 L 298 181.5 L 301 189.5 L 302 202.5 L 300.5 204 L 289.5 204 L 288.5 205 L 222.5 205 L 221.5 204 L 209 204 L 209 186.5 L 213.5 178 L 221.5 176 Z M 245 177 L 244 178 L 222 178 L 220 178 L 216 179 L 211 186 L 210 202 L 216 203 L 218 203 L 296 203 L 300 202 L 299 189 L 296 182 L 290 178 L 245 177 Z "/>
    <path fill="#66d9e8" d="M 126 229 L 155.5 236 L 159.5 238 L 170.5 239 L 188.5 243 L 203.5 244 L 204.5 245 L 232.5 246 L 233.5 247 L 274.5 247 L 275.5 246 L 305.5 245 L 306.5 244 L 334.5 241 L 340.5 239 L 351.5 238 L 355.5 236 L 363.5 235 L 382 230 L 382 286.5 L 381 287.5 L 381 299.5 L 380 300.5 L 378 327.5 L 376 334.5 L 374 352.5 L 369 367.5 L 368 374.5 L 361 387 Q 358.3 385.9 359 388.5 L 352.5 394 L 334.5 401 L 329.5 401 L 317.5 404 L 284.5 406 L 283 404.5 L 283 387.5 L 282 386.5 L 285.5 382 L 299 370.5 L 301 364.5 Q 298.3 349.2 289 340.5 L 288 325.5 L 286 319.5 L 285 305.5 L 280 277.5 Q 278.2 267.8 271.5 263 L 261.5 260 L 250.5 260 Q 249.3 262.3 244.5 261 L 238 265.5 L 232 279.5 L 232 285.5 L 228 303.5 L 227 317.5 L 225 323.5 L 224 339.5 L 215 353.5 L 212 361.5 L 212 367.5 L 222.5 379 L 230 385.5 L 230 398.5 L 229 399.5 L 229 406 L 199.5 405 L 176.5 401 L 160.5 394 L 150 383.5 L 144 373.5 L 139 357.5 L 132 324.5 L 129 292.5 L 128 291.5 L 128 278.5 L 127 277.5 L 126 229 Z M 130 232 L 128 234 L 129 285 L 130 286 L 130 294 L 131 295 L 134 326 L 136 331 L 138 348 L 145 372 L 152 384 L 161 392 L 177 399 L 189 402 L 220 404 L 221 405 L 225 404 L 227 405 L 228 403 L 228 386 L 220 378 Q 217 379 218 377 L 215 374 L 210 367 Q 212 349 222 340 L 223 326 L 224 325 L 224 319 L 226 312 L 227 298 L 229 293 L 230 282 L 233 271 L 236 266 L 246 259 L 257 259 L 260 258 L 271 260 L 275 263 Q 280 269 282 279 L 285 301 L 287 307 L 287 313 L 288 314 L 288 321 L 290 326 L 291 340 L 299 352 L 302 362 L 301 371 L 284 387 L 285 404 L 293 404 L 294 403 L 310 403 L 311 402 L 319 402 L 331 399 L 336 399 Q 340 395 348 395 L 357 388 Q 356 385 359 386 L 365 378 L 373 349 L 373 343 L 377 322 L 378 305 L 379 304 L 380 266 L 380 264 Q 379 259 381 258 Q 383 251 380 250 L 381 247 L 380 246 L 380 232 L 356 239 L 330 243 L 328 243 L 306 247 L 294 247 L 293 248 L 290 247 L 289 248 L 274 248 L 273 249 L 235 249 L 234 248 L 222 248 L 221 247 L 219 248 L 192 245 L 191 244 L 183 244 L 177 242 L 160 240 L 153 237 L 149 237 L 145 235 L 130 232 Z "/>
    <path fill="#66d9e8" d="M 144.5 243 L 155.5 243 L 165.5 246 Q 169 249.5 175.5 250 L 191 260.5 Q 197.8 265.2 198 276.5 Q 195.9 285.4 189.5 290 L 177.5 296 L 167.5 296 Q 159.4 294.6 156 288.5 L 153 283.5 L 151 271 L 145 270 Q 146.3 267 142.5 268 Q 135 264 136 251.5 L 142.5 244 L 144.5 243 Z M 146 245 L 143 246 L 138 252 Q 137 260 140 264 Q 145 269 153 270 L 154 281 L 157 288 L 167 294 L 178 294 L 190 288 L 196 278 Q 197 269 193 266 L 187 259 L 173 251 L 157 245 L 146 245 Z "/>
    <path fill="#66d9e8" d="M 356.5 243 Q 369.8 240.8 374 247.5 L 377 256.5 Q 375.9 263.9 370.5 267 L 361 271 L 360 282.5 L 354.5 291 Q 349 298 334.5 296 Q 323.9 292.6 318 284.5 L 315 278.5 L 315 270.5 Q 318.6 262.1 325.5 257 L 329 256 Q 327.9 253.3 330.5 254 Q 342 247 356.5 243 Z M 356 245 Q 335 251 322 262 L 318 268 L 316 274 L 317 279 L 321 286 L 328 291 L 340 295 Q 346 295 351 292 Q 360 287 359 272 L 371 265 L 375 259 L 374 251 Q 370 242 356 245 Z "/>
    <path fill="#66d9e8" d="M 389 290 L 395 293.5 L 400 307.5 L 400 316.5 L 401 317.5 L 401 345.5 L 398 359.5 L 393.5 364 Q 387.7 368.1 378 367 L 384 338.5 L 389 290 Z M 392 293 L 390 296 L 390 307 L 388 315 L 385 345 L 381 359 L 382 365 Q 389 365 394 362 L 396 360 L 399 348 L 399 315 L 399 313 L 397 309 L 396 299 L 392 293 Z "/>
    <path fill="#66d9e8" d="M 119.5 292 Q 122.1 291.2 121 294.5 L 122 295.5 L 123 314.5 L 129 345.5 L 129 350.5 L 131 353.5 L 134 365.5 Q 132.5 368.5 126.5 367 L 118.5 364 L 115 360.5 L 112 349.5 L 112 311.5 L 115 298.5 L 119.5 292 Z M 119 296 L 115 306 L 114 323 L 113 324 L 114 350 L 114 352 L 116 359 Q 119 363 126 365 L 130 364 L 130 366 L 131 366 L 130 357 L 126 344 L 126 338 L 124 333 L 120 298 L 119 296 Z "/>
    <path fill="#66d9e8" d="M 248.5 335 Q 260.6 333.4 268.5 336 Q 280.1 340.4 287 349.5 L 292 359.5 L 293 364.5 L 282.5 376 Q 272.7 384.7 255.5 386 L 244.5 384 L 226 373 L 220 365.5 L 220 361.5 Q 224 349 233.5 342 L 248.5 335 Z M 249 337 L 236 343 L 233 345 Q 225 351 222 362 L 222 366 L 230 373 Q 232 372 231 375 L 233 374 L 233 376 L 245 382 L 254 384 L 266 383 L 275 379 Q 285 374 291 365 L 289 357 L 283 347 Q 280 348 281 346 L 267 337 L 249 337 Z "/>
  </g>
  <g id="line">
    <path fill="#1a1a1a" d="M 233.5 38 L 288.5 38 L 289.5 39 L 300.5 39 L 301.5 40 L 324.5 42 L 347.5 48 Q 360.9 53.1 369 63.5 L 378 79.5 L 381 91.5 L 381 97.5 Q 377.7 101.2 379 109.5 L 381 116.5 L 383 142.5 L 385 150.5 L 387 184.5 L 388 185.5 L 388 198.5 L 389 199.5 L 390 275.5 L 389 278.5 L 390 281 Q 397.3 282.4 401 288.5 L 405 295.5 L 408 308.5 L 409 342.5 L 408 343.5 L 408 352.5 L 406 361.5 L 400.5 369 L 391 373 L 388 406.5 Q 386.2 414.7 380.5 419 L 375.5 422 L 364.5 423 L 356.5 421 L 352 418 L 348 410.5 L 348 407.5 L 345.5 405 L 341.5 407 L 323.5 411 L 303.5 412 L 302.5 413 L 288.5 413 L 284 414 L 282 459.5 Q 280.2 467.2 274.5 471 L 265.5 475 L 254.5 476 L 243.5 474 L 233 465.5 L 231 460.5 L 230 443.5 L 229 442.5 L 229 414 L 185.5 411 L 166.5 405 L 163 414.5 L 156.5 421 L 148.5 423 L 141.5 423 L 134.5 421 L 128 414.5 L 124 402.5 L 123 387.5 L 122 386.5 L 122 374.5 L 120.5 373 Q 112.2 370.9 108 364.5 L 105 355.5 L 105 347.5 L 104 346.5 L 104 315.5 L 105 314.5 L 106 301.5 L 109 292.5 L 115.5 284 L 120 280.5 L 119 275.5 L 119 251.5 L 118 250.5 L 118 222.5 L 119 221.5 L 119 195.5 L 120 194.5 L 121 173.5 L 122 172.5 L 122 163.5 L 123 162.5 L 126 133.5 L 131 109.5 L 131 91.5 L 133 82.5 L 139 68.5 L 151.5 55 L 162.5 49 L 178.5 45 L 193.5 42 L 209.5 41 L 217.5 39 L 232.5 39 L 233.5 38 Z M 231 46 L 230 47 L 201 49 L 178 53 Q 165 56 156 62 Q 147 68 143 79 L 139 94 L 162 85 L 182 81 L 203 80 L 204 79 L 307 79 L 308 80 L 320 80 L 321 81 L 329 81 L 350 85 L 371 94 L 372 95 L 372 88 L 370 81 L 362 68 L 357 62 L 347 56 L 339 53 L 324 50 L 303 48 L 302 47 L 291 47 L 290 46 L 231 46 Z M 246 86 L 245 87 L 206 87 L 205 88 L 193 88 L 192 89 L 176 90 L 170 92 L 164 115 L 162 130 L 160 134 L 159 147 L 156 160 L 156 169 L 155 170 L 155 192 L 156 194 L 160 197 L 169 200 L 180 201 L 181 202 L 200 203 L 201 202 L 202 184 L 205 176 L 213 170 L 227 169 L 228 168 L 287 168 L 299 171 Q 305 175 307 183 L 309 191 L 309 202 L 311 203 L 338 201 L 351 197 L 355 193 L 356 189 L 355 165 L 352 150 L 352 143 L 341 94 L 336 90 L 320 89 L 319 88 L 274 87 L 273 86 L 246 86 Z M 158 95 L 141 103 L 139 105 L 136 120 L 135 134 L 133 140 L 133 147 L 130 162 L 128 191 L 127 192 Q 126 196 128 198 L 127 200 L 126 219 L 129 221 L 149 227 L 166 231 L 176 232 L 181 234 L 196 235 L 203 237 L 213 237 L 214 238 L 230 238 L 231 239 L 280 239 L 281 238 L 297 238 L 298 237 L 314 236 L 315 235 L 323 235 L 364 227 L 367 225 L 380 222 L 382 220 L 377 148 L 375 140 L 374 122 L 371 105 L 358 96 L 350 95 L 353 113 L 356 122 L 357 133 L 359 138 L 361 156 L 362 157 L 362 165 L 363 166 L 363 176 L 364 177 L 364 189 L 360 201 L 354 205 L 338 209 L 330 209 L 321 211 L 304 211 L 303 212 L 277 212 L 276 213 L 232 213 L 231 212 L 190 211 L 189 210 L 164 207 L 153 202 L 149 198 L 147 191 L 147 171 L 148 170 L 149 153 L 156 115 L 161 98 Q 162 93 158 95 Z M 222 176 L 214 178 L 209 187 L 209 204 L 222 204 L 223 205 L 289 205 L 290 204 L 301 204 L 302 203 L 301 190 L 298 182 L 295 178 L 288 176 L 224 176 L 222 176 Z M 126 229 L 127 278 L 128 279 L 128 292 L 129 293 L 132 325 L 139 358 L 144 374 L 150 384 L 161 394 L 177 401 L 200 405 L 229 406 L 229 400 L 230 399 L 230 386 L 223 379 L 212 368 L 212 362 L 215 354 L 224 340 L 225 324 L 227 318 L 228 304 L 232 286 L 232 280 L 238 266 L 245 261 Q 249 262 251 260 L 262 260 L 272 263 Q 278 268 280 278 L 285 306 L 286 320 L 288 326 L 289 341 Q 298 349 301 365 L 299 371 L 286 382 L 282 387 L 283 388 L 283 405 L 285 406 L 318 404 L 330 401 L 335 401 L 353 394 L 359 389 Q 358 386 361 387 L 368 375 L 369 368 L 374 353 L 376 335 L 378 328 L 380 301 L 381 300 L 381 288 L 382 287 L 382 230 L 364 235 L 356 236 L 352 238 L 341 239 L 335 241 L 307 244 L 306 245 L 276 246 L 275 247 L 234 247 L 233 246 L 205 245 L 204 244 L 189 243 L 171 239 L 160 238 L 156 236 L 126 229 Z M 250 268 L 246 269 L 242 274 L 239 285 L 235 315 L 233 321 L 233 330 L 232 332 L 251 327 L 263 327 L 280 332 L 275 292 L 271 274 L 267 269 Q 260 267 250 268 Z M 389 290 L 384 339 L 378 367 Q 388 368 394 364 L 398 360 L 401 346 L 401 318 L 400 317 L 400 308 L 395 294 L 389 290 Z M 120 292 L 115 299 L 112 312 L 112 350 L 115 361 L 119 364 L 127 367 Q 132 368 134 366 L 131 354 L 129 351 L 129 346 L 123 315 L 122 296 L 121 295 Q 122 291 120 292 Z M 249 335 L 234 342 Q 224 349 220 362 L 220 366 L 226 373 L 245 384 L 256 386 Q 273 385 283 376 L 293 365 L 292 360 L 287 350 Q 280 340 269 336 Q 261 333 249 335 Z "/>
    <path fill="#1a1a1a" d="M 145.5 245 L 156.5 245 L 172.5 251 L 186.5 259 L 193 265.5 Q 197 269 196 277.5 L 189.5 288 L 177.5 294 L 166.5 294 L 157 287.5 L 154 280.5 L 153 270 Q 145 268.6 140 263.5 Q 136.7 259.8 138 251.5 L 142.5 246 L 145.5 245 Z M 148 252 L 146 254 L 147 260 L 155 263 L 160 254 L 153 252 L 148 252 Z M 169 258 Q 163 262 161 270 Q 160 278 163 283 L 170 287 L 175 287 L 182 284 L 188 278 L 188 272 Q 181 262 169 258 Z "/>
    <path fill="#1a1a1a" d="M 355.5 245 Q 370.3 242.3 374 250.5 L 375 258.5 L 370.5 265 L 359 271.5 Q 359.9 286.9 350.5 292 Q 346.5 295 339.5 295 L 327.5 291 L 321 285.5 L 317 278.5 L 316 273.5 L 318 267.5 L 322 262 Q 335.5 251.1 355.5 245 Z M 361 252 L 353 254 L 353 257 L 358 262 L 365 260 Q 368 259 367 255 Q 366 251 361 252 Z M 344 258 L 331 266 L 328 268 L 324 274 L 326 280 Q 330 285 338 287 Q 345 288 348 285 L 352 276 Q 352 265 347 261 L 344 258 Z "/>
  </g>
</svg>
