<svg xmlns="http://www.w3.org/2000/svg" width="512" height="512" viewBox="0 0 512 512">
  <g id="color">
    <path fill="#ffffff" d="M 245.5 36 L 268 36.5 L 245.5 37 L 245.5 36 Z "/>
    <path fill="#ffffff" d="M 228.5 39 L 231 39.5 L 225.5 41 L 225.5 40 L 228.5 39 Z "/>
    <path fill="#ffffff" d="M 282.5 39 L 288 40.5 L 285.5 41 L 282.5 40 L 282.5 39 Z "/>
    <path fill="#ffffff" d="M 294.5 43 L 298 44.5 L 296.5 45 L 294.5 43 Z "/>
    <path fill="#ffffff" d="M 305.5 48 L 309 50.5 L 307.5 50 L 305.5 48 Z "/>
    <path fill="#ffffff" d="M 178.5 75 L 178 76.5 L 175.5 80 L 177 77.5 L 178.5 75 Z "/>
    <path fill="#ffffff" d="M 335.5 77 L 338 80.5 L 336 79.5 L 335.5 77 Z "/>
    <path fill="#ffffff" d="M 338.5 82 L 341 85.5 L 339 84.5 L 338.5 82 Z "/>
    <path fill="#ffffff" d="M 173.5 83 L 173 84.5 L 171.5 87 L 172 85.5 L 173.5 83 Z "/>
    <path fill="#ffffff" d="M 169.5 90 L 170 91.5 L 167.5 96 L 167 94.5 L 169.5 90 Z "/>
    <path fill="#ffffff" d="M 344.5 93 L 347 98.5 L 346 98.5 L 344.5 93 Z "/>
    <path fill="#ffffff" d="M 164.5 102 L 165 103.5 L 163.5 106 L 163 104.5 L 164.5 102 Z "/>
    <path fill="#ffffff" d="M 160.5 113 L 161 115.5 L 159.5 119 L 159 116.5 L 160.5 113 Z "/>
    <path fill="#ffffff" d="M 362.5 153 L 364 158.5 L 363 158.5 L 362.5 153 Z "/>
    <path fill="#ffffff" d="M 367.5 169 L 369 172.5 L 368 172.5 L 367.5 169 Z "/>
    <path fill="#ffffff" d="M 142.5 176 L 143 177.5 L 141.5 180 L 141 178.5 L 142.5 176 Z "/>
    <path fill="#ffffff" d="M 371.5 179 L 373 182.5 L 372 182.5 L 371.5 179 Z "/>
    <path fill="#ffffff" d="M 375.5 188 L 378 191.5 L 376 190.5 L 375.5 188 Z "/>
    <path fill="#ffffff" d="M 134.5 193 L 134 194.5 L 132.5 197 L 133 195.5 L 134.5 193 Z "/>
    <path fill="#ffffff" d="M 380.5 197 L 383 200.5 L 381 199.5 L 380.5 197 Z "/>
    <path fill="#ffffff" d="M 125.5 208 L 125 209.5 L 123.5 212 L 124 210.5 L 125.5 208 Z "/>
    <path fill="#ffffff" d="M 388.5 210 L 391 213.5 L 389 212.5 L 388.5 210 Z "/>
    <path fill="#ffffff" d="M 112.5 229 L 112 230.5 L 110.5 233 L 111 231.5 L 112.5 229 Z "/>
    <path fill="#ffffff" d="M 107.5 238 L 107 239.5 L 105.5 243 L 105 241.5 L 107.5 238 Z "/>
    <path fill="#ffffff" d="M 410.5 248 L 413 253.5 L 412 253.5 L 410.5 248 Z "/>
    <path fill="#ffffff" d="M 98.5 257 L 99 258.5 L 97.5 261 L 97 259.5 L 98.5 257 Z "/>
    <path fill="#ffffff" d="M 415.5 260 L 417 263.5 L 416 263.5 L 415.5 260 Z "/>
    <path fill="#ffffff" d="M 94.5 268 L 95 269.5 L 93.5 273 L 93 270.5 L 94.5 268 Z "/>
    <path fill="#ffffff" d="M 419.5 272 L 421 276.5 L 420 276.5 L 419.5 272 Z "/>
    <path fill="#ffffff" d="M 86.5 302 L 87 306.5 L 86 306.5 L 86.5 302 Z "/>
    <path fill="#ffffff" d="M 426.5 303 L 427 307.5 L 426 307.5 L 426.5 303 Z "/>
    <path fill="#ffffff" d="M 85.5 311 L 86 338.5 L 85 338.5 L 85.5 311 Z "/>
    <path fill="#ffffff" d="M 427.5 315 L 428 335.5 L 427 335.5 L 427.5 315 Z "/>
    <path fill="#ffffff" d="M 86.5 343 L 87 347.5 L 86 347.5 L 86.5 343 Z "/>
    <path fill="#ffffff" d="M 425.5 349 L 426 353.5 L 425 353.5 L 425.5 349 Z "/>
    <path fill="#ffffff" d="M 420.5 371 L 421 373.5 L 419.5 376 L 419 374.5 L 420.5 371 Z "/>
    <path fill="#ffffff" d="M 96.5 383 L 100 390.5 L 99 390.5 L 96.5 383 Z "/>
    <path fill="#ffffff" d="M 413.5 389 L 414 390.5 L 410.5 396 L 411 394.5 L 413.5 389 Z "/>
    <path fill="#ffffff" d="M 102.5 396 L 105 399.5 L 103 398.5 L 102.5 396 Z "/>
    <path fill="#ffffff" d="M 408.5 399 L 408 400.5 L 406.5 403 L 407 401.5 L 408.5 399 Z "/>
    <path fill="#ffffff" d="M 382.5 431 L 376.5 438 L 372.5 441 L 375.5 437 L 382.5 431 Z "/>
    <path fill="#ffffff" d="M 146.5 444 L 151 447.5 L 149.5 447 L 146.5 444 Z "/>
    <path fill="#ffffff" d="M 366.5 444 L 364.5 447 L 362.5 448 L 363.5 446 L 366.5 444 Z "/>
    <path fill="#ffffff" d="M 162.5 454 L 167 456.5 L 165.5 457 L 162.5 454 Z "/>
    <path fill="#ffffff" d="M 350.5 454 L 349.5 456 L 346.5 457 L 346.5 456 L 350.5 454 Z "/>
    <path fill="#ffffff" d="M 333.5 462 L 335 462.5 L 331.5 464 L 331.5 463 L 333.5 462 Z "/>
    <path fill="#ffffff" d="M 192.5 467 L 197 468.5 L 194.5 469 L 192.5 467 Z "/>
    <path fill="#ffffff" d="M 280.5 475 L 285 475.5 L 280.5 476 L 280.5 475 Z "/>
    <path fill="#ffffff" d="M 237.5 476 L 245 476.5 L 237.5 477 L 237.5 476 Z "/>
    <path fill="#ffffff" d="M 268.5 476 L 277 476.5 L 268.5 477 L 268.5 476 Z "/>
    <path fill="#ffffff" d="M 249.5 477 L 265 477.5 L 249.5 478 L 249.5 477 Z "/>
    <path fill="#ffd43b" d="M 235.5 242 L 237 242.5 L 232.5 244 L 232.5 243 L 235.5 242 Z "/>
    <path fill="#ffd43b" d="M 196.5 342 L 200 347.5 L 198 346.5 L 196.5 342 Z "/>
    <path fill="#ffd43b" d="M 249.5 380 L 254 380.5 L 249.5 381 L 249.5 380 Z "/>
    <path fill="#ffd43b" d="M 261.5 380 L 266 380.5 L 261.5 381 L 261.5 380 Z "/>
    <path fill="#ff6b6b" d="M 206.5 141 L 211 142 L 212 144.5 L 209 145.5 L 208 148.5 L 209 150.5 L 207.5 154 L 206.5 152 L 206 155.5 L 207 157.5 L 207 159.5 L 206 163.5 L 208 163.5 L 210 168.5 L 209 170.5 L 211 170.5 L 210 172.5 L 214 174.5 L 215 178 L 217.5 177 L 217.5 179 L 222 181.5 L 221 183.5 L 221.5 185 L 219.5 184 L 219.5 186 L 216.5 185 Q 212.1 183.5 213 186.5 L 212 186.5 L 211.5 185 L 207.5 187 L 201 183.5 L 200.5 182 L 199 182.5 Q 201.3 181.3 198.5 180 Q 196.3 180.8 197 178.5 L 195 178.5 Q 195.8 176.3 193.5 177 L 194 175.5 L 193.5 174 L 192 174.5 L 191 170.5 L 192 168.5 L 190 168.5 L 190.5 166 L 192 165.5 L 191 162.5 L 192 157.5 L 191.5 156 L 193 155.5 Q 190.7 154.3 193.5 153 Q 195.8 153.8 195 151.5 Q 200.4 148.8 198.5 146 Q 200 148.5 201.5 145 L 207 142.5 L 206.5 141 Z "/>
    <path fill="#ff6b6b" d="M 286.5 273 L 286.5 275 L 292.5 273 L 292.5 274 L 291 274.5 L 294.5 276 Q 295.7 273.7 297 276.5 L 296 279.5 L 298 284.5 L 294.5 289 L 292.5 289 Q 287.7 287.7 286.5 290 L 285.5 288 Q 283.8 290.7 282 286.5 L 282.5 285 Q 280.3 285.8 281 283.5 Q 283.6 282.1 283 277.5 Q 280.3 275.7 284.5 274 L 286.5 273 Z "/>
    <path fill="#51cf66" d="M 254.5 45 L 270.5 46 L 292.5 52 L 309.5 62 L 323 75.5 Q 333.6 88.4 340 105.5 L 347 127.5 L 348 136.5 L 350 140.5 L 354 159.5 L 364 186.5 L 374 205.5 L 398 243.5 L 409 268.5 L 417 299.5 L 419 328.5 L 418 329.5 L 418 342.5 L 415 359.5 L 405 387.5 Q 393.3 409.8 375.5 426 L 351.5 444 L 336.5 452 L 312.5 461 Q 302.5 461.5 295.5 465 L 283.5 466 L 282.5 467 L 273.5 467 L 272.5 468 L 241.5 468 L 240.5 467 L 231.5 467 L 204.5 462 L 178.5 453 L 153.5 439 Q 138.6 428.9 127 415.5 Q 111.9 399.1 103 376.5 L 96 351.5 L 95 334.5 L 94 333.5 L 94 318.5 L 95 317.5 L 95 306.5 L 96 305.5 L 97 292.5 L 108 257.5 L 119 235.5 Q 136.1 212.6 149 185.5 L 157 165.5 L 168 119.5 L 174 102.5 L 182 86.5 L 198 66 Q 209.7 56.5 225.5 50 L 236.5 47 L 253.5 46 L 254.5 45 Z M 250 61 L 226 67 L 202 82 L 189 100 L 180 119 L 170 155 L 169 164 L 158 194 L 149 209 L 148 213 L 132 238 L 122 259 L 114 285 L 112 296 L 112 304 L 111 305 L 111 334 L 115 356 L 123 377 L 140 402 Q 159 424 188 436 L 214 445 L 235 449 L 244 449 L 245 450 L 280 449 L 308 443 L 338 430 L 361 414 Q 376 401 386 384 L 396 362 L 402 332 L 401 297 L 395 271 L 383 242 L 362 208 L 353 190 L 344 164 L 339 139 L 333 120 Q 327 102 316 89 Q 305 76 290 68 L 270 62 L 250 61 Z "/>
    <path fill="#51cf66" d="M 247.5 64 L 265.5 64 L 276.5 66 L 287.5 70 L 302.5 79 L 313 89.5 Q 322.9 101.1 329 116.5 L 336 138.5 L 343 170.5 L 352 194.5 Q 362.4 216.1 376 234.5 L 389 261.5 L 395 280.5 L 398 295.5 L 399 312.5 L 400 313.5 L 400 324.5 L 399 325.5 L 399 335.5 L 396 351.5 L 390 369.5 L 378 390.5 L 360.5 410 L 340.5 425 L 313.5 438 Q 303.5 439 296.5 443 L 273.5 446 L 272.5 447 L 241.5 447 L 240.5 446 L 233.5 446 L 216.5 443 Q 209.5 439 199.5 438 L 181.5 430 Q 157.8 417.8 141 398.5 Q 130.4 385.6 123 369.5 Q 116 354 114 333.5 L 114 331.5 L 113 311.5 L 114 310.5 L 115 293.5 L 120 272.5 L 133 241.5 L 153 209.5 L 162 191.5 L 171 165.5 L 177 137.5 L 185 113.5 Q 193.9 92.4 210.5 79 L 225.5 70 L 236.5 66 L 247.5 64 Z M 208 138 L 199 142 Q 190 148 187 161 L 187 169 L 191 179 Q 197 188 210 190 Q 222 190 229 184 L 231 179 L 225 178 L 219 175 Q 213 171 210 163 L 211 160 L 210 157 L 211 153 L 211 151 L 220 140 Q 216 136 208 138 Z M 250 230 L 235 233 L 225 237 L 206 250 L 190 270 L 184 283 L 180 299 L 180 320 L 183 334 Q 188 350 198 362 L 210 372 L 211 375 L 214 375 L 217 378 L 231 385 L 252 390 L 271 389 L 290 383 L 302 376 L 317 362 L 318 362 L 318 360 Q 326 352 330 341 L 336 318 L 335 317 L 335 298 L 330 280 L 315 254 L 300 242 L 281 233 L 266 230 L 250 230 Z "/>
    <path fill="#ffa94d" d="M 247.5 239 L 271.5 240 L 289 246 L 289.5 248 Q 291 245.5 292.5 249 L 297 251 Q 295.8 254 299.5 253 L 301 256 L 304 257.5 Q 303.3 259.8 305.5 259 L 315 269.5 L 315 271.5 L 320 278.5 L 326 297.5 L 327 311.5 L 326 315.5 L 326 317.5 L 325 319.5 L 326 322.5 L 321 335.5 L 321 338.5 L 315 350 Q 312.3 348.9 313 351.5 L 307 360 L 298 366 L 298 368 L 295 368 Q 296.3 371 292.5 370 L 290 371 Q 291.3 374 287.5 373 L 281.5 377 L 279.5 377 L 274.5 379 L 259.5 381 L 257.5 381 L 255.5 380 L 253.5 380 Q 247.3 381.7 245.5 379 L 243.5 379 L 231.5 376 Q 230.8 372.3 225.5 373 L 207 358.5 L 205 354 Q 202.3 355.1 203 352.5 L 193 335.5 Q 193.6 330.9 191 329.5 L 191 323.5 L 189 320.5 L 189 318.5 L 189 300.5 L 190 299.5 L 190 297.5 Q 193.9 276.1 205 263 L 208 261.5 Q 207.3 259.3 209.5 260 L 212.5 256 L 215.5 254 L 228.5 245 L 247.5 239 Z M 286 270 L 284 271 L 278 279 Q 277 286 280 289 L 288 294 Q 289 292 294 293 Q 295 289 297 292 L 301 286 Q 302 276 297 273 L 295 271 L 293 271 Q 291 269 286 270 Z "/>
    <path fill="#f783ac" d="M 207.5 141 Q 213.6 139.8 213 142.5 L 207.5 151 L 207 149.5 L 211 142 L 204.5 143 L 195 151.5 Q 195.8 153.8 193.5 153 L 194 151.5 L 197.5 147 Q 199.8 147.8 199 145.5 L 207.5 141 Z "/>
    <path fill="#f783ac" d="M 191.5 157 L 192 161.5 L 191 164.5 L 191.5 166 Q 188.1 166.9 190 161.5 L 191.5 157 Z "/>
    <path fill="#f783ac" d="M 208.5 168 L 213 174.5 L 210 172.5 L 208.5 168 Z "/>
    <path fill="#f783ac" d="M 214.5 175 Q 218.2 179.9 225 181 Q 226.1 183.7 223.5 183 L 218.5 186 L 219.5 184 L 222 182.5 L 220.5 180 L 215 178 L 214.5 175 Z "/>
    <path fill="#f783ac" d="M 196.5 178 L 197 180 L 201 182.5 L 199.5 182 L 196 179.5 L 196.5 178 Z "/>
    <path fill="#f783ac" d="M 213 185 L 217 185.5 L 213.5 187 L 213 185 Z "/>
    <path fill="#f783ac" d="M 287.5 273 Q 294.8 272.8 297 277.5 L 298 283.5 L 296 284.5 L 297 280.5 L 293.5 275 L 288.5 274 L 286.5 275 L 287.5 273 Z "/>
    <path fill="#f783ac" d="M 284.5 275 L 283 277.5 L 281.5 283 L 281 280.5 L 284.5 275 Z "/>
    <path fill="#f783ac" d="M 293.5 288 L 292.5 290 L 287 289.5 L 293.5 288 Z "/>
  </g>
  <g id="line">
    <path fill="#1a1a1a" d="M 242.5 37 L 270.5 37 L 291.5 42 Q 315.4 51.1 330 69.5 Q 340.9 83.6 348 101.5 L 356 127.5 L 362 155.5 L 371 180.5 L 381 199.5 L 404 235.5 L 417 264.5 L 422 280.5 L 426 300.5 Q 424.3 306.8 427 308.5 L 427 341.5 L 426 342.5 L 424 359.5 L 417 382.5 Q 404.7 411.2 383.5 431 Q 359.7 453.7 325.5 466 L 288.5 475 L 268.5 476 L 267.5 477 L 245.5 477 L 244.5 476 L 232.5 476 L 231.5 475 L 217.5 474 L 200.5 470 L 177.5 462 Q 144.5 448 122 423.5 Q 101 401.5 91 368.5 L 86 342.5 L 86 307.5 L 91 279.5 L 100 253.5 L 110 233.5 L 130 202.5 L 143 177.5 L 152 150.5 L 158 122.5 L 166 98.5 Q 176.3 72.3 196.5 56 L 218.5 43 L 242.5 37 Z M 255 45 L 254 46 L 237 47 L 226 50 Q 210 57 198 66 L 182 87 L 174 103 L 168 120 L 157 166 L 149 186 Q 136 213 119 236 L 108 258 L 97 293 L 96 306 L 95 307 L 95 318 L 94 319 L 94 334 L 95 335 L 96 352 L 103 377 Q 112 399 127 416 Q 139 429 154 439 L 179 453 L 205 462 L 232 467 L 241 467 L 242 468 L 273 468 L 274 467 L 283 467 L 284 466 L 296 465 Q 303 462 313 461 L 337 452 L 352 444 L 376 426 Q 393 410 405 388 L 415 360 L 418 343 L 418 330 L 419 329 L 417 300 L 409 269 L 398 244 L 374 206 L 364 187 L 354 160 L 350 141 L 348 137 L 347 128 L 340 106 Q 334 88 323 76 L 310 62 L 293 52 L 271 46 L 255 45 Z "/>
    <path fill="#1a1a1a" d="M 249.5 61 L 269.5 62 L 289.5 68 Q 305.5 75.5 316 88.5 Q 326.9 101.6 333 119.5 L 339 138.5 L 344 163.5 L 353 189.5 L 362 207.5 L 383 241.5 L 395 270.5 L 401 296.5 L 402 331.5 L 396 361.5 L 386 383.5 Q 375.5 401 360.5 414 L 337.5 430 L 307.5 443 L 279.5 449 L 244.5 450 L 243.5 449 L 234.5 449 L 213.5 445 L 187.5 436 Q 158.9 423.6 140 401.5 L 123 376.5 L 115 355.5 L 111 333.5 L 111 304.5 L 112 303.5 L 112 295.5 L 114 284.5 L 122 258.5 L 132 237.5 L 148 212.5 L 149 208.5 L 158 193.5 L 169 163.5 L 170 154.5 L 180 118.5 L 189 99.5 L 202 82 L 225.5 67 L 249.5 61 Z M 248 64 L 237 66 L 226 70 L 211 79 Q 194 92 185 114 L 177 138 L 171 166 L 162 192 L 153 210 L 133 242 L 120 273 L 115 294 L 114 311 L 113 312 L 114 338 L 118 356 Q 126 381 141 399 Q 158 418 182 430 L 200 438 Q 209 439 217 443 L 234 446 L 241 446 L 242 447 L 273 447 L 274 446 L 297 443 Q 304 439 314 438 L 341 425 L 361 410 L 378 391 L 390 370 L 396 352 L 399 336 L 399 326 L 400 325 L 400 314 L 399 313 L 398 296 L 395 281 L 389 262 L 376 235 Q 362 216 352 195 L 343 171 L 336 139 L 329 117 Q 323 101 313 90 L 303 79 L 288 70 L 277 66 L 266 64 L 248 64 Z "/>
    <path fill="#1a1a1a" d="M 207.5 138 Q 216.4 136.1 220 139.5 L 211 150.5 L 210 162.5 Q 212.5 170.5 218.5 175 L 224.5 178 L 231 179 L 228.5 184 Q 222.3 190.3 209.5 190 Q 196.8 187.8 191 178.5 L 187 168.5 L 187 160.5 Q 189.7 148.2 198.5 142 L 207.5 138 Z M 207 141 L 201 144 Q 193 149 190 159 L 190 169 L 193 177 Q 198 184 208 187 L 216 187 L 224 184 L 225 182 L 217 177 Q 209 172 207 163 L 207 155 L 213 143 Q 213 140 207 141 Z "/>
    <path fill="#1a1a1a" d="M 249.5 230 L 272.5 231 L 288.5 236 Q 305 243.5 316 256.5 Q 327.5 269.5 333 288.5 L 335 297.5 L 335 321.5 Q 328.6 355.6 305.5 373 Q 293.3 383.3 275.5 388 L 264.5 390 L 251.5 390 L 236.5 387 L 223.5 382 Q 208.4 374 198 361.5 Q 188.3 349.7 183 333.5 L 180 319.5 L 180 298.5 L 184 282.5 L 190 269.5 L 205.5 250 L 224.5 237 L 234.5 233 L 249.5 230 Z M 248 239 L 233 243 L 216 253 Q 195 269 189 299 L 189 322 L 191 330 Q 196 347 207 359 L 210 360 L 211 363 Q 225 377 250 381 L 266 381 L 276 379 Q 291 374 302 365 L 317 347 L 324 331 L 327 317 L 327 305 L 324 289 L 318 275 L 312 266 Q 301 251 283 243 L 267 239 L 248 239 Z "/>
    <path fill="#1a1a1a" d="M 287.5 270 L 291.5 270 L 297 272 L 300 276.5 L 301 283.5 L 296.5 291 Q 293.6 294.6 285.5 293 L 280 288.5 Q 277 285.5 278 278.5 L 282.5 272 L 287.5 270 Z M 287 273 L 285 274 L 281 280 L 282 287 L 287 290 L 295 289 L 298 285 L 297 277 Q 295 272 287 273 Z "/>
  </g>
</svg>
