<svg xmlns="http://www.w3.org/2000/svg" width="512" height="512" viewBox="0 0 512 512">
  <g id="color">
    <path fill="#ffffff" d="M 223.5 41 L 222.5 43 L 219.5 44 L 219.5 43 L 223.5 41 Z "/>
    <path fill="#ffffff" d="M 269.5 56 L 280 56.5 L 269.5 57 L 269.5 56 Z "/>
    <path fill="#ffffff" d="M 285.5 58 L 289 60.5 L 287.5 60 L 285.5 58 Z "/>
    <path fill="#ffffff" d="M 201.5 62 L 202 69.5 L 201 69.5 L 201.5 62 Z "/>
    <path fill="#ffffff" d="M 202.5 71 L 204 75.5 L 203 75.5 L 202.5 71 Z "/>
    <path fill="#ffffff" d="M 207.5 84 L 208 86.5 L 201.5 90 L 201.5 89 L 207 87 L 207.5 84 Z "/>
    <path fill="#ffffff" d="M 307.5 86 L 310 90.5 L 309 90.5 L 307.5 86 Z "/>
    <path fill="#ffffff" d="M 196.5 91 L 198 91.5 L 194.5 93 L 194.5 92 L 196.5 91 Z "/>
    <path fill="#ffffff" d="M 311.5 94 L 315 100.5 L 314 100.5 L 311.5 94 Z "/>
    <path fill="#ffffff" d="M 184.5 96 L 186 96.5 L 182.5 98 L 182.5 97 L 184.5 96 Z "/>
    <path fill="#ffffff" d="M 174.5 100 L 176 100.5 L 172.5 102 L 172.5 101 L 174.5 100 Z "/>
    <path fill="#ffffff" d="M 163.5 104 L 165 104.5 L 158.5 107 L 158.5 106 L 163.5 104 Z "/>
    <path fill="#ffffff" d="M 151.5 108 L 153 108.5 L 148.5 110 L 148.5 109 L 151.5 108 Z "/>
    <path fill="#ffffff" d="M 137.5 112 L 140 112.5 L 134.5 114 L 134.5 113 L 137.5 112 Z "/>
    <path fill="#ffffff" d="M 88.5 121 L 95 121.5 L 88.5 122 L 88.5 121 Z "/>
    <path fill="#ffffff" d="M 80.5 122 L 87 122.5 L 80.5 123 L 80.5 122 Z "/>
    <path fill="#ffffff" d="M 75.5 124 L 74 126.5 L 72.5 130 L 72 128.5 L 75.5 124 Z "/>
    <path fill="#ffffff" d="M 329.5 131 L 331 134.5 L 330 134.5 L 329.5 131 Z "/>
    <path fill="#ffffff" d="M 142.5 136 Q 149.5 134.5 151 138.5 Q 152 144 148.5 145 L 141 149.5 L 141 158.5 L 145 169.5 L 144 173 Q 136.9 174.7 135 170.5 L 131 157.5 L 131 149.5 Q 134.3 141.8 140.5 137 L 142.5 136 Z "/>
    <path fill="#ffffff" d="M 333.5 143 L 334 152.5 L 333 152.5 L 333.5 143 Z "/>
    <path fill="#ffffff" d="M 72.5 145 L 73 153.5 L 72 153.5 L 72.5 145 Z "/>
    <path fill="#ffffff" d="M 73.5 155 L 74 160.5 L 73 160.5 L 73.5 155 Z "/>
    <path fill="#ffffff" d="M 331.5 157 L 332 158.5 L 328.5 163 L 330 160.5 L 331.5 157 Z "/>
    <path fill="#ffffff" d="M 320.5 180 L 323 185.5 L 322 185.5 L 320.5 180 Z "/>
    <path fill="#ffffff" d="M 146.5 182 L 153 183 L 155 186.5 L 155 193.5 Q 154.3 196.8 149.5 196 L 146 193.5 Q 143.7 190.3 145 183.5 L 146.5 182 Z "/>
    <path fill="#ffffff" d="M 324.5 189 L 326 192.5 L 325 192.5 L 324.5 189 Z "/>
    <path fill="#ffffff" d="M 81.5 194 L 83 198.5 L 82 198.5 L 81.5 194 Z "/>
    <path fill="#ffffff" d="M 328.5 198 L 331 203.5 L 330 203.5 L 328.5 198 Z "/>
    <path fill="#ffffff" d="M 84.5 203 L 86 206.5 L 85 206.5 L 84.5 203 Z "/>
    <path fill="#ffffff" d="M 332.5 207 L 335 212.5 L 334 212.5 L 332.5 207 Z "/>
    <path fill="#ffffff" d="M 261.5 218 L 263 221.5 L 262 221.5 L 261.5 218 Z "/>
    <path fill="#ffffff" d="M 340.5 224 L 343 229.5 L 342 229.5 L 340.5 224 Z "/>
    <path fill="#ffffff" d="M 94.5 225 L 97 228.5 L 95 227.5 L 94.5 225 Z "/>
    <path fill="#ffffff" d="M 265.5 228 L 268 234.5 L 267 234.5 L 265.5 228 Z "/>
    <path fill="#ffffff" d="M 97.5 230 L 100 233.5 L 98 232.5 L 97.5 230 Z "/>
    <path fill="#ffffff" d="M 269.5 239 L 272 245.5 L 271 245.5 L 269.5 239 Z "/>
    <path fill="#ffffff" d="M 104.5 241 L 110 247.5 L 106 244.5 L 104.5 241 Z "/>
    <path fill="#ffffff" d="M 273.5 250 L 276 256.5 L 275 256.5 L 273.5 250 Z "/>
    <path fill="#ffffff" d="M 353.5 251 L 356 256.5 L 355 256.5 L 353.5 251 Z "/>
    <path fill="#ffffff" d="M 357.5 260 L 360 264.5 L 359 264.5 L 357.5 260 Z "/>
    <path fill="#ffffff" d="M 277.5 261 L 279 264.5 L 278 264.5 L 277.5 261 Z "/>
    <path fill="#ffffff" d="M 361.5 268 L 365 274.5 L 364 274.5 L 361.5 268 Z "/>
    <path fill="#ffffff" d="M 282.5 274 L 284 277.5 L 283 277.5 L 282.5 274 Z "/>
    <path fill="#ffffff" d="M 365.5 276 L 369 281.5 L 367 280.5 L 365.5 276 Z "/>
    <path fill="#ffffff" d="M 150.5 284 L 155 287.5 L 153.5 287 L 150.5 284 Z "/>
    <path fill="#ffffff" d="M 183.5 284 L 182 286.5 L 180.5 289 L 181 287.5 L 183.5 284 Z "/>
    <path fill="#ffffff" d="M 287.5 287 L 289 290.5 L 288 290.5 L 287.5 287 Z "/>
    <path fill="#ffffff" d="M 156.5 288 L 160 290.5 L 158.5 290 L 156.5 288 Z "/>
    <path fill="#ffffff" d="M 163.5 292 Q 166.4 296.1 174.5 295 L 178.5 292 L 176.5 295 L 168.5 296 Q 163.9 294.8 163.5 292 Z "/>
    <path fill="#ffffff" d="M 290.5 295 L 292 298.5 L 291 298.5 L 290.5 295 Z "/>
    <path fill="#ffffff" d="M 378.5 301 L 381 304.5 L 379 303.5 L 378.5 301 Z "/>
    <path fill="#ffffff" d="M 295.5 307 L 297 310.5 L 296 310.5 L 295.5 307 Z "/>
    <path fill="#ffffff" d="M 298.5 314 L 300 317.5 L 299 317.5 L 298.5 314 Z "/>
    <path fill="#ffffff" d="M 386.5 316 L 389 319.5 L 387 318.5 L 386.5 316 Z "/>
    <path fill="#ffffff" d="M 302.5 324 L 304 327.5 L 303 327.5 L 302.5 324 Z "/>
    <path fill="#ffffff" d="M 391.5 325 L 394 329.5 L 393 329.5 L 391.5 325 Z "/>
    <path fill="#ffffff" d="M 395.5 333 L 398 336.5 L 396 335.5 L 395.5 333 Z "/>
    <path fill="#ffffff" d="M 308.5 338 L 310 341.5 L 309 341.5 L 308.5 338 Z "/>
    <path fill="#ffffff" d="M 403.5 348 L 406 352.5 L 405 352.5 L 403.5 348 Z "/>
    <path fill="#ffffff" d="M 316.5 357 L 318 360.5 L 317 360.5 L 316.5 357 Z "/>
    <path fill="#ffffff" d="M 408.5 358 L 411 361.5 L 409 360.5 L 408.5 358 Z "/>
    <path fill="#ffffff" d="M 320.5 367 L 322 370.5 L 321 370.5 L 320.5 367 Z "/>
    <path fill="#ffffff" d="M 416.5 373 L 419 377.5 L 417 376.5 L 416.5 373 Z "/>
    <path fill="#ffffff" d="M 324.5 377 L 326 380.5 L 325 380.5 L 324.5 377 Z "/>
    <path fill="#ffffff" d="M 420.5 381 L 423 386.5 L 422 386.5 L 420.5 381 Z "/>
    <path fill="#ffffff" d="M 328.5 387 L 331 393.5 L 330 393.5 L 328.5 387 Z "/>
    <path fill="#ffffff" d="M 332.5 398 L 334 401.5 L 333 401.5 L 332.5 398 Z "/>
    <path fill="#ffffff" d="M 428.5 398 L 430 401.5 L 429 401.5 L 428.5 398 Z "/>
    <path fill="#ffffff" d="M 433.5 410 L 435 413.5 L 434 413.5 L 433.5 410 Z "/>
    <path fill="#ffffff" d="M 341.5 422 L 343 425.5 L 342 425.5 L 341.5 422 Z "/>
    <path fill="#ffffff" d="M 345.5 432 L 348 437.5 L 347 437.5 L 345.5 432 Z "/>
    <path fill="#ffffff" d="M 349.5 441 L 352 445.5 L 350 444.5 L 349.5 441 Z "/>
    <path fill="#ffffff" d="M 439.5 441 L 440 443.5 L 437.5 448 L 438 446.5 L 439.5 441 Z "/>
    <path fill="#ffffff" d="M 352.5 448 L 357 454.5 L 355 453.5 L 352.5 448 Z "/>
    <path fill="#ffffff" d="M 430.5 457 L 425.5 463 L 422.5 465 L 424.5 462 L 430.5 457 Z "/>
    <path fill="#ffffff" d="M 369.5 469 L 374 472.5 L 372.5 472 L 369.5 469 Z "/>
    <path fill="#ffffff" d="M 413.5 469 L 412.5 471 L 409.5 472 L 409.5 471 L 413.5 469 Z "/>
    <path fill="#ffffff" d="M 403.5 473 L 405 473.5 L 400.5 475 L 400.5 474 L 403.5 473 Z "/>
    <path fill="#ffffff" d="M 378.5 474 L 383 475.5 L 380.5 476 L 378.5 474 Z "/>
    <path fill="#ffffff" d="M 386.5 476 L 391 476.5 L 386.5 477 L 386.5 476 Z "/>
    <path fill="#4da3ff" d="M 269.5 69 L 279.5 69 L 289 77.5 L 317 132.5 L 321 142.5 L 321 152.5 L 316.5 158 L 274.5 180 L 250.5 196 Q 225.9 214.4 205 236.5 L 187.5 257 L 182.5 256 L 171 247 L 169.5 244 L 164 239.5 L 162 236.5 L 146 217.5 L 125 179.5 L 116 151.5 L 114 131 L 137.5 126 L 141.5 124 L 145.5 124 L 173.5 114 L 176.5 114 L 207.5 101 L 269.5 69 Z M 143 134 L 137 137 Q 131 141 129 149 L 129 162 L 135 175 L 138 176 Q 145 177 147 173 L 147 166 Q 142 161 143 152 L 151 146 Q 155 144 153 138 Q 151 133 143 134 Z M 148 179 L 142 184 Q 141 192 145 196 L 151 199 L 156 197 L 157 193 L 158 190 L 155 183 L 153 180 L 148 179 Z "/>
    <path fill="#4da3ff" d="M 98.5 133 Q 103 132 104 134.5 L 104 140.5 L 108 159.5 L 121 194.5 L 139 224.5 Q 152 242.5 168.5 257 L 179 264 L 180 267.5 L 169.5 282 Q 142.4 267.6 123 245.5 Q 106.2 226.3 96 200.5 L 87 168.5 L 84 137.5 L 85 135 Q 89.2 133.1 97.5 134 L 98.5 133 Z "/>
    <path fill="#ffa94d" d="M 240.5 47 L 245.5 47 L 250 51.5 L 254 61.5 L 253 64 L 221.5 81 L 219.5 81 L 216 78.5 L 212 65.5 L 215 59 L 232.5 49 L 240.5 47 Z "/>
    <path fill="#ffa94d" d="M 305.5 177 Q 308.8 175.9 308 178.5 L 315 196.5 L 318 200.5 L 319 205.5 L 330 226.5 L 332 233.5 Q 339.7 244.3 344 258.5 L 374 316.5 L 381 327.5 L 382 331.5 L 388 340.5 L 417 398.5 L 427 422.5 L 429 430.5 L 429 441.5 L 421.5 452 L 403.5 463 L 395.5 465 L 382.5 465 Q 373.2 462.3 369 454.5 L 355 428.5 L 331 363.5 L 324 349.5 L 322 341.5 L 316 330.5 L 313 320.5 L 295 278.5 L 293 270.5 L 283 246.5 L 283 243.5 L 278 233.5 L 276 224.5 Q 269.3 214.2 266 200.5 L 289.5 185 L 305.5 177 Z M 302 224 L 298 225 L 297 232 L 293 239 Q 291 251 297 256 Q 301 261 310 262 L 320 259 L 327 250 L 327 238 L 324 233 Q 320 227 313 225 L 302 224 Z "/>
    <path fill="#ffa94d" d="M 309.5 235 L 316 239.5 L 317 246.5 L 312.5 251 L 310.5 251 Q 305.8 250.8 304 247.5 L 303 240.5 L 306.5 236 L 309.5 235 Z "/>
    <path fill="#66d9e8" d="M 270.5 67 L 278.5 67 L 287 72.5 L 295 84.5 L 317 128.5 L 322 140.5 L 323 152.5 L 316.5 160 L 279.5 179 L 254.5 195 Q 229.8 212.8 209 234.5 Q 196.8 246.1 188 260 L 182.5 258 L 162 239.5 Q 139.7 215.3 125 183.5 L 114 150.5 L 112 130.5 L 113.5 129 L 122.5 128 L 146.5 122 L 184.5 109 L 220.5 93 L 254.5 74 L 270.5 67 Z M 270 69 L 208 101 L 177 114 L 174 114 L 146 124 L 142 124 L 138 126 L 114 131 L 116 152 L 125 180 L 146 218 L 162 237 L 164 240 L 170 244 L 171 247 L 183 256 L 188 257 L 205 237 Q 226 214 251 196 L 275 180 L 317 158 L 321 153 L 321 143 L 317 133 L 289 78 L 280 69 L 270 69 Z "/>
    <path fill="#66d9e8" d="M 100.5 131 Q 107.7 128.7 105 136.5 L 112 167.5 L 126 200.5 L 138 220.5 L 151 237.5 L 169.5 256 L 182 265.5 L 182 267.5 L 170.5 284 Q 141 269.5 121 245.5 Q 103.3 225.2 93 197.5 L 93 194.5 L 88 181.5 L 84 160.5 L 83 133 L 99.5 132 L 100.5 131 Z M 99 133 L 98 134 Q 89 133 85 135 L 84 138 L 87 169 L 96 201 Q 106 226 123 246 Q 142 268 170 282 L 180 268 L 179 264 L 169 257 Q 152 242 139 225 L 121 195 L 108 160 L 104 141 L 104 135 Q 103 132 99 133 Z "/>
    <path fill="#66d9e8" d="M 142.5 134 Q 150.8 132.7 153 137.5 Q 154.5 144.5 150.5 146 L 143 151.5 Q 142 161.5 147 165.5 L 147 172.5 Q 145.1 177.1 137.5 176 L 135 175 L 129 161.5 L 129 148.5 Q 130.8 140.8 136.5 137 L 142.5 134 Z M 143 136 L 141 137 Q 134 142 131 150 L 131 158 L 135 171 Q 137 175 144 173 L 145 170 L 141 159 L 141 150 L 149 145 Q 152 144 151 139 Q 150 135 143 136 Z "/>
    <path fill="#66d9e8" d="M 147.5 179 L 152.5 180 L 155 182.5 L 158 189.5 L 157 192.5 L 156 197 L 150.5 199 L 145 195.5 Q 140.7 192.3 142 183.5 L 147.5 179 Z M 147 182 L 145 184 Q 144 190 146 194 L 150 196 Q 154 197 155 194 L 155 187 L 153 183 L 147 182 Z "/>
  </g>
  <g id="line">
    <path fill="#1a1a1a" d="M 240.5 36 Q 251.5 35.5 256 41.5 L 264 55.5 L 264 58 Q 269.9 55.6 281.5 57 Q 292.2 60.8 298 69.5 L 327 125.5 L 333 142.5 L 333 153.5 Q 330.5 162 324.5 167 L 317 171 L 320 181.5 L 345 236.5 L 428 397.5 L 437 420.5 L 440 433.5 L 440 440.5 L 432 457 L 418.5 467 L 406.5 473 L 394.5 476 L 383.5 476 Q 368.4 472.6 361 461.5 L 352 447.5 L 344 429.5 L 330 389.5 L 294 304.5 L 267 230.5 L 256.5 208 Q 230.1 225.1 210 248.5 Q 191.2 269.2 176.5 294 L 168.5 295 Q 137.9 279.6 116 255.5 Q 95.8 233.2 84 202.5 L 75 169.5 L 73 145.5 L 72 144.5 L 72 130.5 L 76.5 124 L 108.5 120 L 136.5 114 L 173.5 102 L 202.5 90 L 208 86.5 L 202 70.5 L 202 60.5 L 211.5 49 L 224.5 41 L 240.5 36 Z M 240 47 L 230 50 L 217 58 L 212 65 Q 213 76 219 82 L 252 65 L 255 62 L 250 52 Q 249 46 240 47 Z M 271 67 L 255 74 L 221 93 L 185 109 L 147 122 L 123 128 L 114 129 L 112 131 L 114 151 L 125 184 Q 140 215 162 240 L 183 258 L 188 260 Q 197 246 209 235 Q 230 213 255 195 L 280 179 L 317 160 L 323 153 L 322 141 L 317 129 L 295 85 L 287 73 L 279 67 L 271 67 Z M 101 131 L 100 132 L 83 133 L 84 161 L 88 182 L 93 195 L 93 198 Q 103 225 121 246 Q 141 270 171 284 L 182 268 L 182 266 L 170 256 L 151 238 L 138 221 L 126 201 L 112 168 L 105 137 Q 108 129 101 131 Z M 306 177 L 283 189 L 266 201 L 302 297 L 331 364 L 354 427 L 368 454 L 378 463 L 383 465 L 402 464 L 422 452 L 429 442 L 428 426 L 414 392 L 335 240 L 308 179 Q 309 176 306 177 Z "/>
    <path fill="#1a1a1a" d="M 301.5 224 L 311.5 225 L 322 230 L 327 238.5 L 327 248.5 Q 324.8 255.3 319.5 259 L 314.5 261 L 306.5 261 L 297 255.5 Q 291.7 250.8 293 239.5 L 299.5 225 L 301.5 224 Z M 308 235 L 303 241 L 304 248 L 309 251 L 315 250 L 317 247 L 316 240 Q 314 235 308 235 Z "/>
  </g>
</svg>
