<svg xmlns="http://www.w3.org/2000/svg" width="512" height="512" viewBox="0 0 512 512">
  <g id="color">
    <path fill="#ffffff" d="M 244.5 36 L 264 36.5 L 244.5 37 L 244.5 36 Z "/>
    <path fill="#ffffff" d="M 235.5 37 L 243 37.5 L 235.5 38 L 235.5 37 Z "/>
    <path fill="#ffffff" d="M 265.5 37 L 273 37.5 L 265.5 38 L 265.5 37 Z "/>
    <path fill="#ffffff" d="M 225.5 39 L 229 39.5 L 222.5 41 L 222.5 40 L 225.5 39 Z "/>
    <path fill="#ffffff" d="M 279.5 39 L 287 40.5 L 284.5 41 L 279.5 40 L 279.5 39 Z "/>
    <path fill="#ffffff" d="M 214.5 42 L 217 42.5 L 212.5 44 L 212.5 43 L 214.5 42 Z "/>
    <path fill="#ffffff" d="M 292.5 42 L 297 43.5 L 295.5 44 L 292.5 43 L 292.5 42 Z "/>
    <path fill="#ffffff" d="M 208.5 44 L 210 44.5 L 206.5 46 L 206.5 45 L 208.5 44 Z "/>
    <path fill="#ffffff" d="M 299.5 44 L 303 45.5 L 301.5 46 L 299.5 44 Z "/>
    <path fill="#ffffff" d="M 201.5 47 L 203 47.5 L 199.5 49 L 199.5 48 L 201.5 47 Z "/>
    <path fill="#ffffff" d="M 306.5 47 L 316 51.5 L 314.5 52 L 306.5 48 L 306.5 47 Z "/>
    <path fill="#ffffff" d="M 197.5 49 L 196.5 51 L 190.5 54 L 191.5 52 L 197.5 49 Z "/>
    <path fill="#ffffff" d="M 317.5 52 L 321 54.5 L 319.5 54 L 317.5 52 Z "/>
    <path fill="#ffffff" d="M 188.5 54 L 187.5 56 L 185.5 57 L 186.5 55 L 188.5 54 Z "/>
    <path fill="#ffffff" d="M 325.5 57 L 329 59.5 L 327.5 59 L 325.5 57 Z "/>
    <path fill="#ffffff" d="M 158 79 L 160 79.5 L 155 83.5 L 158 79 Z "/>
    <path fill="#ffffff" d="M 353.5 83 L 361 92.5 L 358 90.5 L 353.5 83 Z "/>
    <path fill="#ffffff" d="M 361.5 94 L 364 97.5 L 362 96.5 L 361.5 94 Z "/>
    <path fill="#ffffff" d="M 146.5 97 L 146 98.5 L 139.5 112 L 139 110.5 L 146.5 97 Z "/>
    <path fill="#ffffff" d="M 366.5 103 L 369 107.5 L 367 106.5 L 366.5 103 Z "/>
    <path fill="#ffffff" d="M 369.5 109 L 371 112.5 L 370 112.5 L 369.5 109 Z "/>
    <path fill="#ffffff" d="M 138.5 113 L 139 114.5 L 137.5 117 L 137 115.5 L 138.5 113 Z "/>
    <path fill="#ffffff" d="M 372.5 117 L 374 121.5 L 373 121.5 L 372.5 117 Z "/>
    <path fill="#ffffff" d="M 135.5 121 L 136 123.5 L 134.5 126 L 134 124.5 L 135.5 121 Z "/>
    <path fill="#ffffff" d="M 374.5 124 L 376 128.5 L 375 128.5 L 374.5 124 Z "/>
    <path fill="#ffffff" d="M 377.5 136 Q 377.5 142 380.5 145 Q 385.3 144.3 387 146.5 L 385.5 147 L 380.5 146 L 378 143.5 L 377.5 136 Z "/>
    <path fill="#ffffff" d="M 130.5 143 L 131 144.5 L 129.5 146 L 123.5 147 L 123.5 146 L 130 145 L 130.5 143 Z "/>
    <path fill="#ffffff" d="M 388.5 147 L 392 148.5 L 390.5 149 L 388.5 147 Z "/>
    <path fill="#ffffff" d="M 114.5 150 L 107 158.5 L 105.5 161 L 106 159.5 L 114.5 150 Z "/>
    <path fill="#ffffff" d="M 401.5 157 L 405 161.5 L 403 160.5 L 401.5 157 Z "/>
    <path fill="#ffffff" d="M 104.5 162 L 104 163.5 L 102.5 168 L 102 166.5 L 104.5 162 Z "/>
    <path fill="#ffffff" d="M 406.5 165 L 408 169.5 L 407 169.5 L 406.5 165 Z "/>
    <path fill="#ffffff" d="M 101.5 170 L 102 172.5 L 101 173.5 L 101 188.5 L 102 191.5 L 101 191.5 L 100 188.5 L 100 173.5 L 101.5 170 Z "/>
    <path fill="#ffffff" d="M 409.5 176 L 410 185.5 L 409 185.5 L 409.5 176 Z "/>
    <path fill="#ffffff" d="M 407.5 192 L 408 194.5 L 406.5 197 L 406 195.5 L 407.5 192 Z "/>
    <path fill="#ffffff" d="M 102.5 194 L 105 199.5 L 103 198.5 L 102.5 194 Z "/>
    <path fill="#ffffff" d="M 405.5 198 L 406 199.5 L 403.5 203 L 404 201.5 L 405.5 198 Z "/>
    <path fill="#ffffff" d="M 107.5 205 L 119 215.5 L 117.5 215 L 107.5 205 Z "/>
    <path fill="#ffffff" d="M 383.5 218 L 385 218.5 L 378.5 221 L 374.5 221 L 374.5 220 Q 380.6 220.6 383.5 218 Z "/>
    <path fill="#ffffff" d="M 141.5 221 L 147 230.5 L 145 229.5 L 141.5 221 Z "/>
    <path fill="#ffffff" d="M 147.5 232 L 150 236.5 L 149 236.5 L 147.5 232 Z "/>
    <path fill="#ffffff" d="M 360.5 234 L 364 236.5 L 362.5 237 L 360 236 L 360.5 234 Z "/>
    <path fill="#ffffff" d="M 145.5 237 L 147 237.5 L 143.5 239 L 143.5 238 L 145.5 237 Z "/>
    <path fill="#ffffff" d="M 366.5 237 L 370 238.5 L 368.5 239 L 366.5 237 Z "/>
    <path fill="#ffffff" d="M 140.5 239 L 142 239.5 L 131.5 245 L 132.5 243 L 140.5 239 Z "/>
    <path fill="#ffffff" d="M 371.5 239 L 377 241.5 L 375.5 242 L 371.5 240 L 371.5 239 Z "/>
    <path fill="#ffffff" d="M 378.5 242 L 382 244.5 L 380.5 244 L 378.5 242 Z "/>
    <path fill="#ffffff" d="M 122.5 250 L 119.5 254 L 118 253.5 L 122.5 250 Z "/>
    <path fill="#ffffff" d="M 390.5 250 L 395 253 L 394.5 255 L 390.5 250 Z "/>
    <path fill="#ffffff" d="M 113 258 L 115 258.5 L 107 265.5 L 113 258 Z "/>
    <path fill="#ffffff" d="M 102.5 273 L 102 274.5 L 100.5 277 L 101 275.5 L 102.5 273 Z "/>
    <path fill="#ffffff" d="M 410.5 273 L 414 278.5 L 412 277.5 L 410.5 273 Z "/>
    <path fill="#ffffff" d="M 96.5 284 L 97 285.5 L 94.5 290 L 94 288.5 L 96.5 284 Z "/>
    <path fill="#ffffff" d="M 416.5 284 L 419 289.5 L 418 289.5 L 416.5 284 Z "/>
    <path fill="#ffffff" d="M 93.5 291 L 94 292.5 L 92.5 296 L 92 293.5 L 93.5 291 Z "/>
    <path fill="#ffffff" d="M 419.5 291 L 421 295.5 L 420 295.5 L 419.5 291 Z "/>
    <path fill="#ffffff" d="M 90.5 300 L 91 302.5 L 89.5 307 L 89 303.5 L 90.5 300 Z "/>
    <path fill="#ffffff" d="M 422.5 300 L 424 306.5 L 423 306.5 L 422.5 300 Z "/>
    <path fill="#ffffff" d="M 424.5 309 L 427 316.5 L 425 315.5 L 424.5 309 Z "/>
    <path fill="#ffffff" d="M 66.5 314 L 81 314.5 L 63.5 316 L 63.5 315 L 66.5 314 Z "/>
    <path fill="#ffffff" d="M 432.5 314 Q 443.5 312.1 449 315.5 L 446.5 316 L 445.5 315 L 432.5 315 L 432.5 314 Z "/>
    <path fill="#ffffff" d="M 60.5 316 L 62 316.5 L 58.5 318 L 58.5 317 L 60.5 316 Z "/>
    <path fill="#ffffff" d="M 450.5 316 Q 462.1 318.9 468 327.5 L 472 334.5 L 471 334.5 L 462.5 323 L 450.5 317 L 450.5 316 Z "/>
    <path fill="#ffffff" d="M 56.5 318 L 55.5 320 L 53.5 321 L 54.5 319 L 56.5 318 Z "/>
    <path fill="#ffffff" d="M 50.5 322 L 46 327.5 L 45.5 329 L 45 327.5 L 50.5 322 Z "/>
    <path fill="#ffffff" d="M 43.5 330 L 43 331.5 L 41.5 334 L 42 332.5 L 43.5 330 Z "/>
    <path fill="#ffffff" d="M 40.5 335 L 41 336.5 L 39.5 339 L 39 337.5 L 40.5 335 Z "/>
    <path fill="#ffffff" d="M 472.5 336 L 474 339.5 L 473 339.5 L 472.5 336 Z "/>
    <path fill="#ffffff" d="M 474.5 341 L 476 348.5 L 475 348.5 L 474.5 341 Z "/>
    <path fill="#ffffff" d="M 37.5 344 L 38 348.5 L 37 348.5 L 37.5 344 Z "/>
    <path fill="#ffffff" d="M 476.5 351 L 477 355.5 L 476 355.5 L 476.5 351 Z "/>
    <path fill="#ffffff" d="M 37.5 356 L 39 367.5 L 38 367.5 Q 35.8 363 37.5 356 Z "/>
    <path fill="#ffffff" d="M 475.5 357 L 476 365.5 L 474.5 369 L 474 366.5 L 475 365.5 L 475.5 357 Z "/>
    <path fill="#ffffff" d="M 39.5 370 L 41 374.5 L 40 374.5 L 39.5 370 Z "/>
    <path fill="#ffffff" d="M 473.5 370 L 474 372.5 L 472.5 375 L 472 373.5 L 473.5 370 Z "/>
    <path fill="#ffffff" d="M 41.5 376 L 44 381.5 L 43 381.5 L 41.5 376 Z "/>
    <path fill="#ffffff" d="M 471.5 376 L 472 377.5 L 470.5 380 L 470 378.5 L 471.5 376 Z "/>
    <path fill="#ffffff" d="M 44.5 383 L 47 386.5 L 45 385.5 L 44.5 383 Z "/>
    <path fill="#ffffff" d="M 468.5 383 L 468 384.5 L 466.5 387 L 467 385.5 L 468.5 383 Z "/>
    <path fill="#ffffff" d="M 463.5 391 L 462 393.5 L 448.5 408 L 461 394.5 L 463.5 391 Z "/>
    <path fill="#ffffff" d="M 52.5 395 L 70 410.5 L 68.5 410 Q 57.8 404.5 52.5 395 Z "/>
    <path fill="#ffffff" d="M 212 407 L 217 408.5 L 215.5 409 L 213.5 408 L 212 408.5 L 212 407 Z "/>
    <path fill="#ffffff" d="M 298.5 407 L 301 408.5 L 299.5 408 L 293.5 410 L 293.5 409 L 298.5 407 Z "/>
    <path fill="#ffffff" d="M 446.5 408 L 445.5 410 L 443.5 411 L 444.5 409 L 446.5 408 Z "/>
    <path fill="#ffffff" d="M 218.5 409 L 224 410.5 L 221.5 411 L 218.5 410 L 218.5 409 Z "/>
    <path fill="#ffffff" d="M 213.5 410 L 216 416.5 L 215 416.5 L 213.5 410 Z "/>
    <path fill="#ffffff" d="M 299.5 410 L 300 411.5 L 297.5 417 L 297 415.5 L 299.5 410 Z "/>
    <path fill="#ffffff" d="M 71.5 411 L 75 413.5 L 73.5 413 L 71.5 411 Z "/>
    <path fill="#ffffff" d="M 225.5 411 L 232 412.5 L 228.5 413 L 225.5 412 L 225.5 411 Z "/>
    <path fill="#ffffff" d="M 285.5 411 L 288 411.5 L 281.5 413 L 281.5 412 L 285.5 411 Z "/>
    <path fill="#ffffff" d="M 441.5 411 L 440.5 413 L 438.5 414 L 439.5 412 L 441.5 411 Z "/>
    <path fill="#ffffff" d="M 130.5 413 L 129.5 415 L 127.5 416 L 128.5 414 L 130.5 413 Z "/>
    <path fill="#ffffff" d="M 382.5 413 L 386 415.5 L 384.5 415 L 382.5 413 Z "/>
    <path fill="#ffffff" d="M 134.5 414 L 136 418.5 L 135 418.5 L 134.5 414 Z "/>
    <path fill="#ffffff" d="M 240.5 414 L 262.5 415 L 263.5 414 L 273.5 414 L 273.5 415 L 249.5 416 L 248.5 415 L 240.5 415 L 240.5 414 Z "/>
    <path fill="#ffffff" d="M 435.5 414 L 437 414.5 L 433.5 416 L 433.5 415 L 435.5 414 Z "/>
    <path fill="#ffffff" d="M 378.5 415 L 379 416.5 L 377.5 420 L 377 417.5 L 378.5 415 Z "/>
    <path fill="#ffffff" d="M 388.5 416 L 395 418.5 L 393.5 419 L 388.5 417 L 388.5 416 Z "/>
    <path fill="#ffffff" d="M 83.5 417 L 88 418.5 L 86.5 419 L 83.5 418 L 83.5 417 Z "/>
    <path fill="#ffffff" d="M 427.5 417 L 430 417.5 L 425.5 419 L 425.5 418 L 427.5 417 Z "/>
    <path fill="#ffffff" d="M 216.5 418 L 218 421.5 L 217 421.5 L 216.5 418 Z "/>
    <path fill="#ffffff" d="M 90.5 419 Q 99.2 421.8 112.5 420 L 115.5 419 L 115.5 420 L 112.5 421 L 94.5 421 L 90.5 420 L 90.5 419 Z "/>
    <path fill="#ffffff" d="M 420.5 419 L 423 419.5 L 419.5 421 L 401.5 421 L 401.5 420 L 419.5 420 L 420.5 419 Z "/>
    <path fill="#ffffff" d="M 294.5 422 L 295 423.5 L 292.5 429 L 292 427.5 L 294.5 422 Z "/>
    <path fill="#ffffff" d="M 137.5 423 L 139 427.5 L 138 427.5 L 137.5 423 Z "/>
    <path fill="#ffffff" d="M 375.5 424 L 376 425.5 L 374.5 428 L 374 426.5 L 375.5 424 Z "/>
    <path fill="#ffffff" d="M 219.5 425 L 221 428.5 L 220 428.5 L 219.5 425 Z "/>
    <path fill="#ffffff" d="M 139.5 429 L 141 432.5 L 140 432.5 L 139.5 429 Z "/>
    <path fill="#ffffff" d="M 373.5 429 L 374 430.5 L 372.5 433 L 372 431.5 L 373.5 429 Z "/>
    <path fill="#ffffff" d="M 291.5 431 L 292 434.5 Q 289.3 436.3 291 442.5 L 292 446.5 L 291 446.5 L 290 435.5 L 291.5 431 Z "/>
    <path fill="#ffffff" d="M 222.5 436 L 223 442.5 L 221.5 448 L 221 443.5 L 222.5 436 Z "/>
    <path fill="#ffffff" d="M 149.5 449 L 163 465.5 L 156 459.5 L 149.5 449 Z "/>
    <path fill="#ffffff" d="M 363.5 449 L 363 450.5 L 361.5 453 L 362 451.5 L 363.5 449 Z "/>
    <path fill="#ffffff" d="M 220.5 450 L 221 451.5 L 219.5 454 L 219 452.5 L 220.5 450 Z "/>
    <path fill="#ffffff" d="M 217.5 457 L 218 458.5 L 215 460.5 L 217.5 457 Z "/>
    <path fill="#ffffff" d="M 295.5 457 L 306.5 470 L 309 471.5 L 307.5 471 L 298 462.5 L 295.5 457 Z "/>
    <path fill="#ffffff" d="M 357.5 458 L 348.5 468 L 337.5 474 L 337.5 473 Q 350.6 468.6 357.5 458 Z "/>
    <path fill="#ffffff" d="M 214.5 462 L 206.5 471 L 200.5 474 L 200.5 473 Q 209.6 469.6 214.5 462 Z "/>
    <path fill="#ffffff" d="M 164.5 466 L 170 470.5 L 168.5 470 L 164.5 466 Z "/>
    <path fill="#ffffff" d="M 171.5 471 L 176 473.5 L 174.5 474 L 171.5 471 Z "/>
    <path fill="#ffffff" d="M 177.5 474 L 192 476.5 L 184.5 477 L 177.5 475 L 177.5 474 Z "/>
    <path fill="#ffffff" d="M 314.5 474 L 320 475.5 L 316.5 476 L 314.5 474 Z "/>
    <path fill="#ffffff" d="M 334.5 474 L 336 474.5 L 330.5 476 L 330.5 475 L 334.5 474 Z "/>
    <path fill="#ffffff" d="M 321.5 476 L 329 476.5 L 321.5 477 L 321.5 476 Z "/>
    <path fill="#ffd43b" d="M 241.5 50 L 266.5 50 Q 273 53 282.5 53 L 297.5 58 Q 324.8 68.7 342 89.5 L 358 116.5 L 364 136.5 L 366 150.5 L 369.5 155 L 374.5 158 L 379.5 158 L 386.5 161 L 393 167.5 L 395 172.5 L 396 185.5 L 392 196.5 L 384.5 204 L 378.5 207 L 364.5 208 L 357 212.5 L 343 236.5 L 325.5 255 L 305.5 268 L 285.5 276 L 272.5 279 L 245.5 280 L 244.5 279 L 231.5 278 L 213.5 273 L 192.5 262 L 176 249 L 176 247 Q 173.3 248.1 174 245.5 L 163 232.5 L 153 213.5 L 149.5 210 L 144.5 208 L 136.5 208 L 128.5 206 L 119 198.5 L 115 191.5 L 113 181.5 L 115 170.5 L 122.5 161 L 130.5 158 L 134.5 158 L 142 152.5 L 148 125.5 L 153 112.5 Q 162.4 92.9 177.5 79 L 199.5 63 L 222.5 54 L 241.5 50 Z M 202 158 L 198 160 L 191 170 L 191 178 L 194 184 L 202 188 Q 211 189 216 185 L 221 177 Q 222 169 219 166 L 210 158 L 202 158 Z M 300 158 L 296 160 L 289 168 L 289 179 L 292 184 L 300 188 Q 308 189 312 186 Q 318 183 319 175 L 317 166 L 314 167 Q 309 168 308 165 L 310 159 Q 307 157 300 158 Z M 276 214 Q 270 220 261 223 L 251 223 L 237 216 Q 230 215 229 219 L 230 225 L 240 232 L 255 236 L 268 234 L 277 229 L 283 221 L 282 216 Q 281 213 276 214 Z "/>
    <path fill="#ffd43b" d="M 150.5 249 Q 152.8 248.3 152 250.5 L 142 267.5 L 131 302.5 L 129 319.5 L 128 320.5 L 127 336.5 L 126 337.5 L 126 366.5 L 127 367.5 L 129 391.5 L 131 398.5 Q 124.1 404.6 113.5 407 L 99.5 408 L 86.5 405 L 80.5 402 L 63 387.5 Q 55.9 379.1 52 367.5 Q 52.7 361.8 50 359.5 L 50 347.5 L 53 339.5 L 58.5 333 Q 64.4 326.9 76.5 327 L 88.5 332 L 94.5 332 L 98 329.5 L 100 326.5 L 102 308.5 L 107 292.5 Q 115.4 273.4 130.5 261 L 150.5 249 Z "/>
    <path fill="#ffd43b" d="M 362 250 L 370.5 253 L 389 266 L 399 279.5 L 406 292.5 L 411 308.5 Q 410.3 315.2 413 318.5 L 413 326.5 L 417.5 332 L 424.5 332 Q 430.4 326.9 441.5 327 Q 451.8 328.8 457 335.5 L 463 347.5 L 463 359.5 Q 458.4 382.9 442.5 395 L 426.5 405 L 418.5 407 L 405.5 408 L 388.5 403 L 382 398.5 L 384 392.5 L 386 368.5 L 387 367.5 L 387 337.5 L 386 336.5 L 385 319.5 L 379 290.5 L 371 267.5 L 362 250 Z "/>
    <path fill="#ffd43b" d="M 347.5 251 Q 350.8 249.9 350 252.5 L 363 281.5 L 369 303.5 L 371 319.5 L 373 325.5 L 373 335.5 L 374 336.5 L 374 368.5 L 373 369.5 L 373 378.5 L 368 405.5 L 366 408.5 L 363 420.5 L 352 443.5 L 341.5 456 L 329.5 463 L 320.5 463 Q 312.4 460.1 308 453.5 L 304 443.5 L 304 435.5 L 314 410.5 L 316 400.5 L 316 386.5 L 314 379.5 L 310.5 375 Q 305 374 304 377.5 Q 301.4 383.4 303 393.5 L 301.5 395 L 282.5 400 L 276.5 400 L 268.5 402 L 244.5 402 L 221.5 398 L 210 393.5 L 210 379.5 L 206.5 375 Q 201 374 200 377.5 Q 195.4 385.4 197 399.5 L 202 419.5 L 208 431.5 L 209 442.5 Q 207 454.5 198.5 460 Q 194 464.5 183.5 463 L 168 452.5 L 158 438.5 L 153 428.5 L 146 408.5 L 140 378.5 L 140 368.5 L 139 367.5 L 139 337.5 L 140 336.5 L 140 326.5 Q 142.9 321.9 142 313.5 L 147 291.5 L 158 262.5 L 163.5 254 Q 165.8 253.3 165 255.5 L 172 261 Q 170.9 263.7 173.5 263 L 183 270.5 L 181 295.5 L 182 296.5 L 184 313.5 L 189 326.5 Q 195.2 340.8 206.5 350 Q 216.5 359 230.5 364 L 249.5 368 L 263.5 368 L 282.5 364 L 295.5 358 Q 307.6 351.1 316 340.5 L 324 327.5 L 327 319.5 L 330 308.5 L 332 288.5 L 331 287.5 L 331 279.5 L 329 268.5 L 346 253.5 L 347.5 251 Z "/>
    <path fill="#66d9e8" d="M 315.5 277 L 318 278.5 L 318 302.5 L 313 320.5 Q 307 333.5 296.5 342 L 274.5 353 L 264.5 355 L 247.5 355 Q 244.6 352.4 238.5 353 L 223.5 347 L 210 335.5 Q 201.4 325.6 197 311.5 L 195 301.5 L 195 294.5 L 194 293.5 L 194 285.5 L 195 279 Q 208.4 286 225.5 290 Q 232.2 289.3 235.5 292 L 243.5 292 L 244.5 293 L 264.5 293 L 265.5 292 L 274.5 292 L 294.5 287 L 313.5 279 L 315.5 277 Z "/>
  </g>
  <g id="line">
    <path fill="#1a1a1a" d="M 243.5 37 L 273.5 38 L 298.5 44 Q 315.7 50.3 329.5 60 L 348 76.5 L 361 93.5 L 369 108.5 L 376 129.5 L 377 140.5 L 380.5 146 L 384.5 146 L 392.5 149 L 401 156.5 Q 410.2 166.3 409 186.5 Q 406.1 204.1 394.5 213 L 385.5 218 L 373.5 221 L 367.5 221 L 366 222.5 L 360 236 L 377.5 242 Q 390.9 249.6 401 260.5 Q 409.9 270.6 416 283.5 L 422 299.5 L 424 312.5 L 426.5 317 Q 433 313 445.5 315 Q 459.5 318 467 327.5 Q 476 337.5 476 356.5 L 475 357.5 L 474 369.5 L 469 382.5 Q 460.6 397.6 447.5 408 L 437.5 414 L 424.5 419 L 419.5 420 L 400.5 420 L 386.5 416 L 379 412 L 376 423.5 L 366 445.5 Q 359.2 458.2 348.5 467 L 333.5 475 L 320.5 476 Q 306.1 472.9 299 462.5 Q 290.4 453.6 291 435.5 Q 293.2 434.3 292 429.5 L 301 408.5 L 298.5 407 L 289.5 411 L 275.5 414 L 250.5 415 L 249.5 414 L 232.5 413 L 212 407 L 221 429.5 L 222 442.5 Q 219.5 444 221 449.5 L 217 458.5 L 206.5 470 Q 199.5 477 184.5 476 Q 166.4 472.1 157 459.5 Q 140.5 440.1 134 412 L 117.5 419 L 112.5 420 L 94.5 420 L 75.5 414 Q 61.6 406.4 52 394.5 L 41 375.5 L 38 364.5 L 37 349.5 L 39 339.5 L 44 329 Q 46.7 330.1 46 327.5 Q 51.9 319.4 62.5 316 Q 70 313.5 81.5 315 L 86.5 317 L 89 312.5 L 91 299.5 L 97 283.5 L 107 266.5 L 115 257 Q 117.7 258.1 117 255.5 Q 130 242.3 150 237 L 141.5 221 L 135.5 221 L 123.5 218 Q 113.2 213.3 107 204.5 L 101 188.5 L 101 173.5 Q 103.9 157.4 115.5 150 L 121.5 147 L 129.5 146 L 131 144.5 L 134 126.5 Q 137 123.5 137 117.5 L 148 94.5 Q 158.8 77.8 173.5 65 Q 187.6 53.6 205.5 46 L 220.5 41 L 243.5 37 Z M 242 50 L 223 54 L 200 63 L 178 79 Q 162 93 153 113 L 148 126 L 142 153 L 135 158 L 131 158 L 123 161 L 115 171 L 113 182 L 115 192 L 119 199 L 129 206 L 137 208 L 145 208 L 150 210 L 153 214 L 163 233 L 174 246 Q 173 248 176 247 L 176 249 L 193 262 L 214 273 L 232 278 L 245 279 L 246 280 L 273 279 L 286 276 L 306 268 L 326 255 L 343 237 L 357 213 L 365 208 L 379 207 L 385 204 L 392 197 L 396 186 L 395 173 L 393 168 L 387 161 L 380 158 L 375 158 L 370 155 L 366 151 L 364 137 L 358 117 L 342 90 Q 325 69 298 58 L 283 53 Q 273 53 267 50 L 242 50 Z M 151 249 L 131 261 Q 115 273 107 293 L 102 309 L 100 327 L 98 330 L 95 332 L 89 332 L 77 327 Q 64 327 59 333 L 53 340 L 50 348 L 50 360 Q 53 362 52 368 Q 56 379 63 388 L 81 402 L 87 405 L 100 408 L 114 407 Q 124 405 131 399 L 129 392 L 127 368 L 126 367 L 126 338 L 127 337 L 128 321 L 129 320 L 131 303 L 142 268 L 152 251 Q 153 248 151 249 Z M 362 250 L 371 268 L 379 291 L 385 320 L 386 337 L 387 338 L 387 368 L 386 369 L 384 393 L 382 399 L 389 403 L 406 408 L 419 407 L 427 405 L 443 395 Q 458 383 463 360 L 463 348 L 457 336 Q 452 329 442 327 Q 430 327 425 332 L 418 332 L 413 327 L 413 319 Q 410 315 411 309 L 406 293 L 399 280 L 389 266 L 371 253 L 362 250 Z M 348 251 L 346 254 L 329 269 L 331 280 L 331 288 L 332 289 L 330 309 L 327 320 L 324 328 L 316 341 Q 308 351 296 358 L 283 364 L 264 368 L 250 368 L 231 364 Q 217 359 207 350 Q 195 341 189 327 L 184 314 L 182 297 L 181 296 L 183 271 L 174 263 Q 171 264 172 261 L 165 256 Q 166 253 164 254 L 158 263 L 147 292 L 142 314 Q 143 322 140 327 L 140 337 L 139 338 L 139 368 L 140 369 L 140 379 L 146 409 L 153 429 L 158 439 L 168 453 L 184 463 Q 194 465 199 460 Q 207 455 209 443 L 208 432 L 202 420 L 197 400 Q 195 385 200 378 Q 201 374 207 375 L 210 380 L 210 394 L 222 398 L 245 402 L 269 402 L 277 400 L 283 400 L 302 395 L 303 394 Q 301 383 304 378 Q 305 374 311 375 L 314 380 L 316 387 L 316 401 L 314 411 L 304 436 L 304 444 L 308 454 Q 312 460 321 463 L 330 463 L 342 456 L 352 444 L 363 421 L 366 409 L 368 406 L 373 379 L 373 370 L 374 369 L 374 337 L 373 336 L 373 326 L 371 320 L 369 304 L 363 282 L 350 253 Q 351 250 348 251 Z M 316 277 L 314 279 L 295 287 L 275 292 L 266 292 L 265 293 L 245 293 L 244 292 L 236 292 Q 232 289 226 290 Q 208 286 195 279 L 194 286 L 194 294 L 195 295 L 195 302 L 197 312 Q 201 326 210 336 L 224 347 L 239 353 Q 245 352 248 355 L 265 355 L 275 353 L 297 342 Q 307 334 313 321 L 318 303 L 318 279 L 316 277 Z "/>
    <path fill="#1a1a1a" d="M 201.5 158 L 209.5 158 L 219 165.5 Q 221.9 169.1 221 176.5 L 215.5 185 Q 211.3 189.3 201.5 188 L 194 184 L 191 177.5 L 191 169.5 L 197.5 160 L 201.5 158 Z "/>
    <path fill="#1a1a1a" d="M 299.5 158 Q 306.6 157.3 310 159 L 308 164.5 Q 308.8 167.8 313.5 167 L 317 166 L 319 174.5 Q 317.6 182.6 311.5 186 Q 307.8 189.3 299.5 188 L 292 184 L 289 178.5 L 289 167.5 L 295.5 160 L 299.5 158 Z "/>
    <path fill="#1a1a1a" d="M 275.5 214 Q 280.8 212.8 282 215.5 L 283 220.5 L 276.5 229 L 267.5 234 L 254.5 236 L 239.5 232 L 230 224.5 L 229 218.5 Q 230.3 214.8 236.5 216 L 250.5 223 L 260.5 223 Q 269.5 220 275.5 214 Z "/>
  </g>
</svg>
