<svg xmlns="http://www.w3.org/2000/svg" width="512" height="512" viewBox="0 0 512 512">
  <g id="color">
    <path fill="#ffffff" d="M 252.5 36 L 260 36.5 L 252.5 37 L 252.5 36 Z "/>
    <path fill="#ffffff" d="M 247.5 37 L 250 37.5 L 245.5 39 L 245.5 38 L 247.5 37 Z "/>
    <path fill="#ffffff" d="M 290.5 86 L 292 89.5 L 291 89.5 L 290.5 86 Z "/>
    <path fill="#ffffff" d="M 188.5 127 L 188 128.5 L 186.5 131 L 187 129.5 L 188.5 127 Z "/>
    <path fill="#ffffff" d="M 327.5 134 L 329 138.5 L 328 138.5 L 327.5 134 Z "/>
    <path fill="#ffffff" d="M 329.5 140 L 330 142 L 333 142.5 L 330.5 143 L 329.5 140 Z "/>
    <path fill="#ffffff" d="M 178.5 142 L 183 142.5 L 178.5 143 L 178.5 142 Z "/>
    <path fill="#ffffff" d="M 161.5 151 L 161 152.5 L 159.5 155 L 160 153.5 L 161.5 151 Z "/>
    <path fill="#ffffff" d="M 356.5 163 L 357 167.5 L 356 167.5 L 356.5 163 Z "/>
    <path fill="#ffffff" d="M 155.5 168 L 156 173.5 L 155 173.5 L 155.5 168 Z "/>
    <path fill="#ffffff" d="M 357.5 170 L 358 186.5 L 357 186.5 L 357.5 170 Z "/>
    <path fill="#ffffff" d="M 355.5 194 L 356 195.5 L 353.5 199 L 354 197.5 L 355.5 194 Z "/>
    <path fill="#ffffff" d="M 158.5 197 L 164 203.5 L 158 198.5 L 158.5 197 Z "/>
    <path fill="#ffffff" d="M 344.5 205 L 348 210.5 L 344 207.5 L 344.5 205 Z "/>
    <path fill="#ffffff" d="M 154.5 228 L 155 229.5 L 153.5 232 L 153 230.5 L 154.5 228 Z "/>
    <path fill="#ffffff" d="M 149.5 247 L 150 252.5 L 149 252.5 L 149.5 247 Z "/>
    <path fill="#ffffff" d="M 363.5 251 L 364 255.5 L 363 255.5 L 363.5 251 Z "/>
    <path fill="#ffffff" d="M 148.5 255 L 149 268.5 L 148 268.5 L 148.5 255 Z "/>
    <path fill="#ffffff" d="M 364.5 266 L 365 289.5 L 364 289.5 L 364.5 266 Z "/>
    <path fill="#ffffff" d="M 147.5 279 L 148 342.5 L 147 342.5 L 147.5 279 Z "/>
    <path fill="#ffffff" d="M 365.5 339 L 366 370.5 L 365 370.5 L 365.5 339 Z "/>
    <path fill="#ffffff" d="M 146.5 364 L 147 386.5 L 146 386.5 L 146.5 364 Z "/>
    <path fill="#ffffff" d="M 366.5 381 L 367 408.5 L 366 408.5 L 366.5 381 Z "/>
    <path fill="#ffffff" d="M 146.5 405 L 147 417.5 L 146 417.5 L 146.5 405 Z "/>
    <path fill="#ffffff" d="M 365.5 417 L 366 424.5 L 365 424.5 L 365.5 417 Z "/>
    <path fill="#ffffff" d="M 147.5 424 L 148 428.5 L 147 428.5 L 147.5 424 Z "/>
    <path fill="#ffffff" d="M 362.5 439 L 363 440.5 L 361.5 443 L 361 441.5 L 362.5 439 Z "/>
    <path fill="#ffffff" d="M 169.5 462 L 173 464.5 L 171.5 464 L 169.5 462 Z "/>
    <path fill="#ffffff" d="M 343.5 462 L 342.5 464 L 337.5 466 L 337.5 465 L 343.5 462 Z "/>
    <path fill="#ffffff" d="M 179.5 467 L 187 469.5 L 184.5 470 L 179.5 468 L 179.5 467 Z "/>
    <path fill="#ffffff" d="M 205.5 473 L 210 473.5 L 205.5 474 L 205.5 473 Z "/>
    <path fill="#ffffff" d="M 304.5 473 L 309 473.5 L 304.5 474 L 304.5 473 Z "/>
    <path fill="#ffffff" d="M 212.5 474 L 220 474.5 L 212.5 475 L 212.5 474 Z "/>
    <path fill="#ffffff" d="M 294.5 474 L 302 474.5 L 294.5 475 L 294.5 474 Z "/>
    <path fill="#ffffff" d="M 224.5 475 L 237 475.5 L 224.5 476 L 224.5 475 Z "/>
    <path fill="#ffffff" d="M 278.5 475 L 292 475.5 L 278.5 476 L 278.5 475 Z "/>
    <path fill="#4da3ff" d="M 254.5 46 Q 264.9 46.1 269 52.5 L 273 59.5 L 280 87.5 L 284 97.5 Q 291.7 110.9 303.5 120 L 306.5 122 Q 316.9 128.4 319 142 L 303.5 143 L 302.5 144 L 286.5 144 L 285.5 145 L 224.5 145 L 223.5 144 L 212.5 144 L 211.5 143 L 199.5 143 L 193 142 Q 195.1 132.4 201.5 126 Q 203.8 126.8 203 124.5 L 223 106.5 L 231 91.5 L 233 82.5 L 235 79.5 L 236 70.5 L 241 56.5 L 247.5 48 L 254.5 46 Z "/>
    <path fill="#4da3ff" d="M 181.5 209 L 184.5 210 L 187.5 209 L 197.5 211 L 229.5 212 L 230.5 213 L 282.5 213 L 285.5 212 L 287.5 212 L 304.5 212 L 305.5 211 L 324.5 210 L 325.5 209 L 328.5 210 L 333.5 209 L 336.5 213 Q 338.8 212.3 338 214.5 L 349 230.5 L 352 239.5 L 352 244.5 L 354 250.5 L 354 260.5 L 355 261.5 L 354 263.5 L 355 264.5 L 355 334.5 L 356 335.5 L 356 386.5 L 357 387.5 L 357 403.5 L 356 404.5 L 356 425.5 L 354 435.5 L 351 438.5 L 351 440.5 Q 350.1 447.6 344.5 450 Q 334.3 458.8 318.5 462 L 299.5 464 L 298.5 465 L 286.5 465 L 285.5 466 L 251.5 467 L 250.5 466 L 233.5 466 L 232.5 465 Q 230.7 467.8 224.5 466 L 223.5 465 L 215.5 465 L 214.5 464 L 206.5 464 L 205.5 463 L 194.5 462 L 176 456 Q 177.1 453.3 174.5 454 L 162 443.5 L 158 432.5 Q 158.9 425.1 156 421.5 L 156 419.5 L 156 352.5 L 157 347.5 L 157 345.5 L 157 276.5 L 158 274.5 L 158 270.5 L 158 257.5 L 159 256.5 L 159 248.5 L 161 237.5 L 173 215 L 178 212.5 L 177.5 211 L 181.5 209 Z M 197 290 L 187 294 L 183 300 L 184 308 L 192 313 Q 199 314 202 311 L 203 308 L 203 306 L 204 304 L 204 302 L 205 298 L 199 293 L 197 290 Z M 194 359 L 187 362 L 185 365 L 185 367 L 183 370 L 184 377 L 192 382 L 202 379 L 205 373 L 204 370 L 205 365 L 204 365 Q 201 366 202 364 L 200 361 L 194 359 Z M 186 427 L 184 428 Q 180 429 181 435 L 186 439 L 200 443 L 202 445 L 225 450 L 231 450 L 233 450 L 242 452 L 270 452 L 271 451 L 285 450 L 308 444 L 322 437 L 324 434 L 323 429 L 319 427 L 301 435 L 285 439 L 271 440 L 270 441 L 241 441 L 240 440 L 225 439 L 211 435 L 207 435 L 186 427 Z "/>
    <path fill="#ffd43b" d="M 176.5 151 L 192.5 151 L 203.5 153 L 233.5 154 L 234.5 155 L 276.5 155 L 277.5 154 L 309.5 153 L 320.5 151 L 335.5 151 Q 342.1 151.9 345 156.5 L 349 169.5 L 349 187.5 Q 347.9 194.9 342.5 198 L 331.5 199 L 330.5 200 L 322.5 200 L 321.5 201 L 312.5 201 L 311.5 202 L 253.5 204 L 252.5 203 L 218.5 203 L 217.5 202 L 192.5 201 L 191.5 200 L 174.5 199 L 168.5 197 L 166 194.5 Q 161.4 186.6 163 172.5 L 166 159.5 L 171.5 153 L 176.5 151 Z "/>
    <path fill="#66d9e8" d="M 251.5 45 Q 266.5 43.5 271 52.5 L 276 63.5 L 282 88.5 L 288 101.5 L 304.5 119 L 315 128.5 Q 320.6 134.4 321 144 L 298.5 145 L 297.5 146 L 277.5 146 L 276.5 147 L 236.5 147 L 235.5 146 L 216.5 146 L 215.5 145 L 192.5 144 L 191 142.5 Q 194.1 130.1 202.5 123 L 222 105.5 L 230 89.5 L 234 76.5 L 235 68.5 L 240 54.5 L 246.5 47 L 251.5 45 Z M 255 46 L 248 48 L 241 57 L 236 71 L 235 80 L 233 83 L 231 92 L 223 107 L 203 125 Q 204 127 202 126 Q 195 132 193 142 L 200 143 L 212 143 L 213 144 L 224 144 L 225 145 L 286 145 L 287 144 L 303 144 L 304 143 L 319 142 Q 317 128 307 122 L 304 120 Q 292 111 284 98 L 280 88 L 273 60 L 269 53 Q 265 46 255 46 Z "/>
    <path fill="#66d9e8" d="M 179.5 207 L 193.5 208 L 194.5 209 L 204.5 209 L 205.5 210 L 222.5 210 L 223.5 211 L 290.5 211 L 291.5 210 L 308.5 210 L 309.5 209 L 319.5 209 L 320.5 208 Q 328.7 209.7 332.5 207 L 337 210.5 L 351 231.5 L 356 253.5 L 356 273.5 L 357 274.5 L 358 419.5 L 357 420.5 L 357 429.5 L 354 439.5 Q 350.8 448.3 343.5 453 L 330.5 460 L 311.5 465 L 296.5 466 L 295.5 467 L 277.5 467 L 276.5 468 L 238.5 468 L 237.5 467 L 208.5 466 L 188.5 462 L 175.5 457 L 164 449 L 158 438.5 L 155 423.5 L 154 374.5 L 155 373.5 L 155 331.5 L 156 330.5 L 156 263.5 L 157 262.5 L 158 243.5 Q 164 220.5 179.5 207 Z M 182 209 L 178 211 L 178 213 L 173 215 L 161 238 L 159 249 L 159 257 L 158 258 L 158 271 L 158 275 L 157 277 L 157 346 L 157 348 L 156 353 L 156 420 L 156 422 Q 159 425 158 433 L 162 444 L 175 454 Q 177 453 176 456 L 195 462 L 206 463 L 207 464 L 215 464 L 216 465 L 224 465 L 225 466 Q 231 468 233 465 L 234 466 L 251 466 L 252 467 L 286 466 L 287 465 L 299 465 L 300 464 L 319 462 Q 334 459 345 450 Q 350 448 351 441 L 351 439 L 354 436 L 356 426 L 356 405 L 357 404 L 357 388 L 356 387 L 356 336 L 355 335 L 355 265 L 354 264 L 355 262 L 354 261 L 354 251 L 352 245 L 352 240 L 349 231 L 338 215 Q 339 212 337 213 L 334 209 L 329 210 L 326 209 L 325 210 L 306 211 L 305 212 L 288 212 L 286 212 L 283 213 L 231 213 L 230 212 L 198 211 L 188 209 L 185 210 L 182 209 Z "/>
    <path fill="#66d9e8" d="M 196.5 290 L 198.5 293 L 205 297.5 L 204 301.5 L 204 303.5 L 203 305.5 L 203 307.5 L 202 311 Q 199.1 313.9 191.5 313 L 184 307.5 L 183 299.5 L 186.5 294 L 196.5 290 Z "/>
    <path fill="#66d9e8" d="M 193.5 359 L 199.5 361 L 202 363.5 Q 201.3 365.8 203.5 365 L 205 364.5 L 204 369.5 L 205 372.5 L 202 379 L 191.5 382 L 184 376.5 L 183 369.5 L 185 366.5 L 185 364.5 L 186 362.5 L 185.5 361 L 187.5 362 L 193.5 359 Z "/>
    <path fill="#66d9e8" d="M 185.5 427 L 206.5 435 L 210.5 435 L 224.5 439 L 239.5 440 L 240.5 441 L 269.5 441 L 270.5 440 L 284.5 439 L 300.5 435 L 318.5 427 L 323 429 L 324 433.5 L 321.5 437 L 307.5 444 L 284.5 450 L 270.5 451 L 269.5 452 L 241.5 452 L 232.5 450 L 230.5 450 L 224.5 450 L 201.5 445 L 199.5 443 L 185.5 439 L 181 434.5 Q 180 429 183.5 428 L 185.5 427 Z M 185 429 L 182 434 L 188 438 L 205 444 L 237 450 L 273 450 Q 274 447 281 449 L 300 445 L 320 437 L 322 434 Q 323 429 320 429 L 317 429 L 300 437 L 282 441 L 266 442 L 265 443 L 246 443 L 245 442 L 227 441 L 205 436 L 189 429 L 185 429 Z "/>
  </g>
  <g id="line">
    <path fill="#1a1a1a" d="M 250.5 37 L 262.5 37 Q 271 39.5 276 45.5 L 281 54.5 L 290 87.5 Q 295.1 100.9 305.5 109 L 322 124.5 L 326 130.5 L 330.5 143 Q 346.4 142.6 352 152.5 L 357 168.5 L 357 189.5 Q 355.2 199.2 348.5 204 L 344 205 L 344 207.5 Q 353.7 216.8 359 230.5 L 362 241.5 L 363 255.5 L 364 256.5 L 366 416.5 L 365 417.5 L 364 433.5 L 361 443.5 Q 356.8 454.3 347.5 460 L 334.5 467 L 311.5 473 L 294.5 474 L 293.5 475 L 278.5 475 L 277.5 476 L 237.5 476 L 236.5 475 L 220.5 475 L 219.5 474 L 210.5 474 L 209.5 473 L 190.5 471 L 173.5 465 Q 163.6 460.4 157 452.5 L 152 444.5 L 148 430.5 L 147 405.5 L 146 404.5 L 146 387.5 L 147 386.5 L 147 343.5 L 148 342.5 L 148 269.5 L 149 268.5 L 150 244.5 L 155 227.5 Q 159.9 215.9 168 207.5 L 168 205 Q 161.9 204.2 159 198.5 L 156 191.5 L 155 174.5 L 158 157.5 L 164.5 148 Q 170.8 142.1 183 143 Q 187.1 122.4 202.5 112 L 212 104.5 L 222 88.5 L 231 55.5 Q 234.8 45.8 242.5 40 L 250.5 37 Z M 252 45 L 247 47 L 240 55 L 235 69 L 234 77 L 230 90 L 222 106 L 203 123 Q 194 130 191 143 L 193 144 L 216 145 L 217 146 L 236 146 L 237 147 L 277 147 L 278 146 L 298 146 L 299 145 L 321 144 Q 321 134 315 129 L 305 119 L 288 102 L 282 89 L 276 64 L 271 53 Q 266 44 252 45 Z M 177 151 L 172 153 L 166 160 L 163 173 Q 161 187 166 195 L 169 197 L 175 199 L 192 200 L 193 201 L 218 202 L 219 203 L 253 203 L 254 204 L 312 202 L 313 201 L 322 201 L 323 200 L 331 200 L 332 199 L 343 198 Q 348 195 349 188 L 349 170 L 345 157 Q 342 152 336 151 L 321 151 L 310 153 L 278 154 L 277 155 L 235 155 L 234 154 L 204 153 L 193 151 L 177 151 Z M 180 207 Q 164 220 158 244 L 157 263 L 156 264 L 156 331 L 155 332 L 155 374 L 154 375 L 155 424 L 158 439 L 164 449 L 176 457 L 189 462 L 209 466 L 238 467 L 239 468 L 277 468 L 278 467 L 296 467 L 297 466 L 312 465 L 331 460 L 344 453 Q 351 448 354 440 L 357 430 L 357 421 L 358 420 L 357 275 L 356 274 L 356 254 L 351 232 L 337 211 L 333 207 Q 329 210 321 208 L 320 209 L 310 209 L 309 210 L 292 210 L 291 211 L 224 211 L 223 210 L 206 210 L 205 209 L 195 209 L 194 208 L 180 207 Z "/>
    <path fill="#1a1a1a" d="M 184.5 429 L 188.5 429 L 204.5 436 L 226.5 441 L 244.5 442 L 245.5 443 L 264.5 443 L 265.5 442 L 281.5 441 L 299.5 437 L 316.5 429 L 319.5 429 Q 322.5 429.5 322 433.5 L 319.5 437 L 299.5 445 L 280.5 449 Q 274.2 447.2 272.5 450 L 236.5 450 L 204.5 444 L 187.5 438 L 182 433.5 L 184.5 429 Z "/>
  </g>
</svg>
