<svg xmlns="http://www.w3.org/2000/svg" width="512" height="512" viewBox="0 0 512 512">
  <g id="color">
    <path fill="#ffffff" d="M 220.5 37 L 242 37.5 L 220.5 38 L 220.5 37 Z "/>
    <path fill="#ffffff" d="M 210.5 38 L 215 38.5 L 210.5 39 L 210.5 38 Z "/>
    <path fill="#ffffff" d="M 246.5 38 L 251 38.5 L 246.5 39 L 246.5 38 Z "/>
    <path fill="#ffffff" d="M 197.5 40 L 201 40.5 L 194.5 42 L 194.5 41 L 197.5 40 Z "/>
    <path fill="#ffffff" d="M 259.5 40 L 267 41.5 L 264.5 42 L 259.5 41 L 259.5 40 Z "/>
    <path fill="#ffffff" d="M 186.5 43 L 189 43.5 L 183.5 45 L 183.5 44 L 186.5 43 Z "/>
    <path fill="#ffffff" d="M 177.5 46 L 179 46.5 L 175.5 48 L 175.5 47 L 177.5 46 Z "/>
    <path fill="#ffffff" d="M 282.5 46 L 288 48.5 L 286.5 48 Q 281.7 48 282.5 46 Z "/>
    <path fill="#ffffff" d="M 172.5 48 L 174 48.5 L 170.5 50 L 170.5 49 L 172.5 48 Z "/>
    <path fill="#ffffff" d="M 168.5 50 L 167.5 52 L 159.5 56 L 160.5 54 L 168.5 50 Z "/>
    <path fill="#ffffff" d="M 292.5 50 L 297 52.5 L 295.5 53 L 292.5 50 Z "/>
    <path fill="#ffffff" d="M 300.5 54 L 304 56.5 L 302.5 56 L 300.5 54 Z "/>
    <path fill="#ffffff" d="M 155.5 57 L 153.5 60 L 151.5 61 L 152.5 59 L 155.5 57 Z "/>
    <path fill="#ffffff" d="M 305.5 57 L 310 60.5 L 307.5 59 L 305.5 57 Z "/>
    <path fill="#ffffff" d="M 125.5 86 L 124 88.5 L 122.5 91 L 123 89.5 L 125.5 86 Z "/>
    <path fill="#ffffff" d="M 121.5 92 L 120 94.5 L 118.5 97 L 119 95.5 L 121.5 92 Z "/>
    <path fill="#ffffff" d="M 342.5 96 L 345 99.5 L 343 98.5 L 342.5 96 Z "/>
    <path fill="#ffffff" d="M 114.5 104 L 114 105.5 L 111.5 111 L 111 109.5 L 114.5 104 Z "/>
    <path fill="#ffffff" d="M 350.5 111 L 352 114.5 L 351 114.5 L 350.5 111 Z "/>
    <path fill="#ffffff" d="M 354.5 121 L 356 124.5 L 355 124.5 L 354.5 121 Z "/>
    <path fill="#ffffff" d="M 106.5 122 L 107 123.5 L 104.5 129 L 104 127.5 L 106.5 122 Z "/>
    <path fill="#ffffff" d="M 361.5 144 L 363 151.5 L 362 151.5 L 361.5 144 Z "/>
    <path fill="#ffffff" d="M 365.5 163 L 366 167.5 L 365 167.5 L 365.5 163 Z "/>
    <path fill="#ffffff" d="M 95.5 165 L 96 170.5 L 95 170.5 L 95.5 165 Z "/>
    <path fill="#ffffff" d="M 366.5 169 L 367 175.5 L 366 175.5 L 366.5 169 Z "/>
    <path fill="#ffffff" d="M 94.5 172 L 95 194.5 L 94 194.5 L 94.5 172 Z "/>
    <path fill="#ffffff" d="M 366.5 190 L 367 196.5 L 366 196.5 L 366.5 190 Z "/>
    <path fill="#ffffff" d="M 97.5 207 L 99 211.5 L 98 211.5 L 97.5 207 Z "/>
    <path fill="#ffffff" d="M 362.5 211 L 363 213.5 L 361.5 216 L 361 214.5 L 362.5 211 Z "/>
    <path fill="#ffffff" d="M 358.5 221 L 361 224.5 L 358 222.5 L 358.5 221 Z "/>
    <path fill="#ffffff" d="M 362.5 225 L 369 230.5 L 365.5 228 L 362.5 225 Z "/>
    <path fill="#ffffff" d="M 377.5 237 L 378.5 238 L 387.5 238 L 390.5 237 L 390.5 238 L 378.5 239 L 377.5 237 Z "/>
    <path fill="#ffffff" d="M 409.5 237 L 414 239.5 L 412.5 239 Q 408.7 238.8 409.5 237 Z "/>
    <path fill="#ffffff" d="M 103.5 240 L 103 241.5 L 101.5 244 L 102 242.5 L 103.5 240 Z "/>
    <path fill="#ffffff" d="M 423.5 250 L 425 253.5 L 424 253.5 L 423.5 250 Z "/>
    <path fill="#ffffff" d="M 95.5 256 L 96 257.5 L 94.5 260 L 94 258.5 L 95.5 256 Z "/>
    <path fill="#ffffff" d="M 91.5 267 L 92 269.5 L 90.5 273 L 90 270.5 L 91.5 267 Z "/>
    <path fill="#ffffff" d="M 428.5 268 L 429 274.5 L 428 274.5 L 428.5 268 Z "/>
    <path fill="#ffffff" d="M 429.5 282 L 430 289.5 L 429 289.5 L 429.5 282 Z "/>
    <path fill="#ffffff" d="M 85.5 294 L 86 298.5 L 85 298.5 L 85.5 294 Z "/>
    <path fill="#ffffff" d="M 428.5 297 L 429 305.5 L 428 305.5 L 428.5 297 Z "/>
    <path fill="#ffffff" d="M 84.5 302 L 85 328.5 L 84 328.5 L 84.5 302 Z "/>
    <path fill="#ffffff" d="M 427.5 307 L 428 312.5 L 427 312.5 L 427.5 307 Z "/>
    <path fill="#ffffff" d="M 424.5 325 L 425 328.5 L 423.5 332 L 423 329.5 L 424.5 325 Z "/>
    <path fill="#ffffff" d="M 85.5 331 L 86 335.5 L 85 335.5 L 85.5 331 Z "/>
    <path fill="#ffffff" d="M 421.5 338 L 422 339.5 L 419.5 345 L 419 343.5 L 421.5 338 Z "/>
    <path fill="#ffffff" d="M 417.5 349 L 418 350.5 L 416.5 353 L 416 351.5 L 417.5 349 Z "/>
    <path fill="#ffffff" d="M 90.5 355 L 93 361.5 L 92 361.5 L 90.5 355 Z "/>
    <path fill="#ffffff" d="M 414.5 356 L 415 357.5 L 408.5 369 L 409 367.5 L 414.5 356 Z "/>
    <path fill="#ffffff" d="M 406.5 372 L 406 373.5 L 404.5 376 L 405 374.5 L 406.5 372 Z "/>
    <path fill="#ffffff" d="M 100.5 378 L 104 382.5 L 101 380.5 L 100.5 378 Z "/>
    <path fill="#ffffff" d="M 367.5 414 L 365.5 417 L 362.5 419 L 364.5 416 L 367.5 414 Z "/>
    <path fill="#ffffff" d="M 360.5 419 L 359.5 421 L 357.5 422 L 358.5 420 L 360.5 419 Z "/>
    <path fill="#ffffff" d="M 355.5 422 L 354.5 424 L 350.5 426 L 351.5 424 L 355.5 422 Z "/>
    <path fill="#ffffff" d="M 147.5 423 L 154 426.5 L 152.5 427 Q 147.9 425.8 147.5 423 Z "/>
    <path fill="#ffffff" d="M 345.5 427 L 347 427.5 L 342.5 430 L 343.5 428 L 345.5 427 Z "/>
    <path fill="#ffffff" d="M 164.5 431 Q 166.8 430.3 166 432.5 L 164 433.5 L 164.5 431 Z "/>
    <path fill="#ffffff" d="M 336 431 L 338 431.5 L 337.5 434 L 336 431 Z "/>
    <path fill="#ffffff" d="M 339.5 434 L 344 437.5 L 340.5 435 L 339.5 434 Z "/>
    <path fill="#ffffff" d="M 241 447 L 261 447.5 L 242 448 L 241.5 454 L 241 447 Z "/>
    <path fill="#ffffff" d="M 148.5 451 L 149 456.5 L 148 456.5 L 148.5 451 Z "/>
    <path fill="#ffffff" d="M 239.5 460 L 240 461.5 L 235.5 468 L 237 465.5 L 239.5 460 Z "/>
    <path fill="#ffffff" d="M 262.5 460 L 265 464.5 L 263 463.5 L 262.5 460 Z "/>
    <path fill="#ffffff" d="M 345.5 467 L 344.5 469 L 342.5 470 L 343.5 468 L 345.5 467 Z "/>
    <path fill="#ffffff" d="M 232.5 470 L 230.5 473 L 229 472.5 L 232.5 470 Z "/>
    <path fill="#ffffff" d="M 164.5 471 L 174 472.5 L 167.5 473 L 164.5 472 L 164.5 471 Z "/>
    <path fill="#ffffff" d="M 270.5 471 L 275 473.5 L 273.5 474 L 270.5 471 Z "/>
    <path fill="#ffffff" d="M 327.5 472 L 334 472.5 L 327.5 473 L 327.5 472 Z "/>
    <path fill="#ffffff" d="M 178.5 473 L 193 473.5 L 178.5 474 L 178.5 473 Z "/>
    <path fill="#ffffff" d="M 309.5 473 L 324 473.5 L 309.5 474 L 309.5 473 Z "/>
    <path fill="#ffffff" d="M 198.5 474 L 203 474.5 L 198.5 475 L 198.5 474 Z "/>
    <path fill="#ffffff" d="M 299.5 474 L 304 474.5 L 299.5 475 L 299.5 474 Z "/>
    <path fill="#ffffff" d="M 206.5 475 L 222 475.5 L 206.5 476 L 206.5 475 Z "/>
    <path fill="#ffffff" d="M 280.5 475 L 296 475.5 L 280.5 476 L 280.5 475 Z "/>
    <path fill="#ffd43b" d="M 214.5 53 L 245.5 53 L 270.5 58 Q 297.6 66.4 315 84.5 Q 331.8 102.2 341 127.5 L 345 139.5 L 351 166.5 Q 349.8 171.3 352 172.5 L 352 192.5 L 348 208.5 L 341 220.5 L 340 226.5 L 344.5 233 L 354.5 238 L 368.5 250 L 377.5 254 L 386.5 254 L 396.5 251 L 402.5 251 L 410 256.5 L 414 270.5 L 414 302.5 L 413 303.5 L 411 321.5 L 407 336.5 L 400 353.5 Q 387.8 378.8 367.5 396 Q 348.2 412.7 321.5 422 L 295.5 429 L 281.5 430 L 273.5 432 L 253.5 432 L 251.5 433 L 250.5 432 L 231.5 432 L 230.5 431 L 213.5 430 L 183.5 423 Q 151.5 413 130 392.5 L 128.5 390 Q 126.3 390.8 127 388.5 L 114 372.5 L 105 353.5 L 100 332.5 L 99 305.5 L 100 304.5 L 101 290.5 L 106 270.5 L 116 247.5 L 123 237.5 Q 121.8 232.8 124 231.5 L 123 226.5 L 112 204.5 L 109 189.5 L 109 177.5 L 110 176.5 L 110 168.5 L 113 152.5 L 123 120.5 Q 134.5 93.5 155.5 76 L 170.5 66 L 179.5 62 L 197.5 56 L 214.5 53 Z M 215 168 L 199 174 L 195 178 L 194 182 L 197 191 L 207 205 L 220 215 Q 228 216 231 211 Q 233 212 232 210 L 236 207 L 248 191 L 251 184 L 248 176 L 241 171 L 231 168 L 215 168 Z M 358 280 L 356 281 L 353 285 L 353 288 L 355 291 L 364 295 Q 373 299 373 313 Q 370 317 364 319 L 351 319 L 346 323 L 346 329 L 350 337 L 349 344 L 342 347 L 328 345 Q 315 340 306 332 Q 289 319 285 294 L 282 291 L 276 292 L 275 295 L 275 303 L 277 310 Q 282 323 290 333 Q 306 351 334 358 L 346 358 L 356 353 L 361 345 L 361 330 L 373 328 L 378 325 Q 383 320 385 311 Q 385 301 380 296 L 369 284 L 364 281 L 358 280 Z "/>
    <path fill="#ffd43b" d="M 240.5 181 Q 243.3 182.2 241 183.5 L 239.5 187 L 239 185.5 L 241 182.5 L 240.5 181 Z "/>
    <path fill="#ffd43b" d="M 273.5 446 L 275 446.5 L 273 447 L 272.5 450 L 272 447.5 L 273.5 446 Z "/>
    <path fill="#ffd43b" d="M 161.5 456 L 164 457 L 163.5 459 L 161.5 456 Z "/>
    <path fill="#ffd43b" d="M 308.5 461 L 315 461.5 L 308.5 462 L 308.5 461 Z "/>
    <path fill="#ffa94d" d="M 219.5 176 L 234.5 178 L 241 182.5 Q 238.4 183.9 239 188.5 Q 233.7 192 232 198 L 229 199.5 L 224.5 205 L 220 206 L 216 199 Q 213.3 200.1 214 197.5 L 211 196 L 203 182.5 L 209.5 178 L 219.5 176 Z "/>
    <path fill="#ffa94d" d="M 183.5 438 L 188.5 440 L 190.5 440 L 201.5 443 L 203.5 443 L 213.5 445 L 215.5 445 Q 220.2 443.7 221.5 446 L 223.5 445 L 229 447.5 L 228 455.5 L 229 456.5 L 224 461.5 Q 224.9 464.5 220.5 463 L 218.5 463 L 215.5 464 L 212.5 463 L 209.5 464 L 200.5 462 L 198.5 462 Q 193.7 463.2 192.5 461 L 189.5 462 L 172.5 460 L 170.5 460 L 164 459 Q 165.1 456.3 162.5 457 L 161 453.5 L 163 448 L 172.5 442 L 183.5 438 Z "/>
    <path fill="#ffa94d" d="M 317.5 438 L 320.5 438 L 326.5 442 Q 328 439.5 329.5 443 Q 336.9 445.6 341 451.5 L 341 455.5 L 339 459 Q 333.8 458 331.5 461 L 328.5 460 L 325.5 461 L 323.5 461 L 315.5 462 Q 314 459.5 308.5 461 L 302.5 463 L 299.5 462 L 290.5 464 L 287.5 463 L 283.5 464 L 279.5 463 L 275 459.5 L 275 458 L 273 457.5 L 273 452.5 L 272 450.5 L 273 447 L 275.5 446 L 277.5 446 L 279.5 445 L 281.5 446 L 282.5 445 L 290.5 445 L 295.5 443 L 297.5 443 L 299.5 442 L 303.5 442 L 317.5 438 Z "/>
  </g>
  <g id="line">
    <path fill="#1a1a1a" d="M 215.5 38 L 245.5 38 L 268.5 42 L 281.5 46 Q 309.8 56.2 328 76.5 L 341 93.5 L 356 125.5 L 365 161.5 L 366 175.5 L 367 176.5 L 367 189.5 L 366 190.5 L 366 197.5 L 364 207.5 L 358 222.5 L 378.5 239 L 387.5 239 L 391.5 237 L 403.5 236 Q 416.3 238.3 422 247.5 L 426 257.5 L 428 267.5 L 429 296.5 L 428 297.5 L 428 306.5 L 427 307.5 L 426 320.5 Q 422.5 327.5 422 337.5 L 416 353.5 Q 402.1 386.6 376.5 408 L 349.5 426 L 336 431 L 337.5 434 L 349 442.5 Q 354.2 446.8 353 457.5 Q 351.5 464 346.5 467 L 338.5 471 L 327.5 472 L 326.5 473 L 309.5 473 L 298.5 475 L 279.5 475 Q 270.5 473.5 266 467.5 Q 260.1 460.2 261 447 L 241 447 L 241 454.5 L 240 459.5 L 233.5 470 L 222.5 475 L 203.5 475 L 192.5 473 L 167.5 472 Q 156.5 470 151 462.5 Q 148 458.5 149 450.5 Q 151.5 442.5 157.5 438 L 166 432.5 Q 166.8 429.9 163.5 431 Q 131.4 418.1 111 393.5 L 100 377.5 L 89 351.5 L 85 330.5 L 85 299.5 L 92 266.5 Q 97.6 247.6 108 233.5 L 108 229.5 L 100 215.5 Q 100 209.5 97 206.5 L 95 195.5 L 95 171.5 L 100 143.5 L 109 115.5 Q 121.8 84.8 145.5 65 L 156.5 57 L 179.5 46 L 192.5 42 L 215.5 38 Z M 215 53 L 198 56 L 180 62 L 171 66 L 156 76 Q 134 93 123 121 L 113 153 L 110 169 L 110 177 L 109 178 L 109 190 L 112 205 L 123 227 L 124 232 Q 122 233 123 238 L 116 248 L 106 271 L 101 291 L 100 305 L 99 306 L 100 333 L 105 354 L 114 373 L 127 389 Q 126 391 129 390 L 130 393 Q 152 413 184 423 L 214 430 L 231 431 L 232 432 L 251 432 L 252 433 L 254 432 L 274 432 L 282 430 L 296 429 L 322 422 Q 348 413 368 396 Q 388 379 400 354 L 407 337 L 411 322 L 413 304 L 414 303 L 414 271 L 410 257 L 403 251 L 397 251 L 387 254 L 378 254 L 369 250 L 355 238 L 345 233 L 340 227 L 341 221 L 348 209 L 352 193 L 352 173 Q 350 171 351 167 L 345 140 L 341 128 Q 332 102 315 85 Q 298 66 271 58 L 246 53 L 215 53 Z M 182 438 L 166 446 L 160 455 L 161 457 L 164 459 L 171 461 L 198 462 L 199 463 L 209 463 L 210 464 L 224 463 L 229 457 L 229 446 L 209 444 L 186 438 L 182 438 Z M 317 438 L 305 442 L 300 442 L 288 445 L 274 446 L 272 448 L 273 458 Q 276 463 284 464 L 333 461 L 339 459 L 341 457 L 340 450 L 337 446 L 324 439 L 317 438 Z "/>
    <path fill="#1a1a1a" d="M 214.5 168 L 230.5 168 L 240.5 171 L 248 175.5 L 251 183.5 L 248 190.5 L 236 207 L 232 209.5 Q 232.8 211.8 230.5 211 Q 227.9 215.9 219.5 215 L 207 204.5 L 197 190.5 L 194 181.5 L 195 177.5 L 198.5 174 L 214.5 168 Z M 220 176 L 210 178 L 203 183 Q 210 196 221 206 Q 225 207 227 204 L 239 189 L 242 183 L 235 178 L 220 176 Z "/>
    <path fill="#1a1a1a" d="M 357.5 280 L 363.5 281 L 368.5 284 L 380 295.5 Q 384.6 300.9 385 310.5 Q 383.4 320 377.5 325 L 372.5 328 L 361 330 L 361 344.5 L 356 353 L 345.5 358 L 333.5 358 Q 305.9 351.1 290 332.5 Q 281.5 323 277 309.5 L 275 302.5 L 275 294.5 L 276 292 L 281.5 291 L 285 293.5 Q 289.1 318.9 305.5 332 Q 314.7 340.3 327.5 345 L 341.5 347 L 349 343.5 L 350 336.5 L 346 328.5 L 346 322.5 L 350.5 319 L 363.5 319 Q 370 317.5 373 312.5 Q 372.8 299.3 363.5 295 L 355 291 L 353 287.5 L 353 284.5 L 355.5 281 L 357.5 280 Z "/>
  </g>
</svg>
