<svg xmlns="http://www.w3.org/2000/svg" width="512" height="512" viewBox="0 0 512 512">
  <g id="color">
    <path fill="#ffffff" d="M 244.5 36 L 270 36.5 L 244.5 37 L 244.5 36 Z "/>
    <path fill="#ffffff" d="M 233.5 37 L 239 37.5 L 233.5 38 L 233.5 37 Z "/>
    <path fill="#ffffff" d="M 275.5 37 L 280 37.5 L 275.5 38 L 275.5 37 Z "/>
    <path fill="#ffffff" d="M 219.5 39 L 223 39.5 L 215.5 41 L 215.5 40 L 219.5 39 Z "/>
    <path fill="#ffffff" d="M 290.5 39 L 298 40.5 L 294.5 41 L 290.5 40 L 290.5 39 Z "/>
    <path fill="#ffffff" d="M 195.5 47 L 194.5 49 L 192.5 50 L 193.5 48 L 195.5 47 Z "/>
    <path fill="#ffffff" d="M 317.5 47 L 321 49.5 L 319.5 49 L 317.5 47 Z "/>
    <path fill="#ffffff" d="M 330.5 59 Q 333.5 62 332 69.5 L 329.5 73 L 330 71.5 Q 332.3 68.3 331 61.5 L 330.5 59 Z "/>
    <path fill="#ffffff" d="M 243.5 60 L 268.5 60 L 269.5 61 L 278.5 61 L 291 64 L 289.5 67 L 273.5 70 L 254.5 71 L 253.5 70 L 232.5 69 L 223.5 67 L 222 65.5 Q 221.2 62.9 224.5 64 L 228.5 62 L 242.5 61 L 243.5 60 Z "/>
    <path fill="#ffffff" d="M 181.5 61 L 183 71.5 L 182 71.5 Q 179.4 67.9 181.5 61 Z "/>
    <path fill="#ffffff" d="M 193.5 81 L 202 85.5 L 200.5 86 L 194.5 83 L 193.5 81 Z "/>
    <path fill="#ffffff" d="M 313.5 84 L 315 84.5 L 311.5 86 L 311.5 85 L 313.5 84 Z "/>
    <path fill="#ffffff" d="M 207.5 87 L 212 88.5 L 209.5 89 L 207.5 87 Z "/>
    <path fill="#ffffff" d="M 301.5 88 L 304 88.5 L 298.5 90 L 298.5 89 L 301.5 88 Z "/>
    <path fill="#ffffff" d="M 228.5 92 L 235 92.5 L 228.5 93 L 228.5 92 Z "/>
    <path fill="#ffffff" d="M 279.5 92 L 285 92.5 L 279.5 93 L 279.5 92 Z "/>
    <path fill="#ffffff" d="M 236.5 93 L 245 93.5 L 236.5 94 L 236.5 93 Z "/>
    <path fill="#ffffff" d="M 270.5 93 L 278 93.5 L 270.5 94 L 270.5 93 Z "/>
    <path fill="#ffffff" d="M 250.5 94 L 263 94.5 L 250.5 95 L 250.5 94 Z "/>
    <path fill="#ffffff" d="M 68.5 97 L 74 103.5 L 71 101.5 L 68.5 97 Z "/>
    <path fill="#ffffff" d="M 243.5 101 L 249 101.5 L 243.5 102 L 243.5 101 Z "/>
    <path fill="#ffffff" d="M 264.5 101 L 270 101.5 L 264.5 102 L 264.5 101 Z "/>
    <path fill="#ffffff" d="M 285.5 105 L 289 106.5 L 287.5 107 L 285.5 105 Z "/>
    <path fill="#ffffff" d="M 224.5 106 L 226 106.5 L 222.5 108 L 222.5 107 L 224.5 106 Z "/>
    <path fill="#ffffff" d="M 471.5 118 L 472 122.5 L 471 122.5 L 471.5 118 Z "/>
    <path fill="#ffffff" d="M 313.5 124 L 320 131.5 L 317 129.5 L 313.5 124 Z "/>
    <path fill="#ffffff" d="M 192.5 133 L 192 134.5 L 190.5 137 L 191 135.5 L 192.5 133 Z "/>
    <path fill="#ffffff" d="M 321.5 135 L 324 138.5 L 322 137.5 L 321.5 135 Z "/>
    <path fill="#ffffff" d="M 186.5 145 L 187 147.5 L 185.5 151 L 185 148.5 L 186.5 145 Z "/>
    <path fill="#ffffff" d="M 326.5 146 L 328 150.5 L 327 150.5 L 326.5 146 Z "/>
    <path fill="#ffffff" d="M 464.5 148 L 465 149.5 L 462.5 154 L 462 152.5 L 464.5 148 Z "/>
    <path fill="#ffffff" d="M 389.5 153 L 388.5 155 L 386.5 156 L 387.5 154 L 389.5 153 Z "/>
    <path fill="#ffffff" d="M 51.5 154 L 54 159.5 L 53 159.5 L 51.5 154 Z "/>
    <path fill="#ffffff" d="M 126.5 155 L 132 158.5 L 130.5 158 Q 126.5 157.5 126.5 155 Z "/>
    <path fill="#ffffff" d="M 139.5 162 L 143 164.5 L 141.5 164 L 139.5 162 Z "/>
    <path fill="#ffffff" d="M 373.5 162 L 372.5 164 L 368.5 166 L 369.5 164 L 373.5 162 Z "/>
    <path fill="#ffffff" d="M 330.5 165 L 331 174.5 L 330 174.5 L 330.5 165 Z "/>
    <path fill="#ffffff" d="M 182.5 166 L 183 173.5 L 182 173.5 L 182.5 166 Z "/>
    <path fill="#ffffff" d="M 148.5 167 L 152 169.5 L 150.5 169 L 148.5 167 Z "/>
    <path fill="#ffffff" d="M 364.5 167 L 363.5 169 L 361.5 170 L 362.5 168 L 364.5 167 Z "/>
    <path fill="#ffffff" d="M 476.5 175 L 477 179.5 L 476 179.5 L 476.5 175 Z "/>
    <path fill="#ffffff" d="M 183.5 179 L 184 183.5 L 183 183.5 L 183.5 179 Z "/>
    <path fill="#ffffff" d="M 476.5 183 L 477 187.5 L 476 187.5 L 476.5 183 Z "/>
    <path fill="#ffffff" d="M 36.5 184 L 37 188.5 L 36 188.5 L 36.5 184 Z "/>
    <path fill="#ffffff" d="M 327.5 192 L 328 194.5 L 326.5 198 L 326 195.5 L 327.5 192 Z "/>
    <path fill="#ffffff" d="M 39.5 196 L 43 202.5 L 41 201.5 L 39.5 196 Z "/>
    <path fill="#ffffff" d="M 473.5 196 L 474 197.5 L 469.5 205 L 470 203.5 L 473.5 196 Z "/>
    <path fill="#ffffff" d="M 180.5 198 L 183 201.5 L 181 200.5 L 180.5 198 Z "/>
    <path fill="#ffffff" d="M 189.5 204 L 192 208.5 L 190 207.5 L 189.5 204 Z "/>
    <path fill="#ffffff" d="M 328.5 205 L 329 206.5 L 326.5 211 L 326 209.5 L 328.5 205 Z "/>
    <path fill="#ffffff" d="M 322.5 206 L 323 207.5 L 320.5 212 L 320 210.5 L 322.5 206 Z "/>
    <path fill="#ffffff" d="M 185.5 207 L 188 212.5 L 187 212.5 L 185.5 207 Z "/>
    <path fill="#ffffff" d="M 192.5 210 L 196 216.5 L 194 215.5 L 192.5 210 Z "/>
    <path fill="#ffffff" d="M 319.5 213 L 319 214.5 L 317.5 217 L 318 215.5 L 319.5 213 Z "/>
    <path fill="#ffffff" d="M 189.5 217 L 192 223.5 L 191 223.5 L 189.5 217 Z "/>
    <path fill="#ffffff" d="M 323.5 217 L 324 218.5 L 322.5 221 L 322 219.5 L 323.5 217 Z "/>
    <path fill="#ffffff" d="M 318.5 232 L 319 234.5 L 318 237 L 316 236.5 L 318.5 232 Z "/>
    <path fill="#ffffff" d="M 202.5 233 L 204 233.5 L 200.5 235 L 200.5 234 L 202.5 233 Z "/>
    <path fill="#ffffff" d="M 309.5 233 L 313 234.5 L 311.5 235 L 309.5 233 Z "/>
    <path fill="#ffffff" d="M 456.5 251 L 457 252.5 L 454.5 256 L 455 254.5 L 456.5 251 Z "/>
    <path fill="#ffffff" d="M 75.5 272 L 81 275.5 L 79.5 276 L 75.5 272 Z "/>
    <path fill="#ffffff" d="M 84.5 277 L 88 278.5 L 86.5 279 L 84.5 277 Z "/>
    <path fill="#ffffff" d="M 425.5 278 L 427 278.5 L 422.5 281 L 423.5 279 L 425.5 278 Z "/>
    <path fill="#ffffff" d="M 89.5 282 L 90 283.5 L 89 284.5 L 89 292.5 L 90 295.5 L 89 295.5 L 88 284.5 L 89.5 282 Z "/>
    <path fill="#ffffff" d="M 423.5 282 Q 426.5 285 425 292.5 L 424 292.5 Q 424.5 285 423.5 282 Z "/>
    <path fill="#ffffff" d="M 409.5 311 L 408.5 313 L 406.5 314 L 407.5 312 L 409.5 311 Z "/>
    <path fill="#ffffff" d="M 105.5 312 L 109 314.5 L 107.5 314 L 105.5 312 Z "/>
    <path fill="#ffffff" d="M 137.5 322 Q 141.3 321.3 142 323.5 L 140.5 328 L 140 325.5 L 141 323 Q 136.6 324 137.5 322 Z "/>
    <path fill="#ffffff" d="M 372.5 322 L 377 322.5 L 371.5 324 L 372.5 322 Z "/>
    <path fill="#ffffff" d="M 137.5 339 L 138 344.5 L 137 344.5 L 137.5 339 Z "/>
    <path fill="#ffffff" d="M 375.5 339 L 376 345.5 L 375 345.5 L 375.5 339 Z "/>
    <path fill="#ffffff" d="M 137.5 354 L 138 358.5 L 137 358.5 L 137.5 354 Z "/>
    <path fill="#ffffff" d="M 375.5 354 L 376 358.5 L 375 358.5 L 375.5 354 Z "/>
    <path fill="#ffffff" d="M 150.5 378 L 157 381.5 L 155.5 382 Q 150.9 380.8 150.5 378 Z "/>
    <path fill="#ffffff" d="M 360.5 379 L 359.5 381 L 356.5 382 L 356.5 381 L 360.5 379 Z "/>
    <path fill="#ffffff" d="M 166.5 383 Q 170.3 381.8 169 385.5 L 168 385.5 Q 168.8 383.3 166.5 384 L 166.5 383 Z "/>
    <path fill="#ffffff" d="M 344 383 L 348 383.5 L 345 384 L 344.5 386 L 344 383 Z "/>
    <path fill="#ffffff" d="M 162.5 412 L 163 416.5 L 162 416.5 L 162.5 412 Z "/>
    <path fill="#ffffff" d="M 350.5 412 L 351 416.5 L 350 416.5 L 350.5 412 Z "/>
    <path fill="#ffffff" d="M 160.5 430 L 161 436.5 L 160 436.5 L 160.5 430 Z "/>
    <path fill="#ffffff" d="M 352.5 430 L 353 437.5 L 352 437.5 L 352.5 430 Z "/>
    <path fill="#ffffff" d="M 162.5 444 L 165 448.5 L 163 447.5 L 162.5 444 Z "/>
    <path fill="#ffffff" d="M 350.5 444 L 351 445.5 L 348.5 449 L 349 447.5 L 350.5 444 Z "/>
    <path fill="#ffffff" d="M 172.5 457 L 177 460.5 L 175.5 460 L 172.5 457 Z "/>
    <path fill="#ffffff" d="M 340.5 457 L 338.5 460 L 336.5 461 L 337.5 459 L 340.5 457 Z "/>
    <path fill="#ffffff" d="M 180.5 462 L 185 464.5 L 183.5 465 L 180.5 462 Z "/>
    <path fill="#ffffff" d="M 332.5 462 L 331.5 464 L 326.5 466 L 326.5 465 L 332.5 462 Z "/>
    <path fill="#ffffff" d="M 321.5 467 L 323 467.5 L 315.5 470 L 315.5 469 L 321.5 467 Z "/>
    <path fill="#ffffff" d="M 302.5 472 L 306 472.5 L 298.5 474 L 298.5 473 L 302.5 472 Z "/>
    <path fill="#ffffff" d="M 226.5 475 L 232 475.5 L 226.5 476 L 226.5 475 Z "/>
    <path fill="#ffffff" d="M 282.5 475 L 288 475.5 L 282.5 476 L 282.5 475 Z "/>
    <path fill="#ffffff" d="M 237.5 476 L 252 476.5 L 237.5 477 L 237.5 476 Z "/>
    <path fill="#ffffff" d="M 265.5 476 L 277 476.5 L 265.5 477 L 265.5 476 Z "/>
    <path fill="#ff6b6b" d="M 274.5 280 L 275.5 282 L 277.5 282 L 279.5 283 L 281 282.5 Q 278.5 284 282 285.5 L 283.5 288 L 285.5 287 Q 286.8 289.3 288 286.5 Q 285.8 285.3 288.5 284 L 291 282.5 L 291.5 281 L 293 281.5 L 293.5 280 L 296 280.5 L 295.5 282 L 298.5 283 L 300 282.5 L 299 284.5 L 300 286.5 L 300 288.5 L 299 291.5 L 299.5 293 Q 297.3 292.3 298 294.5 L 296.5 298 L 295 297.5 L 293 300.5 Q 295.3 301.8 292.5 303 L 291 302.5 Q 291.8 305.1 288.5 304 L 288.5 306 L 286.5 306 L 282.5 305 L 281 305.5 L 281.5 304 L 275 298.5 L 274 295 Q 270.3 296.5 271 293.5 L 271 291.5 L 271 283.5 L 272.5 282 Q 275 282.7 274.5 280 Z "/>
    <path fill="#9775fa" d="M 257.5 44 L 259.5 45 L 275.5 45 L 298.5 49 L 314.5 55 L 323 62.5 L 323 67.5 L 317.5 74 L 297.5 82 L 281.5 85 L 273.5 85 L 272.5 86 L 241.5 86 L 212.5 81 L 197.5 75 L 191 69.5 L 190 62.5 L 196.5 56 L 214.5 49 L 237.5 45 L 256.5 45 L 257.5 44 Z M 246 52 L 245 53 L 237 53 L 226 55 L 214 60 L 213 63 L 214 70 L 221 74 L 240 78 L 275 78 L 286 76 L 298 71 L 300 68 Q 301 62 299 60 L 288 55 L 277 53 L 246 52 Z "/>
    <path fill="#66d9e8" d="M 56.5 103 Q 64.6 102.9 67 108.5 Q 77.1 126.4 91.5 140 L 118.5 161 L 151.5 179 L 169 195.5 L 180 215.5 L 187 235.5 L 188 242.5 Q 175.1 253.1 166 267.5 Q 152.7 288.4 145 314 L 137.5 314 L 118.5 310 Q 106.9 306.1 100 297.5 Q 96 294 97 285.5 L 99 282 L 109.5 284 L 115.5 284 Q 118.8 283.3 118 278.5 L 115.5 276 L 103.5 275 L 87.5 270 L 75.5 263 L 69 256.5 L 63 245.5 L 63 235.5 L 66.5 230 L 69.5 230 L 82.5 238 L 87.5 240 L 91.5 240 Q 94 239 93 234.5 L 71.5 222 L 59 211.5 L 47 193.5 L 44 180.5 L 46 173.5 L 50.5 169 L 59.5 168 L 75.5 186 L 79.5 189 L 83.5 189 Q 86 188 85 183.5 Q 70.6 171.9 61 155.5 L 52 134.5 L 50 125.5 L 50 115.5 L 53 106.5 L 56.5 103 Z "/>
    <path fill="#66d9e8" d="M 452.5 103 Q 459 102 460 106.5 L 463 115.5 L 463 126.5 Q 459.9 143.4 452 155.5 L 444 167.5 L 427 184.5 L 427 186.5 Q 428 190 433.5 189 L 447 176.5 L 453.5 168 Q 464.6 166.4 467 173.5 L 469 183.5 L 463 199.5 L 450.5 215 L 435.5 226 L 422.5 232 L 420 234.5 Q 419 239 421.5 240 L 425.5 240 L 443.5 230 L 446.5 230 Q 450.7 233.8 451 241.5 Q 447.9 255.9 437.5 263 L 420.5 272 L 409.5 275 L 397.5 276 L 395 278.5 Q 394.3 283.3 397.5 284 L 413.5 282 Q 417.5 284.5 416 292.5 L 411 301 L 391.5 311 L 375.5 314 L 368 314 Q 356.6 275.7 332.5 249 L 330 247.5 L 328.5 245 L 325 242.5 L 331 220.5 L 340 201.5 Q 346.9 189.9 357.5 182 L 406.5 153 L 427 134.5 L 450.5 104 L 452.5 103 Z "/>
    <path fill="#66d9e8" d="M 254.5 109 Q 293.2 109.8 310 132.5 L 320 152.5 L 322 163.5 L 322 179.5 Q 315.4 216.4 290.5 235 L 270.5 245 L 265.5 246 L 247.5 246 Q 222.1 239.9 209 221.5 Q 200.2 210.8 195 196.5 L 191 178.5 L 191 162.5 L 194 148.5 L 199 138.5 L 212.5 123 L 228.5 114 L 242.5 110 L 253.5 110 L 254.5 109 Z "/>
    <path fill="#66d9e8" d="M 211.5 239 L 215.5 239 Q 225.6 248.9 241.5 253 L 260.5 255 Q 262.2 252.2 268.5 254 L 280.5 250 Q 290.5 246 297.5 239 L 301.5 239 Q 319 244.5 329 257.5 L 343 276.5 L 354 297.5 L 365 329.5 L 368 344.5 L 368 354.5 Q 366 366.5 357.5 372 L 353.5 374 L 342 375 L 325 307 L 320.5 306 Q 316.8 307.3 318 313.5 L 341 405.5 L 341 411.5 L 344 425.5 L 344 438.5 Q 342.1 448.1 334.5 452 L 319.5 460 L 296.5 466 L 282.5 467 L 281.5 468 L 268.5 468 L 267.5 469 L 245.5 469 L 244.5 468 L 232.5 468 L 231.5 467 L 217.5 466 L 196.5 461 L 184.5 456 L 172 445.5 Q 167.2 439.3 169 426.5 L 177 382.5 L 193 323.5 L 195 308.5 L 190.5 306 L 188 307 L 171 375 L 159.5 374 L 149 365.5 L 145 353.5 L 145 344.5 L 149 325.5 L 160 295.5 L 176 267.5 L 191.5 250 Q 199.5 242.5 211.5 239 Z M 272 277 L 270 278 L 267 281 L 265 287 Q 266 297 272 303 L 275 304 L 276 307 L 284 312 L 289 311 L 301 299 L 305 288 L 303 280 L 299 277 Q 288 275 286 281 L 280 277 L 272 277 Z "/>
    <path fill="#f783ac" d="M 275 280 Q 281.1 280.9 284 286.5 L 283.5 288 L 278.5 282 L 276.5 281 L 275 281.5 L 275 280 Z "/>
    <path fill="#f783ac" d="M 294.5 280 L 299 281 L 301 284.5 L 301 290.5 L 299 291.5 L 300 288.5 L 300 286.5 L 297.5 282 Q 293.7 282.5 294.5 280 Z "/>
    <path fill="#f783ac" d="M 272.5 281 L 274 281.5 L 271 283.5 L 270.5 292 Q 267.5 290.5 269 284.5 L 272.5 281 Z "/>
    <path fill="#f783ac" d="M 298.5 293 L 299 294.5 L 291.5 303 L 295 298.5 L 298.5 293 Z "/>
    <path fill="#f783ac" d="M 272.5 295 Q 274.8 294.3 274 296.5 L 280.5 304 Q 281.9 306.6 286.5 306 L 289.5 304 L 289.5 305 L 284.5 308 L 282 307 Q 283.1 304.3 280.5 305 L 273 297.5 L 272.5 295 Z "/>
  </g>
  <g id="line">
    <path fill="#1a1a1a" d="M 239.5 37 L 274.5 37 L 275.5 38 L 283.5 38 L 298.5 41 L 316.5 47 L 330 58.5 L 331 69.5 L 322.5 80 L 310.5 86 L 293.5 91 L 270.5 93 L 269.5 94 L 245.5 94 L 244.5 93 L 225.5 92 L 202.5 86 Q 190.3 81.7 183 72.5 L 182 60.5 L 186.5 54 L 196.5 47 L 210.5 42 L 239.5 37 Z M 258 44 L 257 45 L 238 45 L 215 49 L 197 56 L 190 63 L 191 70 L 198 75 L 213 81 L 242 86 L 273 86 L 274 85 L 282 85 L 298 82 L 318 74 L 323 68 L 323 63 L 315 55 L 299 49 L 276 45 L 260 45 L 258 44 Z "/>
    <path fill="#1a1a1a" d="M 245.5 52 L 276.5 53 L 287.5 55 L 299 60 Q 300.6 62.1 300 67.5 L 297.5 71 L 285.5 76 L 274.5 78 L 239.5 78 L 220.5 74 L 214 69.5 L 213 62.5 L 214 60 L 225.5 55 L 236.5 53 L 244.5 53 L 245.5 52 Z M 244 60 L 243 61 L 229 62 L 225 64 Q 221 63 222 66 L 224 67 L 233 69 L 254 70 L 255 71 L 274 70 L 290 67 L 291 64 L 279 61 L 270 61 L 269 60 L 244 60 Z "/>
    <path fill="#1a1a1a" d="M 57.5 94 L 64.5 95 L 71 100.5 Q 83.9 122.6 102.5 139 L 119.5 152 L 158.5 174 L 173 187.5 L 185 206.5 L 193 227.5 L 195 237 L 207 231.5 Q 195.5 220 189 203.5 L 184 186.5 L 183 161.5 Q 185.5 160 184 154.5 L 190 137.5 Q 196.1 126.1 205.5 118 Q 216.5 108.5 232.5 104 L 249.5 101 L 263.5 101 L 264.5 102 L 276.5 103 L 289.5 107 Q 303.8 112.7 313 123.5 L 324 139.5 L 328 151.5 L 330 161.5 L 330 179.5 L 326 198.5 L 320 212.5 L 306 231.5 L 318 237 L 322 221.5 L 331 200.5 Q 338.2 187.2 349.5 178 L 365.5 167 L 393.5 152 Q 409.5 141.5 422 127.5 L 446.5 96 L 455.5 94 L 459.5 95 L 467 102.5 Q 472.9 111.1 471 127.5 Q 467.3 146.5 459 160 Q 468.5 160.8 473 167.5 L 476 173.5 L 477 182.5 L 475 193.5 L 469 205.5 L 453 223.5 L 453 225.5 L 458 232.5 L 459 241.5 Q 456.3 258.3 445.5 267 L 435.5 274 L 422 280.5 Q 425.5 284.5 424 293.5 Q 421.2 302.7 414.5 308 L 401.5 316 L 389.5 320 L 372.5 322 L 371 323.5 L 374 332.5 L 376 353.5 L 372 368.5 L 363.5 378 Q 356.5 383.7 344 383 L 351 417.5 L 352 439.5 Q 349.3 450.8 341.5 457 Q 328.9 466.4 311.5 471 L 291.5 475 L 252.5 477 L 251.5 476 L 222.5 475 L 198.5 470 Q 181.6 465.4 170 455.5 Q 158.5 447 161 424.5 L 169 383 L 157.5 382 Q 148.2 378.8 143 371.5 L 138 360.5 L 137 345.5 L 138 344.5 L 139 332.5 L 142 323.5 L 140.5 322 L 128.5 321 L 111.5 316 Q 99.3 310.8 92 300.5 L 89 292.5 L 89 284.5 L 91 280.5 L 72.5 271 L 64 263.5 Q 54.8 255.2 54 238.5 L 56 230.5 L 60 225.5 L 60 223.5 L 44 205.5 L 38 193.5 L 36 179.5 L 38 170.5 L 44.5 163 L 54 160 L 44 136.5 L 42 126.5 L 42 114.5 L 44 106.5 L 48 99 L 53.5 95 L 57.5 94 Z M 57 103 L 53 107 L 50 116 L 50 126 L 52 135 L 61 156 Q 71 172 85 184 Q 86 188 84 189 L 80 189 L 76 186 L 60 168 L 51 169 L 46 174 L 44 181 L 47 194 L 59 212 L 72 222 L 93 235 Q 94 239 92 240 L 88 240 L 83 238 L 70 230 L 67 230 L 63 236 L 63 246 L 69 257 L 76 263 L 88 270 L 104 275 L 116 276 L 118 279 Q 119 283 116 284 L 110 284 L 99 282 L 97 286 Q 96 294 100 298 Q 107 306 119 310 L 138 314 L 145 314 Q 153 288 166 268 Q 175 253 188 243 L 187 236 L 180 216 L 169 196 L 152 179 L 119 161 L 92 140 Q 77 126 67 109 Q 65 103 57 103 Z M 453 103 L 451 104 L 427 135 L 407 153 L 358 182 Q 347 190 340 202 L 331 221 L 325 243 L 329 245 L 330 248 L 333 249 Q 357 276 368 314 L 376 314 L 392 311 L 411 301 L 416 293 Q 417 285 414 282 L 398 284 Q 394 283 395 279 L 398 276 L 410 275 L 421 272 L 438 263 Q 448 256 451 242 Q 451 234 447 230 L 444 230 L 426 240 L 422 240 Q 419 239 420 235 L 423 232 L 436 226 L 451 215 L 463 200 L 469 184 L 467 174 Q 465 166 454 168 L 447 177 L 434 189 Q 428 190 427 187 L 427 185 L 444 168 L 452 156 Q 460 143 463 127 L 463 116 L 460 107 Q 459 102 453 103 Z M 255 109 L 254 110 L 243 110 L 229 114 L 213 123 L 199 139 L 194 149 L 191 163 L 191 179 L 195 197 Q 200 211 209 222 Q 222 240 248 246 L 266 246 L 271 245 L 291 235 Q 315 216 322 180 L 322 164 L 320 153 L 310 133 Q 293 110 255 109 Z M 212 239 Q 200 243 192 250 L 176 268 L 160 296 L 149 326 L 145 345 L 145 354 L 149 366 L 160 374 L 171 375 L 188 307 L 191 306 L 195 309 L 193 324 L 177 383 L 169 427 Q 167 439 172 446 L 185 456 L 197 461 L 218 466 L 232 467 L 233 468 L 245 468 L 246 469 L 268 469 L 269 468 L 282 468 L 283 467 L 297 466 L 320 460 L 335 452 Q 342 448 344 439 L 344 426 L 341 412 L 341 406 L 318 314 Q 317 307 321 306 L 325 307 L 342 375 L 354 374 L 358 372 Q 366 367 368 355 L 368 345 L 365 330 L 354 298 L 343 277 L 329 258 Q 319 245 302 239 L 298 239 Q 290 246 281 250 L 269 254 Q 262 252 261 255 L 242 253 Q 226 249 216 239 L 212 239 Z "/>
    <path fill="#1a1a1a" d="M 271.5 277 L 279.5 277 L 285.5 281 Q 287.8 274.8 298.5 277 L 303 280 L 305 287.5 L 301 298.5 L 288.5 311 L 283.5 312 L 276 307 L 274.5 304 L 272 302.5 Q 265.8 297.2 265 286.5 L 267 280.5 L 269.5 278 L 271.5 277 Z M 275 280 L 269 285 L 269 291 L 273 298 L 285 308 L 293 303 L 301 291 L 300 283 L 296 280 L 292 281 L 285 287 L 281 282 L 275 280 Z "/>
  </g>
</svg>
