<svg xmlns="http://www.w3.org/2000/svg" width="512" height="512" viewBox="0 0 512 512">
  <g id="color">
    <path fill="#ffffff" d="M 246.5 36 L 268 36.5 L 246.5 37 L 246.5 36 Z "/>
    <path fill="#ffffff" d="M 284.5 39 L 290 40.5 L 287.5 41 L 284.5 40 L 284.5 39 Z "/>
    <path fill="#ffffff" d="M 211.5 44 L 213 44.5 L 209.5 46 L 209.5 45 L 211.5 44 Z "/>
    <path fill="#ffffff" d="M 300.5 44 L 304 45.5 L 302.5 46 L 300.5 44 Z "/>
    <path fill="#ffffff" d="M 307.5 47 L 315 50.5 L 313.5 51 L 307.5 48 L 307.5 47 Z "/>
    <path fill="#ffffff" d="M 328.5 59 L 335 64.5 L 331.5 62 L 328.5 59 Z "/>
    <path fill="#ffffff" d="M 243.5 62 L 269.5 62 L 287.5 66 L 296.5 71 L 299 71 Q 297.7 74.3 302.5 73 L 314 80 L 316.5 84 L 327 91.5 L 333 102 Q 335.7 100.9 335 103.5 Q 340.9 108.1 344 115.5 L 346 120.5 L 346 124.5 L 349 128.5 L 352 136.5 L 352 140.5 L 354 142.5 L 330.5 151 L 308.5 156 L 302.5 156 L 287.5 159 L 278.5 159 L 277.5 160 L 235.5 160 L 234.5 159 L 226.5 159 L 225.5 158 L 218.5 158 L 217.5 157 L 200.5 155 L 176.5 149 L 159 142.5 L 161 142 L 162 134.5 L 167 120.5 L 176 108.5 L 178 101.5 L 183.5 95 L 188 92.5 L 197.5 81 L 209 76 L 210.5 73 L 219.5 68 L 243.5 62 Z M 283 83 L 281 85 L 281 89 Q 286 93 287 102 Q 287 112 282 118 L 278 122 L 264 128 L 265 133 L 268 135 L 280 140 L 293 139 L 306 131 L 311 122 L 313 113 L 312 104 L 308 95 Q 303 88 295 84 L 283 83 Z M 222 84 L 220 85 L 217 88 L 215 97 Q 212 100 207 100 Q 201 102 202 111 L 211 117 L 212 119 Q 211 128 214 132 L 218 134 L 224 133 L 231 127 L 241 130 L 245 129 L 248 125 L 248 120 L 245 113 L 251 103 L 250 97 L 248 94 L 244 93 L 236 94 L 231 88 L 227 84 L 222 84 Z "/>
    <path fill="#ffffff" d="M 361.5 96 L 364 99.5 L 362 98.5 L 361.5 96 Z "/>
    <path fill="#ffffff" d="M 150.5 98 L 150 99.5 L 148.5 102 L 149 100.5 L 150.5 98 Z "/>
    <path fill="#ffffff" d="M 146.5 105 L 147 106.5 L 144.5 111 L 144 109.5 L 146.5 105 Z "/>
    <path fill="#ffffff" d="M 370.5 114 L 372 118.5 L 371 118.5 L 370.5 114 Z "/>
    <path fill="#ffffff" d="M 142.5 115 L 143 116.5 L 141.5 119 L 141 117.5 L 142.5 115 Z "/>
    <path fill="#ffffff" d="M 137.5 131 L 138 133.5 L 135.5 139 L 136 137.5 L 137.5 131 Z "/>
    <path fill="#ffffff" d="M 382.5 140 L 388 143.5 L 385.5 142 Q 381.7 141.8 382.5 140 Z "/>
    <path fill="#ffffff" d="M 126.5 142 L 120 149.5 L 118.5 152 L 119 150.5 L 126.5 142 Z "/>
    <path fill="#ffffff" d="M 398.5 162 L 399 168.5 L 398 168.5 L 398.5 162 Z "/>
    <path fill="#ffffff" d="M 397.5 171 L 398 173.5 L 396.5 176 L 396 174.5 L 397.5 171 Z "/>
    <path fill="#ffffff" d="M 118.5 179 L 126 187.5 L 119 181.5 L 118.5 179 Z "/>
    <path fill="#ffffff" d="M 127.5 188 L 134 191.5 L 132.5 192 Q 127.9 190.8 127.5 188 Z "/>
    <path fill="#ffffff" d="M 381.5 190 L 383 190.5 L 379.5 192 L 379.5 191 L 381.5 190 Z "/>
    <path fill="#ffffff" d="M 375.5 194 L 376 196.5 L 374.5 200 L 374 197.5 L 375.5 194 Z "/>
    <path fill="#ffffff" d="M 140.5 204 L 142 207.5 L 141 207.5 L 140.5 204 Z "/>
    <path fill="#ffffff" d="M 371.5 207 L 372 208.5 L 370.5 211 L 370 209.5 L 371.5 207 Z "/>
    <path fill="#ffffff" d="M 148.5 223 L 151 226.5 L 149 225.5 L 148.5 223 Z "/>
    <path fill="#ffffff" d="M 153.5 231 L 157 235.5 L 154 233.5 L 153.5 231 Z "/>
    <path fill="#ffffff" d="M 358.5 233 L 358 234.5 L 355.5 238 L 357 235.5 L 358.5 233 Z "/>
    <path fill="#ffffff" d="M 190.5 268 L 195 271.5 L 193.5 271 L 190.5 268 Z "/>
    <path fill="#ffffff" d="M 316.5 272 L 315.5 274 L 311.5 276 L 312.5 274 L 316.5 272 Z "/>
    <path fill="#ffffff" d="M 198.5 273 L 202 275.5 L 200.5 275 L 198.5 273 Z "/>
    <path fill="#ffffff" d="M 301.5 286 L 302 287.5 L 299.5 291 L 300 289.5 L 301.5 286 Z "/>
    <path fill="#ffffff" d="M 286.5 326 L 288 333.5 L 287 333.5 L 286.5 326 Z "/>
    <path fill="#ffffff" d="M 225.5 333 L 226 335.5 L 224.5 339 L 224 336.5 L 225.5 333 Z "/>
    <path fill="#ffffff" d="M 291.5 345 L 293 348.5 L 292 348.5 L 291.5 345 Z "/>
    <path fill="#ffffff" d="M 220.5 348 L 221 349.5 L 219.5 352 L 219 350.5 L 220.5 348 Z "/>
    <path fill="#ffffff" d="M 294.5 352 L 298 359.5 L 297 359.5 L 294.5 352 Z "/>
    <path fill="#ffffff" d="M 212.5 365 L 213 366.5 L 210.5 371 L 210 369.5 L 212.5 365 Z "/>
    <path fill="#ffffff" d="M 304.5 374 L 306 377.5 L 305 377.5 L 304.5 374 Z "/>
    <path fill="#ffffff" d="M 207.5 377 L 208 378.5 L 206.5 382 L 206 379.5 L 207.5 377 Z "/>
    <path fill="#ffffff" d="M 203.5 389 L 204 391.5 L 202.5 395 L 202 392.5 L 203.5 389 Z "/>
    <path fill="#ffffff" d="M 313.5 407 L 314 425.5 L 313 425.5 L 313.5 407 Z "/>
    <path fill="#ffffff" d="M 199.5 411 L 200 419.5 L 199 419.5 L 199.5 411 Z "/>
    <path fill="#ffffff" d="M 202.5 435 L 204 438.5 L 203 438.5 L 202.5 435 Z "/>
    <path fill="#ffffff" d="M 309.5 439 L 310 440.5 L 308.5 443 L 308 441.5 L 309.5 439 Z "/>
    <path fill="#ffffff" d="M 305.5 448 L 305 449.5 L 303.5 452 L 304 450.5 L 305.5 448 Z "/>
    <path fill="#ffffff" d="M 289.5 466 L 287.5 469 L 285.5 470 L 286.5 468 L 289.5 466 Z "/>
    <path fill="#ffffff" d="M 231.5 471 L 235 472.5 L 233.5 473 L 231.5 471 Z "/>
    <path fill="#ffffff" d="M 278.5 472 L 280 472.5 L 276.5 474 L 276.5 473 L 278.5 472 Z "/>
    <path fill="#ffffff" d="M 247.5 476 L 266 476.5 L 247.5 477 L 247.5 476 Z "/>
    <path fill="#4da3ff" d="M 239 310 L 247.5 312 L 268.5 312 L 275 311 L 274 315.5 L 275 316.5 L 276 331.5 L 281 349.5 L 294 375.5 L 299 389.5 L 300 397.5 L 303 406.5 L 303 425.5 Q 298.9 444.9 286.5 456 L 275.5 463 L 265.5 466 L 248.5 466 Q 235.7 463.3 227 456.5 L 225 453.5 L 224 451 L 221 449.5 L 216 442.5 L 212 432.5 L 212 427.5 L 210 421.5 L 210 410.5 L 212 404.5 L 213 392.5 L 221 371.5 L 230 354.5 L 235 340.5 L 239 323.5 L 238 321.5 L 239 320.5 L 239 310 Z M 233 391 L 230 392 L 227 405 Q 225 424 233 434 L 233 436 Q 236 435 235 438 L 243 444 Q 245 443 244 446 L 253 449 L 261 448 Q 264 447 263 442 L 260 438 Q 253 438 249 435 L 243 430 L 239 420 L 240 394 Q 238 390 233 391 Z "/>
    <path fill="#ffd43b" d="M 245.5 61 L 268 61.5 L 245.5 62 L 245.5 61 Z "/>
    <path fill="#ffd43b" d="M 270.5 62 L 280 63.5 L 276.5 64 Q 275.2 61.7 270.5 63 L 270.5 62 Z "/>
    <path fill="#ffd43b" d="M 234.5 63 L 238 63.5 L 224.5 67 L 224.5 66 L 234.5 63 Z "/>
    <path fill="#ffd43b" d="M 281.5 64 L 287 65.5 L 284.5 66 L 281.5 65 L 281.5 64 Z "/>
    <path fill="#ffd43b" d="M 293.5 68 L 304 73.5 L 302.5 73 L 299 73 Q 300.3 70 296.5 71 L 293.5 68 Z "/>
    <path fill="#ffd43b" d="M 213.5 70 L 215 70.5 L 209 74.5 Q 209.8 77.1 206.5 76 L 200.5 79 L 200.5 78 L 213.5 70 Z "/>
    <path fill="#ffd43b" d="M 309.5 76 L 331 94.5 L 339 106.5 L 335 103.5 L 333 100.5 L 324.5 89 L 314 81.5 Q 314.8 79.3 312.5 80 L 309.5 76 Z "/>
    <path fill="#ffd43b" d="M 196.5 81 L 194 84.5 L 186.5 94 L 181 97.5 L 176 105.5 L 176 108.5 L 169 116.5 L 164.5 128 L 164 126.5 L 176 102.5 L 196.5 81 Z "/>
    <path fill="#ffd43b" d="M 344.5 116 L 351 132.5 L 350 132.5 L 346 124.5 L 346 120.5 L 344.5 116 Z "/>
    <path fill="#ffd43b" d="M 163.5 129 L 164 131.5 L 162.5 134 L 162 132.5 L 163.5 129 Z "/>
    <path fill="#ffd43b" d="M 251.5 214 L 262 214.5 L 251.5 215 L 251.5 214 Z "/>
    <path fill="#ff6b6b" d="M 138.5 147 L 147.5 147 L 158 151.5 L 157.5 153 L 161.5 154 L 163 153.5 L 163.5 155 L 166 154 Q 164.9 156.7 167.5 156 L 170 155 L 170.5 157 L 172.5 156 L 183 159.5 L 182.5 161 L 185.5 160 L 186 162 L 189.5 161 Q 191 164.5 192.5 162 L 194.5 163 L 196 162.5 L 195.5 164 L 200.5 163 L 202.5 165 L 205.5 164 L 212 165 Q 210.9 167.7 213.5 167 L 216.5 166 L 219 166 Q 217.8 169 221.5 168 Q 222.8 165.7 227.5 167 L 227.5 169 Q 233 166.5 242.5 168 L 242.5 169 L 239 169.5 L 245.5 170 L 247.5 170 L 250.5 169 L 255.5 170 L 259.5 169 L 262.5 170 L 268.5 169 Q 269.8 171.2 274.5 170 L 274.5 169 L 272 168.5 L 280.5 168 L 283.5 169 L 287 168.5 L 285 167.5 L 289.5 167 L 292.5 168 L 295.5 166 L 300.5 167 L 302.5 165 L 308 166 Q 306.7 162.7 311.5 164 L 313.5 165 L 313.5 163 L 315.5 164 L 318 163.5 Q 317.2 160.9 320.5 162 Q 322 164.5 323.5 161 L 338.5 158 L 341.5 156 L 344 157 Q 342.8 154 346.5 155 L 348.5 154 L 350.5 155 L 350.5 153 L 354.5 152 L 356 152.5 L 356.5 151 L 358.5 152 L 358.5 150 L 360.5 151 L 361 149 Q 365.3 146 374.5 147 L 378.5 149 Q 380.8 148.3 380 150.5 L 382 150.5 Q 379.8 151.8 382.5 153 L 387 155.5 L 389 161.5 L 388 166.5 L 389 171.5 L 383.5 179 L 380.5 181 L 378 181.5 L 377.5 183 L 376 182.5 Q 376.9 185.5 372.5 184 L 370 184.5 Q 370.8 187.1 367.5 186 L 365.5 187 L 364 186.5 Q 364.8 189.1 361.5 188 L 360 187.5 L 359.5 189 L 357 188 Q 358.3 191 354.5 190 Q 351 193.2 344 192 Q 345.3 195 341.5 194 L 333.5 196 L 332 195.5 Q 332.9 198.5 328.5 197 L 315.5 200 L 313 199 Q 314.4 202.7 308.5 201 L 307 200.5 Q 307.9 203.5 303.5 202 L 301 201 Q 302.3 204.3 297.5 203 Q 296.3 200.8 291.5 202 L 291.5 203 L 293 203.5 L 290.5 204 L 288.5 204 L 286.5 203 L 284.5 204 L 280.5 203 L 280.5 204 L 282 204.5 L 275.5 205 L 273.5 204 L 270.5 205 L 267.5 204 L 253.5 205 Q 252 202.5 246.5 204 L 240.5 204 L 232 205 Q 233.1 202.3 230.5 203 L 228.5 204 L 226.5 204 L 221 203.5 L 223 202.5 L 220.5 202 L 217.5 203 L 214 203 Q 215.1 200.3 212.5 201 L 210.5 201 L 207.5 202 L 205.5 200 L 202.5 201 Q 200.3 201.8 201 199.5 L 197.5 200 L 191 199 L 190.5 197 L 187.5 198 L 182 197 L 181.5 195 L 177.5 196 L 173 194.5 L 173.5 193 L 170 194 L 169.5 192 L 166.5 193 Q 164.8 189.9 163 191.5 Q 163.8 189.3 161.5 190 L 160.5 191 Q 158.8 187.9 157 189.5 L 157.5 188 L 154.5 189 L 151.5 187 L 149.5 187 Q 146.2 188.1 147 185.5 L 145.5 186 L 139.5 183 L 138 183.5 L 137.5 182 L 135.5 183 L 132 180.5 L 131.5 179 L 130.5 180 L 127 176.5 L 124 168.5 L 124 166.5 Q 122.5 159.5 125.5 160 L 126 157.5 L 131.5 150 L 133.5 149 L 135 149.5 Q 134.2 146.9 137.5 148 L 138.5 147 Z "/>
    <path fill="#ffa94d" d="M 251.5 45 L 254.5 46 Q 255.8 43.8 260.5 45 L 261.5 46 L 278.5 47 L 282.5 49 L 284.5 49 L 296.5 52 L 314.5 61 L 322 66.5 Q 321.3 68.8 323.5 68 L 337 79.5 L 338.5 82 L 343 85.5 L 354 100.5 L 360 112.5 L 367 132.5 L 367 137.5 L 359.5 141 Q 358 138.5 356.5 142 Q 351.7 143.7 353 139.5 L 351 130.5 L 341 108 Q 338 109.3 339 105.5 Q 332.2 94.3 322.5 86 L 306.5 74 L 283.5 64 L 267.5 61 L 245.5 61 L 226.5 65 Q 224.6 68.6 218.5 68 L 200 78 Q 201.1 80.7 198.5 80 L 179 98.5 L 166 120.5 L 162 132.5 L 162 136.5 L 158.5 143 L 153.5 140 L 147.5 139 L 146 137.5 L 151 117.5 L 162 96 Q 164.7 97.1 164 94.5 Q 171.1 82.6 181.5 74 Q 183.8 74.8 183 72.5 L 200.5 60 L 205 59 Q 203.7 55.7 208.5 57 L 214.5 53 Q 216 55.5 217.5 52 L 234.5 47 L 250.5 46 L 251.5 45 Z "/>
    <path fill="#ffa94d" d="M 148 197 Q 154.9 196.2 158.5 200 L 160.5 200 L 169.5 202 L 175.5 205 L 177.5 205 L 180.5 206 L 182.5 206 L 185.5 207 L 187.5 207 L 202.5 210 L 208.5 210 L 219.5 213 L 222.5 212 L 231.5 214 L 233.5 213 L 234.5 214 L 261.5 215 L 262.5 214 Q 274 215.5 281.5 213 L 283.5 213 L 297.5 212 L 306.5 210 L 308.5 210 L 322.5 207 L 324.5 207 L 340.5 203 L 342.5 203 L 348.5 202 L 357.5 198 L 359.5 198 L 365 197 L 361 210.5 L 347 235 Q 344.3 233.9 345 236.5 L 338.5 244 L 335.5 246 L 329.5 253 L 326 254 L 324.5 257 L 313.5 264 L 309.5 265 L 298 274.5 L 296 279 Q 293 277.8 294 281.5 L 290 287.5 L 285.5 294 L 277.5 299 L 266.5 302 L 264.5 301 L 263.5 302 L 248.5 302 L 238.5 300 L 236.5 298 Q 235 300.5 233.5 297 L 231.5 297 L 225 291.5 L 219 279.5 L 210.5 270 L 187.5 256 L 174 243.5 L 167 235.5 L 155 216.5 L 148 197 Z "/>
    <path fill="#66d9e8" d="M 288.5 87 Q 297.1 88.9 302 94.5 L 308 105.5 L 308 116.5 Q 305.6 126.1 298.5 131 Q 292.5 137 278.5 135 L 271 132 Q 269.3 127.9 273.5 129 Q 280.9 126.9 285 121.5 Q 292.9 114.4 291 97.5 L 287 89.5 L 288.5 87 Z "/>
    <path fill="#66d9e8" d="M 223.5 88 L 227 90.5 L 231.5 97 L 233.5 98 L 244.5 98 L 247 100.5 L 241 109.5 L 241 115.5 L 244 122.5 L 243 125 L 238.5 125 L 230.5 122 L 220.5 129 L 218.5 129 L 217 127.5 Q 218.3 117.9 215 114 Q 209.4 112.5 206 107.5 L 207.5 105 L 219 99.5 L 221 90.5 L 223.5 88 Z "/>
    <path fill="#66d9e8" d="M 238.5 309 L 251.5 310 L 252.5 311 L 261.5 311 L 262.5 310 L 276 309 L 276 321.5 L 280 340.5 L 284 352.5 L 297 378.5 L 302 394.5 L 305 408.5 L 305 423.5 Q 301.1 446.1 286.5 458 L 277.5 464 L 264.5 468 L 249.5 468 Q 232.6 464.9 223 454.5 L 212 437.5 L 208 415.5 L 209 414.5 L 209 405.5 L 211 394.5 L 221 367.5 L 228 355.5 L 235 334.5 L 237 323.5 L 237 310.5 L 238.5 309 Z M 239 310 L 239 321 L 238 322 L 239 324 L 235 341 L 230 355 L 221 372 L 213 393 L 212 405 L 210 411 L 210 422 L 212 428 L 212 433 L 216 443 L 221 450 L 224 451 L 225 454 L 227 457 Q 236 463 249 466 L 266 466 L 276 463 L 287 456 Q 299 445 303 426 L 303 407 L 300 398 L 299 390 L 294 376 L 281 350 L 276 332 L 275 317 L 274 316 L 275 311 L 269 312 L 248 312 L 239 310 Z "/>
    <path fill="#66d9e8" d="M 232.5 391 Q 238.3 390.2 240 393.5 L 239 419.5 L 243 429.5 L 248.5 435 Q 252.5 438 259.5 438 L 263 441.5 Q 263.6 446.6 260.5 448 L 252.5 449 L 244 446 Q 245.1 443.3 242.5 444 L 235 437.5 Q 235.7 434.9 233 436 L 233 433.5 Q 225.5 423.5 227 404.5 L 230 392 L 232.5 391 Z M 234 392 L 231 395 L 229 403 Q 227 425 236 437 L 249 446 L 260 447 Q 262 446 261 442 L 259 439 Q 251 440 248 436 Q 239 430 237 419 Q 235 405 239 397 L 238 393 L 234 392 Z "/>
    <path fill="#f783ac" d="M 380.5 150 L 385 153.5 L 383.5 153 L 380.5 150 Z "/>
    <path fill="#f783ac" d="M 157.5 152 L 162 153.5 L 159.5 154 L 157.5 152 Z "/>
    <path fill="#f783ac" d="M 388.5 162 L 389 166.5 L 388 166.5 L 388.5 162 Z "/>
    <path fill="#f783ac" d="M 239.5 169 L 246 169.5 L 239.5 170 L 239.5 169 Z "/>
    <path fill="#f783ac" d="M 251.5 169 L 256 169.5 L 251.5 170 L 251.5 169 Z "/>
    <path fill="#f783ac" d="M 269.5 169 L 275 169.5 L 269.5 170 L 269.5 169 Z "/>
    <path fill="#f783ac" d="M 155.5 188 L 159 189.5 L 157.5 189 Q 154.5 189.5 155.5 188 Z "/>
    <path fill="#f783ac" d="M 291.5 202 L 297 202.5 L 291.5 203 L 291.5 202 Z "/>
    <path fill="#f783ac" d="M 246.5 204 L 253 204.5 L 246.5 205 L 246.5 204 Z "/>
  </g>
  <g id="line">
    <path fill="#1a1a1a" d="M 241.5 37 L 271.5 37 L 297.5 43 L 323.5 56 Q 337.4 65.1 348 77.5 Q 360.7 91.8 369 110.5 L 374 124.5 L 377 139 Q 385.7 140.5 391 146.5 Q 399.3 153.7 398 170.5 Q 395.7 180.2 389.5 186 Q 384.3 191 376 192 L 373 204.5 L 363 226.5 L 346 250 L 343 251.5 L 340.5 255 Q 327.2 267.7 309.5 276 L 304 281.5 Q 299.6 294.1 290.5 302 L 285 305.5 L 286 330.5 L 291 346.5 L 306 378.5 L 311 395.5 L 313 406.5 L 313 426.5 Q 308.1 452.6 290.5 466 L 272.5 475 L 267.5 476 L 245.5 476 L 230.5 471 L 214 457.5 L 209 450.5 L 202 434.5 L 200 424.5 L 200 407.5 L 201 406.5 L 202 395.5 L 209 373.5 L 221 349.5 L 226 335.5 L 228 324.5 L 228 305.5 L 216 294.5 L 210 282.5 L 203.5 276 Q 179.2 264.3 163 244.5 L 148 222.5 L 136.5 192 Q 125.4 189.6 120 181.5 Q 114.5 175 115 162.5 Q 117.2 148.2 127.5 142 L 137 137.5 L 139 125.5 L 148 102.5 Q 158.6 82.6 174.5 68 Q 189.1 54.6 208.5 46 L 222.5 41 L 241.5 37 Z M 252 45 L 251 46 L 235 47 L 215 53 Q 198 60 185 71 Q 168 85 157 105 L 149 123 L 146 138 L 156 142 L 184 151 L 206 156 L 226 158 L 227 159 L 235 159 L 236 160 L 278 160 L 279 159 L 288 159 L 303 156 L 309 156 L 341 148 L 367 138 L 366 129 L 360 113 Q 354 98 344 87 Q 332 72 317 62 L 297 52 L 279 47 L 252 45 Z M 139 147 L 132 150 Q 126 154 124 161 Q 122 172 127 177 L 136 183 L 174 195 L 187 197 L 196 200 L 221 203 L 222 204 L 232 204 L 233 205 L 282 205 L 283 204 L 301 203 L 341 195 L 370 186 L 373 184 L 376 184 L 382 181 L 387 176 L 390 166 L 387 156 Q 383 149 375 147 L 367 147 L 356 152 L 323 162 L 302 166 L 286 167 L 285 168 L 273 168 L 272 169 L 244 169 L 243 168 L 229 168 L 228 167 L 213 166 L 207 164 L 187 161 L 161 153 L 148 147 L 139 147 Z M 148 197 L 155 217 Q 162 231 173 243 Q 188 260 211 270 Q 220 278 224 291 L 236 299 L 248 302 L 267 302 L 278 299 L 285 295 L 293 285 L 298 275 L 306 268 Q 319 262 330 253 Q 355 232 365 197 L 358 198 L 332 206 Q 320 206 312 210 L 299 211 L 298 212 L 289 212 L 288 213 L 279 213 L 278 214 L 236 214 L 226 212 L 217 212 L 178 205 L 153 197 L 148 197 Z M 239 309 L 237 311 L 237 324 L 235 335 L 228 356 L 221 368 L 211 395 L 209 406 L 209 415 L 208 416 L 212 438 L 223 455 Q 233 465 250 468 L 265 468 L 278 464 L 287 458 Q 301 446 305 424 L 305 409 L 302 395 L 297 379 L 284 353 L 280 341 L 276 322 L 276 309 L 263 310 L 262 311 L 253 311 L 252 310 L 239 309 Z "/>
    <path fill="#1a1a1a" d="M 282.5 83 L 294.5 84 Q 302.9 87.6 308 94.5 L 312 103.5 L 313 112.5 L 311 121.5 L 306 131 L 292.5 139 L 279.5 140 L 267.5 135 L 265 132.5 L 264 127.5 L 277.5 122 L 282 117.5 Q 286.8 111.8 287 101.5 Q 285.7 93.3 281 88.5 L 281 84.5 L 282.5 83 Z M 289 87 L 287 89 L 291 98 Q 293 114 285 122 L 279 127 L 270 131 L 275 134 L 279 135 Q 293 137 299 131 Q 306 126 308 117 L 308 106 L 302 95 Q 297 89 289 87 Z "/>
    <path fill="#1a1a1a" d="M 221.5 84 L 226.5 84 L 231 87.5 L 235.5 94 L 243.5 93 L 247.5 94 L 250 96.5 L 251 102.5 L 245 112.5 L 248 119.5 L 248 124.5 L 244.5 129 L 240.5 130 L 230.5 127 L 223.5 133 L 217.5 134 L 214 132 Q 211 127.8 212 118.5 L 210.5 117 L 202 110.5 Q 200.5 101.5 206.5 100 Q 212.3 99.8 215 96.5 L 217 87.5 L 219.5 85 L 221.5 84 Z M 224 88 L 221 91 L 219 100 L 208 105 L 206 108 Q 209 112 215 114 Q 218 118 217 128 L 219 129 L 221 129 L 231 122 L 239 125 L 243 125 L 244 123 L 241 116 L 241 110 L 247 101 L 245 98 L 234 98 L 232 97 L 227 91 L 224 88 Z "/>
    <path fill="#1a1a1a" d="M 234.5 392 L 238 394.5 L 239 396.5 Q 235.3 404.8 237 418.5 Q 239.4 430.1 247.5 436 Q 250.7 439.8 258.5 439 L 261 441.5 Q 262 446 259.5 447 L 248.5 446 L 236 436.5 Q 227 425 229 402.5 L 232.5 393 L 234.5 392 Z "/>
  </g>
</svg>
