<svg xmlns="http://www.w3.org/2000/svg" width="512" height="512" viewBox="0 0 512 512">
  <g id="color">
    <path fill="#ffffff" d="M 196.5 120 L 210 120.5 L 196.5 121 L 196.5 120 Z "/>
    <path fill="#ffffff" d="M 188.5 121 L 194 121.5 L 188.5 122 L 188.5 121 Z "/>
    <path fill="#ffffff" d="M 212.5 121 L 219 121.5 L 212.5 122 L 212.5 121 Z "/>
    <path fill="#ffffff" d="M 173.5 124 L 176 124.5 L 170.5 126 L 170.5 125 L 173.5 124 Z "/>
    <path fill="#ffffff" d="M 367.5 128 L 384 128.5 L 367.5 129 L 367.5 128 Z "/>
    <path fill="#ffffff" d="M 413.5 128 L 423 128.5 L 413.5 129 L 413.5 128 Z "/>
    <path fill="#ffffff" d="M 159.5 129 L 161 129.5 L 155.5 132 L 155.5 131 L 159.5 129 Z "/>
    <path fill="#ffffff" d="M 347.5 129 L 359 129.5 L 347.5 130 L 347.5 129 Z "/>
    <path fill="#ffffff" d="M 427.5 129 L 434 129.5 L 427.5 130 L 427.5 129 Z "/>
    <path fill="#ffffff" d="M 330.5 130 L 344 130.5 L 330.5 131 L 330.5 130 Z "/>
    <path fill="#ffffff" d="M 315.5 131 L 325 131.5 L 315.5 132 L 315.5 131 Z "/>
    <path fill="#ffffff" d="M 294.5 132 L 306 132.5 L 294.5 133 L 294.5 132 Z "/>
    <path fill="#ffffff" d="M 252.5 133 L 257 134.5 L 253.5 135 L 252.5 133 Z "/>
    <path fill="#ffffff" d="M 263.5 133 L 283 133.5 L 263.5 134 L 263.5 133 Z "/>
    <path fill="#ffffff" d="M 450.5 133 L 458 135.5 L 456.5 136 L 450.5 134 L 450.5 133 Z "/>
    <path fill="#ffffff" d="M 141.5 138 L 140.5 140 L 138.5 141 L 139.5 139 L 141.5 138 Z "/>
    <path fill="#ffffff" d="M 467.5 141 L 473 147.5 L 471 146.5 L 467.5 141 Z "/>
    <path fill="#ffffff" d="M 134.5 142 L 133.5 144 L 130.5 146 L 132.5 143 L 134.5 142 Z "/>
    <path fill="#ffffff" d="M 126.5 147 L 125.5 149 L 123.5 150 L 124.5 148 L 126.5 147 Z "/>
    <path fill="#ffffff" d="M 476.5 156 L 477 163.5 L 476 163.5 L 476.5 156 Z "/>
    <path fill="#ffffff" d="M 475.5 165 L 476 167.5 L 474.5 170 L 474 168.5 L 475.5 165 Z "/>
    <path fill="#ffffff" d="M 86.5 174 L 85.5 176 L 83.5 177 L 84.5 175 L 86.5 174 Z "/>
    <path fill="#ffffff" d="M 75.5 179 L 77 179.5 L 72.5 181 L 72.5 180 L 75.5 179 Z "/>
    <path fill="#ffffff" d="M 465.5 179 L 463.5 182 L 461.5 183 L 462.5 181 L 465.5 179 Z "/>
    <path fill="#ffffff" d="M 456.5 184 L 458 184.5 L 454.5 186 L 454.5 185 L 456.5 184 Z "/>
    <path fill="#ffffff" d="M 46.5 192 L 47 194.5 L 45.5 197 L 45 195.5 L 46.5 192 Z "/>
    <path fill="#ffffff" d="M 421.5 193 L 426 193.5 L 421.5 194 L 421.5 193 Z "/>
    <path fill="#ffffff" d="M 415.5 194 L 420 194.5 L 415.5 195 L 415.5 194 Z "/>
    <path fill="#ffffff" d="M 407.5 195 L 413 195.5 L 407.5 196 L 407.5 195 Z "/>
    <path fill="#ffffff" d="M 397.5 196 L 402 196.5 L 397.5 197 L 397.5 196 Z "/>
    <path fill="#ffffff" d="M 386.5 197 L 392 197.5 L 386.5 198 L 386.5 197 Z "/>
    <path fill="#ffffff" d="M 373.5 198 L 382 198.5 L 373.5 199 L 373.5 198 Z "/>
    <path fill="#ffffff" d="M 364.5 199 L 371 199.5 L 364.5 200 L 364.5 199 Z "/>
    <path fill="#ffffff" d="M 352.5 200 L 359 200.5 L 352.5 201 L 352.5 200 Z "/>
    <path fill="#ffffff" d="M 341.5 201 L 347 201.5 L 341 202.5 L 344.5 207 L 340 202.5 L 341.5 201 Z "/>
    <path fill="#ffffff" d="M 41.5 213 L 42 217.5 L 41 217.5 L 41.5 213 Z "/>
    <path fill="#ffffff" d="M 40.5 219 L 41 223.5 L 40 223.5 L 40.5 219 Z "/>
    <path fill="#ffffff" d="M 39.5 227 L 40 231.5 L 39 231.5 L 39.5 227 Z "/>
    <path fill="#ffffff" d="M 353.5 229 L 354 239.5 L 353 239.5 L 353.5 229 Z "/>
    <path fill="#ffffff" d="M 38.5 236 L 39 241.5 L 38 241.5 L 38.5 236 Z "/>
    <path fill="#ffffff" d="M 37.5 246 L 38 257.5 L 37 257.5 L 37.5 246 Z "/>
    <path fill="#ffffff" d="M 349.5 252 L 349 253.5 L 347.5 256 L 348 254.5 L 349.5 252 Z "/>
    <path fill="#ffffff" d="M 36.5 261 L 37 288.5 L 36 288.5 L 36.5 261 Z "/>
    <path fill="#ffffff" d="M 343.5 277 L 345 280.5 L 344 280.5 L 343.5 277 Z "/>
    <path fill="#ffffff" d="M 346.5 289 L 347 296.5 L 346 296.5 L 346.5 289 Z "/>
    <path fill="#ffffff" d="M 37.5 292 L 38 302.5 L 37 302.5 L 37.5 292 Z "/>
    <path fill="#ffffff" d="M 38.5 307 L 39 312.5 L 38 312.5 L 38.5 307 Z "/>
    <path fill="#ffffff" d="M 343.5 307 L 344 308.5 L 341.5 312 L 342 310.5 L 343.5 307 Z "/>
    <path fill="#ffffff" d="M 39.5 317 L 40 321.5 L 39 321.5 L 39.5 317 Z "/>
    <path fill="#ffffff" d="M 327.5 326 L 326.5 328 L 324.5 329 L 325.5 327 L 327.5 326 Z "/>
    <path fill="#ffffff" d="M 325.5 342 L 326 349.5 L 325 349.5 L 325.5 342 Z "/>
    <path fill="#ffffff" d="M 45.5 348 L 47 352.5 L 46 352.5 L 45.5 348 Z "/>
    <path fill="#ffffff" d="M 65.5 362 L 75 362.5 L 65.5 363 L 65.5 362 Z "/>
    <path fill="#ffffff" d="M 76.5 363 L 81 363.5 L 76.5 364 L 76.5 363 Z "/>
    <path fill="#ffffff" d="M 104.5 371 L 108 372.5 L 106.5 373 L 104.5 371 Z "/>
    <path fill="#ffffff" d="M 306.5 375 L 305.5 377 L 301.5 379 L 302.5 377 L 306.5 375 Z "/>
    <path fill="#ffffff" d="M 117.5 376 L 121 377.5 L 119.5 378 L 117.5 376 Z "/>
    <path fill="#ffffff" d="M 259.5 384 L 279 384.5 L 259.5 385 L 259.5 384 Z "/>
    <path fill="#ffffff" d="M 166.5 389 L 172 389.5 L 166.5 390 L 166.5 389 Z "/>
    <path fill="#ffffff" d="M 222.5 389 L 228 389.5 L 222.5 390 L 222.5 389 Z "/>
    <path fill="#ffffff" d="M 175.5 390 L 187 390.5 L 175.5 391 L 175.5 390 Z "/>
    <path fill="#ffffff" d="M 206.5 390 L 218 390.5 L 206.5 391 L 206.5 390 Z "/>
    <path fill="#ffffff" d="M 193.5 391 L 202 391.5 L 193.5 392 L 193.5 391 Z "/>
    <path fill="#4da3ff" d="M 228.5 341 L 232.5 341 L 238 345.5 L 241 349.5 L 243 360.5 L 242 365.5 L 239.5 369 Q 228.4 366.6 223 358.5 L 222 348.5 L 226.5 342 L 228.5 341 Z "/>
    <path fill="#ffd43b" d="M 46.5 279 L 47 283.5 L 46 283.5 L 46.5 279 Z "/>
    <path fill="#ffd43b" d="M 288.5 326 L 294 326.5 L 288.5 327 L 288.5 326 Z "/>
    <path fill="#ffd43b" d="M 194.5 381 L 204 381.5 L 194.5 382 L 194.5 381 Z "/>
    <path fill="#ffa94d" d="M 200.5 130 L 205.5 131 L 207.5 131 L 223.5 132 L 244 139 Q 242.9 141.7 245.5 141 L 256 150.5 L 262 162.5 L 264 171.5 L 266 173.5 L 273 195.5 L 259.5 196 L 255.5 198 L 248 205.5 Q 243 212 245 225.5 L 248 230.5 Q 245.5 232 249 233.5 L 254 243 L 262 248 L 261.5 250 L 251.5 250 L 236 244 Q 237.1 241.3 234.5 242 L 222 230.5 L 220 227.5 L 214 218.5 L 213 214 Q 210.3 215.1 211 212.5 L 209 208.5 L 207 196.5 L 204.5 193 Q 198 192 197 196.5 L 198 205.5 L 196 213.5 L 196 215.5 L 195 218.5 L 195 220.5 L 191 232.5 L 183 247 Q 180.3 245.9 181 248.5 L 171.5 258 L 170 258 Q 171.1 260.7 168.5 260 L 164.5 264 L 143.5 275 L 126 280 L 125 285.5 Q 126.3 289.7 132.5 289 L 143.5 286 L 145.5 284 L 162.5 277 L 185 260 L 198 241.5 L 204 226.5 L 204 223 Q 207 221.8 206 225.5 L 212 232.5 L 213 236 L 215 236 L 215 238 Q 217.7 236.9 217 239.5 L 218 241.5 L 217 242.5 L 216 253.5 L 217 256.5 Q 219.8 266.3 227.5 271 Q 229.8 270.3 229 272.5 L 222 278.5 L 215 287.5 L 212 297.5 L 212 306.5 Q 213.6 315.9 219.5 321 L 229 328.5 L 224 330 Q 225.1 332.7 222.5 332 L 213 342.5 L 211 349.5 L 211 356.5 Q 215 367.5 223.5 374 L 231 377.5 Q 231.8 380.1 228.5 379 L 226.5 379 L 213.5 381 L 211.5 381 Q 206 379.5 204.5 382 L 203.5 381 L 194.5 381 L 191.5 382 L 190.5 381 L 179.5 381 L 177.5 380 L 175.5 380 Q 169.2 381.7 167.5 379 L 165.5 379 Q 156.9 379.1 151.5 376 L 149.5 376 L 139.5 374 L 95.5 357 L 87.5 356 L 83.5 354 L 81.5 354 L 78.5 353 L 76.5 353 L 68.5 352 L 65.5 353 L 60.5 352 L 58.5 353 L 55 347.5 L 51 332.5 L 51 330.5 L 50 328.5 L 50 326.5 L 49 313.5 L 48 312.5 L 48 303.5 L 47 302.5 L 47 300.5 Q 48.7 292.3 46 288.5 L 46 286.5 L 47 279.5 L 46 276.5 L 46 274.5 L 47 265.5 L 46 261.5 L 47 258.5 Q 45.7 251.7 48 248.5 L 48 246.5 L 48 238.5 L 49 237.5 L 49 235.5 Q 47.5 230 50 228.5 L 50 226.5 L 50 220.5 L 55 196.5 L 57.5 193 L 70.5 192 L 80.5 189 L 101 178 Q 99.9 175.3 102.5 176 L 135.5 153 L 155.5 142 L 179.5 133 Q 186.2 133.7 189.5 131 L 191.5 132 L 200.5 130 Z "/>
    <path fill="#ffa94d" d="M 366.5 138 L 369.5 139 L 370.5 138 L 423.5 138 L 429.5 140 L 431.5 139 L 450.5 143 Q 459.3 146.3 465 152.5 L 467 157.5 L 467 159.5 Q 466.9 167.9 461.5 171 L 443.5 180 Q 442 177.5 440.5 181 L 423.5 183 L 418.5 185 L 416.5 185 L 403.5 186 L 402.5 187 L 400.5 187 L 390.5 187 L 380.5 189 L 378.5 188 L 370.5 190 L 368.5 189 L 357.5 191 L 355.5 191 L 335.5 192 L 334.5 193 L 332.5 192 L 331.5 193 L 319.5 193 L 318.5 194 L 314.5 193 L 312.5 193 L 306.5 195 L 304.5 195 Q 300.5 194.5 300 197.5 Q 299 203 302.5 204 L 309.5 203 L 312.5 204 Q 314.3 201.3 320.5 203 L 323.5 204 L 333 208 L 333 210 Q 335.7 208.9 335 211.5 Q 341 216.5 343 225.5 L 344 239.5 L 338 253 L 336 253 Q 337.1 255.7 334.5 255 L 326.5 261 L 309.5 267 L 299.5 269 L 290.5 269 L 289.5 270 L 259.5 270 L 256.5 269 L 251.5 269 L 239.5 266 L 229 260 L 228 255 L 226 255 L 226 249 L 228.5 249 L 236.5 255 L 247.5 259 L 249.5 259 L 265.5 260 L 279 255 Q 277.9 252.3 280.5 253 L 285 249.5 L 291 237.5 L 291 223.5 L 285 200.5 L 273 167.5 L 272 160.5 L 264 144 L 268.5 143 L 270.5 144 L 271.5 143 L 293.5 143 L 295.5 142 L 297.5 143 L 298.5 142 L 315.5 142 L 316.5 141 L 320.5 141 L 330.5 141 L 331.5 140 L 334.5 141 L 335.5 140 L 347.5 140 L 349.5 139 L 351.5 140 L 352.5 139 L 365.5 139 L 366.5 138 Z "/>
    <path fill="#ffa94d" d="M 326.5 271 Q 333.2 275.8 336 284.5 L 337 295.5 L 335 304.5 L 323.5 318 L 312.5 323 L 294.5 327 Q 293.3 324.7 288.5 326 L 287.5 327 L 276.5 327 L 274.5 326 L 272.5 326 L 270.5 327 L 268.5 327 L 260.5 325 L 256.5 325 L 246.5 324 L 240.5 321 L 237.5 321 L 231.5 317 L 230.5 318 L 224 311.5 L 221 301.5 L 224 291 Q 226.7 292.1 226 289.5 L 227 287 Q 229.7 288.1 229 285.5 Q 234.8 279.3 243.5 276 L 246.5 278 L 248.5 278 L 264.5 279 L 265.5 280 L 284.5 280 L 286.5 279 L 288.5 279 Q 298.8 280.3 304.5 277 L 306.5 277 L 317.5 275 L 326.5 271 Z "/>
    <path fill="#ffa94d" d="M 246.5 333 L 274.5 337 L 278.5 336 L 282.5 336 L 286.5 337 L 287.5 336 L 303.5 335 L 310.5 333 L 313 335.5 L 316 344.5 L 315 347.5 L 315 349.5 Q 313.5 359.5 306.5 364 L 288.5 373 L 277.5 374 L 276.5 375 L 261.5 375 L 259.5 374 L 257.5 374 L 246 373 L 247 367.5 L 249 365.5 L 249 354.5 Q 247 343.5 239.5 338 L 237 336.5 Q 236.3 334.3 238.5 335 L 246.5 333 Z "/>
    <path fill="#66d9e8" d="M 228.5 339 L 233.5 340 L 240 345.5 L 244 354.5 L 244 364.5 L 239.5 371 Q 228.6 368.4 223 360.5 Q 219.5 356.5 221 347.5 L 225.5 341 L 228.5 339 Z M 229 341 L 227 342 L 222 349 L 223 359 Q 228 367 240 369 L 242 366 L 243 361 L 241 350 L 238 346 L 233 341 L 229 341 Z "/>
    <path fill="#f783ac" d="M 261.5 201 Q 271.9 199.6 276 204.5 Q 281.7 215.8 282 232.5 L 279 241.5 L 274.5 246 L 268.5 247 L 256 236.5 L 250 224.5 L 250 213.5 L 257.5 203 L 261.5 201 Z "/>
  </g>
  <g id="line">
    <path fill="#1a1a1a" d="M 194.5 121 L 211.5 121 L 212.5 122 L 226.5 123 L 240.5 127 L 253.5 135 L 256.5 135 L 257.5 134 L 282.5 134 L 283.5 133 L 305.5 133 L 306.5 132 L 343.5 131 L 344.5 130 L 358.5 130 L 359.5 129 L 412.5 128 L 413.5 129 L 426.5 129 L 427.5 130 L 435.5 130 L 446.5 132 L 462.5 138 L 471 145.5 L 476 155.5 L 476 164.5 L 474 170.5 L 466.5 179 L 451.5 187 L 433.5 192 L 421.5 193 L 414.5 195 L 407.5 195 L 406.5 196 L 397.5 196 L 396.5 197 L 341.5 201 L 340 202.5 Q 354 214 353 240.5 L 350 251.5 L 338.5 265 Q 335.9 264.2 337 267.5 L 341 272.5 L 345 281.5 Q 347.4 288.6 346 299.5 Q 342.4 315.4 331.5 324 L 321 330.5 L 324 336.5 L 325 350.5 Q 321.4 366.4 309.5 374 L 300.5 379 L 282.5 384 L 255.5 384 L 231.5 389 L 206.5 390 L 205.5 391 L 187.5 391 L 186.5 390 L 163.5 389 L 139.5 384 L 88.5 365 L 74.5 362 L 55.5 362 L 49 357.5 L 44 344.5 L 39 316.5 L 38 292.5 L 37 291.5 L 37 258.5 L 38 257.5 L 39 232.5 L 40 231.5 L 40 224.5 L 41 223.5 L 43 206.5 L 47 191.5 L 50.5 186 L 53.5 184 L 74.5 181 L 85.5 176 L 122.5 150 L 154.5 132 L 176.5 124 L 186.5 122 L 193.5 122 L 194.5 121 Z M 201 130 L 200 131 L 190 131 L 180 133 L 162 139 L 136 153 L 93 183 L 71 192 L 58 193 L 55 197 L 50 221 L 49 236 L 48 237 L 48 247 L 47 248 L 47 259 L 46 260 L 46 290 L 47 291 L 47 303 L 48 304 L 49 322 L 54 346 L 59 353 L 62 352 L 77 353 L 92 356 L 133 372 L 151 377 L 167 380 L 191 381 L 192 382 L 218 381 L 232 379 L 222 372 L 213 362 L 211 354 L 212 346 L 216 339 L 228 329 Q 230 330 229 328 L 225 325 Q 215 319 212 306 L 212 299 L 214 291 Q 219 281 228 274 Q 230 275 229 272 L 226 269 Q 218 264 216 253 L 218 243 L 217 239 Q 210 233 207 225 L 204 223 Q 199 244 186 258 Q 174 270 159 279 L 131 289 L 128 288 Q 124 287 125 283 L 130 279 L 149 273 L 169 261 Q 185 249 193 229 L 197 215 L 198 196 L 203 193 L 205 194 Q 209 201 210 212 L 220 229 L 237 244 L 252 250 L 262 250 Q 263 247 261 248 Q 249 240 245 225 L 245 213 L 249 205 Q 253 199 261 196 L 273 196 L 263 168 L 262 162 L 256 151 L 247 141 L 232 134 L 218 131 L 201 130 Z M 367 138 L 366 139 L 316 141 L 315 142 L 267 143 L 264 144 L 272 162 L 273 168 L 287 208 L 291 225 L 291 236 L 287 247 L 277 256 L 264 260 Q 240 260 228 249 L 226 249 L 226 255 L 229 260 L 240 266 L 258 270 L 292 270 L 293 269 L 307 268 L 323 263 L 335 256 Q 341 250 344 240 Q 345 221 336 212 Q 331 206 323 203 L 309 203 L 308 204 L 301 203 L 300 198 L 303 195 L 308 194 L 335 193 L 336 192 L 371 190 L 372 189 L 420 185 Q 428 181 441 181 L 447 178 L 450 178 L 462 171 L 467 163 Q 468 156 465 153 L 461 148 L 451 143 L 432 139 Q 425 141 424 138 L 367 138 Z M 262 201 L 258 203 L 250 214 L 250 225 L 256 237 L 269 247 L 275 246 L 279 242 L 282 233 Q 282 216 276 205 Q 272 200 262 201 Z M 327 271 L 321 274 L 304 278 L 286 279 L 285 280 L 254 279 L 244 276 L 232 283 L 224 292 L 221 302 L 224 312 L 235 320 L 247 324 L 258 326 L 267 326 L 268 327 L 295 327 L 314 323 L 324 318 L 334 307 L 337 296 Q 337 278 327 271 Z M 246 333 L 239 335 Q 236 334 237 337 L 241 339 L 245 345 L 249 355 L 249 364 L 246 373 L 259 375 L 278 375 L 279 374 L 290 373 L 306 365 Q 314 360 316 349 Q 316 338 311 333 L 296 336 L 264 336 L 263 335 L 256 335 L 246 333 Z M 229 339 L 226 341 L 221 348 Q 219 357 223 361 Q 229 368 240 371 L 244 365 L 244 355 L 240 346 L 234 340 L 229 339 Z "/>
  </g>
</svg>
