<svg xmlns="http://www.w3.org/2000/svg" width="512" height="512" viewBox="0 0 512 512">
  <g id="color">
    <path fill="#ffffff" d="M 245.5 37 L 269 37.5 L 245.5 38 L 245.5 37 Z "/>
    <path fill="#ffffff" d="M 270.5 38 L 275 38.5 L 270.5 39 L 270.5 38 Z "/>
    <path fill="#ffffff" d="M 281.5 40 L 286 41.5 L 284.5 42 L 281.5 41 L 281.5 40 Z "/>
    <path fill="#ffffff" d="M 224.5 42 L 226 42.5 L 221.5 45 L 222.5 43 L 224.5 42 Z "/>
    <path fill="#ffffff" d="M 287.5 42 L 292 44.5 L 290.5 44 Q 286.8 43.8 287.5 42 Z "/>
    <path fill="#ffffff" d="M 219.5 45 L 218.5 47 L 209.5 55 L 217.5 46 L 219.5 45 Z "/>
    <path fill="#ffffff" d="M 293.5 45 L 304 54.5 L 295.5 47 L 293.5 45 Z "/>
    <path fill="#ffffff" d="M 150.5 56 L 162 56.5 L 150.5 57 L 150.5 56 Z "/>
    <path fill="#ffffff" d="M 304.5 56 L 307 59.5 L 305 58.5 L 304.5 56 Z "/>
    <path fill="#ffffff" d="M 350.5 56 L 362 56.5 L 350.5 57 L 350.5 56 Z "/>
    <path fill="#ffffff" d="M 140.5 58 L 143 58.5 L 138.5 60 L 138.5 59 L 140.5 58 Z "/>
    <path fill="#ffffff" d="M 166.5 58 L 171 60.5 L 169.5 60 Q 165.7 59.8 166.5 58 Z "/>
    <path fill="#ffffff" d="M 344.5 58 L 346 58.5 L 341.5 61 L 342.5 59 L 344.5 58 Z "/>
    <path fill="#ffffff" d="M 369.5 58 L 375 59.5 L 372.5 60 L 369.5 59 L 369.5 58 Z "/>
    <path fill="#ffffff" d="M 131.5 61 L 133 61.5 L 127.5 64 L 127.5 63 L 131.5 61 Z "/>
    <path fill="#ffffff" d="M 307.5 61 L 310 66.5 L 309 66.5 L 307.5 61 Z "/>
    <path fill="#ffffff" d="M 379.5 61 L 383 62.5 L 381.5 63 L 379.5 61 Z "/>
    <path fill="#ffffff" d="M 176.5 64 L 190 80.5 L 187 78.5 L 176.5 64 Z "/>
    <path fill="#ffffff" d="M 249.5 66 L 270.5 67 L 278 71.5 Q 281.8 76.2 282 84.5 L 279.5 86 L 278.5 85 L 235.5 85 L 232.5 86 L 231 82.5 L 236 70 L 242.5 67 Q 248 68.5 249.5 66 Z "/>
    <path fill="#ffffff" d="M 390.5 66 L 394 68.5 L 392.5 68 L 390.5 66 Z "/>
    <path fill="#ffffff" d="M 310.5 69 L 313 77.5 L 312 77.5 L 310.5 69 Z "/>
    <path fill="#ffffff" d="M 395.5 69 L 405 77.5 L 398.5 72 L 395.5 69 Z "/>
    <path fill="#ffffff" d="M 329.5 70 L 330 71.5 L 325.5 77 L 326 75.5 L 329.5 70 Z "/>
    <path fill="#ffffff" d="M 200.5 75 L 201 78.5 L 199.5 83 L 199 79.5 L 200.5 75 Z "/>
    <path fill="#ffffff" d="M 105.5 80 L 105 81.5 L 103.5 84 L 104 82.5 L 105.5 80 Z "/>
    <path fill="#ffffff" d="M 406.5 80 L 409 83.5 L 407 82.5 L 406.5 80 Z "/>
    <path fill="#ffffff" d="M 190.5 82 L 193 85.5 L 191 84.5 L 190.5 82 Z "/>
    <path fill="#ffffff" d="M 102.5 85 L 103 86.5 L 100.5 91 L 100 89.5 L 102.5 85 Z "/>
    <path fill="#ffffff" d="M 314.5 85 L 316 91.5 L 314 90.5 L 314.5 85 Z "/>
    <path fill="#ffffff" d="M 409.5 85 L 412 90.5 L 411 90.5 L 409.5 85 Z "/>
    <path fill="#ffffff" d="M 193.5 87 L 197 91.5 L 194 89.5 L 193.5 87 Z "/>
    <path fill="#ffffff" d="M 318.5 87 L 319 88.5 L 317.5 91 L 317 89.5 L 318.5 87 Z "/>
    <path fill="#ffffff" d="M 99.5 92 L 100 93.5 L 98.5 96 L 98 94.5 L 99.5 92 Z "/>
    <path fill="#ffffff" d="M 412.5 92 L 414 95.5 L 413 95.5 L 412.5 92 Z "/>
    <path fill="#ffffff" d="M 96.5 101 L 97 102.5 L 95.5 106 L 95 103.5 L 96.5 101 Z "/>
    <path fill="#ffffff" d="M 415.5 101 L 418 109.5 L 417 109.5 L 415.5 101 Z "/>
    <path fill="#ffffff" d="M 137 109 L 140 110.5 L 146 122.5 L 146 125.5 L 132.5 144 L 132 135.5 L 137 109 Z "/>
    <path fill="#ffffff" d="M 374.5 109 L 377 116.5 L 380 143 Q 377.3 144.1 378 141.5 L 366 125.5 L 366 122.5 L 372 112.5 L 372 110 L 374.5 109 Z "/>
    <path fill="#ffffff" d="M 92.5 115 L 93 118.5 L 91.5 123 L 91 119.5 L 92.5 115 Z "/>
    <path fill="#ffffff" d="M 90.5 126 L 91 130.5 L 90 130.5 L 90.5 126 Z "/>
    <path fill="#ffffff" d="M 421.5 126 L 422 130.5 L 421 130.5 L 421.5 126 Z "/>
    <path fill="#ffffff" d="M 89.5 132 L 90 137.5 L 88.5 144 L 88 138.5 L 89.5 132 Z "/>
    <path fill="#ffffff" d="M 422.5 132 L 424 142.5 L 423 142.5 L 422.5 132 Z "/>
    <path fill="#ffffff" d="M 424.5 147 L 425 151.5 L 424 151.5 L 424.5 147 Z "/>
    <path fill="#ffffff" d="M 87.5 148 L 88 152.5 L 87 152.5 L 87.5 148 Z "/>
    <path fill="#ffffff" d="M 425.5 153 L 426 162.5 L 425 162.5 L 425.5 153 Z "/>
    <path fill="#ffffff" d="M 86.5 156 L 87 163.5 L 86 163.5 L 86.5 156 Z "/>
    <path fill="#ffffff" d="M 426.5 164 L 427 172.5 L 426 172.5 L 426.5 164 Z "/>
    <path fill="#ffffff" d="M 85.5 165 L 86 173.5 L 85 173.5 L 85.5 165 Z "/>
    <path fill="#ffffff" d="M 84.5 179 L 85 186.5 L 84 186.5 L 84.5 179 Z "/>
    <path fill="#ffffff" d="M 427.5 179 L 428 187.5 L 427 187.5 L 427.5 179 Z "/>
    <path fill="#ffffff" d="M 428.5 190 L 429 201.5 L 428 201.5 L 428.5 190 Z "/>
    <path fill="#ffffff" d="M 83.5 192 L 84 201.5 L 83 201.5 L 83.5 192 Z "/>
    <path fill="#ffffff" d="M 82.5 203 L 83 213.5 L 82 213.5 L 82.5 203 Z "/>
    <path fill="#ffffff" d="M 429.5 203 L 430 212.5 L 429 212.5 L 429.5 203 Z "/>
    <path fill="#ffffff" d="M 430.5 218 L 431 226.5 L 430 226.5 L 430.5 218 Z "/>
    <path fill="#ffffff" d="M 81.5 219 L 82 227.5 L 81 227.5 L 81.5 219 Z "/>
    <path fill="#ffffff" d="M 431.5 230 L 433 235.5 L 431 234.5 L 431.5 230 Z "/>
    <path fill="#ffffff" d="M 80.5 232 L 81 234.5 L 78.5 236 L 78.5 235 Q 81.4 235.7 80.5 232 Z "/>
    <path fill="#ffffff" d="M 71.5 241 L 71 242.5 L 70.5 246 L 70 242.5 L 71.5 241 Z "/>
    <path fill="#ffffff" d="M 440.5 241 L 442 244.5 L 441 244.5 L 440.5 241 Z "/>
    <path fill="#ffffff" d="M 443.5 251 L 444 260.5 L 443 260.5 L 443.5 251 Z "/>
    <path fill="#ffffff" d="M 68.5 254 L 69 259.5 L 68 259.5 L 68.5 254 Z "/>
    <path fill="#ffffff" d="M 69.5 262 L 72 265.5 L 70 264.5 L 69.5 262 Z "/>
    <path fill="#ffffff" d="M 434.5 268 L 435 278.5 L 434 278.5 L 434.5 268 Z "/>
    <path fill="#ffffff" d="M 77.5 272 L 78 280.5 L 77 280.5 L 77.5 272 Z "/>
    <path fill="#ffffff" d="M 435.5 280 L 436 289.5 L 435 289.5 L 435.5 280 Z "/>
    <path fill="#ffffff" d="M 76.5 282 L 77 291.5 L 76 291.5 L 76.5 282 Z "/>
    <path fill="#ffffff" d="M 436.5 296 L 437 300.5 L 436 300.5 L 436.5 296 Z "/>
    <path fill="#ffffff" d="M 69.5 306 L 68 308.5 L 66.5 311 L 67 309.5 L 69.5 306 Z "/>
    <path fill="#ffffff" d="M 442.5 306 L 448 315.5 L 447 315.5 L 442.5 306 Z "/>
    <path fill="#ffffff" d="M 65.5 312 L 66 313.5 L 64.5 316 L 64 314.5 L 65.5 312 Z "/>
    <path fill="#ffffff" d="M 62.5 320 L 63 322.5 L 61.5 327 L 61 323.5 L 62.5 320 Z "/>
    <path fill="#ffffff" d="M 449.5 320 L 451 326.5 L 450 326.5 L 449.5 320 Z "/>
    <path fill="#ffffff" d="M 452.5 334 L 454 340.5 L 454 349.5 L 453 349.5 L 452.5 334 Z "/>
    <path fill="#ffffff" d="M 58.5 339 L 59 348.5 L 58 348.5 L 58.5 339 Z "/>
    <path fill="#ffffff" d="M 57.5 351 L 58 388.5 L 57 388.5 L 57.5 351 Z "/>
    <path fill="#ffffff" d="M 454.5 353 L 455 387.5 L 454 387.5 L 454.5 353 Z "/>
    <path fill="#ffffff" d="M 58.5 390 L 59 395.5 L 58 395.5 L 58.5 390 Z "/>
    <path fill="#ffffff" d="M 453.5 390 L 454 395.5 L 452.5 399 L 452 396.5 L 453.5 390 Z "/>
    <path fill="#ffffff" d="M 60.5 401 L 63 407.5 L 62 407.5 Q 59 405 60.5 401 Z "/>
    <path fill="#ffffff" d="M 450.5 404 L 451 405.5 L 449.5 408 L 449 406.5 L 450.5 404 Z "/>
    <path fill="#ffffff" d="M 448.5 409 L 448 410.5 L 446.5 413 L 447 411.5 L 448.5 409 Z "/>
    <path fill="#ffffff" d="M 74.5 421 L 78 423.5 L 76.5 423 L 74.5 421 Z "/>
    <path fill="#ffffff" d="M 437.5 421 L 436.5 423 L 434.5 424 L 435.5 422 L 437.5 421 Z "/>
    <path fill="#ffffff" d="M 81.5 425 L 87 426.5 L 84.5 427 L 81.5 426 L 81.5 425 Z "/>
    <path fill="#ffffff" d="M 428.5 425 L 431 425.5 L 425.5 427 L 425.5 426 L 428.5 425 Z "/>
    <path fill="#ffffff" d="M 88.5 427 L 93 427.5 L 88.5 428 L 88.5 427 Z "/>
    <path fill="#ffffff" d="M 419.5 427 L 424 427.5 L 419.5 428 L 419.5 427 Z "/>
    <path fill="#ffffff" d="M 97.5 431 L 100 436.5 L 98 435.5 L 97.5 431 Z "/>
    <path fill="#ffffff" d="M 413.5 433 L 414 434.5 L 412.5 437 L 412 435.5 L 413.5 433 Z "/>
    <path fill="#ffffff" d="M 100.5 438 L 103 442.5 L 101 441.5 L 100.5 438 Z "/>
    <path fill="#ffffff" d="M 402.5 450 L 398.5 455 L 396.5 456 L 397.5 454 L 402.5 450 Z "/>
    <path fill="#ffffff" d="M 111.5 452 L 116 455.5 L 114.5 455 L 111.5 452 Z "/>
    <path fill="#ffffff" d="M 393.5 456 L 395 456.5 L 389.5 459 L 389.5 458 L 393.5 456 Z "/>
    <path fill="#ffffff" d="M 124.5 459 L 128 460.5 L 126.5 461 L 124.5 459 Z "/>
    <path fill="#ffffff" d="M 386.5 459 L 388 459.5 L 384.5 461 L 384.5 460 L 386.5 459 Z "/>
    <path fill="#ffffff" d="M 132.5 462 L 138 463.5 L 135.5 464 L 132.5 463 L 132.5 462 Z "/>
    <path fill="#ffffff" d="M 377.5 462 L 380 462.5 L 374.5 464 L 374.5 463 L 377.5 462 Z "/>
    <path fill="#ffffff" d="M 143.5 465 L 151 466.5 L 147.5 467 L 143.5 466 L 143.5 465 Z "/>
    <path fill="#ffffff" d="M 158.5 468 L 168 469.5 L 162.5 470 L 158.5 469 L 158.5 468 Z "/>
    <path fill="#ffffff" d="M 350.5 468 L 354 468.5 L 345.5 470 L 345.5 469 L 350.5 468 Z "/>
    <path fill="#ffffff" d="M 169.5 470 L 174 470.5 L 169.5 471 L 169.5 470 Z "/>
    <path fill="#ffffff" d="M 337.5 470 L 343 470.5 L 337.5 471 L 337.5 470 Z "/>
    <path fill="#ffffff" d="M 178.5 471 L 184 471.5 L 178.5 472 L 178.5 471 Z "/>
    <path fill="#ffffff" d="M 327.5 471 L 333 471.5 L 326.5 473 L 318.5 473 L 318.5 472 L 326.5 472 L 327.5 471 Z "/>
    <path fill="#ffffff" d="M 185.5 472 L 194 472.5 L 185.5 473 L 185.5 472 Z "/>
    <path fill="#ffffff" d="M 196.5 473 L 203 473.5 L 196.5 474 L 196.5 473 Z "/>
    <path fill="#ffffff" d="M 308.5 473 L 316 473.5 L 308.5 474 L 308.5 473 Z "/>
    <path fill="#ffffff" d="M 211.5 474 L 222 474.5 L 211.5 475 L 211.5 474 Z "/>
    <path fill="#ffffff" d="M 290.5 474 L 301 474.5 L 290.5 475 L 290.5 474 Z "/>
    <path fill="#ffffff" d="M 225.5 475 L 249 475.5 L 225.5 476 L 225.5 475 Z "/>
    <path fill="#ffffff" d="M 262.5 475 L 287 475.5 L 262.5 476 L 262.5 475 Z "/>
    <path fill="#ffd43b" d="M 253.5 46 L 268.5 47 L 284.5 51 Q 292 54 296 60.5 L 303 74.5 L 304 89 Q 300.6 87.3 293.5 88 L 291 85.5 Q 291 70 282.5 63 L 272.5 58 Q 267.8 59.3 266.5 57 L 247.5 57 Q 236.2 59 229 64 L 224 73.5 L 222 80.5 L 222 85.5 L 220.5 87 L 218.5 88 L 208 88 L 212 69.5 L 221.5 55 L 234.5 49 L 252.5 47 L 253.5 46 Z "/>
    <path fill="#ffd43b" d="M 149.5 66 Q 158.4 64.6 163.5 67 L 174 75.5 Q 182 83 186 94.5 L 169.5 103 L 153 116 Q 144.4 96.4 128.5 83 L 121 78.5 L 128.5 73 L 149.5 66 Z "/>
    <path fill="#ffd43b" d="M 350.5 66 L 361.5 66 L 370.5 68 L 385.5 74 L 391 78.5 Q 380.8 83.8 374 92.5 Q 364.9 102.2 360 115 L 357.5 116 L 345.5 105 L 326 94.5 Q 331.8 80.3 342.5 71 L 350.5 66 Z "/>
    <path fill="#ffd43b" d="M 113.5 86 Q 125.1 89.4 131 98.5 L 125 121.5 L 124 135.5 L 122 142.5 L 122 162.5 Q 119.5 164 121 169.5 L 116 180.5 L 109 204.5 L 103 232.5 L 103 239 L 100.5 240 L 91.5 238 L 90 236.5 L 91 214.5 L 92 213.5 L 92 199.5 L 93 198.5 L 94 174.5 L 95 173.5 L 95 163.5 L 97 154.5 L 98 136.5 L 100 131.5 L 101 120.5 L 104 107.5 L 109 93.5 L 113.5 86 Z "/>
    <path fill="#ffd43b" d="M 396.5 86 Q 400.5 85.5 401 88.5 L 408 107.5 L 415 143.5 L 415 152.5 L 417 161.5 L 417 171.5 L 418 172.5 L 418 184.5 L 419 185.5 L 419 197.5 L 420 198.5 L 420 213.5 L 421 214.5 L 422 236.5 L 420.5 238 L 410.5 240 L 409 238.5 L 406 216.5 L 399 189.5 L 394 174.5 L 391 169.5 L 390 141.5 L 388 134.5 L 387 120.5 L 381 98.5 L 396.5 86 Z "/>
    <path fill="#ffd43b" d="M 150.5 134 L 152 135.5 L 152 157.5 L 153 158.5 L 153 167.5 L 155 177.5 Q 160.6 194.4 172.5 205 Q 185.8 214.2 204.5 218 L 223.5 220 L 224.5 221 L 265.5 222 L 266.5 221 L 294.5 220 L 319.5 215 L 333.5 209 L 347 197.5 L 354 185.5 L 359 168.5 L 360.5 134 L 368 142.5 L 381 166.5 Q 390.1 188.4 396 213.5 L 399 228.5 L 399 234.5 L 402 245.5 L 402 254.5 L 403 255.5 L 404 271.5 L 405 272.5 L 407 310.5 L 408 311.5 L 408 321.5 L 409 322.5 L 410 342.5 L 411 343.5 L 412 389.5 L 411 390.5 L 411 401.5 L 410 402.5 L 408 421.5 L 401 438.5 L 395.5 445 L 382.5 452 L 349.5 460 L 320.5 463 L 319.5 464 L 306.5 464 L 305.5 465 L 269.5 466 L 268.5 467 L 242.5 467 L 241.5 466 L 192.5 464 L 191.5 463 L 151.5 458 L 147.5 456 L 129.5 452 L 117.5 446 L 113 441.5 L 107 431.5 L 103 416.5 L 101 392.5 L 100 391.5 L 100 361.5 L 101 360.5 L 101 343.5 L 102 342.5 L 102 332.5 L 103 331.5 L 103 321.5 L 104 320.5 L 105 296.5 L 106 295.5 L 107 270.5 L 110 254.5 L 110 246.5 L 117 208.5 L 132 164.5 L 141 147.5 L 150.5 134 Z M 382 241 L 380 243 L 384 257 L 385 272 L 386 273 L 386 284 L 385 285 Q 383 292 388 290 L 389 288 L 389 264 L 387 257 L 387 251 L 384 243 L 382 241 Z M 236 269 L 235 270 L 212 270 L 211 271 L 202 271 L 195 273 L 189 273 L 172 279 L 161 291 L 156 304 L 150 329 L 147 352 L 146 353 L 146 362 L 145 363 L 146 391 L 152 407 Q 161 417 176 422 L 209 428 L 232 429 L 233 430 L 279 430 L 280 429 L 304 428 L 337 422 L 354 413 Q 361 408 364 399 L 367 382 L 367 362 L 366 361 L 366 352 L 363 340 L 362 329 L 354 298 L 349 288 Q 344 280 335 276 L 312 271 L 279 270 L 278 269 L 236 269 Z "/>
    <path fill="#ffd43b" d="M 80.5 245 L 101 249 L 100 261.5 L 98.5 263 L 81.5 260 L 78 257.5 Q 77.2 249.2 80.5 245 Z "/>
    <path fill="#ffd43b" d="M 428.5 245 Q 432.3 244.3 433 246.5 L 434 257.5 L 430.5 260 L 414.5 263 L 412 260.5 Q 412.8 252.8 411 249 L 428.5 245 Z "/>
    <path fill="#ffd43b" d="M 88.5 270 L 98 272 L 97 293.5 L 95.5 295 L 85.5 295 L 85 293.5 L 86 292.5 L 86 277.5 Q 88.3 276.3 87 271.5 L 88.5 270 Z "/>
    <path fill="#ffd43b" d="M 422.5 270 L 425 271.5 L 426 292.5 L 427 295 L 424.5 296 Q 422.8 293.3 416.5 295 L 415 293.5 L 414 272 L 422.5 270 Z "/>
    <path fill="#ffd43b" d="M 236.5 278 L 279.5 278 L 280.5 279 L 311.5 280 L 332.5 285 L 340 290.5 L 346 301.5 L 343.5 304 L 315.5 309 L 309.5 309 L 308.5 310 L 298.5 310 L 287.5 312 L 274.5 312 L 273.5 313 L 239.5 313 L 238.5 312 L 226.5 312 L 225.5 311 L 215.5 311 L 214.5 310 L 205.5 310 L 197.5 308 L 182.5 307 L 167.5 304 L 166 302.5 Q 168.4 292.4 175.5 287 L 193.5 281 L 214.5 280 L 215.5 279 L 235.5 279 L 236.5 278 Z "/>
    <path fill="#ffd43b" d="M 89.5 304 L 96 304 L 96 308.5 L 95 309.5 L 94 333.5 L 93 334.5 L 92 356.5 L 91 357.5 L 91 391.5 L 92 392.5 L 94 418 Q 79.3 417.4 73 407.5 L 67 390.5 L 67 347.5 L 68 346.5 L 68 338.5 L 70 327.5 L 73 318.5 Q 75.3 311.8 80.5 308 L 89.5 304 Z "/>
    <path fill="#ffd43b" d="M 416 304 L 426.5 305 L 436 312.5 L 442 327.5 L 444 346.5 L 445 347.5 L 445 390.5 L 439 407.5 L 431.5 415 L 422.5 418 L 418 418 L 420 390.5 L 421 389.5 L 421 359.5 L 420 358.5 L 420 345.5 L 419 344.5 L 419 334.5 L 418 333.5 L 418 323.5 L 417 322.5 L 416 304 Z "/>
    <path fill="#ffd43b" d="M 165.5 312 L 184 316 Q 185 323.3 180.5 326 L 176 329.5 Q 172.5 333.5 174 342.5 L 179.5 349 L 187.5 351 Q 194.9 349.9 198 344.5 L 200 337.5 L 199 332.5 L 192 324.5 L 192 322.5 L 194.5 317 L 213.5 319 L 214.5 320 L 225.5 320 L 226.5 321 L 269.5 322 L 270.5 321 L 285.5 321 L 286.5 320 L 298.5 320 L 314.5 317 L 322.5 317 L 347.5 312 L 350 316.5 L 356 345.5 L 356 352.5 L 358 361.5 L 358 383.5 L 354 398.5 L 348.5 406 L 337.5 412 L 318.5 417 L 293.5 419 L 292.5 420 L 281.5 420 L 280.5 421 L 257.5 421 L 255.5 422 L 254.5 421 L 232.5 421 L 231.5 420 L 209.5 419 L 208.5 418 L 200.5 418 L 184.5 415 L 174.5 412 L 164.5 407 L 160 402.5 L 157 396.5 L 154 384.5 L 154 361.5 L 155 360.5 L 157 339.5 L 163 313 L 165.5 312 Z M 336 366 L 337 370 Q 339 386 333 393 L 321 399 Q 314 400 311 398 L 309 401 L 315 403 L 323 403 L 331 400 L 338 393 L 342 381 L 341 369 Q 340 365 336 366 Z "/>
    <path fill="#ffd43b" d="M 186.5 332 L 191 335.5 Q 192 341 188.5 342 Q 183.8 342.8 183 339.5 Q 181.8 334.3 184.5 333 L 186.5 332 Z "/>
    <path fill="#9775fa" d="M 234.5 94 L 278.5 94 L 279.5 95 L 289.5 95 L 304.5 98 L 327.5 105 L 347 117 L 350 123.5 L 351 146.5 L 352 149.5 L 351 150.5 L 350 167.5 L 346 181.5 Q 341.8 191.8 333.5 198 L 321.5 205 L 295.5 211 L 270.5 212 L 269.5 213 L 239.5 213 L 238.5 212 L 215.5 211 L 190.5 205 Q 178.3 200.3 171 190.5 L 165 179.5 L 162 167.5 Q 163.8 161.3 161 159.5 L 161 133.5 L 162 132.5 L 163 120.5 L 169.5 114 L 178.5 108 L 195.5 101 L 217.5 96 L 233.5 95 L 234.5 94 Z "/>
  </g>
  <g id="line">
    <path fill="#1a1a1a" d="M 243.5 38 L 269.5 38 L 280.5 40 Q 295.8 44.2 304 55.5 L 310 67.5 Q 310 74.5 313 78.5 L 314 90.5 L 315.5 92 L 318 91 Q 324.3 75 336.5 64 L 348.5 57 L 363.5 57 L 378.5 61 L 389.5 66 Q 399.3 71.3 406 79.5 L 414 96.5 L 421 123.5 L 421 130.5 L 425 152.5 L 426 172.5 L 427 173.5 L 427 187.5 L 428 188.5 L 428 201.5 L 429 202.5 L 429 212.5 L 430 213.5 L 430 226.5 Q 432.8 228.2 431 234.5 L 432.5 236 Q 438.1 236.5 440 240.5 L 443 249.5 L 443 261.5 L 438.5 267 L 434 268 L 436 301 L 442 305.5 L 448 316.5 L 452 332.5 L 453 349.5 L 454 350.5 L 454 389.5 L 452 400.5 L 449 408.5 L 438.5 421 L 431.5 425 L 415 428 L 409 443.5 L 403.5 450 L 395.5 456 L 383.5 461 L 356.5 468 L 350.5 468 L 336.5 471 L 318.5 472 L 317.5 473 L 308.5 473 L 307.5 474 L 249.5 476 L 248.5 475 L 203.5 474 L 202.5 473 L 174.5 471 L 173.5 470 L 156.5 468 L 146.5 465 L 141.5 465 L 120.5 458 L 110.5 452 L 106 447.5 Q 99.1 439.5 97 428 L 80.5 425 Q 71.5 421 66 413.5 L 61 403.5 L 58 389.5 L 58 349.5 L 59 348.5 L 60 331.5 L 64 316.5 Q 67.3 306.8 74.5 301 L 76 300.5 L 76 292.5 L 77 291.5 L 77 281.5 L 78 280.5 L 78 268 L 71 264.5 L 69 261.5 L 69 250.5 L 71 242.5 L 75.5 237 L 81 234.5 L 83 202.5 L 84 201.5 L 85 174.5 L 86 173.5 L 87 153.5 L 91 130.5 L 91 123.5 L 97 99.5 L 103 84.5 L 115.5 70 L 126.5 64 L 143.5 58 L 148.5 57 L 163.5 57 Q 175 61.5 182 70.5 L 196.5 92 L 199 91 L 199 83.5 L 204 64.5 Q 208.5 53.5 217.5 47 L 226.5 42 L 243.5 38 Z M 254 46 L 253 47 L 235 49 L 222 55 L 212 70 L 208 88 L 219 88 L 221 87 L 222 86 L 222 81 L 224 74 L 229 64 Q 236 59 248 57 L 267 57 Q 268 59 273 58 L 283 63 Q 291 70 291 86 L 294 88 Q 301 87 304 89 L 303 75 L 296 61 Q 292 54 285 51 L 269 47 L 254 46 Z M 150 66 L 129 73 L 121 79 L 129 83 Q 144 96 153 116 L 170 103 L 186 95 Q 182 83 174 76 L 164 67 Q 158 65 150 66 Z M 250 66 Q 248 69 243 67 L 236 70 L 231 83 L 233 86 L 236 85 L 279 85 L 280 86 L 282 85 Q 282 76 278 72 L 271 67 L 250 66 Z M 351 66 L 343 71 Q 332 80 326 95 Q 345 102 359 116 L 374 93 Q 381 84 391 79 L 386 74 L 371 68 L 362 66 L 351 66 Z M 114 86 L 109 94 L 104 108 L 101 121 L 100 132 L 98 137 L 97 155 L 95 164 L 95 174 L 94 175 L 93 199 L 92 200 L 92 214 L 91 215 L 90 237 L 92 238 L 101 240 L 103 239 L 103 233 L 109 205 L 116 181 L 121 170 Q 120 164 122 163 L 122 143 L 124 136 L 125 122 L 131 99 Q 125 89 114 86 Z M 397 86 L 381 99 L 387 121 L 388 135 L 390 142 L 391 170 L 394 175 L 399 190 L 406 217 L 409 239 L 411 240 L 421 238 L 422 237 L 421 215 L 420 214 L 420 199 L 419 198 L 419 186 L 418 185 L 418 173 L 417 172 L 417 162 L 415 153 L 415 144 L 408 108 L 401 89 Q 400 86 397 86 Z M 235 94 L 234 95 L 218 96 L 196 101 L 179 108 L 170 114 L 163 121 L 162 133 L 161 134 L 161 160 Q 164 161 162 168 L 165 180 L 171 191 Q 178 200 191 205 L 216 211 L 239 212 L 240 213 L 270 213 L 271 212 L 296 211 L 322 205 L 334 198 Q 342 192 346 182 L 350 168 L 351 151 L 352 150 L 351 147 L 350 124 L 347 117 L 328 105 L 305 98 L 290 95 L 280 95 L 279 94 L 235 94 Z M 137 109 L 132 136 L 133 144 L 146 126 L 146 123 L 140 111 L 137 109 Z M 375 109 L 372 110 L 372 113 L 366 123 L 366 126 L 378 142 Q 377 144 380 143 L 377 117 L 375 109 Z M 150 134 L 132 165 L 117 209 L 110 247 L 110 255 L 107 271 L 106 296 L 105 297 L 104 321 L 103 322 L 103 332 L 102 333 L 102 343 L 101 344 L 101 361 L 100 362 L 100 392 L 101 393 L 103 417 L 107 432 L 113 442 L 118 446 L 130 452 L 148 456 L 152 458 L 192 463 L 193 464 L 242 466 L 243 467 L 269 467 L 270 466 L 306 465 L 307 464 L 320 464 L 321 463 L 350 460 L 383 452 L 396 445 L 401 439 L 408 422 L 410 403 L 411 402 L 411 391 L 412 390 L 411 344 L 410 343 L 409 323 L 408 322 L 408 312 L 407 311 L 405 273 L 404 272 L 403 256 L 402 255 L 402 246 L 399 235 L 399 229 L 396 214 Q 390 188 381 167 L 368 143 L 361 134 L 359 169 L 354 186 L 347 198 L 334 209 L 320 215 L 295 220 L 267 221 L 266 222 L 225 221 L 224 220 L 205 218 Q 186 214 173 205 Q 164 197 158 186 L 155 178 L 153 168 L 153 159 L 152 158 L 152 136 L 153 135 L 150 134 Z M 81 245 Q 77 249 78 258 L 82 260 L 99 263 L 100 262 L 101 249 L 81 245 Z M 429 245 L 411 249 Q 413 253 412 261 L 415 263 L 431 260 L 434 258 L 433 247 Q 432 244 429 245 Z M 89 270 L 87 272 Q 88 276 86 278 L 86 293 L 85 294 L 86 295 L 96 295 L 97 294 L 98 272 L 89 270 Z M 423 270 L 414 272 L 415 294 L 417 295 Q 423 293 425 296 L 427 295 L 426 293 L 425 272 L 423 270 Z M 90 304 L 81 308 Q 75 312 73 319 L 70 328 L 68 339 L 68 347 L 67 348 L 67 391 L 73 408 Q 79 417 94 418 L 92 393 L 91 392 L 91 358 L 92 357 L 93 335 L 94 334 L 95 310 L 96 309 L 96 304 L 90 304 Z M 416 304 L 417 323 L 418 324 L 418 334 L 419 335 L 419 345 L 420 346 L 420 359 L 421 360 L 421 390 L 420 391 L 418 418 L 423 418 L 432 415 L 439 408 L 445 391 L 445 348 L 444 347 L 442 328 L 436 313 L 427 305 L 416 304 Z "/>
    <path fill="#1a1a1a" d="M 381.5 241 L 384 242.5 L 387 250.5 L 387 256.5 L 389 263.5 L 389 287.5 L 388 290 Q 382.7 291.8 385 284.5 L 386 283.5 L 386 272.5 L 385 271.5 L 384 256.5 L 380 242.5 L 381.5 241 Z "/>
    <path fill="#1a1a1a" d="M 235.5 269 L 277.5 269 L 278.5 270 L 311.5 271 L 334.5 276 Q 343.5 280 349 287.5 L 354 297.5 L 362 328.5 L 363 339.5 L 366 351.5 L 366 360.5 L 367 361.5 L 367 381.5 L 364 398.5 Q 360.8 407.8 353.5 413 L 336.5 422 L 303.5 428 L 279.5 429 L 278.5 430 L 232.5 430 L 231.5 429 L 208.5 428 L 175.5 422 Q 160.6 417.4 152 406.5 L 146 390.5 L 145 362.5 L 146 361.5 L 146 352.5 L 147 351.5 L 150 328.5 L 156 303.5 L 161 290.5 L 171.5 279 L 188.5 273 L 194.5 273 L 201.5 271 L 210.5 271 L 211.5 270 L 234.5 270 L 235.5 269 Z M 237 278 L 236 279 L 216 279 L 215 280 L 194 281 L 176 287 Q 168 292 166 303 L 168 304 L 183 307 L 198 308 L 206 310 L 215 310 L 216 311 L 226 311 L 227 312 L 239 312 L 240 313 L 274 313 L 275 312 L 288 312 L 299 310 L 309 310 L 310 309 L 316 309 L 344 304 L 346 302 L 340 291 L 333 285 L 312 280 L 281 279 L 280 278 L 237 278 Z M 166 312 L 163 313 L 157 340 L 155 361 L 154 362 L 154 385 L 157 397 L 160 403 L 165 407 L 175 412 L 185 415 L 201 418 L 209 418 L 210 419 L 232 420 L 233 421 L 255 421 L 256 422 L 258 421 L 281 421 L 282 420 L 293 420 L 294 419 L 319 417 L 338 412 L 349 406 L 354 399 L 358 384 L 358 362 L 356 353 L 356 346 L 350 317 L 348 312 L 323 317 L 315 317 L 299 320 L 287 320 L 286 321 L 271 321 L 270 322 L 227 321 L 226 320 L 215 320 L 214 319 L 195 317 L 192 323 L 192 325 L 199 333 L 200 338 L 198 345 Q 195 350 188 351 L 180 349 L 174 343 Q 173 334 176 330 L 181 326 Q 185 323 184 316 L 166 312 Z M 187 332 L 185 333 Q 182 334 183 340 Q 184 343 189 342 Q 192 341 191 336 L 187 332 Z "/>
    <path fill="#1a1a1a" d="M 336 366 Q 339.8 365.3 341 368.5 L 342 380.5 L 338 392.5 L 330.5 400 L 322.5 403 L 314.5 403 L 309 400.5 L 310.5 398 Q 313.7 400.3 320.5 399 L 333 393 Q 339.3 386.1 337 369.5 L 336 366 Z "/>
  </g>
</svg>
