<svg xmlns="http://www.w3.org/2000/svg" width="512" height="512" viewBox="0 0 512 512">
  <g id="color">
    <path fill="#ffffff" d="M 324.5 130 L 330 130.5 L 324.5 131 L 324.5 130 Z "/>
    <path fill="#ffffff" d="M 85.5 132 L 97 132.5 L 85.5 133 L 85.5 132 Z "/>
    <path fill="#ffffff" d="M 123.5 132 L 144 132.5 L 123.5 133 L 123.5 132 Z "/>
    <path fill="#ffffff" d="M 76.5 133 L 82 133.5 L 76.5 134 L 76.5 133 Z "/>
    <path fill="#ffffff" d="M 152.5 133 L 173 133.5 L 152.5 134 L 152.5 133 Z "/>
    <path fill="#ffffff" d="M 179.5 134 L 198 134.5 L 179.5 135 L 179.5 134 Z "/>
    <path fill="#ffffff" d="M 213.5 135 L 233 135.5 L 213.5 136 L 213.5 135 Z "/>
    <path fill="#ffffff" d="M 254.5 136 L 270 136.5 L 254.5 137 L 254.5 136 Z "/>
    <path fill="#ffffff" d="M 282.5 137 L 295 137.5 L 282.5 138 L 282.5 137 Z "/>
    <path fill="#ffffff" d="M 56.5 138 L 58 138.5 L 51.5 142 L 52.5 140 L 56.5 138 Z "/>
    <path fill="#ffffff" d="M 38.5 175 L 41 179.5 L 39 178.5 L 38.5 175 Z "/>
    <path fill="#ffffff" d="M 47.5 187 L 52 190.5 L 50.5 190 L 47.5 187 Z "/>
    <path fill="#ffffff" d="M 427.5 192 L 433 192.5 L 427.5 193 L 427.5 192 Z "/>
    <path fill="#ffffff" d="M 441.5 193 L 452 193.5 L 441.5 194 L 441.5 193 Z "/>
    <path fill="#ffffff" d="M 83.5 199 L 89 199.5 L 83.5 200 L 83.5 199 Z "/>
    <path fill="#ffffff" d="M 91.5 200 L 98 200.5 L 91.5 201 L 91.5 200 Z "/>
    <path fill="#ffffff" d="M 102.5 201 L 111 201.5 L 102.5 202 L 102.5 201 Z "/>
    <path fill="#ffffff" d="M 120.5 202 L 129 202.5 L 120.5 203 L 120.5 202 Z "/>
    <path fill="#ffffff" d="M 140.5 203 L 147 203.5 L 140.5 204 L 140.5 203 Z "/>
    <path fill="#ffffff" d="M 154.5 204 L 161 204.5 L 154.5 205 L 154.5 204 Z "/>
    <path fill="#ffffff" d="M 165.5 205 Q 169.9 203.5 169 206.5 L 165 209.5 L 167.5 206 Q 164.5 206.5 165.5 205 Z "/>
    <path fill="#ffffff" d="M 473.5 234 L 474 238.5 L 473 238.5 L 473.5 234 Z "/>
    <path fill="#ffffff" d="M 474.5 241 L 475 245.5 L 474 245.5 L 474.5 241 Z "/>
    <path fill="#ffffff" d="M 475.5 252 L 476 259.5 L 475 259.5 L 475.5 252 Z "/>
    <path fill="#ffffff" d="M 174.5 261 L 176 263.5 L 172 266.5 L 175 262.5 L 174.5 261 Z "/>
    <path fill="#ffffff" d="M 476.5 271 L 477 282.5 L 476 282.5 L 476.5 271 Z "/>
    <path fill="#ffffff" d="M 166.5 284 L 167 290.5 L 166 290.5 L 166.5 284 Z "/>
    <path fill="#ffffff" d="M 475.5 294 L 476 300.5 L 475 300.5 L 475.5 294 Z "/>
    <path fill="#ffffff" d="M 171.5 306 L 176 311.5 L 172 308.5 L 171.5 306 Z "/>
    <path fill="#ffffff" d="M 474.5 307 L 475 312.5 L 474 312.5 L 474.5 307 Z "/>
    <path fill="#ffffff" d="M 473.5 315 L 474 319.5 L 473 319.5 L 473.5 315 Z "/>
    <path fill="#ffffff" d="M 190.5 322 L 191 323.5 L 188.5 328 L 188 326.5 L 190.5 322 Z "/>
    <path fill="#ffffff" d="M 185.5 336 L 186 346.5 L 185 346.5 L 185.5 336 Z "/>
    <path fill="#ffffff" d="M 464.5 355 L 464 356.5 L 461.5 360 L 463 357.5 L 464.5 355 Z "/>
    <path fill="#ffffff" d="M 459.5 360 L 458.5 362 L 453.5 363 L 453.5 362 Q 458.1 362.6 459.5 360 Z "/>
    <path fill="#ffffff" d="M 403.5 362 L 413 362.5 L 403.5 363 L 403.5 362 Z "/>
    <path fill="#ffffff" d="M 420.5 362 L 437 362.5 L 420.5 363 L 420.5 362 Z "/>
    <path fill="#ffffff" d="M 393.5 366 L 392.5 368 L 390.5 369 L 391.5 367 L 393.5 366 Z "/>
    <path fill="#ffffff" d="M 204.5 370 L 210 373.5 L 208.5 373 Q 204.5 372.5 204.5 370 Z "/>
    <path fill="#ffffff" d="M 222.5 377 L 227 377.5 L 222.5 378 L 222.5 377 Z "/>
    <path fill="#ffffff" d="M 243.5 380 L 249 380.5 L 243.5 381 L 243.5 380 Z "/>
    <path fill="#ffffff" d="M 255.5 381 L 264 381.5 L 255.5 382 L 255.5 381 Z "/>
    <path fill="#ffffff" d="M 274.5 382 L 289 382.5 L 274.5 383 L 274.5 382 Z "/>
    <path fill="#ffffff" d="M 325.5 382 L 334 382.5 L 325.5 383 L 325.5 382 Z "/>
    <path fill="#ffffff" d="M 301.5 383 L 315 383.5 L 301.5 384 L 301.5 383 Z "/>
    <path fill="#ffd43b" d="M 317.5 140 L 336.5 140 L 348.5 144 L 364.5 154 L 387 174.5 Q 386.3 176.8 388.5 176 L 401.5 190 Q 407.7 196.8 417.5 200 L 429.5 201 L 430.5 202 L 456.5 203 L 458 204.5 L 465 235.5 L 466 253.5 L 467 254.5 L 467 266.5 L 468 267.5 L 468 283.5 L 467 284.5 L 467 298.5 L 466 299.5 L 466 309.5 L 465 310.5 L 464 325.5 L 459 346.5 L 455.5 353 L 453.5 354 L 426.5 354 L 425.5 353 L 406.5 353 Q 404.8 355.7 398.5 354 L 381.5 363 L 359.5 370 L 348.5 371 L 342.5 373 L 335.5 373 L 334.5 374 L 303.5 375 L 302.5 374 L 274.5 374 L 269 372.5 L 282.5 366 L 292 357.5 L 297 348.5 L 297 337.5 Q 294.2 328.3 287.5 323 L 283 319.5 L 295 309.5 Q 300.7 302.7 300 289.5 Q 296.5 275 287 266.5 L 297 257.5 Q 312.1 236.6 310 198.5 Q 309 195 303.5 196 L 301 200.5 L 302 201.5 L 302 212.5 L 297 239.5 Q 293.1 250.1 285.5 257 L 276.5 261 L 278 258.5 L 282 249.5 L 284 231.5 Q 283.1 224.9 278.5 222 Q 271.6 218.4 259.5 220 L 254 222 L 255 196.5 L 256 195.5 L 256 187.5 L 258 176.5 Q 260.2 164.7 268.5 159 Q 289.4 145.9 317.5 140 Z M 318 205 L 315 208 L 316 223 L 321 239 L 333 258 L 348 269 L 357 272 Q 362 274 364 271 Q 367 272 365 267 L 363 264 Q 352 264 347 258 Q 325 242 323 208 Q 322 204 318 205 Z "/>
    <path fill="#ffd43b" d="M 90.5 141 L 133.5 141 L 134.5 142 L 160.5 142 L 161.5 143 L 262.5 145 L 263.5 146 L 272 146.5 Q 263.1 151.1 257 158.5 Q 251 165.5 249 176.5 L 247 202.5 L 246 203.5 L 245 240.5 L 248 255.5 L 255.5 266 L 262.5 270 L 272.5 271 L 275.5 270 L 286 278.5 L 291 287.5 Q 289.5 293 292 294.5 Q 290.5 304.5 283.5 309 L 274.5 314 L 257.5 319 L 238.5 320 L 237.5 321 L 222.5 321 L 221.5 320 L 207.5 319 L 197.5 316 L 183 308 L 177 298.5 Q 174.6 291.4 176 280.5 Q 178.1 271.1 184.5 266 L 202.5 270 L 233.5 271 L 237 268.5 Q 238 264 235.5 263 L 231.5 262 L 227.5 263 L 226.5 262 L 207.5 262 L 187.5 258 Q 177.1 254.9 171 247.5 Q 164.8 241.2 167 226.5 Q 169.4 215.4 177.5 210 L 184.5 206 L 198.5 206 L 199.5 207 L 217.5 208 L 221 205.5 Q 222 200 218.5 199 L 154.5 196 L 153.5 195 L 140.5 195 L 139.5 194 L 126.5 194 L 125.5 193 L 107.5 193 L 106.5 192 L 95.5 192 L 94.5 191 L 78.5 190 L 66 186.5 L 86.5 185 Q 94.2 183.2 98 177.5 Q 102.8 171.3 101 158.5 Q 99.9 151.1 94.5 148 L 86.5 145 L 75 143.5 L 77.5 142 L 89.5 142 L 90.5 141 Z "/>
    <path fill="#ffd43b" d="M 269.5 324 L 275.5 325 L 285 332.5 Q 289 336.5 289 344.5 Q 286.5 353.5 279.5 358 L 267.5 364 L 252.5 368 L 229.5 370 L 211.5 365 L 199 355.5 L 194 345.5 L 194 337.5 L 199.5 326 L 216.5 328 L 217.5 329 L 245.5 329 L 246.5 328 L 264.5 326 L 269.5 324 Z "/>
    <path fill="#ff6b6b" d="M 53.5 150 L 66 150.5 L 61 151.5 L 82.5 152 L 84.5 151 L 94 157.5 L 93 160 Q 95.7 158.9 95 161.5 L 94 165.5 L 95 167.5 L 91 173.5 Q 93.3 174.8 90.5 176 L 89 175.5 Q 89.8 177.8 87.5 177 L 83.5 179 L 59.5 178 L 56.5 179 L 56.5 178 L 59 177.5 L 49.5 177 L 48 175.5 L 47 161.5 L 46 160.5 L 48 160 L 50 155.5 L 49 154.5 L 53.5 150 Z "/>
    <path fill="#ff6b6b" d="M 262.5 226 L 265.5 227 L 268.5 226 L 270 226.5 L 268 227.5 Q 274.5 227 277 230.5 L 276 234.5 L 276 236.5 L 277 240.5 L 275 241 L 276 246.5 L 274 247 L 273 253.5 L 271.5 255 L 268 256.5 L 268.5 258 L 264.5 259 L 260.5 256 Q 258.8 258.8 257 254.5 L 256 249.5 L 256 247.5 L 256 234.5 L 255 233.5 L 257 233.5 L 256 230.5 L 258 230.5 L 257 228.5 L 259.5 228 L 263 227.5 L 262.5 226 Z "/>
    <path fill="#f783ac" d="M 66.5 150 L 83 151.5 L 61.5 152 L 61.5 151 L 66.5 150 Z "/>
    <path fill="#f783ac" d="M 85.5 151 L 92 154 L 93 156.5 L 88.5 153 Q 84.7 153.5 85.5 151 Z "/>
    <path fill="#f783ac" d="M 49.5 155 L 49 156.5 L 47.5 160 L 47 157.5 L 49.5 155 Z "/>
    <path fill="#f783ac" d="M 46.5 161 L 48 173.5 L 47 173.5 L 45 167.5 L 46 164.5 L 46 162.5 L 46.5 161 Z "/>
    <path fill="#f783ac" d="M 93.5 169 L 94 170.5 L 89.5 176 L 92 172.5 L 93.5 169 Z "/>
    <path fill="#f783ac" d="M 49.5 177 L 71 178.5 L 59.5 179 L 56.5 178 L 54.5 178 Q 48.5 179.3 49.5 177 Z "/>
    <path fill="#f783ac" d="M 261.5 226 L 262.5 228 Q 258.8 227.3 258 229.5 Q 254.1 235.6 256 247.5 Q 258.2 248.8 255.5 250 L 255 234.5 L 258 227 L 261.5 226 Z "/>
    <path fill="#f783ac" d="M 267.5 226 L 276 228.5 L 274.5 229 Q 273.3 226.7 268.5 228 L 267.5 226 Z "/>
    <path fill="#f783ac" d="M 275 241 L 277 241.5 L 275.5 246 L 275 241 Z "/>
    <path fill="#f783ac" d="M 274.5 247 L 275 250.5 L 273.5 253 L 273 250.5 L 274.5 247 Z "/>
  </g>
  <g id="line">
    <path fill="#1a1a1a" d="M 318.5 131 L 334.5 131 L 339.5 132 Q 353 135 362.5 142 L 383.5 159 L 415.5 190 L 427.5 193 L 455.5 194 L 460.5 195 L 465 198.5 L 470 216.5 L 474 239.5 L 474 245.5 L 475 246.5 L 476 293.5 L 475 294.5 L 475 306.5 L 474 307.5 L 474 314.5 L 473 315.5 L 470 339.5 L 465 354.5 L 460.5 360 Q 452.5 365 437.5 363 L 436.5 362 L 403.5 362 L 382.5 372 L 353.5 380 L 339.5 381 L 338.5 382 L 325.5 382 L 324.5 383 L 289.5 383 L 288.5 382 L 249.5 381 L 248.5 380 L 239.5 380 L 226.5 377 L 220.5 377 Q 203 373 193 361.5 L 186 348.5 L 186 334.5 L 191 322 Q 181.9 319.6 176 312.5 Q 165.9 303.1 167 282.5 L 170 271.5 L 176 262.5 L 163 251.5 L 159 242.5 L 158 229.5 L 160 219.5 L 169 205 L 161.5 205 L 160.5 204 L 147.5 204 L 146.5 203 L 111.5 202 L 110.5 201 L 98.5 201 L 97.5 200 L 74.5 198 L 54.5 192 L 44 184.5 Q 35.7 177.3 37 160.5 Q 39.9 148.9 48.5 143 L 58.5 138 L 74.5 134 L 96.5 133 L 97.5 132 L 122.5 132 L 123.5 133 L 151.5 133 L 152.5 134 L 178.5 134 L 179.5 135 L 253.5 136 L 254.5 137 L 294.5 138 L 297.5 136 L 318.5 131 Z M 318 140 Q 289 146 269 159 Q 260 165 258 177 L 256 188 L 256 196 L 255 197 L 254 222 L 260 220 Q 272 218 279 222 Q 283 225 284 232 L 282 250 L 278 259 L 277 261 L 286 257 Q 293 250 297 240 L 302 213 L 302 202 L 301 201 L 304 196 Q 309 195 310 199 Q 312 237 297 258 L 287 267 Q 297 275 300 290 Q 301 303 295 310 L 283 320 L 288 323 Q 294 328 297 338 L 297 349 L 292 358 L 283 366 L 269 373 L 275 374 L 303 374 L 304 375 L 335 374 L 336 373 L 343 373 L 349 371 L 360 370 L 382 363 L 399 354 Q 405 356 407 353 L 426 353 L 427 354 L 454 354 L 456 353 L 459 347 L 464 326 L 465 311 L 466 310 L 466 300 L 467 299 L 467 285 L 468 284 L 468 268 L 467 267 L 467 255 L 466 254 L 465 236 L 458 205 L 457 203 L 431 202 L 430 201 L 418 200 Q 408 197 402 190 L 389 176 Q 386 177 387 175 L 365 154 L 349 144 L 337 140 L 318 140 Z M 91 141 L 90 142 L 78 142 L 75 144 L 87 145 L 95 148 Q 100 151 101 159 Q 103 171 98 178 Q 94 183 87 185 L 66 187 L 79 190 L 95 191 L 96 192 L 107 192 L 108 193 L 126 193 L 127 194 L 140 194 L 141 195 L 154 195 L 155 196 L 219 199 Q 222 200 221 206 L 218 208 L 200 207 L 199 206 L 185 206 L 178 210 Q 169 215 167 227 Q 165 241 171 248 Q 177 255 188 258 L 208 262 L 227 262 L 228 263 L 232 262 L 236 263 Q 238 264 237 269 L 234 271 L 203 270 L 185 266 Q 178 271 176 281 Q 175 291 177 299 L 183 308 L 198 316 L 208 319 L 222 320 L 223 321 L 238 321 L 239 320 L 258 319 L 275 314 L 284 309 Q 291 305 292 295 Q 290 293 291 288 L 286 279 L 276 270 L 273 271 L 263 270 L 256 266 L 248 256 L 245 241 L 246 204 L 247 203 L 249 177 Q 251 166 257 159 Q 263 151 272 147 L 264 146 L 263 145 L 162 143 L 161 142 L 135 142 L 134 141 L 91 141 Z M 54 150 Q 47 154 45 164 Q 45 173 49 178 L 54 179 L 84 179 L 91 176 L 95 168 L 95 161 L 92 154 L 86 151 L 54 150 Z M 262 226 L 259 227 L 255 234 L 255 250 L 257 255 L 265 259 L 269 258 L 274 253 L 277 242 Q 278 232 276 228 Q 271 225 262 226 Z M 270 324 L 265 326 L 247 328 L 246 329 L 218 329 L 217 328 L 200 326 L 194 338 L 194 346 L 199 356 L 212 365 L 230 370 L 253 368 L 268 364 L 280 358 Q 287 354 289 345 Q 289 337 285 333 L 276 325 L 270 324 Z "/>
    <path fill="#1a1a1a" d="M 317.5 205 Q 322.3 204.3 323 207.5 Q 325.4 242.1 346.5 258 Q 351.9 263.6 362.5 264 L 365 266.5 Q 366.9 271.9 363.5 271 Q 362 273.5 356.5 272 L 347.5 269 L 333 257.5 L 321 238.5 L 316 222.5 L 315 207.5 L 317.5 205 Z "/>
  </g>
</svg>
