<svg xmlns="http://www.w3.org/2000/svg" width="512" height="512" viewBox="0 0 512 512">
  <g id="color">
    <path fill="#ffffff" d="M 267.5 36 L 278 36.5 L 267.5 37 L 267.5 36 Z "/>
    <path fill="#ffffff" d="M 314.5 36 L 327 36.5 L 314.5 37 L 314.5 36 Z "/>
    <path fill="#ffffff" d="M 252.5 37 L 260 37.5 L 252.5 38 L 252.5 37 Z "/>
    <path fill="#ffffff" d="M 335.5 37 L 342 37.5 L 335.5 38 L 335.5 37 Z "/>
    <path fill="#ffffff" d="M 242.5 38 L 250 38.5 L 242.5 39 L 242.5 38 Z "/>
    <path fill="#ffffff" d="M 344.5 38 L 350 38.5 L 344.5 39 L 344.5 38 Z "/>
    <path fill="#ffffff" d="M 235.5 39 L 241 39.5 L 235.5 40 L 235.5 39 Z "/>
    <path fill="#ffffff" d="M 226.5 40 L 231 40.5 L 226.5 41 L 226.5 40 Z "/>
    <path fill="#ffffff" d="M 218.5 41 L 224 41.5 L 214.5 43 L 214.5 42 L 218.5 41 Z "/>
    <path fill="#ffffff" d="M 365.5 43 L 372 50.5 L 370 49.5 L 365.5 43 Z "/>
    <path fill="#ffffff" d="M 186.5 48 L 189 48.5 L 184.5 50 L 184.5 49 L 186.5 48 Z "/>
    <path fill="#ffffff" d="M 169.5 65 L 170 70.5 L 169 70.5 L 169.5 65 Z "/>
    <path fill="#ffffff" d="M 376.5 74 L 378 78.5 L 377 78.5 L 376.5 74 Z "/>
    <path fill="#ffffff" d="M 379.5 83 L 382 87.5 L 380 86.5 L 379.5 83 Z "/>
    <path fill="#ffffff" d="M 172.5 86 L 173 96.5 L 172 96.5 L 172.5 86 Z "/>
    <path fill="#ffffff" d="M 382.5 89 L 386 93.5 L 383 91.5 L 382.5 89 Z "/>
    <path fill="#ffffff" d="M 386.5 95 L 389 98.5 L 387 97.5 L 386.5 95 Z "/>
    <path fill="#ffffff" d="M 169.5 103 L 169 104.5 L 167.5 107 L 168 105.5 L 169.5 103 Z "/>
    <path fill="#ffffff" d="M 397.5 112 L 400 115.5 L 398 114.5 L 397.5 112 Z "/>
    <path fill="#ffffff" d="M 400.5 117 L 403 120.5 L 401 119.5 L 400.5 117 Z "/>
    <path fill="#ffffff" d="M 403.5 122 L 406 126.5 L 404 125.5 L 403.5 122 Z "/>
    <path fill="#ffffff" d="M 407.5 131 L 410 136.5 L 409 136.5 L 407.5 131 Z "/>
    <path fill="#ffffff" d="M 410.5 138 L 413 144.5 L 412 144.5 L 410.5 138 Z "/>
    <path fill="#ffffff" d="M 138.5 148 L 139 149.5 L 137.5 152 L 137 150.5 L 138.5 148 Z "/>
    <path fill="#ffffff" d="M 135.5 156 L 136 157.5 L 134.5 160 L 134 158.5 L 135.5 156 Z "/>
    <path fill="#ffffff" d="M 418.5 162 L 420 167.5 L 419 167.5 L 418.5 162 Z "/>
    <path fill="#ffffff" d="M 131.5 168 L 132 170.5 L 130.5 174 L 130 171.5 L 131.5 168 Z "/>
    <path fill="#ffffff" d="M 424.5 183 L 426 188.5 L 425 188.5 L 424.5 183 Z "/>
    <path fill="#ffffff" d="M 125.5 193 L 126 194.5 L 124.5 198 L 124 195.5 L 125.5 193 Z "/>
    <path fill="#ffffff" d="M 121.5 206 L 122 207.5 L 120.5 210 L 120 208.5 L 121.5 206 Z "/>
    <path fill="#ffffff" d="M 431.5 211 L 433 219.5 L 432 219.5 L 431.5 211 Z "/>
    <path fill="#ffffff" d="M 118.5 214 L 119 215.5 L 117.5 218 L 117 216.5 L 118.5 214 Z "/>
    <path fill="#ffffff" d="M 111.5 230 L 112 231.5 L 109.5 235 L 110 233.5 L 111.5 230 Z "/>
    <path fill="#ffffff" d="M 435.5 233 L 436 239.5 L 435 239.5 L 435.5 233 Z "/>
    <path fill="#ffffff" d="M 108.5 236 L 109 237.5 L 106.5 241 L 107 239.5 L 108.5 236 Z "/>
    <path fill="#ffffff" d="M 436.5 241 L 437 258.5 L 436 258.5 L 436.5 241 Z "/>
    <path fill="#ffffff" d="M 104.5 244 L 104 245.5 L 102.5 248 L 103 246.5 L 104.5 244 Z "/>
    <path fill="#ffffff" d="M 94.5 261 L 94 262.5 L 92.5 265 L 93 263.5 L 94.5 261 Z "/>
    <path fill="#ffffff" d="M 435.5 261 L 436 265.5 L 435 265.5 L 435.5 261 Z "/>
    <path fill="#ffffff" d="M 87.5 272 L 87 273.5 L 85.5 276 L 86 274.5 L 87.5 272 Z "/>
    <path fill="#ffffff" d="M 179.5 272 Q 182.5 271.1 181 275.5 L 180 275.5 Q 180.8 273.3 178.5 274 L 179.5 272 Z "/>
    <path fill="#ffffff" d="M 432.5 274 L 433 275.5 L 431.5 278 L 431 276.5 L 432.5 274 Z "/>
    <path fill="#ffffff" d="M 177.5 275 L 177 276.5 L 175.5 279 L 176 277.5 L 177.5 275 Z "/>
    <path fill="#ffffff" d="M 430.5 279 L 430 280.5 L 427.5 284 L 429 281.5 L 430.5 279 Z "/>
    <path fill="#ffffff" d="M 79.5 287 L 80 288.5 L 78.5 291 L 78 289.5 L 79.5 287 Z "/>
    <path fill="#ffffff" d="M 182.5 288 L 183 292.5 L 182 292.5 L 182.5 288 Z "/>
    <path fill="#ffffff" d="M 183.5 294 L 184 300.5 L 183 300.5 L 183.5 294 Z "/>
    <path fill="#ffffff" d="M 392 297 L 402 297.5 L 393 298 L 392.5 300 L 392 297 Z "/>
    <path fill="#ffffff" d="M 391.5 302 L 392 305.5 L 390.5 309 L 390 306.5 L 391.5 302 Z "/>
    <path fill="#ffffff" d="M 184.5 303 L 185 307.5 L 184 307.5 L 184.5 303 Z "/>
    <path fill="#ffffff" d="M 185.5 313 L 186 317.5 L 185 317.5 L 185.5 313 Z "/>
    <path fill="#ffffff" d="M 138.5 317 L 137.5 319 L 135.5 320 L 136.5 318 L 138.5 317 Z "/>
    <path fill="#ffffff" d="M 186.5 320 L 188 334.5 L 187 334.5 L 186.5 320 Z "/>
    <path fill="#ffffff" d="M 89.5 321 L 94 323.5 L 92.5 324 L 89.5 321 Z "/>
    <path fill="#ffffff" d="M 98.5 325 L 106 326.5 L 101.5 327 L 98.5 326 L 98.5 325 Z "/>
    <path fill="#ffffff" d="M 371.5 331 L 370.5 333 L 367.5 334 L 367.5 333 L 371.5 331 Z "/>
    <path fill="#ffffff" d="M 360.5 335 L 363 335.5 L 359.5 337 L 345.5 337 L 345.5 336 L 359.5 336 L 360.5 335 Z "/>
    <path fill="#ffffff" d="M 188.5 340 L 189 344.5 L 188 344.5 L 188.5 340 Z "/>
    <path fill="#ffffff" d="M 189.5 349 L 190 355.5 L 189 355.5 L 189.5 349 Z "/>
    <path fill="#ffffff" d="M 190.5 357 L 191 363.5 L 190 363.5 L 190.5 357 Z "/>
    <path fill="#ffffff" d="M 269 359 L 273 360.5 L 270 361.5 L 269.5 364 L 269 359 Z "/>
    <path fill="#ffffff" d="M 311.5 362 L 313 362.5 L 307.5 365 L 307.5 364 L 311.5 362 Z "/>
    <path fill="#ffffff" d="M 279.5 363 L 284 364.5 L 281.5 365 L 279.5 363 Z "/>
    <path fill="#ffffff" d="M 270.5 365 L 271 373.5 L 270 373.5 L 270.5 365 Z "/>
    <path fill="#ffffff" d="M 191.5 366 L 192 371.5 L 191 371.5 L 191.5 366 Z "/>
    <path fill="#ffffff" d="M 291.5 366 L 299 366.5 L 291.5 367 L 291.5 366 Z "/>
    <path fill="#ffffff" d="M 271.5 378 L 272 383.5 L 271 383.5 L 271.5 378 Z "/>
    <path fill="#ffffff" d="M 193.5 384 L 195 396.5 L 194 396.5 L 193.5 384 Z "/>
    <path fill="#ffffff" d="M 272.5 389 L 273 394.5 L 272 394.5 L 272.5 389 Z "/>
    <path fill="#ffffff" d="M 273.5 396 L 274 404.5 L 273 404.5 L 273.5 396 Z "/>
    <path fill="#ffffff" d="M 274.5 407 L 275 413.5 L 274 413.5 L 274.5 407 Z "/>
    <path fill="#ffffff" d="M 197.5 412 L 198 416.5 L 197 416.5 L 197.5 412 Z "/>
    <path fill="#ffffff" d="M 275.5 420 L 276 433.5 L 275 433.5 L 275.5 420 Z "/>
    <path fill="#ffffff" d="M 200.5 428 L 202 434.5 L 201 434.5 L 200.5 428 Z "/>
    <path fill="#ffffff" d="M 203.5 440 L 205 444.5 L 204 444.5 L 203.5 440 Z "/>
    <path fill="#ffffff" d="M 273.5 444 L 274 447.5 L 272.5 451 L 272 448.5 L 273.5 444 Z "/>
    <path fill="#ffffff" d="M 206.5 449 L 213 460.5 L 210 458.5 L 206 450.5 L 206.5 449 Z "/>
    <path fill="#ffffff" d="M 270.5 454 L 271 455.5 L 268.5 459 L 269 457.5 L 270.5 454 Z "/>
    <path fill="#ffffff" d="M 224.5 472 L 231 475.5 L 229.5 476 Q 224.9 474.8 224.5 472 Z "/>
    <path fill="#ffffff" d="M 252.5 473 L 254 473.5 L 250.5 475 L 250.5 474 L 252.5 473 Z "/>
    <path fill="#ffffff" d="M 234.5 476 L 245 476.5 L 234.5 477 L 234.5 476 Z "/>
    <path fill="#4da3ff" d="M 274.5 50 L 322.5 50 L 323.5 51 L 334.5 51 L 335.5 52 L 351.5 53 L 357.5 55 L 360 57.5 L 360 65.5 L 362 69.5 L 363 80.5 L 367 90.5 L 373 101.5 L 387 120.5 L 403 157.5 L 405 168.5 L 407 171.5 L 411 185.5 L 411 189.5 L 414 196.5 L 414 200.5 L 417 208.5 L 419 222.5 L 421 227.5 L 423 254.5 L 420 269.5 L 415 278 L 405.5 283 L 396.5 284 L 394 283.5 L 391 262.5 L 389 258.5 L 388 251.5 L 385 246 L 378.5 245 Q 373.5 247.5 375 256.5 L 376 257.5 L 376 264.5 L 379 280.5 L 379 298.5 L 376 309.5 L 368.5 318 L 356.5 323 L 347.5 323 L 336 320 L 335 291.5 L 332 276.5 L 328.5 273 Q 321.5 271.5 320 275.5 L 319 285.5 L 321 295.5 L 321 314.5 L 322 316.5 L 321 317.5 L 320 332.5 L 312.5 346 L 310 347.5 Q 310.8 349.8 308.5 349 L 298.5 353 L 292.5 353 Q 278.3 350.7 270 342.5 Q 267.6 337.4 269 328.5 L 268 327.5 L 266 288.5 L 264 284 Q 257.7 282.5 256 286.5 L 255 297.5 L 254 298.5 L 254 336.5 L 255 337.5 L 256 366.5 L 258 375.5 L 259 400.5 L 260 401.5 L 262 427.5 L 261 430.5 L 262 432.5 L 260 431.5 L 254.5 424 Q 248.5 418.5 235.5 420 L 227.5 422 L 223 425 L 223 427 Q 220.3 425.9 221 428.5 L 216.5 437 L 212 421.5 L 212 415.5 L 209 403.5 L 209 396.5 L 208 395.5 L 208 388.5 L 205 371.5 L 204 353.5 L 202 346.5 L 201 325.5 L 198 309.5 L 198 299.5 L 197 298.5 L 196 283.5 L 194 275.5 L 194 267.5 L 192 262.5 L 192 260.5 L 191 248.5 L 187 231.5 L 183 224 L 178.5 223 L 175 225.5 L 174 234.5 L 175 235.5 L 176 252.5 Q 163.2 275.2 146.5 294 L 144 295.5 Q 144.8 297.8 142.5 297 Q 132.9 309.2 115 312 L 115.5 310 L 117 310.5 L 117 308.5 L 128 291.5 L 128 280.5 L 121 270 L 109 264.5 L 128 229.5 L 138 202.5 L 139 194.5 Q 142.6 188.1 143 178.5 L 145 175.5 L 147 164.5 L 154 147.5 L 161.5 136 Q 163.8 136.8 163 134.5 L 180 113.5 L 186 100.5 L 187 88.5 L 184 75.5 L 184 64 L 209.5 57 L 229.5 55 L 236.5 53 L 246.5 53 L 247.5 52 L 257.5 52 L 258.5 51 L 273.5 51 L 274.5 50 Z M 352 214 L 350 216 L 348 215 L 343 217 Q 341 220 340 218 L 337 219 L 335 222 L 332 224 L 332 226 L 330 232 L 332 244 L 338 247 Q 352 249 359 243 Q 365 239 367 231 L 367 219 L 365 215 L 360 214 L 357 215 L 352 214 Z M 297 225 L 282 228 L 276 231 L 273 234 L 270 243 L 272 254 L 274 253 L 274 256 L 280 260 L 292 262 L 294 262 Q 302 261 307 257 L 312 248 L 312 236 L 309 229 L 304 226 L 297 225 Z M 226 236 L 224 238 L 222 237 L 220 238 L 218 238 L 213 239 L 209 245 Q 207 259 214 266 L 223 271 L 233 271 L 242 268 L 246 264 L 250 253 L 249 247 L 244 242 L 243 239 Q 239 240 240 238 L 239 238 L 234 236 L 231 237 L 229 237 L 226 236 Z "/>
    <path fill="#ff6b6b" d="M 351.5 217 Q 356.8 215.8 358 218.5 L 359 225.5 L 357 228.5 Q 359.3 229.8 356.5 231 Q 354.3 230.3 355 232.5 L 347.5 238 L 345.5 237 L 343.5 237 L 339.5 238 L 337.5 235 L 337 237 L 334 236.5 Q 336.5 235 333 233.5 Q 331.3 223.8 337.5 222 L 351.5 217 Z "/>
    <path fill="#ff6b6b" d="M 293.5 234 Q 300.4 233.1 302 237.5 Q 301.3 239.8 303.5 239 L 304 241.5 L 304 244 Q 301.3 242.9 302 245.5 L 303 247.5 L 301 247.5 L 302 249.5 L 298 251.5 Q 298.8 253.8 296.5 253 L 294.5 252 L 294.5 254 L 291.5 253 L 289.5 254 L 288.5 252 L 285.5 254 L 277.5 251 L 276.5 253 L 273 249.5 Q 274.3 244.7 272 243.5 L 273 239 L 277.5 238 L 279.5 238 L 281.5 237 Q 283 239.5 284.5 236 L 287.5 237 L 287.5 235 L 289.5 236 L 293.5 234 Z "/>
    <path fill="#ff6b6b" d="M 229.5 239 Q 239.3 237.3 242 242.5 L 240 248.5 L 241 251.5 L 238 257.5 Q 240.3 258.8 237.5 260 L 236 259.5 L 235.5 261 L 234 260.5 L 233.5 262 L 229.5 261 L 227.5 261 L 224.5 260 L 222.5 260 L 220 258.5 L 217 251.5 L 218 246.5 L 217 242.5 L 219.5 240 L 228.5 240 L 229.5 239 Z "/>
    <path fill="#ff6b6b" d="M 105.5 273 L 108 273.5 L 108.5 275 L 110 274.5 Q 109.3 276.8 111.5 276 L 115 277.5 L 119 287.5 L 118.5 290 Q 116.3 289.3 117 291.5 L 110 303 L 106 305.5 L 102.5 310 L 101 309.5 Q 101.9 312.5 97.5 311 Q 96 313.5 94.5 310 L 92 308.5 L 92 306.5 L 91 302 Q 88 303.3 89 299.5 L 91 294.5 L 90.5 293 L 92 293.5 L 93 290.5 L 92.5 289 Q 94.8 289.8 94 287.5 L 95 284.5 L 96 281 L 99 279.5 L 98.5 278 L 100 277.5 Q 97.3 275.7 101.5 274 L 105.5 273 Z "/>
    <path fill="#ff6b6b" d="M 238.5 428 L 238.5 430 L 243.5 429 L 245.5 430 L 247 429.5 L 246.5 431 L 248.5 432 Q 249.8 429.8 251 432.5 L 251 434.5 L 252 440.5 L 254 442.5 L 254 446.5 L 255 451.5 L 254 454.5 L 255 457.5 L 253 457.5 L 251.5 461 L 250 460.5 L 249.5 462 L 248 461.5 L 246.5 464 L 244.5 464 L 240.5 465 L 238.5 465 L 233.5 463 L 232 463.5 L 229.5 460 L 228 460.5 L 228 459 L 226 459 Q 227.1 456.3 224.5 457 Q 221.8 455.8 224 454.5 Q 225.5 449 223 447.5 L 224 444.5 L 223 442 Q 226 443.3 225 439.5 L 224.5 438 L 226 438.5 L 227 435.5 L 227 433.5 L 227.5 432 L 229 432.5 L 230.5 430 L 232.5 429 L 236.5 430 L 238.5 428 Z "/>
    <path fill="#9775fa" d="M 351.5 215 L 357 215.5 L 351.5 216 L 351.5 215 Z "/>
    <path fill="#9775fa" d="M 226.5 237 L 232 237.5 L 226.5 238 L 226.5 237 Z "/>
    <path fill="#9775fa" d="M 270.5 242 L 271 246.5 L 270 246.5 L 270.5 242 Z "/>
    <path fill="#66d9e8" d="M 277.5 48 L 316.5 48 L 317.5 49 L 341.5 50 L 342.5 51 L 354.5 52 L 361 56.5 L 363 72.5 L 367 86.5 L 375 101.5 L 391 124.5 L 403 152.5 L 413 190.5 L 416 197.5 L 416 201.5 L 422 224.5 L 423 237.5 L 424 238.5 L 424 261.5 L 423 266.5 L 416 279 L 403.5 285 L 393.5 285 L 392 283.5 L 392 277.5 L 387 253.5 L 382.5 247 Q 377.1 245.1 378 248.5 L 377 249.5 L 377 260.5 L 381 282.5 L 381 296.5 L 378 308.5 L 369.5 319 L 360.5 324 L 351.5 325 L 350.5 324 L 339.5 323 L 335 320.5 L 334 295.5 L 331 283.5 L 331 278.5 L 328.5 275 L 324.5 274 L 321 277.5 L 321 290.5 L 323 301.5 L 323 325.5 Q 320.6 340.6 311.5 349 Q 304.7 356.2 288.5 354 L 268 344 L 267 324.5 L 266 323.5 L 265 292.5 L 264 287.5 L 261.5 285 L 258 286 L 256 293.5 L 255 323.5 L 256 324.5 L 256 342.5 L 257 343.5 L 258 371.5 L 260 380.5 L 261 403.5 L 263 413.5 L 263 436.5 L 261.5 439 Q 259.8 428.7 252.5 424 Q 246 420 233.5 422 Q 224.6 423.6 221 430.5 L 218 441 Q 215 442.3 216 438.5 L 213 432.5 L 207 401.5 L 206 385.5 L 203 368.5 L 203 359.5 L 202 358.5 L 202 350.5 L 201 349.5 L 201 341.5 L 200 340.5 L 199 321.5 L 197 313.5 L 196 295.5 L 193 281.5 L 193 272.5 L 190 259.5 L 190 252.5 L 185 230.5 L 180.5 225 Q 176.8 224.3 176 226.5 L 176 239.5 L 177 240.5 L 178 252.5 Q 163.7 277.7 144.5 298 L 124.5 312 L 110 315 L 123 298.5 Q 127.2 293.2 127 283.5 Q 124.5 274.4 117.5 270 L 107 267 L 108 262.5 L 126 230.5 L 133 212.5 L 148 156.5 L 155 142.5 L 179 112.5 L 185 98.5 L 185 85.5 L 182 73.5 L 182 65.5 L 183 63 L 187.5 61 L 218.5 54 L 225.5 54 L 226.5 53 L 232.5 53 L 240.5 51 L 249.5 51 L 250.5 50 L 276.5 49 L 277.5 48 Z M 275 50 L 274 51 L 259 51 L 258 52 L 248 52 L 247 53 L 237 53 L 230 55 L 210 57 L 184 64 L 184 76 L 187 89 L 186 101 L 180 114 L 163 135 Q 164 137 162 136 L 162 138 L 161 137 L 152 152 L 147 165 L 145 176 L 143 179 Q 143 188 139 195 L 138 203 L 128 230 L 109 265 L 121 270 L 128 281 L 128 292 L 117 309 L 117 311 L 116 310 L 115 312 Q 133 309 143 297 Q 145 298 144 296 L 147 294 Q 163 275 176 253 L 175 236 L 174 235 L 175 226 L 179 223 L 183 224 L 187 232 L 191 249 L 192 261 L 192 263 L 194 268 L 194 276 L 196 284 L 197 299 L 198 300 L 198 310 L 201 326 L 202 347 L 204 354 L 205 372 L 208 389 L 208 396 L 209 397 L 209 404 L 212 416 L 212 422 L 217 437 L 221 429 Q 220 426 223 427 L 223 425 L 228 422 L 236 420 Q 249 418 255 424 L 261 432 L 261 431 L 262 428 L 260 402 L 259 401 L 258 376 L 256 367 L 255 338 L 254 337 L 254 299 L 255 298 L 256 287 Q 258 282 264 284 L 266 289 L 268 328 L 269 329 Q 268 337 270 343 Q 278 351 293 353 L 299 353 L 309 349 Q 311 350 310 348 L 313 346 L 320 333 L 321 318 L 322 317 L 321 315 L 321 296 L 319 286 L 320 276 Q 322 272 329 273 L 332 277 L 335 292 L 336 320 L 348 323 L 357 323 L 369 318 L 376 310 L 379 299 L 379 281 L 376 265 L 376 258 L 375 257 Q 373 247 379 245 L 385 246 L 388 252 L 389 259 L 391 263 L 394 284 L 397 284 L 406 283 L 415 278 L 420 270 L 423 255 L 421 228 L 419 223 L 417 209 L 414 201 L 414 197 L 411 190 L 411 186 L 407 172 L 405 169 L 403 158 L 387 121 L 373 102 L 367 91 L 363 81 L 362 70 L 360 66 L 360 58 L 358 55 L 352 53 L 336 52 L 335 51 L 324 51 L 323 50 L 275 50 Z "/>
    <path fill="#66d9e8" d="M 357.5 214 L 359.5 214 L 365 215 L 367 218.5 L 367 230.5 Q 364.9 238.8 358.5 243 Q 351.8 248.8 337.5 247 L 332 244 Q 330.3 241.6 331 235.5 L 333 236.5 L 332 240.5 L 334.5 244 Q 339.1 246.9 347.5 246 Q 356.9 243.9 362 237.5 Q 366.9 232.4 366 221.5 L 362.5 216 L 357 216 L 357.5 214 Z "/>
    <path fill="#66d9e8" d="M 296.5 225 L 303.5 226 L 309 229 L 312 235.5 L 312 247.5 L 306.5 257 Q 301.6 261.1 293.5 262 L 291.5 262 L 279.5 260 L 274 255.5 Q 273.3 252.9 276 254 L 277.5 257 Q 284 261.5 296.5 260 Q 304.6 258.6 308 252.5 L 310 248.5 L 311 238.5 Q 310.1 231.9 305.5 229 Q 301.5 225.5 292.5 227 L 288.5 229 L 280.5 230 L 275 233.5 L 274 237 L 272 236.5 L 275.5 231 L 281.5 228 L 296.5 225 Z "/>
    <path fill="#66d9e8" d="M 216.5 238 L 218 238.5 L 212 241 Q 209.1 244.9 210 253.5 Q 211.7 261.3 216.5 266 L 221.5 269 L 234.5 269 L 243 265 L 248 255.5 L 248 247.5 L 244 242.5 L 249 246.5 L 250 252.5 L 246 263.5 L 241.5 268 L 232.5 271 L 222.5 271 L 214 265.5 Q 207.2 259.3 209 244.5 L 212.5 239 L 216.5 238 Z "/>
    <path fill="#f783ac" d="M 350.5 216 L 357.5 216 L 358 217.5 L 356.5 217 L 351.5 217 L 339.5 221 L 333 226.5 Q 331.2 233.8 335 235.5 L 333.5 236 Q 330.2 234.3 331 228.5 L 336.5 221 L 350.5 216 Z "/>
    <path fill="#f783ac" d="M 355 231 L 357 231.5 L 350.5 237 L 351.5 235 L 355 232.5 L 355 231 Z "/>
    <path fill="#f783ac" d="M 298.5 234 L 303 236.5 L 302.5 239 L 299.5 235 L 298.5 234 Z "/>
    <path fill="#f783ac" d="M 288.5 235 L 290 235.5 L 286.5 237 L 286.5 236 L 288.5 235 Z "/>
    <path fill="#f783ac" d="M 232.5 237 Q 240 237 243 241.5 L 244 243.5 L 240.5 249 L 240 247.5 L 242 242.5 Q 239.3 237.3 229.5 239 L 228.5 240 L 219.5 240 L 216 242 Q 214.9 239.3 217.5 240 L 232.5 237 Z "/>
    <path fill="#f783ac" d="M 274.5 237 L 276 239.5 L 274.5 239 Q 271.5 238.1 273 242.5 L 273 244.5 L 273 249.5 L 276 253.5 L 272 250.5 L 271 241.5 L 272 238 L 274.5 237 Z "/>
    <path fill="#f783ac" d="M 217.5 246 L 218 250.5 L 217 250.5 L 217.5 246 Z "/>
    <path fill="#f783ac" d="M 301.5 247 L 302 248.5 L 298 251.5 L 301.5 247 Z "/>
    <path fill="#f783ac" d="M 239.5 254 L 240 258 L 238 257.5 L 239.5 254 Z "/>
    <path fill="#f783ac" d="M 220.5 259 L 223.5 261 L 225.5 261 L 228 261.5 L 223.5 262 L 220.5 259 Z "/>
    <path fill="#f783ac" d="M 110.5 275 L 114 277.5 L 111.5 276 L 110.5 275 Z "/>
    <path fill="#f783ac" d="M 115.5 278 Q 119.9 279.6 119 286.5 L 118 286.5 L 117 280.5 L 115.5 278 Z "/>
    <path fill="#f783ac" d="M 92.5 290 L 92 291.5 L 90.5 295 L 91 293.5 L 92.5 290 Z "/>
    <path fill="#f783ac" d="M 117.5 290 L 118 292.5 L 110.5 302 L 111 300.5 L 117.5 290 Z "/>
    <path fill="#f783ac" d="M 89 302 Q 92 300.8 91 304.5 L 94 308.5 L 90 305.5 L 89 302 Z "/>
    <path fill="#f783ac" d="M 96.5 310 L 100 311.5 L 97.5 312 L 96.5 310 Z "/>
    <path fill="#f783ac" d="M 239.5 428 L 243 429.5 L 238.5 430 L 239.5 428 Z "/>
    <path fill="#f783ac" d="M 233.5 429 L 237 429.5 L 232.5 431 L 233.5 429 Z "/>
    <path fill="#f783ac" d="M 244.5 429 L 249 431.5 L 247.5 431 Q 243.8 430.8 244.5 429 Z "/>
    <path fill="#f783ac" d="M 250.5 433 Q 253.8 435.8 254 441.5 L 252 440.5 L 250.5 433 Z "/>
    <path fill="#f783ac" d="M 226.5 435 L 226 436.5 L 224.5 442 L 224 439.5 L 226.5 435 Z "/>
    <path fill="#f783ac" d="M 223.5 448 L 224 454.5 L 223 454.5 L 223.5 448 Z "/>
    <path fill="#f783ac" d="M 254.5 454 L 255 456.5 L 253.5 459 L 253 457.5 L 254.5 454 Z "/>
    <path fill="#f783ac" d="M 229.5 460 L 231.5 463 L 229 462 L 229.5 460 Z "/>
    <path fill="#f783ac" d="M 233.5 463 L 237 464.5 L 235.5 465 L 233.5 463 Z "/>
  </g>
  <g id="line">
    <path fill="#1a1a1a" d="M 278.5 36 L 313.5 36 L 314.5 37 L 334.5 37 L 335.5 38 L 351.5 39 L 364.5 43 L 370 48.5 L 372 51.5 L 376 76.5 L 379 84.5 L 403 121.5 L 417 157.5 L 418 164.5 L 427 192.5 L 427 196.5 L 431 209.5 L 432 219.5 L 434 224.5 L 435 239.5 L 436 240.5 L 436 260.5 L 431 278.5 L 425.5 286 Q 418.6 292.6 408.5 296 L 392 297 Q 390.9 318.1 377.5 328 Q 370.2 333.7 359.5 336 L 344.5 336 L 333 333 Q 330.3 350.6 317.5 359 L 313.5 362 L 302.5 366 L 288.5 366 L 269 359 L 270 364.5 L 270 373.5 L 271 374.5 L 271 383.5 L 272 384.5 L 274 413.5 L 275 414.5 L 275 437.5 L 272 451.5 L 267 461.5 L 257.5 471 L 246.5 476 L 231.5 476 Q 221.8 472.7 216 465.5 L 206 448.5 L 199 424.5 L 198 412.5 L 195 399.5 L 193 377.5 L 192 376.5 L 192 366.5 L 191 365.5 L 191 357.5 L 190 356.5 L 189 340.5 L 188 339.5 L 188 328.5 L 185 312.5 L 185 303.5 L 182 287.5 L 181 272 L 178 273.5 Q 165.8 296.3 146.5 312 L 126.5 324 L 113.5 327 L 106.5 327 L 97.5 325 L 88.5 321 L 81 313.5 Q 76.6 307.9 77 297.5 Q 79.3 296.3 78 291.5 L 85 276.5 L 94 263.5 L 115 225.5 L 123 204.5 L 133 163.5 L 139 147.5 L 148 131.5 L 169 105.5 L 173 96.5 L 173 86.5 L 170 72.5 L 170 64.5 Q 171.4 56.4 177.5 53 L 192.5 47 L 212.5 43 L 230.5 41 L 231.5 40 L 240.5 40 L 250.5 38 L 259.5 38 L 260.5 37 L 277.5 37 L 278.5 36 Z M 278 48 L 277 49 L 251 50 L 250 51 L 241 51 L 233 53 L 227 53 L 226 54 L 219 54 L 188 61 L 183 63 L 182 66 L 182 74 L 185 86 L 185 99 L 179 113 L 155 143 L 148 157 L 133 213 L 126 231 L 108 263 L 107 267 L 118 270 Q 125 274 127 284 Q 127 293 123 299 L 110 315 L 125 312 L 145 298 Q 164 278 178 253 L 177 241 L 176 240 L 176 227 Q 177 224 181 225 L 185 231 L 190 253 L 190 260 L 193 273 L 193 282 L 196 296 L 197 314 L 199 322 L 200 341 L 201 342 L 201 350 L 202 351 L 202 359 L 203 360 L 203 369 L 206 386 L 207 402 L 213 433 L 216 439 Q 215 442 218 441 L 221 431 Q 225 424 234 422 Q 246 420 253 424 Q 260 429 262 439 L 263 437 L 263 414 L 261 404 L 260 381 L 258 372 L 257 344 L 256 343 L 256 325 L 255 324 L 256 294 L 258 286 L 262 285 L 264 288 L 265 293 L 266 324 L 267 325 L 268 344 L 289 354 Q 305 356 312 349 Q 321 341 323 326 L 323 302 L 321 291 L 321 278 L 325 274 L 329 275 L 331 279 L 331 284 L 334 296 L 335 321 L 340 323 L 351 324 L 352 325 L 361 324 L 370 319 L 378 309 L 381 297 L 381 283 L 377 261 L 377 250 L 378 249 Q 377 245 383 247 L 387 254 L 392 278 L 392 284 L 394 285 L 404 285 L 416 279 L 423 267 L 424 262 L 424 239 L 423 238 L 422 225 L 416 202 L 416 198 L 413 191 L 403 153 L 391 125 L 375 102 L 367 87 L 363 73 L 361 57 L 355 52 L 343 51 L 342 50 L 318 49 L 317 48 L 278 48 Z M 103 273 Q 94 283 89 297 Q 88 305 92 309 L 97 312 Q 101 313 103 310 Q 113 302 119 290 L 118 281 Q 114 275 108 273 L 103 273 Z M 239 428 Q 237 430 233 429 L 227 432 Q 221 440 223 456 Q 227 462 236 465 L 247 464 L 255 458 L 254 440 L 251 433 L 247 429 L 239 428 Z "/>
    <path fill="#1a1a1a" d="M 359.5 216 Q 364.3 215.3 365 218.5 L 366 228.5 Q 364.3 236.8 358.5 241 L 347.5 246 L 340.5 246 L 333 242.5 L 332 238.5 Q 333.3 235.8 338.5 237 L 339.5 238 L 348.5 238 L 357 231.5 Q 359.6 228.6 359 222.5 L 358 217.5 L 359.5 216 Z "/>
    <path fill="#1a1a1a" d="M 292.5 227 Q 304.3 225.2 308 231.5 L 310 234.5 L 311 243.5 L 308 252.5 L 302.5 258 Q 296.4 261.4 285.5 260 L 276 255.5 L 277.5 252 L 284.5 254 L 294.5 254 L 302 249.5 L 304 239.5 L 301.5 235 L 293.5 234 L 280.5 238 L 275.5 238 L 274 235.5 L 276.5 232 L 292.5 227 Z "/>
    <path fill="#1a1a1a" d="M 212 241 Q 215.8 240 217 242.5 Q 214.9 256.1 221.5 261 Q 225.3 263.7 233.5 262 L 240 257.5 L 241 247.5 L 243.5 245 Q 247.5 244.5 248 247.5 L 248 255.5 L 243 265 L 234.5 269 L 221.5 269 L 215 264.5 Q 209.3 258.7 210 246.5 L 212 241 Z "/>
  </g>
</svg>
