<svg xmlns="http://www.w3.org/2000/svg" width="512" height="512" viewBox="0 0 512 512">
  <g id="color">
    <path fill="#ffffff" d="M 256.5 51 L 258 54.5 L 257 54.5 L 256.5 51 Z "/>
    <path fill="#ffffff" d="M 199.5 68 L 200 70.5 L 198.5 74 L 198 71.5 L 199.5 68 Z "/>
    <path fill="#ffffff" d="M 261.5 69 L 262 75.5 L 261 75.5 L 261.5 69 Z "/>
    <path fill="#ffffff" d="M 262.5 78 L 263 88.5 L 262 88.5 L 262.5 78 Z "/>
    <path fill="#ffffff" d="M 195.5 89 L 196 95.5 L 195 95.5 L 195.5 89 Z "/>
    <path fill="#ffffff" d="M 194.5 98 L 195 105.5 L 194 105.5 L 194.5 98 Z "/>
    <path fill="#ffffff" d="M 193.5 112 L 194 119.5 L 193 119.5 L 193.5 112 Z "/>
    <path fill="#ffffff" d="M 262.5 125 L 263 156.5 L 264 157.5 L 262 158 L 262.5 125 Z "/>
    <path fill="#ffffff" d="M 192.5 127 L 193 138.5 L 192 138.5 L 192.5 127 Z "/>
    <path fill="#ffffff" d="M 191.5 143 L 192 164.5 L 191 164.5 L 191.5 143 Z "/>
    <path fill="#ffffff" d="M 277.5 152 L 286 152.5 L 277.5 153 L 277.5 152 Z "/>
    <path fill="#ffffff" d="M 292.5 154 L 297 156.5 L 295.5 156 Q 291.7 155.8 292.5 154 Z "/>
    <path fill="#ffffff" d="M 327.5 167 L 335 167.5 L 327.5 168 L 327.5 167 Z "/>
    <path fill="#ffffff" d="M 348.5 173 L 356 181.5 L 354 180.5 L 348.5 173 Z "/>
    <path fill="#ffffff" d="M 190.5 177 L 191 206.5 L 190 206.5 L 190.5 177 Z "/>
    <path fill="#ffffff" d="M 356.5 183 L 359 187.5 L 358 187.5 L 356.5 183 Z "/>
    <path fill="#ffffff" d="M 367.5 190 L 372 190.5 L 367.5 191 L 367.5 190 Z "/>
    <path fill="#ffffff" d="M 376.5 190 L 382 190.5 L 376.5 191 L 376.5 190 Z "/>
    <path fill="#ffffff" d="M 125.5 191 L 139 191.5 L 125.5 192 L 125.5 191 Z "/>
    <path fill="#ffffff" d="M 119.5 193 L 121 193.5 L 116.5 196 L 117.5 194 L 119.5 193 Z "/>
    <path fill="#ffffff" d="M 388.5 193 L 393 196.5 L 390.5 195 L 388.5 193 Z "/>
    <path fill="#ffffff" d="M 147.5 194 L 151 195.5 L 149.5 196 L 147.5 194 Z "/>
    <path fill="#ffffff" d="M 152.5 196 L 157 199.5 L 154.5 198 L 152.5 196 Z "/>
    <path fill="#ffffff" d="M 103.5 213 L 104 225.5 L 103 225.5 L 103.5 213 Z "/>
    <path fill="#ffffff" d="M 183.5 229 L 186 232.5 L 184 231.5 L 183.5 229 Z "/>
    <path fill="#ffffff" d="M 407.5 232 L 408 236.5 L 407 236.5 L 407.5 232 Z "/>
    <path fill="#ffffff" d="M 408.5 241 L 409 254.5 L 408 254.5 L 408.5 241 Z "/>
    <path fill="#ffffff" d="M 109.5 244 L 111 247.5 L 110 247.5 L 109.5 244 Z "/>
    <path fill="#ffffff" d="M 112.5 251 L 116 258.5 L 115 258.5 L 112.5 251 Z "/>
    <path fill="#ffffff" d="M 409.5 260 L 410 268.5 L 409 268.5 L 409.5 260 Z "/>
    <path fill="#ffffff" d="M 408.5 275 L 409 289.5 L 408 289.5 L 408.5 275 Z "/>
    <path fill="#ffffff" d="M 124.5 276 L 127 281.5 L 126 281.5 L 124.5 276 Z "/>
    <path fill="#ffffff" d="M 407.5 295 L 408 301.5 L 407 301.5 L 407.5 295 Z "/>
    <path fill="#ffffff" d="M 406.5 308 L 407 312.5 L 406 312.5 L 406.5 308 Z "/>
    <path fill="#ffffff" d="M 405.5 315 L 406 320.5 L 404.5 327 L 404 321.5 L 405.5 315 Z "/>
    <path fill="#ffffff" d="M 140.5 320 L 142 325.5 L 141 325.5 L 140.5 320 Z "/>
    <path fill="#ffffff" d="M 144.5 334 L 146 338.5 L 145 338.5 L 144.5 334 Z "/>
    <path fill="#ffffff" d="M 401.5 339 L 402 342.5 L 400.5 346 L 400 343.5 L 401.5 339 Z "/>
    <path fill="#ffffff" d="M 397.5 355 L 398 356.5 L 396.5 359 L 396 357.5 L 397.5 355 Z "/>
    <path fill="#ffffff" d="M 394.5 363 L 395 364.5 L 393.5 367 L 393 365.5 L 394.5 363 Z "/>
    <path fill="#ffffff" d="M 386.5 380 L 386 381.5 L 384.5 384 L 385 382.5 L 386.5 380 Z "/>
    <path fill="#ffffff" d="M 378.5 394 L 378 395.5 L 376.5 398 L 377 396.5 L 378.5 394 Z "/>
    <path fill="#ffffff" d="M 374.5 402 L 375 403.5 L 373.5 406 L 373 404.5 L 374.5 402 Z "/>
    <path fill="#ffffff" d="M 183.5 403 L 185 406.5 L 184 406.5 L 183.5 403 Z "/>
    <path fill="#ffffff" d="M 188.5 420 L 189 424.5 L 188 424.5 L 188.5 420 Z "/>
    <path fill="#ffffff" d="M 189.5 430 L 190 442.5 L 189 442.5 L 189.5 430 Z "/>
    <path fill="#ffffff" d="M 367.5 430 L 368 439.5 L 367 439.5 L 367.5 430 Z "/>
    <path fill="#ffffff" d="M 191.5 455 L 194 459.5 L 192 458.5 L 191.5 455 Z "/>
    <path fill="#ffffff" d="M 203.5 468 L 210 470.5 L 208.5 471 L 203.5 469 L 203.5 468 Z "/>
    <path fill="#ffffff" d="M 356.5 468 L 355.5 470 L 352.5 471 L 352.5 470 L 356.5 468 Z "/>
    <path fill="#ffffff" d="M 222.5 473 L 227 473.5 L 222.5 474 L 222.5 473 Z "/>
    <path fill="#ffffff" d="M 335.5 473 L 342 473.5 L 335.5 474 L 335.5 473 Z "/>
    <path fill="#ffffff" d="M 228.5 474 L 234 474.5 L 228.5 475 L 228.5 474 Z "/>
    <path fill="#ffffff" d="M 325.5 474 L 334 474.5 L 325.5 475 L 325.5 474 Z "/>
    <path fill="#ffffff" d="M 238.5 475 L 244 475.5 L 238.5 476 L 238.5 475 Z "/>
    <path fill="#ffffff" d="M 307.5 475 L 317 475.5 L 307.5 476 L 307.5 475 Z "/>
    <path fill="#ffffff" d="M 253.5 476 L 294 476.5 L 253.5 477 L 253.5 476 Z "/>
    <path fill="#4da3ff" d="M 229.5 52 Q 237.8 51.8 241 56.5 L 244 63.5 L 245 74.5 L 246 75.5 L 246 87.5 L 247 88.5 L 247 123.5 L 246 125.5 L 246 127.5 L 247 131.5 L 246 132.5 L 246 191.5 L 247 192.5 L 248 215.5 L 251.5 220 L 255.5 221 L 260 217.5 L 262 209.5 L 262 199.5 L 263 198.5 L 264 185.5 Q 265.9 176.9 271.5 172 Q 275.3 167.3 285.5 169 L 292 173.5 L 295 178.5 L 298 190.5 L 299 227.5 L 300 231 L 302.5 232 L 304 231.5 L 303.5 233 L 308.5 233 L 312 231 Q 314.1 226.2 313 216.5 L 314 215.5 L 314 213.5 Q 311.9 194.9 320.5 187 Q 324.3 182.3 334.5 184 L 341 188.5 L 347 202.5 L 348 224.5 Q 345.5 226 347 231.5 Q 349.7 233.2 348 239.5 L 351.5 244 L 358.5 245 L 363 241.5 L 364 239.5 L 365 210.5 L 366 208 L 372.5 206 L 377.5 206 L 385 211.5 L 389 219.5 L 392 234.5 L 393 281.5 L 392 282.5 L 392 299.5 L 391 300.5 L 389 323.5 L 383 349.5 L 377 364.5 L 366 382.5 L 357 401.5 L 352 422.5 Q 353.5 428 351 429.5 L 351 449.5 L 348.5 455 L 342.5 457 L 321.5 458 L 320.5 459 L 318.5 458 L 317.5 459 L 304.5 459 L 302.5 460 L 300.5 460 L 262.5 461 L 261.5 460 L 245.5 460 L 244.5 459 L 234.5 459 L 233.5 458 L 221.5 457 Q 218.6 454.4 212.5 455 L 206 450.5 L 205 423.5 L 200 400.5 L 192 386.5 Q 178.4 372.6 169 354.5 L 158 325.5 L 157 317.5 L 154 311.5 L 153 304.5 L 148 290.5 L 134 257 Q 139.3 257.6 142 253.5 L 146 244.5 L 146 242.5 Q 143.7 222.8 130.5 214 L 125 210.5 L 126.5 208 L 134.5 207 L 144.5 210 L 160 223.5 L 162 226.5 L 175 246.5 L 186 270.5 L 191.5 277 L 198.5 278 L 204 273.5 L 205 260.5 L 206 259.5 L 205 256.5 L 206 255.5 L 206 199.5 Q 208.7 197.8 207 191.5 L 206 187.5 L 207 186.5 L 208 131.5 L 209 130.5 L 209 119.5 L 210 118.5 L 210 116.5 L 212 85.5 L 216 68.5 L 220 59.5 L 226.5 53 L 229.5 52 Z M 361 321 L 355 324 L 350 331 L 346 347 L 340 359 L 327 375 L 325 381 L 327 388 L 334 393 L 340 393 L 348 388 L 367 358 L 374 333 L 372 327 Q 369 321 361 321 Z M 192 328 L 185 330 L 179 339 Q 181 357 191 368 Q 198 378 210 382 L 213 382 L 219 379 L 223 373 Q 224 364 220 362 L 214 357 L 205 346 L 201 334 Q 198 329 192 328 Z "/>
    <path fill="#ffd43b" d="M 120.5 212 Q 131.2 214.3 136 222.5 L 143 235.5 L 144 244.5 Q 143.1 251.1 138.5 254 L 131 256 L 121 234.5 Q 118 227 118 216.5 L 120.5 212 Z "/>
    <path fill="#ffd43b" d="M 358.5 324 L 365.5 324 L 369 326 Q 372 329.3 371 337.5 Q 367.4 353.9 360 366.5 L 345 388 L 339.5 391 L 334.5 391 L 329 386.5 L 327 380.5 L 330 373.5 Q 339 366.5 344 355.5 L 350 341.5 L 352 331.5 L 356.5 325 L 358.5 324 Z "/>
    <path fill="#ffd43b" d="M 187.5 331 Q 197.6 329.4 200 335.5 L 201 341.5 L 210.5 357 L 219 363.5 L 221 370.5 L 216.5 378 L 207.5 379 L 198 373 L 189 360.5 L 183 348.5 L 182 336.5 L 185.5 332 L 187.5 331 Z "/>
    <path fill="#51cf66" d="M 138.5 226 L 142 232.5 L 141 232.5 L 138.5 226 Z "/>
    <path fill="#51cf66" d="M 137.5 254 L 136.5 256 L 134 255.5 L 137.5 254 Z "/>
    <path fill="#51cf66" d="M 359.5 323 L 365 323.5 L 359.5 324 L 359.5 323 Z "/>
    <path fill="#51cf66" d="M 356.5 324 L 358 324.5 L 354 327.5 L 352.5 331 L 352 329.5 L 356.5 324 Z "/>
    <path fill="#51cf66" d="M 188.5 330 L 194 330.5 L 188.5 331 L 188.5 330 Z "/>
    <path fill="#51cf66" d="M 181.5 337 L 182 343.5 L 181 343.5 L 181.5 337 Z "/>
    <path fill="#51cf66" d="M 183.5 349 L 189 359.5 L 187 358.5 L 183 350.5 L 183.5 349 Z "/>
    <path fill="#51cf66" d="M 205.5 349 L 209 353.5 L 206 351.5 L 205.5 349 Z "/>
    <path fill="#51cf66" d="M 344.5 352 L 345 353.5 L 342.5 357 L 343 355.5 L 344.5 352 Z "/>
    <path fill="#51cf66" d="M 365.5 354 L 366 355.5 L 364.5 358 L 364 356.5 L 365.5 354 Z "/>
    <path fill="#51cf66" d="M 209.5 355 L 215 359.5 L 211.5 357 L 209.5 355 Z "/>
    <path fill="#51cf66" d="M 216.5 360 L 220 364.5 L 219 364.5 L 216.5 360 Z "/>
    <path fill="#51cf66" d="M 340.5 360 L 340 361.5 L 331.5 372 L 337 365.5 L 340.5 360 Z "/>
    <path fill="#51cf66" d="M 359.5 367 L 359 368.5 L 357.5 371 L 358 369.5 L 359.5 367 Z "/>
    <path fill="#51cf66" d="M 220.5 371 L 221 373.5 L 219 374.5 L 220.5 371 Z "/>
    <path fill="#51cf66" d="M 199.5 373 L 207 378.5 L 205.5 379 L 199.5 373 Z "/>
    <path fill="#51cf66" d="M 208.5 379 L 214 379.5 L 208.5 380 L 208.5 379 Z "/>
    <path fill="#51cf66" d="M 327.5 382 L 329 385.5 L 327 384.5 L 327.5 382 Z "/>
    <path fill="#66d9e8" d="M 228.5 51 Q 237.6 50 241 54.5 L 245 62.5 L 247 71.5 L 247 81.5 L 248 82.5 L 248 200.5 L 249 201.5 L 249 214.5 L 252.5 219 Q 258 220 259 216.5 L 263 184.5 Q 265.1 175.1 271.5 170 Q 276.2 166.2 286.5 168 L 294 173.5 L 297 179.5 L 299 189.5 L 300 225.5 L 301 229.5 L 303.5 232 L 310 231 L 312 225.5 L 312 210.5 L 313 209.5 L 314 194.5 Q 315.3 188.8 319.5 186 L 324.5 183 L 331.5 182 L 341 186.5 L 344 190.5 L 348 201.5 L 349 206.5 L 349 238.5 L 352.5 243 L 356.5 244 L 362 240.5 L 363 238.5 L 364 208 L 370.5 205 L 378.5 205 L 386 210.5 L 391 221.5 L 393 241.5 L 394 242.5 L 394 290.5 L 393 291.5 L 391 319.5 L 386 343.5 L 382 356.5 L 360 397.5 L 356 409.5 L 353 424.5 L 353 432.5 L 352 433.5 L 352 452.5 L 349.5 456 L 344.5 458 L 327.5 459 L 326.5 460 L 308.5 460 L 307.5 461 L 289.5 461 L 288.5 462 L 257.5 462 L 256.5 461 L 242.5 461 L 241.5 460 L 224.5 459 L 208.5 455 L 206 452.5 L 204 445.5 L 203 418.5 L 198 398.5 Q 189.6 383.4 178 371.5 L 167 353.5 L 158 329.5 L 154 312.5 L 152 309.5 L 146 288.5 L 132 257.5 Q 132.8 255.3 136.5 256 L 142 251.5 Q 145.7 247.2 144 237.5 Q 139.9 223.1 129.5 215 L 121 210.5 Q 125 204 137.5 206 L 145.5 209 L 161 222.5 Q 177.3 244.2 188 271.5 L 192.5 276 L 197.5 277 L 202 275 L 204 267.5 L 204 254.5 L 205 253.5 L 205 172.5 L 206 171.5 L 206 145.5 L 207 144.5 L 207 128.5 L 208 127.5 L 210 91.5 L 215 67.5 Q 218.1 57.6 225.5 52 L 228.5 51 Z M 230 52 L 227 53 L 220 60 L 216 69 L 212 86 L 210 117 L 210 119 L 209 120 L 209 131 L 208 132 L 207 187 L 206 188 L 207 192 Q 209 198 206 200 L 206 256 L 205 257 L 206 260 L 205 261 L 204 274 L 199 278 L 192 277 L 186 271 L 175 247 L 162 227 L 160 224 L 145 210 L 135 207 L 127 208 L 125 211 L 131 214 Q 144 223 146 243 L 146 245 L 142 254 Q 139 258 134 257 L 148 291 L 153 305 L 154 312 L 157 318 L 158 326 L 169 355 Q 178 373 192 387 L 200 401 L 205 424 L 206 451 L 213 455 Q 219 454 222 457 L 234 458 L 235 459 L 245 459 L 246 460 L 262 460 L 263 461 L 301 460 L 303 460 L 305 459 L 318 459 L 319 458 L 321 459 L 322 458 L 343 457 L 349 455 L 351 450 L 351 430 Q 354 428 352 423 L 357 402 L 366 383 L 377 365 L 383 350 L 389 324 L 391 301 L 392 300 L 392 283 L 393 282 L 392 235 L 389 220 L 385 212 L 378 206 L 373 206 L 366 208 L 365 211 L 364 240 L 363 242 L 359 245 L 352 244 L 348 240 Q 350 233 347 232 Q 346 226 348 225 L 347 203 L 341 189 L 335 184 Q 324 182 321 187 Q 312 195 314 214 L 314 216 L 313 217 Q 314 226 312 231 L 309 233 L 304 233 L 300 231 L 299 228 L 298 191 L 295 179 L 292 174 L 286 169 Q 275 167 272 172 Q 266 177 264 186 L 263 199 L 262 200 L 262 210 L 260 218 L 256 221 L 252 220 L 248 216 L 247 193 L 246 192 L 246 133 L 247 132 L 246 128 L 246 126 L 247 124 L 247 89 L 246 88 L 246 76 L 245 75 L 244 64 L 241 57 Q 238 52 230 52 Z "/>
    <path fill="#66d9e8" d="M 360.5 321 Q 368.9 321.1 372 326.5 L 374 332.5 L 367 357.5 L 348 388 L 339.5 393 L 333.5 393 L 327 387.5 L 325 380.5 L 327 374.5 L 340 358.5 L 346 346.5 L 350 330.5 L 354.5 324 L 360.5 321 Z M 360 323 L 357 324 L 352 330 L 349 343 L 341 360 L 327 378 Q 326 385 329 388 L 334 391 L 343 390 Q 364 370 372 337 L 371 329 L 365 323 L 360 323 Z "/>
    <path fill="#66d9e8" d="M 191.5 328 Q 198.1 328.9 201 333.5 L 205 345.5 L 213.5 357 L 220 361.5 Q 224.1 364.4 223 372.5 L 218.5 379 L 212.5 382 L 209.5 382 Q 197.5 377.5 191 367.5 Q 181.5 356.5 179 338.5 L 184.5 330 L 191.5 328 Z M 189 330 L 187 331 L 181 338 L 181 344 L 183 351 L 193 368 L 204 378 L 209 380 Q 215 381 218 378 L 221 374 L 220 364 L 211 356 Q 202 348 200 335 L 194 330 L 189 330 Z "/>
  </g>
  <g id="line">
    <path fill="#1a1a1a" d="M 229.5 36 Q 247.5 36 254 47.5 L 260 61.5 L 261 75.5 L 262 76.5 L 262 88.5 L 263 89.5 L 263 124.5 L 262 125.5 L 262 158 L 274.5 153 L 288.5 153 Q 298.9 156.1 305 163.5 L 310 174 L 320.5 169 L 335.5 168 Q 348.1 170.4 354 179.5 L 360 190.5 L 360 193 Q 366.1 190.3 375.5 190 L 385.5 192 L 396 199.5 L 403 211.5 L 407 227.5 L 408 254.5 L 409 255.5 L 409 274.5 L 408 275.5 L 407 307.5 L 404 321.5 L 403 334.5 Q 399.5 341.5 399 351.5 L 393 367.5 L 373 404.5 L 368 421.5 L 366 455.5 Q 363.9 463.9 357.5 468 L 348.5 472 L 335.5 473 L 334.5 474 L 325.5 474 L 324.5 475 L 307.5 475 L 306.5 476 L 244.5 476 L 243.5 475 L 234.5 475 L 233.5 474 L 210.5 471 L 202.5 468 L 194 460.5 L 190 450.5 L 189 420.5 L 185 405.5 L 182 399.5 L 163 375.5 L 152 355.5 L 131 290.5 L 108 241.5 L 104 228.5 L 104 211.5 Q 106.8 202.3 113.5 197 L 123.5 192 L 140.5 192 Q 162 199 174 215.5 L 189.5 240 L 192 139.5 L 193 138.5 L 193 120.5 L 194 119.5 L 194 106.5 L 195 105.5 L 196 87.5 L 197 86.5 L 198 74.5 L 202 60.5 Q 205.6 50.6 212.5 44 L 223.5 37 Q 228.2 38.3 229.5 36 Z M 229 51 L 226 52 Q 218 58 215 68 L 210 92 L 208 128 L 207 129 L 207 145 L 206 146 L 206 172 L 205 173 L 205 254 L 204 255 L 204 268 L 202 275 L 198 277 L 193 276 L 188 272 Q 177 244 161 223 L 146 209 L 138 206 Q 128 204 124 208 Q 119 211 118 217 Q 118 227 121 235 L 143 281 L 152 307 L 152 310 L 154 313 L 158 330 L 167 354 L 178 372 Q 190 383 198 399 L 203 419 L 204 446 L 206 453 L 209 455 L 225 459 L 242 460 L 243 461 L 257 461 L 258 462 L 289 462 L 290 461 L 308 461 L 309 460 L 327 460 L 328 459 L 345 458 L 350 456 L 352 453 L 352 434 L 353 433 L 353 425 L 356 410 L 360 398 L 382 357 L 386 344 L 391 320 L 393 292 L 394 291 L 394 243 L 393 242 L 391 222 L 386 211 L 379 205 L 371 205 L 364 208 L 363 239 L 362 241 L 357 244 L 353 243 L 349 239 L 349 207 L 348 202 L 344 191 L 341 187 L 332 182 L 325 183 L 320 186 Q 315 189 314 195 L 313 210 L 312 211 L 312 226 L 310 231 L 308 232 L 303 231 L 300 226 L 299 190 L 297 180 L 294 174 L 287 168 Q 276 166 272 170 Q 265 175 263 185 L 259 217 Q 258 220 253 219 L 249 215 L 249 202 L 248 201 L 248 83 L 247 82 L 247 72 L 245 63 L 241 55 Q 238 50 229 51 Z "/>
  </g>
</svg>
