<svg xmlns="http://www.w3.org/2000/svg" width="512" height="512" viewBox="0 0 512 512">
  <g id="color">
    <path fill="#ffffff" d="M 229.5 85 L 240 85.5 L 229.5 86 L 229.5 85 Z "/>
    <path fill="#ffffff" d="M 244.5 87 L 248 89.5 L 245.5 88 L 244.5 87 Z "/>
    <path fill="#ffffff" d="M 219.5 88 L 221 88.5 L 216.5 91 L 217.5 89 L 219.5 88 Z "/>
    <path fill="#ffffff" d="M 260.5 115 L 261 120.5 L 260 120.5 L 260.5 115 Z "/>
    <path fill="#ffffff" d="M 261.5 124 L 262 139.5 L 261 139.5 L 261.5 124 Z "/>
    <path fill="#ffffff" d="M 260.5 142 L 261 152.5 L 260 152.5 L 260.5 142 Z "/>
    <path fill="#ffffff" d="M 259.5 157 L 260 163.5 L 259 163.5 L 259.5 157 Z "/>
    <path fill="#ffffff" d="M 399.5 168 L 439 168.5 L 399.5 169 L 399.5 168 Z "/>
    <path fill="#ffffff" d="M 383.5 169 L 395 169.5 L 383.5 170 L 383.5 169 Z "/>
    <path fill="#ffffff" d="M 441.5 169 L 446 169.5 L 441.5 170 L 441.5 169 Z "/>
    <path fill="#ffffff" d="M 258.5 170 L 259 174.5 L 258 174.5 L 258.5 170 Z "/>
    <path fill="#ffffff" d="M 369.5 170 L 377 170.5 L 369.5 171 L 369.5 170 Z "/>
    <path fill="#ffffff" d="M 354.5 171 L 362 171.5 L 354.5 172 L 354.5 171 Z "/>
    <path fill="#ffffff" d="M 452.5 171 Q 462.3 173.8 467 181.5 L 459.5 175 L 452.5 172 L 452.5 171 Z "/>
    <path fill="#ffffff" d="M 339.5 172 L 350 172.5 L 339.5 173 L 339.5 172 Z "/>
    <path fill="#ffffff" d="M 329.5 173 L 337 173.5 L 329.5 174 L 329.5 173 Z "/>
    <path fill="#ffffff" d="M 317.5 174 L 324 174.5 L 317.5 175 L 317.5 174 Z "/>
    <path fill="#ffffff" d="M 303.5 175 L 310 175.5 L 303.5 176 L 303.5 175 Z "/>
    <path fill="#ffffff" d="M 287.5 176 L 297 176.5 L 287.5 177 L 287.5 176 Z "/>
    <path fill="#ffffff" d="M 266.5 177 L 284 177.5 L 266.5 178 L 266.5 177 Z "/>
    <path fill="#ffffff" d="M 467.5 183 L 470 187.5 L 469 187.5 L 467.5 183 Z "/>
    <path fill="#ffffff" d="M 475.5 216 L 476 223.5 L 475 223.5 L 475.5 216 Z "/>
    <path fill="#ffffff" d="M 476.5 233 L 477 251.5 L 476 251.5 L 476.5 233 Z "/>
    <path fill="#ffffff" d="M 40.5 241 L 40 242.5 L 38.5 246 L 38 244.5 L 40.5 241 Z "/>
    <path fill="#ffffff" d="M 476.5 267 L 477 283.5 L 476 283.5 L 476.5 267 Z "/>
    <path fill="#ffffff" d="M 39.5 269 L 42 272.5 L 40 271.5 L 39.5 269 Z "/>
    <path fill="#ffffff" d="M 475.5 292 L 476 297.5 L 475 297.5 L 475.5 292 Z "/>
    <path fill="#ffffff" d="M 474.5 303 L 475 307.5 L 474 307.5 L 474.5 303 Z "/>
    <path fill="#ffffff" d="M 473.5 310 L 474 314.5 L 472.5 319 L 472 315.5 L 473.5 310 Z "/>
    <path fill="#ffffff" d="M 470.5 323 L 471 324.5 L 468.5 328 L 469 326.5 L 470.5 323 Z "/>
    <path fill="#ffffff" d="M 259.5 331 L 271 331.5 L 259 332 L 258.5 336 L 258 332.5 L 259.5 331 Z "/>
    <path fill="#ffffff" d="M 273.5 332 L 289 332.5 L 273.5 333 L 273.5 332 Z "/>
    <path fill="#ffffff" d="M 295.5 333 L 304 333.5 L 295.5 334 L 295.5 333 Z "/>
    <path fill="#ffffff" d="M 310.5 334 L 318 334.5 L 310.5 335 L 310.5 334 Z "/>
    <path fill="#ffffff" d="M 324.5 335 L 333 335.5 L 324.5 336 L 324.5 335 Z "/>
    <path fill="#ffffff" d="M 460.5 335 L 459.5 337 L 456.5 338 L 456.5 337 L 460.5 335 Z "/>
    <path fill="#ffffff" d="M 335.5 336 L 345 336.5 L 335.5 337 L 335.5 336 Z "/>
    <path fill="#ffffff" d="M 347.5 337 L 355 337.5 L 347.5 338 L 347.5 337 Z "/>
    <path fill="#ffffff" d="M 361.5 338 L 367 338.5 L 361.5 339 L 361.5 338 Z "/>
    <path fill="#ffffff" d="M 374.5 339 L 382 339.5 L 374.5 340 L 374.5 339 Z "/>
    <path fill="#ffffff" d="M 386.5 340 L 399 340.5 L 386.5 341 L 386.5 340 Z "/>
    <path fill="#ffffff" d="M 440.5 340 L 446 340.5 L 440.5 341 L 440.5 340 Z "/>
    <path fill="#ffffff" d="M 259.5 341 L 260 346.5 L 259 346.5 L 259.5 341 Z "/>
    <path fill="#ffffff" d="M 402.5 341 L 438 341.5 L 402.5 342 L 402.5 341 Z "/>
    <path fill="#ffffff" d="M 260.5 349 L 261 356.5 L 260 356.5 L 260.5 349 Z "/>
    <path fill="#ffffff" d="M 261.5 359 L 262 370.5 L 261 370.5 L 261.5 359 Z "/>
    <path fill="#ffffff" d="M 261.5 389 L 262 396.5 L 260.5 402 L 260 397.5 L 261.5 389 Z "/>
    <path fill="#ffffff" d="M 257.5 410 L 258 411.5 L 255.5 416 L 255 414.5 L 257.5 410 Z "/>
    <path fill="#ffffff" d="M 231.5 427 L 240 427.5 L 231.5 428 L 231.5 427 Z "/>
    <path fill="#ffd43b" d="M 231.5 102 Q 238 101 240 104.5 L 244 115.5 L 245 138.5 L 244 139.5 L 243 164.5 L 241 172.5 L 241 188.5 L 244.5 193 Q 254 197 269.5 195 L 270.5 194 L 291.5 194 L 292.5 193 L 318.5 192 L 319.5 191 L 342.5 190 L 343.5 189 L 384.5 187 L 385.5 186 L 435.5 185 L 436.5 186 L 447.5 187 L 453 191.5 L 451.5 191 L 448 193.5 L 446 200.5 L 443 204.5 L 441 215 Q 438.3 213.9 439 216.5 L 441 222.5 L 440 225.5 Q 441.3 229.7 436.5 228 L 429 243.5 L 430 246 Q 425.9 244.3 427 248.5 Q 420.6 253.1 417.5 261 Q 415.3 260.3 416 262.5 L 415.5 265 Q 410.5 264.5 410 268.5 L 409.5 271 L 408 270.5 L 406.5 273 L 399.5 276 L 396.5 279 L 393.5 279 L 390.5 282 L 378.5 284 L 375.5 286 Q 369.2 285.2 366.5 288 L 360.5 288 L 344.5 291 L 342.5 291 Q 337 292.5 335.5 290 L 331.5 292 L 321 293 L 320.5 296 L 317.5 292 L 313.5 293 Q 312 290.5 310.5 294 L 299.5 293 L 299.5 294 L 303 294.5 L 298.5 295 L 296.5 295 L 293.5 294 L 280.5 297 L 270.5 297 L 258.5 301 Q 251.1 300.1 247 302.5 L 249 303.5 L 247.5 304 L 245.5 303 L 237 308.5 L 238 311.5 L 232 315.5 L 230.5 318 Q 227.9 317.2 229 320.5 Q 225 327.5 225 338.5 L 225 340.5 L 226 343.5 L 225 344.5 L 225 363.5 Q 222.7 364.8 224 369.5 L 218 389.5 L 221 391.5 L 219.5 392 L 215.5 390 L 213.5 393 L 209 395.5 L 213.5 399 L 215 398.5 L 214.5 400 L 221 404.5 L 219.5 404 L 199.5 390 L 88 297 L 86.5 294 Q 69.7 282.3 57 266.5 L 53 259.5 L 53 253.5 L 61 241 Q 63.7 242.1 63 239.5 Q 106.4 198.6 153 162 Q 151.9 159.3 154.5 160 L 196.5 124 L 215.5 110 L 231.5 102 Z M 411 201 L 401 203 L 391 203 L 390 204 L 366 205 L 364 209 L 367 210 L 383 210 L 384 209 L 395 209 L 396 208 L 406 208 L 407 207 L 421 206 L 423 203 L 422 201 L 411 201 Z M 335 206 L 332 209 L 334 211 L 345 211 L 346 210 Q 348 211 347 208 L 346 206 L 335 206 Z M 116 218 Q 108 221 108 230 L 113 229 L 118 223 L 118 220 L 116 218 Z M 94 237 L 92 238 Q 85 242 82 251 Q 80 263 86 267 L 95 271 L 99 271 L 106 268 L 109 265 L 112 258 L 112 250 L 108 241 L 102 237 L 94 237 Z "/>
    <path fill="#ffd43b" d="M 453.5 193 Q 456.8 197.8 457 205.5 L 456 205.5 L 453.5 193 Z "/>
    <path fill="#ffd43b" d="M 457.5 208 L 458 213.5 L 457 213.5 L 457.5 208 Z "/>
    <path fill="#ffd43b" d="M 458.5 215 L 459 226.5 L 460 227.5 L 460 252.5 L 461 253.5 L 461 266 L 459 265.5 L 459 263.5 L 459 228.5 L 458 227.5 L 458.5 215 Z "/>
    <path fill="#ffd43b" d="M 96.5 242 Q 102.9 242.1 105 246.5 Q 107.7 249.8 107 256.5 L 101.5 264 L 93.5 265 L 88 260.5 L 87 251.5 L 92.5 244 L 96.5 242 Z "/>
    <path fill="#ffd43b" d="M 459.5 268 L 460 290.5 L 459 291.5 L 458.5 300 L 458 289.5 L 459 288.5 L 459.5 268 Z "/>
    <path fill="#ffd43b" d="M 456.5 308 L 457 312.5 L 455.5 317 L 455 313.5 L 456.5 308 Z "/>
    <path fill="#ffd43b" d="M 308.5 309 L 312 310.5 L 307.5 312 L 307 310.5 L 308.5 309 Z "/>
    <path fill="#ffd43b" d="M 322.5 312 L 326 313.5 L 323.5 314 L 322.5 312 Z "/>
    <path fill="#ffd43b" d="M 250.5 314 L 272 314.5 L 250.5 315 L 246.5 316 L 246.5 315 L 250.5 314 Z "/>
    <path fill="#ffd43b" d="M 275.5 314 L 277.5 315 L 294 315.5 L 276.5 316 L 275.5 314 Z "/>
    <path fill="#ffd43b" d="M 244.5 316 L 241.5 320 L 242 318.5 Q 241.3 316.3 243.5 317 L 244.5 316 Z "/>
    <path fill="#ffd43b" d="M 298.5 316 L 307 316.5 L 298.5 317 L 298.5 316 Z "/>
    <path fill="#ffd43b" d="M 313.5 317 L 339.5 318 L 347 319.5 L 338.5 320 L 337.5 319 L 313.5 318 L 313.5 317 Z "/>
    <path fill="#ffd43b" d="M 350.5 320 L 358 320.5 L 350.5 321 L 350.5 320 Z "/>
    <path fill="#ffd43b" d="M 240.5 321 L 241 329.5 L 240 329.5 L 240.5 321 Z "/>
    <path fill="#ffd43b" d="M 362.5 321 L 373 321.5 L 362.5 322 L 362.5 321 Z "/>
    <path fill="#ffd43b" d="M 388.5 321 L 390 321.5 L 389.5 323 L 426.5 324 L 428.5 324 L 450.5 321 L 450.5 322 L 442.5 324 L 432.5 324 L 431.5 325 L 407.5 325 L 406.5 324 L 387.5 324 L 386.5 323 L 374 322.5 L 387.5 322 L 388.5 321 Z "/>
    <path fill="#ffd43b" d="M 241.5 332 L 243 346.5 L 244 347.5 L 244 355.5 L 245 356.5 L 245 364.5 L 244 364.5 L 243 348.5 L 241 339.5 L 241.5 332 Z "/>
    <path fill="#ffd43b" d="M 245.5 372 L 246 386.5 L 245 386.5 L 245.5 372 Z "/>
    <path fill="#ffd43b" d="M 244.5 392 L 245 396.5 L 241.5 406 L 241 404.5 L 244.5 392 Z "/>
    <path fill="#ffd43b" d="M 222.5 405 L 226 407.5 L 224.5 407 L 222.5 405 Z "/>
    <path fill="#ffd43b" d="M 240.5 407 L 237.5 411 L 233 410.5 Q 239 411 240.5 407 Z "/>
    <path fill="#ffa94d" d="M 450.5 191 L 453 192.5 L 458 214.5 L 459 263.5 L 460 264.5 L 460 266.5 L 459 268.5 L 458 302.5 L 455 317.5 L 451.5 321 L 428.5 324 L 426.5 324 L 389 322.5 L 389.5 321 L 387.5 322 L 373.5 322 L 372.5 321 L 358.5 321 L 348.5 319 L 346.5 319 L 325.5 318 L 324.5 317 L 310.5 317 L 309.5 316 L 307.5 317 L 306.5 316 L 277.5 315 L 275.5 314 L 272.5 315 L 271.5 314 L 250.5 314 L 242 317 Q 238.9 320.6 240 329.5 L 241 330.5 L 241 339.5 L 242 340.5 L 243 356.5 L 245 366.5 L 245 368.5 L 245 388.5 L 244 389.5 L 245 391.5 L 241 406.5 L 237.5 410 L 232.5 410 L 226.5 408 L 209 395.5 L 215 391.5 L 215.5 390 L 218.5 391 L 218 389.5 L 224 369.5 Q 222.7 364.8 225 363.5 L 225 344.5 L 226 342.5 L 225 340.5 L 225 338.5 Q 225.5 326.3 229 318 L 231 317.5 L 230.5 316 L 232 316.5 L 234.5 313 L 238 311.5 L 237 308.5 L 247.5 302 L 258.5 301 L 270.5 297 L 280.5 297 L 294.5 294 L 296.5 295 L 298.5 295 L 303 294.5 L 299 293.5 L 307.5 293 L 310.5 294 Q 312 290.5 313.5 293 L 317.5 292 L 320.5 296 L 321 293 L 331.5 292 L 335.5 290 Q 337 292.5 342.5 291 L 344.5 291 L 360.5 288 L 366.5 288 L 370.5 286 L 375.5 286 L 378.5 284 L 390.5 282 L 392 280.5 L 391.5 279 L 393.5 279 L 396.5 279 L 408 271.5 L 408.5 270 L 410 270.5 Q 409.5 265.5 413.5 265 L 416 264.5 L 416 262.5 Q 415.3 260.3 417.5 261 Q 420.6 253.1 427 248.5 L 427 246 Q 430.7 247.5 430 244.5 L 429 241.5 L 434 234.5 L 436.5 228 Q 441.3 229.7 440 225.5 L 441 222.5 L 439 215 Q 442 216.3 441 212.5 Q 443.7 210.2 443 204.5 L 446 200.5 L 446 197.5 L 450.5 191 Z M 309 309 L 307 311 L 308 312 L 312 311 L 309 309 Z M 323 312 L 324 314 L 326 314 L 323 312 Z "/>
  </g>
  <g id="line">
    <path fill="#1a1a1a" d="M 227.5 86 L 241.5 86 Q 249.3 89.3 254 95.5 L 257 101.5 L 260 113.5 L 261 141.5 L 260 142.5 L 260 156.5 L 259 157.5 L 258 178 L 283.5 178 L 284.5 177 L 323.5 175 L 324.5 174 L 349.5 173 L 350.5 172 L 361.5 172 L 362.5 171 L 376.5 171 L 377.5 170 L 394.5 170 L 395.5 169 L 440.5 169 L 451.5 171 L 459.5 175 L 467 182.5 L 471 191.5 L 475 211.5 L 477 266.5 L 476 267.5 L 475 302.5 L 472 319.5 Q 469.3 329.8 461.5 335 L 452.5 339 L 440.5 340 L 439.5 341 L 399.5 341 L 398.5 340 L 382.5 340 L 381.5 339 L 355.5 338 L 354.5 337 L 333.5 336 L 332.5 335 L 318.5 335 L 317.5 334 L 304.5 334 L 303.5 333 L 259.5 331 Q 257.3 331.8 258 335.5 L 259 336.5 L 259 346.5 L 261 357.5 L 262 388.5 L 261 389.5 L 259 407.5 L 255 416.5 L 247.5 424 Q 242 429 229.5 427 L 210.5 418 L 178.5 394 L 100.5 329 L 47 280.5 L 38 266.5 L 36 258.5 L 36 252.5 L 42 238.5 L 66.5 213 L 187.5 110 L 206.5 96 L 227.5 86 Z M 232 102 L 216 110 L 197 124 L 155 160 Q 152 159 153 162 Q 106 199 63 240 Q 64 242 61 241 L 53 254 L 53 260 L 57 267 Q 70 282 87 294 L 88 297 L 200 390 L 224 407 L 234 411 L 238 411 L 243 404 L 246 387 L 245 357 L 242 340 L 242 333 L 241 332 L 241 321 L 246 316 L 251 315 L 298 316 L 299 317 L 323 318 L 324 319 L 338 319 L 339 320 L 350 320 L 351 321 L 362 321 L 363 322 L 374 322 L 375 323 L 387 323 L 388 324 L 407 324 L 408 325 L 432 325 L 433 324 L 449 323 L 453 321 L 456 317 L 458 307 L 459 292 L 460 291 L 460 267 L 461 266 L 459 216 L 456 199 L 453 192 L 448 187 L 437 186 L 436 185 L 386 186 L 385 187 L 344 189 L 343 190 L 320 191 L 319 192 L 293 193 L 292 194 L 271 194 L 270 195 Q 254 197 245 193 L 241 189 L 241 173 L 243 165 L 244 140 L 245 139 L 244 116 L 240 105 Q 238 101 232 102 Z "/>
    <path fill="#1a1a1a" d="M 410.5 201 L 421.5 201 L 423 202.5 L 420.5 206 L 406.5 207 L 405.5 208 L 395.5 208 L 394.5 209 L 383.5 209 L 382.5 210 L 366.5 210 L 364 209 L 365.5 205 L 389.5 204 L 390.5 203 L 400.5 203 L 410.5 201 Z "/>
    <path fill="#1a1a1a" d="M 334.5 206 L 345.5 206 L 347 207.5 Q 348.1 210.8 345.5 210 L 344.5 211 L 333.5 211 L 332 208.5 L 334.5 206 Z "/>
    <path fill="#1a1a1a" d="M 115.5 218 L 118 219.5 L 118 222.5 L 113 229 L 108 230 Q 108.2 221.1 115.5 218 Z "/>
    <path fill="#1a1a1a" d="M 93.5 237 L 101.5 237 L 108 241 L 112 249.5 L 112 257.5 L 109 264.5 L 105.5 268 L 98.5 271 L 94.5 271 L 86 266.5 Q 80 262.5 82 250.5 Q 84.9 242.4 91.5 238 L 93.5 237 Z M 97 242 L 93 244 L 87 252 L 88 261 L 94 265 L 102 264 L 107 257 Q 108 250 105 247 Q 103 242 97 242 Z "/>
  </g>
</svg>
