<svg xmlns="http://www.w3.org/2000/svg" width="512" height="512" viewBox="0 0 512 512">
  <g id="color">
    <path fill="#ffffff" d="M 227.5 36 L 256 36.5 L 227.5 37 L 227.5 36 Z "/>
    <path fill="#ffffff" d="M 259.5 36 L 285 36.5 L 259.5 37 L 259.5 36 Z "/>
    <path fill="#ffffff" d="M 212.5 37 L 221 37.5 L 212.5 38 L 212.5 37 Z "/>
    <path fill="#ffffff" d="M 292.5 37 L 301 37.5 L 292.5 38 L 292.5 37 Z "/>
    <path fill="#ffffff" d="M 198.5 39 L 201 39.5 L 193.5 42 L 193.5 41 L 198.5 39 Z "/>
    <path fill="#ffffff" d="M 311.5 39 L 319 41.5 L 317.5 42 L 311.5 40 L 311.5 39 Z "/>
    <path fill="#ffffff" d="M 182.5 54 L 183 58.5 L 182 58.5 L 182.5 54 Z "/>
    <path fill="#ffffff" d="M 182.5 61 L 183 65.5 L 182 65.5 L 182.5 61 Z "/>
    <path fill="#ffffff" d="M 329.5 63 L 330 66.5 L 324.5 74 L 327 70.5 L 329.5 63 Z "/>
    <path fill="#ffffff" d="M 233.5 75 L 278.5 75 L 279.5 76 L 289.5 76 L 291 77.5 L 293 121.5 L 292 122.5 L 292 142.5 L 291 146 L 272.5 146 L 271.5 145 L 242.5 145 L 241.5 146 L 221 146 L 220 141.5 L 220 90.5 L 221 89.5 L 221 77.5 L 222.5 76 L 232.5 76 L 233.5 75 Z "/>
    <path fill="#ffffff" d="M 319.5 76 L 320 82.5 L 319 82.5 L 319.5 76 Z "/>
    <path fill="#ffffff" d="M 192.5 78 L 193 84.5 L 192 84.5 L 192.5 78 Z "/>
    <path fill="#ffffff" d="M 320.5 84 L 321 93.5 L 320 93.5 L 320.5 84 Z "/>
    <path fill="#ffffff" d="M 191.5 86 L 192 98.5 L 191 98.5 L 191.5 86 Z "/>
    <path fill="#ffffff" d="M 321.5 103 L 322 131.5 L 321 131.5 L 321.5 103 Z "/>
    <path fill="#ffffff" d="M 190.5 104 L 191 127.5 L 190 127.5 L 190.5 104 Z "/>
    <path fill="#ffffff" d="M 191.5 135 L 192 146.5 L 190.5 148 L 182.5 148 L 182.5 147 L 191 147 L 191.5 135 Z "/>
    <path fill="#ffffff" d="M 320.5 140 L 321 147 L 330 147.5 L 321.5 148 Q 318.1 146.1 320.5 140 Z "/>
    <path fill="#ffffff" d="M 169.5 148 L 175 148.5 L 169.5 149 L 169.5 148 Z "/>
    <path fill="#ffffff" d="M 337.5 148 L 343 148.5 L 337.5 149 L 337.5 148 Z "/>
    <path fill="#ffffff" d="M 161.5 149 L 166 149.5 L 161.5 150 L 161.5 149 Z "/>
    <path fill="#ffffff" d="M 347.5 149 L 352 149.5 L 347.5 150 L 347.5 149 Z "/>
    <path fill="#ffffff" d="M 155.5 150 L 160 150.5 L 152.5 152 L 152.5 151 L 155.5 150 Z "/>
    <path fill="#ffffff" d="M 365.5 153 L 369 154.5 L 367.5 155 L 365.5 153 Z "/>
    <path fill="#ffffff" d="M 389.5 191 L 390 196.5 L 389 196.5 L 389.5 191 Z "/>
    <path fill="#ffffff" d="M 122.5 192 L 123 196.5 L 122 196.5 L 122.5 192 Z "/>
    <path fill="#ffffff" d="M 390.5 198 L 391 204.5 L 390 204.5 L 390.5 198 Z "/>
    <path fill="#ffffff" d="M 121.5 199 L 122 204.5 L 121 204.5 L 121.5 199 Z "/>
    <path fill="#ffffff" d="M 391.5 206 L 392 213.5 L 391 213.5 L 391.5 206 Z "/>
    <path fill="#ffffff" d="M 120.5 207 L 121 214.5 L 120 214.5 L 120.5 207 Z "/>
    <path fill="#ffffff" d="M 392.5 219 L 393 226.5 L 392 226.5 L 392.5 219 Z "/>
    <path fill="#ffffff" d="M 119.5 221 L 120 229.5 L 119 229.5 L 119.5 221 Z "/>
    <path fill="#ffffff" d="M 393.5 237 L 394 249.5 L 393 249.5 L 393.5 237 Z "/>
    <path fill="#ffffff" d="M 118.5 239 L 119 251.5 L 118 251.5 L 118.5 239 Z "/>
    <path fill="#ffffff" d="M 394.5 261 L 395 284.5 L 394 284.5 L 394.5 261 Z "/>
    <path fill="#ffffff" d="M 117.5 264 L 118 286.5 L 117 286.5 L 117.5 264 Z "/>
    <path fill="#ffffff" d="M 395.5 291 L 396 333.5 L 395 333.5 L 395.5 291 Z "/>
    <path fill="#ffffff" d="M 116.5 295 L 117 324.5 L 116 324.5 L 116.5 295 Z "/>
    <path fill="#ffffff" d="M 117.5 329 L 118 353.5 L 117 353.5 L 117.5 329 Z "/>
    <path fill="#ffffff" d="M 394.5 339 L 395 358.5 L 394 358.5 L 394.5 339 Z "/>
    <path fill="#ffffff" d="M 118.5 364 L 119 374.5 L 118 374.5 L 118.5 364 Z "/>
    <path fill="#ffffff" d="M 393.5 367 L 394 377.5 L 393 377.5 L 393.5 367 Z "/>
    <path fill="#ffffff" d="M 119.5 383 L 120 391.5 L 119 391.5 L 119.5 383 Z "/>
    <path fill="#ffffff" d="M 392.5 385 L 393 393.5 L 392 393.5 L 392.5 385 Z "/>
    <path fill="#ffffff" d="M 120.5 397 L 121 406.5 L 120 406.5 L 120.5 397 Z "/>
    <path fill="#ffffff" d="M 391.5 400 L 392 407.5 L 391 407.5 L 391.5 400 Z "/>
    <path fill="#ffffff" d="M 121.5 408 L 122 413.5 L 121 413.5 L 121.5 408 Z "/>
    <path fill="#ffffff" d="M 390.5 410 L 391 415.5 L 390 415.5 L 390.5 410 Z "/>
    <path fill="#ffffff" d="M 124.5 427 L 127 432.5 L 126 432.5 L 124.5 427 Z "/>
    <path fill="#ffffff" d="M 386.5 429 L 387 430.5 L 385.5 433 L 385 431.5 L 386.5 429 Z "/>
    <path fill="#ffffff" d="M 143.5 449 L 147 450.5 L 145.5 451 L 143.5 449 Z "/>
    <path fill="#ffffff" d="M 199.5 457 L 209 457.5 L 199 458 L 198.5 462 L 198 458.5 L 199.5 457 Z "/>
    <path fill="#ffffff" d="M 305.5 457 L 314 457.5 L 305.5 458 L 305.5 457 Z "/>
    <path fill="#ffffff" d="M 222.5 458 L 250 458.5 L 222.5 459 L 222.5 458 Z "/>
    <path fill="#ffffff" d="M 257.5 458 L 291 458.5 L 257.5 459 L 257.5 458 Z "/>
    <path fill="#ffffff" d="M 314.5 459 L 316 465.5 L 315 465.5 L 314.5 459 Z "/>
    <path fill="#ffffff" d="M 160.5 466 L 163 469.5 L 161 468.5 L 160.5 466 Z "/>
    <path fill="#ffffff" d="M 173.5 476 L 185 476.5 L 173.5 477 L 173.5 476 Z "/>
    <path fill="#ffffff" d="M 328.5 476 L 340 476.5 L 328.5 477 L 328.5 476 Z "/>
    <path fill="#4da3ff" d="M 252.5 46 L 257.5 47 L 285.5 47 L 286.5 48 L 288.5 48 L 298.5 48 L 299.5 49 L 311.5 50 L 318 54.5 L 319 63.5 L 318 66 L 312.5 67 L 298.5 67 L 297.5 66 L 286.5 66 L 284.5 65 L 282.5 65 L 228.5 65 L 227.5 66 L 225.5 65 L 224.5 66 L 214.5 66 L 213.5 67 L 199.5 67 L 194 66 Q 192.1 63.3 193 56.5 L 197.5 51 L 212.5 48 L 214.5 48 L 251.5 47 L 252.5 46 Z "/>
    <path fill="#4da3ff" d="M 203 79 L 211 79 L 211 86.5 L 210 87.5 Q 211.7 98.3 209 104.5 L 210 108.5 L 209 109.5 L 209 126.5 L 210 127.5 L 210 145 L 202 145 L 202 134.5 L 202 132.5 L 201 129.5 L 201 106.5 L 202 105.5 L 202 84.5 L 203 79 Z "/>
    <path fill="#4da3ff" d="M 302.5 79 L 309 79 L 309 81.5 L 310 82.5 L 310 96.5 L 311 98.5 L 311 100.5 L 311 133.5 L 310 134.5 L 310 145 L 302 145 L 302 130.5 L 303 129.5 L 303 101.5 L 302 100.5 L 302 83.5 L 301 80.5 L 302.5 79 Z "/>
    <path fill="#4da3ff" d="M 312 199 Q 319.9 199.6 323 206.5 Q 326 210.5 325 218.5 Q 323.2 225.7 317.5 229 Q 313.5 232.5 304.5 231 L 297 226.5 L 295 223.5 Q 291.5 219.5 293 210.5 L 299.5 201 Q 303.9 199.5 303 202.5 L 307.5 205 L 312 201.5 L 312 199 Z "/>
    <path fill="#ffd43b" d="M 229.5 154 L 236 154.5 L 229.5 155 L 229.5 154 Z "/>
    <path fill="#ffd43b" d="M 276.5 154 L 285 154.5 L 276.5 155 L 276.5 154 Z "/>
    <path fill="#ffd43b" d="M 385.5 261 L 386 265.5 L 385 265.5 L 385.5 261 Z "/>
    <path fill="#ffd43b" d="M 386.5 298 L 387 305.5 L 386 305.5 L 386.5 298 Z "/>
    <path fill="#ffd43b" d="M 386.5 314 L 387 323.5 L 386 323.5 L 386.5 314 Z "/>
    <path fill="#ffd43b" d="M 129.5 399 L 130 404.5 L 129 404.5 L 129.5 399 Z "/>
    <path fill="#ffd43b" d="M 343.5 445 L 349 445.5 L 343.5 446 L 343.5 445 Z "/>
    <path fill="#ffd43b" d="M 232.5 449 L 237 449.5 L 232.5 450 L 232.5 449 Z "/>
    <path fill="#ffd43b" d="M 240.5 449 L 246 449.5 L 240.5 450 L 240.5 449 Z "/>
    <path fill="#ffd43b" d="M 255.5 449 L 263 449.5 L 255.5 450 L 255.5 449 Z "/>
    <path fill="#ffa94d" d="M 228.5 154 Q 230 156.5 235.5 155 L 236.5 154 L 275.5 154 L 276.5 155 L 284.5 155 L 286.5 154 L 291 155 L 292 174.5 L 294 177.5 L 294 179.5 L 298 192 L 293 194 L 293 196 Q 290.3 194.9 291 197.5 L 288 199 L 284 207.5 L 284 209.5 Q 285.8 215.8 283 217.5 L 285 221.5 L 285 223.5 L 291.5 234 L 302.5 240 L 310.5 241 L 325 236 L 332 225.5 L 335 215.5 L 333 209.5 L 333 207.5 L 330 199 Q 327.3 200.1 328 197.5 L 320 191.5 L 322 187.5 L 322 185.5 L 323 173.5 L 324 172.5 L 323 168.5 L 323 164.5 Q 323.6 159.1 322 157 L 333.5 157 L 334.5 158 L 336.5 158 L 352.5 159 L 355.5 161 L 357.5 161 Q 368.7 162.3 374 169.5 L 378 177.5 L 380 194.5 L 382 200.5 L 383 224.5 L 384 225.5 L 384 243.5 L 385 245.5 L 385 247.5 L 384 250.5 L 385 251.5 L 385 265.5 L 386 267.5 L 385 269.5 L 386 272.5 L 386 274.5 L 385 279.5 L 386 280.5 L 386 296.5 L 387 297.5 Q 384.3 299.2 386 305.5 L 387 308.5 L 386 312.5 L 386 314.5 L 386 339.5 L 385 343.5 Q 387.2 344.8 386 349.5 L 385 351.5 L 386 355.5 L 385 356.5 L 385 366.5 L 384 367.5 L 385 372.5 L 383 387.5 L 383 389.5 L 383 401.5 L 382 402.5 L 383 404.5 L 381 410.5 L 381 414.5 L 378 427.5 L 375 433.5 L 369.5 439 L 366 439 Q 367.1 441.7 364.5 441 L 361.5 443 Q 355.4 442.4 352.5 445 L 350.5 445 L 343.5 445 L 333.5 447 L 331.5 447 L 326.5 448 L 324.5 447 L 322.5 448 L 320.5 448 Q 313.7 449.3 310.5 447 L 303.5 449 L 300.5 448 L 297.5 449 L 275.5 449 L 271.5 450 L 268.5 449 L 266.5 449 L 263.5 450 Q 261.8 447.2 255.5 449 L 251.5 450 L 249.5 449 L 246.5 450 Q 245.3 447.8 240.5 449 L 237.5 450 L 236.5 449 L 215.5 449 L 214.5 448 L 212.5 449 L 209.5 448 L 207.5 448 L 191.5 448 L 189.5 447 L 187.5 447 L 185.5 448 L 179.5 446 L 177.5 446 L 175.5 447 L 168.5 445 L 166.5 445 L 160.5 445 L 146.5 441 L 138 434.5 L 134 427.5 L 130 411.5 L 130 399.5 L 129 398.5 L 129 387.5 L 128 386.5 L 128 370.5 L 127 369.5 L 127 367.5 L 128 364.5 L 127 363.5 L 126 347.5 L 127 345.5 L 127 343.5 L 126 340.5 L 126 274.5 L 126 272.5 L 127 269.5 L 127 254.5 L 128 252.5 L 127 249.5 L 127 247.5 L 128 245.5 L 128 231.5 L 129 230.5 L 128 226.5 L 129 225.5 L 129 215.5 L 130 214.5 L 130 204.5 L 131 203.5 L 131 201.5 L 132 197.5 L 131 195.5 L 135 175.5 L 139 168 L 146.5 163 L 155.5 161 L 158.5 159 L 160.5 159 L 175.5 157 L 177.5 157 L 179.5 158 L 180.5 157 Q 188 158.5 191.5 156 L 193.5 156 Q 201.7 157.3 206.5 155 L 210.5 155 L 214.5 156 L 215.5 155 L 227.5 155 L 228.5 154 Z "/>
    <path fill="#ffa94d" d="M 300.5 155 L 304.5 156 L 306.5 155 L 309.5 156 Q 314.9 154.1 314 157.5 Q 317.3 163.3 316 173.5 L 315 175.5 L 315 177.5 L 315 182.5 L 313 189 L 310.5 190 L 305 189 L 300 174.5 Q 301.8 168.3 299 166.5 L 299 164.5 L 299 156.5 L 300.5 155 Z "/>
    <path fill="#66d9e8" d="M 232.5 45 L 277.5 45 L 278.5 46 L 304.5 47 L 313.5 49 L 320 54.5 L 321 63.5 L 319 67 L 316.5 68 L 305.5 69 L 304.5 68 L 271.5 67 L 270.5 66 L 243.5 66 L 242.5 67 L 222.5 67 L 221.5 68 L 195.5 68 L 193 67 L 191 63.5 L 191 57.5 L 196.5 50 L 206.5 47 L 231.5 46 L 232.5 45 Z M 253 46 L 252 47 L 215 48 L 213 48 L 198 51 L 193 57 Q 192 63 194 66 L 200 67 L 214 67 L 215 66 L 225 66 L 226 65 L 228 66 L 229 65 L 283 65 L 285 65 L 287 66 L 298 66 L 299 67 L 313 67 L 318 66 L 319 64 L 318 55 L 312 50 L 300 49 L 299 48 L 289 48 L 287 48 L 286 47 L 258 47 L 253 46 Z "/>
    <path fill="#66d9e8" d="M 202 77 L 211.5 77 L 213 78.5 L 212 81.5 L 212 96.5 L 211 97.5 L 211 135.5 L 212 136.5 L 212 146 Q 208.6 148.1 201 147 L 200 144.5 L 200 89.5 L 202 77 Z M 203 79 L 202 85 L 202 106 L 201 107 L 201 130 L 202 133 L 202 135 L 202 145 L 210 145 L 210 128 L 209 127 L 209 110 L 210 109 L 209 105 Q 212 98 210 88 L 211 87 L 211 79 L 203 79 Z "/>
    <path fill="#66d9e8" d="M 300.5 77 L 309.5 77 L 311 78.5 L 313 125.5 L 312 126.5 L 312 143.5 L 309.5 147 L 300 146 L 300 136.5 L 301 135.5 L 301 97.5 L 300 96.5 L 300 79.5 L 299 78.5 L 300.5 77 Z M 303 79 L 301 81 L 302 84 L 302 101 L 303 102 L 303 130 L 302 131 L 302 145 L 310 145 L 310 135 L 311 134 L 311 101 L 311 99 L 310 97 L 310 83 L 309 82 L 309 79 L 303 79 Z "/>
    <path fill="#66d9e8" d="M 311 197 L 316.5 198 L 322 202 L 326 209.5 L 327 216.5 L 326 221.5 L 322 228 L 312.5 233 L 305.5 233 L 295 226.5 Q 289.8 222.2 291 211.5 Q 293.1 204.1 298.5 200 L 302.5 199 L 304 202 L 308.5 203 Q 312 201.7 311 197 Z M 312 199 L 312 202 L 308 205 L 303 203 Q 304 199 300 201 L 293 211 Q 292 220 295 224 L 297 227 L 305 231 Q 314 233 318 229 Q 323 226 325 219 Q 326 211 323 207 Q 320 200 312 199 Z "/>
  </g>
  <g id="line">
    <path fill="#1a1a1a" d="M 256.5 36 L 259.5 37 L 305.5 38 L 319.5 42 L 326 47.5 Q 330.2 52.8 330 62.5 Q 328.8 70.3 323.5 74 L 319 76 L 320 93.5 L 321 94.5 L 321 139.5 Q 318.5 141 320 146.5 L 321.5 148 L 346.5 149 L 364.5 153 Q 375.1 156.4 381 164.5 Q 386.1 171.4 388 181.5 L 391 213.5 L 392 214.5 L 393 249.5 L 394 250.5 L 394 284.5 L 395 285.5 L 395 338.5 L 394 339.5 L 394 366.5 L 393 367.5 L 392 399.5 L 391 400.5 L 391 409.5 L 390 410.5 L 389 422.5 L 384 435.5 L 374.5 446 Q 366.5 452.1 354 453 L 354 460.5 L 352 467.5 L 345.5 474 Q 339.4 477.9 327.5 476 Q 320.3 474.2 317 468.5 L 314 457 L 305.5 457 L 304.5 458 L 257.5 458 Q 256 460.5 250.5 459 L 249.5 458 L 209.5 458 L 208.5 457 L 199.5 457 L 198 458.5 L 197 466.5 L 190.5 474 Q 184 478 171.5 476 L 163 470.5 Q 157.6 464.5 159 453 Q 140 451.8 131 439.5 L 124 426.5 L 122 408.5 L 121 407.5 L 120 383.5 L 119 382.5 L 119 364.5 L 118 363.5 L 117 287.5 L 118 286.5 L 119 230.5 L 120 229.5 L 120 215.5 L 121 214.5 L 121 205.5 L 122 204.5 L 124 181.5 Q 126.9 165.9 137.5 158 L 150.5 152 L 166.5 149 L 174.5 149 L 175.5 148 L 190.5 148 L 192 146.5 L 192 135.5 L 191 134.5 L 191 99.5 L 192 98.5 L 193 76 L 185 70.5 L 183 66.5 L 182 59.5 Q 184.3 58.3 183 53.5 L 189.5 44 L 192.5 42 L 207.5 38 L 255.5 37 L 256.5 36 Z M 233 45 L 232 46 L 207 47 L 197 50 L 191 58 L 191 64 L 193 67 L 196 68 L 222 68 L 223 67 L 243 67 L 244 66 L 271 66 L 272 67 L 305 68 L 306 69 L 317 68 L 319 67 L 321 64 L 320 55 L 314 49 L 305 47 L 279 46 L 278 45 L 233 45 Z M 234 75 L 233 76 L 223 76 L 221 78 L 221 90 L 220 91 L 220 142 L 221 146 L 242 146 L 243 145 L 272 145 L 273 146 L 291 146 L 292 143 L 292 123 L 293 122 L 291 78 L 290 76 L 280 76 L 279 75 L 234 75 Z M 202 77 L 200 90 L 200 145 L 201 147 Q 209 148 212 146 L 212 137 L 211 136 L 211 98 L 212 97 L 212 82 L 213 79 L 212 77 L 202 77 Z M 301 77 L 299 79 L 300 80 L 300 97 L 301 98 L 301 136 L 300 137 L 300 146 L 310 147 L 312 144 L 312 127 L 313 126 L 311 79 L 310 77 L 301 77 Z M 227 154 L 226 155 L 203 155 L 202 156 L 191 156 L 190 157 L 164 158 L 149 162 L 141 167 L 135 176 L 131 195 L 129 225 L 128 226 L 127 266 L 126 267 L 126 354 L 127 355 L 129 405 L 133 426 L 137 434 Q 141 439 149 442 L 165 446 L 185 447 L 186 448 L 206 448 L 207 449 L 232 449 L 233 450 L 278 450 L 279 449 L 328 448 L 329 447 L 339 447 L 340 446 L 354 445 L 362 443 L 370 439 L 378 429 L 382 414 L 384 377 L 385 376 L 385 359 L 386 358 L 386 325 L 387 324 L 386 262 L 385 261 L 383 210 L 379 188 L 379 182 L 374 170 L 368 164 L 358 160 L 348 158 L 326 157 L 325 156 L 322 157 L 323 161 L 323 180 L 320 192 L 324 194 Q 332 199 334 212 L 334 220 L 329 231 L 324 236 L 310 241 Q 300 240 295 236 Q 287 231 284 221 L 284 210 L 287 202 L 298 192 L 292 173 L 291 155 L 289 154 L 227 154 Z M 301 155 L 299 157 L 300 175 L 305 189 L 311 190 L 313 189 L 316 177 Q 318 165 315 158 Q 310 154 301 155 Z M 311 197 Q 312 202 309 203 L 304 202 L 303 199 L 299 200 Q 293 204 291 212 Q 290 222 295 227 L 306 233 L 313 233 L 322 228 L 326 222 L 327 217 L 326 210 L 322 202 L 317 198 L 311 197 Z "/>
  </g>
</svg>
