<svg xmlns="http://www.w3.org/2000/svg" width="512" height="512" viewBox="0 0 512 512">
  <g id="color">
    <path fill="#ffffff" d="M 340.5 119 L 379 119.5 L 340.5 120 L 340.5 119 Z "/>
    <path fill="#ffffff" d="M 332.5 120 L 338 120.5 L 332.5 121 L 332.5 120 Z "/>
    <path fill="#ffffff" d="M 381.5 120 L 386 120.5 L 381.5 121 L 381.5 120 Z "/>
    <path fill="#ffffff" d="M 316.5 122 L 321 122.5 L 316.5 123 L 316.5 122 Z "/>
    <path fill="#ffffff" d="M 411.5 126 L 416 127.5 L 414.5 128 L 411.5 127 L 411.5 126 Z "/>
    <path fill="#ffffff" d="M 420.5 129 L 424 130.5 L 422.5 131 L 420.5 129 Z "/>
    <path fill="#ffffff" d="M 280.5 130 L 283 130.5 L 277.5 132 L 277.5 131 L 280.5 130 Z "/>
    <path fill="#ffffff" d="M 258.5 137 L 260 137.5 L 255.5 139 L 255.5 138 L 258.5 137 Z "/>
    <path fill="#ffffff" d="M 437.5 137 L 441 139.5 L 439.5 139 L 437.5 137 Z "/>
    <path fill="#ffffff" d="M 442.5 140 L 449 145.5 L 445.5 143 L 442.5 140 Z "/>
    <path fill="#ffffff" d="M 236.5 145 L 238 145.5 L 234.5 147 L 234.5 146 L 236.5 145 Z "/>
    <path fill="#ffffff" d="M 219.5 152 L 221 152.5 L 217.5 154 L 217.5 153 L 219.5 152 Z "/>
    <path fill="#ffffff" d="M 210.5 156 L 212 156.5 L 208.5 158 L 208.5 157 L 210.5 156 Z "/>
    <path fill="#ffffff" d="M 466.5 164 L 470 168.5 L 468 167.5 L 466.5 164 Z "/>
    <path fill="#ffffff" d="M 169.5 177 L 168.5 179 L 166.5 180 L 167.5 178 L 169.5 177 Z "/>
    <path fill="#ffffff" d="M 162.5 181 L 161.5 183 L 159.5 184 L 160.5 182 L 162.5 181 Z "/>
    <path fill="#ffffff" d="M 155.5 185 L 154.5 187 L 152.5 188 L 153.5 186 L 155.5 185 Z "/>
    <path fill="#ffffff" d="M 476.5 186 L 477 190.5 L 476 190.5 L 476.5 186 Z "/>
    <path fill="#ffffff" d="M 144.5 192 L 143.5 194 L 141.5 195 L 142.5 193 L 144.5 192 Z "/>
    <path fill="#ffffff" d="M 133.5 199 L 131.5 202 L 129.5 203 L 130.5 201 L 133.5 199 Z "/>
    <path fill="#ffffff" d="M 476.5 199 L 477 204.5 L 476 204.5 L 476.5 199 Z "/>
    <path fill="#ffffff" d="M 123.5 206 L 121.5 209 L 118.5 211 L 120.5 208 L 123.5 206 Z "/>
    <path fill="#ffffff" d="M 475.5 206 L 476 208.5 L 474.5 211 L 474 209.5 L 475.5 206 Z "/>
    <path fill="#ffffff" d="M 469.5 222 L 469 223.5 L 467.5 226 L 468 224.5 L 469.5 222 Z "/>
    <path fill="#ffffff" d="M 421.5 270 L 419.5 273 L 417.5 274 L 418.5 272 L 421.5 270 Z "/>
    <path fill="#ffffff" d="M 52.5 277 L 52 278.5 L 50.5 281 L 51 279.5 L 52.5 277 Z "/>
    <path fill="#ffffff" d="M 398.5 285 L 397.5 287 L 395.5 288 L 396.5 286 L 398.5 285 Z "/>
    <path fill="#ffffff" d="M 391.5 289 L 390.5 291 L 388.5 292 L 389.5 290 L 391.5 289 Z "/>
    <path fill="#ffffff" d="M 386.5 292 L 385.5 294 L 383.5 295 L 384.5 293 L 386.5 292 Z "/>
    <path fill="#ffffff" d="M 377.5 297 L 376.5 299 L 374.5 300 L 375.5 298 L 377.5 297 Z "/>
    <path fill="#ffffff" d="M 364.5 304 L 363.5 306 L 361.5 307 L 362.5 305 L 364.5 304 Z "/>
    <path fill="#ffffff" d="M 37.5 313 L 38 317.5 L 37 317.5 L 37.5 313 Z "/>
    <path fill="#ffffff" d="M 36.5 319 L 37 325.5 L 36 325.5 L 36.5 319 Z "/>
    <path fill="#ffffff" d="M 329.5 322 L 328.5 324 L 326.5 325 L 327.5 323 L 329.5 322 Z "/>
    <path fill="#ffffff" d="M 321.5 326 L 323 326.5 L 318.5 329 L 319.5 327 L 321.5 326 Z "/>
    <path fill="#ffffff" d="M 36.5 335 L 37 339.5 L 36 339.5 L 36.5 335 Z "/>
    <path fill="#ffffff" d="M 298.5 337 L 300 337.5 L 295.5 340 L 296.5 338 L 298.5 337 Z "/>
    <path fill="#ffffff" d="M 37.5 341 L 39 348.5 L 38 348.5 L 37.5 341 Z "/>
    <path fill="#ffffff" d="M 283.5 344 L 285 344.5 L 279.5 347 L 279.5 346 L 283.5 344 Z "/>
    <path fill="#ffffff" d="M 274.5 348 L 276 348.5 L 270.5 351 L 270.5 350 L 274.5 348 Z "/>
    <path fill="#ffffff" d="M 263.5 353 L 265 353.5 L 261.5 355 L 261.5 354 L 263.5 353 Z "/>
    <path fill="#ffffff" d="M 247.5 360 L 249 360.5 L 245.5 362 L 245.5 361 L 247.5 360 Z "/>
    <path fill="#ffffff" d="M 237.5 364 L 239 364.5 L 235.5 366 L 235.5 365 L 237.5 364 Z "/>
    <path fill="#ffffff" d="M 230.5 367 L 232 367.5 L 228.5 369 L 228.5 368 L 230.5 367 Z "/>
    <path fill="#ffffff" d="M 211.5 374 L 213 374.5 L 206.5 377 L 206.5 376 L 211.5 374 Z "/>
    <path fill="#ffffff" d="M 199.5 378 L 201 378.5 L 194.5 381 L 194.5 380 L 199.5 378 Z "/>
    <path fill="#ffffff" d="M 72.5 386 L 76 387.5 L 74.5 388 L 72.5 386 Z "/>
    <path fill="#ffffff" d="M 147.5 390 L 152 390.5 L 147.5 391 L 147.5 390 Z "/>
    <path fill="#ffffff" d="M 141.5 391 L 146 391.5 L 141.5 392 L 141.5 391 Z "/>
    <path fill="#ffffff" d="M 94.5 392 L 99 392.5 L 94.5 393 L 94.5 392 Z "/>
    <path fill="#ffffff" d="M 131.5 392 L 136 392.5 L 131.5 393 L 131.5 392 Z "/>
    <path fill="#ffffff" d="M 105.5 393 L 123 393.5 L 105.5 394 L 105.5 393 Z "/>
    <path fill="#ffd43b" d="M 349.5 129 L 380.5 130 L 412.5 137 L 436.5 149 L 454 164.5 Q 461.3 171.7 465 182.5 L 467 198.5 L 465 208.5 L 459 220.5 Q 449 235.5 435.5 247 L 401.5 272 L 363.5 294 L 302.5 325 L 254.5 347 L 240.5 352 L 238.5 354 L 195.5 370 L 159.5 379 L 131.5 382 L 130.5 383 L 100.5 383 L 83.5 380 L 73.5 376 L 59 366 L 52 355.5 L 48 345.5 L 46 327.5 L 47 326.5 L 47 317.5 L 51 302.5 L 59 285.5 L 70 269.5 L 85 253.5 L 85 252 L 88 250.5 L 89.5 248 L 92 246.5 Q 91.3 244.3 93.5 245 L 113.5 228 L 137.5 238 L 166.5 258 L 176.5 263 L 188.5 263 Q 195.3 259.8 193 247.5 Q 186.5 228 171.5 217 L 149 202.5 L 176.5 185 L 203.5 171 L 209.5 170 L 232.5 184 L 265.5 215 L 271.5 218 L 277.5 218 L 282 214.5 L 284 210.5 L 284 197.5 L 274 174.5 L 254 150 L 296.5 137 L 328.5 131 L 348.5 130 L 349.5 129 Z "/>
    <path fill="#ffd43b" d="M 246.5 157 L 256 163 L 265 174.5 L 275 193.5 L 277 201.5 L 277 207.5 L 276 210 Q 270.2 210.7 267.5 207 L 239.5 180 L 218 165.5 L 228 161 L 226 166.5 Q 227 169 231.5 168 L 246.5 157 Z "/>
    <path fill="#ffd43b" d="M 136.5 210 Q 139.9 209.1 138 214.5 Q 135.3 216.3 137 222.5 L 140.5 224 L 143 221.5 L 147.5 211 Q 166.9 219.6 179 235.5 L 184 244.5 L 186 254.5 Q 185 257 180.5 256 L 171.5 252 L 138.5 230 Q 131.3 225 121 224 L 122.5 220 L 136.5 210 Z "/>
  </g>
  <g id="line">
    <path fill="#1a1a1a" d="M 338.5 120 L 380.5 120 L 407.5 125 Q 442.9 134.6 463 159.5 L 473 175.5 Q 477.2 184.8 477 198.5 L 474 212.5 L 470 221.5 L 463 232.5 L 451 247 L 422.5 270 L 382.5 295 L 317.5 329 L 242.5 363 L 193.5 381 L 164.5 388 L 147.5 390 L 140.5 392 L 131.5 392 L 130.5 393 L 99.5 393 Q 97.8 390.2 91.5 392 L 71.5 386 Q 60.5 381.5 53 373.5 Q 36.4 358.1 36 326.5 L 40 304.5 L 50 281.5 Q 65.7 254.7 88.5 235 Q 112.5 213 140.5 195 L 175.5 174 L 207.5 158 L 240.5 144 L 272.5 133 L 309.5 124 L 327.5 122 L 328.5 121 L 337.5 121 L 338.5 120 Z M 350 129 L 349 130 L 329 131 L 297 137 L 254 150 L 274 175 L 284 198 L 284 211 L 282 215 L 278 218 L 272 218 L 266 215 L 233 184 L 210 170 L 204 171 L 177 185 L 149 203 L 172 217 Q 187 228 193 248 Q 195 260 189 263 L 177 263 L 167 258 L 138 238 L 114 228 L 94 245 Q 91 244 92 247 L 90 248 L 88 251 L 85 252 L 85 254 L 70 270 L 59 286 L 51 303 L 47 318 L 47 327 L 46 328 L 48 346 L 52 356 L 59 366 L 74 376 L 84 380 L 101 383 L 131 383 L 132 382 L 160 379 L 196 370 L 239 354 L 241 352 L 255 347 L 303 325 L 364 294 L 402 272 L 436 247 Q 449 236 459 221 L 465 209 L 467 199 L 465 183 Q 461 172 454 165 L 437 149 L 413 137 L 381 130 L 350 129 Z M 247 157 L 232 168 Q 227 169 226 167 L 229 160 L 218 166 L 240 180 L 268 207 Q 270 211 276 210 L 277 208 L 277 202 L 275 194 L 265 175 L 256 163 L 247 157 Z M 137 210 L 120 223 L 139 230 L 172 252 L 181 256 Q 185 257 186 255 L 184 245 L 179 236 Q 167 220 148 211 L 143 222 L 141 224 L 137 223 Q 135 216 138 215 Q 140 209 137 210 Z "/>
  </g>
</svg>
