<svg xmlns="http://www.w3.org/2000/svg" width="512" height="512" viewBox="0 0 512 512">
  <g id="color">
    <path fill="#ffffff" d="M 214.5 36 L 220 36.5 L 214.5 37 L 214.5 36 Z "/>
    <path fill="#ffffff" d="M 292.5 36 L 299 36.5 L 292.5 37 L 292.5 36 Z "/>
    <path fill="#ffffff" d="M 305.5 39 L 309 41.5 L 307.5 41 L 305.5 39 Z "/>
    <path fill="#ffffff" d="M 285.5 44 L 286 48.5 L 285 48.5 L 285.5 44 Z "/>
    <path fill="#ffffff" d="M 286.5 50 L 289 54.5 L 287 53.5 L 286.5 50 Z "/>
    <path fill="#ffffff" d="M 250.5 60 L 263 60.5 L 250.5 61 L 250.5 60 Z "/>
    <path fill="#ffffff" d="M 183.5 72 L 184 74.5 L 182.5 78 L 182 75.5 L 183.5 72 Z "/>
    <path fill="#ffffff" d="M 207.5 77 L 208 81.5 L 207 81.5 L 207.5 77 Z "/>
    <path fill="#ffffff" d="M 305.5 79 L 306 83.5 L 305 83.5 L 305.5 79 Z "/>
    <path fill="#ffffff" d="M 206.5 83 L 207 87.5 L 206 87.5 L 206.5 83 Z "/>
    <path fill="#ffffff" d="M 286.5 84 L 287 88.5 L 286 88.5 L 286.5 84 Z "/>
    <path fill="#ffffff" d="M 306.5 86 L 307 90.5 L 306 90.5 L 306.5 86 Z "/>
    <path fill="#ffffff" d="M 225.5 88 L 226 101.5 L 225 101.5 L 225.5 88 Z "/>
    <path fill="#ffffff" d="M 287.5 90 L 288 100.5 L 287 100.5 L 287.5 90 Z "/>
    <path fill="#ffffff" d="M 307.5 92 L 308 96.5 L 307 96.5 L 307.5 92 Z "/>
    <path fill="#ffffff" d="M 204.5 99 L 205 104.5 L 204 104.5 L 204.5 99 Z "/>
    <path fill="#ffffff" d="M 308.5 101 L 309 108.5 L 308 108.5 L 308.5 101 Z "/>
    <path fill="#ffffff" d="M 286.5 102 L 287 106.5 L 286 106.5 L 286.5 102 Z "/>
    <path fill="#ffffff" d="M 175.5 105 L 176 112.5 L 175 112.5 L 175.5 105 Z "/>
    <path fill="#ffffff" d="M 337.5 107 L 338 111.5 L 337 111.5 L 337.5 107 Z "/>
    <path fill="#ffffff" d="M 336.5 114 L 337 116.5 L 334.5 122 L 334 120.5 L 336.5 114 Z "/>
    <path fill="#ffffff" d="M 207.5 115 L 210 118.5 L 208 117.5 L 207.5 115 Z "/>
    <path fill="#ffffff" d="M 230.5 117 L 235 124.5 L 233 123.5 L 230 118.5 L 230.5 117 Z "/>
    <path fill="#ffffff" d="M 281.5 119 L 281 120.5 L 279.5 123 L 280 121.5 L 281.5 119 Z "/>
    <path fill="#ffffff" d="M 302.5 120 L 301 122.5 L 299.5 125 L 300 123.5 L 302.5 120 Z "/>
    <path fill="#ffffff" d="M 178.5 121 L 180 124.5 L 179 124.5 L 178.5 121 Z "/>
    <path fill="#ffffff" d="M 211.5 122 L 215 126.5 L 213 125.5 L 211.5 122 Z "/>
    <path fill="#ffffff" d="M 236.5 127 L 242 132.5 L 242 134.5 L 241 134.5 L 241 132.5 L 236.5 127 Z "/>
    <path fill="#ffffff" d="M 181.5 128 L 185 134.5 L 183 133.5 L 181.5 128 Z "/>
    <path fill="#ffffff" d="M 271.5 135 L 273 138.5 L 272 138.5 L 271.5 135 Z "/>
    <path fill="#ffffff" d="M 327.5 136 L 327 137.5 L 325.5 140 L 326 138.5 L 327.5 136 Z "/>
    <path fill="#ffffff" d="M 187.5 140 L 190 143.5 L 188 142.5 L 187.5 140 Z "/>
    <path fill="#ffffff" d="M 285.5 141 L 283.5 144 L 282 143.5 L 285.5 141 Z "/>
    <path fill="#ffffff" d="M 322.5 145 L 322 146.5 L 320.5 149 L 321 147.5 L 322.5 145 Z "/>
    <path fill="#ffffff" d="M 317.5 153 L 317 154.5 L 313.5 160 L 314 158.5 L 317.5 153 Z "/>
    <path fill="#ffffff" d="M 196.5 155 L 199 158.5 L 197 157.5 L 196.5 155 Z "/>
    <path fill="#ffffff" d="M 312.5 161 L 311 163.5 L 309.5 166 L 310 164.5 L 312.5 161 Z "/>
    <path fill="#ffffff" d="M 303.5 174 L 303 175.5 L 300.5 179 L 302 176.5 L 303.5 174 Z "/>
    <path fill="#ffffff" d="M 216.5 187 L 219 193.5 L 218 193.5 L 216.5 187 Z "/>
    <path fill="#ffffff" d="M 292.5 197 L 293 199.5 L 291.5 203 L 291 200.5 L 292.5 197 Z "/>
    <path fill="#ffffff" d="M 221.5 202 L 223 209.5 L 222 209.5 L 221.5 202 Z "/>
    <path fill="#ffffff" d="M 223.5 211 L 224 216.5 L 223 216.5 L 223.5 211 Z "/>
    <path fill="#ffffff" d="M 222.5 228 L 223 230.5 L 219.5 232 L 219.5 231 Q 223.5 232.1 222.5 228 Z "/>
    <path fill="#ffffff" d="M 290.5 230 L 294 231.5 L 290 232 L 290.5 230 Z "/>
    <path fill="#ffffff" d="M 213.5 232 L 218 232.5 L 213.5 233 L 213.5 232 Z "/>
    <path fill="#ffffff" d="M 295.5 232 L 301 232.5 L 295.5 233 L 295.5 232 Z "/>
    <path fill="#ffffff" d="M 191.5 236 L 195 236.5 L 188.5 238 L 188.5 237 L 191.5 236 Z "/>
    <path fill="#ffffff" d="M 334.5 240 L 338 241.5 L 336.5 242 L 334.5 240 Z "/>
    <path fill="#ffffff" d="M 174.5 241 L 176 241.5 L 172.5 243 L 172.5 242 L 174.5 241 Z "/>
    <path fill="#ffffff" d="M 164.5 245 L 166 245.5 L 161.5 248 L 162.5 246 L 164.5 245 Z "/>
    <path fill="#ffffff" d="M 155.5 250 L 154.5 252 L 151.5 254 L 153.5 251 L 155.5 250 Z "/>
    <path fill="#ffffff" d="M 357.5 250 L 363 254.5 L 360.5 253 L 357.5 250 Z "/>
    <path fill="#ffffff" d="M 144.5 260 L 143 262.5 L 141.5 266 L 141 264.5 L 144.5 260 Z "/>
    <path fill="#ffffff" d="M 140.5 267 L 141 274.5 L 140 274.5 L 140.5 267 Z "/>
    <path fill="#ffffff" d="M 372.5 269 L 373 273.5 L 372 273.5 L 372.5 269 Z "/>
    <path fill="#ffffff" d="M 371.5 276 L 372 277.5 L 369.5 281 L 370 279.5 L 371.5 276 Z "/>
    <path fill="#ffffff" d="M 359.5 290 L 358.5 292 L 356.5 293 L 357.5 291 L 359.5 290 Z "/>
    <path fill="#ffffff" d="M 160.5 294 L 167 297.5 L 165.5 298 Q 160.9 296.8 160.5 294 Z "/>
    <path fill="#ffffff" d="M 352.5 294 L 351.5 296 L 346.5 298 L 346.5 297 L 352.5 294 Z "/>
    <path fill="#ffffff" d="M 190.5 305 L 198 306.5 L 194.5 307 L 190.5 306 L 190.5 305 Z "/>
    <path fill="#ffffff" d="M 213.5 309 L 215 312.5 L 214 312.5 L 213.5 309 Z "/>
    <path fill="#ffffff" d="M 217.5 323 L 219 328.5 L 218 328.5 L 217.5 323 Z "/>
    <path fill="#ffffff" d="M 221.5 339 L 224 349.5 L 223 349.5 L 221.5 339 Z "/>
    <path fill="#ffffff" d="M 287.5 350 L 288 352.5 L 286.5 356 L 286 353.5 L 287.5 350 Z "/>
    <path fill="#ffffff" d="M 226.5 362 L 228 370.5 L 227 370.5 L 226.5 362 Z "/>
    <path fill="#ffffff" d="M 282.5 371 L 283 374.5 L 281.5 379 L 281 375.5 L 282.5 371 Z "/>
    <path fill="#ffffff" d="M 230.5 389 L 231 394.5 L 230 394.5 L 230.5 389 Z "/>
    <path fill="#ffffff" d="M 277.5 398 L 278 402.5 L 277 402.5 L 277.5 398 Z "/>
    <path fill="#ffffff" d="M 231.5 399 L 232 412.5 L 231 412.5 L 231.5 399 Z "/>
    <path fill="#ffffff" d="M 276.5 404 L 277 408.5 L 276 408.5 L 276.5 404 Z "/>
    <path fill="#ffffff" d="M 230.5 419 L 231 426.5 L 230 426.5 L 230.5 419 Z "/>
    <path fill="#ffffff" d="M 280.5 426 L 281 430.5 L 280 430.5 L 280.5 426 Z "/>
    <path fill="#ffffff" d="M 281.5 435 L 282 444.5 L 281 444.5 L 281.5 435 Z "/>
    <path fill="#ffffff" d="M 230.5 444 L 231 449.5 L 230 449.5 L 230.5 444 Z "/>
    <path fill="#ffffff" d="M 280.5 448 L 281 452.5 L 280 452.5 L 280.5 448 Z "/>
    <path fill="#ffffff" d="M 278.5 460 L 279 461.5 L 275.5 468 L 276 466.5 L 278.5 460 Z "/>
    <path fill="#ffffff" d="M 236.5 469 L 241 474.5 L 237 471.5 L 236.5 469 Z "/>
    <path fill="#ffffff" d="M 271.5 472 L 269.5 475 L 268 474.5 L 271.5 472 Z "/>
    <path fill="#ffffff" d="M 255.5 473 L 259 474.5 L 257.5 474 Q 254.5 474.5 255.5 473 Z "/>
    <path fill="#ffffff" d="M 261.5 475 L 267 475.5 L 261.5 476 L 261.5 475 Z "/>
    <path fill="#4da3ff" d="M 232.5 175 L 239.5 175 L 248 180.5 L 243 185.5 L 243 189.5 L 244 192 L 251 193 L 250 199.5 L 251 199.5 Q 250.3 196.9 253 198 L 253.5 200 L 256.5 195 L 259.5 200 L 261.5 197 L 262.5 200 Q 265.3 198.8 263 197.5 L 262 193.5 Q 268.4 193.9 270 189.5 Q 269.8 182.7 265 180.5 L 272.5 175 L 279.5 175 L 286 179 L 288 185.5 L 281 208.5 L 281 228.5 L 282 233 L 275.5 236 L 263.5 239 L 250.5 239 L 245.5 237 L 243.5 237 Q 234.9 236.6 231 231.5 L 232 228.5 L 232 209.5 L 224 183.5 L 229.5 177 L 232.5 175 Z "/>
    <path fill="#66d9e8" d="M 233.5 173 Q 245.3 173.3 250 180.5 L 248.5 183 L 245 185.5 L 244 189.5 L 245.5 191 L 253 191 L 251 199.5 L 251.5 201 Q 249 200 250 195.5 L 251 193 L 244 192 L 243 185.5 L 248 180.5 L 245.5 178 L 239.5 175 L 232.5 175 L 227 179.5 L 224 184.5 L 228 193.5 L 232 209.5 L 232 228.5 L 231 231.5 Q 235.9 236.6 244.5 238 L 246.5 238 Q 253.2 240.3 263.5 239 L 275.5 236 L 282 233 L 281 228.5 L 281 208.5 L 288 183.5 L 286 179 L 279.5 175 L 272.5 175 L 265 180.5 Q 269.8 182.7 270 189.5 Q 268.4 193.9 262 193.5 L 264 198.5 L 260.5 201 L 256.5 195 L 253.5 200 L 253 196.5 Q 255.8 195.4 255 192 L 259 194.5 L 260 200 Q 263 201.3 262 197.5 L 260 190.5 L 261.5 191 Q 266.8 192.3 268 189.5 Q 268.6 184.4 265.5 183 L 263 181.5 L 264.5 178 Q 269.2 173.2 278.5 173 L 289 181.5 L 290 184.5 L 283 206.5 L 282 224.5 L 283 225.5 L 283 234 L 271.5 239 L 254.5 241 L 253.5 240 L 241.5 239 L 229 232.5 L 231 223.5 L 231 215.5 L 230 214.5 L 229 203.5 L 223 186.5 L 223 182.5 L 229.5 175 L 233.5 173 Z "/>
    <path fill="#66d9e8" d="M 250.5 184 Q 254.3 182.8 253 186.5 L 247 189 L 248.5 185 L 250.5 184 Z "/>
    <path fill="#66d9e8" d="M 260 185 Q 264.6 183.8 266 186.5 Q 267.3 190.3 263.5 189 L 260 186.5 L 260 185 Z "/>
    <path fill="#f783ac" d="M 215.5 43 Q 219.3 42.3 220 44.5 Q 220.7 50.2 218 52.5 L 208.5 62 L 203 66.5 L 199 86.5 L 197 109.5 Q 206.6 133.4 224.5 149 Q 228.5 152.5 237.5 151 L 245 144.5 L 248 137 L 262.5 137 L 263.5 136 L 271.5 149 Q 274.5 152 280.5 152 L 288.5 149 L 299 138.5 L 314 114.5 L 316 108.5 L 316 103.5 L 315 102.5 L 315 95.5 L 314 94.5 L 311 70.5 L 307.5 64 L 299 57.5 L 293 48.5 L 293 44.5 L 296.5 43 Q 307.9 46.6 314 55.5 L 321 69.5 L 327 88.5 L 330 102.5 L 330 113.5 L 317 141.5 L 294.5 175 L 292.5 175 L 283.5 168 L 271.5 167 Q 262.8 169.8 257.5 176 L 255.5 176 L 243.5 168 L 232.5 167 L 225.5 170 L 218 176 L 193 136.5 L 184 118.5 L 182 111.5 L 182 106.5 L 187 87.5 L 187 83.5 L 193 65.5 Q 197.5 54.5 206.5 48 L 215.5 43 Z "/>
    <path fill="#f783ac" d="M 252.5 67 Q 268 66 274 74.5 L 280 86.5 L 281 98.5 L 275 117.5 L 264.5 129 Q 260.9 131.9 253.5 131 Q 245.4 128.6 241 122.5 Q 235.3 115.7 233 105.5 L 232 89.5 Q 234.4 77.4 242.5 71 L 252.5 67 Z "/>
    <path fill="#f783ac" d="M 223.5 238 Q 232.1 243.4 243.5 246 L 263.5 247 L 276.5 244 L 289.5 238 L 290.5 239 L 310.5 241 L 318.5 244 L 333.5 247 L 353.5 256 L 363 264.5 Q 366.6 267.4 365 275.5 L 358.5 283 L 351.5 288 L 334.5 295 L 305.5 302 L 289.5 303 L 288.5 304 L 276.5 304 L 275.5 305 L 236.5 305 L 235.5 304 L 223.5 304 L 222.5 303 L 207.5 302 L 184.5 297 L 161.5 288 L 149 277.5 L 147 269.5 Q 150 262 156.5 258 L 166.5 252 L 189.5 244 L 223.5 238 Z "/>
    <path fill="#f783ac" d="M 222 310 L 229.5 310 L 230.5 311 L 250.5 311 L 253 312 L 253 328.5 L 254 329.5 L 254 360.5 L 255 361.5 L 255 390.5 L 254 391.5 L 254 402 Q 249.2 404.1 239.5 403 L 238 401.5 L 235 369.5 L 222 310 Z "/>
    <path fill="#f783ac" d="M 284.5 310 L 291 310 L 291 313.5 L 278 359.5 L 278 363.5 L 274 377.5 L 271 399.5 L 269.5 401 L 261.5 401 L 261 400.5 L 261 347.5 L 260 346.5 L 260 320.5 L 259 319.5 L 259 312 L 263.5 311 L 283.5 311 L 284.5 310 Z "/>
    <path fill="#f783ac" d="M 242 406 L 249.5 406 L 251 407.5 L 245.5 412 Q 241.3 410.7 242 406 Z "/>
    <path fill="#f783ac" d="M 261.5 408 L 270 408 L 270 412.5 L 273 426.5 L 269 436 L 264.5 437 L 262 431.5 L 262 425.5 L 260 418.5 L 260 409.5 L 261.5 408 Z "/>
    <path fill="#f783ac" d="M 251.5 411 L 254 412 Q 255.5 417.4 252.5 419 L 249 413 Q 251.8 414 251.5 411 Z "/>
    <path fill="#f783ac" d="M 238 412 Q 241.8 411.3 243 414.5 L 238.5 420 L 238 412 Z "/>
    <path fill="#f783ac" d="M 244.5 418 L 254 423 Q 253.6 436.8 248 445 L 244.5 446 L 240 440.5 L 237 425.5 L 244.5 418 Z "/>
    <path fill="#f783ac" d="M 255.5 437 L 257 438.5 L 257 451.5 L 252 469 L 245.5 470 L 240 462.5 L 237 446 L 242.5 449 L 247.5 449 L 251 446.5 L 254 439 L 256 438.5 L 255.5 437 Z "/>
    <path fill="#f783ac" d="M 271.5 441 L 274 441.5 L 274 451.5 L 272 460.5 L 267.5 468 L 262.5 469 L 260 468 L 262 458.5 L 263 444 Q 269.1 444.7 271.5 441 Z "/>
  </g>
  <g id="line">
    <path fill="#1a1a1a" d="M 212.5 37 Q 223.8 34.8 226 41.5 L 227 47.5 Q 223.9 59.9 214.5 66 L 209 70.5 L 206 83.5 L 206 90.5 L 204 99.5 L 204 109.5 Q 212.8 128.2 226.5 142 Q 228.4 145.6 234.5 145 L 239 141.5 L 242 132.5 Q 233.2 125.8 229 114.5 Q 223.9 104.1 226 86.5 Q 228.9 71.9 239.5 65 Q 247.5 59 263.5 61 Q 275.1 63.9 281 72.5 L 286 83.5 L 287 101.5 L 284 114.5 Q 279.3 125.3 271 132.5 L 271 136.5 L 276.5 144 L 280.5 145 L 290 138.5 L 307 113.5 L 309 108.5 L 309 101.5 L 308 100.5 L 308 92.5 L 306 85.5 L 305 73.5 L 300.5 67 L 291 58.5 L 286 49.5 L 286 43.5 L 289.5 38 Q 293 35.5 300.5 37 L 316 47.5 Q 325.1 57.4 329 72.5 L 337 104.5 L 337 113.5 L 332 127.5 L 323 144.5 L 297 183.5 L 290 204.5 Q 291.3 209.2 289 210.5 L 289 227.5 L 290 232 L 308.5 234 L 333.5 240 L 356.5 250 L 368 259.5 Q 373.3 264.2 372 275.5 Q 368.4 284.9 360.5 290 Q 347.8 298.3 331.5 303 L 299 309 L 285 357.5 L 284 366.5 L 279 386.5 L 276 408.5 L 281 431.5 L 281 447.5 L 280 448.5 L 279 459.5 L 272.5 472 Q 269 476.5 259.5 475 Q 258.4 472.3 255 473 Q 256.1 475.7 253.5 475 L 246.5 477 Q 240.8 475.8 238 471.5 L 234 464.5 L 231 452.5 L 230 427.5 L 231 426.5 L 232 399.5 L 231 398.5 L 231 389.5 L 230 388.5 L 228 366.5 L 219 330.5 L 219 326.5 L 215 314.5 L 215 310.5 L 213.5 309 L 202.5 308 L 169.5 299 Q 155.7 293.8 146 284.5 L 141 276.5 L 141 266.5 Q 144.3 258.8 150.5 254 L 168.5 244 L 182.5 239 L 186.5 239 L 204.5 234 L 217.5 233 L 223 230.5 Q 225.5 223 224 211.5 Q 220.9 194.1 214 180.5 Q 194.1 155.9 180 125.5 L 176 114.5 L 176 102.5 L 181 80.5 L 183 77.5 L 187 62.5 Q 191.5 51 200.5 44 L 212.5 37 Z M 216 43 L 207 48 Q 198 55 193 66 L 187 84 L 187 88 L 182 107 L 182 112 L 184 119 L 193 137 L 218 176 L 226 170 L 233 167 L 244 168 L 256 176 L 258 176 Q 263 170 272 167 L 284 168 L 294 176 L 317 142 L 330 114 L 330 103 L 327 89 L 321 70 L 314 56 Q 308 47 297 43 L 293 45 L 293 49 L 299 58 L 308 64 L 311 71 L 314 95 L 315 96 L 315 103 L 316 104 L 316 109 L 314 115 L 299 139 L 289 149 L 281 152 Q 274 152 272 149 L 264 136 L 263 137 L 248 137 L 245 145 L 238 151 Q 229 152 225 149 Q 207 133 197 110 L 199 87 L 203 67 L 209 62 L 218 53 Q 221 50 220 45 Q 219 42 216 43 Z M 253 67 L 243 71 Q 234 77 232 90 L 233 106 Q 235 116 241 123 Q 245 129 254 131 Q 261 132 265 129 L 275 118 L 281 99 L 280 87 L 274 75 Q 268 66 253 67 Z M 234 173 L 230 175 L 223 183 L 223 187 L 229 204 L 230 215 L 231 216 L 231 224 L 229 233 L 242 239 L 254 240 L 255 241 L 272 239 L 283 234 L 283 226 L 282 225 L 283 207 L 290 185 L 289 182 L 279 173 Q 269 173 265 178 L 263 182 L 266 183 Q 269 184 268 190 Q 267 192 262 191 L 260 191 L 261 198 L 262 199 Q 259 198 259 195 L 255 192 L 253 198 L 252 198 L 253 191 L 246 191 L 244 190 L 245 186 L 249 183 L 250 181 Q 245 173 234 173 Z M 251 184 L 249 185 L 247 189 L 253 187 Q 254 183 251 184 Z M 260 185 L 260 187 L 264 189 Q 267 190 266 187 Q 265 184 260 185 Z M 224 238 L 190 244 L 167 252 L 157 258 Q 150 262 147 270 L 149 278 L 162 288 L 185 297 L 208 302 L 223 303 L 224 304 L 236 304 L 237 305 L 276 305 L 277 304 L 289 304 L 290 303 L 306 302 L 335 295 L 352 288 L 359 283 L 365 276 Q 367 267 363 265 L 354 256 L 334 247 L 319 244 L 311 241 L 291 239 L 290 238 L 277 244 L 264 247 L 244 246 Q 232 243 224 238 Z M 222 310 L 235 370 L 238 402 L 240 403 Q 249 404 254 402 L 254 392 L 255 391 L 255 362 L 254 361 L 254 330 L 253 329 L 253 312 L 251 311 L 231 311 L 230 310 L 222 310 Z M 285 310 L 284 311 L 264 311 L 259 312 L 259 320 L 260 321 L 260 347 L 261 348 L 261 401 L 262 401 L 270 401 L 271 400 L 274 378 L 278 364 L 278 360 L 291 314 L 291 310 L 285 310 Z M 241 406 L 246 412 L 251 408 L 251 406 L 241 406 Z M 262 408 L 260 410 L 260 419 L 262 426 L 262 432 L 265 437 L 269 436 L 273 427 L 270 413 L 270 408 L 262 408 Z M 240 411 Q 236 413 238 420 L 243 416 L 240 411 Z M 251 411 Q 252 414 249 413 L 249 416 L 254 419 L 254 411 L 251 411 Z M 245 418 L 237 426 L 240 441 L 245 446 L 248 445 Q 254 437 254 423 L 245 418 Z M 256 437 L 251 447 L 248 449 L 243 449 L 237 446 L 240 463 L 246 470 L 252 469 L 257 452 L 257 439 L 256 437 Z M 274 440 Q 270 444 263 444 L 262 459 L 260 468 L 263 469 L 268 468 L 272 461 L 274 452 L 274 440 Z "/>
  </g>
</svg>
