<svg xmlns="http://www.w3.org/2000/svg" width="512" height="512" viewBox="0 0 512 512">
  <g id="color">
    <path fill="#ffffff" d="M 244.5 36 L 268 36.5 L 244.5 37 L 244.5 36 Z "/>
    <path fill="#ffffff" d="M 234.5 37 L 239 37.5 L 234.5 38 L 234.5 37 Z "/>
    <path fill="#ffffff" d="M 272.5 37 L 277 37.5 L 272.5 38 L 272.5 37 Z "/>
    <path fill="#ffffff" d="M 208.5 43 L 210 43.5 L 203.5 46 L 203.5 45 L 208.5 43 Z "/>
    <path fill="#ffffff" d="M 302.5 43 L 309 45.5 L 307.5 46 L 302.5 44 L 302.5 43 Z "/>
    <path fill="#ffffff" d="M 195.5 48 L 197 48.5 L 192.5 51 L 193.5 49 L 195.5 48 Z "/>
    <path fill="#ffffff" d="M 187.5 52 L 186.5 54 L 184.5 55 L 185.5 53 L 187.5 52 Z "/>
    <path fill="#ffffff" d="M 324.5 52 L 328 54.5 L 326.5 54 L 324.5 52 Z "/>
    <path fill="#ffffff" d="M 337.5 60 L 342 63.5 L 339.5 62 L 337.5 60 Z "/>
    <path fill="#ffffff" d="M 168.5 64 L 166.5 67 L 162.5 70 L 165.5 66 L 168.5 64 Z "/>
    <path fill="#ffffff" d="M 121.5 126 L 122 127.5 L 120.5 130 L 120 128.5 L 121.5 126 Z "/>
    <path fill="#ffffff" d="M 390.5 127 L 392 130.5 L 391 130.5 L 390.5 127 Z "/>
    <path fill="#ffffff" d="M 118.5 134 L 119 135.5 L 117.5 139 L 117 136.5 L 118.5 134 Z "/>
    <path fill="#ffffff" d="M 394.5 138 L 397 146.5 L 396 146.5 L 394.5 138 Z "/>
    <path fill="#ffffff" d="M 113.5 151 L 114 154.5 L 112.5 159 L 112 155.5 L 113.5 151 Z "/>
    <path fill="#ffffff" d="M 400.5 162 L 401 167.5 L 400 167.5 L 400.5 162 Z "/>
    <path fill="#ffffff" d="M 110.5 167 L 111 171.5 L 110 171.5 L 110.5 167 Z "/>
    <path fill="#ffffff" d="M 401.5 170 L 402 174.5 L 401 174.5 L 401.5 170 Z "/>
    <path fill="#ffffff" d="M 109.5 176 L 110 185.5 L 109 185.5 L 109.5 176 Z "/>
    <path fill="#ffffff" d="M 402.5 180 L 403 192.5 L 402 192.5 L 402.5 180 Z "/>
    <path fill="#ffffff" d="M 108.5 188 L 109 202.5 L 108 202.5 L 108.5 188 Z "/>
    <path fill="#ffffff" d="M 402.5 197 L 403 209.5 L 402 209.5 L 402.5 197 Z "/>
    <path fill="#ffffff" d="M 109.5 205 L 110 213.5 L 109 213.5 L 109.5 205 Z "/>
    <path fill="#ffffff" d="M 401.5 216 L 402 221.5 L 401 221.5 L 401.5 216 Z "/>
    <path fill="#ffffff" d="M 110.5 218 L 111 222.5 L 110 222.5 L 110.5 218 Z "/>
    <path fill="#ffffff" d="M 400.5 224 L 401 228.5 L 400 228.5 L 400.5 224 Z "/>
    <path fill="#ffffff" d="M 396.5 246 L 397 248.5 L 395.5 252 L 395 249.5 L 396.5 246 Z "/>
    <path fill="#ffffff" d="M 386.5 278 L 387 279.5 L 385.5 282 L 385 280.5 L 386.5 278 Z "/>
    <path fill="#ffffff" d="M 125.5 279 L 127 282.5 L 126 282.5 L 125.5 279 Z "/>
    <path fill="#ffffff" d="M 383.5 285 L 384 286.5 L 381.5 291 L 381 289.5 L 383.5 285 Z "/>
    <path fill="#ffffff" d="M 129.5 288 L 132 293.5 L 131 293.5 L 129.5 288 Z "/>
    <path fill="#ffffff" d="M 379.5 294 L 380 295.5 L 376.5 301 L 377 299.5 L 379.5 294 Z "/>
    <path fill="#ffffff" d="M 374.5 304 L 374 305.5 L 372.5 308 L 373 306.5 L 374.5 304 Z "/>
    <path fill="#ffffff" d="M 137.5 305 L 142 311.5 L 140 310.5 L 137.5 305 Z "/>
    <path fill="#ffffff" d="M 370.5 311 L 370 312.5 L 368.5 315 L 369 313.5 L 370.5 311 Z "/>
    <path fill="#ffffff" d="M 142.5 313 L 145 316.5 L 143 315.5 L 142.5 313 Z "/>
    <path fill="#ffffff" d="M 323.5 364 L 321.5 367 L 318.5 369 L 320.5 366 L 323.5 364 Z "/>
    <path fill="#ffffff" d="M 198.5 371 L 202 373.5 L 200.5 373 L 198.5 371 Z "/>
    <path fill="#ffffff" d="M 307.5 374 L 306.5 376 L 304.5 377 L 305.5 375 L 307.5 374 Z "/>
    <path fill="#ffffff" d="M 299.5 378 L 301 378.5 L 292.5 382 L 292.5 381 L 299.5 378 Z "/>
    <path fill="#ffffff" d="M 213.5 379 L 217 380.5 L 215.5 381 L 213.5 379 Z "/>
    <path fill="#ffffff" d="M 282.5 384 L 285 384.5 L 279.5 386 L 279.5 385 L 282.5 384 Z "/>
    <path fill="#ffffff" d="M 220.5 404 L 220 405.5 L 218.5 409 L 218 407.5 L 220.5 404 Z "/>
    <path fill="#ffffff" d="M 290.5 409 L 291 418.5 L 289.5 421 L 289 419.5 L 290 418.5 L 290.5 409 Z "/>
    <path fill="#ffffff" d="M 217.5 411 L 218 418.5 L 217 418.5 L 217.5 411 Z "/>
    <path fill="#ffffff" d="M 218.5 420 L 224 426.5 L 218 421.5 L 218.5 420 Z "/>
    <path fill="#ffffff" d="M 257.5 422 L 257 423.5 L 256.5 426 L 256 423.5 L 257.5 422 Z "/>
    <path fill="#ffffff" d="M 259.5 423 L 265 425.5 L 263.5 426 L 259.5 424 L 259.5 423 Z "/>
    <path fill="#ffffff" d="M 229.5 428 L 234 428.5 L 229.5 429 L 229.5 428 Z "/>
    <path fill="#ffffff" d="M 261.5 435 L 265 439.5 L 263 438.5 L 261.5 435 Z "/>
    <path fill="#ffffff" d="M 252.5 442 L 257 448.5 L 256 448.5 L 252.5 442 Z "/>
    <path fill="#ffffff" d="M 267.5 445 L 269 449.5 L 268 449.5 L 267.5 445 Z "/>
    <path fill="#ffffff" d="M 255.5 463 L 255 464.5 L 251.5 469 L 254 465.5 L 255.5 463 Z "/>
    <path fill="#ffffff" d="M 262.5 473 L 259.5 477 L 258 476.5 L 262.5 473 Z "/>
    <path fill="#ffffff" d="M 251.5 474 L 255 476.5 L 253.5 477 L 251.5 474 Z "/>
    <path fill="#ff6b6b" d="M 249.5 47 L 255 47.5 L 249.5 48 L 249.5 47 Z "/>
    <path fill="#ff6b6b" d="M 262.5 47 L 272.5 49 L 275.5 48 L 278.5 50 L 282.5 50 L 284.5 51 L 286 50.5 L 286.5 52 L 289.5 51 L 291.5 53 L 293.5 52 L 294 54 L 297.5 53 L 301.5 55 L 313 59 Q 311.9 61.7 314.5 61 L 316.5 62 L 318 61.5 L 317.5 63 L 319.5 64 L 321 63.5 L 321.5 65 L 323 64.5 L 323.5 66 L 325.5 66 L 335.5 74 L 337 73.5 L 336.5 75 L 338.5 76 Q 339.8 73.8 341 76.5 L 340.5 78 Q 346.1 78.5 348 82.5 Q 347.3 84.8 349.5 84 Q 354.3 86.5 352.5 89 L 355 89.5 L 354.5 91 Q 356.8 90.3 356 92.5 L 357.5 95 Q 358.8 92.8 360 95.5 L 360.5 98 L 362 97.5 Q 360.9 100.8 363.5 100 L 365.5 105 L 367 104.5 L 368 106.5 L 367 107.5 L 371 111.5 Q 371.4 116.7 375 118.5 L 374.5 120 L 376 120.5 L 375.5 122 L 377 122.5 L 376.5 124 L 378 124.5 L 377.5 126 L 379 126.5 L 378 129 L 380 129.5 Q 377.5 131 381 132.5 L 382 134.5 L 381 137.5 L 382 140 Q 385 138.8 384 142.5 L 386 146.5 L 385 148.5 L 387 148.5 L 386 153.5 L 387 153.5 L 387.5 152 L 388 155.5 L 387.5 157 L 389 157.5 L 388 160.5 L 389 162.5 L 388.5 164 L 390 164.5 Q 387.8 165.7 389 170.5 L 391 170.5 L 392 179.5 L 391 181.5 L 391 183.5 L 392 190.5 L 391 191.5 L 391 200.5 L 392 203.5 L 391 206.5 L 392 211.5 Q 392.8 215.8 390 216.5 L 391 218.5 L 391 220.5 L 389 224.5 L 390 227.5 Q 387.8 228.8 389 233.5 L 387 235.5 L 388 238 Q 385.3 236.9 386 239.5 L 388 239.5 Q 384.5 241 387 242.5 L 385 246.5 Q 387.5 248 384 249.5 L 382 257.5 L 382 259.5 L 380 267 Q 376 265.6 378 272.5 L 376 272.5 L 377 274.5 L 374 279.5 L 373 281.5 L 373.5 283 L 372 282.5 L 370 287.5 L 370.5 289 L 369 288.5 L 370 290.5 L 369 293 L 367 293.5 L 367 295.5 Q 367.8 297.8 365.5 297 L 365 299.5 Q 365.7 302.1 363 301 L 363 303.5 L 356.5 314 L 355 313.5 Q 354.3 319.3 350.5 322 L 349 322.5 Q 351.3 323.8 348.5 325 L 346 326.5 Q 348.3 327.8 345.5 329 L 340 333.5 L 340 335.5 L 330.5 345 Q 328.3 344.3 329 346.5 L 325.5 349 Q 324.3 346.8 323 349.5 Q 325.3 350.8 322.5 352 L 321 351.5 Q 321.8 353.8 319.5 353 L 317.5 353 L 315 354.5 L 317 355.5 L 315 356.5 L 314.5 355 L 310 357 L 309.5 360 L 308 359.5 L 309 361.5 Q 307.8 364.3 306.5 362 L 304 362.5 L 306 363.5 L 301.5 366 L 301 364 Q 298.3 362.9 299 365.5 L 299.5 367 L 298 366.5 L 297.5 368 L 297 366 L 289 368 L 288.5 370 L 287 369.5 L 285.5 373 L 282.5 371 Q 279.8 373.8 273.5 373 L 269 375.5 L 271 376.5 L 268 377 L 267.5 375 L 267 377 L 264.5 376 L 263 376.5 L 263.5 375 L 254.5 376 L 252.5 376 L 248.5 377 L 246.5 376 L 244.5 377 L 244.5 375 L 239.5 374 L 239 376 L 236 375.5 L 239 373.5 L 237.5 373 L 235.5 374 L 233.5 372 L 222.5 369 L 222.5 371 Q 220.3 371.8 221 369.5 L 221.5 368 L 217 367 L 216.5 369 L 212 366.5 L 213 364.5 L 210 365.5 L 211 363.5 L 209 363 L 208.5 365 L 205 362.5 L 207 361.5 L 204 360 L 203.5 362 L 202.5 360 L 204 359.5 L 197 356 Q 198.3 353 194.5 354 L 191 351.5 L 193 354.5 L 190 352.5 L 191 350.5 L 188 349 Q 189.1 346.3 186.5 347 L 184.5 346 L 186.5 350 L 183 346.5 L 184 345.5 L 181.5 341 L 180 342.5 L 181.5 345 L 178.5 341 Q 179.8 343.3 181 340.5 L 176.5 337 L 176 338.5 L 176.5 340 L 175 337.5 L 176 336.5 L 173 333.5 L 168.5 328 L 167.5 330 L 165.5 327 L 168 328 L 165.5 324 L 164.5 326 L 163.5 324 L 165 323.5 L 160 315 Q 156.2 316 155 313.5 L 157 312.5 L 153 310.5 L 151 307.5 L 154 306.5 L 152 306 L 152 303.5 L 146.5 294 L 145 294.5 L 146 292.5 L 139 279.5 L 131 256 Q 127.3 257.5 128 254.5 L 130 254.5 L 129 248 L 126.5 249 L 126 247 Q 129.7 248.3 128 242.5 L 125 234.5 L 124 220.5 L 121.5 214 Q 118.9 214.7 120 212 Q 122.7 213.1 122 210.5 L 122 208.5 L 122 184.5 L 123 183.5 L 123 176 Q 119.7 177.1 121 173 L 124 172.5 L 123 169 Q 120.3 170.1 121 167.5 L 125 164.5 L 128 145.5 L 127 145.5 L 126.5 147 L 126 145.5 L 130 142.5 L 132 137.5 L 131 135.5 L 141 116.5 L 140.5 115 L 142 115.5 L 142 113.5 L 146 108.5 L 145.5 107 Q 148.1 107.7 147 105 L 145 104.5 L 147 103.5 L 147.5 105 L 151 100 Q 154 101.3 153 97.5 L 157.5 92 L 154 93.5 L 153.5 95 L 153 93.5 L 160.5 88 L 162 88.5 L 163 86.5 L 162.5 85 Q 163.8 87.3 165 84.5 L 165 82.5 L 166.5 80 L 168.5 81 L 173 78.5 L 171.5 76 Q 172.8 78.3 174 75.5 L 173.5 74 L 176.5 72 Q 178.5 76 180.5 72 L 194 63.5 L 192.5 63 L 189.5 65 L 189.5 64 L 193.5 62 L 196 63 L 196.5 60 L 197.5 62 L 200 60.5 L 198 59.5 L 200.5 58 L 201.5 61 L 203 57 L 205 57.5 L 204.5 59 L 212 56.5 L 211 54 L 213 54.5 L 212.5 56 L 221.5 53 Q 222.8 55.3 224 52.5 L 225.5 50 L 227 50.5 L 225 51.5 L 227.5 52 L 229.5 52 L 236.5 50 L 238.5 51 L 239.5 50 L 255.5 50 L 256.5 49 L 266 48.5 Q 261.6 48.9 262.5 47 Z "/>
    <path fill="#ff6b6b" d="M 133.5 126 L 134 128.5 L 132 129.5 L 133.5 126 Z "/>
    <path fill="#ff6b6b" d="M 122.5 162 Q 124.8 161.3 124 163.5 L 122 164.5 L 122.5 162 Z "/>
    <path fill="#ff6b6b" d="M 147.5 300 L 150 303.5 L 148 302.5 L 147.5 300 Z "/>
    <path fill="#ff6b6b" d="M 169.5 331 L 174 336.5 L 170 333.5 L 169.5 331 Z "/>
    <path fill="#ff6b6b" d="M 226.5 372 Q 230.3 371.3 231 373.5 L 229.5 374 L 226.5 373 L 226.5 372 Z "/>
    <path fill="#ff6b6b" d="M 251.5 377 L 261 377.5 L 251.5 378 L 251.5 377 Z "/>
    <path fill="#ff6b6b" d="M 249.5 388 L 252.5 389 L 255.5 388 L 258.5 389 L 260.5 388 L 262.5 389 L 266.5 388 L 268 390.5 L 268 392.5 L 268.5 394 L 270 393.5 L 269.5 395 L 272 396.5 L 271.5 398 L 274 399.5 Q 271.8 400.8 274.5 402 L 276 402.5 L 275.5 404 L 278 405.5 L 280 411.5 L 280 415.5 L 278.5 417 L 275.5 416 L 270 417 Q 271.1 414.3 268.5 415 L 267 415.5 L 267.5 414 L 265.5 415 L 264.5 413 L 262.5 413 Q 259.2 414.1 260 411.5 L 258.5 412 L 254.5 410 L 252.5 412 Q 247.8 410.8 246.5 413 L 246.5 411 L 241 413.5 L 241.5 415 Q 240 412.5 238.5 416 L 234.5 417 L 234.5 416 L 236 415.5 L 230 415 L 229.5 417 L 228.5 415 L 231 413.5 L 229 410.5 L 231 410.5 L 230 408.5 L 233 408 L 233 406 L 235 406 L 235 404 Q 237.7 405.1 237 402.5 L 238.5 400 L 236 399.5 L 239.5 398 Q 241.8 398.8 241 396.5 L 245 391.5 L 245 389 L 249.5 388 Z "/>
    <path fill="#f783ac" d="M 255.5 47 Q 262.3 46.3 266 48.5 L 256.5 49 L 255.5 50 L 239.5 50 L 237.5 51 L 234.5 50 L 229.5 52 L 227.5 52 L 225 51.5 L 238.5 48 L 254.5 48 L 255.5 47 Z "/>
    <path fill="#f783ac" d="M 223.5 51 L 224 52.5 Q 222.8 55.3 221.5 53 L 203.5 60 L 202 59.5 L 201.5 61 L 199.5 61 L 197.5 62 L 197 60 L 202.5 58 Q 204 60.5 205.5 57 L 210.5 55 Q 212 57.5 213.5 54 L 223.5 51 Z "/>
    <path fill="#f783ac" d="M 313.5 60 L 320 63.5 L 318.5 63 L 313.5 61 L 313.5 60 Z "/>
    <path fill="#f783ac" d="M 194 61 Q 197 60 196 63 L 184.5 69 L 178.5 74 L 177 73.5 L 176.5 75 L 176 73.5 L 179 72 Q 177.9 69.3 180.5 70 L 194 63 L 194 61 Z "/>
    <path fill="#f783ac" d="M 332.5 70 L 343 78.5 L 341.5 78 Q 335 75.1 332.5 70 Z "/>
    <path fill="#f783ac" d="M 172 75 L 174 75.5 Q 170.9 77.3 172.5 79 L 168 81.5 Q 168.8 83.8 166.5 83 L 161.5 89 Q 159.8 86.3 158 90.5 L 159 91.5 L 153 97.5 L 153 100 Q 150.3 98.9 151 101.5 L 147 107 L 145 107.5 L 145 109.5 L 131 136.5 L 131 138.5 L 128.5 144 L 127 143.5 L 129 141.5 L 128 140.5 L 130 136.5 Q 130 130.5 134 128.5 L 134 124.5 L 141 111 L 143 110.5 Q 140.5 109 144 107.5 L 145.5 105 Q 148.1 105.8 147 102.5 L 152.5 95 Q 154.8 95.8 154 93.5 L 158 91.5 L 156 90.5 L 164.5 82 L 166 82.5 L 168 79.5 L 172 77 L 172 75 Z "/>
    <path fill="#f783ac" d="M 381.5 135 L 383 139.5 L 382 139.5 L 381.5 135 Z "/>
    <path fill="#f783ac" d="M 127.5 145 L 128 150.5 L 126 154.5 L 125 164.5 L 123.5 166 L 122 165.5 L 122.5 163 L 124 163.5 L 123 160.5 L 125 157.5 L 124 154.5 L 127 148.5 L 127 146.5 L 127.5 145 Z "/>
    <path fill="#f783ac" d="M 389.5 165 L 390 170.5 L 389 170.5 L 389.5 165 Z "/>
    <path fill="#f783ac" d="M 121.5 169 Q 124.1 168.2 123 171.5 L 123.5 173 Q 120.2 174.1 121 171.5 L 121.5 169 Z "/>
    <path fill="#f783ac" d="M 121 176 L 123 176.5 L 123 183.5 L 122 184.5 L 122 208.5 L 122 210.5 Q 122.8 212.8 120.5 212 L 121 210.5 L 120 205.5 L 121 203.5 L 120 202.5 L 120 192.5 L 121 190.5 Q 118.7 189.3 120 184.5 L 121 182.5 L 120.5 181 L 122 180.5 L 121 176 Z "/>
    <path fill="#f783ac" d="M 391.5 191 L 392 200.5 L 391 200.5 L 391.5 191 Z "/>
    <path fill="#f783ac" d="M 121.5 214 L 123 215.5 L 124 229.5 L 128 242.5 L 128 247 Q 125.3 248.1 126 245.5 L 126 243.5 L 122 227.5 L 123 225.5 L 121 220.5 L 121 218.5 L 121.5 214 Z "/>
    <path fill="#f783ac" d="M 127 248 Q 130 246.8 129 250.5 L 130 254.5 L 128 253.5 L 127 248 Z "/>
    <path fill="#f783ac" d="M 384.5 249 L 385 250.5 L 381.5 259 L 382 257.5 L 384.5 249 Z "/>
    <path fill="#f783ac" d="M 129.5 256 Q 131.8 255.3 131 257.5 L 134 262.5 L 135 269.5 L 142 286.5 L 152 303.5 L 152 306 L 155 307.5 Q 153 311 151 306.5 L 139 284.5 L 139 281.5 L 136 277.5 L 136 274.5 L 133 268.5 Q 135.5 267 132 265.5 L 129.5 256 Z "/>
    <path fill="#f783ac" d="M 370.5 287 L 370 288.5 L 368.5 291 L 369 289.5 L 370.5 287 Z "/>
    <path fill="#f783ac" d="M 154.5 310 L 157.5 314 L 155 313 L 154.5 310 Z "/>
    <path fill="#f783ac" d="M 157.5 315 Q 160.8 313.9 160 316.5 L 179.5 340 L 183 342.5 L 184 346 L 188 347 Q 186.9 349.7 189.5 349 L 194.5 354 L 197 354 Q 195.9 356.7 198.5 356 L 211 363.5 L 209 364.5 Q 209.8 362.3 207.5 363 L 204 362 L 204 360 L 200 360 Q 201.1 357.3 198.5 358 L 191 352.5 L 190.5 351 L 189.5 352 L 183.5 346 Q 181.3 346.8 182 344.5 L 177 341 L 175.5 337 L 174 337.5 L 169.5 331 L 168 331 Q 169.5 327.3 166.5 328 L 165 324 L 161 321.5 L 157.5 315 Z "/>
    <path fill="#f783ac" d="M 324.5 348 L 325 350 L 321.5 352 Q 320.3 349.8 319 352.5 L 319.5 354 L 315 355 L 313.5 358 L 308 361 L 308.5 359 L 310 359.5 Q 308.9 356.2 311.5 357 L 321.5 349 Q 323 351.5 324.5 348 Z "/>
    <path fill="#f783ac" d="M 304.5 362 L 307 362.5 L 301 364 Q 302.1 366.7 299.5 366 L 298 366.5 L 299 364 L 304.5 362 Z "/>
    <path fill="#f783ac" d="M 294.5 366 Q 298.3 365 297 368 L 287.5 372 L 287 369.5 L 289 369.5 Q 288.2 366.9 291.5 368 L 294.5 366 Z "/>
    <path fill="#f783ac" d="M 217 367 L 236.5 374 L 238.5 373 Q 240 376.1 245 375.5 Q 243.8 378.3 242.5 376 Q 238.1 377.5 239 374.5 L 237.5 375 Q 231.5 375.5 229.5 372 L 224.5 372 L 221.5 369 L 219.5 369 Q 215.8 370 217 367 Z "/>
    <path fill="#f783ac" d="M 282.5 371 Q 285.1 370.3 284 373 L 269.5 376 L 269.5 375 L 282.5 371 Z "/>
    <path fill="#f783ac" d="M 253.5 375 L 257.5 376 Q 258.8 373.7 263.5 375 L 264.5 377 L 262.5 377 L 250 376.5 L 253.5 375 Z "/>
    <path fill="#f783ac" d="M 245.5 387 L 249 388.5 L 245 389 L 245 391.5 L 241 398 L 238.5 399 L 238 397 Q 241 398.3 240 394.5 L 242 391 L 244 390.5 L 243 388 L 245.5 387 Z "/>
    <path fill="#f783ac" d="M 267.5 391 L 270 394.5 L 268 393.5 L 267.5 391 Z "/>
    <path fill="#f783ac" d="M 236 400 L 239 400.5 L 237 404 L 235 404 L 235 406 L 233 406 Q 234.1 408.7 231.5 408 L 232 406.5 L 234 403.5 L 236 400 Z "/>
    <path fill="#f783ac" d="M 230.5 409 L 232 411.5 L 230 411.5 L 231 413.5 L 230.5 415 L 236 415.5 L 230 417 Q 231.1 414.3 228.5 415 L 229 413.5 L 230.5 409 Z "/>
    <path fill="#f783ac" d="M 244.5 411 L 247 411.5 L 239.5 416 L 242.5 412 L 244.5 411 Z "/>
    <path fill="#f783ac" d="M 266.5 414 L 270 415.5 L 268.5 416 L 266.5 414 Z "/>
  </g>
  <g id="line">
    <path fill="#1a1a1a" d="M 239.5 37 L 271.5 37 Q 273.3 39.8 279.5 38 L 301.5 43 L 312.5 47 Q 343.6 59.9 364 83.5 Q 382 103.5 392 131.5 L 400 161.5 L 400 167.5 L 402 175.5 Q 400.3 188.2 403 196.5 L 402 197.5 L 402 215.5 L 401 216.5 L 401 223.5 L 400 224.5 L 398 241.5 L 388 275.5 Q 377.6 301.6 363 323.5 Q 350.8 340.8 335.5 355 Q 321.5 368 303.5 377 L 278 386.5 L 289 405.5 Q 291.3 410.3 290 418.5 L 284.5 426 L 278.5 428 L 272.5 428 L 257.5 422 L 256 425.5 L 258 431.5 L 267 444.5 Q 270 449.5 269 458.5 Q 266.8 469.8 259.5 476 L 255.5 477 L 251 473.5 L 251 469.5 Q 256.3 465.8 258 458.5 L 258 450.5 L 248 434.5 L 246 425 L 235.5 428 L 228.5 428 L 224.5 427 L 219 421.5 Q 216.3 417.7 218 409.5 Q 223.8 396.3 233 386.5 L 212.5 379 L 197.5 371 Q 177.8 358.7 163 341.5 L 151 326.5 L 137 304.5 L 124 276.5 L 116 251.5 L 112 232.5 L 111 218.5 L 110 217.5 L 110 205.5 L 109 204.5 L 109 186.5 L 110 185.5 L 111 164.5 Q 114.5 156.5 115 145.5 L 124 120.5 Q 137.4 89.9 161.5 70 Q 177.9 55.9 199.5 47 L 210.5 43 L 239.5 37 Z M 250 47 L 249 48 L 230 49 L 201 58 Q 182 67 167 80 Q 145 99 133 127 L 129 136 L 124 154 L 121 168 L 121 178 L 120 179 L 120 214 L 121 215 L 122 230 L 128 256 L 136 279 L 148 303 L 170 334 L 193 355 L 214 368 L 233 375 L 242 377 L 251 377 L 252 378 L 271 377 L 286 373 L 308 363 L 328 348 L 350 324 L 361 308 L 374 283 L 386 248 L 392 215 L 392 177 L 387 149 L 374 117 Q 366 101 355 90 Q 335 68 307 56 L 276 48 L 250 47 Z M 245 387 L 231 407 L 228 414 L 230 417 L 237 417 L 248 412 L 260 412 L 271 417 L 279 417 L 280 416 L 280 411 L 278 406 L 268 392 L 268 390 L 267 388 L 247 388 L 245 387 Z "/>
  </g>
</svg>
