<svg xmlns="http://www.w3.org/2000/svg" width="512" height="512" viewBox="0 0 512 512">
  <g id="color">
    <path fill="#ffffff" d="M 236.5 36 L 271 36.5 L 236.5 37 L 236.5 36 Z "/>
    <path fill="#ffffff" d="M 280.5 37 L 291 37.5 L 280.5 38 L 280.5 37 Z "/>
    <path fill="#ffffff" d="M 292.5 38 L 303 38.5 L 292.5 39 L 292.5 38 Z "/>
    <path fill="#ffffff" d="M 228.5 39 L 227 41.5 L 223.5 49 L 223 47.5 L 228.5 39 Z "/>
    <path fill="#ffffff" d="M 307.5 39 L 314 39.5 L 307.5 40 L 307.5 39 Z "/>
    <path fill="#ffffff" d="M 318.5 40 L 331 41.5 L 325.5 42 Q 324 39.5 318.5 41 L 318.5 40 Z "/>
    <path fill="#ffffff" d="M 333.5 42 Q 339.1 42.5 341 46.5 L 337.5 44 L 333.5 43 L 333.5 42 Z "/>
    <path fill="#ffffff" d="M 222.5 50 L 223 51.5 L 221.5 54 L 221 52.5 L 222.5 50 Z "/>
    <path fill="#ffffff" d="M 219.5 58 L 220 59.5 L 217.5 65 L 217 63.5 L 219.5 58 Z "/>
    <path fill="#ffffff" d="M 340.5 59 L 341 60.5 L 339.5 64 L 339 61.5 L 340.5 59 Z "/>
    <path fill="#ffffff" d="M 338.5 65 L 339 66.5 L 336.5 73 L 336 70.5 L 338.5 65 Z "/>
    <path fill="#ffffff" d="M 216.5 67 L 217 68.5 L 215.5 72 L 215 69.5 L 216.5 67 Z "/>
    <path fill="#ffffff" d="M 335.5 74 L 336 76.5 L 333.5 82 L 333 80.5 L 335.5 74 Z "/>
    <path fill="#ffffff" d="M 213.5 76 L 214 78.5 L 212.5 81 L 212 78.5 L 213.5 76 Z "/>
    <path fill="#ffffff" d="M 211.5 82 L 212 84.5 L 210.5 88 L 210 85.5 L 211.5 82 Z "/>
    <path fill="#ffffff" d="M 332.5 84 L 333 85.5 L 331.5 89 L 331 86.5 L 332.5 84 Z "/>
    <path fill="#ffffff" d="M 208.5 93 L 209 95.5 L 207.5 100 L 207 96.5 L 208.5 93 Z "/>
    <path fill="#ffffff" d="M 329.5 93 L 330 95.5 L 328.5 99 L 328 96.5 L 329.5 93 Z "/>
    <path fill="#ffffff" d="M 327.5 101 L 328 103.5 L 325.5 110 L 325 108.5 L 327.5 101 Z "/>
    <path fill="#ffffff" d="M 200.5 105 L 202 105.5 L 198.5 107 L 198.5 106 L 200.5 105 Z "/>
    <path fill="#ffffff" d="M 195.5 107 L 197 107.5 L 193.5 109 L 193.5 108 L 195.5 107 Z "/>
    <path fill="#ffffff" d="M 188.5 110 L 190 110.5 L 186.5 112 L 186.5 111 L 188.5 110 Z "/>
    <path fill="#ffffff" d="M 325.5 111 L 334 114.5 L 331.5 115 L 325 113 L 325.5 111 Z "/>
    <path fill="#ffffff" d="M 181.5 113 L 183 113.5 L 179.5 115 L 179.5 114 L 181.5 113 Z "/>
    <path fill="#ffffff" d="M 176.5 115 L 178 115.5 L 172.5 118 L 172.5 117 L 176.5 115 Z "/>
    <path fill="#ffffff" d="M 169.5 118 L 171 118.5 L 167.5 120 L 167.5 119 L 169.5 118 Z "/>
    <path fill="#ffffff" d="M 344.5 118 L 349 119.5 L 346.5 120 L 344.5 118 Z "/>
    <path fill="#ffffff" d="M 162.5 121 L 164 121.5 L 160.5 123 L 160.5 122 L 162.5 121 Z "/>
    <path fill="#ffffff" d="M 353.5 121 L 358 122.5 L 356.5 123 L 353.5 122 L 353.5 121 Z "/>
    <path fill="#ffffff" d="M 158.5 123 L 157.5 125 L 154.5 126 L 155.5 124 L 158.5 123 Z "/>
    <path fill="#ffffff" d="M 368.5 126 L 372 127.5 L 370.5 128 L 368.5 126 Z "/>
    <path fill="#ffffff" d="M 146.5 128 L 148 128.5 L 142.5 131 L 142.5 130 L 146.5 128 Z "/>
    <path fill="#ffffff" d="M 376.5 129 L 381 130.5 L 378.5 131 L 376.5 129 Z "/>
    <path fill="#ffffff" d="M 139.5 131 L 141 131.5 L 135.5 134 L 135.5 133 L 139.5 131 Z "/>
    <path fill="#ffffff" d="M 382.5 131 L 387 132.5 L 384.5 133 L 382.5 131 Z "/>
    <path fill="#ffffff" d="M 391.5 134 L 395 135.5 L 393.5 136 L 391.5 134 Z "/>
    <path fill="#ffffff" d="M 126.5 137 L 128 137.5 L 124.5 139 L 124.5 138 L 126.5 137 Z "/>
    <path fill="#ffffff" d="M 399.5 137 L 403 138.5 L 401.5 139 L 399.5 137 Z "/>
    <path fill="#ffffff" d="M 404.5 139 L 410 141.5 L 408.5 142 L 404.5 140 L 404.5 139 Z "/>
    <path fill="#ffffff" d="M 115.5 142 L 117 142.5 L 107.5 147 L 107.5 146 L 115.5 142 Z "/>
    <path fill="#ffffff" d="M 411.5 142 L 417 144.5 L 415.5 145 L 411.5 143 L 411.5 142 Z "/>
    <path fill="#ffffff" d="M 422.5 147 L 430 153.5 L 424.5 149 L 422.5 147 Z "/>
    <path fill="#ffffff" d="M 93.5 153 L 92.5 155 L 86.5 158 L 87.5 156 L 93.5 153 Z "/>
    <path fill="#ffffff" d="M 430.5 155 L 433 159.5 L 432 159.5 L 430.5 155 Z "/>
    <path fill="#ffffff" d="M 433.5 162 Q 435.9 166.1 435 173.5 L 434 173.5 L 433.5 162 Z "/>
    <path fill="#ffffff" d="M 78.5 169 L 79 176.5 L 78 176.5 L 78.5 169 Z "/>
    <path fill="#ffffff" d="M 435.5 177 L 436 186.5 L 435 186.5 L 435.5 177 Z "/>
    <path fill="#ffffff" d="M 77.5 178 L 78 187.5 L 77 187.5 L 77.5 178 Z "/>
    <path fill="#ffffff" d="M 76.5 195 L 77 222.5 L 76 223.5 L 76 276.5 L 77 277.5 L 77 311.5 L 76 311.5 L 75 222.5 L 76 221.5 L 76.5 195 Z "/>
    <path fill="#ffffff" d="M 436.5 196 L 437 298.5 L 436 298.5 L 436.5 196 Z "/>
    <path fill="#ffffff" d="M 435.5 323 L 436 347.5 L 437 348.5 L 435 349 L 435.5 323 Z "/>
    <path fill="#ffffff" d="M 77.5 328 L 78 345.5 L 77 345.5 L 77.5 328 Z "/>
    <path fill="#ffffff" d="M 78.5 348 L 79 353.5 L 76.5 355 L 76.5 354 L 78 353.5 L 78.5 348 Z "/>
    <path fill="#ffffff" d="M 442.5 350 L 447 351.5 L 445.5 352 L 442.5 351 L 442.5 350 Z "/>
    <path fill="#ffffff" d="M 448.5 352 L 457 356.5 L 455.5 357 L 448.5 353 L 448.5 352 Z "/>
    <path fill="#ffffff" d="M 72.5 355 L 75 355.5 L 70.5 357 L 70.5 356 L 72.5 355 Z "/>
    <path fill="#ffffff" d="M 457.5 358 L 460 361.5 L 459 361.5 L 457.5 358 Z "/>
    <path fill="#ffffff" d="M 460.5 364 L 462 376.5 L 460.5 383 L 460 377.5 Q 462.2 376.2 461 371.5 Q 458.2 369.7 460.5 364 Z "/>
    <path fill="#ffffff" d="M 54.5 366 L 54 367.5 L 53.5 370 L 53 367.5 L 54.5 366 Z "/>
    <path fill="#ffffff" d="M 52.5 372 L 53 388.5 L 52 388.5 L 52.5 372 Z "/>
    <path fill="#ffffff" d="M 53.5 392 Q 54.2 399.3 59.5 402 L 61 402.5 L 59.5 403 Q 52.6 400.1 53.5 392 Z "/>
    <path fill="#ffffff" d="M 450.5 395 L 449.5 397 L 447.5 398 L 448.5 396 L 450.5 395 Z "/>
    <path fill="#ffffff" d="M 445.5 398 L 444.5 400 L 441.5 401 L 441.5 400 L 445.5 398 Z "/>
    <path fill="#ffffff" d="M 62.5 403 L 71 407.5 L 69.5 408 L 63.5 405 L 62.5 403 Z "/>
    <path fill="#ffffff" d="M 428.5 406 L 430 406.5 L 420.5 411 L 420.5 410 L 428.5 406 Z "/>
    <path fill="#ffffff" d="M 74.5 409 L 84 413.5 L 82.5 413 L 74.5 410 L 74.5 409 Z "/>
    <path fill="#ffffff" d="M 85.5 414 L 91 416.5 L 89.5 416 Q 84.7 416 85.5 414 Z "/>
    <path fill="#ffffff" d="M 411.5 414 L 413 414.5 L 407.5 417 L 407.5 416 L 411.5 414 Z "/>
    <path fill="#ffffff" d="M 92.5 417 L 96 418.5 L 94.5 419 L 92.5 417 Z "/>
    <path fill="#ffffff" d="M 404.5 417 L 406 417.5 L 396.5 422 L 396.5 421 L 404.5 417 Z "/>
    <path fill="#ffffff" d="M 99.5 420 L 103 421.5 L 101.5 422 L 99.5 420 Z "/>
    <path fill="#ffffff" d="M 104.5 422 L 109 424.5 L 107.5 424 Q 103.7 424.5 104.5 422 Z "/>
    <path fill="#ffffff" d="M 393.5 422 L 395 422.5 L 389.5 425 L 389.5 424 L 393.5 422 Z "/>
    <path fill="#ffffff" d="M 111.5 425 L 117 427.5 L 115.5 428 Q 111.5 427.5 111.5 425 Z "/>
    <path fill="#ffffff" d="M 387.5 425 L 386.5 427 L 378.5 430 L 378.5 429 L 387.5 425 Z "/>
    <path fill="#ffffff" d="M 118.5 428 L 122 429.5 L 120.5 430 L 118.5 428 Z "/>
    <path fill="#ffffff" d="M 125.5 431 L 129 432.5 L 127.5 433 L 125.5 431 Z "/>
    <path fill="#ffffff" d="M 373.5 431 L 375 431.5 L 371.5 433 L 371.5 432 L 373.5 431 Z "/>
    <path fill="#ffffff" d="M 130.5 433 L 136 435.5 L 134.5 436 L 130.5 434 L 130.5 433 Z "/>
    <path fill="#ffffff" d="M 137.5 436 L 141 437.5 L 139.5 438 L 137.5 436 Z "/>
    <path fill="#ffffff" d="M 362.5 436 L 364 436.5 L 360.5 438 L 360.5 437 L 362.5 436 Z "/>
    <path fill="#ffffff" d="M 144.5 439 L 148 440.5 L 146.5 441 L 144.5 439 Z "/>
    <path fill="#ffffff" d="M 355.5 439 L 357 439.5 L 353.5 441 L 353.5 440 L 355.5 439 Z "/>
    <path fill="#ffffff" d="M 149.5 441 L 156 443.5 L 154.5 444 L 149.5 442 L 149.5 441 Z "/>
    <path fill="#ffffff" d="M 348.5 442 L 350 442.5 L 346.5 444 L 346.5 443 L 348.5 442 Z "/>
    <path fill="#ffffff" d="M 157.5 444 L 161 445.5 L 159.5 446 L 157.5 444 Z "/>
    <path fill="#ffffff" d="M 343.5 444 L 345 444.5 L 339.5 447 L 339.5 446 L 343.5 444 Z "/>
    <path fill="#ffffff" d="M 162.5 446 L 169 448.5 L 167.5 449 L 162.5 447 L 162.5 446 Z "/>
    <path fill="#ffffff" d="M 336.5 447 L 338 447.5 L 330.5 451 L 330.5 450 L 336.5 447 Z "/>
    <path fill="#ffffff" d="M 172.5 450 L 176 451.5 L 174.5 452 L 172.5 450 Z "/>
    <path fill="#ffffff" d="M 177.5 452 L 181 453.5 L 179.5 454 L 177.5 452 Z "/>
    <path fill="#ffffff" d="M 325.5 452 L 327 452.5 L 323.5 454 L 323.5 453 L 325.5 452 Z "/>
    <path fill="#ffffff" d="M 184.5 455 L 189 456.5 L 187.5 457 L 184.5 456 L 184.5 455 Z "/>
    <path fill="#ffffff" d="M 318.5 455 L 320 455.5 L 316.5 457 L 316.5 456 L 318.5 455 Z "/>
    <path fill="#ffffff" d="M 190.5 457 L 194 458.5 L 192.5 459 L 190.5 457 Z "/>
    <path fill="#ffffff" d="M 313.5 457 L 315 457.5 L 308.5 460 L 308.5 459 L 313.5 457 Z "/>
    <path fill="#ffffff" d="M 198.5 460 L 202 461.5 L 200.5 462 L 198.5 460 Z "/>
    <path fill="#ffffff" d="M 303.5 461 L 305 461.5 L 301.5 463 L 301.5 462 L 303.5 461 Z "/>
    <path fill="#ffffff" d="M 206.5 463 L 210 464.5 L 208.5 465 L 206.5 463 Z "/>
    <path fill="#ffffff" d="M 298.5 463 L 300 463.5 L 296.5 465 L 296.5 464 L 298.5 463 Z "/>
    <path fill="#ffffff" d="M 214.5 466 L 218 467.5 L 216.5 468 L 214.5 466 Z "/>
    <path fill="#ffffff" d="M 291.5 466 L 293 466.5 L 289.5 468 L 289.5 467 L 291.5 466 Z "/>
    <path fill="#ffffff" d="M 220.5 468 L 225 469.5 L 222.5 470 L 220.5 468 Z "/>
    <path fill="#ffffff" d="M 286.5 468 L 285.5 470 L 281.5 471 L 281.5 470 L 286.5 468 Z "/>
    <path fill="#ffffff" d="M 229.5 471 L 235 472.5 L 232.5 473 L 229.5 472 L 229.5 471 Z "/>
    <path fill="#ffffff" d="M 277.5 471 L 280 471.5 L 275.5 473 L 275.5 472 L 277.5 471 Z "/>
    <path fill="#ffffff" d="M 240.5 474 L 246 475.5 L 243.5 476 L 240.5 475 L 240.5 474 Z "/>
    <path fill="#ffffff" d="M 268.5 474 L 270 474.5 L 265.5 476 L 265.5 475 L 268.5 474 Z "/>
    <path fill="#ffffff" d="M 249.5 476 L 262 476.5 L 249.5 477 L 249.5 476 Z "/>
    <path fill="#4da3ff" d="M 200.5 117 Q 203.1 116.2 202 119.5 L 199 135.5 L 197.5 137 L 184.5 138 Q 176.5 140.5 172 146.5 L 171 154.5 L 175.5 160 L 180.5 163 L 201.5 166 L 206.5 168 L 214.5 168 L 227.5 171 L 237.5 171 L 241.5 173 L 258.5 174 L 263.5 176 L 286.5 178 L 294.5 180 L 296.5 180 L 318.5 181 L 325.5 179 L 332 173.5 Q 334.3 170.3 333 163.5 L 328.5 158 L 320.5 154 L 317 154 L 322 126.5 L 324.5 122 L 329.5 125 L 342.5 128 L 358.5 135 L 361.5 135 L 395.5 147 L 408.5 152 L 415 156.5 L 387.5 170 L 371.5 176 L 365.5 180 L 342.5 189 L 323.5 199 L 318.5 200 L 305.5 207 L 300.5 208 L 298.5 210 L 256.5 228 L 249.5 224 L 202.5 207 L 192.5 202 L 189.5 202 L 187.5 200 L 173.5 196 L 171.5 194 L 160.5 191 L 158.5 189 L 153.5 188 L 143.5 183 L 131.5 180 L 122.5 175 L 119.5 175 L 114.5 172 L 103.5 169 L 92 163.5 L 200.5 117 Z "/>
    <path fill="#4da3ff" d="M 189.5 147 L 196 147 L 196 154 L 182 151.5 L 183 149 L 185.5 148 L 187.5 149 L 189.5 147 Z "/>
    <path fill="#4da3ff" d="M 315.5 163 L 323 165 Q 325.1 170.2 320.5 169 L 315 170 L 316 164.5 L 315.5 163 Z "/>
    <path fill="#4da3ff" d="M 422.5 165 L 425 173.5 L 425 175.5 L 425 192.5 L 426 193.5 L 426 195.5 L 425 360.5 L 422.5 364 L 317.5 410 L 263.5 431 L 262 429.5 L 262 354.5 L 261 353.5 L 261 344.5 L 262 343.5 L 262 241.5 L 261 235 L 270.5 233 L 295.5 222 L 305.5 219 L 307.5 217 L 378.5 187 L 422.5 165 Z "/>
    <path fill="#4da3ff" d="M 87 171 L 108.5 182 L 130.5 190 L 132.5 192 L 235.5 232 L 249.5 235 L 253 237.5 L 252 239.5 L 252 261.5 L 251 262.5 L 251 305.5 L 250 306.5 L 250 408.5 L 251 409.5 L 251 431 L 246.5 431 L 233.5 426 L 230.5 426 L 225.5 423 L 206.5 417 L 185.5 409 L 183.5 407 L 180.5 407 L 170.5 402 L 164.5 401 L 149.5 394 L 113.5 381 L 89 369.5 L 88 328.5 L 87 327.5 L 87 290.5 L 86 289.5 L 87 285.5 L 86 284.5 L 86 181.5 L 87 180.5 L 87 171 Z "/>
    <path fill="#4da3ff" d="M 437 360 Q 444.6 360.3 449 364.5 L 450 366.5 L 450 382.5 Q 448.6 387 443 386 Q 444.1 388.7 441.5 388 L 439.5 388 L 436.5 391 L 434.5 392 L 432.5 392 L 427.5 396 L 418.5 399 L 407.5 405 Q 406 402.5 404.5 406 L 359.5 426 L 358 425.5 L 357.5 427 L 356 426.5 Q 356.8 428.8 354.5 428 L 341.5 434 L 340 433.5 L 338.5 436 L 326.5 440 L 324.5 442 L 319 442 Q 320.3 445 316.5 444 L 313.5 445 L 308.5 448 L 306.5 448 L 304 448.5 L 304.5 450 L 288.5 457 Q 287 454.5 285.5 458 L 283.5 459 L 282 458.5 Q 282.8 461.1 279.5 460 L 262.5 466 L 247.5 466 L 234.5 461 L 231 461 Q 232.4 457 225.5 459 L 219.5 456 L 207.5 453 L 198.5 448 L 191 447 Q 192.3 443.7 187.5 445 L 179 441.5 L 179.5 440 L 177.5 441 L 154 432 L 153.5 430 L 152 430.5 Q 152.9 427.5 148.5 429 L 144.5 427 L 138.5 426 L 122.5 418 L 119 418 Q 120.3 414.7 115.5 416 L 83 402.5 L 82.5 401 L 80.5 402 L 76.5 400 L 63 394.5 L 62 392.5 L 62 370 L 76.5 363 Q 79.1 365.4 78 371.5 L 84.5 379 L 94.5 385 L 100 386 L 100.5 388 L 102.5 387 L 126 397.5 L 124 398.5 L 127.5 400 L 129.5 399 L 140.5 403 L 142.5 405 L 153.5 408 L 155.5 410 L 161 411 L 161.5 413 L 163.5 413 L 202 427 L 202.5 429 L 204.5 428 L 211.5 432 L 215 432 Q 213.6 436 220.5 434 L 240 440.5 L 239.5 442 L 242.5 441 L 245.5 443 Q 253 441.5 256.5 444 L 259.5 443 L 262 444 L 262.5 442 L 264.5 443 L 269.5 440 L 294.5 431 Q 296 433.5 297.5 430 L 302.5 428 Q 304 430.5 305.5 427 L 342.5 412 L 344 412.5 Q 343.2 409.9 346.5 411 L 351 409.5 L 350.5 408 L 356.5 405 L 360.5 405 L 369.5 400 L 371.5 400 L 375 400 Q 373.9 397.3 376.5 398 L 416.5 380 L 417.5 381 L 420.5 378 L 424.5 376 L 426 376.5 L 427.5 374 L 435 367.5 L 437 363.5 L 437 361.5 L 437 360 Z "/>
    <path fill="#ffd43b" d="M 232 43 L 261.5 43 L 262.5 44 L 276.5 44 L 277.5 45 L 292.5 45 L 293.5 46 L 303.5 46 L 313.5 48 L 331.5 49 L 334 50 L 335 52.5 L 320 97.5 L 309 143.5 L 308 155.5 L 306 161.5 L 306 169.5 L 304.5 171 L 277.5 168 L 269.5 166 L 261.5 166 L 246.5 163 L 239.5 163 L 233.5 161 L 217.5 160 Q 212.9 157.1 204.5 158 L 203 156.5 L 207 132.5 L 209 128.5 L 209 123.5 L 212 113.5 L 212 108.5 Q 216.7 98.2 218 84.5 L 232 43 Z M 304 77 L 301 78 Q 290 86 284 99 L 282 100 L 279 96 L 275 93 L 270 93 L 265 100 L 266 106 L 271 116 L 278 121 L 286 121 L 290 118 L 304 101 L 312 88 Q 313 82 310 80 Q 309 76 304 77 Z M 236 90 L 231 93 L 225 102 Q 224 110 227 114 Q 230 118 237 120 Q 244 121 248 118 L 252 114 L 255 107 Q 256 100 253 97 L 247 91 L 245 92 Q 243 88 236 90 Z "/>
    <path fill="#ff6b6b" d="M 240.5 92 L 246 94.5 L 245.5 96 L 250 98.5 L 249.5 100 Q 251.8 99.3 251 101.5 L 249 101.5 Q 247.1 106.9 250.5 106 L 250 107.5 L 249.5 110 L 248.5 109 L 243.5 114 Q 238.9 113.4 237.5 116 L 237 114 L 233 112.5 L 231 109.5 Q 232.8 103.3 230 101.5 L 233 99.5 L 232 97.5 L 235 96.5 Q 232.8 95.3 235.5 94 L 235.5 96 L 238 94.5 Q 237.3 92.3 239.5 93 L 240.5 92 Z "/>
    <path fill="#51cf66" d="M 303.5 81 Q 307.3 80.3 308 82.5 L 308 87.5 L 287 115 L 285 115 Q 286.1 117.7 283.5 117 L 279.5 118 L 277 117 L 269 103.5 L 269 99.5 Q 269.5 96.5 273.5 97 L 280.5 105 L 285 104 L 287 99.5 L 301.5 82 L 303.5 81 Z "/>
    <path fill="#66d9e8" d="M 201.5 115 L 204 116.5 L 200 139 L 186.5 139 L 177.5 143 L 174 146.5 L 173 155.5 L 179.5 161 L 194.5 164 L 200.5 164 L 205.5 166 L 218.5 167 L 224.5 169 L 233.5 169 L 247.5 172 L 255.5 172 L 262.5 174 L 298.5 178 L 299.5 179 L 320.5 179 Q 327.4 177.5 331 172.5 L 332 166.5 L 327.5 159 L 315 155 L 322 121 L 326.5 121 L 360.5 134 L 363.5 134 L 397.5 146 L 417 155.5 Q 418.3 159.3 414.5 158 L 395.5 168 L 379.5 174 L 360.5 184 L 355.5 185 L 353.5 187 L 277.5 220 L 275.5 222 L 263.5 226 L 261.5 228 L 254.5 229 L 242.5 223 L 195.5 206 L 177.5 198 L 174.5 198 L 135.5 182 L 132.5 182 L 91 165 L 92.5 161 L 201.5 115 Z M 201 117 L 92 164 L 104 169 L 115 172 L 120 175 L 123 175 L 132 180 L 144 183 L 154 188 L 159 189 L 161 191 L 172 194 L 174 196 L 188 200 L 190 202 L 193 202 L 203 207 L 250 224 L 257 228 L 299 210 L 301 208 L 306 207 L 319 200 L 324 199 L 343 189 L 366 180 L 372 176 L 388 170 L 415 157 L 409 152 L 396 147 L 362 135 L 359 135 L 343 128 L 330 125 L 325 122 L 322 127 L 317 154 L 321 154 L 329 158 L 333 164 Q 334 170 332 174 L 326 179 L 319 181 L 297 180 L 295 180 L 287 178 L 264 176 L 259 174 L 242 173 L 238 171 L 228 171 L 215 168 L 207 168 L 202 166 L 181 163 L 176 160 L 171 155 L 172 147 Q 177 141 185 138 L 198 137 L 199 136 L 202 120 Q 203 116 201 117 Z "/>
    <path fill="#66d9e8" d="M 188.5 145 L 198 145 L 198 156 L 186.5 155 L 180 153 L 179 150.5 L 188.5 145 Z M 190 147 L 188 149 L 186 148 L 183 149 L 182 152 L 196 154 L 196 147 L 190 147 Z "/>
    <path fill="#66d9e8" d="M 314 161 L 322.5 163 L 325 165.5 Q 326.5 169.9 323.5 169 L 321.5 171 L 313.5 172 L 312 168.5 L 314 161 Z M 317 164 Q 314 165 315 170 L 321 169 Q 325 170 323 165 L 317 164 Z "/>
    <path fill="#66d9e8" d="M 423.5 163 L 426 169.5 L 426 180.5 L 427 181.5 L 428 227.5 L 427 228.5 L 427 336.5 L 426 337.5 L 426 362.5 L 423.5 365 L 405.5 374 Q 388.8 378.8 375.5 387 L 365.5 390 L 314.5 413 L 261 433 L 261 424.5 L 260 423.5 L 260 283.5 L 261 282.5 L 261 257.5 L 260 256.5 L 260 237.5 L 259 235.5 L 261.5 233 L 268.5 232 L 284.5 226 L 354.5 196 L 367.5 189 L 407.5 172 L 423.5 163 Z M 423 165 L 379 187 L 308 217 L 306 219 L 296 222 L 271 233 L 261 235 L 262 242 L 262 344 L 261 345 L 261 354 L 262 355 L 262 430 L 264 431 L 318 410 L 423 364 L 425 361 L 426 196 L 426 194 L 425 193 L 425 176 L 425 174 L 423 165 Z "/>
    <path fill="#66d9e8" d="M 85 169 L 87.5 169 L 112.5 182 L 164.5 202 L 166.5 204 L 237.5 231 L 252.5 234 L 254 235.5 L 253 281.5 L 252 282.5 L 252 348.5 L 251 349.5 L 251 370.5 L 252 371.5 L 252 425.5 L 253 426.5 L 253 433 L 248.5 433 L 228.5 427 L 223.5 424 L 191.5 413 L 176.5 406 L 165.5 403 L 155.5 398 L 116.5 384 L 90.5 373 L 88 370.5 L 87 365.5 L 87 346.5 L 86 345.5 L 85 247.5 L 84 245.5 L 84 243.5 L 84 217.5 L 85 215.5 L 84 213.5 L 85 212.5 L 85 169 Z M 87 171 L 87 181 L 86 182 L 86 285 L 87 286 L 86 290 L 87 291 L 87 328 L 88 329 L 89 370 L 114 381 L 150 394 L 165 401 L 171 402 L 181 407 L 184 407 L 186 409 L 207 417 L 226 423 L 231 426 L 234 426 L 247 431 L 251 431 L 251 410 L 250 409 L 250 307 L 251 306 L 251 263 L 252 262 L 252 240 L 253 238 L 250 235 L 236 232 L 133 192 L 131 190 L 109 182 L 87 171 Z "/>
    <path fill="#66d9e8" d="M 435 357 L 447.5 361 L 451 364.5 Q 453.8 370.8 452 381.5 L 447.5 387 L 416.5 403 L 293.5 457 L 263.5 468 L 248.5 468 L 197.5 451 L 182.5 444 L 131.5 425 L 107.5 414 L 89.5 408 L 72.5 400 L 64.5 398 L 61 395.5 L 60 392.5 L 60 371.5 L 63.5 367 L 77.5 361 L 79 362.5 L 80 372.5 L 84.5 377 L 137.5 401 L 150.5 405 L 206.5 428 L 209.5 428 L 239.5 439 L 255.5 442 Q 257 439.5 262.5 441 L 294.5 430 Q 315.1 419.6 338.5 412 L 415.5 379 L 427.5 373 L 433 367.5 L 435 357 Z M 437 360 L 437 362 L 437 364 L 435 368 L 428 374 L 426 377 L 425 376 L 421 378 L 418 381 L 417 380 L 377 398 Q 374 397 375 400 L 372 400 L 370 400 L 361 405 L 357 405 L 351 408 L 351 410 L 347 411 Q 343 410 344 413 L 343 412 L 332 416 L 332 418 L 331 417 L 306 427 Q 304 430 303 428 L 298 430 Q 296 433 295 431 L 270 440 L 265 443 L 263 442 L 262 444 L 260 443 L 257 444 Q 253 442 246 443 L 243 441 L 240 442 L 240 441 L 221 434 Q 214 436 215 432 L 212 432 L 205 428 L 203 429 L 202 427 L 164 413 L 162 413 L 161 411 L 156 410 L 154 408 L 143 405 L 141 403 L 130 399 L 128 400 L 124 399 L 126 398 L 103 387 L 101 388 L 100 386 L 95 385 L 85 379 L 78 372 Q 79 365 77 363 L 62 370 L 62 393 L 63 395 L 77 400 L 81 402 L 83 401 L 83 403 L 116 416 Q 120 415 119 418 L 123 418 L 139 426 L 145 427 L 149 429 Q 153 427 152 431 L 154 430 L 154 432 L 178 441 L 180 440 L 179 442 L 188 445 Q 192 444 191 447 L 199 448 L 208 453 L 220 456 L 226 459 Q 232 457 231 461 L 235 461 L 248 466 L 263 466 L 280 460 Q 283 461 282 459 L 284 459 L 286 458 Q 287 454 289 457 L 305 450 L 304 449 L 307 448 L 309 448 L 314 445 L 317 444 Q 320 445 319 442 L 325 442 L 327 440 L 339 436 L 340 434 L 342 434 L 355 428 Q 357 429 356 427 L 358 427 L 358 426 L 360 426 L 405 406 Q 406 402 408 405 L 419 399 L 428 396 L 433 392 L 435 392 L 437 391 L 440 388 L 442 388 Q 444 389 443 386 Q 449 387 450 383 L 450 367 L 449 365 Q 445 360 437 360 Z "/>
    <path fill="#f783ac" d="M 236.5 94 L 238 94.5 L 233 98.5 L 231.5 101 L 231 99.5 L 233 96 L 236.5 94 Z "/>
    <path fill="#f783ac" d="M 245.5 95 L 249 97.5 L 246.5 96 L 245.5 95 Z "/>
    <path fill="#f783ac" d="M 230.5 102 Q 229.5 111 234.5 114 L 237 114.5 L 234.5 115 L 230 110.5 Q 231.3 105.8 229 104.5 L 230.5 102 Z "/>
    <path fill="#f783ac" d="M 248.5 109 L 249 110.5 Q 246 115.5 238.5 116 L 238.5 115 Q 246.2 114.7 248.5 109 Z "/>
  </g>
  <g id="line">
    <path fill="#1a1a1a" d="M 233.5 37 L 279.5 37 L 280.5 38 L 291.5 38 L 292.5 39 L 317.5 40 L 325.5 42 L 332.5 42 Q 338.3 43.3 341 47.5 L 342 52.5 L 328 96.5 L 325 113 L 334.5 115 L 398.5 137 L 421.5 147 L 430 154.5 L 433 160.5 L 434 173.5 L 435 174.5 L 435 186.5 L 436 187.5 L 436 322.5 L 435 323.5 L 435 349 Q 448.3 350.7 457 357 L 460 362.5 L 461 376.5 L 459 387.5 L 454.5 393 L 413.5 414 L 288.5 468 L 264.5 476 L 246.5 476 L 218.5 468 L 143.5 439 L 73.5 409 L 59.5 402 L 55 397.5 L 53 391.5 L 53 370.5 L 57.5 363 L 66.5 358 L 79 353.5 Q 80.3 348.7 78 347.5 L 78 328.5 L 77 327.5 L 76 223.5 L 77 222.5 L 77 188.5 L 78 187.5 L 78 177.5 L 79 176.5 L 80 163.5 L 82 160 L 123.5 139 L 199.5 107 L 207 102.5 L 209 91.5 L 220 59.5 L 220 56.5 L 227 41.5 L 229.5 39 L 233.5 37 Z M 232 43 L 218 85 Q 217 98 212 109 L 212 114 L 209 124 L 209 129 L 207 133 L 203 157 L 205 158 Q 213 157 218 160 L 234 161 L 240 163 L 247 163 L 262 166 L 270 166 L 278 168 L 305 171 L 306 170 L 306 162 L 308 156 L 309 144 L 320 98 L 335 53 L 334 50 L 332 49 L 314 48 L 304 46 L 294 46 L 293 45 L 278 45 L 277 44 L 263 44 L 262 43 L 232 43 Z M 202 115 L 161 132 L 159 134 L 135 143 L 133 145 L 116 151 L 107 156 L 97 159 L 90 164 L 105 171 L 116 174 L 133 182 L 136 182 L 175 198 L 178 198 L 196 206 L 243 223 L 255 229 L 262 228 L 264 226 L 276 222 L 278 220 L 354 187 L 356 185 L 361 184 L 380 174 L 396 168 L 415 158 Q 418 159 417 156 L 398 146 L 364 134 L 361 134 L 327 121 L 322 121 L 315 155 L 328 159 L 332 167 L 331 173 Q 327 177 321 179 L 300 179 L 299 178 L 263 174 L 256 172 L 248 172 L 234 169 L 225 169 L 219 167 L 206 166 L 201 164 L 195 164 L 180 161 L 173 156 L 174 147 L 178 143 L 187 139 L 200 139 L 204 118 Q 205 114 202 115 Z M 189 145 L 179 151 L 180 153 L 187 155 L 198 156 L 198 145 L 189 145 Z M 314 161 L 312 169 L 314 172 L 322 171 L 324 169 Q 327 170 325 166 L 323 163 L 314 161 Z M 424 163 L 408 172 L 368 189 L 355 196 L 285 226 L 269 232 L 262 233 L 259 236 L 260 238 L 260 257 L 261 258 L 261 283 L 260 284 L 260 424 L 261 425 L 261 433 L 315 413 L 366 390 L 376 387 Q 389 379 406 374 L 424 365 L 426 363 L 426 338 L 427 337 L 427 229 L 428 228 L 427 182 L 426 181 L 426 170 L 424 163 Z M 85 169 L 85 213 L 84 214 L 85 216 L 84 218 L 84 244 L 84 246 L 85 248 L 86 346 L 87 347 L 87 366 L 88 371 L 91 373 L 117 384 L 156 398 L 166 403 L 177 406 L 192 413 L 224 424 L 229 427 L 249 433 L 253 433 L 253 427 L 252 426 L 252 372 L 251 371 L 251 350 L 252 349 L 252 283 L 253 282 L 254 236 L 253 234 L 238 231 L 167 204 L 165 202 L 113 182 L 88 169 L 85 169 Z M 435 357 L 433 368 L 428 373 L 416 379 L 339 412 Q 315 420 295 430 L 263 441 Q 257 440 256 442 L 240 439 L 210 428 L 207 428 L 151 405 L 138 401 L 85 377 L 80 373 L 79 363 L 78 361 L 64 367 L 60 372 L 60 393 L 61 396 L 65 398 L 73 400 L 90 408 L 108 414 L 132 425 L 183 444 L 198 451 L 249 468 L 264 468 L 294 457 L 417 403 L 448 387 L 452 382 Q 454 371 451 365 L 448 361 L 435 357 Z "/>
    <path fill="#1a1a1a" d="M 303.5 77 Q 308.6 76.4 310 79.5 Q 312.7 81.8 312 87.5 L 304 100.5 L 290 118 L 285.5 121 L 277.5 121 L 271 115.5 L 266 105.5 L 265 99.5 L 269.5 93 L 274.5 93 L 279 96 L 281.5 100 L 284 98.5 Q 290.4 86.4 300.5 78 L 303.5 77 Z M 304 81 L 302 82 L 287 100 L 285 104 L 281 105 L 274 97 Q 270 96 269 100 L 269 104 L 277 117 L 280 118 L 284 117 Q 286 118 285 115 L 287 115 L 308 88 L 308 83 Q 307 80 304 81 Z "/>
    <path fill="#1a1a1a" d="M 235.5 90 Q 242.3 88.3 244 91.5 L 235.5 94 L 232 97.5 L 229 107.5 L 234.5 115 L 241.5 116 L 250 109.5 L 251 100.5 L 245 93.5 L 245 91 Q 250.4 91.7 253 96.5 Q 255.7 99.8 255 106.5 L 252 113.5 L 247.5 118 Q 244.2 121.2 236.5 120 Q 230 118.5 227 113.5 Q 223.7 109.8 225 101.5 L 230.5 93 L 235.5 90 Z "/>
  </g>
</svg>
