<svg xmlns="http://www.w3.org/2000/svg" width="512" height="512" viewBox="0 0 512 512">
  <g id="color">
    <path fill="#ffffff" d="M 322.5 42 L 341 43.5 L 332.5 44 L 331.5 43 L 322.5 43 Q 320.8 45.8 314.5 44 L 314.5 43 Q 320.8 44.8 322.5 42 Z "/>
    <path fill="#ffffff" d="M 303.5 45 L 306 45.5 L 300.5 47 L 300.5 46 L 303.5 45 Z "/>
    <path fill="#ffffff" d="M 350.5 45 L 358 46.5 L 354.5 47 L 350.5 46 L 350.5 45 Z "/>
    <path fill="#ffffff" d="M 294.5 48 L 296 48.5 L 292.5 50 L 292.5 49 L 294.5 48 Z "/>
    <path fill="#ffffff" d="M 363.5 48 L 367 49.5 L 365.5 50 L 363.5 48 Z "/>
    <path fill="#ffffff" d="M 289.5 50 L 291 50.5 L 286.5 53 L 287.5 51 L 289.5 50 Z "/>
    <path fill="#ffffff" d="M 369.5 50 L 375 52.5 L 373.5 53 L 369.5 51 L 369.5 50 Z "/>
    <path fill="#ffffff" d="M 284.5 53 L 283.5 55 L 281.5 56 L 282.5 54 L 284.5 53 Z "/>
    <path fill="#ffffff" d="M 376.5 53 L 382 55.5 L 380.5 56 L 376.5 54 L 376.5 53 Z "/>
    <path fill="#ffffff" d="M 383.5 56 L 387 58.5 L 385.5 58 L 383.5 56 Z "/>
    <path fill="#ffffff" d="M 388.5 59 L 392 61.5 L 389.5 60 L 388.5 59 Z "/>
    <path fill="#ffffff" d="M 397.5 65 L 415 81.5 L 401.5 69 L 397.5 65 Z "/>
    <path fill="#ffffff" d="M 262.5 74 L 260 77.5 L 253.5 86 L 256 82.5 L 262.5 74 Z "/>
    <path fill="#ffffff" d="M 418.5 87 L 421 90.5 L 419 89.5 L 418.5 87 Z "/>
    <path fill="#ffffff" d="M 421.5 92 L 424 95.5 L 422 94.5 L 421.5 92 Z "/>
    <path fill="#ffffff" d="M 424.5 97 L 429 105.5 L 428 105.5 L 424.5 97 Z "/>
    <path fill="#ffffff" d="M 237.5 107 L 235 110.5 L 230.5 116 L 233 112.5 L 237.5 107 Z "/>
    <path fill="#ffffff" d="M 430.5 110 L 432 115.5 L 431 115.5 L 430.5 110 Z "/>
    <path fill="#ffffff" d="M 226.5 121 L 224 124.5 L 216.5 134 L 219 130.5 L 226.5 121 Z "/>
    <path fill="#ffffff" d="M 433.5 121 L 435 132.5 L 434 132.5 L 433.5 121 Z "/>
    <path fill="#ffffff" d="M 212.5 139 L 209 143.5 L 205.5 148 L 208 144.5 L 212.5 139 Z "/>
    <path fill="#ffffff" d="M 277.5 141 L 281.5 141 L 291.5 146 Q 312.8 160.7 331 178.5 L 332 185.5 L 326.5 193 L 317.5 198 L 303.5 202 L 278.5 203 L 277.5 202 L 268.5 202 L 253.5 199 L 238.5 195 L 235 192.5 Q 251.7 166.2 272.5 144 L 277.5 141 Z "/>
    <path fill="#ffffff" d="M 434.5 142 L 435 148.5 L 433.5 154 L 433 149.5 L 434.5 142 Z "/>
    <path fill="#ffffff" d="M 198.5 157 L 195 161.5 L 191.5 166 L 194 162.5 L 198.5 157 Z "/>
    <path fill="#ffffff" d="M 431.5 160 L 432 162.5 L 430.5 166 L 430 163.5 L 431.5 160 Z "/>
    <path fill="#ffffff" d="M 428.5 170 L 429 171.5 L 427.5 174 L 427 172.5 L 428.5 170 Z "/>
    <path fill="#ffffff" d="M 186.5 172 L 184 175.5 L 177.5 184 L 180 180.5 L 186.5 172 Z "/>
    <path fill="#ffffff" d="M 426.5 175 L 427 176.5 L 421.5 186 L 422 184.5 L 426.5 175 Z "/>
    <path fill="#ffffff" d="M 212.5 192 L 238.5 202 L 262.5 208 L 276.5 209 L 277.5 210 L 296.5 210 L 303.5 208 L 304 209.5 L 280.5 222 L 247.5 235 L 244.5 235 L 218.5 244 L 214.5 244 L 198.5 249 L 184.5 251 L 183 249.5 L 186 246.5 L 199 224.5 L 212.5 192 Z "/>
    <path fill="#ffffff" d="M 169.5 194 L 167 197.5 L 159.5 207 L 162 203.5 L 169.5 194 Z "/>
    <path fill="#ffffff" d="M 415.5 196 L 415 197.5 L 412.5 201 L 414 198.5 L 415.5 196 Z "/>
    <path fill="#ffffff" d="M 155.5 212 L 153 215.5 L 149.5 220 L 152 216.5 L 155.5 212 Z "/>
    <path fill="#ffffff" d="M 312.5 213 L 313 215.5 L 297.5 234 L 289.5 234 L 281.5 236 L 272 242.5 Q 269.3 244.8 270 250.5 L 275.5 257 Q 278.1 256.2 277 259.5 L 269.5 269 L 261.5 268 L 258 270.5 L 257 279.5 L 258 283.5 L 208.5 345 Q 206.3 344.3 207 346.5 L 199.5 351 L 195.5 351 L 184.5 345 L 162 328 Q 163.1 325.3 160.5 326 L 150.5 316 L 149 316 L 146 311.5 L 146 305.5 L 152 293.5 L 179.5 258 Q 200.4 256.9 216.5 251 L 218 253.5 L 210 268.5 L 204 286.5 Q 204.8 288.8 208.5 288 L 231.5 270 L 247.5 264 L 252 259.5 L 258 242.5 L 263.5 236 Q 290.5 227 312.5 213 Z "/>
    <path fill="#ffffff" d="M 400.5 217 L 398 220.5 L 390.5 230 L 393 226.5 L 400.5 217 Z "/>
    <path fill="#ffffff" d="M 389.5 231 L 387 234.5 L 382.5 240 L 386 235.5 L 389.5 231 Z "/>
    <path fill="#ffffff" d="M 138.5 234 L 136 237.5 L 131.5 243 L 135 238.5 L 138.5 234 Z "/>
    <path fill="#ffffff" d="M 380.5 242 L 378 245.5 L 377.5 247 L 377 245.5 L 380.5 242 Z "/>
    <path fill="#ffffff" d="M 127.5 248 L 125 251.5 L 118.5 260 L 121 256.5 L 127.5 248 Z "/>
    <path fill="#ffffff" d="M 372.5 252 L 369 256.5 Q 367.9 259.8 370.5 259 L 371.5 261 L 368 258.5 L 368 256.5 L 372.5 252 Z "/>
    <path fill="#ffffff" d="M 116.5 262 L 114 265.5 L 106.5 275 L 109 271.5 L 116.5 262 Z "/>
    <path fill="#ffffff" d="M 376.5 263 L 381 266.5 L 379.5 266 L 376.5 263 Z "/>
    <path fill="#ffffff" d="M 385.5 269 L 403 282.5 L 399.5 280 L 386.5 271 L 385.5 269 Z "/>
    <path fill="#ffffff" d="M 105.5 276 L 103 279.5 L 95.5 289 L 98 285.5 L 105.5 276 Z "/>
    <path fill="#ffffff" d="M 343.5 287 L 345.5 287 L 353.5 293 L 389 326.5 Q 389.8 329.1 386.5 328 L 329 306 L 343.5 287 Z "/>
    <path fill="#ffffff" d="M 93.5 291 L 90 295.5 L 86.5 300 L 89 296.5 L 93.5 291 Z "/>
    <path fill="#ffffff" d="M 80.5 307 L 76 312.5 L 66.5 324 L 70 319.5 L 80.5 307 Z "/>
    <path fill="#ffffff" d="M 65.5 325 L 62 329.5 L 58.5 334 L 61 330.5 L 65.5 325 Z "/>
    <path fill="#ffffff" d="M 307.5 331 L 317 336.5 L 315.5 336 L 307.5 332 L 303 335.5 L 307.5 331 Z "/>
    <path fill="#ffffff" d="M 318.5 337 L 322 339.5 L 320.5 339 L 318.5 337 Z "/>
    <path fill="#ffffff" d="M 323.5 340 L 327 342.5 L 325.5 342 L 323.5 340 Z "/>
    <path fill="#ffffff" d="M 466.5 344 L 469 347.5 L 467 346.5 L 466.5 344 Z "/>
    <path fill="#ffffff" d="M 47.5 349 L 47 350.5 L 45.5 353 L 46 351.5 L 47.5 349 Z "/>
    <path fill="#ffffff" d="M 469.5 349 L 472 352.5 L 470 351.5 L 469.5 349 Z "/>
    <path fill="#ffffff" d="M 350.5 354 L 355 356.5 L 353.5 356 Q 349.8 355.8 350.5 354 Z "/>
    <path fill="#ffffff" d="M 472.5 354 L 475 359.5 L 474 359.5 L 472.5 354 Z "/>
    <path fill="#ffffff" d="M 43.5 356 L 43 357.5 L 41.5 361 L 41 359.5 L 43.5 356 Z "/>
    <path fill="#ffffff" d="M 285.5 357 L 280 363.5 L 279.5 365 L 279 363.5 L 285.5 357 Z "/>
    <path fill="#ffffff" d="M 356.5 357 L 360 358.5 L 358.5 359 L 356.5 357 Z "/>
    <path fill="#ffffff" d="M 363.5 360 L 367 361.5 L 365.5 362 L 363.5 360 Z "/>
    <path fill="#ffffff" d="M 40.5 362 L 41 363.5 L 38.5 370 L 38 367.5 L 40.5 362 Z "/>
    <path fill="#ffffff" d="M 475.5 362 L 476 373.5 L 475 373.5 L 475.5 362 Z "/>
    <path fill="#ffffff" d="M 370.5 363 L 375 364.5 L 373.5 365 L 370.5 364 L 370.5 363 Z "/>
    <path fill="#ffffff" d="M 376.5 365 L 380 366.5 L 378.5 367 L 376.5 365 Z "/>
    <path fill="#ffffff" d="M 384.5 368 L 388 369.5 L 386.5 370 L 384.5 368 Z "/>
    <path fill="#ffffff" d="M 37.5 371 L 38 377.5 L 37 380.5 Q 39.8 382.3 38 388.5 L 37 388.5 L 36 378.5 L 37.5 371 Z "/>
    <path fill="#ffffff" d="M 392.5 371 L 397 372.5 L 394.5 373 L 392.5 371 Z "/>
    <path fill="#ffffff" d="M 402.5 374 L 407 375.5 L 404.5 376 L 402.5 374 Z "/>
    <path fill="#ffffff" d="M 412.5 377 L 417 378.5 L 415.5 379 L 412.5 378 L 412.5 377 Z "/>
    <path fill="#ffffff" d="M 419.5 379 L 429 381.5 L 426.5 382 L 419.5 380 L 419.5 379 Z "/>
    <path fill="#ffffff" d="M 470.5 380 L 467.5 384 L 463.5 385 L 463.5 384 Q 468.7 383.7 470.5 380 Z "/>
    <path fill="#ffffff" d="M 431.5 382 L 440 383.5 L 435.5 384 L 431.5 383 L 431.5 382 Z "/>
    <path fill="#ffffff" d="M 449.5 385 L 461 385.5 L 449.5 386 L 449.5 385 Z "/>
    <path fill="#ffffff" d="M 39.5 396 L 41 400.5 L 40 400.5 L 39.5 396 Z "/>
    <path fill="#ffffff" d="M 41.5 402 L 44 407.5 L 43 407.5 L 41.5 402 Z "/>
    <path fill="#ffffff" d="M 44.5 409 L 50 418.5 L 48 417.5 L 44.5 409 Z "/>
    <path fill="#ffffff" d="M 55.5 427 L 71 443.5 L 59 432.5 L 55.5 427 Z "/>
    <path fill="#ffffff" d="M 73.5 445 L 83 452.5 L 80.5 451 Q 75 449.2 73.5 445 Z "/>
    <path fill="#ffffff" d="M 192.5 450 L 189.5 454 L 187.5 455 L 188.5 453 L 192.5 450 Z "/>
    <path fill="#ffffff" d="M 84.5 453 L 92 457.5 L 90.5 457 Q 84.9 456.2 84.5 453 Z "/>
    <path fill="#ffffff" d="M 185.5 455 L 183.5 458 L 178.5 461 L 179.5 459 L 185.5 455 Z "/>
    <path fill="#ffffff" d="M 93.5 458 L 99 460.5 L 97.5 461 L 93.5 459 L 93.5 458 Z "/>
    <path fill="#ffffff" d="M 100.5 461 L 104 462.5 L 102.5 463 L 100.5 461 Z "/>
    <path fill="#ffffff" d="M 108.5 464 L 114 465.5 L 111.5 466 L 108.5 465 L 108.5 464 Z "/>
    <path fill="#ffffff" d="M 169.5 464 L 171 464.5 L 167.5 466 L 167.5 465 L 169.5 464 Z "/>
    <path fill="#ffffff" d="M 120.5 467 L 129 468.5 L 124.5 469 L 120.5 468 L 120.5 467 Z "/>
    <path fill="#ffffff" d="M 160.5 467 L 163 467.5 L 156.5 469 L 156.5 468 L 160.5 467 Z "/>
    <path fill="#ffffff" d="M 131.5 469 L 138 469.5 L 131.5 470 L 131.5 469 Z "/>
    <path fill="#ffffff" d="M 147.5 469 L 154 469.5 L 147.5 470 L 147.5 469 Z "/>
    <path fill="#ff6b6b" d="M 250.5 242 L 251 245.5 L 250 247.5 L 251 249.5 L 249 249.5 L 250 252.5 L 248 253.5 L 249 255.5 L 244.5 261 L 240.5 262 L 239 261.5 Q 239.9 264.9 234.5 263 L 232.5 264 L 231 263.5 L 229.5 266 L 228 265.5 L 226.5 268 Q 224.8 265.3 223 269.5 L 223.5 271 L 216.5 276 Q 213.3 274.1 215 268 L 217 267.5 L 217 265.5 L 218.5 262 Q 219.8 264.3 221 261.5 L 220 258.5 L 222 258.5 L 221 256.5 L 223 256.5 L 222 253.5 L 223.5 251 Q 225 253.5 226.5 250 L 228 249.5 L 226 248.5 L 228.5 248 L 231 249 Q 229.9 246.3 232.5 247 L 235.5 246 L 237.5 246 L 250.5 242 Z "/>
    <path fill="#ffa94d" d="M 319.5 50 L 344.5 51 L 372.5 59 L 387.5 67 L 407 84.5 L 420 103.5 L 426 119.5 Q 424.8 124.2 427 125.5 L 427 148.5 L 424 162.5 L 415 184 Q 412 182.8 413 186.5 L 395 213 Q 392.3 211.9 393 214.5 L 389 221 Q 386.3 219.9 387 222.5 L 360.5 254 L 328.5 239 L 321.5 238 L 318.5 236 L 309 235 L 309 231.5 L 325 211.5 L 331 201 Q 334 202.3 333 198.5 L 339 187.5 L 339 179.5 L 331 167 L 326.5 165 L 295.5 140 Q 288.7 134.7 277.5 134 L 273 135 Q 274.3 138 270.5 137 L 262 144.5 L 249 160.5 L 248 164 Q 245.3 162.9 246 165.5 L 243 170 Q 240.3 168.9 241 171.5 L 226.5 190 L 215.5 185 L 209.5 184 L 207 185 L 196 214.5 Q 188.9 230.9 178.5 244 L 177 244.5 L 178 245.5 L 174 249.5 L 173 254.5 Q 156 274 142 296.5 L 140 300.5 L 139 311.5 L 146 323 L 149 324.5 Q 148.3 326.8 150.5 326 L 172.5 345 L 185.5 354 L 191.5 357 L 200.5 358 L 213 351 Q 211.9 348.3 214.5 349 L 216 346 Q 218.7 347.1 218 344.5 Q 228.7 334 236 321 Q 238.7 322.1 238 319.5 L 261.5 291 Q 264.8 289.9 264 292.5 Q 272 305 283.5 314 L 300 326.5 L 300 328.5 L 280 353 L 277 354.5 L 274 360 L 272 360 L 272 362 Q 269.3 360.9 270 363.5 L 249 386.5 L 249 388 L 247 388 L 247 390 Q 244.3 388.9 245 391.5 L 200.5 435 L 184.5 448 L 179 450 Q 180.1 452.7 177.5 452 Q 163.1 464.1 135.5 463 L 111.5 458 L 92.5 450 Q 75.4 440.1 63 425.5 Q 53.1 413.4 47 397.5 L 45 390.5 L 44 376.5 Q 46.3 375.2 45 370.5 L 51 357.5 L 68 333 Q 70.7 334.1 70 331.5 L 76.5 323 Q 78.8 323.8 78 321.5 L 79 319 Q 81.7 320.1 81 317.5 L 99 295 Q 101.7 296.1 101 293.5 L 166.5 210 Q 168.8 210.8 168 208.5 L 183 188 L 185 188 L 185 185 Q 187.7 186.1 187 183.5 L 241 115.5 L 259 90 Q 261.7 91.1 261 88.5 L 273.5 72 Q 275.8 72.8 275 70.5 Q 283.1 61.6 294.5 56 L 310.5 51 L 318.5 51 L 319.5 50 Z "/>
    <path fill="#ffa94d" d="M 283.5 263 L 296.5 269 L 306.5 269 L 315.5 265 Q 328.3 271.2 338 280.5 L 336 286 Q 333.3 284.9 334 287.5 L 321.5 302 L 300.5 294 L 294 288.5 Q 293.8 280.2 288.5 277 L 280.5 274 L 277 270.5 L 283.5 263 Z "/>
    <path fill="#9775fa" d="M 292.5 240 L 308.5 241 L 324.5 245 L 355.5 259 Q 408.8 289.7 449 333.5 L 465 354.5 Q 469.4 360.1 469 370.5 L 464.5 377 L 455.5 378 L 443.5 372 L 422 352.5 L 386.5 314 L 383.5 312 Q 363.4 290.6 339.5 273 L 322.5 261 L 313.5 258 L 299.5 263 L 277 249.5 L 278 245 L 292.5 240 Z "/>
    <path fill="#9775fa" d="M 264 275 Q 277.3 277 286 284.5 Q 286.9 292.1 291.5 296 L 299.5 301 Q 313.5 305 324.5 312 L 337.5 316 L 344.5 320 L 368.5 329 L 399.5 338 L 404 341.5 L 406 344.5 L 412 352 Q 414.7 350.9 414 353.5 L 418 356.5 L 431.5 371 L 434 372.5 L 432.5 375 Q 336.2 353.3 275 296.5 Q 266.2 288.6 264 275 Z "/>
    <path fill="#f783ac" d="M 250.5 240 L 254 241.5 L 250.5 248 L 250 246.5 L 251 242.5 L 249.5 243 L 236.5 247 L 235.5 245 L 239.5 245 L 245.5 242 L 248.5 242 L 250.5 240 Z "/>
    <path fill="#f783ac" d="M 225.5 249 L 228 249.5 L 224.5 252 L 224 250.5 L 225.5 249 Z "/>
    <path fill="#f783ac" d="M 223.5 253 L 224 254.5 L 219.5 263 L 219 261.5 L 223.5 253 Z "/>
    <path fill="#f783ac" d="M 225.5 267 L 226 269 L 223.5 270 L 225.5 267 Z "/>
    <path fill="#f783ac" d="M 214.5 271 L 216 276.5 L 212.5 279 L 212 276.5 Q 214.8 275.3 214.5 271 Z "/>
  </g>
  <g id="line">
    <path fill="#1a1a1a" d="M 322.5 43 L 343.5 44 L 368.5 50 L 382.5 56 L 395.5 64 L 415 82.5 L 429 106.5 L 433 120.5 L 435 141.5 L 430 166.5 L 418 192.5 Q 395.1 226.6 368 256.5 L 368 258.5 L 407.5 286 L 436.5 312 L 438 312 Q 436.9 314.7 439.5 314 L 441 317 L 444 318.5 Q 443.3 320.8 445.5 320 L 447 323 Q 449.7 321.9 449 324.5 Q 462.9 336.6 472 353.5 L 475 360.5 L 475 374.5 L 472 380 L 462.5 385 L 445.5 385 L 417.5 379 L 414.5 377 L 397.5 373 L 385.5 368 L 382.5 368 L 372.5 363 L 369.5 363 L 327.5 343 L 307.5 331 Q 262.9 386.4 211.5 435 Q 193.9 451.9 171.5 464 L 155.5 469 L 138.5 470 L 137.5 469 L 129.5 469 L 114.5 466 L 92.5 458 Q 73.2 448.3 60 432.5 Q 48 419.5 41 401.5 L 38 390.5 L 37 378.5 Q 39.8 376.8 38 370.5 L 41 361.5 L 55 338.5 L 122 256.5 L 269 66 Q 271.7 67.1 271 64.5 L 274 63 Q 272.9 60.3 275.5 61 L 280.5 56 L 296.5 48 L 311.5 44 L 321.5 44 L 322.5 43 Z M 319 50 L 300 54 Q 288 58 281 65 L 261 88 L 230 130 L 185 186 L 120 271 L 60 344 L 47 365 L 44 376 L 44 385 L 48 401 L 51 408 L 63 426 Q 74 440 91 449 L 108 457 L 135 463 L 157 462 L 176 454 Q 198 439 217 420 Q 219 421 218 418 L 221 417 Q 220 414 223 415 L 229 408 L 232 406 L 232 405 L 252 385 L 294 337 L 300 329 L 300 327 L 282 312 L 264 293 Q 265 290 262 291 L 231 328 L 222 341 L 209 354 L 201 358 L 192 357 L 185 353 L 155 330 Q 144 323 139 311 L 140 302 L 146 291 L 171 258 L 174 251 L 187 233 Q 200 211 207 185 L 210 184 L 227 190 L 258 150 Q 265 138 279 134 L 288 136 L 300 143 L 328 165 Q 335 171 339 181 L 339 187 L 337 193 L 308 234 L 310 235 L 318 236 L 334 241 L 361 254 Q 389 224 412 189 Q 423 172 427 150 L 427 125 L 426 120 Q 421 100 409 87 Q 395 69 373 59 L 346 51 L 319 50 Z M 278 141 L 273 144 Q 252 166 235 193 L 239 195 L 254 199 L 269 202 L 278 202 L 279 203 L 304 202 L 318 198 L 327 193 L 332 186 L 331 179 Q 313 161 292 146 L 282 141 L 278 141 Z M 213 192 L 199 225 L 186 247 L 183 250 L 185 251 L 199 249 L 215 244 L 219 244 L 245 235 L 248 235 L 281 222 L 304 210 L 304 208 L 297 210 L 278 210 L 277 209 L 263 208 L 239 202 L 213 192 Z M 313 213 Q 290 227 264 236 L 258 243 L 252 260 L 248 264 L 232 270 L 209 288 Q 205 289 204 287 L 210 269 L 218 254 L 217 251 Q 200 257 180 258 L 152 294 L 146 306 L 146 312 L 149 316 L 151 316 L 161 326 Q 163 325 162 328 L 185 345 L 196 351 L 200 351 L 207 347 Q 206 344 209 345 L 258 284 L 257 280 L 258 271 L 262 268 L 270 269 L 277 260 Q 278 256 276 257 L 270 251 Q 269 245 272 243 L 282 236 L 290 234 L 298 234 L 313 216 L 313 213 Z M 251 240 L 243 244 L 236 245 L 224 249 L 212 277 L 213 279 L 223 271 Q 225 272 224 269 L 232 264 L 245 261 L 249 256 L 254 242 L 251 240 Z M 293 240 L 278 245 L 277 250 L 300 263 L 314 258 L 323 261 L 340 273 Q 363 291 384 312 L 387 314 L 422 353 L 444 372 L 456 378 L 465 377 L 469 371 Q 469 360 465 355 L 449 334 Q 409 290 356 259 L 325 245 L 309 241 L 293 240 Z M 284 263 L 277 272 L 289 277 L 292 281 L 295 291 L 314 300 L 323 302 L 337 285 L 338 281 Q 328 271 316 265 L 313 265 L 306 269 L 298 269 L 284 263 Z M 264 275 Q 266 289 275 297 Q 336 353 432 375 L 436 375 L 432 371 L 418 357 L 414 354 Q 415 351 412 352 L 406 345 L 404 342 L 400 338 L 369 329 L 345 320 L 338 316 L 325 312 Q 314 305 300 301 L 292 296 Q 287 292 286 285 Q 277 277 264 275 Z M 344 287 L 329 306 L 387 328 Q 390 329 389 327 L 354 293 L 346 287 L 344 287 Z "/>
  </g>
</svg>
