<svg xmlns="http://www.w3.org/2000/svg" width="512" height="512" viewBox="0 0 512 512">
  <g id="color">
    <path fill="#ffffff" d="M 246.5 45 L 248 45.5 L 244.5 47 L 244.5 46 L 246.5 45 Z "/>
    <path fill="#ffffff" d="M 265.5 45 L 269 46.5 L 267.5 47 L 265.5 45 Z "/>
    <path fill="#ffffff" d="M 219.5 58 L 218.5 60 L 216.5 61 L 217.5 59 L 219.5 58 Z "/>
    <path fill="#ffffff" d="M 293.5 58 L 297 60.5 L 295.5 60 L 293.5 58 Z "/>
    <path fill="#ffffff" d="M 210.5 63 L 209.5 65 L 207.5 66 L 208.5 64 L 210.5 63 Z "/>
    <path fill="#ffffff" d="M 308.5 66 L 312 68.5 L 310.5 68 L 308.5 66 Z "/>
    <path fill="#ffffff" d="M 195.5 71 L 194.5 73 L 192.5 74 L 193.5 72 L 195.5 71 Z "/>
    <path fill="#ffffff" d="M 317.5 71 L 321 73.5 L 319.5 73 L 317.5 71 Z "/>
    <path fill="#ffffff" d="M 326.5 76 L 330 78.5 L 328.5 78 L 326.5 76 Z "/>
    <path fill="#ffffff" d="M 179.5 80 L 178.5 82 L 176.5 83 L 177.5 81 L 179.5 80 Z "/>
    <path fill="#ffffff" d="M 333.5 80 L 337 82.5 L 335.5 82 L 333.5 80 Z "/>
    <path fill="#ffffff" d="M 170.5 85 L 169.5 87 L 167.5 88 L 168.5 86 L 170.5 85 Z "/>
    <path fill="#ffffff" d="M 342.5 85 L 346 87.5 L 344.5 87 L 342.5 85 Z "/>
    <path fill="#ffffff" d="M 163.5 89 L 162.5 91 L 160.5 92 L 161.5 90 L 163.5 89 Z "/>
    <path fill="#ffffff" d="M 349.5 89 L 353 91.5 L 351.5 91 L 349.5 89 Z "/>
    <path fill="#ffffff" d="M 358.5 94 L 362 96.5 L 360.5 96 L 358.5 94 Z "/>
    <path fill="#ffffff" d="M 140.5 102 L 139.5 104 L 137.5 105 L 138.5 103 L 140.5 102 Z "/>
    <path fill="#ffffff" d="M 133.5 106 L 132.5 108 L 130.5 109 L 131.5 107 L 133.5 106 Z "/>
    <path fill="#ffffff" d="M 124.5 111 L 123.5 113 L 121.5 114 L 122.5 112 L 124.5 111 Z "/>
    <path fill="#ffffff" d="M 402.5 119 L 406 121.5 L 404.5 121 L 402.5 119 Z "/>
    <path fill="#ffffff" d="M 409.5 123 L 413 125.5 L 411.5 125 L 409.5 123 Z "/>
    <path fill="#ffffff" d="M 96.5 127 L 95.5 129 L 93.5 130 L 94.5 128 L 96.5 127 Z "/>
    <path fill="#ffffff" d="M 416.5 127 L 420 129.5 L 418.5 129 L 416.5 127 Z "/>
    <path fill="#ffffff" d="M 81.5 136 L 80.5 138 L 78.5 139 L 79.5 137 L 81.5 136 Z "/>
    <path fill="#ffffff" d="M 438.5 140 L 442 142.5 L 440.5 142 L 438.5 140 Z "/>
    <path fill="#ffffff" d="M 51.5 154 L 48 158.5 L 46.5 162 L 46 160.5 L 51.5 154 Z "/>
    <path fill="#ffffff" d="M 465.5 187 L 465 188.5 L 461.5 193 L 464 189.5 L 465.5 187 Z "/>
    <path fill="#ffffff" d="M 53.5 193 L 61 194.5 L 56.5 195 L 53.5 194 L 53.5 193 Z "/>
    <path fill="#ffffff" d="M 449.5 194 L 457 194.5 L 449.5 195 L 449.5 194 Z "/>
    <path fill="#ffffff" d="M 68.5 195 Q 73 194 74 196.5 L 73.5 199 L 73 196 L 68.5 196 L 68.5 195 Z "/>
    <path fill="#ffffff" d="M 73.5 203 L 74 207.5 L 73 207.5 L 73.5 203 Z "/>
    <path fill="#ffffff" d="M 439.5 205 L 440 208.5 L 438.5 211 L 438 209.5 L 439.5 205 Z "/>
    <path fill="#ffffff" d="M 86.5 219 L 87 236.5 L 86 236.5 L 86.5 219 Z "/>
    <path fill="#ffffff" d="M 426.5 219 L 427 240.5 L 426 240.5 L 426.5 219 Z "/>
    <path fill="#ffffff" d="M 85.5 250 L 86 266.5 L 85 266.5 L 85.5 250 Z "/>
    <path fill="#ffffff" d="M 427.5 252 L 428 273.5 L 427 273.5 L 427.5 252 Z "/>
    <path fill="#ffffff" d="M 84.5 288 L 85 315.5 L 84 315.5 L 84.5 288 Z "/>
    <path fill="#ffffff" d="M 428.5 292 L 429 316.5 L 428 316.5 L 428.5 292 Z "/>
    <path fill="#ffffff" d="M 429.5 338 L 430 355.5 L 429 355.5 L 429.5 338 Z "/>
    <path fill="#ffffff" d="M 83.5 340 L 84 349.5 L 83 349.5 L 83.5 340 Z "/>
    <path fill="#ffffff" d="M 84.5 368 L 85 372.5 L 83 373.5 L 84.5 368 Z "/>
    <path fill="#ffffff" d="M 436.5 378 Q 440.9 381.1 440 389.5 L 439 389.5 L 439 384.5 L 436.5 378 Z "/>
    <path fill="#ffffff" d="M 73.5 384 L 74 395.5 L 73 395.5 L 73.5 384 Z "/>
    <path fill="#ffffff" d="M 66.5 397 L 68 397.5 L 62 401.5 L 60.5 405 L 60 403.5 L 64.5 398 L 66.5 397 Z "/>
    <path fill="#ffffff" d="M 454.5 413 L 455 421.5 L 454 421.5 L 454.5 413 Z "/>
    <path fill="#ffffff" d="M 58.5 414 L 59 418.5 L 58 418.5 L 58.5 414 Z "/>
    <path fill="#ffffff" d="M 454.5 423 L 463 424.5 L 455.5 425 L 454.5 423 Z "/>
    <path fill="#ffffff" d="M 35.5 442 L 36 446.5 L 35 446.5 L 35.5 442 Z "/>
    <path fill="#ffffff" d="M 476.5 452 L 477 456.5 L 476 456.5 L 476.5 452 Z "/>
    <path fill="#ffffff" d="M 38.5 461 L 42 465.5 L 38 462.5 L 38.5 461 Z "/>
    <path fill="#ffffff" d="M 48.5 467 L 55 467.5 L 48.5 468 L 48.5 467 Z "/>
    <path fill="#ffffff" d="M 434.5 467 L 462 467.5 L 434.5 468 L 434.5 467 Z "/>
    <path fill="#ffffff" d="M 57.5 468 L 116 468.5 L 57.5 469 L 57.5 468 Z "/>
    <path fill="#ffffff" d="M 380.5 468 L 423 468.5 L 380.5 469 L 380.5 468 Z "/>
    <path fill="#ffffff" d="M 137.5 469 L 166 469.5 L 137.5 470 L 137.5 469 Z "/>
    <path fill="#ffffff" d="M 280.5 469 L 334 469.5 L 280.5 470 L 280.5 469 Z "/>
    <path fill="#4da3ff" d="M 252.5 53 L 258.5 53 L 270.5 57 L 294 69 Q 292.9 71.7 295.5 71 L 303.5 74 L 306.5 77 L 328.5 88 L 336.5 94 L 351.5 101 L 409 134.5 Q 408.2 137.1 411.5 136 L 456 161 Q 460.6 166.1 459 178.5 L 458 182.5 L 455.5 185 L 445.5 185 L 444.5 186 L 283.5 187 L 282.5 188 L 127.5 188 L 126.5 187 L 67.5 187 L 56 185 L 54 177.5 L 54 165.5 L 57.5 161 L 92.5 140 L 100.5 137 L 113.5 128 L 123.5 124 L 126.5 121 L 146.5 109 L 152.5 107 L 162.5 100 L 177.5 93 L 182.5 89 L 197.5 82 L 226.5 65 L 252.5 53 Z M 251 73 L 241 77 L 200 101 L 192 104 L 180 112 L 146 130 Q 143 129 144 132 L 132 138 L 115 149 L 109 157 L 110 163 L 116 167 L 127 168 L 128 169 L 214 169 L 215 168 L 287 168 L 288 167 L 391 167 L 402 164 L 404 161 L 403 154 L 395 146 L 382 138 L 369 132 L 342 116 L 336 114 L 265 74 Q 259 72 251 73 Z "/>
    <path fill="#4da3ff" d="M 294.5 197 Q 300.8 195.3 302.5 198 L 303.5 197 L 369 197 Q 366.6 211.6 374.5 217 L 382 220 L 381 291.5 L 380 292.5 L 380 327.5 L 379 330.5 L 379 332.5 L 379 357.5 L 380 360.5 L 379 365.5 Q 381.5 367 380 372.5 L 371 379.5 L 369 383.5 L 368 393.5 L 366.5 395 L 348 395 L 348 371.5 L 349 370.5 L 349 335.5 L 348 334.5 L 347 314.5 L 342 295.5 Q 337.3 283.3 327.5 276 L 318.5 271 L 307.5 269 L 297.5 269 Q 277.3 272.3 268 286.5 L 262 295.5 L 256 319.5 L 256 329.5 L 255 330.5 L 255 370.5 L 256 371.5 L 256 388.5 L 257 389.5 L 257 391.5 Q 257.8 395.3 255.5 396 L 174.5 396 L 173.5 395 L 145 395 L 144 383.5 L 140 376 L 134 374 L 133 371.5 L 133 356.5 L 134 354.5 L 133 351.5 L 134 350.5 L 134 330.5 L 133 329.5 L 131 220.5 L 141 214.5 Q 145.8 209.1 144 198 L 293.5 198 L 294.5 197 Z M 185 232 L 184 233 L 169 234 L 166 236 L 160 243 L 159 259 L 158 260 L 158 281 Q 161 282 159 289 L 162 296 L 168 300 L 176 302 L 204 302 L 205 301 L 214 301 L 220 299 L 225 292 Q 227 287 226 279 L 227 278 L 226 248 L 222 239 L 213 233 L 185 232 Z "/>
    <path fill="#4da3ff" d="M 97.5 221 L 121 221 L 121 259.5 L 122 260.5 L 122 284.5 L 123 287.5 Q 120.8 288.7 122 293.5 L 123 294.5 L 123 320.5 L 124 321.5 L 124 351.5 L 123 352.5 L 123 371 L 93 371 L 93 302.5 L 94 301.5 L 94 270.5 L 95 269.5 L 96 222.5 L 97.5 221 Z "/>
    <path fill="#4da3ff" d="M 394 221 L 416.5 221 L 417 224.5 L 418 225.5 L 419 306.5 L 420 307.5 L 420 371 L 393.5 371 L 391.5 372 L 390 370.5 L 390 345.5 L 389 344.5 L 389 336.5 L 390 335.5 L 390 296.5 L 391 295.5 L 391 267.5 L 392 266.5 L 392.5 222 L 394 222.5 L 394 221 Z "/>
    <path fill="#4da3ff" d="M 96.5 381 L 130.5 382 L 134 385.5 L 135 394 L 131.5 395 L 83.5 395 L 82 391.5 L 83 384.5 L 84.5 383 Q 88 380.5 95.5 382 L 96.5 381 Z "/>
    <path fill="#4da3ff" d="M 400.5 381 L 417.5 381 L 429 383 L 431 393.5 L 391.5 394 L 390.5 395 L 389.5 394 L 378 394 L 379 385.5 L 382.5 382 L 399.5 382 L 400.5 381 Z "/>
    <path fill="#4da3ff" d="M 73.5 404 L 108.5 404 L 110.5 405 L 112.5 404 L 113.5 405 L 172.5 405 L 173.5 406 L 284.5 406 L 287.5 405 L 395.5 405 L 396.5 404 L 430.5 404 L 431.5 405 L 440.5 405 L 444 407.5 L 445 410.5 L 445 423 L 314.5 423 L 311.5 424 L 309.5 424 L 227.5 424 Q 226.3 426.3 221.5 425 L 220.5 424 L 205.5 424 L 202.5 425 L 200.5 424 L 199.5 425 L 142.5 425 Q 141 422.5 135.5 424 L 132.5 425 L 131.5 424 L 68 424 L 68 409.5 L 70 405 L 73.5 404 Z "/>
    <path fill="#4da3ff" d="M 50.5 433 L 162.5 434 L 163.5 435 L 172.5 435 L 173.5 434 L 183.5 434 L 186.5 435 L 188.5 434 L 314.5 434 L 315.5 433 L 316.5 434 L 340.5 434 L 341.5 433 L 451.5 433 L 452.5 434 L 463.5 434 L 467 436.5 L 468 438.5 L 468 451.5 L 467 457 L 464.5 458 L 434.5 458 L 433.5 459 L 275.5 460 L 274.5 461 L 162.5 461 L 161.5 460 L 125.5 460 L 124.5 459 L 56.5 459 Q 54.8 456.3 48.5 458 L 46 455.5 Q 43.6 448.4 45 437.5 L 47.5 434 L 50.5 433 Z "/>
    <path fill="#ffd43b" d="M 173.5 241 L 206.5 241 L 211.5 242 L 216 245.5 L 218 255.5 L 218 278.5 Q 215.2 280.3 217 286.5 L 215 292 L 204.5 292 L 203.5 293 L 174.5 293 L 169 291 L 167 283.5 L 167 246.5 L 168 243 L 173.5 241 Z "/>
    <path fill="#ffd43b" d="M 296.5 278 Q 307.4 276.6 314.5 279 Q 323.2 281.8 328 288.5 L 335 301.5 L 338 315.5 L 338 322.5 L 340 331.5 L 340 376.5 L 339 377.5 L 339 396 L 265 397 L 265 385.5 L 264 384.5 L 264 327.5 L 269 302.5 Q 273.4 290.9 282.5 284 L 296.5 278 Z M 319 335 L 317 336 L 312 344 Q 311 350 315 352 L 313 357 Q 312 363 314 365 L 317 366 L 329 366 L 333 360 L 331 354 L 332 341 Q 330 333 319 335 Z "/>
    <path fill="#ffd43b" d="M 321.5 341 L 325 342.5 L 324 355.5 L 325 359 L 320 359 L 320 356.5 L 322 350.5 L 319 346.5 L 319 343.5 L 321.5 341 Z "/>
    <path fill="#66d9e8" d="M 251.5 52 L 260.5 52 L 287.5 64 L 363.5 106 L 375.5 114 L 379.5 115 L 389.5 122 L 405.5 130 L 458 161 L 460 164.5 L 461 172.5 L 459 183.5 L 455.5 187 L 184.5 190 L 183.5 189 L 112.5 189 L 111.5 188 L 109.5 189 L 108.5 188 L 62.5 188 Q 61.3 185.8 56.5 187 L 55 185.5 Q 51.1 177.9 53 164.5 L 56.5 160 L 186.5 85 L 190.5 84 L 219.5 67 L 251.5 52 Z M 253 53 L 227 65 L 198 82 L 183 89 L 178 93 L 163 100 L 153 107 L 147 109 L 127 121 L 124 124 L 114 128 L 101 137 L 93 140 L 58 161 L 54 166 L 54 178 L 56 185 L 68 187 L 127 187 L 128 188 L 283 188 L 284 187 L 445 186 L 446 185 L 456 185 L 458 183 L 459 179 Q 461 166 456 161 L 412 136 Q 408 137 409 135 L 352 101 L 337 94 L 329 88 L 307 77 L 304 74 L 296 71 Q 293 72 294 69 L 271 57 L 259 53 L 253 53 Z "/>
    <path fill="#66d9e8" d="M 250.5 73 Q 259.4 71.6 264.5 74 L 335.5 114 L 341.5 116 L 368.5 132 L 381.5 138 L 394.5 146 L 403 153.5 L 404 160.5 L 401.5 164 L 390.5 167 L 287.5 167 L 286.5 168 L 214.5 168 L 213.5 169 L 127.5 169 L 126.5 168 L 115.5 167 L 110 162.5 L 109 156.5 L 114.5 149 L 131.5 138 L 144 132 Q 142.9 129.3 145.5 130 L 179.5 112 L 191.5 104 L 199.5 101 L 240.5 77 L 250.5 73 Z M 254 74 L 249 75 L 231 84 L 140 135 L 116 150 Q 110 152 111 162 L 115 165 L 125 167 L 176 168 L 178 168 L 179 167 L 239 167 L 240 166 L 396 165 L 401 163 Q 403 161 402 155 L 397 149 L 381 139 L 346 121 L 297 93 L 263 75 L 254 74 Z "/>
    <path fill="#66d9e8" d="M 256.5 81 L 266.5 85 L 298.5 104 L 364.5 139 L 393 156.5 L 384.5 157 L 383.5 158 L 257.5 158 L 256.5 159 L 186.5 160 L 185.5 159 L 171.5 159 L 169.5 159 L 167.5 160 L 137.5 160 L 136.5 159 Q 125.7 160.3 119 157.5 L 130.5 149 L 152.5 138 L 162.5 131 L 176.5 125 L 184.5 119 L 190.5 117 L 239.5 88 L 256.5 81 Z "/>
    <path fill="#66d9e8" d="M 82.5 195 L 85.5 196 L 133.5 196 L 136 198.5 L 134 208.5 L 131.5 211 Q 126.7 209.8 125.5 212 L 90.5 212 Q 89.2 209.8 84.5 211 L 82 208.5 L 81 196.5 L 82.5 195 Z "/>
    <path fill="#66d9e8" d="M 344.5 195 L 368.5 195 L 370 196.5 Q 368.2 210.8 375.5 216 L 384 219.5 L 383 271.5 L 382 272.5 L 382 303.5 L 381 304.5 L 381 373.5 L 379.5 375 L 372 380.5 Q 368.4 386.1 370 396 L 346 396 L 346 382.5 L 347 381.5 L 347 328.5 L 346 327.5 L 345 311.5 L 341 296.5 Q 336.6 283.9 326.5 277 Q 316.9 269.6 299.5 270 L 287.5 273 L 272 283.5 L 263 297.5 L 258 315.5 L 257 339.5 L 256 340.5 L 256 356.5 L 257 357.5 L 258 397 L 158.5 397 L 157.5 396 L 149.5 396 L 146.5 397 L 143 394.5 Q 144.5 379.5 135.5 375 L 132 373.5 L 132 309.5 L 131 308.5 L 131 273.5 L 130 272.5 L 130 234.5 L 129 233.5 L 129 219 Q 136.3 218.4 140 213.5 L 143 205.5 L 143 197.5 L 144.5 196 L 155.5 196 L 156.5 197 L 252.5 197 L 253.5 196 L 343.5 196 L 344.5 195 Z M 295 197 L 294 198 L 144 198 Q 146 209 141 215 L 131 221 L 133 330 L 134 331 L 134 351 L 133 352 L 134 355 L 133 357 L 133 372 L 134 374 L 140 376 L 144 384 L 145 395 L 174 395 L 175 396 L 256 396 Q 258 395 257 392 L 257 390 L 256 389 L 256 372 L 255 371 L 255 331 L 256 330 L 256 320 L 262 296 L 268 287 Q 277 272 298 269 L 308 269 L 319 271 L 328 276 Q 337 283 342 296 L 347 315 L 348 335 L 349 336 L 349 371 L 348 372 L 348 395 L 367 395 L 368 394 L 369 384 L 371 380 L 380 373 Q 382 367 379 366 L 380 361 L 379 358 L 379 333 L 379 331 L 380 328 L 380 293 L 381 292 L 382 220 L 375 217 Q 367 212 369 197 L 304 197 L 303 198 Q 301 195 295 197 Z "/>
    <path fill="#66d9e8" d="M 381.5 195 L 431.5 195 L 432 195.5 L 432 203.5 L 429.5 210 Q 426 212.5 418.5 211 L 417.5 212 L 389.5 212 Q 388 209.5 382.5 211 L 379 208.5 L 377 196 L 381.5 195 Z "/>
    <path fill="#66d9e8" d="M 94 219 L 120.5 219 L 122 220.5 L 123 272.5 L 124 273.5 L 124 315.5 L 125 316.5 L 125 367.5 L 124 373 L 92 373 L 92 340.5 L 91 339.5 L 91 330.5 L 92 329.5 L 92 286.5 L 93 285.5 L 94 219 Z M 98 221 L 96 223 L 95 270 L 94 271 L 94 302 L 93 303 L 93 371 L 123 371 L 123 353 L 124 352 L 124 322 L 123 321 L 123 295 L 122 294 Q 121 289 123 288 L 122 285 L 122 261 L 121 260 L 121 221 L 98 221 Z "/>
    <path fill="#66d9e8" d="M 391 219 L 419 219 L 419 255.5 L 420 256.5 L 420 293.5 L 421 294.5 L 421 371.5 L 419.5 373 L 389 373 L 389 362.5 L 388 361.5 L 388 319.5 L 389 318.5 L 389 281.5 L 390 280.5 L 390 244.5 L 391 243.5 L 391 219 Z M 394 221 L 394 223 L 393 222 L 392 267 L 391 268 L 391 296 L 390 297 L 390 336 L 389 337 L 389 345 L 390 346 L 390 371 L 392 372 L 394 371 L 420 371 L 420 308 L 419 307 L 418 226 L 417 225 L 417 221 L 394 221 Z "/>
    <path fill="#66d9e8" d="M 184.5 232 L 212.5 233 L 222 238.5 L 226 247.5 L 227 277.5 L 226 278.5 Q 227.3 286.7 225 291.5 L 219.5 299 L 213.5 301 L 204.5 301 L 203.5 302 L 175.5 302 L 167.5 300 L 162 295.5 L 159 288.5 Q 160.8 282.3 158 280.5 L 158 259.5 L 159 258.5 L 160 242.5 L 165.5 236 L 168.5 234 L 183.5 233 L 184.5 232 Z M 179 234 L 167 237 L 162 242 L 160 249 L 160 287 L 163 295 L 172 300 L 212 300 L 219 298 L 224 291 Q 223 286 225 285 L 225 252 L 222 241 L 215 235 Q 210 236 209 234 L 179 234 Z "/>
    <path fill="#66d9e8" d="M 87.5 380 L 125.5 380 Q 126.7 382.3 131.5 381 L 135 384.5 L 136 396 L 81.5 396 L 81 395.5 L 81 386.5 L 84.5 381 L 87.5 380 Z M 97 381 L 96 382 Q 88 381 85 383 L 83 385 L 82 392 L 84 395 L 132 395 L 135 394 L 134 386 L 131 382 L 97 381 Z "/>
    <path fill="#66d9e8" d="M 386.5 380 L 425.5 380 L 431 383.5 L 432 396 L 377.5 396 L 377 395.5 L 377 387.5 L 381.5 381 L 386.5 380 Z M 401 381 L 400 382 L 383 382 L 379 386 L 378 394 L 390 394 L 391 395 L 392 394 L 431 394 L 429 383 L 418 381 L 401 381 Z "/>
    <path fill="#66d9e8" d="M 80.5 402 L 83.5 403 L 121.5 403 L 122.5 404 L 214.5 404 L 215.5 405 L 217.5 404 Q 219 406.5 224.5 405 L 225.5 404 L 234.5 404 Q 235.8 406.2 240.5 405 L 241.5 404 L 436.5 403 L 441.5 404 L 445 406.5 L 447 415.5 L 447 422.5 Q 445.3 426.7 443.5 424 L 257.5 425 L 256.5 426 L 103.5 426 L 102.5 425 L 79.5 425 L 78.5 426 L 67 426 Q 64.8 422.4 66 413.5 Q 68.2 412.3 67 407.5 L 69.5 404 L 80.5 402 Z M 74 404 L 70 405 L 68 410 L 68 424 L 132 424 L 133 425 L 136 424 Q 141 423 143 425 L 200 425 L 201 424 L 203 425 L 206 424 L 221 424 L 222 425 Q 226 426 228 424 L 310 424 L 312 424 L 315 423 L 445 423 L 445 411 L 444 408 L 441 405 L 432 405 L 431 404 L 397 404 L 396 405 L 288 405 L 285 406 L 174 406 L 173 405 L 114 405 L 113 404 L 111 405 L 109 404 L 74 404 Z "/>
    <path fill="#66d9e8" d="M 50.5 431 L 68.5 431 L 69.5 432 L 120.5 432 L 121.5 433 L 236.5 433 L 237.5 432 L 443.5 431 L 444.5 432 L 465.5 433 L 469 435.5 L 470 446.5 L 469 447.5 L 469 455.5 L 466.5 459 L 463.5 460 L 425.5 460 L 424.5 461 L 335.5 461 L 334.5 462 L 246.5 462 L 244.5 463 L 242.5 463 L 193.5 463 L 190.5 462 L 187.5 463 L 184.5 462 L 137.5 462 L 136.5 461 L 57.5 461 L 56.5 460 L 48.5 460 L 45 457.5 L 43 446.5 L 43 438.5 L 47.5 432 L 50.5 431 Z M 51 433 L 48 434 L 45 438 Q 44 448 46 456 L 49 458 Q 55 456 57 459 L 125 459 L 126 460 L 162 460 L 163 461 L 275 461 L 276 460 L 434 459 L 435 458 L 465 458 L 467 457 L 468 452 L 468 439 L 467 437 L 464 434 L 453 434 L 452 433 L 342 433 L 341 434 L 317 434 L 316 433 L 315 434 L 189 434 L 187 435 L 184 434 L 174 434 L 173 435 L 164 435 L 163 434 L 51 433 Z "/>
  </g>
  <g id="line">
    <path fill="#1a1a1a" d="M 252.5 44 L 264.5 45 L 307.5 66 L 453.5 149 L 465 158.5 Q 469.5 165 468 177.5 L 466 186.5 L 460.5 193 L 439 195 L 440 204.5 L 437 213.5 L 433.5 217 L 426 219 L 426 240.5 L 427 241.5 L 427 273.5 L 428 274.5 L 428 316.5 L 429 317.5 L 429 370.5 L 428 372.5 L 436 377 L 439 384.5 L 440 392.5 L 439 396 L 445.5 397 L 451 401.5 L 454 409.5 L 454 423.5 L 455.5 425 Q 470.3 423.2 475 431.5 Q 478.4 439.1 477 451.5 L 475 461.5 L 471.5 465 L 463.5 467 L 380.5 468 L 379.5 469 L 166.5 470 L 165.5 469 L 116.5 469 L 115.5 468 L 55.5 468 L 54.5 467 L 42.5 466 L 39 462.5 L 36 450.5 L 36 438.5 L 38 431.5 L 42.5 427 Q 49.1 423.9 59 425 L 59 409.5 L 62 401.5 L 64.5 399 L 74 396 L 74 383.5 L 78.5 376 L 85 372.5 L 84 367.5 L 84 316.5 L 85 315.5 L 85 267.5 L 86 266.5 L 86 237.5 L 87 236.5 L 87 219 L 79.5 217 L 76 213.5 L 74 208.5 L 73 199.5 L 74 196.5 L 72.5 195 L 61.5 195 L 52.5 193 L 48 188.5 L 45 177.5 L 45 167.5 L 48 158.5 L 53.5 153 L 196.5 71 L 240.5 48 L 252.5 44 Z M 252 52 L 220 67 L 191 84 L 187 85 L 57 160 L 53 165 Q 51 178 55 186 L 57 187 Q 61 186 63 188 L 109 188 L 110 189 L 112 188 L 113 189 L 184 189 L 185 190 L 456 187 L 459 184 L 461 173 L 460 165 L 458 161 L 406 130 L 390 122 L 380 115 L 376 114 L 364 106 L 288 64 L 261 52 L 252 52 Z M 83 195 L 81 197 L 82 209 L 85 211 Q 89 210 91 212 L 126 212 Q 127 210 132 211 L 134 209 L 136 199 L 134 196 L 86 196 L 83 195 Z M 345 195 L 344 196 L 254 196 L 253 197 L 157 197 L 156 196 L 145 196 L 143 198 L 143 206 L 140 214 Q 136 218 129 219 L 129 234 L 130 235 L 130 273 L 131 274 L 131 309 L 132 310 L 132 374 L 136 375 Q 144 380 143 395 L 147 397 L 150 396 L 158 396 L 159 397 L 258 397 L 257 358 L 256 357 L 256 341 L 257 340 L 258 316 L 263 298 L 272 284 L 288 273 L 300 270 Q 317 270 327 277 Q 337 284 341 297 L 345 312 L 346 328 L 347 329 L 347 382 L 346 383 L 346 396 L 370 396 Q 368 386 372 381 L 380 375 L 381 374 L 381 305 L 382 304 L 382 273 L 383 272 L 384 220 L 376 216 Q 368 211 370 197 L 369 195 L 345 195 Z M 382 195 L 377 196 L 379 209 L 383 211 Q 388 210 390 212 L 418 212 L 419 211 Q 426 213 430 210 L 432 204 L 432 196 L 432 195 L 382 195 Z M 94 219 L 93 286 L 92 287 L 92 330 L 91 331 L 91 340 L 92 341 L 92 373 L 124 373 L 125 368 L 125 317 L 124 316 L 124 274 L 123 273 L 122 221 L 121 219 L 94 219 Z M 391 219 L 391 244 L 390 245 L 390 281 L 389 282 L 389 319 L 388 320 L 388 362 L 389 363 L 389 373 L 420 373 L 421 372 L 421 295 L 420 294 L 420 257 L 419 256 L 419 219 L 391 219 Z M 297 278 L 283 284 Q 273 291 269 303 L 264 328 L 264 385 L 265 386 L 265 397 L 339 396 L 339 378 L 340 377 L 340 332 L 338 323 L 338 316 L 335 302 L 328 289 Q 323 282 315 279 Q 307 277 297 278 Z M 88 380 L 85 381 L 81 387 L 81 396 L 82 396 L 136 396 L 135 385 L 132 381 Q 127 382 126 380 L 88 380 Z M 387 380 L 382 381 L 377 388 L 377 396 L 378 396 L 432 396 L 431 384 L 426 380 L 387 380 Z M 81 402 L 70 404 L 67 408 Q 68 412 66 414 Q 65 422 67 426 L 79 426 L 80 425 L 103 425 L 104 426 L 257 426 L 258 425 L 444 424 Q 445 427 447 423 L 447 416 L 445 407 L 442 404 L 437 403 L 242 404 L 241 405 Q 236 406 235 404 L 226 404 L 225 405 Q 219 407 218 404 L 216 405 L 215 404 L 123 404 L 122 403 L 84 403 L 81 402 Z M 51 431 L 48 432 L 43 439 L 43 447 L 45 458 L 49 460 L 57 460 L 58 461 L 137 461 L 138 462 L 185 462 L 188 463 L 191 462 L 194 463 L 243 463 L 245 463 L 247 462 L 335 462 L 336 461 L 425 461 L 426 460 L 464 460 L 467 459 L 469 456 L 469 448 L 470 447 L 469 436 L 466 433 L 445 432 L 444 431 L 238 432 L 237 433 L 122 433 L 121 432 L 70 432 L 69 431 L 51 431 Z "/>
    <path fill="#1a1a1a" d="M 253.5 74 L 262.5 75 L 296.5 93 L 345.5 121 L 380.5 139 L 396.5 149 L 402 154.5 Q 402.8 160.6 401 163 L 395.5 165 L 239.5 166 L 238.5 167 L 178.5 167 L 177.5 168 L 175.5 168 L 124.5 167 L 114.5 165 L 111 161.5 Q 109.7 152.2 115.5 150 L 139.5 135 L 230.5 84 L 248.5 75 L 253.5 74 Z M 257 81 L 240 88 L 191 117 L 185 119 L 177 125 L 163 131 L 153 138 L 131 149 L 119 158 Q 126 160 137 159 L 138 160 L 168 160 L 170 159 L 172 159 L 186 159 L 187 160 L 257 159 L 258 158 L 384 158 L 385 157 L 393 157 L 365 139 L 299 104 L 267 85 L 257 81 Z "/>
    <path fill="#1a1a1a" d="M 178.5 234 L 208.5 234 Q 209.8 236.3 214.5 235 L 222 240.5 L 225 251.5 L 225 284.5 Q 222.7 285.8 224 290.5 L 218.5 298 L 211.5 300 L 171.5 300 L 163 294.5 L 160 286.5 L 160 248.5 L 162 241.5 L 166.5 237 L 178.5 234 Z M 174 241 L 168 243 L 167 247 L 167 284 L 169 291 L 175 293 L 204 293 L 205 292 L 215 292 L 217 287 Q 215 280 218 279 L 218 256 L 216 246 L 212 242 L 207 241 L 174 241 Z "/>
    <path fill="#1a1a1a" d="M 318.5 335 Q 329.6 333.4 332 340.5 L 331 353.5 L 333 359.5 L 328.5 366 L 316.5 366 L 314 365 Q 312.3 362.6 313 356.5 L 315 351.5 Q 311.4 349.6 312 343.5 L 316.5 336 L 318.5 335 Z M 322 341 L 319 344 L 319 347 L 322 351 L 320 357 L 320 359 L 325 359 L 324 356 L 325 343 L 322 341 Z "/>
  </g>
</svg>
