<svg xmlns="http://www.w3.org/2000/svg" width="512" height="512" viewBox="0 0 512 512">
  <g id="color">
    <path fill="#ffffff" d="M 118.5 39 L 122 40.5 L 120.5 40 Q 117.5 40.5 118.5 39 Z "/>
    <path fill="#ffffff" d="M 92.5 41 L 94 41.5 L 88.5 45 L 90.5 42 L 92.5 41 Z "/>
    <path fill="#ffffff" d="M 123.5 41 L 131 46.5 L 127.5 44 Q 122.8 43.2 123.5 41 Z "/>
    <path fill="#ffffff" d="M 78.5 56 L 79 57.5 L 77.5 60 L 77 58.5 L 78.5 56 Z "/>
    <path fill="#ffffff" d="M 138.5 59 Q 141.1 62.5 140 69.5 L 139 69.5 L 138.5 59 Z "/>
    <path fill="#ffffff" d="M 76.5 61 L 77 72.5 L 76 72.5 L 76.5 61 Z "/>
    <path fill="#ffffff" d="M 187.5 73 L 215 73.5 L 187.5 74 L 187.5 73 Z "/>
    <path fill="#ffffff" d="M 176.5 74 L 182 74.5 L 176.5 75 L 176.5 74 Z "/>
    <path fill="#ffffff" d="M 220.5 74 L 226 74.5 L 220.5 75 L 220.5 74 Z "/>
    <path fill="#ffffff" d="M 168.5 75 L 174 75.5 L 168.5 76 L 168.5 75 Z "/>
    <path fill="#ffffff" d="M 228.5 75 L 240 76.5 L 235.5 77 Q 234 74.5 228.5 76 L 228.5 75 Z "/>
    <path fill="#ffffff" d="M 162.5 76 L 167 76.5 L 162.5 77 L 162.5 76 Z "/>
    <path fill="#ffffff" d="M 136.5 77 L 137 78.5 L 134 82.5 L 136 83.5 L 133.5 85 Q 129.7 82.7 135 80.5 L 136.5 77 Z "/>
    <path fill="#ffffff" d="M 152.5 78 L 156 78.5 L 149.5 80 L 149.5 79 L 152.5 78 Z "/>
    <path fill="#ffffff" d="M 249.5 78 L 258 79.5 L 254.5 80 L 249.5 79 L 249.5 78 Z "/>
    <path fill="#ffffff" d="M 413.5 79 L 420 79.5 L 413.5 80 L 413.5 79 Z "/>
    <path fill="#ffffff" d="M 421.5 80 L 427 84.5 L 422.5 81 L 421.5 80 Z "/>
    <path fill="#ffffff" d="M 141.5 81 L 144 81.5 L 138.5 83 L 138.5 82 L 141.5 81 Z "/>
    <path fill="#ffffff" d="M 265.5 81 L 273 82.5 L 269.5 83 L 265.5 82 L 265.5 81 Z "/>
    <path fill="#ffffff" d="M 405.5 81 L 408 81.5 L 402.5 83 L 402.5 82 L 405.5 81 Z "/>
    <path fill="#ffffff" d="M 80.5 82 L 88 89.5 L 88 97.5 L 87 97.5 L 87 89.5 L 80.5 82 Z "/>
    <path fill="#ffffff" d="M 224.5 84 L 264.5 90 L 269.5 92 L 290.5 96 L 296.5 96 L 302.5 98 L 321.5 99 L 324 100.5 L 323 101.5 L 323 142.5 L 324 143.5 L 325 217.5 L 326 218.5 L 326 242.5 L 327 244.5 L 327 246.5 L 328 298.5 L 329 299.5 L 330 329.5 L 329 333.5 Q 331.3 334.7 328.5 336 L 317.5 336 L 316.5 335 L 309.5 335 L 303.5 333 L 291.5 332 L 257.5 324 L 230 319.5 L 232 318.5 L 231 317.5 L 230 264.5 L 229 263.5 L 229 228.5 L 228 227.5 L 228 197.5 L 227 196.5 L 227 137.5 L 226 136.5 L 226 98.5 L 225 97.5 L 225 86.5 L 225.5 85 L 224.5 84 Z M 273 187 L 269 189 Q 261 193 258 203 Q 256 216 262 222 L 271 229 L 287 229 L 290 227 Q 297 222 300 213 Q 302 201 296 196 L 288 188 Q 282 186 273 187 Z M 258 256 L 256 257 Q 249 260 248 269 Q 248 279 252 286 Q 258 293 270 296 Q 276 296 281 293 L 284 289 L 283 284 L 280 283 L 278 284 L 270 282 Q 263 278 260 270 Q 258 263 261 262 L 260 257 L 258 256 Z "/>
    <path fill="#ffffff" d="M 394.5 84 L 398 84.5 L 390.5 86 L 390.5 85 L 394.5 84 Z "/>
    <path fill="#ffffff" d="M 427.5 86 L 429 89.5 L 428 89.5 L 427.5 86 Z "/>
    <path fill="#ffffff" d="M 296.5 87 L 307 88.5 L 302.5 89 Q 301.2 86.8 296.5 88 L 296.5 87 Z "/>
    <path fill="#ffffff" d="M 379.5 87 L 384 87.5 L 379.5 88 L 379.5 87 Z "/>
    <path fill="#ffffff" d="M 311.5 89 L 317 89.5 L 311.5 90 L 311.5 89 Z "/>
    <path fill="#ffffff" d="M 365.5 89 L 371 89.5 L 365.5 90 L 365.5 89 Z "/>
    <path fill="#ffffff" d="M 320.5 90 L 333.5 90 L 334.5 91 L 345 91.5 L 334.5 92 L 333.5 91 L 320.5 91 L 320.5 90 Z "/>
    <path fill="#ffffff" d="M 347.5 90 L 363 90.5 L 347.5 91 L 347.5 90 Z "/>
    <path fill="#ffffff" d="M 430.5 97 L 431 110.5 L 430 110.5 L 430.5 97 Z "/>
    <path fill="#ffffff" d="M 87.5 101 L 88 106.5 L 87 106.5 L 87.5 101 Z "/>
    <path fill="#ffffff" d="M 431.5 112 L 432 167.5 L 431 167.5 L 431.5 112 Z "/>
    <path fill="#ffffff" d="M 87.5 134 L 88 193.5 L 87 193.5 L 87.5 134 Z "/>
    <path fill="#ffffff" d="M 432.5 177 L 433 195.5 L 432 195.5 L 432.5 177 Z "/>
    <path fill="#ffffff" d="M 88.5 196 L 89 227.5 L 88 227.5 L 88.5 196 Z "/>
    <path fill="#ffffff" d="M 274.5 199 Q 284.3 197.3 287 202.5 L 288 211.5 L 286 216 L 277.5 218 L 273.5 217 L 270 213.5 L 269 205.5 L 272.5 200 L 274.5 199 Z "/>
    <path fill="#ffffff" d="M 433.5 208 L 435 245.5 L 434 245.5 L 433.5 208 Z "/>
    <path fill="#ffffff" d="M 89.5 247 L 90 270.5 L 89 270.5 L 89.5 247 Z "/>
    <path fill="#ffffff" d="M 435.5 254 L 436 265.5 L 435 265.5 L 435.5 254 Z "/>
    <path fill="#ffffff" d="M 90.5 276 L 91 301.5 L 90 301.5 L 90.5 276 Z "/>
    <path fill="#ffffff" d="M 436.5 277 L 438 306.5 L 437 306.5 L 436.5 277 Z "/>
    <path fill="#ffffff" d="M 91.5 303 L 92 319.5 L 91 319.5 L 91.5 303 Z "/>
    <path fill="#ffffff" d="M 436.5 308 L 437 315.5 L 436 315.5 L 436.5 308 Z "/>
    <path fill="#ffffff" d="M 435.5 318 L 436 320.5 L 430.5 328 L 433 324.5 L 435.5 318 Z "/>
    <path fill="#ffffff" d="M 183.5 326 L 209 326.5 L 183.5 327 L 183.5 326 Z "/>
    <path fill="#ffffff" d="M 173.5 327 L 179 327.5 L 173.5 328 L 173.5 327 Z "/>
    <path fill="#ffffff" d="M 215.5 327 L 222 327.5 L 215.5 328 L 215.5 327 Z "/>
    <path fill="#ffffff" d="M 166.5 328 L 172 328.5 L 161.5 330 L 161.5 329 L 166.5 328 Z "/>
    <path fill="#ffffff" d="M 224.5 328 L 230 328.5 L 224.5 329 L 224.5 328 Z "/>
    <path fill="#ffffff" d="M 428.5 328 L 427.5 330 L 420.5 333 L 420.5 332 L 428.5 328 Z "/>
    <path fill="#ffffff" d="M 92.5 330 L 93 346.5 L 92 346.5 L 92.5 330 Z "/>
    <path fill="#ffffff" d="M 244.5 331 L 252 332.5 L 248.5 333 L 244.5 332 L 244.5 331 Z "/>
    <path fill="#ffffff" d="M 141.5 334 L 144 334.5 L 139.5 336 L 139.5 335 L 141.5 334 Z "/>
    <path fill="#ffffff" d="M 259.5 334 L 266 335.5 L 262.5 336 L 259.5 335 L 259.5 334 Z "/>
    <path fill="#ffffff" d="M 413.5 334 L 416 334.5 L 411.5 336 L 411.5 335 L 413.5 334 Z "/>
    <path fill="#ffffff" d="M 273.5 337 L 281 338.5 L 277.5 339 L 273.5 338 L 273.5 337 Z "/>
    <path fill="#ffffff" d="M 404.5 337 L 407 337.5 L 401.5 339 L 401.5 338 L 404.5 337 Z "/>
    <path fill="#ffffff" d="M 134.5 340 L 135 355.5 L 134 355.5 L 134.5 340 Z "/>
    <path fill="#ffffff" d="M 392.5 340 L 396 340.5 L 388.5 342 L 388.5 341 L 392.5 340 Z "/>
    <path fill="#ffffff" d="M 305.5 343 L 318 344.5 L 311.5 345 Q 310.2 342.8 305.5 344 L 305.5 343 Z "/>
    <path fill="#ffffff" d="M 374.5 343 L 380 343.5 L 368.5 345 L 368.5 344 Q 373.2 345.2 374.5 343 Z "/>
    <path fill="#ffffff" d="M 322.5 345 L 330 345.5 L 322.5 346 L 322.5 345 Z "/>
    <path fill="#ffffff" d="M 356.5 345 L 364 345.5 L 356.5 346 L 356.5 345 Z "/>
    <path fill="#ffffff" d="M 93.5 351 L 95 390.5 L 94 390.5 L 93.5 351 Z "/>
    <path fill="#ffffff" d="M 135.5 363 L 137 391.5 L 136 391.5 L 135.5 363 Z "/>
    <path fill="#ffffff" d="M 137.5 399 L 138 409.5 L 137 409.5 L 137.5 399 Z "/>
    <path fill="#ffffff" d="M 95.5 402 L 96 416.5 L 95 416.5 L 95.5 402 Z "/>
    <path fill="#ffffff" d="M 138.5 416 L 140 445.5 L 139 445.5 Q 140.5 440 138 438.5 L 138.5 416 Z "/>
    <path fill="#ffffff" d="M 96.5 422 L 97 444.5 L 96 444.5 L 96.5 422 Z "/>
    <path fill="#ffffff" d="M 97.5 447 L 98 454.5 L 97 454.5 L 97.5 447 Z "/>
    <path fill="#ffffff" d="M 138.5 447 L 139 455.5 L 138 455.5 L 138.5 447 Z "/>
    <path fill="#ffffff" d="M 99.5 461 L 101 464.5 L 99 463.5 L 99.5 461 Z "/>
    <path fill="#ffffff" d="M 136.5 462 L 137 463.5 L 134.5 467 L 135 465.5 L 136.5 462 Z "/>
    <path fill="#ffffff" d="M 101.5 466 L 106 471.5 L 102 468.5 L 101.5 466 Z "/>
    <path fill="#ffffff" d="M 128.5 472 L 127.5 474 L 124.5 475 L 124.5 474 L 128.5 472 Z "/>
    <path fill="#ffffff" d="M 115.5 475 L 122 475.5 L 115.5 476 L 115.5 475 Z "/>
    <path fill="#ffd43b" d="M 104.5 47 L 117.5 48 L 126 54.5 L 130 61.5 L 130 70.5 Q 126.9 78.9 120 83.5 L 120 185.5 L 121 186.5 L 122 274.5 L 123 275.5 L 123 299.5 L 124 300.5 L 124 322.5 L 125 323.5 L 125 353.5 L 126 354.5 L 126 365.5 L 127 366.5 L 127 386.5 L 128 387.5 L 128 403.5 L 129 404.5 L 130 450.5 L 128 459.5 L 124.5 465 Q 121.3 467.3 114.5 466 L 109 461.5 L 107 456.5 L 106 435.5 L 105 434.5 L 105 406.5 L 104 405.5 L 104 384.5 L 103 383.5 L 103 363.5 L 102 362.5 L 102 334.5 L 101 333.5 L 100 283.5 L 99 282.5 L 99 250.5 L 98 249.5 L 97 159.5 L 96 158.5 L 96 84.5 L 93.5 82 L 89 78.5 Q 84.2 73.3 86 61.5 L 94.5 51 L 99.5 48 L 104.5 47 Z "/>
    <path fill="#ff6b6b" d="M 201.5 83 L 205.5 84 L 207.5 83 Q 209.2 85.8 215.5 84 L 217.5 84 L 221 83 L 221 85 L 225 85.5 L 225 97.5 L 226 98.5 L 227 168.5 L 226 170.5 L 227 171.5 L 227 196.5 Q 229.3 197.8 228 202.5 L 227 206.5 L 228 207.5 L 228 227.5 L 229 228.5 L 230 290.5 Q 227.5 292 231 293.5 L 231 306.5 L 230 307.5 L 231 308.5 L 231 317 L 228 318.5 L 230 319.5 L 228.5 320 Q 227 316.5 225.5 319 L 221 319 Q 222.1 316.3 219.5 317 L 217.5 317 L 213.5 318 L 211.5 318 L 209.5 317 L 206.5 318 L 203.5 316 L 200.5 317 L 198.5 316 L 196.5 316 Q 191.8 314.8 190.5 317 L 185.5 316 L 185.5 317 L 188 317.5 L 185.5 318 L 183.5 318 L 178.5 317 L 176.5 317 Q 173.9 316.3 175 319 L 171.5 319 L 171.5 317 L 168.5 319 L 164.5 320 L 159.5 319 L 154 320 L 152.5 323 L 147.5 324 L 145.5 323 L 142.5 325 L 140.5 324 L 140.5 326 L 135.5 325 L 133 326.5 Q 132.3 324.3 134.5 325 L 134 323.5 L 133 321.5 Q 135.3 320.3 134 315.5 L 132 315.5 L 132 310.5 L 134 306.5 L 133 306.5 L 132.5 308 L 132 305.5 L 132 303.5 L 133 296.5 L 133 294.5 L 132 290.5 L 133 287.5 L 131 287.5 L 132 266.5 L 132 264.5 L 132 255.5 L 130 254.5 L 130 241.5 Q 132.8 240.7 132 236.5 L 131 236.5 L 130.5 239 L 130 235.5 Q 132.5 234 131 228.5 L 130 226.5 Q 132.3 225.3 131 220.5 L 130 218.5 Q 132.5 217 131 211.5 L 130 211.5 L 129.5 213 L 129 199.5 L 130 199.5 L 130.5 210 L 131 181.5 L 130 180.5 L 130 155.5 L 131 150.5 L 129 140.5 L 129 131.5 L 130 130.5 L 130 110.5 L 130 108.5 Q 131.8 102.3 129 100.5 L 131.5 94 L 132.5 96 L 139 93.5 L 138.5 92 L 141.5 93 L 141.5 91 L 144.5 92 L 148 90.5 L 147.5 89 L 149.5 89 L 152.5 88 L 157.5 89 L 168 86.5 L 167.5 85 L 174.5 86 L 174.5 85 L 172 84.5 L 174.5 84 Q 176 87.5 177.5 85 L 200.5 84 L 201.5 83 Z "/>
    <path fill="#ff6b6b" d="M 418.5 89 L 421 93.5 L 420 96.5 L 422 106.5 L 421 108.5 L 421.5 110 Q 418.1 109.1 420 114.5 Q 422.7 116.8 422 122.5 L 421 125.5 L 422 131.5 L 421 135.5 Q 423.8 137.3 422 143.5 L 421 147.5 L 422 151.5 L 421 154.5 L 423 154.5 L 422 162.5 L 423 166.5 L 422 166.5 L 421.5 165 L 421 168.5 Q 424.5 170 422 171.5 Q 420.8 176.3 423 177.5 L 421 178.5 L 423 183.5 L 422 187.5 L 422 189.5 L 422.5 195 L 423.5 191 L 424 206.5 L 423 209.5 L 425 216.5 L 425 224 Q 422 222.8 423 226.5 L 424 226.5 L 424.5 225 L 425 227.5 L 424 231.5 L 425 233.5 L 425 235.5 L 426 241.5 L 424 241.5 L 426 248.5 L 426 250.5 L 425 255.5 Q 427.3 256.7 426 261.5 L 425 263.5 L 427 263.5 L 427 271.5 L 426 272.5 L 427 274.5 L 427 278.5 L 428 280.5 L 428 293.5 L 427 294.5 L 427 304.5 L 428 307.5 Q 428.8 311.8 426 312.5 L 427 317.5 L 424.5 321 L 421.5 323 L 419 322 Q 420.3 325 416.5 324 L 414.5 325 L 412.5 324 L 412.5 326 L 408.5 325 L 406 326.5 L 406.5 328 L 404.5 327 L 396.5 331 L 392.5 330 L 392.5 331 L 394 331.5 L 391.5 332 L 386.5 331 L 381 332.5 L 381.5 334 L 376.5 333 L 376.5 335 Q 373.2 336.1 374 333.5 L 372.5 334 Q 367.8 332.8 366.5 335 L 364 334 L 363.5 336 L 361.5 336 L 352.5 337 L 350.5 337 L 337.5 336 L 335 337 Q 336.1 334.3 333.5 335 L 331.5 335 L 329 333.5 L 330 321.5 L 329 320.5 L 328 291.5 L 328 289.5 L 329 285.5 L 328 281.5 L 328 279.5 L 327 246.5 L 326 245.5 L 327 243.5 L 326 242.5 L 326 218.5 L 325 217.5 L 323 104.5 L 325 104.5 Q 323.2 98.8 329.5 101 L 331.5 101 L 333.5 100 L 349.5 100 L 351.5 100 L 353.5 101 L 358 100.5 Q 357.3 98.3 359.5 99 L 359.5 101 L 363.5 100 L 365.5 100 L 370 99.5 L 369.5 98 L 373.5 100 L 376 99 Q 374.6 95.3 380.5 97 L 383 98 L 383.5 96 L 386.5 98 L 395 95.5 L 394.5 94 L 398.5 93 Q 400 95.5 401.5 92 L 405 93 Q 403.9 90.3 406.5 91 L 408.5 92 L 408.5 90 L 413.5 91 L 418.5 89 Z M 331 305 L 330 311 L 331 311 L 331 305 Z "/>
    <path fill="#ff6b6b" d="M 272.5 187 Q 282 185.5 287.5 188 L 296 195.5 Q 301.5 200.5 300 212.5 Q 297.3 222.3 289.5 227 Q 286.6 230.6 278.5 229 L 274.5 227 L 272 227.5 L 274 228.5 L 272.5 229 L 268.5 227 L 262 221.5 Q 255.8 216.2 258 202.5 Q 260.7 193.2 268.5 189 L 272.5 187 Z M 276 188 L 276 189 L 280 189 L 276 188 Z M 275 199 L 273 200 L 269 206 L 270 214 L 274 217 L 278 218 L 286 216 L 288 212 L 287 203 Q 284 197 275 199 Z "/>
    <path fill="#ff6b6b" d="M 257.5 256 L 260 257.5 L 256 258 Q 254.8 261 258.5 260 L 261 259 Q 259.3 262.5 260 269.5 Q 262.9 277.6 269.5 282 L 277.5 284 L 279.5 283 L 283 284 L 282 286.5 L 284 287 L 280.5 293 Q 276.5 296 269.5 296 L 262 292.5 L 262.5 291 L 260.5 292 L 252 285.5 Q 248.2 278.8 248 268.5 Q 249.4 260.4 255.5 257 L 257.5 256 Z M 273 293 L 273 294 L 277 294 L 273 293 Z "/>
    <path fill="#f783ac" d="M 182.5 83 L 201 83.5 L 186.5 84 L 176.5 86 L 174.5 86 L 170 85.5 L 182.5 83 Z "/>
    <path fill="#f783ac" d="M 208.5 83 Q 214.7 81.3 216.5 84 L 218.5 83 L 218.5 84 L 216.5 85 Q 214.7 82.3 208.5 84 L 208.5 83 Z "/>
    <path fill="#f783ac" d="M 163.5 86 L 168 86.5 L 153.5 89 L 153.5 88 L 163.5 86 Z "/>
    <path fill="#f783ac" d="M 148.5 89 L 147.5 91 L 143.5 92 L 144.5 90 L 148.5 89 Z "/>
    <path fill="#f783ac" d="M 413.5 89 Q 419 88 420 91.5 L 417.5 90 L 410.5 91 L 410.5 90 L 413.5 89 Z "/>
    <path fill="#f783ac" d="M 139.5 92 L 142 92.5 L 132.5 96 L 132 94 L 139.5 92 Z "/>
    <path fill="#f783ac" d="M 129 95 L 131 95.5 L 129.5 100 L 129 95 Z "/>
    <path fill="#f783ac" d="M 390.5 95 L 395 95.5 L 386.5 98 L 384 96.5 L 390.5 95 Z "/>
    <path fill="#f783ac" d="M 372.5 98 L 376 98.5 L 373.5 100 L 371 99.5 L 372.5 98 Z "/>
    <path fill="#f783ac" d="M 360.5 99 L 362.5 99 L 370 99.5 L 364.5 101 L 362.5 101 L 359 100.5 L 360.5 99 Z "/>
    <path fill="#f783ac" d="M 324.5 100 L 330 100.5 L 325 101 L 324.5 105 L 323 103.5 L 324.5 100 Z "/>
    <path fill="#f783ac" d="M 129.5 101 L 130 108.5 L 129 108.5 L 129.5 101 Z "/>
    <path fill="#f783ac" d="M 129.5 110 L 130 130.5 L 129 130.5 L 129.5 110 Z "/>
    <path fill="#f783ac" d="M 420 110 L 422 110.5 L 422 117.5 L 421 117.5 L 420 110 Z "/>
    <path fill="#f783ac" d="M 421.5 125 L 422 129.5 L 421 129.5 L 421.5 125 Z "/>
    <path fill="#f783ac" d="M 129.5 141 L 131 154.5 L 130 155.5 L 130 180.5 L 131 181.5 L 131 209.5 L 130 209.5 L 129 192.5 L 130 190.5 L 129 189.5 L 129.5 141 Z "/>
    <path fill="#f783ac" d="M 421.5 165 L 423 169.5 L 421 168.5 L 421.5 165 Z "/>
    <path fill="#f783ac" d="M 422.5 171 L 423 176.5 L 422 176.5 L 422.5 171 Z "/>
    <path fill="#f783ac" d="M 421.5 178 Q 424.5 177.1 423 181.5 L 422 181.5 L 421.5 178 Z "/>
    <path fill="#f783ac" d="M 275.5 188 L 280 188.5 L 275.5 189 L 275.5 188 Z "/>
    <path fill="#f783ac" d="M 422.5 189 L 423 194.5 L 422 194.5 L 422.5 189 Z "/>
    <path fill="#f783ac" d="M 298.5 205 L 299 207.5 L 298.5 209 L 297 206.5 L 298.5 205 Z "/>
    <path fill="#f783ac" d="M 130.5 211 L 131 217.5 L 130 217.5 L 130.5 211 Z "/>
    <path fill="#f783ac" d="M 130.5 220 L 131 225.5 L 130 225.5 L 130.5 220 Z "/>
    <path fill="#f783ac" d="M 291.5 223 L 289.5 226 L 288 225.5 L 291.5 223 Z "/>
    <path fill="#f783ac" d="M 266.5 224 L 268.5 224 L 271 226.5 L 268.5 225 L 267.5 226 L 266.5 224 Z "/>
    <path fill="#f783ac" d="M 272.5 227 L 276 228.5 L 274.5 229 L 272.5 228 L 271 228.5 L 272.5 227 Z "/>
    <path fill="#f783ac" d="M 130.5 228 L 131 234.5 L 130 234.5 L 130.5 228 Z "/>
    <path fill="#f783ac" d="M 131.5 236 L 132 239.5 L 130 240.5 L 131.5 236 Z "/>
    <path fill="#f783ac" d="M 424.5 241 L 426 244.5 L 425 244.5 L 424.5 241 Z "/>
    <path fill="#f783ac" d="M 131.5 255 L 132 264.5 L 131 264.5 L 131.5 255 Z "/>
    <path fill="#f783ac" d="M 256 258 L 260 258.5 L 256 260 L 256 258 Z "/>
    <path fill="#f783ac" d="M 131.5 266 L 132 275.5 L 131 275.5 L 131.5 266 Z "/>
    <path fill="#f783ac" d="M 254.5 284 L 256.5 287 L 258 287.5 L 256.5 288 Q 252.9 286.9 254.5 284 Z "/>
    <path fill="#f783ac" d="M 280.5 285 L 284 286.5 L 281.5 288 L 281.5 286 L 280.5 285 Z "/>
    <path fill="#f783ac" d="M 260.5 290 L 263 291.5 L 261 292.5 L 260.5 290 Z "/>
    <path fill="#f783ac" d="M 272.5 293 L 277 293.5 L 272.5 294 L 272.5 293 Z "/>
    <path fill="#f783ac" d="M 427.5 294 L 428 304.5 L 427.5 307 Q 424.8 305.8 427 304.5 L 427.5 294 Z "/>
    <path fill="#f783ac" d="M 330.5 305 L 331 310.5 L 330 310.5 L 330.5 305 Z "/>
    <path fill="#f783ac" d="M 133.5 306 L 134 308.5 L 132 309.5 L 133.5 306 Z "/>
    <path fill="#f783ac" d="M 133.5 315 L 134 320.5 L 133 320.5 L 133.5 315 Z "/>
    <path fill="#f783ac" d="M 185.5 316 L 190 316.5 L 184.5 318 L 185.5 316 Z "/>
    <path fill="#f783ac" d="M 191.5 316 L 197 316.5 L 191.5 317 L 191.5 316 Z "/>
    <path fill="#f783ac" d="M 229.5 317 L 232 318.5 L 228.5 319 L 229.5 317 Z "/>
    <path fill="#f783ac" d="M 159.5 319 L 164 319.5 L 154.5 322 L 154 320 L 159.5 319 Z "/>
    <path fill="#f783ac" d="M 133.5 322 L 135.5 325 L 139 325.5 L 134.5 327 L 134.5 325 Q 131.4 325.7 133.5 322 Z "/>
    <path fill="#f783ac" d="M 408.5 325 Q 411.1 324.3 410 327 Q 405.5 326.2 403.5 329 L 404.5 327 L 408.5 325 Z "/>
    <path fill="#f783ac" d="M 386.5 331 L 391 331.5 L 376.5 334 L 376.5 333 L 386.5 331 Z "/>
    <path fill="#f783ac" d="M 331.5 333 L 335 335 Q 336.1 337.7 333.5 337 L 330 335.5 L 332 334.5 L 331.5 333 Z "/>
    <path fill="#f783ac" d="M 373.5 333 L 374 335 L 364 336 Q 362.9 333.3 365.5 334 L 367.5 334 Q 372.2 335.3 373.5 333 Z "/>
    <path fill="#f783ac" d="M 336.5 335 L 343 336.5 L 337.5 337 L 336.5 335 Z "/>
  </g>
  <g id="line">
    <path fill="#1a1a1a" d="M 103.5 38 L 114.5 38 Q 125.1 41.2 132 47 L 138 58.5 L 139 70.5 Q 137.6 79.1 132 83.5 Q 133.3 86.3 134.5 84 L 160.5 77 L 181.5 75 L 182.5 74 L 219.5 74 L 220.5 75 L 248.5 78 L 302.5 89 L 344.5 92 L 345.5 91 L 362.5 91 L 363.5 90 L 377.5 89 L 397.5 85 L 411.5 80 L 420.5 80 L 427 85.5 L 430 94.5 L 430 110.5 L 431 111.5 L 431 167.5 L 432 168.5 L 433 227.5 L 434 228.5 L 434 245.5 L 435 246.5 L 437 307.5 L 436 308.5 L 435 320.5 L 429.5 328 L 419.5 333 L 387.5 342 L 374.5 343 L 367.5 345 L 356.5 345 L 355.5 346 L 330.5 346 L 329.5 345 L 318.5 345 L 310.5 343 L 296.5 342 L 229.5 328 L 209.5 327 L 208.5 326 L 183.5 326 L 182.5 327 L 173.5 327 L 156.5 330 L 134 337 L 139 446.5 L 138 447.5 L 137 461.5 Q 134.8 468.3 129.5 472 Q 124.7 476.7 113.5 475 Q 106.5 473.4 103 468.5 L 98 456.5 L 96 402.5 L 95 401.5 L 95 375.5 L 94 374.5 L 94 351.5 L 93 350.5 L 92 303.5 L 91 302.5 L 91 276.5 L 90 275.5 L 90 247.5 L 89 246.5 L 89 196.5 L 88 195.5 L 87 107.5 Q 89.2 106.3 88 101.5 L 87 98.5 L 88 97.5 L 88 89.5 Q 81.2 85.3 78 77.5 Q 75.2 71.3 77 60.5 Q 80.1 50.6 87.5 45 Q 93.9 39.9 103.5 38 Z M 105 47 L 100 48 L 95 51 L 86 62 Q 84 73 89 79 L 94 82 L 96 85 L 96 159 L 97 160 L 98 250 L 99 251 L 99 283 L 100 284 L 101 334 L 102 335 L 102 363 L 103 364 L 103 384 L 104 385 L 104 406 L 105 407 L 105 435 L 106 436 L 107 457 L 109 462 L 115 466 Q 121 467 125 465 L 128 460 L 130 451 L 129 405 L 128 404 L 128 388 L 127 387 L 127 367 L 126 366 L 126 355 L 125 354 L 125 324 L 124 323 L 124 301 L 123 300 L 123 276 L 122 275 L 121 187 L 120 186 L 120 84 Q 127 79 130 71 L 130 62 L 126 55 L 118 48 L 105 47 Z M 195 82 L 194 83 L 181 83 L 180 84 L 173 84 L 167 86 L 156 87 L 129 95 L 129 213 L 130 214 L 130 255 L 131 256 L 131 288 L 132 289 L 132 316 L 133 317 L 133 327 L 162 320 L 175 319 L 176 318 L 188 318 L 189 317 L 206 317 L 207 318 L 221 318 L 229 320 L 236 320 L 277 328 L 282 330 L 287 330 L 292 332 L 304 333 L 310 335 L 317 335 L 318 336 L 333 336 L 334 337 L 359 337 L 360 336 L 377 335 L 383 333 L 394 332 L 424 322 L 427 318 Q 426 312 428 311 L 428 281 L 427 280 L 427 264 L 426 263 L 426 238 L 425 237 L 425 217 L 424 216 L 424 192 L 423 191 L 422 105 L 421 104 L 421 94 L 419 89 L 409 90 L 389 96 L 370 98 L 369 99 L 359 99 L 358 100 L 323 100 L 322 99 L 310 99 L 230 84 L 197 83 L 195 82 Z "/>
  </g>
</svg>
