<svg xmlns="http://www.w3.org/2000/svg" width="512" height="512" viewBox="0 0 512 512">
  <g id="color">
    <path fill="#ffffff" d="M 246.5 35 L 268 35.5 L 246.5 36 L 246.5 35 Z "/>
    <path fill="#ffffff" d="M 235.5 36 L 245 36.5 L 235.5 37 L 235.5 36 Z "/>
    <path fill="#ffffff" d="M 269.5 36 L 279 36.5 L 269.5 37 L 269.5 36 Z "/>
    <path fill="#ffffff" d="M 225.5 37 L 230 37.5 L 225.5 38 L 225.5 37 Z "/>
    <path fill="#ffffff" d="M 283.5 37 L 288 37.5 L 283.5 38 L 283.5 37 Z "/>
    <path fill="#ffffff" d="M 218.5 38 L 223 38.5 L 214.5 40 L 214.5 39 L 218.5 38 Z "/>
    <path fill="#ffffff" d="M 290.5 38 L 299 39.5 L 295.5 40 L 290.5 39 L 290.5 38 Z "/>
    <path fill="#ffffff" d="M 301.5 40 L 312 42.5 L 309.5 43 L 301.5 41 L 301.5 40 Z "/>
    <path fill="#ffffff" d="M 204.5 41 L 208 41.5 L 201.5 43 L 201.5 42 L 204.5 41 Z "/>
    <path fill="#ffffff" d="M 193.5 44 L 196 44.5 L 190.5 46 L 190.5 45 L 193.5 44 Z "/>
    <path fill="#ffffff" d="M 178.5 49 L 180 49.5 L 176.5 51 L 176.5 50 L 178.5 49 Z "/>
    <path fill="#ffffff" d="M 333.5 49 L 337 50.5 L 335.5 51 L 333.5 49 Z "/>
    <path fill="#ffffff" d="M 171.5 52 L 173 52.5 L 167.5 55 L 167.5 54 L 171.5 52 Z "/>
    <path fill="#ffffff" d="M 340.5 52 L 344 53.5 L 342.5 54 L 340.5 52 Z "/>
    <path fill="#ffffff" d="M 164.5 55 L 166 55.5 L 161.5 58 L 162.5 56 L 164.5 55 Z "/>
    <path fill="#ffffff" d="M 347.5 55 L 353 57.5 L 351.5 58 L 347.5 56 L 347.5 55 Z "/>
    <path fill="#ffffff" d="M 158.5 58 L 160 58.5 L 149.5 64 L 150.5 62 L 158.5 58 Z "/>
    <path fill="#ffffff" d="M 354.5 58 L 358 60.5 L 356.5 60 L 354.5 58 Z "/>
    <path fill="#ffffff" d="M 147.5 64 L 146.5 66 L 144.5 67 L 145.5 65 L 147.5 64 Z "/>
    <path fill="#ffffff" d="M 142.5 67 L 141.5 69 L 139.5 70 L 140.5 68 L 142.5 67 Z "/>
    <path fill="#ffffff" d="M 370.5 67 L 374 69.5 L 372.5 69 L 370.5 67 Z "/>
    <path fill="#ffffff" d="M 134.5 72 L 133.5 74 L 130.5 76 L 132.5 73 L 134.5 72 Z "/>
    <path fill="#ffffff" d="M 381.5 74 L 387 78.5 L 384.5 77 L 381.5 74 Z "/>
    <path fill="#ffffff" d="M 120.5 82 L 117.5 86 L 112.5 90 L 116.5 85 L 120.5 82 Z "/>
    <path fill="#ffffff" d="M 392.5 82 L 404 92.5 L 397.5 87 L 392.5 82 Z "/>
    <path fill="#ffffff" d="M 109.5 91 L 93 108.5 L 91.5 111 L 91 109.5 L 109.5 91 Z "/>
    <path fill="#ffffff" d="M 420.5 109 L 431 120.5 L 426 116.5 L 420.5 109 Z "/>
    <path fill="#ffffff" d="M 75.5 130 L 75 131.5 L 72.5 135 L 74 132.5 L 75.5 130 Z "/>
    <path fill="#ffffff" d="M 437.5 130 L 441 134.5 L 439 133.5 L 437.5 130 Z "/>
    <path fill="#ffffff" d="M 69.5 139 L 69 140.5 L 67.5 143 L 68 141.5 L 69.5 139 Z "/>
    <path fill="#ffffff" d="M 443.5 139 L 446 142.5 L 444 141.5 L 443.5 139 Z "/>
    <path fill="#ffffff" d="M 66.5 144 L 66 145.5 L 64.5 148 L 65 146.5 L 66.5 144 Z "/>
    <path fill="#ffffff" d="M 446.5 144 L 449 147.5 L 447 146.5 L 446.5 144 Z "/>
    <path fill="#ffffff" d="M 63.5 149 L 63 150.5 L 61.5 154 L 61 152.5 L 63.5 149 Z "/>
    <path fill="#ffffff" d="M 60.5 155 L 60 156.5 L 58.5 159 L 59 157.5 L 60.5 155 Z "/>
    <path fill="#ffffff" d="M 452.5 155 L 458 165.5 L 457 165.5 L 452.5 155 Z "/>
    <path fill="#ffffff" d="M 57.5 160 L 58 161.5 L 55.5 166 L 55 164.5 L 57.5 160 Z "/>
    <path fill="#ffffff" d="M 53.5 169 L 54 170.5 L 52.5 173 L 52 171.5 L 53.5 169 Z "/>
    <path fill="#ffffff" d="M 459.5 169 L 461 172.5 L 460 172.5 L 459.5 169 Z "/>
    <path fill="#ffffff" d="M 51.5 174 L 52 175.5 L 50.5 178 L 50 176.5 L 51.5 174 Z "/>
    <path fill="#ffffff" d="M 462.5 176 L 464 179.5 L 463 179.5 L 462.5 176 Z "/>
    <path fill="#ffffff" d="M 48.5 182 L 49 183.5 L 47.5 186 L 47 184.5 L 48.5 182 Z "/>
    <path fill="#ffffff" d="M 45.5 190 L 46 192.5 L 44.5 196 L 44 193.5 L 45.5 190 Z "/>
    <path fill="#ffffff" d="M 468.5 193 L 470 198.5 L 469 198.5 L 468.5 193 Z "/>
    <path fill="#ffffff" d="M 41.5 204 L 42 207.5 L 40.5 211 L 40 208.5 L 41.5 204 Z "/>
    <path fill="#ffffff" d="M 471.5 204 L 473 210.5 L 472 210.5 L 471.5 204 Z "/>
    <path fill="#ffffff" d="M 38.5 218 L 39 222.5 L 38 222.5 L 38.5 218 Z "/>
    <path fill="#ffffff" d="M 474.5 218 L 475 222.5 L 474 222.5 L 474.5 218 Z "/>
    <path fill="#ffffff" d="M 37.5 224 L 38 228.5 L 37 228.5 L 37.5 224 Z "/>
    <path fill="#ffffff" d="M 475.5 224 L 476 228.5 L 475 228.5 L 475.5 224 Z "/>
    <path fill="#ffffff" d="M 36.5 233 L 37 240.5 L 36 241.5 L 36 271.5 Q 38.8 273.3 37 279.5 L 36 279.5 Q 37.7 273.3 35 271.5 L 35 241.5 L 36.5 233 Z "/>
    <path fill="#ffffff" d="M 476.5 233 L 477 240.5 L 476 240.5 L 476.5 233 Z "/>
    <path fill="#ffffff" d="M 477.5 242 L 478 271.5 L 476.5 280 L 476 272.5 L 477 271.5 L 477.5 242 Z "/>
    <path fill="#ffffff" d="M 38.5 290 L 40 298.5 L 39 298.5 L 38.5 290 Z "/>
    <path fill="#ffffff" d="M 474.5 290 L 475 294.5 L 473.5 299 L 473 295.5 L 474.5 290 Z "/>
    <path fill="#ffffff" d="M 41.5 305 L 43 311.5 L 42 311.5 L 41.5 305 Z "/>
    <path fill="#ffffff" d="M 471.5 305 L 472 308.5 L 470.5 312 L 470 309.5 L 471.5 305 Z "/>
    <path fill="#ffffff" d="M 44.5 317 L 46 321.5 L 45 321.5 L 44.5 317 Z "/>
    <path fill="#ffffff" d="M 468.5 317 L 469 319.5 L 467.5 322 L 467 320.5 L 468.5 317 Z "/>
    <path fill="#ffffff" d="M 47.5 327 L 49 330.5 L 48 330.5 L 47.5 327 Z "/>
    <path fill="#ffffff" d="M 465.5 327 L 466 328.5 L 464.5 331 L 464 329.5 L 465.5 327 Z "/>
    <path fill="#ffffff" d="M 49.5 332 L 52 338.5 L 51 338.5 L 49.5 332 Z "/>
    <path fill="#ffffff" d="M 463.5 332 L 464 333.5 L 461.5 339 L 461 337.5 L 463.5 332 Z "/>
    <path fill="#ffffff" d="M 52.5 340 L 55 345.5 L 54 345.5 L 52.5 340 Z "/>
    <path fill="#ffffff" d="M 460.5 340 L 461 341.5 L 458.5 346 L 458 344.5 L 460.5 340 Z "/>
    <path fill="#ffffff" d="M 55.5 347 L 58 351.5 L 56 350.5 L 55.5 347 Z "/>
    <path fill="#ffffff" d="M 457.5 347 L 458 348.5 L 455.5 352 L 456 350.5 L 457.5 347 Z "/>
    <path fill="#ffffff" d="M 58.5 353 L 61 357.5 L 59 356.5 L 58.5 353 Z "/>
    <path fill="#ffffff" d="M 454.5 353 L 455 354.5 L 452.5 358 L 453 356.5 L 454.5 353 Z "/>
    <path fill="#ffffff" d="M 61.5 359 L 66 366.5 L 64 365.5 L 61.5 359 Z "/>
    <path fill="#ffffff" d="M 451.5 359 L 451 360.5 L 447.5 367 L 448 365.5 L 451.5 359 Z "/>
    <path fill="#ffffff" d="M 66.5 368 L 69 371.5 L 67 370.5 L 66.5 368 Z "/>
    <path fill="#ffffff" d="M 69.5 373 L 73 377.5 L 70 375.5 L 69.5 373 Z "/>
    <path fill="#ffffff" d="M 443.5 373 L 443 374.5 L 441.5 377 L 442 375.5 L 443.5 373 Z "/>
    <path fill="#ffffff" d="M 437.5 382 L 437 383.5 L 429.5 393 L 432 389.5 L 437.5 382 Z "/>
    <path fill="#ffffff" d="M 106.5 417 L 118 427.5 L 113.5 424 L 106.5 417 Z "/>
    <path fill="#ffffff" d="M 392.5 429 L 389.5 433 L 382.5 438 L 384.5 435 L 392.5 429 Z "/>
    <path fill="#ffffff" d="M 135.5 440 L 139 442.5 L 137.5 442 L 135.5 440 Z "/>
    <path fill="#ffffff" d="M 377.5 440 L 376.5 442 L 373.5 444 L 375.5 441 L 377.5 440 Z "/>
    <path fill="#ffffff" d="M 140.5 443 L 154 451.5 L 152.5 451 L 141.5 445 L 140.5 443 Z "/>
    <path fill="#ffffff" d="M 371.5 444 L 370.5 446 L 353.5 455 L 354.5 453 L 371.5 444 Z "/>
    <path fill="#ffffff" d="M 161.5 455 L 167 457.5 L 165.5 458 L 161.5 456 L 161.5 455 Z "/>
    <path fill="#ffffff" d="M 350.5 455 L 352 455.5 L 346.5 458 L 346.5 457 L 350.5 455 Z "/>
    <path fill="#ffffff" d="M 168.5 458 L 173 460.5 L 171.5 460 Q 167.7 460.5 168.5 458 Z "/>
    <path fill="#ffffff" d="M 174.5 461 L 181 463.5 L 179.5 464 L 174.5 462 L 174.5 461 Z "/>
    <path fill="#ffffff" d="M 334.5 462 L 336 462.5 L 332.5 464 L 332.5 463 L 334.5 462 Z "/>
    <path fill="#ffffff" d="M 182.5 464 L 187 465.5 L 184.5 466 L 182.5 464 Z "/>
    <path fill="#ffffff" d="M 328.5 464 L 330 464.5 L 326.5 466 L 326.5 465 L 328.5 464 Z "/>
    <path fill="#ffffff" d="M 191.5 467 L 197 468.5 L 194.5 469 L 191.5 468 L 191.5 467 Z "/>
    <path fill="#ffffff" d="M 319.5 467 L 322 467.5 L 314.5 470 L 314.5 469 L 319.5 467 Z "/>
    <path fill="#ffffff" d="M 202.5 470 L 212 472.5 L 209.5 473 L 202.5 471 L 202.5 470 Z "/>
    <path fill="#ffffff" d="M 309.5 470 L 312 470.5 L 300.5 473 L 300.5 472 L 309.5 470 Z "/>
    <path fill="#ffffff" d="M 215.5 473 L 224 474.5 L 219.5 475 L 215.5 474 L 215.5 473 Z "/>
    <path fill="#ffffff" d="M 294.5 473 L 298 473.5 L 288.5 475 L 288.5 474 Q 293.3 475.3 294.5 473 Z "/>
    <path fill="#ffffff" d="M 225.5 475 L 231 475.5 L 225.5 476 L 225.5 475 Z "/>
    <path fill="#ffffff" d="M 282.5 475 L 287 475.5 L 282.5 476 L 282.5 475 Z "/>
    <path fill="#ffffff" d="M 236.5 476 L 267.5 477 L 268.5 476 L 276.5 476 L 276.5 477 L 246.5 478 L 245.5 477 L 236.5 477 L 236.5 476 Z "/>
    <path fill="#ffd43b" d="M 262.5 52 L 263 58.5 L 262 58.5 L 262.5 52 Z "/>
    <path fill="#ffd43b" d="M 261.5 105 L 262 133.5 L 261 133.5 L 261.5 105 Z "/>
    <path fill="#ffd43b" d="M 250.5 178 L 251 185.5 L 250 185.5 L 250.5 178 Z "/>
    <path fill="#ffd43b" d="M 262.5 279 L 263 287.5 L 262 287.5 L 262.5 279 Z "/>
    <path fill="#ffd43b" d="M 262.5 329 L 263 338.5 L 262 338.5 L 262.5 329 Z "/>
    <path fill="#ffd43b" d="M 262.5 341 L 263 361.5 L 262 361.5 L 262.5 341 Z "/>
    <path fill="#ffa94d" d="M 239.5 50 L 251 50 L 251 76.5 L 250 80.5 Q 252.7 82.3 251 88.5 L 250 90.5 L 250 92.5 L 250 170.5 Q 252.5 172 251 177.5 Q 248.3 179.3 250 185.5 L 251 186.5 L 251 250 L 245.5 251 L 243.5 251 Q 238.8 252.3 237.5 250 L 236.5 251 L 217.5 251 L 215.5 251 L 195.5 251 L 193 248.5 L 193 238.5 L 191 230.5 L 191 223.5 L 189 218.5 L 189 216.5 L 187 205.5 L 182 193.5 L 181 187.5 L 179 185.5 L 178 179.5 L 164 153.5 L 148 131 L 145 129.5 L 140 122 L 138 122 Q 139.1 119.3 136.5 120 L 132.5 115 L 129.5 113 L 123 108 Q 124.1 105.3 121.5 106 L 119 102.5 L 124 99 Q 122.9 96.3 125.5 97 Q 146.4 78.9 173.5 67 L 197.5 58 L 201.5 58 L 208.5 55 L 213.5 55 L 216.5 53 L 218.5 53 L 238.5 51 L 239.5 50 Z "/>
    <path fill="#ffa94d" d="M 264.5 50 L 273.5 50 L 281.5 52 L 296.5 53 L 328.5 62 L 359.5 77 L 392 100.5 L 394 103.5 L 379 116 L 377.5 119 Q 375.3 118.3 376 120.5 L 365.5 132 Q 363.3 131.3 364 133.5 Q 347.9 151.9 337 175.5 L 328 198.5 L 323 217.5 L 324 219.5 L 321 232.5 L 320 250 L 317.5 251 L 264.5 251 L 262 244.5 L 262 242.5 L 263 235.5 L 262 234.5 L 262 145.5 L 261 144.5 L 261 134.5 L 262 133.5 L 262 105.5 L 261 102.5 L 262 99.5 L 262 97.5 L 262 59.5 Q 264.8 57.8 263 51.5 L 264.5 50 Z "/>
    <path fill="#ffa94d" d="M 109.5 112 L 112.5 113 L 124 123.5 Q 123.3 125.8 125.5 125 L 127 128 L 131 130.5 Q 130.3 132.8 132.5 132 Q 152.7 153.3 166 181.5 L 175 205.5 L 181 233.5 L 181 235.5 L 181 249.5 L 179.5 250 Q 178.3 252.3 173.5 251 L 170.5 250 L 169.5 251 L 50 251 L 50 236.5 L 51 235.5 L 51 233.5 L 52 227.5 L 52 225.5 L 52 220.5 L 56 202.5 L 67 172.5 L 83 143.5 L 103 117 Q 105.7 118.1 105 115.5 L 109.5 112 Z "/>
    <path fill="#ffa94d" d="M 402.5 112 L 405 112 L 405 114 Q 407.7 112.9 407 115.5 L 410 117 L 428 140.5 L 436 153.5 L 446 172.5 L 454 193.5 Q 451.5 195 455 196.5 L 460 214.5 L 461 227.5 L 463 231.5 L 463 246.5 L 464 248.5 L 461.5 251 L 334.5 251 L 331 248.5 L 332 247.5 L 332 233.5 L 334 229.5 L 334 227.5 L 338 205.5 L 347 181.5 L 359 159.5 L 372 141 Q 374.7 142.1 374 139.5 L 380.5 132 Q 382.8 132.8 382 130.5 L 388 126 Q 386.9 123.3 389.5 124 L 392.5 120 L 395.5 118 L 402.5 112 Z "/>
    <path fill="#ffa94d" d="M 52.5 262 L 178.5 262 L 182 263 Q 179.9 269.4 181 280.5 L 179 284.5 L 179 286.5 L 178 296.5 L 176 300.5 L 174 311.5 L 165 333.5 Q 151.7 361.2 131.5 382 L 130 382 L 130 384 Q 127.3 382.9 128 385.5 L 125 387 Q 126.1 389.7 123.5 389 L 122 392 L 114.5 398 L 111 399 Q 112.1 401.7 109.5 401 L 102 392 Q 99.3 393.1 100 390.5 L 93 381 Q 90.3 382.1 91 379.5 L 74 354.5 L 62 328.5 L 52 293.5 L 51 279.5 L 50 278.5 L 50 263 L 52.5 262 Z "/>
    <path fill="#ffa94d" d="M 195.5 262 L 249.5 262 L 251 263.5 L 251 459.5 L 250 460.5 Q 252.2 461.8 249.5 463 L 242.5 462 L 239.5 463 L 238.5 462 L 216.5 460 L 213.5 458 L 207.5 458 L 201.5 455 L 197.5 455 L 194.5 453 L 182.5 450 L 153.5 436 L 132 422 Q 133.1 419.3 130.5 420 L 121 413 Q 122 410 119 411 L 119 408 L 128 402 Q 126.9 399.3 129.5 400 L 134 397 L 142 386 Q 144.7 387.1 144 384.5 L 158 368.5 L 171 347.5 L 178 333.5 L 179 327.5 L 182 322.5 L 187 307.5 L 188 298.5 L 190 295.5 L 190 293.5 L 191 282.5 L 193 275.5 L 193 265.5 L 194 264.5 L 193.5 263 L 195.5 262 Z "/>
    <path fill="#ffa94d" d="M 263 262 L 317.5 262 L 320 263 L 320 275.5 L 322 282.5 L 323 295.5 L 328 314.5 L 334 330.5 L 349 359.5 L 367 384 Q 369.7 382.9 369 385.5 L 383.5 400 L 385 400 Q 383.9 402.7 386.5 402 L 392 406 L 392 408 Q 394.7 406.9 394 409.5 L 390.5 414 L 376.5 425 L 357.5 437 L 325.5 452 L 291.5 461 Q 282.9 459.9 278.5 463 L 263.5 463 L 262 461.5 L 262 362.5 L 263 361.5 L 263 341.5 L 262 339.5 L 263 338.5 L 263 329.5 L 263 327.5 L 262 324.5 L 262 288.5 L 263 287.5 L 263 279.5 L 263 277.5 Q 260.5 274 262 266.5 L 263 262 Z "/>
    <path fill="#ffa94d" d="M 332 262 L 460.5 262 L 461.5 263 L 463 262.5 L 464 267.5 L 463 268.5 L 463 280.5 L 461 286.5 L 461 291.5 L 458 306.5 L 455 312.5 L 454 320.5 L 448 336.5 L 430 370 Q 427.3 368.9 428 371.5 L 408 398 L 402.5 401 L 385 385.5 Q 370.4 371.1 359 353.5 L 342 319.5 L 340 310.5 L 338 307.5 L 337 299.5 L 335 296.5 L 335 290.5 L 332 280.5 L 332 262 Z "/>
  </g>
  <g id="line">
    <path fill="#1a1a1a" d="M 245.5 36 L 268.5 36 L 269.5 37 L 289.5 38 L 313.5 43 L 337.5 51 Q 387 71.5 420 108.5 Q 447.8 138.7 464 180.5 L 473 211.5 L 473 216.5 L 476 229.5 L 477 271.5 L 476 272.5 L 476 284.5 L 470 313.5 L 458 346.5 Q 438.8 387.8 407.5 417 L 405 418.5 Q 405.8 420.8 403.5 420 Q 389.6 433.6 372.5 444 Q 353.7 455.7 331.5 464 L 328.5 464 L 313.5 470 L 281.5 476 L 246.5 477 L 245.5 476 L 231.5 476 L 218.5 473 L 212.5 473 L 173.5 461 L 171.5 459 L 154.5 452 L 134.5 440 L 105 417 L 103.5 414 Q 101.3 414.8 102 412.5 L 99 411 L 99 409.5 L 84 393.5 L 69 372.5 L 55 346.5 L 47 326.5 L 43 313.5 L 37 283.5 L 36 241.5 L 37 240.5 L 37 229.5 L 38 228.5 L 40 211.5 L 42 207.5 L 42 203.5 L 46 189.5 L 54 168.5 L 70 138.5 L 90 111 L 93 109.5 L 111.5 90 Q 139.1 66.1 175.5 51 L 212.5 40 L 217.5 40 L 230.5 37 L 244.5 37 L 245.5 36 Z M 240 50 L 239 51 L 217 53 L 178 65 Q 148 77 126 97 L 123 99 L 119 104 L 134 116 L 158 145 L 176 176 L 188 211 L 193 239 L 193 250 L 195 251 L 250 251 L 251 250 L 251 172 L 250 171 L 250 93 L 251 92 L 251 51 L 251 50 L 240 50 Z M 263 50 L 262 53 L 262 98 L 262 100 L 261 103 L 262 249 L 265 251 L 319 251 L 320 250 L 321 233 L 325 215 L 325 210 L 337 176 L 355 145 L 369 128 L 390 108 L 394 103 Q 379 88 360 77 L 329 62 L 297 53 L 275 51 L 274 50 L 263 50 Z M 109 112 L 105 116 Q 106 118 103 117 L 83 144 L 67 173 L 56 203 L 50 234 L 50 251 L 51 251 L 181 251 L 182 249 L 181 247 L 181 233 L 178 217 L 166 182 Q 149 145 121 120 Q 118 121 119 118 L 113 113 L 109 112 Z M 403 112 L 396 118 Q 393 117 394 120 L 391 122 Q 392 124 390 123 Q 363 147 347 182 Q 339 198 335 218 L 332 234 L 332 248 L 332 250 L 333 251 L 463 251 L 464 249 L 463 247 L 463 232 L 461 225 L 461 220 L 452 187 L 434 150 Q 424 132 410 119 Q 411 116 408 117 L 407 114 Q 404 115 405 112 L 403 112 Z M 52 262 L 50 264 L 50 280 L 51 281 L 53 299 L 62 329 L 67 341 Q 83 376 110 401 L 121 392 L 124 390 Q 150 366 166 332 L 172 318 L 178 297 L 181 281 Q 180 270 182 264 L 181 262 L 52 262 Z M 195 262 L 193 264 L 193 275 L 188 303 L 176 338 L 158 369 L 142 388 L 122 406 Q 119 406 119 411 L 129 419 L 149 433 L 173 446 L 208 458 L 223 461 L 237 462 L 238 463 L 251 463 L 251 463 L 251 264 L 250 262 L 195 262 Z M 263 262 L 262 265 L 262 462 L 264 463 L 279 463 L 286 461 L 292 461 L 326 452 L 360 436 L 391 414 Q 394 414 394 409 L 384 400 L 358 373 L 340 344 L 326 308 L 320 274 L 320 263 L 320 262 L 263 262 Z M 332 262 L 331 265 L 332 266 L 332 281 L 335 292 L 335 297 L 344 325 Q 357 356 379 380 L 382 381 L 384 384 Q 386 383 385 386 L 403 401 L 408 398 Q 407 395 410 396 L 430 370 L 448 337 L 454 321 Q 454 312 458 307 L 458 303 L 460 299 L 462 282 L 463 281 L 464 264 L 463 262 L 332 262 Z "/>
  </g>
</svg>
