<svg xmlns="http://www.w3.org/2000/svg" width="512" height="512" viewBox="0 0 512 512">
  <g id="color">
    <path fill="#ffffff" d="M 205.5 141 L 212 141.5 L 204.5 143 L 205.5 141 Z "/>
    <path fill="#ffffff" d="M 301.5 141 Q 307.5 139.5 309 142.5 L 307.5 142 L 301.5 142 L 301.5 141 Z "/>
    <path fill="#ffffff" d="M 201.5 145 L 201 146.5 L 199.5 150 L 199 148.5 L 201.5 145 Z "/>
    <path fill="#ffffff" d="M 280.5 162 L 281 163.5 L 278.5 168 L 278 166.5 L 280.5 162 Z "/>
    <path fill="#ffffff" d="M 233.5 164 L 235 167.5 L 234 167.5 L 233.5 164 Z "/>
    <path fill="#ffffff" d="M 247.5 164 L 254 164.5 L 247.5 165 L 247.5 164 Z "/>
    <path fill="#ffffff" d="M 257.5 164 L 266 164.5 L 257.5 165 L 257.5 164 Z "/>
    <path fill="#ffffff" d="M 339.5 186 L 339 187.5 L 337.5 190 L 338 188.5 L 339.5 186 Z "/>
    <path fill="#ffffff" d="M 49.5 194 L 49 195.5 L 47.5 198 L 48 196.5 L 49.5 194 Z "/>
    <path fill="#ffffff" d="M 36.5 229 L 39.5 233 L 41 233.5 L 39.5 234 L 36 230.5 L 36.5 229 Z "/>
    <path fill="#ffffff" d="M 94.5 263 L 95 276.5 L 94 276.5 L 94.5 263 Z "/>
    <path fill="#ffffff" d="M 418.5 263 L 419 275.5 L 418 275.5 L 418.5 263 Z "/>
    <path fill="#ffffff" d="M 418.5 279 L 419 280.5 L 416 282.5 L 418.5 279 Z "/>
    <path fill="#ffffff" d="M 109.5 281 L 114 281.5 L 109.5 282 L 109.5 281 Z "/>
    <path fill="#ffffff" d="M 389.5 281 L 394 281.5 L 389.5 282 L 389.5 281 Z "/>
    <path fill="#ffffff" d="M 249.5 381 L 255 381.5 L 249.5 382 L 249.5 381 Z "/>
    <path fill="#ffffff" d="M 259.5 381 L 264 381.5 L 259.5 382 L 259.5 381 Z "/>
    <path fill="#ffd43b" d="M 138.5 139 Q 146.5 137.5 149 141.5 L 151 145.5 L 154 162.5 L 165 189.5 Q 175.2 207.3 190.5 220 L 202.5 227 L 208 227 L 209 224.5 L 210 209.5 L 217 194.5 L 217 191.5 L 214.5 189 Q 210 190 209 187.5 Q 203.1 179.4 204 164.5 L 207 151.5 L 208.5 150 L 212.5 151 L 222 160.5 Q 226.7 166.3 228 175.5 L 230.5 178 L 234.5 178 L 242.5 174 L 256.5 172 L 257.5 173 L 265.5 173 L 278.5 178 L 282.5 178 L 285 175.5 L 285 172.5 L 291 160.5 L 299.5 152 L 304.5 150 L 308 158.5 L 309 174.5 L 307 182.5 L 302.5 189 Q 297 188 296 191.5 L 296 194.5 L 303 209.5 L 304 224.5 L 305 227 L 308.5 228 Q 326.2 220.2 337 205.5 L 353 179.5 L 359 162.5 L 362 146.5 L 365.5 140 L 374.5 139 L 391.5 143 L 409.5 151 Q 425.6 160.4 438 173.5 Q 449.6 185.4 458 200.5 L 465 215.5 L 467 225 L 464.5 224 L 446.5 224 Q 430.2 227.2 421 237.5 Q 408.9 249.7 410 274 L 404.5 273 L 388.5 273 Q 374.8 275.3 368 284.5 L 360 301.5 Q 360.7 308.5 359 312 L 350.5 310 L 343.5 310 L 333.5 312 L 323 316 L 323 306.5 L 321 298 Q 315.5 296.8 314 300.5 L 315 316.5 Q 312.3 333.3 305 345.5 L 292.5 360 L 278.5 369 L 270.5 372 L 259.5 373 L 258.5 374 L 257.5 373 L 247.5 373 L 234.5 369 Q 223.8 363.8 216 355.5 Q 198.8 339.2 198 306.5 Q 200.3 305.3 199 300.5 Q 198.3 297.3 193.5 298 L 191 300.5 L 189.5 317 Q 180.2 309.8 163.5 310 L 154 312 L 151 295.5 Q 147.7 285.8 140.5 280 L 134.5 276 L 125.5 273 L 108.5 273 L 103 274 Q 104 246.3 88.5 234 Q 81.7 227.8 71.5 225 L 66.5 224 L 48.5 224 L 45 225 Q 55.1 192.4 77.5 171 L 80.5 169 Q 101.4 145.9 138.5 139 Z M 233 203 L 228 209 Q 227 215 229 217 L 232 218 L 236 217 Q 241 215 240 206 Q 239 202 233 203 Z M 276 203 L 273 206 L 274 214 L 280 218 L 284 217 L 285 215 L 284 207 Q 283 202 276 203 Z M 251 222 L 244 225 L 240 230 Q 238 237 242 239 Q 241 241 244 240 L 247 246 L 254 250 Q 261 251 264 248 L 267 243 L 270 241 L 273 237 L 272 228 Q 266 220 251 222 Z "/>
    <path fill="#ffd43b" d="M 250.5 230 L 262.5 230 L 265 231 L 263.5 235 L 260 237.5 Q 260.5 241.5 257.5 242 Q 253.5 242.5 253 239.5 Q 253.5 235.5 250.5 235 L 248 233.5 L 250.5 230 Z "/>
  </g>
  <g id="line">
    <path fill="#1a1a1a" d="M 137.5 131 Q 152.5 129.5 157 138.5 L 161 157.5 L 167 174.5 Q 175.6 194.9 190.5 209 L 197.5 215 L 201 216 L 202 207.5 L 206 195.5 Q 199.3 190.7 197 181.5 L 196 162.5 L 199 150.5 L 203.5 143 L 212.5 142 Q 221.5 146 227 153.5 L 233 163.5 L 234 168 L 245.5 165 L 256.5 164 L 257.5 165 L 267.5 165 L 279 168 Q 282.4 153.9 293.5 146 L 300.5 142 L 307.5 142 L 311 144.5 Q 318.2 155.8 317 175.5 L 315 184.5 Q 312.6 191.6 307 195.5 L 307 197.5 L 310 204.5 L 312 216 L 315.5 215 L 327 204.5 Q 338.2 192.7 345 176.5 L 352 157.5 L 355 140.5 L 361.5 133 Q 366.2 129.7 375.5 131 L 399.5 137 L 413.5 144 Q 434.4 155.6 449 173.5 Q 468.7 195.3 477 228.5 L 473.5 233 L 468.5 234 L 463.5 232 L 447.5 232 Q 432.8 235.3 425 245.5 Q 416.7 255.7 418 275.5 L 419 278.5 L 415.5 283 L 411.5 284 Q 403.6 279.4 389.5 281 Q 378.4 283.4 373 291.5 L 368 303.5 L 368 316.5 L 364.5 321 L 360.5 322 Q 353.6 316.9 339.5 319 Q 326.6 321.6 320 330.5 Q 313 354.5 295.5 368 L 275.5 379 L 255.5 382 L 254.5 381 L 246.5 381 L 237.5 379 L 226.5 374 Q 214.1 367.4 206 356.5 Q 197.4 345.6 193 330.5 L 187.5 325 L 173.5 319 L 159.5 319 L 150.5 322 L 146 318.5 L 145 316.5 Q 146.3 306.2 144 299.5 Q 140.8 290.2 133.5 285 Q 125.5 279 109.5 281 L 99.5 284 L 95 280.5 L 94 277.5 L 95 276.5 L 95 263.5 L 90 248.5 L 81.5 239 Q 75.1 233.9 65.5 232 L 49.5 232 L 41.5 234 L 37 230.5 L 36 225.5 Q 49.1 183.1 79.5 158 Q 93.5 146 111.5 138 L 126.5 133 L 137.5 131 Z M 139 139 Q 101 146 81 169 L 78 171 Q 55 192 45 225 L 49 224 L 67 224 L 72 225 Q 82 228 89 234 Q 104 246 103 274 L 109 273 L 126 273 L 135 276 L 141 280 Q 148 286 151 296 L 154 312 L 164 310 Q 180 310 190 317 L 191 301 L 194 298 Q 198 297 199 301 Q 200 305 198 307 Q 199 339 216 356 Q 224 364 235 369 L 248 373 L 258 373 L 259 374 L 260 373 L 271 372 L 279 369 L 293 360 L 305 346 Q 312 333 315 317 L 314 301 Q 316 297 321 298 L 323 307 L 323 316 L 334 312 L 344 310 L 351 310 L 359 312 Q 361 309 360 302 L 368 285 Q 375 275 389 273 L 405 273 L 410 274 Q 409 250 421 238 Q 430 227 447 224 L 465 224 L 467 225 L 465 216 L 458 201 Q 450 185 438 174 Q 426 160 410 151 L 392 143 L 375 139 L 366 140 L 362 147 L 359 163 L 353 180 L 337 206 Q 326 220 309 228 L 305 227 L 304 225 L 303 210 L 296 195 L 296 192 Q 297 188 303 189 L 307 183 L 309 175 L 308 159 L 305 150 L 300 152 L 291 161 L 285 173 L 285 176 L 283 178 L 279 178 L 266 173 L 258 173 L 257 172 L 243 174 L 235 178 L 231 178 L 228 176 Q 227 166 222 161 L 213 151 L 209 150 L 207 152 L 204 165 Q 203 179 209 188 Q 210 190 215 189 L 217 192 L 217 195 L 210 210 L 209 225 L 208 227 L 203 227 L 191 220 Q 175 207 165 190 L 154 163 L 151 146 L 149 142 Q 146 138 139 139 Z "/>
    <path fill="#1a1a1a" d="M 232.5 203 Q 238.8 201.8 240 205.5 Q 241.3 214.8 235.5 217 L 231.5 218 L 229 217 Q 227.3 214.6 228 208.5 L 232.5 203 Z "/>
    <path fill="#1a1a1a" d="M 275.5 203 Q 282.8 201.8 284 206.5 L 285 214.5 L 284 217 L 279.5 218 L 274 213.5 L 273 205.5 L 275.5 203 Z "/>
    <path fill="#1a1a1a" d="M 250.5 222 Q 266.2 219.8 272 227.5 L 273 236.5 L 269.5 241 L 267 242.5 L 263.5 248 Q 260.5 251 253.5 250 L 247 245.5 L 243.5 240 Q 241.3 240.8 242 238.5 Q 238.2 236.8 240 229.5 L 243.5 225 L 250.5 222 Z M 251 230 L 248 234 L 251 235 Q 254 236 253 240 Q 254 243 258 242 Q 261 241 260 238 L 264 235 L 265 231 L 263 230 L 251 230 Z "/>
  </g>
</svg>
