<svg xmlns="http://www.w3.org/2000/svg" width="512" height="512" viewBox="0 0 512 512">
  <g id="color">
    <path fill="#ffffff" d="M 245.5 37 L 277 37.5 L 245.5 38 L 245.5 37 Z "/>
    <path fill="#ffffff" d="M 237.5 38 L 242 38.5 L 237.5 39 L 237.5 38 Z "/>
    <path fill="#ffffff" d="M 285.5 39 Q 292.9 40.1 296 45.5 L 291.5 42 L 285.5 40 L 285.5 39 Z "/>
    <path fill="#ffffff" d="M 223.5 42 L 225 42.5 L 219.5 47 L 223.5 42 Z "/>
    <path fill="#ffffff" d="M 296.5 47 L 299 51.5 L 298 51.5 L 296.5 47 Z "/>
    <path fill="#ffffff" d="M 218.5 48 L 219 49.5 L 216.5 54 L 216 52.5 L 218.5 48 Z "/>
    <path fill="#ffffff" d="M 215.5 56 L 216 58.5 L 214.5 64 L 214 59.5 L 215.5 56 Z "/>
    <path fill="#ffffff" d="M 300.5 58 L 302 68.5 L 301 68.5 L 300.5 58 Z "/>
    <path fill="#ffffff" d="M 302.5 71 L 303.5 72 L 314 72.5 L 303.5 73 L 302.5 71 Z "/>
    <path fill="#ffffff" d="M 193.5 73 L 202 73.5 L 186.5 75 L 186.5 74 Q 192 75.5 193.5 73 Z "/>
    <path fill="#ffffff" d="M 320.5 73 L 333 74.5 L 327.5 75 Q 326 72.5 320.5 74 L 320.5 73 Z "/>
    <path fill="#ffffff" d="M 178.5 75 L 183 75.5 L 178.5 76 L 178.5 75 Z "/>
    <path fill="#ffffff" d="M 171.5 76 L 176 76.5 L 168.5 78 L 168.5 77 L 171.5 76 Z "/>
    <path fill="#ffffff" d="M 341.5 76 L 348 77.5 L 345.5 78 L 341.5 77 L 341.5 76 Z "/>
    <path fill="#ffffff" d="M 161.5 79 L 163 79.5 L 159.5 81 L 159.5 80 L 161.5 79 Z "/>
    <path fill="#ffffff" d="M 352.5 79 L 356 80.5 L 354.5 81 L 352.5 79 Z "/>
    <path fill="#ffffff" d="M 357.5 81 L 364 86.5 L 359.5 83 L 357.5 81 Z "/>
    <path fill="#ffffff" d="M 364.5 88 L 366 91.5 L 365 91.5 L 364.5 88 Z "/>
    <path fill="#ffffff" d="M 147.5 94 L 148 101.5 L 147 101.5 L 147.5 94 Z "/>
    <path fill="#ffffff" d="M 367.5 100 L 368 110.5 L 369 111.5 L 369 126.5 L 368 126.5 L 367.5 100 Z "/>
    <path fill="#ffffff" d="M 146.5 103 L 147 112.5 L 146 112.5 L 146.5 103 Z "/>
    <path fill="#ffffff" d="M 145.5 119 L 146 129.5 L 145 129.5 L 145.5 119 Z "/>
    <path fill="#ffffff" d="M 369.5 132 L 370 148.5 L 369 148.5 L 369.5 132 Z "/>
    <path fill="#ffffff" d="M 144.5 135 L 145 153.5 L 144 153.5 L 144.5 135 Z "/>
    <path fill="#ffffff" d="M 143.5 156 L 144 173.5 L 143 173.5 L 143.5 156 Z "/>
    <path fill="#ffffff" d="M 370.5 163 L 371 185.5 L 370 185.5 L 370.5 163 Z "/>
    <path fill="#ffffff" d="M 371.5 187 L 372 222.5 L 371 222.5 L 371.5 187 Z "/>
    <path fill="#ffffff" d="M 142.5 192 L 143 215.5 L 142 215.5 L 142.5 192 Z "/>
    <path fill="#ffffff" d="M 141.5 231 L 142 317.5 L 141 317.5 L 141.5 231 Z "/>
    <path fill="#ffffff" d="M 372.5 236 L 373 321.5 L 372 321.5 L 372.5 236 Z "/>
    <path fill="#ffffff" d="M 142.5 333 L 143 357.5 L 142 357.5 L 142.5 333 Z "/>
    <path fill="#ffffff" d="M 371.5 335 L 372 368.5 L 371 368.5 L 371.5 335 Z "/>
    <path fill="#ffffff" d="M 370.5 370 L 371 385.5 L 370 385.5 L 370.5 370 Z "/>
    <path fill="#ffffff" d="M 143.5 372 L 144 388.5 L 143 388.5 L 143.5 372 Z "/>
    <path fill="#ffffff" d="M 144.5 390 L 145 406.5 L 144 406.5 L 144.5 390 Z "/>
    <path fill="#ffffff" d="M 369.5 396 L 370 408.5 L 369 408.5 L 369.5 396 Z "/>
    <path fill="#ffffff" d="M 145.5 411 L 146 420.5 L 145 420.5 L 145.5 411 Z "/>
    <path fill="#ffffff" d="M 368.5 413 L 369 425.5 L 368 426.5 L 367.5 436 L 367 426.5 L 368 425.5 L 368.5 413 Z "/>
    <path fill="#ffffff" d="M 146.5 427 L 147 436.5 L 146 436.5 L 146.5 427 Z "/>
    <path fill="#ffffff" d="M 147.5 438 L 148 446.5 L 147 446.5 L 147.5 438 Z "/>
    <path fill="#ffffff" d="M 366.5 442 L 367 447.5 L 366 447.5 L 366.5 442 Z "/>
    <path fill="#ffffff" d="M 365.5 450 L 366 452.5 L 364.5 455 L 364 453.5 L 365.5 450 Z "/>
    <path fill="#ffffff" d="M 149.5 453 L 152 457.5 L 150 456.5 L 149.5 453 Z "/>
    <path fill="#ffffff" d="M 363.5 456 L 363 457.5 L 359.5 462 L 362 458.5 L 363.5 456 Z "/>
    <path fill="#ffffff" d="M 156.5 462 L 161 464.5 L 159.5 465 L 156.5 462 Z "/>
    <path fill="#ffffff" d="M 357.5 462 L 356.5 464 L 353.5 465 L 353.5 464 L 357.5 462 Z "/>
    <path fill="#ffffff" d="M 162.5 465 L 170 467.5 L 167.5 468 L 162.5 466 L 162.5 465 Z "/>
    <path fill="#ffffff" d="M 351.5 465 L 350.5 467 L 345.5 468 L 345.5 467 L 351.5 465 Z "/>
    <path fill="#ffffff" d="M 176.5 469 L 181 469.5 L 176.5 470 L 176.5 469 Z "/>
    <path fill="#ffffff" d="M 333.5 469 L 339 469.5 L 328.5 471 L 328.5 470 L 333.5 469 Z "/>
    <path fill="#ffffff" d="M 182.5 470 L 187 470.5 L 182.5 471 L 182.5 470 Z "/>
    <path fill="#ffffff" d="M 191.5 471 L 197 471.5 L 191.5 472 L 191.5 471 Z "/>
    <path fill="#ffffff" d="M 319.5 471 L 324 471.5 L 319.5 472 L 319.5 471 Z "/>
    <path fill="#ffffff" d="M 199.5 472 L 209 472.5 L 199.5 473 L 199.5 472 Z "/>
    <path fill="#ffffff" d="M 307.5 472 L 317 472.5 L 307.5 473 L 307.5 472 Z "/>
    <path fill="#ffffff" d="M 210.5 473 L 219 473.5 L 210.5 474 L 210.5 473 Z "/>
    <path fill="#ffffff" d="M 296.5 473 L 306 473.5 L 296.5 474 L 296.5 473 Z "/>
    <path fill="#ffffff" d="M 226.5 474 L 236 474.5 L 226.5 475 L 226.5 474 Z "/>
    <path fill="#ffffff" d="M 277.5 474 L 288 474.5 L 277.5 475 L 277.5 474 Z "/>
    <path fill="#ffffff" d="M 240.5 475 L 272 475.5 L 240.5 476 L 240.5 475 Z "/>
    <path fill="#66d9e8" d="M 245.5 49 L 275.5 49 L 284.5 51 L 287 53.5 L 290 69.5 L 287.5 72 L 226.5 72 Q 224.3 71.3 225 67.5 L 227 57.5 L 230.5 52 L 245.5 49 Z "/>
    <path fill="#66d9e8" d="M 230.5 83 L 296.5 83 L 297.5 84 L 324.5 85 L 344.5 89 L 354 93.5 L 356 101.5 L 356 113.5 L 357 114.5 L 359 183.5 L 360 184.5 L 361 337.5 L 360 338.5 L 360 373.5 L 359 374.5 L 359 390.5 L 358 391.5 L 357 427.5 L 356 428.5 L 355 447.5 L 350.5 454 L 336.5 458 L 318.5 460 L 317.5 461 L 288.5 462 L 287.5 463 L 274.5 463 L 273.5 464 L 238.5 464 L 237.5 463 L 189.5 460 L 165.5 455 L 161 451.5 Q 157.9 445.9 159 437 L 189.5 443 L 208.5 444 L 219.5 446 L 232.5 446 L 233.5 447 L 280.5 447 L 281.5 446 L 290.5 446 L 297.5 444 L 304.5 444 L 317.5 441 Q 327.9 437.9 334 430.5 L 339 421.5 L 342 410.5 L 344 372.5 Q 341.2 370.8 343 364.5 L 341.5 363 L 338 364.5 L 337 366.5 L 337 380.5 L 337 382.5 L 338 388.5 L 337 389.5 L 336 406.5 L 333 419.5 Q 330.4 426.9 324.5 431 L 311.5 436 L 288.5 440 L 241.5 441 L 240.5 440 L 221.5 440 L 220.5 439 L 210.5 439 L 209.5 438 L 184.5 436 L 162.5 431 L 158 428.5 Q 155.6 423.4 157 414.5 L 156 413.5 L 155 363.5 L 154 362.5 L 154 333.5 L 153 332.5 L 153 224.5 L 154 223.5 L 154 188.5 L 155 187.5 L 156 134.5 L 157 133.5 L 159 95.5 L 161 92 L 169.5 89 L 186.5 86 L 212.5 85 L 213.5 84 L 229.5 84 L 230.5 83 Z M 260 106 L 258 107 Q 240 121 231 144 L 232 153 L 238 156 L 249 158 L 245 175 L 245 185 L 248 187 L 255 186 L 278 158 L 283 148 L 282 139 L 279 136 L 268 135 L 266 134 L 270 115 L 269 109 Q 267 104 260 106 Z M 252 261 L 243 265 L 235 274 L 232 283 L 232 291 L 238 304 Q 244 310 254 312 Q 267 312 274 306 Q 280 300 282 290 L 281 280 L 275 269 L 260 261 L 252 261 Z M 340 337 L 337 340 Q 336 345 338 347 Q 336 352 342 350 L 343 349 L 343 339 L 340 337 Z "/>
    <path fill="#66d9e8" d="M 260.5 113 L 263 113 L 263 119.5 L 259 131.5 L 259 138.5 L 262.5 141 L 274.5 141 L 277 143.5 L 277 146.5 L 271 156.5 L 253.5 178 Q 251.3 178.8 252 176.5 L 251 174.5 L 256 159.5 L 256 154.5 L 253.5 152 L 240.5 151 L 237 148.5 L 238 142.5 L 245 130.5 L 258.5 114 L 260.5 113 Z "/>
    <path fill="#66d9e8" d="M 251.5 267 L 254 268.5 L 254.5 270 L 263.5 270 L 273 276.5 L 276 284.5 L 276 289.5 L 271 300 L 269 300 Q 270.1 302.7 267.5 302 Q 264 306.5 255.5 306 Q 245.5 304.5 241 297.5 Q 236.9 293.1 238 283.5 Q 240 273.5 247.5 269 L 251.5 267 Z M 256 283 Q 254 286 249 284 L 247 286 Q 247 290 250 290 L 264 290 L 266 289 L 267 287 L 266 284 Q 263 282 256 283 Z "/>
  </g>
  <g id="line">
    <path fill="#1a1a1a" d="M 242.5 38 L 278.5 38 L 287.5 40 L 296 46.5 L 299 52.5 L 301 68.5 L 303.5 73 L 319.5 73 L 320.5 74 L 340.5 76 L 356.5 81 L 364 87.5 L 367 97.5 L 368 126.5 L 369 127.5 L 369 148.5 L 370 149.5 L 370 185.5 L 371 186.5 L 371 222.5 L 372 223.5 L 372 334.5 L 371 335.5 L 371 369.5 L 370 370.5 L 370 395.5 L 369 396.5 L 369 412.5 L 368 413.5 L 368 425.5 L 367 426.5 L 367 441.5 L 364 455.5 L 358.5 462 L 344.5 468 L 333.5 469 L 327.5 471 L 319.5 471 L 318.5 472 L 307.5 472 L 306.5 473 L 296.5 473 L 295.5 474 L 277.5 474 L 276.5 475 L 236.5 475 L 235.5 474 L 219.5 474 L 218.5 473 L 197.5 472 L 196.5 471 L 187.5 471 L 186.5 470 L 175.5 469 L 161.5 465 L 152 458.5 L 148 448.5 L 148 438.5 L 147 437.5 L 147 427.5 L 146 426.5 L 146 411.5 L 145 410.5 L 144 372.5 L 143 371.5 L 143 333.5 L 142 332.5 L 142 216.5 L 143 215.5 L 143 174.5 L 144 173.5 L 144 154.5 L 145 153.5 L 146 113.5 L 147 112.5 L 148 93.5 L 153.5 84 L 163.5 79 L 176.5 76 L 213 73 L 216 54.5 L 219 47.5 L 223.5 43 L 230.5 40 L 241.5 39 L 242.5 38 Z M 246 49 L 231 52 L 227 58 L 225 68 Q 224 72 226 72 L 290 72 L 287 54 L 285 51 L 276 49 L 246 49 Z M 231 83 L 230 84 L 214 84 L 213 85 L 187 86 L 170 89 L 161 92 L 159 96 L 157 134 L 156 135 L 155 188 L 154 189 L 154 224 L 153 225 L 153 333 L 154 334 L 154 363 L 155 364 L 156 414 L 157 415 Q 156 423 158 429 L 163 431 L 185 436 L 210 438 L 211 439 L 221 439 L 222 440 L 241 440 L 242 441 L 289 440 L 312 436 L 325 431 Q 330 427 333 420 L 336 407 L 337 390 L 338 389 L 337 383 L 337 381 L 337 367 L 338 365 L 342 363 L 343 365 Q 341 371 344 373 L 342 411 L 339 422 L 334 431 Q 328 438 318 441 L 305 444 L 298 444 L 291 446 L 282 446 L 281 447 L 234 447 L 233 446 L 220 446 L 209 444 L 190 443 L 159 437 Q 158 446 161 452 L 166 455 L 190 460 L 238 463 L 239 464 L 274 464 L 275 463 L 288 463 L 289 462 L 318 461 L 319 460 L 337 458 L 351 454 L 355 448 L 356 429 L 357 428 L 358 392 L 359 391 L 359 375 L 360 374 L 360 339 L 361 338 L 360 185 L 359 184 L 357 115 L 356 114 L 356 102 L 354 94 L 345 89 L 325 85 L 298 84 L 297 83 L 231 83 Z "/>
    <path fill="#1a1a1a" d="M 259.5 106 Q 267.2 104.2 269 108.5 L 270 114.5 L 266 133.5 L 267.5 135 L 278.5 136 L 282 138.5 L 283 147.5 L 278 157.5 L 254.5 186 L 247.5 187 L 245 184.5 L 245 174.5 L 249 158 L 237.5 156 L 232 152.5 L 231 143.5 Q 240.5 121.5 257.5 107 L 259.5 106 Z M 262 112 L 259 114 L 245 131 L 238 143 L 237 149 L 241 151 L 254 152 L 256 155 L 256 160 L 251 175 Q 250 178 253 179 L 271 157 L 277 147 L 277 144 L 275 141 L 263 141 L 259 139 L 259 132 L 263 120 L 263 113 L 262 112 Z "/>
    <path fill="#1a1a1a" d="M 251.5 261 L 259.5 261 L 275 269 L 281 279.5 L 282 289.5 Q 280 300 273.5 306 Q 266.7 312.2 253.5 312 Q 243.8 309.7 238 303.5 L 232 290.5 L 232 282.5 L 235 273.5 L 242.5 265 L 251.5 261 Z M 252 267 L 248 269 Q 240 274 238 284 Q 237 293 241 298 Q 245 305 256 306 Q 264 307 268 302 Q 270 303 269 300 L 271 300 L 276 290 L 276 285 L 273 277 L 264 270 L 255 270 L 254 269 L 252 267 Z "/>
    <path fill="#1a1a1a" d="M 255.5 283 Q 263 282 266 284 L 267 286.5 L 266 289 L 263.5 290 L 249.5 290 Q 246.5 289.5 247 285.5 L 248.5 284 Q 254 285.5 255.5 283 Z "/>
    <path fill="#1a1a1a" d="M 339.5 337 L 343 338.5 L 343 348.5 L 341.5 350 Q 336.3 351.8 338 346.5 Q 335.5 345 337 339.5 L 339.5 337 Z "/>
  </g>
</svg>
