<svg xmlns="http://www.w3.org/2000/svg" width="512" height="512" viewBox="0 0 512 512">
  <g id="color">
    <path fill="#ffffff" d="M 134.5 76 L 160 76.5 L 134.5 77 L 134.5 76 Z "/>
    <path fill="#ffffff" d="M 121.5 77 L 129 77.5 L 114.5 79 L 114.5 78 Q 120 79.5 121.5 77 Z "/>
    <path fill="#ffffff" d="M 164.5 77 L 176 78.5 L 171.5 79 Q 170 76.5 164.5 78 L 164.5 77 Z "/>
    <path fill="#ffffff" d="M 103.5 80 L 108 80.5 L 100.5 82 L 100.5 81 L 103.5 80 Z "/>
    <path fill="#ffffff" d="M 183.5 80 L 191 81.5 L 188.5 82 L 183.5 81 L 183.5 80 Z "/>
    <path fill="#ffffff" d="M 95.5 82 L 98 82.5 L 92.5 84 L 92.5 83 L 95.5 82 Z "/>
    <path fill="#ffffff" d="M 193.5 82 L 202 84.5 L 200.5 85 L 193.5 83 L 193.5 82 Z "/>
    <path fill="#ffffff" d="M 85.5 85 L 88 85.5 L 82.5 87 L 82.5 86 L 85.5 85 Z "/>
    <path fill="#ffffff" d="M 203.5 85 L 208 86.5 L 206.5 87 L 203.5 86 L 203.5 85 Z "/>
    <path fill="#ffffff" d="M 79.5 87 L 81 87.5 L 74.5 90 L 74.5 89 L 79.5 87 Z "/>
    <path fill="#ffffff" d="M 210.5 87 L 217 89.5 L 215.5 90 L 210.5 88 L 210.5 87 Z "/>
    <path fill="#ffffff" d="M 71.5 90 L 73 90.5 L 69.5 92 L 69.5 91 L 71.5 90 Z "/>
    <path fill="#ffffff" d="M 218.5 90 L 222 91.5 L 220.5 92 L 218.5 90 Z "/>
    <path fill="#ffffff" d="M 67.5 92 L 66.5 94 L 63.5 95 L 64.5 93 L 67.5 92 Z "/>
    <path fill="#ffffff" d="M 224.5 92 L 230 94.5 L 228.5 95 Q 224.5 94.5 224.5 92 Z "/>
    <path fill="#ffffff" d="M 231.5 95 L 235 96.5 L 233.5 97 L 231.5 95 Z "/>
    <path fill="#ffffff" d="M 56.5 97 L 58 97.5 L 53.5 100 L 54.5 98 L 56.5 97 Z "/>
    <path fill="#ffffff" d="M 236.5 97 L 242 99.5 L 240.5 100 L 236.5 98 L 236.5 97 Z "/>
    <path fill="#ffffff" d="M 51.5 100 L 50.5 102 L 48.5 103 L 49.5 101 L 51.5 100 Z "/>
    <path fill="#ffffff" d="M 247.5 102 L 253 104.5 L 251.5 105 L 247.5 103 L 247.5 102 Z "/>
    <path fill="#ffffff" d="M 43.5 105 L 41.5 108 L 37.5 111 L 40.5 107 L 43.5 105 Z "/>
    <path fill="#ffffff" d="M 458.5 105 L 461 105.5 L 457.5 107 L 458.5 105 Z "/>
    <path fill="#ffffff" d="M 466.5 105 L 470 106.5 L 468.5 106 Q 465.5 106.5 466.5 105 Z "/>
    <path fill="#ffffff" d="M 258.5 107 L 264 109.5 L 262.5 110 L 258.5 108 L 258.5 107 Z "/>
    <path fill="#ffffff" d="M 471.5 108 Q 473.8 107.3 473 109.5 Q 477.2 113.3 476 122.5 L 475 122.5 L 474 111.5 L 471.5 108 Z "/>
    <path fill="#ffffff" d="M 265.5 110 L 269 111.5 L 267.5 112 L 265.5 110 Z "/>
    <path fill="#ffffff" d="M 449.5 110 L 448.5 112 L 442.5 115 L 443.5 113 L 449.5 110 Z "/>
    <path fill="#ffffff" d="M 36.5 112 L 37 114.5 L 36 115.5 L 36 195.5 L 37 196.5 L 37 219.5 L 36 219.5 L 36 196.5 L 35 195.5 L 35 114.5 L 36.5 112 Z "/>
    <path fill="#ffffff" d="M 270.5 112 L 276 114.5 L 274.5 115 L 270.5 113 L 270.5 112 Z "/>
    <path fill="#ffffff" d="M 277.5 115 L 281 116.5 L 279.5 117 L 277.5 115 Z "/>
    <path fill="#ffffff" d="M 439.5 115 L 441 115.5 L 437.5 117 L 437.5 116 L 439.5 115 Z "/>
    <path fill="#ffffff" d="M 284.5 118 L 289 119.5 L 286.5 120 L 284.5 118 Z "/>
    <path fill="#ffffff" d="M 432.5 118 L 434 118.5 L 430.5 120 L 430.5 119 L 432.5 118 Z "/>
    <path fill="#ffffff" d="M 461.5 118 Q 464.3 117.4 463 123.5 L 464 124.5 L 464 160.5 L 463 161.5 L 463 184.5 L 462 185.5 L 461 212.5 L 460 213.5 L 459 252.5 Q 456.3 254.3 458 260.5 L 455.5 263 L 429.5 275 L 409.5 281 L 404.5 281 L 392.5 284 L 367.5 285 L 366.5 284 L 354.5 284 L 353.5 283 L 335.5 281 L 316.5 276 L 292.5 268 L 260 253.5 L 259 143.5 L 258 142.5 L 258 121 L 287.5 133 L 323.5 143 L 328.5 143 L 335.5 145 L 346.5 145 L 347.5 146 L 375.5 146 L 376.5 145 L 385.5 145 L 410.5 140 L 413.5 138 L 439.5 130 L 461.5 118 Z "/>
    <path fill="#ffffff" d="M 290.5 120 L 297 122.5 L 295.5 123 L 290.5 121 L 290.5 120 Z "/>
    <path fill="#ffffff" d="M 427.5 120 L 429 120.5 L 422.5 123 L 422.5 122 L 427.5 120 Z "/>
    <path fill="#ffffff" d="M 298.5 123 L 303 124.5 L 301.5 125 L 298.5 124 L 298.5 123 Z "/>
    <path fill="#ffffff" d="M 419.5 123 L 421 123.5 L 417.5 125 L 417.5 124 L 419.5 123 Z "/>
    <path fill="#ffffff" d="M 305.5 125 L 314 127.5 L 311.5 128 L 305.5 126 L 305.5 125 Z "/>
    <path fill="#ffffff" d="M 413.5 125 L 415 125.5 L 410.5 127 L 410.5 126 L 413.5 125 Z "/>
    <path fill="#ffffff" d="M 315.5 128 L 322 129.5 L 319.5 130 L 315.5 129 L 315.5 128 Z "/>
    <path fill="#ffffff" d="M 401.5 128 L 405 128.5 L 398.5 130 L 398.5 129 L 401.5 128 Z "/>
    <path fill="#ffffff" d="M 324.5 130 L 335 131.5 L 329.5 132 L 324.5 131 L 324.5 130 Z "/>
    <path fill="#ffffff" d="M 386.5 131 L 391 131.5 L 386.5 132 L 386.5 131 Z "/>
    <path fill="#ffffff" d="M 337.5 132 L 343 132.5 L 337.5 133 L 337.5 132 Z "/>
    <path fill="#ffffff" d="M 378.5 132 L 384 132.5 L 378.5 133 L 378.5 132 Z "/>
    <path fill="#ffffff" d="M 346.5 133 L 376 133.5 L 346.5 134 L 346.5 133 Z "/>
    <path fill="#ffffff" d="M 476.5 134 L 477 147.5 L 476 147.5 L 476.5 134 Z "/>
    <path fill="#ffffff" d="M 475.5 162 L 476 176.5 L 475 177.5 L 474.5 193 L 474 177.5 L 475 176.5 L 475.5 162 Z "/>
    <path fill="#ffffff" d="M 473.5 196 L 474 206.5 L 473 206.5 L 473.5 196 Z "/>
    <path fill="#ffffff" d="M 472.5 212 L 473 227.5 L 472 228.5 L 471.5 244 L 471 227.5 L 472 226.5 L 472.5 212 Z "/>
    <path fill="#ffffff" d="M 37.5 232 L 38 251.5 L 39 252.5 L 39 276.5 L 38 276.5 L 37.5 232 Z "/>
    <path fill="#ffffff" d="M 127.5 233 L 163.5 233 L 164.5 234 L 172.5 234 Q 179 237 188.5 237 L 228.5 249 L 253 259 L 253 274.5 L 254 275.5 L 254 330.5 L 255 331.5 L 256 392.5 L 257 393.5 Q 256.3 395.8 252.5 395 L 234.5 387 L 200.5 377 L 195.5 377 L 184.5 374 L 160.5 373 L 157.5 372 L 156.5 373 L 131.5 374 L 106.5 379 L 78.5 389 L 59.5 399 L 57 399 L 57 389.5 L 56 388.5 L 56 371.5 L 55 370.5 L 54 331.5 L 53 330.5 L 52 283.5 L 51 282.5 L 51 265.5 L 50 263.5 L 68.5 251 L 89.5 242 L 109.5 236 Q 116.2 236.7 119.5 234 L 126.5 234 L 127.5 233 Z "/>
    <path fill="#ffffff" d="M 470.5 253 L 471 285.5 L 470 285.5 L 470.5 253 Z "/>
    <path fill="#ffffff" d="M 39.5 282 L 40 295.5 L 39 295.5 L 39.5 282 Z "/>
    <path fill="#ffffff" d="M 469.5 290 L 470 300.5 L 469 300.5 L 469.5 290 Z "/>
    <path fill="#ffffff" d="M 40.5 302 L 42 335.5 L 41 335.5 L 40.5 302 Z "/>
    <path fill="#ffffff" d="M 470.5 306 L 471 339.5 L 470 339.5 L 470.5 306 Z "/>
    <path fill="#ffffff" d="M 42.5 346 L 43 359.5 L 42 359.5 L 42.5 346 Z "/>
    <path fill="#ffffff" d="M 471.5 349 L 473 379.5 L 472 379.5 L 471.5 349 Z "/>
    <path fill="#ffffff" d="M 43.5 361 L 44 377.5 L 43 377.5 L 43.5 361 Z "/>
    <path fill="#ffffff" d="M 44.5 383 L 45 395.5 L 44 395.5 L 44.5 383 Z "/>
    <path fill="#ffffff" d="M 153.5 384 L 163 384.5 L 153.5 385 L 153.5 384 Z "/>
    <path fill="#ffffff" d="M 136.5 385 L 144 385.5 L 131.5 387 L 131.5 386 L 136.5 385 Z "/>
    <path fill="#ffffff" d="M 170.5 385 L 178.5 385 L 185 386.5 L 178.5 387 Q 176.8 384.3 170.5 386 L 170.5 385 Z "/>
    <path fill="#ffffff" d="M 473.5 385 L 474 398.5 L 473 398.5 L 473.5 385 Z "/>
    <path fill="#ffffff" d="M 119.5 388 L 124 388.5 L 116.5 390 L 116.5 389 L 119.5 388 Z "/>
    <path fill="#ffffff" d="M 111.5 390 L 114 390.5 L 108.5 392 L 108.5 391 L 111.5 390 Z "/>
    <path fill="#ffffff" d="M 202.5 390 L 208 391.5 L 205.5 392 L 202.5 391 L 202.5 390 Z "/>
    <path fill="#ffffff" d="M 104.5 392 L 106 392.5 L 98.5 395 L 98.5 394 L 104.5 392 Z "/>
    <path fill="#ffffff" d="M 95.5 395 L 97 395.5 L 90.5 398 L 90.5 397 L 95.5 395 Z "/>
    <path fill="#ffffff" d="M 219.5 395 L 227 397.5 L 225.5 398 L 219.5 396 L 219.5 395 Z "/>
    <path fill="#ffffff" d="M 87.5 398 L 89 398.5 L 85.5 400 L 85.5 399 L 87.5 398 Z "/>
    <path fill="#ffffff" d="M 228.5 398 L 233 399.5 L 231.5 400 L 228.5 399 L 228.5 398 Z "/>
    <path fill="#ffffff" d="M 45.5 400 L 47 406.5 L 45 405.5 L 45.5 400 Z "/>
    <path fill="#ffffff" d="M 82.5 400 L 84 400.5 L 80.5 402 L 80.5 401 L 82.5 400 Z "/>
    <path fill="#ffffff" d="M 234.5 400 L 238 401.5 L 236.5 402 L 234.5 400 Z "/>
    <path fill="#ffffff" d="M 75.5 403 L 77 403.5 L 64.5 410 L 65.5 408 L 75.5 403 Z "/>
    <path fill="#ffffff" d="M 241.5 403 L 245 404.5 L 243.5 405 L 241.5 403 Z "/>
    <path fill="#ffffff" d="M 470.5 404 L 467.5 408 L 460.5 412 L 461.5 410 L 470.5 404 Z "/>
    <path fill="#ffffff" d="M 246.5 405 L 250 406.5 L 248.5 407 L 246.5 405 Z "/>
    <path fill="#ffffff" d="M 47.5 408 L 52 411.5 L 50.5 412 L 47.5 408 Z "/>
    <path fill="#ffffff" d="M 254.5 408 L 258 409.5 L 256.5 410 L 254.5 408 Z "/>
    <path fill="#ffffff" d="M 61.5 410 L 63 410.5 L 59.5 412 L 59.5 411 L 61.5 410 Z "/>
    <path fill="#ffffff" d="M 259.5 410 L 263 411.5 L 261.5 412 L 259.5 410 Z "/>
    <path fill="#ffffff" d="M 53.5 412 L 58 412.5 L 53.5 413 L 53.5 412 Z "/>
    <path fill="#ffffff" d="M 266.5 413 L 270 414.5 L 268.5 415 L 266.5 413 Z "/>
    <path fill="#ffffff" d="M 271.5 415 L 275 416.5 L 273.5 417 L 271.5 415 Z "/>
    <path fill="#ffffff" d="M 276.5 417 L 283 419.5 L 281.5 420 L 276.5 418 L 276.5 417 Z "/>
    <path fill="#ffffff" d="M 445.5 418 L 447 418.5 L 443.5 420 L 443.5 419 L 445.5 418 Z "/>
    <path fill="#ffffff" d="M 284.5 420 L 292 422.5 L 290.5 423 L 284.5 421 L 284.5 420 Z "/>
    <path fill="#ffffff" d="M 440.5 420 L 442 420.5 L 438.5 422 L 438.5 421 L 440.5 420 Z "/>
    <path fill="#ffffff" d="M 435.5 422 L 437 422.5 L 430.5 425 L 430.5 424 L 435.5 422 Z "/>
    <path fill="#ffffff" d="M 293.5 423 L 298 424.5 L 296.5 425 L 293.5 424 L 293.5 423 Z "/>
    <path fill="#ffffff" d="M 300.5 425 L 309 427.5 L 306.5 428 L 300.5 426 L 300.5 425 Z "/>
    <path fill="#ffffff" d="M 426.5 425 L 429 425.5 L 420.5 428 L 420.5 427 L 426.5 425 Z "/>
    <path fill="#ffffff" d="M 310.5 428 L 317 429.5 L 314.5 430 L 310.5 429 L 310.5 428 Z "/>
    <path fill="#ffffff" d="M 416.5 428 L 419 428.5 L 413.5 430 L 413.5 429 L 416.5 428 Z "/>
    <path fill="#ffffff" d="M 320.5 430 L 328 431.5 L 323.5 432 L 320.5 431 L 320.5 430 Z "/>
    <path fill="#ffffff" d="M 408.5 430 L 411 430.5 L 403.5 432 L 403.5 431 L 408.5 430 Z "/>
    <path fill="#ffffff" d="M 329.5 432 L 334 432.5 L 329.5 433 L 329.5 432 Z "/>
    <path fill="#ffffff" d="M 397.5 432 L 402 432.5 L 397.5 433 L 397.5 432 Z "/>
    <path fill="#ffffff" d="M 337.5 433 L 353 434.5 L 344.5 435 Q 343 432.5 337.5 434 L 337.5 433 Z "/>
    <path fill="#ffffff" d="M 388.5 433 L 394 433.5 L 387.5 435 L 379.5 435 L 379.5 434 L 387.5 434 L 388.5 433 Z "/>
    <path fill="#ffffff" d="M 359.5 435 L 371 435.5 L 359.5 436 L 359.5 435 Z "/>
    <path fill="#4da3ff" d="M 129.5 91 L 165.5 91 L 170.5 93 L 172.5 92 L 176.5 94 L 181.5 94 L 194.5 98 L 196.5 98 L 216.5 104 L 234.5 113 L 240.5 114 L 249 119.5 L 249 127.5 L 248 128.5 L 249 129.5 L 249 144.5 L 250 145.5 L 250 205.5 L 251 206.5 L 251 215.5 L 250 217.5 L 250 219.5 L 251 234.5 L 251 236.5 Q 252 244 250 247 Q 245.8 248 244.5 245 Q 243 247.5 241.5 244 L 233 242 Q 234.1 239.3 231.5 240 L 229.5 240 L 213.5 234 L 209.5 234 L 207.5 232 L 202.5 232 L 191.5 229 L 188.5 227 L 182.5 227 L 169.5 224 L 158.5 224 L 157.5 223 L 133.5 223 L 132.5 224 L 123.5 224 L 111.5 227 L 105.5 227 L 102.5 229 L 83.5 234 L 81.5 236 L 79.5 236 L 75.5 237 L 68.5 242 L 65 242 Q 66.3 245 62.5 244 L 54.5 249 L 52 247.5 L 52 245.5 L 50 181.5 L 49 180.5 L 49 149.5 L 48 148.5 L 49 143.5 L 49 141.5 L 48 139.5 L 47 117.5 L 61.5 110 L 63 110.5 Q 62.2 107.5 66 109 L 66 107 L 68.5 107 L 73.5 104 L 77.5 104 L 98.5 96 Q 104.2 96.7 106.5 94 L 128.5 92 L 129.5 91 Z M 159 128 L 153 131 L 150 134 L 149 133 L 144 139 L 132 134 L 125 134 L 116 139 L 116 141 L 112 149 Q 111 158 114 164 L 123 175 Q 125 174 124 177 L 138 187 L 146 190 L 153 190 L 160 186 L 174 170 L 180 155 L 180 144 L 179 143 L 180 141 L 174 133 Q 175 130 172 131 L 172 129 Q 167 127 159 128 Z "/>
    <path fill="#4da3ff" d="M 263 267 L 271 268 Q 269.7 271.3 274.5 270 L 276.5 272 L 283.5 273 L 289.5 277 L 306.5 283 L 308.5 283 L 331.5 290 L 348.5 292 L 349.5 293 L 386.5 294 L 387.5 293 L 398.5 293 L 424.5 287 L 454.5 274 L 456 276.5 L 456 333.5 L 457 334.5 L 457 361.5 L 458 362.5 L 458 376.5 L 459 377.5 L 459 397 Q 451.6 398.3 446.5 403 L 441 404 Q 442.3 407 438.5 406 L 436.5 408 L 430.5 409 L 428.5 411 L 424.5 411 L 412.5 416 L 406.5 416 L 389.5 420 L 386.5 419 L 383.5 421 L 349.5 421 L 343.5 419 L 334.5 419 L 329.5 417 L 317.5 416 L 313.5 414 L 305.5 413 L 280.5 403 L 277.5 403 L 266 397.5 L 265 389.5 L 266 385.5 L 265 381.5 L 266 376.5 L 265 375.5 L 264 315.5 L 263 314.5 L 263 267 Z "/>
    <path fill="#ff6b6b" d="M 162 137 L 166 137 L 166 138.5 L 170 140.5 L 171 143.5 Q 167.5 145 170 146.5 L 169 151.5 L 171 151.5 L 170 154.5 L 169.5 157 L 168 156.5 L 169 159.5 L 166.5 164 Q 165.3 161.8 164 164.5 L 162 168.5 Q 164.3 169.7 161.5 171 Q 160.2 168.8 159 171.5 L 160 173.5 L 157 174.5 Q 157.7 177.1 155 176 L 155 178.5 Q 153.8 181.3 152.5 179 L 149.5 180 L 145.5 179 L 144 179.5 L 141.5 176 L 140.5 178 L 138.5 175 Q 137.3 177.3 136 174.5 Q 136.8 171.9 133.5 173 L 129.5 167 Q 127.3 167.8 128 165.5 L 125.5 162 Q 124.3 164.3 123 161.5 L 124 159.5 L 121 157.5 L 120 154.5 L 120 152.5 L 121 147 L 125 145.5 L 124.5 144 L 127.5 143 L 129.5 144 L 131 143.5 L 130.5 145 L 132.5 145 L 138.5 150 Q 139.8 147.7 141 150.5 L 140 151.5 L 143.5 155 L 149 151.5 L 152.5 144 L 155 142.5 L 154.5 141 Q 156 143.5 157.5 140 L 159 139.5 L 158.5 138 L 162 139 L 162 137 Z "/>
    <path fill="#66d9e8" d="M 135.5 88 L 151.5 88 L 152.5 89 L 173.5 90 L 198.5 96 L 219.5 103 L 221.5 105 L 247.5 115 L 251 118.5 L 253 248.5 L 249.5 250 L 212.5 236 L 185.5 229 L 174.5 228 L 167.5 226 L 157.5 226 L 156.5 225 L 135.5 225 L 134.5 226 L 125.5 226 L 118.5 228 L 111.5 228 L 93.5 233 L 79.5 238 L 52.5 252 L 50 252 L 49 216.5 L 48 215.5 L 48 180.5 L 47 179.5 L 47 150.5 L 46 149.5 L 45 116.5 L 66.5 105 L 94.5 95 L 106.5 92 L 134.5 89 L 135.5 88 Z M 130 91 L 129 92 L 107 94 Q 104 97 99 96 L 78 104 L 74 104 L 69 107 L 66 107 L 66 109 Q 62 107 63 111 L 62 110 L 47 118 L 48 140 L 49 142 L 49 144 L 48 149 L 49 150 L 49 181 L 50 182 L 52 246 L 52 248 L 55 249 L 63 244 Q 66 245 65 242 L 69 242 L 76 237 L 80 236 L 82 236 L 84 234 L 103 229 L 106 227 L 112 227 L 124 224 L 133 224 L 134 223 L 158 223 L 159 224 L 170 224 L 183 227 L 189 227 L 192 229 L 203 232 L 208 232 L 210 234 L 214 234 L 230 240 L 232 240 Q 234 239 233 242 L 242 244 Q 243 247 245 245 Q 246 248 250 247 Q 252 244 251 237 L 251 235 L 250 220 L 250 218 L 251 216 L 251 207 L 250 206 L 250 146 L 249 145 L 249 130 L 248 129 L 249 128 L 249 120 L 241 114 L 235 113 L 217 104 L 197 98 L 195 98 L 182 94 L 177 94 L 173 92 L 171 93 L 166 91 L 130 91 Z "/>
    <path fill="#66d9e8" d="M 158.5 128 Q 167.5 127 172 129 L 172 131 Q 174.7 129.9 174 132.5 L 180 140.5 L 179 142.5 L 180 143.5 L 180 154.5 L 174 169.5 L 159.5 186 L 152.5 190 L 145.5 190 L 137.5 187 L 124 177 Q 125.1 174.3 122.5 175 L 114 163.5 Q 110.9 158.1 112 148.5 L 116 140.5 L 115.5 139 L 124.5 134 L 131.5 134 L 143.5 139 L 148.5 133 L 149.5 134 L 152.5 131 L 158.5 128 Z M 159 130 L 151 135 L 145 143 L 134 137 Q 124 135 120 139 L 114 149 Q 113 163 120 170 Q 130 182 147 188 L 152 188 L 158 185 L 170 172 L 178 154 L 178 143 L 174 135 Q 170 128 159 130 Z "/>
    <path fill="#66d9e8" d="M 261 264 L 265.5 264 L 275.5 269 L 310.5 282 L 314.5 282 L 337.5 289 L 361.5 291 L 362.5 292 L 385.5 292 L 386.5 291 L 394.5 291 L 395.5 290 L 406.5 289 L 426.5 284 L 458 271 L 458 330.5 L 459 331.5 L 461 396.5 L 457.5 400 L 434.5 411 L 408.5 419 L 397.5 420 L 391.5 422 L 383.5 422 L 382.5 423 L 348.5 423 L 347.5 422 L 339.5 422 L 333.5 420 L 327.5 420 L 301.5 414 L 269.5 402 L 264 398.5 L 264 381.5 L 263 380.5 L 263 364.5 L 262 363.5 L 261 264 Z M 263 267 L 263 315 L 264 316 L 265 376 L 266 377 L 265 382 L 266 386 L 265 390 L 266 398 L 278 403 L 281 403 L 306 413 L 314 414 L 318 416 L 330 417 L 335 419 L 344 419 L 350 421 L 384 421 L 387 419 L 390 420 L 407 416 L 413 416 L 425 411 L 429 411 L 431 409 L 437 408 L 439 406 Q 442 407 441 404 L 447 403 Q 452 398 459 397 L 459 378 L 458 377 L 458 363 L 457 362 L 457 335 L 456 334 L 456 277 L 455 274 L 425 287 L 399 293 L 388 293 L 387 294 L 350 293 L 349 292 L 332 290 L 309 283 L 307 283 L 290 277 L 284 273 L 277 272 L 275 270 Q 270 271 271 268 L 263 267 Z "/>
    <path fill="#f783ac" d="M 160.5 137 Q 163.1 136.3 162 139 Q 155.8 139.4 152.5 144 L 153.5 142 Q 155.8 142.8 155 140.5 L 160.5 137 Z "/>
    <path fill="#f783ac" d="M 166.5 138 Q 168.8 137.3 168 139.5 L 168.5 141 L 166.5 138 Z "/>
    <path fill="#f783ac" d="M 128.5 143 L 130.5 144 L 132.5 144 L 139 148.5 L 144 154.5 L 135.5 147 L 128.5 144 L 127 144.5 L 128.5 143 Z "/>
    <path fill="#f783ac" d="M 170.5 144 L 171 150.5 L 170.5 153 L 169 150.5 L 170 146.5 Q 167.8 145.3 170.5 144 Z "/>
    <path fill="#f783ac" d="M 124.5 161 L 128 167 L 131 168.5 L 132 170.5 L 125 164.5 L 124.5 161 Z "/>
    <path fill="#f783ac" d="M 165.5 163 L 166 164.5 L 155.5 178 L 155 176 Q 157.7 177.1 157 174.5 L 165.5 163 Z "/>
    <path fill="#f783ac" d="M 141.5 176 L 143.5 179 L 141 177.5 L 141.5 176 Z "/>
    <path fill="#f783ac" d="M 145.5 179 L 150.5 180 L 153 179 Q 154.1 181.7 151.5 181 L 149.5 182 Q 145.5 181.5 145.5 179 Z "/>
  </g>
  <g id="line">
    <path fill="#1a1a1a" d="M 129.5 77 L 163.5 77 L 192.5 82 L 209.5 87 L 220.5 92 L 223.5 92 L 225.5 94 L 242.5 100 L 262.5 110 L 307.5 127 L 329.5 132 L 345.5 133 L 346.5 134 L 375.5 134 L 412.5 127 L 438.5 117 L 456.5 107 L 461.5 105 L 465.5 105 L 471 107 L 474 111.5 L 475 122.5 L 476 123.5 L 476 161.5 L 475 162.5 L 474 195.5 L 473 196.5 L 473 211.5 L 472 212.5 L 472 226.5 L 471 227.5 L 469 300.5 L 470 301.5 L 470 339.5 L 471 340.5 L 471 367.5 L 472 368.5 L 472 379.5 L 473 380.5 L 473 399.5 L 467.5 407 L 447.5 418 L 412.5 430 L 396.5 433 L 379.5 434 L 378.5 435 L 353.5 435 L 344.5 433 L 328.5 432 L 298.5 425 L 295.5 423 L 275.5 417 L 230.5 398 L 204.5 390 L 178.5 385 L 153.5 384 L 152.5 385 L 136.5 385 L 100.5 393 L 75.5 403 L 58.5 412 L 52.5 412 L 47 407.5 L 45 399.5 L 45 383.5 L 44 382.5 L 44 361.5 L 43 360.5 L 43 346.5 L 42 345.5 L 42 321.5 L 41 320.5 L 41 302.5 L 40 301.5 L 40 282.5 L 39 281.5 L 39 252.5 L 38 251.5 L 38 232.5 L 37 231.5 L 36 115.5 L 37 111.5 L 40.5 108 L 52.5 100 L 81.5 87 L 98.5 82 L 113.5 79 L 128.5 78 L 129.5 77 Z M 136 88 L 135 89 L 107 92 L 95 95 L 67 105 L 45 117 L 46 150 L 47 151 L 47 180 L 48 181 L 48 216 L 49 217 L 50 252 L 53 252 L 80 238 L 94 233 L 112 228 L 119 228 L 126 226 L 135 226 L 136 225 L 157 225 L 158 226 L 168 226 L 175 228 L 186 229 L 213 236 L 250 250 L 253 249 L 251 119 L 248 115 L 222 105 L 220 103 L 199 96 L 174 90 L 153 89 L 152 88 L 136 88 Z M 462 118 L 440 130 L 414 138 L 411 140 L 386 145 L 377 145 L 376 146 L 348 146 L 347 145 L 336 145 L 329 143 L 324 143 L 288 133 L 258 121 L 258 143 L 259 144 L 260 254 L 293 268 L 317 276 L 336 281 L 354 283 L 355 284 L 367 284 L 368 285 L 393 284 L 405 281 L 410 281 L 430 275 L 456 263 L 458 261 Q 456 254 459 253 L 460 214 L 461 213 L 462 186 L 463 185 L 463 162 L 464 161 L 464 125 L 463 124 Q 464 117 462 118 Z M 128 233 L 127 234 L 120 234 Q 116 237 110 236 L 90 242 L 69 251 L 50 264 L 51 266 L 51 283 L 52 284 L 53 331 L 54 332 L 55 371 L 56 372 L 56 389 L 57 390 L 57 399 L 60 399 L 79 389 L 107 379 L 132 374 L 157 373 L 158 372 L 161 373 L 185 374 L 196 377 L 201 377 L 235 387 L 253 395 Q 256 396 257 394 L 256 393 L 255 332 L 254 331 L 254 276 L 253 275 L 253 259 L 229 249 L 189 237 Q 179 237 173 234 L 165 234 L 164 233 L 128 233 Z M 261 264 L 262 364 L 263 365 L 263 381 L 264 382 L 264 399 L 270 402 L 302 414 L 328 420 L 334 420 L 340 422 L 348 422 L 349 423 L 383 423 L 384 422 L 392 422 L 398 420 L 409 419 L 435 411 L 458 400 L 461 397 L 459 332 L 458 331 L 458 271 L 427 284 L 407 289 L 396 290 L 395 291 L 387 291 L 386 292 L 363 292 L 362 291 L 338 289 L 315 282 L 311 282 L 276 269 L 266 264 L 261 264 Z "/>
    <path fill="#1a1a1a" d="M 158.5 130 Q 170.3 128.2 174 134.5 L 178 142.5 L 178 153.5 L 170 171.5 L 157.5 185 L 151.5 188 L 146.5 188 Q 130.3 181.7 120 169.5 Q 113.2 162.8 114 148.5 L 119.5 139 Q 123.8 135.3 133.5 137 L 144.5 143 L 150.5 135 L 158.5 130 Z M 161 137 L 158 138 Q 151 142 149 152 Q 148 155 144 154 L 141 151 L 132 143 L 125 144 L 120 150 L 120 156 L 125 165 Q 134 176 149 182 L 153 181 Q 165 171 171 154 L 171 143 L 170 141 Q 168 136 161 137 Z "/>
  </g>
</svg>
