<svg xmlns="http://www.w3.org/2000/svg" width="512" height="512" viewBox="0 0 512 512">
  <g id="color">
    <path fill="#ffffff" d="M 244.5 35 L 269 35.5 L 244.5 36 L 244.5 35 Z "/>
    <path fill="#ffffff" d="M 234.5 36 L 243 36.5 L 234.5 37 L 234.5 36 Z "/>
    <path fill="#ffffff" d="M 270.5 36 L 279 36.5 L 270.5 37 L 270.5 36 Z "/>
    <path fill="#ffffff" d="M 224.5 37 L 230 37.5 L 224.5 38 L 224.5 37 Z "/>
    <path fill="#ffffff" d="M 283.5 37 L 288 37.5 L 283.5 38 L 283.5 37 Z "/>
    <path fill="#ffffff" d="M 218.5 38 L 222 38.5 L 214.5 40 L 214.5 39 L 218.5 38 Z "/>
    <path fill="#ffffff" d="M 290.5 38 L 299 39.5 L 295.5 40 L 290.5 39 L 290.5 38 Z "/>
    <path fill="#ffffff" d="M 208.5 40 L 211 40.5 L 201.5 43 L 201.5 42 L 208.5 40 Z "/>
    <path fill="#ffffff" d="M 197.5 43 L 199 43.5 L 191.5 46 L 191.5 45 L 197.5 43 Z "/>
    <path fill="#ffffff" d="M 314.5 43 L 323 45.5 L 320.5 46 L 314.5 44 L 314.5 43 Z "/>
    <path fill="#ffffff" d="M 324.5 46 L 331 48.5 L 329.5 49 L 324.5 47 L 324.5 46 Z "/>
    <path fill="#ffffff" d="M 184.5 47 L 186 47.5 L 182.5 49 L 182.5 48 L 184.5 47 Z "/>
    <path fill="#ffffff" d="M 176.5 50 L 178 50.5 L 174.5 52 L 174.5 51 L 176.5 50 Z "/>
    <path fill="#ffffff" d="M 171.5 52 L 173 52.5 L 167.5 55 L 167.5 54 L 171.5 52 Z "/>
    <path fill="#ffffff" d="M 347.5 55 L 352 57.5 L 350.5 57 Q 346.8 56.7 347.5 55 Z "/>
    <path fill="#ffffff" d="M 158.5 58 L 160 58.5 L 155.5 61 L 156.5 59 L 158.5 58 Z "/>
    <path fill="#ffffff" d="M 353.5 58 L 358 60.5 L 356.5 60 Q 352.7 59.8 353.5 58 Z "/>
    <path fill="#ffffff" d="M 151.5 62 L 150.5 64 L 146.5 66 L 147.5 64 L 151.5 62 Z "/>
    <path fill="#ffffff" d="M 365.5 64 L 369 66.5 L 367.5 66 L 365.5 64 Z "/>
    <path fill="#ffffff" d="M 144.5 66 L 143.5 68 L 141.5 69 L 142.5 67 L 144.5 66 Z "/>
    <path fill="#ffffff" d="M 370.5 67 L 374 69.5 L 372.5 69 L 370.5 67 Z "/>
    <path fill="#ffffff" d="M 139.5 69 L 138.5 71 L 135.5 73 L 137.5 70 L 139.5 69 Z "/>
    <path fill="#ffffff" d="M 133.5 73 L 132.5 75 L 120.5 84 L 124.5 79 L 133.5 73 Z "/>
    <path fill="#ffffff" d="M 382.5 75 L 397 86.5 L 392.5 83 L 383.5 77 L 382.5 75 Z "/>
    <path fill="#ffffff" d="M 86.5 116 L 83 120.5 L 75.5 131 L 77 128.5 L 86.5 116 Z "/>
    <path fill="#ffffff" d="M 426.5 116 L 434 124.5 L 430 121.5 L 426.5 116 Z "/>
    <path fill="#ffffff" d="M 434.5 126 L 438 130.5 L 436 129.5 L 434.5 126 Z "/>
    <path fill="#ffffff" d="M 438.5 132 L 444 139.5 L 442 138.5 L 438.5 132 Z "/>
    <path fill="#ffffff" d="M 72.5 135 L 71 137.5 L 69.5 140 L 70 138.5 L 72.5 135 Z "/>
    <path fill="#ffffff" d="M 446.5 144 L 449 147.5 L 447 146.5 L 446.5 144 Z "/>
    <path fill="#ffffff" d="M 60.5 155 L 60 156.5 L 58.5 160 L 58 158.5 L 60.5 155 Z "/>
    <path fill="#ffffff" d="M 452.5 155 L 455 159.5 L 454 159.5 L 452.5 155 Z "/>
    <path fill="#ffffff" d="M 455.5 161 L 458 165.5 L 457 165.5 L 455.5 161 Z "/>
    <path fill="#ffffff" d="M 54.5 167 L 55 168.5 L 52.5 173 L 52 171.5 L 54.5 167 Z "/>
    <path fill="#ffffff" d="M 458.5 167 L 461 172.5 L 460 172.5 L 458.5 167 Z "/>
    <path fill="#ffffff" d="M 51.5 174 L 52 175.5 L 50.5 178 L 50 176.5 L 51.5 174 Z "/>
    <path fill="#ffffff" d="M 48.5 182 L 49 183.5 L 46.5 189 L 46 187.5 L 48.5 182 Z "/>
    <path fill="#ffffff" d="M 464.5 182 L 467 188.5 L 466 188.5 L 464.5 182 Z "/>
    <path fill="#ffffff" d="M 45.5 191 L 46 192.5 L 44.5 196 L 44 193.5 L 45.5 191 Z "/>
    <path fill="#ffffff" d="M 467.5 191 L 469 195.5 L 468 195.5 L 467.5 191 Z "/>
    <path fill="#ffffff" d="M 470.5 201 L 472 206.5 L 471 206.5 L 470.5 201 Z "/>
    <path fill="#ffffff" d="M 39.5 214 L 40 217.5 L 38.5 223 L 38 218.5 L 39.5 214 Z "/>
    <path fill="#ffffff" d="M 474.5 218 L 475 223.5 L 474 223.5 L 474.5 218 Z "/>
    <path fill="#ffffff" d="M 37.5 225 L 38 229.5 L 37 229.5 L 37.5 225 Z "/>
    <path fill="#ffffff" d="M 475.5 225 L 476 229.5 L 475 229.5 L 475.5 225 Z "/>
    <path fill="#ffffff" d="M 36.5 233 L 37 240.5 L 36 241.5 L 36 271.5 Q 38.8 273.3 37 279.5 L 36 279.5 Q 37.7 273.3 35 271.5 L 35 241.5 L 36.5 233 Z "/>
    <path fill="#ffffff" d="M 476.5 233 L 477 240.5 L 476 240.5 L 476.5 233 Z "/>
    <path fill="#ffffff" d="M 477.5 242 L 478 271.5 L 476.5 280 L 476 272.5 L 477 271.5 L 477.5 242 Z "/>
    <path fill="#ffffff" d="M 37.5 283 L 38 287.5 L 37 287.5 L 37.5 283 Z "/>
    <path fill="#ffffff" d="M 475.5 284 L 476 288.5 L 475 288.5 L 475.5 284 Z "/>
    <path fill="#ffffff" d="M 38.5 289 L 40 298.5 L 39 298.5 L 38.5 289 Z "/>
    <path fill="#ffffff" d="M 474.5 290 L 475 294.5 L 474 294.5 L 474.5 290 Z "/>
    <path fill="#ffffff" d="M 469.5 314 L 470 315.5 L 467.5 322 L 467 320.5 L 469.5 314 Z "/>
    <path fill="#ffffff" d="M 466.5 323 L 467 325.5 L 464.5 331 L 464 329.5 L 466.5 323 Z "/>
    <path fill="#ffffff" d="M 47.5 326 L 49 330.5 L 48 330.5 L 47.5 326 Z "/>
    <path fill="#ffffff" d="M 49.5 332 L 52 338.5 L 51 338.5 L 49.5 332 Z "/>
    <path fill="#ffffff" d="M 462.5 335 L 463 336.5 L 461.5 339 L 461 337.5 L 462.5 335 Z "/>
    <path fill="#ffffff" d="M 52.5 340 L 55 345.5 L 54 345.5 L 52.5 340 Z "/>
    <path fill="#ffffff" d="M 460.5 340 L 461 341.5 L 458.5 346 L 458 344.5 L 460.5 340 Z "/>
    <path fill="#ffffff" d="M 60.5 357 L 64 362.5 L 62 361.5 L 60.5 357 Z "/>
    <path fill="#ffffff" d="M 451.5 359 L 451 360.5 L 447.5 367 L 448 365.5 L 451.5 359 Z "/>
    <path fill="#ffffff" d="M 66.5 368 L 69 371.5 L 67 370.5 L 66.5 368 Z "/>
    <path fill="#ffffff" d="M 69.5 373 L 76 381.5 L 73 379.5 L 69.5 373 Z "/>
    <path fill="#ffffff" d="M 443.5 373 L 442 375.5 L 440.5 378 L 441 376.5 L 443.5 373 Z "/>
    <path fill="#ffffff" d="M 437.5 382 L 436 384.5 L 432.5 389 L 435 385.5 L 437.5 382 Z "/>
    <path fill="#ffffff" d="M 428.5 394 L 425 398.5 L 417.5 407 L 424 399.5 L 428.5 394 Z "/>
    <path fill="#ffffff" d="M 124.5 432 L 130 436.5 L 127.5 435 L 124.5 432 Z "/>
    <path fill="#ffffff" d="M 131.5 437 L 136 440.5 L 134.5 440 L 131.5 437 Z "/>
    <path fill="#ffffff" d="M 377.5 440 L 376.5 442 L 374.5 443 L 375.5 441 L 377.5 440 Z "/>
    <path fill="#ffffff" d="M 140.5 443 L 144 445.5 L 142.5 445 L 140.5 443 Z "/>
    <path fill="#ffffff" d="M 372.5 443 L 371.5 445 L 369.5 446 L 370.5 444 L 372.5 443 Z "/>
    <path fill="#ffffff" d="M 145.5 446 L 149 448.5 L 147.5 448 L 145.5 446 Z "/>
    <path fill="#ffffff" d="M 367.5 446 L 366.5 448 L 364.5 449 L 365.5 447 L 367.5 446 Z "/>
    <path fill="#ffffff" d="M 150.5 449 L 154 451.5 L 152.5 451 L 150.5 449 Z "/>
    <path fill="#ffffff" d="M 362.5 449 L 361.5 451 L 359.5 452 L 360.5 450 L 362.5 449 Z "/>
    <path fill="#ffffff" d="M 155.5 452 L 160 454.5 L 158.5 454 Q 154.7 453.7 155.5 452 Z "/>
    <path fill="#ffffff" d="M 356.5 452 L 358 452.5 L 346.5 458 L 346.5 457 L 356.5 452 Z "/>
    <path fill="#ffffff" d="M 161.5 455 L 167 457.5 L 165.5 458 L 161.5 456 L 161.5 455 Z "/>
    <path fill="#ffffff" d="M 174.5 461 L 181 463.5 L 179.5 464 L 174.5 462 L 174.5 461 Z "/>
    <path fill="#ffffff" d="M 334.5 462 L 336 462.5 L 332.5 464 L 332.5 463 L 334.5 462 Z "/>
    <path fill="#ffffff" d="M 182.5 464 L 187 465.5 L 184.5 466 L 182.5 464 Z "/>
    <path fill="#ffffff" d="M 329.5 464 L 331 464.5 L 326.5 466 L 326.5 465 L 329.5 464 Z "/>
    <path fill="#ffffff" d="M 191.5 467 L 200 469.5 L 197.5 470 L 191.5 468 L 191.5 467 Z "/>
    <path fill="#ffffff" d="M 316.5 468 L 319 468.5 L 313.5 470 L 313.5 469 L 316.5 468 Z "/>
    <path fill="#ffffff" d="M 309.5 470 L 312 470.5 L 305.5 472 L 305.5 471 L 309.5 470 Z "/>
    <path fill="#ffffff" d="M 295.5 473 L 299 473.5 L 289.5 475 L 289.5 474 Q 294.3 475.3 295.5 473 Z "/>
    <path fill="#ffffff" d="M 219.5 474 L 224 474.5 L 219.5 475 L 219.5 474 Z "/>
    <path fill="#ffffff" d="M 225.5 475 L 230 475.5 L 225.5 476 L 225.5 475 Z "/>
    <path fill="#ffffff" d="M 282.5 475 L 287 475.5 L 282.5 476 L 282.5 475 Z "/>
    <path fill="#ffffff" d="M 235.5 476 L 244 476.5 L 235.5 477 L 235.5 476 Z "/>
    <path fill="#ffffff" d="M 269.5 476 L 278 476.5 L 269.5 477 L 269.5 476 Z "/>
    <path fill="#ffffff" d="M 245.5 477 L 268 477.5 L 245.5 478 L 245.5 477 Z "/>
    <path fill="#ffd43b" d="M 242.5 49 L 271.5 49 L 272.5 50 L 282.5 50 L 321.5 59 L 353.5 73 Q 375.3 85 393 100 Q 391.9 102.7 394.5 102 L 419 127.5 L 434 148.5 L 445 168.5 L 457 200.5 L 463 228.5 L 463 236.5 L 464 237.5 L 464 275.5 L 457 312.5 L 442 349.5 Q 423.7 384.7 395.5 410 Q 366.8 436.8 326.5 452 L 311.5 457 L 282.5 463 L 273.5 463 L 272.5 464 L 241.5 464 L 240.5 463 L 232.5 463 L 225.5 461 L 213.5 460 L 201.5 457 L 169.5 445 Q 131.9 426.6 105 397.5 L 103 394.5 Q 74 365 59 321.5 L 53 299.5 Q 53 290 50 283.5 L 50 276.5 L 49 275.5 L 49 239.5 L 50 238.5 L 50 229.5 L 55 204.5 L 64 178.5 L 80 147.5 L 100 120 Q 102.7 121.1 102 118.5 Q 117.2 101.7 135.5 88 L 171.5 67 L 201.5 56 L 218.5 52 L 224.5 52 L 231.5 50 L 241.5 50 L 242.5 49 Z M 175 165 L 161 169 L 153 174 L 146 182 L 140 195 L 139 211 Q 140 215 148 214 L 151 211 L 152 198 L 156 190 Q 162 181 173 178 Q 186 176 193 182 L 202 194 L 204 200 L 205 211 L 209 214 Q 216 215 217 211 L 216 196 L 209 181 Q 199 165 175 165 Z M 331 165 Q 316 168 308 175 L 299 190 L 296 200 Q 294 208 297 212 Q 298 215 305 214 L 308 211 Q 308 196 314 189 Q 319 180 331 178 L 341 178 L 350 182 L 360 195 L 362 211 L 366 214 Q 373 215 374 211 Q 375 200 373 194 L 365 179 Q 355 165 331 165 Z M 162 276 L 156 279 L 151 285 L 149 293 L 150 294 L 150 302 L 152 312 L 157 324 L 157 327 Q 164 343 175 356 Q 187 369 204 379 L 225 388 L 246 392 L 269 392 L 289 388 L 312 378 L 327 367 Q 342 354 352 336 L 358 322 L 363 302 L 363 288 L 360 282 L 352 276 L 162 276 Z "/>
    <path fill="#ffd43b" d="M 165.5 288 L 198.5 288 L 199 289.5 L 200 291.5 Q 197.7 292.8 199 297.5 L 201 305.5 L 207.5 315 Q 214.5 323.5 232.5 321 Q 241 318.5 246 312.5 L 250 303.5 L 251 289.5 L 252.5 288 L 260.5 288 L 262 289.5 Q 260.8 309.8 272.5 317 Q 279.5 323 294.5 321 Q 303 318.5 308 312.5 Q 315.2 304 314 288 L 347.5 288 L 351 290.5 L 349 307.5 L 343 324.5 Q 334 344 318.5 357 Q 305.6 368.6 287.5 375 L 277.5 378 L 270.5 378 L 261.5 380 L 251.5 380 L 250.5 379 L 235.5 378 L 220.5 373 Q 200.3 364.7 187 349.5 Q 174.9 337.1 168 319.5 L 164 306.5 L 162 290.5 L 165.5 288 Z "/>
    <path fill="#ffd43b" d="M 213.5 288 L 236.5 288 L 238 289.5 Q 240.1 304.1 231.5 308 L 223.5 309 L 217.5 307 L 215 304.5 Q 210.5 300 212 289.5 L 213.5 288 Z "/>
    <path fill="#ffd43b" d="M 276.5 288 L 299.5 288 L 301 289.5 Q 303.1 303.1 295.5 307 L 285.5 309 L 281.5 308 L 276 302.5 Q 273.8 297.8 275 289.5 L 276.5 288 Z "/>
  </g>
  <g id="line">
    <path fill="#1a1a1a" d="M 243.5 36 L 269.5 36 L 270.5 37 L 289.5 38 L 313.5 43 L 340.5 52 L 374.5 70 L 406 94.5 Q 405.3 96.8 407.5 96 L 418.5 108 Q 420.8 107.3 420 109.5 Q 436.9 126.6 449 148.5 L 462 175.5 L 467 189.5 L 473 211.5 L 474 223.5 L 476 230.5 L 476 240.5 L 477 241.5 L 477 271.5 L 476 272.5 L 476 283.5 L 470 313.5 L 458 346.5 L 446 369.5 L 438 381.5 L 417 408 L 414 409.5 Q 414.8 411.8 412.5 411 L 411 414 L 408 415.5 Q 408.8 417.8 406.5 417 L 398.5 425 L 378.5 440 L 358.5 452 L 331.5 464 L 312.5 470 L 288.5 475 L 269.5 476 L 268.5 477 L 244.5 477 L 243.5 476 L 230.5 476 L 200.5 470 L 181.5 464 L 160.5 455 Q 118.9 434.1 90 400.5 Q 64 371.5 49 331.5 L 41 305.5 L 37 282.5 L 37 272.5 L 36 271.5 L 36 241.5 L 37 240.5 L 38 223.5 L 43 199.5 L 55 166.5 Q 74.3 125.3 105.5 96 L 108 94.5 Q 107.3 92.3 109.5 93 Q 123.4 79.4 140.5 69 L 180.5 49 L 211.5 40 L 217.5 40 L 230.5 37 L 242.5 37 L 243.5 36 Z M 243 49 L 242 50 L 232 50 L 225 52 L 219 52 L 202 56 L 172 67 L 136 88 Q 117 102 102 119 Q 103 121 100 120 L 80 148 L 64 179 L 55 205 L 50 230 L 50 239 L 49 240 L 49 276 L 50 277 L 50 284 Q 53 290 53 300 L 59 322 Q 74 365 103 395 L 105 398 Q 132 427 170 445 L 202 457 L 214 460 L 226 461 L 233 463 L 241 463 L 242 464 L 273 464 L 274 463 L 283 463 L 312 457 L 327 452 Q 367 437 396 410 Q 424 385 442 350 L 457 313 L 464 276 L 464 238 L 463 237 L 463 229 L 457 201 L 445 169 L 434 149 L 419 128 L 395 102 Q 392 103 393 100 Q 375 85 354 73 L 322 59 L 283 50 L 273 50 L 272 49 L 243 49 Z "/>
    <path fill="#1a1a1a" d="M 174.5 165 Q 199.3 165.3 209 180.5 L 216 195.5 L 217 210.5 Q 215.7 215.2 208.5 214 L 205 210.5 L 204 199.5 L 202 193.5 L 192.5 182 Q 186.2 176.3 172.5 178 Q 161.6 181.1 156 189.5 L 152 197.5 L 151 210.5 L 147.5 214 Q 140.3 215.3 139 210.5 L 140 194.5 L 146 181.5 L 152.5 174 L 160.5 169 L 174.5 165 Z "/>
    <path fill="#1a1a1a" d="M 330.5 165 Q 354.7 164.8 365 178.5 L 373 193.5 Q 375.3 200.2 374 210.5 Q 372.8 215.2 365.5 214 L 362 210.5 L 360 194.5 L 349.5 182 L 340.5 178 L 330.5 178 Q 319.4 180.4 314 188.5 Q 307.8 196.3 308 210.5 L 304.5 214 Q 298.3 215.3 297 211.5 Q 294.3 207.7 296 199.5 L 299 189.5 L 308 175 Q 316.4 167.7 330.5 165 Z "/>
    <path fill="#1a1a1a" d="M 161.5 276 L 351.5 276 L 360 281.5 L 363 287.5 L 363 301.5 L 358 321.5 L 352 335.5 Q 341.8 353.8 326.5 367 L 311.5 378 L 288.5 388 L 268.5 392 L 245.5 392 L 224.5 388 L 203.5 379 Q 187.2 369.3 175 355.5 Q 163.9 343.1 157 326.5 L 157 323.5 L 152 311.5 L 150 301.5 L 150 293.5 L 149 292.5 L 151 284.5 L 155.5 279 L 161.5 276 Z M 166 288 L 162 291 L 164 307 L 168 320 Q 175 337 187 350 Q 200 365 221 373 L 236 378 L 251 379 L 252 380 L 262 380 L 271 378 L 278 378 L 288 375 Q 306 369 319 357 Q 334 344 343 325 L 349 308 L 351 291 L 348 288 L 314 288 Q 315 304 308 313 Q 303 318 295 321 Q 280 323 273 317 Q 261 310 262 290 L 261 288 L 253 288 L 251 290 L 250 304 L 246 313 Q 241 318 233 321 Q 215 323 208 315 L 201 306 L 199 298 Q 198 293 200 292 L 199 290 L 199 288 L 166 288 Z M 214 288 L 212 290 Q 211 300 215 305 L 218 307 L 224 309 L 232 308 Q 240 304 238 290 L 237 288 L 214 288 Z M 277 288 L 275 290 Q 274 298 276 303 L 282 308 L 286 309 L 296 307 Q 303 303 301 290 L 300 288 L 277 288 Z "/>
  </g>
</svg>
