<svg xmlns="http://www.w3.org/2000/svg" width="512" height="512" viewBox="0 0 512 512">
  <g id="color">
    <path fill="#ffffff" d="M 98.5 37 Q 107.5 36 113 38.5 L 106.5 39 Q 105 36.5 99.5 38 Q 98.3 40.2 93.5 39 L 93.5 38 L 98.5 37 Z "/>
    <path fill="#ffffff" d="M 405.5 37 L 413.5 37 L 420 38.5 L 412.5 39 L 407.5 38 Q 405.7 40.7 399.5 39 L 399.5 38 Q 404.3 39.3 405.5 37 Z "/>
    <path fill="#ffffff" d="M 88.5 39 L 92 39.5 L 85.5 41 L 85.5 40 L 88.5 39 Z "/>
    <path fill="#ffffff" d="M 115.5 39 L 122 40.5 L 119.5 41 L 115.5 40 L 115.5 39 Z "/>
    <path fill="#ffffff" d="M 394.5 39 L 398 39.5 L 391.5 41 L 391.5 40 L 394.5 39 Z "/>
    <path fill="#ffffff" d="M 421.5 39 Q 426.3 38.3 428 40.5 L 425.5 41 L 421.5 40 L 421.5 39 Z "/>
    <path fill="#ffffff" d="M 81.5 41 L 84 41.5 L 79.5 43 L 79.5 42 L 81.5 41 Z "/>
    <path fill="#ffffff" d="M 123.5 41 L 127 42.5 L 125.5 43 L 123.5 41 Z "/>
    <path fill="#ffffff" d="M 388.5 41 L 390 41.5 L 386.5 43 L 386.5 42 L 388.5 41 Z "/>
    <path fill="#ffffff" d="M 429.5 41 Q 439 42.5 445 47.5 L 443.5 47 L 429.5 42 L 429.5 41 Z "/>
    <path fill="#ffffff" d="M 76.5 43 L 78 43.5 L 74.5 45 L 74.5 44 L 76.5 43 Z "/>
    <path fill="#ffffff" d="M 128.5 43 L 138 49.5 L 135.5 48 L 129.5 45 L 128.5 43 Z "/>
    <path fill="#ffffff" d="M 384.5 43 L 383.5 45 L 375.5 50 L 377.5 47 L 384.5 43 Z "/>
    <path fill="#ffffff" d="M 69.5 46 L 71 46.5 Q 58.5 53 50 63.5 Q 50.8 65.8 48.5 65 L 59.5 53 L 69.5 46 Z "/>
    <path fill="#ffffff" d="M 139.5 50 L 148.5 60 L 139 52 L 139.5 50 Z "/>
    <path fill="#ffffff" d="M 373.5 50 L 374 52 L 372.5 52 L 363 61.5 L 357.5 70 L 358 68.5 Q 363.4 56.9 373.5 50 Z "/>
    <path fill="#ffffff" d="M 449.5 50 L 465 64.5 L 453.5 54 L 449.5 50 Z "/>
    <path fill="#ffffff" d="M 150.5 62 L 154 66.5 L 152 65.5 L 150.5 62 Z "/>
    <path fill="#ffffff" d="M 242.5 63 L 271.5 63 L 272.5 64 L 283 64.5 L 271.5 65 L 270.5 64 L 243.5 64 L 242.5 65 L 231.5 65 L 231.5 64 L 241.5 64 L 242.5 63 Z "/>
    <path fill="#ffffff" d="M 223.5 65 L 229 65.5 L 212.5 68 L 212.5 67 L 223.5 65 Z "/>
    <path fill="#ffffff" d="M 284.5 65 L 296.5 66 L 301 67.5 L 297.5 68 L 296.5 67 L 284.5 66 L 284.5 65 Z "/>
    <path fill="#ffffff" d="M 465.5 66 L 469 70.5 L 467 69.5 L 465.5 66 Z "/>
    <path fill="#ffffff" d="M 154.5 68 L 163 82.5 L 161 81.5 L 154.5 68 Z "/>
    <path fill="#ffffff" d="M 206.5 68 L 211 68.5 L 203.5 70 L 203.5 69 L 206.5 68 Z "/>
    <path fill="#ffffff" d="M 302.5 68 L 310 69.5 L 306.5 70 L 302.5 69 L 302.5 68 Z "/>
    <path fill="#ffffff" d="M 198.5 70 L 202 70.5 L 196.5 72 L 196.5 71 L 198.5 70 Z "/>
    <path fill="#ffffff" d="M 311.5 70 L 318 71.5 L 314.5 72 L 311.5 71 L 311.5 70 Z "/>
    <path fill="#ffffff" d="M 356.5 71 L 356 72.5 L 350.5 83 L 349 82.5 L 356.5 71 Z "/>
    <path fill="#ffffff" d="M 43.5 72 L 43 73.5 L 41.5 77 L 41 75.5 L 43.5 72 Z "/>
    <path fill="#ffffff" d="M 191.5 72 L 194 72.5 L 188.5 74 L 188.5 73 L 191.5 72 Z "/>
    <path fill="#ffffff" d="M 319.5 72 L 325 73.5 L 322.5 74 L 319.5 73 L 319.5 72 Z "/>
    <path fill="#ffffff" d="M 469.5 72 L 472 76.5 L 471 76.5 L 469.5 72 Z "/>
    <path fill="#ffffff" d="M 185.5 74 L 187 74.5 L 165.5 83 L 166.5 81 L 185.5 74 Z "/>
    <path fill="#ffffff" d="M 326.5 74 L 331 75.5 L 328.5 76 L 326.5 74 Z "/>
    <path fill="#ffffff" d="M 332.5 76 L 344 80.5 L 342.5 81 L 332.5 77 L 332.5 76 Z "/>
    <path fill="#ffffff" d="M 40.5 78 L 41 79.5 L 39.5 82 L 39 80.5 L 40.5 78 Z "/>
    <path fill="#ffffff" d="M 472.5 78 L 474 81.5 L 473 81.5 L 472.5 78 Z "/>
    <path fill="#ffffff" d="M 38.5 83 L 39 85.5 L 37.5 89 L 37 85.5 L 38.5 83 Z "/>
    <path fill="#ffffff" d="M 474.5 83 L 476 88.5 L 475 88.5 L 474.5 83 Z "/>
    <path fill="#ffffff" d="M 36.5 90 L 37 94.5 L 36 95.5 L 36 111.5 Q 38.3 112.7 37 117.5 L 36 117.5 L 35 112.5 L 35 94.5 L 36.5 90 Z "/>
    <path fill="#ffffff" d="M 476.5 90 L 478 94.5 L 478 113.5 L 476.5 118 L 476 114.5 L 477 113.5 L 477 94.5 L 476.5 90 Z "/>
    <path fill="#ffffff" d="M 37.5 119 L 39 124.5 L 38 124.5 L 37.5 119 Z "/>
    <path fill="#ffffff" d="M 475.5 120 L 476 122.5 L 474.5 126 L 474 123.5 L 475.5 120 Z "/>
    <path fill="#ffffff" d="M 39.5 126 Q 46.5 145.5 61 157.5 L 51 148.5 L 44 138.5 L 39 128.5 L 39.5 126 Z "/>
    <path fill="#ffffff" d="M 473.5 127 L 474 128.5 L 472.5 131 L 472 129.5 L 473.5 127 Z "/>
    <path fill="#ffffff" d="M 469.5 136 L 469 137.5 Q 462.8 149.8 452.5 158 L 461 148.5 L 469.5 136 Z "/>
    <path fill="#ffffff" d="M 62.5 158 L 76 167 L 76 170.5 L 70.5 181 L 70 179.5 L 75 168.5 L 65.5 162 L 62.5 158 Z "/>
    <path fill="#ffffff" d="M 450.5 158 L 447.5 162 L 439.5 167 L 440.5 165 L 450.5 158 Z "/>
    <path fill="#ffffff" d="M 437.5 167 L 439 171.5 L 437 170.5 L 437.5 167 Z "/>
    <path fill="#ffffff" d="M 439.5 173 L 443 180.5 L 441 179.5 L 439.5 173 Z "/>
    <path fill="#ffffff" d="M 69.5 182 L 70 183.5 L 68.5 186 L 68 184.5 L 69.5 182 Z "/>
    <path fill="#ffffff" d="M 443.5 182 L 445 185.5 L 444 185.5 L 443.5 182 Z "/>
    <path fill="#ffffff" d="M 67.5 187 L 68 188.5 L 66.5 191 L 66 188.5 L 67.5 187 Z "/>
    <path fill="#ffffff" d="M 445.5 187 L 447 190.5 L 446 190.5 L 445.5 187 Z "/>
    <path fill="#ffffff" d="M 65.5 192 L 66 193.5 L 63.5 199 L 63 197.5 L 65.5 192 Z "/>
    <path fill="#ffffff" d="M 447.5 192 L 450 198.5 L 449 198.5 L 447.5 192 Z "/>
    <path fill="#ffffff" d="M 62.5 200 L 63 202.5 L 61.5 205 L 61 202.5 L 62.5 200 Z "/>
    <path fill="#ffffff" d="M 450.5 200 L 452 204.5 L 451 204.5 L 450.5 200 Z "/>
    <path fill="#ffffff" d="M 60.5 206 L 61 208.5 L 59.5 211 L 59 208.5 L 60.5 206 Z "/>
    <path fill="#ffffff" d="M 452.5 206 L 454 210.5 L 453 210.5 L 452.5 206 Z "/>
    <path fill="#ffffff" d="M 58.5 212 L 59 214.5 L 57.5 217 L 57 214.5 L 58.5 212 Z "/>
    <path fill="#ffffff" d="M 454.5 212 L 456 216.5 L 455 216.5 L 454.5 212 Z "/>
    <path fill="#ffffff" d="M 56.5 218 L 57 220.5 L 55.5 225 L 55 221.5 L 56.5 218 Z "/>
    <path fill="#ffffff" d="M 456.5 218 L 458 224.5 L 457 224.5 L 456.5 218 Z "/>
    <path fill="#ffffff" d="M 458.5 226 L 461 238.5 L 460 238.5 L 458.5 226 Z "/>
    <path fill="#ffffff" d="M 53.5 230 L 54 234.5 L 52.5 239 L 52 235.5 L 53.5 230 Z "/>
    <path fill="#ffffff" d="M 51.5 241 L 52 246.5 L 50.5 252 L 50 246.5 L 51.5 241 Z "/>
    <path fill="#ffffff" d="M 461.5 241 L 463 252.5 L 462 252.5 L 461.5 241 Z "/>
    <path fill="#ffffff" d="M 49.5 255 L 50 264.5 L 49 265.5 L 49 286.5 L 50 287.5 L 50 295.5 L 49 295.5 Q 50.8 289.3 48 287.5 L 48 263.5 L 49.5 255 Z "/>
    <path fill="#ffffff" d="M 463.5 257 L 465 265.5 L 465 288.5 L 463.5 296 L 463 288.5 L 464 287.5 L 464 267.5 L 463 266.5 L 463.5 257 Z "/>
    <path fill="#ffffff" d="M 50.5 299 L 52 309.5 L 51 309.5 L 50.5 299 Z "/>
    <path fill="#ffffff" d="M 462.5 299 L 463 304.5 L 461.5 310 L 461 304.5 L 462.5 299 Z "/>
    <path fill="#ffffff" d="M 52.5 312 L 57 330.5 L 56 330.5 L 53 320.5 L 52.5 312 Z "/>
    <path fill="#ffffff" d="M 460.5 312 L 461 315.5 L 458.5 324 L 458 321.5 L 460.5 312 Z "/>
    <path fill="#ffffff" d="M 457.5 325 L 458 328.5 L 456.5 331 L 456 328.5 L 457.5 325 Z "/>
    <path fill="#ffffff" d="M 57.5 332 L 59 336.5 L 58 336.5 L 57.5 332 Z "/>
    <path fill="#ffffff" d="M 455.5 332 L 456 334.5 L 454.5 337 L 454 334.5 L 455.5 332 Z "/>
    <path fill="#ffffff" d="M 59.5 338 L 61 341.5 L 60 341.5 L 59.5 338 Z "/>
    <path fill="#ffffff" d="M 453.5 338 L 454 339.5 L 452.5 342 L 452 340.5 L 453.5 338 Z "/>
    <path fill="#ffffff" d="M 61.5 343 L 63 346.5 L 62 346.5 L 61.5 343 Z "/>
    <path fill="#ffffff" d="M 451.5 343 L 452 344.5 L 445.5 359 L 445 357.5 L 451.5 343 Z "/>
    <path fill="#ffffff" d="M 63.5 348 L 65 351.5 L 64 351.5 L 63.5 348 Z "/>
    <path fill="#ffffff" d="M 66.5 355 L 72 365.5 L 70 364.5 L 66 356.5 L 66.5 355 Z "/>
    <path fill="#ffffff" d="M 442.5 364 L 442 365.5 L 432 382.5 L 416 403 L 414 402.5 L 426 389.5 L 442.5 364 Z "/>
    <path fill="#ffffff" d="M 72.5 367 L 88 389.5 L 84 386.5 L 74 371.5 L 72.5 367 Z "/>
    <path fill="#ffffff" d="M 88.5 391 L 101 404.5 L 99 405 L 88.5 391 Z "/>
    <path fill="#ffffff" d="M 411.5 406 L 406.5 412 L 406 410 L 411.5 406 Z "/>
    <path fill="#ffffff" d="M 106.5 410 L 123 424.5 L 119.5 422 Q 110.9 417.3 106.5 410 Z "/>
    <path fill="#ffffff" d="M 404.5 412 L 399.5 418 L 390.5 425 L 393.5 421 L 404.5 412 Z "/>
    <path fill="#ffffff" d="M 124.5 425 L 133 431.5 L 131.5 431 Q 126 429.2 124.5 425 Z "/>
    <path fill="#ffffff" d="M 388.5 425 L 385.5 429 L 380.5 432 L 381.5 430 L 388.5 425 Z "/>
    <path fill="#ffffff" d="M 137.5 434 L 143 437.5 L 141.5 437 Q 137.5 436.5 137.5 434 Z "/>
    <path fill="#ffffff" d="M 375.5 434 L 374.5 436 L 370.5 438 L 371.5 436 L 375.5 434 Z "/>
    <path fill="#ffffff" d="M 144.5 438 L 152 442.5 L 150.5 442 Q 144.9 441.2 144.5 438 Z "/>
    <path fill="#ffffff" d="M 368.5 438 L 367.5 440 L 361.5 443 L 362.5 441 L 368.5 438 Z "/>
    <path fill="#ffffff" d="M 161.5 447 L 165 448.5 L 163.5 449 L 161.5 447 Z "/>
    <path fill="#ffffff" d="M 350.5 447 L 352 447.5 L 336.5 454 L 336.5 453 L 350.5 447 Z "/>
    <path fill="#ffffff" d="M 166.5 449 L 177 453.5 L 175.5 454 L 167.5 451 L 166.5 449 Z "/>
    <path fill="#ffffff" d="M 178.5 454 L 182 455.5 L 180.5 456 L 178.5 454 Z "/>
    <path fill="#ffffff" d="M 333.5 454 L 335 454.5 L 331.5 456 L 331.5 455 L 333.5 454 Z "/>
    <path fill="#ffffff" d="M 183.5 456 L 187 457.5 L 185.5 458 L 183.5 456 Z "/>
    <path fill="#ffffff" d="M 328.5 456 L 330 456.5 L 326.5 458 L 326.5 457 L 328.5 456 Z "/>
    <path fill="#ffffff" d="M 188.5 458 L 200 462.5 L 198.5 463 L 188.5 459 L 188.5 458 Z "/>
    <path fill="#ffffff" d="M 323.5 458 L 325 458.5 L 313.5 463 L 313.5 462 L 323.5 458 Z "/>
    <path fill="#ffffff" d="M 201.5 463 L 206 464.5 L 204.5 465 L 201.5 464 L 201.5 463 Z "/>
    <path fill="#ffffff" d="M 309.5 463 L 312 463.5 L 307.5 465 L 307.5 464 L 309.5 463 Z "/>
    <path fill="#ffffff" d="M 207.5 465 L 212 466.5 L 209.5 467 L 207.5 465 Z "/>
    <path fill="#ffffff" d="M 303.5 465 L 306 465.5 L 301.5 467 L 301.5 466 L 303.5 465 Z "/>
    <path fill="#ffffff" d="M 214.5 467 L 220 468.5 L 216.5 469 L 214.5 467 Z "/>
    <path fill="#ffffff" d="M 297.5 467 L 300 467.5 L 294.5 469 L 294.5 468 L 297.5 467 Z "/>
    <path fill="#ffffff" d="M 221.5 469 L 242 473.5 L 238.5 474 L 224.5 471 L 221.5 470 L 221.5 469 Z "/>
    <path fill="#ffffff" d="M 289.5 469 L 293 469.5 L 281.5 472 L 281.5 471 L 289.5 469 Z "/>
    <path fill="#ffffff" d="M 274.5 472 L 280 472.5 L 270.5 474 L 270.5 473 L 274.5 472 Z "/>
    <path fill="#ffffff" d="M 244.5 474 L 268 474.5 L 244.5 475 L 244.5 474 Z "/>
    <path fill="#4da3ff" d="M 175.5 216 L 179.5 216 L 186 219 L 188 224.5 L 188 232.5 Q 184.8 240.3 172.5 239 L 166 234.5 L 165 232.5 L 165 230.5 L 166 222 Q 169 223.3 168 219.5 L 170.5 217 L 175.5 216 Z "/>
    <path fill="#4da3ff" d="M 332.5 216 L 343 217 Q 341.9 219.7 344.5 219 L 348 224.5 L 347 226.5 L 348 228.5 Q 345.7 229.7 347 234.5 L 343.5 238 L 332.5 239 L 326 234.5 Q 323.7 231.3 325 224.5 L 330.5 217 L 332.5 216 Z "/>
    <path fill="#ffd43b" d="M 250.5 77 L 260 77.5 L 250.5 78 L 250.5 77 Z "/>
    <path fill="#ffd43b" d="M 368.5 79 L 368 80.5 L 366.5 83 L 367 81.5 L 368.5 79 Z "/>
    <path fill="#ffd43b" d="M 329.5 202 L 332 202.5 L 327.5 204 L 327.5 203 L 329.5 202 Z "/>
    <path fill="#ffd43b" d="M 267.5 253 L 272 253.5 L 267.5 254 L 267.5 253 Z "/>
    <path fill="#ffd43b" d="M 251.5 264 L 260.5 264 L 282.5 269 Q 298.3 276.2 308 289.5 L 317 305.5 L 317 308.5 L 321 317.5 L 323 326.5 L 323 348.5 Q 318.4 368.4 304.5 379 L 295.5 385 L 275.5 392 L 246.5 393 Q 244.8 390.2 238.5 392 L 222.5 387 Q 209.2 381.8 201 371.5 Q 193.3 362.7 190 349.5 L 190 326.5 L 194 311.5 L 200 297.5 Q 206.9 284.4 218.5 276 L 230.5 269 L 251.5 264 Z M 232 299 L 230 300 L 226 305 Q 227 314 234 317 Q 241 319 242 315 Q 243 306 239 304 Q 237 299 232 299 Z M 281 299 L 277 301 L 271 310 L 271 315 Q 273 318 280 317 L 287 308 L 286 301 L 281 299 Z "/>
    <path fill="#ffd43b" d="M 331.5 314 L 333 317.5 L 332 317.5 L 331.5 314 Z "/>
    <path fill="#ffd43b" d="M 395.5 401 L 392.5 405 L 392 403 L 395.5 401 Z "/>
    <path fill="#ffa94d" d="M 95.5 52 L 114.5 53 L 130 61 Q 128.9 63.7 131.5 63 L 146 80.5 L 145.5 82 Q 147.8 81.3 147 83.5 L 153 96.5 L 155.5 99 L 161.5 100 Q 165.8 96 173 96 Q 171.8 93 175.5 94 Q 177.8 91 183 92 Q 181.7 88.7 186.5 90 L 206.5 83 L 222.5 80 L 224.5 81 L 227.5 79 L 237.5 79 L 238.5 78 L 248.5 78 L 249.5 77 L 250.5 78 L 259.5 78 L 261.5 77 L 262.5 78 L 284.5 79 L 289.5 81 L 291.5 81 L 297.5 81 L 299.5 83 L 304.5 84 Q 306 81.5 307.5 85 L 309.5 84 L 329.5 90 L 331.5 92 L 334.5 92 L 346.5 97 L 350.5 100 L 353.5 99 L 355.5 100 L 360 96.5 L 364 88.5 L 364 85 Q 366.7 86.1 366 83.5 Q 371.2 72.2 379.5 64 Q 386.7 56.2 398.5 53 L 416.5 52 L 427.5 55 L 429.5 57 L 432.5 57 L 445 64 Q 443.9 66.7 446.5 66 Q 455.8 74.2 461 86.5 Q 458.5 88 462 89.5 L 464 102.5 L 463 105.5 L 464 107.5 Q 461.3 109.3 463 115.5 L 461 117.5 L 461 119.5 L 460 126 Q 457 124.8 458 128.5 L 449 142 L 447 142 Q 448.1 144.7 445.5 144 L 438.5 151 L 422 160.5 L 420 166.5 L 430 185.5 L 438 205.5 L 438 207.5 L 440 211.5 L 440 213.5 L 442 218.5 L 442 220.5 L 445 229.5 L 445 231.5 L 449 251.5 L 449 253.5 L 450 258.5 L 449 260.5 L 450 263.5 Q 448.8 268.3 451 269.5 L 450 271.5 L 451 273.5 L 450 276.5 L 451 281.5 L 450 282.5 L 450 294.5 L 448 300.5 L 449 302.5 L 447 307.5 L 445 320.5 L 443 323.5 L 443 327.5 L 441 329.5 L 441 331.5 L 440 338 Q 437 336.8 438 340.5 L 436 344.5 L 429 361 L 427 361 L 427 364 Q 424 362.8 425 366.5 L 413 384 L 410 385.5 L 408.5 389 L 407 389 L 407 391 Q 404.3 389.9 405 392.5 L 397 399 Q 398.1 401.7 395.5 401 L 392 403 L 389.5 407 L 387 408.5 Q 387.8 410.8 385.5 410 L 369.5 422 L 368 421.5 Q 368.8 423.8 366.5 423 Q 351.7 433.2 333.5 440 Q 332 437.5 330.5 441 L 326.5 443 L 325 442.5 L 324.5 444 L 322 443 Q 323.3 446 319.5 445 L 317 445.5 L 317 447 L 312 447 L 312 449 L 308.5 449 L 305.5 451 L 276.5 459 L 274.5 459 L 269.5 460 L 267.5 460 L 259.5 461 L 257.5 461 L 241.5 460 Q 238.5 457 231.5 458 L 229.5 456 L 227.5 456 Q 223.3 456.8 222.5 454 L 220.5 454 L 217.5 454 L 202.5 448 L 201 448.5 L 201 447 L 196 447 L 196 445.5 L 193.5 445 L 191 445 L 190.5 443 L 186.5 443 L 184.5 441 L 165 434 L 164.5 432 L 163 432.5 Q 163.8 429.9 160.5 431 L 151.5 427 L 147.5 423 L 145 423 L 144.5 421 Q 143 423.5 141.5 420 Q 138.9 420.7 140 418 L 137 418 L 137 416 L 134.5 416 L 123 406.5 Q 123.8 403.9 120.5 405 L 112 396.5 L 112 395 L 110 395 Q 111.1 392.3 108.5 393 Q 102.8 390.1 102 384 L 99 382.5 L 84 360.5 L 75 341.5 Q 77.5 340 74 338.5 L 68 320.5 L 68 316.5 L 64 302.5 L 62 271.5 L 63 270.5 L 64 249.5 L 66 245.5 L 66 243.5 L 66 238.5 Q 68.8 235.8 68 229.5 L 70 226.5 L 70 221.5 L 74 212.5 L 74 210.5 L 81 190.5 L 84 186.5 L 84 184.5 L 90 170 L 92 169.5 L 92 162.5 L 87.5 158 L 74.5 151 L 59 135.5 L 51 118.5 L 50 104.5 L 49 103.5 L 50 101.5 L 50 99.5 L 50 93.5 L 52 86.5 L 60 72 L 68 65.5 Q 67.3 63.3 69.5 64 Q 79.9 55.4 95.5 52 Z M 174 202 L 167 204 L 165 206 L 162 206 Q 163 209 161 208 Q 154 211 153 220 L 153 222 L 151 225 L 152 228 L 151 231 L 152 235 L 154 239 Q 153 242 156 241 L 156 244 L 159 245 L 160 248 L 165 251 L 172 253 L 182 253 L 184 253 L 190 249 L 192 249 Q 191 246 194 247 L 198 242 Q 197 239 200 240 L 199 239 L 200 237 Q 203 235 201 234 L 202 231 Q 203 226 201 225 L 202 222 L 201 220 Q 197 218 200 217 L 192 207 Q 189 208 190 206 L 188 206 Q 189 203 186 204 L 184 204 Q 181 200 174 202 Z M 330 202 L 323 206 L 315 215 Q 316 217 314 216 L 314 218 L 311 226 Q 310 230 312 232 L 311 235 L 315 241 L 315 243 L 319 245 L 319 247 L 326 251 Q 330 250 329 253 L 343 253 L 355 247 L 361 235 L 361 222 L 361 220 L 359 219 L 358 215 Q 359 212 357 213 L 355 211 L 347 204 L 338 202 L 330 202 Z M 254 252 L 246 254 L 244 253 Q 242 256 236 255 L 234 255 L 216 264 Q 213 263 214 266 L 205 271 L 200 279 L 196 281 L 185 304 Q 181 305 184 307 L 179 324 Q 181 325 178 327 L 179 330 L 178 332 L 178 348 L 182 359 L 182 363 L 187 372 Q 186 375 189 374 L 194 381 L 196 384 L 208 392 Q 210 391 209 394 L 219 397 L 221 399 L 227 400 Q 228 403 230 401 L 234 403 L 236 402 L 239 403 L 241 403 L 247 405 L 250 404 Q 256 402 258 405 L 261 404 L 265 405 L 269 405 L 271 404 L 273 404 L 279 402 L 281 403 L 283 401 L 287 401 L 302 394 Q 305 395 304 392 L 307 392 L 307 390 L 310 390 L 310 388 L 318 383 Q 317 380 320 381 L 320 379 L 322 379 L 328 368 Q 331 366 329 365 L 331 364 L 330 363 L 333 357 L 336 340 L 333 316 L 331 314 L 331 309 L 328 303 L 328 301 L 327 300 L 326 298 Q 327 295 324 296 L 324 294 L 317 284 L 317 281 Q 314 282 315 280 L 305 269 L 303 269 L 302 266 Q 298 267 299 264 L 297 264 L 286 257 Q 280 258 279 255 L 274 255 L 272 253 L 262 253 L 260 253 Q 255 254 254 252 Z "/>
    <path fill="#66d9e8" d="M 171.5 214 L 181.5 214 L 189 220.5 L 191 228.5 Q 189.6 236.6 183.5 240 L 175.5 242 L 167.5 239 L 165 236.5 Q 161.7 232.8 163 224.5 L 168.5 216 L 171.5 214 Z M 176 216 L 171 217 L 168 220 Q 169 223 166 222 L 165 231 L 165 233 L 166 235 L 173 239 Q 185 240 188 233 L 188 225 L 186 219 L 180 216 L 176 216 Z "/>
    <path fill="#66d9e8" d="M 331.5 214 Q 344.4 212.1 348 219.5 Q 351.5 223.5 350 232.5 L 344.5 240 L 342.5 241 L 331.5 241 L 325 236.5 L 322 226.5 Q 324.1 219.1 329.5 215 L 331.5 214 Z M 333 216 L 331 217 L 325 225 Q 324 231 326 235 L 333 239 L 344 238 L 347 235 Q 346 230 348 229 L 347 227 L 348 225 L 345 219 Q 342 220 343 217 L 333 216 Z "/>
  </g>
  <g id="line">
    <path fill="#1a1a1a" d="M 99.5 38 L 114.5 39 L 122.5 41 L 139 50 Q 137.9 52.7 140.5 52 L 150 61.5 L 162.5 83 L 168.5 82 L 187.5 74 L 216.5 67 L 222.5 67 L 229.5 65 L 242.5 65 L 243.5 64 L 270.5 64 L 271.5 65 L 283.5 65 L 310.5 70 L 331.5 76 L 347.5 83 L 350.5 83 L 363 61.5 L 372.5 52 L 375.5 50 L 390.5 41 L 398.5 39 L 411.5 38 L 428.5 41 L 445.5 48 L 465 65.5 Q 472.6 75.4 476 89.5 L 477 94.5 L 477 113.5 L 474 126.5 L 470 135.5 Q 462.6 148.6 451.5 158 L 437 167 L 437 170.5 L 439 172.5 L 450 199.5 L 459 229.5 Q 458.3 236.2 461 239.5 L 461 247.5 L 463 253.5 L 464 287.5 L 463 288.5 L 463 298.5 Q 460.1 303.1 461 311.5 L 458 324.5 L 445 359.5 Q 430.1 388.6 407.5 410 L 404.5 412 Q 385.6 430.6 360.5 443 L 312.5 463 L 309.5 463 L 293.5 469 L 289.5 469 L 280.5 472 L 274.5 472 L 269.5 474 L 242.5 474 L 212.5 467 L 160.5 447 L 127.5 428 L 105 410 L 105 408 L 103 408 L 103 406 Q 100.3 407.1 101 404.5 Q 73.3 377.7 59 337.5 L 54 320.5 L 54 315.5 L 52 311.5 Q 52.9 303.1 50 298.5 L 49 265.5 L 50 264.5 L 50 252.5 Q 52.9 247.9 52 239.5 L 57 217.5 L 70 181.5 L 76 170.5 L 76 167 Q 61.8 160.4 52 148.5 Q 43.8 138.7 39 125.5 L 36 111.5 L 36 95.5 L 39 82.5 L 48 65 Q 50.7 66.1 50 63.5 Q 58.8 52.8 71.5 46 L 84.5 41 L 99.5 38 Z M 96 52 Q 80 56 69 64 L 57 77 L 50 93 Q 52 99 49 101 L 51 119 L 59 136 Q 69 151 88 158 L 92 164 L 92 168 L 83 186 L 70 222 L 64 250 L 63 270 L 62 271 L 64 303 L 73 337 L 84 361 L 103 388 L 132 414 L 152 427 L 170 436 L 202 449 L 205 449 L 218 454 L 241 460 L 251 460 L 252 461 L 263 461 L 264 460 L 273 460 Q 276 457 283 458 L 325 444 L 355 431 L 382 414 L 390 407 L 393 405 Q 408 392 420 375 L 429 361 L 438 343 L 447 313 L 449 303 L 449 296 L 450 295 L 450 285 L 451 284 L 451 270 L 450 269 L 449 249 L 447 244 L 447 239 L 443 222 L 431 188 L 421 169 L 422 161 L 439 151 L 446 144 Q 448 145 447 142 L 449 142 L 460 126 L 464 109 L 463 93 Q 459 80 452 72 Q 439 57 417 52 L 399 53 Q 388 56 381 63 L 367 81 L 360 97 L 358 99 L 350 99 L 330 90 L 307 83 L 292 81 L 286 79 L 263 78 L 262 77 L 238 78 L 237 79 L 228 79 L 222 81 L 216 81 L 184 90 L 164 99 L 156 99 L 153 97 L 146 81 L 134 64 L 125 57 L 115 53 L 96 52 Z "/>
    <path fill="#1a1a1a" d="M 174.5 202 Q 190.2 202.8 197 212.5 Q 202.3 218.7 202 230.5 Q 200 241 193.5 247 L 181.5 253 L 171.5 253 Q 161.3 250.3 156 242.5 Q 150 236.5 152 222.5 Q 154.1 213.1 160.5 208 L 166.5 204 L 174.5 202 Z M 172 214 L 169 216 L 163 225 Q 162 233 165 237 L 168 239 L 176 242 L 184 240 Q 190 237 191 229 L 189 221 L 182 214 L 172 214 Z "/>
    <path fill="#1a1a1a" d="M 332.5 202 Q 348 202 355 210.5 L 361 221.5 L 361 234.5 Q 358.8 242.3 353.5 247 L 341.5 253 L 331.5 253 Q 320.9 249.6 315 241.5 Q 310.6 235.9 311 225.5 Q 313.3 212.3 322.5 206 L 332.5 202 Z M 332 214 L 330 215 Q 324 219 322 227 L 325 237 L 332 241 L 343 241 L 345 240 L 350 233 Q 351 224 348 220 Q 344 212 332 214 Z "/>
    <path fill="#1a1a1a" d="M 247.5 253 L 266.5 253 L 284.5 257 L 300.5 266 L 315 279.5 L 324 293.5 L 331 310.5 L 335 329.5 L 335 347.5 Q 330.7 368 320 381 L 318 381 Q 319.1 383.7 316.5 383 Q 304.6 395.6 285.5 401 L 269.5 404 L 242.5 404 L 227.5 401 L 210.5 394 Q 198.3 387.2 190 376.5 L 184 366.5 L 180 355.5 Q 180.6 349.4 178 346.5 L 178 331.5 L 182 310.5 L 187 297.5 Q 194.8 281.3 207.5 270 L 218.5 262 L 229.5 257 L 247.5 253 Z M 252 264 L 231 269 L 219 276 Q 207 284 200 298 L 194 312 L 190 327 L 190 350 Q 193 363 201 372 Q 209 382 223 387 L 239 392 Q 245 390 247 393 L 276 392 L 296 385 L 305 379 Q 318 368 323 349 L 323 327 L 321 318 L 317 309 L 317 306 L 308 290 Q 298 276 283 269 L 261 264 L 252 264 Z "/>
    <path fill="#1a1a1a" d="M 231.5 299 Q 237.1 299.5 239 303.5 Q 243.1 306.4 242 314.5 Q 240.5 318.5 233.5 317 Q 227 313.5 226 304.5 L 229.5 300 L 231.5 299 Z "/>
    <path fill="#1a1a1a" d="M 280.5 299 L 286 301 L 287 307.5 L 279.5 317 Q 272.5 318.5 271 314.5 L 271 309.5 L 276.5 301 L 280.5 299 Z "/>
  </g>
</svg>
