<svg xmlns="http://www.w3.org/2000/svg" width="512" height="512" viewBox="0 0 512 512">
  <g id="color">
    <path fill="#ffffff" d="M 259.5 112 L 274 112.5 L 259.5 113 L 259.5 112 Z "/>
    <path fill="#ffffff" d="M 252.5 113 L 257 113.5 L 252.5 114 L 252.5 113 Z "/>
    <path fill="#ffffff" d="M 238.5 116 L 241 116.5 L 235.5 118 L 235.5 117 L 238.5 116 Z "/>
    <path fill="#ffffff" d="M 223.5 121 L 225 121.5 L 221.5 123 L 221.5 122 L 223.5 121 Z "/>
    <path fill="#ffffff" d="M 305.5 121 L 309 122.5 L 307.5 123 L 305.5 121 Z "/>
    <path fill="#ffffff" d="M 313.5 124 L 317 125.5 L 315.5 126 L 313.5 124 Z "/>
    <path fill="#ffffff" d="M 212.5 125 L 214 125.5 L 210.5 127 L 210.5 126 L 212.5 125 Z "/>
    <path fill="#ffffff" d="M 326.5 129 L 330 130.5 L 328.5 131 L 326.5 129 Z "/>
    <path fill="#ffffff" d="M 336.5 133 L 340 134.5 L 338.5 135 L 336.5 133 Z "/>
    <path fill="#ffffff" d="M 191.5 134 L 193 134.5 L 189.5 136 L 189.5 135 L 191.5 134 Z "/>
    <path fill="#ffffff" d="M 182.5 138 L 184 138.5 L 179.5 141 L 180.5 139 L 182.5 138 Z "/>
    <path fill="#ffffff" d="M 349.5 138 L 353 139.5 L 351.5 140 L 349.5 138 Z "/>
    <path fill="#ffffff" d="M 371.5 146 L 378 148.5 L 376.5 149 L 371.5 147 L 371.5 146 Z "/>
    <path fill="#ffffff" d="M 388.5 152 L 392 153.5 L 390.5 154 L 388.5 152 Z "/>
    <path fill="#ffffff" d="M 397.5 155 L 404 157.5 L 402.5 158 L 397.5 156 L 397.5 155 Z "/>
    <path fill="#ffffff" d="M 408.5 159 L 412 160.5 L 410.5 161 L 408.5 159 Z "/>
    <path fill="#ffffff" d="M 413.5 161 L 417 162.5 L 415.5 163 L 413.5 161 Z "/>
    <path fill="#ffffff" d="M 127.5 163 L 129 163.5 L 121.5 167 L 121.5 166 L 127.5 163 Z "/>
    <path fill="#ffffff" d="M 421.5 164 L 425 165.5 L 423.5 166 L 421.5 164 Z "/>
    <path fill="#ffffff" d="M 116.5 168 L 118 168.5 L 112.5 171 L 112.5 170 L 116.5 168 Z "/>
    <path fill="#ffffff" d="M 107.5 172 L 109 172.5 L 101.5 176 L 101.5 175 L 107.5 172 Z "/>
    <path fill="#ffffff" d="M 86.5 182 L 85.5 184 L 82.5 185 L 82.5 184 L 86.5 182 Z "/>
    <path fill="#ffffff" d="M 80.5 185 L 79.5 187 L 75.5 189 L 76.5 187 L 80.5 185 Z "/>
    <path fill="#ffffff" d="M 69.5 191 L 68.5 193 L 66.5 194 L 67.5 192 L 69.5 191 Z "/>
    <path fill="#ffffff" d="M 467.5 198 L 469 202.5 L 468 202.5 L 467.5 198 Z "/>
    <path fill="#ffffff" d="M 469.5 204 L 470 208.5 L 469 208.5 L 469.5 204 Z "/>
    <path fill="#ffffff" d="M 469.5 213 L 470 217.5 L 469 217.5 L 469.5 213 Z "/>
    <path fill="#ffffff" d="M 41.5 216 L 42 217.5 L 39.5 222 L 39 220.5 L 41.5 216 Z "/>
    <path fill="#ffffff" d="M 471.5 243 L 474 248.5 L 473 248.5 L 471.5 243 Z "/>
    <path fill="#ffffff" d="M 476.5 258 L 477 271.5 L 476 271.5 L 476.5 258 Z "/>
    <path fill="#ffffff" d="M 36.5 267 L 37 277.5 L 36 277.5 L 36.5 267 Z "/>
    <path fill="#ffffff" d="M 39.5 290 L 41 293.5 L 40 293.5 L 39.5 290 Z "/>
    <path fill="#ffffff" d="M 43.5 299 L 47 304.5 L 45 303.5 L 43.5 299 Z "/>
    <path fill="#ffffff" d="M 423.5 318 L 422.5 320 L 420.5 321 L 421.5 319 L 423.5 318 Z "/>
    <path fill="#ffffff" d="M 416.5 322 L 415.5 324 L 413.5 325 L 414.5 323 L 416.5 322 Z "/>
    <path fill="#ffffff" d="M 68.5 323 L 72 325.5 L 70.5 325 L 68.5 323 Z "/>
    <path fill="#ffffff" d="M 407.5 327 L 406.5 329 L 402.5 331 L 403.5 329 L 407.5 327 Z "/>
    <path fill="#ffffff" d="M 398.5 332 L 397.5 334 L 395.5 335 L 396.5 333 L 398.5 332 Z "/>
    <path fill="#ffffff" d="M 389.5 337 L 388.5 339 L 386.5 340 L 387.5 338 L 389.5 337 Z "/>
    <path fill="#ffffff" d="M 101.5 340 L 109 343.5 L 107.5 344 L 101.5 341 L 101.5 340 Z "/>
    <path fill="#ffffff" d="M 382.5 341 L 381.5 343 L 379.5 344 L 380.5 342 L 382.5 341 Z "/>
    <path fill="#ffffff" d="M 114.5 346 L 120 348.5 L 118.5 349 L 114.5 347 L 114.5 346 Z "/>
    <path fill="#ffffff" d="M 373.5 346 L 372.5 348 L 370.5 349 L 371.5 347 L 373.5 346 Z "/>
    <path fill="#ffffff" d="M 366.5 350 L 365.5 352 L 363.5 353 L 364.5 351 L 366.5 350 Z "/>
    <path fill="#ffffff" d="M 357.5 355 L 356.5 357 L 352.5 359 L 353.5 357 L 357.5 355 Z "/>
    <path fill="#ffffff" d="M 140.5 358 L 146 360.5 L 144.5 361 L 140.5 359 L 140.5 358 Z "/>
    <path fill="#ffffff" d="M 151.5 363 L 157 365.5 L 155.5 366 L 151.5 364 L 151.5 363 Z "/>
    <path fill="#ffffff" d="M 160.5 367 L 168 370.5 L 166.5 371 L 160.5 368 L 160.5 367 Z "/>
    <path fill="#ffffff" d="M 335.5 367 L 337 367.5 L 332.5 370 L 333.5 368 L 335.5 367 Z "/>
    <path fill="#ffffff" d="M 328.5 371 L 327.5 373 L 325.5 374 L 326.5 372 L 328.5 371 Z "/>
    <path fill="#ffffff" d="M 184.5 378 L 188 379.5 L 186.5 380 L 184.5 378 Z "/>
    <path fill="#ffffff" d="M 191.5 381 L 197 383.5 L 195.5 384 L 191.5 382 L 191.5 381 Z "/>
    <path fill="#ffffff" d="M 309.5 381 L 308.5 383 L 305.5 384 L 305.5 383 L 309.5 381 Z "/>
    <path fill="#ffffff" d="M 200.5 385 L 206 387.5 L 204.5 388 L 200.5 386 L 200.5 385 Z "/>
    <path fill="#ffffff" d="M 210.5 389 L 214 390.5 L 212.5 391 L 210.5 389 Z "/>
    <path fill="#ffffff" d="M 278.5 394 L 281 394.5 L 275.5 396 L 275.5 395 L 278.5 394 Z "/>
    <path fill="#ffffff" d="M 243.5 398 L 248 398.5 L 243.5 399 L 243.5 398 Z "/>
    <path fill="#ffffff" d="M 260.5 398 L 265 398.5 L 260.5 399 L 260.5 398 Z "/>
    <path fill="#4da3ff" d="M 259.5 123 L 271.5 123 L 286.5 126 L 289.5 128 L 312.5 135 L 314.5 137 L 317.5 137 L 329.5 143 L 338.5 145 L 356.5 153 L 362.5 154 L 367.5 157 L 376.5 159 L 381.5 162 L 387.5 163 L 407.5 171 L 410.5 171 L 439.5 184 Q 448.3 188.3 454 195.5 L 459 205.5 L 459 216.5 L 455 224 Q 452.3 222.9 453 225.5 L 442.5 235 L 425.5 246 L 421 247 Q 422.1 249.7 419.5 249 L 372.5 278 L 317.5 307 L 280.5 323 L 255.5 329 L 253.5 329 L 245.5 329 L 244.5 328 L 242.5 328 L 227.5 327 L 178.5 311 L 176.5 309 L 173.5 309 L 156.5 301 L 153.5 301 L 143.5 295 L 140.5 295 L 128.5 290 L 103.5 277 L 100.5 277 L 97.5 274 L 85.5 268 L 80.5 263 L 77 262 L 73 255.5 L 73 247.5 L 76.5 243 L 83.5 242 L 106.5 250 L 143.5 269 L 166.5 278 L 168.5 280 L 198.5 291 L 205.5 295 L 208.5 295 L 223.5 302 L 232 308.5 L 234 315 L 239.5 316 Q 243.9 314.4 243 307.5 L 237.5 299 L 220.5 289 L 164.5 267 L 114.5 242 L 90.5 233 L 76.5 232 L 66 238.5 L 62 247.5 L 62 256.5 Q 64.9 266.1 72 271.5 L 72 274.5 Q 68 278 69 286.5 Q 71.1 294.4 77.5 298 L 123.5 321 L 144.5 329 L 150.5 333 L 155.5 334 L 171.5 342 L 181.5 345 L 183.5 347 L 188.5 348 L 190.5 350 L 221.5 362 L 229.5 364 L 239.5 364 L 242 363 L 245 358.5 L 246 350.5 L 243.5 347 L 241.5 346 L 236 349.5 L 234.5 353 L 229.5 353 L 216.5 349 L 191.5 339 L 187.5 336 L 174.5 332 L 161.5 325 L 127.5 311 L 121.5 307 L 116.5 306 L 96.5 297 L 80 286.5 Q 78.8 281.3 81.5 280 L 123.5 301 L 142.5 309 L 145.5 309 L 149.5 312 L 154.5 313 L 168.5 320 L 177.5 322 L 182.5 325 L 208.5 333 L 211.5 335 L 241.5 341 L 244.5 340 L 246.5 340 L 253.5 341 L 254.5 340 L 268.5 339 L 287.5 333 L 302.5 326 L 307.5 325 L 347.5 305 L 419.5 264 L 454.5 240 L 459 243.5 L 465 256.5 L 466 270.5 L 461.5 279 Q 459.3 278.3 460 280.5 L 456 283 L 452.5 288 L 426.5 305 L 424 305 Q 425.1 307.7 422.5 307 L 321.5 364 L 300.5 375 L 276.5 385 L 274.5 385 L 259.5 389 L 257.5 388 L 254.5 389 L 251.5 388 L 248.5 389 L 247.5 388 L 236.5 387 L 216.5 381 Q 210.5 376.5 201.5 375 L 193.5 370 Q 192 372.5 190.5 369 L 109.5 333 Q 99.7 325.8 86.5 322 L 66 309.5 Q 66.8 306.9 63.5 308 L 60.5 304 L 57 301.5 L 55 298.5 L 49 286.5 L 47 276.5 L 47 268.5 L 50 260.5 L 51 251.5 L 48 241.5 L 48 228.5 Q 51.7 216.7 60.5 210 L 64 209 Q 62.9 206.3 65.5 207 L 88.5 193 L 156.5 163 L 164.5 158 L 169.5 157 Q 177.6 150.6 189.5 148 L 193.5 145 L 207.5 140 L 209.5 138 L 212.5 138 L 236.5 128 L 259.5 123 Z M 210 164 L 198 169 L 187 181 L 182 193 L 182 207 L 186 218 L 193 225 Q 195 224 194 227 L 203 232 L 210 234 L 226 234 L 240 228 L 246 220 L 246 216 L 244 213 L 236 212 L 230 209 L 224 204 L 221 197 Q 220 188 222 184 L 231 174 L 232 169 L 225 164 L 210 164 Z M 311 174 Q 302 175 298 180 L 289 196 Q 287 212 295 219 L 300 223 L 313 228 L 321 228 L 333 223 L 342 212 L 344 205 L 344 194 L 336 180 L 325 175 L 311 174 Z M 422 204 L 314 266 Q 294 273 279 284 L 274 285 L 273 288 Q 272 293 277 294 L 291 289 L 331 269 L 336 265 L 347 260 L 390 235 Q 392 236 391 233 L 399 230 L 424 214 L 427 209 L 426 205 L 422 204 Z "/>
    <path fill="#ff6b6b" d="M 308.5 183 L 314.5 184 L 315.5 183 L 323 183 Q 321.9 185.7 324.5 185 L 326 184.5 L 325.5 186 L 329.5 188 Q 331.3 185.3 333 189.5 L 332 190.5 L 335 193.5 L 334 200.5 L 335 200.5 L 335.5 197 L 336 202.5 L 334 202.5 L 335 207 L 333 207.5 L 333.5 209 L 332 209.5 L 332.5 211 L 331 210.5 L 328.5 214 L 327 214.5 L 327.5 216 L 325 216 Q 326.1 218.7 323.5 218 L 321.5 219 L 319 218 L 318.5 220 L 315.5 219 L 313 220 L 312.5 218 L 309.5 219 L 305 217 L 303.5 214 L 301 212.5 Q 301.5 207 298.5 205 L 297 205.5 L 298 198.5 L 298 196.5 Q 296.9 193.2 299.5 194 L 303 188.5 Q 300.8 187.3 303.5 186 L 306 186 Q 304.9 183.3 307.5 184 L 308.5 183 Z "/>
    <path fill="#9775fa" d="M 212.5 172 Q 219.5 170.5 219 173.5 Q 211.6 180.6 212 195.5 Q 214.2 209.8 224.5 216 L 233 220.5 L 231.5 223 Q 224.6 227.6 211.5 226 Q 199.6 223.4 194 214.5 L 190 203.5 L 190 197.5 Q 192.3 183.8 201.5 177 L 212.5 172 Z "/>
    <path fill="#66d9e8" d="M 261.5 121 L 269.5 121 L 285.5 124 L 314.5 134 L 361.5 153 L 409.5 169 L 437.5 181 Q 448.6 186.4 456 195.5 Q 461.7 202.3 461 215.5 L 458 222.5 L 447.5 233 L 384.5 273 L 317.5 309 L 277.5 326 L 261.5 330 L 247.5 331 L 246.5 330 L 229.5 329 L 213.5 325 L 166.5 308 L 126.5 291 L 95.5 276 L 75 261.5 Q 69.4 258.1 71 247.5 L 75.5 242 Q 79 239.5 86.5 241 L 117.5 253 L 139.5 265 L 170.5 279 L 219.5 298 Q 228.3 301.7 234 308.5 L 236.5 314 Q 240.3 314.8 241 312.5 L 241 306.5 L 233.5 298 L 211.5 287 L 153.5 264 L 110.5 242 L 87.5 234 L 75.5 234 L 68 238 L 64 246.5 L 64 257.5 Q 66.8 266.2 73.5 271 Q 76.1 270.2 75 273.5 Q 69.4 276.9 71 287.5 L 76.5 295 L 85.5 301 L 108.5 311 L 112.5 314 L 204.5 354 L 227.5 362 L 238.5 362 L 243 358.5 L 244 350.5 L 240.5 348 Q 236.9 350.1 237 355 L 229.5 355 L 216.5 351 L 168.5 331 L 159.5 326 L 136.5 317 L 132.5 314 L 107.5 304 L 85.5 293 L 78 286.5 Q 77.4 281.1 79 279 L 82.5 278 L 130.5 302 L 189.5 326 L 226.5 337 L 242.5 338 L 243.5 339 L 257.5 339 L 273.5 336 L 288.5 331 L 328.5 313 L 406.5 270 L 455.5 238 L 461 243.5 L 466 252.5 L 468 261.5 L 468 268.5 Q 465.6 281.1 456.5 287 L 421.5 310 L 323.5 365 L 278.5 386 L 268.5 389 L 253.5 391 L 225.5 386 L 197.5 375 L 79.5 320 Q 64.8 313.2 55 301.5 Q 46.1 290.9 45 272.5 L 47 261.5 L 49 257.5 L 49 249.5 Q 44.4 242.6 46 229.5 Q 49.9 215.4 60.5 208 Q 79.1 194.6 101.5 185 L 141.5 168 L 205.5 138 L 237.5 126 L 261.5 121 Z M 260 123 L 237 128 L 213 138 L 210 138 L 208 140 L 194 145 L 190 148 Q 178 151 170 157 L 165 158 L 157 163 L 89 193 L 66 207 Q 63 206 64 209 L 61 210 Q 52 217 48 229 L 48 242 L 51 252 L 50 261 L 47 269 L 47 277 L 49 287 L 55 299 L 57 302 L 61 304 L 64 308 Q 67 307 66 310 L 87 322 Q 100 326 110 333 L 191 369 Q 192 372 194 370 L 202 375 Q 211 376 217 381 L 237 387 L 248 388 L 249 389 L 252 388 L 255 389 L 258 388 L 260 389 L 275 385 L 277 385 L 301 375 L 322 364 L 423 307 Q 425 308 424 305 L 427 305 L 453 288 L 456 283 L 460 281 Q 459 278 462 279 L 466 271 L 465 257 L 459 244 L 455 240 L 420 264 L 348 305 L 308 325 L 303 326 L 288 333 L 269 339 L 255 340 L 254 341 L 247 340 L 245 340 L 242 341 L 212 335 L 209 333 L 183 325 L 178 322 L 169 320 L 155 313 L 150 312 L 146 309 L 143 309 L 124 301 L 82 280 Q 79 281 80 287 L 97 297 L 117 306 L 122 307 L 128 311 L 162 325 L 175 332 L 188 336 L 192 339 L 217 349 L 230 353 L 235 353 L 236 350 L 242 346 L 244 347 L 246 351 L 245 359 L 242 363 L 240 364 L 230 364 L 222 362 L 191 350 L 189 348 L 184 347 L 182 345 L 172 342 L 156 334 L 151 333 L 145 329 L 124 321 L 78 298 Q 71 294 69 287 Q 68 278 72 275 L 72 272 Q 65 266 62 257 L 62 248 L 66 239 L 77 232 L 91 233 L 115 242 L 165 267 L 221 289 L 238 299 L 243 308 Q 244 314 240 316 L 234 315 L 232 309 L 224 302 L 209 295 L 206 295 L 199 291 L 169 280 L 167 278 L 144 269 L 107 250 L 84 242 L 77 243 L 73 248 L 73 256 L 77 262 L 81 263 L 86 268 L 98 274 L 101 277 L 104 277 L 129 290 L 141 295 L 144 295 L 154 301 L 157 301 L 174 309 L 177 309 L 179 311 L 228 327 L 243 328 L 245 328 L 246 329 L 254 329 L 256 329 L 281 323 L 318 307 L 373 278 L 420 249 Q 422 250 421 247 L 426 246 L 443 235 L 453 226 Q 452 223 455 224 L 459 217 L 459 206 L 454 196 Q 448 188 440 184 L 411 171 L 408 171 L 388 163 L 382 162 L 377 159 L 368 157 L 363 154 L 357 153 L 339 145 L 330 143 L 318 137 L 315 137 L 313 135 L 290 128 L 287 126 L 272 123 L 260 123 Z "/>
    <path fill="#66d9e8" d="M 209.5 164 L 224.5 164 L 232 168.5 L 231 173.5 L 222 183.5 Q 219.8 188.3 221 196.5 L 224 203.5 L 229.5 209 L 235.5 212 L 243.5 213 L 246 215.5 L 246 219.5 L 240 228 L 225.5 234 L 209.5 234 L 202.5 232 L 194 226.5 Q 194.8 224.3 192.5 225 L 186 217.5 L 182 206.5 L 182 192.5 L 187 180.5 L 197.5 169 L 209.5 164 Z M 212 165 L 197 172 L 189 181 L 184 193 L 184 208 L 191 222 Q 198 231 213 233 L 223 233 L 231 231 L 239 226 L 244 221 L 245 217 L 241 214 L 234 213 L 226 208 L 219 197 L 219 188 L 225 177 L 228 175 Q 231 174 230 169 L 226 166 L 212 165 Z "/>
    <path fill="#66d9e8" d="M 310.5 174 L 324.5 175 L 336 180 L 344 193.5 L 344 204.5 L 342 211.5 L 332.5 223 L 320.5 228 L 312.5 228 L 299.5 223 L 295 218.5 Q 287.3 211.7 289 195.5 L 297.5 180 Q 302.3 175.3 310.5 174 Z M 309 176 L 300 181 Q 292 187 290 199 L 290 205 L 293 214 L 297 219 L 300 221 L 311 226 L 322 226 L 333 221 Q 340 216 342 206 Q 344 193 339 187 L 329 178 L 309 176 Z "/>
    <path fill="#66d9e8" d="M 421.5 204 L 426 205 L 427 208.5 L 423.5 214 L 398.5 230 L 391 233 Q 392.1 235.7 389.5 235 L 346.5 260 L 335.5 265 L 330.5 269 L 290.5 289 L 276.5 294 Q 272.3 293.3 273 287.5 L 274 285 L 278.5 284 Q 294.3 273.3 313.5 266 L 421.5 204 Z M 421 206 L 352 247 L 275 288 Q 274 291 277 292 L 280 292 L 289 288 L 327 269 L 423 213 Q 426 212 425 208 Q 424 205 421 206 Z "/>
    <path fill="#f783ac" d="M 323.5 184 Q 331.4 185 334 191.5 L 328.5 187 L 323.5 185 L 323.5 184 Z "/>
    <path fill="#f783ac" d="M 302.5 188 L 302 189.5 L 299.5 194 L 299 192.5 L 302.5 188 Z "/>
    <path fill="#f783ac" d="M 334.5 195 L 335 200.5 L 334 200.5 L 334.5 195 Z "/>
    <path fill="#f783ac" d="M 298.5 205 L 301 211.5 L 300 211.5 Q 297 209 298.5 205 Z "/>
    <path fill="#f783ac" d="M 332.5 209 L 332 210.5 L 328.5 215 L 327 214.5 L 331 211.5 L 332.5 209 Z "/>
  </g>
  <g id="line">
    <path fill="#1a1a1a" d="M 257.5 113 L 274.5 113 L 292.5 117 L 351.5 140 L 407.5 159 L 430.5 168 L 446.5 176 L 463 190.5 Q 469.6 198.4 470 212.5 L 468 221.5 L 462 231.5 Q 470 238.5 474 249.5 Q 477.8 258.2 476 272.5 Q 472.1 286.6 461.5 294 L 438.5 310 L 412.5 325 L 337.5 367 L 294.5 389 L 267.5 398 L 248.5 399 L 247.5 398 L 233.5 397 L 206.5 388 L 128.5 353 L 72.5 326 Q 57.5 318 47 305.5 L 39 289.5 L 37 280.5 L 37 265.5 L 41 253.5 L 38 245.5 L 37 231.5 L 42 215.5 L 48.5 207 Q 62.8 193.8 81.5 185 L 188.5 136 L 225.5 121 L 241.5 116 L 257.5 113 Z M 262 121 L 238 126 L 206 138 L 142 168 L 102 185 Q 79 195 61 208 Q 50 215 46 230 Q 44 243 49 250 L 49 258 L 47 262 L 45 273 Q 46 291 55 302 Q 65 313 80 320 L 198 375 L 226 386 L 254 391 L 269 389 L 279 386 L 324 365 L 422 310 L 457 287 Q 466 281 468 269 L 468 262 L 466 253 L 461 244 L 456 238 L 407 270 L 329 313 L 289 331 L 274 336 L 258 339 L 244 339 L 243 338 L 227 337 L 190 326 L 131 302 L 83 278 L 79 279 Q 77 281 78 287 L 86 293 L 108 304 L 133 314 L 137 317 L 160 326 L 169 331 L 217 351 L 230 355 L 237 355 Q 237 350 241 348 L 244 351 L 243 359 L 239 362 L 228 362 L 205 354 L 113 314 L 109 311 L 86 301 L 77 295 L 71 288 Q 69 277 75 274 Q 76 270 74 271 Q 67 266 64 258 L 64 247 L 68 238 L 76 234 L 88 234 L 111 242 L 154 264 L 212 287 L 234 298 L 241 307 L 241 313 Q 240 315 237 314 L 234 309 Q 228 302 220 298 L 171 279 L 140 265 L 118 253 L 87 241 Q 79 240 76 242 L 71 248 Q 69 258 75 262 L 96 276 L 127 291 L 167 308 L 214 325 L 230 329 L 247 330 L 248 331 L 262 330 L 278 326 L 318 309 L 385 273 L 448 233 L 458 223 L 461 216 Q 462 202 456 196 Q 449 186 438 181 L 410 169 L 362 153 L 315 134 L 286 124 L 270 121 L 262 121 Z "/>
    <path fill="#1a1a1a" d="M 211.5 165 L 225.5 166 L 230 168.5 Q 231 174 227.5 175 L 225 176.5 L 219 187.5 L 219 196.5 L 225.5 208 L 233.5 213 L 244 215 L 244 220.5 L 238.5 226 L 230.5 231 L 222.5 233 L 212.5 233 Q 198.4 230.6 191 221.5 L 184 207.5 L 184 192.5 L 189 180.5 L 196.5 172 L 211.5 165 Z M 213 172 L 202 177 Q 192 184 190 198 L 190 204 L 194 215 Q 200 223 212 226 Q 225 228 232 223 L 233 221 L 225 216 Q 214 210 212 196 Q 212 181 219 174 Q 220 171 213 172 Z "/>
    <path fill="#1a1a1a" d="M 308.5 176 L 328.5 178 L 339 186.5 Q 343.8 192.7 342 205.5 Q 339.6 215.6 332.5 221 L 321.5 226 L 310.5 226 L 299.5 221 L 297 218.5 L 293 213.5 L 290 204.5 L 290 198.5 Q 292.2 187.2 299.5 181 L 308.5 176 Z M 309 183 L 304 186 L 297 198 L 297 206 L 302 215 L 314 220 Q 323 220 328 216 Q 334 212 336 203 L 336 198 L 333 190 L 323 183 Q 316 181 315 184 L 309 183 Z "/>
    <path fill="#1a1a1a" d="M 420.5 206 Q 424.3 205.3 425 207.5 Q 425.8 212.3 422.5 213 L 326.5 269 L 288.5 288 L 279.5 292 L 276.5 292 Q 274.3 291.3 275 287.5 L 351.5 247 L 420.5 206 Z "/>
  </g>
</svg>
