<svg xmlns="http://www.w3.org/2000/svg" width="512" height="512" viewBox="0 0 512 512">
  <g id="color">
    <path fill="#ffffff" d="M 375.5 53 L 372 57.5 L 370.5 61 L 370 59.5 L 375.5 53 Z "/>
    <path fill="#ffffff" d="M 409.5 53 L 415 59.5 L 413 58.5 L 409.5 53 Z "/>
    <path fill="#ffffff" d="M 229.5 61 L 242 61.5 L 229.5 62 L 229.5 61 Z "/>
    <path fill="#ffffff" d="M 273.5 61 L 286 61.5 L 273.5 62 L 273.5 61 Z "/>
    <path fill="#ffffff" d="M 143.5 62 L 144 66.5 L 143 66.5 L 143.5 62 Z "/>
    <path fill="#ffffff" d="M 216.5 62 L 227 62.5 L 216.5 63 L 216.5 62 Z "/>
    <path fill="#ffffff" d="M 287.5 62 L 297 62.5 L 287.5 63 L 287.5 62 Z "/>
    <path fill="#ffffff" d="M 369.5 62 L 370 67.5 L 367.5 74 L 361 72.5 L 365.5 72 L 368 73 L 369.5 62 Z "/>
    <path fill="#ffffff" d="M 207.5 63 L 214 63.5 L 207.5 64 L 207.5 63 Z "/>
    <path fill="#ffffff" d="M 300.5 63 L 306 63.5 L 300.5 64 L 300.5 63 Z "/>
    <path fill="#ffffff" d="M 197.5 64 L 203 64.5 L 197.5 65 L 197.5 64 Z "/>
    <path fill="#ffffff" d="M 311.5 64 L 316 64.5 L 311.5 65 L 311.5 64 Z "/>
    <path fill="#ffffff" d="M 189.5 65 L 196 65.5 L 184.5 67 L 184.5 66 L 189.5 65 Z "/>
    <path fill="#ffffff" d="M 318.5 65 L 324 65.5 L 318.5 66 L 318.5 65 Z "/>
    <path fill="#ffffff" d="M 325.5 66 L 330 66.5 L 325.5 67 L 325.5 66 Z "/>
    <path fill="#ffffff" d="M 416.5 66 L 417 82.5 L 416 82.5 L 416.5 66 Z "/>
    <path fill="#ffffff" d="M 96.5 67 L 97 85.5 L 96 85.5 L 96.5 67 Z "/>
    <path fill="#ffffff" d="M 144.5 68 L 145 73 L 151.5 72 L 151.5 73 L 145.5 74 Q 142.6 72.6 144.5 68 Z "/>
    <path fill="#ffffff" d="M 170.5 68 L 175 68.5 L 165.5 70 L 165.5 69 L 170.5 68 Z "/>
    <path fill="#ffffff" d="M 339.5 68 L 349 69.5 L 344.5 70 L 339.5 69 L 339.5 68 Z "/>
    <path fill="#ffffff" d="M 417.5 85 L 418 109.5 L 417 109.5 L 417.5 85 Z "/>
    <path fill="#ffffff" d="M 95.5 87 L 96 114.5 L 95 114.5 L 95.5 87 Z "/>
    <path fill="#ffffff" d="M 95.5 153 L 96 185.5 L 95 185.5 L 95.5 153 Z "/>
    <path fill="#ffffff" d="M 417.5 155 L 418 188.5 L 417 188.5 L 417.5 155 Z "/>
    <path fill="#ffffff" d="M 96.5 187 L 97 206.5 L 96 206.5 L 96.5 187 Z "/>
    <path fill="#ffffff" d="M 416.5 192 L 417 211.5 L 418 212.5 L 416 211.5 L 416.5 192 Z "/>
    <path fill="#ffffff" d="M 86.5 233 L 87 234.5 L 84.5 239 L 84 237.5 L 86.5 233 Z "/>
    <path fill="#ffffff" d="M 426.5 233 L 429 238.5 L 428 238.5 L 426.5 233 Z "/>
    <path fill="#ffffff" d="M 429.5 240 L 432 245.5 L 431 245.5 L 429.5 240 Z "/>
    <path fill="#ffffff" d="M 82.5 242 L 83 243.5 L 81.5 246 L 81 244.5 L 82.5 242 Z "/>
    <path fill="#ffffff" d="M 79.5 249 L 80 250.5 L 77.5 255 L 77 253.5 L 79.5 249 Z "/>
    <path fill="#ffffff" d="M 433.5 249 L 435 252.5 L 434 252.5 L 433.5 249 Z "/>
    <path fill="#ffffff" d="M 76.5 256 L 77 257.5 L 74.5 262 L 74 260.5 L 76.5 256 Z "/>
    <path fill="#ffffff" d="M 436.5 256 L 438 259.5 L 437 259.5 L 436.5 256 Z "/>
    <path fill="#ffffff" d="M 73.5 263 L 74 264.5 L 71.5 269 L 71 267.5 L 73.5 263 Z "/>
    <path fill="#ffffff" d="M 440.5 266 L 443 271.5 L 442 271.5 L 440.5 266 Z "/>
    <path fill="#ffffff" d="M 443.5 273 L 446 278.5 L 445 278.5 L 443.5 273 Z "/>
    <path fill="#ffffff" d="M 65.5 282 L 66 283.5 L 64.5 286 L 64 284.5 L 65.5 282 Z "/>
    <path fill="#ffffff" d="M 62.5 289 L 63 290.5 L 60.5 295 L 60 293.5 L 62.5 289 Z "/>
    <path fill="#ffffff" d="M 450.5 289 L 452 292.5 L 451 292.5 L 450.5 289 Z "/>
    <path fill="#ffffff" d="M 59.5 296 L 60 297.5 L 57.5 302 L 57 300.5 L 59.5 296 Z "/>
    <path fill="#ffffff" d="M 453.5 296 L 456 301.5 L 455 301.5 L 453.5 296 Z "/>
    <path fill="#ffffff" d="M 456.5 303 L 459 308.5 L 458 308.5 L 456.5 303 Z "/>
    <path fill="#ffffff" d="M 55.5 305 L 56 306.5 L 54.5 309 L 54 307.5 L 55.5 305 Z "/>
    <path fill="#ffffff" d="M 52.5 312 L 53 313.5 L 50.5 319 L 50 317.5 L 52.5 312 Z "/>
    <path fill="#ffffff" d="M 460.5 312 L 462 316.5 L 461 316.5 L 460.5 312 Z "/>
    <path fill="#ffffff" d="M 48.5 326 L 49 330.5 L 47.5 336 L 47 331.5 L 48.5 326 Z "/>
    <path fill="#ffffff" d="M 465.5 331 L 466 335.5 L 465 335.5 L 465.5 331 Z "/>
    <path fill="#ffffff" d="M 47.5 349 L 48 360.5 L 49 361.5 L 47 360.5 L 47.5 349 Z "/>
    <path fill="#ffffff" d="M 465.5 352 L 466 363.5 L 465 363.5 L 465.5 352 Z "/>
    <path fill="#ffffff" d="M 467.5 364 L 473 370.5 L 471 369.5 L 467.5 364 Z "/>
    <path fill="#ffffff" d="M 38.5 375 L 39 379.5 L 38 379.5 L 38.5 375 Z "/>
    <path fill="#ffffff" d="M 474.5 375 L 475 379.5 L 474 379.5 L 474.5 375 Z "/>
    <path fill="#ffffff" d="M 37.5 381 L 38 391.5 L 37 391.5 L 37.5 381 Z "/>
    <path fill="#ffffff" d="M 475.5 381 L 476 391.5 L 475 391.5 L 475.5 381 Z "/>
    <path fill="#ffffff" d="M 37.5 415 L 38 434.5 L 37 434.5 L 37.5 415 Z "/>
    <path fill="#ffffff" d="M 475.5 415 L 476 437.5 L 475 437.5 L 475.5 415 Z "/>
    <path fill="#ffffff" d="M 105.5 429 L 115 429.5 L 105.5 430 L 105.5 429 Z "/>
    <path fill="#ffffff" d="M 398.5 429 L 407 429.5 L 398.5 430 L 398.5 429 Z "/>
    <path fill="#ffffff" d="M 137.5 430 L 188 430.5 L 137.5 431 L 137.5 430 Z "/>
    <path fill="#ffffff" d="M 323.5 430 L 380 430.5 L 323.5 431 L 323.5 430 Z "/>
    <path fill="#ffffff" d="M 409.5 430 L 413 432.5 L 414 437.5 L 413 437.5 Q 413.6 432.4 410.5 431 L 409.5 430 Z "/>
    <path fill="#ffffff" d="M 190.5 431 L 317 431.5 L 190.5 432 L 190.5 431 Z "/>
    <path fill="#ffffff" d="M 100.5 433 L 100 434.5 L 99.5 439 L 99 434.5 L 100.5 433 Z "/>
    <path fill="#ffffff" d="M 38.5 437 L 39 447.5 L 38 447.5 L 38.5 437 Z "/>
    <path fill="#ffffff" d="M 474.5 439 L 475 448.5 L 474 448.5 L 474.5 439 Z "/>
    <path fill="#ffffff" d="M 414.5 440 L 415 444.5 L 414 444.5 L 414.5 440 Z "/>
    <path fill="#ffffff" d="M 98.5 441 L 99 445.5 L 98 445.5 L 98.5 441 Z "/>
    <path fill="#ffffff" d="M 415.5 448 L 419 455.5 L 417 454.5 Q 414 452 415.5 448 Z "/>
    <path fill="#ffffff" d="M 40.5 454 L 43 457.5 L 40 455.5 L 40.5 454 Z "/>
    <path fill="#ffffff" d="M 472.5 454 L 473 455.5 L 470 457.5 L 472.5 454 Z "/>
    <path fill="#ffffff" d="M 419.5 457 L 423 459.5 L 421.5 459 L 419.5 457 Z "/>
    <path fill="#ffffff" d="M 87.5 460 L 89 460.5 Q 87.3 462.8 82.5 462 L 82.5 461 L 87.5 460 Z "/>
    <path fill="#ffffff" d="M 48.5 461 L 53 461.5 L 48.5 462 L 48.5 461 Z "/>
    <path fill="#ffffff" d="M 460.5 461 L 465 461.5 L 460.5 462 L 460.5 461 Z "/>
    <path fill="#ffffff" d="M 54.5 462 L 65 462.5 L 54.5 463 L 54.5 462 Z "/>
    <path fill="#ffffff" d="M 73.5 462 L 81 462.5 L 73.5 463 L 73.5 462 Z "/>
    <path fill="#ffffff" d="M 432.5 462 L 441 462.5 L 432.5 463 L 432.5 462 Z "/>
    <path fill="#ffffff" d="M 448.5 462 L 459 462.5 L 448.5 463 L 448.5 462 Z "/>
    <path fill="#4da3ff" d="M 114.5 61 L 122.5 62 Q 123.7 59.7 128.5 61 L 133 64.5 L 134 81.5 L 136.5 85 L 140.5 86 L 161.5 81 L 192.5 77 L 193.5 76 L 195.5 76 L 210.5 74 L 212.5 75 L 213.5 74 L 237.5 73 L 238.5 72 L 278.5 72 L 279.5 73 Q 287.7 71.3 291.5 74 L 293.5 74 L 327.5 77 L 328.5 78 L 334.5 78 L 358.5 83 L 375.5 85 L 379 82.5 L 380 64.5 L 382.5 62 L 388.5 61 L 391.5 62 Q 393.3 59.2 399.5 61 L 405 64.5 L 406 66.5 L 405 68.5 L 406 69.5 L 406 94.5 L 407 95.5 L 407 184.5 L 406 185.5 L 406 193 L 385.5 186 L 356.5 186 L 355.5 185 L 348 185 L 347 182.5 L 345 163.5 L 343 160.5 L 343 142.5 Q 340.9 134.6 334.5 131 Q 329.8 128.8 321.5 130 Q 314.3 133.8 301.5 132 L 287.5 129 L 274.5 128 L 272.5 128 L 234.5 128 L 211.5 132 L 197.5 132 Q 192.1 128.9 182.5 130 L 173 136.5 Q 167.9 140.9 170 152.5 L 171 155.5 L 167 170.5 L 166 183.5 L 164.5 185 Q 158.2 183.3 156.5 186 L 126.5 186 L 107 193 L 107 172.5 L 106 171.5 L 106 97.5 L 107 96.5 L 107 70.5 Q 109.3 69.3 108 64.5 L 110.5 62 L 114.5 61 Z "/>
    <path fill="#4da3ff" d="M 57.5 372 Q 62.3 370.7 63.5 373 L 249 373 L 251 385.5 L 257.5 394 L 264.5 397 L 283.5 398 L 284.5 397 L 320.5 397 L 321.5 398 L 328.5 398 L 336.5 400 L 347.5 400 L 348.5 401 L 380.5 401 L 381.5 400 L 389.5 400 L 398.5 397 L 405 390.5 L 407 386.5 L 408 373 L 460.5 373 L 463 375.5 L 465 385.5 L 465 427.5 L 464 428.5 L 464 445.5 L 461.5 451 L 441.5 452 L 440.5 451 Q 431.5 452 427 450 L 423 427.5 L 417.5 422 L 406.5 418 L 400.5 418 L 399.5 419 L 363.5 419 L 362.5 420 L 160.5 420 L 157.5 419 Q 156 421.5 150.5 420 L 149.5 419 L 100.5 419 L 92 425.5 L 89 431.5 L 88 443.5 L 85.5 450 Q 84 447.5 82.5 451 L 63.5 452 L 62.5 451 L 51.5 451 L 50 449.5 L 49 447.5 L 50 444.5 L 49 443.5 L 49 426.5 L 48 425.5 L 48 385.5 L 50 374 L 57.5 372 Z "/>
    <path fill="#ffd43b" d="M 247.5 138 L 279.5 139 L 280.5 140 L 289.5 140 L 305.5 143 L 314.5 143 L 328.5 140 L 332 142 L 333 147.5 L 332 148.5 L 332 158.5 L 337 178.5 L 337 203.5 L 334.5 207 L 310.5 207 L 309.5 208 L 295.5 209 L 294.5 210 L 284.5 210 L 283.5 211 L 246.5 212 L 245.5 211 L 218.5 210 L 201.5 207 L 178.5 207 L 177 205.5 L 176 203.5 L 176 180.5 L 177 179.5 L 177 171.5 L 181 159.5 L 181 143.5 L 184.5 140 L 199.5 143 L 207.5 143 L 223.5 140 L 246.5 139 L 247.5 138 Z "/>
    <path fill="#ffd43b" d="M 134.5 196 L 165.5 196 L 167 197.5 L 167 203.5 L 170 212 L 177.5 216 L 189.5 216 Q 191.2 213.2 197.5 215 L 211.5 218 L 221.5 218 L 232.5 220 L 267.5 221 L 268.5 220 L 281.5 220 L 282.5 219 L 300.5 218 L 315.5 215 L 323.5 215 L 324.5 216 L 335.5 216 Q 341.6 214.6 344 209.5 L 346 203.5 L 346 197.5 L 347.5 196 L 377.5 196 L 378.5 197 L 387.5 197 Q 396.4 199.6 402 205.5 L 404 208.5 L 411 219.5 L 430 266.5 Q 428.8 269.3 427.5 267 L 410.5 267 L 409.5 266 L 328.5 266 L 327.5 267 L 285.5 267 Q 283.8 269.8 277.5 268 Q 264.5 270 258 278.5 L 252 291.5 L 251 307 L 75.5 307 L 64 310 L 88 254.5 L 92 242.5 L 98 231.5 L 102 219.5 Q 105.5 210 112.5 204 L 122.5 198 L 133.5 197 L 134.5 196 Z "/>
    <path fill="#ffd43b" d="M 315.5 275 L 321 275.5 L 315.5 276 L 315.5 275 Z "/>
    <path fill="#ffd43b" d="M 426.5 306 L 432 306.5 L 426.5 307 L 426.5 306 Z "/>
    <path fill="#ffd43b" d="M 74.5 316 L 249.5 316 L 251 317.5 L 250 362 L 58.5 362 L 57 360.5 L 56 337.5 L 59 327.5 L 65.5 320 L 74.5 316 Z "/>
    <path fill="#ffd43b" d="M 406 316 L 438.5 316 Q 447.6 317.9 452 324.5 L 456 331.5 L 457 349.5 L 456 350.5 L 456 362 L 408.5 362 L 407 360.5 L 406 316 Z "/>
    <path fill="#ffa94d" d="M 321.5 275 L 381.5 275 L 384 277.5 L 390 287.5 L 396 307.5 L 396 311.5 Q 398.4 316.6 397 325.5 L 397 327.5 L 398 335.5 L 398 339.5 L 398 374.5 L 396 385.5 L 393.5 388 L 382.5 390 L 380.5 390 Q 374.2 388.3 372.5 391 L 370.5 391 L 358.5 391 L 347.5 389 L 345.5 390 L 340.5 388 L 338.5 389 L 335.5 388 Q 329.3 389.8 327.5 387 L 323.5 387 L 316.5 386 L 313.5 387 L 312.5 386 L 297.5 386 L 295.5 387 L 293.5 387 L 267.5 387 L 262 385 L 260 377.5 L 260 368.5 L 259 367.5 L 259 327.5 L 259 325.5 Q 257.3 319.3 260 317.5 L 259 313.5 L 260 312.5 L 260 302.5 L 261 301.5 L 260 299.5 Q 262.8 297.8 261 291.5 Q 263.6 284.1 269.5 280 L 282.5 276 L 320.5 276 L 321.5 275 Z "/>
    <path fill="#ffa94d" d="M 398.5 275 L 431.5 276 L 436 278 L 443 297.5 L 449 308.5 Q 447.8 311.3 446.5 309 Q 441.5 310 440.5 307 L 438.5 307 L 434.5 306 L 432.5 307 Q 431.3 304.8 426.5 306 L 424.5 306 L 418.5 307 L 416.5 306 L 412.5 307 L 410.5 307 L 406.5 306 Q 405.3 308.2 404 305.5 Q 401.8 288.2 394 276.5 L 398.5 275 Z "/>
    <path fill="#66d9e8" d="M 115.5 59 Q 128.6 56.9 134 62.5 L 136 81.5 L 138.5 84 L 167.5 78 L 174.5 78 L 180.5 76 L 210.5 73 L 211.5 72 L 241.5 71 L 242.5 70 L 273.5 70 L 274.5 71 L 289.5 71 L 290.5 72 L 301.5 72 L 302.5 73 L 326.5 75 L 339.5 78 L 352.5 79 L 374.5 84 L 377 81.5 L 378 65.5 L 380.5 61 Q 384.5 57.5 393.5 59 L 394.5 60 L 402.5 60 L 407 63.5 Q 405.2 69.7 408 71.5 L 408 103.5 L 409 104.5 L 409 171.5 L 408 172.5 L 408 197 L 405.5 197 L 393.5 190 L 385.5 188 L 346 187 L 345 173.5 L 341 160.5 L 341 141.5 L 336.5 135 Q 331.8 129.8 319.5 132 Q 313.4 135.4 302.5 134 L 301.5 133 L 277.5 131 L 276.5 130 L 238.5 130 L 237.5 131 L 217.5 132 L 210.5 134 L 198.5 134 Q 192.4 130.6 181.5 132 L 175 136.5 L 172 141.5 L 172 160.5 L 168 174.5 Q 168.7 182.5 167 187 L 126.5 188 Q 114.1 191 106 197 L 105 194.5 L 105 165.5 L 104 164.5 L 104 103.5 L 105 102.5 L 106 64.5 L 108.5 61 L 115.5 59 Z M 115 61 L 111 62 L 108 65 Q 109 69 107 71 L 107 97 L 106 98 L 106 172 L 107 173 L 107 193 L 127 186 L 157 186 Q 158 183 165 185 L 166 184 L 167 171 L 171 156 L 170 153 Q 168 141 173 137 L 183 130 Q 192 129 198 132 L 212 132 L 235 128 L 273 128 L 275 128 L 288 129 L 302 132 Q 314 134 322 130 Q 330 129 335 131 Q 341 135 343 143 L 343 161 L 345 164 L 347 183 L 348 185 L 356 185 L 357 186 L 386 186 L 406 193 L 406 186 L 407 185 L 407 96 L 406 95 L 406 70 L 405 69 L 406 67 L 405 65 L 400 61 Q 393 59 392 62 L 389 61 L 383 62 L 380 65 L 379 83 L 376 85 L 359 83 L 335 78 L 329 78 L 328 77 L 294 74 L 292 74 Q 288 71 280 73 L 279 72 L 239 72 L 238 73 L 214 74 L 213 75 L 211 74 L 196 76 L 194 76 L 193 77 L 162 81 L 141 86 L 137 85 L 134 82 L 133 65 L 129 61 Q 124 60 123 62 L 115 61 Z "/>
    <path fill="#66d9e8" d="M 52.5 371 L 250.5 371 Q 251.8 371.3 251 377.5 L 253 386.5 L 257.5 392 Q 268 398.5 287.5 396 L 288.5 395 L 317.5 395 L 318.5 396 L 328.5 396 L 345.5 399 L 383.5 399 L 396.5 396 L 403 390.5 L 406 382.5 L 406 372.5 L 407.5 371 L 460.5 371 L 464 373.5 L 466 377.5 L 466 387.5 L 467 388.5 L 467 424.5 L 466 425.5 L 465 450.5 L 462.5 453 L 446.5 453 L 444.5 454 L 443.5 453 Q 432.4 454.1 426 452 L 424 447.5 L 422 430.5 L 419 425 L 411.5 421 L 359.5 421 L 358.5 422 L 158.5 422 L 157.5 421 L 101.5 421 Q 95.4 422.4 93 427.5 L 90 435.5 L 89 447.5 L 87 452 L 83.5 453 L 50.5 453 L 48 450.5 Q 49.5 445 47 443.5 L 46 386.5 Q 48.8 384.7 47 378.5 L 50 372 L 52.5 371 Z M 58 372 L 50 374 L 48 386 L 48 426 L 49 427 L 49 444 L 50 445 L 49 448 L 50 450 L 52 451 L 63 451 L 64 452 L 83 451 Q 84 447 86 450 L 88 444 L 89 432 L 92 426 L 101 419 L 150 419 L 151 420 Q 156 422 158 419 L 161 420 L 363 420 L 364 419 L 400 419 L 401 418 L 407 418 L 418 422 L 423 428 L 427 450 Q 431 452 441 451 L 442 452 L 462 451 L 464 446 L 464 429 L 465 428 L 465 386 L 463 376 L 461 373 L 408 373 L 407 387 L 405 391 L 399 397 L 390 400 L 382 400 L 381 401 L 349 401 L 348 400 L 337 400 L 329 398 L 322 398 L 321 397 L 285 397 L 284 398 L 265 397 L 258 394 L 251 386 L 249 373 L 64 373 Q 62 371 58 372 Z "/>
  </g>
  <g id="line">
    <path fill="#1a1a1a" d="M 113.5 50 Q 134.5 47.5 142 58.5 L 144 72.5 L 145.5 74 L 157.5 71 L 202.5 65 L 203.5 64 L 241.5 62 L 242.5 61 L 272.5 61 L 273.5 62 L 299.5 63 L 300.5 64 L 310.5 64 L 325.5 67 L 332.5 67 L 367.5 74 L 369 72.5 L 370 61.5 L 376.5 53 Q 384.8 48.3 399.5 50 L 408.5 53 L 413 57.5 L 416 64.5 L 416 82.5 L 417 83.5 L 418 154.5 L 417 155.5 L 416 211.5 L 422 222.5 L 426 234.5 L 439 262.5 L 440 267.5 L 460 311.5 L 466 336.5 L 466 351.5 L 465 352.5 L 465 364 L 471 368.5 L 473 371.5 L 475 380.5 L 476 414.5 L 475 415.5 L 474 450.5 L 470 459 L 459.5 462 L 441.5 463 L 440.5 462 L 426.5 461 L 419 456.5 L 415 447.5 L 414 434.5 L 410.5 430 L 398.5 429 L 397.5 430 L 323.5 430 L 322.5 431 L 188.5 431 L 187.5 430 L 115.5 430 L 114.5 429 L 105.5 429 L 101 431.5 L 99 434.5 L 97 451.5 L 91.5 459 L 81.5 462 L 65.5 463 L 64.5 462 L 47.5 461 L 43 459 L 39 450.5 L 38 415.5 L 37 414.5 L 37 392.5 L 38 391.5 L 39 374.5 Q 40.8 367.3 46.5 364 Q 48.8 364.8 48 362.5 L 48 360.5 L 47 336.5 L 49 330.5 L 50 319.5 L 53 311.5 L 97 210.5 L 97 187.5 L 96 186.5 L 96 153.5 L 95 152.5 L 95 115.5 L 96 114.5 L 97 64.5 Q 98.4 56.4 104.5 53 L 113.5 50 Z M 116 59 L 109 61 L 106 65 L 105 103 L 104 104 L 104 165 L 105 166 L 105 195 L 106 197 Q 114 191 127 188 L 167 187 Q 169 183 168 175 L 172 161 L 172 142 L 175 137 L 182 132 Q 192 131 199 134 L 211 134 L 218 132 L 238 131 L 239 130 L 277 130 L 278 131 L 302 133 L 303 134 Q 313 135 320 132 Q 332 130 337 135 L 341 142 L 341 161 L 345 174 L 346 187 L 386 188 L 394 190 L 406 197 L 408 197 L 408 173 L 409 172 L 409 105 L 408 104 L 408 72 Q 405 70 407 64 L 403 60 L 395 60 L 394 59 Q 385 58 381 61 L 378 66 Q 380 77 376 83 L 369 83 L 353 79 L 340 78 L 327 75 L 303 73 L 302 72 L 291 72 L 290 71 L 275 71 L 274 70 L 243 70 L 242 71 L 212 72 L 211 73 L 204 73 L 203 74 L 181 76 L 175 78 L 162 79 L 141 84 L 138 83 L 135 77 Q 136 68 134 63 Q 129 57 116 59 Z M 248 138 L 247 139 L 224 140 L 208 143 L 200 143 L 185 140 L 181 144 L 181 160 L 177 172 L 177 180 L 176 181 L 176 204 L 177 206 L 179 207 L 202 207 L 219 210 L 246 211 L 247 212 L 284 211 L 285 210 L 295 210 L 296 209 L 310 208 L 311 207 L 335 207 L 337 204 L 337 179 L 332 159 L 332 149 L 333 148 L 332 142 L 329 140 L 315 143 L 306 143 L 290 140 L 281 140 L 280 139 L 248 138 Z M 135 196 L 134 197 L 123 198 L 113 204 Q 106 210 102 220 L 98 232 L 92 243 L 88 255 L 64 310 L 76 307 L 251 307 L 252 292 L 258 279 Q 265 270 278 268 Q 284 270 286 267 L 328 267 L 329 266 L 410 266 L 411 267 L 428 267 Q 429 269 430 267 L 411 220 L 404 209 L 402 206 Q 396 200 388 197 L 379 197 L 378 196 L 348 196 L 346 198 L 346 204 L 344 210 Q 342 215 336 216 L 325 216 L 324 215 L 316 215 L 301 218 L 283 219 L 282 220 L 269 220 L 268 221 L 233 220 L 222 218 L 212 218 L 198 215 Q 191 213 190 216 L 178 216 L 170 212 L 167 204 L 167 198 L 166 196 L 135 196 Z M 316 275 L 315 276 L 282 276 L 270 280 L 262 289 L 260 299 L 260 310 L 259 311 L 259 372 Q 262 373 260 380 L 262 385 L 268 387 L 300 387 L 301 386 L 336 388 L 344 390 L 355 390 L 356 391 L 375 391 L 376 390 L 385 390 L 394 388 L 397 384 Q 396 378 398 377 L 397 313 L 393 296 L 384 278 L 382 275 L 316 275 Z M 394 275 L 401 292 L 404 306 L 406 307 L 437 307 L 449 310 L 436 279 L 432 276 L 394 275 Z M 75 316 L 66 320 L 59 328 L 56 338 L 57 361 L 59 362 L 250 362 L 251 318 L 250 316 L 75 316 Z M 406 316 L 407 361 L 409 362 L 456 362 L 456 351 L 457 350 L 456 332 L 452 325 Q 448 318 439 316 L 406 316 Z M 53 371 L 50 372 L 47 379 Q 49 385 46 387 L 47 444 Q 50 445 48 451 L 51 453 L 84 453 L 87 452 L 89 448 L 90 436 L 93 428 Q 95 422 102 421 L 158 421 L 159 422 L 359 422 L 360 421 L 412 421 L 419 425 L 422 431 L 424 448 L 426 452 Q 432 454 444 453 L 445 454 L 447 453 L 463 453 L 465 451 L 466 426 L 467 425 L 467 389 L 466 388 L 466 378 L 464 374 L 461 371 L 408 371 L 406 373 L 406 383 L 403 391 L 397 396 L 384 399 L 346 399 L 329 396 L 319 396 L 318 395 L 289 395 L 288 396 Q 268 399 258 392 L 253 387 L 251 378 Q 252 371 251 371 L 53 371 Z "/>
  </g>
</svg>
