<svg xmlns="http://www.w3.org/2000/svg" width="512" height="512" viewBox="0 0 512 512">
  <g id="color">
    <path fill="#ffffff" d="M 246.5 58 L 274 58.5 L 246.5 59 L 246.5 58 Z "/>
    <path fill="#ffffff" d="M 235.5 59 L 241 59.5 L 235.5 60 L 235.5 59 Z "/>
    <path fill="#ffffff" d="M 299.5 70 Q 301.9 72.1 301 77.5 L 300 77.5 L 299.5 70 Z "/>
    <path fill="#ffffff" d="M 212.5 72 L 214 80.5 L 212 79.5 L 212.5 72 Z "/>
    <path fill="#ffffff" d="M 214.5 82 L 219 85.5 L 217.5 85 L 214.5 82 Z "/>
    <path fill="#ffffff" d="M 223.5 87 L 232 88.5 L 226.5 89 L 223.5 88 L 223.5 87 Z "/>
    <path fill="#ffffff" d="M 290.5 87 L 292 87.5 L 287.5 89 L 287.5 88 L 290.5 87 Z "/>
    <path fill="#ffffff" d="M 273.5 90 L 274 99.5 L 275 100.5 L 273 99.5 L 273.5 90 Z "/>
    <path fill="#ffffff" d="M 240.5 94 L 241 100.5 L 239 101.5 L 240.5 94 Z "/>
    <path fill="#ffffff" d="M 276.5 101 L 281 103.5 L 279.5 103 Q 275.7 102.8 276.5 101 Z "/>
    <path fill="#ffffff" d="M 232.5 103 L 234 103.5 L 230.5 106 L 232.5 103 Z "/>
    <path fill="#ffffff" d="M 227.5 108 L 227 109.5 L 225.5 113 L 225 111.5 L 227.5 108 Z "/>
    <path fill="#ffffff" d="M 286.5 110 L 288 113.5 L 287 113.5 L 286.5 110 Z "/>
    <path fill="#ffffff" d="M 224.5 115 L 225 122.5 L 224 122.5 L 224.5 115 Z "/>
    <path fill="#ffffff" d="M 288.5 117 L 290 121.5 L 288 120.5 L 288.5 117 Z "/>
    <path fill="#ffffff" d="M 214.5 124 L 219 124.5 L 214.5 125 L 214.5 124 Z "/>
    <path fill="#ffffff" d="M 316.5 127 L 322 128.5 L 319.5 129 L 316.5 128 L 316.5 127 Z "/>
    <path fill="#ffffff" d="M 191.5 130 L 193 130.5 L 188.5 132 L 188.5 131 L 191.5 130 Z "/>
    <path fill="#ffffff" d="M 326.5 130 L 331 131.5 L 329.5 132 L 326.5 131 L 326.5 130 Z "/>
    <path fill="#ffffff" d="M 335.5 133 L 341 135.5 L 339.5 136 L 335.5 134 L 335.5 133 Z "/>
    <path fill="#ffffff" d="M 179.5 134 L 181 134.5 L 177.5 136 L 177.5 135 L 179.5 134 Z "/>
    <path fill="#ffffff" d="M 174.5 136 L 176 136.5 L 170.5 139 L 170.5 138 L 174.5 136 Z "/>
    <path fill="#ffffff" d="M 165.5 140 L 167 140.5 L 161.5 143 L 161.5 142 L 165.5 140 Z "/>
    <path fill="#ffffff" d="M 350.5 140 L 355 142.5 L 353.5 142 Q 349.8 141.8 350.5 140 Z "/>
    <path fill="#ffffff" d="M 159.5 143 L 158.5 145 L 156.5 146 L 157.5 144 L 159.5 143 Z "/>
    <path fill="#ffffff" d="M 148.5 149 L 147.5 151 L 144.5 153 L 146.5 150 L 148.5 149 Z "/>
    <path fill="#ffffff" d="M 142.5 153 L 141.5 155 L 139.5 156 L 140.5 154 L 142.5 153 Z "/>
    <path fill="#ffffff" d="M 130.5 161 L 127.5 165 L 122.5 169 L 126.5 164 L 130.5 161 Z "/>
    <path fill="#ffffff" d="M 188.5 180 L 192 181.5 L 190.5 182 L 188.5 180 Z "/>
    <path fill="#ffffff" d="M 177.5 181 L 179 181.5 L 170.5 188 L 175.5 182 L 177.5 181 Z "/>
    <path fill="#ffffff" d="M 97.5 194 L 95 197.5 L 92.5 201 L 94 198.5 L 97.5 194 Z "/>
    <path fill="#ffffff" d="M 169.5 198 L 172 201.5 L 169 199.5 L 169.5 198 Z "/>
    <path fill="#ffffff" d="M 417.5 199 L 421 203.5 L 418 201.5 L 417.5 199 Z "/>
    <path fill="#ffffff" d="M 184.5 203 L 186 203.5 Q 184.3 205.8 179.5 205 L 179.5 204 L 184.5 203 Z "/>
    <path fill="#ffffff" d="M 154.5 205 L 159 205.5 L 154.5 206 L 154.5 205 Z "/>
    <path fill="#ffffff" d="M 88.5 206 L 88 207.5 L 86.5 210 L 87 208.5 L 88.5 206 Z "/>
    <path fill="#ffffff" d="M 161.5 206 L 167 209.5 L 164.5 208 Q 160.7 207.7 161.5 206 Z "/>
    <path fill="#ffffff" d="M 425.5 212 L 428 215.5 L 426 214.5 L 425.5 212 Z "/>
    <path fill="#ffffff" d="M 84.5 213 L 84 214.5 L 82.5 217 L 83 215.5 L 84.5 213 Z "/>
    <path fill="#ffffff" d="M 428.5 217 L 431 222.5 L 430 222.5 L 428.5 217 Z "/>
    <path fill="#ffffff" d="M 434.5 230 L 437 235.5 L 436 235.5 L 434.5 230 Z "/>
    <path fill="#ffffff" d="M 164.5 231 L 165 232.5 L 163.5 236 L 163 233.5 L 164.5 231 Z "/>
    <path fill="#ffffff" d="M 74.5 232 L 75 233.5 L 72.5 239 L 72 237.5 L 74.5 232 Z "/>
    <path fill="#ffffff" d="M 127.5 232 L 128 233.5 L 126.5 236 L 126 234.5 L 127.5 232 Z "/>
    <path fill="#ffffff" d="M 438.5 240 L 440 244.5 L 439 244.5 L 438.5 240 Z "/>
    <path fill="#ffffff" d="M 70.5 243 L 71 244.5 L 69.5 248 L 69 245.5 L 70.5 243 Z "/>
    <path fill="#ffffff" d="M 160.5 248 L 161 253.5 L 159.5 260 L 159 254.5 L 160.5 248 Z "/>
    <path fill="#ffffff" d="M 67.5 252 L 68 254.5 L 66.5 258 L 66 255.5 L 67.5 252 Z "/>
    <path fill="#ffffff" d="M 120.5 253 L 121 264.5 L 120 264.5 L 120.5 253 Z "/>
    <path fill="#ffffff" d="M 63.5 269 L 64 273.5 L 62.5 279 L 62 274.5 L 63.5 269 Z "/>
    <path fill="#ffffff" d="M 122.5 272 L 127 277.5 L 123 274.5 L 122.5 272 Z "/>
    <path fill="#ffffff" d="M 132.5 280 L 142 280.5 L 132.5 281 L 132.5 280 Z "/>
    <path fill="#ffffff" d="M 448.5 281 L 449 285.5 L 448 285.5 L 448.5 281 Z "/>
    <path fill="#ffffff" d="M 61.5 284 L 62 304.5 L 61 304.5 L 61.5 284 Z "/>
    <path fill="#ffffff" d="M 449.5 288 L 450 306.5 L 448.5 309 L 448 307.5 L 449 306.5 L 449.5 288 Z "/>
    <path fill="#ffffff" d="M 72.5 319 L 76 321.5 L 74.5 321 L 72.5 319 Z "/>
    <path fill="#ffffff" d="M 434.5 320 L 433.5 322 L 430.5 324 L 432.5 321 L 434.5 320 Z "/>
    <path fill="#ffffff" d="M 431.5 326 L 433 331.5 L 431 330.5 L 431.5 326 Z "/>
    <path fill="#ffffff" d="M 81.5 327 L 82 329.5 Q 81.5 332.5 77.5 332 L 77.5 331 L 81 329.5 L 81.5 327 Z "/>
    <path fill="#ffffff" d="M 72.5 333 L 74 333.5 L 69.5 336 L 70.5 334 L 72.5 333 Z "/>
    <path fill="#ffffff" d="M 439.5 333 L 443 334.5 L 441.5 335 L 439.5 333 Z "/>
    <path fill="#ffffff" d="M 450.5 338 L 455 341.5 L 452.5 340 L 450.5 338 Z "/>
    <path fill="#ffffff" d="M 469.5 356 L 474 364.5 L 473 364.5 L 469.5 356 Z "/>
    <path fill="#ffffff" d="M 41.5 360 L 41 361.5 L 39.5 365 L 39 363.5 L 41.5 360 Z "/>
    <path fill="#ffffff" d="M 475.5 369 Q 478.1 373.9 477 382.5 L 476 382.5 L 475.5 369 Z "/>
    <path fill="#ffffff" d="M 36.5 373 L 38 386.5 L 37 386.5 Q 34.5 381.3 36.5 373 Z "/>
    <path fill="#ffffff" d="M 470.5 398 L 469 400.5 L 459.5 411 L 468 401.5 L 470.5 398 Z "/>
    <path fill="#ffffff" d="M 452.5 415 L 451.5 417 L 448.5 419 L 450.5 416 L 452.5 415 Z "/>
    <path fill="#ffffff" d="M 66.5 416 L 70 418.5 L 68.5 418 L 66.5 416 Z "/>
    <path fill="#ffffff" d="M 446.5 419 L 445.5 421 L 442.5 422 L 442.5 421 L 446.5 419 Z "/>
    <path fill="#ffffff" d="M 440.5 422 L 439.5 424 L 436.5 425 L 436.5 424 L 440.5 422 Z "/>
    <path fill="#ffffff" d="M 95.5 429 L 102 431.5 L 100.5 432 L 95.5 430 L 95.5 429 Z "/>
    <path fill="#ffffff" d="M 422.5 430 L 424 430.5 L 420.5 432 L 420.5 431 L 422.5 430 Z "/>
    <path fill="#ffffff" d="M 106.5 433 L 112 434.5 L 109.5 435 L 106.5 434 L 106.5 433 Z "/>
    <path fill="#ffffff" d="M 414.5 433 L 416 433.5 L 412.5 435 L 412.5 434 L 414.5 433 Z "/>
    <path fill="#ffffff" d="M 376.5 443 L 380 443.5 L 373.5 445 L 373.5 444 L 376.5 443 Z "/>
    <path fill="#ffffff" d="M 164.5 446 L 174 447.5 L 169.5 448 L 164.5 447 L 164.5 446 Z "/>
    <path fill="#ffffff" d="M 360.5 446 L 364 446.5 L 355.5 448 L 355.5 447 L 360.5 446 Z "/>
    <path fill="#ffffff" d="M 176.5 448 L 181 448.5 L 176.5 449 L 176.5 448 Z "/>
    <path fill="#ffffff" d="M 184.5 449 L 190 449.5 L 184.5 450 L 184.5 449 Z "/>
    <path fill="#ffffff" d="M 340.5 449 L 345 449.5 L 340.5 450 L 340.5 449 Z "/>
    <path fill="#ffffff" d="M 191.5 450 L 200 450.5 L 191.5 451 L 191.5 450 Z "/>
    <path fill="#ffffff" d="M 331.5 450 L 339 450.5 L 331.5 451 L 331.5 450 Z "/>
    <path fill="#ffffff" d="M 202.5 451 L 209 451.5 L 202.5 452 L 202.5 451 Z "/>
    <path fill="#ffffff" d="M 322.5 451 L 329 451.5 L 322.5 452 L 322.5 451 Z "/>
    <path fill="#ffffff" d="M 216.5 452 L 225 452.5 L 216.5 453 L 216.5 452 Z "/>
    <path fill="#ffffff" d="M 306.5 452 L 315 452.5 L 306.5 453 L 306.5 452 Z "/>
    <path fill="#ffffff" d="M 230.5 453 L 250 453.5 L 230.5 454 L 230.5 453 Z "/>
    <path fill="#ffffff" d="M 281.5 453 L 301 453.5 L 281.5 454 L 281.5 453 Z "/>
    <path fill="#ffffff" d="M 256.5 454 L 274 454.5 L 256.5 455 L 256.5 454 Z "/>
    <path fill="#4da3ff" d="M 432.5 342 L 434.5 343 L 436 342.5 Q 433.8 343.8 436.5 345 L 444.5 349 L 456 359.5 Q 461.2 364.3 463 372.5 L 463 383.5 Q 459.3 395.8 449.5 402 L 439.5 409 L 425.5 416 L 420.5 417 L 418.5 419 L 385.5 429 Q 374.5 429.5 366.5 433 L 354.5 434 L 348.5 436 L 331.5 437 L 322.5 439 L 311.5 439 L 310.5 440 L 292.5 440 L 291.5 441 L 288.5 440 L 287.5 441 L 242.5 441 L 240.5 441 L 238.5 440 L 221.5 440 L 220.5 439 L 207.5 439 L 198.5 437 L 181.5 436 L 167.5 433 L 154.5 432 L 150.5 430 L 144.5 430 L 135.5 427 L 131.5 427 L 94.5 416 L 92.5 414 L 72.5 406 L 58 396 L 56.5 393 Q 54.3 393.8 55 391.5 Q 47.9 386.6 50 372.5 L 58 358 L 69.5 349 L 80.5 343 Q 83.1 353.4 91.5 358 L 101.5 364 L 116.5 370 L 154.5 380 L 173.5 382 L 179.5 384 L 200.5 385 L 201.5 386 L 223.5 387 L 225.5 388 L 227.5 388 L 293.5 388 L 294.5 387 L 307.5 387 L 308.5 386 L 337.5 384 L 343.5 382 L 355.5 381 L 385.5 374 L 404.5 367 L 421.5 358 L 428 351.5 L 432.5 342 Z "/>
    <path fill="#ffd43b" d="M 256.5 120 L 264 120.5 L 256.5 121 L 256.5 120 Z "/>
    <path fill="#ffd43b" d="M 265.5 120 L 270 120.5 L 265.5 121 L 265.5 120 Z "/>
    <path fill="#ffd43b" d="M 187.5 180 L 191 182.5 L 189.5 183 L 187.5 180 Z "/>
    <path fill="#ffd43b" d="M 180.5 181 L 181 183 L 177 183 Q 178.1 185.7 175.5 185 L 171 188.5 L 173.5 185 L 176.5 183 L 180.5 181 Z "/>
    <path fill="#ffd43b" d="M 192.5 184 L 196 188.5 L 194 189.5 L 192.5 184 Z "/>
    <path fill="#ffd43b" d="M 169.5 190 L 170 194.5 L 169 194.5 L 169.5 190 Z "/>
    <path fill="#ffd43b" d="M 190.5 197 L 191.5 199 L 188 200 L 186.5 203 L 185 202.5 L 186 200 L 190.5 197 Z "/>
    <path fill="#ffd43b" d="M 170.5 199 L 175 202.5 L 174.5 204 L 172.5 201 L 170.5 199 Z "/>
    <path fill="#ffd43b" d="M 176.5 203 L 180 203.5 L 177.5 205 L 176.5 203 Z "/>
    <path fill="#ffd43b" d="M 151.5 206 L 152 209 Q 147.9 210.3 149 207 L 151.5 206 Z "/>
    <path fill="#ffd43b" d="M 158.5 206 L 166 209 L 166.5 211 L 168 210.5 Q 168.8 212.8 166.5 212 Q 165.2 208.3 161 209 Q 162.1 206.3 159.5 207 Q 158.3 209.2 153.5 208 L 153.5 207 L 158.5 206 Z "/>
    <path fill="#ffd43b" d="M 134.5 221 L 135 224 L 133 224.5 L 133.5 226 Q 131.3 226.8 132 224.5 L 134.5 221 Z "/>
    <path fill="#ffd43b" d="M 129.5 228 L 131 231.5 L 129.5 231 L 128 230.5 L 129.5 228 Z "/>
    <path fill="#ffd43b" d="M 159.5 243 L 160 247.5 L 159 247.5 L 159.5 243 Z "/>
    <path fill="#ffd43b" d="M 122.5 245 L 124 250.5 L 121.5 254 L 121 252.5 L 123 248.5 L 122.5 245 Z "/>
    <path fill="#ffd43b" d="M 159.5 251 L 160 253.5 L 158.5 260 L 158 252.5 L 159.5 251 Z "/>
    <path fill="#ffd43b" d="M 152.5 272 L 154 272.5 L 145.5 279 L 144.5 277 L 149 276 L 149.5 274 L 151 274.5 L 152.5 272 Z "/>
    <path fill="#ffd43b" d="M 126.5 276 Q 128.8 275.3 128 277.5 L 128.5 279 L 126.5 276 Z "/>
    <path fill="#ffd43b" d="M 130.5 277 Q 132.8 276.3 132 278.5 L 132.5 280 L 130 279.5 L 130.5 277 Z "/>
    <path fill="#ffd43b" d="M 255.5 375 L 263 375.5 L 255.5 376 L 255.5 375 Z "/>
    <path fill="#ffa94d" d="M 242.5 70 L 248.5 71 L 249.5 70 L 271.5 70 L 273.5 70 L 280.5 71 L 288 74 L 286.5 77 L 282.5 78 L 280.5 78 L 271.5 79 L 267.5 79 L 252.5 79 L 251.5 78 Q 249.8 80.7 243.5 79 L 242.5 78 L 232.5 78 L 231.5 77 L 229.5 77 Q 225 78 224 75.5 L 229.5 72 L 241.5 71 L 242.5 70 Z "/>
    <path fill="#ffa94d" d="M 251 90 L 261.5 90 L 262 91.5 L 262 93.5 L 263 98.5 L 259.5 101 L 255.5 100 L 252.5 101 Q 249.2 99.3 250 93.5 L 251 90 Z "/>
    <path fill="#ffa94d" d="M 241.5 112 L 271.5 112 L 275 113 L 277 119.5 Q 275.8 122.3 270.5 121 L 265.5 120 L 263.5 120 L 254.5 121 L 252.5 120 L 251.5 121 L 236.5 122 Q 234.3 121.3 235 117.5 L 237 113 L 241.5 112 Z "/>
    <path fill="#ffa94d" d="M 247.5 132 L 276.5 132 L 277.5 133 L 287.5 133 L 292.5 135 L 294.5 134 L 303.5 137 L 305.5 137 L 309.5 137 Q 314.2 140.8 322.5 141 L 351.5 154 L 367.5 164 L 384 177 Q 382.9 179.7 385.5 179 L 388.5 183 L 391 184.5 L 405 201.5 L 408 208 Q 410.7 206.9 410 209.5 L 417 220.5 L 427 242.5 L 428 249.5 L 430 251.5 L 433 261.5 L 437 281.5 L 437 283.5 L 438 303.5 L 434 306 Q 435.1 308.7 432.5 308 L 407.5 321 L 374.5 331 L 372.5 331 L 365.5 333 L 363.5 333 L 355.5 335 L 353.5 334 L 349.5 336 L 347.5 336 L 318.5 340 L 316.5 340 L 300.5 341 L 299.5 342 L 297.5 342 L 295.5 341 L 293.5 342 L 291.5 342 L 251.5 343 L 249.5 342 L 244.5 343 L 240.5 342 L 238.5 342 L 222.5 342 L 221.5 341 Q 220 343.5 214.5 342 L 213.5 341 L 202.5 341 L 198.5 339 L 195.5 340 L 186.5 338 L 183.5 339 L 164.5 335 L 162.5 335 L 156.5 335 L 147.5 332 L 145.5 332 Q 139.8 332.7 137.5 330 L 135.5 330 L 104.5 322 L 93.5 318 L 89.5 315 L 86.5 315 L 76 309 Q 77 306 74 307 L 74 304.5 L 73 301.5 L 73 288.5 L 74 287.5 L 74 285.5 L 76 266.5 L 83 242.5 L 85 240.5 L 90 226.5 L 93 223.5 L 99 211 Q 101.7 212.1 101 209.5 L 104 204 Q 106.7 205.1 106 202.5 L 126.5 180 L 133 176 Q 131.9 173.3 134.5 174 L 150.5 162 L 153 162 Q 151.8 159 155.5 160 L 158.5 157 L 161.5 157 L 164.5 154 Q 173.7 152.1 179.5 147 L 197.5 142 L 199.5 140 L 201.5 140 L 227.5 134 L 229.5 134 L 235.5 133 L 237.5 133 L 246.5 133 L 247.5 132 Z M 183 173 Q 174 174 170 179 Q 161 184 162 198 L 160 199 L 148 200 L 141 204 Q 131 212 125 223 L 119 235 L 118 240 Q 114 241 117 243 Q 114 244 115 249 L 115 251 L 113 255 L 114 257 L 114 269 L 118 279 L 123 283 L 136 288 L 147 286 L 157 280 Q 163 274 165 264 L 165 262 L 169 239 L 175 227 L 174 224 L 169 222 L 169 224 L 166 225 L 168 226 L 166 226 L 166 228 L 164 233 L 162 233 L 163 235 L 161 248 Q 157 249 160 251 Q 156 252 158 260 Q 160 261 158 262 Q 155 261 156 264 L 158 263 L 158 266 L 155 267 L 156 270 L 153 272 L 151 275 L 149 275 L 150 277 L 149 276 L 145 277 L 145 279 L 144 279 L 142 279 L 142 280 L 134 280 L 132 280 L 130 279 L 128 276 L 124 275 L 125 273 L 123 272 L 123 271 L 121 267 L 121 255 L 122 254 L 121 252 L 124 251 L 124 248 L 123 250 L 122 250 L 125 241 Q 124 237 127 238 L 128 234 Q 127 230 130 231 L 131 232 L 130 229 L 132 229 L 131 227 L 134 226 L 133 225 L 135 224 L 136 219 L 146 210 L 148 210 L 148 209 L 150 209 Q 154 210 152 206 L 158 207 L 154 207 L 154 208 Q 158 209 160 207 Q 162 206 161 209 L 165 208 L 164 210 Q 165 212 167 210 L 167 212 Q 169 213 168 211 L 170 211 L 172 210 L 179 212 Q 188 211 194 206 Q 196 207 195 204 L 197 204 L 202 196 L 203 191 L 201 182 Q 196 173 183 173 Z M 160 243 L 159 248 L 160 248 L 160 243 Z "/>
    <path fill="#ffa94d" d="M 182.5 180 L 186.5 180 L 190.5 183 L 192.5 182 L 195 185.5 L 193 185.5 L 195 192.5 L 193.5 195 L 192 194.5 L 193 196.5 L 188 199.5 L 188.5 201 L 186 200 L 183.5 204 L 176.5 203 L 175 203.5 L 174.5 202 L 172 203 L 173 200.5 L 169 197.5 L 170 188.5 L 171.5 187 Q 173.3 189.8 175 185.5 L 174.5 184 L 177 185 L 177 183 L 181 183 L 181 181.5 L 182.5 180 Z "/>
    <path fill="#ffa94d" d="M 418.5 328 L 420 329.5 L 420 340.5 L 418 345 L 410.5 350 L 393.5 358 L 392.5 357 L 388.5 359 L 354.5 368 L 352.5 368 L 342.5 369 L 337.5 371 L 329.5 371 L 328.5 372 L 326.5 372 L 306.5 374 L 304.5 374 L 295.5 375 L 291.5 375 L 263.5 376 Q 261.8 373.2 255.5 375 L 254.5 376 L 242.5 376 L 241.5 375 L 220.5 375 L 211.5 373 L 208.5 374 L 199.5 372 L 197.5 373 L 188.5 371 L 186.5 371 L 178.5 371 L 167.5 368 L 165.5 368 L 161.5 367 L 159.5 367 L 156.5 366 L 154.5 366 L 141.5 364 L 112.5 355 L 98.5 348 L 93 342.5 L 92 330 L 95.5 330 L 110.5 336 L 130.5 340 L 133.5 342 L 135.5 342 L 153.5 346 L 159.5 346 L 163.5 348 L 166.5 347 L 171.5 349 L 189.5 350 L 197.5 352 L 199.5 352 L 210.5 352 L 211.5 353 Q 219.7 351.3 223.5 354 L 226.5 353 L 230.5 354 L 256.5 354 L 257.5 355 L 258.5 354 L 283.5 354 Q 284.8 351.7 289.5 353 L 291.5 354 L 292.5 353 L 302.5 353 L 303.5 352 L 314.5 352 L 316.5 351 L 318.5 351 Q 324.7 352.7 326.5 350 L 328.5 350 L 333.5 349 L 335.5 349 L 340.5 349 L 347.5 347 L 349.5 347 L 360.5 345 L 362.5 345 L 377.5 342 L 385.5 339 L 389.5 339 L 396.5 336 L 400.5 336 L 402.5 334 L 408.5 333 L 418.5 328 Z "/>
    <path fill="#66d9e8" d="M 431.5 340 L 442.5 346 L 456 357.5 L 463 367.5 L 465 380.5 Q 461.6 396.6 449.5 404 L 424.5 418 L 383.5 431 L 345.5 438 L 337.5 438 L 336.5 439 L 326.5 439 L 316.5 441 L 302.5 441 L 301.5 442 L 269.5 442 L 264.5 443 L 263.5 442 L 231.5 442 L 230.5 441 L 213.5 441 L 203.5 439 L 193.5 439 L 192.5 438 L 170.5 436 L 133.5 429 L 104.5 421 L 75.5 409 Q 61.3 402.3 52 390.5 L 49 385.5 L 48 375.5 L 50 367.5 L 53 362.5 L 65.5 350 L 79.5 342 L 82 342 Q 83.6 352.4 92.5 357 L 117.5 369 L 163.5 380 L 169.5 380 L 184.5 383 L 203.5 384 L 204.5 385 L 216.5 385 L 217.5 386 L 278.5 387 L 279.5 386 L 301.5 386 L 302.5 385 L 332.5 383 L 333.5 382 L 358.5 379 L 379.5 373 L 383.5 373 L 412.5 362 Q 421.9 357.4 428 349.5 L 431.5 340 Z M 433 342 L 428 352 L 422 358 L 405 367 L 386 374 L 356 381 L 344 382 L 338 384 L 309 386 L 308 387 L 295 387 L 294 388 L 228 388 L 226 388 L 224 387 L 202 386 L 201 385 L 180 384 L 174 382 L 155 380 L 117 370 L 102 364 L 92 358 Q 83 353 81 343 L 70 349 L 58 358 L 50 373 Q 48 387 55 392 Q 54 394 57 393 L 58 396 L 73 406 L 93 414 L 95 416 L 132 427 L 136 427 L 145 430 L 151 430 L 155 432 L 168 433 L 182 436 L 199 437 L 208 439 L 221 439 L 222 440 L 239 440 L 241 441 L 243 441 L 288 441 L 289 440 L 292 441 L 293 440 L 311 440 L 312 439 L 323 439 L 332 437 L 349 436 L 355 434 L 367 433 Q 374 429 386 429 L 419 419 L 421 417 L 426 416 L 440 409 L 450 402 Q 459 396 463 384 L 463 373 Q 461 364 456 360 Q 446 349 433 342 Z "/>
  </g>
  <g id="line">
    <path fill="#1a1a1a" d="M 241.5 59 L 276.5 59 L 289.5 62 L 298 67 Q 300.8 70.6 300 78.5 L 294.5 86 L 286.5 89 L 273 90 L 273 99.5 L 274.5 101 L 284 106.5 L 288 114.5 Q 286.5 120.5 289.5 122 L 298.5 123 L 322.5 129 Q 343.8 135.7 361.5 146 Q 386 160.5 404 181.5 Q 424.5 205 437 236.5 L 447 271.5 L 448 285.5 L 449 286.5 L 449 306.5 L 448 309.5 L 440.5 317 L 430 323.5 Q 432.5 325 431 330.5 L 432.5 332 Q 453.5 336.5 465 350.5 L 474 365.5 L 476 373.5 L 476 383.5 L 471 397.5 L 457.5 412 L 447.5 419 L 427.5 429 L 411.5 435 L 385.5 442 L 376.5 443 L 372.5 445 L 360.5 446 L 348.5 449 L 322.5 451 L 321.5 452 L 281.5 453 L 280.5 454 L 250.5 454 L 249.5 453 L 209.5 452 L 199.5 450 L 181.5 449 L 168.5 446 L 155.5 445 L 115.5 436 L 96.5 429 L 93.5 429 L 70.5 419 Q 53.9 411.1 43 397.5 L 37 383.5 L 37 372.5 Q 41.9 352.9 56.5 343 L 76.5 332 L 79.5 332 L 82 329.5 Q 83 324 79.5 323 Q 69.5 319.5 64 311.5 L 62 307.5 L 62 279.5 L 68 251.5 L 75 231.5 L 82 217.5 Q 97.7 189.2 121.5 169 L 132.5 160 L 160.5 143 L 193.5 130 L 225 123 Q 223.1 110.9 229.5 106 L 241 100.5 L 240 92.5 L 241 90.5 L 239.5 89 L 221.5 87 L 214 81.5 Q 211.7 78.3 213 71.5 L 218.5 65 L 224.5 62 L 241.5 59 Z M 243 70 L 242 71 L 230 72 L 224 76 L 231 78 L 242 78 L 243 79 L 275 79 L 276 78 L 287 77 L 288 75 L 281 71 Q 276 72 275 70 L 243 70 Z M 250 90 Q 248 98 253 101 L 257 100 L 261 101 Q 265 99 263 92 L 262 90 L 250 90 Z M 241 112 L 238 113 L 235 118 Q 234 121 237 122 L 242 121 L 276 121 L 277 120 L 275 113 L 273 112 L 241 112 Z M 248 132 L 247 133 L 227 134 L 217 137 L 212 137 L 180 147 L 154 160 L 128 179 Q 105 199 90 227 L 79 255 L 73 285 L 73 305 L 74 307 L 80 311 L 94 318 L 114 325 L 133 329 L 137 331 L 176 338 L 183 338 L 184 339 L 194 339 L 203 341 L 214 341 L 215 342 L 239 342 L 240 343 L 300 342 L 301 341 L 312 341 L 313 340 L 330 339 L 331 338 L 338 338 L 351 335 L 356 335 L 361 333 L 376 331 L 408 321 L 424 314 L 434 308 L 438 304 L 437 281 L 433 261 L 428 249 L 427 243 L 410 209 L 391 185 L 364 161 L 336 146 L 323 141 L 310 137 L 288 133 L 280 133 L 279 132 L 248 132 Z M 419 328 L 400 336 L 360 346 L 347 347 L 333 350 L 326 350 L 325 351 L 304 352 L 303 353 L 285 353 L 284 354 L 231 354 L 230 353 L 212 353 L 211 352 L 200 352 L 199 351 L 174 349 L 127 340 L 92 330 Q 91 340 94 345 L 118 357 L 146 365 L 167 369 L 173 369 L 178 371 L 207 373 L 208 374 L 220 374 L 221 375 L 242 375 L 243 376 L 299 375 L 300 374 L 330 372 L 350 368 L 356 368 L 394 358 L 411 350 L 418 345 L 420 342 L 420 329 L 419 328 Z M 432 340 L 428 350 Q 422 357 413 362 L 384 373 L 380 373 L 359 379 L 334 382 L 333 383 L 303 385 L 302 386 L 280 386 L 279 387 L 218 386 L 217 385 L 205 385 L 204 384 L 185 383 L 170 380 L 164 380 L 118 369 L 93 357 Q 84 352 82 342 L 80 342 L 66 350 L 53 363 L 50 368 L 48 376 L 49 386 L 52 391 Q 61 402 76 409 L 105 421 L 134 429 L 171 436 L 193 438 L 194 439 L 204 439 L 214 441 L 231 441 L 232 442 L 264 442 L 265 443 L 270 442 L 302 442 L 303 441 L 317 441 L 327 439 L 337 439 L 338 438 L 346 438 L 384 431 L 425 418 L 450 404 Q 462 397 465 381 L 463 368 L 456 358 Q 446 347 432 340 Z "/>
    <path fill="#1a1a1a" d="M 182.5 173 Q 195.9 173.1 201 181.5 L 203 190.5 Q 200.9 202.9 191.5 208 L 178.5 212 Q 174.9 209.1 167.5 210 L 162.5 206 L 154.5 205 L 147.5 207 L 136 217.5 L 130 226.5 L 122 245.5 L 120 253.5 L 120 267.5 Q 121.5 274.4 126.5 278 Q 131 282.5 141.5 281 Q 149.8 279.3 154 273.5 L 160 259.5 L 162 239.5 L 166 228.5 L 170.5 223 L 174 225.5 L 174 228.5 L 172 230.5 L 168 242.5 L 165 265.5 Q 162.4 274.4 156.5 280 L 143.5 287 L 131.5 287 Q 122.6 284.9 118 278.5 Q 111.6 269.4 114 251.5 L 119 234.5 L 125 222.5 Q 131.1 211.5 140.5 204 L 152.5 199 L 162 199 Q 160.8 184.5 169.5 179 L 182.5 173 Z M 181 180 L 176 182 Q 170 185 168 193 L 169 200 L 176 205 Q 184 206 188 203 L 196 193 L 195 185 Q 192 178 181 180 Z "/>
  </g>
</svg>
