<svg xmlns="http://www.w3.org/2000/svg" width="512" height="512" viewBox="0 0 512 512">
  <g id="color">
    <path fill="#ffffff" d="M 277.5 37 L 279 37.5 L 274.5 40 L 275.5 38 L 277.5 37 Z "/>
    <path fill="#ffffff" d="M 293.5 37 L 296.5 38 L 305 46.5 L 296.5 39 Q 292.8 38.7 293.5 37 Z "/>
    <path fill="#ffffff" d="M 305.5 48 L 308 52.5 L 307 52.5 L 305.5 48 Z "/>
    <path fill="#ffffff" d="M 309.5 57 L 310 61.5 L 309 61.5 L 309.5 57 Z "/>
    <path fill="#ffffff" d="M 253.5 63 L 253 64.5 L 249.5 72 L 249 70.5 L 253.5 63 Z "/>
    <path fill="#ffffff" d="M 309.5 64 L 310 68.5 L 309 68.5 L 309.5 64 Z "/>
    <path fill="#ffffff" d="M 304.5 75 L 303.5 77 L 300.5 78 L 300.5 77 L 304.5 75 Z "/>
    <path fill="#ffffff" d="M 246.5 78 L 247 79.5 L 245.5 82 L 245 80.5 L 246.5 78 Z "/>
    <path fill="#ffffff" d="M 293.5 79 L 292.5 81 L 288.5 84 L 291.5 80 L 293.5 79 Z "/>
    <path fill="#ffffff" d="M 285.5 88 L 285 89.5 L 283.5 92 L 284 90.5 L 285.5 88 Z "/>
    <path fill="#ffffff" d="M 279.5 103 L 280 111 L 282 111.5 L 279 112 L 279.5 103 Z "/>
    <path fill="#ffffff" d="M 239.5 105 L 240 107.5 L 236.5 109 L 236.5 108 Q 240.5 109.1 239.5 105 Z "/>
    <path fill="#ffffff" d="M 213.5 106 L 229 106.5 L 213.5 107 L 213.5 106 Z "/>
    <path fill="#ffffff" d="M 302.5 106 L 310 106.5 L 302.5 107 L 302.5 106 Z "/>
    <path fill="#ffffff" d="M 295.5 107 L 300 107.5 L 295.5 108 L 295.5 107 Z "/>
    <path fill="#ffffff" d="M 312.5 107 L 317 107.5 L 312.5 108 L 312.5 107 Z "/>
    <path fill="#ffffff" d="M 200.5 109 L 202 109.5 L 195.5 112 L 195.5 111 L 200.5 109 Z "/>
    <path fill="#ffffff" d="M 323.5 109 L 328 110.5 L 326.5 111 L 323.5 110 L 323.5 109 Z "/>
    <path fill="#ffffff" d="M 191.5 113 L 190.5 115 L 188.5 116 L 189.5 114 L 191.5 113 Z "/>
    <path fill="#ffffff" d="M 186.5 116 L 185.5 118 L 182.5 120 L 184.5 117 L 186.5 116 Z "/>
    <path fill="#ffffff" d="M 353.5 130 L 354.5 131 L 364 131.5 L 354.5 132 L 353.5 130 Z "/>
    <path fill="#ffffff" d="M 170.5 131 L 168.5 134 L 163 133.5 Q 168.8 134.3 170.5 131 Z "/>
    <path fill="#ffffff" d="M 150.5 132 L 162 132.5 L 150.5 133 L 150.5 132 Z "/>
    <path fill="#ffffff" d="M 368.5 132 L 375 133.5 L 372.5 134 L 368.5 133 L 368.5 132 Z "/>
    <path fill="#ffffff" d="M 144.5 133 L 149 133.5 L 144.5 134 L 144.5 133 Z "/>
    <path fill="#ffffff" d="M 381.5 136 L 390 140.5 L 388.5 140 L 381.5 137 L 381.5 136 Z "/>
    <path fill="#ffffff" d="M 131.5 137 L 133 137.5 L 129.5 139 L 129.5 138 L 131.5 137 Z "/>
    <path fill="#ffffff" d="M 127.5 139 L 126.5 141 L 124.5 142 L 125.5 140 L 127.5 139 Z "/>
    <path fill="#ffffff" d="M 122.5 142 L 120.5 145 L 114.5 150 L 119.5 144 L 122.5 142 Z "/>
    <path fill="#ffffff" d="M 198.5 145 L 202 147 L 204.5 151 Q 206.8 150.3 206 152.5 L 201.5 149 L 198 146.5 L 198.5 145 Z "/>
    <path fill="#ffffff" d="M 310.5 147 L 311 148.5 L 308.5 150 L 310.5 147 Z "/>
    <path fill="#ffffff" d="M 407.5 158 L 410 161.5 L 408 160.5 L 407.5 158 Z "/>
    <path fill="#ffffff" d="M 102.5 164 L 102 165.5 L 100.5 168 L 101 166.5 L 102.5 164 Z "/>
    <path fill="#ffffff" d="M 411.5 165 L 414 169.5 L 413 169.5 L 411.5 165 Z "/>
    <path fill="#ffffff" d="M 99.5 169 L 100 170.5 L 97.5 175 L 97 173.5 L 99.5 169 Z "/>
    <path fill="#ffffff" d="M 415.5 173 L 418 179.5 L 417 179.5 L 415.5 173 Z "/>
    <path fill="#ffffff" d="M 94.5 182 L 95 184.5 L 93.5 187 L 93 185.5 L 94.5 182 Z "/>
    <path fill="#ffffff" d="M 212.5 193 Q 216.3 192.3 217 194.5 L 215 195.5 L 215.5 194 L 209.5 196 L 210.5 194 L 212.5 193 Z "/>
    <path fill="#ffffff" d="M 207.5 196 L 205.5 201 L 204 201.5 L 204.5 203 Q 203.3 200.7 202 203.5 L 199.5 209 L 199 207.5 L 207.5 196 Z "/>
    <path fill="#ffffff" d="M 302.5 197 L 309 197.5 L 303 198 L 302.5 200 Q 301.3 197.7 300 200.5 Q 299.3 206.7 303.5 208 L 304.5 207 L 308 210.5 L 309 212.5 Q 307.5 215.5 306 212.5 L 300 205.5 L 299 200.5 L 302.5 197 Z "/>
    <path fill="#ffffff" d="M 90.5 198 L 91 202.5 L 90 202.5 L 90.5 198 Z "/>
    <path fill="#ffffff" d="M 310.5 198 L 316 206.5 L 315 206.5 L 314.5 205 L 313.5 207 L 311 201.5 L 312 200.5 L 310.5 198 Z "/>
    <path fill="#ffffff" d="M 216.5 200 L 217 201.5 L 209.5 215 L 209 213.5 L 211 210.5 L 210 208.5 L 213 207.5 L 216.5 200 Z "/>
    <path fill="#ffffff" d="M 89.5 204 L 90 210.5 L 89 210.5 L 89.5 204 Z "/>
    <path fill="#ffffff" d="M 423.5 209 L 424 220.5 L 423 220.5 L 423.5 209 Z "/>
    <path fill="#ffffff" d="M 198.5 210 L 199 211.5 L 197 217.5 L 198 221.5 L 197 221.5 L 196.5 220 L 196 235.5 L 197 239.5 L 196 239.5 Q 193.4 231.6 195 219.5 L 198.5 210 Z "/>
    <path fill="#ffffff" d="M 317.5 211 Q 320 215.5 319 223.5 Q 317.3 226.8 311.5 226 L 309 225 L 309.5 223 L 311.5 223 Q 317.6 224.3 317 221.5 Q 319.2 220.2 318 215.5 L 317.5 211 Z "/>
    <path fill="#ffffff" d="M 308.5 215 Q 310.8 216.8 310 221.5 L 309 221.5 L 308.5 215 Z "/>
    <path fill="#ffffff" d="M 208.5 216 L 209 225.5 L 208 225.5 L 207.5 221 L 206 221.5 Q 205.3 218.9 208 220 L 208.5 216 Z "/>
    <path fill="#ffffff" d="M 88.5 217 L 89 228.5 L 88 228.5 L 88.5 217 Z "/>
    <path fill="#ffffff" d="M 423.5 225 L 424 236.5 L 423 236.5 L 423.5 225 Z "/>
    <path fill="#ffffff" d="M 210.5 230 L 214 239.5 L 213 239.5 L 212.5 237 L 211.5 239 L 211 237.5 L 212 235.5 L 210 235.5 L 211 232.5 L 210.5 230 Z "/>
    <path fill="#ffffff" d="M 304.5 232 L 305 236.5 L 304 236.5 L 304.5 232 Z "/>
    <path fill="#ffffff" d="M 89.5 236 L 91 250.5 L 90 250.5 L 89.5 236 Z "/>
    <path fill="#ffffff" d="M 306.5 238 L 310 240.5 L 308.5 241 L 306.5 238 Z "/>
    <path fill="#ffffff" d="M 314.5 239 L 316 239.5 L 312.5 241 L 312.5 240 L 314.5 239 Z "/>
    <path fill="#ffffff" d="M 422.5 241 L 423 245.5 L 422 245.5 L 422.5 241 Z "/>
    <path fill="#ffffff" d="M 198.5 244 L 199.5 246 L 201 245.5 L 204 250.5 L 203.5 253 Q 198.7 249.9 198.5 244 Z "/>
    <path fill="#ffffff" d="M 421.5 249 L 422 253.5 L 421 253.5 L 421.5 249 Z "/>
    <path fill="#ffffff" d="M 210.5 250 L 213 250.5 Q 211.7 254.7 205.5 254 L 205.5 253 L 211 251.5 L 210.5 250 Z "/>
    <path fill="#ffffff" d="M 420.5 255 L 421 259.5 L 420 259.5 L 420.5 255 Z "/>
    <path fill="#ffffff" d="M 93.5 264 L 95 271.5 L 94 271.5 L 93.5 264 Z "/>
    <path fill="#ffffff" d="M 417.5 272 L 418 274.5 L 416.5 279 L 416 275.5 L 417.5 272 Z "/>
    <path fill="#ffffff" d="M 413.5 288 L 414 290.5 L 412.5 294 L 412 291.5 L 413.5 288 Z "/>
    <path fill="#ffffff" d="M 101.5 297 L 103 301.5 L 102 301.5 L 101.5 297 Z "/>
    <path fill="#ffffff" d="M 105.5 310 L 107 314.5 L 106 314.5 L 105.5 310 Z "/>
    <path fill="#ffffff" d="M 108.5 320 L 110 324.5 L 109 324.5 L 108.5 320 Z "/>
    <path fill="#ffffff" d="M 402.5 325 L 403 326.5 L 401.5 330 L 401 327.5 L 402.5 325 Z "/>
    <path fill="#ffffff" d="M 112.5 333 L 114 338.5 L 113 338.5 L 112.5 333 Z "/>
    <path fill="#ffffff" d="M 116.5 349 L 118 356.5 L 117 356.5 L 116.5 349 Z "/>
    <path fill="#ffffff" d="M 394.5 357 L 395 361.5 L 393.5 367 L 393 362.5 L 394.5 357 Z "/>
    <path fill="#ffffff" d="M 120.5 373 L 122 381.5 L 121 381.5 L 120.5 373 Z "/>
    <path fill="#ffffff" d="M 390.5 382 L 391 385.5 L 389.5 389 L 389 386.5 L 390.5 382 Z "/>
    <path fill="#ffffff" d="M 386.5 399 L 387 401.5 L 385.5 404 L 385 402.5 L 386.5 399 Z "/>
    <path fill="#ffffff" d="M 383.5 409 L 384 410.5 L 382.5 413 L 382 411.5 L 383.5 409 Z "/>
    <path fill="#ffffff" d="M 380.5 416 L 381 417.5 L 377.5 423 L 378 421.5 L 380.5 416 Z "/>
    <path fill="#ffffff" d="M 134.5 422 L 137 425.5 L 135 424.5 L 134.5 422 Z "/>
    <path fill="#ffffff" d="M 375.5 426 L 375 427.5 L 373.5 430 L 374 428.5 L 375.5 426 Z "/>
    <path fill="#ffffff" d="M 357.5 446 L 356.5 448 L 353.5 450 L 355.5 447 L 357.5 446 Z "/>
    <path fill="#ffffff" d="M 161.5 451 L 166 453.5 L 164.5 454 L 161.5 451 Z "/>
    <path fill="#ffffff" d="M 169.5 455 L 173 456.5 L 171.5 457 L 169.5 455 Z "/>
    <path fill="#ffffff" d="M 212.5 455 L 224 465.5 L 213.5 456 L 210.5 457 L 210.5 456 L 212.5 455 Z "/>
    <path fill="#ffffff" d="M 301.5 455 L 307 456.5 L 304.5 457 L 301.5 456 L 301.5 455 Z "/>
    <path fill="#ffffff" d="M 200.5 458 L 204 458.5 L 199.5 460 L 183.5 460 L 183.5 459 L 199.5 459 L 200.5 458 Z "/>
    <path fill="#ffffff" d="M 315.5 458 L 328 458.5 L 315.5 459 L 315.5 458 Z "/>
    <path fill="#ffffff" d="M 230.5 469 L 235 471.5 L 233.5 472 L 230.5 469 Z "/>
    <path fill="#ffffff" d="M 247.5 475 L 253 475.5 L 247.5 476 L 247.5 475 Z "/>
    <path fill="#51cf66" d="M 285.5 46 Q 292.6 46.9 296 51.5 Q 300 56.5 300 65.5 L 293.5 68 Q 283.9 62.6 284 47.5 L 285.5 46 Z "/>
    <path fill="#51cf66" d="M 276.5 50 Q 280.7 48.7 279 53.5 Q 281.2 64.3 288 70.5 L 274 86.5 L 269 104.5 L 269 113.5 L 271 121.5 L 275.5 128 L 286.5 135 L 294.5 138 L 302.5 138 L 304 139.5 L 296.5 146 L 290.5 143 L 281.5 142 L 277.5 140 L 251.5 139 L 230.5 143 L 217.5 148 L 210 143 Q 208.3 138.5 213.5 140 Q 215 137.5 220.5 139 L 232.5 134 L 244 123.5 L 249 111.5 L 252 93.5 L 256 80.5 Q 263.2 62.2 276.5 50 Z "/>
    <path fill="#51cf66" d="M 212.5 117 L 229.5 117 L 234 119.5 L 231.5 123 L 220.5 128 L 211.5 130 L 201.5 130 L 197.5 131 L 195 133.5 Q 193.7 142.3 199 144.5 L 196.5 146 L 185.5 139 L 180 138 L 180 135.5 L 185.5 130 Q 195.6 120.1 212.5 117 Z "/>
    <path fill="#51cf66" d="M 299.5 117 Q 328.2 116.3 341 131.5 L 339.5 134 L 333.5 135 Q 320.8 139.8 311.5 148 L 311 146.5 L 315 140.5 L 316 133.5 L 308.5 128 L 297.5 128 L 284 123 L 285.5 120 L 299.5 117 Z "/>
    <path fill="#51cf66" d="M 347.5 142 L 365.5 142 L 376.5 145 Q 388.8 149.8 396 159.5 L 407 178.5 L 411 192.5 L 411 197.5 L 413 203.5 L 413 211.5 L 414 212.5 L 414 232.5 L 413 233.5 L 413 242.5 L 411 249.5 L 411 256.5 Q 407.5 264.5 407 275.5 L 388 338.5 L 384 358.5 L 382 376.5 L 377 398.5 L 368 420.5 L 351.5 439 Q 343 445 331.5 448 L 320.5 449 L 308 447 L 308 443.5 L 319 421.5 L 327 396.5 L 334 359.5 Q 333.3 355.3 327.5 356 L 324 359.5 L 319 387.5 L 307 424.5 L 294 447.5 L 284.5 457 L 269.5 465 L 250.5 466 Q 231.3 462.3 221 449.5 L 209 429.5 L 202 410.5 L 196 385.5 Q 195.7 372.8 192 363.5 L 191 350.5 L 190 346.5 L 187.5 344 L 185.5 343 L 182 344 Q 179.9 347.3 181 355.5 L 191 407.5 Q 195 414.5 196 424.5 L 207 446.5 L 200.5 449 L 187.5 450 L 177.5 448 L 162.5 441 L 150 428.5 L 142 415.5 L 135 397.5 L 131 380.5 L 130 367.5 L 126 345.5 L 104 269.5 L 100 247.5 L 100 239.5 L 99 238.5 L 99 209.5 L 100 208.5 L 101 195.5 L 108 174.5 L 122.5 155 Q 130.5 147.5 142.5 144 L 147.5 143 L 163.5 143 L 178.5 147 L 197 158 L 198 160.5 L 186 171.5 L 176 184.5 L 168 203.5 L 165 216.5 L 165 250.5 L 167 259.5 L 168 276.5 L 171.5 280 Q 176 281 177 278.5 L 178 272.5 L 177 271.5 L 177 263.5 L 175 253.5 L 174 223.5 L 175 222.5 L 176 209.5 L 185 188.5 L 203.5 168 Q 216.7 157.7 234.5 152 L 249.5 149 L 270.5 149 L 285.5 152 L 304.5 160 Q 318.6 167.4 328 179.5 Q 343.9 196.6 346 227.5 Q 343.2 229.3 345 235.5 L 346 239 L 351.5 240 L 354 239 L 355 236.5 L 355 216.5 Q 349.1 184.4 329.5 166 L 318 156.5 Q 328.9 145.4 347.5 142 Z M 213 189 L 204 194 L 195 206 L 191 221 L 191 236 L 194 248 L 197 253 L 204 258 L 213 257 Q 218 253 219 246 L 218 237 L 213 225 L 214 215 Q 220 209 222 200 L 221 194 Q 219 189 213 189 Z M 305 192 L 299 195 L 295 201 Q 294 206 297 209 L 304 217 L 304 224 L 300 231 L 301 240 L 307 245 L 316 245 Q 322 242 323 234 L 323 215 L 321 207 L 316 198 Q 313 192 305 192 Z "/>
    <path fill="#51cf66" d="M 213.5 194 L 217 195.5 L 217 199.5 L 211.5 209 L 210 208.5 L 211 210.5 L 207.5 220 L 206 219.5 L 206.5 223 L 207.5 221 L 211 232.5 L 210 235.5 L 212 235.5 Q 214.9 239.1 214 246.5 L 210.5 252 L 204.5 253 L 201 249.5 L 202 248.5 L 201.5 247 L 200 247.5 L 201 245.5 L 199 245.5 L 196 235.5 L 196 220.5 L 197 220.5 L 197.5 224 L 198 218.5 L 197 215.5 L 202 203.5 L 204.5 201 L 206 200.5 L 205 199.5 L 208.5 196 L 213.5 194 Z "/>
    <path fill="#51cf66" d="M 303 198 Q 310.1 196.2 312 200.5 L 312 202.5 L 312.5 204 L 314 203.5 L 313 206.5 L 314 206.5 L 314.5 205 L 317 213.5 L 316.5 215 Q 319.3 214.4 318 220.5 L 317 222.5 L 317.5 224 Q 316.3 221.8 311.5 223 Q 310.3 225.3 309 222.5 L 310 217.5 L 307 212.5 L 308 210.5 L 306.5 211 L 301 205.5 L 300 200.5 L 303 199.5 L 303 198 Z "/>
    <path fill="#51cf66" d="M 305 229 L 314.5 231 L 318 230 L 316 239 L 310.5 241 L 306.5 238 L 305 238.5 L 305 229 Z "/>
  </g>
  <g id="line">
    <path fill="#1a1a1a" d="M 282.5 36 Q 299.3 36.3 305 47.5 L 309 56.5 L 310 63.5 Q 307.8 64.8 309 69.5 L 305.5 75 L 299.5 78 L 295.5 78 L 288 83.5 L 280 98.5 L 279 112 Q 291.8 106.5 311.5 107 L 322.5 109 L 333.5 113 Q 345.1 119.5 353 129.5 L 354.5 132 L 367.5 132 L 378.5 135 Q 394.5 141 404 153.5 Q 412.9 165.1 418 180.5 L 423 205.5 Q 421.5 217 424 224.5 L 423 225.5 L 422 248.5 L 418 271.5 L 416 275.5 L 416 279.5 L 411 298.5 L 397 342.5 L 388 395.5 L 384 408.5 L 376 425.5 Q 369.1 437.6 358.5 446 L 338.5 456 L 330.5 458 L 312.5 458 L 303.5 455 L 299 455 L 299 456.5 L 290.5 465 Q 278 476.5 253.5 476 L 238.5 473 L 227.5 468 L 212.5 455 L 209.5 457 L 199.5 459 L 182.5 459 Q 155.4 453.6 142 434.5 L 131 415.5 L 126 400.5 L 122 383.5 L 122 378.5 L 119 366.5 L 119 359.5 L 115 340.5 L 96 278.5 L 96 273.5 L 92 258.5 L 90 236.5 L 89 235.5 L 89 211.5 L 90 210.5 L 92 191.5 L 97 175.5 Q 103.1 160.6 113.5 150 Q 121.7 141.7 133.5 137 L 149.5 133 L 162.5 133 Q 163.7 135.3 168.5 134 L 181.5 120 L 192.5 113 L 202.5 109 L 212.5 107 L 229.5 107 L 238.5 109 L 240 107.5 L 241 97.5 L 248 74.5 Q 255.2 56.2 268.5 44 Q 274 38.5 282.5 36 Z M 286 46 L 284 48 Q 284 63 294 68 L 300 66 Q 300 57 296 52 Q 293 47 286 46 Z M 277 50 Q 263 62 256 81 L 252 94 L 249 112 L 244 124 L 233 134 L 221 139 Q 215 138 214 140 Q 208 139 210 143 L 218 148 L 231 143 L 252 139 L 278 140 L 282 142 L 291 143 L 297 146 L 304 140 L 303 138 L 295 138 L 287 135 L 276 128 L 271 122 L 269 114 L 269 105 L 274 87 L 288 71 Q 281 64 279 54 Q 281 49 277 50 Z M 213 117 Q 196 120 186 130 L 180 136 L 180 138 L 186 139 L 202 149 Q 203 146 201 147 L 195 140 L 195 134 L 198 131 L 202 130 L 212 130 L 221 128 L 232 123 L 234 120 L 230 117 L 213 117 Z M 300 117 L 286 120 L 284 123 L 298 128 L 309 128 L 316 134 L 315 141 L 312 146 L 309 150 Q 321 139 340 134 L 341 132 Q 328 116 300 117 Z M 348 142 Q 329 145 318 157 L 330 166 Q 349 184 355 217 L 355 237 L 354 239 L 352 240 L 346 239 L 345 236 Q 343 229 346 228 Q 344 197 328 180 Q 319 167 305 160 L 286 152 L 271 149 L 250 149 L 235 152 Q 217 158 204 168 L 185 189 L 176 210 L 175 223 L 174 224 L 175 254 L 177 264 L 177 272 L 178 273 L 177 279 Q 176 281 172 280 L 168 277 L 167 260 L 165 251 L 165 217 L 168 204 L 176 185 L 186 172 L 198 161 L 197 158 L 179 147 L 164 143 L 148 143 L 143 144 Q 131 148 123 155 L 108 175 L 101 196 L 100 209 L 99 210 L 99 239 L 100 240 L 100 248 L 104 270 L 126 346 L 130 368 L 131 381 L 135 398 L 142 416 L 150 429 L 163 441 L 178 448 L 188 450 L 201 449 L 207 447 L 196 425 Q 195 415 191 408 L 181 356 Q 180 347 182 344 L 186 343 L 188 344 L 190 347 L 191 351 L 192 364 Q 196 373 196 386 L 202 411 L 209 430 L 221 450 Q 231 462 251 466 L 270 465 L 285 457 L 294 448 L 307 425 L 319 388 L 324 360 L 328 356 Q 333 355 334 360 L 331 380 L 324 407 L 316 429 L 307 446 L 309 447 L 320 448 L 321 449 L 332 448 Q 343 445 352 439 L 368 421 L 377 399 L 382 377 L 384 359 L 388 339 L 407 276 Q 407 264 411 257 L 411 250 L 413 243 L 413 234 L 414 233 L 414 213 L 413 212 L 413 204 L 411 198 L 411 193 L 407 179 L 396 160 Q 389 150 377 145 L 366 142 L 348 142 Z "/>
    <path fill="#1a1a1a" d="M 212.5 189 Q 218.9 189.1 221 193.5 L 222 199.5 Q 219.7 208.7 214 214.5 L 213 224.5 L 218 236.5 L 219 245.5 Q 217.6 253.1 212.5 257 L 203.5 258 L 197 252.5 L 194 247.5 L 191 235.5 L 191 220.5 L 195 205.5 L 203.5 194 L 212.5 189 Z M 213 193 L 208 196 L 201 204 L 195 220 L 195 236 L 200 250 L 206 254 L 211 253 L 214 249 L 214 238 L 209 227 L 209 216 L 218 199 L 217 195 Q 216 192 213 193 Z "/>
    <path fill="#1a1a1a" d="M 304.5 192 Q 312.9 192.1 316 197.5 L 321 206.5 L 323 214.5 L 323 233.5 Q 321.6 241.6 315.5 245 L 306.5 245 L 301 239.5 L 300 230.5 L 304 223.5 L 304 216.5 L 297 208.5 Q 294.3 206.2 295 200.5 L 298.5 195 L 304.5 192 Z M 303 197 L 299 201 L 300 206 L 308 215 L 309 225 L 312 226 Q 317 227 319 224 Q 319 209 313 201 Q 311 196 303 197 Z M 307 228 L 304 233 L 305 239 L 309 241 L 315 241 Q 319 237 319 230 Q 311 232 307 228 Z "/>
  </g>
</svg>
