<svg xmlns="http://www.w3.org/2000/svg" width="512" height="512" viewBox="0 0 512 512">
  <g id="color">
    <path fill="#ffffff" d="M 251.5 36 L 263 36.5 L 248.5 38 L 248.5 37 L 251.5 36 Z "/>
    <path fill="#ffffff" d="M 287.5 53 L 290 57.5 L 289 57.5 L 287.5 53 Z "/>
    <path fill="#ffffff" d="M 224.5 57 L 225 58.5 L 222.5 63 L 222 61.5 L 224.5 57 Z "/>
    <path fill="#ffffff" d="M 406.5 61 L 413 61.5 L 406.5 62 L 406.5 61 Z "/>
    <path fill="#ffffff" d="M 293.5 68 L 294 80.5 L 293 80.5 L 293.5 68 Z "/>
    <path fill="#ffffff" d="M 220.5 71 L 221 77.5 L 220 77.5 L 220.5 71 Z "/>
    <path fill="#ffffff" d="M 217.5 85 L 219 85.5 L 214.5 87 L 214.5 86 L 217.5 85 Z "/>
    <path fill="#ffffff" d="M 209.5 88 L 211 88.5 L 205.5 91 L 205.5 90 L 209.5 88 Z "/>
    <path fill="#ffffff" d="M 318.5 92 L 322 94.5 L 320.5 94 L 318.5 92 Z "/>
    <path fill="#ffffff" d="M 199.5 93 L 198.5 95 L 196.5 96 L 197.5 94 L 199.5 93 Z "/>
    <path fill="#ffffff" d="M 325.5 96 L 330 99.5 L 327.5 98 L 325.5 96 Z "/>
    <path fill="#ffffff" d="M 370.5 138 L 367 142.5 L 366.5 144 L 366 142.5 L 370.5 138 Z "/>
    <path fill="#ffffff" d="M 151.5 139 L 151 140.5 L 149.5 143 L 150 141.5 L 151.5 139 Z "/>
    <path fill="#ffffff" d="M 368.5 147 L 370 150.5 L 369 150.5 L 368.5 147 Z "/>
    <path fill="#ffffff" d="M 143.5 154 L 144 155.5 L 142.5 158 L 142 156.5 L 143.5 154 Z "/>
    <path fill="#ffffff" d="M 138.5 167 L 139 169.5 L 137.5 173 L 137 170.5 L 138.5 167 Z "/>
    <path fill="#ffffff" d="M 377.5 171 L 379 176.5 L 378 176.5 L 377.5 171 Z "/>
    <path fill="#ffffff" d="M 130.5 203 L 131 208.5 L 130 208.5 L 130.5 203 Z "/>
    <path fill="#ffffff" d="M 384.5 205 L 385 209.5 L 384 209.5 L 384.5 205 Z "/>
    <path fill="#ffffff" d="M 129.5 211 L 130 220.5 L 129 220.5 L 129.5 211 Z "/>
    <path fill="#ffffff" d="M 385.5 213 L 386 220.5 L 385 220.5 L 385.5 213 Z "/>
    <path fill="#ffffff" d="M 386.5 222 L 387 233.5 L 386 233.5 L 386.5 222 Z "/>
    <path fill="#ffffff" d="M 128.5 226 L 129 243.5 L 128 243.5 L 128.5 226 Z "/>
    <path fill="#ffffff" d="M 387.5 242 L 388 251.5 L 387 251.5 L 387.5 242 Z "/>
    <path fill="#ffffff" d="M 127.5 255 L 128 261.5 L 127 261.5 L 127.5 255 Z "/>
    <path fill="#ffffff" d="M 388.5 260 L 389 264.5 L 388 264.5 L 388.5 260 Z "/>
    <path fill="#ffffff" d="M 126.5 265 L 127 270.5 L 126 270.5 L 126.5 265 Z "/>
    <path fill="#ffffff" d="M 389.5 269 L 391 278.5 L 390 278.5 L 389.5 269 Z "/>
    <path fill="#ffffff" d="M 125.5 272 L 126 276.5 L 125 276.5 L 125.5 272 Z "/>
    <path fill="#ffffff" d="M 393.5 290 L 395 295.5 L 394 295.5 L 393.5 290 Z "/>
    <path fill="#ffffff" d="M 118.5 302 L 119 303.5 L 117.5 306 L 117 304.5 L 118.5 302 Z "/>
    <path fill="#ffffff" d="M 397.5 303 L 399 306.5 L 398 306.5 L 397.5 303 Z "/>
    <path fill="#ffffff" d="M 114.5 312 L 114 313.5 L 112.5 317 L 112 315.5 L 114.5 312 Z "/>
    <path fill="#ffffff" d="M 111.5 318 L 111 319.5 L 109.5 322 L 110 320.5 L 111.5 318 Z "/>
    <path fill="#ffffff" d="M 405.5 321 L 408 324.5 L 406 323.5 L 405.5 321 Z "/>
    <path fill="#ffffff" d="M 412.5 332 L 418 338.5 L 414 335.5 L 412.5 332 Z "/>
    <path fill="#ffffff" d="M 437.5 364 L 440 372.5 L 439 372.5 L 437.5 364 Z "/>
    <path fill="#ffffff" d="M 73.5 372 L 74 381.5 L 73 381.5 L 73.5 372 Z "/>
    <path fill="#ffffff" d="M 439.5 381 L 440 383.5 L 437.5 389 L 437 387.5 L 439.5 381 Z "/>
    <path fill="#ffffff" d="M 410.5 406 L 413 406.5 L 407.5 408 L 407.5 407 L 410.5 406 Z "/>
    <path fill="#ffffff" d="M 390.5 410 L 395 410.5 L 390.5 411 L 390.5 410 Z "/>
    <path fill="#ffffff" d="M 382.5 411 L 388 411.5 L 382.5 412 L 382.5 411 Z "/>
    <path fill="#ffffff" d="M 372.5 412 L 379 412.5 L 372.5 413 L 372.5 412 Z "/>
    <path fill="#ffffff" d="M 139.5 413 L 145 413.5 L 139.5 414 L 139.5 413 Z "/>
    <path fill="#ffffff" d="M 357.5 413 L 365 413.5 L 357.5 414 L 357.5 413 Z "/>
    <path fill="#ffffff" d="M 149.5 414 L 157 414.5 L 149.5 415 L 149.5 414 Z "/>
    <path fill="#ffffff" d="M 341.5 414 L 352 414.5 L 341.5 415 L 341.5 414 Z "/>
    <path fill="#ffffff" d="M 158.5 415 L 169 415.5 L 158.5 416 L 158.5 415 Z "/>
    <path fill="#ffffff" d="M 326.5 415 L 339 415.5 L 326.5 416 L 326.5 415 Z "/>
    <path fill="#ffffff" d="M 174.5 416 L 182 416.5 L 174.5 417 L 174.5 416 Z "/>
    <path fill="#ffffff" d="M 313.5 416 L 319 416.5 L 313 417 L 312.5 421 L 312 417.5 L 313.5 416 Z "/>
    <path fill="#ffffff" d="M 190.5 417 L 202 417.5 L 190.5 418 L 190.5 417 Z "/>
    <path fill="#ffffff" d="M 312.5 426 L 313 432.5 L 312 432.5 L 312.5 426 Z "/>
    <path fill="#ffffff" d="M 206.5 434 L 208 439.5 L 207 439.5 L 206.5 434 Z "/>
    <path fill="#ffffff" d="M 309.5 441 L 310 442.5 L 308.5 445 L 308 443.5 L 309.5 441 Z "/>
    <path fill="#ffffff" d="M 210.5 446 L 213 449.5 L 211 448.5 L 210.5 446 Z "/>
    <path fill="#ffffff" d="M 73.5 451 L 74 458.5 L 73 458.5 L 73.5 451 Z "/>
    <path fill="#ffffff" d="M 218.5 458 L 227 465.5 L 224.5 464 L 218.5 458 Z "/>
    <path fill="#ffffff" d="M 291.5 465 L 289.5 468 L 287.5 469 L 288.5 467 L 291.5 465 Z "/>
    <path fill="#ffffff" d="M 83.5 467 L 88 467.5 L 83.5 468 L 83.5 467 Z "/>
    <path fill="#ffffff" d="M 283.5 470 L 282.5 472 L 279.5 473 L 279.5 472 L 283.5 470 Z "/>
    <path fill="#ffffff" d="M 247.5 475 L 252 475.5 L 247.5 476 L 247.5 475 Z "/>
    <path fill="#ffffff" d="M 253.5 476 L 266 476.5 L 253.5 477 L 253.5 476 Z "/>
    <path fill="#ffd43b" d="M 253.5 51 L 263.5 52 L 274 59.5 L 278 66.5 L 279 75.5 L 278 80 L 271.5 79 L 251.5 79 L 250.5 80 L 237.5 81 L 236 79.5 L 235 73.5 L 237 64.5 L 243.5 56 L 253.5 51 Z "/>
    <path fill="#ffd43b" d="M 252.5 93 L 277.5 94 L 302.5 101 Q 324.5 110.5 339 127.5 L 342 133.5 Q 228.2 262.7 118.5 396 L 100.5 392 Q 93.1 389.4 89 383.5 L 88 373.5 L 93 364.5 L 116 339.5 Q 125.6 326.1 132 309.5 L 139 284.5 L 140 273.5 L 141 272.5 L 142 250.5 L 143 249.5 L 144 212.5 L 150 179.5 L 161 151.5 Q 171.1 133.1 186.5 120 Q 198.9 108.9 215.5 102 L 233.5 96 L 251.5 94 L 252.5 93 Z "/>
    <path fill="#ffd43b" d="M 355.5 156 L 358 159.5 L 366 183.5 L 368 199.5 L 370 204.5 L 371 221.5 L 372 222.5 L 372 241.5 L 373 242.5 L 374 266.5 L 380 298.5 Q 386 318.5 396 334.5 L 423 367.5 Q 426.7 371.8 425 381.5 L 419.5 388 L 400.5 395 L 369.5 398 L 368.5 399 L 318.5 401 L 317.5 402 L 301.5 402 L 300.5 403 L 279.5 403 L 278.5 404 L 207.5 404 L 206.5 403 L 189.5 403 L 188.5 402 L 149.5 400 L 148 398.5 L 353.5 157 L 355.5 156 Z "/>
    <path fill="#ff6b6b" d="M 277.5 417 L 284.5 418 L 286.5 418 L 291.5 417 L 299 418.5 L 297 421.5 L 299 422 Q 300 427.3 297 429.5 L 298 432.5 L 296 432.5 L 297 435.5 L 294.5 440 Q 292.3 439.3 293 441.5 L 289 446.5 L 290 447.5 L 283.5 454 Q 282 451.5 280.5 455 L 279 455.5 L 279.5 457 L 278 456.5 Q 278.8 458.8 276.5 458 L 274.5 458 L 273 458.5 L 273.5 460 L 270.5 459 L 270.5 461 L 268.5 460 L 263.5 462 L 261.5 461 L 258.5 462 L 255.5 461 L 252 462 Q 253.3 459 249.5 460 L 247 461 L 246.5 459 L 244 460 L 243.5 458 L 242 458.5 L 241.5 457 L 239.5 457 L 238 456.5 L 238.5 455 Q 230.5 453.9 228 447.5 L 227.5 444 L 226 444.5 L 226.5 443 L 224 441.5 L 221 434.5 L 222 432 Q 219.3 433.1 220 430.5 L 221 427.5 L 220.5 425 L 219.5 427 L 219 420.5 Q 220.8 422.1 222.5 419 Q 227.3 416.8 235.5 418 L 237.5 419 L 239.5 419 L 241.5 418 L 245.5 419 L 246.5 418 L 254.5 418 Q 256.3 420.8 262.5 419 L 264.5 419 L 278 418.5 L 277.5 417 Z "/>
    <path fill="#f783ac" d="M 292.5 417 L 298 417.5 L 292.5 418 L 292.5 417 Z "/>
    <path fill="#f783ac" d="M 220 418 L 225 418.5 L 220.5 421 L 220 418 Z "/>
    <path fill="#f783ac" d="M 255.5 418 L 263 418.5 L 255.5 419 L 255.5 418 Z "/>
    <path fill="#f783ac" d="M 264.5 418 L 278 418.5 L 264.5 419 L 264.5 418 Z "/>
    <path fill="#f783ac" d="M 293.5 440 L 294 441.5 L 288.5 448 L 291 444.5 L 293.5 440 Z "/>
    <path fill="#f783ac" d="M 283.5 452 L 280.5 456 L 278.5 457 L 279.5 455 L 283.5 452 Z "/>
    <path fill="#f783ac" d="M 273.5 458 L 275 458.5 L 268.5 461 L 268.5 460 L 273.5 458 Z "/>
  </g>
  <g id="line">
    <path fill="#1a1a1a" d="M 251.5 37 L 267.5 38 Q 276.9 41.1 283 47.5 Q 295.2 58.6 293 83 Q 326.5 91.8 347 114.5 L 351.5 120 Q 355.5 120.5 356 117.5 L 403.5 63 Q 406.7 60.7 413.5 62 L 421 68.5 L 422 75.5 L 418 83.5 L 366 143.5 L 372 155.5 L 377 170.5 L 384 201.5 L 386 233.5 L 387 234.5 L 388 264.5 L 393 292.5 Q 397.9 309.6 406 323.5 L 414 335.5 L 436 361.5 L 440 373.5 L 440 380.5 L 437 389.5 L 428.5 399 L 419.5 404 L 396.5 410 L 372.5 412 L 371.5 413 L 313.5 416 L 312 417.5 L 313 425.5 L 312 426.5 L 311 437.5 L 306 449.5 L 292.5 465 L 272.5 475 L 252.5 476 L 242.5 474 L 231.5 469 L 217 456.5 L 208 440.5 L 205 427.5 L 205 418 L 201.5 417 L 182.5 417 L 181.5 416 L 169.5 416 L 168.5 415 L 135 413 L 91.5 466 L 82.5 467 L 75 461.5 Q 72.5 458 74 450.5 L 108 408.5 L 94.5 405 L 86.5 401 L 78 392.5 Q 72 385.5 74 370.5 L 79 359.5 L 103 332.5 Q 112.8 319.8 119 303.5 L 124 286.5 L 127 270.5 L 130 209.5 L 136 176.5 L 141 160.5 L 149 143.5 L 158 129.5 L 169 116 L 173 113.5 Q 172.3 111.3 174.5 112 L 193.5 97 L 222 83.5 L 221 81.5 L 221 67.5 L 226 54.5 L 236.5 43 L 243.5 39 L 251.5 37 Z M 254 51 L 244 56 L 237 65 L 235 74 L 236 80 L 238 81 L 251 80 L 252 79 L 272 79 L 278 80 L 279 76 L 278 67 L 274 60 L 264 52 L 254 51 Z M 253 93 L 252 94 L 234 96 L 216 102 Q 199 109 187 120 Q 171 133 161 152 L 150 180 L 144 213 L 143 250 L 142 251 L 141 273 L 140 274 L 139 285 L 132 310 Q 126 326 116 340 L 93 365 L 88 374 L 89 384 Q 93 389 101 392 L 119 396 Q 228 263 342 134 L 339 128 Q 325 110 303 101 L 278 94 L 253 93 Z M 356 156 L 354 157 L 148 399 L 150 400 L 189 402 L 190 403 L 207 403 L 208 404 L 279 404 L 280 403 L 301 403 L 302 402 L 318 402 L 319 401 L 369 399 L 370 398 L 401 395 L 420 388 L 425 382 Q 427 372 423 368 L 396 335 Q 386 319 380 299 L 374 267 L 373 243 L 372 242 L 372 223 L 371 222 L 370 205 L 368 200 L 366 184 L 358 160 L 356 156 Z M 278 417 L 277 418 L 220 418 L 219 421 L 221 436 L 228 448 Q 236 459 253 462 Q 274 464 284 454 L 296 439 L 299 427 L 299 419 L 298 417 L 278 417 Z "/>
  </g>
</svg>
