<svg xmlns="http://www.w3.org/2000/svg" width="512" height="512" viewBox="0 0 512 512">
  <g id="color">
    <path fill="#ffffff" d="M 262.5 121 L 291 121.5 L 262.5 122 L 262.5 121 Z "/>
    <path fill="#ffffff" d="M 202.5 122 L 222 122.5 L 202.5 123 L 202.5 122 Z "/>
    <path fill="#ffffff" d="M 330.5 122 L 344 122.5 L 330.5 123 L 330.5 122 Z "/>
    <path fill="#ffffff" d="M 170.5 123 L 185 123.5 L 170.5 124 L 170.5 123 Z "/>
    <path fill="#ffffff" d="M 356.5 123 L 363 123.5 L 356.5 124 L 356.5 123 Z "/>
    <path fill="#ffffff" d="M 151.5 124 L 158 124.5 L 151.5 125 L 151.5 124 Z "/>
    <path fill="#ffffff" d="M 370.5 124 L 375 124.5 L 370.5 125 L 370.5 124 Z "/>
    <path fill="#ffffff" d="M 139.5 125 L 145 125.5 L 139.5 126 L 139.5 125 Z "/>
    <path fill="#ffffff" d="M 36.5 220 L 37 225.5 L 36 225.5 L 36.5 220 Z "/>
    <path fill="#ffffff" d="M 466.5 244 L 465.5 246 L 462.5 247 L 462.5 246 L 466.5 244 Z "/>
    <path fill="#ffffff" d="M 457.5 254 L 458 260.5 L 457 260.5 L 457.5 254 Z "/>
    <path fill="#ffffff" d="M 51.5 255 L 55 256.5 L 53.5 256 Q 50.5 256.5 51.5 255 Z "/>
    <path fill="#ffffff" d="M 55.5 260 L 56 264.5 L 55 264.5 L 55.5 260 Z "/>
    <path fill="#ffffff" d="M 456.5 266 L 457 271.5 L 456 271.5 L 456.5 266 Z "/>
    <path fill="#ffffff" d="M 455.5 278 L 456 283.5 L 455 283.5 L 455.5 278 Z "/>
    <path fill="#ffffff" d="M 454.5 290 L 455 295.5 L 454 295.5 L 454.5 290 Z "/>
    <path fill="#ffffff" d="M 453.5 304 L 454 309.5 L 453 309.5 L 453.5 304 Z "/>
    <path fill="#ffffff" d="M 61.5 315 L 62 319.5 L 61 319.5 L 61.5 315 Z "/>
    <path fill="#ffffff" d="M 452.5 316 L 453 321.5 L 452 321.5 L 452.5 316 Z "/>
    <path fill="#ffffff" d="M 62.5 324 L 63 330.5 L 62 330.5 L 62.5 324 Z "/>
    <path fill="#ffffff" d="M 448.5 342 L 449 343.5 L 447.5 346 L 447 344.5 L 448.5 342 Z "/>
    <path fill="#ffffff" d="M 390.5 382 L 395 382.5 L 390.5 383 L 390.5 382 Z "/>
    <path fill="#ffffff" d="M 109.5 383 L 114 383.5 L 109.5 384 L 109.5 383 Z "/>
    <path fill="#ffffff" d="M 380.5 383 L 386 383.5 L 380.5 384 L 380.5 383 Z "/>
    <path fill="#ffffff" d="M 118.5 384 L 126 384.5 L 118.5 385 L 118.5 384 Z "/>
    <path fill="#ffffff" d="M 371.5 384 L 377 384.5 L 371.5 385 L 371.5 384 Z "/>
    <path fill="#ffffff" d="M 130.5 385 L 137 385.5 L 130.5 386 L 130.5 385 Z "/>
    <path fill="#ffffff" d="M 361.5 385 L 367 385.5 L 361.5 386 L 361.5 385 Z "/>
    <path fill="#ffffff" d="M 142.5 386 L 148 386.5 L 142.5 387 L 142.5 386 Z "/>
    <path fill="#ffffff" d="M 350.5 386 L 356 386.5 L 350.5 387 L 350.5 386 Z "/>
    <path fill="#ffffff" d="M 155.5 387 L 161 387.5 L 155.5 388 L 155.5 387 Z "/>
    <path fill="#ffffff" d="M 339.5 387 L 345 387.5 L 339.5 388 L 339.5 387 Z "/>
    <path fill="#ffffff" d="M 168.5 388 L 174 388.5 L 168.5 389 L 168.5 388 Z "/>
    <path fill="#ffffff" d="M 325.5 388 L 332 388.5 L 325.5 389 L 325.5 388 Z "/>
    <path fill="#ffffff" d="M 185.5 389 L 193 389.5 L 185.5 390 L 185.5 389 Z "/>
    <path fill="#ffffff" d="M 307.5 389 L 315 389.5 L 307.5 390 L 307.5 389 Z "/>
    <path fill="#ffffff" d="M 205.5 390 L 215 390.5 L 205.5 391 L 205.5 390 Z "/>
    <path fill="#ffffff" d="M 283.5 390 L 295 390.5 L 283.5 391 L 283.5 390 Z "/>
    <path fill="#ffffff" d="M 239.5 391 L 257 391.5 L 239.5 392 L 239.5 391 Z "/>
    <path fill="#ffd43b" d="M 443.5 251 Q 451.8 248.3 449 256.5 L 448 257.5 L 448 267.5 L 447 268.5 L 447 278.5 L 446 279.5 L 446 290.5 L 445 291.5 L 445 302.5 L 444 303.5 L 444 315.5 L 443 316.5 L 442 333.5 Q 437.8 349.3 427.5 359 Q 419.7 366.2 408.5 370 L 397.5 373 L 389.5 373 L 380.5 375 L 348.5 377 L 347.5 378 L 335.5 378 L 334.5 379 L 320.5 379 L 319.5 380 L 301.5 380 L 300.5 381 L 222.5 382 L 221.5 381 L 197.5 381 L 196.5 380 L 165.5 379 L 164.5 378 L 151.5 378 L 150.5 377 L 138.5 377 L 137.5 376 L 108.5 374 L 99.5 371 L 84 359.5 L 75 344.5 L 72 332.5 L 70 305.5 L 68 295.5 L 68 286.5 L 67 285.5 L 67 278.5 L 65 269.5 L 65 259.5 L 64 258.5 L 74.5 258 L 84.5 260 L 105.5 261 L 106.5 262 L 116.5 262 L 117.5 263 L 129.5 263 L 130.5 264 L 141.5 264 L 142.5 265 L 172.5 266 L 173.5 267 L 196.5 267 L 197.5 268 L 206.5 268 L 208 269.5 L 209 291.5 Q 211.5 300 217.5 305 L 226.5 310 L 234.5 312 L 273.5 312 L 288.5 309 L 298 302.5 L 304 290.5 L 305 267.5 L 306.5 266 L 349.5 264 L 350.5 263 L 362.5 263 L 363.5 262 L 392.5 260 L 420.5 255 L 426.5 255 L 443.5 251 Z M 106 273 L 98 276 Q 90 281 88 291 L 88 297 L 91 305 Q 96 312 106 314 Q 115 315 120 311 Q 127 306 129 297 L 129 292 L 126 283 Q 121 272 106 273 Z M 412 295 L 409 296 L 402 303 L 396 320 Q 390 328 380 332 L 370 335 L 356 336 L 348 339 L 342 347 Q 341 353 344 356 L 352 360 Q 390 361 410 342 Q 421 331 425 313 Q 426 304 423 300 L 417 295 L 412 295 Z "/>
    <path fill="#ff6b6b" d="M 292.5 227 L 294 228.5 Q 293.4 234.6 296 237.5 L 295 239.5 L 295 241.5 L 295 249.5 L 296 250.5 L 296 252.5 L 297 255.5 Q 294.8 256.7 296 261.5 L 296 263.5 L 295 268.5 L 295 270.5 Q 293.8 275.2 296 276.5 L 293 292.5 L 287.5 299 L 277.5 302 L 275.5 302 L 273.5 303 L 272.5 302 L 263.5 302 L 261.5 302 L 256.5 303 L 254.5 302 L 252.5 302 L 235.5 302 L 234.5 303 L 234 301 L 229.5 300 L 228 300.5 Q 228.8 298.3 226.5 299 L 222 297 L 220.5 293 L 219 292.5 L 219.5 291 L 218 290.5 Q 220.2 289.2 219 284.5 L 218 283.5 L 218 274.5 L 216 268.5 L 217 265.5 L 216 261.5 L 217 260.5 L 217 239.5 L 218 238.5 L 218 230.5 L 219.5 229 L 222.5 228 L 222.5 230 Q 227.5 231 228.5 228 L 230.5 229 L 232 228.5 Q 229.5 230 233 231.5 L 232 235.5 L 232 237.5 L 233 239.5 L 233 241.5 L 234.5 244 Q 236.8 243.3 236 245.5 Q 238.3 249.3 245.5 248 L 248.5 247 L 249.5 248 L 264.5 248 L 265.5 247 L 274.5 247 L 276 245.5 L 275.5 244 L 277 244.5 Q 277.8 242.3 275.5 243 L 274 240 L 261.5 241 L 260.5 242 L 257.5 241 L 241.5 241 L 240.5 240 L 239 240.5 L 239 238.5 L 238 234.5 L 239 229 L 279.5 229 L 280.5 228 L 282.5 229 L 292.5 227 Z "/>
    <path fill="#ffa94d" d="M 105.5 278 L 110.5 279 L 112.5 279 L 118 281 Q 116.9 283.7 119.5 283 Q 123.7 286.8 124 294.5 Q 122.6 302.1 117.5 306 L 110.5 309 Q 109 306.5 103.5 308 L 96 302.5 L 94 299.5 L 95 298.5 L 93 294.5 L 94 287.5 L 99.5 281 L 105.5 278 Z "/>
    <path fill="#9775fa" d="M 412.5 300 L 419 302.5 Q 421.3 305.7 420 312.5 Q 416.2 329.2 405.5 339 Q 395.8 347.8 381.5 352 L 367.5 355 L 351.5 355 L 348 352.5 L 347 347.5 L 350.5 343 L 381.5 337 L 389.5 333 L 397 327 Q 403.6 318.9 406 305.5 L 410.5 301 L 412.5 300 Z "/>
    <path fill="#66d9e8" d="M 231.5 131 L 320.5 131 L 321.5 132 L 366.5 133 L 367.5 134 L 381.5 135 Q 395.6 137.9 404.5 146 L 442 183.5 L 445 190.5 L 445 195.5 L 439.5 203 L 432.5 206 L 408.5 209 L 407.5 210 L 400.5 210 L 383.5 213 L 373.5 213 L 372.5 214 L 361.5 214 L 360.5 215 L 346.5 215 L 345.5 216 L 309.5 217 L 308.5 218 L 281.5 218 L 280.5 219 L 170.5 219 L 169.5 218 L 146.5 218 L 145.5 217 L 128.5 217 L 127.5 216 L 113.5 216 L 112.5 215 L 77.5 213 Q 67.8 210.7 62 204.5 L 60 197.5 L 61 194.5 L 109.5 146 Q 120.2 137.7 136.5 135 L 161.5 134 L 162.5 133 L 190.5 133 L 191.5 132 L 230.5 132 L 231.5 131 Z "/>
    <path fill="#66d9e8" d="M 453 197 L 455.5 197 L 460 201.5 L 466 211.5 Q 468.4 218.6 467 229.5 L 461.5 237 L 450.5 241 L 405.5 249 L 371.5 252 L 370.5 253 L 349.5 254 L 348.5 255 L 306 257 L 305 253.5 L 305 234.5 L 304 233.5 L 304 227 L 310.5 227 L 311.5 226 L 330.5 226 L 331.5 225 L 372.5 223 L 373.5 222 L 394.5 221 L 402.5 219 L 423.5 217 L 437.5 214 Q 446.2 211.2 451 204.5 L 453 197 Z "/>
    <path fill="#66d9e8" d="M 51 205 Q 53.7 203.9 53 206.5 L 61.5 216 L 72.5 221 L 84.5 222 L 85.5 223 L 98.5 223 L 99.5 224 L 125.5 225 L 126.5 226 L 141.5 226 L 142.5 227 L 198.5 228 L 199.5 229 L 208 229 L 207 259 L 200.5 259 L 199.5 258 L 174.5 258 L 173.5 257 L 143.5 256 L 142.5 255 L 132.5 255 L 131.5 254 L 120.5 254 L 119.5 253 L 109.5 253 L 108.5 252 L 97.5 252 L 96.5 251 L 67.5 249 L 52.5 246 L 48 241.5 L 46 230.5 L 46 217.5 L 47 212.5 L 51 205 Z "/>
    <path fill="#f783ac" d="M 283.5 227 L 292 227.5 L 281.5 229 L 281.5 228 L 283.5 227 Z "/>
    <path fill="#f783ac" d="M 293.5 227 Q 296 228 295 232.5 L 294 232.5 L 293.5 227 Z "/>
    <path fill="#f783ac" d="M 218.5 228 L 224.5 229 L 227.5 228 L 226.5 230 L 219.5 229 L 218 230.5 L 218 238.5 L 217 239.5 L 216.5 261 L 216 237.5 Q 218.7 235.8 217 229.5 L 218.5 228 Z "/>
    <path fill="#f783ac" d="M 229.5 228 L 233 229 L 232.5 231 L 229.5 228 Z "/>
    <path fill="#f783ac" d="M 239.5 228 L 280 228.5 L 239 229 L 238.5 234 L 238 229.5 L 239.5 228 Z "/>
    <path fill="#f783ac" d="M 238.5 236 L 241.5 241 L 258 241.5 L 241.5 242 Q 236.7 240.7 238.5 236 Z "/>
    <path fill="#f783ac" d="M 232.5 240 L 235 243.5 L 233 242.5 L 232.5 240 Z "/>
    <path fill="#f783ac" d="M 268.5 240 L 274 240.5 L 268.5 241 L 268.5 240 Z "/>
    <path fill="#f783ac" d="M 295.5 241 L 296 249.5 L 295 249.5 L 295.5 241 Z "/>
    <path fill="#f783ac" d="M 276.5 243 L 277 244.5 L 274.5 247 L 249.5 248 L 249.5 247 L 264.5 247 L 265.5 246 L 274.5 246 L 276 244.5 L 276.5 243 Z "/>
    <path fill="#f783ac" d="M 236.5 245 Q 239.8 247.8 246 247.5 L 239.5 248 L 236.5 245 Z "/>
    <path fill="#f783ac" d="M 296.5 256 L 297 261.5 L 296 261.5 L 296.5 256 Z "/>
    <path fill="#f783ac" d="M 295.5 270 L 296 275.5 L 295 275.5 L 295.5 270 Z "/>
    <path fill="#f783ac" d="M 217.5 274 L 219 289.5 L 218 289.5 L 217.5 274 Z "/>
    <path fill="#f783ac" d="M 295.5 277 L 296 281.5 L 295 281.5 L 295.5 277 Z "/>
    <path fill="#f783ac" d="M 294.5 284 L 295 288.5 L 294 288.5 L 294.5 284 Z "/>
    <path fill="#f783ac" d="M 293.5 290 L 294 292.5 L 292 293.5 L 293.5 290 Z "/>
    <path fill="#f783ac" d="M 291.5 295 L 287.5 300 Q 284.6 302.6 278.5 302 L 278.5 301 Q 288 301 291.5 295 Z "/>
    <path fill="#f783ac" d="M 223.5 297 L 228 299.5 L 226.5 300 L 223.5 297 Z "/>
    <path fill="#f783ac" d="M 229.5 300 L 234 301.5 L 230.5 302 L 229.5 300 Z "/>
    <path fill="#f783ac" d="M 235.5 302 L 253 302.5 L 235.5 303 L 235.5 302 Z "/>
    <path fill="#f783ac" d="M 257.5 302 L 262 302.5 L 257.5 303 L 257.5 302 Z "/>
    <path fill="#f783ac" d="M 263.5 302 L 273 302.5 L 263.5 303 L 263.5 302 Z "/>
  </g>
  <g id="line">
    <path fill="#1a1a1a" d="M 222.5 122 L 329.5 122 L 330.5 123 L 369.5 124 L 370.5 125 L 383.5 126 Q 396.7 129.3 406.5 136 L 459 186.5 L 474 206.5 L 476 214.5 L 476 230.5 Q 474.3 239.8 467.5 244 L 458 248.5 L 451 334.5 Q 445.8 357.3 429.5 369 L 410.5 379 L 398.5 382 L 380.5 383 L 370.5 385 L 339.5 387 L 338.5 388 L 325.5 388 L 324.5 389 L 283.5 390 L 282.5 391 L 215.5 391 L 214.5 390 L 174.5 389 L 173.5 388 L 161.5 388 L 160.5 387 L 148.5 387 L 147.5 386 L 137.5 386 L 136.5 385 L 108.5 383 Q 86.2 378.3 75 362.5 Q 67.2 352.8 64 338.5 L 61 306.5 L 60 305.5 L 60 297.5 L 59 296.5 L 59 288.5 L 58 287.5 L 58 279.5 L 57 278.5 L 56 260.5 L 53.5 255 Q 44.5 254 41 247.5 L 39 243.5 L 37 232.5 L 37 215.5 L 39 207.5 L 47 195.5 L 103.5 139 Q 116.2 129.2 135.5 126 L 157.5 125 L 158.5 124 L 184.5 124 L 185.5 123 L 221.5 123 L 222.5 122 Z M 232 131 L 231 132 L 192 132 L 191 133 L 163 133 L 162 134 L 137 135 Q 120 138 110 146 L 61 195 L 60 198 L 62 205 Q 68 211 78 213 L 113 215 L 114 216 L 128 216 L 129 217 L 146 217 L 147 218 L 170 218 L 171 219 L 281 219 L 282 218 L 309 218 L 310 217 L 346 216 L 347 215 L 361 215 L 362 214 L 373 214 L 374 213 L 384 213 L 401 210 L 408 210 L 409 209 L 433 206 L 440 203 L 445 196 L 445 191 L 442 184 L 405 146 Q 396 138 382 135 L 368 134 L 367 133 L 322 132 L 321 131 L 232 131 Z M 455 196 L 451 205 Q 446 211 438 214 L 424 217 L 403 219 L 395 221 L 374 222 L 373 223 L 332 225 L 331 226 L 312 226 L 311 227 L 304 227 L 304 234 L 305 235 L 305 254 L 306 257 L 349 255 L 350 254 L 371 253 L 372 252 L 406 249 L 451 241 L 462 237 L 467 230 Q 468 219 466 212 Q 462 202 455 196 Z M 51 205 L 47 213 L 46 218 L 46 231 L 48 242 L 53 246 L 68 249 L 97 251 L 98 252 L 109 252 L 110 253 L 120 253 L 121 254 L 132 254 L 133 255 L 143 255 L 144 256 L 174 257 L 175 258 L 200 258 L 201 259 L 207 259 L 208 229 L 200 229 L 199 228 L 143 227 L 142 226 L 127 226 L 126 225 L 100 224 L 99 223 L 86 223 L 85 222 L 73 221 L 62 216 L 53 207 Q 54 204 51 205 Z M 284 227 L 283 228 L 240 228 L 238 230 Q 237 238 239 241 L 242 242 L 263 242 L 264 241 L 274 241 L 276 244 L 275 246 L 266 246 L 265 247 L 241 247 L 238 246 L 234 243 L 232 236 L 233 233 Q 234 229 232 228 Q 225 226 224 229 L 219 228 L 217 230 Q 219 236 216 238 L 217 285 L 220 295 Q 225 301 235 303 L 275 303 L 288 300 L 294 293 L 296 282 L 296 266 L 297 265 L 295 229 L 294 227 L 284 227 Z M 444 251 L 427 255 L 421 255 L 393 260 L 364 262 L 363 263 L 351 263 L 350 264 L 307 266 L 305 268 L 304 291 L 298 303 L 289 309 L 274 312 L 235 312 L 227 310 L 218 305 Q 212 300 209 292 L 208 270 L 207 268 L 198 268 L 197 267 L 174 267 L 173 266 L 143 265 L 142 264 L 131 264 L 130 263 L 118 263 L 117 262 L 107 262 L 106 261 L 85 260 L 75 258 L 64 259 L 65 260 L 65 270 L 67 279 L 67 286 L 68 287 L 68 296 L 70 306 L 72 333 L 75 345 L 84 360 L 100 371 L 109 374 L 138 376 L 139 377 L 151 377 L 152 378 L 165 378 L 166 379 L 197 380 L 198 381 L 222 381 L 223 382 L 301 381 L 302 380 L 320 380 L 321 379 L 335 379 L 336 378 L 348 378 L 349 377 L 381 375 L 390 373 L 398 373 L 409 370 Q 420 366 428 359 Q 438 349 442 334 L 443 317 L 444 316 L 444 304 L 445 303 L 445 292 L 446 291 L 446 280 L 447 279 L 447 269 L 448 268 L 448 258 L 449 257 Q 452 248 444 251 Z "/>
    <path fill="#1a1a1a" d="M 105.5 273 Q 121.1 272.4 126 282.5 L 129 291.5 L 129 296.5 Q 126.9 306.4 119.5 311 Q 115.1 315.1 105.5 314 Q 95.5 312 91 304.5 L 88 296.5 L 88 290.5 Q 90 280.5 97.5 276 L 105.5 273 Z M 106 278 L 101 280 Q 95 283 93 291 Q 92 298 95 302 Q 99 307 107 309 Q 114 310 118 306 Q 122 302 124 296 L 124 292 L 121 285 Q 117 277 106 278 Z "/>
    <path fill="#1a1a1a" d="M 411.5 295 L 416.5 295 L 423 299.5 Q 426.1 303.9 425 312.5 Q 421.3 331.3 409.5 342 Q 390.3 360.8 351.5 360 L 344 355.5 Q 341.2 352.8 342 346.5 L 347.5 339 L 355.5 336 L 369.5 335 L 379.5 332 Q 390.2 328.2 396 319.5 L 402 302.5 L 408.5 296 L 411.5 295 Z M 413 300 L 411 301 L 406 306 Q 404 319 397 327 L 390 333 L 382 337 L 351 343 L 347 348 L 348 353 L 352 355 L 368 355 L 382 352 Q 396 348 406 339 Q 416 329 420 313 Q 421 306 419 303 L 413 300 Z "/>
  </g>
</svg>
