<svg xmlns="http://www.w3.org/2000/svg" width="512" height="512" viewBox="0 0 512 512">
  <g id="color">
    <path fill="#ffffff" d="M 64.5 36 L 72 36.5 L 64.5 37 L 64.5 36 Z "/>
    <path fill="#ffffff" d="M 59.5 37 L 62 37.5 Q 53.8 39.3 50 45.5 L 47.5 51 L 47 49.5 L 55.5 39 L 59.5 37 Z "/>
    <path fill="#ffffff" d="M 78.5 39 L 84 45.5 L 83 45.5 L 78.5 39 Z "/>
    <path fill="#ffffff" d="M 85.5 50 Q 87.9 54.1 87 61.5 L 86 61.5 L 85.5 50 Z "/>
    <path fill="#ffffff" d="M 46.5 52 L 47 56.5 L 46 57.5 L 45.5 74 L 45 57.5 L 46.5 52 Z "/>
    <path fill="#ffffff" d="M 147.5 56 L 197 56.5 L 147.5 57 L 147.5 56 Z "/>
    <path fill="#ffffff" d="M 137.5 57 L 146 57.5 L 137.5 58 L 137.5 57 Z "/>
    <path fill="#ffffff" d="M 199.5 57 L 210 57.5 L 199.5 58 L 199.5 57 Z "/>
    <path fill="#ffffff" d="M 126.5 58 L 132 58.5 L 120.5 60 L 120.5 59 Q 125.3 60.3 126.5 58 Z "/>
    <path fill="#ffffff" d="M 215.5 58 L 232 59.5 L 223.5 60 Q 221.8 57.2 215.5 59 L 215.5 58 Z "/>
    <path fill="#ffffff" d="M 447.5 59 L 452 59.5 L 447.5 60 L 447.5 59 Z "/>
    <path fill="#ffffff" d="M 235.5 60 L 241 60.5 L 235.5 61 L 235.5 60 Z "/>
    <path fill="#ffffff" d="M 109.5 61 L 114 61.5 L 106.5 63 L 106.5 62 L 109.5 61 Z "/>
    <path fill="#ffffff" d="M 244.5 61 L 251.5 61 L 257 62.5 L 251.5 63 Q 250 60.5 244.5 62 L 244.5 61 Z "/>
    <path fill="#ffffff" d="M 435.5 61 L 439 61.5 L 431.5 63 L 431.5 62 L 435.5 61 Z "/>
    <path fill="#ffffff" d="M 100.5 63 L 103 63.5 L 93.5 66 L 93.5 65 L 100.5 63 Z "/>
    <path fill="#ffffff" d="M 261.5 63 L 276 64.5 L 267.5 65 Q 266.2 62.8 261.5 64 L 261.5 63 Z "/>
    <path fill="#ffffff" d="M 423.5 63 L 428 63.5 L 416.5 65 L 416.5 64 Q 422 65.5 423.5 63 Z "/>
    <path fill="#ffffff" d="M 459.5 63 L 463 70.5 L 462 70.5 L 459.5 63 Z "/>
    <path fill="#ffffff" d="M 277.5 65 L 284 65.5 L 277.5 66 L 277.5 65 Z "/>
    <path fill="#ffffff" d="M 409.5 65 L 415 65.5 L 409.5 66 L 409.5 65 Z "/>
    <path fill="#ffffff" d="M 87.5 66 L 89.5 66 L 92 66.5 L 87 68 L 87.5 66 Z "/>
    <path fill="#ffffff" d="M 288.5 66 L 308 67.5 L 297.5 68 L 296.5 67 L 288.5 67 L 288.5 66 Z "/>
    <path fill="#ffffff" d="M 398.5 66 L 405 66.5 L 398.5 68 L 389.5 68 L 389.5 67 L 397.5 67 L 398.5 66 Z "/>
    <path fill="#ffffff" d="M 313.5 68 L 326 68.5 L 313.5 69 L 313.5 68 Z "/>
    <path fill="#ffffff" d="M 371.5 68 L 385 68.5 L 371.5 69 L 371.5 68 Z "/>
    <path fill="#ffffff" d="M 333.5 69 L 362 69.5 L 333.5 70 L 333.5 69 Z "/>
    <path fill="#ffffff" d="M 204.5 70 L 224.5 71 L 225.5 72 L 251.5 74 L 267.5 77 L 286.5 78 L 287.5 79 L 313.5 80 L 314.5 81 L 337 81 L 338 83.5 L 337 84.5 L 337 99.5 L 338 100.5 L 338 138.5 L 339 139.5 L 339 342.5 L 338.5 344 L 340 344.5 L 332.5 345 L 331.5 344 L 304.5 343 L 303.5 342 L 294.5 342 L 283.5 340 L 273.5 340 L 265.5 338 L 246.5 337 L 239.5 335 L 207 333 L 208 330.5 L 208 305.5 L 207 304.5 L 207 263.5 L 206 262.5 L 204 74.5 L 204.5 70 Z M 291 151 L 290 152 L 276 152 L 264 158 L 261 158 L 256 162 L 257 173 L 260 180 L 267 183 Q 272 182 270 186 L 267 188 L 251 185 L 246 179 L 240 174 L 236 175 L 232 180 L 232 185 L 237 196 Q 243 203 254 206 Q 256 205 255 208 L 250 210 L 248 210 L 240 204 L 235 205 L 231 210 Q 230 217 234 220 L 236 223 L 241 226 L 248 228 L 257 228 L 265 226 L 266 231 L 262 234 Q 251 241 252 258 Q 244 256 241 262 L 242 270 Q 249 277 264 277 L 268 273 L 272 261 L 279 254 L 285 263 L 285 265 L 281 269 L 282 277 L 287 280 L 293 279 L 300 275 L 307 268 L 308 265 L 308 254 L 307 253 Q 305 246 308 245 L 308 234 L 302 211 Q 301 205 303 204 Q 305 192 301 188 Q 300 182 303 180 Q 305 165 301 156 Q 299 150 291 151 Z "/>
    <path fill="#ffffff" d="M 463.5 72 L 464 76.5 L 463 76.5 L 463.5 72 Z "/>
    <path fill="#ffffff" d="M 464.5 78 L 465 90.5 L 466 91.5 L 466 107.5 L 465 107.5 L 464.5 78 Z "/>
    <path fill="#ffffff" d="M 465.5 117 L 466 218.5 L 465 218.5 L 465.5 117 Z "/>
    <path fill="#ffffff" d="M 45.5 144 L 47 217.5 L 46 217.5 L 45.5 144 Z "/>
    <path fill="#ffffff" d="M 292.5 156 Q 296.3 155.3 297 157.5 L 298 160.5 L 298 180.5 L 297 181.5 L 297 191.5 L 298 192.5 L 298 202.5 L 297 203.5 L 297 211.5 L 303 233.5 L 303 264.5 Q 297.8 272.3 287.5 275 L 285 271.5 L 286 269 L 291 265.5 L 289 259.5 L 282 248.5 L 281 240.5 L 279.5 239 L 276 240.5 Q 274.5 246 277 247.5 L 276 250 L 274 250 Q 275.1 252.7 272.5 252 L 268 257.5 L 265 267.5 L 261.5 272 Q 250.5 271.5 245 265.5 Q 246.3 261.8 252.5 263 L 254.5 264 L 256 262.5 L 258 246.5 L 263.5 239 L 272 232.5 L 270 223.5 L 273 220.5 L 272 219.5 Q 272.8 216.9 269.5 218 L 267.5 220 L 258.5 223 L 246.5 223 L 237 216.5 L 235 212.5 L 236 210 L 238.5 209 Q 242.3 213.7 249.5 215 L 261.5 210 L 266 206.5 L 266 197.5 L 276 185.5 L 276 180 Q 272.4 177.4 266 178 Q 264.5 174.2 267.5 175 L 271.5 176 Q 276.5 173.5 271.5 171 L 263.5 170 L 262 168.5 L 261 164.5 L 275.5 157 L 286.5 157 L 288.5 158 L 292.5 156 Z M 274 161 Q 272 167 279 165 Q 281 159 274 161 Z "/>
    <path fill="#ffffff" d="M 237 180 Q 241.7 179 243 182.5 L 246.5 188 L 253.5 191 L 263 192 L 261 197.5 L 261 202 Q 247.1 200.6 240 191.5 L 237 184.5 L 237 180 Z "/>
    <path fill="#ffffff" d="M 47.5 234 L 48 252.5 L 47 252.5 L 47.5 234 Z "/>
    <path fill="#ffffff" d="M 466.5 235 L 467 255.5 L 468 256.5 L 468 280.5 L 467 280.5 L 466.5 235 Z "/>
    <path fill="#ffffff" d="M 48.5 254 L 49 280.5 L 48 280.5 L 48.5 254 Z "/>
    <path fill="#ffffff" d="M 49.5 283 L 50 297.5 L 49 297.5 L 49.5 283 Z "/>
    <path fill="#ffffff" d="M 468.5 292 L 469 309.5 L 468 309.5 L 468.5 292 Z "/>
    <path fill="#ffffff" d="M 50.5 309 L 51 323.5 L 52 324.5 L 52 342.5 L 51 342.5 L 50.5 309 Z "/>
    <path fill="#ffffff" d="M 467.5 328 L 468 334.5 L 466.5 337 L 466 335.5 L 467.5 328 Z "/>
    <path fill="#ffffff" d="M 465.5 338 L 461.5 343 L 453.5 346 L 453.5 345 Q 461.7 343.7 465.5 338 Z "/>
    <path fill="#ffffff" d="M 150.5 343 L 165 343.5 L 150.5 344 L 150.5 343 Z "/>
    <path fill="#ffffff" d="M 179.5 343 L 196 343.5 L 179.5 344 L 179.5 343 Z "/>
    <path fill="#ffffff" d="M 137.5 344 L 148 344.5 L 129.5 346 L 129.5 345 Q 135.8 346.7 137.5 344 Z "/>
    <path fill="#ffffff" d="M 198.5 344 L 211 344.5 L 198.5 345 L 198.5 344 Z "/>
    <path fill="#ffffff" d="M 212.5 345 L 219 345.5 L 212.5 346 L 212.5 345 Z "/>
    <path fill="#ffffff" d="M 122.5 346 L 127 346.5 L 117.5 348 L 117.5 347 L 122.5 346 Z "/>
    <path fill="#ffffff" d="M 223.5 346 L 241 347.5 L 232.5 348 L 231.5 347 L 223.5 347 L 223.5 346 Z "/>
    <path fill="#ffffff" d="M 449.5 346 L 452 346.5 L 446.5 348 L 446.5 347 L 449.5 346 Z "/>
    <path fill="#ffffff" d="M 243.5 348 L 248 348.5 L 243.5 349 L 243.5 348 Z "/>
    <path fill="#ffffff" d="M 107.5 349 L 111 349.5 L 104.5 351 L 104.5 350 L 107.5 349 Z "/>
    <path fill="#ffffff" d="M 251.5 349 L 265 350.5 L 258.5 351 Q 257 348.5 251.5 350 L 251.5 349 Z "/>
    <path fill="#ffffff" d="M 437.5 349 L 441 349.5 L 433.5 351 L 433.5 350 L 437.5 349 Z "/>
    <path fill="#ffffff" d="M 99.5 351 L 103 351.5 L 95 353 L 94.5 365 L 94 353.5 L 99.5 351 Z "/>
    <path fill="#ffffff" d="M 269.5 351 L 275 351.5 L 269.5 352 L 269.5 351 Z "/>
    <path fill="#ffffff" d="M 427.5 351 L 431 351.5 L 416.5 354 L 416.5 353 L 427.5 351 Z "/>
    <path fill="#ffffff" d="M 52.5 352 L 53 363.5 L 52 363.5 L 52.5 352 Z "/>
    <path fill="#ffffff" d="M 276.5 352 L 285 352.5 L 276.5 353 L 276.5 352 Z "/>
    <path fill="#ffffff" d="M 286.5 353 L 292 353.5 L 286.5 354 L 286.5 353 Z "/>
    <path fill="#ffffff" d="M 297.5 354 L 319 355.5 L 306.5 356 L 305.5 355 L 297.5 355 L 297.5 354 Z "/>
    <path fill="#ffffff" d="M 407.5 354 L 413 354.5 L 406.5 356 L 397.5 356 L 397.5 355 L 406.5 355 L 407.5 354 Z "/>
    <path fill="#ffffff" d="M 323.5 356 L 336 356.5 L 323.5 357 L 323.5 356 Z "/>
    <path fill="#ffffff" d="M 381.5 356 L 393 356.5 L 381.5 357 L 381.5 356 Z "/>
    <path fill="#ffffff" d="M 347.5 357 L 372 357.5 L 347.5 358 L 347.5 357 Z "/>
    <path fill="#ffffff" d="M 53.5 368 L 55 402.5 L 54 402.5 L 53.5 368 Z "/>
    <path fill="#ffffff" d="M 95.5 373 L 96 389.5 L 95 389.5 L 95.5 373 Z "/>
    <path fill="#ffffff" d="M 96.5 393 L 97 410.5 L 96 410.5 L 96.5 393 Z "/>
    <path fill="#ffffff" d="M 55.5 411 L 56 424.5 L 55 424.5 L 55.5 411 Z "/>
    <path fill="#ffffff" d="M 97.5 413 L 98 428.5 L 97 428.5 L 97.5 413 Z "/>
    <path fill="#ffffff" d="M 56.5 427 L 57 448.5 L 56 448.5 L 56.5 427 Z "/>
    <path fill="#ffffff" d="M 98.5 442 L 99 456.5 L 98 456.5 L 98.5 442 Z "/>
    <path fill="#ffffff" d="M 57.5 452 L 58 458.5 L 57 458.5 L 57.5 452 Z "/>
    <path fill="#ffffff" d="M 58.5 461 L 60 465.5 L 59 465.5 L 58.5 461 Z "/>
    <path fill="#ffffff" d="M 97.5 461 L 98 463.5 L 95.5 468 L 96 466.5 L 97.5 461 Z "/>
    <path fill="#ff6b6b" d="M 63 49 L 69.5 50 L 71 49.5 Q 70.3 51.8 72.5 51 L 72.5 53 Q 74.8 52.3 74 54.5 L 72 54.5 L 73 57.5 L 72 60.5 L 73.5 66 L 74.5 62 L 75 66.5 L 74 68.5 L 75 71.5 Q 72.5 73 74 78.5 L 74 80.5 L 74 98.5 L 75 101.5 L 74 106.5 L 76 110.5 L 76 140.5 Q 72.4 143.4 74 151.5 L 75 151.5 L 75.5 146 L 76 155.5 L 75 156.5 L 75 198.5 L 77 198.5 L 76 203.5 L 76 205.5 L 76.5 219 L 77.5 212 L 78 229.5 Q 75.7 230.7 77 235.5 L 77 237.5 L 78 245.5 L 77 249.5 L 78 249.5 L 78.5 247 L 79 257.5 L 78 257.5 L 77.5 256 L 77 267.5 L 78 267.5 L 78.5 266 L 79 267.5 L 78 268.5 L 78 280.5 Q 81.8 283.7 80 292.5 L 79 293.5 L 79 310.5 L 80 310.5 L 80.5 308 L 81 317.5 L 79 320.5 L 81 324.5 L 80 325.5 L 80 333.5 L 82 333.5 L 81 339.5 L 82 343.5 L 81 344.5 L 81 361 Q 84 359.8 83 363.5 L 81 363.5 L 81.5 369 L 82.5 365 L 83 368.5 L 82 371.5 L 82 373.5 L 82.5 383 L 83.5 376 L 84 382.5 L 82 385.5 L 84 385.5 L 83 399.5 L 85 399.5 Q 86.8 406.7 83 408.5 L 85 411.5 Q 82.8 412.8 84 417.5 L 84 419.5 L 84.5 424 L 85.5 420 L 86 430.5 L 86 432.5 L 85 435.5 L 87 437.5 L 87 454.5 L 86 454.5 L 85.5 452 L 85 459.5 L 86 461.5 L 82 464.5 L 82.5 463 Q 80.3 462.3 81 464.5 L 79.5 464 L 75.5 465 L 71 462.5 L 71.5 461 Q 68.9 461.8 70 458.5 L 71 454.5 L 70 454.5 L 69.5 457 L 69 454.5 Q 71.8 453.4 71 450 Q 68 451.3 69 447.5 L 70 446.5 L 70 429 L 68 428.5 Q 70.8 426.8 69 420.5 L 68 420.5 L 67.5 423 L 67 415.5 L 68 415.5 L 68.5 418 L 69 413.5 L 68 411.5 L 68 407.5 L 67.5 398 L 66.5 402 L 66 396.5 L 66 394.5 L 66.5 391 L 67.5 394 L 68 389.5 L 66 382.5 L 67 380.5 Q 63.5 379 65 372.5 L 66 372.5 L 66.5 379 L 67 371.5 L 65 368.5 Q 67.5 367 64 365.5 L 64.5 361 L 65.5 366 L 66 360 Q 63.3 361.1 64 358.5 L 65 356.5 L 64 355.5 L 64 347.5 L 65 345.5 L 64 343.5 L 65 342.5 L 65 333.5 L 63 333.5 Q 66 332.5 65 327.5 L 64 326.5 L 63.5 316 L 62.5 318 L 62 305.5 L 63 301.5 L 62 298.5 L 63 297.5 L 63 286.5 L 63 284.5 L 62.5 282 L 61 282.5 L 62 277.5 L 62 260.5 L 61 260.5 L 60.5 265 L 60 254.5 L 61 252.5 L 60 248.5 L 61 247.5 L 61 237.5 L 60 237.5 L 59.5 240 L 59 227.5 L 60 223.5 L 59 219.5 L 60 214.5 L 60 212.5 L 60 194.5 Q 57 195.5 58 190.5 L 59 190.5 L 59.5 193 L 60 184.5 L 59 183.5 L 59 154 L 57 153.5 L 57 140 L 59 139.5 L 59 129.5 L 58 128.5 L 58 117.5 L 58 115.5 L 59 85.5 Q 56.3 84.8 57 80.5 L 58 80.5 L 58.5 83 L 59 78 Q 56 79 57 76 L 59 75.5 L 59 57.5 L 60 54.5 L 59 52.5 Q 61 48.8 63 50.5 L 63 49 Z M 75 111 L 74 124 L 75 124 L 75 111 Z M 75 125 L 74 131 L 75 131 L 75 125 Z M 75 133 L 74 140 L 75 140 L 75 133 Z M 59 141 L 58 149 L 59 149 L 59 141 Z M 79 285 L 78 290 L 79 290 L 79 285 Z M 64 305 L 63 310 L 64 310 L 64 305 Z "/>
    <path fill="#ff6b6b" d="M 154 68 L 179.5 68 L 181.5 69 Q 182.7 66.7 187.5 68 L 187.5 69 L 183 69.5 L 195.5 70 L 197 69.5 L 196.5 71 Q 202.5 70 203.5 74 L 205 73.5 Q 201.5 75 204 76.5 L 204 91.5 L 203 92.5 L 203 163.5 L 204 163.5 L 204.5 109 L 205 185.5 L 204 188.5 L 205 193.5 L 204 197.5 L 205 197.5 L 205.5 196 L 206 215.5 L 205 215.5 L 204.5 211 L 204 230.5 L 206 230.5 Q 207.8 236.8 205 238.5 L 206 239.5 L 206 249.5 Q 203.7 250.8 205 255.5 L 207 263.5 L 207 291.5 L 206 294.5 Q 208.5 296 207 301.5 L 206 305 L 208 305.5 L 208 330.5 L 204.5 332 L 199.5 331 L 197.5 332 L 197.5 330 L 184.5 330 L 182.5 331 Q 181.3 328.8 176.5 330 L 174.5 331 L 172.5 331 L 163.5 330 L 163.5 332 L 158.5 332 L 158 330 L 155.5 330 L 155.5 331 L 157 331.5 L 150.5 332 L 150.5 331 L 154 330.5 L 146.5 330 L 146.5 332 L 137.5 331 L 137.5 333 L 135 332.5 L 135.5 331 Q 133.3 330.3 134 332.5 L 132.5 332 L 128 332.5 L 130 333.5 L 125.5 334 L 123.5 333 L 123.5 335 L 117 334 Q 118.3 337 114.5 336 L 112.5 335 L 112.5 337 L 104.5 336 L 101 337.5 L 103 338.5 L 100.5 339 L 94 337.5 L 95 333.5 L 94 333.5 L 93.5 335 L 93 333.5 L 94 332.5 L 94 324.5 L 93 324.5 L 92.5 326 L 92 313.5 L 93 313.5 L 93.5 315 L 94 311 Q 91 312.3 92 308.5 Q 94.5 307 93 301.5 L 92 301.5 L 91.5 303 L 91 294.5 L 92 294.5 L 92.5 300 L 93 289.5 L 92 289.5 L 91.5 292 L 91 289.5 Q 93.3 288.3 92 283.5 L 92 281.5 L 91.5 268 L 90.5 274 L 90 262.5 L 91 262.5 L 91.5 264 L 92 253.5 L 91 253.5 L 90.5 260 L 90 253.5 L 91 252.5 L 91 239 Q 87.3 240.2 89 235 Q 92.5 236.1 91 228.5 L 90 228.5 L 89.5 234 L 89 228.5 L 90 226.5 L 89 221.5 L 90 220.5 L 90 199.5 L 89 199.5 L 88.5 210 L 88 192 Q 91.5 193.1 90 185.5 L 89 185.5 L 88.5 189 L 88 180.5 L 89 179.5 L 89 161.5 L 88 161.5 L 87.5 164 L 87 145.5 L 89 145.5 L 88.5 132 L 87.5 139 L 87 132.5 L 88 127.5 L 88 125.5 L 88 92.5 L 86 90.5 L 86 81.5 L 87 81.5 L 87.5 84 L 88 81 L 90 80.5 L 89.5 79 L 91.5 80 L 92 78 L 95.5 79 L 96.5 77 L 97.5 79 L 105 76.5 L 103 75.5 L 108.5 74 L 113 75 Q 111.8 72 115.5 73 L 118.5 74 L 118.5 73 L 117 72.5 L 121.5 72 L 125.5 73 L 125.5 72 L 124 71.5 L 128.5 71 L 133 72 Q 131.7 68.7 136.5 70 Q 137.8 72.3 142.5 71 L 142.5 70 L 141 69.5 L 144.5 69 L 144.5 71 Q 146.8 71.8 146 69.5 L 147.5 70 Q 155.1 71.5 154 68 Z M 168 69 L 168 70 L 180 70 L 168 69 Z M 89 150 L 88 155 L 89 155 L 89 150 Z M 206 264 L 205 270 L 206 270 L 206 264 Z "/>
    <path fill="#ff6b6b" d="M 446.5 72 Q 450.9 70.5 450 73.5 L 452 73.5 L 451 76.5 L 451 78.5 L 452 83.5 L 451 84.5 L 451 92.5 L 452 93.5 L 452.5 103 L 453.5 98 L 454 132.5 L 453 132.5 L 452.5 129 L 452 148.5 L 453 153.5 L 452 154.5 L 452 164.5 Q 454.5 166 453 171.5 Q 450.5 173 452 178.5 L 453 182.5 L 452 183.5 L 452 195.5 L 453 197.5 L 452 202.5 L 453 202.5 L 453.5 200 L 454 218.5 L 453 222.5 Q 455.7 224.3 454 230.5 L 453 233.5 L 454 235.5 L 453 236.5 L 453 246.5 L 454 246.5 L 454.5 239 L 455 250.5 L 454 250.5 L 453.5 248 L 453 255.5 L 454 255.5 L 454.5 253 L 455 256.5 L 454 257.5 L 454 271.5 Q 457 272.5 456 277.5 L 455 277.5 L 454.5 276 L 454 280.5 L 455 280.5 L 455.5 279 L 456 287.5 L 455 290.5 L 456 294.5 L 455 295.5 L 455 305.5 Q 457.3 306.8 456 311.5 L 455 315.5 L 456 316.5 L 456 330.5 L 454 330.5 L 453.5 333 L 452 332.5 Q 452.8 334.8 450.5 334 L 448.5 333 L 448.5 335 Q 446.3 335.8 447 333.5 L 440.5 337 L 439 336.5 L 441 335.5 L 438.5 335 L 434 336.5 L 436 337.5 L 434.5 338 L 432 337 Q 433.1 339.7 430.5 339 L 427.5 338 L 427.5 340 L 424.5 339 Q 421.9 338.3 423 341 L 419.5 341 L 416.5 340 L 416.5 341 L 418 341.5 L 413.5 342 L 410.5 341 L 403 341.5 L 403.5 343 L 394.5 342 L 394.5 343 L 398 343.5 L 394.5 344 L 392.5 343 L 390.5 343 Q 383.7 341.7 380.5 344 L 379 343.5 Q 379.9 346.5 375.5 345 L 374.5 344 L 350.5 344 L 349 344.5 L 349.5 343 L 344.5 344 L 340 343 L 341 340.5 L 339 329.5 L 340 328.5 L 340 307.5 L 339 304.5 L 340 303.5 L 340 263.5 L 339 262.5 L 339 155.5 L 340 154.5 L 340 145.5 L 338 138.5 L 338 113.5 L 339 108.5 L 338 104.5 L 339 102.5 L 339 100.5 L 339 83.5 L 340.5 83 L 340.5 81 L 345.5 83 L 356 83 L 356.5 81 L 368.5 81 L 370.5 82 L 374.5 81 L 375.5 82 L 386.5 82 L 386.5 81 L 381 80.5 L 386.5 80 L 388.5 81 L 392.5 81 Q 398.6 82.3 398 79.5 L 399.5 80 L 404 79.5 L 403.5 78 L 409.5 79 Q 411.2 76.2 416.5 77 L 416.5 78 L 414 78.5 L 417.5 79 L 423 78 Q 421.9 75.3 424.5 76 L 428.5 77 L 428.5 75 L 436.5 74 L 440 75 Q 438.8 72 442.5 73 L 446.5 74 L 446.5 72 Z M 340 119 L 339 124 L 340 124 L 340 119 Z M 340 126 L 339 135 L 340 135 L 340 126 Z M 341 180 L 340 185 L 341 185 L 341 180 Z M 453 210 L 452 217 L 453 217 L 453 210 Z M 455 316 L 454 327 L 455 327 L 455 316 Z "/>
    <path fill="#ff6b6b" d="M 337.5 84 L 338 99.5 L 337 99.5 L 337.5 84 Z "/>
    <path fill="#ff6b6b" d="M 452.5 85 L 453 90.5 L 452 90.5 L 452.5 85 Z "/>
    <path fill="#ff6b6b" d="M 76.5 182 L 77 192.5 L 76 192.5 L 76.5 182 Z "/>
    <path fill="#ff6b6b" d="M 58.5 198 L 59 202.5 L 58 202.5 L 58.5 198 Z "/>
    <path fill="#ff6b6b" d="M 205.5 217 L 206 227.5 L 205 227.5 L 205.5 217 Z "/>
    <path fill="#ff6b6b" d="M 61.5 288 L 62 293.5 L 61 293.5 L 61.5 288 Z "/>
    <path fill="#ff6b6b" d="M 190.5 331 L 195 331.5 L 190.5 332 L 190.5 331 Z "/>
    <path fill="#ff6b6b" d="M 383.5 344 L 389 344.5 L 383.5 345 L 383.5 344 Z "/>
    <path fill="#ff6b6b" d="M 68.5 432 L 69 437.5 L 68 437.5 L 68.5 432 Z "/>
    <path fill="#f783ac" d="M 65.5 49 L 70 49.5 L 65.5 50 L 65.5 49 Z "/>
    <path fill="#f783ac" d="M 59.5 54 L 60 56.5 L 59 57.5 L 58.5 76 L 58 56.5 L 59.5 54 Z "/>
    <path fill="#f783ac" d="M 72.5 54 L 74 55.5 L 74 65.5 L 73 65.5 L 72 58.5 L 72 56.5 L 72.5 54 Z "/>
    <path fill="#f783ac" d="M 180.5 68 L 182 68.5 L 179.5 70 L 167.5 70 L 167.5 69 L 179.5 69 L 180.5 68 Z "/>
    <path fill="#f783ac" d="M 147.5 69 L 154 69.5 L 147.5 70 L 147.5 69 Z "/>
    <path fill="#f783ac" d="M 183.5 69 L 195.5 69 L 196.5 70 L 200.5 69 L 202.5 69 L 205 71.5 L 203.5 74 L 200.5 71 L 183.5 70 L 183.5 69 Z "/>
    <path fill="#f783ac" d="M 137.5 70 L 143 70.5 L 137.5 71 L 137.5 70 Z "/>
    <path fill="#f783ac" d="M 129.5 71 L 133 71.5 L 128.5 73 L 129.5 71 Z "/>
    <path fill="#f783ac" d="M 74.5 72 L 75 78.5 L 74 78.5 L 74.5 72 Z "/>
    <path fill="#f783ac" d="M 443.5 73 L 447 73.5 L 442.5 75 L 443.5 73 Z "/>
    <path fill="#f783ac" d="M 109.5 74 L 113 74.5 L 108.5 76 L 109.5 74 Z "/>
    <path fill="#f783ac" d="M 437.5 74 L 440 74.5 L 434.5 76 L 434.5 75 L 437.5 74 Z "/>
    <path fill="#f783ac" d="M 101.5 76 L 105 76.5 L 97.5 79 L 97 77 L 101.5 76 Z "/>
    <path fill="#f783ac" d="M 425.5 76 L 429 76.5 L 424.5 78 L 425.5 76 Z "/>
    <path fill="#f783ac" d="M 417.5 77 L 423 77.5 L 414.5 79 L 414.5 78 L 417.5 77 Z "/>
    <path fill="#f783ac" d="M 57 78 Q 60.7 76.7 59 82.5 L 58 82.5 L 57 78 Z "/>
    <path fill="#f783ac" d="M 451.5 78 L 452 82.5 L 451 82.5 L 451.5 78 Z "/>
    <path fill="#f783ac" d="M 397.5 79 L 398 81 L 392 80.5 L 397.5 79 Z "/>
    <path fill="#f783ac" d="M 399.5 79 L 404 79.5 L 399.5 80 L 399.5 79 Z "/>
    <path fill="#f783ac" d="M 74.5 80 L 75 98.5 L 74 98.5 L 74.5 80 Z "/>
    <path fill="#f783ac" d="M 87 80 L 90 80.5 L 88 81 L 87.5 84 L 87 80 Z "/>
    <path fill="#f783ac" d="M 387.5 80 L 389 80.5 L 386.5 82 L 375.5 82 L 375.5 81 L 386.5 81 L 387.5 80 Z "/>
    <path fill="#f783ac" d="M 337.5 82 L 341 82.5 L 339 83 L 338.5 101 L 338 83.5 L 337.5 82 Z "/>
    <path fill="#f783ac" d="M 345.5 82 L 356 82.5 L 345.5 83 L 345.5 82 Z "/>
    <path fill="#f783ac" d="M 57.5 84 L 59 85.5 L 59 97.5 L 58 98.5 L 58 115.5 L 58 117.5 L 59 140 L 57 139.5 L 57 89.5 L 58 87.5 L 57.5 84 Z "/>
    <path fill="#f783ac" d="M 451.5 84 L 453 91.5 L 453 102.5 L 452 102.5 L 451.5 84 Z "/>
    <path fill="#f783ac" d="M 87.5 92 L 88 125.5 L 87 125.5 L 87.5 92 Z "/>
    <path fill="#f783ac" d="M 203.5 92 L 204 163.5 L 203 163.5 L 203.5 92 Z "/>
    <path fill="#f783ac" d="M 74.5 102 L 75 106.5 L 74 106.5 L 74.5 102 Z "/>
    <path fill="#f783ac" d="M 338.5 108 L 339 112.5 L 338 112.5 L 338.5 108 Z "/>
    <path fill="#f783ac" d="M 74.5 111 L 75 123.5 L 74 123.5 L 74.5 111 Z "/>
    <path fill="#f783ac" d="M 339.5 119 L 340 123.5 L 339 123.5 L 339.5 119 Z "/>
    <path fill="#f783ac" d="M 74.5 125 L 75 130.5 L 74 130.5 L 74.5 125 Z "/>
    <path fill="#f783ac" d="M 339.5 126 L 340 134.5 L 339 134.5 L 339.5 126 Z "/>
    <path fill="#f783ac" d="M 87.5 127 Q 90.4 134.1 89 145.5 L 87 144.5 L 88 132.5 Q 85.6 131.1 87.5 127 Z "/>
    <path fill="#f783ac" d="M 452.5 129 L 453 148.5 L 452 148.5 L 452.5 129 Z "/>
    <path fill="#f783ac" d="M 74.5 133 L 75 139.5 L 74 139.5 L 74.5 133 Z "/>
    <path fill="#f783ac" d="M 58.5 141 L 59 148.5 L 58 148.5 L 58.5 141 Z "/>
    <path fill="#f783ac" d="M 75.5 141 L 76 145.5 L 74.5 152 L 74 143.5 L 75.5 141 Z "/>
    <path fill="#f783ac" d="M 339.5 145 L 340 154.5 L 339 154.5 L 339.5 145 Z "/>
    <path fill="#f783ac" d="M 88.5 150 L 89 154.5 L 88 154.5 L 88.5 150 Z "/>
    <path fill="#f783ac" d="M 58.5 154 L 60 192.5 L 59 192.5 L 58 189.5 L 58.5 154 Z "/>
    <path fill="#f783ac" d="M 452.5 154 L 453 164.5 L 452 164.5 L 452.5 154 Z "/>
    <path fill="#f783ac" d="M 75.5 156 L 76 192.5 L 77 197.5 L 75 198.5 L 75.5 156 Z "/>
    <path fill="#f783ac" d="M 88.5 161 L 89 179.5 L 88 179.5 L 88.5 161 Z "/>
    <path fill="#f783ac" d="M 452.5 172 L 453 178.5 L 452 178.5 L 452.5 172 Z "/>
    <path fill="#f783ac" d="M 340.5 180 L 341 184.5 L 340 184.5 L 340.5 180 Z "/>
    <path fill="#f783ac" d="M 452.5 183 L 453 195.5 L 452 195.5 L 452.5 183 Z "/>
    <path fill="#f783ac" d="M 89.5 185 L 90 192 Q 87 193.3 88 189.5 L 89.5 185 Z "/>
    <path fill="#f783ac" d="M 58 194 L 60 194.5 L 60 212.5 L 59 212.5 L 59 204.5 L 58 203.5 L 59 198.5 L 58 194 Z "/>
    <path fill="#f783ac" d="M 452.5 198 L 453 202.5 L 452 202.5 L 452.5 198 Z "/>
    <path fill="#f783ac" d="M 89.5 199 L 90 220.5 L 89 220.5 L 89.5 199 Z "/>
    <path fill="#f783ac" d="M 76.5 205 L 77 218.5 L 76 218.5 L 76.5 205 Z "/>
    <path fill="#f783ac" d="M 452.5 210 L 453 216.5 L 452 216.5 L 452.5 210 Z "/>
    <path fill="#f783ac" d="M 204.5 211 L 206 216.5 L 205 217.5 L 205 227.5 L 206 229.5 L 204 230.5 L 204.5 211 Z "/>
    <path fill="#f783ac" d="M 59.5 214 L 60 218.5 L 59 218.5 L 59.5 214 Z "/>
    <path fill="#f783ac" d="M 59.5 223 L 61 227.5 L 59 226.5 L 59.5 223 Z "/>
    <path fill="#f783ac" d="M 89.5 226 Q 92.3 228.8 91 235 L 89 234.5 Q 91.3 233.3 90 228.5 L 89.5 226 Z "/>
    <path fill="#f783ac" d="M 77.5 230 L 78 235.5 L 77 235.5 L 77.5 230 Z "/>
    <path fill="#f783ac" d="M 453.5 236 L 454 246.5 L 453 246.5 L 453.5 236 Z "/>
    <path fill="#f783ac" d="M 60.5 237 L 61 247.5 L 60 247.5 L 60.5 237 Z "/>
    <path fill="#f783ac" d="M 77.5 237 L 78 242.5 L 77 242.5 L 77.5 237 Z "/>
    <path fill="#f783ac" d="M 90.5 239 L 92 263.5 L 91 263.5 L 90 260.5 Q 92.5 259 91 253.5 L 90 252.5 L 90.5 239 Z "/>
    <path fill="#f783ac" d="M 453.5 248 L 455 252.5 L 453.5 256 L 453.5 248 Z "/>
    <path fill="#f783ac" d="M 205.5 250 L 206 255.5 L 205 255.5 L 205.5 250 Z "/>
    <path fill="#f783ac" d="M 77.5 256 Q 80.3 258.7 79 265.5 L 78 267.5 L 79 268.5 L 79 280.5 L 78 280.5 L 77.5 256 Z "/>
    <path fill="#f783ac" d="M 454.5 257 L 455 271.5 L 454 271.5 L 454.5 257 Z "/>
    <path fill="#f783ac" d="M 61.5 260 L 62 277.5 L 61 277.5 L 61.5 260 Z "/>
    <path fill="#f783ac" d="M 339.5 263 L 340 303.5 L 339 303.5 L 339.5 263 Z "/>
    <path fill="#f783ac" d="M 205.5 264 L 206 269.5 L 205 269.5 L 205.5 264 Z "/>
    <path fill="#f783ac" d="M 91.5 268 L 92 281.5 L 91 281.5 L 91.5 268 Z "/>
    <path fill="#f783ac" d="M 454.5 276 L 456 278.5 L 454.5 281 L 454.5 276 Z "/>
    <path fill="#f783ac" d="M 62.5 282 L 63 284.5 L 63 286.5 L 62.5 298 L 61 283.5 L 62.5 282 Z "/>
    <path fill="#f783ac" d="M 91.5 283 L 93 289.5 L 93 299.5 L 92 299.5 L 91 292.5 L 92 289.5 Q 89.4 287.9 91.5 283 Z "/>
    <path fill="#f783ac" d="M 78.5 285 L 79 289.5 L 78 289.5 L 78.5 285 Z "/>
    <path fill="#f783ac" d="M 79.5 293 L 80 306.5 L 81 307.5 L 79.5 311 L 79.5 293 Z "/>
    <path fill="#f783ac" d="M 455.5 295 L 456 305.5 L 455 305.5 L 455.5 295 Z "/>
    <path fill="#f783ac" d="M 62.5 301 L 64 309.5 L 63 309.5 L 62.5 301 Z "/>
    <path fill="#f783ac" d="M 92.5 301 L 93 307.5 L 92 307.5 L 92.5 301 Z "/>
    <path fill="#f783ac" d="M 339.5 307 L 340 328.5 L 339 328.5 L 339.5 307 Z "/>
    <path fill="#f783ac" d="M 92 311 Q 95.3 309.7 94 314.5 L 93 314.5 L 92 311 Z "/>
    <path fill="#f783ac" d="M 455.5 312 L 456 315.5 L 455 316.5 L 454.5 327 L 454 316.5 L 455.5 312 Z "/>
    <path fill="#f783ac" d="M 63.5 316 L 65 331.5 L 65 333.5 L 64.5 343 L 63 334.5 L 63 332.5 L 64 329.5 L 63 328.5 L 63.5 316 Z "/>
    <path fill="#f783ac" d="M 80.5 318 L 81 322.5 L 80 322.5 L 79 320.5 L 80.5 318 Z "/>
    <path fill="#f783ac" d="M 93.5 324 L 95 336.5 L 94.5 338 L 100 338.5 Q 97.7 340.9 93 340 L 94 333.5 L 93 332.5 L 93.5 324 Z "/>
    <path fill="#f783ac" d="M 80.5 325 L 81 333.5 L 80 333.5 L 80.5 325 Z "/>
    <path fill="#f783ac" d="M 146.5 330 L 154 330.5 L 147.5 332 L 146.5 330 Z "/>
    <path fill="#f783ac" d="M 163.5 330 L 168 330.5 L 163.5 331 L 163.5 330 Z "/>
    <path fill="#f783ac" d="M 176.5 330 L 182 330.5 L 176.5 331 L 176.5 330 Z "/>
    <path fill="#f783ac" d="M 184.5 330 L 198 330.5 L 195.5 332 L 194.5 331 L 184.5 331 L 184.5 330 Z "/>
    <path fill="#f783ac" d="M 137.5 331 L 144 331.5 L 137.5 332 L 137.5 331 Z "/>
    <path fill="#f783ac" d="M 199.5 331 L 204 331.5 L 199.5 332 L 199.5 331 Z "/>
    <path fill="#f783ac" d="M 128.5 332 L 133 332.5 L 128.5 333 L 128.5 332 Z "/>
    <path fill="#f783ac" d="M 339.5 334 L 341 340.5 L 340 343 L 346.5 344 L 349.5 343 L 350.5 344 L 375 344.5 L 350.5 345 L 348.5 345 Q 341 346.5 338 343.5 L 339 342.5 L 339.5 334 Z "/>
    <path fill="#f783ac" d="M 110.5 335 L 109.5 337 L 101.5 338 L 101.5 337 L 110.5 335 Z "/>
    <path fill="#f783ac" d="M 438.5 335 L 441 335.5 L 432.5 338 L 432.5 337 L 438.5 335 Z "/>
    <path fill="#f783ac" d="M 425.5 338 L 427.5 338 L 430 338.5 L 426.5 340 L 424.5 340 L 423 339.5 L 425.5 338 Z "/>
    <path fill="#f783ac" d="M 403.5 341 L 411 341.5 L 404.5 343 L 403.5 341 Z "/>
    <path fill="#f783ac" d="M 394.5 342 L 402 342.5 L 392.5 344 L 392.5 343 L 394.5 342 Z "/>
    <path fill="#f783ac" d="M 379.5 343 L 381.5 344 L 382.5 343 L 390.5 343 L 390.5 344 L 379 345 L 379.5 343 Z "/>
    <path fill="#f783ac" d="M 81.5 344 L 82 360.5 L 81 360.5 L 81.5 344 Z "/>
    <path fill="#f783ac" d="M 64.5 360 Q 67.3 359.4 66 365.5 L 65 365.5 L 64.5 360 Z "/>
    <path fill="#f783ac" d="M 81.5 363 Q 84.3 364.3 82 365.5 L 83 371.5 L 82 371.5 L 81.5 363 Z "/>
    <path fill="#f783ac" d="M 65.5 369 Q 68.3 371.7 67 378.5 L 66 378.5 L 65.5 369 Z "/>
    <path fill="#f783ac" d="M 82.5 373 L 84 384.5 L 82 385.5 L 83 383.5 L 82 382.5 L 82.5 373 Z "/>
    <path fill="#f783ac" d="M 66.5 384 L 68 393.5 L 67 393.5 L 66.5 384 Z "/>
    <path fill="#f783ac" d="M 82.5 387 Q 85.9 390.6 84 399.5 L 83 399.5 Q 83.6 390.6 82.5 387 Z "/>
    <path fill="#f783ac" d="M 67.5 398 L 68 407.5 L 67 407.5 L 67.5 398 Z "/>
    <path fill="#f783ac" d="M 83.5 403 L 85 409.5 L 83 408.5 L 83 406.5 L 83.5 403 Z "/>
    <path fill="#f783ac" d="M 67.5 409 Q 70.3 410.3 68 411.5 L 69 417.5 L 68 417.5 L 67.5 409 Z "/>
    <path fill="#f783ac" d="M 84.5 412 L 85 417.5 L 84 417.5 L 84.5 412 Z "/>
    <path fill="#f783ac" d="M 84.5 419 L 85 423.5 L 84 423.5 L 84.5 419 Z "/>
    <path fill="#f783ac" d="M 68.5 420 L 69 427.5 L 68 427.5 L 68.5 420 Z "/>
    <path fill="#f783ac" d="M 68 429 L 70 429.5 L 70 446.5 L 69 446.5 Q 70.4 434.9 68 429 Z "/>
    <path fill="#f783ac" d="M 69 450 Q 72 448.8 71 452.5 L 71 454.5 L 70.5 458 L 69 450 Z "/>
    <path fill="#f783ac" d="M 85.5 452 L 86 459.5 L 85 459.5 L 85.5 452 Z "/>
    <path fill="#f783ac" d="M 84.5 461 L 81.5 465 L 81 463 L 84.5 461 Z "/>
  </g>
  <g id="line">
    <path fill="#1a1a1a" d="M 62.5 37 L 73.5 37 L 83 44.5 L 85 48.5 L 87 68 L 103.5 63 L 108.5 63 L 118.5 60 L 125.5 60 L 132.5 58 L 145.5 58 L 146.5 57 L 198.5 57 L 199.5 58 L 214.5 58 L 223.5 60 L 234.5 60 L 251.5 63 L 260.5 63 L 267.5 65 L 296.5 67 L 297.5 68 L 332.5 69 L 333.5 70 L 361.5 70 L 362.5 69 L 398.5 68 L 405.5 66 L 414.5 66 L 428.5 63 L 434.5 63 L 445.5 60 L 453.5 60 L 459 63 L 462 68.5 L 464 77.5 L 466 116.5 L 465 117.5 L 465 218.5 L 466 219.5 L 466 256.5 L 467 257.5 L 467 280.5 L 468 281.5 L 468 327.5 L 466 337.5 L 461.5 342 L 445.5 348 L 415.5 354 L 397.5 355 L 396.5 356 L 381.5 356 L 380.5 357 L 336.5 357 L 335.5 356 L 319.5 356 L 318.5 355 L 306.5 355 L 305.5 354 L 292.5 354 L 284.5 352 L 265.5 351 L 257.5 349 L 248.5 349 L 231.5 346 L 219.5 346 L 210.5 344 L 196.5 344 L 195.5 343 L 150.5 343 L 149.5 344 L 137.5 344 L 136.5 345 L 122.5 346 L 95.5 352 L 94 353.5 L 96 410.5 L 97 411.5 L 97 428.5 L 98 429.5 L 98 460.5 Q 96.3 469.8 89.5 474 L 81.5 477 L 74.5 477 Q 65.3 475.3 61 468.5 L 58 460.5 L 58 452.5 L 57 451.5 L 57 427.5 L 56 426.5 L 54 368.5 L 53 367.5 L 53 352.5 L 52 351.5 L 52 324.5 L 51 323.5 L 51 309.5 L 50 308.5 L 49 254.5 L 48 253.5 L 48 234.5 L 47 233.5 L 47 192.5 L 46 191.5 L 45 74.5 L 46 73.5 L 47 51.5 Q 49.6 44.1 55.5 40 L 62.5 37 Z M 67 48 L 62 50 L 58 56 L 58 76 L 57 77 L 57 154 L 58 155 L 59 240 L 60 241 L 61 294 L 62 295 L 63 339 L 64 340 L 64 366 L 65 367 L 65 379 L 66 380 L 67 423 L 68 424 L 68 438 L 69 439 L 69 457 L 71 463 Q 74 467 83 465 L 86 462 Q 85 456 87 455 L 85 400 L 84 399 L 84 377 L 83 376 L 83 362 L 82 361 L 81 305 L 80 304 L 80 284 L 79 283 L 78 213 L 77 212 L 77 183 L 76 182 L 75 63 L 73 52 Q 71 48 67 48 Z M 155 68 L 154 69 L 142 69 L 133 71 L 118 72 L 93 78 L 86 82 L 86 91 L 87 92 L 88 210 L 89 211 L 90 274 L 91 275 L 91 303 L 92 304 L 92 326 L 93 327 L 93 340 L 99 340 L 104 338 L 131 333 Q 137 335 139 332 L 164 332 L 165 331 L 190 331 L 191 332 L 219 333 L 230 335 L 240 335 L 247 337 L 266 338 L 274 340 L 284 340 L 295 342 L 304 342 L 305 343 L 332 344 L 333 345 L 389 345 L 399 343 L 418 342 L 437 337 L 441 337 L 445 335 L 449 335 L 456 331 L 456 274 L 455 273 L 455 240 L 454 239 L 454 201 L 453 200 L 453 137 L 453 135 L 454 133 L 454 99 L 453 98 L 452 74 L 451 72 L 429 75 L 423 77 L 413 77 L 403 79 L 394 79 L 393 80 L 382 80 L 381 81 L 357 81 L 356 82 L 344 82 L 343 81 L 340 82 L 337 81 L 315 81 L 314 80 L 288 79 L 279 77 L 268 77 L 252 74 L 243 74 L 234 72 L 226 72 L 225 71 L 204 70 L 203 69 L 155 68 Z "/>
    <path fill="#1a1a1a" d="M 290.5 151 Q 299.1 149.9 301 155.5 Q 304.9 164.6 303 179.5 Q 300.3 181.8 301 187.5 Q 305 192.5 303 203.5 Q 300.5 205 302 210.5 L 308 233.5 L 308 244.5 Q 305.3 246.2 307 252.5 L 308 253.5 L 308 264.5 L 307 267.5 L 299.5 275 L 292.5 279 L 286.5 280 L 282 276.5 L 281 268.5 L 285 264.5 L 285 262.5 L 278.5 254 L 272 260.5 L 268 272.5 L 263.5 277 Q 249.2 276.8 242 269.5 L 241 261.5 Q 243.8 256.5 252 258 Q 251.4 241.1 261.5 234 L 266 230.5 L 265 226 L 256.5 228 L 247.5 228 L 240.5 226 L 236 222.5 L 234 219.5 Q 229.7 217.3 231 209.5 L 234.5 205 L 239.5 204 L 247.5 210 L 249.5 210 L 255 208 Q 256.1 205.3 253.5 206 Q 243.1 202.9 237 195.5 L 232 184.5 L 232 179.5 L 235.5 175 L 239.5 174 L 246 178.5 L 250.5 185 L 266.5 188 L 270 186 Q 271.8 181.5 266.5 183 L 260 179.5 L 257 172.5 L 256 161.5 L 260.5 158 L 263.5 158 L 275.5 152 L 289.5 152 L 290.5 151 Z M 293 156 L 289 158 L 287 157 L 276 157 L 261 165 L 262 169 L 264 170 L 272 171 Q 277 174 272 176 L 268 175 Q 264 174 266 178 Q 272 177 276 180 L 276 186 L 266 198 L 266 207 L 262 210 L 250 215 Q 242 214 239 209 L 236 210 L 235 213 L 237 217 L 247 223 L 259 223 L 268 220 L 270 218 Q 273 217 272 220 L 273 221 L 270 224 L 272 233 L 264 239 L 258 247 L 256 263 L 255 264 L 253 263 Q 246 262 245 266 Q 250 272 262 272 L 265 268 L 268 258 L 273 252 Q 275 253 274 250 L 276 250 L 277 248 Q 275 246 276 241 L 280 239 L 281 241 L 282 249 L 289 260 L 291 266 L 286 269 L 285 272 L 288 275 Q 298 272 303 265 L 303 234 L 297 212 L 297 204 L 298 203 L 298 193 L 297 192 L 297 182 L 298 181 L 298 161 L 297 158 Q 296 155 293 156 Z M 237 180 L 237 185 L 240 192 Q 247 201 261 202 L 261 198 L 263 192 L 254 191 L 247 188 L 243 183 Q 242 179 237 180 Z "/>
  </g>
</svg>
