<svg xmlns="http://www.w3.org/2000/svg" width="512" height="512" viewBox="0 0 512 512">
  <g id="color">
    <path fill="#ffffff" d="M 374.5 36 L 382 36.5 L 374.5 37 L 374.5 36 Z "/>
    <path fill="#ffffff" d="M 383.5 37 L 390 42.5 L 384.5 38 L 383.5 37 Z "/>
    <path fill="#ffffff" d="M 363.5 38 L 367 38.5 L 360.5 40 L 360.5 39 L 363.5 38 Z "/>
    <path fill="#ffffff" d="M 390.5 44 L 393 48.5 L 392 48.5 L 390.5 44 Z "/>
    <path fill="#ffffff" d="M 316.5 51 L 318 51.5 L 314.5 53 L 314.5 52 L 316.5 51 Z "/>
    <path fill="#ffffff" d="M 312.5 53 L 311.5 55 L 303.5 62 L 310.5 54 L 312.5 53 Z "/>
    <path fill="#ffffff" d="M 384.5 71 L 386 71.5 L 379.5 74 L 379.5 73 L 384.5 71 Z "/>
    <path fill="#ffffff" d="M 352.5 80 L 355 80.5 L 349.5 82 L 349.5 81 L 352.5 80 Z "/>
    <path fill="#ffffff" d="M 338.5 84 L 340 84.5 L 334.5 88 L 336.5 85 L 338.5 84 Z "/>
    <path fill="#ffffff" d="M 332.5 91 L 333 92.5 L 331.5 95 L 331 93.5 L 332.5 91 Z "/>
    <path fill="#ffffff" d="M 217.5 109 L 248 109.5 L 217.5 110 L 217.5 109 Z "/>
    <path fill="#ffffff" d="M 287.5 109 L 288 110.5 Q 286.5 113.5 280.5 112 L 280.5 111 Q 287.8 112.5 287.5 109 Z "/>
    <path fill="#ffffff" d="M 194.5 110 L 211 110.5 L 194.5 111 L 194.5 110 Z "/>
    <path fill="#ffffff" d="M 255.5 110 L 276 110.5 L 255.5 111 L 255.5 110 Z "/>
    <path fill="#ffffff" d="M 185.5 111 L 192 111.5 L 185.5 112 L 185.5 111 Z "/>
    <path fill="#ffffff" d="M 169.5 114 L 171 114.5 L 167.5 116 L 167.5 115 L 169.5 114 Z "/>
    <path fill="#ffffff" d="M 328.5 114 L 336 114.5 L 328.5 115 L 328.5 114 Z "/>
    <path fill="#ffffff" d="M 338.5 115 L 344 115.5 L 338.5 116 L 338.5 115 Z "/>
    <path fill="#ffffff" d="M 361.5 118 L 368 119.5 L 365.5 120 L 361.5 119 L 361.5 118 Z "/>
    <path fill="#ffffff" d="M 387.5 135 L 389 138.5 L 388 138.5 L 387.5 135 Z "/>
    <path fill="#ffffff" d="M 391.5 149 L 392 153.5 L 391 153.5 L 391.5 149 Z "/>
    <path fill="#ffffff" d="M 392.5 155 L 393 160.5 L 392 160.5 L 392.5 155 Z "/>
    <path fill="#ffffff" d="M 393.5 166 L 394 172.5 L 393 172.5 L 393.5 166 Z "/>
    <path fill="#ffffff" d="M 118.5 175 L 119 179.5 L 118 179.5 L 118.5 175 Z "/>
    <path fill="#ffffff" d="M 394.5 180 L 395 188.5 L 394 188.5 L 394.5 180 Z "/>
    <path fill="#ffffff" d="M 117.5 184 L 118 191.5 L 117 191.5 L 117.5 184 Z "/>
    <path fill="#ffffff" d="M 395.5 195 L 396 213.5 L 395 213.5 L 395.5 195 Z "/>
    <path fill="#ffffff" d="M 116.5 196 L 117 214.5 L 116 214.5 L 116.5 196 Z "/>
    <path fill="#ffffff" d="M 115.5 220 L 116 238.5 L 115 238.5 L 115.5 220 Z "/>
    <path fill="#ffffff" d="M 396.5 220 L 397 249.5 L 396 249.5 L 396.5 220 Z "/>
    <path fill="#ffffff" d="M 114.5 256 L 115 281.5 L 114 281.5 L 114.5 256 Z "/>
    <path fill="#ffffff" d="M 397.5 263 L 398 286.5 L 397 286.5 L 397.5 263 Z "/>
    <path fill="#ffffff" d="M 398.5 310 L 399 332.5 L 398 332.5 L 398.5 310 Z "/>
    <path fill="#ffffff" d="M 114.5 353 L 115 381.5 L 114 381.5 L 114.5 353 Z "/>
    <path fill="#ffffff" d="M 314.5 380 Q 320.3 379.2 322 382.5 L 325 390.5 L 324 390.5 L 321 382 L 314.5 381 L 313 381.5 L 314.5 380 Z "/>
    <path fill="#ffffff" d="M 398.5 381 L 399 393.5 L 398 393.5 L 398.5 381 Z "/>
    <path fill="#ffffff" d="M 301.5 393 L 301 394.5 L 299.5 398 L 299 396.5 L 301.5 393 Z "/>
    <path fill="#ffffff" d="M 115.5 398 L 116 417.5 L 115 417.5 L 115.5 398 Z "/>
    <path fill="#ffffff" d="M 397.5 404 L 398 409.5 L 397 409.5 L 397.5 404 Z "/>
    <path fill="#ffffff" d="M 296.5 405 L 297 421 L 290 416.5 L 292.5 418 L 296 419 L 296.5 405 Z "/>
    <path fill="#ffffff" d="M 275.5 411 L 280 411.5 L 275.5 412 L 275.5 411 Z "/>
    <path fill="#ffffff" d="M 324.5 419 L 325 420.5 L 323.5 423 L 323 421.5 L 324.5 419 Z "/>
    <path fill="#ffffff" d="M 258.5 420 L 262 426.5 L 260 425.5 L 258.5 420 Z "/>
    <path fill="#ffffff" d="M 116.5 422 L 117 433.5 L 116 433.5 L 116.5 422 Z "/>
    <path fill="#ffffff" d="M 392.5 423 L 393 424.5 L 389.5 429 L 390 427.5 L 392.5 423 Z "/>
    <path fill="#ffffff" d="M 321.5 426 L 321 427.5 L 318.5 431 L 320 428.5 L 321.5 426 Z "/>
    <path fill="#ffffff" d="M 262.5 428 L 266 432.5 L 263 430.5 L 262.5 428 Z "/>
    <path fill="#ffffff" d="M 266.5 434 L 272 438.5 L 268.5 436 L 266.5 434 Z "/>
    <path fill="#ffffff" d="M 117.5 436 L 118 441.5 L 117 441.5 L 117.5 436 Z "/>
    <path fill="#ffffff" d="M 277.5 441 L 281 442.5 L 279.5 443 L 277.5 441 Z "/>
    <path fill="#ffffff" d="M 296.5 443 L 301 443.5 L 296.5 444 L 296.5 443 Z "/>
    <path fill="#ffffff" d="M 119.5 451 L 123 458.5 L 121 457.5 L 119.5 451 Z "/>
    <path fill="#ffffff" d="M 349.5 464 L 348.5 466 L 346.5 467 L 347.5 465 L 349.5 464 Z "/>
    <path fill="#ffffff" d="M 135.5 469 L 142 470.5 L 138.5 471 L 135.5 470 L 135.5 469 Z "/>
    <path fill="#ffffff" d="M 338.5 469 L 340 469.5 L 335.5 471 L 335.5 470 L 338.5 469 Z "/>
    <path fill="#ffffff" d="M 150.5 472 L 156 472.5 L 150.5 473 L 150.5 472 Z "/>
    <path fill="#ffffff" d="M 161.5 473 L 171 473.5 L 161.5 474 L 161.5 473 Z "/>
    <path fill="#ffffff" d="M 317.5 473 L 323 473.5 L 317.5 474 L 317.5 473 Z "/>
    <path fill="#ffffff" d="M 173.5 474 L 188 474.5 L 173.5 475 L 173.5 474 Z "/>
    <path fill="#ffffff" d="M 302.5 474 L 315 474.5 L 302.5 475 L 302.5 474 Z "/>
    <path fill="#ffffff" d="M 193.5 475 L 209 475.5 L 193.5 476 L 193.5 475 Z "/>
    <path fill="#ffffff" d="M 285.5 475 L 299 475.5 L 285.5 476 L 285.5 475 Z "/>
    <path fill="#ffffff" d="M 223.5 476 L 274 476.5 L 223.5 477 L 223.5 476 Z "/>
    <path fill="#4da3ff" d="M 377.5 143 Q 379.8 142.3 379 144.5 L 382 155.5 L 382 165.5 L 383 166.5 L 383 176.5 L 384 177.5 L 384 197.5 L 385 198.5 L 386 226.5 L 386 228.5 L 388 352.5 L 389 353.5 L 389 361.5 L 388 362.5 L 388 392.5 L 387 393.5 L 387 406.5 L 386 407.5 L 386 409.5 L 384 417.5 L 378 427 L 375 428.5 L 372.5 432 Q 370.3 431.3 371 433.5 L 367 436 L 365.5 439 L 351.5 451 Q 348.5 449.5 350 443.5 L 351 442.5 L 352 402.5 L 353 401.5 L 353 337.5 L 352 336.5 L 352 277.5 L 351 274.5 L 352 273.5 L 352 260.5 L 351 259.5 L 351 231.5 L 350 229.5 L 351 226.5 L 350 225.5 L 349 198.5 L 344 180.5 L 359 167.5 L 374 149.5 L 377.5 143 Z "/>
    <path fill="#4da3ff" d="M 130.5 181 L 141.5 184 L 151.5 184 L 159.5 186 L 183.5 187 L 184.5 188 L 187.5 187 L 188.5 188 L 277.5 189 L 279.5 190 L 280.5 189 L 319.5 188 L 326.5 186 L 332.5 186 L 336 193.5 L 337 209.5 L 338 210.5 L 338 222.5 L 339 223.5 L 339 249.5 L 340 250.5 L 340 322.5 L 341 323.5 L 341 406.5 L 340 407.5 L 340 430.5 L 339 432.5 L 339 434.5 Q 340.8 440.7 338 442.5 L 338 444.5 L 336 455.5 L 331.5 461 L 312.5 463 L 311.5 464 L 273.5 465 L 268.5 466 L 266.5 466 L 234.5 466 L 229.5 465 L 227.5 466 L 226.5 465 L 198.5 465 L 195.5 464 L 193.5 465 L 192.5 464 L 176.5 464 L 175.5 463 L 151.5 462 L 150.5 461 L 148.5 461 L 143.5 461 L 134 457 L 129 447.5 L 129 438.5 L 127 431.5 L 127 419.5 L 126 418.5 L 126 416.5 L 126 385.5 L 125 384.5 L 125 253.5 L 126 252.5 L 126 221.5 L 127 219.5 L 127 217.5 L 128 187.5 L 130.5 181 Z M 316 378 L 309 382 L 297 397 L 295 403 L 294 416 Q 287 411 278 409 L 263 410 L 256 415 L 256 422 L 264 435 L 274 442 L 287 446 L 303 445 L 316 437 Q 315 434 318 435 Q 326 427 329 413 L 329 400 L 326 388 L 323 382 Q 321 378 316 378 Z M 147 384 L 145 385 L 140 392 Q 140 400 146 402 Q 155 403 156 398 L 156 390 L 154 386 L 147 384 Z M 156 413 L 151 415 L 144 425 L 144 432 L 148 441 L 161 445 L 168 443 Q 173 441 174 435 Q 176 424 171 420 Q 167 413 156 413 Z "/>
    <path fill="#ffd43b" d="M 372.5 46 L 380.5 46 L 382 47.5 Q 385.9 51.6 385 60.5 L 380.5 64 L 337.5 75 L 327 81.5 L 323 89.5 L 320 102.5 L 313 121.5 L 313 125.5 L 308 142.5 L 303.5 152 L 301.5 153 L 290.5 153 L 286 151 L 294 118.5 L 301 98.5 L 303 87.5 L 309 70.5 L 315.5 62 L 338.5 54 L 346.5 53 L 350.5 51 L 372.5 46 Z "/>
    <path fill="#ffd43b" d="M 206.5 119 L 258.5 119 L 259.5 120 L 278.5 120 L 284 121 L 283 129.5 L 278 146 L 271.5 146 L 270 147.5 L 269 150.5 L 272.5 155 L 283.5 160 L 291.5 162 L 300.5 162 L 312.5 159 L 320 155 L 321 149.5 Q 319.8 146.3 316 147 Q 317.6 133.4 323.5 123 L 361.5 127 L 368 130.5 L 369 135.5 L 363 146.5 L 354 158 L 351 159.5 L 348.5 163 L 346 164.5 Q 346.8 166.8 344.5 166 L 333.5 174 L 315.5 178 L 301.5 178 L 300.5 179 L 241.5 179 L 240.5 178 L 198.5 178 L 197.5 177 L 179.5 177 L 178.5 176 L 153.5 175 L 136.5 172 L 132 168.5 L 131 165.5 L 139 152.5 L 156.5 134 Q 163.9 125.9 175.5 122 L 190.5 121 L 191.5 120 L 205.5 120 L 206.5 119 Z "/>
    <path fill="#ff6b6b" d="M 145.5 388 L 152 389 L 153 395.5 Q 152.3 398.8 147.5 398 Q 142.8 396.7 144 389.5 L 145.5 388 Z "/>
    <path fill="#ff6b6b" d="M 153.5 417 L 161.5 417 Q 163.5 420.2 168 420 L 171 425.5 Q 169.8 430.3 172 431.5 L 166.5 440 L 163.5 441 L 161.5 441 L 157.5 442 L 152 440 L 150 434 Q 146 435.4 148 428.5 L 147 424.5 L 151.5 418 L 153.5 417 Z "/>
    <path fill="#ffa94d" d="M 314.5 381 Q 321 380 322 384.5 Q 327.7 394.3 327 410.5 Q 324 426 314.5 435 L 304.5 442 L 294.5 444 L 291.5 443 L 286.5 444 L 276.5 441 L 266 434 L 258 418.5 L 259 415.5 Q 258.2 412.9 261.5 414 Q 265.5 411 272.5 411 L 283.5 413 Q 290.6 415.4 294.5 421 L 297.5 421 L 297 419.5 Q 295.5 408 298 400.5 Q 301.5 391 308.5 385 L 314.5 381 Z "/>
    <path fill="#9775fa" d="M 146.5 384 L 154 386 L 156 389.5 L 156 397.5 Q 154.5 403.5 145.5 402 Q 139.9 399.6 140 391.5 L 144.5 385 L 146.5 384 Z M 147 385 L 145 386 L 141 392 L 143 399 L 148 401 L 153 400 Q 156 397 155 390 Q 153 385 147 385 Z "/>
    <path fill="#9775fa" d="M 155.5 413 Q 166.7 412.8 171 419.5 Q 175.5 424 174 434.5 Q 172.6 440.6 167.5 443 L 160.5 445 L 155 443.5 L 164.5 443 L 170 439.5 Q 174.3 435.3 173 425.5 L 166.5 417 L 159.5 414 L 155.5 414 L 148 418.5 L 145 424.5 L 145 431.5 Q 146.8 438.7 152.5 442 L 154 442.5 L 152.5 443 L 147 438.5 Q 142.9 434.1 144 424.5 L 150.5 415 L 155.5 413 Z "/>
    <path fill="#66d9e8" d="M 377 139 Q 379.7 137.9 379 140.5 L 383 151.5 L 384 168.5 L 385 169.5 L 385 182.5 L 386 183.5 L 386 205.5 L 387 206.5 L 387 228.5 L 388 229.5 L 389 322.5 L 390 323.5 L 390 387.5 L 389 388.5 L 389 403.5 L 388 404.5 L 387 415.5 Q 379.3 430.3 366.5 440 Q 358.6 448.9 348 454 L 349 435.5 L 350 434.5 L 350 412.5 L 351 411.5 L 351 312.5 L 350 311.5 L 349 219.5 L 348 218.5 L 348 205.5 L 347 204.5 L 346 191.5 L 342 180.5 L 362 161.5 Q 371.7 151.9 377 139 Z M 378 143 L 374 150 L 359 168 L 344 181 L 349 199 L 350 226 L 351 227 L 350 230 L 351 232 L 351 260 L 352 261 L 352 274 L 351 275 L 352 278 L 352 337 L 353 338 L 353 402 L 352 403 L 351 443 L 350 444 Q 348 449 352 451 L 366 439 L 367 436 L 371 434 Q 370 431 373 432 L 375 429 L 378 427 L 384 418 L 386 410 L 386 408 L 387 407 L 387 394 L 388 393 L 388 363 L 389 362 L 389 354 L 388 353 L 386 229 L 386 227 L 385 199 L 384 198 L 384 178 L 383 177 L 383 167 L 382 166 L 382 156 L 379 145 Q 380 142 378 143 Z "/>
    <path fill="#66d9e8" d="M 128 178 L 132.5 180 L 146.5 183 L 155.5 183 L 166.5 185 L 180.5 185 L 181.5 186 L 285.5 188 L 286.5 187 L 311.5 187 L 312.5 186 L 321.5 186 L 322.5 185 L 333.5 184 L 336 187.5 L 338 195.5 L 339 212.5 L 340 213.5 L 340 231.5 L 341 232.5 L 343 393.5 L 342 394.5 L 341 440.5 L 337 457.5 L 333.5 462 L 326.5 464 L 309.5 465 L 308.5 466 L 239.5 468 L 238.5 467 L 203.5 467 L 202.5 466 L 179.5 466 L 178.5 465 L 167.5 465 L 166.5 464 L 152.5 464 L 138.5 461 L 131 456.5 L 129 453.5 L 127 444.5 L 126 427.5 L 125 426.5 L 125 405.5 L 124 404.5 L 124 366.5 L 123 365.5 L 123 267.5 L 124 266.5 L 124 233.5 L 125 232.5 L 126 191.5 L 127 190.5 Q 125.7 181.6 128 178 Z M 131 181 L 128 188 L 127 218 L 127 220 L 126 222 L 126 253 L 125 254 L 125 385 L 126 386 L 126 417 L 126 419 L 127 420 L 127 432 L 129 439 L 129 448 L 134 457 L 144 461 L 149 461 L 151 461 L 152 462 L 176 463 L 177 464 L 193 464 L 194 465 L 196 464 L 199 465 L 227 465 L 228 466 L 230 465 L 235 466 L 267 466 L 269 466 L 274 465 L 312 464 L 313 463 L 332 461 L 336 456 L 338 445 L 338 443 Q 341 441 339 435 L 339 433 L 340 431 L 340 408 L 341 407 L 341 324 L 340 323 L 340 251 L 339 250 L 339 224 L 338 223 L 338 211 L 337 210 L 336 194 L 333 186 L 327 186 L 320 188 L 281 189 L 280 190 L 278 189 L 189 188 L 188 187 L 185 188 L 184 187 L 160 186 L 152 184 L 142 184 L 131 181 Z "/>
    <path fill="#66d9e8" d="M 315.5 378 Q 321.1 377.9 323 381.5 L 326 387.5 L 329 399.5 L 329 412.5 Q 326.1 426.6 317.5 435 Q 315.3 434.3 316 436.5 L 302.5 445 L 286.5 446 L 273.5 442 L 264 434.5 L 256 421.5 L 256 414.5 L 262.5 410 L 277.5 409 Q 287.5 411.2 294 416 L 295 402.5 L 297 396.5 L 308.5 382 L 315.5 378 Z M 315 380 L 308 385 Q 300 391 297 402 L 296 419 L 280 411 Q 267 409 261 413 L 257 418 Q 260 428 266 435 Q 273 441 284 444 L 301 444 Q 308 442 313 437 Q 315 438 314 436 L 317 434 Q 324 426 327 414 L 327 398 L 322 383 Q 320 379 315 380 Z "/>
    <path fill="#f783ac" d="M 146.5 385 Q 152.9 385.1 155 389.5 Q 156.5 397.5 152.5 400 L 147.5 401 L 143 398.5 L 141 391.5 L 144.5 386 L 146.5 385 Z M 146 388 L 144 390 Q 143 397 148 398 Q 152 399 153 396 L 152 389 L 146 388 Z "/>
    <path fill="#f783ac" d="M 155.5 414 Q 166.8 414.2 171 421.5 Q 174.3 425.2 173 433.5 L 168.5 441 Q 164.2 444.7 154.5 443 L 147 436.5 Q 144 432.5 145 424.5 L 150.5 416 L 155.5 414 Z M 154 417 L 152 418 L 147 425 L 148 429 Q 146 435 150 434 L 152 440 L 158 442 L 162 441 L 164 441 L 167 440 L 172 432 Q 170 430 171 426 L 168 420 Q 163 420 162 417 L 154 417 Z "/>
  </g>
  <g id="line">
    <path fill="#1a1a1a" d="M 371.5 37 Q 386.6 34.4 390 43.5 L 393 49.5 L 394 61.5 Q 392.8 67.3 388.5 70 L 378.5 74 L 341.5 83 L 334 87.5 L 327 106.5 L 326 114 L 328.5 115 L 337.5 115 L 338.5 116 L 347.5 116 L 348.5 117 L 360.5 118 L 371.5 121 L 381 126 L 386 132.5 L 390 142.5 L 392 160.5 L 393 161.5 L 393 172.5 L 394 173.5 L 395 213.5 L 396 214.5 L 396 249.5 L 397 250.5 L 397 286.5 L 398 287.5 L 399 380.5 L 398 381.5 L 398 403.5 L 395 418.5 L 389 429.5 L 367.5 451 L 345.5 467 L 325.5 473 L 302.5 474 L 301.5 475 L 285.5 475 L 284.5 476 L 209.5 476 L 208.5 475 L 188.5 475 L 187.5 474 L 171.5 474 L 170.5 473 L 147.5 472 L 134.5 469 L 124 461.5 L 119 450.5 L 118 436.5 L 117 435.5 L 117 422.5 L 116 421.5 L 115 353.5 L 114 352.5 L 114 282.5 L 115 281.5 L 115 239.5 L 116 238.5 L 117 192.5 L 118 191.5 L 118 180.5 L 121 164.5 L 129 150.5 L 156.5 122 L 171.5 114 L 181.5 112 L 210.5 111 L 211.5 110 L 254.5 110 L 255.5 111 L 279.5 111 Q 281 113.5 286.5 112 L 288 110.5 L 300 68.5 Q 303.3 59.8 310.5 55 L 320.5 50 L 371.5 37 Z M 373 46 L 351 51 L 347 53 L 339 54 L 316 62 L 309 71 L 303 88 L 301 99 L 294 119 L 286 151 L 291 153 L 302 153 L 304 152 L 308 143 L 313 126 L 313 122 L 320 103 L 323 90 L 327 82 L 338 75 L 381 64 L 385 61 Q 386 52 382 48 L 381 46 L 373 46 Z M 207 119 L 206 120 L 192 120 L 191 121 L 176 122 Q 164 126 157 134 L 139 153 L 131 166 L 132 169 L 137 172 L 154 175 L 179 176 L 180 177 L 198 177 L 199 178 L 241 178 L 242 179 L 301 179 L 302 178 L 316 178 L 334 174 L 345 166 Q 347 167 346 165 L 349 163 L 351 160 L 354 158 L 363 147 L 369 136 L 368 131 L 362 127 L 324 123 Q 318 133 316 147 Q 320 146 321 150 L 320 155 L 313 159 L 301 162 L 292 162 L 284 160 L 273 155 L 269 151 L 270 148 L 272 146 L 278 146 L 283 130 L 284 121 L 279 120 L 260 120 L 259 119 L 207 119 Z M 377 139 Q 372 152 362 162 L 342 181 L 346 192 L 347 205 L 348 206 L 348 219 L 349 220 L 350 312 L 351 313 L 351 412 L 350 413 L 350 435 L 349 436 L 348 454 Q 359 449 367 440 Q 379 430 387 416 L 388 405 L 389 404 L 389 389 L 390 388 L 390 324 L 389 323 L 388 230 L 387 229 L 387 207 L 386 206 L 386 184 L 385 183 L 385 170 L 384 169 L 383 152 L 379 141 Q 380 138 377 139 Z M 128 178 Q 126 182 127 191 L 126 192 L 125 233 L 124 234 L 124 267 L 123 268 L 123 366 L 124 367 L 124 405 L 125 406 L 125 427 L 126 428 L 127 445 L 129 454 L 131 457 L 139 461 L 153 464 L 167 464 L 168 465 L 179 465 L 180 466 L 203 466 L 204 467 L 239 467 L 240 468 L 309 466 L 310 465 L 327 464 L 334 462 L 337 458 L 341 441 L 342 395 L 343 394 L 341 233 L 340 232 L 340 214 L 339 213 L 338 196 L 336 188 L 334 184 L 323 185 L 322 186 L 313 186 L 312 187 L 287 187 L 286 188 L 182 186 L 181 185 L 167 185 L 156 183 L 147 183 L 133 180 L 128 178 Z "/>
  </g>
</svg>
