<svg xmlns="http://www.w3.org/2000/svg" width="512" height="512" viewBox="0 0 512 512">
  <g id="color">
    <path fill="#ffffff" d="M 297.5 84 L 306 84.5 L 297.5 85 L 297.5 84 Z "/>
    <path fill="#ffffff" d="M 286.5 85 L 292 85.5 L 286.5 86 L 286.5 85 Z "/>
    <path fill="#ffffff" d="M 313.5 85 L 332 85.5 L 313.5 86 L 313.5 85 Z "/>
    <path fill="#ffffff" d="M 275.5 86 L 280 86.5 L 275.5 87 L 275.5 86 Z "/>
    <path fill="#ffffff" d="M 269.5 87 L 272 87.5 L 267.5 89 L 267.5 88 L 269.5 87 Z "/>
    <path fill="#ffffff" d="M 343.5 88 L 347 89.5 L 345.5 90 L 343.5 88 Z "/>
    <path fill="#ffffff" d="M 310.5 108 L 324 108.5 L 310.5 109 L 310.5 108 Z "/>
    <path fill="#ffffff" d="M 300.5 110 L 306 110.5 L 300.5 111 L 300.5 110 Z "/>
    <path fill="#ffffff" d="M 270.5 112 L 276 112.5 L 270.5 113 L 270.5 112 Z "/>
    <path fill="#ffffff" d="M 279.5 112 L 288 112.5 L 279.5 113 L 279.5 112 Z "/>
    <path fill="#ffffff" d="M 337.5 114 Q 341.5 116.5 340 124.5 L 339 124.5 Q 339.9 116.5 337.5 114 Z "/>
    <path fill="#ffffff" d="M 365.5 119 L 366 125.5 L 365 125.5 L 365.5 119 Z "/>
    <path fill="#ffffff" d="M 330.5 134 L 328.5 137 L 322.5 142 L 327.5 136 L 330.5 134 Z "/>
    <path fill="#ffffff" d="M 352.5 148 L 348 153.5 L 347.5 155 L 347 153.5 L 352.5 148 Z "/>
    <path fill="#ffffff" d="M 162.5 158 L 172 158.5 L 162.5 159 L 162.5 158 Z "/>
    <path fill="#ffffff" d="M 173.5 159 L 178 159.5 L 173.5 160 L 173.5 159 Z "/>
    <path fill="#ffffff" d="M 185.5 161 L 190 161.5 L 185.5 162 L 185.5 161 Z "/>
    <path fill="#ffffff" d="M 151.5 162 L 150.5 164 L 145.5 168 L 149.5 163 L 151.5 162 Z "/>
    <path fill="#ffffff" d="M 202.5 162 Q 212.8 160.2 218 163.5 L 215.5 164 L 214.5 163 L 202.5 163 L 202.5 162 Z "/>
    <path fill="#ffffff" d="M 348.5 164 L 351 170.5 L 350 170.5 L 348.5 164 Z "/>
    <path fill="#ffffff" d="M 223.5 166 Q 229.2 168.3 230 175.5 L 229 175.5 L 228 171.5 L 223.5 166 Z "/>
    <path fill="#ffffff" d="M 321.5 166 L 324 174.5 L 323 174.5 L 321.5 166 Z "/>
    <path fill="#ffffff" d="M 142.5 173 L 143 174.5 L 142 175.5 L 141.5 184 L 141 175.5 L 142.5 173 Z "/>
    <path fill="#ffffff" d="M 393.5 175 L 399 181.5 L 397 180.5 L 393.5 175 Z "/>
    <path fill="#ffffff" d="M 353.5 179 L 355 183.5 L 354 183.5 L 353.5 179 Z "/>
    <path fill="#ffffff" d="M 387.5 181 Q 391.5 180.5 392 183.5 Q 398.1 191.9 397 207.5 L 392.5 215 L 389 212.5 L 384 198.5 L 384 188.5 L 387.5 181 Z "/>
    <path fill="#ffffff" d="M 360.5 182 L 356.5 187 L 355.5 185 L 356.5 186 L 360.5 182 Z "/>
    <path fill="#ffffff" d="M 326.5 183 L 328 187.5 L 327 187.5 L 326.5 183 Z "/>
    <path fill="#ffffff" d="M 224.5 187 L 223.5 189 L 220.5 190 L 220.5 189 L 224.5 187 Z "/>
    <path fill="#ffffff" d="M 300.5 193 L 305 193.5 L 300.5 194 L 300.5 193 Z "/>
    <path fill="#ffffff" d="M 293.5 194 L 298 194.5 L 293.5 195 L 293.5 194 Z "/>
    <path fill="#ffffff" d="M 286.5 195 L 291 195.5 L 286.5 196 L 286.5 195 Z "/>
    <path fill="#ffffff" d="M 403.5 196 L 404 207.5 L 403 207.5 L 403.5 196 Z "/>
    <path fill="#ffffff" d="M 154.5 197 L 160.5 199 L 175 199.5 L 160.5 200 L 154.5 198 L 154.5 197 Z "/>
    <path fill="#ffffff" d="M 270.5 197 L 275 197.5 L 270.5 198 L 270.5 197 Z "/>
    <path fill="#ffffff" d="M 263.5 198 L 268 198.5 L 263.5 199 L 263.5 198 Z "/>
    <path fill="#ffffff" d="M 202.5 199 L 204 202.5 L 203 202.5 L 202.5 199 Z "/>
    <path fill="#ffffff" d="M 175.5 201 L 177 204.5 L 176 204.5 L 175.5 201 Z "/>
    <path fill="#ffffff" d="M 232.5 202 L 239 202.5 L 232.5 203 L 232.5 202 Z "/>
    <path fill="#ffffff" d="M 225.5 203 L 231 203.5 L 225.5 204 L 225.5 203 Z "/>
    <path fill="#ffffff" d="M 402.5 210 L 403 212.5 L 401.5 215 L 401 213.5 L 402.5 210 Z "/>
    <path fill="#ffffff" d="M 322.5 218 Q 324.8 217.3 324 219.5 Q 286.2 266.7 245.5 311 L 243 307.5 L 215 233.5 L 216.5 232 L 230.5 231 L 237.5 229 L 260.5 227 L 276.5 224 L 283.5 224 L 284.5 223 L 291.5 223 L 292.5 222 L 299.5 222 L 322.5 218 Z "/>
    <path fill="#ffffff" d="M 379.5 224 L 385 224.5 L 379.5 225 L 379.5 224 Z "/>
    <path fill="#ffffff" d="M 173.5 229 L 173 230.5 L 171.5 233 L 172 231.5 L 173.5 229 Z "/>
    <path fill="#ffffff" d="M 370.5 231 L 372 236.5 L 371 236.5 L 370.5 231 Z "/>
    <path fill="#ffffff" d="M 169.5 236 L 169 237.5 L 167.5 240 L 168 238.5 L 169.5 236 Z "/>
    <path fill="#ffffff" d="M 344.5 243 L 346 247.5 L 345 247.5 L 344.5 243 Z "/>
    <path fill="#ffffff" d="M 164.5 244 L 164 245.5 L 162.5 248 L 163 246.5 L 164.5 244 Z "/>
    <path fill="#ffffff" d="M 192.5 248 L 218 313.5 L 216.5 315 L 207 316 Q 199.5 291.3 181.5 276 L 178 273.5 L 179 269.5 L 192.5 248 Z "/>
    <path fill="#ffffff" d="M 118.5 254 L 130 254.5 L 118.5 255 L 118.5 254 Z "/>
    <path fill="#ffffff" d="M 384.5 254 L 396 254.5 L 384.5 255 L 384.5 254 Z "/>
    <path fill="#ffffff" d="M 109.5 255 L 114 255.5 L 109.5 256 L 109.5 255 Z "/>
    <path fill="#ffffff" d="M 133.5 255 L 138 255.5 L 133.5 256 L 133.5 255 Z "/>
    <path fill="#ffffff" d="M 398.5 255 L 404 255.5 L 398.5 256 L 398.5 255 Z "/>
    <path fill="#ffffff" d="M 348.5 257 L 350 261.5 L 349 261.5 L 348.5 257 Z "/>
    <path fill="#ffffff" d="M 91.5 260 L 93 260.5 L 89.5 262 L 89.5 261 L 91.5 260 Z "/>
    <path fill="#ffffff" d="M 420.5 260 L 424 261.5 L 422.5 262 L 420.5 260 Z "/>
    <path fill="#ffffff" d="M 84.5 263 L 86 263.5 L 81.5 266 L 82.5 264 L 84.5 263 Z "/>
    <path fill="#ffffff" d="M 427.5 263 L 432 265.5 L 430.5 265 Q 426.7 264.7 427.5 263 Z "/>
    <path fill="#ffffff" d="M 77.5 267 L 75.5 270 L 73.5 271 L 74.5 269 L 77.5 267 Z "/>
    <path fill="#ffffff" d="M 435.5 267 L 440 270.5 L 438.5 270 L 435.5 267 Z "/>
    <path fill="#ffffff" d="M 115.5 283 Q 120 282 121 284.5 L 121 316.5 L 113.5 327 L 99 313.5 Q 99.8 311.3 97.5 312 L 89.5 303 L 85 299.5 Q 84.5 294.5 88.5 294 Q 99.2 285.7 115.5 283 Z "/>
    <path fill="#ffffff" d="M 127 283 L 139 285 L 139 287.5 L 127.5 305 L 127 283 Z "/>
    <path fill="#ffffff" d="M 392 283 L 409.5 286 Q 420.3 290.3 428 297.5 L 415.5 312 L 413 313.5 L 400.5 327 L 392 305.5 L 392 283 Z "/>
    <path fill="#ffffff" d="M 56.5 286 L 54 289.5 L 51.5 293 L 53 290.5 L 56.5 286 Z "/>
    <path fill="#ffffff" d="M 357.5 292 Q 359.8 291.3 359 293.5 L 365 312.5 L 350 298.5 L 351.5 296 L 357.5 292 Z "/>
    <path fill="#ffffff" d="M 314.5 296 L 314 297.5 L 312.5 300 L 313 298.5 L 314.5 296 Z "/>
    <path fill="#ffffff" d="M 46.5 300 L 47 301.5 L 43.5 308 L 43 306.5 L 46.5 300 Z "/>
    <path fill="#ffffff" d="M 79.5 303 L 109 331.5 L 110 334.5 L 108 339 L 65.5 339 L 65 338.5 L 65 330.5 Q 68.9 313.4 79.5 303 Z "/>
    <path fill="#ffffff" d="M 166 303 L 170 304.5 Q 176.1 310.8 178 320 L 164.5 323 L 146.5 325 L 166 304.5 L 166 303 Z "/>
    <path fill="#ffffff" d="M 344 303 L 345.5 303 L 370 327.5 L 373 339 L 330.5 339 Q 329.4 338.9 330 333.5 L 334 319.5 L 344 303 Z "/>
    <path fill="#ffffff" d="M 432.5 303 L 436 305.5 L 446 323.5 L 448 331.5 L 448 339 L 403.5 339 L 403 337.5 L 402 333.5 L 432.5 303 Z "/>
    <path fill="#ffffff" d="M 471.5 312 L 474 318.5 L 473 318.5 L 471.5 312 Z "/>
    <path fill="#ffffff" d="M 271.5 323 L 268 327.5 L 267.5 330 L 267 327.5 L 271.5 323 Z "/>
    <path fill="#ffffff" d="M 36.5 333 L 37 350.5 L 36 350.5 L 36.5 333 Z "/>
    <path fill="#ffffff" d="M 476.5 334 L 477 350.5 L 476 350.5 L 476.5 334 Z "/>
    <path fill="#ffffff" d="M 301.5 336 L 302 346.5 L 301 346.5 L 301.5 336 Z "/>
    <path fill="#ffffff" d="M 65 345 L 106.5 346 L 108 347.5 L 109 352.5 L 79.5 381 Q 66 368.7 65 345 Z "/>
    <path fill="#ffffff" d="M 330 345 L 376 346 L 377 350.5 L 346.5 381 L 344.5 381 Q 331.3 368.5 330 345 Z "/>
    <path fill="#ffffff" d="M 421.5 345 L 447.5 345 L 448 345.5 L 448 353.5 L 442 369.5 L 433.5 381 L 422 371.5 L 410.5 359 Q 408.3 359.8 409 357.5 L 405 355 L 402 348.5 L 403 346 L 420.5 346 L 421.5 345 Z "/>
    <path fill="#ffffff" d="M 264.5 348 L 259.5 354 L 257.5 355 L 258.5 353 L 264.5 348 Z "/>
    <path fill="#ffffff" d="M 380.5 355 L 386 356 L 386 400.5 Q 385.9 401.6 380.5 401 Q 361.1 397.9 350 386.5 L 357 378 L 361 375.5 L 362.5 373 L 365 371.5 L 366.5 369 L 369 367.5 L 371.5 364 Q 373.8 364.8 373 362.5 L 380.5 355 Z "/>
    <path fill="#ffffff" d="M 396.5 355 L 428 385.5 L 425.5 389 L 409.5 398 L 398.5 401 L 392 401 L 392 357.5 L 393.5 356 L 396.5 355 Z "/>
    <path fill="#ffffff" d="M 113.5 357 L 121 360.5 L 121 400.5 Q 120.8 401.8 114.5 401 L 102.5 398 Q 92.2 393.8 85 386.5 L 113.5 357 Z "/>
    <path fill="#ffffff" d="M 231.5 359 L 238 359.5 L 231.5 360 L 231.5 359 Z "/>
    <path fill="#ffffff" d="M 127 360 Q 135.3 358.7 139 361 L 140.5 364 L 143 365.5 L 162 385.5 L 162 388 L 144.5 398 L 133.5 401 L 127 401 L 127 360 Z "/>
    <path fill="#ffffff" d="M 210.5 360 L 219 360.5 L 210.5 361 L 209.5 362 L 210.5 360 Z "/>
    <path fill="#ffffff" d="M 148 361 L 178.5 361 L 179 364.5 L 169 381 L 166.5 381 L 148 362.5 L 148 361 Z "/>
    <path fill="#ffffff" d="M 208.5 363 L 209 365.5 L 207.5 368 L 207 366.5 L 208.5 363 Z "/>
    <path fill="#ffffff" d="M 304.5 363 L 306 368.5 L 305 368.5 L 304.5 363 Z "/>
    <path fill="#ffffff" d="M 39.5 364 L 41 368.5 L 40 368.5 L 39.5 364 Z "/>
    <path fill="#ffffff" d="M 204.5 375 L 205 376.5 L 202.5 381 L 202 379.5 L 204.5 375 Z "/>
    <path fill="#ffffff" d="M 308.5 375 L 314 385.5 L 312 384.5 L 308 376.5 L 308.5 375 Z "/>
    <path fill="#ffffff" d="M 201.5 382 L 201 383.5 L 197.5 389 L 198 387.5 L 201.5 382 Z "/>
    <path fill="#ffffff" d="M 167.5 417 L 166.5 419 L 164.5 420 L 165.5 418 L 167.5 417 Z "/>
    <path fill="#ffffff" d="M 422.5 422 L 424 422.5 L 418.5 425 L 418.5 424 L 422.5 422 Z "/>
    <path fill="#ffffff" d="M 91.5 423 L 95 424.5 L 93.5 425 L 91.5 423 Z "/>
    <path fill="#ffffff" d="M 154.5 423 L 156 423.5 L 152.5 425 L 152.5 424 L 154.5 423 Z "/>
    <path fill="#ffffff" d="M 406.5 427 L 409 427.5 L 401.5 429 L 401.5 428 L 406.5 427 Z "/>
    <path fill="#ffffff" d="M 135.5 428 L 140 428.5 L 135.5 429 L 135.5 428 Z "/>
    <path fill="#ffffff" d="M 373.5 428 L 378 428.5 L 373.5 429 L 373.5 428 Z "/>
    <path fill="#ffffff" d="M 114.5 429 L 133 429.5 L 114.5 430 L 114.5 429 Z "/>
    <path fill="#ffffff" d="M 380.5 429 L 399 429.5 L 380.5 430 L 380.5 429 Z "/>
    <path fill="#4da3ff" d="M 287.5 93 L 304.5 93 L 305 94.5 Q 307.3 95.7 306 100.5 L 297.5 104 L 272.5 105 L 270 104 L 269 97.5 L 273.5 95 L 286.5 94 L 287.5 93 Z "/>
    <path fill="#4da3ff" d="M 318.5 93 L 336.5 94 L 345.5 98 L 352 103 L 357 114.5 L 357 130.5 L 352.5 138 Q 350.3 137.3 351 139.5 L 347 142 Q 348.1 144.7 345.5 144 L 343 148 Q 340.3 146.9 341 149.5 Q 337.8 152.8 339 160.5 L 348 186.5 L 350 196.5 L 361 226.5 L 362 234.5 L 366 243.5 L 367 250.5 L 369 253.5 L 380 293.5 L 382 296.5 L 383 303.5 L 396 341.5 L 393.5 348 L 387.5 349 L 384 346.5 L 377 327.5 L 375 316.5 L 373 313.5 Q 372 301.5 367 293.5 L 367 289.5 Q 362.5 282.5 362 271.5 L 359 266.5 L 354 245.5 L 347.5 231 L 342.5 230 L 336 235.5 L 304 275 Q 301.3 273.9 302 276.5 L 277 304.5 L 277 306 L 274 307.5 L 265.5 318 L 262.5 318 L 256 313 L 256 310.5 L 263.5 302 Q 265.8 302.8 265 300.5 L 290 272.5 L 294 266 L 297 264.5 L 332 222.5 Q 334.8 219.8 334 213.5 Q 331.5 208.5 322.5 210 L 308.5 213 L 306.5 212 L 300.5 214 L 276.5 216 L 255.5 220 L 245.5 220 L 244.5 221 L 217.5 224 L 212.5 225 L 208 229.5 L 207 234.5 L 217 262.5 L 221 269.5 L 222 275.5 L 228 287.5 L 231 298.5 L 233 300.5 L 235 311 L 227.5 311 L 226.5 312 L 221 301.5 L 216 284.5 L 213 280.5 L 208 264.5 L 204 257.5 L 201 245.5 L 195.5 238 Q 187.6 237.1 186 242.5 L 145 312 Q 142.3 310.9 143 313.5 L 137 323.5 L 137 330.5 Q 139.5 334.5 147.5 333 L 148.5 332 L 163.5 331 L 175.5 328 L 190.5 327 L 201.5 324 L 215.5 323 L 233.5 319 L 248.5 319 L 256 323.5 Q 261.8 328.2 260 340.5 L 254.5 347 L 244.5 351 Q 238.3 349.2 236.5 352 L 209.5 352 L 208.5 353 L 130.5 353 L 129.5 352 L 121.5 352 L 116 348.5 L 115 342.5 L 121 330.5 L 124 327.5 L 125 323.5 L 136 307.5 L 139 300 Q 142 301.3 141 297.5 L 151 283.5 L 152 279.5 L 186 224.5 L 188 218.5 L 188 212.5 L 183 199.5 L 192.5 197 L 199 212 Q 203.9 215.7 215.5 214 L 229.5 211 L 238.5 211 L 244.5 209 L 260.5 208 L 274.5 205 L 281.5 205 L 282.5 204 L 289.5 204 L 311.5 200 L 318.5 200 L 324.5 198 L 329.5 198 L 336 192.5 L 335 182.5 L 328 162.5 L 327 150.5 L 330.5 145 Q 332.8 145.8 332 143.5 L 345 132.5 Q 348.9 128.4 348 119.5 Q 346.5 109.5 339.5 105 Q 330.9 98.9 315 101 L 315 94 L 317.5 94 L 318.5 93 Z "/>
    <path fill="#4da3ff" d="M 374.5 183 L 378 184.5 L 376 190.5 L 377 191.5 L 378 206.5 L 382 215.5 L 376.5 216 L 368.5 214 L 364 210.5 Q 363.8 202.2 360 197.5 L 361 195.5 Q 358.5 194 362 192.5 L 363.5 190 L 368 187.5 Q 367.3 185.3 369.5 186 L 374.5 183 Z "/>
    <path fill="#4da3ff" d="M 112.5 263 L 131.5 263 L 146.5 266 L 149 268.5 L 147 269 Q 146.9 274.6 142.5 277 L 137.5 277 L 131.5 275 L 120.5 275 L 119.5 276 L 109.5 276 L 98.5 279 L 77 292 L 62 314.5 L 57 332.5 L 57 352.5 L 62 369.5 L 67 378.5 L 82.5 395 L 101.5 406 L 113.5 409 L 115.5 408 L 116.5 409 L 132.5 409 L 152.5 403 L 171 391 L 183 373.5 L 188 362 L 199.5 362 L 200 364.5 L 190 386.5 L 171.5 406 L 160 411 Q 161.1 413.7 158.5 413 L 144.5 419 L 129.5 422 L 122.5 422 L 121.5 421 L 111.5 421 Q 108.6 418.4 102.5 419 Q 97.6 414.9 89.5 414 L 80.5 409 L 69 400 L 65.5 395 L 63 393.5 L 50 372.5 L 46 359.5 L 44 340.5 L 45 339.5 L 46 324.5 L 50 311.5 L 59 295.5 L 66.5 287 L 69.5 285 L 74 282 L 76.5 278 L 91.5 269 L 112.5 263 Z "/>
    <path fill="#4da3ff" d="M 384.5 263 L 398.5 263 L 415.5 267 L 432.5 275 L 443 283 L 444.5 286 L 447 287.5 Q 446.3 289.8 448.5 289 L 454 295.5 L 463 311.5 L 467 324.5 L 469 343.5 L 468 346.5 L 467 360.5 L 464 369.5 L 457 383.5 L 445 399 L 439 402 L 436.5 406 L 423.5 414 L 410.5 419 L 400.5 421 L 384.5 422 L 383.5 421 L 372.5 420 L 354.5 414 L 340.5 405 L 327 391.5 L 317 375.5 L 317 372.5 L 314 368.5 L 311 358.5 L 310 353.5 L 310 330.5 Q 312.3 329.3 311 324.5 L 313 321.5 L 313 319.5 L 319 303.5 L 329 289 Q 331.7 290.1 331 287.5 L 340.5 279 L 348 276 Q 346.9 273.3 349.5 274 L 352 273 L 354 279.5 L 354 284.5 L 344 292 L 342.5 295 L 339 297.5 Q 339.8 299.8 337.5 299 Q 327.6 310.6 323 327.5 Q 324.3 332.3 322 333.5 L 322 350.5 L 328 370.5 Q 333.6 382.4 342.5 391 L 354.5 400 L 364.5 405 L 384.5 410 L 385.5 409 L 396.5 409 L 414.5 405 L 437 390 L 447 376.5 L 452 366.5 L 456 351.5 L 456 332.5 L 450 311.5 L 433.5 291 L 430.5 289 L 427.5 286 L 410.5 278 L 394.5 275 L 384 275 L 383 264.5 L 384.5 263 Z "/>
    <path fill="#4da3ff" d="M 173 282 Q 177.9 281.9 180 285.5 L 182.5 289 Q 184.8 288.3 184 290.5 L 187 296 L 190 297.5 Q 195.7 305.6 198 316 L 186 317 L 176 299 Q 173.3 300.1 174 297.5 L 168 291.5 L 169 290.5 L 173 282 Z "/>
    <path fill="#ffd43b" d="M 162.5 165 L 171.5 165 L 190.5 169 L 213.5 169 Q 220 170.5 223 175.5 Q 224.3 181.8 220.5 183 L 181.5 192 L 160.5 193 Q 152.8 191.2 149 185.5 L 148 176.5 L 155.5 167 L 162.5 165 Z "/>
    <path fill="#66d9e8" d="M 292.5 91 L 305.5 91 L 307 92.5 L 308 99.5 L 307 103 L 300.5 105 L 275.5 107 L 270.5 106 L 268 103.5 L 267 98.5 L 270.5 94 L 279.5 92 L 291.5 92 L 292.5 91 Z M 288 93 L 287 94 L 274 95 L 269 98 L 270 104 L 273 105 L 298 104 L 306 101 Q 307 96 305 95 L 305 93 L 288 93 Z "/>
    <path fill="#66d9e8" d="M 313 92 L 334.5 92 L 338.5 93 Q 347.7 95.8 353 102.5 L 359 116.5 L 359 129.5 L 355 137.5 L 342 150.5 Q 339.3 154.3 341 162.5 L 350 187.5 L 352 197.5 L 354 200.5 L 361 224.5 L 363 227.5 L 364 234.5 Q 372.6 256.4 378 281.5 L 380 284.5 L 383 297.5 L 395 331.5 L 397 338.5 L 397 345.5 L 393.5 350 L 388.5 351 L 382 346.5 L 365 292.5 L 362 278.5 L 357 265.5 L 352 244.5 L 347 232 Q 339.4 230.9 337 236.5 Q 302.6 280.6 264.5 321 L 257.5 315 L 254 314 L 255 309.5 L 261.5 302 Q 263.8 302.8 263 300.5 L 317 238.5 L 330 222.5 L 333 214.5 L 330.5 212 L 320.5 212 L 319.5 213 L 297.5 215 L 282.5 218 L 267.5 219 L 260.5 221 L 252.5 221 L 251.5 222 L 243.5 222 L 228.5 225 L 221.5 225 L 212.5 227 L 210 229.5 L 209 235.5 L 238 310.5 L 236.5 312 L 225.5 313 L 221 305.5 L 201 250.5 L 195.5 240 Q 189.7 239.2 188 242.5 L 165 282.5 L 141 319.5 L 138 325.5 L 138 328.5 L 140.5 331 L 151.5 331 L 152.5 330 L 191.5 325 L 210.5 321 L 224.5 320 L 236.5 317 L 247.5 317 Q 254.5 318.6 258 323.5 Q 263.3 328.2 262 339.5 Q 260.4 346.4 254.5 349 L 241.5 353 L 227.5 353 L 226.5 354 L 134.5 355 L 133.5 354 L 119.5 353 L 114 348.5 Q 112.5 341 115 337.5 L 182 228.5 L 186 219.5 L 186 210.5 L 181 198.5 L 182.5 197 L 192.5 195 L 195 196 Q 195.9 206.3 202.5 212 L 210.5 213 L 216.5 211 L 232.5 210 L 246.5 207 L 253.5 207 L 254.5 206 L 290.5 202 L 291.5 201 L 313.5 199 L 329.5 196 L 334 192.5 L 334 185.5 L 327 164.5 L 325 150.5 L 326 147.5 L 333.5 140 L 344 131.5 Q 347.3 126.8 346 117.5 Q 344.1 109.8 338.5 106 L 330.5 103 L 314.5 102 L 313 100.5 L 313 92 Z M 319 93 L 318 94 L 315 94 L 315 101 Q 331 99 340 105 Q 347 109 348 120 Q 349 128 345 133 L 332 144 Q 333 146 331 145 L 327 151 L 328 163 L 335 183 L 336 193 L 330 198 L 325 198 L 319 200 L 312 200 L 290 204 L 283 204 L 282 205 L 275 205 L 261 208 L 245 209 L 239 211 L 230 211 L 216 214 Q 204 216 199 212 L 193 197 L 183 200 L 188 213 L 188 219 L 186 225 L 152 280 L 151 284 L 141 298 Q 142 301 139 300 L 136 308 L 125 324 L 124 328 L 121 331 L 115 343 L 116 349 L 122 352 L 130 352 L 131 353 L 209 353 L 210 352 L 237 352 Q 238 349 245 351 L 255 347 L 260 341 Q 262 328 256 324 L 249 319 L 234 319 L 216 323 L 202 324 L 191 327 L 176 328 L 164 331 L 149 332 L 148 333 Q 140 334 137 331 L 137 324 L 143 314 Q 142 311 145 312 L 186 243 Q 188 237 196 238 L 201 246 L 204 258 L 208 265 L 213 281 L 216 285 L 221 302 L 227 312 L 228 311 L 235 311 L 233 301 L 231 299 L 228 288 L 222 276 L 221 270 L 217 263 L 207 235 L 208 230 L 213 225 L 218 224 L 245 221 L 246 220 L 256 220 L 277 216 L 301 214 L 307 212 L 309 213 L 323 210 Q 332 208 334 214 Q 335 220 332 223 L 297 265 L 294 266 L 290 273 L 265 301 Q 266 303 264 302 L 256 311 L 256 313 L 263 318 L 266 318 L 274 308 L 277 306 L 277 305 L 302 277 Q 301 274 304 275 L 336 236 L 343 230 L 348 231 L 354 246 L 359 267 L 362 272 Q 362 283 367 290 L 367 294 Q 372 302 373 314 L 375 317 L 377 328 L 384 347 L 388 349 L 394 348 L 396 342 L 383 304 L 382 297 L 380 294 L 369 254 L 367 251 L 366 244 L 362 235 L 361 227 L 350 197 L 348 187 L 339 161 Q 338 153 341 150 Q 340 147 343 148 L 346 144 Q 348 145 347 142 L 351 140 Q 350 137 353 138 L 357 131 L 357 115 L 352 103 L 346 98 L 337 94 L 319 93 Z "/>
    <path fill="#66d9e8" d="M 378.5 180 L 380 182.5 Q 377 187.5 378 196.5 L 381 210.5 L 385 216.5 Q 383.5 219.5 377.5 218 L 369.5 216 L 363 211.5 L 358 194.5 L 362.5 189 Q 368.9 182.9 378.5 180 Z M 375 183 L 370 186 Q 367 185 368 188 L 364 190 L 362 193 Q 358 194 361 196 L 360 198 Q 364 202 364 211 L 369 214 L 377 216 L 382 216 L 378 207 L 377 192 L 376 191 L 378 185 L 375 183 Z "/>
    <path fill="#66d9e8" d="M 116.5 261 L 136.5 262 L 146.5 264 L 151 266.5 L 151 268.5 L 143.5 279 L 132.5 277 L 113.5 277 Q 86.4 282.9 72 301.5 Q 63.9 311.4 60 325.5 L 59 336.5 L 58 337.5 L 58 345.5 L 59 346.5 L 60 358.5 L 66 373.5 Q 72.8 385.6 83.5 394 Q 93.4 402.1 107.5 406 L 129.5 408 Q 157.9 403.3 173 385.5 L 179 377.5 L 187.5 361 L 202 360 L 200 370.5 L 193 384.5 L 177.5 403 Q 165 414 147.5 420 L 133.5 423 L 114.5 423 L 103.5 421 L 87.5 415 Q 72 406.5 61 393.5 Q 51.3 381.7 46 365.5 L 43 352.5 L 43 331.5 L 49 309.5 L 60 291.5 L 71.5 280 Q 80.2 271.7 92.5 267 L 103.5 263 L 115.5 262 L 116.5 261 Z M 113 263 L 92 269 L 77 278 L 74 282 L 70 285 L 67 287 L 59 296 L 50 312 L 46 325 L 45 340 L 44 341 L 46 360 L 50 373 L 63 394 L 66 395 L 69 400 L 81 409 L 90 414 Q 98 415 103 419 Q 109 418 112 421 L 122 421 L 123 422 L 130 422 L 145 419 L 159 413 Q 161 414 160 411 L 172 406 L 190 387 L 200 365 L 200 362 L 188 362 L 183 374 L 171 391 L 153 403 L 133 409 L 117 409 L 116 408 L 114 409 L 102 406 L 83 395 L 67 379 L 62 370 L 57 353 L 57 333 L 62 315 L 77 292 L 99 279 L 110 276 L 120 276 L 121 275 L 132 275 L 138 277 L 143 277 Q 147 275 147 269 L 149 269 L 147 266 L 132 263 L 113 263 Z "/>
    <path fill="#66d9e8" d="M 384.5 261 L 403.5 262 L 420.5 267 Q 439.6 275.4 452 290.5 Q 461.7 302.3 467 318.5 L 470 331.5 L 470 351.5 Q 463.9 385.9 441.5 404 L 432.5 411 L 409.5 421 L 398.5 423 L 379.5 423 Q 347.6 417.4 330 397.5 L 318 381.5 L 313 370.5 L 309 357.5 L 308 334.5 L 309 333.5 L 310 322.5 L 319 300.5 L 335.5 281 L 346.5 273 L 352.5 271 L 354 272.5 L 357 284.5 L 341 297.5 Q 331.1 308.1 326 323.5 L 324 331.5 L 324 352.5 Q 329 376.5 344.5 390 Q 360.3 406.7 391.5 408 L 408.5 405 L 420.5 400 Q 431.8 393.3 440 383.5 L 451 364.5 L 454 353.5 L 455 338.5 L 454 337.5 L 453 325.5 L 447 310.5 Q 439.9 298.6 429.5 290 L 411.5 280 L 397.5 277 L 384.5 277 L 383 275.5 L 380 266.5 L 380 262 L 384.5 261 Z M 385 263 L 383 265 L 384 275 L 395 275 L 411 278 L 428 286 L 431 289 L 434 291 L 450 312 L 456 333 L 456 352 L 452 367 L 447 377 L 437 390 L 415 405 L 397 409 L 386 409 L 385 410 L 365 405 L 355 400 L 343 391 Q 334 382 328 371 L 322 351 L 322 334 Q 324 332 323 328 Q 328 311 338 299 Q 340 300 339 298 L 343 295 L 344 292 L 354 285 L 354 280 L 352 273 L 350 274 Q 347 273 348 276 L 341 279 L 331 288 Q 332 290 329 289 L 319 304 L 313 320 L 313 322 L 311 325 Q 312 329 310 331 L 310 354 L 311 359 L 314 369 L 317 373 L 317 376 L 327 392 L 341 405 L 355 414 L 373 420 L 384 421 L 385 422 L 401 421 L 411 419 L 424 414 L 437 406 L 439 402 L 445 399 L 457 384 L 464 370 L 467 361 L 468 347 L 469 344 L 467 325 L 463 312 L 454 296 L 449 289 Q 446 290 447 288 L 445 286 L 443 283 L 433 275 L 416 267 L 399 263 L 385 263 Z "/>
    <path fill="#66d9e8" d="M 174.5 279 L 184 287.5 L 195 302.5 L 200 317 L 197.5 318 L 185 319 Q 178.5 302.3 166 290.5 L 174.5 279 Z M 173 282 L 169 291 L 168 292 L 174 298 Q 173 300 176 299 L 186 317 L 198 316 Q 196 306 190 298 L 187 296 L 184 291 Q 185 288 183 289 L 180 286 Q 178 282 173 282 Z "/>
  </g>
  <g id="line">
    <path fill="#1a1a1a" d="M 292.5 85 L 335.5 86 Q 347.8 88.5 355 95 Q 360.6 101.5 364 111.5 Q 366.4 118.6 365 129.5 Q 362.3 141.8 353.5 148 L 347 153.5 L 348 165.5 L 351 171.5 L 354 183.5 L 356.5 187 Q 363 179 373.5 175 L 381.5 173 L 388.5 173 L 397 179.5 Q 404.7 189.8 403 209.5 L 400 217.5 L 396.5 221 Q 389.6 225.6 376.5 224 L 367 222 L 376 252.5 L 378.5 256 L 380.5 255 L 397.5 255 L 413.5 258 L 434.5 267 Q 446.8 274.7 456 285.5 L 464 296.5 L 474 319.5 L 476 330.5 L 476 353.5 L 470 375.5 L 465 385.5 Q 457.3 398.3 446.5 408 Q 433.2 419.7 414.5 426 L 400.5 429 L 378.5 429 L 363.5 426 L 347.5 419 Q 331.4 409.6 320 395.5 Q 311.4 384.1 306 369.5 L 302 351.5 L 302 332.5 L 308 308.5 Q 315.1 291.6 327.5 280 Q 329.8 280.8 329 278.5 Q 337.4 268.9 350 265 L 350 259.5 L 348 256.5 L 345 243.5 L 342.5 240 Q 309.3 282.8 272 321.5 L 267 327.5 L 267 329.5 L 268 330.5 L 268 339.5 Q 266.3 348.8 259.5 353 L 256.5 355 L 241.5 359 L 210.5 360 L 209 361.5 Q 200.6 392.6 178.5 410 L 163.5 420 L 145.5 427 L 134.5 429 L 112.5 429 Q 77.8 422.7 59 400.5 Q 45.2 385.8 39 363.5 L 37 353.5 L 37 329.5 L 39 319.5 L 47 299.5 Q 55.4 285.4 67.5 275 Q 80.5 263.5 99.5 258 L 114.5 255 L 132.5 255 L 156 260 L 179 221.5 L 180 212.5 L 175 199 Q 152.7 201.5 144 189.5 Q 140.7 184.8 142 175.5 Q 143.4 167.4 149.5 164 L 161.5 159 L 172.5 159 L 185.5 162 L 214.5 163 Q 223.8 164.8 228 171.5 L 230 179.5 L 225.5 187 L 219.5 190 L 201 193 Q 200.8 202.4 206.5 207 L 281.5 197 L 282.5 196 L 290.5 196 L 312.5 192 L 319.5 192 L 328 190 L 324 172.5 L 320 162.5 L 319 150.5 Q 320.8 141.3 327.5 137 L 339 127.5 L 340 117.5 L 334.5 111 L 330.5 109 Q 325 110.5 323.5 108 L 310.5 108 L 306.5 110 L 300.5 110 L 293.5 112 Q 282.8 110.3 276.5 113 Q 274.7 110.3 268.5 112 L 263 107.5 L 261 97.5 Q 262.3 91.8 266.5 89 L 272.5 87 L 291.5 86 L 292.5 85 Z M 293 91 L 292 92 L 280 92 L 271 94 L 267 99 L 268 104 L 271 106 L 276 107 L 301 105 L 307 103 L 308 100 L 307 93 L 306 91 L 293 91 Z M 313 92 L 313 101 L 315 102 L 331 103 L 339 106 Q 344 110 346 118 Q 347 127 344 132 L 334 140 L 326 148 L 325 151 L 327 165 L 334 186 L 334 193 L 330 196 L 314 199 L 292 201 L 291 202 L 255 206 L 254 207 L 247 207 L 233 210 L 217 211 L 211 213 L 203 212 Q 196 206 195 196 L 193 195 L 183 197 L 181 199 L 186 211 L 186 220 L 182 229 L 115 338 Q 113 341 114 349 L 120 353 L 134 354 L 135 355 L 227 354 L 228 353 L 242 353 L 255 349 Q 260 346 262 340 Q 263 328 258 324 Q 254 319 248 317 L 237 317 L 225 320 L 211 321 L 192 325 L 153 330 L 152 331 L 141 331 L 138 329 L 138 326 L 141 320 L 165 283 L 188 243 Q 190 239 196 240 L 201 251 L 221 306 L 226 313 L 237 312 L 238 311 L 209 236 L 210 230 L 213 227 L 222 225 L 229 225 L 244 222 L 252 222 L 253 221 L 261 221 L 268 219 L 283 218 L 298 215 L 320 213 L 321 212 L 331 212 L 333 216 L 330 223 L 317 239 L 263 301 Q 264 303 262 302 L 255 310 L 254 314 L 258 315 L 265 321 Q 303 281 337 237 Q 339 231 347 232 L 352 245 L 357 266 L 362 279 L 365 293 L 382 347 L 389 351 L 394 350 L 397 346 L 397 339 L 395 332 L 383 298 L 380 285 L 378 282 Q 373 256 364 235 L 363 228 L 361 225 L 354 201 L 352 198 L 350 188 L 341 163 Q 339 154 342 151 L 355 138 L 359 130 L 359 117 L 353 103 Q 348 96 339 93 L 335 92 L 313 92 Z M 163 165 L 156 167 L 148 177 L 149 186 Q 153 191 161 193 L 182 192 L 221 183 Q 224 182 223 176 Q 220 171 214 169 L 191 169 L 172 165 L 163 165 Z M 379 180 Q 369 183 363 189 L 358 195 L 363 212 L 370 216 L 378 218 Q 383 219 385 217 L 381 211 L 378 197 Q 377 188 380 183 L 379 180 Z M 388 181 L 384 189 L 384 199 L 389 213 L 393 215 L 397 208 Q 398 192 392 184 Q 391 180 388 181 Z M 323 218 L 300 222 L 293 222 L 292 223 L 285 223 L 284 224 L 277 224 L 261 227 L 238 229 L 231 231 L 217 232 L 215 234 L 243 308 L 246 311 Q 286 267 324 220 Q 325 217 323 218 Z M 193 248 L 179 270 L 178 274 L 182 276 Q 199 291 207 316 L 217 315 L 218 314 L 193 248 Z M 117 261 L 116 262 L 104 263 L 93 267 Q 80 272 72 280 L 60 292 L 49 310 L 43 332 L 43 353 L 46 366 Q 51 382 61 394 Q 72 406 88 415 L 104 421 L 115 423 L 134 423 L 148 420 Q 165 414 178 403 L 193 385 L 200 371 L 202 360 L 188 361 L 179 378 L 173 386 Q 158 403 130 408 L 108 406 Q 93 402 84 394 Q 73 386 66 374 L 60 359 L 59 347 L 58 346 L 58 338 L 59 337 L 60 326 Q 64 311 72 302 Q 86 283 114 277 L 133 277 L 144 279 L 151 269 L 151 267 L 147 264 L 137 262 L 117 261 Z M 385 261 L 380 262 L 380 267 L 383 276 L 385 277 L 398 277 L 412 280 L 430 290 Q 440 299 447 311 L 453 326 L 454 338 L 455 339 L 454 354 L 451 365 L 440 384 Q 432 393 421 400 L 409 405 L 392 408 Q 360 407 345 390 Q 329 376 324 353 L 324 332 L 326 324 Q 331 308 341 298 L 357 285 L 354 273 L 353 271 L 347 273 L 336 281 L 319 301 L 310 323 L 309 334 L 308 335 L 309 358 L 313 371 L 318 382 L 330 398 Q 348 417 380 423 L 399 423 L 410 421 L 433 411 L 442 404 Q 464 386 470 352 L 470 332 L 467 319 Q 462 302 452 291 Q 440 275 421 267 L 404 262 L 385 261 Z M 175 279 L 166 291 Q 179 302 185 319 L 198 318 L 200 317 L 195 303 L 184 288 L 175 279 Z M 116 283 Q 99 286 89 294 Q 85 295 85 300 L 90 303 L 98 312 Q 100 311 99 314 L 114 327 L 121 317 L 121 285 Q 120 282 116 283 Z M 127 283 L 128 305 L 139 288 L 139 285 L 127 283 Z M 392 283 L 392 306 L 401 327 L 413 314 L 416 312 L 428 298 Q 420 290 410 286 L 392 283 Z M 358 292 L 352 296 L 350 299 L 365 313 L 359 294 Q 360 291 358 292 Z M 80 303 Q 69 313 65 331 L 65 339 L 66 339 L 108 339 L 110 335 L 109 332 L 80 303 Z M 166 303 L 166 305 L 147 325 L 165 323 L 178 320 Q 176 311 170 305 L 166 303 Z M 344 303 L 334 320 L 330 334 Q 329 339 331 339 L 373 339 L 370 328 L 346 303 L 344 303 Z M 433 303 L 402 334 L 403 338 L 404 339 L 448 339 L 448 332 L 446 324 L 436 306 L 433 303 Z M 65 345 Q 66 369 80 381 L 109 353 L 108 348 L 107 346 L 65 345 Z M 330 345 Q 331 369 345 381 L 347 381 L 377 351 L 376 346 L 330 345 Z M 422 345 L 421 346 L 403 346 L 402 349 L 405 355 L 409 358 Q 408 360 411 359 L 422 372 L 434 381 L 442 370 L 448 354 L 448 346 L 448 345 L 422 345 Z M 381 355 L 373 363 Q 374 365 372 364 L 369 368 L 367 369 L 365 372 L 363 373 L 361 376 L 357 378 L 350 387 Q 361 398 381 401 Q 386 402 386 401 L 386 356 L 381 355 Z M 397 355 L 394 356 L 392 358 L 392 401 L 399 401 L 410 398 L 426 389 L 428 386 L 397 355 Z M 114 357 L 85 387 Q 92 394 103 398 L 115 401 Q 121 402 121 401 L 121 361 L 114 357 Z M 127 360 L 127 401 L 134 401 L 145 398 L 162 388 L 162 386 L 143 366 L 141 364 L 139 361 Q 135 359 127 360 Z M 148 361 L 148 363 L 167 381 L 169 381 L 179 365 L 179 361 L 148 361 Z "/>
  </g>
</svg>
