<svg xmlns="http://www.w3.org/2000/svg" width="512" height="512" viewBox="0 0 512 512">
  <g id="color">
    <path fill="#ffffff" d="M 246.5 36 L 271 36.5 L 246.5 37 L 246.5 36 Z "/>
    <path fill="#ffffff" d="M 231.5 37 L 238 37.5 L 231.5 38 L 231.5 37 Z "/>
    <path fill="#ffffff" d="M 277.5 37 L 283 37.5 L 277.5 38 L 277.5 37 Z "/>
    <path fill="#ffffff" d="M 299.5 40 L 304 40.5 L 299.5 41 L 299.5 40 Z "/>
    <path fill="#ffffff" d="M 197.5 43 L 200 43.5 L 194.5 45 L 194.5 44 L 197.5 43 Z "/>
    <path fill="#ffffff" d="M 314.5 43 L 323 45.5 L 320.5 46 L 314.5 44 L 314.5 43 Z "/>
    <path fill="#ffffff" d="M 184.5 47 L 186 47.5 L 182.5 49 L 182.5 48 L 184.5 47 Z "/>
    <path fill="#ffffff" d="M 330.5 48 L 334 49.5 L 332.5 50 L 330.5 48 Z "/>
    <path fill="#ffffff" d="M 179.5 49 L 181 49.5 L 177.5 51 L 177.5 50 L 179.5 49 Z "/>
    <path fill="#ffffff" d="M 172.5 52 L 174 52.5 L 170.5 54 L 170.5 53 L 172.5 52 Z "/>
    <path fill="#ffffff" d="M 155.5 61 L 154.5 63 L 152.5 64 L 153.5 62 L 155.5 61 Z "/>
    <path fill="#ffffff" d="M 143.5 69 L 141.5 72 L 136.5 76 L 140.5 71 L 143.5 69 Z "/>
    <path fill="#ffffff" d="M 400.5 100 L 404 104.5 L 401 102.5 L 400.5 100 Z "/>
    <path fill="#ffffff" d="M 107.5 108 L 107 109.5 L 105.5 112 L 106 110.5 L 107.5 108 Z "/>
    <path fill="#ffffff" d="M 408.5 113 L 412 118.5 L 410 117.5 L 408.5 113 Z "/>
    <path fill="#ffffff" d="M 414.5 125 L 416 128.5 L 415 128.5 L 414.5 125 Z "/>
    <path fill="#ffffff" d="M 97.5 128 L 98 129.5 L 96.5 132 L 96 130.5 L 97.5 128 Z "/>
    <path fill="#ffffff" d="M 424.5 158 L 425 162.5 L 424 162.5 L 424.5 158 Z "/>
    <path fill="#ffffff" d="M 88.5 160 L 89 164.5 L 88 164.5 L 88.5 160 Z "/>
    <path fill="#ffffff" d="M 425.5 165 L 426 169.5 L 425 169.5 L 425.5 165 Z "/>
    <path fill="#ffffff" d="M 87.5 166 L 88 172.5 L 87 172.5 L 87.5 166 Z "/>
    <path fill="#ffffff" d="M 426.5 175 L 427 182.5 L 426 182.5 L 426.5 175 Z "/>
    <path fill="#ffffff" d="M 86.5 177 L 87 204.5 L 86 204.5 L 86.5 177 Z "/>
    <path fill="#ffffff" d="M 426.5 201 L 427 207 L 429 207.5 L 427.5 208 Q 424.4 206.4 426.5 201 Z "/>
    <path fill="#ffffff" d="M 84.5 207 L 87 207.5 L 82.5 209 L 82.5 208 L 84.5 207 Z "/>
    <path fill="#ffffff" d="M 67.5 220 L 67 221.5 L 64.5 227 L 64 225.5 L 67.5 220 Z "/>
    <path fill="#ffffff" d="M 62.5 232 L 63 237.5 L 62 237.5 L 62.5 232 Z "/>
    <path fill="#ffffff" d="M 451.5 238 L 452 245.5 L 451 245.5 L 451.5 238 Z "/>
    <path fill="#ffffff" d="M 62.5 245 L 63 251.5 L 62 251.5 L 62.5 245 Z "/>
    <path fill="#ffffff" d="M 450.5 249 L 451 254.5 L 449.5 259 L 449 255.5 L 450.5 249 Z "/>
    <path fill="#ffffff" d="M 65.5 263 L 67 267.5 L 66 267.5 L 65.5 263 Z "/>
    <path fill="#ffffff" d="M 446.5 268 L 447 269.5 L 445.5 272 L 445 270.5 L 446.5 268 Z "/>
    <path fill="#ffffff" d="M 69.5 274 L 73 280.5 L 71 279.5 L 69.5 274 Z "/>
    <path fill="#ffffff" d="M 433.5 291 L 428.5 297 L 425.5 299 L 427.5 296 L 433.5 291 Z "/>
    <path fill="#ffffff" d="M 89.5 299 L 94 302.5 L 92.5 302 L 89.5 299 Z "/>
    <path fill="#ffffff" d="M 414.5 304 L 416 304.5 L 412.5 306 L 412.5 305 L 414.5 304 Z "/>
    <path fill="#ffffff" d="M 105.5 309 L 107 314.5 L 106 314.5 L 105.5 309 Z "/>
    <path fill="#ffffff" d="M 109.5 322 L 112 328.5 L 111 328.5 L 109.5 322 Z "/>
    <path fill="#ffffff" d="M 401.5 328 L 402 329.5 L 400.5 332 L 400 330.5 L 401.5 328 Z "/>
    <path fill="#ffffff" d="M 117.5 341 L 120 345.5 L 118 344.5 L 117.5 341 Z "/>
    <path fill="#ffffff" d="M 393.5 346 L 393 347.5 L 391.5 350 L 392 348.5 L 393.5 346 Z "/>
    <path fill="#ffffff" d="M 122.5 351 L 125 354.5 L 123 353.5 L 122.5 351 Z "/>
    <path fill="#ffffff" d="M 389.5 353 L 389 354.5 L 387.5 357 L 388 355.5 L 389.5 353 Z "/>
    <path fill="#ffffff" d="M 162.5 398 Q 165.5 399.5 164 405.5 L 163 405.5 Q 163.5 399.5 162.5 398 Z "/>
    <path fill="#ffffff" d="M 350.5 405 L 351 409.5 L 350 409.5 L 350.5 405 Z "/>
    <path fill="#ffffff" d="M 162.5 407 L 163 412.5 L 162 412.5 L 162.5 407 Z "/>
    <path fill="#ffffff" d="M 351.5 415 L 352 435.5 L 351 435.5 L 351.5 415 Z "/>
    <path fill="#ffffff" d="M 161.5 418 L 162 432.5 L 161 432.5 L 161.5 418 Z "/>
    <path fill="#ffffff" d="M 162.5 437 L 163 444.5 L 162 444.5 L 162.5 437 Z "/>
    <path fill="#ffffff" d="M 350.5 441 L 351 446.5 L 350 446.5 L 350.5 441 Z "/>
    <path fill="#ffffff" d="M 163.5 446 L 164 451.5 L 163 451.5 L 163.5 446 Z "/>
    <path fill="#ffffff" d="M 236.5 447 L 238.5 450 L 236.5 448 L 232 451.5 L 236.5 447 Z "/>
    <path fill="#ffffff" d="M 276.5 447 L 279.5 451 Q 276.5 445 273.5 451 L 270.5 452 L 270.5 451 L 276.5 447 Z "/>
    <path fill="#ffffff" d="M 349.5 449 L 350 454.5 L 348.5 459 L 348 455.5 L 349.5 449 Z "/>
    <path fill="#ffffff" d="M 249.5 453 L 264 453.5 L 249.5 454 L 249.5 453 Z "/>
    <path fill="#ffffff" d="M 224.5 457 L 222.5 460 L 220.5 461 L 221.5 459 L 224.5 457 Z "/>
    <path fill="#ffffff" d="M 296.5 462 L 301 465.5 L 299.5 465 L 296.5 462 Z "/>
    <path fill="#ffffff" d="M 166.5 463 L 170 469.5 L 168 468.5 L 166.5 463 Z "/>
    <path fill="#ffffff" d="M 210.5 466 L 209.5 468 L 207.5 469 L 208.5 467 L 210.5 466 Z "/>
    <path fill="#ffffff" d="M 304.5 467 L 308 469.5 L 306.5 469 L 304.5 467 Z "/>
    <path fill="#ffffff" d="M 200.5 471 L 202 471.5 L 193.5 475 L 193.5 474 L 200.5 471 Z "/>
    <path fill="#ffffff" d="M 314.5 472 L 318 473.5 L 316.5 474 L 314.5 472 Z "/>
    <path fill="#ffffff" d="M 179.5 476 L 187 476.5 L 179.5 477 L 179.5 476 Z "/>
    <path fill="#ffffff" d="M 327.5 476 L 334 476.5 L 327.5 477 L 327.5 476 Z "/>
    <path fill="#4da3ff" d="M 240.5 51 Q 248 50 251 52 L 251 80.5 L 250 81.5 L 250 169.5 L 249 170.5 L 249 266.5 L 250 267.5 L 250 367.5 L 251 368.5 L 251 395.5 L 252 396.5 L 242.5 398 L 238.5 401 L 234.5 401 Q 224.8 391.2 211.5 385 L 192.5 377 L 180.5 376 Q 171.8 377.8 167.5 384 L 159 376.5 L 157.5 374 Q 155.3 374.8 156 372.5 L 152 370 L 133 342.5 L 121 315.5 L 118 301.5 L 113.5 295 Q 96.8 291.2 88 279.5 L 81 267.5 L 78 258.5 L 76 247.5 L 76 235.5 Q 77.5 227 83.5 223 L 96.5 220 L 101 215.5 L 100 184.5 L 101 183.5 L 101 173.5 L 102 172.5 L 103 158.5 L 112 129.5 L 124 108.5 L 141.5 89 Q 159.4 72.9 183.5 63 L 210.5 55 L 230.5 53 L 231.5 52 L 239.5 52 L 240.5 51 Z M 180 184 L 172 186 L 167 189 Q 158 195 155 207 L 155 218 L 160 230 Q 166 239 179 241 Q 195 242 202 234 Q 204 235 203 232 L 205 232 Q 210 226 212 217 L 212 209 L 207 197 Q 201 188 191 185 L 180 184 Z "/>
    <path fill="#4da3ff" d="M 179.5 197 L 185.5 197 L 194 201 Q 192.9 203.7 195.5 203 Q 200.2 206.8 199 216.5 Q 197.6 222.6 192.5 225 Q 188.7 229.7 178.5 228 L 171 222.5 Q 166.5 218 168 207.5 L 172.5 200 L 179.5 197 Z "/>
    <path fill="#4da3ff" d="M 180.5 391 L 188.5 391 L 198.5 394 L 224.5 408 L 230 412.5 L 230 419 L 216.5 419 L 211.5 420 L 207 423.5 L 208 429 L 214.5 431 L 230 432 Q 231.8 440 226.5 442 L 198.5 459 L 188.5 463 L 180 463 L 177 454.5 L 174 423.5 L 175 422.5 L 177 398.5 L 180.5 391 Z "/>
    <path fill="#4da3ff" d="M 248.5 411 L 255.5 411 L 256 411.5 L 256 440 L 247.5 440 L 245 437.5 L 243 429.5 L 243 420.5 L 246 412 L 248.5 411 Z "/>
    <path fill="#9775fa" d="M 256.5 410 L 257 440.5 L 256 440.5 L 256.5 410 Z "/>
    <path fill="#66d9e8" d="M 234.5 50 L 253 50 L 253 65.5 L 252 66.5 L 252 111.5 L 251 114.5 L 252 116.5 L 251 117.5 L 251 328.5 L 252 329.5 L 252 378.5 L 253 379.5 L 253 399 Q 241.5 397.6 236.5 404 Q 221.4 390.6 201.5 382 L 189.5 378 L 178.5 378 L 169 384.5 Q 169.8 386.8 167.5 386 L 153 372.5 L 133 345.5 L 122 322.5 L 117 303.5 L 114 297 L 95.5 289 L 87 280.5 L 77 260.5 L 74 240.5 Q 76.8 238.7 75 232.5 Q 77.3 225.8 82.5 222 L 86.5 220 L 95.5 219 L 100 214.5 L 100 205.5 L 99 204.5 L 99 177.5 L 100 176.5 L 101 160.5 L 109 132.5 Q 120.4 105.9 140.5 88 Q 158.4 71.9 182.5 62 L 212.5 53 L 233.5 51 L 234.5 50 Z M 241 51 L 240 52 L 232 52 L 231 53 L 211 55 L 184 63 Q 159 73 142 89 L 124 109 L 112 130 L 103 159 L 102 173 L 101 174 L 101 184 L 100 185 L 101 216 L 97 220 L 84 223 Q 77 227 76 236 L 76 248 L 78 259 L 81 268 L 88 280 Q 97 291 114 295 L 118 302 L 121 316 L 133 343 L 152 370 L 156 373 Q 155 375 158 374 L 159 377 L 168 384 Q 172 378 181 376 L 193 377 L 212 385 Q 225 391 235 401 L 239 401 L 243 398 L 252 397 L 251 396 L 251 369 L 250 368 L 250 268 L 249 267 L 249 171 L 250 170 L 250 82 L 251 81 L 251 52 Q 248 50 241 51 Z "/>
    <path fill="#66d9e8" d="M 179.5 184 L 190.5 185 Q 201.1 188.4 207 196.5 L 212 208.5 L 212 216.5 Q 209.7 226.2 205 232 L 203 232 Q 204.1 234.7 201.5 234 Q 194.6 242.1 178.5 241 Q 165.9 238.6 160 229.5 L 155 217.5 L 155 206.5 Q 157.9 194.9 166.5 189 L 171.5 186 L 179.5 184 Z M 178 186 L 167 191 Q 159 196 157 206 L 157 219 L 162 230 L 168 235 L 174 238 L 183 240 Q 195 239 203 232 L 210 219 L 210 208 L 206 198 Q 198 185 178 186 Z "/>
    <path fill="#66d9e8" d="M 177.5 196 L 187.5 196 L 198 203.5 L 200 206.5 L 201 215.5 L 194.5 226 Q 190.2 231.2 179.5 230 Q 172.8 227.8 169 222.5 Q 165.1 218.4 166 209.5 Q 167.2 201.7 172.5 198 L 177.5 196 Z M 180 197 L 173 200 L 168 208 Q 167 218 171 223 L 179 228 Q 189 230 193 225 Q 198 223 199 217 Q 200 207 196 203 Q 193 204 194 201 L 186 197 L 180 197 Z "/>
    <path fill="#66d9e8" d="M 180.5 389 L 187.5 389 L 197.5 392 Q 216.7 400.3 232 412.5 L 231 421 L 224.5 420 L 223.5 421 L 214.5 421 L 209 423 Q 208 426.8 210.5 428 Q 218.6 431.6 231 430 L 232 440 L 202.5 459 L 187.5 465 L 180.5 465 L 177 460.5 L 175 451.5 L 174 435.5 L 173 434.5 L 173 416.5 L 174 415.5 L 176 395.5 L 180.5 389 Z M 181 391 L 177 399 L 175 423 L 174 424 L 177 455 L 180 463 L 189 463 L 199 459 L 227 442 Q 232 440 230 432 L 215 431 L 208 429 L 207 424 L 212 420 L 217 419 L 230 419 L 230 413 L 225 408 L 199 394 L 189 391 L 181 391 Z "/>
    <path fill="#66d9e8" d="M 250.5 409 Q 257.4 407 256 411 Q 249.1 410 246 412 L 243 420.5 L 243 429.5 Q 245.3 430.8 244 435.5 L 247.5 440 L 255.5 440 L 256 442 Q 247 443.8 244 438.5 L 242 434.5 L 242 416.5 L 245 411 L 250.5 409 Z "/>
    <path fill="#f783ac" d="M 261 50 L 279.5 50 L 280.5 51 L 300.5 53 L 330.5 62 Q 361.5 74.5 382 97.5 Q 396.5 113 405 134.5 L 412 158.5 L 413 172.5 L 414 173.5 L 414 183.5 L 415 184.5 L 415 195.5 L 414 196.5 Q 415.3 206.8 413 213.5 L 417.5 219 L 428.5 221 L 435 226.5 L 439 237.5 L 439 248.5 L 433 269.5 L 424 284 L 416.5 290 L 401.5 296 L 398 299.5 Q 384.5 354 347.5 385 L 344 386 L 340.5 381 Q 335.3 376.2 323.5 378 L 299.5 388 L 276.5 404 Q 271.8 398.5 262 399 L 261 396.5 L 261 380.5 L 262 379.5 L 263 293.5 L 262 292.5 L 262 138.5 L 263 137.5 L 263 108.5 L 262 107.5 L 262 67.5 L 261 66.5 L 261 50 Z M 327 186 L 315 191 Q 305 197 303 210 L 303 218 L 308 229 L 317 236 L 330 240 Q 339 239 346 235 L 352 229 L 357 215 Q 358 201 351 195 L 340 187 L 327 186 Z "/>
    <path fill="#f783ac" d="M 326.5 196 Q 339.8 194.2 344 201.5 Q 348.2 206.3 347 216.5 Q 344.9 224.4 338.5 228 L 333.5 230 L 327.5 230 Q 319.2 227.8 315 221.5 Q 311.3 217.2 313 207.5 L 317.5 201 L 326.5 196 Z "/>
    <path fill="#f783ac" d="M 325.5 389 Q 334.3 387.3 336 392.5 L 340 412.5 L 340 440.5 L 339 441.5 L 337 458.5 L 332.5 465 L 326.5 465 L 305.5 456 L 285.5 443 L 281 438.5 L 282 430 L 298.5 430 L 305 426.5 Q 305.5 422.5 302.5 422 L 299.5 421 L 282 421 L 281 412.5 Q 299.8 397.3 325.5 389 Z "/>
    <path fill="#f783ac" d="M 259.5 409 L 266.5 410 L 269 412.5 L 271 416.5 L 271 425.5 L 272 426.5 L 270 437.5 L 266.5 441 L 258.5 442 L 257 440.5 L 257 410 L 259.5 409 Z "/>
  </g>
  <g id="line">
    <path fill="#1a1a1a" d="M 238.5 37 L 276.5 37 L 277.5 38 L 287.5 38 L 313.5 43 L 337.5 51 L 355.5 60 L 382 79.5 Q 381.3 81.8 383.5 81 Q 405.4 101.1 417 131.5 L 421 143.5 L 425 163.5 L 426 182.5 L 427 183.5 L 427 200.5 Q 424.8 201.8 426 206.5 L 436.5 211 L 444 217.5 Q 452.5 228 451 248.5 L 450 249.5 L 449 260.5 L 445 272.5 Q 439.3 286.8 428.5 296 L 420.5 302 L 408 307.5 Q 396.2 353.7 367.5 383 L 365 384.5 L 362.5 388 L 360 389.5 Q 360.8 391.8 358.5 391 L 349 401.5 L 351 410.5 L 351 440.5 L 347 463.5 Q 344.8 470.3 339.5 474 Q 334.8 477.3 325.5 476 Q 295.6 466.9 276.5 447 Q 273.1 451.6 266.5 453 L 246.5 453 Q 239.9 451.6 236.5 447 Q 223.8 460.3 206.5 469 L 192.5 475 L 178.5 476 L 170 470.5 L 166 462.5 L 164 453.5 L 163 437.5 L 162 436.5 L 162 413.5 L 163 412.5 L 164 399.5 L 142 378.5 L 122 350.5 L 113 332.5 Q 112.1 324.4 108 319.5 L 106 309.5 L 103.5 306 Q 86.2 300.8 77 287.5 Q 68.2 275.8 64 259.5 L 62 238.5 L 64 227.5 L 72.5 214 Q 77.9 208.7 87 208 L 87 173.5 L 88 172.5 L 88 165.5 L 91 148.5 L 95 134.5 L 105 112.5 L 112 101.5 L 135.5 76 Q 156.9 57.4 186.5 47 L 219.5 39 L 237.5 38 L 238.5 37 Z M 235 50 L 234 51 L 213 53 L 183 62 Q 158 72 141 88 Q 120 106 109 133 L 101 161 L 100 177 L 99 178 L 99 205 L 100 206 L 100 215 L 96 219 L 87 220 L 83 222 Q 77 226 75 233 Q 77 239 74 241 L 77 261 L 87 281 L 96 289 L 114 297 L 117 304 L 122 323 L 133 346 L 153 373 L 168 386 Q 170 387 169 385 L 179 378 L 190 378 L 202 382 Q 221 391 237 404 Q 242 398 253 399 L 253 380 L 252 379 L 252 330 L 251 329 L 251 118 L 252 117 L 251 115 L 252 112 L 252 67 L 253 66 L 253 50 L 235 50 Z M 261 50 L 261 67 L 262 68 L 262 108 L 263 109 L 263 138 L 262 139 L 262 293 L 263 294 L 261 398 L 263 399 L 271 400 L 277 404 L 300 388 L 324 378 Q 335 376 341 381 L 344 386 L 348 385 Q 385 354 398 300 L 402 296 L 417 290 L 424 284 L 433 270 L 439 249 L 439 238 L 435 227 L 429 221 L 418 219 L 413 214 Q 415 207 414 197 L 415 196 L 415 185 L 414 184 L 414 174 L 413 173 L 412 159 L 405 135 Q 397 113 382 98 Q 361 75 331 62 L 301 53 L 281 51 L 280 50 L 261 50 Z M 181 389 L 176 396 L 174 416 L 173 417 L 173 435 L 174 436 L 175 452 L 177 461 L 181 465 L 188 465 L 203 459 L 232 440 L 231 430 Q 219 432 211 428 Q 208 427 209 423 L 215 421 L 224 421 L 225 420 L 231 421 L 232 413 Q 217 400 198 392 L 188 389 L 181 389 Z M 326 389 Q 300 397 281 413 L 282 421 L 300 421 L 303 422 Q 306 423 305 427 L 299 430 L 282 430 L 281 439 L 286 443 L 306 456 L 327 465 L 333 465 L 337 459 L 339 442 L 340 441 L 340 413 L 336 393 Q 334 387 326 389 Z M 251 409 L 245 411 L 242 417 L 242 435 L 244 439 L 249 442 L 265 442 L 267 441 L 270 438 L 272 427 L 271 426 L 271 417 L 269 413 L 267 410 L 262 409 L 258 410 L 251 409 Z "/>
    <path fill="#1a1a1a" d="M 177.5 186 Q 198.2 185.3 206 197.5 L 210 207.5 L 210 218.5 L 202.5 232 Q 195.4 238.9 182.5 240 L 173.5 238 L 167.5 235 L 162 229.5 L 157 218.5 L 157 205.5 Q 159.4 195.9 166.5 191 L 177.5 186 Z M 178 196 L 173 198 Q 167 202 166 210 Q 165 218 169 223 Q 173 228 180 230 Q 190 231 195 226 L 201 216 L 200 207 L 198 204 L 188 196 L 178 196 Z "/>
    <path fill="#1a1a1a" d="M 326.5 186 L 339.5 187 L 351 194.5 Q 357.6 200.9 357 214.5 L 352 228.5 L 345.5 235 Q 339.4 239.4 329.5 240 L 316.5 236 L 308 228.5 L 303 217.5 L 303 209.5 Q 305.3 196.8 314.5 191 L 326.5 186 Z M 327 196 L 318 201 L 313 208 Q 311 217 315 222 Q 319 228 328 230 L 334 230 L 339 228 Q 345 224 347 217 Q 348 206 344 202 Q 340 194 327 196 Z "/>
  </g>
</svg>
