<svg xmlns="http://www.w3.org/2000/svg" width="512" height="512" viewBox="0 0 512 512">
  <g id="color">
    <path fill="#ffffff" d="M 182.5 36 L 189 36.5 L 182.5 37 L 182.5 36 Z "/>
    <path fill="#ffffff" d="M 322.5 36 L 330 36.5 L 322.5 37 L 322.5 36 Z "/>
    <path fill="#ffffff" d="M 312.5 43 L 312 44.5 L 310.5 48 L 310 46.5 L 312.5 43 Z "/>
    <path fill="#ffffff" d="M 341.5 47 L 344 52.5 L 343 52.5 L 341.5 47 Z "/>
    <path fill="#ffffff" d="M 303.5 81 L 304 87.5 L 303 87.5 L 303.5 81 Z "/>
    <path fill="#ffffff" d="M 208.5 82 L 209 87.5 L 208 87.5 L 208.5 82 Z "/>
    <path fill="#ffffff" d="M 184 87 L 186 87.5 L 186 95.5 L 187 96.5 L 187 104.5 L 189 114.5 L 189 130 L 178 128 L 182 95.5 L 184 87 Z "/>
    <path fill="#ffffff" d="M 326 87 Q 329 85.8 328 89.5 L 330 95.5 L 334 126.5 L 331.5 129 L 323 130 L 323 113.5 L 324 112.5 L 324 103.5 L 325 102.5 L 326 87 Z "/>
    <path fill="#ffffff" d="M 302.5 90 L 303 100.5 L 302 100.5 L 302.5 90 Z "/>
    <path fill="#ffffff" d="M 209.5 92 L 210 102.5 L 209 102.5 L 209.5 92 Z "/>
    <path fill="#ffffff" d="M 156.5 104 L 157 108.5 L 156 108.5 L 156.5 104 Z "/>
    <path fill="#ffffff" d="M 301.5 104 L 302 121.5 L 301 121.5 L 301.5 104 Z "/>
    <path fill="#ffffff" d="M 355.5 105 L 356 109.5 L 355 109.5 L 355.5 105 Z "/>
    <path fill="#ffffff" d="M 210.5 106 L 211 138.5 L 210 138.5 L 210.5 106 Z "/>
    <path fill="#ffffff" d="M 155.5 111 L 156 115.5 L 155 115.5 L 155.5 111 Z "/>
    <path fill="#ffffff" d="M 356.5 111 L 357 116.5 L 356 116.5 L 356.5 111 Z "/>
    <path fill="#ffffff" d="M 154.5 121 L 155 126.5 L 154 126.5 L 154.5 121 Z "/>
    <path fill="#ffffff" d="M 357.5 122 L 358 127.5 L 357 127.5 L 357.5 122 Z "/>
    <path fill="#ffffff" d="M 301.5 131 L 302 138.5 L 301 138.5 L 301.5 131 Z "/>
    <path fill="#ffffff" d="M 212.5 140 L 216 142.5 L 214.5 142 L 212.5 140 Z "/>
    <path fill="#ffffff" d="M 299.5 140 L 298.5 142 L 296.5 143 L 297.5 141 L 299.5 140 Z "/>
    <path fill="#ffffff" d="M 367.5 140 L 371 144.5 L 368 142.5 L 367.5 140 Z "/>
    <path fill="#ffffff" d="M 140.5 146 L 139 148.5 L 137.5 151 L 138 149.5 L 140.5 146 Z "/>
    <path fill="#ffffff" d="M 371.5 146 L 376 152.5 L 374 151.5 L 371.5 146 Z "/>
    <path fill="#ffffff" d="M 135.5 154 L 135 155.5 L 133.5 159 L 133 157.5 L 135.5 154 Z "/>
    <path fill="#ffffff" d="M 130.5 164 L 131 165.5 L 129.5 168 L 129 166.5 L 130.5 164 Z "/>
    <path fill="#ffffff" d="M 126.5 175 L 127 177.5 L 125.5 182 L 125 178.5 L 126.5 175 Z "/>
    <path fill="#ffffff" d="M 266.5 175 L 264.5 178 L 247 177.5 L 264.5 177 L 266.5 175 Z "/>
    <path fill="#ffffff" d="M 385.5 176 L 387 182.5 L 386 182.5 L 385.5 176 Z "/>
    <path fill="#ffffff" d="M 122.5 197 L 123 210.5 L 122 210.5 L 122.5 197 Z "/>
    <path fill="#ffffff" d="M 253.5 198 Q 259.8 196.8 261 200.5 L 262 203.5 L 258.5 209 Q 252.3 210.3 251 206.5 L 250 202.5 L 253.5 198 Z "/>
    <path fill="#ffffff" d="M 389.5 198 L 390 210.5 L 389 210.5 L 389.5 198 Z "/>
    <path fill="#ffffff" d="M 253.5 227 Q 259.3 226.2 261 229.5 L 260 232.5 L 261 235.5 Q 259.3 238.8 253.5 238 Q 250.3 236.3 250 231.5 L 253.5 227 Z "/>
    <path fill="#ffffff" d="M 382.5 239 L 383 240.5 L 381.5 243 L 381 241.5 L 382.5 239 Z "/>
    <path fill="#ffffff" d="M 133.5 248 L 136 252.5 L 134 251.5 L 133.5 248 Z "/>
    <path fill="#ffffff" d="M 240.5 259 L 245 259.5 L 240.5 260 L 240.5 259 Z "/>
    <path fill="#ffffff" d="M 267.5 259 Q 272.9 258.1 275 260.5 L 273.5 261 Q 272.3 258.8 267.5 260 L 267.5 259 Z "/>
    <path fill="#ffffff" d="M 145.5 260 L 149 261.5 L 147.5 262 L 145.5 260 Z "/>
    <path fill="#ffffff" d="M 237.5 260 L 239 260.5 L 234.5 262 L 234.5 261 L 237.5 260 Z "/>
    <path fill="#ffffff" d="M 251.5 260 L 262 260.5 L 251.5 261 L 251.5 260 Z "/>
    <path fill="#ffffff" d="M 159.5 264 L 166 265.5 L 162.5 266 L 159.5 265 L 159.5 264 Z "/>
    <path fill="#ffffff" d="M 333.5 267 L 338 267.5 L 333.5 268 L 333.5 267 Z "/>
    <path fill="#ffffff" d="M 187.5 268 L 197 268.5 L 187.5 269 L 187.5 268 Z "/>
    <path fill="#ffffff" d="M 313.5 268 L 327 268.5 L 313.5 269 L 313.5 268 Z "/>
    <path fill="#ffffff" d="M 402.5 299 L 404 299.5 L 400.5 302 L 402.5 299 Z "/>
    <path fill="#ffffff" d="M 425.5 306 L 427 310.5 L 426 310.5 L 425.5 306 Z "/>
    <path fill="#ffffff" d="M 387.5 314 L 386 316.5 L 384.5 319 L 385 317.5 L 387.5 314 Z "/>
    <path fill="#ffffff" d="M 426.5 318 L 427 319.5 L 421.5 327 L 424 323.5 L 426.5 318 Z "/>
    <path fill="#ffffff" d="M 86.5 321 L 95.5 331 L 98 332.5 L 96.5 332 L 87 323.5 L 86.5 321 Z "/>
    <path fill="#ffffff" d="M 360.5 322 L 363 322.5 L 357.5 324 L 357.5 323 L 360.5 322 Z "/>
    <path fill="#ffffff" d="M 377.5 322 L 380.5 324 L 382 323.5 L 379.5 325 L 377.5 322 Z "/>
    <path fill="#ffffff" d="M 190.5 330 L 195 330.5 L 190.5 331 L 190.5 330 Z "/>
    <path fill="#ffffff" d="M 317.5 330 L 322 330.5 L 317.5 331 L 317.5 330 Z "/>
    <path fill="#ffffff" d="M 197.5 331 L 203 331.5 L 197.5 332 L 197.5 331 Z "/>
    <path fill="#ffffff" d="M 309.5 331 L 316 331.5 L 309.5 332 L 309.5 331 Z "/>
    <path fill="#ffffff" d="M 205.5 332 L 210 332.5 L 205.5 333 L 205.5 332 Z "/>
    <path fill="#ffffff" d="M 302.5 332 L 308 332.5 L 302.5 333 L 302.5 332 Z "/>
    <path fill="#ffffff" d="M 215.5 333 L 221 333.5 L 215.5 334 L 215.5 333 Z "/>
    <path fill="#ffffff" d="M 291.5 333 L 297 333.5 L 291.5 334 L 291.5 333 Z "/>
    <path fill="#ffffff" d="M 229.5 334 L 241 334.5 L 229.5 335 L 229.5 334 Z "/>
    <path fill="#ffffff" d="M 270.5 334 L 283 334.5 L 270.5 335 L 270.5 334 Z "/>
    <path fill="#ffffff" d="M 410.5 334 L 409.5 336 L 406.5 337 L 406.5 336 L 410.5 334 Z "/>
    <path fill="#ffffff" d="M 110.5 338 Q 112.8 337.3 112 339.5 L 110 340.5 L 110.5 338 Z "/>
    <path fill="#ffffff" d="M 400 338 L 402 338.5 L 401.5 341 L 400 338 Z "/>
    <path fill="#ffffff" d="M 136.5 356 L 137 362.5 L 136 362.5 L 136.5 356 Z "/>
    <path fill="#ffffff" d="M 373.5 356 L 376 356 L 376 362.5 L 375 362.5 Q 376.3 356.4 373.5 357 L 373.5 356 Z "/>
    <path fill="#ffffff" d="M 140.5 357 L 146 359.5 L 144.5 360 L 140.5 358 L 140.5 357 Z "/>
    <path fill="#ffffff" d="M 370.5 357 L 372 357.5 L 367.5 360 L 368.5 358 L 370.5 357 Z "/>
    <path fill="#ffffff" d="M 364.5 360 L 366 360.5 L 359.5 364 L 360.5 362 L 364.5 360 Z "/>
    <path fill="#ffffff" d="M 149.5 361 L 153 363.5 L 151.5 363 L 149.5 361 Z "/>
    <path fill="#ffffff" d="M 87.5 364 L 83 369.5 L 82 375.5 L 85.5 380 L 87 380.5 L 85.5 381 Q 80.1 379.4 81 371.5 L 87.5 364 Z "/>
    <path fill="#ffffff" d="M 115.5 365 L 117 367.5 Q 115.5 370.5 114 367.5 L 115.5 365 Z "/>
    <path fill="#ffffff" d="M 156.5 365 L 160 367.5 L 158.5 367 L 156.5 365 Z "/>
    <path fill="#ffffff" d="M 355.5 365 L 354.5 367 L 352.5 368 L 353.5 366 L 355.5 365 Z "/>
    <path fill="#ffffff" d="M 396.5 369 L 397 374.5 L 396 374.5 L 396.5 369 Z "/>
    <path fill="#ffffff" d="M 115.5 370 L 116 374.5 L 115 374.5 L 115.5 370 Z "/>
    <path fill="#ffffff" d="M 430.5 372 L 431 375.5 L 426.5 381 L 425 380.5 L 429 377.5 L 430.5 372 Z "/>
    <path fill="#ffffff" d="M 136.5 377 L 137 382.5 L 136 382.5 L 136.5 377 Z "/>
    <path fill="#ffffff" d="M 375.5 379 L 376 383.5 L 375 383.5 L 375.5 379 Z "/>
    <path fill="#ffffff" d="M 410.5 379 L 414 380.5 L 411.5 381 L 410.5 379 Z "/>
    <path fill="#ffffff" d="M 88.5 381 L 97 381.5 L 88.5 382 L 88.5 381 Z "/>
    <path fill="#ffffff" d="M 114.5 381 L 115 385.5 L 114 385.5 L 114.5 381 Z "/>
    <path fill="#ffffff" d="M 415.5 381 L 424 381.5 L 415.5 382 L 415.5 381 Z "/>
    <path fill="#ffffff" d="M 134.5 390 L 135 392.5 L 133.5 395 L 133 393.5 L 134.5 390 Z "/>
    <path fill="#ffffff" d="M 377.5 390 L 379 394.5 L 378 394.5 L 377.5 390 Z "/>
    <path fill="#ffffff" d="M 113.5 403 Q 116 407 123 406.5 L 117.5 407 L 113.5 403 Z "/>
    <path fill="#ffffff" d="M 398.5 403 L 396.5 406 L 389.5 407 L 389.5 406 Q 396.6 407.1 398.5 403 Z "/>
    <path fill="#ffffff" d="M 309.5 407 L 308 409.5 L 306.5 412 L 307 410.5 L 309.5 407 Z "/>
    <path fill="#ffffff" d="M 303.5 416 L 303 417.5 L 301.5 420 L 302 418.5 L 303.5 416 Z "/>
    <path fill="#ffffff" d="M 217.5 434 L 220 440.5 L 219 440.5 L 217.5 434 Z "/>
    <path fill="#ffffff" d="M 294.5 434 L 295 435.5 L 293.5 438 L 293 436.5 L 294.5 434 Z "/>
    <path fill="#ffffff" d="M 226.5 462 L 230 468.5 L 228 467.5 L 226.5 462 Z "/>
    <path fill="#ffffff" d="M 285.5 462 L 286 463.5 L 284.5 466 L 284 464.5 L 285.5 462 Z "/>
    <path fill="#ffffff" d="M 232.5 471 L 236 473.5 L 234.5 474 L 232.5 471 Z "/>
    <path fill="#ffffff" d="M 279.5 471 L 277.5 474 L 276 473.5 L 279.5 471 Z "/>
    <path fill="#ffffff" d="M 246.5 476 L 253 476.5 L 246.5 477 L 246.5 476 Z "/>
    <path fill="#ffffff" d="M 260.5 476 L 267 476.5 L 260.5 477 L 260.5 476 Z "/>
    <path fill="#f783ac" d="M 185.5 44 L 188 45.5 L 181 65.5 Q 180.5 75.5 177 82.5 L 172 110.5 L 171 125.5 L 169.5 127 L 163 126 L 164 105.5 L 168 88.5 L 169 77.5 L 177 51.5 L 182.5 45 L 185.5 44 Z "/>
    <path fill="#f783ac" d="M 325.5 44 Q 331.9 44.7 334 49.5 L 339 62.5 L 344 83.5 L 344 89.5 L 348 106.5 L 349 126 L 342.5 127 L 341 125.5 L 339 103.5 L 336 92.5 L 336 87.5 L 328 55.5 L 324 45.5 L 325.5 44 Z "/>
    <path fill="#f783ac" d="M 193.5 53 L 196 55.5 L 198 63.5 L 200 83.5 L 201 84.5 L 202 108.5 L 203 109.5 L 203 135 Q 198.1 135.1 196 131.5 L 197 126.5 L 196 125.5 L 196 110.5 L 195 109.5 L 194 90.5 L 189 64.5 L 193.5 53 Z "/>
    <path fill="#f783ac" d="M 317 53 Q 319.7 51.9 319 54.5 L 323 67.5 L 318 90.5 L 316 123.5 L 315 124.5 L 315 132.5 L 313.5 134 L 310.5 135 L 309 133.5 L 309 109.5 L 310 108.5 L 310 93.5 L 311 92.5 L 313 68.5 L 317 53 Z "/>
    <path fill="#f783ac" d="M 160.5 134 L 169.5 134 L 170.5 135 L 181.5 136 L 198.5 142 Q 213.8 149.2 225 160.5 Q 224.3 162.8 226.5 162 L 237 176.5 L 238 181.5 L 234 191.5 L 232 202.5 Q 233.8 208.8 231 210.5 L 231 233.5 L 235 252.5 L 233.5 254 L 218.5 258 L 212.5 258 L 204.5 260 L 179.5 260 L 178.5 259 L 160.5 257 L 150.5 254 Q 144.8 252.8 142 248.5 L 134 229.5 L 131 216.5 Q 132.3 208.3 130 203.5 L 131 202.5 L 131 190.5 Q 133.6 187.6 133 181.5 L 139 164.5 L 146 151.5 L 160.5 134 Z "/>
    <path fill="#f783ac" d="M 343.5 134 Q 354 132 356 138.5 Q 367.6 151.9 375 169.5 L 381 191.5 Q 379.6 200.4 382 205.5 L 381 206.5 L 381 216.5 L 378 229.5 L 370 248.5 L 366.5 252 L 341.5 259 Q 335.3 257.3 333.5 260 L 306.5 260 L 305.5 259 L 288.5 257 L 277 252.5 L 281 233.5 L 281 210.5 L 280 209.5 L 278 191.5 L 274 178.5 Q 279.9 166.4 289.5 158 Q 300.5 147.5 315.5 141 L 330.5 136 L 342.5 135 L 343.5 134 Z "/>
    <path fill="#f783ac" d="M 245.5 185 L 261.5 186 L 268 185 L 273 205.5 L 274 225.5 L 273 226.5 L 273 237.5 L 271 247.5 L 267.5 252 L 258.5 252 L 257.5 253 L 256.5 252 L 244.5 252 L 242 249.5 L 239 237.5 L 238 218.5 L 239 217.5 L 239 205.5 L 241 194.5 L 243 187.5 L 245.5 185 Z M 254 195 L 252 196 L 247 202 Q 246 208 249 210 L 253 212 L 260 212 L 265 206 L 264 200 Q 262 194 254 195 Z M 253 224 L 249 226 L 247 231 L 248 237 Q 250 243 260 241 L 265 234 L 264 229 Q 262 222 253 224 Z "/>
    <path fill="#f783ac" d="M 98.5 305 L 101.5 305 L 107.5 308 L 118 318.5 L 126 331.5 L 126 334 L 107.5 329 L 95 320.5 Q 92.2 317.8 93 311.5 L 96.5 306 L 98.5 305 Z "/>
    <path fill="#f783ac" d="M 410.5 305 Q 415.6 304.4 417 307.5 Q 419.8 310.2 419 316.5 L 415 323 Q 403.2 331.2 386 334 Q 391.5 317.7 404.5 308 L 410.5 305 Z "/>
    <path fill="#f783ac" d="M 138.5 329 L 143.5 329 L 184.5 338 L 216.5 341 L 217.5 342 L 229.5 342 L 230.5 343 L 280.5 343 L 281.5 342 L 294.5 342 L 295.5 341 L 304.5 341 L 320.5 338 L 327.5 338 L 372.5 329 Q 379.8 333.6 378 346 Q 338.6 360.4 313 389.5 Q 300.7 402.7 292 419.5 L 283 441.5 L 278 460.5 L 272.5 467 L 263.5 469 L 249.5 469 L 239.5 467 L 236 465 L 232 455.5 L 231 448.5 L 226 433.5 L 216 412.5 Q 204.8 394.2 189.5 380 Q 166.5 357.8 134 346 Q 132.8 334.5 138.5 329 Z "/>
    <path fill="#f783ac" d="M 116.5 346 L 117 348.5 L 103.5 369 Q 100.3 374.2 92 373 L 93.5 370 L 98 366.5 L 113.5 348 L 116.5 346 Z "/>
    <path fill="#f783ac" d="M 395.5 346 L 405 354.5 L 407 358.5 L 421 372.5 L 421 374 Q 411.7 373.6 407 367.5 L 396 350.5 L 395.5 346 Z "/>
    <path fill="#f783ac" d="M 126.5 357 Q 129.5 356.1 128 360.5 L 129 361.5 L 129 379.5 L 127 390.5 L 121.5 398 L 120 395.5 L 123 382.5 L 124 365.5 L 125 360.5 L 127 358.5 L 126.5 357 Z "/>
    <path fill="#f783ac" d="M 385.5 357 L 388 364.5 L 389 382.5 L 392 395.5 L 391.5 398 L 387 394.5 L 385 390.5 L 383 379.5 L 383 362.5 L 385.5 357 Z "/>
  </g>
  <g id="line">
    <path fill="#1a1a1a" d="M 180.5 37 Q 194.5 35 199 42.5 L 203 51.5 L 207 70.5 L 208 87.5 L 209 88.5 L 209 102.5 L 210 103.5 L 210 138.5 L 213.5 142 Q 224 147 231 155.5 L 233 158.5 L 238 163.5 L 244 174.5 L 247.5 178 L 264.5 178 L 267 175.5 Q 273 161 284.5 152 L 287 150.5 Q 286.3 148.3 288.5 149 L 302 138.5 L 301 122.5 L 302 121.5 L 302 101.5 L 303 100.5 L 303 88.5 L 304 87.5 L 305 69.5 L 310 48.5 L 316.5 39 Q 321.2 35.7 330.5 37 Q 336.6 38.4 339 43.5 L 344 53.5 L 349 70.5 L 354 96.5 L 356 116.5 L 357 117.5 L 357 127.5 Q 367.9 139.1 376 153.5 L 384 171.5 L 389 193.5 L 389 214.5 L 384 236.5 L 377 251.5 L 371.5 258 L 359.5 263 L 340.5 267 Q 334.3 265.2 332.5 268 L 306.5 268 L 281.5 263 L 272.5 259 L 267.5 259 L 266.5 260 L 245.5 260 L 240.5 259 L 230.5 263 L 212.5 267 Q 206.2 265.2 204.5 268 L 179.5 268 L 149.5 262 L 140.5 258 L 136 253.5 L 128 236.5 L 124 221.5 Q 125.5 216 123 214.5 L 123 193.5 L 127 174.5 L 131 163.5 Q 139.5 143.5 154 129.5 L 159 89.5 L 165 62.5 L 172 44.5 L 178.5 38 L 180.5 37 Z M 186 44 L 183 45 L 177 52 L 169 78 L 168 89 L 164 106 L 163 126 L 170 127 L 171 126 L 172 111 L 177 83 Q 180 75 181 66 L 188 46 L 186 44 Z M 326 44 L 324 46 L 328 56 L 336 88 L 336 93 L 339 104 L 341 126 L 343 127 L 349 126 L 348 107 L 344 90 L 344 84 L 339 63 L 334 50 Q 332 45 326 44 Z M 318 52 L 314 63 L 312 83 L 311 84 L 310 109 L 309 110 L 309 135 L 314 134 L 315 133 L 315 125 L 316 124 L 318 91 L 323 68 L 320 56 L 318 52 Z M 193 53 L 189 65 L 194 91 L 195 110 L 196 111 L 196 126 L 197 127 L 196 132 Q 198 135 203 135 L 202 94 L 201 93 L 201 85 L 200 84 L 198 64 L 195 55 Q 196 52 193 53 Z M 184 87 L 182 96 L 178 128 L 189 130 L 189 115 L 187 105 L 187 97 L 186 96 L 186 88 L 184 87 Z M 326 87 L 325 103 L 324 104 L 324 113 L 323 114 L 323 130 L 332 129 L 334 127 L 330 96 L 328 90 Q 329 86 326 87 Z M 161 134 L 146 152 L 139 165 L 133 182 Q 134 188 131 191 L 131 203 L 130 204 Q 132 208 131 217 L 134 230 L 142 249 Q 145 253 151 254 L 161 257 L 179 259 L 180 260 L 205 260 L 213 258 L 219 258 L 234 254 L 235 253 L 231 234 L 231 211 Q 234 209 232 203 L 234 192 L 238 182 L 237 177 L 227 162 Q 224 163 225 161 Q 214 149 199 142 L 182 136 L 171 135 L 170 134 L 161 134 Z M 344 134 L 343 135 L 331 136 L 316 141 Q 300 147 290 158 Q 280 166 274 179 L 278 192 L 280 210 L 281 211 L 281 234 L 277 253 L 289 257 L 306 259 L 307 260 L 334 260 Q 335 257 342 259 L 367 252 L 370 249 L 378 230 L 381 217 L 381 207 L 382 206 Q 380 200 381 192 L 375 170 Q 368 152 356 139 Q 354 132 344 134 Z M 246 185 L 243 188 L 241 195 L 239 206 L 239 218 L 238 219 L 239 238 L 242 250 L 245 252 L 257 252 L 258 253 L 259 252 L 268 252 L 271 248 L 273 238 L 273 227 L 274 226 L 273 206 L 268 185 L 262 186 L 246 185 Z "/>
    <path fill="#1a1a1a" d="M 253.5 195 Q 262.1 193.9 264 199.5 L 265 205.5 L 259.5 212 L 252.5 212 L 249 210 Q 246.4 207.7 247 201.5 L 251.5 196 L 253.5 195 Z M 254 198 L 250 203 L 251 207 Q 252 210 259 209 L 262 204 L 261 201 Q 260 197 254 198 Z "/>
    <path fill="#1a1a1a" d="M 252.5 224 Q 262.3 222.3 264 228.5 L 265 233.5 L 259.5 241 Q 249.8 242.8 248 236.5 L 247 230.5 L 249 226 L 252.5 224 Z M 254 227 L 250 232 Q 250 236 254 238 L 260 237 Q 262 235 261 230 Q 259 226 254 227 Z "/>
    <path fill="#1a1a1a" d="M 98.5 297 L 105.5 298 L 109.5 300 L 124 313.5 L 131.5 325 Q 134.6 319.6 144.5 321 L 167.5 327 L 190.5 331 L 196.5 331 L 197.5 332 L 214.5 333 L 215.5 334 L 228.5 334 L 229.5 335 L 253.5 335 L 255.5 336 L 256.5 335 L 282.5 335 L 283.5 334 L 296.5 334 L 297.5 333 L 315.5 332 L 359.5 324 L 367.5 321 L 374.5 321 L 380.5 325 L 394.5 306 Q 400.8 298.8 412.5 297 L 417.5 298 L 421 300.5 L 423 303.5 Q 428 307.5 427 317.5 L 419.5 329 L 405.5 337 L 400 338 L 401.5 341 L 410 348.5 L 422.5 364 L 429 369.5 L 430 375.5 L 426.5 380 Q 422.7 382.7 414.5 381 Q 403.4 377.6 398 368.5 L 396.5 366 Q 394.3 365.3 395 367.5 L 396 368.5 L 397 385.5 L 400 400.5 L 396.5 405 L 388.5 406 L 381 399.5 L 376 386.5 L 375 363.5 L 376 362.5 L 376 356 L 370.5 357 L 353.5 366 Q 335.8 376.8 322 391.5 L 302 417.5 L 293 436.5 L 284 466.5 L 280.5 471 L 273.5 475 L 253.5 477 L 252.5 476 L 238.5 475 L 230 469.5 L 226 461.5 L 219 436.5 L 211 419.5 Q 200.9 401.6 186.5 388 L 158.5 366 L 141.5 357 L 136 356 L 136 362.5 L 137 363.5 L 137 376.5 L 136 377.5 L 136 385.5 L 133 395.5 L 125.5 405 L 117.5 406 L 113 402.5 L 112 396.5 L 115 385.5 L 115 375.5 L 117 366.5 L 115 365.5 L 114 368.5 L 105.5 377 Q 100.2 382.7 87.5 381 L 83 377.5 L 82 371.5 L 89.5 363 L 95 358.5 L 109.5 341 L 112 339.5 Q 112.8 336.9 109.5 338 Q 95.8 333.7 88 323.5 Q 83.8 319.7 85 310.5 Q 86.6 303.6 91.5 300 L 98.5 297 Z M 99 305 L 97 306 L 93 312 Q 92 318 95 321 L 108 329 L 126 334 L 126 332 L 118 319 L 108 308 L 102 305 L 99 305 Z M 411 305 L 405 308 Q 392 318 386 334 Q 403 331 415 323 L 419 317 Q 420 310 417 308 Q 416 304 411 305 Z M 139 329 Q 133 334 134 346 Q 166 358 190 380 Q 205 394 216 413 L 226 434 L 231 449 L 232 456 L 236 465 L 240 467 L 250 469 L 264 469 L 273 467 L 278 461 L 283 442 L 292 420 Q 301 403 313 390 Q 339 360 378 346 Q 380 334 373 329 L 328 338 L 321 338 L 305 341 L 296 341 L 295 342 L 282 342 L 281 343 L 231 343 L 230 342 L 218 342 L 217 341 L 185 338 L 144 329 L 139 329 Z M 119 345 L 114 348 L 98 367 L 94 370 L 91 374 L 98 373 L 104 369 Q 111 361 115 351 L 119 347 L 119 345 Z M 394 345 L 393 347 L 407 368 Q 412 374 421 374 L 421 373 L 407 359 L 405 355 L 394 345 Z M 128 356 L 124 366 L 123 383 L 120 396 Q 119 399 122 398 L 127 391 L 129 380 Q 131 365 128 356 Z M 385 356 L 383 363 L 383 380 L 385 391 L 387 395 L 392 398 L 389 383 L 388 365 L 387 360 L 385 356 Z "/>
  </g>
</svg>
