<svg xmlns="http://www.w3.org/2000/svg" width="512" height="512" viewBox="0 0 512 512">
  <g id="color">
    <path fill="#ffffff" d="M 250.5 51 L 264 51.5 L 250.5 52 L 250.5 51 Z "/>
    <path fill="#ffffff" d="M 267.5 52 L 273 53.5 L 270.5 54 L 267.5 53 L 267.5 52 Z "/>
    <path fill="#ffffff" d="M 240.5 53 L 243 53.5 L 238.5 55 L 238.5 54 L 240.5 53 Z "/>
    <path fill="#ffffff" d="M 236.5 55 L 235.5 57 L 228.5 63 L 234.5 56 L 236.5 55 Z "/>
    <path fill="#ffffff" d="M 276.5 55 L 280 57.5 L 277.5 56 L 276.5 55 Z "/>
    <path fill="#ffffff" d="M 284.5 63 L 287 67.5 L 286 67.5 L 284.5 63 Z "/>
    <path fill="#ffffff" d="M 227.5 64 L 228 65.5 L 226.5 68 L 226 66.5 L 227.5 64 Z "/>
    <path fill="#ffffff" d="M 225.5 69 L 226 71.5 L 223.5 77 L 217 76.5 L 224 76 L 225.5 69 Z "/>
    <path fill="#ffffff" d="M 290.5 76 L 296 76.5 L 290.5 77 L 290.5 76 Z "/>
    <path fill="#ffffff" d="M 297.5 77 L 302 77.5 L 297.5 78 L 297.5 77 Z "/>
    <path fill="#ffffff" d="M 321.5 82 L 327 83.5 L 324.5 84 L 321.5 83 L 321.5 82 Z "/>
    <path fill="#ffffff" d="M 182.5 84 L 185 84.5 L 177.5 87 L 177.5 86 L 182.5 84 Z "/>
    <path fill="#ffffff" d="M 328.5 84 L 333 85.5 L 331.5 86 L 328.5 85 L 328.5 84 Z "/>
    <path fill="#ffffff" d="M 173.5 87 L 176 87.5 L 171.5 89 L 171.5 88 L 173.5 87 Z "/>
    <path fill="#ffffff" d="M 338.5 87 L 342 88.5 L 340.5 89 L 338.5 87 Z "/>
    <path fill="#ffffff" d="M 165.5 90 L 167 90.5 L 161.5 93 L 161.5 92 L 165.5 90 Z "/>
    <path fill="#ffffff" d="M 346.5 90 L 350 91.5 L 348.5 92 L 346.5 90 Z "/>
    <path fill="#ffffff" d="M 154.5 95 L 156 95.5 L 145.5 101 L 146.5 99 L 154.5 95 Z "/>
    <path fill="#ffffff" d="M 357.5 95 L 368 100.5 L 366.5 100 L 357.5 96 L 357.5 95 Z "/>
    <path fill="#ffffff" d="M 369.5 101 L 374 103.5 L 372.5 103 Q 368.8 102.8 369.5 101 Z "/>
    <path fill="#ffffff" d="M 375.5 104 L 379 106.5 L 377.5 106 L 375.5 104 Z "/>
    <path fill="#ffffff" d="M 128.5 110 L 127.5 112 L 125.5 113 L 126.5 111 L 128.5 110 Z "/>
    <path fill="#ffffff" d="M 384.5 110 L 389 113.5 L 386.5 112 L 384.5 110 Z "/>
    <path fill="#ffffff" d="M 91.5 143 L 89 146.5 L 80.5 158 L 82 155.5 L 91.5 143 Z "/>
    <path fill="#ffffff" d="M 430.5 155 L 436 162.5 L 434 161.5 L 430.5 155 Z "/>
    <path fill="#ffffff" d="M 77.5 162 L 77 163.5 L 75.5 166 L 76 164.5 L 77.5 162 Z "/>
    <path fill="#ffffff" d="M 436.5 164 L 439 167.5 L 437 166.5 L 436.5 164 Z "/>
    <path fill="#ffffff" d="M 439.5 169 L 444 176.5 L 442 175.5 L 439.5 169 Z "/>
    <path fill="#ffffff" d="M 65.5 184 L 66 185.5 L 63.5 190 L 63 188.5 L 65.5 184 Z "/>
    <path fill="#ffffff" d="M 447.5 184 L 450 189.5 L 449 189.5 L 447.5 184 Z "/>
    <path fill="#ffffff" d="M 62.5 191 L 63 192.5 L 60.5 197 L 60 195.5 L 62.5 191 Z "/>
    <path fill="#ffffff" d="M 450.5 191 L 452 194.5 L 451 194.5 L 450.5 191 Z "/>
    <path fill="#ffffff" d="M 59.5 198 L 60 199.5 L 57.5 205 L 57 203.5 L 59.5 198 Z "/>
    <path fill="#ffffff" d="M 56.5 207 L 57 208.5 L 54.5 215 L 54 212.5 L 56.5 207 Z "/>
    <path fill="#ffffff" d="M 456.5 207 L 458 211.5 L 457 211.5 L 456.5 207 Z "/>
    <path fill="#ffffff" d="M 53.5 216 L 54 218.5 L 52.5 222 L 52 219.5 L 53.5 216 Z "/>
    <path fill="#ffffff" d="M 459.5 216 L 461 221.5 L 460 221.5 L 459.5 216 Z "/>
    <path fill="#ffffff" d="M 50.5 227 L 51 229.5 L 49.5 233 L 49 230.5 L 50.5 227 Z "/>
    <path fill="#ffffff" d="M 462.5 227 L 464 233.5 L 463 233.5 L 462.5 227 Z "/>
    <path fill="#ffffff" d="M 47.5 240 L 48 244.5 L 46.5 250 L 46 245.5 L 47.5 240 Z "/>
    <path fill="#ffffff" d="M 465.5 241 L 467 248.5 L 466 248.5 L 465.5 241 Z "/>
    <path fill="#ffffff" d="M 45.5 252 L 46 256.5 L 45 256.5 L 45.5 252 Z "/>
    <path fill="#ffffff" d="M 468.5 258 L 470 271.5 L 469 271.5 L 468.5 258 Z "/>
    <path fill="#ffffff" d="M 44.5 259 L 45 265.5 L 43.5 273 L 43 266.5 L 44.5 259 Z "/>
    <path fill="#ffffff" d="M 42.5 278 L 43 289.5 L 42 289.5 L 42.5 278 Z "/>
    <path fill="#ffffff" d="M 470.5 278 L 471 288.5 L 470 288.5 L 470.5 278 Z "/>
    <path fill="#ffffff" d="M 42.5 313 L 43 321.5 L 42 321.5 L 42.5 313 Z "/>
    <path fill="#ffffff" d="M 470.5 313 L 471 320.5 L 470 320.5 L 470.5 313 Z "/>
    <path fill="#ffffff" d="M 43.5 326 L 45 334.5 L 44 334.5 L 43.5 326 Z "/>
    <path fill="#ffffff" d="M 469.5 326 L 470 330.5 L 468.5 335 L 468 331.5 L 469.5 326 Z "/>
    <path fill="#ffffff" d="M 468.5 348 L 470 354.5 L 469 354.5 L 468.5 348 Z "/>
    <path fill="#ffffff" d="M 44.5 349 L 45 351.5 L 43.5 355 L 43 352.5 L 44.5 349 Z "/>
    <path fill="#ffffff" d="M 471.5 361 L 473 367.5 L 472 367.5 L 471.5 361 Z "/>
    <path fill="#ffffff" d="M 474.5 376 L 475 381.5 L 474 381.5 L 474.5 376 Z "/>
    <path fill="#ffffff" d="M 38.5 377 L 39 382.5 L 37.5 389 L 37 383.5 L 38.5 377 Z "/>
    <path fill="#ffffff" d="M 475.5 383 L 476 388.5 L 475 388.5 L 475.5 383 Z "/>
    <path fill="#ffffff" d="M 476.5 394 L 477 410.5 L 476 410.5 L 476.5 394 Z "/>
    <path fill="#ffffff" d="M 36.5 395 L 37 408.5 L 36 408.5 L 36.5 395 Z "/>
    <path fill="#ffffff" d="M 37.5 414 L 38 418.5 L 37 418.5 L 37.5 414 Z "/>
    <path fill="#ffffff" d="M 249.5 415 L 263 415.5 L 249.5 416 L 249.5 415 Z "/>
    <path fill="#ffffff" d="M 233.5 416 L 242 416.5 L 227.5 418 L 227.5 417 Q 232.2 418.3 233.5 416 Z "/>
    <path fill="#ffffff" d="M 271.5 416 L 279.5 416 L 286 417.5 L 280.5 418 L 279.5 417 L 271.5 417 L 271.5 416 Z "/>
    <path fill="#ffffff" d="M 475.5 416 L 476 420.5 L 474.5 425 L 474 421.5 L 475.5 416 Z "/>
    <path fill="#ffffff" d="M 213.5 419 L 217 419.5 L 208.5 421 L 208.5 420 L 213.5 419 Z "/>
    <path fill="#ffffff" d="M 199.5 422 L 202 422.5 L 196.5 424 L 196.5 423 L 199.5 422 Z "/>
    <path fill="#ffffff" d="M 310.5 422 L 317 423.5 L 314.5 424 L 310.5 423 L 310.5 422 Z "/>
    <path fill="#ffffff" d="M 188.5 425 L 191 425.5 L 185.5 427 L 185.5 426 L 188.5 425 Z "/>
    <path fill="#ffffff" d="M 322.5 425 L 327 426.5 L 325.5 427 L 322.5 426 L 322.5 425 Z "/>
    <path fill="#ffffff" d="M 178.5 428 L 181 428.5 L 175.5 430 L 175.5 429 L 178.5 428 Z "/>
    <path fill="#ffffff" d="M 332.5 428 L 337 429.5 L 335.5 430 L 332.5 429 L 332.5 428 Z "/>
    <path fill="#ffffff" d="M 40.5 430 L 42 433.5 L 41 433.5 L 40.5 430 Z "/>
    <path fill="#ffffff" d="M 172.5 430 L 174 430.5 L 167.5 433 L 167.5 432 L 172.5 430 Z "/>
    <path fill="#ffffff" d="M 339.5 430 L 346 432.5 L 344.5 433 L 339.5 431 L 339.5 430 Z "/>
    <path fill="#ffffff" d="M 472.5 430 L 473 431.5 L 471.5 434 L 471 432.5 L 472.5 430 Z "/>
    <path fill="#ffffff" d="M 350.5 434 L 354 435.5 L 352.5 436 L 350.5 434 Z "/>
    <path fill="#ffffff" d="M 470.5 435 L 471 436.5 L 467.5 442 L 468 440.5 L 470.5 435 Z "/>
    <path fill="#ffffff" d="M 355.5 436 L 362 438.5 L 360.5 439 L 355.5 437 L 355.5 436 Z "/>
    <path fill="#ffffff" d="M 153.5 437 L 155 437.5 L 151.5 439 L 151.5 438 L 153.5 437 Z "/>
    <path fill="#ffffff" d="M 43.5 438 L 46 441.5 L 44 440.5 L 43.5 438 Z "/>
    <path fill="#ffffff" d="M 363.5 439 L 367 440.5 L 365.5 441 L 363.5 439 Z "/>
    <path fill="#ffffff" d="M 370.5 442 L 374 443.5 L 372.5 444 L 370.5 442 Z "/>
    <path fill="#ffffff" d="M 466.5 443 L 466 444.5 L 456.5 455 L 465 445.5 L 466.5 443 Z "/>
    <path fill="#ffffff" d="M 134.5 445 L 136 445.5 L 132.5 447 L 132.5 446 L 134.5 445 Z "/>
    <path fill="#ffffff" d="M 385.5 448 L 389 449.5 L 387.5 450 L 385.5 448 Z "/>
    <path fill="#ffffff" d="M 53.5 451 L 59 455.5 L 57.5 455 L 53.5 451 Z "/>
    <path fill="#ffffff" d="M 392.5 451 L 396 452.5 L 394.5 453 L 392.5 451 Z "/>
    <path fill="#ffffff" d="M 110.5 454 L 113 454.5 L 108.5 456 L 108.5 455 L 110.5 454 Z "/>
    <path fill="#ffffff" d="M 400.5 454 L 405 455.5 L 403.5 456 L 400.5 455 L 400.5 454 Z "/>
    <path fill="#ffffff" d="M 60.5 456 L 65 458.5 L 63.5 459 L 60.5 456 Z "/>
    <path fill="#ffffff" d="M 100.5 457 L 103 457.5 L 97.5 459 L 97.5 458 L 100.5 457 Z "/>
    <path fill="#ffffff" d="M 410.5 457 L 416 458.5 L 413.5 459 L 410.5 458 L 410.5 457 Z "/>
    <path fill="#ffffff" d="M 450.5 457 L 452 457.5 L 448.5 459 L 448.5 458 L 450.5 457 Z "/>
    <path fill="#ffffff" d="M 70.5 460 L 75 460.5 L 70.5 461 L 70.5 460 Z "/>
    <path fill="#ffffff" d="M 83.5 460 L 91 460.5 L 83.5 461 L 83.5 460 Z "/>
    <path fill="#ffffff" d="M 422.5 460 L 428 460.5 L 422.5 461 L 422.5 460 Z "/>
    <path fill="#ffffff" d="M 438.5 460 L 444 460.5 L 438.5 461 L 438.5 460 Z "/>
    <path fill="#ffffff" d="M 430.5 461 L 437 461.5 L 430.5 462 L 430.5 461 Z "/>
    <path fill="#4da3ff" d="M 250.5 65 L 268.5 66 L 273 69.5 L 274 73 L 239.5 73 L 239 71.5 L 241.5 68 L 244.5 66 Q 249.3 67.3 250.5 65 Z "/>
    <path fill="#4da3ff" d="M 236.5 88 L 277.5 88 L 278.5 89 L 287.5 89 L 288.5 90 L 305.5 92 L 328.5 98 L 355.5 109 L 373.5 119 L 392.5 133 L 411 151.5 L 424 168.5 L 429 177.5 Q 439.9 197.1 447 220.5 L 451 236.5 L 451 241.5 L 453 245.5 L 454 257.5 L 456 264.5 L 457 289.5 L 458 290.5 L 458 310.5 L 457 311.5 L 456 329.5 L 454.5 331 L 423.5 318 L 377.5 304 L 326.5 294 L 318.5 294 L 311.5 292 L 289.5 291 L 287.5 290 L 285.5 290 L 244.5 289 L 243.5 290 L 226.5 290 L 225.5 291 L 223.5 290 L 222.5 291 L 210.5 291 L 193.5 294 L 185.5 294 L 152.5 300 L 143.5 303 L 138.5 303 L 131.5 306 L 100.5 314 L 58.5 331 L 57 329.5 Q 58.5 324 56 322.5 L 55 293.5 L 56 292.5 L 57 264.5 L 59 257.5 L 60 245.5 L 62 241.5 L 62 236.5 L 66 220.5 L 77 190.5 L 97 157.5 L 121.5 132 Q 142.1 115.1 168.5 104 L 194.5 95 L 198.5 95 L 207.5 92 L 212.5 92 L 225.5 89 L 235.5 89 L 236.5 88 Z M 322 149 L 312 154 L 307 164 Q 305 173 309 178 Q 313 185 323 187 L 329 187 L 339 182 L 344 173 Q 346 160 340 156 L 330 149 L 322 149 Z M 254 162 L 246 166 L 243 169 L 236 185 L 229 187 L 219 188 L 211 192 L 206 199 Q 205 207 208 211 L 219 220 L 223 226 L 221 232 L 221 247 L 224 253 L 232 257 L 240 257 L 256 248 L 260 248 L 270 254 L 277 256 Q 284 257 288 254 Q 292 251 294 245 L 294 235 Q 291 230 292 222 L 297 218 Q 304 213 307 204 Q 308 197 305 194 L 298 187 L 278 185 L 275 183 L 269 170 L 263 163 L 254 162 Z "/>
    <path fill="#ffd43b" d="M 248.5 302 L 288.5 303 L 299.5 305 L 310.5 305 L 311.5 306 L 318.5 306 L 363.5 314 L 415.5 329 L 445.5 341 L 456 347.5 L 464 384.5 L 465 405.5 L 464 406.5 L 464 418.5 L 461 428.5 Q 457.3 438.8 449.5 445 L 439.5 449 L 426.5 449 L 406.5 444 L 366.5 427 L 321.5 412 L 292.5 406 L 254.5 403 L 253.5 404 L 237.5 404 L 236.5 405 L 220.5 406 L 191.5 412 L 151.5 425 L 103.5 445 L 85.5 449 L 72.5 449 Q 63.3 446.2 58 439.5 L 52 428.5 L 49 417.5 L 49 385.5 L 57 347.5 L 60.5 344 L 97.5 329 L 136.5 317 L 141.5 317 L 163.5 311 L 168.5 311 L 181.5 308 L 188.5 308 L 202.5 305 L 214.5 305 L 225.5 303 L 247.5 303 L 248.5 302 Z "/>
    <path fill="#ff6b6b" d="M 254.5 171 L 258 171.5 Q 255.3 173.3 259.5 175 L 262 175.5 L 261 177.5 L 262 181 L 266 182.5 L 264 183.5 L 265.5 186 L 267 185.5 L 266.5 187 L 269 188.5 Q 266.5 190 270 191.5 Q 269.3 193.8 271.5 193 L 273.5 193 L 276 193.5 L 274 194.5 L 279.5 195 Q 281 192.5 286.5 194 L 286.5 196 Q 291.3 197.3 292.5 195 L 296 199.5 L 296 202.5 L 295 204.5 L 296 205.5 L 284.5 217 L 282 218.5 L 283 222.5 L 282 222.5 L 281.5 221 L 281 225.5 L 283 225.5 L 282 231.5 L 285 237 L 283 237.5 Q 285.3 238.8 284 243.5 Q 282.3 247.8 280.5 245 L 277.5 246 L 275.5 246 L 272 245 L 271.5 243 L 269.5 243 L 268 242.5 L 268.5 241 L 266.5 242 L 260 239 L 259.5 237 L 257.5 238 L 256.5 237 Q 254.8 240.1 253 238.5 L 252.5 240 L 250.5 239 L 250.5 241 L 246.5 243 L 245 242.5 L 243.5 245 L 241.5 245 Q 239.3 244.3 240 246.5 L 238 246.5 Q 238.8 249.1 235.5 248 L 233.5 248 L 230 244.5 L 231 235.5 L 230 233 L 232 232.5 L 231 228.5 L 233 222.5 L 231 222 L 230 217 L 227 215.5 L 226.5 214 Q 225.3 216.3 224 213.5 L 223 210 L 217 206.5 L 216 204.5 L 217 201.5 L 215 201.5 L 218 199.5 L 217.5 198 L 220.5 199 L 225 197.5 L 223 196.5 L 225.5 196 L 228.5 197 L 228.5 195 Q 240 197 243 190.5 L 244 187 L 246 186.5 L 245.5 185 L 247 185.5 L 246 183.5 L 247.5 180 Q 248.8 182.2 250 179.5 L 252 174 L 255 172.5 L 254.5 171 Z "/>
    <path fill="#51cf66" d="M 323.5 158 Q 331.6 157.4 334 162.5 L 335 171.5 L 331.5 176 L 325.5 178 L 319.5 176 L 317 173.5 L 316 164.5 L 320.5 159 L 323.5 158 Z "/>
    <path fill="#66d9e8" d="M 246.5 64 L 266.5 64 Q 272.3 65.3 275 69.5 L 276 75 L 237.5 75 L 237 72.5 L 240.5 67 L 246.5 64 Z M 251 65 Q 249 67 245 66 L 242 68 L 239 72 L 240 73 L 274 73 L 273 70 L 269 66 L 251 65 Z "/>
    <path fill="#66d9e8" d="M 242.5 86 L 284.5 87 L 316.5 93 L 332.5 99 L 335.5 99 L 358.5 109 L 380.5 122 Q 397.9 134.6 412 150.5 L 432 179.5 L 449 221.5 L 449 225.5 L 455 247.5 L 457 268.5 L 458 269.5 L 458 280.5 L 459 281.5 L 459 317.5 L 458 318.5 L 458 326.5 L 455.5 332 L 452.5 332 L 430.5 322 L 403.5 313 L 383.5 307 L 347.5 299 L 308.5 294 L 307.5 293 L 296.5 293 L 295.5 292 L 279.5 292 L 278.5 291 L 234.5 291 L 233.5 292 L 217.5 292 L 216.5 293 L 206.5 293 L 190.5 296 L 182.5 296 L 141.5 304 L 112.5 313 L 105.5 314 L 57 333 L 55 326.5 L 55 318.5 L 54 317.5 L 54 282.5 L 55 281.5 L 55 268.5 L 56 267.5 L 57 254.5 L 63 225.5 L 76 189.5 Q 85.7 169.2 99 152.5 L 120.5 131 Q 145.2 111.2 177.5 99 L 205.5 91 L 228.5 88 L 229.5 87 L 241.5 87 L 242.5 86 Z M 237 88 L 236 89 L 226 89 L 213 92 L 208 92 L 199 95 L 195 95 L 169 104 Q 142 115 122 132 L 97 158 L 77 191 L 66 221 L 62 237 L 62 242 L 60 246 L 59 258 L 57 265 L 56 293 L 55 294 L 56 323 Q 59 324 57 330 L 59 331 L 101 314 L 132 306 L 139 303 L 144 303 L 153 300 L 186 294 L 194 294 L 211 291 L 223 291 L 224 290 L 226 291 L 227 290 L 244 290 L 245 289 L 286 290 L 288 290 L 290 291 L 312 292 L 319 294 L 327 294 L 378 304 L 424 318 L 455 331 L 456 330 L 457 312 L 458 311 L 458 291 L 457 290 L 456 265 L 454 258 L 453 246 L 451 242 L 451 237 L 447 221 Q 440 197 429 178 L 424 169 L 411 152 L 393 133 L 374 119 L 356 109 L 329 98 L 306 92 L 289 90 L 288 89 L 279 89 L 278 88 L 237 88 Z "/>
    <path fill="#66d9e8" d="M 321.5 149 L 329.5 149 L 340 155.5 Q 345.8 160.2 344 172.5 L 339 182 L 328.5 187 L 322.5 187 Q 313.4 184.5 309 177.5 Q 305.3 173.2 307 163.5 L 312 154 L 321.5 149 Z M 325 150 L 317 153 Q 310 157 308 165 L 308 171 L 310 177 L 321 185 L 331 185 L 339 180 L 343 171 Q 344 161 339 157 Q 334 151 325 150 Z "/>
    <path fill="#66d9e8" d="M 253.5 162 L 262.5 163 L 269 169.5 L 275 182.5 L 277.5 185 L 297.5 187 L 305 193.5 Q 307.7 196.8 307 203.5 Q 304.3 213.3 296.5 218 L 292 221.5 Q 291.1 229.9 294 234.5 L 294 244.5 Q 292.5 251 287.5 254 Q 283.9 256.9 276.5 256 L 269.5 254 L 259.5 248 L 255.5 248 L 239.5 257 L 231.5 257 L 224 253 L 221 246.5 L 221 231.5 L 223 225.5 L 218.5 220 L 208 210.5 Q 205 206.5 206 198.5 L 210.5 192 L 218.5 188 L 228.5 187 L 236 185 L 243 168.5 L 245.5 166 L 253.5 162 Z M 252 164 L 248 166 L 243 172 L 238 185 L 233 188 L 226 188 L 217 190 L 208 198 Q 206 206 209 210 L 224 224 L 223 235 L 222 236 Q 221 245 224 250 Q 227 254 234 256 L 243 254 L 257 246 L 262 247 L 275 254 Q 283 256 287 253 Q 291 250 293 244 L 293 237 L 290 227 L 291 221 L 295 218 L 305 206 Q 307 198 304 195 L 296 188 L 277 186 L 274 184 L 268 171 L 261 164 L 252 164 Z "/>
    <path fill="#f783ac" d="M 252 172 L 255 172.5 L 252 174 L 248.5 181 L 248 179.5 L 252 172 Z "/>
    <path fill="#f783ac" d="M 257.5 172 L 261 174.5 L 259.5 175 L 257.5 172 Z "/>
    <path fill="#f783ac" d="M 261.5 176 L 264 181 Q 261 182.3 262 178.5 L 261.5 176 Z "/>
    <path fill="#f783ac" d="M 264.5 183 Q 267.1 182.2 266 185.5 L 266.5 187 L 264.5 183 Z "/>
    <path fill="#f783ac" d="M 267.5 188 L 272.5 194 L 270 193 L 267.5 188 Z "/>
    <path fill="#f783ac" d="M 274.5 194 L 280 194.5 L 274.5 195 L 274.5 194 Z "/>
    <path fill="#f783ac" d="M 286.5 195 L 292 195.5 L 286.5 196 L 286.5 195 Z "/>
    <path fill="#f783ac" d="M 293.5 196 L 298 199.5 Q 297.6 205.1 293.5 207 L 295 204.5 L 296 199.5 L 293.5 196 Z "/>
    <path fill="#f783ac" d="M 219.5 197 L 225 197.5 L 217.5 200 L 219.5 197 Z "/>
    <path fill="#f783ac" d="M 220.5 209 L 223 210 L 224 212.5 L 220.5 209 Z "/>
    <path fill="#f783ac" d="M 281.5 221 L 282 225.5 L 281 225.5 L 281.5 221 Z "/>
    <path fill="#f783ac" d="M 231.5 234 L 231 235.5 L 230.5 242 L 230 235.5 L 231.5 234 Z "/>
    <path fill="#f783ac" d="M 283.5 237 Q 286.5 236.5 285 243.5 Q 284 248 277.5 247 L 276.5 245 L 278.5 246 L 280.5 245 Q 282.3 247.8 284 243.5 L 283.5 237 Z "/>
  </g>
  <g id="line">
    <path fill="#1a1a1a" d="M 247.5 52 L 266.5 52 L 281 58 L 287 68.5 L 288 76 L 312.5 80 L 337.5 87 L 374.5 104 Q 401.3 119.7 421 142.5 Q 436.1 160.9 447 183.5 L 453 197.5 L 462 225.5 L 465 244.5 L 467 249.5 L 468 264.5 L 470 272.5 L 471 312.5 L 470 313.5 L 470 325.5 L 466 342.5 L 470 355.5 L 471 364.5 L 473 368.5 L 473 374.5 L 476 389.5 L 476 415.5 L 473 429.5 L 467 442.5 L 455.5 455 L 444.5 460 L 428.5 461 L 427.5 460 L 416.5 459 L 396.5 453 L 343.5 431 L 313.5 422 L 308.5 422 L 303.5 420 L 286.5 418 L 279.5 416 L 249.5 415 L 248.5 416 L 233.5 416 L 199.5 422 L 169.5 431 L 107.5 456 L 91.5 460 L 75.5 461 L 65.5 459 L 51 449.5 L 43 437.5 L 40 429.5 L 37 413.5 L 37 389.5 L 39 382.5 L 40 369.5 L 47 340.5 L 45 336.5 L 45 331.5 L 43 325.5 L 42 290.5 L 43 289.5 L 43 273.5 L 44 272.5 L 48 238.5 L 60 197.5 L 72 171.5 L 80 158.5 Q 92.5 139.5 109.5 125 L 133.5 107 L 160.5 93 L 195.5 81 Q 204.1 81.1 209.5 78 L 223.5 77 L 225 75.5 Q 225.6 62 234.5 57 L 247.5 52 Z M 247 64 L 241 67 L 237 73 L 238 75 L 276 75 L 275 70 Q 272 65 267 64 L 247 64 Z M 243 86 L 242 87 L 230 87 L 229 88 L 206 91 L 178 99 Q 145 111 121 131 L 99 153 Q 86 169 76 190 L 63 226 L 57 255 L 56 268 L 55 269 L 55 282 L 54 283 L 54 318 L 55 319 L 55 327 L 57 333 L 106 314 L 113 313 L 142 304 L 183 296 L 191 296 L 207 293 L 217 293 L 218 292 L 234 292 L 235 291 L 279 291 L 280 292 L 296 292 L 297 293 L 308 293 L 309 294 L 348 299 L 384 307 L 404 313 L 431 322 L 453 332 L 456 332 L 458 327 L 458 319 L 459 318 L 459 282 L 458 281 L 458 270 L 457 269 L 455 248 L 449 226 L 449 222 L 432 180 L 412 151 Q 398 135 381 122 L 359 109 L 336 99 L 333 99 L 317 93 L 285 87 L 243 86 Z M 249 302 L 248 303 L 226 303 L 215 305 L 203 305 L 189 308 L 182 308 L 169 311 L 164 311 L 142 317 L 137 317 L 98 329 L 61 344 L 57 348 L 49 386 L 49 418 L 52 429 L 58 440 Q 63 446 73 449 L 86 449 L 104 445 L 152 425 L 192 412 L 221 406 L 237 405 L 238 404 L 254 404 L 255 403 L 293 406 L 322 412 L 367 427 L 407 444 L 427 449 L 440 449 L 450 445 Q 457 439 461 429 L 464 419 L 464 407 L 465 406 L 464 385 L 456 348 L 446 341 L 416 329 L 364 314 L 319 306 L 312 306 L 311 305 L 300 305 L 289 303 L 249 302 Z "/>
    <path fill="#1a1a1a" d="M 324.5 150 Q 334.4 150.6 339 156.5 Q 344 160.5 343 170.5 L 339 180 L 330.5 185 L 320.5 185 L 310 176.5 L 308 170.5 L 308 164.5 Q 310.1 156.6 316.5 153 L 324.5 150 Z M 324 158 L 321 159 L 316 165 L 317 174 L 320 176 L 326 178 L 332 176 L 335 172 L 334 163 Q 332 157 324 158 Z "/>
    <path fill="#1a1a1a" d="M 251.5 164 L 260.5 164 L 268 170.5 L 274 183.5 L 276.5 186 L 295.5 188 L 304 194.5 Q 306.5 198 305 205.5 L 294.5 218 L 291 220.5 L 290 226.5 L 293 236.5 L 293 243.5 Q 291.5 250 286.5 253 Q 282.7 255.7 274.5 254 L 261.5 247 L 256.5 246 L 242.5 254 L 233.5 256 Q 227 254.5 224 249.5 Q 220.7 244.8 222 235.5 L 223 234.5 L 224 223.5 L 209 209.5 Q 206.3 205.7 208 197.5 L 216.5 190 L 225.5 188 L 232.5 188 L 238 184.5 L 243 171.5 L 247.5 166 L 251.5 164 Z M 255 171 L 252 172 L 243 191 L 238 195 L 229 195 L 217 198 L 215 202 L 217 207 L 227 215 L 232 223 L 232 228 L 230 234 L 230 245 L 234 248 L 238 248 L 256 238 L 260 238 L 278 247 Q 284 248 285 244 L 285 236 L 282 225 L 283 219 L 296 206 L 298 200 L 293 195 L 277 194 L 272 192 L 267 187 L 262 176 L 258 171 L 255 171 Z "/>
  </g>
</svg>
