<svg xmlns="http://www.w3.org/2000/svg" width="512" height="512" viewBox="0 0 512 512">
  <g id="color">
    <path fill="#ffffff" d="M 226.5 51 L 231 51.5 L 226.5 52 L 226.5 51 Z "/>
    <path fill="#ffffff" d="M 282.5 51 L 288 51.5 L 282.5 52 L 282.5 51 Z "/>
    <path fill="#ffffff" d="M 299.5 54 L 304 55.5 L 302.5 56 L 299.5 55 L 299.5 54 Z "/>
    <path fill="#ffffff" d="M 200.5 58 L 202 58.5 L 198.5 60 L 198.5 59 L 200.5 58 Z "/>
    <path fill="#ffffff" d="M 193.5 61 L 195 61.5 L 188.5 65 L 189.5 63 L 193.5 61 Z "/>
    <path fill="#ffffff" d="M 318.5 61 L 325 64.5 L 323.5 64 L 318.5 62 L 318.5 61 Z "/>
    <path fill="#ffffff" d="M 284.5 62 L 288 63.5 L 286.5 64 L 284.5 62 Z "/>
    <path fill="#ffffff" d="M 184.5 66 L 183.5 68 L 181.5 69 L 182.5 67 L 184.5 66 Z "/>
    <path fill="#ffffff" d="M 328.5 66 L 332 68.5 L 330.5 68 L 328.5 66 Z "/>
    <path fill="#ffffff" d="M 179.5 69 L 177.5 72 L 174.5 74 L 176.5 71 L 179.5 69 Z "/>
    <path fill="#ffffff" d="M 333.5 69 L 339 73.5 L 336.5 72 L 333.5 69 Z "/>
    <path fill="#ffffff" d="M 212.5 70 L 211.5 72 L 208.5 74 L 210.5 71 L 212.5 70 Z "/>
    <path fill="#ffffff" d="M 184.5 100 L 184 101.5 L 182.5 104 L 183 102.5 L 184.5 100 Z "/>
    <path fill="#ffffff" d="M 328.5 100 L 331 103.5 L 329 102.5 L 328.5 100 Z "/>
    <path fill="#ffffff" d="M 251.5 106 L 254 106.5 L 249.5 108 L 249.5 107 L 251.5 106 Z "/>
    <path fill="#ffffff" d="M 259.5 106 L 264 107.5 L 262.5 108 L 259.5 107 L 259.5 106 Z "/>
    <path fill="#ffffff" d="M 180.5 107 L 181 108.5 L 178.5 113 L 178 111.5 L 180.5 107 Z "/>
    <path fill="#ffffff" d="M 332.5 107 L 334 110.5 L 333 110.5 L 332.5 107 Z "/>
    <path fill="#ffffff" d="M 143.5 108 L 143 109.5 L 141.5 113 L 141 111.5 L 143.5 108 Z "/>
    <path fill="#ffffff" d="M 369.5 108 L 372 112.5 L 371 112.5 L 369.5 108 Z "/>
    <path fill="#ffffff" d="M 241.5 114 L 241 115.5 L 239.5 119 L 239 117.5 L 241.5 114 Z "/>
    <path fill="#ffffff" d="M 238.5 121 L 239 126.5 L 238 126.5 L 238.5 121 Z "/>
    <path fill="#ffffff" d="M 135.5 125 L 136 126.5 L 134.5 129 L 134 127.5 L 135.5 125 Z "/>
    <path fill="#ffffff" d="M 377.5 125 L 380 131.5 L 379 131.5 L 377.5 125 Z "/>
    <path fill="#ffffff" d="M 239.5 129 L 242 133.5 L 240 132.5 L 239.5 129 Z "/>
    <path fill="#ffffff" d="M 266.5 138 L 265.5 140 L 262.5 141 L 262.5 140 L 266.5 138 Z "/>
    <path fill="#ffffff" d="M 381.5 138 L 383 144.5 L 382 144.5 L 381.5 138 Z "/>
    <path fill="#ffffff" d="M 130.5 141 L 131 145.5 L 130 145.5 L 130.5 141 Z "/>
    <path fill="#ffffff" d="M 383.5 146 L 384 150.5 L 383 150.5 L 383.5 146 Z "/>
    <path fill="#ffffff" d="M 173.5 150 L 174 154.5 L 173 154.5 L 173.5 150 Z "/>
    <path fill="#ffffff" d="M 242.5 151 L 251 151.5 L 242.5 152 L 242.5 151 Z "/>
    <path fill="#ffffff" d="M 264.5 151 L 271 151.5 L 264.5 152 L 264.5 151 Z "/>
    <path fill="#ffffff" d="M 236.5 152 L 241 152.5 L 236.5 153 L 236.5 152 Z "/>
    <path fill="#ffffff" d="M 272.5 152 L 278 152.5 L 272.5 153 L 272.5 152 Z "/>
    <path fill="#ffffff" d="M 128.5 155 L 129 178.5 L 128 178.5 L 128.5 155 Z "/>
    <path fill="#ffffff" d="M 384.5 155 L 385 161.5 L 384 161.5 L 384.5 155 Z "/>
    <path fill="#ffffff" d="M 292.5 156 L 297 157.5 L 295.5 158 L 292.5 157 L 292.5 156 Z "/>
    <path fill="#ffffff" d="M 208.5 160 L 210 160.5 L 206.5 162 L 206.5 161 L 208.5 160 Z "/>
    <path fill="#ffffff" d="M 303.5 160 L 307 161.5 L 305.5 162 L 303.5 160 Z "/>
    <path fill="#ffffff" d="M 384.5 173 L 385 178.5 L 384 178.5 L 384.5 173 Z "/>
    <path fill="#ffffff" d="M 183.5 174 L 181.5 177 L 179 175.5 L 180.5 176 L 183.5 174 Z "/>
    <path fill="#ffffff" d="M 130.5 187 L 131 191.5 L 130 191.5 L 130.5 187 Z "/>
    <path fill="#ffffff" d="M 250.5 198 L 262.5 198 L 263.5 199 L 275.5 200 L 287.5 204 L 303 212 L 301.5 215 Q 289.8 223.3 273.5 227 Q 268.8 225.7 267.5 228 L 245.5 228 L 226.5 223 L 210 213.5 Q 209.3 211.3 211.5 212 L 225.5 204 L 237.5 200 L 249.5 199 L 250.5 198 Z "/>
    <path fill="#ffffff" d="M 137.5 212 L 136.5 214 L 133 213.5 L 137.5 212 Z "/>
    <path fill="#ffffff" d="M 375.5 212 L 379 213.5 L 376.5 214 L 375.5 212 Z "/>
    <path fill="#ffffff" d="M 100.5 224 L 99.5 226 L 97.5 227 L 98.5 225 L 100.5 224 Z "/>
    <path fill="#ffffff" d="M 412.5 224 L 416 226.5 L 414.5 226 L 412.5 224 Z "/>
    <path fill="#ffffff" d="M 93.5 228 L 92.5 230 L 90.5 231 L 91.5 229 L 93.5 228 Z "/>
    <path fill="#ffffff" d="M 419.5 228 L 423 230.5 L 421.5 230 L 419.5 228 Z "/>
    <path fill="#ffffff" d="M 88.5 231 L 86.5 234 L 83.5 236 L 85.5 233 L 88.5 231 Z "/>
    <path fill="#ffffff" d="M 425.5 232 L 430 235.5 L 427.5 234 L 425.5 232 Z "/>
    <path fill="#ffffff" d="M 250.5 254 L 262.5 254 Q 271 256.5 276 262.5 L 282 274.5 L 282 283.5 Q 279.4 292.4 273.5 298 L 262.5 304 L 250.5 304 L 237 295.5 Q 230.2 288.8 231 274.5 Q 233.6 265.6 239.5 260 L 250.5 254 Z "/>
    <path fill="#ffffff" d="M 54.5 267 L 54 268.5 L 52.5 271 L 53 269.5 L 54.5 267 Z "/>
    <path fill="#ffffff" d="M 385.5 267 L 385 268.5 L 384.5 273 L 384 268.5 L 385.5 267 Z "/>
    <path fill="#ffffff" d="M 458.5 267 L 461 270.5 L 459 269.5 L 458.5 267 Z "/>
    <path fill="#ffffff" d="M 117.5 269 L 119 269.5 L 114.5 271 L 114.5 270 L 117.5 269 Z "/>
    <path fill="#ffffff" d="M 393.5 269 L 399 270.5 L 396.5 271 L 393.5 270 L 393.5 269 Z "/>
    <path fill="#ffffff" d="M 128.5 270 L 129 279.5 L 128 279.5 L 128.5 270 Z "/>
    <path fill="#ffffff" d="M 106.5 273 L 108 273.5 L 102.5 276 L 102.5 275 L 106.5 273 Z "/>
    <path fill="#ffffff" d="M 405.5 273 L 411 275.5 L 409.5 276 L 405.5 274 L 405.5 273 Z "/>
    <path fill="#ffffff" d="M 50.5 274 L 50 275.5 L 47.5 281 L 47 279.5 L 50.5 274 Z "/>
    <path fill="#ffffff" d="M 177.5 274 Q 194.1 281.4 205 294.5 Q 215.2 306.3 221 322.5 L 224 335.5 L 225 351.5 Q 223.8 354.3 222.5 352 Q 205.2 344.3 194 330.5 Q 183 318 178 299.5 L 176 288.5 L 176 275.5 L 177.5 274 Z "/>
    <path fill="#ffffff" d="M 335.5 274 L 337 275.5 L 337 289.5 L 335 299.5 L 330 313.5 Q 321.9 329.9 308.5 341 L 297.5 349 L 291.5 352 L 288 352 L 289 335.5 L 296 312.5 Q 304.3 296.3 317.5 285 L 335.5 274 Z "/>
    <path fill="#ffffff" d="M 462.5 274 L 466 280.5 L 465 280.5 L 462.5 274 Z "/>
    <path fill="#ffffff" d="M 46.5 282 L 47 283.5 L 44.5 288 L 44 286.5 L 46.5 282 Z "/>
    <path fill="#ffffff" d="M 466.5 282 L 468 285.5 L 467 285.5 L 466.5 282 Z "/>
    <path fill="#ffffff" d="M 88.5 284 L 86.5 287 L 76.5 296 L 85.5 286 L 88.5 284 Z "/>
    <path fill="#ffffff" d="M 128.5 284 L 129 290.5 L 128 290.5 L 128.5 284 Z "/>
    <path fill="#ffffff" d="M 384.5 285 L 385 292.5 L 384 292.5 L 384.5 285 Z "/>
    <path fill="#ffffff" d="M 129.5 295 L 130 299.5 L 129 299.5 L 129.5 295 Z "/>
    <path fill="#ffffff" d="M 41.5 296 L 42 297.5 L 40.5 301 L 40 298.5 L 41.5 296 Z "/>
    <path fill="#ffffff" d="M 383.5 296 L 384 300.5 L 383 300.5 L 383.5 296 Z "/>
    <path fill="#ffffff" d="M 71.5 302 L 70 304.5 L 68.5 307 L 69 305.5 L 71.5 302 Z "/>
    <path fill="#ffffff" d="M 382.5 302 L 383 305.5 L 381.5 309 L 381 306.5 L 382.5 302 Z "/>
    <path fill="#ffffff" d="M 441.5 302 L 445 306.5 L 443 305.5 L 441.5 302 Z "/>
    <path fill="#ffffff" d="M 67.5 308 L 67 309.5 L 64.5 314 L 65 312.5 L 67.5 308 Z "/>
    <path fill="#ffffff" d="M 445.5 308 L 448 311.5 L 446 310.5 L 445.5 308 Z "/>
    <path fill="#ffffff" d="M 379.5 314 L 380 316.5 L 377.5 322 L 377 320.5 L 379.5 314 Z "/>
    <path fill="#ffffff" d="M 37.5 315 L 38 323.5 L 37 323.5 L 37.5 315 Z "/>
    <path fill="#ffffff" d="M 475.5 315 L 476 321.5 L 475 321.5 L 475.5 315 Z "/>
    <path fill="#ffffff" d="M 61.5 320 L 62 321.5 L 60.5 324 L 60 322.5 L 61.5 320 Z "/>
    <path fill="#ffffff" d="M 451.5 320 L 453 323.5 L 452 323.5 L 451.5 320 Z "/>
    <path fill="#ffffff" d="M 476.5 324 L 477 332.5 L 476 332.5 L 476.5 324 Z "/>
    <path fill="#ffffff" d="M 375.5 326 L 376 327.5 L 374.5 330 L 374 328.5 L 375.5 326 Z "/>
    <path fill="#ffffff" d="M 37.5 335 L 38 343.5 L 37 343.5 L 37.5 335 Z "/>
    <path fill="#ffffff" d="M 122.5 335 Q 128.8 333.8 130 337.5 L 129.5 341 L 127.5 336 Q 121.5 337.3 122.5 335 Z "/>
    <path fill="#ffffff" d="M 141.5 335 L 144 339.5 L 142 338.5 L 141.5 335 Z "/>
    <path fill="#ffffff" d="M 371.5 335 L 372 336.5 L 369.5 340 L 370 338.5 L 371.5 335 Z "/>
    <path fill="#ffffff" d="M 475.5 336 L 476 343.5 L 475 343.5 L 475.5 336 Z "/>
    <path fill="#ffffff" d="M 115.5 338 L 111 343.5 L 109.5 346 L 110 344.5 L 115.5 338 Z "/>
    <path fill="#ffffff" d="M 367.5 343 L 367 344.5 L 365.5 347 L 366 345.5 L 367.5 343 Z "/>
    <path fill="#ffffff" d="M 457.5 348 L 458 353.5 L 457 353.5 L 457.5 348 Z "/>
    <path fill="#ffffff" d="M 107.5 351 L 108 358.5 L 107 358.5 L 107.5 351 Z "/>
    <path fill="#ffffff" d="M 378.5 355 L 378 356.5 L 376.5 359 L 377 357.5 L 378.5 355 Z "/>
    <path fill="#ffffff" d="M 56.5 360 L 57 364.5 L 56 364.5 L 56.5 360 Z "/>
    <path fill="#ffffff" d="M 375.5 360 L 375 361.5 L 373.5 364 L 374 362.5 L 375.5 360 Z "/>
    <path fill="#ffffff" d="M 456.5 360 L 457 364.5 L 455.5 370 L 455 365.5 L 456.5 360 Z "/>
    <path fill="#ffffff" d="M 109.5 364 L 115 370.5 L 110 366.5 L 109.5 364 Z "/>
    <path fill="#ffffff" d="M 141.5 367 L 137.5 372 L 135.5 373 L 136.5 371 L 141.5 367 Z "/>
    <path fill="#ffffff" d="M 44.5 370 L 46 373.5 L 45 373.5 L 44.5 370 Z "/>
    <path fill="#ffffff" d="M 410.5 371 L 411 376.5 L 410 376.5 L 410.5 371 Z "/>
    <path fill="#ffffff" d="M 368.5 372 L 369 376.5 L 368 376.5 L 368.5 372 Z "/>
    <path fill="#ffffff" d="M 467.5 372 L 468 373.5 L 466.5 376 L 466 374.5 L 467.5 372 Z "/>
    <path fill="#ffffff" d="M 124.5 374 L 129 374.5 L 124.5 375 L 124.5 374 Z "/>
    <path fill="#ffffff" d="M 58.5 377 L 59 378.5 L 56 380.5 L 58.5 377 Z "/>
    <path fill="#ffffff" d="M 454.5 377 L 457 380.5 L 454 378.5 L 454.5 377 Z "/>
    <path fill="#ffffff" d="M 409.5 378 L 406.5 382 L 405 381.5 L 409.5 378 Z "/>
    <path fill="#ffffff" d="M 391.5 382 L 403 382.5 L 391.5 383 L 391.5 382 Z "/>
    <path fill="#ffffff" d="M 188.5 387 L 192 389.5 L 190.5 389 L 188.5 387 Z "/>
    <path fill="#ffffff" d="M 324.5 387 L 323.5 389 L 321.5 390 L 322.5 388 L 324.5 387 Z "/>
    <path fill="#ffffff" d="M 195.5 391 L 199 393.5 L 197.5 393 L 195.5 391 Z "/>
    <path fill="#ffffff" d="M 317.5 391 L 316.5 393 L 314.5 394 L 315.5 392 L 317.5 391 Z "/>
    <path fill="#ffffff" d="M 306.5 396 L 308 396.5 L 306 397 L 305.5 399 L 305 397.5 L 306.5 396 Z "/>
    <path fill="#ffffff" d="M 73.5 407 Q 80.8 407.3 83 412.5 L 78.5 409 L 73.5 408 L 73.5 407 Z "/>
    <path fill="#ffffff" d="M 436.5 407 Q 442.7 406.3 444 410.5 L 443.5 416 Q 444.4 410.6 441.5 409 L 436.5 408 L 430.5 413 L 434.5 408 L 436.5 407 Z "/>
    <path fill="#ffffff" d="M 71.5 408 L 70 410.5 L 69.5 412 L 69 410.5 L 71.5 408 Z "/>
    <path fill="#ffffff" d="M 84.5 413 L 91 418.5 L 88.5 417 L 84.5 413 Z "/>
    <path fill="#ffffff" d="M 427.5 414 L 425.5 417 L 422.5 419 L 424.5 416 L 427.5 414 Z "/>
    <path fill="#ffffff" d="M 92.5 419 L 96 421.5 L 94.5 421 L 92.5 419 Z "/>
    <path fill="#ffffff" d="M 420.5 419 L 419.5 421 L 417.5 422 L 418.5 420 L 420.5 419 Z "/>
    <path fill="#ffffff" d="M 99.5 423 L 104 425.5 L 102.5 426 L 99.5 423 Z "/>
    <path fill="#ffffff" d="M 178.5 423 L 180 423.5 L 175.5 426 L 176.5 424 L 178.5 423 Z "/>
    <path fill="#ffffff" d="M 333.5 423 L 341 426.5 L 339.5 427 L 333.5 424 L 333.5 423 Z "/>
    <path fill="#ffffff" d="M 413.5 423 L 412.5 425 L 409.5 426 L 409.5 425 L 413.5 423 Z "/>
    <path fill="#ffffff" d="M 110.5 428 L 115 429.5 L 112.5 430 L 110.5 428 Z "/>
    <path fill="#ffffff" d="M 344.5 428 L 349 429.5 L 346.5 430 L 344.5 428 Z "/>
    <path fill="#ffffff" d="M 401.5 428 L 403 428.5 L 399.5 430 L 399.5 429 L 401.5 428 Z "/>
    <path fill="#ffffff" d="M 124.5 432 L 129 432.5 L 124.5 433 L 124.5 432 Z "/>
    <path fill="#ffffff" d="M 150.5 432 L 155 432.5 L 150.5 433 L 150.5 432 Z "/>
    <path fill="#ffffff" d="M 358.5 432 L 363 432.5 L 358.5 433 L 358.5 432 Z "/>
    <path fill="#ffffff" d="M 385.5 432 L 390 432.5 L 385.5 433 L 385.5 432 Z "/>
    <path fill="#ffffff" d="M 130.5 433 L 149 433.5 L 130.5 434 L 130.5 433 Z "/>
    <path fill="#ffffff" d="M 364.5 433 L 384 433.5 L 364.5 434 L 364.5 433 Z "/>
    <path fill="#ffffff" d="M 108.5 448 L 113 450.5 L 111.5 451 L 108.5 448 Z "/>
    <path fill="#ffffff" d="M 216.5 448 L 215.5 450 L 212.5 451 L 212.5 450 L 216.5 448 Z "/>
    <path fill="#ffffff" d="M 296.5 448 L 301 450.5 L 299.5 451 L 296.5 448 Z "/>
    <path fill="#ffffff" d="M 404.5 448 L 403.5 450 L 400.5 451 L 400.5 450 L 404.5 448 Z "/>
    <path fill="#ffffff" d="M 116.5 452 L 122 454.5 L 120.5 455 L 116.5 453 L 116.5 452 Z "/>
    <path fill="#ffffff" d="M 207.5 452 L 209 452.5 L 205.5 454 L 205.5 453 L 207.5 452 Z "/>
    <path fill="#ffffff" d="M 304.5 452 L 308 453.5 L 306.5 454 L 304.5 452 Z "/>
    <path fill="#ffffff" d="M 393.5 453 L 395 453.5 L 391.5 455 L 391.5 454 L 393.5 453 Z "/>
    <path fill="#ffffff" d="M 126.5 456 L 132 457.5 L 129.5 458 L 126.5 457 L 126.5 456 Z "/>
    <path fill="#ffffff" d="M 196.5 456 L 198 456.5 L 193.5 458 L 193.5 457 L 196.5 456 Z "/>
    <path fill="#ffffff" d="M 315.5 456 L 320 457.5 L 317.5 458 L 315.5 456 Z "/>
    <path fill="#ffffff" d="M 178.5 460 L 183 460.5 L 178.5 461 L 178.5 460 Z "/>
    <path fill="#ffffff" d="M 366.5 460 L 371 460.5 L 366.5 461 L 366.5 460 Z "/>
    <path fill="#ffffff" d="M 149.5 461 L 157 461.5 L 149.5 462 L 149.5 461 Z "/>
    <path fill="#ffffff" d="M 166.5 461 L 177 461.5 L 166.5 462 L 166.5 461 Z "/>
    <path fill="#ffffff" d="M 337.5 461 L 348 461.5 L 337.5 462 L 337.5 461 Z "/>
    <path fill="#ffffff" d="M 354.5 461 L 365 461.5 L 354.5 462 L 354.5 461 Z "/>
    <path fill="#4da3ff" d="M 187.5 76 L 190 76.5 Q 177.2 88.7 170 106.5 L 164 127.5 L 163 150.5 L 164 151.5 L 164 158.5 L 166 168.5 L 173 186.5 Q 182.3 203.7 196.5 216 L 220.5 231 Q 234 236.8 251 238 L 251 245 L 247.5 245 Q 234.7 248.7 228 258.5 L 222 272.5 L 222 286.5 L 223 290.5 L 216.5 294 L 205.5 281 L 185.5 267 L 165.5 259 L 154.5 257 L 128.5 257 L 107.5 262 L 88.5 272 L 73 284 L 65 293.5 L 54 311.5 L 49 324.5 L 47.5 333 L 47 319.5 L 51 297.5 L 60 276.5 Q 70.2 258.7 85.5 246 L 109.5 231 L 126.5 225 L 136.5 223 L 144.5 223 L 149 219.5 L 149 213.5 L 144 203.5 L 139 183.5 L 138 157.5 L 139 156.5 L 140 143.5 L 147 122.5 L 157 104.5 L 166.5 93 L 187.5 76 Z "/>
    <path fill="#4da3ff" d="M 323.5 76 Q 341.2 85.3 353 100.5 L 369 129.5 L 375 156.5 L 375 175.5 L 370 200.5 L 363 216.5 L 366.5 222 L 381.5 224 L 401.5 230 L 416.5 238 L 434 251 L 450 271.5 L 461 294.5 L 466 316.5 L 466 331.5 L 465 331.5 L 464 324.5 L 459 311.5 L 448 293.5 L 440 284 L 421.5 270 L 405.5 262 L 384.5 257 L 358.5 257 Q 323.8 263.3 304 284.5 L 299 292 L 297 292 Q 298.1 294.7 295.5 294 L 290 290.5 Q 292.5 283 291 271.5 Q 287.7 258.8 278.5 252 Q 272.5 245.5 262 245 L 262 238 L 266.5 238 L 280.5 235 L 300.5 227 L 315.5 217 L 326 206.5 L 339 188.5 L 346 171.5 L 350 151.5 L 350 134.5 L 346 114.5 L 341 101.5 Q 333.4 86.7 323.5 76 Z "/>
    <path fill="#4da3ff" d="M 254.5 116 L 259.5 116 L 264 120.5 L 265 123.5 L 264 127.5 L 260.5 131 L 254.5 132 L 250 129.5 L 249 120.5 L 250 118 L 254.5 116 Z "/>
    <path fill="#4da3ff" d="M 246.5 161 L 266.5 161 L 291.5 166 L 315.5 177 L 327 185.5 Q 321.4 197.9 311.5 206 L 309.5 206 L 295.5 197 L 282.5 192 L 269.5 189 L 256.5 189 L 255.5 188 L 254.5 189 L 243.5 189 L 226.5 193 L 202.5 206 L 195 199.5 L 186 185.5 L 192.5 180 L 208.5 171 L 221.5 166 L 246.5 161 Z "/>
    <path fill="#4da3ff" d="M 139 267 L 154.5 268 L 167 271 L 166 284.5 L 167 285.5 L 168 297.5 L 170 301.5 L 170 306.5 L 173 314.5 L 182 330.5 L 194.5 345 L 202.5 352 L 222 363.5 L 219 376.5 L 214 388 L 203.5 385 L 185.5 374 L 163 352.5 Q 150 336 143 313.5 L 139 297.5 L 138 272.5 L 139 267 Z M 166 316 L 164 317 L 160 321 L 157 330 Q 157 337 160 342 L 167 348 L 177 351 L 184 349 Q 188 348 187 343 Q 186 340 185 342 L 184 339 Q 179 338 178 340 L 170 338 L 168 335 Q 167 325 172 322 L 171 319 L 166 316 Z "/>
    <path fill="#4da3ff" d="M 367.5 267 Q 374.5 265.5 374 268.5 L 375 269.5 L 375 288.5 L 374 289.5 L 374 298.5 L 372 307.5 L 365 327.5 L 357 342.5 L 339.5 364 L 320.5 379 L 303.5 388 L 299 388 Q 293.8 377.6 291 363.5 L 318 346 L 321.5 341 Q 323.8 341.8 323 339.5 L 333 327.5 L 342 309.5 L 346 293.5 L 347 276.5 L 346 271 L 352.5 269 L 366.5 268 L 367.5 267 Z "/>
    <path fill="#4da3ff" d="M 226.5 301 L 229.5 301 Q 234.8 308.7 244.5 312 L 259.5 314 L 270.5 311 Q 278.9 307.9 283.5 301 L 286.5 301 L 290 303.5 L 281 326.5 L 280 339.5 L 279 340.5 L 279 357.5 L 283 376.5 L 289 391.5 Q 298.5 409.5 313.5 422 Q 325 432 340.5 438 L 354.5 442 L 378.5 444 L 379.5 443 L 387.5 443 L 396.5 441 L 396.5 442 L 380.5 448 L 363.5 452 L 339.5 452 L 319.5 448 L 298.5 439 Q 282.2 429.8 270 416.5 L 268 413.5 Q 262.7 410 261 404 L 254.5 403 L 252 404 Q 246.4 416 235.5 424 L 212.5 440 L 193.5 448 L 173.5 452 L 149.5 452 L 132.5 448 L 117 441.5 L 118.5 441 L 126.5 443 L 151.5 443 Q 191.4 435.9 212 409.5 Q 224.8 394.8 231 373.5 L 234 356.5 L 234 340.5 L 230 319.5 L 225 309.5 L 224 303.5 L 226.5 301 Z "/>
    <path fill="#4da3ff" d="M 123.5 345 L 126 346.5 Q 123.3 348.3 125 354.5 L 129.5 360 L 133 362.5 Q 131 365.5 125.5 365 L 119 361.5 Q 116.2 358.8 117 352.5 L 120.5 347 L 123.5 345 Z "/>
    <path fill="#4da3ff" d="M 390.5 355 Q 392.8 354.3 392 356.5 L 400 371.5 L 396.5 373 L 395.5 372 L 381 372 Q 383.9 362.3 390.5 355 Z "/>
    <path fill="#66d9e8" d="M 195.5 70 Q 197.8 69.3 197 71.5 Q 178.8 86.3 170 110.5 L 165 129.5 L 165 155.5 L 168 169.5 L 174 185.5 Q 183.5 203.5 198.5 216 L 219.5 229 L 237.5 235 L 250.5 236 L 252 237.5 L 253 240.5 L 252 246 L 242.5 248 L 229 259.5 L 225 266.5 L 223 274.5 L 223 283.5 L 225 290.5 L 216.5 296 L 203.5 281 Q 191.6 270.4 175.5 264 L 157.5 259 L 134.5 258 L 133.5 259 L 119.5 260 L 106.5 264 Q 87.5 272 74 285.5 L 72.5 288 Q 70.3 287.3 71 289.5 Q 52 308 47.5 341 L 46 339.5 L 45 326.5 L 46 325.5 L 46 314.5 L 48 303.5 L 55 283.5 Q 65.8 260.3 84.5 245 Q 96 235.5 110.5 229 L 124.5 224 L 139.5 221 L 145.5 221 L 148 218.5 L 148 214.5 L 143 204.5 L 138 186.5 Q 139.3 181.7 137 180.5 L 137 152.5 Q 145.2 106.7 175.5 83 L 195.5 70 Z M 188 76 L 167 93 L 157 105 L 147 123 L 140 144 L 139 157 L 138 158 L 139 184 L 144 204 L 149 214 L 149 220 L 145 223 L 137 223 L 127 225 L 110 231 L 86 246 Q 70 259 60 277 L 51 298 L 47 320 L 48 333 L 49 325 L 54 312 L 65 294 L 73 284 L 89 272 L 108 262 L 129 257 L 155 257 L 166 259 L 186 267 L 206 281 L 217 294 L 223 291 L 222 287 L 222 273 L 228 259 Q 235 249 248 245 L 251 245 L 251 238 Q 234 237 221 231 L 197 216 Q 182 204 173 187 L 166 169 L 164 159 L 164 152 L 163 151 L 164 128 L 170 107 Q 177 89 190 77 L 188 76 Z "/>
    <path fill="#66d9e8" d="M 316 70 Q 337.9 79.2 352 97.5 Q 365.1 112.9 372 134.5 L 376 153.5 L 376 180.5 L 372 198.5 L 365 214.5 L 365 218.5 L 367.5 221 L 372.5 221 L 391.5 225 L 412.5 234 Q 429.8 243.8 442 258.5 Q 453.6 272.4 461 290.5 L 467 314.5 L 468 335.5 L 467 341 Q 463.3 342.4 465 336.5 L 463 326.5 L 458 312.5 Q 449.8 295.2 436.5 283 Q 423.8 271.2 406.5 264 L 387.5 259 L 362.5 258 L 361.5 259 L 349.5 260 L 330.5 267 Q 314.3 274.8 303 287.5 L 296.5 296 L 288 290.5 L 290 283.5 L 290 273.5 L 286 262.5 L 276.5 252 L 260 244.5 Q 258.5 237.5 262.5 236 L 275.5 235 L 293.5 229 Q 313.1 220.1 326 204.5 L 335 192.5 L 346 166.5 L 348 156.5 L 348 129.5 Q 344.2 108.8 335 93.5 L 316 70 Z M 324 76 Q 333 87 341 102 L 346 115 L 350 135 L 350 152 L 346 172 L 339 189 L 326 207 L 316 217 L 301 227 L 281 235 L 267 238 L 262 238 L 262 245 Q 273 246 279 252 Q 288 259 291 272 Q 293 283 290 291 L 296 294 Q 298 295 297 292 L 299 292 L 304 285 Q 324 263 359 257 L 385 257 L 406 262 L 422 270 L 440 284 L 448 294 L 459 312 L 464 325 L 465 332 L 466 332 L 466 317 L 461 295 L 450 272 L 434 251 L 417 238 L 402 230 L 382 224 L 367 222 L 363 217 L 370 201 L 375 176 L 375 157 L 369 130 L 353 101 Q 341 85 324 76 Z "/>
    <path fill="#66d9e8" d="M 255.5 114 Q 262.8 114.3 265 119.5 L 266 125.5 L 261.5 132 L 252.5 133 L 247 126.5 L 247 121.5 L 252.5 115 L 255.5 114 Z M 255 116 L 250 118 L 249 121 L 250 130 L 255 132 L 261 131 L 264 128 L 265 124 L 264 121 L 260 116 L 255 116 Z "/>
    <path fill="#66d9e8" d="M 241.5 160 L 270.5 160 L 289.5 164 Q 313 171 329 185.5 L 323 195.5 L 314 204.5 L 314 206 L 310.5 208 Q 299.5 199 284.5 194 L 266.5 190 L 247.5 190 L 225.5 195 Q 212.4 199.9 202.5 208 L 195 202 L 184 185.5 L 194.5 177 L 214.5 167 L 222.5 164 L 241.5 160 Z M 247 161 L 222 166 L 209 171 L 193 180 L 186 186 L 195 200 L 203 206 L 227 193 L 244 189 L 255 189 L 256 188 L 257 189 L 270 189 L 283 192 L 296 197 L 310 206 L 312 206 Q 321 198 327 186 L 316 177 L 292 166 L 267 161 L 247 161 Z "/>
    <path fill="#66d9e8" d="M 138.5 266 L 150.5 266 L 168 270 L 168 289.5 L 174 313.5 Q 182.6 332.9 197.5 346 L 214.5 358 L 223 361 L 222 371.5 L 214 390 Q 183.7 379.5 165 356.5 Q 149.1 338.4 141 312.5 L 137 294.5 L 137 267.5 L 138.5 266 Z M 139 267 L 138 273 L 139 298 L 143 314 Q 150 336 163 353 L 186 374 L 204 385 L 214 388 L 219 377 L 222 364 L 203 352 L 195 345 L 182 331 L 173 315 L 170 307 L 170 302 L 168 298 L 167 286 L 166 285 L 167 271 L 155 268 L 139 267 Z "/>
    <path fill="#66d9e8" d="M 362.5 266 L 374.5 266 L 376 267.5 L 376 293.5 Q 373.2 295.3 375 301.5 L 368 323.5 Q 356.3 351.8 334.5 370 Q 320.5 383.5 299.5 390 L 292 374.5 L 290 362.5 L 306.5 353 L 317 344.5 Q 316.3 342.3 318.5 343 L 331 328.5 L 340 310.5 L 345 289.5 L 345 270 L 362.5 266 Z M 368 267 L 367 268 L 353 269 L 346 271 L 347 277 L 346 294 L 342 310 L 333 328 L 323 340 Q 324 342 322 341 L 318 346 L 291 364 Q 294 378 299 388 L 304 388 L 321 379 L 340 364 L 357 343 L 365 328 L 372 308 L 374 299 L 374 290 L 375 289 L 375 270 L 374 269 Q 375 266 368 267 Z "/>
    <path fill="#66d9e8" d="M 227.5 299 L 229.5 299 Q 234.8 306.2 243.5 310 Q 250.7 313.3 262.5 312 L 273.5 308 L 283.5 299 L 285.5 299 L 291 302.5 L 291 306.5 Q 284.3 315.8 282 329.5 Q 283.3 334.2 281 335.5 L 281 360.5 L 287 383.5 L 295 399.5 L 316.5 423 Q 330.4 433.1 348.5 439 L 364.5 442 L 384.5 442 L 399.5 439 L 406.5 436 L 407 437.5 L 393.5 445 L 375.5 451 L 365.5 453 L 358.5 453 L 357.5 454 L 345.5 454 L 344.5 453 L 337.5 453 L 321.5 450 L 303.5 443 Q 282.6 432.9 268 416.5 L 258.5 405 L 254.5 405 L 250 409.5 L 237.5 424 Q 222 438.5 200.5 447 L 175.5 453 L 154.5 454 L 137.5 451 L 124.5 447 L 106 438 L 106.5 436 Q 122.6 443.4 147.5 442 L 164.5 439 L 185.5 430 Q 201.2 421.2 212 407.5 L 218 399.5 L 227 381.5 L 231 367.5 L 232 346.5 L 233 345.5 L 232 344.5 L 232 334.5 L 230 324.5 L 222 305.5 L 222 302.5 L 227.5 299 Z M 227 301 L 224 304 L 225 310 L 230 320 L 234 341 L 234 357 L 231 374 Q 225 395 212 410 Q 191 436 152 443 L 127 443 L 126 442 L 119 443 L 133 448 L 150 452 L 174 452 L 194 448 L 213 440 L 236 424 Q 246 416 252 404 L 255 403 L 261 404 Q 263 410 268 414 L 270 417 Q 282 430 299 439 L 320 448 L 340 452 L 364 452 L 381 448 L 397 442 L 397 441 L 388 443 L 380 443 L 379 444 L 355 442 L 341 438 Q 325 432 314 422 Q 299 410 289 392 L 283 377 L 279 358 L 279 341 L 280 340 L 281 327 L 290 304 L 287 301 L 284 301 Q 279 308 271 311 L 260 314 L 245 312 Q 235 309 230 301 L 227 301 Z "/>
    <path fill="#66d9e8" d="M 165.5 316 L 171 318.5 L 172 321.5 Q 166.9 324.9 168 334.5 L 170 338 L 177.5 340 Q 178.7 337.8 183.5 339 Q 187.8 339.7 187 345.5 L 183.5 349 L 176.5 351 L 166.5 348 L 160 341.5 Q 156.8 337.2 157 329.5 L 160 320.5 L 163.5 317 L 165.5 316 Z M 167 317 L 165 318 Q 160 321 159 327 Q 157 336 161 341 Q 165 347 173 349 Q 179 350 183 348 Q 186 347 185 341 L 183 340 L 181 341 L 172 340 L 167 336 L 166 332 Q 166 325 170 323 L 170 320 L 167 317 Z "/>
    <path fill="#66d9e8" d="M 126.5 343 L 127 346 L 123.5 345 L 118 349.5 L 117 357.5 L 120.5 363 L 128.5 365 L 133 362.5 L 126 356.5 L 125 352.5 L 126 352.5 Q 126.3 357.3 129.5 359 L 136 361.5 Q 133.6 367.6 123.5 366 L 118 362.5 Q 114.7 358.8 116 350.5 L 119.5 346 L 126.5 343 Z "/>
    <path fill="#66d9e8" d="M 390.5 352 Q 392.8 351.3 392 353.5 L 402 371.5 L 402 374 L 379.5 374 L 378 372.5 L 390.5 352 Z M 391 355 Q 384 362 381 372 L 396 372 L 397 373 L 400 372 L 392 357 Q 393 354 391 355 Z "/>
  </g>
  <g id="line">
    <path fill="#1a1a1a" d="M 224.5 52 Q 231.2 50.3 233 53.5 L 234 58.5 L 231.5 61 Q 219.3 64.3 210.5 71 L 195 84.5 Q 183.7 97.2 177 114.5 L 173 132.5 L 173 154.5 L 175 164.5 L 180.5 177 L 193.5 168 Q 207.4 159.9 224.5 155 L 241.5 152 L 263.5 151 L 264.5 152 L 271.5 152 L 288.5 155 L 300.5 159 L 319.5 168 L 332.5 177 L 335 173.5 L 340 154.5 L 340 131.5 Q 333.6 96.9 311.5 78 L 299.5 69 L 281.5 61 L 279 58.5 Q 278 53 281.5 52 L 289.5 52 L 305.5 56 L 327.5 66 Q 344.8 75.8 357 90.5 L 368 105.5 L 380 132.5 L 384 151.5 L 385 172.5 L 384 173.5 L 384 182.5 L 381 197.5 L 375 212.5 L 376.5 214 L 390.5 216 L 411.5 224 Q 431.7 234.3 446 250.5 L 457 264.5 L 469 288.5 L 475 312.5 L 476 335.5 L 475 336.5 L 475 345.5 L 473 356.5 L 469 369.5 L 462.5 381 Q 456.3 382.3 455 378.5 L 454 373.5 L 457 364.5 L 458 348.5 L 457 347.5 L 456 332.5 L 450 315.5 Q 441.5 298 427.5 286 Q 411.4 271.6 385.5 267 Q 383 268 384 272.5 L 385 273.5 L 385 284.5 L 384 285.5 L 384 295.5 L 381 310.5 L 374 330.5 Q 362.2 357.2 341.5 375 Q 326.3 389.3 305 397.5 L 306 400.5 L 317.5 413 Q 329.9 423.6 346.5 430 L 364.5 434 L 383.5 434 L 397.5 431 L 410.5 426 Q 424.5 419.5 434.5 409 L 439.5 408 L 443 410.5 L 443 416.5 L 425.5 435 Q 410.4 447.4 390.5 455 L 372.5 460 L 348.5 462 L 347.5 461 L 328.5 460 L 303.5 452 Q 275.9 439.6 258 417.5 Q 258.7 414.5 255 416 L 255 417.5 L 237.5 435 Q 222.4 447.4 202.5 455 L 184.5 460 L 157.5 462 L 156.5 461 L 147.5 461 L 146.5 460 L 135.5 459 L 115.5 452 Q 90.5 441 74 421.5 Q 69.8 418.7 69 412.5 L 72.5 408 L 78.5 409 Q 92.1 422.9 112.5 430 L 130.5 434 L 148.5 434 Q 182.4 428.4 201 407.5 L 208 397 L 199.5 394 L 185.5 386 L 160 363.5 Q 144.7 346.8 136 323.5 L 130 300.5 L 128 280.5 L 129 279.5 L 129 267 L 117.5 269 L 98.5 277 Q 85.4 284.4 76 295.5 Q 65.8 306.8 60 322.5 L 56 338.5 L 56 364.5 L 59 376.5 L 55.5 381 Q 49.3 382.3 48 378.5 L 39 352.5 L 37 324.5 L 38 323.5 L 38 312.5 L 40 301.5 L 47 281.5 Q 57.9 257.4 76.5 241 L 101.5 224 L 122.5 216 L 136.5 214 L 138 212.5 L 132 197.5 Q 132 188 129 181.5 L 129 151.5 Q 137.5 102.5 169.5 77 Q 191 58.5 224.5 52 Z M 196 70 L 176 83 Q 145 107 137 153 L 137 181 Q 139 182 138 187 L 143 205 L 148 215 L 148 219 L 146 221 L 140 221 L 125 224 L 111 229 Q 96 235 85 245 Q 66 260 55 284 L 48 304 L 46 315 L 46 326 L 45 327 L 46 340 L 48 341 Q 52 308 71 290 Q 70 287 73 288 L 74 286 Q 88 272 107 264 L 120 260 L 134 259 L 135 258 L 158 259 L 176 264 Q 192 270 204 281 L 217 296 L 225 291 L 223 284 L 223 275 L 225 267 L 229 260 L 243 248 L 252 246 L 253 241 L 252 238 L 251 236 L 238 235 L 220 229 L 199 216 Q 184 204 174 186 L 168 170 L 165 156 L 165 130 L 170 111 Q 179 86 197 72 Q 198 69 196 70 Z M 316 70 L 335 94 Q 344 109 348 130 L 348 157 L 346 167 L 335 193 L 326 205 Q 313 220 294 229 L 276 235 L 263 236 Q 259 238 260 245 L 277 252 L 286 263 L 290 274 L 290 284 L 288 291 L 297 296 L 303 288 Q 314 275 331 267 L 350 260 L 362 259 L 363 258 L 388 259 L 407 264 Q 424 271 437 283 Q 450 295 458 313 L 463 327 L 465 337 Q 463 342 467 341 L 468 336 L 467 315 L 461 291 Q 454 272 442 259 Q 430 244 413 234 L 392 225 L 373 221 L 368 221 L 365 219 L 365 215 L 372 199 L 376 181 L 376 154 L 372 135 Q 365 113 352 98 Q 338 79 316 70 Z M 242 160 L 223 164 L 215 167 L 195 177 L 184 186 L 195 202 L 203 208 Q 212 200 226 195 L 248 190 L 267 190 L 285 194 Q 300 199 311 208 L 314 206 L 314 205 L 323 196 L 329 186 Q 313 171 290 164 L 271 160 L 242 160 Z M 251 198 L 250 199 L 238 200 L 226 204 L 212 212 Q 209 211 210 214 L 227 223 L 246 228 L 268 228 Q 269 226 274 227 Q 290 223 302 215 L 303 212 L 288 204 L 276 200 L 264 199 L 263 198 L 251 198 Z M 251 254 L 240 260 Q 234 266 231 275 Q 230 289 237 296 L 251 304 L 263 304 L 274 298 Q 279 292 282 284 L 282 275 L 276 263 Q 271 257 263 254 L 251 254 Z M 139 266 L 137 268 L 137 295 L 141 313 Q 149 338 165 357 Q 184 380 214 390 L 222 372 L 223 361 L 215 358 L 198 346 Q 183 333 174 314 L 168 290 L 168 270 L 151 266 L 139 266 Z M 363 266 L 345 270 L 345 290 L 340 311 L 331 329 L 319 343 Q 316 342 317 345 L 307 353 L 290 363 L 292 375 L 300 390 Q 321 384 335 370 Q 356 352 368 324 L 375 302 Q 373 295 376 294 L 376 268 L 375 266 L 363 266 Z M 178 274 L 176 276 L 176 289 L 178 300 Q 183 318 194 331 Q 205 344 223 352 Q 224 354 225 352 L 224 336 L 221 323 Q 215 306 205 295 Q 194 281 178 274 Z M 336 274 L 318 285 Q 304 296 296 313 L 289 336 L 288 352 L 292 352 L 298 349 L 309 341 Q 322 330 330 314 L 335 300 L 337 290 L 337 276 L 336 274 Z M 228 299 L 222 303 L 222 306 L 230 325 L 232 335 L 232 345 L 233 346 L 232 347 L 231 368 L 227 382 L 218 400 L 212 408 Q 201 421 186 430 L 165 439 L 148 442 Q 123 443 107 436 L 106 438 L 125 447 L 138 451 L 155 454 L 176 453 L 201 447 Q 222 439 238 424 L 250 410 L 255 405 L 259 405 L 268 417 Q 283 433 304 443 L 322 450 L 338 453 L 345 453 L 346 454 L 358 454 L 359 453 L 366 453 L 376 451 L 394 445 L 407 438 L 407 436 L 400 439 L 385 442 L 365 442 L 349 439 Q 330 433 317 423 L 295 400 L 287 384 L 281 361 L 281 336 Q 283 334 282 330 Q 284 316 291 307 L 291 303 L 286 299 L 284 299 L 274 308 L 263 312 Q 251 313 244 310 Q 235 306 230 299 L 228 299 Z "/>
    <path fill="#1a1a1a" d="M 254.5 106 Q 266.3 106.3 271 113.5 Q 275.1 117.9 274 127.5 Q 272.4 134.5 267.5 138 L 261.5 141 L 255.5 142 L 248.5 140 L 242 134.5 Q 237.5 130 239 119.5 Q 241.3 112.8 246.5 109 L 254.5 106 Z M 256 114 L 253 115 L 247 122 L 247 127 L 253 133 L 262 132 L 266 126 L 265 120 Q 263 114 256 114 Z "/>
    <path fill="#1a1a1a" d="M 166.5 317 L 170 319.5 L 170 322.5 Q 166.3 325.3 166 331.5 L 167 335.5 L 171.5 340 L 180.5 341 L 182.5 340 Q 185.8 340.8 185 345.5 Q 182.3 350.8 172.5 349 Q 164.6 346.9 161 340.5 Q 157.3 336.2 159 326.5 Q 160.3 320.8 164.5 318 L 166.5 317 Z "/>
    <path fill="#1a1a1a" d="M 121.5 336 Q 127.5 334.5 129 337.5 Q 130 342 127.5 343 Q 120 343.5 117 348.5 Q 114.7 351.7 116 358.5 L 119.5 364 Q 122.8 367.2 130.5 366 L 135.5 362 L 142 362 Q 143.3 369.3 137.5 371 Q 132.7 375.7 121.5 374 Q 114.8 371.8 111 366.5 Q 106.2 361.3 108 349.5 Q 110.6 342.1 116.5 338 L 121.5 336 Z "/>
    <path fill="#1a1a1a" d="M 389.5 341 L 396 343 L 410 370.5 L 410 377.5 L 404.5 382 L 375.5 382 L 369 377.5 L 370 369.5 L 387.5 342 L 389.5 341 Z M 391 352 L 378 373 L 380 374 L 402 374 L 402 372 L 392 354 Q 393 351 391 352 Z "/>
  </g>
</svg>
