<svg xmlns="http://www.w3.org/2000/svg" width="512" height="512" viewBox="0 0 512 512">
  <g id="color">
    <path fill="#ffffff" d="M 250.5 58 L 254 59.5 L 252.5 60 L 250.5 59 L 246.5 62 L 248.5 59 L 250.5 58 Z "/>
    <path fill="#ffffff" d="M 256.5 61 L 261 66.5 L 256 62.5 L 256.5 61 Z "/>
    <path fill="#ffffff" d="M 244.5 67 L 245 69.5 L 243.5 72 L 243 70.5 L 244.5 67 Z "/>
    <path fill="#ffffff" d="M 264.5 72 L 269 78.5 L 267 77.5 L 264.5 72 Z "/>
    <path fill="#ffffff" d="M 241.5 75 L 241 76.5 L 239.5 79 L 240 77.5 L 241.5 75 Z "/>
    <path fill="#ffffff" d="M 238.5 80 L 238 81.5 L 234.5 89 L 234 87.5 L 238.5 80 Z "/>
    <path fill="#ffffff" d="M 270.5 82 L 273 86.5 L 272 86.5 L 270.5 82 Z "/>
    <path fill="#ffffff" d="M 274.5 91 Q 277.5 97 276 107.5 L 274.5 110 L 274 108.5 L 275 107.5 L 275 95.5 L 274.5 91 Z "/>
    <path fill="#ffffff" d="M 232.5 93 L 233 95.5 L 232 96.5 L 232 107.5 L 234 112.5 L 233 112.5 Q 229.4 107.1 231 96.5 L 232.5 93 Z "/>
    <path fill="#ffffff" d="M 272.5 113 L 273 114.5 L 266 120.5 L 272.5 113 Z "/>
    <path fill="#ffffff" d="M 244.5 122 L 248 123.5 L 245.5 124 L 244.5 122 Z "/>
    <path fill="#ffffff" d="M 261.5 122 L 263 122.5 L 258.5 124 L 258.5 123 L 261.5 122 Z "/>
    <path fill="#ffffff" d="M 250.5 124 L 257 124.5 L 250.5 125 L 250.5 124 Z "/>
    <path fill="#ffffff" d="M 245.5 131 L 263.5 131 L 270 132.5 L 264.5 133 L 263.5 132 L 245.5 132 Q 244 134.5 238.5 133 L 238.5 132 Q 244 133.5 245.5 131 Z "/>
    <path fill="#ffffff" d="M 277.5 142 L 278 165.5 L 279 166.5 L 277 165.5 L 277.5 142 Z "/>
    <path fill="#ffffff" d="M 229.5 144 L 230 151.5 L 229 151.5 L 229.5 144 Z "/>
    <path fill="#ffffff" d="M 347.5 153 L 359 153.5 L 347.5 154 L 347.5 153 Z "/>
    <path fill="#ffffff" d="M 363.5 155 L 368 157.5 L 366.5 157 Q 362.8 156.8 363.5 155 Z "/>
    <path fill="#ffffff" d="M 339.5 156 L 338.5 158 L 335.5 160 L 337.5 157 L 339.5 156 Z "/>
    <path fill="#ffffff" d="M 369.5 158 L 377 166.5 L 375 165.5 L 369.5 158 Z "/>
    <path fill="#ffffff" d="M 206.5 167 L 221 167.5 L 206.5 168 L 206.5 167 Z "/>
    <path fill="#ffffff" d="M 295.5 167 L 310 167.5 L 295.5 168 L 295.5 167 Z "/>
    <path fill="#ffffff" d="M 183.5 168 L 201 168.5 L 172.5 170 L 172.5 169 L 182.5 169 L 183.5 168 Z "/>
    <path fill="#ffffff" d="M 314.5 168 L 328 168.5 L 314.5 169 L 314.5 168 Z "/>
    <path fill="#ffffff" d="M 377.5 168 L 380 172.5 L 378 171.5 L 377.5 168 Z "/>
    <path fill="#ffffff" d="M 159.5 170 L 167 170.5 L 159.5 171 L 159.5 170 Z "/>
    <path fill="#ffffff" d="M 148.5 171 L 157 171.5 L 141.5 173 L 141.5 172 Q 147 173.5 148.5 171 Z "/>
    <path fill="#ffffff" d="M 133.5 173 L 138 173.5 L 133.5 174 L 133.5 173 Z "/>
    <path fill="#ffffff" d="M 383.5 173 L 388 173.5 L 383.5 174 L 383.5 173 Z "/>
    <path fill="#ffffff" d="M 125.5 174 L 131 174.5 L 120.5 176 L 120.5 175 L 125.5 174 Z "/>
    <path fill="#ffffff" d="M 390.5 174 L 401 175.5 L 396.5 176 Q 395.2 173.7 390.5 175 L 390.5 174 Z "/>
    <path fill="#ffffff" d="M 109.5 177 L 113 177.5 L 105.5 179 L 105.5 178 L 109.5 177 Z "/>
    <path fill="#ffffff" d="M 408.5 177 L 416 178.5 L 413.5 179 L 408.5 178 L 408.5 177 Z "/>
    <path fill="#ffffff" d="M 96.5 180 L 100 180.5 L 93.5 182 L 93.5 181 L 96.5 180 Z "/>
    <path fill="#ffffff" d="M 423.5 180 L 429 181.5 L 426.5 182 L 423.5 181 L 423.5 180 Z "/>
    <path fill="#ffffff" d="M 85.5 183 L 88 183.5 L 83.5 185 L 83.5 184 L 85.5 183 Z "/>
    <path fill="#ffffff" d="M 434.5 183 L 439 184.5 L 436.5 185 L 434.5 183 Z "/>
    <path fill="#ffffff" d="M 77.5 186 L 79 186.5 L 75.5 188 L 75.5 187 L 77.5 186 Z "/>
    <path fill="#ffffff" d="M 442.5 186 L 449 188.5 L 447.5 189 L 442.5 187 L 442.5 186 Z "/>
    <path fill="#ffffff" d="M 72.5 188 L 74 188.5 L 68.5 191 L 68.5 190 L 72.5 188 Z "/>
    <path fill="#ffffff" d="M 450.5 189 L 454 191.5 L 452.5 191 L 450.5 189 Z "/>
    <path fill="#ffffff" d="M 64.5 192 L 63.5 194 L 61.5 195 L 62.5 193 L 64.5 192 Z "/>
    <path fill="#ffffff" d="M 465.5 203 L 469 209.5 L 468 209.5 L 465.5 203 Z "/>
    <path fill="#ffffff" d="M 47.5 207 L 47 208.5 L 45.5 211 L 46 209.5 L 47.5 207 Z "/>
    <path fill="#ffffff" d="M 469.5 211 L 471 214.5 L 470 214.5 L 469.5 211 Z "/>
    <path fill="#ffffff" d="M 44.5 212 L 45 213.5 L 42.5 219 L 42 216.5 L 44.5 212 Z "/>
    <path fill="#ffffff" d="M 472.5 220 L 474 226.5 L 473 226.5 L 472.5 220 Z "/>
    <path fill="#ffffff" d="M 40.5 223 L 41 226.5 L 39.5 230 L 39 227.5 L 40.5 223 Z "/>
    <path fill="#ffffff" d="M 475.5 235 L 476 242.5 L 475 242.5 L 475.5 235 Z "/>
    <path fill="#ffffff" d="M 37.5 239 L 38 248.5 L 37 248.5 L 37.5 239 Z "/>
    <path fill="#ffffff" d="M 475.5 248 L 476 254.5 L 475 254.5 L 475.5 248 Z "/>
    <path fill="#ffffff" d="M 37.5 251 L 38 259.5 L 37 259.5 L 37.5 251 Z "/>
    <path fill="#ffffff" d="M 473.5 261 L 474 263.5 L 472.5 266 L 472 264.5 L 473.5 261 Z "/>
    <path fill="#ffffff" d="M 39.5 266 L 41 270.5 L 40 270.5 L 39.5 266 Z "/>
    <path fill="#ffffff" d="M 471.5 267 L 472 268.5 L 468.5 274 L 469 272.5 L 471.5 267 Z "/>
    <path fill="#ffffff" d="M 465.5 278 L 461.5 283 L 456 286.5 L 455.5 297 L 455 286.5 L 465.5 278 Z "/>
    <path fill="#ffffff" d="M 55.5 298 L 56 321.5 L 55 321.5 L 55.5 298 Z "/>
    <path fill="#ffffff" d="M 56.5 328 L 57 341.5 L 56 341.5 L 56.5 328 Z "/>
    <path fill="#ffffff" d="M 57.5 350 L 58 359.5 L 57 359.5 L 57.5 350 Z "/>
    <path fill="#ffffff" d="M 58.5 361 L 59 371.5 L 58 371.5 L 58.5 361 Z "/>
    <path fill="#ffffff" d="M 455.5 362 L 456 377.5 L 455 377.5 L 455.5 362 Z "/>
    <path fill="#ffffff" d="M 59.5 375 L 60 381.5 L 59 381.5 L 59.5 375 Z "/>
    <path fill="#ffffff" d="M 454.5 380 L 455 389.5 L 454 389.5 L 454.5 380 Z "/>
    <path fill="#ffffff" d="M 60.5 386 L 62 396.5 L 61 396.5 L 60.5 386 Z "/>
    <path fill="#ffffff" d="M 453.5 392 L 454 397.5 L 453 397.5 L 453.5 392 Z "/>
    <path fill="#ffffff" d="M 452.5 401 L 453 405.5 L 452 405.5 L 452.5 401 Z "/>
    <path fill="#ffffff" d="M 63.5 403 L 65 409.5 L 64 409.5 L 63.5 403 Z "/>
    <path fill="#ffffff" d="M 451.5 407 L 452 410.5 L 450.5 413 L 450 411.5 L 451.5 407 Z "/>
    <path fill="#ffffff" d="M 66.5 414 L 73 422.5 L 67 417.5 L 66.5 414 Z "/>
    <path fill="#ffffff" d="M 449.5 414 L 450 415.5 L 440.5 424 L 441.5 422 L 449 415.5 L 449.5 414 Z "/>
    <path fill="#ffffff" d="M 74.5 423 L 78 425.5 L 76.5 425 L 74.5 423 Z "/>
    <path fill="#ffffff" d="M 438.5 424 L 437.5 426 L 435.5 427 L 436.5 425 L 438.5 424 Z "/>
    <path fill="#ffffff" d="M 81.5 427 L 85 428.5 L 83.5 429 L 81.5 427 Z "/>
    <path fill="#ffffff" d="M 86.5 429 L 93 431.5 L 91.5 432 L 86.5 430 L 86.5 429 Z "/>
    <path fill="#ffffff" d="M 428.5 429 L 430 429.5 L 424.5 432 L 424.5 431 L 428.5 429 Z "/>
    <path fill="#ffffff" d="M 97.5 433 L 103 434.5 L 100.5 435 L 97.5 434 L 97.5 433 Z "/>
    <path fill="#ffffff" d="M 417.5 433 L 420 433.5 L 415.5 435 L 415.5 434 L 417.5 433 Z "/>
    <path fill="#ffffff" d="M 408.5 436 L 410 436.5 L 405.5 438 L 405.5 437 L 408.5 436 Z "/>
    <path fill="#ffffff" d="M 119.5 439 L 126 440.5 L 123.5 441 L 119.5 440 L 119.5 439 Z "/>
    <path fill="#ffffff" d="M 397.5 439 L 400 439.5 L 393.5 441 L 393.5 440 L 397.5 439 Z "/>
    <path fill="#ffffff" d="M 134.5 442 L 143 443.5 L 138.5 444 L 134.5 443 L 134.5 442 Z "/>
    <path fill="#ffffff" d="M 383.5 442 L 387 442.5 L 378.5 444 L 378.5 443 L 383.5 442 Z "/>
    <path fill="#ffffff" d="M 150.5 445 L 155 445.5 L 150.5 446 L 150.5 445 Z "/>
    <path fill="#ffffff" d="M 365.5 445 L 370 445.5 L 359.5 447 L 359.5 446 Q 364.2 447.2 365.5 445 Z "/>
    <path fill="#ffffff" d="M 156.5 446 L 162 446.5 L 156.5 447 L 156.5 446 Z "/>
    <path fill="#ffffff" d="M 164.5 447 L 170 447.5 L 164.5 448 L 164.5 447 Z "/>
    <path fill="#ffffff" d="M 352.5 447 L 357 447.5 L 352.5 448 L 352.5 447 Z "/>
    <path fill="#ffffff" d="M 174.5 448 L 190 449.5 L 181.5 450 Q 180 447.5 174.5 449 L 174.5 448 Z "/>
    <path fill="#ffffff" d="M 341.5 448 L 348 448.5 L 332.5 450 L 332.5 449 L 340.5 449 L 341.5 448 Z "/>
    <path fill="#ffffff" d="M 194.5 450 L 202 450.5 L 194.5 451 L 194.5 450 Z "/>
    <path fill="#ffffff" d="M 321.5 450 L 329 450.5 L 321.5 451 L 321.5 450 Z "/>
    <path fill="#ffffff" d="M 209.5 451 L 222 451.5 L 209.5 452 L 209.5 451 Z "/>
    <path fill="#ffffff" d="M 300.5 451 L 314 451.5 L 300.5 452 L 300.5 451 Z "/>
    <path fill="#ffffff" d="M 223.5 452 L 256 452.5 L 223.5 453 L 223.5 452 Z "/>
    <path fill="#ffffff" d="M 266.5 452 L 299 452.5 L 266.5 453 L 266.5 452 Z "/>
    <path fill="#ffd43b" d="M 252 74 Q 255.7 72.5 255 75.5 Q 264.6 84.9 267 101.5 L 265 108.5 L 259.5 114 Q 256 116.5 248.5 115 L 243 110.5 Q 239.2 107.3 240 99.5 L 252 74 Z "/>
    <path fill="#ffd43b" d="M 268.5 443 L 273 443.5 L 268.5 444 L 268.5 443 Z "/>
    <path fill="#ff6b6b" d="M 350.5 162 L 359 163 Q 357.9 165.7 360.5 165 Q 362.2 162.3 364 166.5 L 364.5 168 Q 365.8 165.8 367 168.5 L 366 170.5 L 369 171.5 L 368 173.5 L 370.5 178 L 372 177.5 Q 369.3 179.3 371 185.5 L 366 192.5 L 366.5 194 L 364.5 193 L 364.5 195 L 362.5 196 L 361.5 195 L 343.5 195 L 342 195.5 L 342.5 194 L 339.5 195 L 339.5 193 L 337.5 194 L 335 189.5 L 334.5 188 L 333 188.5 L 336 173.5 L 335.5 172 Q 336.8 174.3 338 171.5 L 339 169.5 L 338.5 168 Q 342.3 168.8 343 166.5 L 342.5 165 L 344.5 166 L 344.5 164 L 347 165 Q 345.9 162.3 348.5 163 Q 350 165.5 355.5 164 L 355.5 163 Q 349.5 164.2 350.5 162 Z "/>
    <path fill="#ffa94d" d="M 242.5 141 L 265.5 141 L 268 143.5 L 269 152.5 L 268 154.5 L 269 155.5 L 269 178.5 L 269 180.5 L 268 193.5 L 266.5 195 L 241.5 195 L 241 193.5 L 240 192.5 L 240 173.5 L 239 171.5 L 239 169.5 L 239 143.5 L 240.5 142 L 242.5 141 Z "/>
    <path fill="#ffa94d" d="M 129.5 281 L 131.5 281 Q 137.8 279.3 139.5 282 L 141.5 282 L 149.5 284 L 174.5 299 L 190.5 306 L 192.5 306 L 201.5 308 L 212.5 308 L 227.5 304 L 260.5 289 L 275.5 289 L 284.5 292 L 301.5 301 L 307.5 302 L 309.5 304 L 323.5 307 L 335.5 307 L 353.5 301 L 380.5 284 L 389.5 281 L 400.5 281 L 409.5 284 L 413.5 284 L 423.5 288 L 425.5 288 L 433.5 290 L 435.5 289 L 440.5 290 L 442.5 290 L 446 289 L 447 293.5 L 446 297.5 L 447 298.5 L 447 362.5 L 446 364.5 L 446 366.5 L 446 382.5 L 445 383.5 L 445 385.5 L 443 406.5 L 438.5 414 L 428.5 420 L 406.5 428 Q 405 425.5 403.5 429 L 365.5 437 L 342.5 439 L 334.5 441 L 332.5 441 L 318.5 441 L 317.5 442 L 304.5 442 L 302.5 443 L 298.5 442 L 297.5 443 L 281.5 443 L 278.5 444 L 276.5 443 L 273.5 444 L 268.5 443 L 266.5 444 L 264.5 443 L 263.5 444 L 254.5 444 L 252.5 444 L 243.5 443 L 241.5 444 L 240.5 443 L 226.5 443 L 225.5 442 L 223.5 443 L 219.5 442 L 217.5 442 L 204.5 442 L 203.5 441 L 201.5 441 L 188.5 441 L 187.5 440 L 185.5 440 L 170.5 439 L 157.5 436 L 153.5 436 L 143.5 435 Q 137.8 431.7 128.5 432 L 124.5 430 L 114.5 429 L 107.5 426 L 103.5 426 L 80.5 417 L 76 413.5 L 70 391.5 L 70 389.5 L 69 374.5 L 67 366.5 L 67 352.5 L 66 350.5 L 66 348.5 L 65 320.5 L 66 316.5 Q 63.3 314.8 65 308.5 L 66 304.5 Q 63.5 303 65 297.5 L 67.5 296 L 71.5 298 L 73.5 297 Q 75 299.5 80.5 298 L 91.5 296 L 111.5 287 L 129.5 281 Z "/>
    <path fill="#9775fa" d="M 223.5 176 Q 229.5 174.5 231 177.5 L 232 197.5 L 234.5 202 L 241.5 204 L 263.5 204 L 273.5 202 L 276 199.5 L 277 197.5 L 277 178.5 L 278 176 L 292.5 176 L 293.5 177 L 320.5 177 L 325 179.5 Q 322.3 181.3 324 187.5 Q 325.8 196.8 332.5 201 L 343.5 205 L 360.5 205 Q 371 203 377 196.5 Q 381 191.3 381 183 L 389.5 183 L 395.5 185 L 408.5 186 L 432.5 192 L 448.5 199 L 456 205.5 Q 467.6 222.4 467 251.5 L 464 263.5 L 454.5 276 L 446.5 280 L 429.5 280 L 410.5 274 L 393.5 272 Q 391.8 274.7 385.5 273 L 376.5 276 L 342.5 296 L 334.5 298 L 322.5 298 L 307.5 294 Q 293.7 285.3 276.5 280 L 261.5 280 L 245.5 285 L 220.5 297 L 210.5 299 L 201.5 299 L 186.5 295 L 147.5 274 L 132.5 272 L 110.5 278 L 87.5 288 L 75.5 289 Q 74.3 286.7 69.5 288 L 60.5 284 L 55 278.5 L 48 265.5 L 46 244.5 L 47 243.5 L 48 230.5 L 51 220.5 Q 54.3 210.8 61.5 205 L 80.5 195 L 113.5 186 Q 124 186 131.5 183 L 138.5 183 L 139.5 182 L 146.5 182 L 147.5 181 L 154.5 181 L 155.5 180 L 181.5 179 L 182.5 178 L 193.5 178 L 194.5 177 L 222.5 177 L 223.5 176 Z M 430 213 L 423 218 L 415 221 L 387 227 L 371 228 L 355 231 L 341 231 L 340 232 L 330 232 L 329 233 L 315 233 L 314 234 L 290 234 L 289 235 L 212 235 L 211 234 L 186 234 L 185 233 L 171 233 L 170 232 L 139 230 L 132 228 L 119 227 L 99 222 L 85 214 L 80 215 L 79 219 L 80 222 Q 89 229 102 232 L 127 237 L 152 239 L 153 240 L 162 240 L 163 241 L 196 242 L 197 243 L 218 243 L 219 244 L 285 244 L 286 243 L 305 243 L 306 242 L 338 241 L 339 240 L 359 239 L 360 238 L 371 238 L 372 237 L 379 237 L 385 235 L 391 235 L 412 231 L 433 222 Q 436 221 435 216 Q 434 212 430 213 Z "/>
    <path fill="#f783ac" d="M 349.5 163 L 356 163.5 L 349.5 164 L 349.5 163 Z "/>
    <path fill="#f783ac" d="M 345.5 164 L 347 164.5 L 340.5 168 L 341.5 166 L 345.5 164 Z "/>
    <path fill="#f783ac" d="M 364.5 167 Q 373 172 372 186.5 L 367.5 193 L 364.5 194 L 364.5 193 L 369 189.5 Q 372.2 186.2 371 178.5 L 364.5 167 Z "/>
    <path fill="#f783ac" d="M 338.5 169 L 338 170.5 L 334 179.5 L 334 187.5 L 338.5 193 L 343.5 195 L 361.5 195 L 363 194.5 L 357.5 197 L 355.5 197 L 349.5 196 L 347.5 196 Q 338.1 195.9 334 190.5 L 333 178.5 L 338.5 169 Z "/>
  </g>
  <g id="line">
    <path fill="#1a1a1a" d="M 250.5 59 L 256 61.5 Q 266.3 72.7 273 87.5 L 275 95.5 L 275 107.5 Q 272.6 116.5 265.5 121 L 257.5 124 L 248.5 124 L 237 117.5 Q 230.2 111.3 232 96.5 L 234 89.5 L 245 69.5 L 246 62.5 L 248.5 60 L 250.5 59 Z M 252 74 L 240 100 Q 239 107 243 111 L 249 115 Q 256 117 260 114 L 265 109 L 267 102 Q 265 85 255 76 Q 256 73 252 74 Z "/>
    <path fill="#1a1a1a" d="M 245.5 132 L 270.5 133 L 276 136.5 L 277 139.5 L 277 165.5 L 278.5 167 L 328 169 L 334.5 160 L 346.5 154 L 359.5 154 Q 369.8 156.8 375 164.5 L 379.5 173 L 402.5 176 L 430.5 182 L 449.5 189 L 459 195 L 460.5 198 Q 462.8 197.3 462 199.5 L 465 202.5 L 472 218.5 L 475 233.5 L 476 247.5 L 475 248.5 L 475 256.5 L 472 266.5 Q 468.7 276.2 461.5 282 L 455 286.5 L 455 296.5 L 456 297.5 L 456 361.5 L 455 362.5 L 455 379.5 L 454 380.5 L 454 391.5 L 453 392.5 L 452 406.5 Q 450.4 417.4 442.5 422 L 430.5 429 L 411.5 436 L 372.5 445 L 365.5 445 L 351.5 448 L 332.5 449 L 331.5 450 L 321.5 450 L 320.5 451 L 256.5 453 L 255.5 452 L 222.5 452 L 221.5 451 L 190.5 450 L 189.5 449 L 170.5 448 L 169.5 447 L 148.5 445 L 137.5 442 L 131.5 442 L 106.5 436 L 85.5 429 Q 74.3 425.7 68 417.5 L 65 410.5 L 60 385.5 L 59 361.5 L 58 360.5 L 58 350.5 L 57 349.5 L 57 328.5 L 56 327.5 L 56 291.5 L 54.5 290 L 48 284.5 Q 41.7 276.8 39 265.5 L 37 249.5 L 38 248.5 L 39 230.5 L 43 216.5 Q 47.4 203.9 57.5 197 L 79.5 186 L 91.5 182 L 95.5 182 L 103.5 179 L 108.5 179 L 118.5 176 L 124.5 176 L 138.5 173 L 156.5 172 L 157.5 171 L 166.5 171 L 167.5 170 L 220.5 168 L 221.5 167 L 229.5 167 L 231 165.5 L 230 163.5 L 230 139.5 L 233.5 134 L 244.5 133 L 245.5 132 Z M 242 141 L 239 142 L 239 173 L 240 174 L 240 193 L 241 194 L 242 195 L 267 195 L 268 194 Q 267 188 269 187 L 269 152 L 268 151 L 268 142 L 266 141 L 242 141 Z M 351 162 L 338 168 L 334 175 L 332 183 L 334 191 L 340 195 L 348 197 Q 360 199 367 194 L 372 187 L 372 178 L 367 169 Q 362 162 351 162 Z M 224 176 L 223 177 L 195 177 L 194 178 L 183 178 L 182 179 L 156 180 L 155 181 L 148 181 L 147 182 L 140 182 L 139 183 L 132 183 Q 124 186 114 186 L 81 195 L 62 205 Q 54 211 51 221 L 48 231 L 47 244 L 46 245 L 48 266 L 55 279 L 61 284 L 70 288 Q 74 287 76 289 L 88 288 L 111 278 L 133 272 L 148 274 L 187 295 L 202 299 L 211 299 L 221 297 L 246 285 L 262 280 L 277 280 Q 294 285 308 294 L 323 298 L 335 298 L 343 296 L 377 276 L 386 273 Q 392 275 394 272 L 411 274 L 430 280 L 447 280 L 455 276 L 464 264 L 467 252 Q 468 222 456 206 L 449 199 L 433 192 L 409 186 L 396 185 L 390 183 L 381 183 Q 381 191 377 197 Q 371 203 361 205 L 344 205 L 333 201 Q 326 197 324 188 Q 322 181 325 180 L 321 177 L 294 177 L 293 176 L 278 176 L 277 179 L 277 198 L 276 200 L 274 202 L 264 204 L 242 204 L 235 202 L 232 198 L 231 178 Q 229 175 224 176 Z M 130 281 L 91 296 L 80 297 L 79 298 L 68 296 L 65 298 L 65 328 L 66 329 L 67 367 L 69 375 L 70 393 L 76 414 L 85 419 L 104 426 L 142 435 L 170 438 L 178 440 L 186 440 L 187 441 L 217 442 L 218 443 L 241 443 L 242 444 L 305 443 L 306 442 L 335 441 L 352 438 L 368 437 L 373 435 L 378 435 L 383 433 L 397 431 L 401 429 L 405 429 L 437 416 Q 441 413 443 407 L 445 387 L 446 386 L 446 367 L 447 366 L 447 292 L 446 289 L 441 290 L 421 287 L 402 281 L 390 281 L 381 284 L 351 302 L 334 307 L 324 307 L 314 305 L 276 289 L 261 289 L 228 304 L 210 308 L 202 308 L 186 304 L 175 299 L 150 284 L 141 281 L 130 281 Z "/>
    <path fill="#1a1a1a" d="M 429.5 213 Q 434.3 212.3 435 215.5 Q 435.6 220.6 432.5 222 L 411.5 231 L 390.5 235 L 384.5 235 L 378.5 237 L 371.5 237 L 370.5 238 L 359.5 238 L 358.5 239 L 338.5 240 L 337.5 241 L 305.5 242 L 304.5 243 L 285.5 243 L 284.5 244 L 218.5 244 L 217.5 243 L 196.5 243 L 195.5 242 L 162.5 241 L 161.5 240 L 152.5 240 L 151.5 239 L 126.5 237 L 101.5 232 Q 88.9 228.6 80 221.5 L 79 218.5 L 80 215 L 84.5 214 L 98.5 222 L 118.5 227 L 131.5 228 L 138.5 230 L 169.5 232 L 170.5 233 L 184.5 233 L 185.5 234 L 210.5 234 L 211.5 235 L 288.5 235 L 289.5 234 L 313.5 234 L 314.5 233 L 328.5 233 L 329.5 232 L 339.5 232 L 340.5 231 L 354.5 231 L 370.5 228 L 386.5 227 L 414.5 221 L 422.5 218 L 429.5 213 Z "/>
  </g>
</svg>
