<svg xmlns="http://www.w3.org/2000/svg" width="512" height="512" viewBox="0 0 512 512">
  <g id="color">
    <path fill="#ffffff" d="M 184.5 107 L 190 107.5 L 184.5 108 L 184.5 107 Z "/>
    <path fill="#ffffff" d="M 317.5 107 L 337 107.5 L 317.5 108 L 317.5 107 Z "/>
    <path fill="#ffffff" d="M 350.5 110 L 357 112.5 L 355.5 113 L 350.5 111 L 350.5 110 Z "/>
    <path fill="#ffffff" d="M 209.5 111 L 213 112.5 L 211.5 113 L 209.5 111 Z "/>
    <path fill="#ffffff" d="M 298.5 111 L 301 111.5 L 296.5 113 L 296.5 112 L 298.5 111 Z "/>
    <path fill="#ffffff" d="M 288.5 115 L 290 115.5 L 285.5 118 L 286.5 116 L 288.5 115 Z "/>
    <path fill="#ffffff" d="M 371.5 119 L 375 121.5 L 373.5 121 L 371.5 119 Z "/>
    <path fill="#ffffff" d="M 228.5 120 L 232 122.5 L 230.5 122 L 228.5 120 Z "/>
    <path fill="#ffffff" d="M 279.5 120 L 278.5 122 L 276.5 123 L 277.5 121 L 279.5 120 Z "/>
    <path fill="#ffffff" d="M 137.5 124 L 136.5 126 L 134.5 127 L 135.5 125 L 137.5 124 Z "/>
    <path fill="#ffffff" d="M 272.5 124 L 271.5 126 L 269.5 127 L 270.5 125 L 272.5 124 Z "/>
    <path fill="#ffffff" d="M 264.5 128 L 266 128.5 L 262.5 130 L 262.5 129 L 264.5 128 Z "/>
    <path fill="#ffffff" d="M 245.5 129 L 250 130.5 L 247.5 131 L 245.5 129 Z "/>
    <path fill="#ffffff" d="M 298.5 216 L 307.5 216 L 315 218 Q 318.8 225.8 317 240.5 Q 314.3 250.3 306.5 255 L 290.5 260 L 275.5 260 Q 268.5 258.5 265 253.5 L 263 247.5 L 260.5 245 L 253.5 244 L 244.5 257 L 239.5 260 L 234.5 261 L 213.5 261 Q 201.7 258.8 196 250.5 L 191 239.5 L 191 224.5 Q 199.9 217.4 218.5 220 L 245.5 227 L 263.5 227 L 298.5 216 Z "/>
    <path fill="#ffffff" d="M 43.5 223 L 42 225.5 L 40.5 228 L 41 226.5 L 43.5 223 Z "/>
    <path fill="#ffffff" d="M 476.5 229 L 477 239.5 L 476 239.5 L 476.5 229 Z "/>
    <path fill="#ffffff" d="M 37.5 232 L 38 233.5 L 36.5 242 L 36 234.5 L 37.5 232 Z "/>
    <path fill="#ffffff" d="M 41.5 251 L 44 254.5 L 42 253.5 L 41.5 251 Z "/>
    <path fill="#ffffff" d="M 467.5 269 L 468 270.5 L 466.5 273 L 466 271.5 L 467.5 269 Z "/>
    <path fill="#ffffff" d="M 323.5 275 Q 332.5 274 337 276 L 341 283.5 L 341 293.5 L 338.5 297 Q 334.4 301.9 323.5 300 Q 316.8 297.8 313 292.5 L 307 282.5 L 311.5 279 L 323.5 275 Z "/>
    <path fill="#ffffff" d="M 463.5 280 L 464 281.5 L 462.5 284 L 462 282.5 L 463.5 280 Z "/>
    <path fill="#ffffff" d="M 458.5 292 L 459 293.5 L 456.5 298 L 456 296.5 L 458.5 292 Z "/>
    <path fill="#ffffff" d="M 444.5 320 L 444 321.5 L 442.5 324 L 443 322.5 L 444.5 320 Z "/>
    <path fill="#ffffff" d="M 138.5 357 L 142 359.5 L 140.5 359 L 138.5 357 Z "/>
    <path fill="#ffffff" d="M 175.5 376 L 179 377.5 L 177.5 378 L 175.5 376 Z "/>
    <path fill="#ffffff" d="M 380.5 384 L 379.5 386 L 377.5 387 L 378.5 385 L 380.5 384 Z "/>
    <path fill="#ffffff" d="M 202.5 385 L 208 386.5 L 205.5 387 L 202.5 386 L 202.5 385 Z "/>
    <path fill="#ffffff" d="M 344.5 399 L 347 399.5 L 341.5 401 L 341.5 400 L 344.5 399 Z "/>
    <path fill="#ffffff" d="M 283.5 403 L 288 403.5 L 283.5 404 L 283.5 403 Z "/>
    <path fill="#ffffff" d="M 323.5 403 L 329 403.5 L 323.5 404 L 323.5 403 Z "/>
    <path fill="#ffffff" d="M 290.5 404 L 301 404.5 L 290.5 405 L 290.5 404 Z "/>
    <path fill="#ffffff" d="M 310.5 404 L 322 404.5 L 310.5 405 L 310.5 404 Z "/>
    <path fill="#ffd43b" d="M 457.5 245 Q 460.9 244.1 459 249.5 L 446 286.5 L 431 315.5 Q 417 338 397.5 355 Q 376.8 373.8 347.5 384 L 333.5 388 L 319.5 389 L 318.5 390 L 291.5 390 L 290.5 389 L 269.5 387 L 252 383 Q 253.5 379.2 250.5 380 L 236 366.5 L 226 347.5 Q 226.6 341.4 224 338.5 L 224 330.5 L 223 329.5 L 223 318.5 L 228 297.5 Q 232.9 286.4 241.5 279 L 248 274.5 L 248.5 273 L 267.5 273 Q 284.9 277.1 294 289.5 L 302 301.5 L 307.5 307 L 321.5 314 L 335.5 314 Q 345.9 311.9 351 304.5 L 355 296.5 L 356 286.5 L 354 277.5 L 351 272.5 L 357.5 270 L 382.5 269 L 400.5 265 L 418.5 257 L 426.5 251 L 439.5 250 L 457.5 245 Z "/>
    <path fill="#ff6b6b" d="M 184.5 122 L 195.5 124 L 198.5 123 Q 200 126.5 201.5 124 L 203 124.5 L 202.5 126 L 204.5 125 L 205.5 127 L 208 126 L 208.5 128 L 210 127.5 L 210.5 129 L 212 128.5 L 212.5 130 L 214.5 129 L 220 132 L 220.5 134 Q 222 131.5 223.5 135 Q 225.8 134.3 225 136.5 L 227 136.5 L 226.5 138 L 228.5 137 L 230.5 140 L 232 139.5 L 232.5 141 L 233.5 140 Q 235.3 143.1 237 141.5 L 237.5 143 L 239.5 143 Q 242.8 141.9 242 144.5 L 243.5 144 L 246.5 146 L 248.5 145 L 252.5 147 L 255.5 146 L 257.5 147 L 262.5 145 L 264 145.5 Q 263.3 143.3 265.5 144 L 267 144.5 Q 266.2 141.9 269.5 143 L 274.5 140 L 276 140.5 L 276.5 139 L 278 139.5 L 279.5 137 L 281 137.5 L 281.5 136 L 283.5 136 L 285 135.5 L 284.5 134 L 290.5 131 L 292 131.5 Q 291.3 129.3 293.5 130 L 299.5 127 L 301 127.5 Q 300.3 125.3 302.5 126 L 304 126.5 Q 303.2 123.9 306.5 125 L 312.5 123 L 314.5 124 Q 316.8 120.8 323.5 122 L 324.5 123 L 332.5 123 L 334.5 122 L 337.5 124 L 342.5 123 Q 344 126.5 345.5 124 L 350 125 L 350.5 127 L 352 126.5 L 352.5 128 L 354 127.5 Q 353.3 129.8 355.5 129 L 357 128.5 L 357.5 130 L 359.5 130 Q 361.8 129.3 361 131.5 L 363 131.5 L 363.5 133 L 365 132.5 L 365.5 134 Q 367.3 131.3 369 135.5 L 369.5 137 L 371 136.5 L 372.5 139 Q 373.7 136.8 375 139.5 L 376.5 142 L 378 141.5 Q 377.3 143.8 379.5 143 L 383.5 148 Q 385.3 145.3 387 149.5 Q 384.8 150.8 387.5 152 L 388.5 151 L 400 162.5 L 399.5 164 L 402.5 166 L 408 171.5 L 408 174 L 414 178.5 Q 412.9 181.8 415.5 181 Q 419.8 182.3 419 187 L 424 190.5 L 426 195 L 432 199.5 Q 429.8 200.8 432.5 202 L 439 207.5 Q 436.2 209.2 440.5 211 L 458 227.5 L 456 231 L 453.5 230 L 453 232 L 450.5 231 L 445.5 234 L 442 233 Q 443.3 236 439.5 235 L 436 234 Q 437.3 237.3 432.5 236 L 431.5 235 L 423.5 235 Q 421.8 238.7 414.5 237 L 411.5 235 L 409.5 235 L 404.5 236 L 404.5 234 L 400.5 235 L 397.5 233 L 395.5 234 L 392.5 232 L 390 233 Q 391.1 230.3 388.5 231 L 386.5 232 L 383 231 Q 384.1 228.3 381.5 229 L 379.5 230 L 365 225 L 364.5 223 L 362.5 224 L 360 223 L 359.5 221 L 357 222 L 356.5 220 L 354.5 220 L 351.5 218 L 350 218.5 L 349.5 217 L 348 217.5 L 347.5 216 L 345.5 216 L 340.5 213 L 339 213.5 L 338.5 212 L 336.5 212 L 333 211 L 332.5 209 L 331 209.5 L 330.5 208 L 329 208.5 L 328.5 207 L 326.5 208 L 316.5 203 L 314.5 204 L 314.5 202 L 309.5 203 L 304.5 201 L 300.5 202 L 296 201 Q 297.3 204 293.5 203 L 291 202 Q 292.3 205 288.5 204 L 280.5 207 L 279 206.5 Q 279.8 208.8 277.5 208 L 276 207.5 Q 276.8 209.8 274.5 209 L 272.5 208 L 272.5 210 L 270.5 209 L 270 211 L 267.5 210 L 263.5 212 L 260.5 211 L 260.5 213 L 258.5 212 L 257.5 213 L 247.5 213 L 247.5 211 L 242 212 L 241.5 210 L 238.5 211 Q 237 207.5 235.5 210 L 232.5 208 L 230.5 209 L 230.5 207 L 226.5 208 Q 225 204.5 223.5 207 L 219.5 205 L 215.5 206 L 214.5 205 L 206.5 205 L 201.5 206 L 200 205.5 Q 200.8 208.1 197.5 207 Q 196 204.5 194.5 208 L 191 207 L 190.5 209 L 188 208 Q 189.1 210.7 186.5 210 L 185 209.5 Q 185.8 211.8 183.5 211 L 182 210.5 L 181.5 212 L 180 211.5 Q 180.8 213.8 178.5 213 L 176.5 214 L 175 213.5 Q 175.8 215.8 173.5 215 Q 170.5 218 164.5 218 L 154.5 224 L 153 223.5 L 152.5 225 L 151 224.5 Q 151.8 226.8 149.5 226 L 148 225.5 Q 148.8 227.8 146.5 227 L 144 227.5 Q 144.8 230.1 141.5 229 L 139 229.5 L 138.5 231 L 136.5 230 L 136.5 232 L 129.5 234 L 128 233.5 Q 128.8 235.8 126.5 235 L 125.5 234 Q 123.8 237.1 122 235.5 Q 122.8 237.8 120.5 237 L 118 236 Q 119.1 238.7 116.5 238 L 114.5 237 L 110.5 239 L 108 238 Q 109.1 240.7 106.5 240 L 103.5 239 L 100 239.5 L 102 240.5 L 99.5 241 L 97.5 241 L 88.5 241 L 87.5 240 Q 86 242.5 80.5 241 L 80.5 239 L 73 240 Q 74.3 236.7 69.5 238 Q 68 240.5 66.5 237 L 62.5 238 L 59.5 236 L 57 237 Q 58.1 234.3 55.5 235 L 54.5 233 L 57 231.5 Q 54.3 229.7 58.5 228 L 60 227.5 L 59 226.5 L 62 223.5 L 63.5 221 Q 66.1 221.8 65 218.5 L 69 215.5 Q 66.8 214.3 69.5 213 L 72 211.5 Q 71.5 207.5 74.5 207 L 77 205.5 Q 74.3 203.7 78.5 202 L 81 200.5 Q 78.3 198.8 82.5 197 L 85 195.5 L 84.5 194 L 87 192.5 L 88.5 190 L 90 189.5 L 89 188.5 L 96.5 181 Q 98.8 181.8 98 179.5 L 102.5 174 L 105 172.5 L 120.5 156 L 126 152.5 L 130.5 147 L 132 147.5 L 134.5 144 L 136 144.5 L 137.5 142 L 141.5 139 L 143 139.5 L 144.5 137 L 146 137.5 L 147.5 135 L 149 135.5 L 150.5 133 L 152.5 132 L 154 132.5 Q 153.3 130.3 155.5 131 L 158 130.5 L 158.5 129 L 160 129.5 L 160.5 128 Q 162 130.5 163.5 127 L 166.5 126 L 168 126.5 L 168.5 125 L 171 126 L 171.5 124 L 173.5 124 L 177.5 123 L 180.5 124 L 184.5 122 Z M 326 142 L 313 145 L 308 152 L 308 155 L 312 162 Q 315 161 317 164 Q 322 166 324 163 Q 335 162 343 165 L 361 176 L 362 179 Q 361 182 365 180 L 367 184 Q 374 186 378 183 L 381 179 L 381 170 L 379 168 Q 380 165 378 166 L 375 162 L 373 161 Q 370 162 371 160 Q 363 151 351 146 Q 347 147 348 145 L 347 145 L 344 144 L 342 144 L 334 142 L 326 142 Z "/>
    <path fill="#ff6b6b" d="M 63.5 252 L 63.5 254 L 65.5 253 L 67.5 253 L 76.5 254 L 80.5 256 L 82.5 255 L 88.5 257 L 92 256 L 92.5 258 L 95.5 257 L 99.5 259 L 102.5 258 Q 104 261.5 105.5 259 L 110.5 261 L 113.5 260 L 117.5 262 L 125 261 L 125.5 263 L 127.5 262 L 128.5 263 L 139.5 263 L 141.5 262 L 143 262.5 L 143.5 261 L 150.5 261 L 153.5 262 Q 154.9 259.4 159.5 260 L 161.5 261 Q 162.9 258.4 167.5 259 L 169.5 259 L 174.5 258 L 176.5 259 L 176.5 257 L 185 258 Q 183.5 261.7 186.5 261 L 195 268.5 L 195.5 270 L 197.5 270 L 201 271.5 L 200.5 273 L 202.5 272 L 203.5 274 Q 205 271.5 206.5 275 L 209.5 274 L 212.5 276 L 218 275 L 218.5 277 L 222.5 276 L 225 277 L 225.5 275 L 232.5 275 L 235.5 276 L 238 275.5 Q 237.2 272.9 240.5 274 L 242.5 274 L 245.5 273 L 242.5 277 L 232 286.5 L 227 295.5 L 223 307.5 Q 224.2 312.2 222 313.5 L 222 333.5 L 223 334.5 L 223 342.5 L 225 345.5 L 227 354.5 L 236 370 L 239 371.5 L 244.5 378 L 248 380.5 L 247.5 382 L 244.5 381 Q 240.3 381.8 239.5 379 L 237.5 380 Q 236 376.5 234.5 379 L 233 378.5 L 233.5 377 L 229.5 378 L 229.5 377 L 231 376.5 L 228.5 376 L 225 377 L 224.5 375 L 221 376 Q 222.1 373.3 219.5 374 L 217.5 375 Q 216 371.5 214.5 374 Q 212.3 374.8 213 372.5 L 211.5 373 L 210 372.5 L 210.5 371 L 207.5 372 L 205.5 370 L 201.5 370 L 198.5 368 L 196.5 369 L 189.5 365 L 187.5 365 L 183 364 L 182.5 362 L 180 363 L 179.5 361 L 178.5 362 Q 176.8 358.9 175 360.5 L 174.5 359 L 172 360 L 171.5 358 L 169.5 358 Q 167.3 358.8 168 356.5 L 166 356.5 L 165.5 355 L 164 355.5 L 163.5 354 L 161.5 354 L 155.5 350 Q 154.3 352.3 153 349.5 L 152.5 348 L 151 348.5 L 150.5 347 Q 149 349.5 147.5 346 L 145 344.5 L 144.5 343 Q 143 345.5 141.5 342 L 139 340.5 L 138.5 339 Q 137 341.5 135.5 338 L 132 335.5 L 130.5 333 Q 129.3 335.3 128 332.5 L 126.5 330 L 125.5 331 L 121 326.5 Q 121.8 323.9 118.5 325 L 96 302.5 Q 98.3 301.3 95.5 300 L 91 296.5 Q 86 293 85 287 Q 82 288.3 83 284.5 L 79 281.5 L 74 274.5 Q 76.2 273.3 73.5 272 L 72 272 Q 73.5 268.3 70.5 269 L 69.5 266 L 67 264.5 L 64 260.5 L 64.5 259 L 62 257.5 L 62.5 256 L 61 255.5 L 63.5 252 Z "/>
    <path fill="#ffa94d" d="M 246.5 273 Q 248.8 272.3 248 274.5 L 236 284.5 L 231 291.5 L 226 303.5 L 223 318.5 L 223 329.5 L 224 330.5 L 224 338.5 Q 226.6 341.4 226 347.5 L 232 360.5 Q 238.5 371.5 248.5 379 L 252 380 L 251.5 383 L 248 382 L 245.5 378 L 239 372.5 L 237.5 370 Q 235.3 370.8 236 368.5 L 230 360.5 L 223 342.5 L 222 313.5 L 228 293.5 Q 232.7 283.2 241.5 277 L 246.5 273 Z "/>
    <path fill="#f783ac" d="M 324.5 122 L 333 122.5 L 324.5 123 L 324.5 122 Z "/>
    <path fill="#f783ac" d="M 225.5 136 L 229 138.5 L 227.5 138 L 225.5 136 Z "/>
    <path fill="#f783ac" d="M 325.5 142 L 333.5 142 L 341.5 144 L 343.5 144 L 346.5 145 L 348 144.5 Q 347.2 147.1 350.5 146 Q 362.7 150.8 371 159.5 Q 370.3 161.8 372.5 161 L 375 162 L 377.5 166 Q 379.8 165.3 379 167.5 L 381 169.5 L 381 178.5 L 377.5 183 Q 374 185.5 366.5 184 L 365 180 Q 361.2 181.5 362 178.5 L 361 176 L 342.5 165 Q 335.3 161.7 323.5 163 Q 322 165.5 316.5 164 Q 315.4 161.3 312 162 L 308 154.5 L 308 151.5 L 312.5 145 L 325.5 142 Z "/>
    <path fill="#f783ac" d="M 382.5 146 L 388 150 L 387.5 152 L 382.5 146 Z "/>
    <path fill="#f783ac" d="M 402.5 234 L 410 235.5 L 405.5 236 L 402.5 235 L 402.5 234 Z "/>
    <path fill="#f783ac" d="M 423.5 235 L 432 235.5 L 422.5 237 L 423.5 235 Z "/>
    <path fill="#f783ac" d="M 60 252 L 65 253.5 L 63.5 254 L 62 253.5 L 61.5 255 L 60 252 Z "/>
    <path fill="#f783ac" d="M 128.5 262 L 140 262.5 L 128.5 263 L 128.5 262 Z "/>
    <path fill="#f783ac" d="M 228.5 376 L 234 377.5 L 231.5 378 L 228.5 377 L 228.5 376 Z "/>
  </g>
  <g id="line">
    <path fill="#1a1a1a" d="M 179.5 108 L 195.5 108 L 205.5 110 L 216.5 114 L 247.5 131 L 260.5 131 L 292.5 114 L 304.5 110 L 314.5 108 L 338.5 108 L 349.5 110 L 360.5 114 L 375.5 122 Q 397.6 136.4 414 156.5 Q 441 192 473 222.5 Q 478 228 476 240.5 Q 466 281.5 448 314.5 L 436 333.5 L 418 356 L 415 357.5 L 412.5 361 Q 388.7 384.2 354.5 397 L 330.5 403 L 301.5 405 L 300.5 404 L 288.5 404 L 287.5 403 L 272.5 402 L 247.5 397 L 197.5 384 L 171.5 375 Q 120 352.5 86 312.5 Q 63.5 287 45 257.5 L 38 245.5 L 37 234.5 L 39 229.5 L 49 215.5 L 71 187.5 L 114.5 142 Q 128 129.5 144.5 120 L 156.5 114 L 179.5 108 Z M 184 122 L 166 126 L 151 133 Q 134 143 121 156 L 84 195 L 56 231 L 54 236 L 81 241 L 102 241 L 122 237 L 149 227 L 183 211 L 207 205 L 222 206 L 248 213 L 266 212 L 297 202 L 309 202 L 318 204 L 371 227 L 391 233 L 405 236 L 414 236 L 415 237 L 437 236 L 456 231 L 459 229 L 439 209 L 400 163 Q 385 146 367 133 L 350 125 L 335 122 L 318 122 L 308 124 Q 286 131 270 143 L 260 146 L 250 146 L 240 143 L 217 130 L 203 124 L 184 122 Z M 299 216 L 264 227 L 246 227 L 219 220 Q 200 217 191 225 L 191 240 L 196 251 Q 202 259 214 261 L 235 261 L 240 260 L 245 257 L 254 244 L 261 245 L 263 248 L 265 254 Q 269 258 276 260 L 291 260 L 307 255 Q 314 250 317 241 Q 319 226 315 218 L 308 216 L 299 216 Z M 458 245 L 440 250 L 427 251 L 419 257 L 401 265 L 383 269 L 358 270 L 351 273 L 354 278 L 356 287 L 355 297 L 351 305 Q 346 312 336 314 L 322 314 L 308 307 L 302 302 L 294 290 Q 285 277 268 273 L 245 273 L 238 275 L 226 275 L 225 276 L 206 274 L 193 267 L 184 257 L 177 257 L 171 259 L 157 260 L 156 261 L 144 261 L 143 262 L 115 261 L 98 257 L 60 252 Q 75 279 96 303 Q 127 339 173 360 L 214 374 L 246 382 L 256 383 L 265 386 L 283 388 L 284 389 L 291 389 L 292 390 L 319 390 L 320 389 L 334 388 L 348 384 Q 377 374 398 355 Q 417 338 431 316 L 446 287 L 459 250 Q 461 244 458 245 Z M 324 275 L 312 279 L 307 283 L 313 293 Q 317 298 324 300 Q 334 302 339 297 L 341 294 L 341 284 L 337 276 Q 332 274 324 275 Z "/>
  </g>
</svg>
