<svg xmlns="http://www.w3.org/2000/svg" width="512" height="512" viewBox="0 0 512 512">
  <g id="color">
    <path fill="#ffffff" d="M 246.5 37 L 249 37.5 L 243.5 40 L 244.5 38 L 246.5 37 Z "/>
    <path fill="#ffffff" d="M 264.5 37 L 268 38.5 L 266.5 39 L 264.5 37 Z "/>
    <path fill="#ffffff" d="M 241.5 40 L 240.5 42 L 235.5 46 L 239.5 41 L 241.5 40 Z "/>
    <path fill="#ffffff" d="M 233.5 48 L 233 49.5 L 231.5 53 L 231 51.5 L 233.5 48 Z "/>
    <path fill="#ffffff" d="M 230.5 54 L 231 55.5 L 229.5 58 L 229 56.5 L 230.5 54 Z "/>
    <path fill="#ffffff" d="M 283.5 60 L 284 69.5 L 283 69.5 L 283.5 60 Z "/>
    <path fill="#ffffff" d="M 227.5 61 L 228 62.5 L 225.5 66 L 226 64.5 L 227.5 61 Z "/>
    <path fill="#ffffff" d="M 297.5 91 L 299 91.5 L 295.5 93 L 295.5 92 L 297.5 91 Z "/>
    <path fill="#ffffff" d="M 304.5 91 L 312 97.5 L 305.5 92 L 304.5 91 Z "/>
    <path fill="#ffffff" d="M 312.5 99 L 317 104.5 L 314 102.5 L 312.5 99 Z "/>
    <path fill="#ffffff" d="M 196.5 104 L 195 106.5 L 193.5 109 L 194 107.5 L 196.5 104 Z "/>
    <path fill="#ffffff" d="M 317.5 106 L 321 110.5 L 319 109.5 L 317.5 106 Z "/>
    <path fill="#ffffff" d="M 192.5 110 L 192 111.5 L 190.5 114 L 191 112.5 L 192.5 110 Z "/>
    <path fill="#ffffff" d="M 186.5 121 L 187 122.5 L 184.5 128 L 184 125.5 L 186.5 121 Z "/>
    <path fill="#ffffff" d="M 327.5 124 L 329 127.5 L 328 127.5 L 327.5 124 Z "/>
    <path fill="#ffffff" d="M 331.5 136 L 333 143.5 L 332 143.5 L 331.5 136 Z "/>
    <path fill="#ffffff" d="M 179.5 146 L 180 150.5 L 179 150.5 L 179.5 146 Z "/>
    <path fill="#ffffff" d="M 333.5 146 L 334 153.5 L 333 153.5 L 333.5 146 Z "/>
    <path fill="#ffffff" d="M 333.5 159 L 334 164.5 L 333 164.5 L 333.5 159 Z "/>
    <path fill="#ffffff" d="M 179.5 160 L 180 164.5 L 179 164.5 L 179.5 160 Z "/>
    <path fill="#ffffff" d="M 180.5 168 L 183 177.5 L 182 177.5 L 180 171.5 L 180.5 168 Z "/>
    <path fill="#ffffff" d="M 329.5 179 L 330 180.5 L 327.5 185 L 328 183.5 L 329.5 179 Z "/>
    <path fill="#ffffff" d="M 325.5 189 L 325 190.5 L 323.5 193 L 324 191.5 L 325.5 189 Z "/>
    <path fill="#ffffff" d="M 188.5 191 L 191 194.5 L 189 193.5 L 188.5 191 Z "/>
    <path fill="#ffffff" d="M 322.5 194 L 322 195.5 L 320.5 198 L 321 196.5 L 322.5 194 Z "/>
    <path fill="#ffffff" d="M 197.5 205 Q 202 207 198.5 209 L 193.5 210 L 193.5 209 L 199 207.5 L 197.5 205 Z "/>
    <path fill="#ffffff" d="M 313.5 207 L 319 209.5 L 316.5 210 L 313 209 L 313.5 207 Z "/>
    <path fill="#ffffff" d="M 188.5 211 L 190 211.5 L 185.5 214 L 186.5 212 L 188.5 211 Z "/>
    <path fill="#ffffff" d="M 183.5 214 L 179 219.5 L 177.5 222 L 178 220.5 L 183.5 214 Z "/>
    <path fill="#ffffff" d="M 334.5 220 L 337 223.5 L 335 222.5 L 334.5 220 Z "/>
    <path fill="#ffffff" d="M 338.5 228 L 339 239.5 L 338 239.5 L 338.5 228 Z "/>
    <path fill="#ffffff" d="M 336.5 243 L 337 244.5 L 331.5 251 L 334 247.5 L 336.5 243 Z "/>
    <path fill="#ffffff" d="M 176.5 244 L 184.5 253 L 187 254.5 L 185.5 254 L 177 246.5 L 176.5 244 Z "/>
    <path fill="#ffffff" d="M 191.5 256 L 197 257.5 L 194.5 258 L 191.5 257 L 191.5 256 Z "/>
    <path fill="#ffffff" d="M 200.5 258 Q 205 257 206 259.5 L 205.5 282 L 205 259 L 200.5 259 L 200.5 258 Z "/>
    <path fill="#ffffff" d="M 308.5 258 L 312 258.5 L 308 259 L 307.5 263 L 307 259.5 L 308.5 258 Z "/>
    <path fill="#ffffff" d="M 307.5 276 L 309 290.5 L 308 290.5 L 307.5 276 Z "/>
    <path fill="#ffffff" d="M 204.5 283 L 205 287.5 L 204 287.5 L 204.5 283 Z "/>
    <path fill="#ffffff" d="M 202.5 298 L 203 301.5 L 201.5 305 L 201 302.5 L 202.5 298 Z "/>
    <path fill="#ffffff" d="M 310.5 300 L 312 306.5 L 311 306.5 L 310.5 300 Z "/>
    <path fill="#ffffff" d="M 199.5 310 L 200 312.5 L 198.5 316 L 198 313.5 L 199.5 310 Z "/>
    <path fill="#ffffff" d="M 314.5 314 L 316 318.5 L 315 318.5 L 314.5 314 Z "/>
    <path fill="#ffffff" d="M 196.5 320 L 197 321.5 L 195.5 324 L 195 322.5 L 196.5 320 Z "/>
    <path fill="#ffffff" d="M 317.5 323 L 319 326.5 L 318 326.5 L 317.5 323 Z "/>
    <path fill="#ffffff" d="M 320.5 330 L 323 334.5 L 321 333.5 L 320.5 330 Z "/>
    <path fill="#ffffff" d="M 189.5 336 L 189 337.5 L 187.5 340 L 188 338.5 L 189.5 336 Z "/>
    <path fill="#ffffff" d="M 324.5 338 L 327 341.5 L 325 340.5 L 324.5 338 Z "/>
    <path fill="#ffffff" d="M 185.5 343 L 185 344.5 L 183.5 347 L 184 345.5 L 185.5 343 Z "/>
    <path fill="#ffffff" d="M 182.5 348 L 182 349.5 L 179.5 353 L 181 350.5 L 182.5 348 Z "/>
    <path fill="#ffffff" d="M 330.5 348 L 334 352.5 L 331 350.5 L 330.5 348 Z "/>
    <path fill="#ffffff" d="M 367.5 391 L 371 395.5 L 369 394.5 L 367.5 391 Z "/>
    <path fill="#ffffff" d="M 141.5 396 L 141 397.5 L 139.5 401 L 139 399.5 L 141.5 396 Z "/>
    <path fill="#ffffff" d="M 371.5 397 L 374 400.5 L 372 399.5 L 371.5 397 Z "/>
    <path fill="#ffffff" d="M 138.5 402 L 138 403.5 L 136.5 408 L 136 406.5 L 138.5 402 Z "/>
    <path fill="#ffffff" d="M 375.5 404 L 377 410.5 L 376 410.5 L 375.5 404 Z "/>
    <path fill="#ffffff" d="M 135.5 411 L 136 417.5 L 135 417.5 L 135.5 411 Z "/>
    <path fill="#ffffff" d="M 136.5 421 L 139 428.5 L 133.5 433 L 136.5 429 Q 139.1 429.8 138 426.5 Q 135 424.7 136.5 421 Z "/>
    <path fill="#ffffff" d="M 374.5 427 L 376.5 430 L 385 437.5 L 377.5 431 L 374 428.5 L 374.5 427 Z "/>
    <path fill="#ffffff" d="M 127.5 439 L 127 440.5 L 126.5 443 L 126 440.5 L 127.5 439 Z "/>
    <path fill="#ffffff" d="M 386.5 441 Q 389.1 444.5 388 451.5 L 387 451.5 L 386.5 441 Z "/>
    <path fill="#ffffff" d="M 125.5 444 L 126 451.5 L 125 451.5 L 125.5 444 Z "/>
    <path fill="#ffffff" d="M 126.5 453 L 129 457.5 L 127 456.5 L 126.5 453 Z "/>
    <path fill="#ffffff" d="M 135.5 463 L 139 465.5 L 137.5 465 L 135.5 463 Z "/>
    <path fill="#ffffff" d="M 377.5 463 L 376.5 465 L 374.5 466 L 375.5 464 L 377.5 463 Z "/>
    <path fill="#ffffff" d="M 143.5 467 L 148 468.5 L 145.5 469 L 143.5 467 Z "/>
    <path fill="#ffffff" d="M 369.5 467 L 371 467.5 L 364.5 470 L 364.5 469 L 369.5 467 Z "/>
    <path fill="#ffffff" d="M 159.5 471 L 172 472.5 L 166.5 473 Q 165 470.5 159.5 472 L 159.5 471 Z "/>
    <path fill="#ffffff" d="M 354.5 471 L 358 471.5 L 350.5 473 L 350.5 472 L 354.5 471 Z "/>
    <path fill="#ffffff" d="M 176.5 473 L 184 473.5 L 176.5 474 L 176.5 473 Z "/>
    <path fill="#ffffff" d="M 190.5 474 L 207 474.5 L 190.5 475 L 190.5 474 Z "/>
    <path fill="#ffffff" d="M 331.5 474 L 340 474.5 L 331.5 475 L 330.5 476 L 308.5 476 L 308.5 475 L 330.5 475 L 331.5 474 Z "/>
    <path fill="#ffffff" d="M 209.5 475 L 225 475.5 L 209.5 476 L 209.5 475 Z "/>
    <path fill="#ffffff" d="M 231.5 476 L 243 476.5 L 231.5 477 L 231.5 476 Z "/>
    <path fill="#ffffff" d="M 264.5 476 L 283 476.5 L 264.5 477 L 264.5 476 Z "/>
    <path fill="#4da3ff" d="M 251.5 48 Q 264.8 46.2 269 53.5 L 273 64.5 L 270 74.5 L 243 107.5 L 238 119.5 L 237 133.5 Q 239.3 144.7 246.5 151 L 250 152 Q 248.9 154.7 251.5 154 L 261.5 158 L 270.5 158 Q 281.8 156.3 288 149.5 Q 287.3 147.3 289.5 148 L 295 136.5 L 295 128.5 Q 291.2 122.8 291 113.5 L 294 107 L 300.5 103 L 307 110.5 L 317 127.5 L 322 145.5 L 322 165.5 L 319 176.5 L 314 187.5 L 301 204.5 L 300 211.5 L 302.5 216 L 307.5 219 L 319.5 222 L 326 227.5 L 327 236.5 L 322.5 243 L 320 243 Q 321.3 246 317.5 245 L 307.5 248 L 228.5 249 L 225.5 248 L 223.5 249 L 222.5 248 L 204.5 248 L 192.5 245 L 186 238.5 L 186 229.5 L 191.5 223 L 210.5 217 L 215.5 219 L 233.5 220 L 234.5 221 L 262.5 221 Q 263.8 218.7 268.5 220 L 273 216.5 Q 274 210 270.5 208 L 239.5 209 L 238.5 208 L 229.5 208 L 228.5 207 L 216.5 206 L 212.5 205 L 209 201.5 L 204.5 195 Q 201.9 195.8 203 192.5 L 200 189.5 L 194 176.5 L 190 160.5 L 191 156.5 L 190 152.5 L 193 135.5 L 197 125.5 L 206 109.5 L 215 99.5 L 217 95 L 220 93.5 L 235 72.5 L 246 50.5 L 245.5 49 L 248.5 50 L 251.5 48 Z "/>
    <path fill="#4da3ff" d="M 217 261 L 266.5 262 L 267.5 261 L 296 261 L 295 268.5 L 296 269.5 L 297 292.5 L 300 307.5 L 303 314.5 L 304 321.5 L 311 338.5 L 317 349.5 L 332 370.5 L 362 402.5 L 365 407.5 L 366 417.5 L 362 426.5 L 362 431.5 L 363 435 L 375 443.5 L 376 449.5 L 374 453 L 369.5 456 Q 362 456.5 357.5 460 L 340.5 463 L 329.5 463 L 328.5 464 L 282.5 464 L 281.5 465 L 260.5 465 L 255.5 466 L 254.5 465 L 204.5 464 L 203.5 463 L 188.5 463 L 187.5 462 L 165.5 461 L 144.5 456 L 138 451.5 L 137 445.5 L 141.5 440 L 150 433.5 L 151 426.5 Q 146.3 421.7 147 411.5 L 152 400 Q 154.7 401.1 154 398.5 L 160 391 L 166 386.5 Q 165.3 384.3 167.5 385 L 170.5 381 L 173.5 379 L 175.5 379 L 217.5 388 L 219.5 388 L 232.5 389 L 233.5 390 L 268.5 390 L 271.5 389 L 279.5 389 L 285.5 387 L 290.5 387 L 296 384.5 L 295.5 383 L 297.5 384 Q 300.3 382.8 299 377.5 L 296.5 374 L 285.5 374 L 269.5 377 L 251.5 377 L 248.5 378 L 247.5 377 L 223.5 376 L 222.5 375 L 199.5 372 L 187.5 369 L 184 366.5 L 198 345.5 L 210 317.5 L 216 292.5 L 217 261 Z M 191 396 L 185 399 L 182 399 L 177 404 L 178 405 L 175 404 L 171 413 Q 169 424 175 429 Q 174 431 177 430 L 177 432 L 186 436 Q 199 438 205 431 Q 210 427 211 420 Q 212 408 207 404 L 198 396 L 191 396 Z "/>
    <path fill="#ffd43b" d="M 282.5 74 Q 290.8 81.2 296 91.5 L 295 94 L 291.5 95 L 284 102.5 Q 278.5 107.5 280 119.5 Q 283.6 124.9 284 133.5 Q 283.1 140.1 278.5 143 Q 273.4 147.9 262.5 147 Q 254.8 145.2 251 139.5 L 248 131.5 L 248 126.5 L 253 112.5 L 272 90.5 L 282.5 74 Z "/>
    <path fill="#ffd43b" d="M 194.5 403 L 202 407.5 Q 205.5 411.5 204 420.5 L 197.5 428 L 186.5 429 L 180 424.5 Q 176.8 421.2 178 413.5 L 182.5 407 Q 185.5 404 192.5 405 L 194.5 403 Z "/>
    <path fill="#66d9e8" d="M 252.5 46 Q 266.2 45.3 271 53.5 L 274 61.5 L 274 68.5 L 269 78.5 L 245 107.5 L 239 122.5 L 239 134.5 Q 241.6 146.4 250.5 152 L 259.5 156 L 272.5 156 Q 281.4 153.9 287 148.5 L 293 137.5 L 293 126.5 L 291 123.5 L 289 114.5 Q 290.1 107.1 295.5 104 L 300.5 101 L 307 107.5 L 319 128.5 L 323 142.5 L 324 163.5 L 322 173.5 L 314 190.5 L 302 206.5 L 302 212.5 L 303 215 L 322.5 222 L 328 227.5 L 329 236.5 L 324.5 244 L 315.5 248 L 303.5 249 L 302.5 250 L 236.5 251 L 235.5 250 L 208.5 250 L 197.5 248 Q 189.2 246.3 185 240.5 L 184 229.5 L 191.5 221 L 207.5 216 L 214.5 216 L 230.5 219 L 256.5 220 L 257.5 219 L 266.5 219 L 272 215.5 Q 272.8 209.8 268.5 209 L 264.5 210 L 233.5 210 L 232.5 209 L 222.5 209 L 212.5 207 L 208 202.5 Q 197.6 191.4 192 175.5 L 189 164.5 L 189 147.5 L 192 133.5 L 201 114.5 L 231 76.5 L 244.5 50 L 252.5 46 Z M 252 48 L 247 50 L 244 53 L 235 73 L 220 94 L 217 95 L 215 100 L 206 110 L 197 126 L 193 136 L 190 153 L 191 157 L 190 161 L 194 177 L 200 190 L 203 193 Q 202 196 205 195 L 209 202 L 213 205 L 217 206 L 229 207 L 230 208 L 239 208 L 240 209 L 271 208 Q 274 210 273 217 L 269 220 Q 264 219 263 221 L 235 221 L 234 220 L 216 219 L 211 217 L 192 223 L 186 230 L 186 239 L 193 245 L 205 248 L 223 248 L 224 249 L 226 248 L 229 249 L 308 248 L 318 245 Q 321 246 320 243 L 323 243 L 327 237 L 326 228 L 320 222 L 308 219 L 303 216 L 300 212 L 301 205 L 314 188 L 319 177 L 322 166 L 322 146 L 317 128 L 307 111 L 301 103 L 294 107 L 291 114 Q 291 123 295 129 L 295 137 L 290 148 Q 287 147 288 150 Q 282 156 271 158 L 262 158 L 252 154 Q 249 155 250 152 L 247 151 Q 239 145 237 134 L 238 120 L 243 108 L 270 75 L 273 65 L 269 54 Q 265 46 252 48 Z "/>
    <path fill="#66d9e8" d="M 216.5 259 L 271.5 260 L 272.5 259 L 297 259 L 298 261.5 L 297 262.5 L 297 273.5 L 298 274.5 L 298 285.5 L 299 286.5 L 300 300.5 L 307 325.5 L 313 338.5 L 333 369.5 L 364 402.5 Q 369 408 367 420.5 Q 362.7 423.7 364 432.5 L 376 442.5 L 378 448.5 L 373.5 455 L 356.5 462 L 338.5 464 L 337.5 465 L 239.5 467 L 238.5 466 L 214.5 466 L 213.5 465 L 193.5 465 L 192.5 464 L 168.5 463 L 145.5 458 L 136 451.5 L 135 446.5 Q 136.4 440.4 141.5 438 L 149 432.5 L 150 429.5 L 146 420.5 L 146 408.5 Q 151.6 396.1 161.5 388 Q 163.8 388.8 163 386.5 L 167 383.5 Q 166.3 381.3 168.5 382 L 171.5 378 L 177.5 377 L 203.5 384 L 230.5 387 L 231.5 388 L 272.5 388 L 273.5 387 L 291.5 385 L 297 382.5 L 298 379.5 L 297 376 Q 294.9 374.4 289.5 375 L 283.5 377 L 268.5 378 L 267.5 379 L 237.5 379 L 236.5 378 L 225.5 378 L 224.5 377 L 217.5 377 L 195.5 373 Q 191.5 370 184.5 370 L 181 367.5 L 194 349.5 L 207 322.5 L 214 294.5 L 215 270.5 L 216 268.5 Q 213.2 266.8 215 260.5 L 216.5 259 Z M 217 261 L 216 293 L 210 318 L 198 346 L 184 367 L 188 369 L 200 372 L 223 375 L 224 376 L 248 377 L 249 378 L 252 377 L 270 377 L 286 374 L 297 374 Q 300 376 299 383 L 295 386 L 291 387 L 286 387 L 280 389 L 272 389 L 269 390 L 234 390 L 233 389 L 220 388 L 218 388 L 176 379 L 174 379 L 171 381 L 168 385 Q 165 384 166 387 L 160 391 L 154 399 Q 155 401 152 400 L 147 412 Q 146 422 151 427 L 150 434 L 142 440 L 137 446 L 138 452 L 145 456 L 166 461 L 188 462 L 189 463 L 204 463 L 205 464 L 255 465 L 256 466 L 261 465 L 282 465 L 283 464 L 329 464 L 330 463 L 341 463 L 358 460 Q 362 456 370 456 L 374 453 L 376 450 L 375 444 L 363 435 L 362 432 L 362 427 L 366 418 L 365 408 L 362 403 L 332 371 L 317 350 L 311 339 L 304 322 L 303 315 L 300 308 L 297 293 L 296 270 L 295 269 L 296 261 L 268 261 L 267 262 L 217 261 Z "/>
    <path fill="#66d9e8" d="M 190.5 396 L 197.5 396 L 207 403.5 Q 212.3 408.2 211 419.5 Q 209.5 427.1 204.5 431 Q 199.3 437.8 185.5 436 L 177 432 L 177 430 Q 174.3 431.1 175 428.5 Q 169.4 424.1 171 412.5 L 175 404 L 181.5 399 L 184.5 399 L 190.5 396 Z M 190 398 L 177 404 L 172 416 Q 172 424 176 429 Q 180 434 188 435 Q 198 435 204 430 Q 208 425 210 418 L 207 406 L 198 398 L 190 398 Z "/>
  </g>
  <g id="line">
    <path fill="#1a1a1a" d="M 254.5 36 Q 272.3 36.7 279 48.5 Q 284.7 55.8 283 70.5 L 279 80.5 L 272 90.5 L 253 112.5 Q 247.9 119.4 248 131.5 Q 249.5 140 255.5 144 Q 259.9 148 269.5 147 Q 277.8 145.3 282 139.5 L 284 130.5 L 280 119.5 L 280 110.5 Q 283.5 100.5 291.5 95 L 299.5 91 L 303.5 91 L 312 98.5 Q 322.6 111.4 329 128.5 L 333 144.5 L 334 158.5 L 333 159.5 L 333 167.5 L 327 186.5 Q 322 197.5 314 205.5 L 313 209 Q 327.3 210.1 334 219.5 L 338 227.5 L 338 240.5 L 329.5 252 L 324.5 255 L 314.5 258 L 308.5 258 L 307 259.5 L 307 284.5 L 308 285.5 L 310 302.5 L 320 331.5 Q 328.4 348.6 340 362.5 L 367 390.5 L 371 396.5 L 375 403.5 L 377 411.5 L 377 418.5 L 374 428.5 L 385 438.5 Q 388 443.5 387 452.5 L 378.5 463 L 363.5 470 L 342.5 474 L 308.5 475 L 307.5 476 L 246.5 477 L 244.5 477 L 242.5 476 L 225.5 476 L 224.5 475 L 207.5 475 L 206.5 474 L 184.5 474 L 183.5 473 L 172.5 473 L 165.5 471 L 158.5 471 L 139.5 466 L 129 459 L 126 452.5 L 126 443.5 L 132 433 L 139 428.5 L 136 420.5 L 136 408.5 L 145 391.5 Q 165.8 373.3 182 350.5 L 194 328.5 L 203 301.5 L 204 288.5 L 206 281.5 L 206 259.5 L 204.5 258 L 197.5 258 L 187.5 255 L 178 246.5 Q 173.8 241.2 174 231.5 Q 176.2 219.7 184.5 214 L 200 207.5 Q 189.4 195.6 183 179.5 L 180 167.5 L 179 151.5 L 183 130.5 L 190 114.5 L 202 96.5 L 224 69.5 L 234 47.5 L 239.5 42 L 246.5 38 L 254.5 36 Z M 253 46 L 246 49 L 243 52 L 231 77 L 201 115 L 192 134 L 189 148 L 189 165 L 192 176 Q 198 191 208 203 L 213 207 L 223 209 L 233 209 L 234 210 L 265 210 L 266 209 Q 270 209 272 213 L 271 217 L 267 219 L 258 219 L 257 220 L 231 219 L 215 216 L 208 216 L 192 221 L 184 230 L 185 241 Q 189 246 198 248 L 209 250 L 236 250 L 237 251 L 303 250 L 304 249 L 316 248 L 325 244 L 329 237 L 328 228 L 323 222 L 303 215 L 302 213 L 302 207 L 314 191 L 322 174 L 324 164 L 323 143 L 319 129 L 307 108 L 301 101 L 296 104 Q 290 107 289 115 L 291 124 L 293 127 L 293 138 L 287 149 Q 281 154 273 156 L 260 156 L 251 152 Q 242 146 239 135 L 239 123 L 245 108 L 269 79 L 274 69 L 274 62 L 271 54 Q 266 45 253 46 Z M 217 259 L 215 261 Q 213 267 216 269 L 215 271 L 214 295 L 207 323 L 194 350 L 181 368 L 185 370 Q 191 370 196 373 L 218 377 L 225 377 L 226 378 L 237 378 L 238 379 L 268 379 L 269 378 L 284 377 L 290 375 Q 295 374 297 376 L 298 380 L 297 383 L 292 385 L 274 387 L 273 388 L 232 388 L 231 387 L 204 384 L 178 377 L 172 378 L 169 382 Q 166 381 167 384 L 163 387 Q 164 389 162 388 Q 152 396 146 409 Q 144 423 150 430 L 149 433 L 142 438 Q 136 440 135 447 L 136 452 L 146 458 L 169 463 L 193 464 L 194 465 L 214 465 L 215 466 L 239 466 L 240 467 L 338 465 L 339 464 L 357 462 L 374 455 L 378 449 L 376 443 L 364 433 Q 363 424 367 421 Q 369 408 364 403 L 333 370 L 313 339 L 307 326 L 300 301 L 299 287 L 298 286 L 298 275 L 297 274 L 297 263 L 298 262 L 297 259 L 273 259 L 272 260 L 217 259 Z "/>
    <path fill="#1a1a1a" d="M 189.5 398 L 197.5 398 L 207 405.5 L 210 417.5 Q 208.3 425.3 203.5 430 Q 198.3 435.3 187.5 435 L 177 430 L 173 422.5 L 172 415.5 Q 174 405.5 181.5 401 L 187.5 400 L 189.5 398 Z M 195 403 L 193 405 Q 186 404 183 407 L 178 414 Q 177 421 180 425 L 187 429 L 198 428 L 204 421 Q 205 412 202 408 L 195 403 Z "/>
  </g>
</svg>
