<svg xmlns="http://www.w3.org/2000/svg" width="512" height="512" viewBox="0 0 512 512">
  <g id="color">
    <path fill="#ffffff" d="M 235.5 36 L 252 36.5 L 235.5 37 L 235.5 36 Z "/>
    <path fill="#ffffff" d="M 265.5 36 L 279 36.5 L 265.5 37 L 265.5 36 Z "/>
    <path fill="#ffffff" d="M 219.5 37 L 229 37.5 L 219.5 38 L 219.5 37 Z "/>
    <path fill="#ffffff" d="M 285.5 37 L 294 37.5 L 285.5 38 L 285.5 37 Z "/>
    <path fill="#ffffff" d="M 212.5 38 L 218 38.5 L 212.5 39 L 212.5 38 Z "/>
    <path fill="#ffffff" d="M 295.5 38 L 302 38.5 L 295.5 39 L 295.5 38 Z "/>
    <path fill="#ffffff" d="M 304.5 39 L 309 39.5 L 304.5 40 L 304.5 39 Z "/>
    <path fill="#ffffff" d="M 318.5 41 L 326 42.5 L 323.5 43 L 318.5 42 L 318.5 41 Z "/>
    <path fill="#ffffff" d="M 335.5 48 L 339 54.5 L 338 54.5 L 335 49.5 L 335.5 48 Z "/>
    <path fill="#ffffff" d="M 174.5 53 L 175 54.5 L 173.5 59 L 173 55.5 L 174.5 53 Z "/>
    <path fill="#ffffff" d="M 172.5 61 L 173 66.5 L 172 66.5 L 172.5 61 Z "/>
    <path fill="#ffffff" d="M 339.5 70 L 340 76.5 L 339 76.5 L 339.5 70 Z "/>
    <path fill="#ffffff" d="M 173.5 71 L 174 77.5 L 173 77.5 L 173.5 71 Z "/>
    <path fill="#ffffff" d="M 177.5 97 L 179 103.5 L 178 103.5 L 177.5 97 Z "/>
    <path fill="#ffffff" d="M 331.5 121 L 333 128.5 L 332 128.5 L 331.5 121 Z "/>
    <path fill="#ffffff" d="M 178.5 135 L 179 137.5 L 176.5 145 L 176 142.5 L 178.5 135 Z "/>
    <path fill="#ffffff" d="M 174.5 150 L 175 152.5 L 173.5 156 L 173 153.5 L 174.5 150 Z "/>
    <path fill="#ffffff" d="M 170.5 164 L 171 165.5 L 169.5 169 L 169 166.5 L 170.5 164 Z "/>
    <path fill="#ffffff" d="M 342.5 164 L 345 170.5 L 344 170.5 L 342.5 164 Z "/>
    <path fill="#ffffff" d="M 167.5 173 L 168 174.5 L 165.5 180 L 165 178.5 L 167.5 173 Z "/>
    <path fill="#ffffff" d="M 346.5 176 L 349 182.5 L 348 182.5 L 346.5 176 Z "/>
    <path fill="#ffffff" d="M 163.5 184 L 164 185.5 L 162.5 188 L 162 186.5 L 163.5 184 Z "/>
    <path fill="#ffffff" d="M 350.5 187 L 352 190.5 L 351 190.5 L 350.5 187 Z "/>
    <path fill="#ffffff" d="M 159.5 194 L 160 195.5 L 157.5 200 L 158 198.5 L 159.5 194 Z "/>
    <path fill="#ffffff" d="M 353.5 194 L 356 199.5 L 355 199.5 L 353.5 194 Z "/>
    <path fill="#ffffff" d="M 358.5 206 L 360 209.5 L 359 209.5 L 358.5 206 Z "/>
    <path fill="#ffffff" d="M 152.5 210 L 153 211.5 L 150.5 216 L 150 214.5 L 152.5 210 Z "/>
    <path fill="#ffffff" d="M 254.5 221 Q 266.9 221.1 272 228.5 L 276 236.5 L 276 245.5 Q 273.3 255.2 265.5 260 L 256 268.5 L 251.5 283 L 251 281 L 247.5 282 L 248 280.5 L 249 270.5 L 247 263.5 L 237 245.5 L 237 236.5 Q 239.1 229.1 244.5 225 L 254.5 221 Z "/>
    <path fill="#ffffff" d="M 144.5 227 L 145 228.5 L 142.5 232 L 143 230.5 L 144.5 227 Z "/>
    <path fill="#ffffff" d="M 368.5 227 L 372 234.5 L 371 234.5 L 368.5 227 Z "/>
    <path fill="#ffffff" d="M 372.5 236 L 375 240.5 L 374 240.5 L 372.5 236 Z "/>
    <path fill="#ffffff" d="M 136.5 244 L 137 245.5 L 135.5 248 L 135 246.5 L 136.5 244 Z "/>
    <path fill="#ffffff" d="M 376.5 244 L 378 248.5 L 377 248.5 L 376.5 244 Z "/>
    <path fill="#ffffff" d="M 378.5 251 L 379 260.5 L 378 260.5 L 378.5 251 Z "/>
    <path fill="#ffffff" d="M 135.5 262 L 137 266.5 L 136 266.5 L 135.5 262 Z "/>
    <path fill="#ffffff" d="M 377.5 262 L 378 264.5 L 376.5 267 L 376 265.5 L 377.5 262 Z "/>
    <path fill="#ffffff" d="M 138.5 270 L 142 274.5 L 139 272.5 L 138.5 270 Z "/>
    <path fill="#ffffff" d="M 374.5 270 L 374 271.5 L 371.5 275 L 373 272.5 L 374.5 270 Z "/>
    <path fill="#ffffff" d="M 156.5 294 L 165 304.5 L 162 302.5 L 156.5 294 Z "/>
    <path fill="#ffffff" d="M 352.5 299 L 351 301.5 L 348.5 305 L 350 302.5 L 352.5 299 Z "/>
    <path fill="#ffffff" d="M 167.5 309 L 171 313.5 L 169 312.5 L 167.5 309 Z "/>
    <path fill="#ffffff" d="M 345.5 309 L 344 311.5 L 342.5 314 L 343 312.5 L 345.5 309 Z "/>
    <path fill="#ffffff" d="M 172.5 316 L 176 320.5 L 173 318.5 L 172.5 316 Z "/>
    <path fill="#ffffff" d="M 340.5 316 L 340 317.5 L 338.5 320 L 339 318.5 L 340.5 316 Z "/>
    <path fill="#ffffff" d="M 337.5 321 L 336 323.5 L 334.5 326 L 335 324.5 L 337.5 321 Z "/>
    <path fill="#ffffff" d="M 176.5 322 L 179 325.5 L 177 324.5 L 176.5 322 Z "/>
    <path fill="#ffffff" d="M 184.5 335 L 187 338.5 L 185 337.5 L 184.5 335 Z "/>
    <path fill="#ffffff" d="M 328.5 335 L 328 336.5 L 326.5 339 L 327 337.5 L 328.5 335 Z "/>
    <path fill="#ffffff" d="M 188.5 342 L 191 345.5 L 189 344.5 L 188.5 342 Z "/>
    <path fill="#ffffff" d="M 191.5 347 L 194 350.5 L 192 349.5 L 191.5 347 Z "/>
    <path fill="#ffffff" d="M 321.5 347 L 321 348.5 L 319.5 351 L 320 349.5 L 321.5 347 Z "/>
    <path fill="#ffffff" d="M 206.5 376 L 209 381.5 L 208 381.5 L 206.5 376 Z "/>
    <path fill="#ffffff" d="M 306.5 376 L 307 377.5 L 304.5 381 L 305 379.5 L 306.5 376 Z "/>
    <path fill="#ffffff" d="M 211.5 387 L 213 390.5 L 212 390.5 L 211.5 387 Z "/>
    <path fill="#ffffff" d="M 301.5 387 L 302 388.5 L 300.5 391 L 300 389.5 L 301.5 387 Z "/>
    <path fill="#ffffff" d="M 214.5 394 L 216 397.5 L 215 397.5 L 214.5 394 Z "/>
    <path fill="#ffffff" d="M 298.5 394 L 299 395.5 L 297.5 398 L 297 396.5 L 298.5 394 Z "/>
    <path fill="#ffffff" d="M 217.5 401 L 219 404.5 L 218 404.5 L 217.5 401 Z "/>
    <path fill="#ffffff" d="M 295.5 401 L 296 402.5 L 294.5 405 L 294 403.5 L 295.5 401 Z "/>
    <path fill="#ffffff" d="M 219.5 406 L 221 409.5 L 220 409.5 L 219.5 406 Z "/>
    <path fill="#ffffff" d="M 221.5 411 L 223 414.5 L 222 414.5 L 221.5 411 Z "/>
    <path fill="#ffffff" d="M 291.5 411 L 292 412.5 L 290.5 415 L 290 413.5 L 291.5 411 Z "/>
    <path fill="#ffffff" d="M 288.5 419 L 289 420.5 L 286.5 426 L 286 424.5 L 288.5 419 Z "/>
    <path fill="#ffffff" d="M 225.5 422 L 227 425.5 L 226 425.5 L 225.5 422 Z "/>
    <path fill="#ffffff" d="M 280.5 459 L 281 461.5 L 279.5 464 L 279 462.5 L 280.5 459 Z "/>
    <path fill="#ffffff" d="M 242.5 473 L 247 475.5 L 245.5 476 L 242.5 473 Z "/>
    <path fill="#ffffff" d="M 270.5 473 L 269.5 475 L 266.5 476 L 266.5 475 L 270.5 473 Z "/>
    <path fill="#9775fa" d="M 246.5 47 L 267.5 47 L 268.5 48 L 298.5 49 L 299.5 50 L 322.5 53 L 329 58.5 L 329 74.5 L 326 86.5 L 325 97.5 L 320.5 106 Q 314.3 108.8 303.5 107 L 302.5 108 L 275.5 108 L 274.5 107 L 239.5 107 L 238.5 108 L 212.5 108 L 211.5 107 L 195.5 107 L 191 104.5 L 188 97.5 L 187 86.5 L 185 81.5 L 184 58.5 L 186.5 55 L 194.5 52 L 207.5 51 L 214.5 49 L 245.5 48 L 246.5 47 Z "/>
    <path fill="#9775fa" d="M 194.5 117 L 203.5 117 L 204.5 118 L 311.5 118 Q 313 115.5 318.5 117 L 320 118.5 L 322 132.5 L 334 175.5 L 349 213.5 L 366 246.5 L 368 257.5 L 363 268.5 L 330 311.5 L 307 350.5 L 288 390.5 L 268 444.5 Q 271.3 449.2 270 458.5 L 264.5 465 L 262 463.5 L 262 412.5 L 261 409.5 L 261 407.5 L 262 282.5 Q 264 272.5 271.5 268 L 281 259.5 L 286 248.5 L 286 233.5 Q 283.3 222.7 275.5 217 L 262.5 211 L 250.5 211 Q 239.3 213.8 233 221.5 L 227 234.5 L 227 248.5 L 230 256.5 L 238 268.5 L 239 273.5 Q 236.8 274.8 238 279.5 L 240.5 283 L 245.5 283 L 251 281 L 252 283.5 L 252 302.5 L 251 303.5 L 251 418.5 L 252 419.5 L 252 463.5 L 248.5 465 L 245 462.5 Q 241.5 458.5 243 449.5 L 245 443.5 L 225 390.5 L 206 350.5 L 183 311.5 L 150 268.5 L 146 261.5 L 145 253.5 L 147 246.5 Q 161 222 172 194.5 L 183 162.5 L 185 151.5 L 191 132.5 L 193 118.5 L 194.5 117 Z "/>
  </g>
  <g id="line">
    <path fill="#1a1a1a" d="M 252.5 36 L 284.5 37 L 285.5 38 L 311.5 40 L 329.5 44 L 335 48.5 L 339 55.5 L 340 69.5 L 339 70.5 L 339 77.5 L 338 78.5 L 335 101.5 L 329 113.5 L 334 137.5 L 342 165.5 L 358 207.5 L 376 243.5 Q 379.5 250 378 261.5 L 375 269.5 Q 344.2 305.7 320 348.5 Q 295.5 393 279 445.5 Q 282.1 449.9 281 458.5 Q 279 468.5 271.5 473 L 265.5 476 L 252.5 477 Q 240.5 475 235 466.5 L 232 458.5 L 232 450.5 L 234 443.5 L 213 389.5 L 193 348.5 Q 168.8 305.7 138 269.5 L 134 254.5 L 138 240.5 L 148 222.5 L 167 177.5 L 179 137.5 Q 179.5 126.5 183 118.5 L 183 111.5 L 179 104.5 L 176 91.5 L 174 71.5 L 173 70.5 L 173 59.5 L 175 52.5 L 180.5 46 L 186.5 43 L 201.5 40 L 228.5 38 L 229.5 37 L 251.5 37 L 252.5 36 Z M 247 47 L 246 48 L 215 49 L 208 51 L 195 52 L 187 55 L 184 59 L 185 82 L 187 87 L 188 98 L 191 105 L 196 107 L 212 107 L 213 108 L 239 108 L 240 107 L 275 107 L 276 108 L 303 108 L 304 107 Q 314 109 321 106 L 325 98 L 326 87 L 329 75 L 329 59 L 323 53 L 300 50 L 299 49 L 269 48 L 268 47 L 247 47 Z M 195 117 L 193 119 L 191 133 L 185 152 L 183 163 L 172 195 Q 161 222 147 247 L 145 254 L 146 262 L 150 269 L 183 312 L 206 351 L 225 391 L 245 444 L 243 450 Q 241 459 245 463 L 249 465 L 252 464 L 252 420 L 251 419 L 251 304 L 252 303 L 252 280 L 256 269 L 266 260 Q 273 255 276 246 L 276 237 L 272 229 Q 268 223 259 221 Q 250 221 245 225 Q 239 229 237 237 L 237 246 L 247 264 L 249 271 L 248 281 Q 247 284 241 283 L 238 280 Q 237 275 239 274 L 238 269 L 230 257 L 227 249 L 227 235 L 233 222 Q 239 214 251 211 L 263 211 L 276 217 Q 283 223 286 234 L 286 249 L 281 260 L 272 268 Q 264 273 262 283 L 261 408 L 261 410 L 262 413 L 262 465 L 265 465 L 270 459 Q 271 449 268 445 L 288 391 L 307 351 L 330 312 L 363 269 L 368 258 L 366 247 L 349 214 L 334 176 L 322 133 L 320 119 L 319 117 Q 313 116 312 118 L 205 118 L 204 117 L 195 117 Z "/>
  </g>
</svg>
