<svg xmlns="http://www.w3.org/2000/svg" width="512" height="512" viewBox="0 0 512 512">
  <g id="color">
    <path fill="#ffffff" d="M 237.5 37 L 241 38.5 L 239.5 39 L 237.5 37 Z "/>
    <path fill="#ffffff" d="M 245.5 41 L 258.5 54 L 276 54.5 L 258.5 55 L 245.5 41 Z "/>
    <path fill="#ffffff" d="M 278.5 55 L 283 55.5 L 278.5 56 L 278.5 55 Z "/>
    <path fill="#ffffff" d="M 222.5 57 L 223 70.5 L 222 70.5 L 222.5 57 Z "/>
    <path fill="#ffffff" d="M 298.5 59 L 303 60.5 L 301.5 61 L 298.5 60 L 298.5 59 Z "/>
    <path fill="#ffffff" d="M 317.5 66 L 321 68.5 L 319.5 68 L 317.5 66 Z "/>
    <path fill="#ffffff" d="M 223.5 74 L 224 83.5 L 223 83.5 L 223.5 74 Z "/>
    <path fill="#ffffff" d="M 222.5 85 L 220.5 88 L 215.5 90 L 215.5 89 L 222.5 85 Z "/>
    <path fill="#ffffff" d="M 210.5 91 L 212 91.5 L 208.5 93 L 208.5 92 L 210.5 91 Z "/>
    <path fill="#ffffff" d="M 200.5 96 L 199.5 98 L 197.5 99 L 198.5 97 L 200.5 96 Z "/>
    <path fill="#ffffff" d="M 376.5 124 L 379 128.5 L 378 128.5 L 376.5 124 Z "/>
    <path fill="#ffffff" d="M 219.5 132 Q 225.5 130.5 227 133.5 L 230 142.5 L 229 146.5 L 224.5 151 L 222 150.5 L 223 149.5 L 223 141.5 L 218.5 136 L 216 134.5 Q 215.2 131.9 218.5 133 L 219.5 132 Z "/>
    <path fill="#ffffff" d="M 381.5 134 L 384 139.5 L 383 139.5 L 381.5 134 Z "/>
    <path fill="#ffffff" d="M 150.5 147 L 152 147.5 L 146.5 152 L 150.5 147 Z "/>
    <path fill="#ffffff" d="M 389.5 155 L 391 159.5 L 390 159.5 L 389.5 155 Z "/>
    <path fill="#ffffff" d="M 138.5 157 L 136.5 160 L 133.5 162 L 135.5 159 L 138.5 157 Z "/>
    <path fill="#ffffff" d="M 381.5 160 L 383 163.5 L 381.5 163 L 380 162.5 L 381.5 160 Z "/>
    <path fill="#ffffff" d="M 114.5 179 L 115 180.5 L 113.5 183 L 113 181.5 L 114.5 179 Z "/>
    <path fill="#ffffff" d="M 111.5 188 L 112 199.5 L 111 199.5 L 111.5 188 Z "/>
    <path fill="#ffffff" d="M 398.5 195 L 399 201.5 L 398 201.5 L 398.5 195 Z "/>
    <path fill="#ffffff" d="M 399.5 203 L 400 208.5 L 399 208.5 L 399.5 203 Z "/>
    <path fill="#ffffff" d="M 400.5 213 L 401 218.5 L 400 218.5 L 400.5 213 Z "/>
    <path fill="#ffffff" d="M 116.5 217 L 119 220.5 L 117 219.5 L 116.5 217 Z "/>
    <path fill="#ffffff" d="M 193.5 222 L 198 222.5 L 190.5 224 L 190.5 223 L 193.5 222 Z "/>
    <path fill="#ffffff" d="M 206.5 222 L 227.5 222 L 229 223.5 L 228.5 225 L 228 223 L 206.5 223 L 206.5 222 Z "/>
    <path fill="#ffffff" d="M 401.5 228 L 402 241.5 L 401 241.5 L 401.5 228 Z "/>
    <path fill="#ffffff" d="M 226.5 230 L 227 231.5 L 225.5 234 L 225 232.5 L 226.5 230 Z "/>
    <path fill="#ffffff" d="M 174.5 233 L 172.5 236 L 170.5 237 L 171.5 235 L 174.5 233 Z "/>
    <path fill="#ffffff" d="M 223.5 237 L 223 238.5 L 221.5 241 L 222 239.5 L 223.5 237 Z "/>
    <path fill="#ffffff" d="M 140.5 238 L 148 240.5 L 145.5 241 L 140.5 239 L 140.5 238 Z "/>
    <path fill="#ffffff" d="M 166.5 238 L 165.5 240 L 162.5 241 L 162.5 240 L 166.5 238 Z "/>
    <path fill="#ffffff" d="M 150.5 241 L 160 241.5 L 150.5 242 L 150.5 241 Z "/>
    <path fill="#ffffff" d="M 401.5 266 L 402 279.5 L 401 279.5 L 401.5 266 Z "/>
    <path fill="#ffffff" d="M 400.5 287 L 401 293.5 L 400 293.5 L 400.5 287 Z "/>
    <path fill="#ffffff" d="M 168.5 298 L 168 299.5 L 166.5 302 L 167 300.5 L 168.5 298 Z "/>
    <path fill="#ffffff" d="M 399.5 298 L 400 303.5 L 399 303.5 L 399.5 298 Z "/>
    <path fill="#ffffff" d="M 398.5 305 L 399 309.5 L 398 309.5 L 398.5 305 Z "/>
    <path fill="#ffffff" d="M 395.5 323 L 396 325.5 L 393.5 332 L 393 330.5 L 395.5 323 Z "/>
    <path fill="#ffffff" d="M 156.5 333 L 157 345.5 L 156 345.5 L 156.5 333 Z "/>
    <path fill="#ffffff" d="M 387.5 347 L 387 348.5 L 385.5 351 L 386 349.5 L 387.5 347 Z "/>
    <path fill="#ffffff" d="M 163.5 373 L 165 377.5 L 161.5 380 L 162.5 378 Q 165.1 378.8 164 375.5 L 163.5 373 Z "/>
    <path fill="#ffffff" d="M 157.5 381 L 156.5 383 L 154.5 384 L 155.5 382 L 157.5 381 Z "/>
    <path fill="#ffffff" d="M 144.5 393 L 144 394.5 L 142.5 397 L 143 395.5 L 144.5 393 Z "/>
    <path fill="#ffffff" d="M 381.5 393 L 384 397.5 L 383 397.5 L 381.5 393 Z "/>
    <path fill="#ffffff" d="M 398.5 430 L 400 433.5 L 399 433.5 L 398.5 430 Z "/>
    <path fill="#ffffff" d="M 401.5 442 L 402 452.5 L 401 452.5 L 401.5 442 Z "/>
    <path fill="#ffffff" d="M 123.5 453 L 124 457.5 L 123 457.5 L 123.5 453 Z "/>
    <path fill="#ffffff" d="M 399.5 461 L 400 462.5 L 397 464.5 L 399.5 461 Z "/>
    <path fill="#ffffff" d="M 136.5 470 L 145 470.5 L 136.5 471 L 136.5 470 Z "/>
    <path fill="#ffffff" d="M 381.5 470 L 386 470.5 L 381.5 471 L 381.5 470 Z "/>
    <path fill="#ffffff" d="M 146.5 471 L 153 471.5 L 146.5 472 L 146.5 471 Z "/>
    <path fill="#ffffff" d="M 374.5 471 L 380 471.5 L 374.5 472 L 374.5 471 Z "/>
    <path fill="#ffffff" d="M 158.5 472 L 165 472.5 L 158.5 473 L 158.5 472 Z "/>
    <path fill="#ffffff" d="M 365.5 472 L 371 472.5 L 365.5 473 L 365.5 472 Z "/>
    <path fill="#ffffff" d="M 173.5 473 L 183 473.5 L 173.5 474 L 173.5 473 Z "/>
    <path fill="#ffffff" d="M 350.5 473 L 360 473.5 L 350.5 474 L 350.5 473 Z "/>
    <path fill="#ffffff" d="M 187.5 474 L 203 474.5 L 187.5 475 L 187.5 474 Z "/>
    <path fill="#ffffff" d="M 328.5 474 L 345 474.5 L 328.5 475 L 328.5 474 Z "/>
    <path fill="#ffffff" d="M 206.5 475 L 225 475.5 L 206.5 476 L 206.5 475 Z "/>
    <path fill="#ffffff" d="M 296.5 475 L 325 475.5 L 296.5 476 L 296.5 475 Z "/>
    <path fill="#ffffff" d="M 247.5 476 L 272 476.5 L 247.5 477 L 247.5 476 Z "/>
    <path fill="#4da3ff" d="M 235.5 47 L 248 57.5 L 250 60.5 L 263 77.5 L 269 88.5 L 271 95.5 L 274.5 99 Q 301.5 105.5 316 124.5 L 317.5 127 L 320 128.5 L 334 149.5 L 338 159.5 L 338 164 L 331 168.5 L 324 181.5 L 324 195.5 L 328 206.5 L 337.5 217 L 340 218.5 Q 338.9 221.8 341.5 221 L 343.5 221 L 351 223 L 352 237.5 L 352 239.5 L 351 275.5 L 350 276.5 L 350 288.5 L 349 290.5 L 349 294.5 L 349 313.5 L 348 314.5 L 349 316.5 L 348 317.5 L 348 338.5 L 349 339.5 L 349 348.5 L 348 351.5 L 349 352.5 L 349 363.5 L 351 371.5 L 344.5 373 L 333.5 373 L 332.5 374 L 330.5 374 L 305.5 375 L 304.5 376 L 280.5 376 L 279.5 377 L 215.5 377 L 214.5 376 L 198.5 376 L 197.5 375 L 179.5 375 L 173 372.5 L 168 356.5 L 168 351.5 L 166 344.5 L 166 334.5 L 167 331.5 L 169 318.5 L 174 307.5 L 181 298.5 L 182 295 Q 184.7 296.1 184 293.5 L 191.5 285 Q 193.8 285.8 193 283.5 L 223.5 255 L 247.5 241 L 261 228.5 L 271 212.5 L 276 192.5 L 280 184.5 L 281 174.5 L 277.5 170 Q 271 169 270 173.5 L 270 178.5 L 268 185.5 L 263 195 Q 260.3 193.9 261 196.5 L 259 200 L 247.5 208 L 239.5 211 L 230.5 213 L 208.5 213 L 205.5 212 L 191.5 213 L 185.5 215 Q 172.7 220.7 163.5 230 L 157.5 232 L 152.5 232 L 144.5 230 L 134 223.5 L 132.5 221 L 126 215.5 L 122 204.5 L 121 189.5 Q 122.8 180.3 129.5 176 Q 156 159.5 176 136.5 L 194.5 113 Q 196.8 113.8 196 111.5 L 202.5 106 L 225.5 96 L 231 90.5 L 233 85.5 L 233 69.5 L 232 68.5 L 232 58.5 L 235.5 47 Z M 219 123 L 209 127 Q 202 132 198 141 Q 196 151 201 156 L 208 160 Q 212 159 214 161 L 227 160 L 234 156 L 239 148 Q 241 139 238 136 Q 241 134 239 133 Q 240 130 242 132 L 242 128 L 235 123 L 219 123 Z "/>
    <path fill="#4da3ff" d="M 268 64 L 283.5 65 L 309.5 73 L 331.5 86 L 347 99.5 L 349.5 103 Q 351.8 102.3 351 104.5 L 364 121.5 L 364 130.5 L 368 137.5 L 371 148.5 L 371 165.5 L 368.5 172 L 367.5 170 L 366 170.5 L 363.5 166 L 356.5 161 L 350.5 160 L 349 158.5 Q 343.8 142.1 335 130 Q 332.3 131.1 333 128.5 L 321.5 114 L 318 111.5 Q 318.8 109.3 316.5 110 L 300.5 97 L 288.5 91 L 280 89 L 278 82.5 L 268 64 Z "/>
    <path fill="#4da3ff" d="M 209 143 Q 212.8 142 214 144.5 L 213 148 L 209 147.5 L 209 145.5 L 209 143 Z "/>
    <path fill="#4da3ff" d="M 381 169 Q 383.7 167.9 383 170.5 L 388 191.5 L 390 213.5 L 391 214.5 L 393 261.5 L 392 262.5 L 392 277.5 L 391 278.5 L 390 301.5 L 385 327.5 Q 380.2 347.2 366.5 358 L 360.5 361 L 360 358.5 Q 361.8 352.3 359 350.5 L 359 309.5 L 360 308.5 L 360 292.5 L 361 291.5 L 361 270.5 L 362 269.5 L 362 224.5 L 363.5 223 L 370.5 222 L 386 212 L 387 205.5 L 380.5 202 L 371.5 210 L 366.5 212 Q 361.4 214.4 352.5 213 L 350.5 211 L 345.5 210 L 338 202.5 L 335 196.5 L 335 182.5 L 342.5 173 L 350.5 171 L 357 174.5 Q 359.6 177.4 359 183.5 L 355.5 186 L 349.5 182 L 344 185.5 L 344 189.5 L 347.5 194 Q 351.8 197.7 361.5 196 Q 369.3 192.8 374 186.5 Q 379.4 179.2 381 169 Z "/>
    <path fill="#4da3ff" d="M 341.5 383 L 343.5 384 L 344.5 383 L 356.5 383 Q 364.9 386.6 370 393.5 L 377 405.5 L 378 415.5 L 380 420.5 L 389 432.5 L 392 444.5 L 392 451.5 Q 389.8 452.7 391 457.5 L 388.5 460 L 377.5 462 L 368.5 462 L 360.5 464 L 341.5 464 L 340.5 465 L 321.5 465 L 318.5 466 L 316.5 465 L 315.5 466 L 273.5 466 Q 272 468.5 266.5 467 L 264.5 467 L 262.5 466 L 261.5 467 L 239.5 467 L 238.5 466 L 211.5 466 L 208.5 465 L 206.5 465 L 189.5 465 L 188.5 464 L 176.5 464 L 174.5 463 L 172.5 464 L 161.5 462 L 139.5 461 L 134 458.5 L 133 456.5 L 133 440.5 L 135 434.5 L 145 420.5 L 151 400.5 L 157.5 393 L 171.5 385 L 181.5 385 L 182.5 386 L 219.5 387 L 220.5 388 L 268.5 388 Q 269.8 385.7 274.5 387 L 276.5 387 L 314.5 386 L 315.5 385 L 325.5 385 L 326.5 384 L 328.5 385 L 329.5 384 L 340.5 384 L 341.5 383 Z "/>
    <path fill="#66d9e8" d="M 234.5 46 L 237.5 46 L 241.5 49 L 252 59.5 L 265 77.5 Q 270.1 84.4 272 94.5 L 275.5 98 L 288.5 101 L 312 117 L 328 136.5 L 341 162.5 L 332 169.5 L 325 183.5 L 325 194.5 Q 327.8 205.9 334 213 L 347.5 221 L 350.5 221 L 353 223.5 L 353 269.5 L 352 270.5 L 351 305.5 L 350 306.5 L 350 355.5 L 351 356.5 L 352 372.5 L 350.5 374 L 328.5 375 L 327.5 376 L 312.5 376 L 311.5 377 L 295.5 377 L 294.5 378 L 222.5 379 L 221.5 378 L 183.5 377 L 182.5 376 L 174.5 376 L 172 373.5 L 166 355.5 L 165 329.5 L 168 316.5 L 173 306.5 Q 179.6 294.1 189.5 285 L 192 283.5 L 193.5 281 L 221 255.5 L 232 240.5 L 237 227.5 L 237 222.5 L 238.5 221 Q 258.2 216.2 269 202.5 L 274 195.5 Q 274.5 189 278 185.5 L 279 173.5 Q 278 171 273.5 172 L 271 176.5 L 271 181.5 L 269 187.5 Q 264.3 197.3 256.5 204 Q 242 216.5 213.5 215 L 212.5 214 L 194.5 214 L 177.5 221 Q 170.6 228.6 160.5 233 L 148.5 233 Q 134.8 229.2 127 219.5 L 122 210.5 L 120 202.5 L 120 187.5 Q 121.2 179.2 127.5 176 Q 153.1 159.6 173 137.5 L 188 117.5 L 197.5 108 L 208.5 101 L 224.5 95 L 229 90.5 Q 233.3 86.3 232 76.5 L 231 75.5 L 231 54.5 L 234.5 46 Z M 236 47 L 232 59 L 232 69 L 233 70 L 233 86 L 231 91 L 226 96 L 203 106 L 196 112 Q 197 114 195 113 L 176 137 Q 156 159 130 176 Q 123 180 121 190 L 122 205 L 126 216 L 133 221 L 134 224 L 145 230 L 153 232 L 158 232 L 164 230 Q 173 221 186 215 L 192 213 L 206 212 L 209 213 L 231 213 L 240 211 L 248 208 L 259 200 L 261 197 Q 260 194 263 195 L 268 186 L 270 179 L 270 174 Q 271 169 278 170 L 281 175 L 280 185 L 276 193 L 271 213 L 261 229 L 248 241 L 224 255 L 193 284 Q 194 286 192 285 L 184 294 Q 185 296 182 295 L 181 299 L 174 308 L 169 319 L 167 332 L 166 335 L 166 345 L 168 352 L 168 357 L 173 373 L 180 375 L 198 375 L 199 376 L 215 376 L 216 377 L 280 377 L 281 376 L 305 376 L 306 375 L 331 374 L 333 374 L 334 373 L 345 373 L 351 372 L 349 364 L 349 353 L 348 352 L 349 349 L 349 340 L 348 339 L 348 318 L 349 317 L 348 315 L 349 314 L 349 295 L 349 291 L 350 289 L 350 277 L 351 276 L 352 240 L 352 238 L 351 223 L 344 221 L 342 221 Q 339 222 340 219 L 338 217 L 328 207 L 324 196 L 324 182 L 331 169 L 338 164 L 338 160 L 334 150 L 320 129 L 318 127 L 316 125 Q 301 106 275 99 L 271 96 L 269 89 L 263 78 L 250 61 L 248 58 L 236 47 Z "/>
    <path fill="#66d9e8" d="M 266.5 63 L 279.5 63 L 308.5 71 L 323.5 79 L 337.5 89 L 354 105.5 L 365 120.5 L 366 125.5 L 365 128.5 L 371 141.5 L 373 160.5 L 370 175 Q 366.2 176.5 367 173.5 L 361.5 166 Q 357.2 161.2 349 162 L 338 137.5 L 320.5 115 L 318 113.5 L 316.5 111 Q 301.6 96.2 279 90 Q 274.1 75.5 265 64.5 L 266.5 63 Z M 268 64 L 268 66 L 270 65 L 269 67 L 278 83 L 280 89 L 289 91 L 301 97 L 317 110 Q 319 109 318 112 L 322 114 L 333 129 Q 332 131 335 130 Q 344 142 349 159 L 351 160 L 357 161 L 364 166 L 366 171 L 368 170 L 369 172 L 371 166 L 371 149 L 368 138 L 364 131 L 364 122 L 351 105 Q 352 102 350 103 L 347 100 L 332 86 L 310 73 L 284 65 L 268 64 Z "/>
    <path fill="#66d9e8" d="M 218.5 123 L 234.5 123 L 242 127.5 L 242 131.5 L 238 136.5 L 239 137.5 L 239 147.5 L 233.5 156 L 226.5 160 L 213.5 161 Q 212.3 158.8 207.5 160 L 201 155.5 Q 196.1 151.4 198 140.5 Q 201.6 132.1 208.5 127 L 218.5 123 Z M 220 124 L 209 129 Q 201 134 199 144 L 199 149 L 202 155 L 212 159 Q 223 161 230 157 L 237 148 L 237 137 L 236 135 L 240 133 Q 242 132 241 129 Q 234 122 220 124 Z "/>
    <path fill="#66d9e8" d="M 208.5 141 Q 213.8 139.8 215 142.5 L 216 145.5 L 212.5 150 Q 207.8 150.8 207 147.5 Q 205.8 142.3 208.5 141 Z M 209 143 L 209 146 L 209 148 L 213 148 L 214 145 Q 213 142 209 143 Z "/>
    <path fill="#66d9e8" d="M 380 163 L 384 165.5 L 392 208.5 L 393 239.5 L 394 240.5 L 394 269.5 L 393 270.5 L 393 286.5 L 392 287.5 L 391 306.5 L 387 325.5 L 383 338.5 L 378 347.5 L 367.5 359 L 359.5 363 L 358 356.5 L 358 328.5 L 357 327.5 L 357 319.5 L 358 318.5 L 358 301.5 L 359 300.5 L 359 280.5 L 360 279.5 L 361 232.5 L 360 231.5 L 360 223.5 L 361.5 222 L 369.5 221 L 384 211.5 L 385 205.5 Q 384 203 379.5 204 Q 372.6 215.1 354.5 215 Q 342.6 212.4 337 203.5 Q 331.5 197.5 333 184.5 Q 335.4 175.4 342.5 171 L 349.5 169 L 355.5 171 L 358 173.5 Q 361.2 176.8 360 184.5 L 359 187 L 354.5 187 L 350.5 184 L 347.5 184 L 345 187.5 L 348.5 193 Q 352.2 196.3 360.5 195 Q 368.6 192.1 373 185.5 Q 378.7 177.3 381 165.5 L 380 163 Z M 381 169 Q 379 179 374 187 Q 369 193 362 196 Q 352 198 348 194 L 344 190 L 344 186 L 350 182 L 356 186 L 359 184 Q 360 177 357 175 L 351 171 L 343 173 L 335 183 L 335 197 L 338 203 L 346 210 L 351 211 L 353 213 Q 361 214 367 212 L 372 210 L 381 202 L 387 206 L 386 212 L 371 222 L 364 223 L 362 225 L 362 270 L 361 271 L 361 292 L 360 293 L 360 309 L 359 310 L 359 351 Q 362 352 360 359 L 361 361 L 367 358 Q 380 347 385 328 L 390 302 L 391 279 L 392 278 L 392 263 L 393 262 L 391 215 L 390 214 L 388 192 L 383 171 Q 384 168 381 169 Z "/>
    <path fill="#66d9e8" d="M 348.5 381 Q 355.3 379.7 358.5 382 L 372 393.5 Q 379.7 401.3 380 416.5 L 392 435.5 Q 394.6 443.4 393 455.5 L 389.5 461 L 373.5 464 L 365.5 464 L 364.5 465 L 334.5 466 L 333.5 467 L 302.5 467 L 301.5 468 L 218.5 468 L 217.5 467 L 195.5 467 L 194.5 466 L 180.5 466 L 179.5 465 L 167.5 465 L 166.5 464 L 151.5 464 L 133 461 L 131 452.5 L 131 442.5 L 134 433.5 Q 141 426.5 145 416.5 L 145 412.5 L 149 400.5 L 156.5 392 L 171.5 383 L 175.5 383 L 176.5 384 L 186.5 384 L 187.5 385 L 208.5 385 L 209.5 386 L 283.5 386 L 284.5 385 L 306.5 385 L 307.5 384 L 320.5 384 L 321.5 383 L 347.5 382 L 348.5 381 Z M 342 383 L 341 384 L 330 384 L 329 385 L 327 384 L 326 385 L 316 385 L 315 386 L 277 387 L 275 387 Q 270 386 269 388 L 221 388 L 220 387 L 183 386 L 182 385 L 172 385 L 158 393 L 151 401 L 145 421 L 135 435 L 133 441 L 133 457 L 134 459 L 140 461 L 162 462 L 173 464 L 175 463 L 177 464 L 189 464 L 190 465 L 207 465 L 209 465 L 212 466 L 239 466 L 240 467 L 262 467 L 263 466 L 265 467 L 267 467 Q 272 469 274 466 L 316 466 L 317 465 L 319 466 L 322 465 L 341 465 L 342 464 L 361 464 L 369 462 L 378 462 L 389 460 L 391 458 Q 390 453 392 452 L 392 445 L 389 433 L 380 421 L 378 416 L 377 406 L 370 394 Q 365 387 357 383 L 345 383 L 344 384 L 342 383 Z "/>
  </g>
  <g id="line">
    <path fill="#1a1a1a" d="M 232.5 37 L 236.5 37 L 244.5 41 L 258.5 55 L 284.5 56 L 304.5 61 L 316.5 66 Q 339 77 355 94.5 L 375 121.5 L 385 142.5 L 391 160.5 L 397 186.5 L 398 201.5 L 400 209.5 L 401 241.5 L 402 242.5 L 402 265.5 L 401 266.5 L 400 297.5 L 399 298.5 L 396 322.5 L 388 346.5 L 378.5 360 Q 370.8 367.8 360 372.5 L 362.5 376 Q 372.8 380.7 379 389.5 Q 386.8 399.2 388 415.5 L 397 427.5 L 400 434.5 L 401 439.5 L 401 456.5 L 397 466 L 391.5 469 L 386.5 470 L 365.5 472 L 364.5 473 L 350.5 473 L 349.5 474 L 296.5 475 L 295.5 476 L 225.5 476 L 224.5 475 L 165.5 473 L 164.5 472 L 153.5 472 L 144.5 470 L 135.5 470 Q 128.9 469.1 126 464.5 L 124 459.5 L 123 443.5 L 126 431.5 L 137 415.5 Q 137.8 404.8 142 397.5 L 153.5 384 L 165 377.5 L 158 356.5 Q 159.5 351 157 349.5 L 157 329.5 L 162 310.5 L 169 297.5 Q 180.4 280.9 195.5 268 L 217 247.5 Q 225.8 238.3 229 223.5 L 227.5 222 L 193.5 222 L 184.5 226 Q 174.7 235.2 161.5 241 L 148.5 241 Q 131 236.5 121 224.5 L 115 214.5 L 113 207.5 L 112 202.5 L 112 186.5 Q 115.1 174.1 124.5 168 L 152 148 L 153.5 145 L 166 133.5 L 189.5 104 L 201.5 96 L 216.5 90 L 223 85.5 Q 225.5 82 224 74.5 L 223 73.5 L 223 55.5 L 225 45.5 L 230.5 38 L 232.5 37 Z M 235 46 L 231 55 L 231 76 L 232 77 Q 233 86 229 91 L 225 95 L 209 101 L 198 108 L 188 118 L 173 138 Q 153 160 128 176 Q 121 179 120 188 L 120 203 L 122 211 L 127 220 Q 135 229 149 233 L 161 233 Q 171 229 178 221 L 195 214 L 213 214 L 214 215 Q 242 217 257 204 Q 264 197 269 188 L 271 182 L 271 177 L 274 172 Q 278 171 279 174 L 278 186 Q 275 189 274 196 L 269 203 Q 258 216 239 221 L 237 223 L 237 228 L 232 241 L 221 256 L 194 281 L 192 284 L 190 285 Q 180 294 173 307 L 168 317 L 165 330 L 166 356 L 172 374 L 175 376 L 183 376 L 184 377 L 222 378 L 223 379 L 295 378 L 296 377 L 312 377 L 313 376 L 328 376 L 329 375 L 351 374 L 352 373 L 351 357 L 350 356 L 350 307 L 351 306 L 352 271 L 353 270 L 353 224 L 351 221 L 348 221 L 334 213 Q 328 206 325 195 L 325 184 L 332 170 L 341 163 L 328 137 L 312 117 L 289 101 L 276 98 L 272 95 Q 270 84 265 78 L 252 60 L 242 49 L 238 46 L 235 46 Z M 265 63 L 279 90 Q 302 96 317 111 L 318 114 L 321 115 L 338 138 L 349 162 Q 357 161 362 166 L 367 174 L 368 177 L 371 172 L 373 161 L 371 142 L 365 129 L 366 126 L 365 121 L 354 106 L 338 89 L 324 79 L 309 71 L 280 63 L 265 63 Z M 382 160 L 380 163 Q 381 171 378 176 L 373 186 Q 369 192 361 195 Q 352 196 349 193 L 345 188 L 348 184 L 351 184 L 355 187 L 359 187 L 360 185 Q 361 177 358 174 L 356 171 L 350 169 L 343 171 Q 335 175 333 185 Q 331 198 337 204 Q 343 212 355 215 Q 373 215 380 204 Q 384 203 385 206 L 384 212 L 370 221 L 362 222 L 360 224 L 360 232 L 361 233 L 360 280 L 359 281 L 359 301 L 358 302 L 358 319 L 357 320 L 357 328 L 358 329 L 358 357 L 360 363 L 368 359 L 378 348 L 383 339 L 387 326 L 391 307 L 392 288 L 393 287 L 393 271 L 394 270 L 394 241 L 393 240 L 392 209 L 391 208 L 391 201 L 387 178 L 383 162 L 382 160 Z M 349 381 L 348 382 L 322 383 L 321 384 L 308 384 L 307 385 L 285 385 L 284 386 L 210 386 L 209 385 L 188 385 L 187 384 L 177 384 L 176 383 L 172 383 L 157 392 L 149 401 L 145 413 L 145 417 Q 141 426 134 434 L 131 443 L 131 453 L 133 461 L 152 464 L 167 464 L 168 465 L 180 465 L 181 466 L 195 466 L 196 467 L 218 467 L 219 468 L 302 468 L 303 467 L 334 467 L 335 466 L 365 465 L 366 464 L 374 464 L 390 461 L 393 456 Q 395 443 392 436 L 380 417 Q 380 401 372 394 L 359 382 Q 355 380 349 381 Z "/>
    <path fill="#1a1a1a" d="M 219.5 124 Q 234.4 122.1 241 128.5 Q 241.5 132.5 238.5 133 L 236 134.5 L 237 136.5 L 237 147.5 L 229.5 157 Q 223.4 160.9 211.5 159 L 202 155 L 199 148.5 L 199 143.5 Q 201.4 133.9 208.5 129 L 219.5 124 Z M 220 132 L 219 133 Q 215 132 216 135 L 219 136 L 223 142 L 223 150 L 222 151 L 225 151 L 229 147 L 230 143 L 227 134 Q 226 131 220 132 Z M 209 141 Q 206 142 207 148 Q 208 151 213 150 L 216 146 L 215 143 Q 214 140 209 141 Z "/>
  </g>
</svg>
