<svg xmlns="http://www.w3.org/2000/svg" width="512" height="512" viewBox="0 0 512 512">
  <g id="color">
    <path fill="#ffffff" d="M 255.5 72 L 273 72.5 L 255.5 73 L 255.5 72 Z "/>
    <path fill="#ffffff" d="M 242.5 73 L 249 73.5 L 242.5 74 L 242.5 73 Z "/>
    <path fill="#ffffff" d="M 280.5 73 L 285 73.5 L 280.5 74 L 280.5 73 Z "/>
    <path fill="#ffffff" d="M 329.5 84 L 333 85.5 L 331.5 86 L 329.5 84 Z "/>
    <path fill="#ffffff" d="M 192.5 85 L 194 85.5 L 190.5 87 L 190.5 86 L 192.5 85 Z "/>
    <path fill="#ffffff" d="M 336.5 87 L 344 90.5 L 342.5 91 L 336.5 88 L 336.5 87 Z "/>
    <path fill="#ffffff" d="M 347.5 92 L 351 94.5 L 349.5 94 L 347.5 92 Z "/>
    <path fill="#ffffff" d="M 167.5 97 L 166.5 99 L 164.5 100 L 165.5 98 L 167.5 97 Z "/>
    <path fill="#ffffff" d="M 410.5 146 L 415 146.5 L 410.5 147 L 410.5 146 Z "/>
    <path fill="#ffffff" d="M 439.5 154 L 444 156.5 L 442.5 156 Q 438.7 155.8 439.5 154 Z "/>
    <path fill="#ffffff" d="M 103.5 157 L 103 158.5 L 101.5 161 L 102 159.5 L 103.5 157 Z "/>
    <path fill="#ffffff" d="M 98.5 165 L 98 166.5 L 96.5 169 L 97 167.5 L 98.5 165 Z "/>
    <path fill="#ffffff" d="M 89.5 182 L 90 183.5 L 87.5 188 L 87 186.5 L 89.5 182 Z "/>
    <path fill="#ffffff" d="M 472.5 184 L 474 187.5 L 473 187.5 L 472.5 184 Z "/>
    <path fill="#ffffff" d="M 476.5 196 L 477 202.5 L 476 202.5 L 476.5 196 Z "/>
    <path fill="#ffffff" d="M 476.5 209 L 477 213.5 L 476 213.5 L 476.5 209 Z "/>
    <path fill="#ffffff" d="M 75.5 230 L 76 235.5 L 75 235.5 L 75.5 230 Z "/>
    <path fill="#ffffff" d="M 441.5 264 L 438 268.5 L 437.5 277 L 437 268.5 L 441.5 264 Z "/>
    <path fill="#ffffff" d="M 45.5 273 L 45 274.5 L 43.5 277 L 44 275.5 L 45.5 273 Z "/>
    <path fill="#ffffff" d="M 436.5 279 L 437 283.5 L 436 283.5 L 436.5 279 Z "/>
    <path fill="#ffffff" d="M 36.5 309 L 37 313.5 L 36 313.5 L 36.5 309 Z "/>
    <path fill="#ffffff" d="M 428.5 317 L 429 318.5 L 427.5 321 L 427 319.5 L 428.5 317 Z "/>
    <path fill="#ffffff" d="M 39.5 322 L 41 325.5 L 40 325.5 L 39.5 322 Z "/>
    <path fill="#ffffff" d="M 424.5 328 L 425 329.5 L 423.5 332 L 423 330.5 L 424.5 328 Z "/>
    <path fill="#ffffff" d="M 421.5 335 L 422 336.5 L 418.5 342 L 419 340.5 L 421.5 335 Z "/>
    <path fill="#ffffff" d="M 71.5 353 L 75 354.5 L 73.5 355 L 71.5 353 Z "/>
    <path fill="#ffffff" d="M 85.5 358 L 91 359.5 L 88.5 360 L 85.5 359 L 85.5 358 Z "/>
    <path fill="#ffffff" d="M 155.5 410 L 159 412.5 L 157.5 412 L 155.5 410 Z "/>
    <path fill="#ffffff" d="M 350.5 414 L 349.5 416 L 347.5 417 L 348.5 415 L 350.5 414 Z "/>
    <path fill="#ffffff" d="M 343.5 418 L 342.5 420 L 338.5 422 L 339.5 420 L 343.5 418 Z "/>
    <path fill="#ffffff" d="M 190.5 428 L 194 429.5 L 192.5 430 L 190.5 428 Z "/>
    <path fill="#ffffff" d="M 305.5 433 L 308 433.5 L 302.5 435 L 302.5 434 L 305.5 433 Z "/>
    <path fill="#ffffff" d="M 228.5 438 L 234 438.5 L 228.5 439 L 228.5 438 Z "/>
    <path fill="#ffffff" d="M 279.5 438 L 285 438.5 L 279.5 439 L 279.5 438 Z "/>
    <path fill="#ffffff" d="M 237.5 439 L 244 439.5 L 237.5 440 L 237.5 439 Z "/>
    <path fill="#ffffff" d="M 270.5 439 L 277 439.5 L 270.5 440 L 270.5 439 Z "/>
    <path fill="#ffd43b" d="M 248.5 82 L 279.5 82 L 280.5 83 L 288.5 83 L 318.5 90 Q 353.3 102.3 377 125.5 L 378.5 128 L 381 129.5 L 398 149.5 L 383.5 153 L 361.5 130 Q 341.1 112.4 311.5 104 L 282.5 99 L 256.5 99 L 255.5 100 L 239.5 101 L 212.5 108 L 192.5 117 L 158 139 Q 159.1 141.7 156.5 141 L 141 154.5 Q 121 177 108 206.5 L 100 232.5 L 97 261.5 L 98 264.5 L 97 266.5 L 98 269.5 L 94.5 272 L 92.5 272 Q 89.2 270.9 90 273.5 Q 82.8 280.3 85 296.5 Q 88.6 305.9 96.5 311 L 112.5 318 L 116.5 318 L 130.5 322 L 138.5 322 L 139.5 323 L 178.5 323 L 179.5 322 L 190.5 322 L 191.5 321 L 212.5 319 L 244.5 313 L 279.5 304 L 306.5 295 L 350.5 275 L 370.5 263 L 382.5 253 L 382.5 255 L 388 257 L 392 262.5 L 394 268.5 L 369.5 282 Q 362.3 282.8 358.5 287 L 352.5 288 L 350.5 290 L 321.5 302 L 256.5 325 L 238.5 330 L 225.5 332 L 222 334.5 L 223 344 L 200 348 Q 198.9 350.7 201.5 350 Q 224 366 262.5 366 L 263.5 365 L 271.5 365 L 281.5 363 L 297.5 358 Q 323.2 347.2 340 327.5 L 352 310.5 L 354 304 L 373 297 Q 362.1 329.9 337.5 350 Q 316.5 368 286.5 377 L 263.5 381 L 237.5 381 L 220.5 378 L 204 371.5 L 208 364 L 198.5 364 L 190 357 L 189.5 364 L 174 352.5 Q 175.4 342.1 169.5 339 L 167.5 338 L 156.5 338 L 155.5 339 L 126.5 339 L 125.5 338 L 116.5 338 L 115.5 337 L 103.5 336 L 84.5 330 Q 72.3 325.3 65 315.5 L 61 307.5 L 61 293.5 L 69 275.5 L 83 258.5 L 84 249.5 Q 80.5 248 83 246.5 L 87 217.5 L 96 189.5 L 110 163.5 Q 123.3 143.8 140.5 128 Q 164.1 107.1 195.5 94 L 213.5 88 L 238.5 83 L 247.5 83 L 248.5 82 Z "/>
    <path fill="#ffd43b" d="M 243.5 128 L 261.5 128 L 262.5 129 L 277.5 130 L 292.5 133 L 316.5 141 Q 324 144 328 150.5 Q 326.8 157.8 330.5 160 L 334 157.5 L 336.5 153 L 338.5 152 L 338 153.5 L 343.5 160 L 347 162.5 L 349 165.5 L 363 181.5 L 373 199.5 L 378 213.5 L 384 243.5 L 367.5 257 L 366 255.5 L 366 245.5 L 365 244.5 L 364 232.5 L 356 209.5 Q 345.2 186.3 326.5 171 L 308.5 159 L 284.5 150 L 275.5 148 L 267.5 148 L 266.5 147 L 245.5 147 L 228.5 150 L 206.5 158 Q 185.4 168.9 171 186.5 Q 157.9 202.9 151 225.5 L 147 246.5 L 147 266.5 L 148 267.5 L 149 279.5 L 153 293.5 L 165 317 L 145.5 317 L 144 315.5 L 136 297.5 L 131 278.5 L 132.5 275 L 136 276 L 139 269.5 L 139 265.5 L 134.5 260 L 130 259 L 131 235.5 L 134 228.5 L 133 225.5 Q 136.8 204.8 147 190.5 Q 158.5 172.5 174.5 159 Q 188.7 146.7 206.5 138 L 226.5 131 L 243.5 128 Z "/>
    <path fill="#ffd43b" d="M 336.5 136 Q 336.3 144.2 341.5 147 L 343 147.5 L 342 150 Q 335.3 148.9 333 153.5 Q 333.7 156.1 331 155 Q 331.6 147.7 326.5 145 Q 323.9 145.7 325 143 L 334 140 L 336.5 136 Z "/>
    <path fill="#ffd43b" d="M 394 165 Q 398.5 167 407.5 166 L 428.5 172 Q 439.8 177.2 447 186.5 L 450 192.5 Q 447.5 194 451 195.5 Q 452.6 207.6 449 214.5 L 439 231 Q 431.4 231.9 426.5 229 L 423 225.5 L 427 213.5 L 427 202.5 L 425 196.5 L 419.5 189 L 411.5 183 Q 403.7 182.3 400 177.5 L 394 167.5 L 394 165 Z "/>
    <path fill="#ffd43b" d="M 422.5 250 L 424.5 253 Q 426.8 252.3 426 254.5 L 431 261.5 L 429 263.5 L 427 287.5 L 424 301.5 L 419 318.5 L 412 335.5 Q 395.2 369.2 367.5 392 Q 341.4 413.9 304.5 425 L 271.5 431 L 242.5 431 L 241.5 430 L 233.5 430 L 221.5 427 L 216.5 427 L 188.5 418 Q 151.8 402.2 127 374.5 L 113 356.5 L 122.5 356 L 123.5 357 L 134.5 357 L 136.5 358 L 164.5 384 L 190.5 400 L 214.5 409 L 230.5 412 L 237.5 412 L 238.5 413 L 247.5 413 L 248.5 414 L 250.5 414 L 253.5 413 L 283.5 412 L 302.5 408 L 322.5 401 L 345.5 388 Q 360.3 377.8 371.5 364 L 373 364 L 394 333.5 L 402 317.5 L 405 307.5 L 407 305.5 L 407 303.5 L 411 293.5 L 413 277.5 L 412 275 L 409.5 275 L 401.5 280 L 398 280 L 392.5 273 L 391 272.5 L 411.5 260 L 422.5 250 Z "/>
    <path fill="#ffd43b" d="M 127 262 Q 133.1 260.3 135 263.5 L 137 268.5 L 136 271 Q 133.3 272.1 134 269.5 L 131.5 266 L 127 263.5 L 127 262 Z "/>
    <path fill="#ffd43b" d="M 192.5 361 Q 194.8 367.7 205 366.5 L 202 369.5 L 199.5 377 Q 196.7 371.8 188 372.5 Q 193.2 369.7 192.5 361 Z "/>
    <path fill="#ff6b6b" d="M 256.5 101 L 289.5 102 L 320.5 109 L 342.5 119 Q 358.6 128.9 371 142.5 Q 370.3 144.8 372.5 144 L 382.5 155 L 384.5 156 Q 389.2 152.2 397.5 152 L 404 154 L 404.5 156 L 409.5 155 Q 411 158.5 412.5 156 L 423.5 158 L 427.5 161 L 430 160 L 430.5 162 L 433 161 L 433.5 163 L 435.5 163 L 439.5 164 L 450 171.5 L 450.5 173 L 451.5 172 L 460 180.5 L 465 188.5 L 467 196.5 Q 464.5 198 468 199.5 Q 469.6 211.7 465 217.5 L 465 219.5 Q 466.1 222.8 463.5 222 L 463 224.5 L 459.5 232 L 458 231.5 L 457 233.5 L 458 234.5 L 455 237.5 L 448.5 246 Q 446.3 245.3 447 247.5 L 440.5 254 L 438 254 L 435.5 258 L 431 259 L 426.5 251 L 424 249.5 L 425.5 247 L 429 246 L 430 242 L 425 244 Q 426.1 246.7 423.5 246 L 420.5 250 L 407.5 260 L 403.5 261 L 397.5 266 L 395 266 L 394 261.5 L 386.5 254 Q 383.9 254.8 385 251.5 L 395.5 240 L 397 239.5 L 396.5 238 Q 399.1 238.8 398 235.5 L 405 221.5 L 404 217.5 L 405 215.5 L 401 203.5 L 396 197 L 388.5 192 L 383.5 191 Q 381.3 191.8 382 195.5 L 386 198 L 386.5 200 L 387.5 199 L 395 206.5 Q 399.4 211.7 398 222.5 L 392 234.5 L 387 241 Q 383.7 242.3 385 237.5 L 383 230.5 L 383 224.5 L 380 217.5 L 380 215.5 L 374 196.5 L 365 181.5 L 365 179 L 362 177.5 L 355 167 Q 352.3 168.1 353 165.5 L 340 153.5 L 347 151 L 347 148.5 L 340 141.5 L 339 132 Q 335.2 131.3 334 134.5 L 329.5 140 L 320.5 141 L 310.5 136 L 289.5 130 L 275.5 129 L 263.5 126 L 243.5 126 L 221.5 130 L 205.5 136 L 175 155 L 173.5 158 L 165 164.5 Q 165.8 166.8 163.5 166 L 151 180.5 L 146 190 Q 143.3 188.9 144 191.5 L 136 206.5 L 131 223.5 L 132 225.5 L 128 243.5 L 128 257.5 L 122 264.5 L 123 267 L 125.5 266 L 129 268 L 129 278.5 Q 132.3 284.2 132 293.5 L 134 295.5 L 135 300.5 L 142 316 L 133.5 316 L 126 314 L 121 305.5 L 116 291.5 L 116 289.5 L 114 283.5 L 114 273.5 L 113 272.5 L 113 251.5 L 115 246.5 L 114 244.5 L 116 233.5 L 118 230.5 L 118 228.5 L 117.5 227 Q 113.3 228.8 116 230.5 L 114 238.5 L 112 240.5 Q 114.3 241.8 113 246.5 L 112 247.5 L 112 273.5 L 111 274.5 L 113 280.5 L 114 290.5 L 117 297.5 L 117 299.5 L 122 309.5 L 122 313 L 117.5 313 L 105.5 309 L 102.5 312 L 101.5 311 L 97.5 308 L 95 308 L 91 301 Q 87.7 302.3 89 297.5 Q 85.9 293.1 87 284.5 L 92.5 274 L 99 271.5 L 100 267.5 L 100 265.5 L 99 259.5 L 100 256.5 L 100 245.5 L 102 237.5 L 102 235.5 L 105 221.5 L 114 198.5 L 124 180.5 L 137.5 162 Q 139.8 162.8 139 160.5 L 148.5 150 L 174.5 130 L 201.5 115 L 226.5 106 L 240.5 103 L 255.5 102 L 256.5 101 Z M 260 114 L 261 116 L 265 115 L 267 115 L 278 115 L 278 117 L 280 116 Q 292 116 300 120 L 303 120 L 301 118 Q 297 119 298 117 L 297 117 L 285 114 L 260 114 Z M 303 120 L 303 122 Q 309 121 312 125 Q 314 126 313 124 L 309 121 L 307 121 L 303 120 Z M 394 163 L 391 164 L 391 167 L 399 181 L 408 185 L 411 185 L 415 188 L 421 195 L 425 208 L 424 216 L 424 218 L 421 224 Q 422 227 419 226 L 419 229 L 417 229 Q 418 233 415 232 L 413 238 L 404 246 L 401 246 Q 402 249 400 248 L 397 252 L 400 251 Q 403 252 402 250 L 412 241 L 414 241 L 413 240 L 423 228 L 426 231 L 432 233 L 436 232 L 439 233 Q 451 224 453 204 L 454 201 Q 453 192 449 187 Q 450 184 448 185 L 446 183 L 439 175 L 425 168 L 417 167 L 410 164 L 394 163 Z "/>
    <path fill="#ff6b6b" d="M 79.5 250 L 82 251.5 Q 79.5 253 81 258.5 L 66 275.5 L 64 282.5 L 59 291.5 L 58 301.5 L 61 313.5 L 72.5 326 L 87.5 334 L 89.5 334 L 107.5 339 L 125.5 340 L 127.5 341 L 129.5 341 L 143.5 341 L 145.5 340 Q 147.3 342.8 153.5 341 L 154.5 340 L 167.5 340 Q 172.3 342.3 172 349.5 L 172 351.5 L 173 356 L 189 366.5 L 184 374.5 L 186.5 376 Q 188 373.5 193.5 375 L 196 376 L 197.5 379 L 201.5 382 L 204 380.5 L 203 375.5 Q 204.3 372.8 205.5 375 L 234.5 383 L 260.5 383 L 261.5 384 L 265.5 382 L 272.5 382 L 286.5 379 L 302.5 374 L 309.5 370 L 313 370 L 314.5 367 L 329 360 Q 327.9 357.3 330.5 358 L 350 340.5 Q 349.3 338.3 351.5 339 Q 367.4 321.4 376 296.5 L 372.5 294 L 359.5 299 L 344.5 307 L 343.5 306 L 338.5 309 L 336.5 310 L 335 309.5 Q 335.8 311.8 333.5 311 L 331.5 312 L 330 311.5 Q 330.8 314.1 327.5 313 L 325.5 314 L 324 313.5 Q 324.8 316.1 321.5 315 L 311.5 319 L 310 318.5 Q 310.8 321.1 307.5 320 L 302.5 322 L 300.5 321 L 300.5 323 Q 299 320.5 297.5 324 L 286.5 327 L 285 326.5 Q 285.8 329.1 282.5 328 L 280.5 329 Q 279 326.5 277.5 330 L 265.5 333 L 264 332.5 Q 264.9 335.9 259.5 334 L 254.5 336 L 253 335.5 Q 253.9 338.5 249.5 337 L 233.5 341 Q 232 338.5 230.5 342 L 226.5 343 Q 223.5 341.5 225 335.5 L 226.5 334 L 239.5 332 L 258.5 326 L 260 326.5 Q 259.1 323.5 263.5 325 L 273.5 321 Q 275 323.5 276.5 320 L 301.5 312 L 303.5 310 L 314.5 307 L 332.5 299 Q 334 301.5 335.5 298 L 347.5 292 L 363.5 287 L 371.5 282 L 390.5 274 L 396 278.5 Q 395.5 282.5 398.5 283 L 409.5 278 L 411 281.5 L 407 295.5 L 407 299.5 L 404 303.5 L 403 309.5 L 397 323.5 L 383 347 Q 380.3 345.9 381 348.5 Q 372.5 362 360.5 372 Q 358.3 371.3 359 373.5 L 357 377 L 328.5 396 L 319.5 399 L 317.5 401 L 297.5 407 L 275.5 411 L 273.5 410 L 272.5 411 L 250.5 411 L 246.5 412 L 239.5 410 L 222.5 409 L 203.5 402 Q 202 404.5 200.5 401 L 195.5 400 L 170 386 Q 171.1 383.3 168.5 384 L 156 374.5 Q 156.8 372.3 154.5 373 L 148 365 L 135.5 355 L 112.5 354 L 110.5 354 L 102.5 353 L 99.5 351 L 96.5 352 L 93.5 350 L 90.5 351 L 74 345 L 73.5 343 L 72.5 344 L 69.5 341 L 67.5 341 Q 64.9 341.7 66 339 L 63.5 339 L 59 335.5 Q 59.8 333.3 57.5 334 Q 50.6 327.4 47 317.5 Q 49.5 316 46 314.5 L 45 300.5 L 48 288 L 50 287.5 L 49.5 286 L 51 285.5 L 51 283.5 L 51.5 282 L 53 282.5 L 52 280.5 L 57 272 L 60 270.5 L 59 269.5 L 76.5 252 L 79.5 250 Z M 392 298 L 389 308 Q 385 309 388 311 L 385 318 L 383 319 L 383 321 L 374 336 Q 375 338 372 337 L 369 343 Q 370 345 368 344 L 362 352 Q 359 351 360 354 L 349 364 Q 346 363 347 366 L 340 370 Q 338 373 337 371 L 336 373 Q 327 379 316 383 L 314 383 L 307 387 L 291 391 L 289 391 L 277 394 L 275 394 Q 270 398 262 396 L 263 398 L 264 397 L 273 397 L 274 396 L 286 395 Q 287 392 292 393 L 296 393 L 296 391 L 302 390 L 304 390 L 306 388 Q 312 388 315 385 L 317 386 L 317 384 L 335 376 L 337 376 L 337 374 L 361 357 L 360 356 L 372 343 L 375 337 L 379 334 L 378 333 L 389 314 L 394 299 L 392 298 Z "/>
    <path fill="#ffa94d" d="M 278.5 101 L 284 101.5 L 278.5 102 L 278.5 101 Z "/>
    <path fill="#ffa94d" d="M 212.5 108 L 213 111 L 201.5 115 L 186.5 124 L 182.5 125 L 148 150 L 150.5 146 L 158 141 Q 156.9 138.3 159.5 139 Q 182.2 119.7 212.5 108 Z "/>
    <path fill="#ffa94d" d="M 243.5 126 L 251 126.5 L 243.5 127 L 243.5 126 Z "/>
    <path fill="#ffa94d" d="M 258.5 126 L 264 126.5 L 258.5 127 L 258.5 126 Z "/>
    <path fill="#ffa94d" d="M 269.5 128 L 282.5 129 L 297.5 132 L 323 141.5 L 319.5 143 L 303.5 136 Q 296.5 136 292.5 133 L 277.5 130 L 270.5 130 L 269.5 128 Z "/>
    <path fill="#ffa94d" d="M 205.5 136 L 207 136.5 L 202.5 139 L 203.5 137 L 205.5 136 Z "/>
    <path fill="#ffa94d" d="M 375.5 144 L 383.5 153 L 388.5 151 L 397.5 150 L 399.5 153 L 395.5 152 L 384.5 156 L 378 150.5 L 374 145.5 L 375.5 144 Z "/>
    <path fill="#ffa94d" d="M 339.5 152 L 343 152.5 L 340 153.5 L 346.5 161 Q 340.4 159.6 338 154.5 L 339.5 152 Z "/>
    <path fill="#ffa94d" d="M 143.5 155 L 139 160.5 L 138.5 162 L 138 160.5 L 143.5 155 Z "/>
    <path fill="#ffa94d" d="M 393.5 163 L 409.5 164 L 416 166.5 L 411.5 168 L 407.5 166 Q 398.5 167 394 165 L 394 167.5 L 402.5 180 L 411.5 183 L 421 190.5 L 423 194.5 L 421 195.5 L 414.5 188 L 410.5 185 L 407.5 185 L 399 180.5 L 391 166.5 L 391 164 L 393.5 163 Z "/>
    <path fill="#ffa94d" d="M 430.5 171 L 435 173.5 L 433.5 173 Q 429.7 172.7 430.5 171 Z "/>
    <path fill="#ffa94d" d="M 380.5 218 L 383 224.5 L 384 236.5 L 386 241.5 L 383 243 L 379 219.5 L 380.5 218 Z "/>
    <path fill="#ffa94d" d="M 131.5 226 Q 135.7 227.8 133 229.5 L 130 243.5 L 130 258.5 L 128.5 260 Q 124 259.5 123.5 263 L 128 257.5 L 128 243.5 L 131.5 226 Z "/>
    <path fill="#ffa94d" d="M 422 226 L 432.5 231 L 438 231 Q 439.1 233.7 436.5 233 L 434.5 233 Q 425.4 233.1 422 227.5 L 422 226 Z "/>
    <path fill="#ffa94d" d="M 81.5 248 L 84 249.5 L 83 258.5 Q 70.1 270.6 62.5 288 Q 59.8 286.8 62 285.5 L 66 275.5 L 81 258.5 Q 79.5 253 82 251.5 Q 78.3 249.8 81.5 248 Z "/>
    <path fill="#ffa94d" d="M 423.5 249 L 428 252.5 L 431 259 L 433 259.5 L 430.5 261 L 426 253 L 423 251.5 L 423.5 249 Z "/>
    <path fill="#ffa94d" d="M 384.5 252 L 385 254 L 394 261.5 L 395 266 L 398.5 265 L 397.5 267 L 394.5 268 L 388 257 L 382 254.5 L 384.5 252 Z "/>
    <path fill="#ffa94d" d="M 97 260 Q 99.7 258.9 99 261.5 L 100 265.5 L 100 267.5 L 97.5 273 L 91.5 275 L 92 273.5 L 93.5 271 L 95.5 271 L 98 269.5 L 97 265.5 L 98 262.5 L 97 260 Z "/>
    <path fill="#ffa94d" d="M 403.5 261 L 405 261.5 L 400.5 265 L 403.5 261 Z "/>
    <path fill="#ffa94d" d="M 126.5 266 L 132 270.5 L 131 273.5 L 132 277.5 L 132 279.5 L 132 283.5 L 136 297.5 L 145 316.5 L 140.5 317 L 140.5 316 Q 142.8 316.8 142 314.5 L 140 312.5 L 134 295.5 L 132 293.5 L 132 288.5 L 129 278.5 L 129 268 L 126.5 266 Z "/>
    <path fill="#ffa94d" d="M 390.5 273 L 392.5 273 L 398 278.5 Q 397.1 281.5 401.5 280 L 409.5 275 L 412 275 L 413 281.5 L 412 282.5 L 411 293.5 L 408 302 L 406 302.5 L 406.5 304 L 405 303.5 L 404.5 306 L 404 303.5 L 407 299.5 L 411 279.5 L 408.5 278 L 398.5 283 L 393.5 276 L 390.5 273 Z "/>
    <path fill="#ffa94d" d="M 378.5 277 L 381 277.5 L 378.5 280 L 352.5 291 Q 349.5 289.5 352.5 288 L 358.5 287 L 378.5 277 Z "/>
    <path fill="#ffa94d" d="M 86.5 287 L 87 291.5 L 86 291.5 L 86.5 287 Z "/>
    <path fill="#ffa94d" d="M 87.5 293 L 89 299.5 L 88 299.5 L 87.5 293 Z "/>
    <path fill="#ffa94d" d="M 372.5 294 L 376 296.5 Q 367.4 321.4 351.5 339 Q 349.3 338.3 350 340.5 L 332.5 357 L 332 354.5 L 336.5 350 L 352 335.5 L 365 316.5 Q 370.9 307.9 373 297 L 367.5 298 L 354.5 304 L 352 303.5 L 372.5 294 Z "/>
    <path fill="#ffa94d" d="M 89.5 301 Q 91.8 300.3 91 302.5 L 95 308 L 97.5 308 L 103 312.5 L 102.5 314 Q 93.1 310.4 88 302.5 L 89.5 301 Z "/>
    <path fill="#ffa94d" d="M 247.5 327 L 250 328.5 L 239.5 332 L 226.5 334 L 225 335.5 Q 223.5 341 226 342.5 L 223 343 L 222 334.5 L 225.5 332 L 238.5 330 L 247.5 327 Z "/>
    <path fill="#ffa94d" d="M 156.5 338 Q 168.4 335.6 172 341.5 Q 175.2 344.8 174 352.5 L 178.5 357 L 190 364.5 L 189.5 367 L 173 356 L 171 350.5 L 172 346.5 L 167.5 340 L 154.5 340 L 153.5 341 L 146 341 L 146.5 339 L 155.5 339 L 156.5 338 Z "/>
    <path fill="#ffa94d" d="M 129.5 340 L 144 340.5 L 129.5 341 L 129.5 340 Z "/>
    <path fill="#ffa94d" d="M 112 354 L 126.5 354 L 127.5 355 L 135.5 355 L 137 356.5 L 138 358.5 L 136.5 358 L 134.5 357 L 112 356 L 112 354 Z "/>
    <path fill="#ffa94d" d="M 203 372 L 220 377.5 L 217.5 379 L 204.5 374 L 203 374.5 L 203 372 Z "/>
    <path fill="#ffa94d" d="M 358.5 374 L 360 375.5 L 353.5 382 Q 335.8 396.3 312.5 405 L 283.5 412 L 253.5 413 L 250.5 414 L 247 412.5 L 250.5 411 L 272.5 411 L 274.5 410 L 276.5 410 L 288.5 409 L 317.5 401 L 319.5 399 L 328.5 396 L 357 377 L 358.5 374 Z "/>
    <path fill="#ffa94d" d="M 235.5 410 L 240 410.5 L 235.5 411 L 235.5 410 Z "/>
  </g>
  <g id="line">
    <path fill="#1a1a1a" d="M 249.5 73 L 279.5 73 L 280.5 74 L 289.5 74 L 305.5 77 L 326.5 83 Q 369.1 99.9 396 132.5 L 406.5 146 Q 442.3 149.7 462 169.5 Q 470.1 176.9 474 188.5 L 476 194.5 L 477 208.5 L 475 219.5 L 469 233.5 L 453 255 L 437 268.5 L 437 278.5 L 436 279.5 L 434 297.5 L 431 306.5 L 431 310.5 L 423 332.5 L 413 352.5 L 400 371.5 L 387 387 L 365.5 405 L 353.5 413 L 337.5 422 L 315.5 431 L 297.5 436 L 279.5 438 L 278.5 439 L 270.5 439 L 269.5 440 L 244.5 440 L 243.5 439 L 234.5 439 L 233.5 438 L 215.5 436 L 186.5 427 Q 169 420 154.5 410 L 130 391 L 128.5 388 L 126 386.5 L 105.5 362 L 91.5 360 L 70.5 353 Q 55.6 346.4 46 334.5 Q 39.8 326.7 37 315.5 L 36 301.5 L 38 290.5 L 43 277.5 Q 53.3 259.8 68.5 247 L 75 241.5 L 78 217.5 Q 82.3 197.8 90 181.5 Q 104.7 149.7 128.5 127 L 155.5 105 L 186.5 88 L 216.5 78 L 237.5 74 L 248.5 74 L 249.5 73 Z M 249 82 L 248 83 L 239 83 L 214 88 L 196 94 Q 164 107 141 128 Q 123 144 110 164 L 96 190 L 87 218 L 83 247 L 77 252 L 56 274 Q 48 284 45 300 Q 44 324 58 334 Q 60 333 59 336 Q 68 344 82 348 L 91 351 L 111 354 L 127 375 Q 152 402 189 418 L 217 427 L 222 427 L 234 430 L 242 430 L 243 431 L 272 431 L 305 425 Q 341 414 368 392 Q 395 369 412 336 L 421 313 L 426 294 L 429 264 L 441 254 Q 461 239 468 211 L 467 195 L 460 181 Q 451 169 438 163 L 417 156 L 402 154 L 381 130 L 379 128 L 377 126 Q 353 102 319 90 L 289 83 L 281 83 L 280 82 L 249 82 Z "/>
    <path fill="#1a1a1a" d="M 256.5 99 L 282.5 99 L 283.5 100 L 291.5 100 L 292.5 101 L 303.5 102 L 327.5 109 L 351.5 122 L 375 143.5 Q 375.8 145.8 373.5 145 L 366.5 137 L 341.5 118 L 312.5 106 L 283.5 101 L 253.5 101 L 252.5 102 L 233.5 104 L 213.5 110 L 213 108 L 221.5 105 L 234.5 103 L 239.5 101 L 255.5 100 L 256.5 99 Z "/>
    <path fill="#1a1a1a" d="M 259.5 114 L 284.5 114 L 293.5 117 L 297.5 117 L 313 123.5 L 312.5 125 L 302.5 120 L 290.5 117 L 285.5 117 L 278.5 115 L 261.5 115 Q 259.7 117.5 259.5 114 Z "/>
    <path fill="#1a1a1a" d="M 251.5 126 L 269 127 Q 270.1 130.5 262.5 129 L 261.5 128 L 243.5 128 L 216.5 134 L 193.5 145 Q 173.3 157.8 158 175.5 Q 145.3 190.3 137 209.5 L 132.5 227 L 132 221.5 Q 135.7 204.2 144 191.5 Q 154.6 174.1 169.5 161 Q 186.7 145.2 209.5 135 L 231.5 128 L 250.5 127 L 251.5 126 Z "/>
    <path fill="#1a1a1a" d="M 337.5 132 Q 340.8 133.8 339 140.5 L 341.5 144 L 344 145.5 L 347 151 Q 344.6 152.8 338.5 152 L 335 154.5 L 332.5 159 L 330.5 160 Q 326.8 157.8 328 150.5 L 321 142 L 327.5 141 L 332 138.5 L 337.5 132 Z M 337 136 L 334 140 L 331 142 L 325 142 Q 323 146 327 145 Q 332 148 331 155 Q 334 156 333 154 L 338 150 Q 344 151 344 149 L 342 147 Q 336 144 337 136 Z "/>
    <path fill="#1a1a1a" d="M 245.5 147 L 275.5 148 L 297.5 154 Q 324 165 341 185.5 L 351 199.5 L 359 216.5 L 364 232.5 L 365 244.5 L 366 245.5 L 366 255.5 L 367.5 257 Q 379.4 249.9 388 239.5 L 397 225.5 L 398 213.5 Q 395.2 203.8 387.5 199 L 382 195.5 Q 381.3 191.8 383.5 191 L 396 197 L 404 210.5 L 404 223.5 Q 397.4 241.9 383.5 253 Q 359.1 272.6 328.5 286 L 279.5 304 L 244.5 313 L 198.5 321 L 179.5 322 L 178.5 323 L 139.5 323 L 112.5 318 L 103 314 L 104.5 310 L 108.5 310 L 121.5 314 Q 124.2 312.8 122 311.5 L 117 300.5 L 113 286.5 Q 114.5 281 112 279.5 L 112 247.5 Q 114.7 245.7 113 239.5 L 116.5 229 L 117 232.5 L 113 251.5 L 113 273.5 L 117 295.5 L 124 311.5 L 127.5 315 L 139.5 316 L 140.5 317 L 165 317 Q 155.6 302.7 150 283.5 L 147 266.5 L 147 246.5 L 151 225.5 L 161 201.5 Q 170.9 183.4 186.5 171 Q 199.3 160.8 215.5 154 L 232.5 149 L 244.5 148 L 245.5 147 Z "/>
    <path fill="#1a1a1a" d="M 147.5 148 L 148 150.5 Q 126 172.5 112 202.5 L 105 220.5 L 101 236.5 L 99 260 Q 95 261.4 97 254.5 L 98 253.5 L 100 232.5 L 108 206.5 Q 122.5 172 147.5 148 Z "/>
    <path fill="#1a1a1a" d="M 346.5 161 L 357 170.5 Q 374.1 188.9 380 218.5 L 379 218.5 L 376 207.5 L 369 191.5 L 358 174.5 L 349 165.5 L 349 164 Q 346.3 165.1 347 162.5 L 346.5 161 Z "/>
    <path fill="#1a1a1a" d="M 413.5 167 L 419.5 167 L 428.5 170 L 437.5 175 L 446 182.5 L 453 195.5 L 453 207.5 L 446 224.5 L 438.5 233 L 438 231.5 L 449 214.5 Q 452.6 207.6 451 195.5 Q 447.6 183.9 438.5 178 L 428.5 172 L 413.5 168 L 413.5 167 Z "/>
    <path fill="#1a1a1a" d="M 422 195 L 425 196.5 Q 428.4 202.6 427 213.5 L 422 228.5 Q 415.1 240.1 404.5 248 L 397 252 L 399.5 248 L 413 237.5 L 423 221.5 L 425 214.5 L 425 205.5 L 422 195 Z "/>
    <path fill="#1a1a1a" d="M 428.5 242 Q 430.8 241.3 430 243.5 L 411.5 260 L 381.5 278 L 380.5 276 Q 408.8 263.3 428.5 242 Z "/>
    <path fill="#1a1a1a" d="M 129.5 259 Q 135.9 259.1 138 263.5 L 139 269.5 L 136 276 L 132 274.5 L 131 268 L 122 264.5 L 129.5 259 Z M 127 262 L 127 264 L 132 266 L 134 270 Q 133 272 136 271 L 137 269 L 135 264 Q 133 260 127 262 Z "/>
    <path fill="#1a1a1a" d="M 90 272 Q 92.7 270.9 92 273.5 Q 86.5 280 86 291.5 L 89 301.5 L 87 300.5 Q 83.3 294.7 85 283.5 L 90 272 Z "/>
    <path fill="#1a1a1a" d="M 61.5 287 Q 64.3 288.3 62 289.5 Q 59.6 296.6 61 307.5 Q 64.8 318.2 73.5 324 L 84.5 330 L 103.5 336 L 115.5 337 L 116.5 338 L 125.5 338 L 126.5 339 L 146 339.5 L 116.5 340 L 86.5 333 L 70.5 324 L 64 317.5 L 59 305.5 L 59 293.5 L 61.5 287 Z "/>
    <path fill="#1a1a1a" d="M 348.5 290 L 352 290.5 L 308.5 309 L 256.5 327 L 249.5 328 L 250.5 326 L 297.5 311 L 341.5 294 L 348.5 290 Z "/>
    <path fill="#1a1a1a" d="M 392 298 L 394 298.5 Q 381.4 337.4 354.5 362 L 338.5 374 L 311.5 387 L 284.5 395 L 273.5 396 L 272.5 397 L 263.5 397 L 263.5 396 L 270.5 396 L 293.5 391 L 321.5 381 L 345.5 367 L 364 349.5 Q 376.3 335.3 385 317.5 L 392 298 Z "/>
    <path fill="#1a1a1a" d="M 406.5 302 L 406 303.5 L 402 317.5 L 388 343.5 Q 376.2 361.2 360.5 375 Q 358.3 375.8 359 373.5 L 362 372 L 366.5 366 L 371 362.5 L 389 338.5 L 398 322.5 L 406.5 302 Z "/>
    <path fill="#1a1a1a" d="M 353.5 303 L 354 305.5 L 347 318.5 L 328.5 339 Q 313.4 352.4 292.5 360 L 271.5 365 L 251.5 366 L 250.5 365 L 241.5 365 L 224.5 361 Q 210.4 357 200 350 Q 198.8 347 202.5 348 L 244.5 339 L 281.5 329 L 332.5 312 L 353.5 303 Z "/>
    <path fill="#1a1a1a" d="M 330.5 355 L 333 355.5 Q 314.9 370.9 288.5 378 L 264.5 383 L 236.5 383 L 219 378.5 L 224.5 378 L 237.5 381 L 263.5 381 L 270.5 379 L 282.5 378 L 298.5 373 L 317.5 364 L 330.5 355 Z "/>
    <path fill="#1a1a1a" d="M 137.5 357 Q 156.2 378.3 181.5 393 Q 195 401 211.5 406 L 228.5 410 L 245.5 411 L 247 412.5 L 238.5 413 L 237.5 412 L 230.5 412 L 214.5 409 L 190.5 400 L 164.5 384 L 138 359.5 L 137.5 357 Z "/>
    <path fill="#1a1a1a" d="M 190 357 L 198.5 364 L 208 364 L 203 372.5 L 203 381 L 200.5 381 L 194.5 375 L 184 375 L 190 366.5 L 190 357 Z M 193 361 Q 193 370 188 373 L 195 373 L 201 377 Q 200 369 205 367 Q 195 368 193 361 Z "/>
  </g>
</svg>
