<svg xmlns="http://www.w3.org/2000/svg" width="512" height="512" viewBox="0 0 512 512">
  <g id="color">
    <path fill="#ffffff" d="M 273.5 36 L 281 36.5 L 268.5 38 L 268.5 37 L 273.5 36 Z "/>
    <path fill="#ffffff" d="M 283.5 36 L 292 36.5 L 283.5 37 L 283.5 36 Z "/>
    <path fill="#ffffff" d="M 293.5 37 L 301 38.5 L 298.5 39 L 293.5 38 L 293.5 37 Z "/>
    <path fill="#ffffff" d="M 260.5 39 L 262 39.5 L 254.5 42 L 254.5 41 L 260.5 39 Z "/>
    <path fill="#ffffff" d="M 250.5 42 L 252 42.5 L 247.5 44 L 247.5 43 L 250.5 42 Z "/>
    <path fill="#ffffff" d="M 313.5 42 L 321 44.5 L 319.5 45 L 313.5 43 L 313.5 42 Z "/>
    <path fill="#ffffff" d="M 240.5 45 L 242 45.5 L 237.5 47 L 237.5 46 L 240.5 45 Z "/>
    <path fill="#ffffff" d="M 323.5 45 L 328 46.5 L 325.5 47 L 323.5 45 Z "/>
    <path fill="#ffffff" d="M 231.5 48 L 233 48.5 L 228.5 50 L 228.5 49 L 231.5 48 Z "/>
    <path fill="#ffffff" d="M 332.5 48 L 341 50.5 L 338.5 51 L 332.5 49 L 332.5 48 Z "/>
    <path fill="#ffffff" d="M 222.5 51 L 224 51.5 L 219.5 53 L 219.5 52 L 222.5 51 Z "/>
    <path fill="#ffffff" d="M 342.5 51 L 346 52.5 L 344.5 53 L 342.5 51 Z "/>
    <path fill="#ffffff" d="M 216.5 53 L 218 53.5 L 212.5 56 L 212.5 55 L 216.5 53 Z "/>
    <path fill="#ffffff" d="M 347.5 53 L 354 55.5 L 352.5 56 L 347.5 54 L 347.5 53 Z "/>
    <path fill="#ffffff" d="M 209.5 56 L 211 56.5 L 205.5 59 L 205.5 58 L 209.5 56 Z "/>
    <path fill="#ffffff" d="M 355.5 56 L 361 58.5 L 359.5 59 L 355.5 57 L 355.5 56 Z "/>
    <path fill="#ffffff" d="M 203.5 59 L 202.5 61 L 200.5 62 L 201.5 60 L 203.5 59 Z "/>
    <path fill="#ffffff" d="M 362.5 59 L 366 61.5 L 364.5 61 L 362.5 59 Z "/>
    <path fill="#ffffff" d="M 198.5 62 L 197.5 64 L 193.5 67 L 196.5 63 L 198.5 62 Z "/>
    <path fill="#ffffff" d="M 375.5 71 L 378 74.5 L 376 73.5 L 375.5 71 Z "/>
    <path fill="#ffffff" d="M 186.5 74 L 186 75.5 L 183.5 81 L 183 79.5 L 186.5 74 Z "/>
    <path fill="#ffffff" d="M 378.5 76 L 380 79.5 L 379 79.5 L 378.5 76 Z "/>
    <path fill="#ffffff" d="M 182.5 82 L 183 83.5 L 181.5 86 L 181 84.5 L 182.5 82 Z "/>
    <path fill="#ffffff" d="M 381.5 84 L 383 89.5 L 382 89.5 L 381.5 84 Z "/>
    <path fill="#ffffff" d="M 179.5 92 L 180 95.5 L 178.5 103 L 178 96.5 L 179.5 92 Z "/>
    <path fill="#ffffff" d="M 383.5 92 L 384 96.5 L 383 96.5 L 383.5 92 Z "/>
    <path fill="#ffffff" d="M 384.5 100 L 386 106.5 L 386 116.5 L 385 116.5 L 384.5 100 Z "/>
    <path fill="#ffffff" d="M 177.5 106 L 178 111.5 L 177 111.5 L 177.5 106 Z "/>
    <path fill="#ffffff" d="M 176.5 116 L 177 152.5 L 176 152.5 L 176.5 116 Z "/>
    <path fill="#ffffff" d="M 385.5 142 L 386 153.5 L 384.5 162 L 384 154.5 L 385 153.5 L 385.5 142 Z "/>
    <path fill="#ffffff" d="M 177.5 158 L 178 164.5 L 177 164.5 L 177.5 158 Z "/>
    <path fill="#ffffff" d="M 178.5 168 L 180 176.5 L 179 176.5 L 178.5 168 Z "/>
    <path fill="#ffffff" d="M 382.5 172 L 383 175.5 L 381.5 179 L 381 176.5 L 382.5 172 Z "/>
    <path fill="#ffffff" d="M 380.5 180 L 381 181.5 L 376 190.5 L 378 193.5 L 376 192.5 L 375 189.5 L 380.5 180 Z "/>
    <path fill="#ffffff" d="M 181.5 181 L 183 184.5 L 182 184.5 L 181.5 181 Z "/>
    <path fill="#ffffff" d="M 378.5 195 L 381 200.5 L 380 200.5 L 378.5 195 Z "/>
    <path fill="#ffffff" d="M 192.5 197 L 198 201.5 L 196.5 201 L 192.5 197 Z "/>
    <path fill="#ffffff" d="M 199.5 202 L 203 204.5 L 201.5 204 L 199.5 202 Z "/>
    <path fill="#ffffff" d="M 381.5 202 L 383 205.5 L 382 205.5 L 381.5 202 Z "/>
    <path fill="#ffffff" d="M 204.5 205 L 210 207.5 L 208.5 208 L 204.5 206 L 204.5 205 Z "/>
    <path fill="#ffffff" d="M 350.5 208 L 355 215.5 L 355 218.5 L 354 218.5 L 350 210.5 L 350.5 208 Z "/>
    <path fill="#ffffff" d="M 213.5 209 L 217 210.5 L 215.5 211 L 213.5 209 Z "/>
    <path fill="#ffffff" d="M 384.5 209 L 386 213.5 L 385 213.5 L 384.5 209 Z "/>
    <path fill="#ffffff" d="M 218.5 211 L 224 213.5 L 222.5 214 L 218.5 212 L 218.5 211 Z "/>
    <path fill="#ffffff" d="M 231.5 217 L 235 218.5 L 233.5 219 L 231.5 217 Z "/>
    <path fill="#ffffff" d="M 387.5 218 L 389 221.5 L 387 220.5 L 387.5 218 Z "/>
    <path fill="#ffffff" d="M 321.5 219 L 323 219.5 L 317.5 222 L 317.5 221 L 321.5 219 Z "/>
    <path fill="#ffffff" d="M 324.5 219 L 326 222.5 L 325 222.5 L 324.5 219 Z "/>
    <path fill="#ffffff" d="M 238.5 220 L 242 221.5 L 240.5 222 L 238.5 220 Z "/>
    <path fill="#ffffff" d="M 243.5 222 L 249 224.5 L 247.5 225 L 243.5 223 L 243.5 222 Z "/>
    <path fill="#ffffff" d="M 390.5 222 L 398 223.5 L 394.5 224 L 390.5 223 L 390.5 222 Z "/>
    <path fill="#ffffff" d="M 311.5 223 L 313 223.5 L 309.5 225 L 309.5 224 L 311.5 223 Z "/>
    <path fill="#ffffff" d="M 250.5 225 L 258 227.5 L 255.5 228 L 250.5 226 L 250.5 225 Z "/>
    <path fill="#ffffff" d="M 306.5 225 L 308 225.5 L 303.5 227 L 303.5 226 L 306.5 225 Z "/>
    <path fill="#ffffff" d="M 403.5 225 L 409 226.5 L 406.5 227 L 403.5 226 L 403.5 225 Z "/>
    <path fill="#ffffff" d="M 259.5 228 L 270 230.5 L 266.5 231 L 259.5 229 L 259.5 228 Z "/>
    <path fill="#ffffff" d="M 296.5 228 L 299 228.5 L 288.5 231 L 288.5 230 L 296.5 228 Z "/>
    <path fill="#ffffff" d="M 414.5 228 L 423 230.5 L 420.5 231 L 414.5 229 L 414.5 228 Z "/>
    <path fill="#ffffff" d="M 329.5 230 L 331 232.5 L 329 233.5 L 329 231.5 L 329.5 230 Z "/>
    <path fill="#ffffff" d="M 272.5 231 L 286 231.5 L 272.5 232 L 272.5 231 Z "/>
    <path fill="#ffffff" d="M 424.5 231 L 431 233.5 L 429.5 234 L 424.5 232 L 424.5 231 Z "/>
    <path fill="#ffffff" d="M 326.5 234 L 328 234.5 L 324.5 236 L 324.5 235 L 326.5 234 Z "/>
    <path fill="#ffffff" d="M 432.5 234 L 437 235.5 L 435.5 236 L 432.5 235 L 432.5 234 Z "/>
    <path fill="#ffffff" d="M 318.5 237 L 320 237.5 L 316.5 239 L 316.5 238 L 318.5 237 Z "/>
    <path fill="#ffffff" d="M 313.5 239 L 315 239.5 L 309.5 242 L 310.5 240 L 313.5 239 Z "/>
    <path fill="#ffffff" d="M 446.5 240 L 450 242.5 L 448.5 242 L 446.5 240 Z "/>
    <path fill="#ffffff" d="M 306.5 242 L 308 242.5 L 302.5 245 L 302.5 244 L 306.5 242 Z "/>
    <path fill="#ffffff" d="M 451.5 243 Q 460.2 248.8 464 259.5 L 463 259.5 L 459 251.5 L 451.5 243 Z "/>
    <path fill="#ffffff" d="M 300.5 245 L 299.5 247 L 297.5 248 L 298.5 246 L 300.5 245 Z "/>
    <path fill="#ffffff" d="M 295.5 248 L 288 256.5 L 283.5 265 L 283 263.5 Q 287.3 253.8 295.5 248 Z "/>
    <path fill="#ffffff" d="M 464.5 261 L 466 265.5 L 465 265.5 L 464.5 261 Z "/>
    <path fill="#ffffff" d="M 282.5 266 L 283 268.5 L 281.5 273 L 281 269.5 L 282.5 266 Z "/>
    <path fill="#ffffff" d="M 467.5 272 L 469 282.5 L 468 282.5 L 467.5 272 Z "/>
    <path fill="#ffffff" d="M 280.5 274 L 281 278.5 L 280 278.5 L 280.5 274 Z "/>
    <path fill="#ffffff" d="M 279.5 282 L 280 289.5 L 279 290.5 L 279 308.5 L 277.5 310 L 276 309.5 L 278 309 L 278 290.5 L 279.5 282 Z "/>
    <path fill="#ffffff" d="M 136.5 283 Q 149.7 281.3 158 284.5 L 153.5 285 L 152.5 284 L 136.5 284 L 132.5 285 L 132.5 284 L 136.5 283 Z "/>
    <path fill="#ffffff" d="M 127.5 285 L 130 285.5 L 120.5 288 L 120.5 287 L 127.5 285 Z "/>
    <path fill="#ffffff" d="M 160.5 285 L 167 286.5 L 163.5 287 L 160.5 286 L 160.5 285 Z "/>
    <path fill="#ffffff" d="M 469.5 286 L 470 292.5 L 469 292.5 L 469.5 286 Z "/>
    <path fill="#ffffff" d="M 117.5 288 L 119 288.5 L 114.5 290 L 114.5 289 L 117.5 288 Z "/>
    <path fill="#ffffff" d="M 175.5 289 L 181 290.5 L 178.5 291 L 175.5 290 L 175.5 289 Z "/>
    <path fill="#ffffff" d="M 108.5 291 L 110 291.5 L 103.5 294 L 103.5 293 L 108.5 291 Z "/>
    <path fill="#ffffff" d="M 182.5 291 L 188 292.5 L 185.5 293 L 182.5 292 L 182.5 291 Z "/>
    <path fill="#ffffff" d="M 99.5 294 L 102 294.5 L 97.5 296 L 97.5 295 L 99.5 294 Z "/>
    <path fill="#ffffff" d="M 192.5 294 L 197 295.5 L 195.5 296 L 192.5 295 L 192.5 294 Z "/>
    <path fill="#ffffff" d="M 470.5 296 L 471 313.5 L 470 313.5 L 470.5 296 Z "/>
    <path fill="#ffffff" d="M 91.5 297 L 93 297.5 L 88.5 299 L 88.5 298 L 91.5 297 Z "/>
    <path fill="#ffffff" d="M 201.5 297 L 206 298.5 L 204.5 299 L 201.5 298 L 201.5 297 Z "/>
    <path fill="#ffffff" d="M 208.5 299 L 215 301.5 L 213.5 302 L 208.5 300 L 208.5 299 Z "/>
    <path fill="#ffffff" d="M 83.5 300 L 85 300.5 L 81.5 302 L 81.5 301 L 83.5 300 Z "/>
    <path fill="#ffffff" d="M 78.5 302 L 80 302.5 L 74.5 305 L 75.5 303 L 78.5 302 Z "/>
    <path fill="#ffffff" d="M 216.5 302 L 221 304.5 L 219.5 304 Q 215.7 303.8 216.5 302 Z "/>
    <path fill="#ffffff" d="M 71.5 305 L 73 305.5 L 67.5 308 L 67.5 307 L 71.5 305 Z "/>
    <path fill="#ffffff" d="M 65.5 308 L 64.5 310 L 62.5 311 L 63.5 309 L 65.5 308 Z "/>
    <path fill="#ffffff" d="M 230.5 310 Q 237.1 314.8 239 323 L 243.5 322 L 243.5 323 L 239.5 324 L 230.5 310 Z "/>
    <path fill="#ffffff" d="M 269.5 311 L 272 311.5 L 267.5 313 L 267.5 312 L 269.5 311 Z "/>
    <path fill="#ffffff" d="M 261.5 314 L 263 314.5 L 259.5 316 L 259.5 315 L 261.5 314 Z "/>
    <path fill="#ffffff" d="M 253.5 317 L 255 317.5 L 251.5 319 L 251.5 318 L 253.5 317 Z "/>
    <path fill="#ffffff" d="M 51.5 320 L 51 321.5 L 49.5 324 L 50 322.5 L 51.5 320 Z "/>
    <path fill="#ffffff" d="M 470.5 321 L 471 337.5 L 470 337.5 L 470.5 321 Z "/>
    <path fill="#ffffff" d="M 48.5 325 L 48 326.5 L 46.5 331 L 46 329.5 L 48.5 325 Z "/>
    <path fill="#ffffff" d="M 45.5 332 L 46 333.5 L 43.5 342 L 43 338.5 L 45.5 332 Z "/>
    <path fill="#ffffff" d="M 469.5 341 L 470 346.5 L 469 346.5 L 469.5 341 Z "/>
    <path fill="#ffffff" d="M 276.5 343 Q 282.4 340.9 281 345.5 L 282 350.5 L 258.5 361 L 246 363 Q 244.3 355.9 248.5 354 L 276.5 343 Z "/>
    <path fill="#ffffff" d="M 42.5 345 L 43 350.5 L 42 351.5 L 41.5 365 L 41 351.5 L 42.5 345 Z "/>
    <path fill="#ffffff" d="M 468.5 350 L 469 353.5 L 467.5 357 L 467 354.5 L 468.5 350 Z "/>
    <path fill="#ffffff" d="M 463.5 365 L 462 367.5 L 454.5 376 L 461 368.5 L 463.5 365 Z "/>
    <path fill="#ffffff" d="M 40.5 367 L 41 388.5 L 40 388.5 L 40.5 367 Z "/>
    <path fill="#ffffff" d="M 452.5 376 L 450.5 379 L 448.5 380 L 449.5 378 L 452.5 376 Z "/>
    <path fill="#ffffff" d="M 298.5 380 L 302 381.5 L 300.5 381 L 297.5 382 L 298.5 380 Z "/>
    <path fill="#ffffff" d="M 445.5 380 L 447 380.5 L 432.5 388 L 433.5 386 L 445.5 380 Z "/>
    <path fill="#ffffff" d="M 294.5 382 L 296 382.5 L 290.5 385 L 290.5 384 L 294.5 382 Z "/>
    <path fill="#ffffff" d="M 303.5 382 L 314 387.5 L 312.5 388 L 304.5 384 L 303.5 382 Z "/>
    <path fill="#ffffff" d="M 285.5 386 L 287 386.5 L 283.5 388 L 283.5 387 L 285.5 386 Z "/>
    <path fill="#ffffff" d="M 280.5 388 L 282 388.5 L 276.5 391 L 276.5 390 L 280.5 388 Z "/>
    <path fill="#ffffff" d="M 315.5 388 L 321 390.5 L 319.5 390 Q 314.7 390 315.5 388 Z "/>
    <path fill="#ffffff" d="M 429.5 388 L 431 388.5 L 425.5 391 L 425.5 390 L 429.5 388 Z "/>
    <path fill="#ffffff" d="M 322.5 391 L 329 393.5 L 327.5 394 L 322.5 392 L 322.5 391 Z "/>
    <path fill="#ffffff" d="M 423.5 391 L 422.5 393 L 419.5 394 L 419.5 393 L 423.5 391 Z "/>
    <path fill="#ffffff" d="M 41.5 392 L 42 405.5 L 41 405.5 L 41.5 392 Z "/>
    <path fill="#ffffff" d="M 270.5 392 L 272 392.5 L 268.5 394 L 268.5 393 L 270.5 392 Z "/>
    <path fill="#ffffff" d="M 264.5 394 L 266 394.5 L 261.5 396 L 261.5 395 L 264.5 394 Z "/>
    <path fill="#ffffff" d="M 330.5 394 L 336 396.5 L 334.5 397 Q 330.5 396.5 330.5 394 Z "/>
    <path fill="#ffffff" d="M 252.5 397 L 256 397.5 L 248.5 399 L 248.5 398 L 252.5 397 Z "/>
    <path fill="#ffffff" d="M 337.5 397 L 341 398.5 L 339.5 399 L 337.5 397 Z "/>
    <path fill="#ffffff" d="M 246.5 399 L 246 400.5 L 244.5 414 L 244 407.5 Q 246.5 406 245 400.5 L 246.5 399 Z "/>
    <path fill="#ffffff" d="M 344.5 400 L 349 401.5 L 347.5 402 L 344.5 401 L 344.5 400 Z "/>
    <path fill="#ffffff" d="M 353.5 403 L 358 404.5 L 355.5 405 L 353.5 403 Z "/>
    <path fill="#ffffff" d="M 397.5 403 L 399 403.5 L 394.5 405 L 394.5 404 L 397.5 403 Z "/>
    <path fill="#ffffff" d="M 386.5 406 L 390 406.5 L 381.5 408 L 381.5 407 L 386.5 406 Z "/>
    <path fill="#ffffff" d="M 42.5 407 L 43 414.5 L 42 414.5 L 42.5 407 Z "/>
    <path fill="#ffffff" d="M 368.5 407 L 373 407.5 L 368.5 408 L 368.5 407 Z "/>
    <path fill="#ffffff" d="M 43.5 418 L 46 427.5 L 45 427.5 L 43 421.5 L 43.5 418 Z "/>
    <path fill="#ffffff" d="M 242.5 421 L 243 423.5 L 241.5 426 L 241 424.5 L 242.5 421 Z "/>
    <path fill="#ffffff" d="M 240.5 427 L 241 428.5 Q 236.3 438.8 227.5 445 L 236 435.5 L 240.5 427 Z "/>
    <path fill="#ffffff" d="M 46.5 429 L 48 432.5 L 47 432.5 L 46.5 429 Z "/>
    <path fill="#ffffff" d="M 225.5 445 L 224.5 447 L 222.5 448 L 223.5 446 L 225.5 445 Z "/>
    <path fill="#ffffff" d="M 220.5 448 L 219.5 450 L 216.5 451 L 216.5 450 L 220.5 448 Z "/>
    <path fill="#ffffff" d="M 67.5 451 L 72 453.5 L 70.5 453 Q 66.7 453.5 67.5 451 Z "/>
    <path fill="#ffffff" d="M 73.5 454 L 80 456.5 L 78.5 457 L 73.5 455 L 73.5 454 Z "/>
    <path fill="#ffffff" d="M 207.5 454 L 209 454.5 L 203.5 457 L 203.5 456 L 207.5 454 Z "/>
    <path fill="#ffffff" d="M 81.5 457 L 85 458.5 L 83.5 459 L 81.5 457 Z "/>
    <path fill="#ffffff" d="M 200.5 457 L 202 457.5 L 192.5 462 L 192.5 461 L 200.5 457 Z "/>
    <path fill="#ffffff" d="M 88.5 460 L 92 461.5 L 90.5 462 L 88.5 460 Z "/>
    <path fill="#ffffff" d="M 95.5 463 L 99 464.5 L 97.5 465 L 95.5 463 Z "/>
    <path fill="#ffffff" d="M 187.5 463 L 189 463.5 L 185.5 465 L 185.5 464 L 187.5 463 Z "/>
    <path fill="#ffffff" d="M 100.5 465 L 106 467.5 L 104.5 468 L 100.5 466 L 100.5 465 Z "/>
    <path fill="#ffffff" d="M 180.5 466 L 182 466.5 L 178.5 468 L 178.5 467 L 180.5 466 Z "/>
    <path fill="#ffffff" d="M 107.5 468 L 114 470.5 L 112.5 471 L 107.5 469 L 107.5 468 Z "/>
    <path fill="#ffffff" d="M 175.5 468 L 177 468.5 L 170.5 471 L 170.5 470 L 175.5 468 Z "/>
    <path fill="#ffffff" d="M 115.5 471 L 123 473.5 L 120.5 474 L 115.5 472 L 115.5 471 Z "/>
    <path fill="#ffffff" d="M 163.5 472 L 166 472.5 L 161.5 474 L 161.5 473 L 163.5 472 Z "/>
    <path fill="#ffffff" d="M 156.5 474 L 159 474.5 L 152.5 476 L 152.5 475 L 156.5 474 Z "/>
    <path fill="#ffffff" d="M 128.5 475 L 140 476.5 L 133.5 477 L 128.5 476 L 128.5 475 Z "/>
    <path fill="#ffffff" d="M 144.5 476 L 151 476.5 L 144.5 477 L 144.5 476 Z "/>
    <path fill="#4da3ff" d="M 285.5 48 L 292.5 50 L 297.5 50 L 318.5 56 L 320.5 58 L 323.5 58 L 329.5 61 L 334 61 L 334.5 63 L 336.5 63 L 350.5 67 L 354.5 70 L 358 70 Q 356.9 72.7 359.5 72 L 362 73 L 362 75 Q 364.7 73.9 364 76.5 L 367 79.5 L 370 87.5 L 371 97.5 L 373 102.5 L 373 121.5 L 374 123.5 L 374 125.5 L 373 155.5 L 372 156.5 L 371 169.5 L 368 175.5 L 368.5 177 Q 362.9 169.6 353.5 166 Q 348 163.5 338.5 165 Q 329 166.5 324 172.5 Q 324.8 174.8 322.5 174 L 316 183.5 L 315 195.5 L 319 206.5 L 316.5 209 L 295.5 217 Q 289.8 216.3 287.5 219 L 270.5 219 L 253.5 214 L 237.5 206 L 227.5 203 L 223.5 200 L 205.5 193 L 199 187.5 Q 199.8 185.3 197.5 186 L 196 182 Q 193.3 183.1 194 180.5 L 191 173.5 Q 192.7 167.3 190 165.5 L 189 144.5 L 188 143.5 L 188 123.5 L 189 122.5 L 189 112.5 L 190 111.5 L 190 103.5 L 191 102.5 L 192 91.5 L 197 79 L 200 77.5 L 203.5 73 L 222.5 64 L 226.5 64 L 231.5 61 L 238.5 60 L 244.5 57 L 254.5 55 L 271.5 49 L 273.5 49 L 284.5 49 L 285.5 48 Z M 346 79 L 330 84 L 301 96 L 287 100 L 268 100 L 246 93 L 239 89 L 233 88 L 214 80 Q 209 79 209 82 Q 205 81 207 87 L 211 90 L 223 95 L 229 96 L 239 101 L 244 102 L 246 104 L 267 110 L 288 110 L 297 107 L 305 106 L 327 96 L 349 89 L 353 85 L 353 82 Q 352 78 346 79 Z M 329 118 Q 325 121 319 120 L 309 125 L 304 132 L 304 146 L 308 160 Q 311 165 319 166 Q 333 165 343 160 Q 348 157 349 150 L 348 137 L 343 123 L 341 120 L 335 118 L 329 118 Z M 274 122 L 270 128 L 270 190 L 271 191 L 271 202 L 273 206 Q 272 208 279 207 L 281 204 L 281 192 L 280 191 L 280 156 L 279 155 L 280 153 L 280 123 L 274 122 Z "/>
    <path fill="#4da3ff" d="M 326.5 129 L 336 129 L 336 133.5 Q 339 138.5 338 147.5 L 335.5 152 L 329.5 154 L 317 155 L 315 146.5 Q 317.5 145 314 143.5 L 314 133.5 L 315.5 132 L 319.5 132 L 326.5 129 Z "/>
    <path fill="#4da3ff" d="M 342.5 176 Q 355.7 176.3 360 185.5 L 367 195.5 L 378 221.5 L 379 239.5 L 375.5 244 Q 370.8 248.5 361 247 L 360.5 245 L 359 245.5 L 367 232.5 L 367 219.5 L 358 198.5 L 349.5 189 L 339.5 186 Q 333.8 187.3 331 191.5 L 331 195.5 L 334.5 200 L 336 199.5 L 330.5 202 L 326 194.5 L 326 189.5 Q 327.3 183.8 331.5 181 L 342.5 176 Z "/>
    <path fill="#4da3ff" d="M 339.5 213 Q 344.9 217.1 346 225.5 L 340 229 L 337 223.5 L 335 215 L 339.5 213 Z "/>
    <path fill="#4da3ff" d="M 391 235 L 401.5 238 L 405.5 238 L 411.5 241 L 415.5 241 L 421.5 244 L 425.5 244 Q 426.3 246.8 430.5 246 Q 442.3 250.2 450 258.5 L 453 263.5 L 458 288.5 L 458 298.5 L 459 299.5 L 459 332.5 L 458 333.5 L 458 343.5 L 456 354.5 L 449.5 364 L 433.5 374 L 422.5 378 L 402.5 389 L 386.5 395 L 376.5 396 L 375.5 395 L 367.5 395 L 352.5 391 L 315 375 L 315 373.5 L 326 362.5 L 332 352.5 Q 335.4 346.4 334 335.5 L 328 319.5 L 320.5 312 L 308.5 306 L 293.5 305 L 291 304 L 291 284.5 L 294 270.5 L 297 263 Q 299.7 264.1 299 261.5 L 311.5 253 L 324.5 249 L 334.5 244 L 347 241 L 348 251 Q 350.7 249.9 350 252.5 L 351 255 L 359.5 259 L 370.5 259 Q 380.6 256.6 386 249.5 L 391 240.5 L 391 235 Z M 431 258 L 414 266 L 404 269 L 400 272 L 394 273 L 392 275 L 377 278 L 360 276 L 341 269 L 338 269 L 333 266 L 315 261 Q 308 260 307 265 L 308 269 L 314 272 L 322 273 L 332 278 L 362 287 L 385 287 L 394 285 L 436 267 Q 440 266 439 262 Q 438 257 431 258 Z M 372 309 L 363 315 Q 360 314 361 317 L 359 317 L 355 326 Q 353 340 360 347 L 371 353 L 382 353 L 391 348 Q 397 344 399 336 L 399 326 L 394 317 L 384 309 L 372 309 Z "/>
    <path fill="#4da3ff" d="M 144.5 295 L 145.5 296 L 153.5 296 Q 156.4 298.6 162.5 298 L 166.5 300 Q 168 297.5 169.5 301 L 174.5 301 L 179.5 304 L 194.5 307 L 196.5 309 L 198.5 309 L 206.5 311 L 208.5 313 L 211.5 313 L 219.5 317 L 226 323.5 L 230 331.5 L 233 345.5 L 233 352 Q 223.1 350.9 218 355 Q 219.1 357.7 216.5 357 Q 207.3 363.3 210 381.5 L 216 393 Q 218.7 391.9 218 394.5 L 228.5 401 L 233 401 L 233 408.5 L 230 422.5 L 223.5 432 L 220 433 Q 221.1 435.7 218.5 435 L 211.5 440 L 206.5 441 L 188.5 451 L 165.5 460 L 152.5 464 L 137.5 465 L 117.5 460 L 115.5 458 L 112.5 458 L 98.5 452 L 96.5 450 L 90.5 449 L 70.5 440 L 62 434 L 62 432 Q 59.3 433.1 60 430.5 L 57 425.5 L 54 408.5 L 54 399.5 L 53 398.5 L 53 360.5 L 54 359.5 L 54 348.5 L 57 333.5 L 68.5 320 L 83.5 313 L 98.5 309 L 108.5 304 L 112.5 304 L 134.5 296 L 143.5 296 L 144.5 295 Z M 209 323 L 177 335 L 168 340 L 159 342 L 154 345 L 141 346 L 140 347 L 122 345 L 78 329 L 70 329 L 70 335 L 80 341 L 103 348 L 110 352 L 133 357 L 157 355 L 190 341 L 193 341 L 202 336 L 212 333 L 214 330 Q 215 323 213 324 L 211 324 L 209 323 Z M 83 368 L 81 369 L 76 374 L 74 384 L 74 394 L 77 404 Q 82 409 91 410 L 104 410 L 106 409 L 111 402 Q 110 396 112 395 Q 114 381 109 375 L 102 369 L 83 368 Z M 139 368 L 135 374 L 135 423 L 136 424 L 136 437 L 137 438 L 138 452 Q 140 454 145 453 L 147 448 L 146 426 L 145 425 L 145 372 L 144 369 L 139 368 Z M 180 377 L 177 378 Q 169 383 167 393 Q 166 400 170 404 L 178 410 Q 183 409 185 411 L 191 410 L 194 408 Q 200 405 201 397 Q 202 389 199 386 L 192 378 L 180 377 Z "/>
    <path fill="#4da3ff" d="M 287.5 318 L 305.5 318 L 316 324.5 Q 322.3 329.7 322 341.5 Q 320 352 313.5 358 L 297.5 369 L 266.5 383 L 257.5 384 L 254.5 386 L 242.5 389 L 234.5 389 L 226 386 L 222 379.5 L 222 370.5 L 224.5 366 L 230 367 L 231.5 370 Q 237.5 376 251.5 374 L 274.5 367 L 299 354 L 300 350 Q 302.7 351.1 302 348.5 Q 306.3 345.3 305 336.5 L 301.5 332 Q 296.3 327.2 284.5 329 L 267.5 334 L 246 343 Q 244.4 340.9 245 335.5 L 246 333 Q 250.7 329.4 259.5 329 L 267.5 324 L 287.5 318 Z "/>
    <path fill="#4da3ff" d="M 86.5 378 L 98.5 379 L 102 381.5 Q 100.5 387 103 388.5 L 101 400 Q 90.5 401.4 85 398 L 84 394.5 L 84 392.5 Q 82.9 382.9 86.5 378 Z "/>
    <path fill="#ffd43b" d="M 374.5 317 L 380.5 317 L 389 323.5 L 390 335.5 L 382.5 344 L 373.5 345 L 365 339.5 Q 361.8 336.2 363 328.5 Q 364.5 322 369.5 319 L 374.5 317 Z "/>
    <path fill="#ffd43b" d="M 181.5 385 Q 190.1 383.9 192 389.5 L 193 394.5 L 192 398.5 L 188.5 402 Q 181 403 178 401 L 176 397.5 L 176 390.5 L 179.5 386 L 181.5 385 Z "/>
    <path fill="#66d9e8" d="M 279.5 46 L 297.5 48 L 345.5 63 L 358.5 69 L 367 76.5 L 372 87.5 L 375 104.5 L 376 142.5 L 375 143.5 L 374 164.5 L 370 179 L 367 179 Q 368.1 176.3 365.5 177 L 364 174 L 353.5 168 L 342.5 166 Q 327 168.5 320 179.5 Q 315.5 185 317 196.5 L 322 207.5 L 319.5 210 L 314.5 211 L 307.5 215 L 287.5 221 L 269.5 221 L 250.5 215 L 237.5 208 L 209.5 197 Q 199.2 192.3 193 183.5 L 189 172.5 L 189 165.5 L 187 157.5 L 186 126.5 L 187 125.5 L 187 110.5 L 189 103.5 L 190 91.5 Q 193 78.5 202.5 72 L 220.5 63 L 263.5 49 L 279.5 46 Z M 286 48 L 285 49 L 274 49 L 272 49 L 255 55 L 245 57 L 239 60 L 232 61 L 227 64 L 223 64 L 204 73 L 200 78 L 197 79 L 192 92 L 191 103 L 190 104 L 190 112 L 189 113 L 189 123 L 188 124 L 188 144 L 189 145 L 190 166 Q 193 167 191 174 L 194 181 Q 193 183 196 182 L 198 186 Q 200 185 199 188 L 206 193 L 224 200 L 228 203 L 238 206 L 254 214 L 271 219 L 288 219 Q 290 216 296 217 L 317 209 L 319 207 L 315 196 L 316 184 L 323 174 Q 325 175 324 173 Q 329 167 339 165 Q 348 164 354 166 Q 362 169 368 176 L 370 174 L 372 164 L 373 144 L 374 143 L 374 126 L 374 124 L 373 122 L 373 103 L 371 98 L 370 88 L 367 80 L 364 77 Q 365 74 362 75 L 362 73 L 360 72 Q 357 73 358 70 L 355 70 L 351 67 L 337 63 L 335 63 L 334 61 L 330 61 L 324 58 L 321 58 L 319 56 L 298 50 L 293 50 L 286 48 Z "/>
    <path fill="#66d9e8" d="M 345.5 79 Q 351.8 77.8 353 81.5 L 353 84.5 L 348.5 89 L 326.5 96 L 304.5 106 L 296.5 107 L 287.5 110 L 266.5 110 L 245.5 104 L 243.5 102 L 238.5 101 L 228.5 96 L 222.5 95 L 210.5 90 L 207 86.5 Q 205.1 81.1 208.5 82 Q 209.3 79.3 213.5 80 L 232.5 88 L 238.5 89 L 245.5 93 L 267.5 100 L 286.5 100 L 300.5 96 L 329.5 84 L 345.5 79 Z M 344 81 L 309 95 L 284 102 L 265 101 L 252 96 L 249 96 L 244 93 L 241 93 L 223 85 L 211 82 Q 208 83 209 87 L 254 105 L 276 109 L 289 108 L 293 106 L 301 105 Q 319 99 335 91 L 347 88 L 351 85 L 351 81 L 344 81 Z "/>
    <path fill="#66d9e8" d="M 328.5 118 L 334.5 118 L 340.5 120 L 343 122.5 L 348 136.5 L 349 149.5 Q 347.9 156.9 342.5 160 Q 332.5 165 318.5 166 Q 311.1 164.9 308 159.5 L 304 145.5 L 304 131.5 L 308.5 125 L 318.5 120 Q 325.2 120.7 328.5 118 Z M 328 120 L 312 125 Q 307 128 305 135 L 307 152 L 311 161 L 318 164 Q 334 163 344 157 L 347 151 L 347 143 L 343 126 L 339 121 L 328 120 Z "/>
    <path fill="#66d9e8" d="M 273.5 122 L 280 123 L 280 152.5 L 279 154.5 L 280 155.5 L 280 190.5 L 281 191.5 L 281 203.5 L 278.5 207 Q 272.4 208.3 273 205.5 L 271 201.5 L 271 190.5 L 270 189.5 L 270 127.5 L 273.5 122 Z M 275 123 L 272 127 L 272 145 L 271 146 L 272 192 L 273 193 Q 271 201 274 205 L 278 206 L 280 203 L 279 202 L 279 188 L 278 187 L 278 132 L 279 131 L 278 124 L 275 123 Z "/>
    <path fill="#66d9e8" d="M 327.5 127 L 335.5 127 L 337 128.5 L 340 138.5 L 340 150.5 L 332.5 155 L 317.5 157 L 315 154.5 L 313 148.5 L 312 133.5 L 316.5 130 L 327.5 127 Z M 327 129 L 320 132 L 316 132 L 314 134 L 314 144 Q 317 145 315 147 L 317 155 L 330 154 L 336 152 L 335 151 L 335 150 L 337 151 L 338 148 Q 339 139 336 134 L 336 129 L 327 129 Z "/>
    <path fill="#66d9e8" d="M 341.5 174 Q 355.4 173.6 360 182.5 Q 370.9 195.6 377 213.5 L 381 226.5 L 381 239.5 L 374.5 247 Q 370.2 250.7 360.5 249 L 358 248 L 357 243.5 L 365 233.5 L 365 220.5 Q 360.9 204.1 351.5 193 Q 347.8 187.7 337.5 189 L 334 190 L 333 194.5 L 334 197 L 340.5 197 L 341 198.5 Q 336.7 203.8 329 205 L 324 193.5 L 324 188.5 L 329.5 180 L 341.5 174 Z M 343 176 L 332 181 Q 327 184 326 190 L 326 195 L 331 202 L 335 201 L 331 196 L 331 192 Q 334 187 340 186 L 350 189 L 358 199 L 367 220 L 367 233 L 359 246 L 361 245 L 361 247 Q 371 249 376 244 L 379 240 L 378 222 L 367 196 L 360 186 Q 356 176 343 176 Z "/>
    <path fill="#66d9e8" d="M 339.5 211 L 343 212.5 L 349 224.5 L 349 228 L 340.5 231 L 338 230 L 335 220.5 L 333 218.5 L 333 214 L 339.5 211 Z M 340 213 L 335 215 L 337 224 L 340 229 L 346 226 Q 345 217 340 213 Z "/>
    <path fill="#66d9e8" d="M 390.5 233 L 415.5 239 L 432.5 245 L 444.5 251 L 452 258.5 L 457 271.5 L 459 289.5 L 460 290.5 L 461 330.5 L 460 331.5 L 459 349.5 L 457 356.5 Q 454 364 447.5 368 Q 431.8 378.3 412.5 385 L 405.5 390 L 386.5 397 L 376.5 398 L 352.5 393 L 328.5 382 L 318.5 379 L 311 374.5 L 313.5 371 L 319 368 L 319 366 Q 321.7 367.1 321 364.5 L 324 363 L 332 347.5 L 332 334.5 L 326 319.5 L 321.5 315 Q 311 304.8 289 307 L 289 285.5 L 292 270.5 Q 294.4 261.4 301.5 257 L 316.5 249 L 322.5 248 L 332.5 243 L 335.5 243 L 348.5 238 Q 351.3 239.3 349 240.5 Q 347.6 250.9 353.5 254 L 358.5 257 L 371.5 257 L 378.5 254 L 384 249.5 L 389 240.5 Q 387.5 234.5 390.5 233 Z M 391 235 L 391 241 L 386 250 Q 381 257 371 259 L 360 259 L 351 255 L 350 253 Q 351 250 348 251 L 347 241 L 335 244 L 325 249 L 312 253 L 299 262 Q 300 264 297 263 L 294 271 L 291 285 L 291 304 L 294 305 L 309 306 L 321 312 L 328 320 L 334 336 Q 335 346 332 353 L 326 363 L 315 374 L 315 375 L 353 391 L 368 395 L 376 395 L 377 396 L 387 395 L 403 389 L 423 378 L 434 374 L 450 364 L 456 355 L 458 344 L 458 334 L 459 333 L 459 300 L 458 299 L 458 289 L 453 264 L 450 259 L 445 254 L 443 254 L 443 253 L 426 244 L 422 244 L 406 238 L 402 238 L 391 235 Z "/>
    <path fill="#66d9e8" d="M 430.5 258 Q 437.8 256.8 439 261.5 Q 439.5 266.5 435.5 267 L 393.5 285 L 384.5 287 L 361.5 287 L 331.5 278 L 321.5 273 L 313.5 272 L 308 268.5 L 307 264.5 Q 308 260 314.5 261 L 332.5 266 L 337.5 269 L 340.5 269 L 359.5 276 L 376.5 278 L 391.5 275 L 393.5 273 L 399.5 272 L 403.5 269 L 413.5 266 L 430.5 258 Z M 431 260 L 409 270 L 384 279 L 366 279 Q 364 277 360 278 L 338 270 L 335 270 L 324 265 L 311 263 L 309 267 L 312 269 L 325 272 L 344 280 L 361 285 L 369 285 L 370 286 L 386 285 L 394 283 L 436 265 L 437 262 Q 436 259 431 260 Z "/>
    <path fill="#66d9e8" d="M 135.5 294 L 153.5 294 L 193.5 305 L 219.5 315 L 228 323.5 Q 235.4 336 235 355 L 225.5 354 Q 217.6 356.1 214 362.5 L 211 371.5 L 211 377.5 Q 213.4 389.1 221.5 395 L 230.5 399 L 235 399 L 234 415.5 L 231 425.5 L 221.5 436 L 195.5 450 L 160.5 464 L 145.5 467 L 137.5 467 L 114.5 461 Q 97.2 451.3 76.5 445 Q 64.9 440.6 58 431.5 L 55 424.5 L 52 407.5 L 52 397.5 L 51 396.5 L 51 361.5 L 52 360.5 L 52 350.5 L 55 334.5 L 62.5 323 L 81.5 312 L 135.5 294 Z M 145 295 L 144 296 L 135 296 L 113 304 L 109 304 L 99 309 L 84 313 L 69 320 L 57 334 L 54 349 L 54 360 L 53 361 L 53 399 L 54 400 L 54 409 L 57 426 L 60 431 Q 59 433 62 432 L 62 434 L 71 440 L 91 449 L 97 450 L 99 452 L 113 458 L 116 458 L 118 460 L 138 465 L 153 464 L 166 460 L 189 451 L 207 441 L 212 440 L 219 435 Q 221 436 220 433 L 224 432 L 230 423 L 233 409 L 233 401 L 229 401 L 218 395 Q 219 392 216 393 L 210 382 Q 207 363 217 357 Q 219 358 218 355 Q 223 351 233 352 L 233 346 L 230 332 L 226 324 L 222 319 L 221 320 L 221 319 L 212 313 L 199 309 L 197 309 L 195 307 L 180 304 L 175 301 L 170 301 Q 168 297 167 300 L 163 298 Q 156 299 154 296 L 146 296 L 145 295 Z "/>
    <path fill="#66d9e8" d="M 371.5 309 L 383.5 309 L 394 316.5 L 399 325.5 L 399 335.5 Q 396.5 343.5 390.5 348 L 381.5 353 L 370.5 353 L 360 346.5 Q 353.2 340.3 355 325.5 L 359 317 L 361 317 Q 359.9 314.3 362.5 315 L 371.5 309 Z M 378 310 Q 376 312 372 311 L 365 315 L 358 323 L 356 331 Q 356 339 360 344 L 368 350 L 377 352 L 382 351 L 391 346 L 397 335 Q 398 324 394 320 Q 389 312 378 310 Z "/>
    <path fill="#66d9e8" d="M 288.5 316 L 305.5 316 Q 314.8 319.2 320 326.5 Q 325.2 332.3 323 345.5 Q 319.9 356.4 311.5 362 L 299.5 370 L 276.5 381 L 247.5 390 L 235.5 391 L 226.5 388 L 222 383.5 Q 219.1 378.9 220 370.5 L 224.5 364 L 227.5 363 L 238.5 372 L 252.5 372 L 276.5 364 L 292.5 356 L 299 350.5 L 303 343.5 L 303 337.5 L 299.5 333 Q 294.8 329.2 284.5 331 L 267.5 336 L 245.5 346 L 244 344.5 L 242 334.5 L 250.5 329 L 255.5 328 L 267.5 322 L 288.5 316 Z M 288 318 L 268 324 L 260 329 Q 251 329 246 333 L 245 336 Q 244 341 246 343 L 268 334 L 285 329 Q 296 327 302 332 L 305 337 Q 306 345 302 349 Q 303 351 300 350 L 299 354 L 275 367 L 252 374 Q 238 376 232 370 L 230 367 L 225 366 L 222 371 L 222 380 L 226 386 L 235 389 L 243 389 L 255 386 L 258 384 L 267 383 L 298 369 L 314 358 Q 320 352 322 342 Q 322 330 316 325 L 306 318 L 288 318 Z "/>
    <path fill="#66d9e8" d="M 208.5 323 L 210.5 324 L 212.5 324 Q 215.3 323.4 214 329.5 L 211.5 333 L 201.5 336 L 192.5 341 L 189.5 341 L 156.5 355 L 132.5 357 L 109.5 352 L 102.5 348 L 79.5 341 L 70 334.5 L 70 329 L 77.5 329 L 121.5 345 L 139.5 347 L 140.5 346 L 153.5 345 L 158.5 342 L 167.5 340 L 176.5 335 L 208.5 323 Z M 209 325 L 187 333 L 171 341 L 148 348 L 129 348 L 124 347 L 84 333 L 81 333 L 78 331 L 75 331 L 73 331 Q 70 330 71 334 L 80 339 L 103 346 L 113 351 L 131 355 L 145 355 L 160 352 L 197 337 L 199 335 L 210 332 Q 213 331 212 327 L 209 325 Z "/>
    <path fill="#66d9e8" d="M 82.5 368 L 101.5 369 L 109 374.5 Q 113.6 381.4 112 394.5 Q 109.5 396 111 401.5 L 105.5 409 L 103.5 410 L 90.5 410 Q 81.9 408.6 77 403.5 L 74 393.5 L 74 383.5 L 76 373.5 L 80.5 369 L 82.5 368 Z M 83 370 L 81 371 L 77 377 Q 78 381 76 383 L 77 401 L 82 405 L 91 408 L 104 408 L 106 407 L 109 403 L 110 398 L 110 381 L 107 375 Q 99 368 83 370 Z "/>
    <path fill="#66d9e8" d="M 138.5 368 L 144 369 L 145 371.5 L 145 424.5 L 146 425.5 L 147 447.5 L 145 453 Q 139.6 454.5 138 451.5 L 137 437.5 L 136 436.5 L 136 423.5 L 135 422.5 L 135 373.5 L 138.5 368 Z M 138 370 L 137 373 L 137 426 L 138 427 L 139 450 L 140 451 L 140 452 L 144 452 L 145 450 L 144 423 L 143 422 L 143 371 L 138 370 Z "/>
    <path fill="#66d9e8" d="M 86.5 376 L 97.5 377 L 103 379 L 104 381.5 L 104 395.5 L 101.5 402 L 87.5 401 L 83 397.5 Q 84.2 392.7 82 391.5 L 83 390.5 L 83 378.5 L 84.5 377 L 86.5 376 Z M 87 378 L 87 380 L 86 379 L 84 385 L 84 393 L 84 395 L 85 398 Q 90 401 101 400 L 103 389 Q 101 387 102 382 L 99 379 L 87 378 Z "/>
    <path fill="#66d9e8" d="M 179.5 377 L 191.5 378 L 199 385.5 Q 201.9 389.1 201 396.5 Q 199.6 404.6 193.5 408 L 190.5 410 L 184.5 411 Q 183 408.5 177.5 410 L 170 403.5 Q 166.5 400 167 392.5 Q 169 382.5 176.5 378 L 179.5 377 Z M 180 379 L 176 381 Q 171 385 169 392 Q 168 399 171 403 L 181 409 Q 190 410 194 406 L 199 398 L 198 387 L 189 379 L 180 379 Z "/>
  </g>
  <g id="line">
    <path fill="#1a1a1a" d="M 281.5 36 L 302.5 39 L 341.5 51 L 361.5 59 L 375 70.5 L 381 82.5 L 383 90.5 L 385 116.5 L 386 117.5 L 386 141.5 L 385 142.5 L 385 153.5 L 384 154.5 L 383 171.5 L 381 179.5 L 375 190.5 L 378 194.5 L 388.5 222 L 413.5 228 L 437.5 236 Q 451 241 459 251.5 Q 465 259.5 467 271.5 L 467 276.5 L 469 283.5 L 469 292.5 L 470 293.5 L 470 313.5 Q 472.5 315 471 320.5 L 470 321.5 L 470 340.5 L 467 357.5 Q 463.1 369.6 453.5 376 L 402.5 402 L 390.5 406 L 380.5 408 L 373.5 408 L 358.5 405 L 346.5 400 L 343.5 400 L 298.5 380 L 275.5 391 L 260.5 396 L 248.5 398 L 245 400.5 L 244 415.5 L 241 426.5 Q 236.1 438.1 226.5 445 L 209.5 454 L 169.5 471 L 151.5 476 L 140.5 477 L 139.5 476 L 127.5 475 L 114.5 471 L 82.5 457 L 72.5 454 L 60.5 448 L 51 438.5 Q 45.3 429.7 43 417.5 L 42 392.5 L 41 391.5 L 41 365.5 L 42 364.5 L 43 342.5 L 45 334.5 L 52 319.5 L 58.5 313 L 66.5 308 L 87.5 299 L 99.5 296 L 119.5 288 L 136.5 284 L 152.5 284 L 171.5 288 L 207.5 299 L 223.5 306 L 234 314.5 L 239.5 324 L 279 308.5 L 280 279.5 L 283 265.5 Q 287.5 254.5 296.5 248 Q 309.3 240.3 325.5 236 L 331 232.5 L 325 219 L 321.5 219 L 308.5 225 L 287.5 231 L 270.5 231 L 249.5 225 L 203.5 205 L 189 194.5 L 183 185.5 L 178 167.5 L 178 158.5 L 177 157.5 L 177 112.5 L 178 111.5 L 178 103.5 L 181 86.5 L 187 73.5 L 192.5 67 L 204.5 59 L 218.5 53 L 221.5 53 L 242.5 45 L 249.5 44 L 252.5 42 L 259.5 41 L 262.5 39 L 280.5 37 L 281.5 36 Z M 280 46 L 264 49 L 221 63 L 203 72 Q 193 78 190 92 L 189 104 L 187 111 L 187 126 L 186 127 L 187 158 L 189 166 L 189 173 L 193 184 Q 199 192 210 197 L 238 208 L 251 215 L 270 221 L 288 221 L 308 215 L 315 211 L 320 210 L 322 208 L 317 197 Q 316 185 320 180 Q 327 168 343 166 L 354 168 L 364 174 L 366 177 Q 368 176 367 179 L 370 179 L 374 165 L 375 144 L 376 143 L 375 105 L 372 88 L 367 77 L 359 69 L 346 63 L 298 48 L 280 46 Z M 342 174 L 330 180 L 324 189 L 324 194 L 329 205 Q 337 204 341 199 L 341 197 L 334 197 L 333 195 L 334 190 L 338 189 Q 348 188 352 193 Q 361 204 365 221 L 365 234 L 357 244 L 358 248 L 361 249 Q 370 251 375 247 L 381 240 L 381 227 L 377 214 Q 371 196 360 183 Q 355 174 342 174 Z M 351 208 L 350 211 L 354 219 L 355 219 L 355 216 L 351 208 Z M 340 211 L 333 214 L 333 219 L 335 221 L 338 230 L 341 231 L 349 228 L 349 225 L 343 213 L 340 211 Z M 391 233 Q 388 235 389 241 L 384 250 L 379 254 L 372 257 L 359 257 L 354 254 Q 348 251 349 241 Q 351 239 349 238 L 336 243 L 333 243 L 323 248 L 317 249 L 302 257 Q 294 261 292 271 L 289 286 L 289 307 Q 311 305 322 315 L 326 320 L 332 335 Q 334 345 331 351 Q 328 360 321 365 Q 322 367 319 366 L 319 368 L 314 371 L 311 375 L 319 379 L 329 382 L 353 393 L 377 398 L 387 397 L 406 390 L 413 385 Q 432 378 448 368 Q 454 364 457 357 L 459 350 L 460 332 L 461 331 L 460 291 L 459 290 L 457 272 L 452 259 L 445 251 L 433 245 L 416 239 L 391 233 Z M 136 294 L 82 312 L 63 323 L 55 335 L 52 351 L 52 361 L 51 362 L 51 397 L 52 398 L 52 408 L 55 425 L 58 432 Q 65 441 77 445 Q 97 451 115 461 L 138 467 L 146 467 L 161 464 L 196 450 L 222 436 L 231 426 L 234 416 L 235 399 L 231 399 L 222 395 Q 213 389 211 378 L 211 372 L 214 363 Q 218 356 226 354 L 235 355 Q 235 336 228 324 L 220 315 L 194 305 L 154 294 L 136 294 Z M 289 316 L 268 322 L 256 328 L 251 329 L 242 335 L 244 345 L 246 346 L 268 336 L 285 331 Q 295 329 300 333 L 303 338 L 303 344 L 299 351 L 293 356 L 277 364 L 253 372 L 239 372 L 228 363 L 225 364 L 220 371 Q 219 379 222 384 L 227 388 L 236 391 L 248 390 L 277 381 L 300 370 L 312 362 Q 320 356 323 346 Q 325 332 320 327 Q 315 319 306 316 L 289 316 Z M 277 343 L 249 354 Q 244 356 246 363 L 259 361 L 282 351 L 281 346 Q 282 341 277 343 Z "/>
    <path fill="#1a1a1a" d="M 343.5 81 L 351 81 L 351 84.5 L 346.5 88 L 334.5 91 Q 318.9 99.4 300.5 105 L 292.5 106 L 288.5 108 L 275.5 109 L 253.5 105 L 209 86.5 Q 208.3 82.8 210.5 82 L 222.5 85 L 240.5 93 L 243.5 93 L 248.5 96 L 251.5 96 L 264.5 101 L 283.5 102 L 308.5 95 L 343.5 81 Z "/>
    <path fill="#1a1a1a" d="M 327.5 120 L 338.5 121 L 343 125.5 L 347 142.5 L 347 150.5 Q 345.6 156.6 340.5 159 L 327.5 163 L 317.5 164 L 311 160.5 L 307 151.5 L 305 134.5 Q 306.5 128 311.5 125 L 327.5 120 Z M 328 127 L 317 130 L 312 134 L 313 149 L 315 155 L 318 157 L 333 155 L 340 151 L 340 139 L 337 129 L 336 127 L 328 127 Z "/>
    <path fill="#1a1a1a" d="M 274.5 124 Q 278.9 122.5 278 125.5 L 279 130.5 L 278 131.5 L 278 186.5 L 279 187.5 L 279 205 L 275.5 206 L 273 202.5 L 273 192.5 L 272 191.5 L 271 145.5 L 272 144.5 L 272 126.5 L 274.5 124 Z "/>
    <path fill="#1a1a1a" d="M 430.5 260 Q 435.8 258.8 437 261.5 L 436 265 L 393.5 283 L 377.5 286 L 369.5 286 L 368.5 285 L 360.5 285 L 343.5 280 L 324.5 272 L 311.5 269 L 309 266.5 L 310.5 263 L 323.5 265 L 334.5 270 L 337.5 270 L 359.5 278 Q 364.2 276.8 365.5 279 L 383.5 279 L 408.5 270 L 430.5 260 Z "/>
    <path fill="#1a1a1a" d="M 377.5 310 Q 388.8 311.7 394 319.5 Q 398.2 324.3 397 334.5 L 390.5 346 L 381.5 351 L 376.5 352 L 367.5 350 L 360 343.5 Q 356.2 338.8 356 330.5 L 358 322.5 L 364.5 315 L 371.5 311 Q 376.2 312.3 377.5 310 Z M 375 317 L 370 319 Q 365 322 363 329 Q 362 336 365 340 L 374 345 L 383 344 L 390 336 L 389 324 L 381 317 L 375 317 Z "/>
    <path fill="#1a1a1a" d="M 208.5 325 L 212 326.5 Q 212.8 331.3 209.5 332 L 198.5 335 L 196.5 337 L 159.5 352 L 144.5 355 L 130.5 355 L 112.5 351 L 102.5 346 L 79.5 339 L 72 335 L 71 331 L 73.5 330 L 123.5 347 L 128.5 348 L 147.5 348 L 170.5 341 L 186.5 333 L 208.5 325 Z "/>
    <path fill="#1a1a1a" d="M 82.5 370 Q 99.1 368.1 107 374 L 110 380.5 L 110 397.5 L 105.5 407 L 103.5 408 L 90.5 408 L 81.5 405 L 78 401.5 Q 74.4 394.6 76 382.5 Q 78.3 381.3 77 376.5 L 80.5 371 L 82.5 370 Z M 87 376 L 85 377 L 83 379 L 83 391 L 82 392 Q 84 393 83 398 L 88 401 L 102 402 L 104 396 L 104 382 L 103 379 L 98 377 L 87 376 Z "/>
    <path fill="#1a1a1a" d="M 139.5 370 L 143 371.5 L 143 421.5 L 144 422.5 L 145 448.5 L 142.5 452 L 140 450.5 Q 137.5 447 139 439.5 L 138 438.5 L 138 426.5 L 137 425.5 L 137 372.5 L 139.5 370 Z "/>
    <path fill="#1a1a1a" d="M 179.5 379 L 188.5 379 L 198 386.5 L 199 397.5 L 193.5 406 Q 189.7 410.2 180.5 409 L 171 402.5 Q 168.1 398.9 169 391.5 Q 170.5 384.5 175.5 381 L 179.5 379 Z M 182 385 L 180 386 L 176 391 L 176 398 L 178 401 Q 181 403 189 402 L 192 399 L 193 395 L 192 390 Q 190 384 182 385 Z "/>
  </g>
</svg>
