<svg xmlns="http://www.w3.org/2000/svg" width="512" height="512" viewBox="0 0 512 512">
  <g id="color">
    <path fill="#ffffff" d="M 343.5 53 L 345 53.5 L 338.5 57 L 339.5 55 L 343.5 53 Z "/>
    <path fill="#ffffff" d="M 333.5 58 L 335 58.5 Q 333.3 61.8 326.5 60 L 326.5 59 Q 332 60.5 333.5 58 Z "/>
    <path fill="#ffffff" d="M 364.5 59 L 369 64.5 L 366 62.5 L 364.5 59 Z "/>
    <path fill="#ffffff" d="M 310.5 60 L 317 60.5 L 310.5 61 L 310.5 60 Z "/>
    <path fill="#ffffff" d="M 303.5 61 L 308 61.5 L 299.5 63 L 299.5 62 L 303.5 61 Z "/>
    <path fill="#ffffff" d="M 290.5 64 L 294 64.5 L 287.5 66 L 287.5 65 L 290.5 64 Z "/>
    <path fill="#ffffff" d="M 369.5 66 L 373 68.5 L 371.5 68 L 369.5 66 Z "/>
    <path fill="#ffffff" d="M 374.5 69 L 379 70.5 L 376.5 71 L 374.5 69 Z "/>
    <path fill="#ffffff" d="M 273.5 70 L 275 70.5 L 271.5 72 L 271.5 71 L 273.5 70 Z "/>
    <path fill="#ffffff" d="M 269.5 72 L 268.5 74 L 265.5 75 L 265.5 74 L 269.5 72 Z "/>
    <path fill="#ffffff" d="M 263.5 75 L 262.5 77 L 260.5 78 L 261.5 76 L 263.5 75 Z "/>
    <path fill="#ffffff" d="M 397.5 78 L 401 80.5 L 399.5 80 L 397.5 78 Z "/>
    <path fill="#ffffff" d="M 254.5 80 L 252.5 83 L 240.5 92 L 244.5 87 L 254.5 80 Z "/>
    <path fill="#ffffff" d="M 405.5 83 L 416 91.5 L 411.5 88 Q 406.5 86.5 405.5 83 Z "/>
    <path fill="#ffffff" d="M 226.5 105 L 223 109.5 L 218.5 116 L 220 113.5 L 226.5 105 Z "/>
    <path fill="#ffffff" d="M 431.5 109 L 437 116.5 L 435 115.5 L 431.5 109 Z "/>
    <path fill="#ffffff" d="M 217.5 117 L 217 118.5 L 215.5 121 L 216 119.5 L 217.5 117 Z "/>
    <path fill="#ffffff" d="M 214.5 122 L 214 123.5 L 212.5 126 L 213 124.5 L 214.5 122 Z "/>
    <path fill="#ffffff" d="M 440.5 124 L 443 128.5 L 442 128.5 L 440.5 124 Z "/>
    <path fill="#ffffff" d="M 443.5 130 L 446 135.5 L 445 135.5 L 443.5 130 Z "/>
    <path fill="#ffffff" d="M 209.5 131 L 210 132.5 L 207.5 137 L 207 135.5 L 209.5 131 Z "/>
    <path fill="#ffffff" d="M 446.5 137 L 448 140.5 L 447 140.5 L 446.5 137 Z "/>
    <path fill="#ffffff" d="M 145.5 138 L 163.5 138 L 172 139.5 L 164.5 140 L 163.5 139 L 145.5 139 Q 144 141.5 138.5 140 L 138.5 139 Q 144 140.5 145.5 138 Z "/>
    <path fill="#ffffff" d="M 181.5 141 L 189 142.5 L 186.5 143 L 181.5 142 L 181.5 141 Z "/>
    <path fill="#ffffff" d="M 205.5 141 L 206 143.5 L 203.5 147 L 202 146.5 L 204 146 L 205.5 141 Z "/>
    <path fill="#ffffff" d="M 120.5 143 L 122 143.5 L 115.5 146 L 115.5 145 L 120.5 143 Z "/>
    <path fill="#ffffff" d="M 449.5 145 L 451 150.5 L 450 150.5 L 449.5 145 Z "/>
    <path fill="#ffffff" d="M 112.5 146 L 114 146.5 L 108.5 149 L 108.5 148 L 112.5 146 Z "/>
    <path fill="#ffffff" d="M 99.5 152 L 101 152.5 L 85.5 163 L 87.5 160 L 99.5 152 Z "/>
    <path fill="#ffffff" d="M 452.5 157 L 454 165.5 L 453 165.5 L 452.5 157 Z "/>
    <path fill="#ffffff" d="M 454.5 169 L 455 174.5 L 454 174.5 L 454.5 169 Z "/>
    <path fill="#ffffff" d="M 455.5 179 L 456 189.5 L 455 189.5 L 455.5 179 Z "/>
    <path fill="#ffffff" d="M 55.5 194 L 55 195.5 L 53.5 198 L 54 196.5 L 55.5 194 Z "/>
    <path fill="#ffffff" d="M 454.5 194 L 455 199.5 L 454 199.5 L 454.5 194 Z "/>
    <path fill="#ffffff" d="M 453.5 203 L 454 207.5 L 452.5 211 L 452 208.5 L 453.5 203 Z "/>
    <path fill="#ffffff" d="M 49.5 205 L 50 206.5 L 47.5 210 L 48 208.5 L 49.5 205 Z "/>
    <path fill="#ffffff" d="M 46.5 211 L 47 212.5 L 45.5 215 L 45 213.5 L 46.5 211 Z "/>
    <path fill="#ffffff" d="M 450.5 216 L 451 218.5 L 449.5 221 L 449 219.5 L 450.5 216 Z "/>
    <path fill="#ffffff" d="M 43.5 219 L 44 220.5 L 42.5 224 L 42 221.5 L 43.5 219 Z "/>
    <path fill="#ffffff" d="M 447.5 225 L 448 226.5 L 443.5 234 L 444 232.5 L 447.5 225 Z "/>
    <path fill="#ffffff" d="M 40.5 229 L 41 232.5 L 39.5 236 L 39 233.5 L 40.5 229 Z "/>
    <path fill="#ffffff" d="M 442.5 235 L 443 236.5 L 440 241.5 L 447.5 250 L 439 240.5 L 442.5 235 Z "/>
    <path fill="#ffffff" d="M 37.5 243 L 38 251.5 L 37 251.5 L 37.5 243 Z "/>
    <path fill="#ffffff" d="M 36.5 253 L 37 268.5 L 36 268.5 L 36.5 253 Z "/>
    <path fill="#ffffff" d="M 451.5 255 L 457 262.5 L 455 261.5 L 451.5 255 Z "/>
    <path fill="#ffffff" d="M 457.5 264 L 460 267.5 L 458 266.5 L 457.5 264 Z "/>
    <path fill="#ffffff" d="M 460.5 269 L 463 272.5 L 461 271.5 L 460.5 269 Z "/>
    <path fill="#ffffff" d="M 37.5 270 L 38 278.5 L 37 278.5 L 37.5 270 Z "/>
    <path fill="#ffffff" d="M 463.5 274 L 466 279.5 L 465 279.5 L 463.5 274 Z "/>
    <path fill="#ffffff" d="M 466.5 281 L 468 284.5 L 467 284.5 L 466.5 281 Z "/>
    <path fill="#ffffff" d="M 39.5 286 L 41 292.5 L 40 292.5 L 39.5 286 Z "/>
    <path fill="#ffffff" d="M 469.5 289 L 471 293.5 L 470 293.5 L 469.5 289 Z "/>
    <path fill="#ffffff" d="M 42.5 297 L 44 300.5 L 43 300.5 L 42.5 297 Z "/>
    <path fill="#ffffff" d="M 472.5 298 L 474 305.5 L 473 305.5 L 472.5 298 Z "/>
    <path fill="#ffffff" d="M 44.5 302 L 47 307.5 L 46 307.5 L 44.5 302 Z "/>
    <path fill="#ffffff" d="M 475.5 313 L 477 320.5 L 477 329.5 L 476 329.5 L 475.5 313 Z "/>
    <path fill="#ffffff" d="M 50.5 315 L 53 318.5 L 51 317.5 L 50.5 315 Z "/>
    <path fill="#ffffff" d="M 55.5 323 L 61 329.5 L 57 326.5 L 55.5 323 Z "/>
    <path fill="#ffffff" d="M 476.5 335 L 477 345.5 L 475.5 353 L 475 346.5 L 476 345.5 L 476.5 335 Z "/>
    <path fill="#ffffff" d="M 73.5 342 L 90 354.5 L 88.5 354 Q 78 349.6 73.5 342 Z "/>
    <path fill="#ffffff" d="M 93.5 356 L 98 358.5 L 96.5 359 L 93.5 356 Z "/>
    <path fill="#ffffff" d="M 99.5 359 L 104 361.5 L 102.5 361 Q 98.7 361.5 99.5 359 Z "/>
    <path fill="#ffffff" d="M 212.5 359 Q 214.8 358.3 214 360.5 L 215 363.5 L 214 363.5 L 212.5 360 L 209.5 362 L 210.5 360 L 212.5 359 Z "/>
    <path fill="#ffffff" d="M 473.5 360 L 474 363.5 L 472.5 367 L 472 364.5 L 473.5 360 Z "/>
    <path fill="#ffffff" d="M 105.5 362 L 112 364.5 L 110.5 365 L 105.5 363 L 105.5 362 Z "/>
    <path fill="#ffffff" d="M 206.5 362 L 208 362.5 L 202.5 365 L 203.5 363 L 206.5 362 Z "/>
    <path fill="#ffffff" d="M 113.5 365 L 121 367.5 L 118.5 368 L 113.5 366 L 113.5 365 Z "/>
    <path fill="#ffffff" d="M 198.5 365 L 200 365.5 L 196.5 367 L 196.5 366 L 198.5 365 Z "/>
    <path fill="#ffffff" d="M 122.5 368 L 129 369.5 L 125.5 370 L 122.5 369 L 122.5 368 Z "/>
    <path fill="#ffffff" d="M 189.5 368 L 192 368.5 L 185.5 370 L 185.5 369 L 189.5 368 Z "/>
    <path fill="#ffffff" d="M 216.5 370 L 218 375.5 L 217 375.5 L 216.5 370 Z "/>
    <path fill="#ffffff" d="M 137.5 371 L 149 372.5 L 142.5 373 L 137.5 372 L 137.5 371 Z "/>
    <path fill="#ffffff" d="M 174.5 371 L 179 371.5 L 173.5 373 L 166.5 373 L 166.5 372 Q 172.8 373.8 174.5 371 Z "/>
    <path fill="#ffffff" d="M 470.5 372 L 471 373.5 L 469.5 376 L 469 374.5 L 470.5 372 Z "/>
    <path fill="#ffffff" d="M 218.5 377 L 221 383.5 L 220 383.5 L 218.5 377 Z "/>
    <path fill="#ffffff" d="M 467.5 380 L 468 381.5 L 466.5 384 L 466 382.5 L 467.5 380 Z "/>
    <path fill="#ffffff" d="M 221.5 385 L 224 390.5 L 223 390.5 L 221.5 385 Z "/>
    <path fill="#ffffff" d="M 464.5 387 L 465 388.5 L 460.5 396 L 461 394.5 L 464.5 387 Z "/>
    <path fill="#ffffff" d="M 459.5 397 L 459 398.5 L 456.5 402 L 458 399.5 L 459.5 397 Z "/>
    <path fill="#ffffff" d="M 227.5 398 L 230 401.5 L 228 400.5 L 227.5 398 Z "/>
    <path fill="#ffffff" d="M 230.5 403 L 235 408.5 L 232 406.5 L 230.5 403 Z "/>
    <path fill="#ffffff" d="M 235.5 410 L 240 415.5 L 239 415.5 L 235.5 410 Z "/>
    <path fill="#ffffff" d="M 432.5 428 L 428.5 433 L 422.5 437 L 424.5 434 L 432.5 428 Z "/>
    <path fill="#ffffff" d="M 264.5 436 L 268 438.5 L 266.5 438 L 264.5 436 Z "/>
    <path fill="#ffffff" d="M 269.5 439 L 284 446.5 L 282.5 447 L 270.5 441 L 269.5 439 Z "/>
    <path fill="#ffffff" d="M 417.5 439 L 416.5 441 L 414.5 442 L 415.5 440 L 417.5 439 Z "/>
    <path fill="#ffffff" d="M 408.5 444 L 407.5 446 L 404.5 447 L 404.5 446 L 408.5 444 Z "/>
    <path fill="#ffffff" d="M 288.5 448 L 292 449.5 L 290.5 450 L 288.5 448 Z "/>
    <path fill="#ffffff" d="M 296.5 451 L 301 452.5 L 299.5 453 L 296.5 452 L 296.5 451 Z "/>
    <path fill="#ffffff" d="M 391.5 451 L 394 451.5 L 389.5 453 L 389.5 452 L 391.5 451 Z "/>
    <path fill="#ffffff" d="M 385.5 453 L 387 453.5 L 378.5 456 L 378.5 455 L 385.5 453 Z "/>
    <path fill="#ffffff" d="M 306.5 454 L 314 455.5 L 310.5 456 L 306.5 455 L 306.5 454 Z "/>
    <path fill="#ffffff" d="M 316.5 456 L 328 457.5 L 321.5 458 L 316.5 457 L 316.5 456 Z "/>
    <path fill="#ffffff" d="M 367.5 457 L 372 457.5 L 367.5 458 L 367.5 457 Z "/>
    <path fill="#ffffff" d="M 329.5 458 L 335 458.5 L 329.5 459 L 329.5 458 Z "/>
    <path fill="#ffffff" d="M 358.5 458 L 365 458.5 L 358.5 459 L 358.5 458 Z "/>
    <path fill="#ffffff" d="M 343.5 459 L 351 459.5 L 343.5 460 L 343.5 459 Z "/>
    <path fill="#4da3ff" d="M 347.5 65 Q 354.5 63.5 356 67.5 L 359 73.5 L 358.5 75 L 360 75.5 L 357.5 76 L 354.5 75 L 340 82 L 340 83.5 L 331.5 92 L 326.5 92 L 314.5 89 L 302.5 89 L 296 94.5 L 295 98.5 L 297 106.5 L 307 120.5 L 307 125.5 L 302 139.5 L 302 151.5 L 307.5 161 L 309.5 162 L 320.5 162 L 338.5 156 L 340.5 154 L 344.5 154 L 346.5 154 L 361.5 164 L 372.5 166 L 377 164 L 382 153.5 L 382 137 L 386.5 136 L 399 128 L 402 122.5 L 402 115.5 L 396.5 109 L 385.5 104 L 370 101 L 364 79 L 369.5 80 L 377.5 85 L 380.5 85 L 392.5 91 L 405 100.5 Q 404.3 103.1 407 102 L 407 104 L 408.5 104 L 423 120.5 L 435 145.5 L 441 169.5 L 441 198.5 L 436 218.5 L 430 230 L 403.5 215 L 400.5 215 L 395.5 212 L 382.5 209 L 379.5 207 L 369.5 206 L 364.5 204 L 355.5 204 L 354.5 203 L 337.5 203 L 336.5 204 L 325.5 204 L 321.5 206 L 312.5 207 L 302.5 210 L 276.5 222 Q 272.7 218.8 273 211.5 L 262 190.5 L 246.5 172 L 236 163.5 Q 236.8 161.3 234.5 162 L 232 161 Q 233.1 158.3 230.5 159 L 217 150.5 L 226 128.5 Q 235.4 113.4 248.5 102 Q 261.4 90.4 278.5 83 L 309.5 74 L 331.5 73 L 347.5 65 Z "/>
    <path fill="#4da3ff" d="M 350.5 95 Q 355 99 355 107.5 L 354.5 109 L 359 112.5 L 360.5 115 Q 364.8 114.3 365.5 117 L 372.5 117 L 381 119 Q 382.3 122 378.5 121 L 376 122.5 L 378 123.5 L 374.5 125 L 372.5 124 L 369 130 L 367 130.5 L 367 137.5 L 366 137.5 L 365 133 Q 362.3 131.9 363 134.5 L 364 140 Q 366.7 138.9 366 141.5 L 365 145.5 L 365.5 147 L 363 145.5 L 361 140 Q 358 141 359 138 L 355.5 138 Q 354 134.5 347.5 136 L 345.5 136 L 341.5 135 Q 338.4 140.4 330.5 141 L 331 139.5 Q 331.8 137.3 329.5 138 L 324.5 141 Q 326.1 139.3 323 137.5 L 324 132 Q 321 133.3 322 129.5 L 323 128.5 L 324 117.5 L 323 113.5 L 317 106.5 L 317 104.5 L 318 104.5 L 320.5 109 L 323.5 108 L 327 110.5 L 326 108.5 Q 327 106 331.5 107 L 333.5 107 L 337.5 107 Q 340 102.2 346 102 Q 345 99 348 100 L 348 96 L 349.5 96 L 350.5 95 Z M 346 108 L 346 110 L 347 111 L 339 110 L 337 113 L 332 114 L 333 117 Q 334 119 331 118 L 332 121 L 331 123 Q 334 124 332 126 L 333 130 L 340 133 L 344 131 L 349 132 L 355 129 L 356 127 Q 358 117 353 114 L 348 111 Q 349 107 346 108 Z "/>
    <path fill="#4da3ff" d="M 319.5 141 L 321 144.5 L 319 145 L 319.5 141 Z "/>
    <path fill="#4da3ff" d="M 153.5 152 L 177.5 154 L 204.5 162 L 228.5 176 L 242 189.5 L 244 192.5 L 258 215.5 Q 258.5 223 262 227.5 L 262 232.5 L 253 239 L 253 241 Q 250.3 239.9 251 242.5 L 238.5 256 Q 236.3 255.3 237 257.5 L 226 274.5 L 217 295.5 L 211 322.5 L 211 344.5 L 209.5 346 L 193.5 354 L 182.5 357 L 176.5 357 L 169.5 359 L 144.5 359 L 120.5 354 L 107.5 349 L 91.5 340 L 81 332 L 79.5 329 L 72 322.5 Q 72.8 320.3 70.5 321 Q 61.6 309.9 56 295.5 L 52 281.5 L 50 263.5 L 50 261.5 L 51 259.5 L 52 240.5 L 59 216.5 L 72 194.5 L 87.5 178 L 104.5 166 L 123.5 157 L 136.5 155 L 141.5 153 L 152.5 153 L 153.5 152 Z M 147 162 L 143 164 L 126 185 L 124 186 L 101 187 L 98 188 L 93 194 L 94 201 L 100 210 L 108 217 L 108 221 L 105 227 L 103 236 Q 102 244 105 248 L 111 251 L 122 250 L 139 241 L 146 242 L 154 247 L 164 250 L 176 250 Q 181 246 183 239 L 183 232 L 180 223 L 180 217 Q 190 211 197 202 Q 198 193 196 190 L 182 185 L 165 185 L 157 167 Q 155 161 147 162 Z "/>
    <path fill="#4da3ff" d="M 142.5 183 L 149 183 L 149 185.5 L 151 189.5 L 152 192.5 L 150.5 195 L 153.5 194 L 155 199 L 151.5 199 Q 149.5 195.8 145 196 Q 146.3 199 142.5 198 L 140.5 197 L 136 199.5 L 134.5 202 L 132 203.5 L 131 211 Q 127.3 209.7 129 215.5 L 133 220.5 L 133 223 Q 136.7 221.5 136 224.5 L 127.5 229 L 125.5 228 L 126 229.5 Q 127.3 233.7 122.5 232 L 121 229 L 124 227.5 L 123 223.5 L 125 217.5 L 123 210.5 L 117 204.5 L 116.5 202 L 115 202.5 L 114 200.5 L 119.5 198 L 135 197.5 L 134.5 196 Q 137.1 196.8 136 193.5 L 140 190.5 L 141 188.5 L 140 187.5 L 142.5 183 Z "/>
    <path fill="#4da3ff" d="M 155.5 200 L 165.5 201 L 167.5 201 Q 173.3 199.3 172 203 L 169 203.5 L 170 204.5 L 165.5 209 L 163 210.5 L 163 218.5 L 166 227.5 L 166 232 L 160.5 233 L 149 224.5 Q 147.8 220.8 151.5 222 L 158 212.5 L 158 206.5 L 156 202.5 L 155.5 200 Z "/>
    <path fill="#4da3ff" d="M 145.5 207 L 147 211 L 141.5 212 L 141.5 211 Q 143.8 211.8 143 209.5 L 145.5 207 Z "/>
    <path fill="#4da3ff" d="M 343.5 218 L 344.5 219 L 367.5 220 L 386.5 225 L 407.5 234 L 422 244 Q 420.9 246.7 423.5 246 L 436 257.5 L 438 260.5 L 449 275.5 L 458 297.5 L 463 322.5 L 463 345.5 L 457 371.5 L 449 388.5 L 441 401 Q 438.3 399.9 439 402.5 L 424.5 418 L 422 418 Q 423.1 420.7 420.5 420 L 411 426 Q 412.1 428.7 409.5 428 L 399.5 434 L 379.5 442 L 368.5 443 L 362.5 445 L 330.5 445 L 329.5 444 L 312.5 442 L 295.5 437 L 275.5 428 L 260 416.5 Q 260.8 414.3 258.5 415 L 248 404.5 L 234 381.5 L 226 350.5 L 226 325.5 L 231 301.5 L 243 275.5 L 254 260.5 L 267.5 247 L 273 244 Q 271.9 241.3 274.5 242 L 291.5 231 L 314.5 222 L 324.5 221 L 329.5 219 L 342.5 219 L 343.5 218 Z M 368 230 L 360 233 Q 357 238 351 239 L 350 242 Q 351 244 349 243 L 342 253 L 318 253 L 306 257 L 302 262 Q 301 269 303 273 L 316 289 L 320 290 L 318 302 L 316 305 L 316 315 L 315 316 L 316 324 L 318 328 L 323 331 Q 333 332 340 330 L 359 321 L 362 321 L 377 332 Q 383 332 386 335 Q 395 337 397 332 Q 396 329 399 330 L 401 325 L 401 317 L 401 315 L 402 310 L 400 303 L 401 299 L 413 290 Q 419 286 421 279 L 421 273 L 419 269 L 404 261 L 386 258 L 375 235 L 368 230 Z "/>
    <path fill="#4da3ff" d="M 365.5 253 Q 368 254 367 258.5 L 369 260.5 L 369 264 Q 366.3 262.9 367 265.5 L 368.5 268 L 371.5 267 L 371.5 268 L 370 268.5 Q 375.3 269.3 377.5 273 L 393.5 276 L 395 275.5 L 396.5 278 L 398.5 277 L 400 280 Q 396.2 279.3 395 282.5 L 395.5 284 L 394.5 283 L 390.5 287 Q 386.8 286.3 386 288.5 L 385 291.5 L 385 293.5 L 384 298.5 L 385 303.5 L 385 305.5 L 386 317 L 377 314 L 375.5 311 L 373.5 311 L 369.5 307 L 368 307.5 L 368.5 306 L 359.5 304 L 357.5 304 Q 353.8 303 355 306 L 351.5 306 L 344.5 311 Q 339 309.5 337.5 312 L 334 309.5 L 334 301.5 L 336 298.5 L 337 287.5 L 336 285.5 L 338 282.5 Q 333.3 282.7 332 279.5 Q 331.1 276.1 336.5 278 L 338.5 277 L 342 278 L 340 274.5 L 344 272.5 L 345 270.5 L 343 269.5 L 344.5 269 L 346.5 270 L 351.5 266 L 354.5 269 L 355.5 268 Q 358.8 269.1 358 266.5 L 356.5 267 L 354 265.5 L 356 261 L 358.5 262 L 359 260.5 L 358.5 259 Q 360.8 259.8 360 257.5 L 361 257.5 Q 360.2 260.5 364 259 L 363 254 L 365.5 253 Z M 360 262 L 359 264 L 359 265 Q 361 264 360 267 L 365 267 L 363 263 L 360 262 Z M 357 269 L 349 273 L 343 281 L 344 284 L 343 287 L 344 293 L 353 299 L 355 298 L 359 299 L 357 300 L 360 300 L 362 300 Q 364 301 363 298 L 366 298 L 370 298 L 372 297 L 376 291 Q 379 279 372 277 Q 373 274 370 275 L 370 273 L 369 271 L 357 269 Z "/>
    <path fill="#4da3ff" d="M 325.5 268 L 329 269 L 329.5 272 L 332 270.5 Q 329.8 271.8 332.5 273 L 334.5 273 L 337.5 272 L 338.5 274 L 331.5 276 L 329 275 L 328.5 277 L 323 270.5 L 325.5 268 Z "/>
    <path fill="#4da3ff" d="M 358.5 281 L 364 282 L 363.5 288 L 360.5 287 L 357 287.5 L 356 282 L 358.5 281 Z "/>
    <path fill="#66d9e8" d="M 347.5 63 Q 353.6 62.2 356 64 Q 358.5 71.3 364.5 76 L 394.5 90 Q 407.3 98.3 417 109.5 L 419 112.5 Q 432.4 129.1 439 152.5 L 443 170.5 L 443 198.5 L 438 218.5 L 431 233 L 402.5 217 L 386.5 211 L 355.5 205 L 335.5 205 L 305.5 211 L 292.5 216 L 275.5 225 L 273 222.5 L 271 212.5 L 261 192.5 Q 252.5 179 240.5 169 L 229.5 160 L 215 151.5 Q 218.7 136.7 226 125.5 L 244.5 103 Q 259.1 89.6 278.5 81 L 304.5 73 L 334.5 70 L 347.5 63 Z M 348 65 L 332 73 L 310 74 L 279 83 Q 261 90 249 102 Q 235 113 226 129 L 217 151 L 231 159 Q 233 158 232 161 L 235 162 Q 237 161 236 164 L 247 172 L 262 191 L 273 212 Q 273 219 277 222 L 303 210 L 313 207 L 322 206 L 326 204 L 337 204 L 338 203 L 355 203 L 356 204 L 365 204 L 370 206 L 380 207 L 383 209 L 396 212 L 401 215 L 404 215 L 430 230 L 436 219 L 441 199 L 441 170 L 435 146 L 423 121 L 409 104 L 407 104 L 407 102 Q 404 103 405 101 L 393 91 L 381 85 L 378 85 L 370 80 L 364 79 L 370 101 L 386 104 L 397 109 L 402 116 L 402 123 L 399 128 L 387 136 L 382 137 L 382 154 L 377 164 L 373 166 L 362 164 L 347 154 L 345 154 L 341 154 L 339 156 L 321 162 L 310 162 L 308 161 L 302 152 L 302 140 L 307 126 L 307 121 L 297 107 L 295 99 L 296 95 L 303 89 L 315 89 L 327 92 L 332 92 L 340 84 L 340 82 L 355 75 L 358 76 L 360 76 L 359 75 L 359 74 L 356 68 Q 354 63 348 65 Z M 355 77 Q 340 83 332 94 L 326 94 L 317 91 L 303 91 L 301 92 L 297 97 Q 296 103 299 107 L 309 120 L 309 126 L 304 142 Q 302 155 310 160 L 322 160 L 344 151 L 350 153 L 364 163 L 374 164 Q 383 157 380 138 L 395 129 L 400 122 Q 401 115 398 113 L 394 109 L 383 105 L 370 103 L 367 99 Q 367 87 362 81 Q 361 76 355 77 Z "/>
    <path fill="#66d9e8" d="M 352.5 89 L 355 90.5 L 357 95.5 L 358 106.5 L 362.5 112 L 379.5 115 L 388 119.5 L 371 131.5 L 370 133.5 L 370 148.5 L 369 152 L 362.5 150 L 348.5 140 L 340.5 140 Q 331.4 147.9 316.5 150 L 315 148.5 L 315 138.5 L 321 123.5 L 321 118.5 L 312 106.5 L 310 101 L 320.5 102 L 325.5 104 L 335.5 104 L 352.5 89 Z M 351 95 L 350 96 L 348 96 L 348 100 Q 345 99 346 102 Q 340 102 338 107 L 334 107 L 332 107 Q 327 106 326 109 L 327 111 L 324 108 L 320 110 L 324 118 L 322 132 L 325 131 L 328 132 L 324 132 L 323 138 Q 326 139 325 141 L 330 138 Q 332 137 331 140 L 331 141 Q 338 140 342 135 L 346 136 L 348 136 Q 354 135 356 138 L 359 138 Q 358 141 361 140 L 363 146 L 366 147 L 365 146 L 366 140 Q 363 139 364 142 L 363 142 L 364 140 L 363 135 Q 362 132 365 133 L 366 138 L 367 138 L 367 131 L 369 130 L 373 124 L 375 125 L 378 124 L 376 123 L 379 121 Q 382 122 381 119 L 373 117 L 366 117 Q 365 114 361 115 L 359 113 L 355 109 L 355 108 Q 355 99 351 95 Z M 318 104 L 317 107 L 320 109 L 318 104 Z M 320 141 L 319 145 L 321 145 L 320 141 Z "/>
    <path fill="#66d9e8" d="M 346 108 Q 349 106.8 348 110.5 L 353 113.5 Q 357.5 117 356 126.5 L 355 129 L 348.5 132 L 343.5 131 L 339.5 133 L 333 130 L 332 125.5 Q 334.5 124 331 122.5 L 332 120.5 L 331 118 Q 333.7 119.1 333 116.5 L 332 114 L 337 113 L 338.5 110 L 346.5 111 L 346 109.5 L 346 108 Z M 342 113 L 339 114 L 334 121 L 335 125 L 342 129 L 351 128 L 353 125 L 352 118 Q 349 113 342 113 Z "/>
    <path fill="#66d9e8" d="M 342.5 117 L 348 119.5 L 349 122.5 Q 347.8 126.3 341.5 125 L 338 120.5 L 342.5 117 Z "/>
    <path fill="#66d9e8" d="M 150.5 150 L 183.5 153 L 207.5 161 L 230.5 175 L 243 187.5 L 257 208.5 L 265 231.5 L 261.5 236 L 247 248.5 Q 230.5 266 221 290.5 L 214 317.5 Q 215.3 322.3 213 323.5 L 213 345.5 L 210.5 348 L 193.5 356 L 181.5 359 L 176.5 359 L 170.5 361 L 144.5 361 L 120.5 356 L 105.5 350 L 85.5 338 L 68 320.5 Q 58.4 308.6 53 292.5 L 49 274.5 L 48 259.5 L 49 258.5 L 49 248.5 L 50 247.5 L 51 235.5 L 57 216.5 L 67 198.5 L 77.5 185 Q 94 167 118.5 157 L 135.5 152 L 149.5 151 L 150.5 150 Z M 154 152 L 153 153 L 142 153 L 137 155 L 124 157 L 105 166 L 88 178 L 72 195 L 59 217 L 52 241 L 51 260 L 50 262 L 50 264 L 52 282 L 56 296 Q 62 310 71 321 Q 73 320 72 323 L 80 329 L 81 332 L 92 340 L 108 349 L 121 354 L 145 359 L 170 359 L 177 357 L 183 357 L 194 354 L 210 346 L 211 345 L 211 323 L 217 296 L 226 275 L 237 258 Q 236 255 239 256 L 251 243 Q 250 240 253 241 L 253 239 L 262 233 L 262 228 Q 258 223 258 216 L 244 193 L 242 190 L 229 176 L 205 162 L 178 154 L 154 152 Z "/>
    <path fill="#66d9e8" d="M 146.5 162 Q 155.1 160.9 157 166.5 L 165 185 L 181.5 185 L 196 190 Q 198.1 193.3 197 201.5 Q 190.3 210.8 180 216.5 L 180 222.5 L 183 231.5 L 183 238.5 Q 181.2 246.1 175.5 250 L 163.5 250 L 153.5 247 L 145.5 242 L 138.5 241 L 121.5 250 L 110.5 251 L 105 247.5 Q 102 243.5 103 235.5 L 105 226.5 L 108 220.5 L 108 216.5 L 100 210 L 94 200.5 L 93 193.5 L 97.5 188 L 100.5 187 L 123.5 186 L 126 185 L 142.5 164 L 146.5 162 Z M 147 164 L 145 165 Q 135 173 129 185 L 124 188 L 101 189 L 95 194 L 96 201 L 110 217 L 110 221 L 107 227 L 105 236 Q 104 246 110 249 L 122 248 L 140 238 L 156 246 L 169 249 L 177 247 L 179 245 L 181 239 L 181 231 L 177 217 L 188 209 Q 193 205 196 198 L 195 194 Q 192 189 187 188 L 182 187 L 165 187 L 156 169 Q 154 163 147 164 Z "/>
    <path fill="#66d9e8" d="M 145.5 176 Q 149.5 175.5 150 178.5 Q 152.1 189.9 158.5 197 L 169.5 197 L 171.5 198 Q 172.8 195.8 177.5 197 L 181 198 L 177.5 203 L 166 212.5 L 166 219.5 L 170 230.5 L 170 236.5 L 166.5 238 Q 153.1 234.4 143.5 227 L 138.5 227 L 120.5 237 L 116 237 L 116 230.5 L 121 219.5 L 121 213.5 L 119 210 Q 116.3 211.1 117 208.5 L 108 199.5 L 108 197 L 130.5 195 L 133 194 Q 137.5 183.7 145.5 176 Z M 143 183 L 141 185 L 142 188 L 140 191 L 136 194 Q 137 197 135 196 L 135 198 L 120 198 L 114 201 L 115 203 L 117 202 L 117 205 L 123 211 L 125 218 L 123 224 L 124 228 L 121 229 L 123 232 Q 127 234 126 230 L 126 228 L 128 229 L 136 225 Q 137 221 133 223 L 133 221 L 129 216 Q 127 210 131 211 L 132 204 L 135 202 L 136 200 L 141 197 L 143 198 Q 146 199 145 196 Q 150 196 152 199 L 155 199 L 154 194 L 151 195 L 152 193 L 151 190 L 149 186 L 149 183 L 143 183 Z M 141 200 L 134 207 L 133 215 Q 136 219 142 220 L 148 219 L 153 216 L 155 213 L 154 204 Q 151 198 141 200 Z M 156 200 L 156 203 L 158 207 L 158 213 L 152 222 Q 148 221 149 225 L 161 233 L 166 232 L 166 228 L 163 219 L 163 211 L 166 209 L 170 205 L 169 204 L 172 203 Q 173 199 168 201 L 166 201 L 156 200 Z "/>
    <path fill="#66d9e8" d="M 142.5 204 Q 149.4 203.1 151 207.5 Q 151.8 213.3 147.5 214 L 139.5 215 L 137 214 L 136 211.5 L 140.5 205 L 142.5 204 Z M 146 207 L 143 210 Q 144 212 142 211 L 142 212 L 147 211 L 146 207 Z "/>
    <path fill="#66d9e8" d="M 330.5 217 L 359.5 217 L 360.5 218 L 372.5 219 L 389.5 224 Q 416.3 233.7 434 252.5 L 450 273.5 L 458 291.5 L 462 305.5 L 464 322.5 L 465 323.5 L 465 344.5 L 462 355.5 L 462 360.5 L 457 376.5 Q 447.2 400.2 429.5 416 L 426.5 418 L 409.5 431 L 382.5 443 L 360.5 447 L 330.5 447 L 301.5 441 L 281.5 433 Q 266.1 425.9 255 414.5 Q 255.8 412.3 253.5 413 Q 239.2 398.8 231 378.5 L 225 356.5 Q 226.8 350.3 224 348.5 L 224 326.5 Q 226.8 324.7 225 318.5 L 227 314.5 L 227 309.5 L 233 291.5 L 241 275.5 L 256 255 L 259 253.5 Q 258.3 251.3 260.5 252 L 269.5 243 L 289.5 230 L 311.5 221 L 330.5 217 Z M 344 218 L 343 219 L 330 219 L 325 221 L 315 222 L 292 231 L 275 242 Q 272 241 273 244 L 268 247 L 254 261 L 243 276 L 231 302 L 226 326 L 226 351 L 234 382 L 248 405 L 259 415 Q 261 414 260 417 L 276 428 L 296 437 L 313 442 L 330 444 L 331 445 L 363 445 L 369 443 L 380 442 L 400 434 L 410 428 Q 412 429 411 426 L 421 420 Q 423 421 422 418 L 425 418 L 439 403 Q 438 400 441 401 L 449 389 L 457 372 L 463 346 L 463 323 L 458 298 L 449 276 L 438 261 L 436 258 L 424 246 Q 421 247 422 244 L 408 234 L 387 225 L 368 220 L 345 219 L 344 218 Z "/>
    <path fill="#66d9e8" d="M 367.5 230 L 375 234.5 L 385.5 258 L 403.5 261 L 419 269 L 421 272.5 L 421 278.5 Q 418.9 286.4 412.5 290 L 401 298.5 L 400 302.5 L 402 309.5 L 401 314.5 L 401 316.5 L 401 324.5 L 399 330 Q 396.3 328.9 397 331.5 Q 395 337 385.5 335 Q 382.5 332 376.5 332 L 361.5 321 L 358.5 321 L 339.5 330 Q 332.8 332.3 322.5 331 L 318 327.5 L 316 323.5 L 315 315.5 L 316 314.5 L 316 304.5 L 318 301.5 L 320 290 L 316 289 L 303 272.5 Q 300.5 269 302 261.5 L 305.5 257 L 317.5 253 L 342 253 L 348.5 243 Q 350.8 243.8 350 241.5 L 351 239 Q 356.7 238.2 359.5 233 L 367.5 230 Z M 368 232 L 360 235 Q 350 241 345 252 L 342 255 L 319 255 L 307 259 L 303 265 L 304 271 L 313 282 L 315 285 L 322 291 L 322 295 L 317 312 L 318 324 L 323 329 Q 333 330 340 328 L 359 319 L 362 319 Q 371 329 386 333 Q 392 334 395 332 L 398 327 L 400 317 L 398 299 L 409 291 Q 416 287 419 279 L 418 272 L 404 263 L 385 260 L 381 255 L 380 249 L 375 238 L 368 232 Z "/>
    <path fill="#66d9e8" d="M 364.5 245 L 368 247.5 L 372 260.5 L 377.5 269 L 381.5 271 L 402.5 274 L 407 276.5 L 402.5 282 L 389 291.5 Q 386.2 294.2 387 300.5 L 389 309.5 L 389 319.5 L 388 322 L 378.5 318 L 362.5 307 L 357.5 307 L 341.5 316 L 329.5 318 Q 326.8 316.8 328 311.5 Q 330.5 310 329 304.5 L 334 292.5 L 334 288.5 L 316 269.5 L 316 266 L 327.5 265 L 328.5 266 L 345.5 266 L 350 262.5 L 352 258.5 L 364.5 245 Z M 366 253 L 363 254 L 364 257 Q 365 261 361 259 L 361 257 L 360 259 L 358 260 L 361 263 L 363 263 L 365 267 L 360 267 L 360 265 L 358 265 L 359 263 L 356 261 L 354 266 L 357 267 L 358 267 Q 359 269 356 268 L 355 269 L 352 266 Q 349 267 351 269 L 350 268 L 346 270 L 344 273 L 340 275 L 342 278 L 339 277 L 337 278 Q 331 276 332 280 Q 333 283 338 283 L 336 286 L 337 288 L 336 299 L 334 302 L 334 310 L 338 312 Q 339 310 345 311 L 352 306 L 355 306 Q 354 303 358 304 L 360 304 L 369 306 L 374 311 L 376 311 L 377 314 L 386 317 L 385 306 L 385 304 L 384 299 L 385 294 L 385 292 L 386 289 Q 387 286 391 287 L 398 280 L 400 280 L 399 277 L 397 278 L 395 276 L 394 276 L 378 273 Q 375 269 370 269 L 372 268 L 372 267 L 369 268 L 367 266 Q 366 263 369 264 L 369 261 L 367 259 Q 368 254 366 253 Z M 326 268 L 323 271 L 329 277 L 329 275 L 332 276 L 339 274 L 338 272 L 335 273 L 331 271 L 330 272 L 329 269 L 326 268 Z "/>
    <path fill="#66d9e8" d="M 356.5 269 L 368.5 271 L 370 272.5 L 370 275 Q 372.7 273.9 372 276.5 L 373.5 276 L 375 276.5 L 373 277.5 L 376 280.5 L 376 290.5 L 371.5 297 L 369.5 298 L 365.5 298 L 363 298 Q 364.1 300.7 361.5 300 L 359.5 300 L 357 299.5 L 359 298.5 L 354.5 298 L 352.5 299 L 344 292.5 L 343 286.5 L 344 283.5 L 343 280.5 L 348.5 273 L 356.5 269 Z M 356 273 L 349 276 L 346 284 L 349 292 L 357 296 Q 365 298 369 295 Q 373 292 374 287 L 372 280 L 363 273 L 356 273 Z "/>
    <path fill="#66d9e8" d="M 359.5 277 Q 365.9 277.1 368 281.5 L 369 287.5 Q 366.9 293.4 357.5 292 L 352 288.5 L 351 282.5 L 353.5 279 L 359.5 277 Z M 359 281 L 356 282 L 357 288 L 361 287 L 364 288 L 364 282 L 359 281 Z "/>
  </g>
  <g id="line">
    <path fill="#1a1a1a" d="M 348.5 52 Q 359.7 51.8 364 58.5 L 370.5 68 L 396.5 78 L 417 92 L 418.5 95 L 421.5 97 L 437 117.5 L 448 141.5 L 454 166.5 L 455 193.5 L 451 215.5 Q 446.8 230.3 439 241.5 Q 456.3 257.2 466 280.5 L 474 306.5 L 477 334.5 L 476 335.5 L 476 345.5 L 475 346.5 L 474 359.5 L 466 384.5 Q 454 410.5 433.5 428 L 413.5 442 L 388.5 453 L 366.5 458 L 335.5 459 L 334.5 458 L 328.5 458 L 305.5 454 L 284.5 447 Q 257.6 435.9 240 415.5 Q 220.1 393.7 214 359 L 201.5 365 L 181.5 371 L 174.5 371 L 165.5 373 L 149.5 373 L 148.5 372 L 129.5 370 L 104.5 362 L 81.5 349 L 61 330.5 Q 47.9 315.1 41 293.5 L 38 279.5 L 38 270.5 L 37 269.5 L 37 252.5 L 38 251.5 L 39 236.5 L 47 210.5 L 58 190.5 L 78.5 168 L 99.5 153 L 122.5 143 L 145.5 139 L 163.5 139 L 164.5 140 L 175.5 140 L 203.5 147 L 206 143.5 L 210 130.5 L 218 116.5 Q 227.1 102.6 239.5 92 L 255.5 80 L 277.5 69 L 308.5 61 L 333.5 60 L 348.5 52 Z M 348 63 L 335 70 L 305 73 L 279 81 Q 259 90 245 103 L 226 126 Q 219 137 215 152 L 230 160 L 241 169 Q 252 179 261 193 L 271 213 L 273 223 L 276 225 L 293 216 L 306 211 L 336 205 L 356 205 L 387 211 L 403 217 L 431 233 L 438 219 L 443 199 L 443 171 L 439 153 Q 432 129 419 113 L 417 110 Q 407 98 395 90 L 365 76 Q 358 71 356 64 Q 354 62 348 63 Z M 151 150 L 150 151 L 136 152 L 119 157 Q 94 167 78 185 L 67 199 L 57 217 L 51 236 L 50 248 L 49 249 L 49 259 L 48 260 L 49 275 L 53 293 Q 58 309 68 321 L 86 338 L 106 350 L 121 356 L 145 361 L 171 361 L 177 359 L 182 359 L 194 356 L 211 348 L 213 346 L 213 324 Q 215 322 214 318 L 221 291 Q 230 266 247 249 L 262 236 L 265 232 L 257 209 L 243 188 L 231 175 L 208 161 L 184 153 L 151 150 Z M 331 217 L 312 221 L 290 230 L 270 243 L 261 252 Q 258 251 259 254 L 256 255 L 241 276 L 233 292 L 227 310 L 227 315 L 225 319 Q 227 325 224 327 L 224 349 Q 227 350 225 357 L 231 379 Q 239 399 254 413 Q 256 412 255 415 Q 266 426 282 433 L 302 441 L 331 447 L 361 447 L 383 443 L 410 431 L 427 418 L 430 416 Q 447 400 457 377 L 462 361 L 462 356 L 465 345 L 465 324 L 464 323 L 462 306 L 458 292 L 450 274 L 434 253 Q 416 234 390 224 L 373 219 L 361 218 L 360 217 L 331 217 Z "/>
    <path fill="#1a1a1a" d="M 354.5 77 Q 360.7 76.3 362 80.5 Q 366.5 87.5 367 98.5 L 369.5 103 L 382.5 105 L 393.5 109 L 398 112.5 Q 401.2 114.8 400 121.5 L 394.5 129 L 380 137.5 Q 382.7 156.7 373.5 164 L 363.5 163 L 349.5 153 L 343.5 151 L 321.5 160 L 309.5 160 Q 302 155.5 304 141.5 L 309 125.5 L 309 119.5 L 299 106.5 Q 296.3 103.2 297 96.5 L 300.5 92 L 302.5 91 L 316.5 91 L 325.5 94 L 331.5 94 Q 340.1 82.6 354.5 77 Z M 353 89 L 336 104 L 326 104 L 321 102 L 310 101 L 312 107 L 321 119 L 321 124 L 315 139 L 315 149 L 317 150 Q 331 148 341 140 L 349 140 L 363 150 L 369 152 L 370 149 L 370 134 L 371 132 L 388 120 L 380 115 L 363 112 L 358 107 L 357 96 L 355 91 L 353 89 Z "/>
    <path fill="#1a1a1a" d="M 341.5 113 Q 349 113 352 117.5 L 353 124.5 L 350.5 128 L 341.5 129 L 335 124.5 L 334 120.5 L 338.5 114 L 341.5 113 Z M 343 117 L 338 121 L 342 125 Q 348 126 349 123 L 348 120 L 343 117 Z "/>
    <path fill="#1a1a1a" d="M 146.5 164 Q 154.4 163.1 156 168.5 L 164.5 187 L 181.5 187 L 186.5 188 Q 192.3 189.3 195 193.5 L 196 197.5 Q 193.4 204.9 187.5 209 L 177 216.5 L 181 230.5 L 181 238.5 L 176.5 247 L 168.5 249 L 155.5 246 L 139.5 238 L 121.5 248 L 109.5 249 Q 103.6 245.9 105 235.5 L 107 226.5 L 110 220.5 L 110 216.5 L 96 200.5 L 95 193.5 L 100.5 189 L 123.5 188 L 129 184.5 Q 134.7 172.7 144.5 165 L 146.5 164 Z M 146 176 Q 138 184 133 194 L 131 195 L 108 197 L 108 200 L 117 209 Q 116 211 119 210 L 121 214 L 121 220 L 116 231 L 116 237 L 121 237 L 139 227 L 144 227 Q 153 234 167 238 L 170 237 L 170 231 L 166 220 L 166 213 L 178 203 L 181 198 L 178 197 Q 173 196 172 198 L 170 197 L 159 197 Q 152 190 150 179 Q 149 176 146 176 Z "/>
    <path fill="#1a1a1a" d="M 140.5 200 Q 150.6 198.4 154 203.5 L 155 212.5 L 152.5 216 L 147.5 219 L 141.5 220 Q 135.8 218.8 133 214.5 L 134 206.5 L 140.5 200 Z M 143 204 L 141 205 L 136 212 L 137 214 L 140 215 L 148 214 Q 152 213 151 208 Q 149 203 143 204 Z "/>
    <path fill="#1a1a1a" d="M 367.5 232 L 375 237.5 L 380 248.5 L 381 254.5 L 384.5 260 L 403.5 263 L 418 271.5 L 419 278.5 Q 415.7 286.7 408.5 291 L 398 298.5 L 400 316.5 L 398 326.5 L 395 332 Q 392.3 333.9 385.5 333 Q 370.9 328.6 361.5 319 L 358.5 319 L 339.5 328 Q 332.8 330.3 322.5 329 L 318 323.5 L 317 311.5 L 322 294.5 L 322 290.5 L 315 284.5 L 313 281.5 L 304 270.5 L 303 264.5 L 306.5 259 L 318.5 255 L 341.5 255 L 345 251.5 Q 350.3 241.3 359.5 235 L 367.5 232 Z M 365 245 L 352 259 L 350 263 L 346 266 L 329 266 L 328 265 L 316 266 L 316 270 L 334 289 L 334 293 L 329 305 Q 331 310 328 312 Q 327 317 330 318 L 342 316 L 358 307 L 363 307 L 379 318 L 388 322 L 389 320 L 389 310 L 387 301 Q 386 294 389 292 L 403 282 L 407 277 L 403 274 L 382 271 L 378 269 L 372 261 L 368 248 L 365 245 Z "/>
    <path fill="#1a1a1a" d="M 355.5 273 L 362.5 273 L 372 279.5 L 374 286.5 Q 372.8 292.3 368.5 295 Q 364.7 297.7 356.5 296 L 349 292 L 346 283.5 L 349 276 L 355.5 273 Z M 360 277 L 354 279 L 351 283 L 352 289 L 358 292 Q 367 293 369 288 L 368 282 Q 366 277 360 277 Z "/>
  </g>
</svg>
