<svg xmlns="http://www.w3.org/2000/svg" width="512" height="512" viewBox="0 0 512 512">
  <g id="color">
    <path fill="#ffffff" d="M 251.5 36 L 259.5 36 L 266 37.5 L 260.5 38 L 259.5 37 L 251.5 37 L 251.5 36 Z "/>
    <path fill="#ffffff" d="M 245.5 37 L 250 37.5 L 245.5 38 L 245.5 37 Z "/>
    <path fill="#ffffff" d="M 237.5 39 L 239 39.5 L 234.5 41 L 234.5 40 L 237.5 39 Z "/>
    <path fill="#ffffff" d="M 271.5 39 L 276 40.5 L 274.5 41 L 271.5 40 L 271.5 39 Z "/>
    <path fill="#ffffff" d="M 228.5 42 L 230 42.5 L 226.5 44 L 226.5 43 L 228.5 42 Z "/>
    <path fill="#ffffff" d="M 279.5 42 L 283 43.5 L 281.5 44 L 279.5 42 Z "/>
    <path fill="#ffffff" d="M 284.5 44 L 295 49.5 L 293.5 49 L 284.5 45 L 284.5 44 Z "/>
    <path fill="#ffffff" d="M 212.5 50 L 211.5 52 L 209.5 53 L 210.5 51 L 212.5 50 Z "/>
    <path fill="#ffffff" d="M 207.5 53 L 206.5 55 L 200.5 58 L 201.5 56 L 207.5 53 Z "/>
    <path fill="#ffffff" d="M 198.5 58 L 197.5 60 L 195.5 61 L 196.5 59 L 198.5 58 Z "/>
    <path fill="#ffffff" d="M 312.5 59 L 316 61.5 L 314.5 61 L 312.5 59 Z "/>
    <path fill="#ffffff" d="M 193.5 61 L 192.5 63 L 190.5 64 L 191.5 62 L 193.5 61 Z "/>
    <path fill="#ffffff" d="M 321.5 64 L 325 66.5 L 323.5 66 L 321.5 64 Z "/>
    <path fill="#ffffff" d="M 177.5 70 L 176.5 72 L 174.5 73 L 175.5 71 L 177.5 70 Z "/>
    <path fill="#ffffff" d="M 335.5 72 L 341 75.5 L 339.5 75 Q 335.5 74.5 335.5 72 Z "/>
    <path fill="#ffffff" d="M 168.5 75 L 167.5 77 L 165.5 78 L 166.5 76 L 168.5 75 Z "/>
    <path fill="#ffffff" d="M 157.5 81 L 156.5 83 L 154.5 84 L 155.5 82 L 157.5 81 Z "/>
    <path fill="#ffffff" d="M 352.5 81 L 356 83.5 L 354.5 83 L 352.5 81 Z "/>
    <path fill="#ffffff" d="M 357.5 84 L 362 86.5 L 360.5 86 Q 356.7 85.8 357.5 84 Z "/>
    <path fill="#ffffff" d="M 140.5 90 L 139.5 92 L 133.5 95 L 134.5 93 L 140.5 90 Z "/>
    <path fill="#ffffff" d="M 375.5 93 L 383 97.5 L 381.5 97 Q 375.9 96.2 375.5 93 Z "/>
    <path fill="#ffffff" d="M 125.5 98 L 124.5 100 L 122.5 101 L 123.5 99 L 125.5 98 Z "/>
    <path fill="#ffffff" d="M 384.5 98 L 389 100.5 L 387.5 100 Q 383.7 99.8 384.5 98 Z "/>
    <path fill="#ffffff" d="M 120.5 101 L 119.5 103 L 116.5 104 L 116.5 103 L 120.5 101 Z "/>
    <path fill="#ffffff" d="M 390.5 101 L 395 103.5 L 393.5 103 Q 389.8 102.8 390.5 101 Z "/>
    <path fill="#ffffff" d="M 114.5 104 L 113.5 106 L 111.5 107 L 112.5 105 L 114.5 104 Z "/>
    <path fill="#ffffff" d="M 400.5 106 L 404 108.5 L 402.5 108 L 400.5 106 Z "/>
    <path fill="#ffffff" d="M 105.5 109 L 104.5 111 L 102.5 112 L 103.5 110 L 105.5 109 Z "/>
    <path fill="#ffffff" d="M 411.5 112 L 415 114.5 L 413.5 114 L 411.5 112 Z "/>
    <path fill="#ffffff" d="M 98.5 113 L 97.5 115 L 95.5 116 L 96.5 114 L 98.5 113 Z "/>
    <path fill="#ffffff" d="M 93.5 116 L 92.5 118 L 88.5 120 L 89.5 118 L 93.5 116 Z "/>
    <path fill="#ffffff" d="M 418.5 116 L 434 126.5 L 431.5 125 L 419.5 118 L 418.5 116 Z "/>
    <path fill="#ffffff" d="M 86.5 120 L 85.5 122 L 83.5 123 L 84.5 121 L 86.5 120 Z "/>
    <path fill="#ffffff" d="M 81.5 123 L 80.5 125 L 78.5 126 L 79.5 124 L 81.5 123 Z "/>
    <path fill="#ffffff" d="M 63.5 138 L 61 141.5 L 59.5 144 L 60 142.5 L 63.5 138 Z "/>
    <path fill="#ffffff" d="M 449.5 143 L 452 147.5 L 451 147.5 L 449.5 143 Z "/>
    <path fill="#ffffff" d="M 58.5 145 L 58 146.5 L 56.5 150 L 56 148.5 L 58.5 145 Z "/>
    <path fill="#ffffff" d="M 452.5 149 L 454 152.5 L 453 152.5 L 452.5 149 Z "/>
    <path fill="#ffffff" d="M 54.5 153 L 55 155.5 L 53.5 159 L 53 156.5 L 54.5 153 Z "/>
    <path fill="#ffffff" d="M 455.5 157 L 457 162.5 L 456 162.5 L 455.5 157 Z "/>
    <path fill="#ffffff" d="M 457.5 165 L 458 169.5 L 457 169.5 L 457.5 165 Z "/>
    <path fill="#ffffff" d="M 51.5 167 L 52 221.5 L 51 221.5 L 51.5 167 Z "/>
    <path fill="#ffffff" d="M 458.5 172 L 459 187.5 L 458 187.5 L 458.5 172 Z "/>
    <path fill="#ffffff" d="M 458.5 205 L 459 251.5 L 458 251.5 L 458.5 205 Z "/>
    <path fill="#ffffff" d="M 50.5 223 L 51 248.5 L 50 248.5 L 50.5 223 Z "/>
    <path fill="#ffffff" d="M 459.5 256 L 460 281.5 L 459 281.5 L 459.5 256 Z "/>
    <path fill="#ffffff" d="M 50.5 286 L 51 313.5 L 50 313.5 L 50.5 286 Z "/>
    <path fill="#ffffff" d="M 460.5 296 L 461 314.5 L 460 314.5 L 460.5 296 Z "/>
    <path fill="#ffffff" d="M 51.5 315 L 52 345.5 L 51 345.5 L 51.5 315 Z "/>
    <path fill="#ffffff" d="M 461.5 319 L 462 334.5 L 461 334.5 L 461.5 319 Z "/>
    <path fill="#ffffff" d="M 460.5 339 L 461 346.5 L 460 346.5 L 460.5 339 Z "/>
    <path fill="#ffffff" d="M 53.5 354 L 55 358.5 L 54 358.5 L 53.5 354 Z "/>
    <path fill="#ffffff" d="M 55.5 360 L 58 365.5 L 57 365.5 L 55.5 360 Z "/>
    <path fill="#ffffff" d="M 456.5 361 L 457 362.5 L 454.5 366 L 455 364.5 L 456.5 361 Z "/>
    <path fill="#ffffff" d="M 58.5 367 L 72 382.5 L 62 373.5 L 58.5 367 Z "/>
    <path fill="#ffffff" d="M 453.5 367 L 454 368.5 L 440.5 383 L 430.5 390 L 432.5 387 Q 443.1 381.6 450 372.5 L 453.5 367 Z "/>
    <path fill="#ffffff" d="M 81.5 389 L 85 391.5 L 83.5 391 L 81.5 389 Z "/>
    <path fill="#ffffff" d="M 428.5 390 L 427.5 392 L 425.5 393 L 426.5 391 L 428.5 390 Z "/>
    <path fill="#ffffff" d="M 86.5 392 L 90 394.5 L 88.5 394 L 86.5 392 Z "/>
    <path fill="#ffffff" d="M 91.5 395 L 95 397.5 L 93.5 397 L 91.5 395 Z "/>
    <path fill="#ffffff" d="M 420.5 395 L 419.5 397 L 417.5 398 L 418.5 396 L 420.5 395 Z "/>
    <path fill="#ffffff" d="M 411.5 400 L 410.5 402 L 406.5 404 L 407.5 402 L 411.5 400 Z "/>
    <path fill="#ffffff" d="M 118.5 409 L 122 411.5 L 120.5 411 L 118.5 409 Z "/>
    <path fill="#ffffff" d="M 394.5 409 L 393.5 411 L 391.5 412 L 392.5 410 L 394.5 409 Z "/>
    <path fill="#ffffff" d="M 123.5 412 L 128 414.5 L 126.5 414 Q 122.8 413.7 123.5 412 Z "/>
    <path fill="#ffffff" d="M 383.5 415 L 382.5 417 L 380.5 418 L 381.5 416 L 383.5 415 Z "/>
    <path fill="#ffffff" d="M 135.5 418 L 139 420.5 L 137.5 420 L 135.5 418 Z "/>
    <path fill="#ffffff" d="M 377.5 418 L 379 418.5 L 370.5 423 L 371.5 421 L 377.5 418 Z "/>
    <path fill="#ffffff" d="M 144.5 423 L 148 425.5 L 146.5 425 L 144.5 423 Z "/>
    <path fill="#ffffff" d="M 362.5 426 L 361.5 428 L 359.5 429 L 360.5 427 L 362.5 426 Z "/>
    <path fill="#ffffff" d="M 155.5 429 L 159 431.5 L 157.5 431 L 155.5 429 Z "/>
    <path fill="#ffffff" d="M 160.5 432 L 164 434.5 L 162.5 434 L 160.5 432 Z "/>
    <path fill="#ffffff" d="M 351.5 432 L 350.5 434 L 344.5 437 L 345.5 435 L 351.5 432 Z "/>
    <path fill="#ffffff" d="M 165.5 435 L 173 439.5 L 171.5 439 Q 165.9 438.2 165.5 435 Z "/>
    <path fill="#ffffff" d="M 174.5 440 L 178 442.5 L 176.5 442 L 174.5 440 Z "/>
    <path fill="#ffffff" d="M 336.5 440 L 335.5 442 L 333.5 443 L 334.5 441 L 336.5 440 Z "/>
    <path fill="#ffffff" d="M 325.5 446 L 324.5 448 L 322.5 449 L 323.5 447 L 325.5 446 Z "/>
    <path fill="#ffffff" d="M 320.5 449 L 319.5 451 L 313.5 454 L 314.5 452 L 320.5 449 Z "/>
    <path fill="#ffffff" d="M 195.5 452 L 199 454.5 L 197.5 454 L 195.5 452 Z "/>
    <path fill="#ffffff" d="M 309.5 455 L 308.5 457 L 302.5 460 L 303.5 458 L 309.5 455 Z "/>
    <path fill="#ffffff" d="M 204.5 457 L 208 459.5 L 206.5 459 L 204.5 457 Z "/>
    <path fill="#ffffff" d="M 300.5 460 L 299.5 462 L 297.5 463 L 298.5 461 L 300.5 460 Z "/>
    <path fill="#ffffff" d="M 215.5 463 L 219 465.5 L 217.5 465 L 215.5 463 Z "/>
    <path fill="#ffffff" d="M 226.5 469 L 230 470.5 L 228.5 471 L 226.5 469 Z "/>
    <path fill="#ffffff" d="M 233.5 472 L 238 473.5 L 236.5 474 L 233.5 473 L 233.5 472 Z "/>
    <path fill="#ffffff" d="M 274.5 472 L 276 472.5 L 272.5 474 L 272.5 473 L 274.5 472 Z "/>
    <path fill="#ffffff" d="M 242.5 475 L 252 476.5 L 246.5 477 L 242.5 476 L 242.5 475 Z "/>
    <path fill="#ffffff" d="M 264.5 475 L 268 475.5 L 258.5 477 L 258.5 476 Q 263.2 477.2 264.5 475 Z "/>
    <path fill="#4da3ff" d="M 249.5 54 L 266.5 55 L 290.5 66 L 317.5 83 L 410.5 132 Q 423.1 138.3 432 148.5 L 437 156.5 L 441 171.5 L 441 252.5 Q 443.3 253.7 442 258.5 L 442 260.5 L 444 334.5 L 443 335.5 L 442 350.5 L 440 356.5 L 431.5 367 L 429 368.5 Q 429.8 370.8 427.5 370 L 414.5 379 L 338.5 419 L 292.5 446 L 267.5 458 L 258.5 460 L 250.5 460 L 241.5 458 L 217.5 446 L 200.5 435 L 198 435 Q 199.3 432 195.5 433 L 147.5 405 L 93.5 378 Q 82.3 371.2 74 361.5 L 69 351.5 L 68 340.5 Q 70.5 339 69 333.5 L 68 332.5 L 68 304.5 L 67 302.5 L 68 299.5 L 67 298.5 L 67 240.5 L 68 239.5 L 68 167.5 L 72 153.5 L 81.5 143 L 126.5 117 L 181.5 89 L 223.5 64 L 236.5 58 L 249.5 54 Z M 316 219 L 315 220 L 294 220 L 284 226 L 277 235 L 277 283 L 282 292 L 289 296 L 297 298 L 340 298 L 347 295 L 352 290 L 355 281 L 355 242 L 351 229 Q 347 223 340 220 L 335 219 L 316 219 Z M 196 221 L 192 224 L 179 226 L 171 232 Q 168 231 169 234 L 167 234 L 158 250 L 156 261 L 159 276 L 165 286 L 177 295 L 184 298 L 195 300 L 206 298 L 218 292 L 227 282 L 233 266 Q 234 247 226 238 L 214 226 L 201 221 L 196 221 Z "/>
    <path fill="#4da3ff" d="M 193.5 234 L 195.5 237 Q 205.4 240.1 211 247.5 Q 215.2 252.8 215 262.5 Q 213.5 272.5 206.5 277 L 201.5 280 L 191.5 281 Q 181.5 279 177 271.5 L 174 260.5 L 176 251.5 L 182.5 243 L 193.5 234 Z "/>
    <path fill="#4da3ff" d="M 294 236 L 301.5 236 L 302.5 237 L 333.5 237 L 336 238 L 337 240.5 L 337 257.5 L 336 261.5 L 336 263.5 L 337 270.5 L 336 271.5 L 336 280 L 309.5 281 L 307.5 280 L 306.5 281 L 295 281 L 294 276.5 L 295 273.5 L 294 272.5 L 294 244.5 Q 291.8 243.2 293 238.5 L 294 236 Z "/>
    <path fill="#66d9e8" d="M 251.5 52 L 265.5 53 L 280.5 59 L 322.5 84 L 326.5 85 L 333.5 90 L 401.5 125 L 425.5 140 L 434 148.5 L 440 159.5 L 443 176.5 L 443 270.5 L 444 271.5 L 444 296.5 L 445 297.5 L 445 343.5 L 442 356.5 L 430.5 370 L 405.5 386 L 347.5 416 L 297.5 445 L 273.5 457 L 262.5 461 L 255.5 462 L 252.5 461 L 242.5 460 L 223.5 451 L 162.5 415 L 93.5 380 Q 81.8 372.8 73 362.5 L 67 349.5 L 67 318.5 L 66 317.5 L 66 293.5 L 65 292.5 L 65 245.5 L 66 244.5 L 66 171.5 Q 68.8 169.8 67 163.5 Q 70.1 149.1 80.5 142 L 104.5 127 L 176.5 90 L 218.5 65 L 239.5 55 L 251.5 52 Z M 250 54 L 237 58 L 224 64 L 182 89 L 127 117 L 82 143 L 72 154 L 68 168 L 68 240 L 67 241 L 67 299 L 68 300 L 67 303 L 68 305 L 68 333 L 69 334 Q 71 339 68 341 L 69 352 L 74 362 Q 82 371 94 378 L 148 405 L 196 433 Q 199 432 198 435 L 201 435 L 218 446 L 242 458 L 251 460 L 259 460 L 268 458 L 293 446 L 339 419 L 415 379 L 428 370 Q 430 371 429 369 L 432 367 L 440 357 L 442 351 L 443 336 L 444 335 L 442 261 L 442 259 Q 443 254 441 253 L 441 172 L 437 157 L 432 149 Q 423 138 411 132 L 318 83 L 291 66 L 267 55 L 250 54 Z "/>
    <path fill="#66d9e8" d="M 315.5 219 L 334.5 219 L 339.5 220 Q 346.9 222.6 351 228.5 L 355 241.5 L 355 280.5 L 352 289.5 L 346.5 295 L 339.5 298 L 296.5 298 L 288.5 296 L 282 291.5 L 277 282.5 L 277 234.5 L 283.5 226 L 293.5 220 L 314.5 220 L 315.5 219 Z M 299 221 Q 297 223 293 222 L 284 228 L 279 234 Q 281 240 278 242 L 278 278 Q 280 279 279 284 L 284 292 L 294 296 L 317 296 L 318 297 Q 335 299 346 294 Q 351 290 353 283 L 353 239 L 350 230 Q 346 222 336 221 L 299 221 Z "/>
    <path fill="#66d9e8" d="M 195.5 221 L 200.5 221 L 213.5 226 L 226 237.5 Q 233.6 247.4 233 265.5 L 227 281.5 L 217.5 292 L 205.5 298 L 194.5 300 L 183.5 298 L 176.5 295 L 165 285.5 L 159 275.5 L 156 260.5 L 158 249.5 L 167 234 L 169 234 Q 167.9 231.3 170.5 232 L 178.5 226 L 191.5 224 L 195.5 221 Z M 195 223 L 192 226 L 186 226 L 179 228 L 169 234 L 160 249 L 158 258 L 158 266 L 160 274 L 168 287 L 183 296 L 193 298 L 207 296 L 220 288 Q 228 280 231 268 L 231 253 L 224 238 Q 218 229 208 225 Q 203 222 195 223 Z "/>
    <path fill="#66d9e8" d="M 192 232 L 196 234.5 Q 195.3 236.8 197.5 236 Q 206.5 239.5 212 246.5 Q 218.4 252.1 216 266.5 Q 213.1 274.6 206.5 279 Q 200.7 284.2 187.5 282 L 178 276 L 173 265.5 L 173 255.5 Q 176.1 245.6 183.5 240 L 192 233.5 L 192 232 Z M 194 234 L 183 243 L 176 252 L 174 261 L 177 272 Q 182 279 192 281 L 202 280 L 207 277 Q 214 273 215 263 Q 215 253 211 248 Q 205 240 196 237 L 194 234 Z "/>
    <path fill="#66d9e8" d="M 292 235 L 333.5 235 L 338 237 L 339 248.5 L 338 249.5 L 338 279.5 L 336.5 281 L 334.5 282 L 302.5 282 Q 300.8 284.7 294.5 283 L 293 281.5 L 292 235 Z M 294 236 L 293 239 Q 292 243 294 245 L 294 273 L 295 274 L 294 277 L 295 281 L 307 281 L 308 280 L 310 281 L 336 280 L 336 272 L 337 271 L 336 264 L 336 262 L 337 258 L 337 241 L 336 238 L 334 237 L 303 237 L 302 236 L 294 236 Z "/>
  </g>
  <g id="line">
    <path fill="#1a1a1a" d="M 250.5 37 L 266.5 38 L 283.5 44 L 301.5 53 L 336.5 74 L 410.5 112 L 441 132 Q 439.9 134.7 442.5 134 Q 449.4 140.6 453 150.5 L 457 163.5 L 458 187.5 L 459 188.5 L 459 204.5 L 458 205.5 L 458 251.5 L 459 252.5 L 461 338.5 L 460 339.5 L 460 349.5 L 457 360.5 Q 451.3 373.8 440.5 382 L 416.5 398 L 379.5 418 L 371.5 421 L 332.5 443 L 328.5 444 L 296.5 463 L 268.5 475 L 252.5 477 L 232.5 472 L 208.5 460 L 141.5 421 L 95.5 398 L 73.5 384 L 63 373.5 Q 54.5 364 52 348.5 L 52 315.5 L 51 314.5 L 51 286.5 L 50 285.5 L 50 249.5 L 51 248.5 L 51 222.5 L 52 221.5 L 52 165.5 L 55 152.5 L 64 137 Q 66.7 138.1 66 135.5 L 77.5 126 L 99.5 113 L 171.5 75 L 213.5 50 L 230.5 42 L 250.5 37 Z M 252 52 L 240 55 L 219 65 L 177 90 L 105 127 L 81 142 Q 70 149 67 164 Q 69 170 66 172 L 66 245 L 65 246 L 65 293 L 66 294 L 66 318 L 67 319 L 67 350 L 73 363 Q 82 373 94 380 L 163 415 L 224 451 L 243 460 L 253 461 L 256 462 L 263 461 L 274 457 L 298 445 L 348 416 L 406 386 L 431 370 L 442 357 L 445 344 L 445 298 L 444 297 L 444 272 L 443 271 L 443 177 L 440 160 L 434 149 L 426 140 L 402 125 L 334 90 L 327 85 L 323 84 L 281 59 L 266 53 L 252 52 Z "/>
    <path fill="#1a1a1a" d="M 298.5 221 L 335.5 221 Q 345.5 222.5 350 229.5 L 353 238.5 L 353 282.5 Q 351.2 290.1 345.5 294 Q 335.1 299.1 317.5 297 L 316.5 296 L 293.5 296 L 284 292 L 279 283.5 Q 280.3 278.8 278 277.5 L 278 241.5 Q 280.8 239.7 279 233.5 L 283.5 228 L 292.5 222 Q 297.3 223.3 298.5 221 Z M 292 235 L 293 282 L 295 283 Q 301 285 303 282 L 335 282 L 337 281 L 338 280 L 338 250 L 339 249 L 338 237 L 334 235 L 292 235 Z "/>
    <path fill="#1a1a1a" d="M 194.5 223 Q 202.9 222.1 207.5 225 Q 217.8 229.2 224 237.5 L 231 252.5 L 231 267.5 Q 227.8 280.3 219.5 288 L 206.5 296 L 192.5 298 L 182.5 296 L 168 286.5 L 160 273.5 L 158 265.5 L 158 257.5 L 160 248.5 L 169 234 L 178.5 228 L 185.5 226 L 191.5 226 L 194.5 223 Z M 192 232 L 192 234 L 184 240 Q 176 246 173 256 L 173 266 L 178 276 L 188 282 Q 201 284 207 279 Q 213 275 216 267 Q 218 252 212 247 Q 207 239 198 236 Q 195 237 196 235 L 192 232 Z "/>
  </g>
</svg>
