<svg xmlns="http://www.w3.org/2000/svg" width="512" height="512" viewBox="0 0 512 512">
  <g id="color">
    <path fill="#ffffff" d="M 221.5 90 L 284 90.5 L 221.5 91 L 221.5 90 Z "/>
    <path fill="#ffffff" d="M 198.5 91 L 217 91.5 L 198.5 92 L 198.5 91 Z "/>
    <path fill="#ffffff" d="M 290.5 91 L 315 91.5 L 290.5 92 L 290.5 91 Z "/>
    <path fill="#ffffff" d="M 183.5 92 L 193 92.5 L 183.5 93 L 183.5 92 Z "/>
    <path fill="#ffffff" d="M 323.5 92 L 340 92.5 L 323.5 93 L 323.5 92 Z "/>
    <path fill="#ffffff" d="M 168.5 93 L 176 93.5 L 168.5 94 L 168.5 93 Z "/>
    <path fill="#ffffff" d="M 356.5 93 L 378 93.5 L 356.5 94 L 356.5 93 Z "/>
    <path fill="#ffffff" d="M 154.5 94 L 163 94.5 L 154.5 95 L 154.5 94 Z "/>
    <path fill="#ffffff" d="M 400.5 94 L 440 94.5 L 400.5 95 L 400.5 94 Z "/>
    <path fill="#ffffff" d="M 146.5 95 L 153 95.5 L 146.5 96 L 146.5 95 Z "/>
    <path fill="#ffffff" d="M 444.5 95 L 451 95.5 L 444.5 96 L 444.5 95 Z "/>
    <path fill="#ffffff" d="M 138.5 96 L 143 96.5 L 138.5 97 L 138.5 96 Z "/>
    <path fill="#ffffff" d="M 128.5 97 L 133 97.5 L 128.5 98 L 128.5 97 Z "/>
    <path fill="#ffffff" d="M 456.5 97 L 464 102.5 L 465 105.5 L 464 105.5 L 459.5 99 Q 455.7 98.8 456.5 97 Z "/>
    <path fill="#ffffff" d="M 120.5 98 L 125 98.5 L 120.5 99 L 120.5 98 Z "/>
    <path fill="#ffffff" d="M 113.5 99 L 119 99.5 L 113.5 100 L 113.5 99 Z "/>
    <path fill="#ffffff" d="M 106.5 100 L 111 100.5 L 106.5 101 L 106.5 100 Z "/>
    <path fill="#ffffff" d="M 91.5 102 L 96 102.5 L 91.5 103 L 91.5 102 Z "/>
    <path fill="#ffffff" d="M 68.5 106 L 70 106.5 L 66.5 108 L 66.5 107 L 68.5 106 Z "/>
    <path fill="#ffffff" d="M 64.5 108 L 58 115.5 L 56.5 118 L 57 116.5 L 64.5 108 Z "/>
    <path fill="#ffffff" d="M 459.5 117 L 458.5 119 L 455.5 120 L 455.5 119 L 459.5 117 Z "/>
    <path fill="#ffffff" d="M 361.5 120 L 364 121.5 L 365 127.5 L 366.5 129 L 369.5 129 L 373 131 L 371.5 134 Q 366.8 134.3 365 137.5 L 366 144.5 L 362.5 146 L 357.5 141 L 355.5 141 L 349.5 143 L 348 139.5 L 351 133.5 L 347 128.5 L 347 126 L 349.5 125 L 355.5 127 L 361.5 120 Z "/>
    <path fill="#ffffff" d="M 438.5 121 L 446 121 L 446 124.5 L 444 133.5 L 444 148.5 L 445 149.5 L 445 157.5 L 446 158.5 L 447 171 L 426.5 176 L 412.5 177 L 408 164.5 L 407 142.5 L 408 141.5 L 409 128.5 L 411 124 L 414.5 123 L 437.5 122 L 438.5 121 Z "/>
    <path fill="#ffffff" d="M 138.5 123 L 141 124 L 143.5 131 L 149 134.5 L 142 138 L 139.5 144 L 137 143 L 134.5 137 Q 129.8 137.8 129 134.5 Q 128.3 132.3 130.5 133 L 135 130.5 L 136 125.5 L 138.5 123 Z "/>
    <path fill="#ffffff" d="M 52.5 126 L 53 127.5 L 51.5 130 L 51 128.5 L 52.5 126 Z "/>
    <path fill="#ffffff" d="M 453.5 128 L 454 133.5 L 453 133.5 L 453.5 128 Z "/>
    <path fill="#ffffff" d="M 452.5 136 L 453 144.5 L 452 144.5 L 452.5 136 Z "/>
    <path fill="#ffffff" d="M 48.5 142 L 49 147.5 L 48 147.5 L 48.5 142 Z "/>
    <path fill="#ffffff" d="M 453.5 147 L 454 154.5 L 453 154.5 L 453.5 147 Z "/>
    <path fill="#ffffff" d="M 156.5 148 Q 160.3 147.3 161 149.5 L 163 159 Q 168.9 159.9 172 164.5 L 169.5 167 L 162 169 L 157.5 179 L 154 177.5 L 152 170.5 L 149.5 168 L 142 163.5 L 143 161 L 148.5 160 L 153 156.5 Q 153.3 150.8 156.5 148 Z "/>
    <path fill="#ffffff" d="M 47.5 150 L 48 167.5 L 47 167.5 L 47.5 150 Z "/>
    <path fill="#ffffff" d="M 370.5 158 Q 374.5 157.5 375 160.5 L 374 165 Q 369.4 166.3 368 163.5 Q 366.1 158.1 369.5 159 L 370.5 158 Z "/>
    <path fill="#ffffff" d="M 455.5 165 L 457 168.5 L 455 167.5 L 455.5 165 Z "/>
    <path fill="#ffffff" d="M 48.5 169 L 49 174.5 L 48 174.5 L 48.5 169 Z "/>
    <path fill="#ffffff" d="M 471.5 180 L 472 184.5 L 471 184.5 L 471.5 180 Z "/>
    <path fill="#ffffff" d="M 51.5 186 L 53 189.5 L 52 189.5 L 51.5 186 Z "/>
    <path fill="#ffffff" d="M 464.5 193 L 463.5 195 L 460.5 196 L 460.5 195 L 464.5 193 Z "/>
    <path fill="#ffffff" d="M 54.5 194 L 56 197.5 L 55 197.5 L 54.5 194 Z "/>
    <path fill="#ffffff" d="M 443.5 199 L 446 199.5 L 443 200.5 L 445.5 204 L 442 200.5 L 443.5 199 Z "/>
    <path fill="#ffffff" d="M 39.5 213 Q 40.3 218.3 44 220.5 L 40 217.5 L 39.5 213 Z "/>
    <path fill="#ffffff" d="M 45.5 221 L 49 222.5 L 46.5 223 L 45.5 221 Z "/>
    <path fill="#ffffff" d="M 129.5 228 Q 138.3 226.3 140 231.5 L 141 238.5 L 137.5 243 L 130.5 244 L 126 240.5 L 125 233.5 L 129.5 228 Z "/>
    <path fill="#ffffff" d="M 455.5 234 L 456 238.5 L 455 238.5 L 455.5 234 Z "/>
    <path fill="#ffffff" d="M 60.5 238 L 61 244.5 L 60 244.5 L 60.5 238 Z "/>
    <path fill="#ffffff" d="M 456.5 244 L 457 253.5 L 456 253.5 L 456.5 244 Z "/>
    <path fill="#ffffff" d="M 60.5 259 L 61 265.5 L 60 265.5 L 60.5 259 Z "/>
    <path fill="#ffffff" d="M 153.5 260 Q 161.6 259.9 164 265.5 L 165 273.5 L 160.5 279 L 156.5 280 L 154.5 279 L 150.5 280 Q 144.6 277.4 145 268.5 L 150.5 261 L 153.5 260 Z "/>
    <path fill="#ffffff" d="M 455.5 260 L 456 264.5 L 455 264.5 L 455.5 260 Z "/>
    <path fill="#ffffff" d="M 57.5 275 L 55.5 278 L 52 277.5 Q 56.3 277.8 57.5 275 Z "/>
    <path fill="#ffffff" d="M 44.5 280 L 41 284.5 L 39.5 289 L 39 286.5 L 44.5 280 Z "/>
    <path fill="#ffffff" d="M 456.5 291 L 462 291.5 L 456.5 292 L 456.5 291 Z "/>
    <path fill="#ffffff" d="M 39.5 292 Q 40.3 297.3 44 299.5 L 40 296.5 L 39.5 292 Z "/>
    <path fill="#ffffff" d="M 475.5 297 L 478 302.5 L 477 302.5 L 475.5 297 Z "/>
    <path fill="#ffffff" d="M 477.5 305 L 478 308.5 L 476 309.5 L 477.5 305 Z "/>
    <path fill="#ffffff" d="M 44.5 312 L 45 313.5 L 42.5 318 L 42 316.5 L 44.5 312 Z "/>
    <path fill="#ffffff" d="M 461.5 317 L 464 317.5 L 459.5 320 L 461.5 317 Z "/>
    <path fill="#ffffff" d="M 457.5 323 L 458 324.5 L 456.5 328 L 456 325.5 L 457.5 323 Z "/>
    <path fill="#ffffff" d="M 36.5 344 L 37 367.5 L 36 367.5 L 36.5 344 Z "/>
    <path fill="#ffffff" d="M 453.5 345 L 454 354.5 L 453 354.5 L 453.5 345 Z "/>
    <path fill="#ffffff" d="M 454.5 360 L 455 364.5 L 454 364.5 L 454.5 360 Z "/>
    <path fill="#ffffff" d="M 37.5 370 L 38 374.5 L 37 374.5 L 37.5 370 Z "/>
    <path fill="#ffffff" d="M 456.5 373 L 458 378.5 L 457 378.5 L 456.5 373 Z "/>
    <path fill="#ffffff" d="M 465.5 387 Q 471.9 387.7 474 392.5 L 469.5 389 L 465.5 388 L 465.5 387 Z "/>
    <path fill="#ffffff" d="M 43.5 396 L 46 400.5 L 44 399.5 L 43.5 396 Z "/>
    <path fill="#ffffff" d="M 466.5 409 L 468 409.5 L 463.5 411 L 463.5 410 L 466.5 409 Z "/>
    <path fill="#ffffff" d="M 54.5 411 L 60 414.5 L 58.5 415 L 54.5 411 Z "/>
    <path fill="#ffffff" d="M 451.5 412 L 457 412.5 L 451.5 413 L 451.5 412 Z "/>
    <path fill="#ffffff" d="M 444.5 413 L 450 413.5 L 444.5 414 L 444.5 413 Z "/>
    <path fill="#ffffff" d="M 434.5 414 L 440 414.5 L 434.5 415 L 434.5 414 Z "/>
    <path fill="#ffffff" d="M 421.5 415 L 428 415.5 L 421.5 416 L 421.5 415 Z "/>
    <path fill="#ffffff" d="M 65.5 416 L 70 416.5 L 65.5 417 L 65.5 416 Z "/>
    <path fill="#ffffff" d="M 404.5 416 L 417 416.5 L 404.5 417 L 404.5 416 Z "/>
    <path fill="#ffffff" d="M 72.5 417 L 81 417.5 L 72.5 418 L 72.5 417 Z "/>
    <path fill="#ffffff" d="M 386.5 417 L 401 417.5 L 386.5 418 L 386.5 417 Z "/>
    <path fill="#ffffff" d="M 87.5 418 L 96 418.5 L 87.5 419 L 87.5 418 Z "/>
    <path fill="#ffffff" d="M 357.5 418 L 374 418.5 L 357.5 419 L 357.5 418 Z "/>
    <path fill="#ffffff" d="M 105.5 419 L 121 419.5 L 105.5 420 L 105.5 419 Z "/>
    <path fill="#ffffff" d="M 303.5 419 L 336 419.5 L 303.5 420 L 303.5 419 Z "/>
    <path fill="#ffffff" d="M 125.5 420 L 147 420.5 L 125.5 421 L 125.5 420 Z "/>
    <path fill="#ffffff" d="M 246.5 420 L 288 420.5 L 246.5 421 L 246.5 420 Z "/>
    <path fill="#ffffff" d="M 151.5 421 L 238 421.5 L 151.5 422 L 151.5 421 Z "/>
    <path fill="#4da3ff" d="M 427.5 203 L 436 207 L 440 213.5 L 444 225.5 L 445 237.5 L 446 238.5 L 446 260.5 L 442 279.5 L 438 287.5 L 433.5 292 L 414.5 296 L 396.5 296 L 394 295 Q 394.6 284.6 399 276.5 Q 398 267.5 401 262.5 L 401 237.5 L 399 232.5 L 399 230.5 L 397 216.5 L 394 206.5 L 396.5 206 Q 404.7 207.7 408.5 205 L 410.5 205 L 426.5 204 L 427.5 203 Z "/>
    <path fill="#4da3ff" d="M 60.5 207 L 74.5 207 L 82.5 209 L 93.5 209 L 96.5 208 L 100.5 209 L 102.5 209 L 107.5 208 L 199.5 208 L 200.5 209 L 224.5 209 L 225.5 210 L 320.5 210 L 324.5 209 L 326.5 210 L 327.5 209 L 346.5 209 L 347.5 208 L 349.5 209 L 350.5 208 L 370.5 208 L 371.5 207 L 382 207 L 389 235.5 L 389 265.5 L 386 280.5 L 383 286.5 L 383 290.5 L 381 296 L 375.5 297 L 372.5 296 L 370.5 296 L 367.5 297 L 364.5 296 L 360.5 297 L 324.5 297 L 322.5 298 L 317.5 297 L 316.5 298 L 296.5 298 L 294.5 299 L 291.5 298 L 289.5 299 L 270.5 299 L 268.5 300 L 266.5 300 L 244.5 300 L 243.5 301 L 163.5 301 L 162.5 300 Q 149.2 301.8 140.5 299 L 136.5 300 L 135.5 299 L 100.5 298 L 99.5 297 L 97.5 298 L 96.5 297 L 85.5 297 L 74.5 295 L 72.5 295 L 57.5 294 L 50 292 L 51.5 288 L 53.5 288 L 64 285 L 69 274.5 L 71 255.5 L 72 254.5 L 71 253.5 L 71 239.5 L 69 233.5 L 69 227.5 L 67 220.5 L 62.5 216 Q 60.2 213.3 54.5 214 L 51 211.5 L 52.5 209 L 60.5 207 Z M 131 223 L 125 226 L 120 233 L 120 238 L 120 240 L 121 242 Q 124 248 132 249 L 140 247 L 146 240 Q 147 232 144 229 L 137 223 L 131 223 Z M 151 256 L 147 259 Q 144 258 145 261 L 143 261 L 140 270 Q 143 271 141 277 L 143 280 L 151 285 Q 161 287 165 282 L 167 280 L 170 272 L 168 263 L 161 256 L 151 256 Z "/>
    <path fill="#ffd43b" d="M 439.5 299 L 463.5 300 L 469 303.5 L 467.5 307 Q 459 308.2 454 312 Q 449.2 317.9 447 327.5 L 446 342.5 L 445 343.5 L 445 357.5 L 446 358.5 L 447 373.5 L 450 383.5 Q 452.6 390.9 458.5 395 Q 464.9 394.6 467 398.5 L 464.5 402 L 441.5 406 L 402.5 408 L 401.5 409 L 384.5 409 L 383.5 410 L 287.5 411 L 286.5 412 L 242.5 412 L 241.5 413 L 150.5 413 L 149.5 412 L 126.5 412 L 125.5 411 L 119 411 L 111 385.5 L 110 371.5 L 109 370.5 L 109 339.5 L 110 338.5 L 110 331.5 L 112 321.5 L 115 309.5 L 116.5 308 Q 122.7 306.3 124.5 309 L 146.5 309 L 147.5 310 L 171.5 310 L 172.5 311 L 230.5 311 L 231.5 310 L 318.5 308 L 319.5 307 L 352.5 307 L 353.5 306 L 409.5 306 L 410.5 305 L 427.5 304 L 439.5 299 Z "/>
    <path fill="#ffd43b" d="M 61.5 304 L 107 308 L 101 336.5 L 100 359.5 L 101 360.5 L 102 382.5 L 110 411 L 66.5 408 Q 58.4 406.6 55 400.5 Q 48.4 390.1 46 375.5 L 45 345.5 L 50 320.5 Q 53.4 309.9 61.5 304 Z "/>
    <path fill="#9775fa" d="M 213.5 99 L 291.5 99 L 292.5 100 L 344.5 101 L 345.5 102 L 441.5 103 L 442.5 104 L 451.5 104 L 456 106 L 457 108.5 L 451.5 112 L 409.5 116 L 403 121.5 L 399 137.5 L 399 158.5 L 404 180.5 L 408.5 185 L 421.5 185 L 449.5 178 L 459.5 178 L 462 179 L 463 184.5 L 457.5 188 L 440.5 192 L 433.5 192 L 432.5 193 L 426.5 193 L 418.5 195 L 409.5 195 L 408.5 196 L 380.5 197 L 379.5 198 L 328.5 199 L 327.5 200 L 226.5 200 L 225.5 199 L 182.5 199 L 181.5 198 L 120.5 198 L 119 196.5 L 113 176.5 L 112 154.5 L 111 153.5 L 112 152.5 L 112 139.5 L 113 138.5 L 114 127.5 L 119 109.5 L 121.5 107 L 152.5 104 L 153.5 103 L 194.5 101 L 195.5 100 L 212.5 100 L 213.5 99 Z M 362 120 L 356 127 L 350 125 L 347 126 L 347 129 L 351 134 L 348 140 L 350 143 L 356 141 L 358 141 L 363 146 L 366 145 L 365 138 Q 367 134 372 134 L 373 131 L 370 129 L 367 129 L 365 128 L 364 122 L 362 120 Z M 139 123 L 136 126 L 135 131 L 131 133 Q 128 132 129 135 Q 130 138 135 137 L 137 143 L 140 144 L 142 138 L 149 135 L 144 131 L 141 124 L 139 123 Z M 157 148 Q 153 151 153 157 L 149 160 L 143 161 L 142 164 L 150 168 L 152 171 L 154 178 L 158 179 L 162 169 L 170 167 L 172 165 Q 169 160 163 159 L 161 150 Q 160 147 157 148 Z M 371 158 L 370 159 Q 366 158 368 164 Q 369 166 374 165 L 375 161 Q 375 157 371 158 Z "/>
    <path fill="#9775fa" d="M 105.5 109 Q 110 108 111 110.5 L 105 132.5 L 104 152.5 L 103 153.5 L 104 154.5 L 105 176.5 L 111 196.5 L 108.5 199 L 79.5 199 L 66.5 196 L 63 192.5 L 60 186.5 L 57 174.5 L 56 149.5 L 61 126.5 Q 63.6 119.1 69.5 115 L 84.5 113 L 90.5 111 L 104.5 110 L 105.5 109 Z "/>
    <path fill="#66d9e8" d="M 418.5 202 L 430.5 202 L 438 207.5 Q 443.8 215.7 446 227.5 L 447 240.5 L 448 241.5 L 448 257.5 L 447 258.5 L 446 272.5 Q 443.2 284.2 436.5 292 L 430.5 295 L 419.5 296 L 412.5 298 L 392.5 298 L 391 295.5 L 396 280.5 L 399 263.5 L 399 238.5 L 395 215.5 L 392 205 Q 398.4 202.9 409.5 204 L 418.5 202 Z M 428 203 L 427 204 L 411 205 L 409 205 Q 405 208 397 206 L 394 207 L 397 217 L 399 231 L 399 233 L 401 238 L 401 263 Q 398 268 399 277 Q 395 285 394 295 L 397 296 L 415 296 L 434 292 L 438 288 L 442 280 L 446 261 L 446 239 L 445 238 L 444 226 L 440 214 L 436 207 L 428 203 Z "/>
    <path fill="#66d9e8" d="M 63.5 205 L 72.5 205 L 80.5 207 L 108.5 207 L 109.5 206 L 185.5 206 L 186.5 207 L 223.5 207 L 224.5 208 L 328.5 208 L 329.5 207 L 352.5 207 L 353.5 206 L 375.5 206 L 376.5 205 L 383 205 L 390 230.5 Q 388.3 236.8 391 238.5 L 391 262.5 L 390 263.5 L 390 271.5 L 388 280.5 L 382 298 L 353.5 298 L 352.5 299 L 312.5 299 L 311.5 300 L 285.5 300 L 284.5 301 L 263.5 301 L 262.5 302 L 235.5 302 L 234.5 303 L 179.5 303 L 178.5 302 L 144.5 302 L 143.5 301 L 124.5 301 L 123.5 300 L 104.5 300 L 103.5 299 L 75.5 298 L 74.5 297 L 53.5 295 L 48 291.5 Q 46.5 287.1 49.5 288 Q 51.5 285 57.5 286 L 64 281.5 L 67 275.5 L 69 265.5 L 70 246.5 L 69 245.5 L 69 238.5 L 66 222.5 L 62.5 218 Q 58.2 214.8 50.5 215 L 48 212.5 Q 47.3 208.8 49.5 208 L 63.5 205 Z M 61 207 L 53 209 L 51 212 L 55 214 Q 60 213 63 216 L 67 221 L 69 228 L 69 234 L 71 240 L 71 254 L 72 255 L 71 256 L 69 275 L 64 285 L 54 288 L 52 288 L 50 292 L 58 294 L 73 295 L 75 295 L 86 297 L 97 297 L 98 298 L 100 297 L 101 298 L 136 299 L 137 300 L 141 299 Q 149 302 163 300 L 164 301 L 244 301 L 245 300 L 267 300 L 269 300 L 271 299 L 290 299 L 292 298 L 295 299 L 297 298 L 317 298 L 318 297 L 323 298 L 325 297 L 361 297 L 365 296 L 368 297 L 371 296 L 373 296 L 376 297 L 381 296 L 383 291 L 383 287 L 386 281 L 389 266 L 389 236 L 382 207 L 372 207 L 371 208 L 351 208 L 350 209 L 348 208 L 347 209 L 328 209 L 327 210 L 325 209 L 321 210 L 226 210 L 225 209 L 201 209 L 200 208 L 108 208 L 103 209 L 101 209 L 97 208 L 94 209 L 83 209 L 75 207 L 61 207 Z "/>
    <path fill="#66d9e8" d="M 130.5 223 L 136.5 223 L 144 228.5 Q 146.9 232.1 146 239.5 L 139.5 247 L 131.5 249 Q 123.5 248 121 241.5 L 120 239.5 L 120 237.5 L 120 232.5 L 124.5 226 L 130.5 223 Z M 130 225 L 128 226 L 122 233 Q 121 240 124 243 L 130 247 Q 137 248 140 245 L 144 240 Q 145 231 142 228 L 137 225 L 130 225 Z "/>
    <path fill="#66d9e8" d="M 150.5 256 L 160.5 256 L 168 262.5 L 170 271.5 L 167 279.5 L 164.5 282 Q 160.7 286.7 150.5 285 L 143 279.5 L 141 276.5 Q 142.5 271 140 269.5 L 143 261 L 145 261 Q 143.9 258.3 146.5 259 L 150.5 256 Z M 153 257 L 149 259 L 142 268 Q 141 276 145 280 L 153 284 Q 159 285 162 282 L 168 274 Q 169 266 166 263 L 159 257 L 153 257 Z "/>
  </g>
  <g id="line">
    <path fill="#1a1a1a" d="M 217.5 91 L 289.5 91 L 290.5 92 L 322.5 92 L 323.5 93 L 355.5 93 L 356.5 94 L 443.5 95 L 444.5 96 L 455.5 97 L 463 102.5 Q 465.7 104.8 465 110.5 L 460.5 117 L 455 119 L 453 128.5 L 452 144.5 L 453 145.5 L 453 154.5 L 454 155.5 L 455 167.5 L 456.5 169 Q 464.2 169.3 468 173.5 Q 472.5 177 471 186.5 L 465.5 193 L 456.5 197 Q 447.3 196.8 442 200.5 Q 447.7 204.8 450 212.5 L 454 226.5 L 455 238.5 L 456 239.5 L 456 259.5 L 455 260.5 L 455 268.5 L 451 283.5 L 447 290.5 L 465.5 292 L 475 296 L 478 304.5 Q 477.1 311.1 472.5 314 Q 468.5 317 461.5 317 L 459 319.5 L 455 329.5 L 453 354.5 L 454 355.5 L 454 364.5 L 456 375.5 L 461.5 387 Q 470.6 387.4 474 393.5 L 475 402.5 L 470.5 408 L 462.5 411 L 444.5 413 L 443.5 414 L 421.5 415 L 420.5 416 L 404.5 416 L 403.5 417 L 386.5 417 L 385.5 418 L 303.5 419 L 302.5 420 L 246.5 420 L 245.5 421 L 147.5 421 L 146.5 420 L 121.5 420 L 120.5 419 L 96.5 419 L 95.5 418 L 70.5 417 L 60.5 415 L 51 408.5 L 42 393.5 L 39 382.5 L 38 370.5 L 37 369.5 L 37 342.5 L 41 321.5 L 50 302.5 L 41 296.5 L 39 289.5 Q 40.5 283 45.5 280 L 55.5 278 L 58 275.5 L 61 265.5 L 61 238.5 L 59 228.5 L 56.5 224 L 46.5 222 L 41 217.5 L 39 210.5 Q 39.9 203.9 44.5 201 L 56 198 L 51 185.5 L 49 176.5 L 48 148.5 L 49 147.5 L 50 134.5 L 54 122.5 Q 58 113.5 65.5 108 L 76.5 105 L 83.5 105 L 102.5 101 L 118.5 100 L 133.5 97 L 142.5 97 L 143.5 96 L 152.5 96 L 163.5 94 L 175.5 94 L 176.5 93 L 216.5 92 L 217.5 91 Z M 214 99 L 213 100 L 196 100 L 195 101 L 154 103 L 153 104 L 122 107 L 119 110 L 114 128 L 113 139 L 112 140 L 112 153 L 111 154 L 112 155 L 113 177 L 119 197 L 121 198 L 182 198 L 183 199 L 226 199 L 227 200 L 328 200 L 329 199 L 380 198 L 381 197 L 409 196 L 410 195 L 419 195 L 427 193 L 433 193 L 434 192 L 441 192 L 458 188 L 463 185 L 462 179 L 460 178 L 450 178 L 422 185 L 409 185 L 404 181 L 399 159 L 399 138 L 403 122 L 410 116 L 452 112 L 457 109 L 456 106 L 452 104 L 443 104 L 442 103 L 346 102 L 345 101 L 293 100 L 292 99 L 214 99 Z M 106 109 L 105 110 L 91 111 L 85 113 L 70 115 Q 64 119 61 127 L 56 150 L 57 175 L 60 187 L 63 193 L 67 196 L 80 199 L 110 199 L 111 198 L 105 177 L 104 155 L 103 154 L 104 153 L 105 133 L 111 111 Q 110 108 106 109 Z M 439 121 L 438 122 L 415 123 L 411 124 L 409 129 L 408 142 L 407 143 L 408 165 L 413 177 L 427 176 L 447 171 L 446 159 L 445 158 L 445 150 L 444 149 L 444 134 L 446 125 L 446 121 L 439 121 Z M 419 202 L 410 204 Q 398 203 392 205 L 395 216 L 399 239 L 399 264 L 396 281 L 391 296 L 393 298 L 413 298 L 420 296 L 431 295 L 437 292 Q 443 284 446 273 L 447 259 L 448 258 L 448 242 L 447 241 L 446 228 Q 444 216 438 208 L 431 202 L 419 202 Z M 64 205 L 50 208 Q 47 209 48 213 L 51 215 Q 58 215 63 218 L 66 223 L 69 239 L 69 246 L 70 247 L 69 266 L 67 276 L 64 282 L 58 286 Q 52 285 50 288 Q 46 287 48 292 L 54 295 L 75 297 L 76 298 L 104 299 L 105 300 L 124 300 L 125 301 L 144 301 L 145 302 L 179 302 L 180 303 L 235 303 L 236 302 L 263 302 L 264 301 L 285 301 L 286 300 L 312 300 L 313 299 L 353 299 L 354 298 L 382 298 L 388 281 L 390 272 L 390 264 L 391 263 L 391 239 Q 388 237 390 231 L 383 205 L 377 205 L 376 206 L 354 206 L 353 207 L 330 207 L 329 208 L 225 208 L 224 207 L 187 207 L 186 206 L 110 206 L 109 207 L 81 207 L 73 205 L 64 205 Z M 440 299 L 428 304 L 411 305 L 410 306 L 354 306 L 353 307 L 320 307 L 319 308 L 232 310 L 231 311 L 173 311 L 172 310 L 148 310 L 147 309 L 125 309 Q 123 306 117 308 L 115 310 L 112 322 L 110 332 L 110 339 L 109 340 L 109 371 L 110 372 L 111 386 L 119 411 L 126 411 L 127 412 L 150 412 L 151 413 L 242 413 L 243 412 L 287 412 L 288 411 L 384 410 L 385 409 L 402 409 L 403 408 L 442 406 L 465 402 L 467 399 Q 465 395 459 395 Q 453 391 450 384 L 447 374 L 446 359 L 445 358 L 445 344 L 446 343 L 447 328 Q 449 318 454 312 Q 459 308 468 307 L 469 304 L 464 300 L 440 299 Z M 62 304 Q 53 310 50 321 L 45 346 L 46 376 Q 48 390 55 401 Q 58 407 67 408 L 110 411 L 102 383 L 101 361 L 100 360 L 101 337 L 107 308 L 62 304 Z "/>
    <path fill="#1a1a1a" d="M 129.5 225 L 136.5 225 L 142 228 Q 145 231.3 144 239.5 L 139.5 245 Q 136.5 248 129.5 247 L 124 242.5 Q 121 239.5 122 232.5 L 127.5 226 L 129.5 225 Z M 130 228 L 125 234 L 126 241 L 131 244 L 138 243 L 141 239 L 140 232 Q 138 226 130 228 Z "/>
    <path fill="#1a1a1a" d="M 152.5 257 L 158.5 257 L 166 262.5 Q 169.2 265.8 168 273.5 L 161.5 282 Q 158.6 284.6 152.5 284 L 145 279.5 Q 140.7 276.3 142 267.5 L 148.5 259 L 152.5 257 Z M 154 260 L 151 261 L 145 269 Q 145 277 151 280 Q 157 281 161 279 L 165 274 L 164 266 Q 162 260 154 260 Z "/>
  </g>
</svg>
