<svg xmlns="http://www.w3.org/2000/svg" width="512" height="512" viewBox="0 0 512 512">
  <g id="color">
    <path fill="#ffffff" d="M 221.5 99 L 238 99.5 L 221.5 100 L 221.5 99 Z "/>
    <path fill="#ffffff" d="M 215.5 100 L 220 100.5 L 215.5 101 L 215.5 100 Z "/>
    <path fill="#ffffff" d="M 239.5 100 L 244 100.5 L 239.5 101 L 239.5 100 Z "/>
    <path fill="#ffffff" d="M 206.5 102 L 209 102.5 L 201.5 105 L 201.5 104 L 206.5 102 Z "/>
    <path fill="#ffffff" d="M 251.5 102 L 257 103.5 L 254.5 104 L 251.5 103 L 251.5 102 Z "/>
    <path fill="#ffffff" d="M 264.5 106 L 268 107.5 L 266.5 108 L 264.5 106 Z "/>
    <path fill="#ffffff" d="M 191.5 109 L 190.5 111 L 188.5 112 L 189.5 110 L 191.5 109 Z "/>
    <path fill="#ffffff" d="M 271.5 109 L 282 114.5 L 280.5 114 L 271.5 110 L 271.5 109 Z "/>
    <path fill="#ffffff" d="M 186.5 112 L 185.5 114 L 183.5 115 L 184.5 113 L 186.5 112 Z "/>
    <path fill="#ffffff" d="M 285.5 116 L 289 118.5 L 287.5 118 L 285.5 116 Z "/>
    <path fill="#ffffff" d="M 290.5 119 L 294 121.5 L 292.5 121 L 290.5 119 Z "/>
    <path fill="#ffffff" d="M 302.5 127 L 315 137.5 L 310.5 134 Q 304.5 131.5 302.5 127 Z "/>
    <path fill="#ffffff" d="M 332.5 152 L 341 159.5 L 339.5 160 L 332.5 152 Z "/>
    <path fill="#ffffff" d="M 135.5 167 L 134 169.5 L 132.5 172 L 133 170.5 L 135.5 167 Z "/>
    <path fill="#ffffff" d="M 124.5 183 L 124 184.5 L 122.5 187 L 123 185.5 L 124.5 183 Z "/>
    <path fill="#ffffff" d="M 121.5 188 L 121 189.5 L 118.5 193 L 120 190.5 L 121.5 188 Z "/>
    <path fill="#ffffff" d="M 117.5 194 L 117 195.5 L 115.5 198 L 116 196.5 L 117.5 194 Z "/>
    <path fill="#ffffff" d="M 114.5 199 L 114 200.5 L 112.5 203 L 113 201.5 L 114.5 199 Z "/>
    <path fill="#ffffff" d="M 111.5 204 L 111 205.5 L 109.5 208 L 110 206.5 L 111.5 204 Z "/>
    <path fill="#ffffff" d="M 107.5 211 L 107 212.5 L 105.5 215 L 106 213.5 L 107.5 211 Z "/>
    <path fill="#ffffff" d="M 104.5 216 L 104 217.5 L 102.5 220 L 103 218.5 L 104.5 216 Z "/>
    <path fill="#ffffff" d="M 95.5 232 L 95 233.5 L 93.5 236 L 94 234.5 L 95.5 232 Z "/>
    <path fill="#ffffff" d="M 91.5 239 L 91 240.5 L 88.5 245 L 89 243.5 L 91.5 239 Z "/>
    <path fill="#ffffff" d="M 236.5 239 L 246 239.5 L 236.5 240 L 236.5 239 Z "/>
    <path fill="#ffffff" d="M 266.5 245 L 272 247.5 L 270.5 247 Q 265.7 247.1 266.5 245 Z "/>
    <path fill="#ffffff" d="M 273.5 248 L 279 250.5 L 277.5 251 L 273.5 249 L 273.5 248 Z "/>
    <path fill="#ffffff" d="M 280.5 251 L 286 254.5 L 284.5 254 Q 280.5 253.5 280.5 251 Z "/>
    <path fill="#ffffff" d="M 84.5 252 L 84 253.5 L 82.5 256 L 83 254.5 L 84.5 252 Z "/>
    <path fill="#ffffff" d="M 78.5 263 L 78 264.5 L 75.5 269 L 76 267.5 L 78.5 263 Z "/>
    <path fill="#ffffff" d="M 302.5 264 L 307 267.5 L 304.5 266 L 302.5 264 Z "/>
    <path fill="#ffffff" d="M 308.5 268 L 313 271.5 L 310.5 270 L 308.5 268 Z "/>
    <path fill="#ffffff" d="M 74.5 270 L 75 271.5 L 72.5 275 L 73 273.5 L 74.5 270 Z "/>
    <path fill="#ffffff" d="M 318.5 275 L 323 278.5 L 320.5 277 L 318.5 275 Z "/>
    <path fill="#ffffff" d="M 457.5 279 L 461 283.5 L 459 282.5 L 457.5 279 Z "/>
    <path fill="#ffffff" d="M 331.5 284 L 337 288.5 L 334.5 287 L 331.5 284 Z "/>
    <path fill="#ffffff" d="M 176.5 288 L 174 291.5 L 171.5 295 L 173 292.5 L 176.5 288 Z "/>
    <path fill="#ffffff" d="M 61.5 296 L 62 297.5 L 58.5 304 L 58 302.5 L 61.5 296 Z "/>
    <path fill="#ffffff" d="M 471.5 302 L 473 305.5 L 472 305.5 L 471.5 302 Z "/>
    <path fill="#ffffff" d="M 365.5 308 L 369 310.5 L 367.5 310 L 365.5 308 Z "/>
    <path fill="#ffffff" d="M 54.5 311 L 55 312.5 L 53.5 315 L 53 313.5 L 54.5 311 Z "/>
    <path fill="#ffffff" d="M 475.5 314 Q 477.9 318.1 477 325.5 L 476 325.5 L 475.5 314 Z "/>
    <path fill="#ffffff" d="M 51.5 318 L 52 319.5 L 50.5 322 L 50 320.5 L 51.5 318 Z "/>
    <path fill="#ffffff" d="M 381.5 318 L 385 320.5 L 383.5 320 L 381.5 318 Z "/>
    <path fill="#ffffff" d="M 386.5 321 L 390 323.5 L 388.5 323 L 386.5 321 Z "/>
    <path fill="#ffffff" d="M 391.5 324 L 395 326.5 L 393.5 326 L 391.5 324 Z "/>
    <path fill="#ffffff" d="M 47.5 328 L 48 329.5 L 46.5 333 L 46 330.5 L 47.5 328 Z "/>
    <path fill="#ffffff" d="M 398.5 328 L 402 330.5 L 400.5 330 L 398.5 328 Z "/>
    <path fill="#ffffff" d="M 144.5 333 L 144 334.5 L 141.5 338 L 143 335.5 L 144.5 333 Z "/>
    <path fill="#ffffff" d="M 473.5 334 L 473 335.5 L 467.5 342 L 472 336.5 L 473.5 334 Z "/>
    <path fill="#ffffff" d="M 44.5 337 L 45 338.5 L 42.5 344 L 42 342.5 L 44.5 337 Z "/>
    <path fill="#ffffff" d="M 418.5 338 L 424 340.5 L 422.5 341 Q 418.5 340.5 418.5 338 Z "/>
    <path fill="#ffffff" d="M 428.5 342 L 433 343.5 L 430.5 344 L 428.5 342 Z "/>
    <path fill="#ffffff" d="M 439.5 345 L 444 345.5 L 439.5 346 L 439.5 345 Z "/>
    <path fill="#ffffff" d="M 445.5 346 L 454 346.5 L 445.5 347 L 445.5 346 Z "/>
    <path fill="#ffffff" d="M 37.5 363 L 38 368.5 L 37 368.5 L 37.5 363 Z "/>
    <path fill="#ffffff" d="M 36.5 370 L 37 384.5 L 36 384.5 L 36.5 370 Z "/>
    <path fill="#ffffff" d="M 90.5 400 L 87.5 404 L 81.5 408 L 83.5 405 L 90.5 400 Z "/>
    <path fill="#ffffff" d="M 48.5 408 L 52 410.5 L 50.5 411 L 48.5 408 Z "/>
    <path fill="#ffffff" d="M 71.5 411 L 73 411.5 L 67.5 413 L 67.5 412 L 71.5 411 Z "/>
    <path fill="#ffffff" d="M 59.5 413 L 66 413.5 L 59.5 414 L 59.5 413 Z "/>
    <path fill="#4da3ff" d="M 218.5 110 L 240.5 110 L 256.5 114 L 275.5 122 L 291.5 132 L 330.5 164 L 400.5 231 L 402 231 L 403.5 234 Q 405.8 233.3 405 235.5 L 408 237 L 408 238.5 L 431.5 264 Q 433.8 263.3 433 265.5 L 444.5 280 Q 446.8 279.3 446 281.5 L 461 303.5 L 460 305.5 Q 466.6 311.9 466 325.5 L 462.5 332 L 454.5 336 L 445.5 336 L 441.5 334 L 434.5 334 Q 433.1 331.4 428.5 332 L 426.5 330 L 414.5 326 L 401 319 Q 402.3 316 398.5 317 L 375 303 L 374.5 301 L 373 301.5 Q 373.8 299.3 371.5 300 L 316 262 Q 317.1 259.3 314.5 260 L 312 259 Q 313.3 256 309.5 257 L 307.5 254 L 306.5 255 L 303.5 252 L 301 252 Q 302.1 249.3 299.5 250 L 293.5 246 L 291 246 Q 292.1 243.3 289.5 244 L 273.5 236 L 261.5 232 L 246.5 229 L 235.5 229 L 222.5 232 L 216.5 235 L 199 247.5 Q 199.8 249.8 197.5 249 L 180 266.5 L 178 271 L 176 271 L 176 273 Q 173.3 271.9 174 274.5 L 169 282 L 166 283.5 L 162.5 289 Q 159.9 288.2 161 291.5 L 143 318 Q 140.3 316.9 141 319.5 L 140 322 Q 137.3 320.9 138 323.5 L 128 340 L 125 341.5 L 122 349 Q 119.3 347.9 120 350.5 L 112.5 360 Q 109.9 359.2 111 362.5 L 108 367 Q 105.3 365.9 106 368.5 L 98 377.5 L 98.5 379 L 96 380.5 Q 96.8 382.8 94.5 382 L 88 387 L 83.5 393 L 81 394.5 Q 81.7 397.5 78 396 L 78 398 L 75.5 398 L 69.5 402 L 59.5 403 L 51 396.5 L 47 381.5 L 47 370.5 L 51 348.5 L 56 333.5 L 60 326.5 L 65 311.5 L 85 271.5 L 129 194.5 L 151 162.5 L 172.5 137 Q 174.8 137.8 174 135.5 Q 190.3 116.8 218.5 110 Z M 218 146 L 210 150 L 203 159 L 203 170 L 205 173 L 215 180 Q 224 182 229 178 Q 236 174 238 165 L 237 156 L 235 153 L 227 146 L 218 146 Z M 332 199 L 327 200 L 322 203 Q 314 208 312 218 Q 311 230 318 236 Q 322 241 330 242 Q 337 243 340 240 L 340 236 L 337 231 Q 336 223 338 220 Q 340 214 347 213 Q 351 213 350 208 Q 345 199 332 199 Z M 241 213 L 240 215 L 249 215 L 241 213 Z M 225 214 L 221 216 L 224 217 L 231 215 L 225 214 Z M 266 219 L 267 221 L 269 221 L 266 219 Z M 200 223 L 198 224 L 198 225 L 201 224 L 200 223 Z M 196 225 L 195 226 L 192 228 L 190 231 L 197 226 L 196 225 Z "/>
    <path fill="#ffd43b" d="M 214.5 151 Q 218 153.5 225.5 152 L 230 155.5 L 232 162.5 Q 231.1 169.1 226.5 172 Q 223.2 175.2 215.5 174 L 209 168.5 L 208 162.5 Q 209.4 154.9 214.5 151 Z "/>
    <path fill="#ffa94d" d="M 333.5 205 L 341 208.5 L 334 214.5 Q 329.8 219.8 330 229.5 L 331 235 Q 324.5 234.1 321 229.5 L 319 226.5 L 318 220.5 L 319 217.5 Q 319.9 210.3 325.5 208 L 333.5 205 Z "/>
    <path fill="#66d9e8" d="M 222.5 108 L 244.5 109 L 257.5 113 L 274.5 120 L 299.5 136 Q 363.5 189.5 421 249.5 L 422.5 252 Q 424.8 251.3 424 253.5 L 436 265.5 L 454 288.5 L 466 311.5 L 468 324.5 Q 466.9 331.9 461.5 335 L 458.5 337 L 444.5 338 L 426.5 333 L 394.5 317 L 373.5 304 L 309.5 258 L 282.5 242 L 262.5 234 L 248.5 231 L 233.5 231 L 214.5 238 L 194 254.5 L 179 270.5 L 161 293.5 L 124 348.5 L 105 373.5 L 84.5 395 L 69.5 404 L 57.5 404 L 50 398.5 L 46 387.5 L 45 372.5 L 49 350.5 L 56 329.5 L 83 272.5 L 126 196.5 L 147 165.5 L 169.5 138 L 172 136.5 Q 171.3 134.3 173.5 135 L 175 132 L 195.5 117 L 205.5 112 L 208.5 112 L 214.5 109 Q 220.8 110.7 222.5 108 Z M 219 110 Q 190 117 174 136 Q 175 138 173 137 L 151 163 L 129 195 L 85 272 L 65 312 L 60 327 L 56 334 L 51 349 L 47 371 L 47 382 L 51 397 L 60 403 L 70 402 L 76 398 L 78 398 L 78 396 Q 82 397 81 395 L 84 393 L 88 387 L 95 382 Q 97 383 96 381 L 99 379 L 98 378 L 106 369 Q 105 366 108 367 L 111 363 Q 110 359 113 360 L 120 351 Q 119 348 122 349 L 125 342 L 128 340 L 138 324 Q 137 321 140 322 L 141 320 Q 140 317 143 318 L 161 292 Q 160 288 163 289 L 166 284 L 169 282 L 174 275 Q 173 272 176 273 L 176 271 L 178 271 L 180 267 L 198 249 Q 200 250 199 248 L 217 235 L 223 232 L 236 229 L 247 229 L 262 232 L 274 236 L 290 244 Q 292 243 291 246 L 294 246 L 300 250 Q 302 249 301 252 L 304 252 L 307 255 L 308 254 L 310 257 Q 313 256 312 259 L 315 260 Q 317 259 316 262 L 372 300 Q 374 299 373 302 L 375 301 L 375 303 L 399 317 Q 402 316 401 319 L 415 326 L 427 330 L 429 332 Q 433 331 435 334 L 442 334 L 446 336 L 455 336 L 463 332 L 466 326 Q 467 312 460 306 L 461 304 L 446 282 Q 447 279 445 280 L 433 266 Q 434 263 432 264 L 408 239 L 408 237 L 405 236 Q 406 233 404 234 L 402 231 L 401 231 L 331 164 L 292 132 L 276 122 L 257 114 L 241 110 L 219 110 Z "/>
    <path fill="#66d9e8" d="M 217.5 146 L 226.5 146 L 235 152.5 L 237 155.5 L 238 164.5 Q 235.5 173.5 228.5 178 Q 224.2 181.7 214.5 180 L 205 172.5 L 203 169.5 L 203 158.5 L 209.5 150 L 217.5 146 Z M 219 147 L 215 150 Q 216 153 211 151 L 204 161 L 204 168 L 208 175 L 216 179 Q 224 180 228 177 L 236 167 Q 238 158 234 154 Q 230 146 219 147 Z "/>
    <path fill="#66d9e8" d="M 331.5 199 Q 344.9 199.1 350 207.5 Q 350.5 212.5 346.5 213 Q 340.4 214.4 338 219.5 Q 335.5 223 337 230.5 L 340 235.5 L 340 239.5 Q 337.1 243.1 329.5 242 Q 321.9 240.5 318 235.5 Q 311.5 230 312 217.5 Q 314.1 207.6 321.5 203 L 326.5 200 L 331.5 199 Z M 329 201 L 323 204 Q 317 208 314 216 Q 312 228 318 234 L 328 240 L 337 240 L 338 239 L 338 236 L 335 230 Q 334 222 337 219 L 347 211 Q 349 212 348 208 Q 343 199 329 201 Z "/>
    <path fill="#66d9e8" d="M 240.5 213 L 249 214.5 L 240 215 L 240.5 213 Z "/>
    <path fill="#66d9e8" d="M 224.5 214 L 231 214.5 L 223.5 217 L 221.5 216 Q 220.3 218.3 219 215.5 L 221.5 215 L 224.5 214 Z "/>
    <path fill="#66d9e8" d="M 250.5 214 L 254 215.5 L 251.5 216 L 250.5 214 Z "/>
    <path fill="#66d9e8" d="M 216.5 216 L 218 216.5 L 205.5 221 L 205.5 220 L 216.5 216 Z "/>
    <path fill="#66d9e8" d="M 259.5 217 L 269 220.5 L 266.5 221 L 264.5 219 L 259.5 218 L 259.5 217 Z "/>
    <path fill="#66d9e8" d="M 199.5 223 L 201 223.5 L 188.5 232 L 191.5 228 L 194.5 226 L 199.5 223 Z "/>
  </g>
  <g id="line">
    <path fill="#1a1a1a" d="M 220.5 100 L 245.5 101 L 268.5 108 L 294.5 122 L 321 142 Q 319.9 144.7 322.5 144 L 349.5 169 L 351 169 Q 349.9 171.7 352.5 171 L 365 182.5 Q 364.3 184.8 366.5 184 L 432 248.5 L 439.5 258 Q 441.8 257.3 441 259.5 Q 456 274.5 467 293.5 L 475 312.5 L 476 326.5 Q 474.3 337.3 466.5 342 L 454.5 346 L 444.5 346 L 433.5 344 L 416.5 338 L 395.5 327 L 373.5 314 L 310.5 269 L 284.5 253 L 270.5 246 L 258.5 242 L 245.5 239 L 236.5 239 L 219.5 245 Q 205.7 253.7 195 265.5 L 188 275 Q 185.3 273.9 186 276.5 L 165 302.5 L 119 369.5 L 91.5 400 L 74.5 411 L 66.5 413 L 58.5 413 Q 49.9 411.1 45 405.5 L 38 391.5 L 37 369.5 L 42 344.5 L 49 324.5 L 62 295.5 L 88 245.5 L 129 176.5 L 149 148.5 L 170.5 125 Q 188.8 105.8 220.5 100 Z M 223 108 Q 221 111 215 109 L 209 112 L 206 112 L 196 117 L 175 132 L 174 135 Q 171 134 172 137 L 170 138 L 147 166 L 126 197 L 83 273 L 56 330 L 49 351 L 45 373 L 46 388 L 50 399 L 58 404 L 70 404 L 85 395 L 105 374 L 124 349 L 161 294 L 179 271 L 194 255 L 215 238 L 234 231 L 249 231 L 263 234 L 283 242 L 310 258 L 374 304 L 395 317 L 427 333 L 445 338 L 459 337 L 462 335 Q 467 332 468 325 L 466 312 L 454 289 L 436 266 L 424 254 Q 425 251 423 252 L 421 250 Q 363 190 300 136 L 275 120 L 258 113 L 245 109 L 223 108 Z "/>
    <path fill="#1a1a1a" d="M 218.5 147 Q 230.2 146.3 234 153.5 Q 237.5 157.5 236 166.5 L 227.5 177 Q 223.5 180 215.5 179 L 208 175 L 204 167.5 L 204 160.5 L 210.5 151 Q 213.8 149.9 213 152.5 Q 208.3 156.3 208 164.5 L 209 168.5 L 213.5 173 L 222.5 174 L 230 168.5 L 232 160.5 L 227.5 153 Q 224 150.5 216.5 152 L 215 150.5 L 216.5 148 L 218.5 147 Z "/>
    <path fill="#1a1a1a" d="M 328.5 201 Q 343.2 199.3 348 207.5 Q 349.5 211.9 346.5 211 L 337 218.5 Q 334.1 222.1 335 229.5 L 338 235.5 L 338 238.5 L 336.5 240 L 327.5 240 L 318 233.5 Q 312.3 228.2 314 215.5 Q 316.6 208.1 322.5 204 L 328.5 201 Z M 334 205 L 329 206 L 324 209 L 318 219 Q 317 226 321 230 Q 324 235 331 235 L 330 230 Q 330 220 334 215 L 340 210 L 341 207 L 334 205 Z "/>
  </g>
</svg>
