<svg xmlns="http://www.w3.org/2000/svg" width="512" height="512" viewBox="0 0 512 512">
  <g id="color">
    <path fill="#ffffff" d="M 101.5 36 L 106 36.5 L 101.5 37 L 101.5 36 Z "/>
    <path fill="#ffffff" d="M 120.5 51 L 121 60.5 L 120 60.5 L 120.5 51 Z "/>
    <path fill="#ffffff" d="M 82.5 55 L 83 66.5 L 82 66.5 L 82.5 55 Z "/>
    <path fill="#ffffff" d="M 85.5 75 L 87 78.5 L 86 78.5 L 85.5 75 Z "/>
    <path fill="#ffffff" d="M 131.5 76 L 135 78.5 L 133.5 78 L 131.5 76 Z "/>
    <path fill="#ffffff" d="M 141.5 81 L 146 82.5 L 143.5 83 L 141.5 81 Z "/>
    <path fill="#ffffff" d="M 155.5 85 L 161 85.5 L 155.5 86 L 155.5 85 Z "/>
    <path fill="#ffffff" d="M 162.5 86 L 169 86.5 L 162.5 87 L 162.5 86 Z "/>
    <path fill="#ffffff" d="M 212.5 86 L 226 86.5 L 212.5 87 L 212.5 86 Z "/>
    <path fill="#ffffff" d="M 175.5 87 L 198 87.5 L 175.5 88 L 175.5 87 Z "/>
    <path fill="#ffffff" d="M 235.5 87 L 242 87.5 L 235.5 88 L 235.5 87 Z "/>
    <path fill="#ffffff" d="M 413.5 92 L 419 92.5 L 413.5 93 L 413.5 92 Z "/>
    <path fill="#ffffff" d="M 269.5 93 L 274 94.5 L 272.5 95 L 269.5 94 L 269.5 93 Z "/>
    <path fill="#ffffff" d="M 407.5 93 L 412 93.5 L 404.5 95 L 404.5 94 L 407.5 93 Z "/>
    <path fill="#ffffff" d="M 433.5 93 L 437 94.5 L 435.5 94 Q 432.5 94.5 433.5 93 Z "/>
    <path fill="#ffffff" d="M 278.5 96 L 285 98.5 L 283.5 99 L 278.5 97 L 278.5 96 Z "/>
    <path fill="#ffffff" d="M 394.5 97 L 396 97.5 L 392.5 99 L 392.5 98 L 394.5 97 Z "/>
    <path fill="#ffffff" d="M 288.5 100 L 293 102.5 L 291.5 102 Q 287.8 101.7 288.5 100 Z "/>
    <path fill="#ffffff" d="M 106.5 107 L 107 117.5 L 106 117.5 L 106.5 107 Z "/>
    <path fill="#ffffff" d="M 112 109 L 114.5 109 L 131.5 119 L 157.5 127 L 175.5 129 L 176.5 130 L 183.5 130 L 184.5 131 L 203.5 132 L 204.5 133 L 221.5 135 L 242.5 141 L 269.5 155 L 294 175.5 Q 293.3 177.8 295.5 177 L 298.5 181 L 301 182.5 L 302.5 185 L 305 186.5 L 316 199.5 L 253.5 254 L 246 259 Q 247.1 261.7 244.5 261 L 186.5 311 L 181.5 311 L 175.5 309 L 163.5 308 L 144.5 304 L 137.5 304 L 129.5 310 L 127 310 L 125 282.5 L 124 281.5 L 123 254.5 L 122 253.5 L 122 241.5 L 121 240.5 L 121 229.5 L 120 228.5 L 120 213.5 L 119 212.5 L 119 194.5 L 118 193.5 L 118 180.5 L 117 179.5 L 117 166.5 L 116 165.5 L 116 152.5 L 115 151.5 L 115 137.5 L 114 136.5 L 113 112.5 L 112 109 Z "/>
    <path fill="#ffffff" d="M 312.5 114 L 318 118.5 L 315.5 117 L 312.5 114 Z "/>
    <path fill="#ffffff" d="M 373.5 116 L 374 123.5 L 373 123.5 L 373.5 116 Z "/>
    <path fill="#ffffff" d="M 107.5 125 L 108 133.5 L 107 133.5 L 107.5 125 Z "/>
    <path fill="#ffffff" d="M 443.5 125 L 444 126.5 L 441.5 132 L 441 130.5 L 443.5 125 Z "/>
    <path fill="#ffffff" d="M 439.5 135 L 440 136.5 L 438.5 139 L 438 137.5 L 439.5 135 Z "/>
    <path fill="#ffffff" d="M 108.5 138 L 109 147.5 L 108 147.5 L 108.5 138 Z "/>
    <path fill="#ffffff" d="M 436.5 142 L 437 143.5 L 434.5 147 L 435 145.5 L 436.5 142 Z "/>
    <path fill="#ffffff" d="M 109.5 149 L 110 158.5 L 109 158.5 L 109.5 149 Z "/>
    <path fill="#ffffff" d="M 421.5 161 L 420.5 163 L 417.5 164 L 417.5 163 L 421.5 161 Z "/>
    <path fill="#ffffff" d="M 110.5 163 L 111 171.5 L 110 171.5 L 110.5 163 Z "/>
    <path fill="#ffffff" d="M 369.5 167 L 369 168.5 L 369 170.5 L 375 177.5 L 372 175.5 L 368 170.5 L 368 168.5 L 369.5 167 Z "/>
    <path fill="#ffffff" d="M 111.5 180 L 112 188.5 L 111 188.5 L 111.5 180 Z "/>
    <path fill="#ffffff" d="M 112.5 193 L 113 206.5 L 112 206.5 L 112.5 193 Z "/>
    <path fill="#ffffff" d="M 387.5 196 L 390 199.5 L 388 198.5 L 387.5 196 Z "/>
    <path fill="#ffffff" d="M 390.5 201 L 394 205.5 L 392 204.5 L 390.5 201 Z "/>
    <path fill="#ffffff" d="M 113.5 208 L 114 219.5 L 113 219.5 L 113.5 208 Z "/>
    <path fill="#ffffff" d="M 321.5 208 L 325 209.5 Q 344.9 233.1 357 264.5 L 363 287.5 L 365 315.5 L 364 316.5 L 363 338.5 L 360 350.5 L 357 380.5 L 356 381.5 L 356 411.5 L 360 432.5 L 364 444 L 315.5 432 L 308.5 429 L 304.5 429 L 266.5 417 L 259.5 416 L 243.5 410 L 236.5 409 L 189.5 393 L 186.5 393 L 174 387.5 L 193 370.5 L 194 367.5 L 194 320.5 L 194 318.5 Q 193.3 316.3 195.5 317 L 321.5 208 Z "/>
    <path fill="#ffffff" d="M 395.5 209 L 398 212.5 L 396 211.5 L 395.5 209 Z "/>
    <path fill="#ffffff" d="M 398.5 214 L 402 221.5 L 401 221.5 L 398.5 214 Z "/>
    <path fill="#ffffff" d="M 114.5 226 L 115 234.5 L 114 234.5 L 114.5 226 Z "/>
    <path fill="#ffffff" d="M 115.5 241 L 116 249.5 L 115 249.5 L 115.5 241 Z "/>
    <path fill="#ffffff" d="M 411.5 246 L 413 251.5 L 412 251.5 L 411.5 246 Z "/>
    <path fill="#ffffff" d="M 116.5 253 L 117 263.5 L 116 263.5 L 116.5 253 Z "/>
    <path fill="#ffffff" d="M 415.5 262 L 416 266.5 L 415 266.5 L 415.5 262 Z "/>
    <path fill="#ffffff" d="M 117.5 266 L 118 274.5 L 117 274.5 L 117.5 266 Z "/>
    <path fill="#ffffff" d="M 416.5 268 L 417 272.5 L 416 272.5 L 416.5 268 Z "/>
    <path fill="#ffffff" d="M 417.5 278 L 418 295.5 L 417 295.5 L 417.5 278 Z "/>
    <path fill="#ffffff" d="M 118.5 281 L 119 286.5 L 118 286.5 L 118.5 281 Z "/>
    <path fill="#ffffff" d="M 119.5 293 L 120 299.5 L 119 299.5 L 119.5 293 Z "/>
    <path fill="#ffffff" d="M 416.5 301 L 417 306.5 L 416 306.5 L 416.5 301 Z "/>
    <path fill="#ffffff" d="M 120.5 303 L 121 311.5 L 120 311.5 L 120.5 303 Z "/>
    <path fill="#ffffff" d="M 415.5 308 L 416 312.5 L 415 312.5 L 415.5 308 Z "/>
    <path fill="#ffffff" d="M 121.5 313 L 122 315.5 L 120 316.5 L 121.5 313 Z "/>
    <path fill="#ffffff" d="M 89.5 339 L 86.5 343 L 82.5 346 L 85.5 342 L 89.5 339 Z "/>
    <path fill="#ffffff" d="M 72.5 352 L 68 357.5 L 67 362.5 L 67.5 364 Q 65.3 363.3 66 359.5 L 72.5 352 Z "/>
    <path fill="#ffffff" d="M 68.5 365 L 72 366.5 L 70.5 367 L 68.5 365 Z "/>
    <path fill="#ffffff" d="M 400.5 371 L 401 374.5 L 399.5 378 L 399 375.5 L 400.5 371 Z "/>
    <path fill="#ffffff" d="M 114.5 375 L 118 376.5 L 116.5 376 Q 113.5 376.5 114.5 375 Z "/>
    <path fill="#ffffff" d="M 117.5 378 L 118 383.5 L 117 383.5 L 117.5 378 Z "/>
    <path fill="#ffffff" d="M 396.5 390 L 397 395.5 L 395.5 403 L 395 396.5 L 396.5 390 Z "/>
    <path fill="#ffffff" d="M 187.5 399 L 191 400.5 L 189.5 401 L 187.5 399 Z "/>
    <path fill="#ffffff" d="M 148.5 410 L 143.5 416 L 142 415.5 L 148.5 410 Z "/>
    <path fill="#ffffff" d="M 118.5 414 L 119 425.5 L 118 425.5 L 118.5 414 Z "/>
    <path fill="#ffffff" d="M 234.5 414 L 239 415.5 L 236.5 416 L 234.5 414 Z "/>
    <path fill="#ffffff" d="M 247.5 418 L 252 419.5 L 249.5 420 L 247.5 418 Z "/>
    <path fill="#ffffff" d="M 395.5 419 L 396 423.5 L 395 423.5 L 395.5 419 Z "/>
    <path fill="#ffffff" d="M 273.5 426 L 279 427.5 L 276.5 428 L 273.5 427 L 273.5 426 Z "/>
    <path fill="#ffffff" d="M 119.5 427 L 123 429.5 L 121.5 430 L 119.5 427 Z "/>
    <path fill="#ffffff" d="M 287.5 430 L 293 431.5 L 290.5 432 L 287.5 431 L 287.5 430 Z "/>
    <path fill="#ffffff" d="M 301.5 434 L 307 435.5 L 304.5 436 L 301.5 435 L 301.5 434 Z "/>
    <path fill="#ffffff" d="M 346.5 446 L 352 447.5 L 349.5 448 L 346.5 447 L 346.5 446 Z "/>
    <path fill="#ffffff" d="M 414.5 447 L 418 452.5 L 417 452.5 L 414.5 447 Z "/>
    <path fill="#ffffff" d="M 361.5 450 Q 367.9 449.6 370 453.5 L 367.5 452 L 361.5 451 L 361.5 450 Z "/>
    <path fill="#ffffff" d="M 388.5 472 L 395 475.5 L 393.5 476 Q 388.9 474.8 388.5 472 Z "/>
    <path fill="#ffffff" d="M 397.5 476 L 406 476.5 L 397.5 477 L 397.5 476 Z "/>
    <path fill="#4da3ff" d="M 104.5 48 L 108 50 L 109 52.5 L 109 66.5 L 113 75.5 L 121.5 84 L 136.5 93 L 140.5 93 L 155.5 98 L 157.5 97 L 158.5 98 L 168.5 98 L 169.5 99 L 211.5 99 L 212.5 98 L 223.5 98 L 224.5 99 L 248.5 100 L 260.5 104 L 262.5 104 L 281.5 110 L 309 126 L 310.5 129 L 318 133 Q 316.9 135.7 319.5 135 L 328 143.5 L 328 145 L 330.5 145 L 338 152.5 L 351 167.5 L 347.5 172 L 337 179 L 335.5 182 L 328 187 Q 329.1 189.7 326.5 189 L 323.5 190 L 319 185.5 L 317.5 183 Q 315.3 183.8 316 181.5 L 309.5 174 L 306.5 172 L 285.5 152 L 254.5 133 L 226.5 124 L 220.5 124 L 201.5 120 L 179.5 119 L 175.5 117 L 160.5 116 L 146.5 112 L 141.5 109 L 137.5 109 L 127 104 Q 128.3 101 124.5 102 L 120 100 Q 121.1 97.3 118.5 98 L 106 87.5 L 98 76.5 L 94 64.5 L 94 57.5 L 95.5 54 L 97 54.5 Q 96.3 50.8 98.5 50 L 104.5 48 Z "/>
    <path fill="#4da3ff" d="M 422.5 104 Q 430.8 103 434 106 L 435 112.5 L 430 130.5 L 422 145.5 L 415.5 152 L 410.5 153 L 406 150.5 L 406.5 149 Q 403.1 149.9 405 144.5 L 404 143.5 L 404 134.5 L 398.5 129 Q 388.9 128.6 385 122.5 Q 384.9 114.4 390.5 112 L 402.5 107 L 410.5 106 L 414.5 107 L 414.5 105 L 417.5 106 L 422.5 104 Z M 412 109 L 413 112 L 415 111 L 412 109 Z "/>
    <path fill="#4da3ff" d="M 358.5 179 L 364 182 L 369 189.5 L 369 192 Q 371.7 190.9 371 193.5 L 376 199.5 L 377 204 Q 379.7 202.9 379 205.5 Q 384 209.8 385 217 Q 387.7 215.9 387 218.5 L 394 231.5 L 403 258.5 L 405 275.5 L 406 276.5 L 406 295.5 L 404 302.5 L 403 317.5 L 400 324.5 L 399 335.5 L 392 356.5 L 391 365.5 L 389 369.5 L 387 382.5 L 385 387.5 L 384 404.5 L 383 405.5 L 383 421.5 L 389 440.5 L 396.5 448 L 399 449.5 L 399 451 L 402 451 Q 400.9 453.7 403.5 453 Q 408.5 454.5 407 462.5 Q 405.3 465.8 399.5 465 L 395.5 464 L 391 460.5 Q 391.8 458.3 389.5 459 L 385 455.5 L 375 440.5 L 373 431.5 L 370 426.5 L 369 413.5 L 368 412.5 L 368 390.5 L 367 386.5 L 368 385.5 L 368 375.5 L 370 367.5 L 370 360.5 L 374 340.5 L 374 333.5 L 376 326.5 L 375 322.5 L 376 321.5 L 376 300.5 L 375 299.5 L 375 291.5 L 374 290.5 L 374 283.5 L 372 273.5 L 370 270.5 L 365 252.5 L 363 250.5 L 363.5 249 Q 360.9 249.8 362 246.5 L 361 242 L 358 240.5 Q 355.5 232 350 226.5 L 349 222 Q 346.3 223.1 347 220.5 L 333 201.5 L 335.5 198 L 345.5 189 L 350 187 L 351.5 184 L 358.5 179 Z M 377 221 L 373 226 L 375 232 L 372 233 Q 370 230 366 231 L 365 234 L 365 238 L 369 243 L 369 245 Q 374 244 376 248 L 379 248 L 383 241 Q 384 228 381 222 L 377 221 Z "/>
    <path fill="#ff6b6b" d="M 139.5 314 L 141.5 315 L 146 314 Q 144.9 316.7 147.5 316 L 147.5 314 L 154 315.5 L 153.5 317 L 158.5 316 L 159.5 317 L 166 317 L 166.5 319 L 168.5 318 L 170.5 318 L 173.5 320 L 175 319.5 L 167.5 328 L 165.5 329 Q 164.3 326.7 163 329.5 L 163.5 331 L 162.5 330 L 159 333.5 L 157.5 336 Q 155.8 333.3 154 337.5 L 154.5 339 L 153 338.5 L 147.5 345 L 140.5 351 L 138 351 L 138 353 Q 135.3 351.9 136 354.5 L 133 355.5 L 130.5 359 L 128 359.5 Q 130.3 360.8 127.5 362 L 124 363 L 122.5 366 L 119.5 365 L 116.5 366 L 107 364 Q 108.1 361.3 105.5 362 L 102.5 363 L 99.5 361 L 96.5 362 L 91 361 Q 92.1 358.3 89.5 359 L 86.5 360 L 86.5 359 L 88 358.5 L 84 356.5 L 86 356.5 L 88.5 353 L 90 353.5 L 93.5 349 Q 95 351.5 96.5 348 L 98 347.5 L 97.5 346 Q 99 348.5 100.5 345 L 102 344.5 Q 99.3 342.8 103.5 341 L 107.5 339 Q 108.8 341.3 110 338.5 L 109.5 337 L 111.5 337 L 113.5 338 L 115.5 337 L 115.5 338 L 114 338.5 L 118.5 339 L 120 338.5 L 119.5 340 L 122.5 339 L 125.5 341 L 128.5 340 L 128.5 342 L 135.5 341 L 137.5 341 Q 141.3 341.8 142 339.5 L 140.5 337 L 130 336 Q 131.3 333 127.5 334 L 125.5 335 L 122.5 333 L 121 333.5 L 120 329.5 L 124 328 Q 122.5 324.3 125.5 325 L 128 324 Q 126.9 321.3 129.5 322 L 136 318.5 L 135.5 317 Q 136.7 319.3 138 316.5 L 139.5 314 Z "/>
    <path fill="#ff6b6b" d="M 180 329 L 184 330.5 L 185 332.5 L 185 354 L 183 354.5 L 183 362.5 L 184 362.5 L 184.5 355 L 185 365 L 183 365.5 L 183.5 367 L 181.5 366 L 182 367.5 L 175.5 374 L 174 373.5 L 174 375 L 170 375 L 171 365.5 Q 168.5 364 170 358.5 L 170.5 357 Q 167.5 357.8 169 354 L 166.5 354 L 165 355.5 L 164 368.5 L 165 373.5 L 164 375.5 L 164 377.5 L 165 380.5 L 165 382.5 L 161.5 386 Q 156.9 387.4 159 381.5 L 158 381.5 L 157.5 384 L 157 377.5 L 157 375.5 L 157 364.5 L 155.5 363 L 153.5 362 L 153 371.5 L 152 372.5 L 153 375.5 L 151 375.5 L 152 394.5 Q 149.5 399.3 147 397.5 L 144.5 401 L 142 401.5 Q 144.3 402.8 141.5 404 Q 140.3 401.7 139 404.5 L 137.5 407 Q 135.3 406.3 136 408.5 L 132 410 L 130.5 413 Q 127.5 412.5 128 408.5 L 128 406.5 L 129 378.5 L 128 378.5 L 127.5 381 L 127 374.5 Q 129.9 368.9 137 367.5 Q 134.8 366.3 137.5 365 Q 139.2 367.8 141 363.5 L 142.5 361 L 145 359.5 Q 144.3 357.3 146.5 358 L 151.5 353 L 153 353.5 L 157.5 348 L 163.5 343 L 165 343.5 L 167 340.5 L 170.5 337 Q 171.8 339.3 173 336.5 L 178.5 330 L 180 330.5 L 180 329 Z "/>
    <path fill="#ff6b6b" d="M 152.5 377 L 153 384.5 L 152 384.5 L 152.5 377 Z "/>
    <path fill="#66d9e8" d="M 99.5 47 Q 108.3 45.3 110 50.5 L 111 66.5 L 115 75.5 L 122.5 83 L 136.5 91 L 155.5 96 Q 161.8 94.3 163.5 97 L 237.5 97 L 260.5 101 Q 264.5 104 271.5 104 L 291.5 113 L 324 136 L 325.5 139 L 328 140.5 Q 327.3 142.8 329.5 142 L 340 152.5 L 340 154 L 343 155.5 L 353 168.5 L 324.5 193 L 321 190.5 L 315.5 183 Q 313.3 183.8 314 181.5 L 281.5 151 L 252.5 134 L 221.5 125 L 203.5 123 L 202.5 122 L 194.5 122 L 193.5 121 L 182.5 121 L 150.5 115 Q 120.5 107 103 86.5 Q 93.6 76.9 92 59.5 L 94 52.5 L 99.5 47 Z M 105 48 L 99 50 Q 96 51 97 55 L 96 54 L 94 58 L 94 65 L 98 77 L 106 88 L 119 98 Q 121 97 120 100 L 125 102 Q 128 101 127 104 L 138 109 L 142 109 L 147 112 L 161 116 L 176 117 L 180 119 L 202 120 L 221 124 L 227 124 L 255 133 L 286 152 L 307 172 L 310 174 L 316 182 Q 315 184 318 183 L 319 186 L 324 190 L 327 189 Q 329 190 328 187 L 336 182 L 337 179 L 348 172 L 351 168 L 338 153 L 331 145 L 328 145 L 328 144 L 320 135 Q 317 136 318 133 L 311 129 L 309 126 L 282 110 L 263 104 L 261 104 L 249 100 L 225 99 L 224 98 L 213 98 L 212 99 L 170 99 L 169 98 L 159 98 L 158 97 L 156 98 L 141 93 L 137 93 L 122 84 L 113 76 L 109 67 L 109 53 L 108 50 L 105 48 Z "/>
    <path fill="#66d9e8" d="M 421.5 102 Q 432.3 100.7 436 106.5 L 436 116.5 L 432 129.5 L 424 145.5 L 419.5 151 L 412.5 155 L 409.5 155 L 405 151.5 L 403 147.5 L 402 134.5 L 398.5 131 Q 390 129.8 385 126 L 383 120.5 L 384 116.5 L 387.5 112 L 406.5 104 L 420.5 103 L 421.5 102 Z M 423 104 L 419 105 L 419 107 L 415 105 L 415 107 L 411 106 L 407 107 L 409 107 L 409 108 L 407 107 L 403 107 L 391 112 Q 385 114 385 123 Q 389 129 399 129 L 404 135 L 404 144 L 405 145 Q 403 150 407 149 L 406 151 L 411 153 L 416 152 L 422 146 L 430 131 L 435 113 L 434 106 Q 431 103 423 104 Z "/>
    <path fill="#66d9e8" d="M 412 109 L 415 110.5 L 412.5 112 L 412 109 Z "/>
    <path fill="#66d9e8" d="M 359.5 176 Q 382.7 200.8 397 234.5 L 405 259.5 L 408 289.5 L 407 290.5 L 407 302.5 L 406 303.5 L 404 320.5 L 394 355.5 L 394 359.5 L 387 386.5 L 386 400.5 L 385 401.5 L 385 422.5 L 389 436.5 L 396.5 446 L 408 454.5 L 409 462.5 Q 406.9 466.9 400.5 467 Q 388.1 463.9 382 454.5 L 373 439.5 L 368 424.5 L 367 411.5 L 366 410.5 L 366 379.5 L 367 378.5 L 367 370.5 L 368 369.5 L 368 363.5 L 369 362.5 L 371 343.5 L 373 336.5 L 373 329.5 L 374 328.5 L 374 296.5 L 373 295.5 L 371 277.5 L 363 252.5 Q 349.8 223.7 331 200.5 L 337 196 Q 335.9 193.3 338.5 194 L 359.5 176 Z M 359 179 L 352 184 L 350 187 L 346 189 L 336 198 L 333 202 L 347 221 Q 346 223 349 222 L 350 227 Q 356 232 358 241 L 361 242 L 362 247 Q 361 250 364 249 L 363 251 L 365 253 L 370 271 L 372 274 L 374 284 L 374 291 L 375 292 L 375 300 L 376 301 L 376 322 L 375 323 L 376 327 L 374 334 L 374 341 L 370 361 L 370 368 L 368 376 L 368 386 L 367 387 L 368 391 L 368 413 L 369 414 L 370 427 L 373 432 L 375 441 L 385 456 L 390 459 Q 392 458 391 461 L 396 464 L 400 465 Q 405 466 407 463 Q 409 455 404 453 Q 401 454 402 451 L 399 451 L 399 450 L 397 448 L 389 441 L 383 422 L 383 406 L 384 405 L 385 388 L 387 383 L 389 370 L 391 366 L 392 357 L 399 336 L 400 325 L 403 318 L 404 303 L 406 296 L 406 277 L 405 276 L 403 259 L 394 232 L 387 219 Q 388 216 385 217 Q 384 210 379 206 Q 380 203 377 204 L 376 200 L 371 194 Q 372 191 369 192 L 369 190 L 364 182 L 359 179 Z "/>
    <path fill="#66d9e8" d="M 376.5 221 L 381 222 Q 384.3 228.3 383 240.5 L 378.5 248 L 375.5 248 Q 373.6 244.4 369 245 L 369 242.5 L 365 237.5 L 365 233.5 L 366 231 Q 370.3 230 371.5 233 L 375 232 L 373 225.5 L 376.5 221 Z M 377 223 L 375 225 L 377 234 Q 378 239 376 240 L 373 237 L 369 232 L 366 235 L 370 243 L 375 246 L 379 246 L 381 242 Q 383 231 380 225 L 377 223 Z "/>
    <path fill="#f783ac" d="M 137.5 316 L 135.5 319 L 131.5 321 L 131.5 320 L 137.5 316 Z "/>
    <path fill="#f783ac" d="M 123.5 326 L 124 328 L 121.5 329 L 123.5 326 Z "/>
    <path fill="#f783ac" d="M 164.5 328 L 165 330 L 159.5 334 L 164.5 328 Z "/>
    <path fill="#f783ac" d="M 157.5 334 L 157 335.5 L 155.5 338 L 153.5 339 L 157.5 334 Z "/>
    <path fill="#f783ac" d="M 110.5 337 L 108.5 340 L 108 338 L 110.5 337 Z "/>
    <path fill="#f783ac" d="M 113.5 337 L 122 339.5 L 119.5 340 L 114.5 339 L 113.5 337 Z "/>
    <path fill="#f783ac" d="M 128.5 341 L 133 341.5 L 128.5 342 L 128.5 341 Z "/>
    <path fill="#f783ac" d="M 100.5 344 L 102 344.5 L 93.5 351 L 96.5 347 L 100.5 344 Z "/>
    <path fill="#f783ac" d="M 183.5 354 L 184 362.5 L 183 362.5 L 183.5 354 Z "/>
    <path fill="#f783ac" d="M 85.5 356 L 85.5 358 L 88 358.5 L 84 359 L 85.5 356 Z "/>
    <path fill="#f783ac" d="M 140.5 363 L 136.5 368 L 135 367.5 L 140.5 363 Z "/>
    <path fill="#f783ac" d="M 164.5 364 L 165 368.5 L 164 368.5 L 164.5 364 Z "/>
    <path fill="#f783ac" d="M 151.5 375 Q 154.3 376.2 152 377.5 L 151.5 390 L 151.5 375 Z "/>
    <path fill="#f783ac" d="M 128.5 378 L 129 396.5 L 128 396.5 L 128.5 378 Z "/>
    <path fill="#f783ac" d="M 158.5 381 L 160 386.5 L 158 387.5 L 158.5 381 Z "/>
    <path fill="#f783ac" d="M 142.5 401 L 144 401.5 L 139.5 405 L 142.5 401 Z "/>
  </g>
  <g id="line">
    <path fill="#1a1a1a" d="M 98.5 37 Q 111.8 35.2 116 42.5 L 120 50.5 L 120 60.5 L 122 67.5 L 129.5 76 L 143.5 83 L 155.5 86 L 174.5 87 L 175.5 88 L 197.5 88 L 198.5 87 L 234.5 87 L 235.5 88 L 245.5 88 L 265.5 92 L 285.5 99 L 297.5 105 L 318.5 119 L 352 150.5 L 360 161 L 365.5 158 L 387 139.5 L 385.5 137 L 378 132.5 Q 372.2 127.8 374 115.5 L 382.5 104 Q 399.7 92.2 428.5 92 Q 437.1 93.4 442 98.5 Q 447.2 103.8 446 115.5 L 444 124.5 L 434 147.5 L 422.5 161 Q 417.8 164.8 409.5 165 Q 401.7 163.8 398 158.5 Q 394.3 154.3 393.5 147 L 391 148 Q 392.1 150.7 389.5 150 L 383 155 Q 384.1 157.7 381.5 157 L 368 168.5 L 368 170.5 L 379 183.5 L 394 206.5 L 407 233.5 L 413 252.5 L 417 273.5 L 417 300.5 L 410 337.5 L 400 371.5 L 396 390.5 Q 397.3 395.2 395 396.5 L 395 423.5 Q 397 434.5 404.5 440 L 414 446.5 Q 419.3 451.7 419 462.5 Q 417.6 470.6 411.5 474 Q 406.5 478 395.5 476 Q 382.8 471.2 375 461.5 L 367.5 451 L 352.5 448 L 329.5 441 L 325.5 441 L 318.5 438 L 268.5 425 L 168.5 393 L 142 415 Q 143.1 417.7 140.5 417 L 127.5 429 L 123.5 430 L 119 426.5 L 119 414.5 L 118 413.5 L 118 376.5 L 116.5 375 L 111.5 375 L 102.5 372 L 91.5 371 Q 83.8 367.2 72.5 367 L 68 365 L 67 359.5 L 73.5 352 L 122 315.5 L 121 303.5 L 120 302.5 L 120 293.5 L 119 292.5 L 119 281.5 L 118 280.5 L 116 241.5 L 115 240.5 L 114 208.5 L 113 207.5 L 113 193.5 L 112 192.5 L 112 180.5 L 111 179.5 L 111 163.5 L 110 162.5 L 110 149.5 L 109 148.5 L 108 125.5 L 107 124.5 L 107 107.5 L 106 103.5 Q 93.8 94.2 87 79.5 L 83 67.5 L 83 53.5 Q 85.4 44.4 92.5 40 L 98.5 37 Z M 100 47 L 94 53 L 92 60 Q 94 77 103 87 Q 120 107 151 115 L 183 121 L 194 121 L 195 122 L 203 122 L 204 123 L 222 125 L 253 134 L 282 151 L 314 182 Q 313 184 316 183 L 321 191 L 325 193 L 353 169 L 343 156 L 340 154 L 340 153 L 330 142 Q 327 143 328 141 L 326 139 L 324 136 L 292 113 L 272 104 Q 265 104 261 101 L 238 97 L 164 97 Q 162 94 156 96 L 137 91 L 123 83 L 115 76 L 111 67 L 110 51 Q 108 45 100 47 Z M 422 102 L 421 103 L 407 104 L 388 112 L 384 117 L 383 121 L 385 126 Q 390 130 399 131 L 402 135 L 403 148 L 405 152 L 410 155 L 413 155 L 420 151 L 424 146 L 432 130 L 436 117 L 436 107 Q 432 101 422 102 Z M 112 109 L 113 113 L 114 137 L 115 138 L 115 152 L 116 153 L 116 166 L 117 167 L 117 180 L 118 181 L 118 194 L 119 195 L 119 213 L 120 214 L 120 229 L 121 230 L 121 241 L 122 242 L 122 254 L 123 255 L 124 282 L 125 283 L 127 310 L 130 310 L 138 304 L 145 304 L 164 308 L 176 309 L 182 311 L 187 311 L 245 261 Q 247 262 246 259 L 254 254 L 316 200 L 305 187 L 303 185 L 301 183 L 299 181 L 296 177 Q 293 178 294 176 L 270 155 L 243 141 L 222 135 L 205 133 L 204 132 L 185 131 L 184 130 L 177 130 L 176 129 L 158 127 L 132 119 L 115 109 L 112 109 Z M 360 176 L 339 194 Q 336 193 337 196 L 331 201 Q 350 224 363 253 L 371 278 L 373 296 L 374 297 L 374 329 L 373 330 L 373 337 L 371 344 L 369 363 L 368 364 L 368 370 L 367 371 L 367 379 L 366 380 L 366 411 L 367 412 L 368 425 L 373 440 L 382 455 Q 388 464 401 467 Q 407 467 409 463 L 408 455 L 397 446 L 389 437 L 385 423 L 385 402 L 386 401 L 387 387 L 394 360 L 394 356 L 404 321 L 406 304 L 407 303 L 407 291 L 408 290 L 405 260 L 397 235 Q 383 201 360 176 Z M 322 208 L 196 317 Q 193 316 194 319 L 194 321 L 194 368 L 193 371 L 174 388 L 187 393 L 190 393 L 237 409 L 244 410 L 260 416 L 267 417 L 305 429 L 309 429 L 316 432 L 364 444 L 360 433 L 356 412 L 356 382 L 357 381 L 360 351 L 363 339 L 364 317 L 365 316 L 363 288 L 357 265 Q 345 233 325 210 L 322 208 Z M 140 314 L 120 330 Q 116 329 118 333 L 131 336 L 137 336 L 142 339 L 141 341 L 130 341 L 116 337 L 110 337 L 86 356 Q 82 355 84 359 L 117 366 L 123 366 L 168 328 L 175 319 L 148 314 L 140 314 Z M 182 328 L 127 375 Q 126 380 128 382 L 128 414 L 149 398 L 152 395 L 152 386 L 153 385 L 153 364 L 156 363 L 157 365 L 157 376 L 157 378 Q 156 384 159 388 L 162 386 L 165 383 L 165 356 L 169 354 L 170 358 L 170 376 L 172 377 L 184 367 Q 186 364 185 356 L 185 354 L 185 333 L 184 332 Q 186 327 182 328 Z "/>
    <path fill="#1a1a1a" d="M 376.5 223 L 380 224.5 Q 382.8 230.7 381 241.5 L 378.5 246 L 374.5 246 L 370 242.5 L 366 234.5 L 369.5 233 L 375.5 240 Q 378.3 238.8 377 233.5 L 375 224.5 L 376.5 223 Z "/>
  </g>
</svg>
