<svg xmlns="http://www.w3.org/2000/svg" width="512" height="512" viewBox="0 0 512 512">
  <g id="color">
    <path fill="#ffffff" d="M 288.5 66 L 295 66.5 L 288.5 67 L 288.5 66 Z "/>
    <path fill="#ffffff" d="M 303.5 66 L 310 66.5 L 303.5 67 L 303.5 66 Z "/>
    <path fill="#ffffff" d="M 209.5 67 L 227 67.5 L 209.5 68 L 209.5 67 Z "/>
    <path fill="#ffffff" d="M 280.5 67 L 284 67.5 L 277.5 69 L 277.5 68 L 280.5 67 Z "/>
    <path fill="#ffffff" d="M 203.5 68 L 208 68.5 L 203.5 69 L 203.5 68 Z "/>
    <path fill="#ffffff" d="M 228.5 68 L 233 68.5 L 228.5 69 L 228.5 68 Z "/>
    <path fill="#ffffff" d="M 194.5 70 L 196 70.5 L 189.5 73 L 189.5 72 L 194.5 70 Z "/>
    <path fill="#ffffff" d="M 270.5 70 L 272 70.5 L 268.5 72 L 268.5 71 L 270.5 70 Z "/>
    <path fill="#ffffff" d="M 324.5 70 L 328 71.5 L 326.5 72 L 324.5 70 Z "/>
    <path fill="#ffffff" d="M 184.5 74 L 186 74.5 L 181.5 77 L 182.5 75 L 184.5 74 Z "/>
    <path fill="#ffffff" d="M 261.5 74 L 260.5 76 L 256.5 77 L 256.5 76 L 261.5 74 Z "/>
    <path fill="#ffffff" d="M 178.5 77 L 180 77.5 L 176.5 80 L 178.5 77 Z "/>
    <path fill="#ffffff" d="M 357.5 93 L 363 93.5 L 357.5 94 L 357.5 93 Z "/>
    <path fill="#ffffff" d="M 366.5 93 L 373 93.5 L 366.5 94 L 366.5 93 Z "/>
    <path fill="#ffffff" d="M 380.5 95 L 385 96.5 L 383.5 97 L 380.5 96 L 380.5 95 Z "/>
    <path fill="#ffffff" d="M 139.5 96 L 146 96.5 L 139.5 97 L 139.5 96 Z "/>
    <path fill="#ffffff" d="M 128.5 98 L 131 98.5 L 125.5 100 L 125.5 99 L 128.5 98 Z "/>
    <path fill="#ffffff" d="M 119.5 101 L 121 101.5 L 115.5 104 L 115.5 103 L 119.5 101 Z "/>
    <path fill="#ffffff" d="M 111.5 105 L 110.5 107 L 108.5 108 L 109.5 106 L 111.5 105 Z "/>
    <path fill="#ffffff" d="M 414.5 118 L 419 123.5 L 416 121.5 L 414.5 118 Z "/>
    <path fill="#ffffff" d="M 422.5 130 L 425 135.5 L 424 135.5 L 422.5 130 Z "/>
    <path fill="#ffffff" d="M 83.5 133 L 83 134.5 L 81.5 137 L 82 135.5 L 83.5 133 Z "/>
    <path fill="#ffffff" d="M 425.5 137 L 428 143.5 L 427 143.5 L 425.5 137 Z "/>
    <path fill="#ffffff" d="M 80.5 138 L 81 139.5 L 79.5 142 L 79 140.5 L 80.5 138 Z "/>
    <path fill="#ffffff" d="M 428.5 146 L 430.5 150 L 435 152.5 L 433.5 152 L 428 148.5 L 428.5 146 Z "/>
    <path fill="#ffffff" d="M 76.5 149 L 77 151.5 L 75.5 155 L 75 152.5 L 76.5 149 Z "/>
    <path fill="#ffffff" d="M 460.5 183 L 462 189.5 L 461 189.5 L 460.5 183 Z "/>
    <path fill="#ffffff" d="M 49.5 191 L 49 192.5 L 47.5 195 L 48 193.5 L 49.5 191 Z "/>
    <path fill="#ffffff" d="M 462.5 192 L 463 196.5 L 462 196.5 L 462.5 192 Z "/>
    <path fill="#ffffff" d="M 46.5 196 L 47 197.5 L 44.5 202 L 44 200.5 L 46.5 196 Z "/>
    <path fill="#ffffff" d="M 462.5 205 L 463 209.5 L 462 209.5 L 462.5 205 Z "/>
    <path fill="#ffffff" d="M 461.5 212 L 463 215.5 L 461 214.5 L 461.5 212 Z "/>
    <path fill="#ffffff" d="M 466.5 221 L 469 224.5 L 467 223.5 L 466.5 221 Z "/>
    <path fill="#ffffff" d="M 37.5 225 L 38 231.5 L 37 231.5 L 37.5 225 Z "/>
    <path fill="#ffffff" d="M 470.5 228 L 473 233.5 L 472 233.5 L 470.5 228 Z "/>
    <path fill="#ffffff" d="M 37.5 244 L 38 250.5 L 37 250.5 L 37.5 244 Z "/>
    <path fill="#ffffff" d="M 38.5 252 L 39 256.5 L 38 256.5 L 38.5 252 Z "/>
    <path fill="#ffffff" d="M 476.5 268 L 477 272.5 L 476 272.5 L 476.5 268 Z "/>
    <path fill="#ffffff" d="M 475.5 275 L 476 278.5 L 474.5 283 L 474 279.5 L 475.5 275 Z "/>
    <path fill="#ffffff" d="M 47.5 284 L 50 287.5 L 48 286.5 L 47.5 284 Z "/>
    <path fill="#ffffff" d="M 471.5 290 L 472 291.5 L 470.5 294 L 470 292.5 L 471.5 290 Z "/>
    <path fill="#ffffff" d="M 53.5 294 L 57 298.5 L 54 296.5 L 53.5 294 Z "/>
    <path fill="#ffffff" d="M 77.5 318 L 81 320.5 L 79.5 320 L 77.5 318 Z "/>
    <path fill="#ffffff" d="M 82.5 321 L 87 323.5 L 85.5 324 L 82.5 321 Z "/>
    <path fill="#ffffff" d="M 445.5 321 L 444.5 323 L 441.5 325 L 443.5 322 L 445.5 321 Z "/>
    <path fill="#ffffff" d="M 90.5 325 L 94 326.5 L 92.5 327 L 90.5 325 Z "/>
    <path fill="#ffffff" d="M 144.5 330 Q 148.3 329.3 149 331.5 L 148.5 335 L 148 331 Q 143.6 332 144.5 330 Z "/>
    <path fill="#ffffff" d="M 112.5 331 L 117 331.5 L 112.5 332 L 112.5 331 Z "/>
    <path fill="#ffffff" d="M 134.5 331 L 140 331.5 L 134.5 332 L 134.5 331 Z "/>
    <path fill="#ffffff" d="M 440.5 333 L 441 337.5 L 440 337.5 L 440.5 333 Z "/>
    <path fill="#ffffff" d="M 151.5 342 L 153 345.5 L 152 345.5 L 151.5 342 Z "/>
    <path fill="#ffffff" d="M 154.5 349 L 157 352.5 L 155 351.5 L 154.5 349 Z "/>
    <path fill="#ffffff" d="M 436.5 349 L 437 350.5 L 435.5 353 L 435 351.5 L 436.5 349 Z "/>
    <path fill="#ffffff" d="M 431.5 360 L 431 361.5 L 428.5 365 L 430 362.5 L 431.5 360 Z "/>
    <path fill="#ffffff" d="M 270.5 373 L 274 375.5 L 271.5 374 L 270.5 373 Z "/>
    <path fill="#ffffff" d="M 260.5 377 L 262 377.5 L 258.5 379 L 258.5 378 L 260.5 377 Z "/>
    <path fill="#ffffff" d="M 192.5 380 L 196 381.5 L 194.5 382 L 192.5 380 Z "/>
    <path fill="#ffffff" d="M 251.5 380 L 254 380.5 L 248.5 382 L 248.5 381 L 251.5 380 Z "/>
    <path fill="#ffffff" d="M 202.5 383 L 210 384.5 L 205.5 385 L 202.5 384 L 202.5 383 Z "/>
    <path fill="#ffffff" d="M 233.5 384 L 238 384.5 L 233.5 385 L 233.5 384 Z "/>
    <path fill="#ffffff" d="M 212.5 385 L 231 385.5 L 212.5 386 L 212.5 385 Z "/>
    <path fill="#ffffff" d="M 399.5 387 L 401 387.5 L 397.5 389 L 397.5 388 L 399.5 387 Z "/>
    <path fill="#ffffff" d="M 368.5 392 L 382 392.5 L 368.5 393 L 368.5 392 Z "/>
    <path fill="#ffffff" d="M 293.5 393 L 298 395.5 L 296.5 396 L 293.5 393 Z "/>
    <path fill="#ffffff" d="M 368.5 400 L 370 403.5 L 369 403.5 L 368.5 400 Z "/>
    <path fill="#ffffff" d="M 374.5 416 L 376 420.5 L 375 420.5 L 374.5 416 Z "/>
    <path fill="#ffffff" d="M 322.5 420 L 325 423.5 L 323 422.5 L 322.5 420 Z "/>
    <path fill="#ffffff" d="M 368.5 441 L 367.5 443 L 363.5 444 L 363.5 443 L 368.5 441 Z "/>
    <path fill="#ffffff" d="M 345.5 445 L 358 445.5 L 345.5 446 L 345.5 445 Z "/>
    <path fill="#ffd43b" d="M 456.5 229 L 459 232.5 L 456 230.5 L 456.5 229 Z "/>
    <path fill="#ffd43b" d="M 464.5 264 L 465 267.5 L 463.5 273 L 463 268.5 L 464.5 264 Z "/>
    <path fill="#ffd43b" d="M 436.5 311 L 435.5 313 L 433.5 314 L 434.5 312 L 436.5 311 Z "/>
    <path fill="#ffd43b" d="M 388.5 315 L 395 316.5 L 391.5 317 L 388.5 316 L 388.5 315 Z "/>
    <path fill="#ffd43b" d="M 353 316 L 357 317.5 L 353 318 L 353 316 Z "/>
    <path fill="#ffd43b" d="M 363.5 316 L 364.5 318 L 362.5 319 L 363 317.5 L 363.5 316 Z "/>
    <path fill="#ffd43b" d="M 406.5 317 L 411 317.5 L 406.5 318 L 406.5 317 Z "/>
    <path fill="#ffd43b" d="M 356.5 321 L 355.5 323 L 353.5 324 L 354.5 322 L 356.5 321 Z "/>
    <path fill="#ffd43b" d="M 340.5 328 L 342 328.5 L 338.5 330 L 338.5 329 L 340.5 328 Z "/>
    <path fill="#ffd43b" d="M 325.5 333 L 327 333.5 L 323.5 335 L 323.5 334 L 325.5 333 Z "/>
    <path fill="#ffd43b" d="M 318.5 335 L 320 335.5 L 315.5 337 L 315.5 336 L 318.5 335 Z "/>
    <path fill="#ff6b6b" d="M 169.5 178 Q 179.8 175.8 182 181.5 Q 183.5 189.5 178.5 191 L 168.5 193 L 165.5 196 Q 163.8 193.3 162 197.5 Q 162.8 199.8 160.5 199 L 156 206.5 L 156 212.5 L 160.5 222 L 163.5 224 L 172 228 L 173 232.5 L 168.5 239 L 162.5 239 L 156.5 237 L 147 227.5 L 144 222.5 L 142 214.5 L 142 206.5 Q 145 192.5 154.5 185 Q 160.4 179.9 169.5 178 Z "/>
    <path fill="#ff6b6b" d="M 349.5 192 Q 365.7 190.8 371 200.5 Q 376.5 205.5 375 217.5 Q 372.6 228.6 364.5 234 L 354.5 238 L 345.5 238 Q 336.4 235.5 332 228.5 L 330 213.5 L 336 200 L 339 198.5 Q 338.3 196.3 340.5 197 L 349.5 192 Z "/>
    <path fill="#ffa94d" d="M 290.5 79 L 307.5 79 L 317.5 81 L 332.5 88 L 342 95 L 343.5 98 Q 345.8 97.3 345 99.5 L 349.5 105 L 354.5 107 L 355.5 106 L 372.5 106 L 390 112 Q 388.9 114.7 391.5 114 L 399 119 Q 397.9 121.7 400.5 121 L 405 128 Q 407.7 126.9 407 129.5 L 417 149.5 L 416 152.5 L 421.5 160 Q 431.8 164.2 439 171.5 Q 438.3 173.8 440.5 173 L 449 187.5 Q 447.2 193.8 450 195.5 L 449 197.5 L 450 201.5 L 450 203.5 L 449 205.5 L 449 209.5 L 448 213.5 L 448 217.5 L 450.5 222 Q 452.8 221.3 452 223.5 L 461 237.5 L 460 239.5 L 462 241.5 L 464 250.5 L 463 252.5 Q 466.5 254 464 255.5 L 465 257.5 L 464 260.5 L 465 263.5 Q 461.9 267.9 463 276.5 L 461 278.5 L 462 280.5 L 455 297 L 452 298.5 L 452 300.5 L 447.5 305 L 442.5 309 L 441 308.5 L 439.5 311 L 438 310.5 L 437.5 312 L 435.5 312 L 425.5 316 L 414.5 317 L 413.5 318 L 410.5 317 L 402.5 318 L 397.5 316 L 395.5 317 L 388.5 315 L 385.5 316 L 381.5 314 L 379.5 315 L 375.5 314 L 373.5 314 L 367 315 Q 368.3 318 364.5 317 L 363 316.5 L 361.5 319 L 352.5 324 L 349 324 L 349 326 Q 343.8 324.3 345 328 L 340.5 328 L 330.5 333 L 329 332.5 Q 329.8 334.8 327.5 334 L 325.5 333 L 320.5 336 L 318.5 335 L 313.5 338 Q 307.4 337.4 304.5 340 L 302.5 340 L 284.5 352 L 280.5 353 L 275.5 357 L 259.5 365 Q 253.9 364.4 252.5 368 L 248.5 368 L 237.5 372 Q 232 370.5 230.5 373 L 228.5 373 L 213.5 373 Q 212 370.5 206.5 372 L 202.5 370 L 200.5 370 Q 181.6 364.9 171 351.5 L 162 336.5 L 160 321.5 L 160 319.5 Q 164.9 295.9 181.5 284 L 194.5 275 L 206.5 269 L 211.5 268 L 213.5 266 L 229.5 262 L 232.5 260 L 243.5 259 L 246.5 257 L 248.5 257 L 265.5 253 L 267.5 253 Q 275.8 252.8 280.5 249 L 282.5 249 L 294.5 245 L 309 236.5 L 310 230.5 L 309 228 Q 306.6 226.3 300.5 227 L 278.5 238 L 274.5 238 L 268.5 241 Q 259.9 240.9 254.5 244 L 252.5 244 L 226.5 249 L 203.5 257 L 185.5 266 L 168 279 L 157 292.5 L 148 314.5 L 149 317 L 130.5 320 L 128.5 320 Q 123 321.5 121.5 319 L 118.5 320 Q 84.4 315.6 68 293.5 L 57 275.5 L 50 250.5 L 50 248.5 L 50 227.5 L 51 226.5 L 51 224.5 L 52 216.5 L 54 214.5 Q 54.2 206.2 58 201.5 Q 65.2 188.2 76.5 179 L 82.5 175 L 86 170.5 L 87 159.5 L 91 145.5 L 102 128 L 107 124.5 Q 106.3 122.3 108.5 123 L 112 121 Q 110.8 118 114.5 119 L 126.5 112 L 130.5 112 L 138.5 109 L 140.5 109 L 156.5 109 L 157.5 110 L 162.5 109 L 166 106.5 L 175.5 95 L 180 93 Q 178.9 90.3 181.5 91 L 191.5 85 L 203.5 81 L 225.5 80 Q 227 82.5 232.5 81 L 235.5 83 L 237.5 83 L 245.5 85 Q 250.3 89.7 258.5 91 L 275.5 82 L 290.5 79 Z M 170 178 Q 160 180 155 185 Q 145 193 142 207 L 142 215 L 144 223 L 147 228 L 157 237 L 163 239 L 169 239 L 173 233 L 172 228 L 164 224 L 161 222 L 156 213 L 156 207 L 161 199 Q 163 200 162 198 Q 164 193 166 196 L 169 193 L 179 191 Q 184 190 182 182 Q 180 176 170 178 Z M 350 192 L 341 197 Q 338 196 339 199 L 336 200 L 330 214 L 332 229 Q 336 236 346 238 L 355 238 L 365 234 Q 373 229 375 218 Q 377 206 371 201 Q 366 191 350 192 Z M 353 316 L 353 318 L 357 318 L 353 316 Z "/>
    <path fill="#ffa94d" d="M 373.5 327 L 390.5 328 L 397.5 330 L 418.5 330 L 421.5 329 L 428 328 Q 429.6 335.4 426 338.5 L 426 342.5 Q 422.9 353.1 417 360 Q 414.3 358.9 415 361.5 Q 408.5 370 398.5 375 L 380.5 380 L 378.5 380 L 369.5 380 L 362.5 378 L 360.5 378 L 345.5 372 L 330 358.5 L 325 351.5 L 325 347.5 L 328.5 346 L 335.5 345 L 337.5 343 L 346.5 341 L 357.5 335 L 358.5 336 L 361.5 333 L 373.5 327 Z "/>
    <path fill="#ffa94d" d="M 311.5 351 L 315 358.5 L 325 372 L 337.5 382 L 351 388 L 359 412.5 L 363 420.5 L 363 422.5 L 365 428.5 Q 360.5 434 350.5 434 L 347.5 432 L 345.5 433 L 341 428.5 L 336 417.5 L 325 401 L 322 399.5 L 316.5 393 L 293.5 379 L 285 370.5 L 284 366.5 L 299 358 Q 297.9 355.3 300.5 356 L 306.5 352 L 311.5 351 Z "/>
  </g>
  <g id="line">
    <path fill="#1a1a1a" d="M 295.5 66 L 312.5 67 L 328.5 72 Q 346.1 79.9 357.5 94 L 362.5 94 L 365.5 93 L 366.5 94 L 376.5 94 L 396.5 102 L 414 117.5 L 422 129.5 L 428 144.5 L 428 148.5 L 430.5 151 Q 444.4 156.1 452 167.5 Q 463 180.5 463 204.5 L 461 214.5 Q 469.8 223.7 474 237.5 L 477 252.5 L 477 267.5 L 473 287.5 L 468 298.5 Q 461.8 310.3 451.5 318 L 441 324.5 Q 439.1 359.6 418.5 376 Q 408.4 385.4 393.5 390 L 383.5 392 L 365 392 L 376 421.5 L 377 431.5 L 374 438 L 359.5 445 L 343.5 445 Q 335.4 442.1 331 435.5 Q 321.7 413.3 304.5 399 Q 290 393.5 280 383.5 L 271.5 373 Q 257 380.5 238.5 384 Q 233.7 382.7 232.5 385 L 210.5 385 Q 177 379.5 160 357.5 L 153 346.5 L 150 339.5 L 149 331.5 L 147.5 330 L 134.5 331 L 133.5 332 L 117.5 332 L 100.5 329 L 89.5 325 Q 71.7 317.3 60 303.5 L 47 283.5 L 42 270.5 L 38 251.5 L 37 232.5 L 38 231.5 L 40 213.5 L 47 195.5 Q 55.1 180.6 67.5 170 L 74 166 L 75 155.5 L 81 137.5 Q 88 123.5 99.5 114 Q 108.7 105.7 121.5 101 L 136.5 97 L 153.5 96 L 156.5 97 L 159 96 L 159 94.5 L 169.5 84 Q 181.1 75.1 196.5 70 L 207.5 69 L 208.5 68 L 227.5 68 L 228.5 69 L 239.5 70 L 258.5 77 L 272.5 70 L 284.5 67 L 294.5 67 L 295.5 66 Z M 289 79 L 273 83 L 261 90 L 255 90 L 246 85 L 226 80 L 211 80 L 200 82 Q 184 87 174 97 Q 175 99 173 98 L 168 104 L 163 109 L 139 109 L 130 111 Q 117 115 108 123 Q 97 132 91 146 L 88 155 L 87 167 L 85 173 L 79 177 Q 56 193 50 226 L 50 251 L 52 261 L 57 276 L 68 294 Q 76 304 87 310 L 103 317 L 118 320 L 133 320 L 149 317 L 150 308 L 160 289 Q 176 269 202 258 L 228 249 L 279 238 L 301 227 Q 307 226 309 228 L 310 231 L 309 237 L 295 245 L 284 249 L 261 255 L 233 260 L 214 266 L 195 275 L 182 284 Q 165 296 160 319 L 161 334 L 169 350 Q 177 359 188 365 L 202 371 L 213 373 L 231 373 L 253 368 L 275 358 L 303 340 Q 342 333 370 315 L 384 315 L 392 317 L 401 317 L 402 318 L 416 318 L 417 317 L 428 316 L 446 307 Q 454 300 459 290 L 465 268 L 465 254 L 462 241 L 459 233 L 449 220 L 448 216 L 450 209 L 450 193 L 449 188 L 442 175 L 429 163 L 422 160 L 418 157 L 417 150 L 409 132 L 403 124 Q 395 114 384 109 L 373 106 L 352 106 L 345 100 Q 346 97 344 98 L 342 95 L 328 85 L 318 81 L 309 79 L 289 79 Z M 373 327 L 346 341 L 324 347 L 325 352 L 330 359 Q 338 369 351 375 L 362 379 Q 368 377 370 380 L 388 379 L 399 375 L 407 370 Q 417 362 423 351 L 428 338 L 428 328 L 418 330 L 402 330 L 401 329 L 373 327 Z M 310 351 L 306 352 Q 296 361 283 366 L 285 371 L 298 382 Q 309 386 317 393 Q 332 407 341 429 L 346 433 L 351 434 L 359 433 L 365 429 L 351 389 L 333 378 Q 320 368 312 353 Q 313 350 310 351 Z "/>
  </g>
</svg>
