<svg xmlns="http://www.w3.org/2000/svg" width="512" height="512" viewBox="0 0 512 512">
  <g id="color">
    <path fill="#ffffff" d="M 252.5 40 L 253 44.5 L 251 45.5 L 252.5 40 Z "/>
    <path fill="#ffffff" d="M 260.5 40 L 262 45.5 L 260 44.5 L 260.5 40 Z "/>
    <path fill="#ffffff" d="M 266.5 47 L 271 49.5 L 269.5 49 Q 265.8 48.7 266.5 47 Z "/>
    <path fill="#ffffff" d="M 235.5 56 L 234 58.5 L 233.5 60 L 233 58.5 L 235.5 56 Z "/>
    <path fill="#ffffff" d="M 277.5 56 L 280 59.5 L 279 59.5 L 277.5 56 Z "/>
    <path fill="#ffffff" d="M 230.5 69 L 229.5 71 L 226 70.5 L 230.5 69 Z "/>
    <path fill="#ffffff" d="M 224.5 71 L 224 72.5 L 223.5 76 L 223 72.5 L 224.5 71 Z "/>
    <path fill="#ffffff" d="M 288.5 71 Q 290.8 71.8 290 75.5 L 287 77.5 Q 289.8 76.7 289 72.5 L 288.5 71 Z "/>
    <path fill="#ffffff" d="M 225.5 77 L 229 78 L 229 106.5 L 227.5 108 L 228 106.5 L 228 79.5 L 226.5 79 L 225.5 77 Z "/>
    <path fill="#ffffff" d="M 284.5 78 L 285 105.5 L 284 105.5 L 284.5 78 Z "/>
    <path fill="#ffffff" d="M 293.5 113 L 296 118.5 L 295 118.5 L 293.5 113 Z "/>
    <path fill="#ffffff" d="M 218.5 114 L 219 115.5 L 218 116.5 L 218 125.5 L 215.5 128 L 214 127.5 L 217 125.5 Q 215.3 117.3 218.5 114 Z "/>
    <path fill="#ffffff" d="M 204.5 131 L 206 131.5 L 199.5 135 L 200.5 133 L 204.5 131 Z "/>
    <path fill="#ffffff" d="M 308.5 131 L 314 134.5 L 312.5 134 Q 308.5 133.5 308.5 131 Z "/>
    <path fill="#ffffff" d="M 319.5 137 L 323 139.5 L 321.5 139 L 319.5 137 Z "/>
    <path fill="#ffffff" d="M 360.5 177 L 363 180.5 L 361 179.5 L 360.5 177 Z "/>
    <path fill="#ffffff" d="M 151.5 179 L 151 180.5 L 149.5 183 L 150 181.5 L 151.5 179 Z "/>
    <path fill="#ffffff" d="M 140.5 202 L 141 204.5 L 139.5 207 L 139 205.5 L 140.5 202 Z "/>
    <path fill="#ffffff" d="M 377.5 221 L 378 226.5 L 377 226.5 L 377.5 221 Z "/>
    <path fill="#ffffff" d="M 135.5 223 L 136 228.5 L 135 228.5 L 135.5 223 Z "/>
    <path fill="#ffffff" d="M 378.5 229 L 379 234 L 382 234.5 L 379.5 235 Q 376.6 233.6 378.5 229 Z "/>
    <path fill="#ffffff" d="M 134.5 231 L 135 233.5 L 131.5 235 L 131.5 234 Q 135.5 235.1 134.5 231 Z "/>
    <path fill="#ffffff" d="M 122.5 237 L 120 240.5 L 117.5 248 L 117 244.5 L 122.5 237 Z "/>
    <path fill="#ffffff" d="M 390.5 237 L 395 242.5 L 393 241.5 L 390.5 237 Z "/>
    <path fill="#ffffff" d="M 117.5 253 L 119 257.5 L 118 257.5 L 117.5 253 Z "/>
    <path fill="#ffffff" d="M 125.5 264 L 129 265.5 L 129 282.5 L 127.5 284 L 126 283.5 L 128 283 L 128 265.5 L 125.5 265 L 125.5 264 Z "/>
    <path fill="#ffffff" d="M 384.5 265 L 385 281.5 L 384 281.5 L 384.5 265 Z "/>
    <path fill="#ffffff" d="M 117.5 285 L 120 285.5 L 114.5 287 L 114.5 286 L 117.5 285 Z "/>
    <path fill="#ffffff" d="M 393.5 285 L 399 286.5 L 396.5 287 L 393.5 286 L 393.5 285 Z "/>
    <path fill="#ffffff" d="M 397.5 315 L 398 319.5 L 397 319.5 L 397.5 315 Z "/>
    <path fill="#ffffff" d="M 123.5 328 L 124 345.5 L 123 345.5 L 123.5 328 Z "/>
    <path fill="#ffffff" d="M 389.5 328 L 390 336.5 L 389 336.5 L 389.5 328 Z "/>
    <path fill="#ffffff" d="M 390.5 354 L 391 375.5 L 390 375.5 L 390.5 354 Z "/>
    <path fill="#ffffff" d="M 122.5 359 L 123 380.5 L 122 380.5 L 122.5 359 Z "/>
    <path fill="#ffffff" d="M 391.5 399 L 392 410.5 L 391 410.5 L 391.5 399 Z "/>
    <path fill="#ffffff" d="M 415.5 430 L 416 435.5 L 415 435.5 L 415.5 430 Z "/>
    <path fill="#ffffff" d="M 97.5 431 L 98 439.5 L 94.5 441 L 94.5 440 L 97 439.5 L 97.5 431 Z "/>
    <path fill="#ffffff" d="M 415.5 438 L 416 440 L 419 440.5 L 416.5 441 L 415.5 438 Z "/>
    <path fill="#ffffff" d="M 420.5 441 L 425 441.5 L 420.5 442 L 420.5 441 Z "/>
    <path fill="#ffffff" d="M 81.5 445 L 80 447.5 L 79.5 449 L 79 447.5 L 81.5 445 Z "/>
    <path fill="#ffffff" d="M 79.5 467 L 83 472.5 L 80 470.5 L 79.5 467 Z "/>
    <path fill="#ffffff" d="M 433.5 468 L 434 469.5 Q 431.6 475.1 423.5 475 L 423.5 474 Q 431.4 474.9 433 469.5 L 433.5 468 Z "/>
    <path fill="#ffffff" d="M 91.5 475 L 132 475.5 L 91.5 476 L 91.5 475 Z "/>
    <path fill="#ffffff" d="M 360.5 475 L 404 475.5 L 360.5 476 L 360.5 475 Z "/>
    <path fill="#ffffff" d="M 159.5 476 L 188 476.5 L 159.5 477 L 159.5 476 Z "/>
    <path fill="#ffffff" d="M 280.5 476 L 325 476.5 L 280.5 477 L 280.5 476 Z "/>
    <path fill="#4da3ff" d="M 255.5 54 L 262.5 55 L 269 59.5 Q 268.3 61.8 270.5 61 Q 273.7 63.7 273 69 L 241.5 69 L 240.5 70 L 240 67.5 Q 241.1 60.1 246.5 57 L 255.5 54 Z "/>
    <path fill="#4da3ff" d="M 229.5 116 L 283.5 116 L 286 117 L 287 122 L 272.5 121 L 271.5 120 L 252.5 119 L 251.5 120 L 240.5 120 L 239.5 121 L 227.5 122 Q 224.8 120.8 227 119.5 Q 225.9 116.2 228.5 117 L 229.5 116 Z "/>
    <path fill="#4da3ff" d="M 251.5 129 L 263.5 130 L 267 133.5 L 275 148.5 L 282 172.5 L 286 203.5 L 287 204.5 L 287 212.5 L 288 213.5 L 288 233 L 225.5 233 L 225 232.5 L 225 219.5 L 226 218.5 L 227 198.5 L 229 191.5 L 230 178.5 L 235 162.5 L 236 154.5 L 239 150.5 L 239 147.5 L 243 138.5 L 249.5 130 L 251.5 129 Z "/>
    <path fill="#4da3ff" d="M 230.5 132 Q 234.3 131.3 235 133.5 L 226 152.5 L 219 181.5 L 219 188.5 L 216 205.5 L 216 220.5 L 214 231.5 L 214.5 233 L 209.5 234 L 207.5 234 L 159.5 234 L 154.5 233 L 150.5 234 L 144 233 L 146 215.5 L 151 199.5 L 164 176 L 166 175.5 L 165 174.5 L 169 170.5 L 171 167.5 L 181.5 157 L 186 155 Q 184.9 152.3 187.5 153 L 197.5 145 L 207.5 140 L 230.5 132 Z M 191 182 L 185 184 Q 179 188 176 196 Q 175 205 179 210 L 181 213 L 186 216 Q 190 215 192 217 L 198 216 L 200 214 Q 202 215 201 212 L 203 212 L 207 205 Q 209 193 203 188 Q 199 182 191 182 Z "/>
    <path fill="#4da3ff" d="M 279 132 L 293.5 135 L 313.5 144 L 330.5 156 L 342 167.5 L 344 170.5 L 348 174.5 L 360 194.5 L 368 219.5 L 369 233 L 299.5 233 Q 298.5 233 299 228.5 L 298 227.5 L 298 213.5 L 297 212.5 L 296 195.5 L 293 182.5 L 293 176.5 L 288 158.5 L 288 154.5 L 279 132 Z M 320 182 L 314 184 L 309 190 Q 310 192 307 191 L 306 195 L 306 205 L 311 213 L 321 217 L 329 215 Q 335 211 337 204 L 337 195 L 333 187 L 327 183 L 320 182 Z "/>
    <path fill="#4da3ff" d="M 136.5 243 L 137.5 244 L 234.5 244 L 236.5 244 L 246.5 244 L 247.5 243 L 248.5 244 L 256.5 244 Q 258 241.5 263.5 243 Q 265 245.5 270.5 244 L 271.5 243 L 292.5 243 L 295.5 244 L 298.5 243 L 300.5 244 L 301.5 243 L 353.5 243 L 356.5 244 L 373.5 243 L 374.5 244 L 383.5 244 L 387 246 L 387 253.5 L 385.5 254 L 381.5 257 Q 380.3 254.8 375.5 256 L 374.5 257 L 364.5 257 L 360.5 256 L 359.5 257 L 291.5 257 L 263.5 249 L 249.5 249 L 221.5 257 L 177.5 257 L 175.5 257 L 151.5 257 L 150.5 256 L 149.5 257 L 137.5 257 Q 135.8 254.3 129.5 256 L 126 252.5 L 126 250.5 Q 124.1 245.1 127.5 246 L 129.5 244 Q 135 245.5 136.5 243 Z "/>
    <path fill="#4da3ff" d="M 251.5 259 L 262.5 259 L 270.5 261 L 273.5 263 L 284.5 265 L 313.5 274 L 317.5 274 L 351.5 284 L 355.5 284 L 361.5 287 L 373.5 289 L 388.5 294 L 392.5 294 L 400.5 298 L 402.5 297 L 405 301 L 399.5 302 L 358.5 302 L 356.5 302 L 107 301.5 L 108 298 Q 112.3 299 113.5 296 L 115.5 296 L 122.5 295 L 150.5 286 L 158.5 285 L 169.5 281 L 173.5 281 L 180.5 278 L 192.5 276 L 209.5 270 L 215.5 270 L 218.5 268 L 236.5 264 L 251.5 259 Z "/>
    <path fill="#4da3ff" d="M 138.5 266 L 146.5 267 L 148.5 266 L 149.5 267 L 176.5 267 L 178 268.5 L 176.5 269 L 175 268.5 Q 175.9 271.9 170.5 270 L 148.5 277 L 138 278 L 137 267.5 L 138.5 266 Z "/>
    <path fill="#4da3ff" d="M 349.5 266 L 351.5 267 L 363.5 267 L 368.5 266 L 370.5 267 L 373.5 266 L 376 268.5 L 376 278 L 369.5 278 L 346.5 271 L 338.5 270 L 333 267.5 L 348.5 267 L 349.5 266 Z "/>
    <path fill="#4da3ff" d="M 127.5 312 L 132.5 313 L 133.5 312 L 145.5 312 L 147.5 313 L 149 312.5 L 148 319 L 144.5 320 L 128 320 Q 129.1 316.7 125 318 L 125 313 L 127.5 312 Z "/>
    <path fill="#4da3ff" d="M 172.5 312 L 175.5 313 Q 176.8 310.7 181.5 312 L 183.5 312 Q 190.8 310.8 193 314.5 Q 195.2 320.8 189.5 319 L 188.5 320 L 173.5 320 L 171 319 L 170 314.5 L 172.5 312 Z "/>
    <path fill="#4da3ff" d="M 221.5 312 L 225.5 313 L 226.5 312 L 235.5 312 L 238.5 313 Q 240.2 310.3 242 314.5 Q 242.8 319.3 239.5 320 L 223.5 320 L 219 317.5 L 221.5 312 Z "/>
    <path fill="#4da3ff" d="M 254.5 312 Q 261.8 309.4 260 315.5 L 263 326 L 269 329 L 268 333.5 L 269 336.5 L 268 337.5 L 268 369.5 L 267 370.5 L 267 407.5 L 266 411 L 263 412.5 L 261 419 L 252.5 419 L 252 417.5 L 246 409.5 L 246 374.5 L 245 373.5 L 245 338.5 L 244 337.5 Q 246.3 336.3 245 331.5 L 244 330.5 L 247.5 327 L 250 325.5 Q 252.8 322.8 252 316.5 L 254.5 312 Z "/>
    <path fill="#4da3ff" d="M 272.5 312 L 292.5 312 L 294 313.5 Q 295 319 291.5 320 L 273.5 320 L 271 317.5 L 270 313.5 L 272.5 312 Z "/>
    <path fill="#4da3ff" d="M 305 312 L 309 312 L 309 320.5 L 313.5 328 L 317 329 L 317 360.5 L 316 364.5 L 316 366.5 L 317 368.5 L 316 369.5 L 316 407.5 L 313.5 412 Q 311.3 411.3 312 413.5 L 307.5 419 Q 303.1 420.5 304 417.5 Q 302.7 411.8 298 409.5 L 298 363.5 L 297 362.5 L 297 335.5 L 296 334.5 L 297 331.5 L 296 329 L 302 325.5 Q 306 320.7 305 312 Z "/>
    <path fill="#4da3ff" d="M 321.5 312 L 341.5 312 L 343 313.5 Q 344.9 318.9 341.5 318 L 339.5 320 L 331.5 320 L 330.5 321 Q 329 318.5 323.5 320 L 319 316.5 Q 318.5 312.5 321.5 312 Z "/>
    <path fill="#4da3ff" d="M 366.5 312 L 383.5 312 L 385.5 313 Q 387.2 310.3 389 314.5 L 385.5 320 L 368.5 320 L 365 317.5 Q 364 313 366.5 312 Z "/>
    <path fill="#4da3ff" d="M 204.5 313 Q 210.6 311.2 208 318.5 L 212 328 L 217 329 L 217 335.5 L 216 336.5 L 216 372.5 L 215 373.5 L 216 376.5 L 215 377.5 L 215 409.5 Q 210 412.8 209 419 Q 204.3 420 203 416.5 L 199.5 411 Q 196.5 411.5 198 404.5 L 197 403.5 L 197 360.5 L 196 359.5 L 196 329 L 201 326.5 L 205 314.5 L 204.5 313 Z "/>
    <path fill="#4da3ff" d="M 353.5 317 L 356 324.5 L 361.5 330 L 363 330.5 L 363 332.5 L 361 411 L 353.5 417 L 348.5 411 L 347 410.5 L 347 380.5 L 346 379.5 L 345 329.5 L 351 324.5 L 353.5 317 Z "/>
    <path fill="#4da3ff" d="M 159.5 318 L 162 326 L 168 329.5 L 167 393.5 L 166 394.5 L 166 410.5 L 163.5 413 Q 161.3 412.3 162 414.5 L 158 417 L 152 408.5 L 152 374.5 L 151 372.5 L 152 370.5 L 151 369.5 L 151 333.5 L 150 331.5 L 151 329 L 157 324.5 L 159.5 318 Z "/>
    <path fill="#4da3ff" d="M 229.5 330 L 234 331 L 235 335.5 L 235 370.5 L 236 371.5 L 236 406.5 L 237 407.5 L 225 408 L 226 333.5 L 227 331 L 229.5 330 Z "/>
    <path fill="#4da3ff" d="M 280.5 330 L 286 331 L 287 333.5 L 288 408 L 277.5 408 L 277 407.5 L 277 374.5 L 278 373.5 L 278 332.5 L 280.5 330 Z "/>
    <path fill="#4da3ff" d="M 329.5 330 Q 334.3 329.3 335 332.5 L 337 408 L 328.5 408 L 327.5 407 L 325 408 L 325 396.5 L 326 395.5 L 326 364.5 L 327 363.5 L 327 332.5 L 329.5 330 Z "/>
    <path fill="#4da3ff" d="M 133 331 L 140 331 L 140 333.5 L 141 335.5 L 140 339.5 L 141 340.5 L 142 406.5 L 140.5 408 L 131 408 L 131 362.5 L 132 361.5 L 132 359.5 L 132 334.5 L 133 331 Z "/>
    <path fill="#4da3ff" d="M 179.5 331 Q 184.8 329.8 186 332.5 L 186 360.5 L 187 361.5 L 187 363.5 L 187 384.5 L 188 388.5 L 187 391.5 L 188 392.5 L 188 408 L 177.5 408 L 177 406.5 L 176 405.5 L 176 386.5 L 177 384.5 L 177 382.5 L 177 349.5 L 178 348.5 L 178 332.5 L 179.5 331 Z "/>
    <path fill="#4da3ff" d="M 373 331 L 380.5 331 L 381 331.5 L 381 360.5 L 382 362.5 L 382 364.5 L 382 399.5 L 383 400.5 Q 380.8 401.8 382 406.5 L 382.5 408 L 371 408 L 371 382.5 L 372 381.5 L 372 346.5 L 373 345.5 L 372 343.5 L 373 342.5 L 373 331 Z "/>
    <path fill="#4da3ff" d="M 181.5 418 L 186 418.5 L 181.5 419 L 181.5 418 Z "/>
    <path fill="#4da3ff" d="M 280.5 418 L 288 418.5 L 280.5 419 L 280.5 418 Z "/>
    <path fill="#4da3ff" d="M 110.5 429 L 185.5 429 L 186.5 430 L 187.5 429 L 197.5 429 L 198.5 430 L 216.5 430 L 219.5 429 L 221.5 430 L 226.5 429 L 227.5 430 L 238.5 430 L 241.5 429 L 245.5 430 L 248.5 429 L 250.5 430 L 265.5 430 L 268.5 429 L 291.5 429 L 295.5 430 L 296.5 429 L 402.5 429 L 406 431 L 407 437.5 L 405.5 439 L 137.5 440 L 135.5 439 Q 133.8 441.8 127.5 440 L 126.5 439 L 107 439 Q 106.1 432.8 108 430 L 110.5 429 Z "/>
    <path fill="#4da3ff" d="M 249.5 449 L 279.5 450 L 280.5 449 L 391.5 449 L 392.5 450 L 421.5 450 L 426 452.5 L 426 463.5 L 424.5 464 L 422.5 466 L 358.5 466 L 354.5 467 L 352.5 467 L 349.5 466 L 348.5 467 L 293.5 467 L 292.5 468 L 291.5 467 L 276.5 467 L 275.5 468 L 192.5 468 L 190.5 468 L 185.5 467 L 152.5 467 L 151.5 466 L 150.5 467 L 137.5 467 L 134.5 466 L 132.5 466 L 106.5 466 L 105.5 467 L 104.5 466 L 90.5 466 L 88 465 Q 86.1 460.9 87 452.5 L 91.5 450 L 248.5 450 L 249.5 449 Z "/>
    <path fill="#ffd43b" d="M 236 78 L 242.5 78 L 243 78.5 L 243 107 L 236.5 107 L 236 106.5 L 236 78 Z "/>
    <path fill="#ffd43b" d="M 250 78 L 263 78 L 263 107 L 250 107 L 250 78 Z "/>
    <path fill="#ffd43b" d="M 271.5 78 Q 276.9 77.4 277 78.5 L 277 107 Q 271.6 108.5 270 105.5 L 270 79.5 L 271.5 78 Z "/>
    <path fill="#ffd43b" d="M 189.5 191 Q 196.4 190.1 198 194.5 L 199 201.5 L 195.5 207 L 189.5 208 L 187 207 L 184 198.5 L 187.5 192 L 189.5 191 Z "/>
    <path fill="#ffd43b" d="M 319.5 191 Q 325.3 190.2 327 193.5 L 329 200.5 L 325.5 207 L 319.5 208 L 316 205.5 L 314 198.5 L 317.5 192 L 319.5 191 Z "/>
    <path fill="#66d9e8" d="M 251.5 53 Q 259.8 51.8 264.5 54 L 273 61.5 L 275 69.5 L 273.5 71 L 239.5 71 L 238 67.5 Q 239.6 58.6 246.5 55 L 251.5 53 Z M 256 54 L 247 57 Q 241 60 240 68 L 242 69 L 273 69 Q 274 64 271 61 Q 268 62 269 60 L 263 55 L 256 54 Z "/>
    <path fill="#66d9e8" d="M 230.5 114 L 282.5 114 L 288 117.5 L 289 122.5 Q 288 125 283.5 124 L 267.5 121 L 245.5 121 L 244.5 122 L 237.5 122 L 225 124 Q 223.8 117.5 227.5 115 L 230.5 114 Z M 230 116 L 229 117 Q 226 116 227 120 Q 225 121 228 122 L 240 121 L 241 120 L 252 120 L 253 119 L 272 120 L 273 121 L 287 122 L 286 117 L 284 116 L 230 116 Z "/>
    <path fill="#66d9e8" d="M 249.5 128 L 262.5 128 L 268 132.5 L 277 149.5 L 284 174.5 L 287 198.5 L 288 199.5 L 288 206.5 L 289 207.5 L 290 233.5 L 288.5 235 L 224.5 235 L 223 233.5 L 223 223.5 L 224 222.5 L 224 211.5 L 225 210.5 L 227 186.5 L 233 159.5 L 243 135.5 L 249.5 128 Z M 252 129 L 250 130 Q 247 131 249 133 L 248 132 L 240 145 L 232 170 L 227 199 L 227 209 L 225 220 L 225 233 L 226 233 L 288 233 L 288 214 L 287 213 L 287 205 L 286 204 L 282 173 L 275 149 L 267 134 L 264 130 L 252 129 Z "/>
    <path fill="#66d9e8" d="M 232.5 130 L 238 130.5 L 230 146.5 L 222 175.5 L 220 193.5 L 219 194.5 L 218 211.5 L 217 212.5 L 217 226.5 L 216 227.5 L 216 235 L 143.5 235 L 142 233.5 L 146 208.5 L 156 185.5 Q 166.6 168.1 181.5 155 Q 201.6 137.1 232.5 130 Z M 231 132 L 208 140 L 198 145 L 188 153 Q 185 152 186 155 L 182 157 L 171 168 L 169 171 L 165 175 L 166 176 L 164 176 L 151 200 L 146 216 L 144 233 L 151 234 L 155 233 L 160 234 L 208 234 L 210 234 L 215 233 L 214 232 L 216 221 L 216 206 L 219 189 L 219 182 L 226 153 L 235 134 Q 234 131 231 132 Z "/>
    <path fill="#66d9e8" d="M 275.5 130 L 280.5 130 L 292.5 133 L 316.5 144 Q 332.8 154.2 345 168.5 Q 355.9 181.1 363 197.5 L 369 216.5 L 371 233.5 L 369.5 235 L 298.5 235 L 297 233.5 L 296 209.5 L 295 208.5 L 294 192.5 L 293 191.5 L 291 174.5 L 285 151.5 L 275.5 130 Z M 279 132 L 288 155 L 288 159 L 293 177 L 293 183 L 296 196 L 297 213 L 298 214 L 298 228 L 299 229 Q 298 233 300 233 L 369 233 L 368 220 L 360 195 L 348 175 L 344 171 L 342 168 L 331 156 L 314 144 L 294 135 L 279 132 Z "/>
    <path fill="#66d9e8" d="M 190.5 182 Q 199.1 182.4 203 187.5 Q 208.5 192.5 207 204.5 L 203 212 L 201 212 Q 202.1 214.7 199.5 214 L 197.5 216 L 191.5 217 Q 190.3 214.7 185.5 216 L 181 212.5 L 179 209.5 Q 175 205 176 195.5 Q 178.6 188.1 184.5 184 L 190.5 182 Z M 189 184 L 186 185 L 178 195 Q 176 204 180 209 Q 182 214 189 215 Q 196 216 200 213 Q 205 209 206 202 Q 206 192 201 188 Q 198 183 189 184 Z "/>
    <path fill="#66d9e8" d="M 319.5 182 L 326.5 183 L 333 187 L 337 194.5 L 337 203.5 Q 334.9 211.4 328.5 215 L 320.5 217 L 311 213 L 306 204.5 L 306 194.5 L 307 191 Q 309.7 192.1 309 189.5 L 313.5 184 L 319.5 182 Z M 319 184 L 316 185 Q 309 189 307 199 L 309 208 Q 312 213 319 215 Q 325 216 329 213 Q 334 209 336 202 Q 337 194 333 191 Q 330 183 319 184 Z "/>
    <path fill="#66d9e8" d="M 129.5 242 L 383.5 242 L 388 245.5 L 389 252.5 L 385.5 257 L 383.5 258 L 312.5 258 L 310.5 259 L 308.5 258 L 305.5 259 L 303.5 258 L 302.5 259 L 294.5 259 L 276.5 255 L 265.5 251 L 253.5 250 L 220.5 259 L 213.5 259 L 212.5 258 L 129.5 258 L 125 254.5 L 125 245.5 L 127.5 243 L 129.5 242 Z M 137 243 Q 135 246 130 244 L 128 246 Q 124 245 126 251 L 126 253 L 130 256 Q 136 254 138 257 L 150 257 L 151 256 L 152 257 L 176 257 L 178 257 L 222 257 L 250 249 L 264 249 L 292 257 L 360 257 L 361 256 L 365 257 L 375 257 L 376 256 Q 380 255 382 257 L 386 254 L 387 254 L 387 246 L 384 244 L 375 244 L 374 243 L 357 244 L 354 243 L 302 243 L 301 244 L 299 243 L 296 244 L 293 243 L 272 243 L 271 244 Q 265 246 264 243 Q 258 242 257 244 L 249 244 L 248 243 L 247 244 L 237 244 L 235 244 L 138 244 L 137 243 Z "/>
    <path fill="#66d9e8" d="M 252.5 257 L 261.5 257 L 269.5 259 L 276.5 262 L 305.5 269 L 327.5 276 L 383.5 290 L 394.5 294 L 402.5 295 L 407 298.5 L 408 301.5 L 406.5 303 L 108.5 304 L 106 303 Q 104.8 297.5 108.5 296 L 252.5 257 Z M 252 259 L 237 264 L 219 268 L 216 270 L 210 270 L 193 276 L 181 278 L 174 281 L 170 281 L 159 285 L 151 286 L 123 295 L 116 296 L 114 296 Q 112 299 108 298 L 107 302 L 357 302 L 359 302 L 400 302 L 405 301 L 403 297 L 401 298 L 393 294 L 389 294 L 374 289 L 362 287 L 356 284 L 352 284 L 318 274 L 314 274 L 285 265 L 274 263 L 271 261 L 263 259 L 252 259 Z "/>
    <path fill="#66d9e8" d="M 136 265 L 189.5 265 L 191 266.5 Q 189.3 264.9 187.5 268 L 137.5 281 L 136 279.5 L 136 265 Z M 139 266 L 137 268 L 138 278 L 149 277 L 171 270 Q 176 272 175 269 L 177 269 L 178 269 L 177 267 L 150 267 L 149 266 L 147 267 L 139 266 Z "/>
    <path fill="#66d9e8" d="M 322 265 L 376.5 265 L 377 265.5 L 377 281 L 322 267 L 322 265 Z M 350 266 L 349 267 L 333 268 L 339 270 L 347 271 L 370 278 L 376 278 L 376 269 L 374 266 L 371 267 L 369 266 L 364 267 L 352 267 L 350 266 Z "/>
    <path fill="#66d9e8" d="M 124.5 310 L 126.5 311 L 150 311 L 151 314.5 L 149 321 L 145.5 322 L 127.5 322 L 124 321 Q 122.1 318.3 123 311.5 L 124.5 310 Z M 128 312 L 125 313 L 125 318 Q 129 317 128 320 L 145 320 L 148 319 L 149 313 L 148 313 L 146 312 L 134 312 L 133 313 L 128 312 Z "/>
    <path fill="#66d9e8" d="M 177.5 310 Q 184.2 312.3 194.5 311 L 196 312.5 L 195 319.5 L 193.5 321 L 191.5 322 L 173.5 322 L 169 319.5 L 168 311 L 176.5 311 L 177.5 310 Z M 173 312 L 170 315 L 171 319 L 174 320 L 189 320 L 190 319 Q 195 321 193 315 Q 191 311 184 312 L 182 312 Q 177 311 176 313 L 173 312 Z "/>
    <path fill="#66d9e8" d="M 271.5 310 L 292.5 310 L 296 311 Q 297 317.9 295 321 L 291.5 322 L 273.5 322 L 270 321 Q 268 317.9 269 311 L 271.5 310 Z M 273 312 L 270 314 L 271 318 L 274 320 L 292 320 Q 295 319 294 314 L 293 312 L 273 312 Z "/>
    <path fill="#66d9e8" d="M 305.5 310 L 310 311 L 311 320.5 L 315.5 327 L 319 328 L 319 344.5 L 318 345.5 L 317 410.5 L 308.5 421 Q 304 422 303 419.5 Q 301.6 413.4 297 410.5 L 295 328 L 302 322.5 L 303 320.5 L 303 311 L 305.5 310 Z M 305 312 Q 306 321 302 326 L 296 329 L 297 332 L 296 335 L 297 336 L 297 363 L 298 364 L 298 410 Q 303 412 304 418 Q 303 420 308 419 L 312 414 Q 311 411 314 412 L 316 408 L 316 370 L 317 369 L 316 367 L 316 365 L 317 361 L 317 329 L 314 328 L 309 321 L 309 312 L 305 312 Z "/>
    <path fill="#66d9e8" d="M 319.5 310 L 341.5 310 L 345 311 L 345 318.5 L 342.5 321 L 340.5 322 L 321.5 322 L 318 319.5 Q 319.2 314.7 317 313.5 L 319.5 310 Z M 322 312 Q 319 312 319 317 L 324 320 Q 329 319 331 321 L 332 320 L 340 320 L 342 318 Q 345 319 343 314 L 342 312 L 322 312 Z "/>
    <path fill="#66d9e8" d="M 364.5 310 L 388.5 310 L 390 311.5 Q 390.9 318.3 389 321 L 385.5 322 L 367.5 322 L 364 321 Q 362.1 318.3 363 311.5 L 364.5 310 Z M 367 312 Q 364 313 365 318 L 369 320 L 386 320 L 389 315 Q 387 310 386 313 L 384 312 L 367 312 Z "/>
    <path fill="#66d9e8" d="M 158 311 Q 163.3 309.2 161 316.5 L 163 323.5 L 166.5 327 L 170 329.5 L 170 338.5 L 169 339.5 L 168 410.5 L 160.5 420 Q 156.1 421.5 157 418.5 L 151 410.5 L 149 328 L 155 324.5 L 158 311 Z M 160 318 L 157 325 L 151 329 L 150 332 L 151 334 L 151 370 L 152 371 L 151 373 L 152 375 L 152 409 L 158 417 L 162 415 Q 161 412 164 413 L 166 411 L 166 395 L 167 394 L 168 330 L 162 326 L 160 318 Z "/>
    <path fill="#66d9e8" d="M 203 311 L 210 311 L 210 318.5 L 211 322.5 L 216.5 328 L 218 328.5 L 218 361.5 L 217 362.5 L 217 398.5 L 216 399.5 L 216 410.5 L 208.5 421 Q 202.4 422.3 203 419.5 L 196 410.5 L 195 342.5 L 194 341.5 L 194 328 L 200 324.5 Q 204 319.7 203 311 Z M 205 313 L 205 315 L 201 327 L 196 329 L 196 360 L 197 361 L 197 404 L 198 405 Q 196 411 200 411 L 203 417 Q 204 420 209 419 Q 210 413 215 410 L 215 378 L 216 377 L 215 374 L 216 373 L 216 337 L 217 336 L 217 329 L 212 328 L 208 319 Q 211 311 205 313 Z "/>
    <path fill="#66d9e8" d="M 217 311 L 243.5 311 L 244 311.5 L 244 318.5 L 239.5 322 L 221.5 322 L 217 318.5 L 217 311 Z M 222 312 L 219 318 L 224 320 L 240 320 Q 243 319 242 315 Q 240 310 239 313 L 236 312 L 227 312 L 226 313 L 222 312 Z "/>
    <path fill="#66d9e8" d="M 251 311 L 262 311 L 262 318.5 L 264 325 L 270 328 L 268 410.5 L 260.5 421 L 251.5 421 L 251 419.5 Q 249.6 413.4 245 410.5 L 243 328 L 250 322.5 L 251 311 Z M 255 312 L 252 317 Q 253 323 250 326 L 248 327 L 244 331 L 245 332 Q 246 336 244 338 L 245 339 L 245 374 L 246 375 L 246 410 L 252 418 L 253 419 L 261 419 L 263 413 L 266 411 L 267 408 L 267 371 L 268 370 L 268 338 L 269 337 L 268 334 L 269 329 L 263 326 L 260 316 Q 262 309 255 312 Z "/>
    <path fill="#66d9e8" d="M 352 311 L 356 311 L 356 319.5 L 360.5 327 L 364 328 L 363 406.5 L 362 410.5 Q 357 413.8 356 420 L 352 420 L 352 418.5 L 345 410.5 L 345 370.5 L 344 369.5 L 344 334.5 L 343 329.5 L 350 323.5 Q 353.1 318.9 352 311 Z M 354 317 L 354 322 L 353 321 L 351 325 L 345 330 L 346 380 L 347 381 L 347 411 L 349 411 L 354 417 L 361 411 L 363 333 L 363 331 L 362 330 L 356 325 L 354 317 Z "/>
    <path fill="#66d9e8" d="M 131 329 L 142 329 L 142 346.5 L 143 347.5 L 143 391.5 L 144 392.5 L 144 408.5 L 142.5 410 L 130.5 410 L 129 408.5 L 129 377.5 L 130 376.5 L 130 344.5 L 131 343.5 L 131 329 Z M 133 331 L 132 335 L 132 360 L 132 362 L 131 363 L 131 408 L 141 408 L 142 407 L 141 341 L 140 340 L 141 336 L 140 334 L 140 331 L 133 331 Z "/>
    <path fill="#66d9e8" d="M 177 329 L 186.5 329 L 187 330.5 L 188 332.5 L 187 334.5 L 188 335.5 L 189 410 L 175 410 L 175 370.5 L 176 369.5 L 176 332.5 L 177 329 Z M 180 331 L 178 333 L 178 349 L 177 350 L 177 383 L 177 385 L 176 387 L 176 406 L 177 407 L 178 408 L 188 408 L 188 393 L 187 392 L 188 389 L 187 385 L 187 364 L 187 362 L 186 361 L 186 333 Q 185 330 180 331 Z "/>
    <path fill="#66d9e8" d="M 226.5 329 L 236 329 L 236 345.5 L 237 346.5 L 238 408.5 L 236.5 410 L 224.5 410 L 223 408.5 L 223 384.5 L 224 383.5 L 225 330.5 L 226.5 329 Z M 230 330 L 227 331 L 226 334 L 225 408 L 237 408 L 236 407 L 236 372 L 235 371 L 235 336 L 234 331 L 230 330 Z "/>
    <path fill="#66d9e8" d="M 277 329 L 288 329 L 288 347.5 L 289 348.5 L 290 410 L 276.5 410 L 275 408.5 L 276 345.5 L 277 344.5 L 277 329 Z M 281 330 L 278 333 L 278 374 L 277 375 L 277 408 L 278 408 L 288 408 L 287 334 L 286 331 L 281 330 Z "/>
    <path fill="#66d9e8" d="M 326 329 L 335.5 329 L 337 330.5 L 337 359.5 L 338 360.5 L 339 408.5 L 337.5 410 L 324 410 L 325 336.5 L 326 335.5 L 326 329 Z M 330 330 L 327 333 L 327 364 L 326 365 L 326 396 L 325 397 L 325 408 L 328 407 L 329 408 L 337 408 L 335 333 Q 334 329 330 330 Z "/>
    <path fill="#66d9e8" d="M 372.5 329 L 382 329 L 382 340.5 L 383 341.5 L 384 410 L 370.5 410 L 370 408.5 L 369 407.5 L 369 394.5 L 370 393.5 L 371 330.5 L 372.5 329 Z M 373 331 L 373 343 L 372 344 L 373 346 L 372 347 L 372 382 L 371 383 L 371 408 L 383 408 L 382 407 Q 381 402 383 401 L 382 400 L 382 365 L 382 363 L 381 361 L 381 332 L 381 331 L 373 331 Z "/>
    <path fill="#66d9e8" d="M 135.5 416 L 146.5 417 L 149 418 L 148.5 420 L 124 420 L 125.5 417 L 134.5 417 L 135.5 416 Z "/>
    <path fill="#66d9e8" d="M 182.5 416 L 194 418 L 193.5 421 L 176.5 421 L 175.5 420 L 169 420 Q 167.9 417.3 170.5 418 L 171.5 417 L 181.5 417 L 182.5 416 Z M 182 418 L 182 419 L 186 419 L 182 418 Z "/>
    <path fill="#66d9e8" d="M 228.5 416 L 240.5 417 L 243 419.5 L 242.5 421 L 219.5 421 L 218 418 L 228.5 416 Z "/>
    <path fill="#66d9e8" d="M 278.5 416 L 287.5 416 L 295 418 L 293.5 421 L 270.5 421 L 270 418 L 278.5 416 Z M 281 418 L 281 419 L 288 419 L 281 418 Z "/>
    <path fill="#66d9e8" d="M 374.5 416 L 375.5 417 L 386.5 417 L 389 418 L 388.5 420 L 364 420 L 365.5 417 L 373.5 417 L 374.5 416 Z "/>
    <path fill="#66d9e8" d="M 320.5 417 L 341.5 417 L 344 418 L 343.5 420 L 323.5 420 L 321.5 421 L 319 420 L 320.5 417 Z "/>
    <path fill="#66d9e8" d="M 110.5 427 L 163.5 427 L 168.5 428 L 169.5 427 L 178.5 427 L 179.5 428 L 301.5 428 L 304.5 427 L 305.5 428 L 322.5 428 L 323.5 427 L 402.5 427 L 407 429.5 L 408 431.5 L 408 441 L 364.5 440 L 363.5 441 L 105 441 L 105 431.5 L 107.5 428 L 110.5 427 Z M 111 429 L 108 430 Q 106 433 107 439 L 127 439 L 128 440 Q 134 442 136 439 L 138 440 L 406 439 L 407 438 L 406 431 L 403 429 L 297 429 L 296 430 L 292 429 L 269 429 L 266 430 L 251 430 L 249 429 L 246 430 L 242 429 L 239 430 L 228 430 L 227 429 L 222 430 L 220 429 L 217 430 L 199 430 L 198 429 L 188 429 L 187 430 L 186 429 L 111 429 Z "/>
    <path fill="#66d9e8" d="M 305.5 447 L 321.5 447 L 322.5 448 L 325.5 447 L 329.5 448 L 330.5 447 L 354.5 447 L 359.5 448 L 363.5 447 L 364.5 448 L 383.5 448 L 385.5 447 L 386.5 448 L 416.5 448 Q 418.3 450.7 424.5 449 L 428 452.5 Q 429.8 462.8 425.5 467 L 414.5 467 L 413.5 468 L 353.5 468 L 352.5 469 L 255.5 469 L 253.5 470 L 248.5 469 Q 247 471.5 241.5 470 L 239.5 469 L 237.5 469 L 89.5 468 L 86 465.5 L 85 454.5 L 88.5 449 L 93.5 448 L 304.5 448 L 305.5 447 Z M 250 449 L 249 450 L 92 450 L 87 453 Q 86 461 88 465 L 91 466 L 105 466 L 106 467 L 107 466 L 133 466 L 135 466 L 138 467 L 151 467 L 152 466 L 153 467 L 186 467 L 191 468 L 193 468 L 276 468 L 277 467 L 292 467 L 293 468 L 294 467 L 349 467 L 350 466 L 353 467 L 355 467 L 359 466 L 423 466 L 425 464 L 426 464 L 426 453 L 422 450 L 393 450 L 392 449 L 281 449 L 280 450 L 250 449 Z "/>
  </g>
  <g id="line">
    <path fill="#1a1a1a" d="M 254 37 Q 258.7 36 260 39.5 Q 258.8 44.8 261.5 46 Q 271.9 48.1 277 55.5 Q 282 60.8 282 70 L 289 72.5 Q 289.8 77.3 286.5 78 L 284 78.5 L 284 105.5 L 285 108 L 287.5 108 L 293 112.5 Q 297 116.9 296 126.5 L 297.5 128 L 307.5 131 L 323.5 140 L 346 158 L 360 176.5 L 369 193.5 L 374 207.5 L 377 220.5 L 378 233.5 L 379.5 235 Q 389.5 234.5 393 240.5 Q 397.2 244.3 396 253.5 L 391.5 262 L 384 265 L 384 281.5 L 386.5 284 L 407.5 289 L 413 293.5 L 415 303.5 L 411.5 310 L 398 311 L 397 321.5 L 392.5 327 L 389 328 L 389 336.5 L 390 337.5 L 391 411 L 396 414.5 L 398.5 420 L 409.5 422 L 413 425.5 L 415 429.5 L 416 437.5 L 415 439.5 Q 418.6 442.9 426.5 442 L 432 445.5 Q 436.6 451.4 435 463.5 Q 434.1 470.1 429.5 473 L 422.5 475 L 280.5 476 L 279.5 477 L 188.5 477 L 187.5 476 L 89.5 475 L 83.5 473 L 81 470.5 L 78 461.5 L 78 453.5 L 82 444 L 86.5 442 L 96.5 441 L 98 439.5 Q 96 427 102.5 423 L 106.5 421 L 114.5 420 L 116 418.5 Q 116.5 413 120.5 411 L 122 410.5 L 122 381.5 L 123 380.5 L 123 346.5 L 124 345.5 L 124 328 L 121.5 328 L 117 323.5 L 115 311 Q 104.7 313 100 308.5 Q 97.4 305.6 98 299.5 L 100 293.5 L 102.5 291 L 109.5 288 L 127.5 284 L 129 282.5 L 129 265.5 L 127.5 264 L 124.5 264 L 121 262 L 117 252.5 L 117 248.5 Q 118.2 240.7 123.5 237 Q 126.8 234.3 133.5 235 L 135 233.5 L 136 221.5 L 139 207.5 L 149 183.5 Q 160.3 163.3 177.5 149 L 194.5 137 L 210.5 129 L 215.5 128 L 218 125.5 Q 216.1 112.6 223.5 109 L 229 106.5 L 229 78.5 L 226.5 78 L 224 77 Q 222.8 72.4 225.5 71 Q 230 72 231 69.5 Q 232.4 55.9 241.5 50 L 253 44.5 Q 252.4 39.1 254 37 Z M 252 53 L 247 55 Q 240 59 238 68 L 240 71 L 274 71 L 275 70 L 273 62 L 265 54 Q 260 52 252 53 Z M 236 78 L 236 107 L 237 107 L 243 107 L 243 79 L 243 78 L 236 78 Z M 250 78 L 250 107 L 263 107 L 263 78 L 250 78 Z M 272 78 L 270 80 L 270 106 Q 272 108 277 107 L 277 79 Q 277 77 272 78 Z M 231 114 L 228 115 Q 224 118 225 124 L 238 122 L 245 122 L 246 121 L 268 121 L 284 124 Q 288 125 289 123 L 288 118 L 283 114 L 231 114 Z M 250 128 L 243 136 L 233 160 L 227 187 L 225 211 L 224 212 L 224 223 L 223 224 L 223 234 L 225 235 L 289 235 L 290 234 L 289 208 L 288 207 L 288 200 L 287 199 L 284 175 L 277 150 L 268 133 L 263 128 L 250 128 Z M 233 130 Q 202 137 182 155 Q 167 168 156 186 L 146 209 L 142 234 L 144 235 L 216 235 L 216 228 L 217 227 L 217 213 L 218 212 L 219 195 L 220 194 L 222 176 L 230 147 L 238 131 L 233 130 Z M 276 130 L 285 152 L 291 175 L 293 192 L 294 193 L 295 209 L 296 210 L 297 234 L 299 235 L 370 235 L 371 234 L 369 217 L 363 198 Q 356 181 345 169 Q 333 154 317 144 L 293 133 L 281 130 L 276 130 Z M 130 242 L 128 243 L 125 246 L 125 255 L 130 258 L 213 258 L 214 259 L 221 259 L 254 250 L 266 251 L 277 255 L 295 259 L 303 259 L 304 258 L 306 259 L 309 258 L 311 259 L 313 258 L 384 258 L 386 257 L 389 253 L 388 246 L 384 242 L 130 242 Z M 253 257 L 109 296 Q 105 298 106 303 L 109 304 L 407 303 L 408 302 L 407 299 L 403 295 L 395 294 L 384 290 L 328 276 L 306 269 L 277 262 L 270 259 L 262 257 L 253 257 Z M 136 265 L 136 280 L 138 281 L 191 267 L 190 265 L 136 265 Z M 322 265 L 322 267 L 377 281 L 377 266 L 377 265 L 322 265 Z M 125 310 L 123 312 Q 122 318 124 321 L 128 322 L 146 322 L 149 321 L 151 315 L 150 311 L 127 311 L 125 310 Z M 178 310 L 177 311 L 168 311 L 169 320 L 174 322 L 192 322 L 194 321 L 195 320 L 196 313 L 195 311 Q 184 312 178 310 Z M 272 310 L 269 311 Q 268 318 270 321 L 274 322 L 292 322 L 295 321 Q 297 318 296 311 L 293 310 L 272 310 Z M 306 310 L 303 311 L 303 321 L 302 323 L 295 328 L 297 411 Q 302 413 303 420 Q 304 422 309 421 L 317 411 L 318 346 L 319 345 L 319 328 L 316 327 L 311 321 L 310 311 L 306 310 Z M 320 310 L 317 314 Q 319 315 318 320 L 322 322 L 341 322 L 343 321 L 345 319 L 345 311 L 342 310 L 320 310 Z M 365 310 L 363 312 Q 362 318 364 321 L 368 322 L 386 322 L 389 321 Q 391 318 390 312 L 389 310 L 365 310 Z M 158 311 L 155 325 L 149 328 L 151 411 L 157 419 Q 156 421 161 420 L 168 411 L 169 340 L 170 339 L 170 330 L 167 327 L 163 324 L 161 317 Q 163 309 158 311 Z M 203 311 Q 204 320 200 325 L 194 328 L 194 342 L 195 343 L 196 411 L 203 420 Q 202 422 209 421 L 216 411 L 216 400 L 217 399 L 217 363 L 218 362 L 218 329 L 217 328 L 211 323 L 210 319 L 210 311 L 203 311 Z M 217 311 L 217 319 L 222 322 L 240 322 L 244 319 L 244 312 L 244 311 L 217 311 Z M 251 311 L 250 323 L 243 328 L 245 411 Q 250 413 251 420 L 252 421 L 261 421 L 268 411 L 270 328 L 264 325 L 262 319 L 262 311 L 251 311 Z M 352 311 Q 353 319 350 324 L 343 330 L 344 335 L 344 370 L 345 371 L 345 411 L 352 419 L 352 420 L 356 420 Q 357 414 362 411 L 363 407 L 364 328 L 361 327 L 356 320 L 356 311 L 352 311 Z M 131 329 L 131 344 L 130 345 L 130 377 L 129 378 L 129 409 L 131 410 L 143 410 L 144 409 L 144 393 L 143 392 L 143 348 L 142 347 L 142 329 L 131 329 Z M 177 329 L 176 333 L 176 370 L 175 371 L 175 410 L 189 410 L 188 336 L 187 335 L 188 333 L 187 331 L 187 329 L 177 329 Z M 227 329 L 225 331 L 224 384 L 223 385 L 223 409 L 225 410 L 237 410 L 238 409 L 237 347 L 236 346 L 236 329 L 227 329 Z M 277 329 L 277 345 L 276 346 L 275 409 L 277 410 L 290 410 L 289 349 L 288 348 L 288 329 L 277 329 Z M 326 329 L 326 336 L 325 337 L 324 410 L 338 410 L 339 409 L 338 361 L 337 360 L 337 331 L 336 329 L 326 329 Z M 373 329 L 371 331 L 370 394 L 369 395 L 369 408 L 370 409 L 371 410 L 384 410 L 383 342 L 382 341 L 382 329 L 373 329 Z M 136 416 L 135 417 L 126 417 L 124 420 L 149 420 L 149 418 L 147 417 L 136 416 Z M 183 416 L 182 417 L 172 417 L 171 418 Q 168 417 169 420 L 176 420 L 177 421 L 194 421 L 194 418 L 183 416 Z M 229 416 L 218 418 L 220 421 L 243 421 L 243 420 L 241 417 L 229 416 Z M 279 416 L 270 418 L 271 421 L 294 421 L 295 418 L 288 416 L 279 416 Z M 375 416 L 374 417 L 366 417 L 364 420 L 389 420 L 389 418 L 387 417 L 376 417 L 375 416 Z M 321 417 L 319 420 L 322 421 L 324 420 L 344 420 L 344 418 L 342 417 L 321 417 Z M 111 427 L 108 428 L 105 432 L 105 441 L 364 441 L 365 440 L 408 441 L 408 432 L 407 430 L 403 427 L 324 427 L 323 428 L 306 428 L 305 427 L 302 428 L 180 428 L 179 427 L 170 427 L 169 428 L 164 427 L 111 427 Z M 306 447 L 305 448 L 94 448 L 89 449 L 85 455 L 86 466 L 90 468 L 238 469 L 240 469 L 242 470 Q 247 472 249 469 L 254 470 L 256 469 L 353 469 L 354 468 L 414 468 L 415 467 L 426 467 Q 430 463 428 453 L 425 449 Q 418 451 417 448 L 387 448 L 386 447 L 384 448 L 365 448 L 364 447 L 360 448 L 355 447 L 331 447 L 330 448 L 326 447 L 323 448 L 322 447 L 306 447 Z "/>
    <path fill="#1a1a1a" d="M 188.5 184 Q 197.6 182.9 201 187.5 Q 206.2 191.8 206 201.5 Q 204.6 209 199.5 213 Q 195.9 215.9 188.5 215 Q 182.4 213.6 180 208.5 Q 176.3 204.2 178 194.5 L 185.5 185 L 188.5 184 Z M 190 191 L 188 192 L 184 199 L 187 207 L 190 208 L 196 207 L 199 202 L 198 195 Q 196 190 190 191 Z "/>
    <path fill="#1a1a1a" d="M 318.5 184 Q 330 183.1 333 190.5 Q 336.5 194 336 201.5 Q 334.2 209.2 328.5 213 Q 325.2 215.7 318.5 215 Q 311.6 213.4 309 207.5 L 307 198.5 Q 308.8 189.3 315.5 185 L 318.5 184 Z M 320 191 L 318 192 L 314 199 L 316 206 L 320 208 L 326 207 L 329 201 L 327 194 Q 325 190 320 191 Z "/>
  </g>
</svg>
