<svg xmlns="http://www.w3.org/2000/svg" width="512" height="512" viewBox="0 0 512 512">
  <g id="color">
    <path fill="#ffffff" d="M 252.5 35 L 262 35.5 L 252.5 36 L 252.5 35 Z "/>
    <path fill="#ffffff" d="M 240.5 38 L 239.5 40 L 234 44.5 L 232.5 48 L 232 46.5 L 238.5 39 L 240.5 38 Z "/>
    <path fill="#ffffff" d="M 272.5 38 L 278 42.5 L 274.5 40 L 272.5 38 Z "/>
    <path fill="#ffffff" d="M 281.5 52 L 282 66.5 L 281 66.5 L 281.5 52 Z "/>
    <path fill="#ffffff" d="M 230.5 67 L 231 73.5 L 230 73.5 L 230.5 67 Z "/>
    <path fill="#ffffff" d="M 282.5 71 L 283 75.5 L 282 75.5 L 282.5 71 Z "/>
    <path fill="#ffffff" d="M 222.5 78 L 225 78.5 L 219.5 80 L 219.5 79 L 222.5 78 Z "/>
    <path fill="#ffffff" d="M 213.5 81 L 215 81.5 L 211.5 83 L 211.5 82 L 213.5 81 Z "/>
    <path fill="#ffffff" d="M 298.5 81 L 304 83.5 L 302.5 84 L 298.5 82 L 298.5 81 Z "/>
    <path fill="#ffffff" d="M 204.5 85 L 203.5 87 L 195.5 91 L 196.5 89 L 204.5 85 Z "/>
    <path fill="#ffffff" d="M 307.5 85 L 312 87.5 L 310.5 87 Q 306.8 86.8 307.5 85 Z "/>
    <path fill="#ffffff" d="M 317.5 90 L 321 92.5 L 319.5 92 L 317.5 90 Z "/>
    <path fill="#ffffff" d="M 359.5 131 L 362 134.5 L 360 133.5 L 359.5 131 Z "/>
    <path fill="#ffffff" d="M 362.5 136 L 365 139.5 L 363 138.5 L 362.5 136 Z "/>
    <path fill="#ffffff" d="M 148.5 139 L 148 140.5 L 146.5 143 L 147 141.5 L 148.5 139 Z "/>
    <path fill="#ffffff" d="M 144.5 146 L 145 147.5 L 142.5 152 L 142 150.5 L 144.5 146 Z "/>
    <path fill="#ffffff" d="M 369.5 149 L 371 152.5 L 370 152.5 L 369.5 149 Z "/>
    <path fill="#ffffff" d="M 140.5 155 L 141 156.5 L 139.5 159 L 139 157.5 L 140.5 155 Z "/>
    <path fill="#ffffff" d="M 374.5 161 L 376 164.5 L 375 164.5 L 374.5 161 Z "/>
    <path fill="#ffffff" d="M 378.5 173 L 380 178.5 L 379 178.5 L 378.5 173 Z "/>
    <path fill="#ffffff" d="M 128.5 196 L 129 201.5 L 128 201.5 L 128.5 196 Z "/>
    <path fill="#ffffff" d="M 127.5 203 L 128 204.5 L 125.5 206 L 125.5 205 Q 128 205.7 127.5 203 Z "/>
    <path fill="#ffffff" d="M 117.5 207 L 120 207.5 L 114.5 209 L 114.5 208 L 117.5 207 Z "/>
    <path fill="#ffffff" d="M 393.5 207 L 398 208.5 L 396.5 209 L 393.5 208 L 393.5 207 Z "/>
    <path fill="#ffffff" d="M 105.5 215 L 105 216.5 L 103.5 219 L 104 217.5 L 105.5 215 Z "/>
    <path fill="#ffffff" d="M 102.5 221 L 103 228.5 L 102 228.5 L 102.5 221 Z "/>
    <path fill="#ffffff" d="M 410.5 223 L 411 227.5 L 410 227.5 L 410.5 223 Z "/>
    <path fill="#ffffff" d="M 109.5 236 Q 113.5 235.5 114 238.5 L 113.5 251 L 113 238.5 L 111.5 237 Q 108.5 237.5 109.5 236 Z "/>
    <path fill="#ffffff" d="M 400.5 236 L 403 236.5 L 400 237 L 399.5 244 L 399 237.5 L 400.5 236 Z "/>
    <path fill="#ffffff" d="M 398.5 251 L 399 274.5 L 398 274.5 L 398.5 251 Z "/>
    <path fill="#ffffff" d="M 113.5 276 L 114 287.5 L 113 287.5 L 113.5 276 Z "/>
    <path fill="#ffffff" d="M 399.5 282 L 400 291.5 L 399 291.5 L 399.5 282 Z "/>
    <path fill="#ffffff" d="M 112.5 291 L 113 292.5 L 109.5 294 L 109.5 293 Q 113 294 112.5 291 Z "/>
    <path fill="#ffffff" d="M 400.5 293 L 409 294.5 L 405.5 295 L 400.5 294 L 400.5 293 Z "/>
    <path fill="#ffffff" d="M 435.5 300 L 443 306.5 L 437.5 302 L 435.5 300 Z "/>
    <path fill="#ffffff" d="M 444.5 310 Q 446.8 311.8 446 316.5 L 445 316.5 L 444.5 310 Z "/>
    <path fill="#ffffff" d="M 445.5 319 L 446 323.5 L 445 323.5 L 445.5 319 Z "/>
    <path fill="#ffffff" d="M 121.5 328 L 123 329.5 L 123 382.5 L 122 383.5 L 122 438 L 111.5 438 L 111 437.5 L 111 387.5 L 110 386.5 L 110 330 L 121.5 328 Z "/>
    <path fill="#ffffff" d="M 391.5 328 Q 393 330.5 398.5 329 L 403 331.5 L 402 437.5 L 400.5 439 L 391.5 439 L 390 437.5 L 391 405.5 L 390 404.5 L 389 335.5 Q 391.2 334.2 390 329.5 L 391.5 328 Z "/>
    <path fill="#ffffff" d="M 70.5 330 L 75 333.5 L 73.5 333 L 70.5 330 Z "/>
    <path fill="#ffffff" d="M 428.5 335 L 429 378.5 L 428 378.5 L 428.5 335 Z "/>
    <path fill="#ffffff" d="M 83.5 367 L 84 393.5 L 83 393.5 L 83.5 367 Z "/>
    <path fill="#ffffff" d="M 429.5 383 L 430 438 L 435 438.5 L 430.5 439 L 429 437.5 L 429.5 383 Z "/>
    <path fill="#ffffff" d="M 76.5 438 L 83 438.5 Q 76.3 437.8 73.5 441 L 74.5 439 L 76.5 438 Z "/>
    <path fill="#ffffff" d="M 443.5 445 Q 446.7 447.3 446 453.5 L 445 453.5 Q 445.4 447.3 443.5 445 Z "/>
    <path fill="#ffffff" d="M 445.5 458 L 446 462.5 L 444.5 465 L 444 463.5 L 445.5 458 Z "/>
    <path fill="#ffffff" d="M 435.5 472 L 437 472.5 Q 433.7 475.7 425.5 474 L 425.5 473 L 434.5 473 L 435.5 472 Z "/>
    <path fill="#ffffff" d="M 78.5 473 L 95 473.5 L 78.5 474 L 78.5 473 Z "/>
    <path fill="#ffffff" d="M 111.5 474 L 139 474.5 L 111.5 475 L 111.5 474 Z "/>
    <path fill="#ffffff" d="M 405.5 474 L 421 474.5 L 405.5 475 L 405.5 474 Z "/>
    <path fill="#ffffff" d="M 154.5 475 L 173 475.5 L 154.5 476 L 154.5 475 Z "/>
    <path fill="#ffffff" d="M 375.5 475 L 392 475.5 L 375.5 476 L 375.5 475 Z "/>
    <path fill="#ffffff" d="M 190.5 476 L 217 476.5 L 190.5 477 L 190.5 476 Z "/>
    <path fill="#ffffff" d="M 332.5 476 L 361 476.5 L 332.5 477 L 332.5 476 Z "/>
    <path fill="#ffffff" d="M 224.5 477 L 325 477.5 L 224.5 478 L 224.5 477 Z "/>
    <path fill="#4da3ff" d="M 247.5 45 L 264.5 45 L 271 48.5 L 273 57.5 L 272 60.5 L 273 61.5 L 273 74 L 267.5 73 L 243.5 73 L 239 74 L 240 69.5 L 240 51.5 L 244.5 46 L 247.5 45 Z "/>
    <path fill="#4da3ff" d="M 226.5 201 L 285.5 201 L 286.5 202 L 308.5 203 L 318.5 205 L 320.5 205 Q 328.9 204.1 333.5 207 L 337.5 207 L 342.5 208 L 344.5 208 L 356.5 209 L 359.5 211 L 376.5 212 L 395.5 217 L 400 220.5 L 401 227 L 390.5 226 L 381.5 223 L 368.5 222 L 362.5 220 L 333.5 216 L 331.5 216 L 319.5 215 L 318.5 214 L 291.5 213 L 290.5 212 L 221.5 212 L 220.5 213 L 208.5 213 L 207.5 214 L 195.5 214 L 194.5 215 L 192.5 215 L 169.5 217 L 162.5 219 L 155.5 219 L 150.5 221 L 148.5 221 L 131.5 223 Q 122.9 226.7 112 227 Q 110.9 220.3 115.5 218 L 132.5 213 L 153.5 210 Q 155 212.5 156.5 209 L 169.5 208 L 177.5 206 L 180.5 207 L 183.5 205 L 213.5 203 L 214.5 202 L 225.5 202 L 226.5 201 Z "/>
    <path fill="#4da3ff" d="M 247.5 221 L 249.5 222 L 250.5 221 L 265.5 221 L 268.5 222 L 270.5 221 L 271.5 222 L 289.5 222 L 290.5 223 L 315.5 224 L 316.5 225 L 325.5 225 L 339.5 228 L 349.5 228 L 355.5 230 L 384.5 234 L 390 236.5 L 390 262.5 Q 387.3 264.3 389 270.5 L 390 271.5 L 390 290 L 378.5 290 L 377.5 289 L 352.5 287 L 351.5 286 L 311.5 284 L 310.5 283 L 292.5 283 L 291.5 282 L 289.5 282 L 224.5 282 L 223.5 283 L 201.5 283 L 200.5 284 L 170.5 285 L 169.5 286 L 160.5 286 L 159.5 287 L 123.5 290 L 122 288.5 L 122 279.5 L 123 276.5 L 123 246.5 L 122 245.5 L 122 236 L 128.5 234 L 130.5 234 Q 142.5 233.5 151.5 230 L 153.5 230 L 180.5 227 L 187.5 225 L 196.5 225 L 197.5 224 L 220.5 223 L 221.5 222 L 246.5 222 L 247.5 221 Z M 191 234 L 182 238 L 176 251 L 176 270 L 177 272 L 179 271 L 178 273 Q 181 276 189 275 L 191 275 L 192 274 L 204 273 Q 209 269 207 257 L 207 255 L 203 242 Q 200 235 191 234 Z M 321 234 L 314 237 L 308 246 L 306 254 L 306 270 L 307 272 L 312 274 L 323 274 L 324 275 Q 330 276 334 274 L 336 271 Q 335 266 337 265 L 336 248 L 333 242 L 327 235 L 321 234 Z "/>
    <path fill="#4da3ff" d="M 224.5 292 L 287.5 292 L 288.5 293 L 310.5 293 L 311.5 294 L 323.5 294 L 324.5 295 L 326.5 295 L 370.5 298 L 385.5 301 L 399.5 302 L 410.5 305 L 412.5 305 L 427.5 307 L 435 311.5 Q 437.8 314.2 437 320.5 L 433.5 326 L 415.5 324 L 390.5 319 L 364.5 317 L 347.5 314 L 345.5 315 L 344.5 314 L 333.5 314 L 332.5 313 L 322.5 313 L 321.5 312 L 319.5 312 L 299.5 312 L 298.5 311 L 284.5 311 L 282.5 310 L 279.5 311 L 278.5 310 L 236.5 310 Q 235 312.5 229.5 311 L 227.5 311 L 192.5 312 L 191.5 313 L 167.5 314 L 157.5 316 L 155.5 316 L 138.5 317 L 137.5 318 L 115.5 320 L 108.5 322 L 106.5 322 L 79.5 326 L 77 325 L 75 318.5 L 78.5 310 L 85.5 307 Q 95 307 101.5 304 L 103.5 304 L 118.5 301 L 120.5 301 Q 128.9 301.9 133.5 299 L 135.5 299 L 161.5 297 L 163.5 296 L 165.5 296 L 172.5 295 L 174.5 295 L 187.5 295 L 188.5 294 L 200.5 294 L 201.5 293 L 223.5 293 L 224.5 292 Z "/>
    <path fill="#4da3ff" d="M 248.5 320 L 263.5 320 L 266 321 L 267 327.5 L 267 347.5 L 266 348.5 L 266 385.5 Q 263.8 386.7 265 391.5 L 265 393.5 L 265 437.5 L 263.5 439 L 256.5 438 L 253.5 439 L 247 438 L 247 365.5 L 246 362.5 L 247 358.5 L 246 357.5 L 246 321 L 248.5 320 Z "/>
    <path fill="#4da3ff" d="M 280.5 320 L 286 321 L 287 438 L 281.5 439 L 279.5 438 L 277.5 438 Q 275.3 438.8 276 436.5 L 275 435.5 L 275 381.5 L 276 380.5 L 276 321 L 280.5 320 Z "/>
    <path fill="#4da3ff" d="M 210.5 321 Q 215.8 319.8 217 322.5 L 216 326.5 L 217 327.5 L 217 359.5 L 216 363.5 Q 218.3 364.8 217 369.5 L 216 370.5 L 216 412.5 L 215 413.5 L 216 414.5 L 216 438 L 197 438 L 197 393.5 L 196 392.5 L 196 322 L 209.5 322 L 210.5 321 Z "/>
    <path fill="#4da3ff" d="M 226 321 L 236 321 L 236 348.5 Q 238.8 350.3 237 356.5 L 236 359.5 L 237 360.5 L 237 438 L 228.5 439 L 226 438 L 225 433.5 L 225 401.5 L 226 400.5 L 226 337.5 L 227 336.5 L 226 333.5 L 226 321 Z "/>
    <path fill="#4da3ff" d="M 298.5 321 L 316 322 Q 318.2 327.2 317 337.5 L 316 338.5 L 316 347.5 L 317 352.5 Q 314.8 353.8 316 358.5 L 317 363.5 L 316 364.5 L 315 425.5 L 316 426.5 L 316 434.5 L 315 438 L 297.5 438 L 297 437.5 L 297 375.5 L 296 374.5 L 296 324.5 L 298.5 321 Z "/>
    <path fill="#4da3ff" d="M 327.5 323 Q 328.7 325.3 333.5 324 L 336 326.5 L 336 367.5 L 337 369.5 L 336 371.5 L 337 372.5 L 337 436.5 L 335.5 438 L 326 438 L 325 435.5 L 325 393.5 L 326 392.5 L 326 363.5 L 327 362.5 Q 324.3 360.8 326 354.5 L 327 353.5 L 327.5 323 Z "/>
    <path fill="#4da3ff" d="M 177 324 L 185.5 324 L 186 324.5 L 186 383.5 L 187 384.5 L 187 435.5 L 186 438 L 176.5 438 L 176 436.5 L 175 434.5 L 176 431.5 L 175 430.5 L 175 397.5 L 176 396.5 L 176 343.5 L 177 342.5 L 176 340.5 L 177 337.5 L 176 327.5 L 177 324 Z "/>
    <path fill="#4da3ff" d="M 161.5 325 Q 168.3 322.8 166 329.5 L 167 332.5 Q 168.3 340.8 166 345.5 L 166 347.5 L 166 435.5 L 164.5 437 L 160.5 438 Q 159.3 435.7 154.5 437 L 152.5 437 L 151 436.5 L 151 421.5 L 152 420.5 L 152 406.5 L 151 405.5 L 151 373.5 L 150 372.5 L 150 327.5 L 151.5 326 L 160.5 326 L 161.5 325 Z "/>
    <path fill="#4da3ff" d="M 347.5 325 L 362 326 L 363 331.5 L 362 332.5 L 362 396.5 L 361 398.5 L 362 401.5 L 361 402.5 L 361 431.5 L 362 433.5 L 361 435.5 L 361.5 437 L 359.5 438 L 347 438 L 346 326.5 L 347.5 325 Z "/>
    <path fill="#4da3ff" d="M 134.5 328 Q 139.9 327.4 140 328.5 L 140 358.5 L 140 360.5 L 141 364.5 L 141 399.5 L 142 402.5 L 141 403.5 L 141 420.5 Q 143.8 422.2 142 428.5 L 141 429.5 L 141 437 L 131 437 L 131 428.5 L 130 426.5 L 131 423.5 L 131 403.5 L 130 402.5 L 131 399.5 L 132 329 L 134.5 328 Z "/>
    <path fill="#4da3ff" d="M 372 328 L 381 329 L 382 437 L 372.5 437 L 372 435.5 L 372 433.5 L 371 431.5 L 371 383.5 L 372 382.5 L 372 328 Z "/>
    <path fill="#4da3ff" d="M 98.5 333 L 101 333.5 L 101 347.5 L 102 349.5 L 102 351.5 L 102 359.5 L 101 360.5 L 102 364.5 L 102 366.5 L 102 398.5 L 103 400.5 L 103 402.5 L 103 425.5 L 102 426.5 L 102 437 L 93.5 437 L 92 435.5 L 92 377.5 L 93 375.5 L 92 373.5 L 93 372.5 L 93 334 L 98.5 333 Z "/>
    <path fill="#4da3ff" d="M 411.5 333 L 417.5 334 L 420 336.5 L 421 433.5 L 420 437 L 411.5 437 L 411 435.5 L 410 434.5 L 410 396.5 L 411 394.5 L 410 389.5 L 411 388.5 L 411 335 L 413 334.5 L 411.5 333 Z "/>
    <path fill="#4da3ff" d="M 78.5 447 L 156.5 447 L 157.5 448 L 167.5 448 L 169.5 448 L 248.5 448 L 250.5 449 L 251.5 448 L 259.5 448 Q 260.8 450.3 265.5 449 L 266.5 448 L 278.5 448 L 280.5 448 L 351.5 448 L 352.5 447 L 354.5 447 L 431.5 447 L 436 450.5 L 437 459.5 L 434.5 464 Q 426.2 466.7 413.5 465 L 412.5 466 L 385.5 466 L 383.5 467 L 380.5 466 L 379.5 467 L 364.5 467 L 361.5 468 L 359.5 467 L 358.5 468 L 310.5 468 L 309.5 469 L 306.5 468 L 305.5 469 L 236.5 469 L 233.5 468 L 190.5 468 L 189.5 467 L 186.5 468 L 185.5 467 L 162.5 467 L 160.5 466 L 157.5 467 L 156.5 466 L 127.5 466 L 126.5 465 L 81.5 465 L 76 461.5 L 76 450.5 L 78.5 447 Z "/>
    <path fill="#ffd43b" d="M 190.5 243 L 196 246.5 L 198 254.5 L 198 265 L 195.5 266 L 185 266 L 185 249.5 L 190.5 243 Z "/>
    <path fill="#ffd43b" d="M 320.5 243 L 326 246.5 L 328 251.5 L 328 266 L 314 265 L 315 259.5 L 315 249.5 L 320.5 243 Z "/>
    <path fill="#66d9e8" d="M 250.5 43 L 266.5 44 L 273 48.5 L 274 51.5 L 274 69.5 L 275 74.5 L 271.5 76 L 270.5 75 L 241.5 75 L 238 76 L 239 50.5 L 243.5 45 L 250.5 43 Z M 248 45 L 245 46 L 240 52 L 240 70 L 239 74 L 244 73 L 268 73 L 273 74 L 273 62 L 272 61 L 273 58 L 271 49 L 265 45 L 248 45 Z "/>
    <path fill="#66d9e8" d="M 241.5 82 L 270.5 82 L 285.5 85 L 300.5 90 L 320.5 101 L 344 122.5 Q 369.8 153.2 377 202.5 Q 375.8 205.3 374.5 203 L 363.5 202 L 362.5 201 L 354.5 201 L 334.5 197 L 308.5 195 L 307.5 194 L 245.5 192 L 244.5 193 L 219.5 193 L 218.5 194 L 196.5 195 L 187.5 197 L 170.5 198 L 164.5 200 L 144.5 202 L 136 204 L 138 186.5 L 147 158.5 Q 158.7 130.2 179.5 111 L 182.5 109 Q 193 98.5 207.5 92 L 226.5 85 L 241.5 82 Z "/>
    <path fill="#66d9e8" d="M 235.5 199 L 292.5 200 L 293.5 201 L 323.5 203 L 331.5 205 L 340.5 205 L 366.5 210 L 373.5 210 L 394.5 215 L 402 220.5 L 403 226.5 Q 402.3 229.8 397.5 229 L 377.5 224 L 370.5 224 L 352.5 220 L 345.5 220 L 344.5 219 L 321.5 217 L 320.5 216 L 311.5 216 L 310.5 215 L 277.5 214 L 276.5 213 L 234.5 213 L 233.5 214 L 216.5 214 L 215.5 215 L 202.5 215 L 201.5 216 L 182.5 217 L 174.5 219 L 153.5 221 L 142.5 224 L 129.5 225 Q 122.1 228.7 111.5 229 Q 108.8 227.8 110 222.5 L 114.5 217 L 134.5 211 L 146.5 210 L 164.5 206 L 180.5 205 L 195.5 202 L 207.5 202 L 208.5 201 L 218.5 201 L 219.5 200 L 234.5 200 L 235.5 199 Z M 227 201 L 226 202 L 215 202 L 214 203 L 184 205 L 181 207 L 178 206 L 170 208 L 157 209 Q 155 212 154 210 L 133 213 L 116 218 Q 111 220 112 227 Q 123 227 132 223 L 149 221 L 151 221 L 156 219 L 163 219 L 170 217 L 193 215 L 195 215 L 196 214 L 208 214 L 209 213 L 221 213 L 222 212 L 291 212 L 292 213 L 319 214 L 320 215 L 332 216 L 334 216 L 363 220 L 369 222 L 382 223 L 391 226 L 401 227 L 400 221 L 396 217 L 377 212 L 360 211 L 357 209 L 345 208 L 343 208 L 338 207 L 334 207 Q 329 204 321 205 L 319 205 L 309 203 L 287 202 L 286 201 L 227 201 Z "/>
    <path fill="#66d9e8" d="M 232.5 220 L 279.5 220 L 280.5 221 L 311.5 222 L 312.5 223 L 321.5 223 L 322.5 224 L 329.5 224 L 337.5 226 L 358.5 228 L 364.5 230 L 370.5 230 L 376.5 232 L 387.5 233 L 392 235.5 L 391 278.5 L 392 279.5 L 392 292 L 373.5 291 L 364.5 289 L 355.5 289 L 354.5 288 L 345.5 288 L 344.5 287 L 302.5 285 L 301.5 284 L 246.5 283 L 245.5 284 L 209.5 284 L 208.5 285 L 195.5 285 L 194.5 286 L 180.5 286 L 179.5 287 L 167.5 287 L 166.5 288 L 156.5 288 L 155.5 289 L 121 292 L 121 266.5 L 122 264.5 L 121 263.5 L 121 234 L 154.5 228 L 182.5 225 L 183.5 224 L 200.5 223 L 201.5 222 L 213.5 222 L 214.5 221 L 231.5 221 L 232.5 220 Z M 248 221 L 247 222 L 222 222 L 221 223 L 198 224 L 197 225 L 188 225 L 181 227 L 154 230 L 152 230 Q 143 234 131 234 L 129 234 L 122 236 L 122 246 L 123 247 L 123 277 L 122 280 L 122 289 L 124 290 L 160 287 L 161 286 L 170 286 L 171 285 L 201 284 L 202 283 L 224 283 L 225 282 L 290 282 L 292 282 L 293 283 L 311 283 L 312 284 L 352 286 L 353 287 L 378 289 L 379 290 L 390 290 L 390 272 L 389 271 Q 387 264 390 263 L 390 237 L 385 234 L 356 230 L 350 228 L 340 228 L 326 225 L 317 225 L 316 224 L 291 223 L 290 222 L 272 222 L 271 221 L 269 222 L 266 221 L 251 221 L 250 222 L 248 221 Z "/>
    <path fill="#66d9e8" d="M 190.5 234 Q 199.5 235 203 241.5 L 207 254.5 L 207 256.5 Q 209.1 268.6 203.5 273 L 191.5 274 L 190.5 275 L 188.5 275 Q 179.5 276.5 177 271.5 L 176 269.5 L 176 250.5 L 182 238 L 190.5 234 Z M 189 236 L 185 238 Q 179 243 177 253 L 178 272 L 181 273 L 203 272 L 205 270 L 205 252 L 201 242 Q 198 235 189 236 Z "/>
    <path fill="#66d9e8" d="M 320.5 234 L 326.5 235 L 333 241.5 L 336 247.5 L 337 264.5 Q 334.8 265.7 336 270.5 L 333.5 274 Q 330.3 276.3 323.5 275 L 322.5 274 L 311.5 274 L 307 271.5 L 306 269.5 L 306 253.5 L 308 245.5 L 313.5 237 L 320.5 234 Z M 319 236 L 317 237 Q 310 241 308 251 L 308 270 L 311 272 L 333 273 L 335 269 L 335 251 L 332 243 L 325 236 L 319 236 Z "/>
    <path fill="#66d9e8" d="M 245.5 290 L 320.5 292 L 321.5 293 L 366.5 296 L 381.5 299 L 398.5 300 L 408.5 303 L 425.5 305 Q 433.3 306.2 437 311.5 L 439 318.5 L 437 326 L 431.5 328 L 392.5 321 L 384.5 321 L 383.5 320 L 359.5 318 L 350.5 316 L 340.5 316 L 339.5 315 L 325.5 315 L 324.5 314 L 310.5 314 L 309.5 313 L 288.5 313 L 287.5 312 L 223.5 312 L 222.5 313 L 202.5 313 L 201.5 314 L 162.5 316 L 161.5 317 L 153.5 317 L 152.5 318 L 144.5 318 L 128.5 321 L 106.5 323 L 100.5 325 L 79.5 328 L 76 325.5 Q 72.8 322.2 74 314.5 L 78.5 308 L 86.5 305 L 103.5 303 L 108.5 301 L 130.5 299 L 146.5 296 L 190.5 293 L 191.5 292 L 244.5 291 L 245.5 290 Z M 225 292 L 224 293 L 202 293 L 201 294 L 189 294 L 188 295 L 175 295 L 173 295 L 166 296 L 164 296 L 162 297 L 136 299 L 134 299 Q 129 302 121 301 L 119 301 L 104 304 L 102 304 Q 95 307 86 307 L 79 310 L 75 319 L 77 325 L 80 326 L 107 322 L 109 322 L 116 320 L 138 318 L 139 317 L 156 316 L 158 316 L 168 314 L 192 313 L 193 312 L 228 311 L 230 311 Q 235 313 237 310 L 279 310 L 280 311 L 283 310 L 285 311 L 299 311 L 300 312 L 320 312 L 322 312 L 323 313 L 333 313 L 334 314 L 345 314 L 346 315 L 348 314 L 365 317 L 391 319 L 416 324 L 434 326 L 437 321 Q 438 314 435 312 L 428 307 L 413 305 L 411 305 L 400 302 L 386 301 L 371 298 L 327 295 L 325 295 L 324 294 L 312 294 L 311 293 L 289 293 L 288 292 L 225 292 Z "/>
    <path fill="#66d9e8" d="M 226.5 319 L 236.5 319 L 238 320.5 L 239 437.5 L 238 440 L 224.5 440 L 224 439.5 L 224 372.5 L 225 371.5 L 225 320.5 L 226.5 319 Z M 226 321 L 226 334 L 227 337 L 226 338 L 226 401 L 225 402 L 225 434 L 226 438 L 229 439 L 237 438 L 237 361 L 236 360 L 237 357 Q 239 350 236 349 L 236 321 L 226 321 Z "/>
    <path fill="#66d9e8" d="M 245 319 L 266.5 319 L 268 320.5 L 267 440 L 246.5 440 L 245 438.5 L 246 433.5 L 246 395.5 L 245 394.5 L 245 319 Z M 249 320 L 246 321 L 246 358 L 247 359 L 246 363 L 247 366 L 247 438 L 254 439 L 257 438 L 264 439 L 265 438 L 265 394 L 265 392 Q 264 387 266 386 L 266 349 L 267 348 L 267 328 L 266 321 L 264 320 L 249 320 Z "/>
    <path fill="#66d9e8" d="M 275 319 L 286.5 319 L 288 320.5 L 289 438.5 L 287.5 440 L 275.5 440 L 274 438.5 L 274 366.5 L 275 365.5 L 275 319 Z M 281 320 L 276 321 L 276 381 L 275 382 L 275 436 L 276 437 Q 275 439 278 438 L 280 438 L 282 439 L 287 438 L 286 321 L 281 320 Z "/>
    <path fill="#66d9e8" d="M 200.5 320 L 217.5 320 L 218 320.5 L 218 385.5 L 217 386.5 L 217 440 L 196.5 440 L 196 438.5 L 195 437.5 L 195 424.5 L 196 423.5 L 196 406.5 L 195 405.5 L 194 322.5 L 200.5 320 Z M 211 321 L 210 322 L 196 322 L 196 393 L 197 394 L 197 438 L 216 438 L 216 415 L 215 414 L 216 413 L 216 371 L 217 370 Q 218 365 216 364 L 217 360 L 217 328 L 216 327 L 217 323 Q 216 320 211 321 Z "/>
    <path fill="#66d9e8" d="M 295 320 L 313.5 320 L 318 321 L 317 438.5 L 315.5 440 L 296.5 440 L 295 438.5 L 295 348.5 L 294 347.5 L 294 337.5 L 295 336.5 L 295 320 Z M 299 321 L 296 325 L 296 375 L 297 376 L 297 438 L 298 438 L 315 438 L 316 435 L 316 427 L 315 426 L 316 365 L 317 364 L 316 359 Q 315 354 317 353 L 316 348 L 316 339 L 317 338 Q 318 327 316 322 L 299 321 Z "/>
    <path fill="#66d9e8" d="M 176.5 322 L 186.5 322 L 188 323.5 L 187 328.5 L 187 343.5 L 188 344.5 L 188 401.5 L 189 402.5 L 189 423.5 L 188 424.5 L 188 439 Q 184.7 441.1 176.5 440 L 174 439 L 175 323.5 L 176.5 322 Z M 177 324 L 176 328 L 177 338 L 176 341 L 177 343 L 176 344 L 176 397 L 175 398 L 175 431 L 176 432 L 175 435 L 176 437 L 177 438 L 186 438 L 187 436 L 187 385 L 186 384 L 186 325 L 186 324 L 177 324 Z "/>
    <path fill="#66d9e8" d="M 325 322 L 335.5 322 L 338 324.5 L 337 342.5 L 338 343.5 L 339 432.5 L 338 439 Q 334.4 441.2 325.5 440 L 324 438.5 L 324 380.5 L 325 379.5 L 325 322 Z M 328 323 L 327 354 L 326 355 Q 324 361 327 363 L 326 364 L 326 393 L 325 394 L 325 436 L 326 438 L 336 438 L 337 437 L 337 373 L 336 372 L 337 370 L 336 368 L 336 327 L 334 324 Q 329 325 328 323 Z "/>
    <path fill="#66d9e8" d="M 165.5 323 L 168 324.5 L 167 439 L 150.5 439 L 150 437.5 L 150 435.5 L 149 332.5 L 148 327.5 L 149 325 Q 154.6 323.1 164.5 324 L 165.5 323 Z M 162 325 L 161 326 L 152 326 L 150 328 L 150 373 L 151 374 L 151 406 L 152 407 L 152 421 L 151 422 L 151 437 L 153 437 L 155 437 Q 159 436 161 438 L 165 437 L 166 436 L 166 348 L 166 346 Q 168 341 167 333 L 166 330 Q 168 323 162 325 Z "/>
    <path fill="#66d9e8" d="M 346.5 323 L 364 325 L 363 439 L 346.5 439 L 345 437.5 L 346 402.5 L 345 401.5 L 345 324.5 L 346.5 323 Z M 348 325 L 346 327 L 347 438 L 360 438 L 362 437 L 361 436 L 362 434 L 361 432 L 361 403 L 362 402 L 361 399 L 362 397 L 362 333 L 363 332 L 362 326 L 348 325 Z "/>
    <path fill="#66d9e8" d="M 136.5 326 Q 141 325 142 327.5 L 143 437.5 L 141.5 439 L 131.5 439 L 129 435.5 L 129 390.5 L 130 389.5 L 130 328.5 L 131.5 327 L 136.5 326 Z M 135 328 L 132 329 L 131 400 L 130 403 L 131 404 L 131 424 L 130 427 L 131 429 L 131 437 L 141 437 L 141 430 L 142 429 Q 144 422 141 421 L 141 404 L 142 403 L 141 400 L 141 365 L 140 361 L 140 359 L 140 329 Q 140 327 135 328 Z "/>
    <path fill="#66d9e8" d="M 371 326 L 382 327 L 383 329.5 L 384 434.5 L 381.5 439 L 370.5 439 L 370 438.5 L 370 353.5 L 371 352.5 L 371 326 Z M 372 328 L 372 383 L 371 384 L 371 432 L 372 434 L 372 436 L 373 437 L 382 437 L 381 329 L 372 328 Z "/>
    <path fill="#66d9e8" d="M 411.5 331 L 421 333 L 422 438 L 417.5 439 L 416.5 438 L 409 438 L 409 357.5 L 410 356.5 L 410 332.5 L 411.5 331 Z M 414 334 L 411 335 L 411 389 L 410 390 L 411 395 L 410 397 L 410 435 L 411 436 L 412 437 L 420 437 L 421 434 L 420 337 Q 419 333 414 334 Z "/>
    <path fill="#66d9e8" d="M 94.5 332 L 102.5 332 L 103 332.5 L 103 386.5 L 104 387.5 L 104 436.5 L 102.5 438 L 94.5 438 L 93.5 439 L 91 438 L 90 404.5 L 91 403.5 L 91 334.5 L 92.5 333 L 94.5 332 Z M 99 333 L 93 334 L 93 373 L 92 374 L 93 376 L 92 378 L 92 436 L 94 437 L 102 437 L 102 427 L 103 426 L 103 403 L 103 401 L 102 399 L 102 367 L 102 365 L 101 361 L 102 360 L 102 352 L 102 350 L 101 348 L 101 334 L 99 333 Z "/>
    <path fill="#66d9e8" d="M 86.5 445 L 137.5 445 L 138.5 446 L 191.5 446 L 196.5 447 L 201.5 446 L 202.5 447 L 211.5 447 L 213.5 447 L 319.5 447 L 320.5 446 L 428.5 445 Q 429.8 447.2 434.5 446 L 438 449.5 L 438 462.5 L 434.5 466 L 400.5 467 L 399.5 468 L 373.5 468 L 372.5 469 L 342.5 469 L 341.5 470 L 207.5 470 L 206.5 469 L 140.5 468 L 139.5 467 L 89.5 467 L 88.5 466 L 78.5 466 L 75 462.5 L 74 451.5 L 77.5 446 L 85.5 446 L 86.5 445 Z M 79 447 L 76 451 L 76 462 L 82 465 L 127 465 L 128 466 L 157 466 L 158 467 L 161 466 L 163 467 L 186 467 L 187 468 L 190 467 L 191 468 L 234 468 L 237 469 L 306 469 L 307 468 L 310 469 L 311 468 L 359 468 L 360 467 L 362 468 L 365 467 L 380 467 L 381 466 L 384 467 L 386 466 L 413 466 L 414 465 Q 426 467 435 464 L 437 460 L 436 451 L 432 447 L 355 447 L 353 447 L 352 448 L 281 448 L 279 448 L 267 448 L 266 449 Q 261 450 260 448 L 252 448 L 251 449 L 249 448 L 170 448 L 168 448 L 158 448 L 157 447 L 79 447 Z "/>
  </g>
  <g id="line">
    <path fill="#1a1a1a" d="M 250.5 36 L 268.5 37 L 278 43.5 L 281 51.5 L 282 75.5 L 284.5 78 L 297.5 81 L 316.5 90 L 338 105 Q 336.9 107.7 339.5 107 Q 357.7 124.3 369 148.5 L 376 165.5 L 383 191.5 L 384 202.5 L 386.5 206 Q 401.1 207.4 408 216.5 L 410 222.5 L 410 228.5 L 405.5 235 L 399 237.5 L 398 274.5 L 399 275.5 L 399 291.5 L 400 294 L 417.5 296 L 434.5 300 L 443 307.5 L 446 318.5 Q 443.7 319.8 445 324.5 L 442 331 L 434.5 335 L 428 335 L 428 378.5 L 429 379.5 L 429 437.5 L 430.5 439 Q 440.3 438.3 443 444.5 L 446 457.5 L 444 465.5 L 439.5 471 L 434.5 473 L 425.5 473 L 424.5 474 L 375.5 475 L 374.5 476 L 332.5 476 L 331.5 477 L 217.5 477 L 216.5 476 L 173.5 476 L 172.5 475 L 77.5 473 Q 71.4 471.6 69 466.5 Q 65.8 460.8 67 450.5 L 72.5 441 Q 76 437.8 83 439 L 84 434.5 L 83 433.5 L 83 394.5 L 84 393.5 L 84 335 Q 74 335.8 70 329.5 Q 65.7 324.3 67 313.5 L 73.5 303 L 81.5 299 L 101.5 295 L 107.5 295 L 113 292.5 L 114 287.5 L 114 238.5 Q 113.3 235.3 108.5 236 L 103 230.5 L 103 219.5 L 107.5 213 L 113.5 209 L 126.5 206 L 128 204.5 Q 136.9 137.9 177.5 103 Q 189.8 92.3 205.5 85 L 230 77 L 231 73.5 L 231 54.5 Q 233.3 53.3 232 48.5 L 238.5 40 L 241.5 38 L 250.5 36 Z M 251 43 L 244 45 L 239 51 L 238 76 L 242 75 L 271 75 L 272 76 L 275 75 L 274 70 L 274 52 L 273 49 L 267 44 L 251 43 Z M 242 82 L 227 85 L 208 92 Q 193 98 183 109 L 180 111 Q 159 130 147 159 L 138 187 L 136 204 L 145 202 L 165 200 L 171 198 L 188 197 L 197 195 L 219 194 L 220 193 L 245 193 L 246 192 L 308 194 L 309 195 L 335 197 L 355 201 L 363 201 L 364 202 L 375 203 Q 376 205 377 203 Q 370 153 344 123 L 321 101 L 301 90 L 286 85 L 271 82 L 242 82 Z M 236 199 L 235 200 L 220 200 L 219 201 L 209 201 L 208 202 L 196 202 L 181 205 L 165 206 L 147 210 L 135 211 L 115 217 L 110 223 Q 109 228 112 229 Q 122 229 130 225 L 143 224 L 154 221 L 175 219 L 183 217 L 202 216 L 203 215 L 216 215 L 217 214 L 234 214 L 235 213 L 277 213 L 278 214 L 311 215 L 312 216 L 321 216 L 322 217 L 345 219 L 346 220 L 353 220 L 371 224 L 378 224 L 398 229 Q 402 230 403 227 L 402 221 L 395 215 L 374 210 L 367 210 L 341 205 L 332 205 L 324 203 L 294 201 L 293 200 L 236 199 Z M 233 220 L 232 221 L 215 221 L 214 222 L 202 222 L 201 223 L 184 224 L 183 225 L 155 228 L 121 234 L 121 264 L 122 265 L 121 267 L 121 292 L 156 289 L 157 288 L 167 288 L 168 287 L 180 287 L 181 286 L 195 286 L 196 285 L 209 285 L 210 284 L 246 284 L 247 283 L 302 284 L 303 285 L 345 287 L 346 288 L 355 288 L 356 289 L 365 289 L 374 291 L 392 292 L 392 280 L 391 279 L 392 236 L 388 233 L 377 232 L 371 230 L 365 230 L 359 228 L 338 226 L 330 224 L 323 224 L 322 223 L 313 223 L 312 222 L 281 221 L 280 220 L 233 220 Z M 246 290 L 245 291 L 192 292 L 191 293 L 147 296 L 131 299 L 109 301 L 104 303 L 87 305 L 79 308 L 74 315 Q 73 322 76 326 L 80 328 L 101 325 L 107 323 L 129 321 L 145 318 L 153 318 L 154 317 L 162 317 L 163 316 L 202 314 L 203 313 L 223 313 L 224 312 L 288 312 L 289 313 L 310 313 L 311 314 L 325 314 L 326 315 L 340 315 L 341 316 L 351 316 L 360 318 L 384 320 L 385 321 L 393 321 L 432 328 L 437 326 L 439 319 L 437 312 Q 433 306 426 305 L 409 303 L 399 300 L 382 299 L 367 296 L 322 293 L 321 292 L 246 290 Z M 227 319 L 225 321 L 225 372 L 224 373 L 224 440 L 225 440 L 238 440 L 239 438 L 238 321 L 237 319 L 227 319 Z M 245 319 L 245 395 L 246 396 L 246 434 L 245 439 L 247 440 L 267 440 L 268 321 L 267 319 L 245 319 Z M 275 319 L 275 366 L 274 367 L 274 439 L 276 440 L 288 440 L 289 439 L 288 321 L 287 319 L 275 319 Z M 201 320 L 194 323 L 195 406 L 196 407 L 196 424 L 195 425 L 195 438 L 196 439 L 197 440 L 217 440 L 217 387 L 218 386 L 218 321 L 218 320 L 201 320 Z M 295 320 L 295 337 L 294 338 L 294 348 L 295 349 L 295 439 L 297 440 L 316 440 L 317 439 L 318 321 L 314 320 L 295 320 Z M 177 322 L 175 324 L 174 439 L 177 440 Q 185 441 188 439 L 188 425 L 189 424 L 189 403 L 188 402 L 188 345 L 187 344 L 187 329 L 188 324 L 187 322 L 177 322 Z M 325 322 L 325 380 L 324 381 L 324 439 L 326 440 Q 334 441 338 439 L 339 433 L 338 344 L 337 343 L 338 325 L 336 322 L 325 322 Z M 166 323 L 165 324 Q 155 323 149 325 L 148 328 L 149 333 L 150 436 L 150 438 L 151 439 L 167 439 L 168 325 L 166 323 Z M 347 323 L 345 325 L 345 402 L 346 403 L 345 438 L 347 439 L 363 439 L 364 325 L 347 323 Z M 137 326 L 132 327 L 130 329 L 130 390 L 129 391 L 129 436 L 132 439 L 142 439 L 143 438 L 142 328 Q 141 325 137 326 Z M 371 326 L 371 353 L 370 354 L 370 439 L 371 439 L 382 439 L 384 435 L 383 330 L 382 327 L 371 326 Z M 122 328 L 110 330 L 110 387 L 111 388 L 111 438 L 112 438 L 122 438 L 122 384 L 123 383 L 123 330 L 122 328 Z M 392 328 L 390 330 Q 391 334 389 336 L 390 405 L 391 406 L 390 438 L 392 439 L 401 439 L 402 438 L 403 332 L 399 329 Q 393 331 392 328 Z M 412 331 L 410 333 L 410 357 L 409 358 L 409 438 L 417 438 L 418 439 L 422 438 L 421 333 L 412 331 Z M 95 332 L 93 333 L 91 335 L 91 404 L 90 405 L 91 438 L 94 439 L 95 438 L 103 438 L 104 437 L 104 388 L 103 387 L 103 333 L 103 332 L 95 332 Z M 87 445 L 86 446 L 78 446 L 74 452 L 75 463 L 79 466 L 89 466 L 90 467 L 140 467 L 141 468 L 207 469 L 208 470 L 342 470 L 343 469 L 373 469 L 374 468 L 400 468 L 401 467 L 435 466 L 438 463 L 438 450 L 435 446 Q 430 447 429 445 L 321 446 L 320 447 L 214 447 L 212 447 L 203 447 L 202 446 L 197 447 L 192 446 L 139 446 L 138 445 L 87 445 Z "/>
    <path fill="#1a1a1a" d="M 188.5 236 Q 198.3 235.3 201 241.5 L 205 251.5 L 205 269.5 L 202.5 272 L 180.5 273 L 178 270.5 L 177 252.5 Q 178.5 243 184.5 238 L 188.5 236 Z M 191 243 L 185 250 L 185 266 L 196 266 L 198 265 L 198 255 L 196 247 L 191 243 Z "/>
    <path fill="#1a1a1a" d="M 318.5 236 L 324.5 236 L 332 242.5 L 335 250.5 L 335 268.5 L 332.5 273 L 310.5 272 L 308 269.5 L 308 250.5 Q 309.9 241.4 316.5 237 L 318.5 236 Z M 321 243 L 315 250 L 315 260 L 314 265 L 328 266 L 328 252 L 326 247 L 321 243 Z "/>
  </g>
</svg>
