<svg xmlns="http://www.w3.org/2000/svg" width="512" height="512" viewBox="0 0 512 512">
  <g id="color">
    <path fill="#ffffff" d="M 397.5 64 L 408 64.5 L 397.5 65 L 397.5 64 Z "/>
    <path fill="#ffffff" d="M 386.5 68 L 385.5 70 L 383.5 71 L 384.5 69 L 386.5 68 Z "/>
    <path fill="#ffffff" d="M 472.5 120 L 475 124.5 L 474 124.5 L 472.5 120 Z "/>
    <path fill="#ffffff" d="M 476.5 129 L 477 140.5 L 476 140.5 L 476.5 129 Z "/>
    <path fill="#ffffff" d="M 474.5 145 L 475 146.5 L 472.5 150 L 473 148.5 L 474.5 145 Z "/>
    <path fill="#ffffff" d="M 307.5 158 L 305 161.5 L 301.5 166 L 304 162.5 L 307.5 158 Z "/>
    <path fill="#ffffff" d="M 101.5 230 L 100.5 232 L 97.5 234 L 99.5 231 L 101.5 230 Z "/>
    <path fill="#ffffff" d="M 253.5 231 L 253 232.5 L 250.5 236 L 252 233.5 L 253.5 231 Z "/>
    <path fill="#ffffff" d="M 249.5 237 L 248 239.5 L 246.5 242 L 247 240.5 L 249.5 237 Z "/>
    <path fill="#ffffff" d="M 240.5 250 L 239 252.5 L 237.5 255 L 238 253.5 L 240.5 250 Z "/>
    <path fill="#ffffff" d="M 227.5 269 L 226 271.5 L 224.5 274 L 225 272.5 L 227.5 269 Z "/>
    <path fill="#ffffff" d="M 222.5 276 L 222 277.5 L 219.5 281 L 221 278.5 L 222.5 276 Z "/>
    <path fill="#ffffff" d="M 36.5 291 L 37 299.5 L 36 299.5 L 36.5 291 Z "/>
    <path fill="#ffffff" d="M 204.5 303 L 204 304.5 L 202.5 307 L 203 305.5 L 204.5 303 Z "/>
    <path fill="#ffffff" d="M 69.5 331 L 76 336.5 L 72.5 334 L 69.5 331 Z "/>
    <path fill="#ffffff" d="M 258.5 396 L 257 398.5 L 254.5 402 L 256 399.5 L 258.5 396 Z "/>
    <path fill="#ffffff" d="M 244.5 415 L 243 417.5 L 240.5 421 L 242 418.5 L 244.5 415 Z "/>
    <path fill="#ffffff" d="M 225.5 438 L 222.5 442 L 220.5 443 L 221.5 441 L 225.5 438 Z "/>
    <path fill="#ffffff" d="M 180.5 439 L 184 441.5 L 182.5 441 L 180.5 439 Z "/>
    <path fill="#ffffff" d="M 187.5 443 L 191 444.5 L 189.5 445 L 187.5 443 Z "/>
    <path fill="#51cf66" d="M 399.5 78 L 406.5 78 L 412.5 81 L 430 98.5 L 433.5 103 Q 435.8 102.3 435 104.5 L 461 126.5 Q 464.5 130.5 463 139.5 L 461 143.5 L 441.5 163 L 400 202.5 L 363 242.5 L 363 244 Q 360.3 242.9 361 245.5 L 342 266.5 L 295 324.5 L 223 422.5 L 215.5 430 Q 209.7 435.2 196.5 433 Q 180.2 426.3 170 413.5 Q 141 376.5 106.5 345 L 78.5 321 L 51 300.5 L 50 293.5 L 53.5 289 L 108.5 242 Q 111.8 238.8 119.5 240 L 140 265.5 L 157 283.5 L 187 324.5 L 192.5 330 L 200.5 331 L 206 326.5 Q 251.1 255.1 301 188.5 Q 341.8 132.8 388.5 83 L 399.5 78 Z "/>
  </g>
  <g id="line">
    <path fill="#1a1a1a" d="M 396.5 65 L 412.5 66 Q 423.6 71.4 431 80.5 L 446.5 97 L 470 116.5 L 476 128.5 L 476 141.5 Q 469.6 157.6 456.5 167 Q 429.3 189.3 406 215.5 Q 367.4 255.9 332 299.5 Q 279.8 363.8 232 432.5 L 226.5 438 L 215.5 445 L 208.5 447 L 199.5 447 Q 171.7 439.3 157 418.5 Q 133.9 388.6 106.5 363 L 104 361.5 L 102.5 359 Q 78.6 335.4 49.5 317 L 39 306.5 Q 35.4 301.1 37 290.5 Q 40.9 280.4 49.5 275 L 62.5 265 L 96.5 234 L 106.5 228 L 113.5 226 L 118.5 226 L 125.5 228 L 132 233.5 L 142 247.5 L 171 279.5 L 196.5 315 Q 198.8 315.8 198 313.5 Q 239.9 248.9 285 187.5 Q 328.4 128.4 377.5 75 Q 384.7 67.7 396.5 65 Z M 400 78 L 389 83 Q 342 133 301 189 Q 251 255 206 327 L 201 331 L 193 330 L 187 325 L 157 284 L 140 266 L 120 240 Q 112 239 109 242 L 54 289 L 50 294 L 51 301 L 79 321 L 107 345 Q 141 377 170 414 Q 180 426 197 433 Q 210 435 216 430 L 223 423 L 295 325 L 342 267 L 361 246 Q 360 243 363 244 L 363 243 L 400 203 L 442 163 L 461 144 L 463 140 Q 465 131 461 127 L 435 105 Q 436 102 434 103 L 430 99 L 413 81 L 407 78 L 400 78 Z "/>
  </g>
</svg>
