<svg xmlns="http://www.w3.org/2000/svg" width="512" height="512" viewBox="0 0 512 512">
  <g id="color">
    <path fill="#ffffff" d="M 223.5 36 L 340 36.5 L 223.5 37 L 223.5 36 Z "/>
    <path fill="#ffffff" d="M 170.5 37 L 221 37.5 L 170.5 38 L 170.5 37 Z "/>
    <path fill="#ffffff" d="M 344.5 37 L 383 37.5 L 344.5 38 L 344.5 37 Z "/>
    <path fill="#ffffff" d="M 129.5 38 L 154 38.5 L 129.5 39 L 129.5 38 Z "/>
    <path fill="#ffffff" d="M 394.5 38 L 407 38.5 L 394.5 39 L 394.5 38 Z "/>
    <path fill="#ffffff" d="M 99.5 39 L 114 39.5 L 99.5 40 L 99.5 39 Z "/>
    <path fill="#ffffff" d="M 414.5 39 L 424 39.5 L 414.5 40 L 414.5 39 Z "/>
    <path fill="#ffffff" d="M 88.5 40 L 98 40.5 L 88.5 41 L 88.5 40 Z "/>
    <path fill="#ffffff" d="M 426.5 40 L 431 40.5 L 426.5 41 L 426.5 40 Z "/>
    <path fill="#ffffff" d="M 77.5 42 L 80 42.5 L 73.5 45 L 74.5 43 L 77.5 42 Z "/>
    <path fill="#ffffff" d="M 436.5 42 L 441 44.5 L 439.5 44 Q 435.7 43.8 436.5 42 Z "/>
    <path fill="#ffffff" d="M 442.5 45 L 449 52.5 L 447 51.5 L 442.5 45 Z "/>
    <path fill="#ffffff" d="M 449.5 54 L 452 61.5 L 451 61.5 L 449.5 54 Z "/>
    <path fill="#ffffff" d="M 62.5 55 L 63 56.5 L 61.5 59 L 61 57.5 L 62.5 55 Z "/>
    <path fill="#ffffff" d="M 58.5 70 L 59 79.5 L 58 79.5 L 58.5 70 Z "/>
    <path fill="#ffffff" d="M 453.5 73 L 454 86.5 L 453 86.5 L 453.5 73 Z "/>
    <path fill="#ffffff" d="M 57.5 82 L 58 101.5 L 57 101.5 L 57.5 82 Z "/>
    <path fill="#ffffff" d="M 454.5 89 L 455 119.5 L 454 119.5 L 454.5 89 Z "/>
    <path fill="#ffffff" d="M 56.5 117 L 57 141.5 L 56 141.5 L 56.5 117 Z "/>
    <path fill="#ffffff" d="M 455.5 153 L 456 165.5 L 455 165.5 L 455.5 153 Z "/>
    <path fill="#ffffff" d="M 55.5 161 L 56 197.5 L 55 197.5 L 55.5 161 Z "/>
    <path fill="#ffffff" d="M 455.5 176 L 456 234.5 L 455 234.5 L 455.5 176 Z "/>
    <path fill="#ffffff" d="M 54.5 204 L 55 309.5 L 54 309.5 L 54.5 204 Z "/>
    <path fill="#ffffff" d="M 456.5 264 L 457 302.5 L 456 302.5 L 456.5 264 Z "/>
    <path fill="#ffffff" d="M 457.5 311 L 458 362.5 L 457 362.5 L 457.5 311 Z "/>
    <path fill="#ffffff" d="M 55.5 315 L 56 354.5 L 55 354.5 L 55.5 315 Z "/>
    <path fill="#ffffff" d="M 456.5 366 L 457 385.5 L 456 385.5 L 456.5 366 Z "/>
    <path fill="#ffffff" d="M 56.5 367 L 57 384.5 L 56 384.5 L 56.5 367 Z "/>
    <path fill="#ffffff" d="M 57.5 394 L 58 405.5 L 57 405.5 L 57.5 394 Z "/>
    <path fill="#ffffff" d="M 455.5 395 L 456 403.5 L 455 403.5 L 455.5 395 Z "/>
    <path fill="#ffffff" d="M 58.5 407 L 59 414.5 L 58 414.5 L 58.5 407 Z "/>
    <path fill="#ffffff" d="M 454.5 407 L 455 413.5 L 453.5 418 L 453 414.5 L 454.5 407 Z "/>
    <path fill="#ffffff" d="M 61.5 423 L 64 427.5 L 62 426.5 L 61.5 423 Z "/>
    <path fill="#ffffff" d="M 451.5 423 L 452 424.5 L 449.5 428 L 450 426.5 L 451.5 423 Z "/>
    <path fill="#ffffff" d="M 69.5 434 L 75 437.5 L 73.5 438 L 69.5 434 Z "/>
    <path fill="#ffffff" d="M 431.5 438 L 434 438.5 L 426.5 440 L 426.5 439 L 431.5 438 Z "/>
    <path fill="#ffffff" d="M 84.5 440 L 89 440.5 L 84.5 441 L 84.5 440 Z "/>
    <path fill="#ffffff" d="M 419.5 440 L 424 440.5 L 419 441 L 418.5 444 L 418 441.5 L 419.5 440 Z "/>
    <path fill="#ffffff" d="M 91.5 441 Q 93.8 441.8 93 445.5 L 92 445.5 L 91.5 441 Z "/>
    <path fill="#ffffff" d="M 124.5 442 L 127 442.5 L 124 443 L 123.5 458 L 123 443.5 L 124.5 442 Z "/>
    <path fill="#ffffff" d="M 379.5 442 L 387.5 442 L 389 443.5 L 388.5 461 L 388 444.5 L 386.5 443 L 379.5 443 L 379.5 442 Z "/>
    <path fill="#ffffff" d="M 129.5 443 L 136 443.5 L 129.5 444 L 129.5 443 Z "/>
    <path fill="#ffffff" d="M 166 444 L 168 444.5 L 167 445.5 L 166.5 459 L 166 444 Z "/>
    <path fill="#ffffff" d="M 169.5 444 L 177.5 444 L 179 445.5 L 178.5 459 L 178 445 L 169.5 445 L 169.5 444 Z "/>
    <path fill="#ffffff" d="M 292 444 L 302.5 444 L 303 445.5 L 301.5 445 L 293.5 445 L 292.5 446 L 292 444 Z "/>
    <path fill="#ffffff" d="M 333.5 444 L 334 457.5 L 333 457.5 L 333.5 444 Z "/>
    <path fill="#ffffff" d="M 208.5 445 L 209 460.5 L 208 460.5 L 208.5 445 Z "/>
    <path fill="#ffffff" d="M 250 445 L 252 445.5 L 251 446.5 L 250.5 457 L 250 445 Z "/>
    <path fill="#ffffff" d="M 260.5 445 L 262 445.5 L 262 459.5 L 261 459.5 L 261 446.5 L 260.5 445 Z "/>
    <path fill="#ffffff" d="M 135.5 446 L 136 454.5 L 135 454.5 L 135.5 446 Z "/>
    <path fill="#ffffff" d="M 345.5 447 L 346 452.5 L 345 452.5 L 345.5 447 Z "/>
    <path fill="#ffffff" d="M 92.5 453 L 93 459.5 L 92 459.5 L 92.5 453 Z "/>
    <path fill="#ffffff" d="M 418.5 453 L 419 460.5 L 418 460.5 L 418.5 453 Z "/>
    <path fill="#ffffff" d="M 220.5 456 L 223 469.5 L 222 469.5 L 220 462.5 L 220.5 456 Z "/>
    <path fill="#ffffff" d="M 291.5 457 L 292 463.5 L 290.5 468 L 290 464.5 L 291.5 457 Z "/>
    <path fill="#ffffff" d="M 375.5 457 L 376 462.5 L 375 462.5 L 375.5 457 Z "/>
    <path fill="#ffffff" d="M 303.5 458 L 306 469.5 L 305 469.5 L 303 462.5 L 303.5 458 Z "/>
    <path fill="#ffffff" d="M 165.5 462 L 166 465.5 L 164.5 469 L 164 466.5 L 165.5 462 Z "/>
    <path fill="#ffffff" d="M 374.5 464 L 375 467.5 L 373.5 470 L 373 468.5 L 374.5 464 Z "/>
    <path fill="#ffffff" d="M 137.5 465 Q 138 471.5 142.5 474 L 144 474.5 L 142.5 475 Q 136.6 472.3 137.5 465 Z "/>
    <path fill="#ffffff" d="M 121.5 467 L 122 469.5 L 120 470.5 L 121.5 467 Z "/>
    <path fill="#ffffff" d="M 180.5 467 L 183 471.5 L 181 470.5 L 180.5 467 Z "/>
    <path fill="#ffffff" d="M 331.5 467 L 332 469.5 L 327.5 475 L 330 471.5 L 331.5 467 Z "/>
    <path fill="#ffffff" d="M 390.5 467 L 392 470.5 L 390 469.5 L 390.5 467 Z "/>
    <path fill="#ffffff" d="M 248.5 468 L 249 469.5 L 244.5 475 L 247 471.5 L 248.5 468 Z "/>
    <path fill="#ffffff" d="M 263.5 468 L 267.5 474 Q 272.1 476.9 280.5 476 L 284.5 475 L 284.5 476 L 273.5 477 Q 266.9 476.1 264 471.5 L 263.5 468 Z "/>
    <path fill="#ffffff" d="M 205.5 470 L 206 471.5 L 203 473.5 L 205.5 470 Z "/>
    <path fill="#ffffff" d="M 415.5 470 L 416 471.5 L 412 474.5 L 415.5 470 Z "/>
    <path fill="#ffffff" d="M 96.5 471 L 101 473.5 L 99.5 474 L 96.5 471 Z "/>
    <path fill="#ffffff" d="M 223.5 471 L 228 474.5 L 226.5 475 L 223.5 471 Z "/>
    <path fill="#ffffff" d="M 372.5 471 L 369.5 475 L 368 474.5 L 372.5 471 Z "/>
    <path fill="#ffffff" d="M 162.5 472 L 160.5 475 L 159 474.5 L 162.5 472 Z "/>
    <path fill="#ffffff" d="M 392.5 472 L 396 474.5 L 394.5 475 L 392.5 472 Z "/>
    <path fill="#ffffff" d="M 145.5 475 L 158 475.5 L 145.5 476 L 145.5 475 Z "/>
    <path fill="#ffffff" d="M 189.5 475 L 199 475.5 L 189.5 476 L 189.5 475 Z "/>
    <path fill="#ffffff" d="M 229.5 475 L 243 475.5 L 229.5 476 L 229.5 475 Z "/>
    <path fill="#ffffff" d="M 324.5 475 L 326 475.5 Q 323 478.5 315.5 477 L 315.5 476 L 323.5 476 L 324.5 475 Z "/>
    <path fill="#ffffff" d="M 355.5 475 L 367 475.5 L 355.5 476 L 355.5 475 Z "/>
    <path fill="#4da3ff" d="M 175.5 48 Q 176.8 50.2 181.5 49 L 186.5 48 L 190.5 49 L 194.5 48 L 197.5 49 L 198.5 48 L 377.5 48 L 387.5 50 L 426.5 51 L 435.5 54 L 438 56.5 Q 437 60.3 440 59 L 440 62.5 L 443 74.5 L 443 106.5 L 444 107.5 L 444 213.5 L 445 214.5 L 446 317.5 L 447 319.5 L 446 323.5 L 447 324.5 L 447 355.5 L 446 356.5 L 446 391.5 L 444 399.5 L 443 416.5 Q 440.2 417.2 441 421.5 L 436.5 426 Q 435 423.5 433.5 427 L 416.5 431 L 414.5 430 L 413.5 431 L 396.5 431 L 395.5 432 L 307.5 433 L 306.5 434 L 200.5 434 L 199.5 433 L 188.5 433 L 186.5 433 L 93.5 431 L 86.5 429 L 80.5 429 L 72 422.5 L 70 418.5 Q 71.5 413 69 411.5 L 68 378.5 L 67 377.5 L 65 244.5 L 66 243.5 L 66 166.5 L 67 165.5 L 67 163.5 L 69 75.5 L 73 57 L 77.5 54 L 87.5 53 L 93.5 51 L 146.5 50 L 148.5 49 L 151.5 50 L 152.5 49 L 174.5 49 L 175.5 48 Z M 234 76 L 233 77 L 162 77 L 161 78 L 131 79 L 130 80 L 115 81 L 105 86 L 97 97 L 95 108 L 95 117 L 94 118 L 94 148 L 93 149 L 93 169 L 92 170 L 92 258 L 91 259 L 91 277 L 92 278 L 92 348 L 93 349 L 93 359 L 94 360 L 94 377 L 99 393 Q 104 401 115 403 L 125 403 L 136 405 L 150 405 L 152 405 L 153 406 L 215 406 L 216 407 L 247 407 L 248 406 L 328 406 L 329 405 L 351 405 L 352 404 L 354 405 L 390 403 L 404 399 L 408 396 Q 407 393 410 394 L 415 383 L 416 350 L 417 349 L 417 337 L 416 336 L 416 299 L 415 298 L 414 200 L 413 199 L 413 123 L 412 122 L 411 102 L 407 92 Q 408 89 405 90 L 400 83 Q 397 84 398 81 L 383 78 L 374 78 L 373 77 L 338 77 L 337 76 L 234 76 Z "/>
    <path fill="#4da3ff" d="M 244.5 88 Q 249.3 86.8 250.5 89 L 251.5 88 L 327.5 88 L 328.5 89 L 354.5 89 L 355.5 90 L 384.5 91 Q 386.8 93.7 392.5 93 L 397 97.5 L 400 113.5 L 401 222.5 L 402 223.5 L 402 240.5 L 403 241.5 L 403 289.5 L 404 290.5 L 404 370.5 L 402 378.5 L 403 380.5 L 398.5 388 L 391.5 390 L 389.5 390 Q 381.5 389 377.5 392 L 313.5 393 L 312.5 394 L 311.5 393 L 301.5 393 L 300.5 394 L 233.5 394 L 230.5 395 L 228.5 395 L 220.5 394 Q 219 396.5 213.5 395 L 211.5 395 L 209.5 394 L 141.5 393 L 140.5 392 L 120.5 391 L 111.5 389 L 110 387.5 L 106 374.5 L 106 361.5 L 105 360.5 L 105 325.5 L 104 324.5 L 104 194.5 L 105 193.5 L 106 117.5 L 107 116.5 L 107 108.5 Q 109.6 105.6 109 99.5 L 112.5 95 L 114 95.5 Q 113.1 92.5 117.5 94 L 134.5 91 L 198.5 90 L 199.5 89 L 243.5 89 L 244.5 88 Z M 309 201 L 305 203 Q 302 202 303 205 L 301 205 L 301 207 L 297 207 L 295 207 L 288 211 L 287 214 Q 288 216 285 215 L 281 225 L 281 240 L 287 251 L 292 255 L 303 260 L 316 260 L 327 255 L 329 253 Q 328 250 331 251 L 338 236 L 338 226 L 334 217 L 334 214 L 330 208 L 322 203 Q 317 200 309 201 Z M 198 203 Q 190 205 186 210 Q 183 209 184 212 L 183 211 Q 176 218 174 229 L 174 237 L 179 250 L 184 253 L 185 256 L 196 260 L 207 260 L 208 259 Q 213 261 212 257 L 220 254 L 225 249 L 230 237 L 229 224 L 224 213 L 219 209 Q 215 210 216 207 L 207 204 L 198 203 Z "/>
    <path fill="#ffd43b" d="M 406.5 441 L 410 442.5 L 410 455.5 L 408 467 L 400.5 467 L 399 465.5 Q 395 457.5 397 443.5 L 398.5 442 Q 404.8 443.8 406.5 441 Z "/>
    <path fill="#ffd43b" d="M 101 442 L 113.5 442 L 115 443.5 L 115 456.5 L 113 466 L 104.5 466 L 102 463.5 L 101 460.5 L 101 442 Z "/>
    <path fill="#ffd43b" d="M 146.5 443 Q 154.4 442.1 158 445.5 L 157 463.5 L 154.5 467 Q 147.5 468.5 146 464.5 L 145 461.5 L 145 444.5 L 146.5 443 Z "/>
    <path fill="#ffd43b" d="M 356.5 443 L 365.5 443 L 367 444.5 L 367 458.5 L 365 467 Q 357.9 468.7 356 464.5 Q 353.4 456.6 355 444.5 L 356.5 443 Z "/>
    <path fill="#ffd43b" d="M 188.5 444 L 198.5 444 L 200 445.5 L 199 464.5 L 196.5 467 Q 189.3 468.3 188 463.5 L 187 445.5 L 188.5 444 Z "/>
    <path fill="#ffd43b" d="M 273.5 444 L 281.5 444 L 283 445.5 Q 285.1 459.6 280.5 467 Q 273.8 468.7 272 465.5 L 270 457.5 L 270 445 L 273.5 444 Z "/>
    <path fill="#ffd43b" d="M 313.5 444 L 323.5 444 L 325 445.5 L 325 455.5 L 323 467 L 314.5 467 L 314 465.5 Q 310.3 458.3 312 445.5 L 313.5 444 Z "/>
    <path fill="#ffd43b" d="M 229 445 L 240.5 445 L 242 446.5 L 241 463.5 L 238.5 467 Q 232.5 468.5 231 465.5 Q 227.4 457.4 229 445 Z "/>
    <path fill="#ff6b6b" d="M 316.5 212 L 316.5 214 L 318.5 213 L 322.5 219 Q 323.8 216.8 325 219.5 L 323 219.5 L 326 226.5 Q 324.7 233.3 327 236.5 L 326 236.5 L 325.5 235 L 325 237.5 L 325.5 239 L 324 238.5 L 325 240.5 L 317 246.5 L 317.5 248 L 313.5 248 L 303.5 248 L 302.5 249 L 302 247 L 299.5 246 L 298 246.5 L 298.5 245 L 296 243.5 L 295.5 242 L 294 242.5 L 294 240.5 Q 294.8 238.3 292.5 239 L 293 237.5 L 292.5 235 L 291 235.5 L 291.5 227 L 292.5 233 L 293 225.5 L 292.5 224 L 294 224.5 L 293 222.5 L 295 222.5 L 294 220.5 L 296.5 220 Q 299.1 220.8 298 217.5 L 299.5 218 Q 303.3 219 302 216 L 305.5 216 L 308.5 213 L 310.5 213 Q 315.2 214.3 316.5 212 Z "/>
    <path fill="#51cf66" d="M 202.5 215 Q 213.3 215.3 217 222.5 Q 220.7 226.8 219 236.5 L 212.5 246 Q 207.7 250.7 196.5 249 Q 189.6 247.4 187 241.5 Q 183.5 237.5 185 228.5 L 190 218 L 193.5 216 L 196.5 216 L 198.5 217 L 202.5 215 Z "/>
    <path fill="#66d9e8" d="M 196.5 46 L 362.5 46 L 363.5 47 L 397.5 47 L 398.5 48 L 412.5 48 L 413.5 49 L 431.5 50 L 439 54.5 L 442 59.5 L 445 76.5 L 445 110.5 L 446 111.5 L 446 215.5 L 447 216.5 L 447 267.5 L 448 268.5 L 448 382.5 L 447 383.5 L 447 398.5 L 446 399.5 L 445 415.5 Q 443.5 424 437.5 428 L 432.5 430 L 415.5 432 L 414.5 433 L 393.5 433 L 392.5 434 L 353.5 434 L 352.5 435 L 313.5 435 L 312.5 436 L 187.5 436 L 186.5 435 L 149.5 435 L 148.5 434 L 93.5 433 L 78.5 430 L 71 424.5 L 67 410.5 L 66 378.5 L 65 377.5 L 65 338.5 L 64 337.5 L 64 172.5 L 65 171.5 L 65 133.5 L 66 132.5 L 67 76.5 L 70 60.5 L 74.5 54 L 81.5 51 L 92.5 50 L 93.5 49 L 146.5 48 L 147.5 47 L 195.5 47 L 196.5 46 Z M 176 48 L 175 49 L 153 49 L 152 50 L 149 49 L 147 50 L 94 51 L 88 53 L 78 54 L 73 57 L 69 76 L 67 164 L 67 166 L 66 167 L 66 244 L 65 245 L 67 378 L 68 379 L 69 412 Q 72 413 70 419 L 72 423 Q 74 427 76 424 L 75 426 L 81 429 L 87 429 L 94 431 L 187 433 L 189 433 L 200 433 L 201 434 L 307 434 L 308 433 L 396 432 L 397 431 L 414 431 L 415 430 L 417 431 L 434 427 L 437 424 L 438 425 L 441 422 Q 440 417 443 417 L 444 400 L 446 392 L 446 357 L 447 356 L 447 325 L 446 324 L 447 320 L 446 318 L 445 215 L 444 214 L 444 108 L 443 107 L 443 75 L 440 63 L 440 59 Q 437 60 438 57 L 436 54 L 427 51 L 388 50 L 378 48 L 199 48 L 198 49 L 195 48 L 191 49 L 187 48 L 182 49 Q 177 50 176 48 Z "/>
    <path fill="#66d9e8" d="M 233.5 76 L 336.5 76 L 337.5 77 L 372.5 77 L 373.5 78 L 382.5 78 L 398 81 Q 396.9 83.7 399.5 83 L 405 90 Q 407.7 88.9 407 91.5 L 411 101.5 L 412 121.5 L 413 122.5 L 413 198.5 L 414 199.5 L 415 297.5 L 416 298.5 L 416 335.5 L 417 336.5 L 417 348.5 L 416 349.5 L 415 382.5 L 409.5 394 Q 407.3 393.3 408 395.5 L 403.5 399 L 389.5 403 L 353.5 405 L 351.5 404 L 350.5 405 L 328.5 405 L 327.5 406 L 247.5 406 L 246.5 407 L 215.5 407 L 214.5 406 L 152.5 406 L 151.5 405 L 149.5 405 L 135.5 405 L 124.5 403 L 114.5 403 Q 103.8 400.7 99 392.5 L 94 376.5 L 94 359.5 L 93 358.5 L 93 348.5 L 92 347.5 L 92 277.5 L 91 276.5 L 91 258.5 L 92 257.5 L 92 169.5 L 93 168.5 L 93 148.5 L 94 147.5 L 94 117.5 L 95 116.5 L 95 107.5 L 97 96.5 L 104.5 86 L 114.5 81 L 129.5 80 L 130.5 79 L 160.5 78 L 161.5 77 L 232.5 77 L 233.5 76 Z M 219 78 L 218 79 L 170 79 L 169 80 L 129 81 L 112 84 L 107 87 L 100 95 L 97 105 L 96 144 L 95 145 L 95 177 L 94 178 L 94 234 L 93 235 L 93 286 L 94 287 L 95 363 L 96 364 L 97 383 L 102 394 Q 106 399 115 401 L 136 402 L 137 403 L 152 403 L 153 404 L 198 404 L 199 405 L 268 405 L 269 404 L 358 403 L 359 402 L 388 401 L 398 399 L 405 396 Q 411 392 413 383 Q 412 378 414 377 L 414 356 L 415 355 L 413 235 L 412 234 L 412 198 L 411 197 L 411 122 L 410 121 L 409 102 Q 408 93 403 89 Q 398 83 390 81 L 373 80 L 372 79 L 349 79 L 348 78 L 225 78 L 224 79 L 219 78 Z "/>
    <path fill="#66d9e8" d="M 261.5 86 L 324.5 86 L 325.5 87 L 374.5 88 L 375.5 89 L 389.5 90 L 396 93.5 L 399 98.5 L 402 114.5 L 403 221.5 L 404 222.5 L 404 247.5 L 405 248.5 L 405 296.5 L 406 297.5 L 406 369.5 L 405 370.5 L 404 383.5 L 399.5 389 L 383.5 393 L 373.5 393 L 372.5 394 L 341.5 394 L 340.5 395 L 296.5 395 L 295.5 396 L 170.5 396 L 169.5 395 L 127.5 394 L 111.5 391 L 108 387.5 L 105 378.5 L 104 359.5 L 103 358.5 L 103 325.5 L 102 324.5 L 102 199.5 L 103 198.5 L 104 120.5 L 105 119.5 L 105 111.5 L 107 100.5 L 112.5 93 L 126.5 90 L 135.5 90 L 136.5 89 L 200.5 88 L 201.5 87 L 260.5 87 L 261.5 86 Z M 245 88 L 244 89 L 200 89 L 199 90 L 135 91 L 118 94 Q 113 92 114 96 L 113 95 L 109 100 Q 110 106 107 109 L 107 117 L 106 118 L 105 194 L 104 195 L 104 325 L 105 326 L 105 361 L 106 362 L 106 375 L 110 388 L 112 389 L 121 391 L 141 392 L 142 393 L 210 394 L 212 395 L 214 395 Q 219 397 221 394 L 229 395 L 231 395 L 234 394 L 301 394 L 302 393 L 312 393 L 313 394 L 314 393 L 378 392 Q 382 389 390 390 L 392 390 L 399 388 L 403 381 L 402 379 L 404 371 L 404 291 L 403 290 L 403 242 L 402 241 L 402 224 L 401 223 L 400 114 L 397 98 L 393 93 Q 387 94 385 91 L 356 90 L 355 89 L 329 89 L 328 88 L 252 88 L 251 89 Q 249 87 245 88 Z "/>
    <path fill="#66d9e8" d="M 308.5 201 Q 316.9 200.1 321.5 203 L 330 208 L 334 213.5 L 334 216.5 L 338 225.5 L 338 235.5 L 331 251 Q 328.3 249.9 329 252.5 L 326.5 255 L 315.5 260 L 302.5 260 L 291.5 255 L 287 250.5 L 281 239.5 L 281 224.5 L 285 215 Q 287.7 216.1 287 213.5 L 288 211 L 294.5 207 L 296.5 207 L 301 207 L 301 205 L 303 205 Q 301.9 202.3 304.5 203 L 308.5 201 Z M 309 203 L 302 208 L 292 211 L 285 220 L 282 232 Q 282 242 287 248 L 294 254 L 303 258 L 316 258 L 326 253 L 331 248 L 336 236 L 336 225 L 329 211 Q 323 202 309 203 Z "/>
    <path fill="#66d9e8" d="M 197.5 203 L 206.5 204 L 216 207 Q 214.8 210 218.5 209 L 224 213 L 229 223.5 L 230 236.5 L 225 248.5 L 219.5 254 L 212 257 Q 213.3 260.7 207.5 259 L 206.5 260 L 195.5 260 L 185 256 L 183.5 253 L 179 249.5 L 174 236.5 L 174 228.5 Q 176.4 217.9 182.5 211 L 184 211.5 Q 183.3 209.3 185.5 210 Q 189.7 204.7 197.5 203 Z M 198 205 L 188 210 L 179 220 L 176 229 L 176 238 L 181 249 Q 186 256 197 258 L 208 258 L 220 252 Q 226 246 228 237 L 228 228 L 223 216 Q 219 210 211 207 L 198 205 Z "/>
    <path fill="#f783ac" d="M 309 212 Q 316.2 210.5 319 214.5 L 317.5 214 L 310.5 213 L 309 213.5 L 309 212 Z "/>
    <path fill="#f783ac" d="M 320.5 215 L 327 224.5 L 327 234.5 L 323.5 241 L 324 239.5 Q 327.1 235.1 326 226.5 Q 324.6 219.9 320 216.5 L 320.5 215 Z "/>
    <path fill="#f783ac" d="M 297.5 218 L 298 220 L 295 221.5 Q 291.9 225.4 292.5 233 L 292 225.5 L 295 219 L 297.5 218 Z "/>
    <path fill="#f783ac" d="M 293.5 239 L 297.5 245 L 302 247.5 L 300.5 248 L 295 243.5 L 293.5 239 Z "/>
    <path fill="#f783ac" d="M 321.5 242 L 323 242.5 L 316.5 248 L 321.5 242 Z "/>
    <path fill="#f783ac" d="M 303.5 248 L 314 248.5 L 309.5 250 Q 308.3 247.8 303.5 249 L 303.5 248 Z "/>
  </g>
  <g id="line">
    <path fill="#1a1a1a" d="M 221.5 37 L 343.5 37 L 344.5 38 L 413.5 39 L 414.5 40 L 425.5 40 L 435.5 42 Q 442.9 44.6 447 50.5 L 452 62.5 L 453 86.5 L 454 87.5 L 457 365.5 L 456 366.5 L 456 394.5 L 455 395.5 L 455 406.5 L 454 407.5 L 453 419.5 Q 450.3 429.8 442.5 435 L 435.5 438 L 419.5 440 L 418 441.5 L 419 452.5 L 418 453.5 L 417 466.5 Q 415.8 472.3 411.5 475 L 401.5 476 L 396.5 475 L 392 471.5 L 389 463.5 L 389 443.5 L 387.5 442 Q 379.8 441.2 376 443 L 375 463.5 L 373 470.5 L 369.5 474 L 367.5 475 L 354.5 475 L 350 472.5 L 346 459.5 L 346 444 L 333 444 L 333 461.5 L 331 469.5 L 326.5 475 L 314.5 476 L 308 474 L 305 467.5 L 303 457.5 L 303 444 L 292 444 L 292 456.5 L 289 471.5 L 285.5 475 L 273.5 476 L 267.5 474 L 265 471.5 Q 260 461.3 262 445 L 250 445 L 250 461.5 Q 247.8 462.7 249 467.5 L 243.5 475 L 228.5 475 L 223 470.5 L 220 455.5 L 220 445 L 208 445 L 208 461.5 L 206 469.5 L 202.5 474 Q 197 476.5 187.5 475 L 183 473 L 179 461.5 L 179 445.5 L 177.5 444 L 166 444 L 166 461.5 L 164 469.5 L 160.5 474 L 158.5 475 L 144.5 475 L 139 470.5 L 136 459.5 L 136 443 L 124.5 442 L 123 443.5 L 123 462.5 L 118.5 473 Q 114.5 476 106.5 475 L 101.5 474 L 96 470.5 L 93 462.5 L 92 446.5 L 93 442.5 L 88.5 440 L 75.5 438 L 66 431.5 Q 60.9 425.1 59 415.5 L 58 394.5 L 57 393.5 L 56 315.5 L 55 314.5 L 55 200.5 L 56 197.5 L 56 142.5 L 57 141.5 L 57 102.5 L 58 101.5 L 59 69.5 L 63 54.5 L 70.5 46 L 86.5 41 L 113.5 40 L 114.5 39 L 220.5 38 L 221.5 37 Z M 197 46 L 196 47 L 148 47 L 147 48 L 94 49 L 93 50 L 82 51 L 75 54 L 70 61 L 67 77 L 66 133 L 65 134 L 65 172 L 64 173 L 64 338 L 65 339 L 65 378 L 66 379 L 67 411 L 71 425 L 79 430 L 94 433 L 149 434 L 150 435 L 187 435 L 188 436 L 313 436 L 314 435 L 353 435 L 354 434 L 393 434 L 394 433 L 415 433 L 416 432 L 433 430 L 438 428 Q 444 424 445 416 L 446 400 L 447 399 L 447 384 L 448 383 L 448 269 L 447 268 L 447 217 L 446 216 L 446 112 L 445 111 L 445 77 L 442 60 L 439 55 L 432 50 L 414 49 L 413 48 L 399 48 L 398 47 L 364 47 L 363 46 L 197 46 Z M 407 441 Q 405 444 399 442 L 397 444 Q 395 457 399 466 L 401 467 L 408 467 L 410 456 L 410 443 L 407 441 Z M 101 442 L 101 461 L 102 464 L 105 466 L 113 466 L 115 457 L 115 444 L 114 442 L 101 442 Z M 147 443 L 145 445 L 145 462 L 146 465 Q 148 469 155 467 L 157 464 L 158 446 Q 154 442 147 443 Z M 357 443 L 355 445 Q 353 457 356 465 Q 358 469 365 467 L 367 459 L 367 445 L 366 443 L 357 443 Z M 189 444 L 187 446 L 188 464 Q 189 468 197 467 L 199 465 L 200 446 L 199 444 L 189 444 Z M 274 444 L 270 445 L 270 458 L 272 466 Q 274 469 281 467 Q 285 460 283 446 L 282 444 L 274 444 Z M 314 444 L 312 446 Q 310 458 314 466 L 315 467 L 323 467 L 325 456 L 325 446 L 324 444 L 314 444 Z M 229 445 Q 227 457 231 466 Q 233 469 239 467 L 241 464 L 242 447 L 241 445 L 229 445 Z "/>
    <path fill="#1a1a1a" d="M 218.5 78 L 223.5 79 L 224.5 78 L 347.5 78 L 348.5 79 L 371.5 79 L 372.5 80 L 389.5 81 Q 398.1 82.9 403 88.5 Q 407.7 93.3 409 101.5 L 410 120.5 L 411 121.5 L 411 196.5 L 412 197.5 L 412 233.5 L 413 234.5 L 415 354.5 L 414 355.5 L 414 376.5 Q 411.7 377.7 413 382.5 Q 411.3 391.8 404.5 396 L 397.5 399 L 387.5 401 L 358.5 402 L 357.5 403 L 268.5 404 L 267.5 405 L 198.5 405 L 197.5 404 L 152.5 404 L 151.5 403 L 136.5 403 L 135.5 402 L 114.5 401 Q 106.2 399.3 102 393.5 L 97 382.5 L 96 363.5 L 95 362.5 L 94 286.5 L 93 285.5 L 93 234.5 L 94 233.5 L 94 177.5 L 95 176.5 L 95 144.5 L 96 143.5 L 97 104.5 L 100 94.5 L 106.5 87 L 111.5 84 L 128.5 81 L 168.5 80 L 169.5 79 L 217.5 79 L 218.5 78 Z M 262 86 L 261 87 L 202 87 L 201 88 L 137 89 L 136 90 L 127 90 L 113 93 L 107 101 L 105 112 L 105 120 L 104 121 L 103 199 L 102 200 L 102 325 L 103 326 L 103 359 L 104 360 L 105 379 L 108 388 L 112 391 L 128 394 L 170 395 L 171 396 L 296 396 L 297 395 L 341 395 L 342 394 L 373 394 L 374 393 L 384 393 L 400 389 L 404 384 L 405 371 L 406 370 L 406 298 L 405 297 L 405 249 L 404 248 L 404 223 L 403 222 L 402 115 L 399 99 L 396 94 L 390 90 L 376 89 L 375 88 L 326 87 L 325 86 L 262 86 Z "/>
    <path fill="#1a1a1a" d="M 308.5 203 Q 323.3 202.2 329 210.5 L 336 224.5 L 336 235.5 L 331 247.5 L 325.5 253 L 315.5 258 L 302.5 258 L 293.5 254 L 287 247.5 Q 282.2 241.8 282 231.5 L 285 219.5 L 291.5 211 L 301.5 208 L 308.5 203 Z M 310 212 L 306 216 Q 299 215 297 218 L 291 228 Q 290 238 294 243 Q 298 249 307 250 L 312 250 L 318 248 Q 324 244 327 237 Q 329 225 325 220 L 317 212 L 310 212 Z "/>
    <path fill="#1a1a1a" d="M 197.5 205 L 210.5 207 Q 218.5 209.5 223 215.5 L 228 227.5 L 228 236.5 Q 225.7 246.2 219.5 252 L 207.5 258 L 196.5 258 Q 186.1 255.9 181 248.5 L 176 237.5 L 176 228.5 L 179 219.5 L 187.5 210 L 197.5 205 Z M 203 215 L 199 217 L 197 216 L 194 216 L 190 218 L 185 229 Q 184 238 187 242 Q 190 247 197 249 Q 208 251 213 246 L 219 237 Q 221 227 217 223 Q 213 215 203 215 Z "/>
  </g>
</svg>
