<svg xmlns="http://www.w3.org/2000/svg" width="512" height="512" viewBox="0 0 512 512">
  <g id="color">
    <path fill="#ffffff" d="M 241.5 36 L 273 36.5 L 241.5 37 L 241.5 36 Z "/>
    <path fill="#ffffff" d="M 230.5 37 L 236 37.5 L 230.5 38 L 230.5 37 Z "/>
    <path fill="#ffffff" d="M 277.5 37 L 283 37.5 L 277.5 38 L 277.5 37 Z "/>
    <path fill="#ffffff" d="M 215.5 39 L 219 39.5 L 211.5 41 L 211.5 40 L 215.5 39 Z "/>
    <path fill="#ffffff" d="M 194.5 44 L 197 44.5 L 192.5 46 L 192.5 45 L 194.5 44 Z "/>
    <path fill="#ffffff" d="M 316.5 44 L 321 45.5 L 319.5 46 L 316.5 45 L 316.5 44 Z "/>
    <path fill="#ffffff" d="M 329.5 48 L 333 49.5 L 331.5 50 L 329.5 48 Z "/>
    <path fill="#ffffff" d="M 342.5 53 L 346 54.5 L 344.5 55 L 342.5 53 Z "/>
    <path fill="#ffffff" d="M 163.5 56 L 162.5 58 L 159.5 59 L 159.5 58 L 163.5 56 Z "/>
    <path fill="#ffffff" d="M 153.5 61 L 152.5 63 L 150.5 64 L 151.5 62 L 153.5 61 Z "/>
    <path fill="#ffffff" d="M 368.5 66 L 372 68.5 L 370.5 68 L 368.5 66 Z "/>
    <path fill="#ffffff" d="M 139.5 69 L 137.5 72 L 135.5 73 L 136.5 71 L 139.5 69 Z "/>
    <path fill="#ffffff" d="M 76.5 129 L 75 131.5 L 73.5 134 L 74 132.5 L 76.5 129 Z "/>
    <path fill="#ffffff" d="M 436.5 129 L 440 133.5 L 438 132.5 L 436.5 129 Z "/>
    <path fill="#ffffff" d="M 449.5 149 L 452 153.5 L 450 152.5 L 449.5 149 Z "/>
    <path fill="#ffffff" d="M 63.5 150 L 63 151.5 L 61.5 154 L 62 152.5 L 63.5 150 Z "/>
    <path fill="#ffffff" d="M 458.5 167 L 460 170.5 L 459 170.5 L 458.5 167 Z "/>
    <path fill="#ffffff" d="M 50.5 177 L 51 178.5 L 49.5 181 L 49 179.5 L 50.5 177 Z "/>
    <path fill="#ffffff" d="M 463.5 180 L 465 183.5 L 464 183.5 L 463.5 180 Z "/>
    <path fill="#ffffff" d="M 45.5 191 L 46 193.5 L 44.5 197 L 44 194.5 L 45.5 191 Z "/>
    <path fill="#ffffff" d="M 467.5 192 L 469 196.5 L 468 196.5 L 467.5 192 Z "/>
    <path fill="#ffffff" d="M 37.5 229 L 38 233.5 L 37 233.5 L 37.5 229 Z "/>
    <path fill="#ffffff" d="M 475.5 230 L 476 235.5 L 475 235.5 L 475.5 230 Z "/>
    <path fill="#ffffff" d="M 36.5 239 L 37 253.5 L 36 253.5 L 36.5 239 Z "/>
    <path fill="#ffffff" d="M 476.5 240 L 477 272.5 L 476 272.5 L 476.5 240 Z "/>
    <path fill="#ffffff" d="M 36.5 255 L 37 272.5 L 36 272.5 L 36.5 255 Z "/>
    <path fill="#ffffff" d="M 37.5 278 L 38 282.5 L 37 282.5 L 37.5 278 Z "/>
    <path fill="#ffffff" d="M 475.5 278 L 476 282.5 L 475 282.5 L 475.5 278 Z "/>
    <path fill="#ffffff" d="M 44.5 316 L 46 321.5 L 45 321.5 L 44.5 316 Z "/>
    <path fill="#ffffff" d="M 49.5 332 L 51 335.5 L 50 335.5 L 49.5 332 Z "/>
    <path fill="#ffffff" d="M 53.5 342 L 55 345.5 L 54 345.5 L 53.5 342 Z "/>
    <path fill="#ffffff" d="M 459.5 342 L 460 343.5 L 458.5 346 L 458 344.5 L 459.5 342 Z "/>
    <path fill="#ffffff" d="M 61.5 359 L 65 364.5 L 63 363.5 L 61.5 359 Z "/>
    <path fill="#ffffff" d="M 451.5 359 L 451 360.5 L 449.5 363 L 450 361.5 L 451.5 359 Z "/>
    <path fill="#ffffff" d="M 69.5 373 L 73 377.5 L 71 376.5 L 69.5 373 Z "/>
    <path fill="#ffffff" d="M 435.5 385 L 433 388.5 L 429.5 393 L 432 389.5 L 435.5 385 Z "/>
    <path fill="#ffffff" d="M 135.5 440 L 140 443.5 L 137.5 442 L 135.5 440 Z "/>
    <path fill="#ffffff" d="M 143.5 445 L 147 447.5 L 145.5 447 L 143.5 445 Z "/>
    <path fill="#ffffff" d="M 369.5 445 L 368.5 447 L 366.5 448 L 367.5 446 L 369.5 445 Z "/>
    <path fill="#ffffff" d="M 152.5 450 L 156 452.5 L 154.5 452 L 152.5 450 Z "/>
    <path fill="#ffffff" d="M 341.5 459 L 343 459.5 L 339.5 461 L 339.5 460 L 341.5 459 Z "/>
    <path fill="#ffffff" d="M 180.5 463 L 184 464.5 L 182.5 465 L 180.5 463 Z "/>
    <path fill="#ffffff" d="M 331.5 463 L 333 463.5 L 329.5 465 L 329.5 464 L 331.5 463 Z "/>
    <path fill="#ffffff" d="M 192.5 467 L 197 468.5 L 194.5 469 L 192.5 467 Z "/>
    <path fill="#ffffff" d="M 229.5 475 L 234 475.5 L 229.5 476 L 229.5 475 Z "/>
    <path fill="#ffffff" d="M 279.5 475 L 284 475.5 L 279.5 476 L 279.5 475 Z "/>
    <path fill="#ffffff" d="M 239.5 476 L 250 476.5 L 239.5 477 L 239.5 476 Z "/>
    <path fill="#ffffff" d="M 263.5 476 L 274 476.5 L 263.5 477 L 263.5 476 Z "/>
    <path fill="#4da3ff" d="M 258 235 Q 268 235 272 242.5 Q 277.8 249.2 276 263.5 Q 273.8 270.3 268.5 274 Q 262 278.5 249.5 277 L 240 271.5 Q 235.2 265.3 237 252.5 Q 238.5 246 243.5 243 L 248.5 242 L 252.5 243 L 255 241.5 L 254.5 240 Q 255.8 242.3 257 239.5 L 258 235 Z "/>
    <path fill="#ffd43b" d="M 244.5 53 L 269.5 53 L 270.5 54 L 279.5 54 L 280.5 55 L 293.5 56 L 314.5 61 L 336.5 69 Q 380.5 88.5 410 122.5 Q 433.1 148.9 447 184.5 L 457 219.5 L 459 243.5 L 460 244.5 L 460 268.5 L 459 269.5 L 459 279.5 L 458 280.5 L 456 298.5 L 443 338.5 Q 424.3 379.8 392.5 408 Q 376.2 422.7 356.5 434 L 326.5 448 L 323.5 448 L 314.5 452 L 287.5 458 L 272.5 459 L 271.5 460 L 242.5 460 L 241.5 459 L 232.5 459 L 231.5 458 L 214.5 456 L 198.5 452 L 174.5 443 Q 133.9 424.6 106 393.5 Q 92.5 379 82 361.5 L 66 328.5 L 60 310.5 L 55 286.5 L 54 269.5 L 53 268.5 L 53 243.5 L 54 242.5 L 54 234.5 L 55 233.5 L 57 214.5 L 69 176.5 Q 88.3 133.3 121.5 104 L 124.5 102 Q 146.8 81.8 176.5 69 L 209.5 58 L 225.5 55 L 232.5 55 L 233.5 54 L 243.5 54 L 244.5 53 Z M 147 147 L 144 148 L 143 151 Q 142 159 146 162 L 170 188 L 173 189 L 177 194 Q 179 193 178 196 L 182 198 L 185 202 Q 187 201 186 204 L 199 215 L 201 219 L 203 219 L 226 243 L 223 252 L 223 266 L 229 280 Q 236 289 251 291 L 266 290 L 281 282 Q 287 275 290 264 Q 292 250 287 244 Q 309 222 335 204 L 339 199 Q 341 190 336 188 L 327 189 L 280 228 L 277 228 L 269 223 L 261 221 Q 252 220 248 224 Q 245 223 246 226 Q 243 230 238 231 L 232 224 L 231 224 L 212 206 L 187 182 L 187 180 L 183 178 Q 184 175 182 176 L 173 167 L 156 150 L 150 147 L 147 147 Z "/>
    <path fill="#66d9e8" d="M 257 234 L 262.5 234 L 272 240.5 Q 279.3 247.7 277 264.5 L 269.5 275 Q 262.6 280.1 248.5 278 Q 241.3 276.2 238 270.5 L 235 261.5 L 235 256.5 L 239 245.5 L 242.5 242 L 249.5 241 L 251.5 242 L 255 241 L 257 234 Z M 258 235 L 257 240 L 253 243 L 249 242 L 244 243 Q 239 246 237 253 Q 235 265 240 272 L 250 277 Q 262 279 269 274 Q 274 270 276 264 Q 278 249 272 243 Q 268 235 258 235 Z "/>
  </g>
  <g id="line">
    <path fill="#1a1a1a" d="M 236.5 37 L 276.5 37 L 277.5 38 L 287.5 38 L 312.5 43 L 339.5 52 Q 386.8 72.2 419 107.5 Q 436.2 125.8 449 148.5 L 465 184.5 L 471 204.5 L 475 225.5 L 475 235.5 L 476 236.5 L 476 277.5 L 475 278.5 L 474 293.5 L 469 316.5 L 458 346.5 L 439 380.5 Q 426.2 398.7 410.5 414 Q 408.3 413.3 409 415.5 Q 392.3 431.3 372.5 444 L 348.5 457 L 326.5 466 L 287.5 475 L 250.5 477 L 249.5 476 L 225.5 475 L 204.5 471 L 171.5 460 L 140.5 444 L 105 417 L 103.5 414 L 95 406.5 L 69 372.5 L 52 339.5 L 43 312.5 L 39 293.5 L 38 278.5 L 37 277.5 L 37 255.5 L 36 254.5 L 37 253.5 L 38 225.5 L 42 204.5 L 55 166.5 L 66 145.5 L 79 125.5 Q 91.7 108.2 107.5 94 Q 135.6 68.1 173.5 52 L 204.5 42 L 226.5 38 L 235.5 38 L 236.5 37 Z M 245 53 L 244 54 L 234 54 L 233 55 L 226 55 L 210 58 L 177 69 Q 147 82 125 102 L 122 104 Q 88 133 69 177 L 57 215 L 55 234 L 54 235 L 54 243 L 53 244 L 53 269 L 54 270 L 55 287 L 60 311 L 66 329 L 82 362 Q 93 379 106 394 Q 134 425 175 443 L 199 452 L 215 456 L 232 458 L 233 459 L 242 459 L 243 460 L 272 460 L 273 459 L 288 458 L 315 452 L 324 448 L 327 448 L 357 434 Q 376 423 393 408 Q 424 380 443 339 L 456 299 L 458 281 L 459 280 L 459 270 L 460 269 L 460 245 L 459 244 L 457 220 L 447 185 Q 433 149 410 123 Q 381 88 337 69 L 315 61 L 294 56 L 281 55 L 280 54 L 271 54 L 270 53 L 245 53 Z "/>
    <path fill="#1a1a1a" d="M 146.5 147 L 149.5 147 L 155.5 150 L 173 166.5 L 181.5 176 Q 183.8 175.3 183 177.5 L 187 180 L 187 181.5 L 211.5 206 L 230.5 224 L 232 224 L 237.5 231 Q 243.3 229.8 246 225.5 Q 245.3 223.3 247.5 224 Q 251.6 220.1 260.5 221 L 268.5 223 L 276.5 228 L 279.5 228 L 326.5 189 L 335.5 188 Q 340.8 189.8 339 198.5 L 334.5 204 Q 309.1 222.1 287 243.5 Q 291.6 250.4 290 263.5 Q 287.3 274.9 281 282 L 265.5 290 L 250.5 291 Q 236.4 288.6 229 279.5 L 223 265.5 L 223 251.5 L 226 242.5 L 202.5 219 L 201 219 L 198.5 215 L 186 203.5 Q 186.8 201.3 184.5 202 L 181.5 198 L 178 195.5 Q 178.8 193.3 176.5 194 L 173 189 L 170 187.5 L 146 161.5 Q 141.9 158.6 143 150.5 L 144 148 L 146.5 147 Z M 257 234 L 256 239 L 252 242 L 250 241 L 243 242 L 239 246 L 235 257 L 235 262 L 238 271 Q 241 276 249 278 Q 263 280 270 275 L 277 265 Q 279 248 272 241 L 263 234 L 257 234 Z "/>
  </g>
</svg>
