<svg xmlns="http://www.w3.org/2000/svg" width="512" height="512" viewBox="0 0 512 512">
  <g id="color">
    <path fill="#ffffff" d="M 237.5 121 L 256 121.5 L 237.5 122 L 237.5 121 Z "/>
    <path fill="#ffffff" d="M 229.5 122 L 235 122.5 L 229.5 123 L 229.5 122 Z "/>
    <path fill="#ffffff" d="M 259.5 122 L 264 122.5 L 259.5 123 L 259.5 122 Z "/>
    <path fill="#ffffff" d="M 212.5 126 L 214 126.5 L 207.5 129 L 207.5 128 L 212.5 126 Z "/>
    <path fill="#ffffff" d="M 278.5 126 L 283 127.5 L 281.5 128 L 278.5 127 L 278.5 126 Z "/>
    <path fill="#ffffff" d="M 202.5 130 L 201.5 132 L 198.5 133 L 198.5 132 L 202.5 130 Z "/>
    <path fill="#ffffff" d="M 324.5 158 L 329 163.5 L 326 161.5 L 324.5 158 Z "/>
    <path fill="#ffffff" d="M 160.5 164 L 160 165.5 L 157.5 169 L 159 166.5 L 160.5 164 Z "/>
    <path fill="#ffffff" d="M 155.5 172 L 155 173.5 L 152.5 179 L 152 177.5 L 155.5 172 Z "/>
    <path fill="#ffffff" d="M 334.5 174 L 338 180.5 L 337 180.5 L 334.5 174 Z "/>
    <path fill="#ffffff" d="M 357.5 177 L 368 177.5 L 357.5 178 L 357.5 177 Z "/>
    <path fill="#ffffff" d="M 351.5 178 L 355 178.5 L 348.5 180 L 348.5 179 L 351.5 178 Z "/>
    <path fill="#ffffff" d="M 150.5 182 L 151 183.5 L 149.5 186 L 149 184.5 L 150.5 182 Z "/>
    <path fill="#ffffff" d="M 399.5 198 L 402 201.5 L 400 200.5 L 399.5 198 Z "/>
    <path fill="#ffffff" d="M 144.5 203 L 145 210.5 L 141.5 212 L 141.5 211 L 144 211 L 144.5 203 Z "/>
    <path fill="#ffffff" d="M 404.5 208 L 406 214.5 L 405 214.5 L 404.5 208 Z "/>
    <path fill="#ffffff" d="M 116.5 210 L 124 210.5 L 116.5 211 L 116.5 210 Z "/>
    <path fill="#ffffff" d="M 133.5 210 L 140 210.5 L 133.5 211 L 133.5 210 Z "/>
    <path fill="#ffffff" d="M 99.5 214 L 101 214.5 L 97.5 216 L 97.5 215 L 99.5 214 Z "/>
    <path fill="#ffffff" d="M 94.5 216 L 96 216.5 L 92.5 218 L 92.5 217 L 94.5 216 Z "/>
    <path fill="#ffffff" d="M 406.5 217 L 407 224 L 416 224.5 L 407.5 225 Q 404.1 223.1 406.5 217 Z "/>
    <path fill="#ffffff" d="M 430.5 228 L 436 230.5 L 434.5 231 L 430.5 229 L 430.5 228 Z "/>
    <path fill="#ffffff" d="M 52.5 250 L 51 252.5 L 49.5 255 L 50 253.5 L 52.5 250 Z "/>
    <path fill="#ffffff" d="M 47.5 258 L 47 259.5 L 45.5 263 L 45 261.5 L 47.5 258 Z "/>
    <path fill="#ffffff" d="M 465.5 258 L 468 262.5 L 467 262.5 L 465.5 258 Z "/>
    <path fill="#ffffff" d="M 469.5 266 L 471 269.5 L 470 269.5 L 469.5 266 Z "/>
    <path fill="#ffffff" d="M 475.5 286 L 476 290.5 L 475 290.5 L 475.5 286 Z "/>
    <path fill="#ffffff" d="M 37.5 287 L 38 292.5 L 37 292.5 L 37.5 287 Z "/>
    <path fill="#ffffff" d="M 476.5 294 L 477 304.5 L 476 304.5 L 476.5 294 Z "/>
    <path fill="#ffffff" d="M 36.5 295 L 37 307.5 L 36 307.5 L 36.5 295 Z "/>
    <path fill="#ffffff" d="M 475.5 308 L 476 312.5 L 474.5 316 L 474 313.5 L 475.5 308 Z "/>
    <path fill="#ffffff" d="M 37.5 310 L 38 315.5 L 37 315.5 L 37.5 310 Z "/>
    <path fill="#ffffff" d="M 471.5 325 L 472 326.5 L 470.5 329 L 470 327.5 L 471.5 325 Z "/>
    <path fill="#ffffff" d="M 42.5 333 L 44 336.5 L 43 336.5 L 42.5 333 Z "/>
    <path fill="#ffffff" d="M 466.5 336 L 466 337.5 L 464.5 340 L 465 338.5 L 466.5 336 Z "/>
    <path fill="#ffffff" d="M 441.5 363 L 440.5 365 L 437.5 367 L 439.5 364 L 441.5 363 Z "/>
    <path fill="#ffffff" d="M 67.5 367 L 73 371.5 L 70.5 370 L 67.5 367 Z "/>
    <path fill="#ffffff" d="M 76.5 373 L 81 375.5 L 79.5 376 L 76.5 373 Z "/>
    <path fill="#ffffff" d="M 419.5 374 L 421 374.5 L 417.5 376 L 417.5 375 L 419.5 374 Z "/>
    <path fill="#ffffff" d="M 86.5 378 L 90 379.5 L 88.5 380 L 86.5 378 Z "/>
    <path fill="#ffffff" d="M 101.5 383 L 107 384.5 L 104.5 385 L 101.5 384 L 101.5 383 Z "/>
    <path fill="#ffffff" d="M 379.5 384 L 384 384.5 L 379.5 385 L 379.5 384 Z "/>
    <path fill="#ffffff" d="M 362.5 386 L 368 386.5 L 362.5 387 L 362.5 386 Z "/>
    <path fill="#ffffff" d="M 121.5 387 L 134 388.5 L 127.5 389 Q 126.2 386.8 121.5 388 L 121.5 387 Z "/>
    <path fill="#ffffff" d="M 347.5 387 L 358 387.5 L 347.5 388 L 347.5 387 Z "/>
    <path fill="#ffffff" d="M 329.5 388 L 345 388.5 L 329.5 389 L 329.5 388 Z "/>
    <path fill="#ffffff" d="M 137.5 389 L 144 389.5 L 137.5 390 L 137.5 389 Z "/>
    <path fill="#ffffff" d="M 294.5 389 L 320 389.5 L 294.5 390 L 294.5 389 Z "/>
    <path fill="#ffffff" d="M 154.5 390 L 167 390.5 L 154.5 391 L 154.5 390 Z "/>
    <path fill="#ffffff" d="M 217.5 390 L 251 390.5 L 217.5 391 L 217.5 390 Z "/>
    <path fill="#4da3ff" d="M 239.5 133 L 252.5 133 L 275.5 137 L 298 148 L 299.5 151 L 303 152.5 L 304.5 155 L 315 164.5 L 316 168 Q 318.7 166.9 318 169.5 Q 327.4 181 331 197 Q 333.4 198.8 339.5 198 L 343.5 194 L 352.5 190 L 365.5 189 L 368.5 190 L 374.5 191 L 386 198 L 388 203 Q 391 201.8 390 205.5 L 394 212.5 L 395 227.5 L 394 229.5 L 397.5 235 L 399.5 236 L 413.5 236 L 417.5 238 L 419.5 238 L 429.5 240 L 447 252.5 L 460 272.5 L 462 282.5 L 464 285.5 L 465 306.5 L 460 325 Q 457 323.8 458 327.5 Q 453.5 338 445.5 345 Q 443.3 344.3 444 346.5 Q 429.9 362.1 405 366 Q 406.4 369.7 400.5 368 L 397.5 370 L 391.5 370 L 381.5 373 L 358.5 375 L 357.5 376 L 348.5 376 L 347.5 377 L 280.5 378 L 277.5 379 L 272.5 378 L 269.5 379 L 267.5 379 L 154.5 379 L 152.5 378 L 150.5 378 L 138.5 378 L 137.5 377 L 120.5 376 L 110.5 373 L 108.5 373 L 102.5 371 L 100.5 371 Q 83.2 366.3 71 356.5 L 69.5 354 Q 67.3 354.8 68 352.5 L 63 346 Q 60 347.3 61 343.5 L 55 334.5 L 50 320.5 Q 51 312.5 48 308.5 L 48 292.5 Q 51 276.5 57 263.5 L 69.5 247 L 74.5 243 L 88.5 232 L 99.5 227 L 119.5 222 L 135.5 222 L 150.5 225 L 155 221.5 Q 153.8 216.8 156 215.5 L 155 212.5 L 156 211.5 L 157 199.5 L 161 186.5 L 172 167.5 L 179.5 160 Q 181.8 160.8 181 158.5 L 185 156 Q 183.9 153.3 186.5 154 L 206.5 141 L 226.5 135 L 228.5 135 L 239.5 133 Z M 265 159 L 259 161 Q 254 164 253 171 L 254 176 L 257 180 L 277 191 L 286 202 L 295 221 L 302 224 L 309 223 L 314 216 L 314 204 L 311 195 L 300 177 L 285 165 Q 277 159 265 159 Z M 342 217 L 337 219 L 331 226 L 326 237 Q 325 243 327 245 L 330 246 L 334 245 L 340 232 L 345 228 L 346 233 L 344 242 L 345 244 L 345 246 Q 348 245 347 248 L 351 249 Q 353 248 352 251 L 345 254 L 342 258 L 343 262 L 346 263 L 352 263 L 361 259 L 365 254 L 364 245 L 357 239 L 356 237 L 357 234 L 356 225 L 354 220 L 350 217 L 342 217 Z M 150 243 L 148 244 L 143 251 L 141 261 L 143 262 L 138 264 L 133 272 L 135 280 L 146 286 Q 152 284 154 287 L 159 286 L 160 281 Q 156 275 148 275 L 148 274 Q 150 275 149 273 L 152 271 L 155 267 Q 157 261 154 260 L 155 255 L 158 257 L 162 264 L 167 268 L 171 268 L 173 265 L 172 259 L 165 249 L 158 243 L 150 243 Z "/>
    <path fill="#66d9e8" d="M 244.5 131 L 269.5 134 L 284.5 139 Q 303.9 147.6 316 163.5 L 322 171.5 L 333.5 196 L 336.5 197 L 354.5 188 L 370.5 188 Q 383.7 192.3 391 202.5 L 396 214.5 L 396 231.5 L 398.5 234 L 417.5 235 L 428.5 238 Q 441.8 244.2 451 254.5 L 462 273.5 L 465 283.5 L 466 288.5 L 466 310.5 Q 459.6 338.6 439.5 353 L 418.5 365 L 409.5 367 L 403.5 370 L 380.5 375 L 365.5 376 L 364.5 377 L 338.5 378 L 337.5 379 L 308.5 379 L 307.5 380 L 162.5 381 L 161.5 380 L 130.5 379 L 129.5 378 L 106.5 375 L 90.5 370 L 74.5 361 L 60 346.5 L 55 338.5 L 48 318.5 Q 49.2 313.7 47 312.5 L 47 288.5 L 56 262.5 L 72.5 242 Q 84.4 231.4 100.5 225 L 119.5 220 L 133.5 220 L 145.5 223 L 151.5 223 L 154 218.5 L 154 206.5 L 158 189.5 Q 166.8 166.8 184.5 153 L 207.5 139 L 227.5 133 L 243.5 132 L 244.5 131 Z M 240 133 L 229 135 L 227 135 L 207 141 L 187 154 Q 184 153 185 156 L 181 159 Q 182 161 180 160 L 172 168 L 161 187 L 157 200 L 156 212 L 155 213 L 156 216 Q 154 217 155 222 L 151 225 L 136 222 L 120 222 L 100 227 L 89 232 L 75 243 L 70 247 L 57 264 Q 51 277 48 293 L 48 309 Q 51 313 50 321 L 55 335 L 61 344 Q 60 347 63 346 L 68 353 Q 67 355 70 354 L 71 357 Q 83 366 101 371 L 103 371 L 109 373 L 111 373 L 121 376 L 138 377 L 139 378 L 151 378 L 153 378 L 155 379 L 268 379 L 270 379 L 273 378 L 278 379 L 281 378 L 348 377 L 349 376 L 358 376 L 359 375 L 382 373 L 392 370 L 398 370 L 401 368 Q 406 370 405 366 Q 430 362 444 347 Q 443 344 446 345 Q 454 338 458 328 Q 457 324 460 325 L 465 307 L 464 286 L 462 283 L 460 273 L 447 253 L 430 240 L 420 238 L 418 238 L 414 236 L 400 236 L 398 235 L 394 230 L 395 228 L 394 213 L 390 206 Q 391 202 388 203 L 386 198 L 375 191 L 369 190 L 366 189 L 353 190 L 344 194 L 340 198 Q 333 199 331 197 Q 327 181 318 170 Q 319 167 316 168 L 315 165 L 305 155 L 303 153 L 300 151 L 298 148 L 276 137 L 253 133 L 240 133 Z "/>
    <path fill="#66d9e8" d="M 264.5 159 Q 277.3 159.2 284.5 165 L 300 177 L 311 194.5 L 314 203.5 L 314 215.5 L 308.5 223 L 301.5 224 L 295 220.5 L 286 201.5 L 276.5 191 L 257 180 L 254 175.5 L 253 170.5 Q 253.9 163.9 258.5 161 L 264.5 159 Z "/>
    <path fill="#66d9e8" d="M 341.5 217 L 349.5 217 L 354 220 L 356 224.5 L 357 233.5 L 356 236.5 L 356.5 239 L 364 244.5 L 365 253.5 L 360.5 259 L 351.5 263 L 345.5 263 L 343 262 L 342 257.5 L 344.5 254 L 352 250.5 Q 352.8 248.3 350.5 249 L 347 248 Q 348 245 345 246 L 345 243.5 L 344 241.5 L 346 232.5 L 344.5 228 L 340 231.5 L 333.5 245 L 329.5 246 L 327 245 Q 325.3 242.6 326 236.5 L 331 225.5 L 336.5 219 L 341.5 217 Z M 343 218 L 336 222 L 329 233 L 328 244 L 331 245 L 333 244 L 338 232 L 344 227 Q 345 224 347 229 L 347 237 L 346 238 Q 345 244 347 246 L 354 248 L 355 251 L 353 253 Q 347 253 344 257 Q 343 260 346 261 L 354 261 L 361 257 L 363 255 L 364 251 L 363 246 L 357 241 L 355 240 Q 357 228 353 223 Q 351 217 343 218 Z "/>
    <path fill="#66d9e8" d="M 149.5 243 L 157.5 243 L 165 248.5 L 172 258.5 L 173 264.5 L 170.5 268 L 166.5 268 L 162 263.5 L 157.5 257 L 154.5 255 L 154 259.5 Q 156.5 261 155 266.5 L 151.5 271 L 149 272.5 Q 149.8 274.8 147.5 274 L 147.5 275 Q 156.1 275.4 160 280.5 L 159 286 L 153.5 287 Q 151.8 284.2 145.5 286 L 135 279.5 L 133 271.5 L 137.5 264 L 143 261.5 L 141 260.5 L 143 250.5 L 147.5 244 L 149.5 243 Z M 154 244 L 147 246 Q 143 251 144 263 L 140 265 Q 134 267 135 277 Q 141 286 157 285 Q 159 284 158 281 L 146 275 Q 143 276 144 272 L 151 270 L 153 268 Q 155 261 152 260 Q 151 254 154 253 L 157 254 L 168 267 L 171 266 L 171 261 L 164 251 Q 165 248 162 249 L 162 247 L 154 244 Z "/>
  </g>
  <g id="line">
    <path fill="#1a1a1a" d="M 235.5 122 L 258.5 122 L 259.5 123 L 270.5 124 L 286.5 129 Q 304.3 136.7 317 149.5 Q 331 164 339.5 184 L 344.5 181 L 355.5 178 L 369.5 178 Q 387.8 181.8 397 194.5 L 403 204.5 L 406 215.5 L 406 223.5 L 407.5 225 L 416.5 225 L 429.5 228 Q 445.7 233.8 456 245.5 Q 467.7 257.8 473 276.5 L 476 291.5 L 476 307.5 Q 470.2 341.7 447.5 359 L 436.5 367 L 416.5 376 L 395.5 382 L 372.5 386 L 347.5 387 L 346.5 388 L 329.5 388 L 328.5 389 L 294.5 389 L 293.5 390 L 167.5 391 L 166.5 390 L 144.5 390 L 143.5 389 L 134.5 389 L 126.5 387 L 118.5 387 L 96.5 382 Q 69.3 374.2 54 354.5 Q 45.7 343.8 41 329.5 L 37 309.5 L 37 293.5 L 38 292.5 L 39 280.5 L 43 267.5 L 49 255.5 L 63 237 L 83.5 222 L 101.5 214 L 115.5 211 L 132.5 210 L 143.5 212 L 145 210.5 L 145 202.5 L 147 192.5 L 157 169.5 Q 165.1 156.6 176.5 147 L 188.5 138 L 203.5 130 L 214.5 126 L 235.5 122 Z M 245 131 L 244 132 L 228 133 L 208 139 L 185 153 Q 167 167 158 190 L 154 207 L 154 219 L 152 223 L 146 223 L 134 220 L 120 220 L 101 225 Q 84 231 73 242 L 56 263 L 47 289 L 47 313 Q 49 314 48 319 L 55 339 L 60 347 L 75 361 L 91 370 L 107 375 L 130 378 L 131 379 L 162 380 L 163 381 L 308 380 L 309 379 L 338 379 L 339 378 L 365 377 L 366 376 L 381 375 L 404 370 L 410 367 L 419 365 L 440 353 Q 460 339 466 311 L 466 289 L 465 284 L 462 274 L 451 255 Q 442 244 429 238 L 418 235 L 399 234 L 396 232 L 396 215 L 391 203 Q 384 192 371 188 L 355 188 L 337 197 L 334 196 L 322 172 L 316 164 Q 304 148 285 139 L 270 134 L 245 131 Z "/>
    <path fill="#1a1a1a" d="M 342.5 218 Q 351.1 216.9 353 222.5 Q 356.7 228.3 355 239.5 L 356.5 241 L 363 245.5 L 364 250.5 L 363 254.5 L 360.5 257 L 353.5 261 L 345.5 261 Q 343.3 260.3 344 256.5 Q 346.8 253.3 352.5 253 L 355 250.5 L 353.5 248 L 347 246 Q 345.2 243.6 346 237.5 L 347 236.5 L 347 228.5 Q 345.3 224.2 343.5 227 L 338 231.5 L 332.5 244 L 330.5 245 L 328 244 L 329 232.5 L 335.5 222 L 342.5 218 Z "/>
    <path fill="#1a1a1a" d="M 153.5 244 L 162 247 L 162 249 Q 164.7 247.9 164 250.5 L 171 260.5 L 171 265.5 L 167.5 267 L 156.5 254 L 153.5 253 Q 150.8 254.3 152 259.5 Q 154.8 261.3 153 267.5 L 150.5 270 L 144 272 Q 142.5 275.7 145.5 275 L 158 280.5 Q 158.8 284.3 156.5 285 Q 140.7 285.8 135 276.5 Q 133.7 267.1 139.5 265 L 144 262.5 Q 142.5 250.8 147 246 L 153.5 244 Z "/>
  </g>
</svg>
