<svg xmlns="http://www.w3.org/2000/svg" width="512" height="512" viewBox="0 0 512 512">
  <g id="color">
    <path fill="#ffffff" d="M 162.5 49 L 182 49.5 L 162.5 50 L 162.5 49 Z "/>
    <path fill="#ffffff" d="M 331.5 49 L 352 49.5 L 331.5 50 L 331.5 49 Z "/>
    <path fill="#ffffff" d="M 356.5 50 L 366 51.5 L 361.5 52 L 356.5 51 L 356.5 50 Z "/>
    <path fill="#ffffff" d="M 147.5 51 L 152 51.5 L 147.5 52 L 147.5 51 Z "/>
    <path fill="#ffffff" d="M 189.5 51 Q 195.3 52.3 198 56.5 L 194.5 54 L 189.5 52 L 189.5 51 Z "/>
    <path fill="#ffffff" d="M 322.5 51 L 324 51.5 L 320.5 53 L 320.5 52 L 322.5 51 Z "/>
    <path fill="#ffffff" d="M 135.5 54 L 138 54.5 L 133.5 56 L 133.5 55 L 135.5 54 Z "/>
    <path fill="#ffffff" d="M 130.5 56 L 132 56.5 L 126.5 59 L 126.5 58 L 130.5 56 Z "/>
    <path fill="#ffffff" d="M 381.5 56 L 392 61.5 L 390.5 61 L 381.5 57 L 381.5 56 Z "/>
    <path fill="#ffffff" d="M 198.5 58 L 201 62.5 L 200 62.5 L 198.5 58 Z "/>
    <path fill="#ffffff" d="M 314.5 58 L 314 59.5 L 312.5 63 L 312 61.5 L 314.5 58 Z "/>
    <path fill="#ffffff" d="M 124.5 59 L 123.5 61 L 121.5 62 L 122.5 60 L 124.5 59 Z "/>
    <path fill="#ffffff" d="M 119.5 62 L 118.5 64 L 116.5 65 L 117.5 63 L 119.5 62 Z "/>
    <path fill="#ffffff" d="M 393.5 62 L 397 64.5 L 395.5 64 L 393.5 62 Z "/>
    <path fill="#ffffff" d="M 114.5 65 L 112.5 68 L 102.5 77 L 111.5 67 L 114.5 65 Z "/>
    <path fill="#ffffff" d="M 402.5 68 L 415 82.5 L 413 81.5 L 402.5 68 Z "/>
    <path fill="#ffffff" d="M 101.5 78 L 100 80.5 L 96.5 86 L 97 84.5 L 101.5 78 Z "/>
    <path fill="#ffffff" d="M 415.5 84 L 418 87.5 L 416 86.5 L 415.5 84 Z "/>
    <path fill="#ffffff" d="M 91.5 95 L 92 96.5 L 90.5 100 L 90 97.5 L 91.5 95 Z "/>
    <path fill="#ffffff" d="M 421.5 96 L 423 99.5 L 422 99.5 L 421.5 96 Z "/>
    <path fill="#ffffff" d="M 88.5 105 L 89 107.5 L 87.5 112 L 87 108.5 L 88.5 105 Z "/>
    <path fill="#ffffff" d="M 424.5 105 L 426 111.5 L 425 111.5 L 424.5 105 Z "/>
    <path fill="#ffffff" d="M 85.5 120 L 86 126.5 L 85 127.5 L 84.5 154 L 84 127.5 L 85.5 120 Z "/>
    <path fill="#ffffff" d="M 427.5 120 L 429 128.5 L 429 152.5 L 428 153.5 L 427.5 165 L 427 153.5 L 428 152.5 L 428 128.5 L 427 127.5 L 427.5 120 Z "/>
    <path fill="#ffffff" d="M 85.5 155 L 86 164.5 L 85 164.5 L 85.5 155 Z "/>
    <path fill="#ffffff" d="M 86.5 170 L 87 176.5 L 86 176.5 L 86.5 170 Z "/>
    <path fill="#ffffff" d="M 426.5 171 L 427 178.5 L 426 178.5 L 426.5 171 Z "/>
    <path fill="#ffffff" d="M 87.5 180 L 88 194.5 L 87 194.5 L 87.5 180 Z "/>
    <path fill="#ffffff" d="M 425.5 183 L 426 192.5 L 425 192.5 L 425.5 183 Z "/>
    <path fill="#ffffff" d="M 426.5 196 L 427 200.5 L 426 200.5 L 426.5 196 Z "/>
    <path fill="#ffffff" d="M 427.5 203 L 429 207.5 L 428 207.5 L 427.5 203 Z "/>
    <path fill="#ffffff" d="M 82.5 211 L 82 212.5 L 80.5 215 L 81 213.5 L 82.5 211 Z "/>
    <path fill="#ffffff" d="M 430.5 211 L 433 214.5 L 431 213.5 L 430.5 211 Z "/>
    <path fill="#ffffff" d="M 53.5 229 L 56 229.5 L 51.5 231 L 51.5 230 L 53.5 229 Z "/>
    <path fill="#ffffff" d="M 460.5 230 Q 467.7 231.8 471 237.5 L 472 239.5 L 470 238.5 L 465.5 233 L 460.5 231 L 460.5 230 Z "/>
    <path fill="#ffffff" d="M 49.5 231 L 48.5 233 L 43 237.5 L 41.5 240 L 42 238.5 L 47.5 232 L 49.5 231 Z "/>
    <path fill="#ffffff" d="M 40.5 241 L 41 242.5 L 39.5 245 L 39 243.5 L 40.5 241 Z "/>
    <path fill="#ffffff" d="M 472.5 241 L 475 247.5 L 474 247.5 L 472.5 241 Z "/>
    <path fill="#ffffff" d="M 37.5 251 L 38 260.5 L 37 260.5 L 37.5 251 Z "/>
    <path fill="#ffffff" d="M 475.5 251 L 476 261.5 L 475 261.5 L 475.5 251 Z "/>
    <path fill="#ffffff" d="M 474.5 264 L 475 266.5 Q 472.3 276.3 464.5 281 L 461.5 282 L 461.5 281 Q 468.4 279.4 471 273.5 L 474.5 264 Z "/>
    <path fill="#ffffff" d="M 41.5 272 L 44 275.5 L 41 273.5 L 41.5 272 Z "/>
    <path fill="#ffffff" d="M 47.5 279 L 52 281.5 L 50.5 282 L 47.5 279 Z "/>
    <path fill="#ffffff" d="M 454.5 283 L 457 283.5 L 451.5 285 L 451.5 284 L 454.5 283 Z "/>
    <path fill="#ffffff" d="M 64.5 285 L 70 287.5 L 68.5 288 L 64.5 286 L 64.5 285 Z "/>
    <path fill="#ffffff" d="M 71.5 288 L 80 295.5 L 81 297.5 L 79 296.5 L 73.5 290 L 71.5 288 Z "/>
    <path fill="#ffffff" d="M 441.5 288 L 440.5 290 L 434 295.5 L 432.5 298 L 433 296.5 L 439.5 289 L 441.5 288 Z "/>
    <path fill="#ffffff" d="M 81.5 299 L 83 302.5 L 82 302.5 L 81.5 299 Z "/>
    <path fill="#ffffff" d="M 428.5 307 L 429 311.5 L 428 312.5 L 428 339.5 L 429 340.5 L 429 353.5 L 428 353.5 L 427 312.5 L 428.5 307 Z "/>
    <path fill="#ffffff" d="M 85.5 312 L 86 319.5 L 85 319.5 L 85.5 312 Z "/>
    <path fill="#ffffff" d="M 85.5 328 L 86 341.5 L 85 342.5 L 84.5 354 L 84 342.5 L 85 341.5 L 85.5 328 Z "/>
    <path fill="#ffffff" d="M 83.5 358 L 84 389.5 L 83 389.5 L 83.5 358 Z "/>
    <path fill="#ffffff" d="M 429.5 358 L 430 390.5 L 429 390.5 L 429.5 358 Z "/>
    <path fill="#ffffff" d="M 84.5 393 L 86 403.5 L 85 403.5 L 84.5 393 Z "/>
    <path fill="#ffffff" d="M 428.5 394 L 429 398.5 L 428 398.5 L 428.5 394 Z "/>
    <path fill="#ffffff" d="M 87.5 410 L 89 415.5 L 88 415.5 L 87.5 410 Z "/>
    <path fill="#ffffff" d="M 425.5 410 L 426 412.5 L 424.5 416 L 424 413.5 L 425.5 410 Z "/>
    <path fill="#ffffff" d="M 422.5 420 L 423 421.5 L 421.5 424 L 421 422.5 L 422.5 420 Z "/>
    <path fill="#ffffff" d="M 92.5 424 L 96 430.5 L 94 429.5 L 92.5 424 Z "/>
    <path fill="#ffffff" d="M 419.5 427 L 419 428.5 Q 413.7 440.8 403.5 448 L 413 437.5 L 419.5 427 Z "/>
    <path fill="#ffffff" d="M 111.5 448 L 115 450.5 L 113.5 450 L 111.5 448 Z "/>
    <path fill="#ffffff" d="M 398.5 450 L 397.5 452 L 395.5 453 L 396.5 451 L 398.5 450 Z "/>
    <path fill="#ffffff" d="M 116.5 451 L 120 453.5 L 118.5 453 L 116.5 451 Z "/>
    <path fill="#ffffff" d="M 191.5 453 L 190 455.5 L 186.5 460 L 189 456.5 L 191.5 453 Z "/>
    <path fill="#ffffff" d="M 121.5 454 L 127 456.5 L 125.5 457 L 121.5 455 L 121.5 454 Z "/>
    <path fill="#ffffff" d="M 390.5 454 L 392 454.5 L 386.5 457 L 386.5 456 L 390.5 454 Z "/>
    <path fill="#ffffff" d="M 128.5 457 L 133 458.5 L 130.5 459 L 128.5 457 Z "/>
    <path fill="#ffffff" d="M 383.5 457 L 385 457.5 L 380.5 459 L 380.5 458 L 383.5 457 Z "/>
    <path fill="#ffffff" d="M 142.5 461 L 147 461.5 L 142.5 462 L 142.5 461 Z "/>
    <path fill="#ffffff" d="M 361.5 462 L 366 462.5 L 361.5 463 L 361.5 462 Z "/>
    <path fill="#ffffff" d="M 156.5 463 L 177 463.5 L 156.5 464 L 156.5 463 Z "/>
    <path fill="#ffffff" d="M 336.5 463 L 347 463.5 L 336.5 464 L 336.5 463 Z "/>
    <path fill="#ffffff" d="M 349.5 463 L 358 463.5 L 349.5 464 L 349.5 463 Z "/>
    <path fill="#4da3ff" d="M 166.5 61 Q 173.2 63.3 183.5 62 L 190 66.5 L 191 75.5 L 190 79.5 L 190 81.5 L 189 87 L 183.5 89 L 176.5 89 L 166.5 91 L 151 100 L 145 108.5 L 140 125.5 Q 141.2 130.2 139 131.5 L 139 159.5 L 141 169.5 L 141 194.5 L 136 217.5 L 123.5 237 L 121 238.5 L 119.5 241 L 95 253.5 L 94 260.5 L 97.5 264 L 102.5 265 L 115.5 272 L 125 280.5 L 133 294.5 L 133 297.5 L 136 303.5 L 137 314.5 L 138 315.5 L 138 340.5 L 137 341.5 L 136 361.5 L 135 362.5 L 135 380.5 L 140 403.5 L 151.5 417 L 162.5 423 L 181 427 Q 183.4 432.9 182 444.5 L 177.5 451 L 172.5 452 L 157.5 452 L 150.5 450 L 148.5 450 Q 124.7 447.3 112 433.5 L 110 430.5 L 105 424.5 L 98 406.5 L 96 388.5 L 95 387.5 L 95 358.5 L 97 347.5 L 98 317.5 L 95 300.5 L 90 288 L 88 288 Q 89.1 285.3 86.5 286 L 85 283 L 76.5 277 L 67.5 274 L 65.5 272 L 56.5 271 L 52 267.5 Q 48.1 261.4 50 249.5 L 55.5 242 L 62.5 241 L 74.5 236 L 90 225 L 97 209.5 L 100 188.5 L 99 187.5 L 99 174.5 L 98 173.5 L 98 160.5 L 97 159.5 L 97 122.5 L 100 108.5 L 105 97.5 L 105 94.5 L 113 82 L 124.5 73 L 134.5 68 L 146.5 64 Q 153.2 64.7 156.5 62 L 165.5 62 L 166.5 61 Z "/>
    <path fill="#4da3ff" d="M 341.5 61 L 356.5 62 L 360.5 64 L 365.5 64 L 378.5 68 Q 393.3 73.7 402 85.5 L 409 96.5 L 415 116.5 Q 413.8 121.3 416 122.5 L 416 160.5 L 415 161.5 L 415 172.5 L 414 173.5 L 415 175.5 L 414 176.5 L 413 188.5 L 414 189.5 L 414 198.5 L 417 212.5 Q 421.3 222.3 428.5 229 L 444.5 239 L 457.5 242 L 461 244 Q 464 249.6 464 259.5 L 461 267.5 L 458.5 270 Q 438.6 273.1 427 284.5 L 425 287.5 L 419 296.5 Q 419 303.5 416 307.5 L 415 332.5 L 416 333.5 L 417 361.5 L 418 362.5 L 418 389.5 L 413 412.5 L 408 424.5 L 402.5 432 Q 400.3 431.3 401 433.5 L 390.5 442 L 382.5 446 L 362.5 451 L 341.5 452 Q 340.3 449.7 335.5 451 L 332 447.5 Q 329.7 440.8 331 430.5 L 334.5 426 L 350.5 423 L 365 415 Q 363.9 412.3 366.5 413 L 374 401.5 L 374 397.5 L 377 388.5 Q 375.5 383 378 381.5 L 378 361.5 L 377 360.5 L 377 348.5 L 375 337.5 L 375 317.5 L 379 297.5 L 383 291.5 L 384 285.5 L 390.5 278 L 402.5 269 L 416.5 263 L 419 260.5 Q 420.3 253.3 415.5 252 Q 401.6 247.9 392 239.5 Q 392.8 237.3 390.5 238 L 381 226.5 L 375 210.5 L 372 193.5 L 372 170.5 L 373 169.5 L 373 157.5 L 374 156.5 L 374 132.5 L 370 114.5 L 362 100 L 345.5 91 L 336.5 89 L 329.5 89 L 324 86.5 L 322 79.5 L 322 72.5 L 323 67.5 L 326.5 63 Q 331.6 60.6 340.5 62 L 341.5 61 Z "/>
    <path fill="#4da3ff" d="M 221.5 63 L 286.5 63 L 291.5 64 L 296.5 63 L 297.5 64 Q 305.9 63.1 310 65 Q 308 71 309 81.5 Q 311.5 83 310 88.5 L 316.5 98 L 325.5 102 L 339.5 103 L 352 109 L 359 123.5 L 361 134.5 L 361 151.5 L 360 152.5 L 360 164.5 L 359 165.5 L 359 196.5 L 361 203.5 L 362 215.5 L 365 223.5 L 377 244 L 380 245.5 Q 379.3 247.8 381.5 247 Q 386.4 253.3 394 256 L 395 258.5 L 383 266 L 371 282.5 L 365 298.5 L 362 312.5 L 362 343.5 L 364 351.5 L 365 378.5 L 364 379.5 L 364 387.5 L 361 397.5 L 354.5 406 Q 345.7 412.7 330.5 413 L 320 421.5 L 317 432.5 L 317 441.5 L 320 450.5 L 316.5 452 L 276.5 453 L 275.5 454 L 272.5 453 L 271.5 454 L 252.5 454 L 251.5 453 L 214.5 453 Q 213.3 450.8 208.5 452 L 206.5 452 Q 198.5 452.7 194 451 L 196 441.5 L 196 433.5 L 194 424.5 L 187.5 416 L 182.5 413 L 172.5 412 L 162.5 409 L 155 402.5 L 152 397.5 Q 152 390.5 149 386.5 L 149 353.5 L 151 343.5 L 151 310.5 L 145 288.5 Q 139.3 274.2 128.5 265 L 118 259 Q 116.9 256.3 119.5 257 L 133 246.5 L 142 235.5 L 151 215.5 L 153 207.5 L 153 198.5 L 154 197.5 L 154 164.5 L 153 163.5 L 153 150.5 L 152 149.5 L 152 135.5 L 155 120.5 L 161.5 109 L 169.5 104 L 191.5 101 L 199 95.5 L 203 87.5 L 204 68.5 L 203 65 L 209.5 64 L 211.5 64 L 220.5 64 L 221.5 63 Z M 197 202 L 185 206 L 177 212 L 171 226 L 171 241 L 172 242 L 171 247 L 166 250 L 160 259 L 161 261 L 160 263 L 165 272 L 172 275 L 171 282 L 171 295 L 175 306 L 183 313 L 197 318 L 211 318 L 215 316 L 221 307 Q 223 297 219 293 Q 217 287 210 286 L 207 284 Q 209 270 205 263 L 206 251 L 207 250 L 207 238 L 208 235 L 214 233 L 221 224 Q 222 213 218 208 L 211 202 L 197 202 Z M 297 212 L 291 214 L 284 222 L 282 231 L 283 237 L 289 247 L 309 258 Q 312 259 311 264 L 291 278 L 283 290 L 283 297 L 286 305 Q 289 310 296 312 L 305 312 L 314 308 L 344 286 L 344 285 L 353 276 L 356 270 Q 355 265 357 264 L 356 255 L 347 242 L 313 217 L 305 213 L 297 212 Z "/>
    <path fill="#ffd43b" d="M 182.5 225 L 182 226.5 L 181.5 235 L 181 226.5 L 182.5 225 Z "/>
    <path fill="#ffd43b" d="M 196.5 235 L 197 239.5 L 196 239.5 L 196.5 235 Z "/>
    <path fill="#ffd43b" d="M 196.5 242 L 197 249.5 L 195 250.5 L 196.5 242 Z "/>
    <path fill="#ffd43b" d="M 196.5 270 L 197 286.5 L 196 286.5 L 196.5 270 Z "/>
    <path fill="#ffd43b" d="M 181.5 287 L 182 291.5 L 181 291.5 L 181.5 287 Z "/>
    <path fill="#ffd43b" d="M 183.5 298 L 188 303.5 L 184 300.5 L 183.5 298 Z "/>
    <path fill="#ffd43b" d="M 202.5 307 L 208 307.5 L 202.5 308 L 202.5 307 Z "/>
    <path fill="#ff6b6b" d="M 296 224 L 303.5 225 L 305 224.5 L 304.5 226 L 323.5 239 L 325 238.5 Q 322.8 239.7 325.5 241 L 327 240.5 L 326.5 242 L 334.5 247 L 336 246.5 L 335 247.5 L 343 255.5 Q 345.8 258.2 345 264.5 L 343 269.5 L 343.5 271 L 342 270.5 L 340 273.5 Q 342.8 275.3 338.5 277 L 336.5 277 L 334 278.5 Q 334.8 280.8 332.5 280 L 323 287.5 L 323.5 289 L 321.5 288 L 316 292.5 L 316.5 294 L 314.5 293 L 303.5 300 L 297.5 301 L 294 291.5 L 297 287 L 305 282.5 L 304.5 281 L 307.5 281 L 314 275.5 Q 311.8 274.3 314.5 273 L 314.5 275 L 321 269.5 L 323 264.5 L 322 261.5 L 323 261.5 L 323.5 264 L 324 260.5 L 321.5 255 Q 320.3 257.3 319 254.5 Q 321.3 253.3 318.5 252 Q 315.2 253.1 316 250.5 L 314 250.5 Q 316.8 248.7 312.5 247 L 309.5 246 L 309.5 248 L 308.5 245 L 302.5 242 L 301 242.5 Q 303.3 241.3 300.5 240 L 295 235.5 Q 295.8 233.3 293.5 234 L 294 232.5 L 294 227.5 L 296 224 Z "/>
    <path fill="#ffa94d" d="M 200.5 212 Q 207.8 210.8 210 214.5 Q 209.4 219.9 211 222 L 201.5 226 L 198 229.5 L 196 239.5 L 197 241.5 L 195 250.5 L 195 252.5 L 194 257 Q 190.3 255.7 192 261.5 L 196 268.5 L 196 286.5 L 198 288.5 L 197 289.5 L 200 292.5 L 201.5 295 L 210 297 L 211 299.5 Q 208.8 300.8 210 305.5 L 208.5 307 Q 203 305.5 201.5 308 L 199.5 307 L 197.5 307 L 188.5 304 L 185 300.5 L 182 296.5 L 183 294.5 L 181 286.5 L 183 283.5 L 183 281.5 L 182 278.5 L 183 275.5 Q 181.9 268.1 176.5 265 L 172 262.5 L 171 259.5 L 181 251.5 Q 183.8 248.8 183 242.5 L 182 240.5 L 182 238.5 L 182 226.5 L 183 225.5 L 183 223.5 L 184 220 Q 186.7 221.1 186 218.5 Q 191.6 213.6 200.5 212 Z "/>
    <path fill="#66d9e8" d="M 157.5 60 L 182.5 60 L 188.5 62 L 191 64.5 L 193 76.5 Q 190.3 78.3 192 84.5 L 189.5 89 L 182.5 91 L 169.5 92 Q 157.5 96 150 104.5 Q 138.1 124.1 141 158.5 L 142 159.5 L 142 172.5 L 143 173.5 L 143 192.5 L 142 193.5 L 140 211.5 L 137 217.5 L 137 220.5 L 125 239 Q 113.3 248.5 97 254.5 L 96 259.5 L 98.5 262 L 115.5 270 L 128 281.5 Q 134.7 291.3 138 304.5 L 139 317.5 L 140 318.5 L 140 337.5 L 139 338.5 L 139 349.5 L 138 350.5 L 138 360.5 L 137 361.5 L 137 381.5 L 141 400.5 Q 144.1 408.9 150.5 414 Q 160.7 423.3 179.5 424 L 183 427.5 L 184 429.5 L 184 444.5 L 179.5 452 L 170.5 454 L 159.5 454 L 158.5 453 L 150.5 453 L 128.5 447 Q 114.9 440.6 106 429.5 L 99 415.5 L 94 396.5 L 94 388.5 L 93 387.5 L 93 361.5 L 94 360.5 L 94 347.5 L 95 346.5 L 95 336.5 L 96 335.5 L 96 316.5 L 93 299.5 L 90 292.5 L 80.5 282 L 69.5 276 L 56.5 273 L 51 270 L 48 263.5 L 48 249.5 Q 49.3 243.8 53.5 241 L 74.5 234 L 89 221.5 L 96 206.5 L 98 186.5 L 97 185.5 L 96 157.5 L 95 156.5 L 95 124.5 L 98 108.5 L 103 94.5 Q 108 84 116.5 77 L 134.5 66 L 157.5 60 Z M 167 61 L 166 62 L 157 62 Q 153 65 147 64 L 135 68 L 125 73 L 113 82 L 105 95 L 105 98 L 100 109 L 97 123 L 97 160 L 98 161 L 98 174 L 99 175 L 99 188 L 100 189 L 97 210 L 90 225 L 75 236 L 63 241 L 56 242 L 50 250 Q 48 261 52 268 L 57 271 L 66 272 L 68 274 L 77 277 L 85 283 L 87 286 Q 89 285 88 288 L 90 288 L 95 301 L 98 318 L 97 348 L 95 359 L 95 388 L 96 389 L 98 407 L 105 425 L 110 431 L 112 434 Q 125 447 149 450 L 151 450 L 158 452 L 173 452 L 178 451 L 182 445 Q 183 433 181 427 L 163 423 L 152 417 L 140 404 L 135 381 L 135 363 L 136 362 L 137 342 L 138 341 L 138 316 L 137 315 L 136 304 L 133 298 L 133 295 L 125 281 L 116 272 L 103 265 L 98 264 L 94 261 L 95 254 L 120 241 L 121 239 L 124 237 L 136 218 L 141 195 L 141 170 L 139 160 L 139 132 Q 141 130 140 126 L 145 109 L 151 100 L 167 91 L 177 89 L 184 89 L 189 87 L 190 82 L 190 80 L 191 76 L 190 67 L 184 62 Q 173 63 167 61 Z "/>
    <path fill="#66d9e8" d="M 329.5 60 L 355.5 60 L 369.5 63 L 385.5 69 L 402 82.5 L 410 94.5 L 417 116.5 Q 415.8 121.3 418 122.5 L 418 158.5 L 417 159.5 L 417 173.5 L 416 174.5 L 416 199.5 Q 418.5 201 417 206.5 L 421 216.5 L 431.5 229 L 444.5 237 L 457.5 240 L 463 244.5 Q 467 251 465 263.5 L 462 270 L 456.5 273 L 452.5 273 L 435.5 280 L 426 288.5 L 420 299.5 Q 420.6 305.6 418 308.5 Q 419.5 314 417 315.5 L 417 335.5 L 418 336.5 L 419 362.5 L 420 363.5 L 420 387.5 L 419 388.5 L 418 401.5 L 412 420.5 Q 406.4 433.4 395.5 441 L 384.5 447 L 363.5 453 L 342.5 454 Q 340.8 451.3 334.5 453 L 331 449.5 L 329 444.5 L 329 429.5 L 333.5 424 Q 356.5 423 367 409.5 Q 378.7 391.7 376 359.5 L 375 358.5 L 374 336.5 L 373 335.5 L 373 318.5 L 374 317.5 L 375 304.5 L 379 292.5 Q 383.4 280.9 392.5 274 L 400.5 268 L 414.5 262 L 417 259.5 Q 418 255 415.5 254 Q 396.4 248.1 385 234.5 L 379 226.5 L 373 210.5 L 371 200.5 L 371 192.5 L 370 191.5 L 370 172.5 L 371 171.5 L 371 157.5 L 372 156.5 L 372 133.5 L 371 132.5 L 370 120.5 L 367 111.5 L 359.5 101 Q 352.7 94.8 342.5 92 L 325.5 90 L 323 89 L 321 84.5 Q 322.5 77 320 73.5 Q 322.3 72.3 321 67.5 L 324.5 62 L 329.5 60 Z M 342 61 L 341 62 Q 332 61 327 63 L 323 68 L 322 73 L 322 80 L 324 87 L 330 89 L 337 89 L 346 91 L 362 100 L 370 115 L 374 133 L 374 157 L 373 158 L 373 170 L 372 171 L 372 194 L 375 211 L 381 227 L 391 238 Q 393 237 392 240 Q 402 248 416 252 Q 420 253 419 261 L 417 263 L 403 269 L 391 278 L 384 286 L 383 292 L 379 298 L 375 318 L 375 338 L 377 349 L 377 361 L 378 362 L 378 382 Q 376 383 377 389 L 374 398 L 374 402 L 367 413 Q 364 412 365 415 L 351 423 L 335 426 L 331 431 Q 330 441 332 448 L 336 451 Q 340 450 342 452 L 363 451 L 383 446 L 391 442 L 401 434 Q 400 431 403 432 L 408 425 L 413 413 L 418 390 L 418 363 L 417 362 L 416 334 L 415 333 L 416 308 Q 419 303 419 297 L 425 288 L 427 285 Q 439 273 459 270 L 461 268 L 464 260 Q 464 250 461 244 L 458 242 L 445 239 L 429 229 Q 421 222 417 213 L 414 199 L 414 190 L 413 189 L 414 177 L 415 176 L 414 174 L 415 173 L 415 162 L 416 161 L 416 123 Q 414 121 415 117 L 409 97 L 402 86 Q 393 74 379 68 L 366 64 L 361 64 L 357 62 L 342 61 Z "/>
    <path fill="#66d9e8" d="M 224.5 61 L 293.5 61 L 294.5 62 Q 306.1 60.6 312 63 L 311 69.5 L 311 83.5 L 314 92.5 L 318.5 97 L 324.5 100 L 338.5 101 L 345.5 103 L 355 110.5 Q 360.1 117.4 362 127.5 L 363 146.5 L 362 147.5 L 362 163.5 L 361 164.5 L 361 196.5 L 362 197.5 L 363 210.5 L 367 223.5 L 377 240.5 L 383.5 247 L 399 257.5 L 397.5 260 Q 388 263.5 382 270.5 L 373 282.5 L 366 301.5 L 365 312.5 L 364 313.5 L 364 340.5 L 365 341.5 L 365 352.5 L 366 353.5 L 366 387.5 Q 363.3 402.8 352.5 410 L 344.5 413 L 331.5 415 L 322 422.5 L 319 431.5 L 319 441.5 L 322 453 L 316.5 454 L 303.5 454 L 302.5 455 L 217.5 455 L 216.5 454 L 200.5 454 L 199.5 453 L 191 452.5 L 194 441.5 L 194 431.5 L 189 419 L 182.5 415 L 162.5 411 L 153 402.5 L 147 385.5 L 147 355.5 L 148 354.5 L 148 342.5 L 149 341.5 L 149 311.5 L 143 288.5 Q 137.2 274.8 126.5 266 L 115 260 L 114 257.5 L 122.5 253 L 137 239.5 Q 145.6 227.6 150 211.5 L 151 197.5 L 152 196.5 L 152 164.5 L 151 163.5 L 150 137.5 L 151 136.5 L 151 127.5 L 154 117.5 L 158 110.5 L 163.5 105 L 169.5 102 L 188.5 100 L 198 93.5 Q 204.1 85.1 202 68.5 L 201 63 L 206.5 62 L 223.5 62 L 224.5 61 Z M 222 63 L 221 64 L 212 64 L 210 64 L 203 65 L 204 69 L 203 88 L 199 96 L 192 101 L 170 104 L 162 109 L 155 121 L 152 136 L 152 150 L 153 151 L 153 164 L 154 165 L 154 198 L 153 199 L 153 208 L 151 216 L 142 236 L 133 247 L 120 257 Q 117 256 118 259 L 129 265 Q 139 274 145 289 L 151 311 L 151 344 L 149 354 L 149 387 Q 152 391 152 398 L 155 403 L 163 409 L 173 412 L 183 413 L 188 416 L 194 425 L 196 434 L 196 442 L 194 451 Q 199 453 207 452 L 209 452 Q 213 451 215 453 L 252 453 L 253 454 L 272 454 L 273 453 L 276 454 L 277 453 L 317 452 L 320 451 L 317 442 L 317 433 L 320 422 L 331 413 Q 346 413 355 406 L 361 398 L 364 388 L 364 380 L 365 379 L 364 352 L 362 344 L 362 313 L 365 299 L 371 283 L 383 266 L 395 259 L 394 256 Q 386 253 382 247 Q 379 248 380 246 L 377 244 L 365 224 L 362 216 L 361 204 L 359 197 L 359 166 L 360 165 L 360 153 L 361 152 L 361 135 L 359 124 L 352 109 L 340 103 L 326 102 L 317 98 L 310 89 Q 312 83 309 82 Q 308 71 310 65 Q 306 63 298 64 L 297 63 L 292 64 L 287 63 L 222 63 Z "/>
    <path fill="#66d9e8" d="M 196.5 202 L 210.5 202 L 218 207.5 Q 222.3 212.6 221 223.5 L 213.5 233 L 208 235 L 207 237.5 L 207 249.5 L 206 250.5 L 205 262.5 Q 208.9 270.1 207 283.5 L 209.5 286 Q 216.7 286.9 219 292.5 Q 222.7 296.8 221 306.5 L 214.5 316 L 210.5 318 L 196.5 318 L 182.5 313 L 175 305.5 L 171 294.5 L 171 281.5 L 172 275 L 165 272 L 160 262.5 L 161 260.5 L 160 258.5 L 165.5 250 L 171 246.5 L 172 241.5 L 171 240.5 L 171 225.5 L 177 212 L 184.5 206 L 196.5 202 Z M 197 204 L 184 209 Q 176 215 173 225 L 173 242 L 174 243 L 173 248 L 168 251 L 162 259 Q 161 265 164 268 L 174 276 L 173 281 L 173 296 L 176 304 Q 182 313 196 316 L 211 316 L 213 315 L 219 307 Q 221 297 217 293 Q 214 287 206 287 L 205 285 L 205 268 L 202 261 Q 207 251 205 236 L 215 230 L 219 224 L 219 214 L 216 207 L 211 204 L 197 204 Z "/>
    <path fill="#66d9e8" d="M 296.5 212 L 304.5 213 L 312.5 217 L 347 242 L 356 254.5 L 357 263.5 Q 354.8 264.7 356 269.5 L 353 275.5 L 344 284.5 L 344 286 L 313.5 308 L 304.5 312 L 295.5 312 Q 288.6 310.4 286 304.5 L 283 296.5 L 283 289.5 L 290.5 278 L 311 263.5 Q 311.8 258.8 308.5 258 L 289 247 L 283 236.5 L 282 230.5 L 284 221.5 L 290.5 214 L 296.5 212 Z M 296 214 L 288 218 L 285 224 L 284 229 Q 284 239 289 244 L 312 258 L 314 262 L 312 266 L 294 278 L 285 290 Q 284 300 288 305 L 296 310 Q 307 312 312 307 L 339 288 L 352 274 L 355 266 L 355 259 L 349 248 L 314 220 L 302 214 L 296 214 Z "/>
    <path fill="#f783ac" d="M 297.5 222 L 302.5 223 L 307.5 226 L 326 239 L 326.5 241 L 327.5 240 L 330.5 243 L 345 255.5 L 347 261.5 L 345 268.5 L 338 278 L 313.5 296 L 302.5 302 L 297.5 302 L 294 298.5 L 293 293.5 L 295 292.5 L 296 299.5 L 297.5 301 L 303.5 300 L 310.5 295 L 312.5 295 L 330.5 281 L 334 280 L 335.5 277 L 340 273.5 L 342 270.5 Q 345.8 267.3 345 259.5 Q 341.7 251.3 334.5 247 L 305.5 226 Q 302.3 223 296 224 L 294 227.5 L 294 233 Q 290.3 234.3 292 228.5 L 295.5 223 L 297.5 222 Z "/>
    <path fill="#f783ac" d="M 293.5 234 Q 295.8 233.3 295 235.5 L 299.5 240 L 312.5 247 L 316 250.5 L 314.5 250 L 304.5 245 L 294 236.5 L 293.5 234 Z "/>
    <path fill="#f783ac" d="M 317.5 252 L 323 256.5 L 324 263.5 Q 321.4 270.9 315.5 275 L 307.5 281 L 305.5 281 L 306.5 279 Q 315.5 275 321 267.5 L 323 261.5 L 319.5 254 L 317.5 252 Z "/>
    <path fill="#f783ac" d="M 302.5 282 L 305 282.5 L 297 287 L 294.5 291 L 294 289.5 L 302.5 282 Z "/>
  </g>
  <g id="line">
    <path fill="#1a1a1a" d="M 157.5 50 L 184.5 50 Q 193.5 51.5 198 57.5 Q 204 66.5 202 83.5 L 200 90.5 L 194.5 97 L 188.5 100 L 169.5 102 Q 162.1 104.6 158 110.5 Q 152.9 117.4 151 127.5 L 150 143.5 L 151 144.5 L 151 163.5 L 152 164.5 L 152 196.5 L 151 197.5 L 150 211.5 L 145 225.5 Q 139.4 239.4 128.5 248 L 114 257.5 L 115 260 Q 125.5 263.3 132 271.5 L 140 282.5 L 147 301.5 L 149 311.5 L 149 341.5 L 148 342.5 L 148 354.5 L 147 355.5 L 147 385.5 L 151 399.5 L 160.5 410 L 168.5 413 L 182.5 415 L 189 419 L 194 431.5 L 194 441.5 L 192 451.5 L 185.5 460 L 178.5 463 L 152.5 463 Q 146 460 136.5 460 L 120.5 454 Q 108.6 448.4 101 438.5 L 90 419.5 L 86 405.5 L 85 393.5 L 84 392.5 L 84 354.5 L 85 353.5 L 85 342.5 L 86 341.5 L 86 312.5 L 80 295.5 L 73.5 289 L 65.5 285 Q 53.7 283.5 46 279 L 46 277 Q 43.3 278.1 44 275.5 L 38 263.5 L 38 249.5 Q 40 238.5 47.5 233 L 71.5 224 L 80 216.5 Q 89.6 204.1 88 180.5 L 87 179.5 L 86 155.5 L 85 154.5 L 85 127.5 L 86 126.5 L 87 112.5 L 92 94.5 Q 98.8 78.3 111.5 68 L 132.5 56 L 157.5 50 Z M 158 60 L 135 66 L 117 77 Q 108 84 103 95 L 98 109 L 95 125 L 95 157 L 96 158 L 97 186 L 98 187 L 96 207 L 89 222 L 75 234 L 54 241 Q 49 244 48 250 L 48 264 L 51 270 L 57 273 L 70 276 L 81 282 L 90 293 L 93 300 L 96 317 L 96 336 L 95 337 L 95 347 L 94 348 L 94 361 L 93 362 L 93 388 L 94 389 L 94 397 L 99 416 L 106 430 Q 115 441 129 447 L 151 453 L 159 453 L 160 454 L 171 454 L 180 452 L 184 445 L 184 430 L 183 428 L 180 424 Q 161 423 151 414 Q 144 409 141 401 L 137 382 L 137 362 L 138 361 L 138 351 L 139 350 L 139 339 L 140 338 L 140 319 L 139 318 L 138 305 Q 135 291 128 282 L 116 270 L 99 262 L 96 260 L 97 255 Q 113 249 125 239 L 137 221 L 137 218 L 140 212 L 142 194 L 143 193 L 143 174 L 142 173 L 142 160 L 141 159 Q 138 124 150 105 Q 158 96 170 92 L 183 91 L 190 89 L 192 85 Q 190 78 193 77 L 191 65 L 189 62 L 183 60 L 158 60 Z "/>
    <path fill="#1a1a1a" d="M 328.5 50 L 355.5 50 Q 362 53 371.5 53 Q 394.8 59.8 409 75.5 Q 419.2 86.8 424 103.5 L 427 117.5 L 427 127.5 L 428 128.5 L 428 152.5 L 427 153.5 L 427 170.5 L 426 171.5 L 425 192.5 L 426 193.5 L 427 205.5 Q 430.7 215.8 438.5 222 Q 446.7 228.3 459.5 230 Q 466.3 232.3 470 237.5 L 475 248.5 L 475 263.5 Q 472.6 274.6 464.5 280 L 444.5 286 L 433 295.5 L 427 312.5 L 427 339.5 L 428 340.5 L 428 353.5 L 429 354.5 L 429 393.5 L 426 409.5 L 421 424.5 Q 414.3 438.8 402.5 448 Q 391.4 455.9 376.5 460 L 347.5 464 L 346.5 463 L 334.5 463 Q 327.6 461.4 324 456.5 Q 318.2 447.3 319 431.5 L 322 422.5 L 327.5 417 L 334.5 414 L 339.5 414 L 350.5 411 L 360 402.5 L 366 387.5 L 366 353.5 L 365 352.5 L 365 341.5 L 364 340.5 L 364 313.5 L 365 312.5 L 366 301.5 L 370 288.5 Q 375.8 275.8 385.5 267 L 399 258.5 L 397.5 256 Q 385.1 250.4 377 240.5 L 367 223.5 L 363 210.5 L 363 204.5 L 361 196.5 L 361 164.5 L 362 163.5 L 363 136.5 L 362 135.5 L 362 127.5 L 359 117.5 L 350.5 106 L 338.5 101 L 331.5 101 L 321.5 99 L 314 92.5 Q 309.3 84.2 311 69.5 Q 313.2 68.2 312 63.5 L 315 57.5 L 319.5 53 L 328.5 50 Z M 330 60 L 325 62 L 321 68 Q 322 72 320 74 Q 323 77 321 85 L 323 89 L 326 90 L 343 92 Q 353 95 360 101 L 367 112 L 370 121 L 371 133 L 372 134 L 372 157 L 371 158 L 371 172 L 370 173 L 370 192 L 371 193 L 371 201 L 373 211 L 379 227 L 385 235 Q 396 248 416 254 Q 418 255 417 260 L 415 262 L 401 268 L 393 274 Q 383 281 379 293 L 375 305 L 374 318 L 373 319 L 373 336 L 374 337 L 375 359 L 376 360 Q 379 392 367 410 Q 357 423 334 424 L 329 430 L 329 445 L 331 450 L 335 453 Q 341 451 343 454 L 364 453 L 385 447 L 396 441 Q 406 433 412 421 L 418 402 L 419 389 L 420 388 L 420 364 L 419 363 L 418 337 L 417 336 L 417 316 Q 420 314 418 309 Q 421 306 420 300 L 426 289 L 436 280 L 453 273 L 457 273 L 462 270 L 465 264 Q 467 251 463 245 L 458 240 L 445 237 L 432 229 L 421 217 L 417 207 Q 419 201 416 200 L 416 175 L 417 174 L 417 160 L 418 159 L 418 123 Q 416 121 417 117 L 410 95 L 402 83 L 386 69 L 370 63 L 356 60 L 330 60 Z "/>
    <path fill="#1a1a1a" d="M 196.5 204 L 210.5 204 L 216 207 L 219 213.5 L 219 223.5 L 214.5 230 L 205 235.5 Q 207 251.5 202 260.5 L 205 267.5 L 205 284.5 L 206 287 Q 213.5 287.1 217 292.5 Q 220.7 296.8 219 306.5 L 212.5 315 L 210.5 316 L 195.5 316 Q 182 313.5 176 303.5 L 173 295.5 L 173 280.5 L 174 275.5 L 164 267.5 Q 161.2 264.8 162 258.5 L 167.5 251 L 173 247.5 L 174 242.5 L 173 241.5 L 173 224.5 Q 176.1 214.6 183.5 209 L 196.5 204 Z M 200 212 L 189 216 Q 183 219 181 227 L 181 235 L 183 243 L 180 253 L 173 258 Q 169 257 171 263 L 179 267 L 182 273 L 182 286 L 181 287 L 182 297 L 184 301 L 188 304 L 198 308 Q 206 309 210 307 L 211 304 L 210 297 L 203 295 L 197 288 L 197 271 L 195 265 L 192 262 L 197 250 L 197 234 L 200 227 L 209 224 L 211 222 L 210 213 Q 207 211 200 212 Z "/>
    <path fill="#1a1a1a" d="M 295.5 214 L 301.5 214 L 313.5 220 L 349 247.5 L 355 258.5 L 355 265.5 L 352 273.5 L 338.5 288 L 311.5 307 Q 306.7 311.7 295.5 310 L 288 304.5 Q 283.8 299.7 285 289.5 L 293.5 278 L 312 266 L 314 261.5 L 311.5 258 L 289 243.5 Q 284 238.5 284 228.5 L 285 223.5 L 288 218 L 295.5 214 Z M 298 222 L 296 223 L 292 229 Q 291 234 294 237 L 299 241 L 316 251 L 322 259 L 321 268 Q 311 278 299 285 L 294 290 L 293 294 L 294 299 L 298 302 L 303 302 L 314 296 L 338 278 Q 345 273 347 262 L 345 256 Q 334 244 321 235 L 305 224 L 298 222 Z "/>
  </g>
</svg>
