<svg xmlns="http://www.w3.org/2000/svg" width="512" height="512" viewBox="0 0 512 512">
  <g id="color">
    <path fill="#ffffff" d="M 271.5 36 L 279 36.5 L 271.5 37 L 271.5 36 Z "/>
    <path fill="#ffffff" d="M 253.5 37 L 253 38.5 L 251.5 41 L 247 39.5 L 249.5 39 L 252 40 L 253.5 37 Z "/>
    <path fill="#ffffff" d="M 281.5 37 L 288.5 37 L 294 38.5 L 289.5 39 Q 287.7 36.2 281.5 38 L 281.5 37 Z "/>
    <path fill="#ffffff" d="M 230.5 38 L 244 38.5 L 230.5 39 L 230.5 38 Z "/>
    <path fill="#ffffff" d="M 220.5 39 L 225 39.5 L 220.5 40 L 220.5 39 Z "/>
    <path fill="#ffffff" d="M 213.5 40 L 219 40.5 L 210.5 42 L 210.5 41 L 213.5 40 Z "/>
    <path fill="#ffffff" d="M 302.5 40 L 309 41.5 L 306.5 42 L 302.5 41 L 302.5 40 Z "/>
    <path fill="#ffffff" d="M 200.5 43 L 203 43.5 L 197.5 45 L 197.5 44 L 200.5 43 Z "/>
    <path fill="#ffffff" d="M 315.5 43 L 320 44.5 L 318.5 45 L 315.5 44 L 315.5 43 Z "/>
    <path fill="#ffffff" d="M 325.5 46 L 329 47.5 L 327.5 48 L 325.5 46 Z "/>
    <path fill="#ffffff" d="M 181.5 49 L 183 49.5 L 179.5 51 L 179.5 50 L 181.5 49 Z "/>
    <path fill="#ffffff" d="M 333.5 49 L 338 50.5 L 336.5 51 L 333.5 50 L 333.5 49 Z "/>
    <path fill="#ffffff" d="M 176.5 51 L 178 51.5 L 169.5 55 L 169.5 54 L 176.5 51 Z "/>
    <path fill="#ffffff" d="M 341.5 52 L 347 54.5 L 345.5 55 L 341.5 53 L 341.5 52 Z "/>
    <path fill="#ffffff" d="M 160.5 58 L 162 58.5 L 157.5 61 L 158.5 59 L 160.5 58 Z "/>
    <path fill="#ffffff" d="M 354.5 58 L 359 60.5 L 357.5 61 L 354.5 58 Z "/>
    <path fill="#ffffff" d="M 155.5 61 L 154.5 63 L 146.5 67 L 146.5 66 L 155.5 61 Z "/>
    <path fill="#ffffff" d="M 360.5 61 L 364 63.5 L 362.5 63 L 360.5 61 Z "/>
    <path fill="#ffffff" d="M 365.5 64 L 369 66.5 L 367.5 66 L 365.5 64 Z "/>
    <path fill="#ffffff" d="M 144.5 67 L 143.5 69 L 140.5 71 L 142.5 68 L 144.5 67 Z "/>
    <path fill="#ffffff" d="M 370.5 67 L 375 70.5 L 372.5 69 L 370.5 67 Z "/>
    <path fill="#ffffff" d="M 135.5 73 L 133.5 76 L 127.5 80 L 129.5 77 L 135.5 73 Z "/>
    <path fill="#ffffff" d="M 379.5 73 L 386 78.5 L 382.5 76 L 379.5 73 Z "/>
    <path fill="#ffffff" d="M 82.5 124 L 81 126.5 L 76.5 133 L 78 130.5 L 82.5 124 Z "/>
    <path fill="#ffffff" d="M 430.5 124 L 434 128.5 L 431 126.5 L 430.5 124 Z "/>
    <path fill="#ffffff" d="M 436.5 133 L 439 136.5 L 437 135.5 L 436.5 133 Z "/>
    <path fill="#ffffff" d="M 439.5 138 L 442 141.5 L 440 140.5 L 439.5 138 Z "/>
    <path fill="#ffffff" d="M 70.5 142 L 70 143.5 L 68.5 146 L 69 144.5 L 70.5 142 Z "/>
    <path fill="#ffffff" d="M 443.5 145 L 449 154.5 L 447 153.5 L 443.5 145 Z "/>
    <path fill="#ffffff" d="M 66.5 149 L 66 150.5 L 64.5 153 L 65 151.5 L 66.5 149 Z "/>
    <path fill="#ffffff" d="M 63.5 154 L 64 155.5 L 61.5 159 L 62 157.5 L 63.5 154 Z "/>
    <path fill="#ffffff" d="M 449.5 156 L 452 160.5 L 450 159.5 L 449.5 156 Z "/>
    <path fill="#ffffff" d="M 60.5 160 L 61 161.5 L 58.5 166 L 58 164.5 L 60.5 160 Z "/>
    <path fill="#ffffff" d="M 452.5 162 L 454 165.5 L 453 165.5 L 452.5 162 Z "/>
    <path fill="#ffffff" d="M 56.5 169 L 57 170.5 L 55.5 173 L 55 171.5 L 56.5 169 Z "/>
    <path fill="#ffffff" d="M 455.5 169 L 458 175.5 L 457 175.5 L 455.5 169 Z "/>
    <path fill="#ffffff" d="M 53.5 177 L 54 178.5 L 52.5 181 L 52 179.5 L 53.5 177 Z "/>
    <path fill="#ffffff" d="M 50.5 185 L 51 186.5 L 49.5 190 L 49 187.5 L 50.5 185 Z "/>
    <path fill="#ffffff" d="M 465.5 199 L 467 205.5 L 466 205.5 L 465.5 199 Z "/>
    <path fill="#ffffff" d="M 44.5 207 L 45 209.5 L 43.5 214 L 43 210.5 L 44.5 207 Z "/>
    <path fill="#ffffff" d="M 468.5 213 L 470 221.5 L 469 221.5 L 468.5 213 Z "/>
    <path fill="#ffffff" d="M 41.5 223 L 42 227.5 L 40.5 236 L 40 228.5 L 41.5 223 Z "/>
    <path fill="#ffffff" d="M 471.5 233 L 472 241.5 L 473 242.5 L 473 274.5 L 471.5 283 L 471 275.5 L 472 274.5 L 472 242.5 L 471 241.5 L 471.5 233 Z "/>
    <path fill="#ffffff" d="M 39.5 238 L 40 248.5 L 39 248.5 L 39.5 238 Z "/>
    <path fill="#ffffff" d="M 39.5 267 L 40 276.5 L 39 276.5 L 39.5 267 Z "/>
    <path fill="#ffffff" d="M 40.5 280 L 41 286.5 L 40 286.5 L 40.5 280 Z "/>
    <path fill="#ffffff" d="M 41.5 288 L 42 292.5 L 41 292.5 L 41.5 288 Z "/>
    <path fill="#ffffff" d="M 469.5 293 L 470 296.5 L 468.5 301 L 468 297.5 L 469.5 293 Z "/>
    <path fill="#ffffff" d="M 43.5 301 L 45 307.5 L 44 307.5 L 43.5 301 Z "/>
    <path fill="#ffffff" d="M 466.5 308 L 467 310.5 L 465.5 314 L 465 311.5 L 466.5 308 Z "/>
    <path fill="#ffffff" d="M 46.5 314 L 48 320.5 L 47 320.5 L 46.5 314 Z "/>
    <path fill="#ffffff" d="M 463.5 319 L 464 320.5 L 462.5 324 L 462 321.5 L 463.5 319 Z "/>
    <path fill="#ffffff" d="M 49.5 326 L 51 330.5 L 50 330.5 L 49.5 326 Z "/>
    <path fill="#ffffff" d="M 460.5 328 L 461 329.5 L 458.5 335 L 458 333.5 L 460.5 328 Z "/>
    <path fill="#ffffff" d="M 52.5 334 L 54 338.5 L 53 338.5 L 52.5 334 Z "/>
    <path fill="#ffffff" d="M 457.5 336 L 458 337.5 L 455.5 343 L 455 341.5 L 457.5 336 Z "/>
    <path fill="#ffffff" d="M 55.5 343 L 57 346.5 L 56 346.5 L 55.5 343 Z "/>
    <path fill="#ffffff" d="M 58.5 350 L 61 355.5 L 60 355.5 L 58.5 350 Z "/>
    <path fill="#ffffff" d="M 448.5 356 L 448 357.5 L 443.5 366 L 444 364.5 L 448.5 356 Z "/>
    <path fill="#ffffff" d="M 61.5 357 L 67 366.5 L 65 365.5 L 61.5 357 Z "/>
    <path fill="#ffffff" d="M 442.5 367 L 442 368.5 L 440.5 371 L 441 369.5 L 442.5 367 Z "/>
    <path fill="#ffffff" d="M 68.5 370 L 71 373.5 L 69 372.5 L 68.5 370 Z "/>
    <path fill="#ffffff" d="M 439.5 372 L 438 374.5 L 436.5 377 L 437 375.5 L 439.5 372 Z "/>
    <path fill="#ffffff" d="M 71.5 375 L 74 378.5 L 72 377.5 L 71.5 375 Z "/>
    <path fill="#ffffff" d="M 432.5 382 L 431 384.5 L 427.5 389 L 430 385.5 L 432.5 382 Z "/>
    <path fill="#ffffff" d="M 79.5 387 L 88 398.5 L 87 398.5 L 79.5 387 Z "/>
    <path fill="#ffffff" d="M 118.5 428 L 133 439.5 L 130.5 438 Q 121.9 434.2 118.5 428 Z "/>
    <path fill="#ffffff" d="M 387.5 428 L 384.5 432 L 381.5 434 L 383.5 431 L 387.5 428 Z "/>
    <path fill="#ffffff" d="M 372.5 439 L 370.5 442 L 368.5 443 L 369.5 441 L 372.5 439 Z "/>
    <path fill="#ffffff" d="M 137.5 442 L 141 444.5 L 139.5 444 L 137.5 442 Z "/>
    <path fill="#ffffff" d="M 366.5 443 L 365.5 445 L 363.5 446 L 364.5 444 L 366.5 443 Z "/>
    <path fill="#ffffff" d="M 144.5 446 L 148 448.5 L 146.5 448 L 144.5 446 Z "/>
    <path fill="#ffffff" d="M 361.5 446 L 360.5 448 L 358.5 449 L 359.5 447 L 361.5 446 Z "/>
    <path fill="#ffffff" d="M 149.5 449 L 159 454.5 L 157.5 454 L 150.5 451 L 149.5 449 Z "/>
    <path fill="#ffffff" d="M 356.5 449 L 355.5 451 L 349.5 454 L 350.5 452 L 356.5 449 Z "/>
    <path fill="#ffffff" d="M 160.5 455 L 166 457.5 L 164.5 458 L 160.5 456 L 160.5 455 Z "/>
    <path fill="#ffffff" d="M 167.5 458 L 171 459.5 L 169.5 460 L 167.5 458 Z "/>
    <path fill="#ffffff" d="M 177.5 462 L 181 463.5 L 179.5 464 L 177.5 462 Z "/>
    <path fill="#ffffff" d="M 328.5 462 L 330 462.5 L 326.5 464 L 326.5 463 L 328.5 462 Z "/>
    <path fill="#ffffff" d="M 185.5 465 L 191 466.5 L 188.5 467 L 185.5 466 L 185.5 465 Z "/>
    <path fill="#ffffff" d="M 320.5 465 L 323 465.5 L 318.5 467 L 318.5 466 L 320.5 465 Z "/>
    <path fill="#ffffff" d="M 195.5 468 L 202 469.5 L 198.5 470 L 195.5 469 L 195.5 468 Z "/>
    <path fill="#ffffff" d="M 311.5 468 L 314 468.5 L 308.5 470 L 308.5 469 L 311.5 468 Z "/>
    <path fill="#ffffff" d="M 208.5 471 L 216 472.5 L 211.5 473 L 208.5 472 L 208.5 471 Z "/>
    <path fill="#ffffff" d="M 299.5 471 L 302 471.5 L 295.5 473 L 295.5 472 L 299.5 471 Z "/>
    <path fill="#ffffff" d="M 223.5 474 L 228 474.5 L 223.5 475 L 223.5 474 Z "/>
    <path fill="#ffffff" d="M 283.5 474 L 288 474.5 L 282.5 476 L 274.5 476 L 274.5 475 L 282.5 475 L 283.5 474 Z "/>
    <path fill="#ffffff" d="M 229.5 475 L 238 475.5 L 229.5 476 L 229.5 475 Z "/>
    <path fill="#ffffff" d="M 241.5 476 L 256 476.5 L 241.5 477 L 241.5 476 Z "/>
    <path fill="#ffffff" d="M 257.5 476 L 271 476.5 L 257.5 477 L 257.5 476 Z "/>
    <path fill="#ffd43b" d="M 252.5 46 L 259.5 47 L 260.5 46 L 269.5 46 L 270.5 47 L 281.5 47 L 308.5 52 L 338.5 62 Q 375.5 79 402 106.5 L 404 109.5 Q 433.4 138.6 449 181.5 L 460 222.5 L 461 240.5 L 462 241.5 L 462 274.5 L 461 275.5 L 460 292.5 L 454 317.5 L 442 347.5 L 426 374.5 L 410 394.5 L 396.5 408 Q 380.5 423 361.5 435 L 324.5 454 L 289.5 464 L 253.5 467 L 252.5 466 L 237.5 466 L 229.5 464 L 221.5 464 L 206.5 461 L 180.5 453 L 166.5 446 L 161.5 445 Q 126.9 427.1 102 399.5 Q 86 381.5 74 359.5 L 62 332.5 L 52 294.5 L 52 286.5 L 50 277.5 L 50 264.5 L 49 263.5 L 49 251.5 L 50 250.5 L 51 228.5 L 55 206.5 L 61 185.5 L 71 161.5 Q 91 123 122.5 96 L 151.5 75 L 184.5 59 L 221.5 49 L 241.5 48 L 252.5 46 Z M 250 77 L 249 78 L 238 78 L 237 79 L 224 80 L 193 89 Q 162 102 140 123 L 137 125 Q 111 148 95 181 L 86 205 L 83 218 L 81 237 L 80 238 L 80 253 L 79 254 L 82 290 L 92 327 Q 104 358 125 381 L 139 394 L 159 409 L 189 424 L 219 433 L 238 435 L 239 436 L 250 436 L 251 437 L 272 436 L 280 434 L 286 434 L 314 426 L 350 408 L 374 390 Q 397 370 412 343 L 426 310 L 431 289 L 432 275 L 433 274 L 433 244 L 432 243 L 430 223 L 428 219 L 424 200 L 408 162 L 391 137 Q 367 108 332 92 Q 314 84 294 80 L 270 78 L 269 77 L 250 77 Z "/>
    <path fill="#ffd43b" d="M 242.5 87 L 273.5 87 L 274.5 88 L 287.5 89 L 305.5 93 L 322.5 99 Q 356.9 113.6 380 139.5 Q 401.3 163.7 413 197.5 L 420 222.5 L 421 235.5 L 423 242.5 L 423 275.5 L 417 305.5 L 410 324.5 L 395 351.5 L 377 374 L 374 375.5 Q 374.8 377.8 372.5 377 L 350.5 396 Q 334.5 407 315.5 415 L 294.5 422 L 274.5 426 L 242.5 427 L 241.5 426 L 221.5 424 L 206.5 420 L 186.5 413 L 174.5 407 Q 147 392.5 128 369.5 L 111 344.5 L 102 325.5 L 96 308.5 L 90 278.5 L 89 245.5 L 90 244.5 L 90 233.5 L 93 216.5 L 99 195.5 L 105 181.5 L 118 159.5 L 136.5 138 Q 138.8 138.8 138 136.5 Q 160.2 115.2 189.5 101 L 210.5 93 L 242.5 87 Z M 211 223 L 201 225 L 195 228 L 185 238 L 181 248 L 181 263 L 187 275 L 196 282 L 209 286 L 218 286 L 229 282 L 232 278 L 231 274 L 229 272 Q 221 267 219 257 Q 219 248 223 243 L 229 238 Q 232 237 231 231 Q 225 223 211 223 Z M 313 223 L 311 224 Q 306 226 310 228 Q 313 227 312 230 L 305 231 L 300 234 Q 293 240 290 251 L 290 259 L 293 269 L 300 278 L 315 285 Q 331 287 339 280 L 347 272 L 352 258 L 350 243 L 346 236 Q 342 228 333 226 Q 331 223 330 227 L 326 225 L 326 223 L 313 223 Z "/>
    <path fill="#ffd43b" d="M 322.5 230 L 326 231.5 L 327.5 234 Q 334.9 236.6 339 242.5 L 342 250.5 L 342 258.5 Q 339.8 266.3 334.5 271 L 330.5 274 L 320.5 276 Q 319.3 273.8 314.5 275 L 308.5 272 L 304 267.5 L 300 259.5 L 300 247.5 Q 302.1 240.1 307.5 236 Q 311.9 231.7 321 233 L 322.5 230 Z "/>
    <path fill="#ffd43b" d="M 208.5 233 L 216.5 233 L 218 234.5 Q 212 239.5 210 248.5 L 210 260.5 L 213 269.5 L 218 275.5 Q 216.3 278.8 209.5 277 Q 199.1 274.9 194 267.5 L 190 258.5 L 190 250.5 Q 192.3 242.8 197.5 238 L 208.5 233 Z "/>
  </g>
  <g id="line">
    <path fill="#1a1a1a" d="M 257.5 36 L 270.5 36 L 271.5 37 L 280.5 37 L 281.5 38 L 301.5 40 L 321.5 45 L 347.5 55 Q 389.3 75.2 418 108.5 Q 448.9 143.6 464 194.5 L 471 229.5 L 472 274.5 L 471 275.5 L 471 285.5 L 467 307.5 L 455 343.5 Q 434.8 387.8 400.5 418 L 367.5 443 L 333.5 461 L 314.5 468 L 290.5 474 L 274.5 475 L 273.5 476 L 257.5 476 L 256.5 477 L 255.5 476 L 228.5 475 L 210.5 471 L 205.5 471 L 181.5 464 L 159.5 455 Q 121.8 436.2 95 406.5 Q 66.3 375.7 51 331.5 L 42 295.5 L 42 288.5 L 40 279.5 L 40 267.5 L 39 266.5 L 39 249.5 L 40 248.5 L 40 236.5 L 41 235.5 L 43 214.5 L 48 193.5 L 57 168.5 Q 74.3 129.3 102.5 101 Q 104.8 101.8 104 99.5 Q 131.4 72.4 168.5 55 L 203.5 43 L 225.5 39 L 246.5 39 L 251.5 41 L 254.5 37 L 257.5 36 Z M 253 46 L 242 48 L 222 49 L 185 59 L 152 75 L 123 96 Q 91 123 71 162 L 61 186 L 55 207 L 51 229 L 50 251 L 49 252 L 49 264 L 50 265 L 50 278 L 52 287 L 52 295 L 62 333 L 74 360 Q 86 382 102 400 Q 127 427 162 445 L 167 446 L 181 453 L 207 461 L 222 464 L 230 464 L 238 466 L 253 466 L 254 467 L 290 464 L 325 454 L 362 435 Q 381 423 397 408 L 410 395 L 426 375 L 442 348 L 454 318 L 460 293 L 461 276 L 462 275 L 462 242 L 461 241 L 460 223 L 449 182 Q 433 139 404 110 L 402 107 Q 375 79 339 62 L 309 52 L 282 47 L 271 47 L 270 46 L 261 46 L 260 47 L 253 46 Z "/>
    <path fill="#1a1a1a" d="M 249.5 77 L 268.5 77 L 269.5 78 L 293.5 80 Q 314 84.5 331.5 92 Q 367.4 108.1 391 136.5 L 408 161.5 L 424 199.5 L 428 218.5 L 430 222.5 L 432 242.5 L 433 243.5 L 433 273.5 L 432 274.5 L 431 288.5 L 426 309.5 L 412 342.5 Q 396.6 370.1 373.5 390 L 349.5 408 L 313.5 426 L 285.5 434 L 279.5 434 L 271.5 436 L 250.5 437 L 249.5 436 L 238.5 436 L 237.5 435 L 218.5 433 L 188.5 424 L 158.5 409 L 138.5 394 L 125 380.5 Q 104 358 92 326.5 L 82 289.5 L 79 253.5 L 80 252.5 L 80 237.5 L 81 236.5 L 83 217.5 L 86 204.5 L 95 180.5 Q 110.5 147.5 136.5 125 L 139.5 123 Q 162 102 192.5 89 L 223.5 80 L 236.5 79 L 237.5 78 L 248.5 78 L 249.5 77 Z M 243 87 L 211 93 L 190 101 Q 160 115 138 137 Q 139 139 137 138 L 118 160 L 105 182 L 99 196 L 93 217 L 90 234 L 90 245 L 89 246 L 90 279 L 96 309 L 102 326 L 111 345 L 128 370 Q 147 392 175 407 L 187 413 L 207 420 L 222 424 L 242 426 L 243 427 L 275 426 L 295 422 L 316 415 Q 335 407 351 396 L 373 377 Q 375 378 374 376 L 377 374 L 395 352 L 410 325 L 417 306 L 423 276 L 423 243 L 421 236 L 420 223 L 413 198 Q 401 164 380 140 Q 357 114 323 99 L 306 93 L 288 89 L 275 88 L 274 87 L 243 87 Z "/>
    <path fill="#1a1a1a" d="M 210.5 223 Q 224.8 222.7 231 230.5 Q 232.3 236.8 228.5 238 L 223 242.5 Q 219 247.5 219 256.5 Q 221.1 266.9 228.5 272 L 231 273.5 L 232 277.5 L 228.5 282 L 217.5 286 L 208.5 286 L 195.5 282 L 187 274.5 L 181 262.5 L 181 247.5 L 185 237.5 L 194.5 228 L 200.5 225 L 210.5 223 Z M 209 233 L 198 238 Q 192 243 190 251 L 190 259 L 194 268 Q 199 275 210 277 Q 216 279 218 276 L 213 270 L 210 261 L 210 249 Q 212 240 218 235 L 217 233 L 209 233 Z "/>
    <path fill="#1a1a1a" d="M 312.5 223 L 325.5 223 L 326 224.5 L 327 227 Q 330.4 227.8 331.5 225 Q 341.3 227.8 346 235.5 L 350 242.5 L 352 257.5 L 347 271.5 L 338.5 280 Q 331 287 314.5 285 L 300 278 L 293 268.5 L 290 258.5 L 290 250.5 Q 292.5 240 299.5 234 L 304.5 231 L 312 230 Q 313.3 227 309.5 228 Q 306 226 310.5 224 L 312.5 223 Z M 323 230 L 321 233 Q 312 232 308 236 Q 302 240 300 248 L 300 260 L 304 268 L 309 272 L 315 275 Q 319 274 321 276 L 331 274 L 335 271 Q 340 266 342 259 L 342 251 L 339 243 Q 335 237 328 234 L 326 232 L 323 230 Z "/>
  </g>
</svg>
