<svg xmlns="http://www.w3.org/2000/svg" width="512" height="512" viewBox="0 0 512 512">
  <g id="color">
    <path fill="#ffffff" d="M 238.5 36 L 244 36.5 L 238.5 37 L 238.5 36 Z "/>
    <path fill="#ffffff" d="M 269.5 36 L 275 36.5 L 269.5 37 L 269.5 36 Z "/>
    <path fill="#ffffff" d="M 229.5 37 L 234 37.5 L 229.5 38 L 229.5 37 Z "/>
    <path fill="#ffffff" d="M 279.5 37 L 284 37.5 L 279.5 38 L 279.5 37 Z "/>
    <path fill="#ffffff" d="M 223.5 38 L 228 38.5 L 220.5 40 L 220.5 39 L 223.5 38 Z "/>
    <path fill="#ffffff" d="M 299.5 41 L 305 42.5 L 302.5 43 L 299.5 42 L 299.5 41 Z "/>
    <path fill="#ffffff" d="M 312.5 45 L 316 46.5 L 314.5 47 L 312.5 45 Z "/>
    <path fill="#ffffff" d="M 196.5 46 L 198 46.5 L 194.5 48 L 194.5 47 L 196.5 46 Z "/>
    <path fill="#ffffff" d="M 191.5 48 L 193 48.5 L 187.5 51 L 187.5 50 L 191.5 48 Z "/>
    <path fill="#ffffff" d="M 322.5 49 L 328 51.5 L 326.5 52 L 322.5 50 L 322.5 49 Z "/>
    <path fill="#ffffff" d="M 329.5 52 L 333 54.5 L 331.5 54 L 329.5 52 Z "/>
    <path fill="#ffffff" d="M 177.5 55 L 176.5 57 L 174.5 58 L 175.5 56 L 177.5 55 Z "/>
    <path fill="#ffffff" d="M 336.5 56 L 340 58.5 L 338.5 58 L 336.5 56 Z "/>
    <path fill="#ffffff" d="M 169.5 60 L 168.5 62 L 166.5 63 L 167.5 61 L 169.5 60 Z "/>
    <path fill="#ffffff" d="M 160.5 66 L 158.5 69 L 152.5 74 L 157.5 68 L 160.5 66 Z "/>
    <path fill="#ffffff" d="M 374.5 87 L 382 95.5 L 378 92.5 L 374.5 87 Z "/>
    <path fill="#ffffff" d="M 389.5 107 L 395 116.5 L 393 115.5 L 389.5 107 Z "/>
    <path fill="#ffffff" d="M 121.5 110 L 121 111.5 L 119.5 114 L 120 112.5 L 121.5 110 Z "/>
    <path fill="#ffffff" d="M 117.5 117 L 118 118.5 L 115.5 122 L 116 120.5 L 117.5 117 Z "/>
    <path fill="#ffffff" d="M 396.5 120 L 399 125.5 L 398 125.5 L 396.5 120 Z "/>
    <path fill="#ffffff" d="M 113.5 126 L 114 127.5 L 112.5 130 L 112 128.5 L 113.5 126 Z "/>
    <path fill="#ffffff" d="M 400.5 130 L 402 133.5 L 401 133.5 L 400.5 130 Z "/>
    <path fill="#ffffff" d="M 110.5 134 L 111 135.5 L 108.5 142 L 108 139.5 L 110.5 134 Z "/>
    <path fill="#ffffff" d="M 105.5 152 L 106 156.5 L 104.5 162 L 104 157.5 L 105.5 152 Z "/>
    <path fill="#ffffff" d="M 408.5 162 L 410 170.5 L 410 188.5 L 409 188.5 L 409 170.5 L 408 169.5 L 408.5 162 Z "/>
    <path fill="#ffffff" d="M 103.5 166 L 104 189.5 L 103 189.5 L 103.5 166 Z "/>
    <path fill="#ffffff" d="M 408.5 191 L 409 197.5 L 408 197.5 L 408.5 191 Z "/>
    <path fill="#ffffff" d="M 104.5 195 L 105 199.5 L 104 199.5 L 104.5 195 Z "/>
    <path fill="#ffffff" d="M 105.5 201 L 106 205.5 L 105 205.5 L 105.5 201 Z "/>
    <path fill="#ffffff" d="M 405.5 212 L 406 214.5 L 404.5 218 L 404 215.5 L 405.5 212 Z "/>
    <path fill="#ffffff" d="M 401.5 226 L 402 227.5 L 400.5 230 L 400 228.5 L 401.5 226 Z "/>
    <path fill="#ffffff" d="M 398.5 234 L 399 235.5 L 397.5 238 L 397 236.5 L 398.5 234 Z "/>
    <path fill="#ffffff" d="M 116.5 240 L 119 245.5 L 118 245.5 L 116.5 240 Z "/>
    <path fill="#ffffff" d="M 394.5 244 L 394 245.5 L 389.5 254 L 390 252.5 L 394.5 244 Z "/>
    <path fill="#ffffff" d="M 123.5 255 L 126 258.5 L 124 257.5 L 123.5 255 Z "/>
    <path fill="#ffffff" d="M 387.5 257 L 387 258.5 L 385.5 261 L 386 259.5 L 387.5 257 Z "/>
    <path fill="#ffffff" d="M 127.5 262 L 130 265.5 L 128 264.5 L 127.5 262 Z "/>
    <path fill="#ffffff" d="M 133.5 272 L 137 276.5 L 134 274.5 L 133.5 272 Z "/>
    <path fill="#ffffff" d="M 160.5 308 L 164 312.5 L 162 311.5 L 160.5 308 Z "/>
    <path fill="#ffffff" d="M 346.5 313 L 346 314.5 L 344.5 317 L 345 315.5 L 346.5 313 Z "/>
    <path fill="#ffffff" d="M 341.5 322 L 342 323.5 L 340.5 326 L 340 324.5 L 341.5 322 Z "/>
    <path fill="#ffffff" d="M 172.5 328 L 174 331.5 L 173 331.5 L 172.5 328 Z "/>
    <path fill="#ffffff" d="M 333.5 350 L 334 353.5 L 332.5 357 L 332 354.5 L 333.5 350 Z "/>
    <path fill="#ffffff" d="M 180.5 356 L 183 362.5 L 182 362.5 Q 179 360 180.5 356 Z "/>
    <path fill="#ffffff" d="M 183.5 364 L 187 368.5 L 184 366.5 L 183.5 364 Z "/>
    <path fill="#ffffff" d="M 326.5 368 L 325 370.5 L 326 374.5 L 325 374.5 L 324 370.5 L 326.5 368 Z "/>
    <path fill="#ffffff" d="M 328.5 385 L 330 390.5 L 330 414.5 L 329 414.5 L 329 390.5 Q 326.6 389.2 328.5 385 Z "/>
    <path fill="#ffffff" d="M 183.5 413 L 184 417.5 L 183 417.5 L 183.5 413 Z "/>
    <path fill="#ffffff" d="M 328.5 416 L 329 420.5 L 328 420.5 L 328.5 416 Z "/>
    <path fill="#ffffff" d="M 325.5 431 L 326 432.5 L 324.5 435 L 324 433.5 L 325.5 431 Z "/>
    <path fill="#ffffff" d="M 187.5 432 L 190 436.5 L 188 435.5 L 187.5 432 Z "/>
    <path fill="#ffffff" d="M 195.5 444 L 199 446.5 L 196.5 445 L 195.5 444 Z "/>
    <path fill="#ffffff" d="M 313.5 446 L 312.5 448 L 309.5 449 L 309.5 448 L 313.5 446 Z "/>
    <path fill="#ffffff" d="M 213.5 451 L 217 452.5 L 215.5 452 Q 212.5 452.5 213.5 451 Z "/>
    <path fill="#ffffff" d="M 295.5 453 L 296 454.5 L 294.5 457 L 294 455.5 L 295.5 453 Z "/>
    <path fill="#ffffff" d="M 218.5 456 L 220 459.5 L 219 459.5 L 218.5 456 Z "/>
    <path fill="#ffffff" d="M 285.5 468 L 283.5 471 L 281.5 472 L 282.5 470 L 285.5 468 Z "/>
    <path fill="#ffffff" d="M 228.5 469 L 234 472.5 L 232.5 473 L 228.5 469 Z "/>
    <path fill="#ffffff" d="M 242.5 475 L 248 475.5 L 242.5 476 L 242.5 475 Z "/>
    <path fill="#ffffff" d="M 265.5 475 L 270 475.5 L 265.5 476 L 265.5 475 Z "/>
    <path fill="#4da3ff" d="M 243.5 49 L 267.5 49 L 268.5 50 L 277.5 50 L 297.5 54 L 327.5 66 L 346.5 78 L 356 86.5 Q 355.3 88.8 357.5 88 L 359 91 L 362 92.5 Q 376.8 107.7 386 128.5 L 393 147.5 L 397 177.5 L 396 180.5 L 397 183.5 L 396 184.5 L 396 193.5 L 395 194.5 L 393 211.5 L 388 224.5 L 388 227.5 L 374 254.5 Q 364.9 270.9 352 283.5 L 351 287 Q 348.3 285.9 349 288.5 L 345 291 L 329 317.5 L 324 331.5 L 324 335.5 L 322 338.5 L 321 349.5 L 319 351.5 L 320 353.5 L 317 360.5 L 313.5 364 L 305.5 368 L 285 371 L 284 365.5 L 284 351.5 L 283 350.5 L 283 296.5 L 284 295.5 L 284 283.5 L 285 282.5 L 287 260.5 L 289 254.5 L 289 249.5 L 291 246.5 L 290.5 245 Q 313.9 242.4 325 227.5 L 329 220.5 L 329 208.5 L 322.5 198 L 314.5 194 L 307.5 194 Q 299.3 195.8 295 201.5 L 284 219.5 L 284 222.5 L 279.5 234 L 267.5 231 L 262 228 L 269 209.5 L 269 193.5 Q 267.2 185.9 261.5 182 Q 257.1 178.9 248.5 180 L 241 184.5 L 235 196.5 L 235 208.5 L 239 220.5 L 244 226.5 L 244 228.5 L 234.5 236 L 228 237 L 220 217.5 L 209.5 205 Q 205.4 201.1 196.5 202 Q 189.3 203.8 186 209.5 Q 181.5 216 183 228.5 Q 185.9 241.1 195.5 247 L 203.5 251 L 215.5 253 L 219 252.5 L 221 256.5 L 223 272.5 L 226 284.5 L 227 303.5 L 229 311.5 L 230 346.5 L 229 347.5 L 229 363.5 L 228 364.5 L 228 366.5 Q 228.8 370.3 226.5 371 L 206.5 368 L 199 363.5 L 197 360.5 L 194 357.5 L 189 334.5 L 184 321.5 L 173 302 Q 170.3 303.1 171 300.5 L 148 271.5 L 130 240.5 L 123 222.5 L 120 207.5 L 118 203.5 L 117 186.5 L 116 185.5 L 116 171.5 L 121 142.5 L 130 120.5 L 141 103.5 L 162.5 81 L 182.5 67 L 197.5 61 L 199.5 59 L 223.5 52 L 234.5 50 L 242.5 50 L 243.5 49 Z M 328 249 L 325 250 L 319 256 L 318 265 L 316 270 L 310 275 Q 303 274 301 277 L 295 283 Q 293 291 297 294 Q 301 299 310 301 L 322 300 L 333 294 Q 342 286 345 273 Q 346 262 342 257 Q 338 249 328 249 Z M 192 261 L 185 264 L 182 266 L 176 275 Q 174 285 178 291 Q 182 297 191 299 L 197 299 L 205 296 Q 211 292 213 283 Q 213 274 209 269 L 201 262 L 192 261 Z "/>
    <path fill="#4da3ff" d="M 253.5 192 L 256 193 L 257 204.5 L 255 212.5 L 251.5 216 Q 247.4 210.6 247 201.5 L 248 196.5 L 250.5 193 L 253.5 192 Z "/>
    <path fill="#4da3ff" d="M 308.5 207 L 312.5 207 L 317 211.5 L 317 216.5 L 311.5 224 Q 305.1 229.9 295 231 L 295 226.5 L 300 215 Q 303 216.3 302 212.5 L 308.5 207 Z "/>
    <path fill="#4da3ff" d="M 197 215 L 201.5 215 L 208 221.5 L 214 233.5 L 215 240 Q 205.3 240 200 234.5 L 198 231.5 Q 194 228 195 219.5 L 197 215 Z "/>
    <path fill="#4da3ff" d="M 253.5 237 L 259.5 241 Q 265.9 244.6 275.5 245 L 277 246.5 L 274 269.5 L 273 270.5 L 273 277.5 L 272 278.5 L 272 287.5 L 271 288.5 L 270 335.5 L 271 336.5 L 271 356.5 L 272 357.5 L 272 370.5 L 273 371.5 L 263.5 372 L 262.5 373 L 260.5 373 L 241 372 L 241 356.5 L 242 355.5 L 242 323.5 L 241 322.5 L 241 308.5 L 240 307.5 L 238 278.5 L 232 250 L 240.5 247 L 253.5 237 Z "/>
    <path fill="#ffd43b" d="M 191.5 268 Q 202.1 267.4 205 274.5 L 206 283.5 L 201.5 290 Q 198.2 293.2 190.5 292 L 184 286.5 Q 181.5 283 183 275.5 L 187.5 270 L 191.5 268 Z "/>
    <path fill="#ffd43b" d="M 318.5 396 L 319 401.5 L 318 401.5 L 318.5 396 Z "/>
    <path fill="#ff6b6b" d="M 327.5 258 Q 332.3 256.8 333.5 259 L 335 258.5 L 338 273.5 L 336.5 277 L 335 276.5 L 336 278.5 L 334 278.5 L 335 280.5 L 332 281.5 L 333 283.5 L 326 288.5 L 326.5 290 L 325 289.5 L 323.5 292 L 321.5 291 L 321.5 293 L 320.5 292 L 307.5 292 L 304.5 290 L 303 290.5 L 304 288.5 L 302 285.5 Q 303.8 287.1 305.5 284 L 311 283 L 311.5 281 L 313.5 282 L 313.5 280 L 315.5 281 L 318.5 277 Q 319.8 279.3 321 276.5 L 320.5 275 Q 321.8 277.3 323 274.5 L 322 272.5 L 324 272.5 L 326 263.5 L 326 261.5 L 327.5 258 Z "/>
    <path fill="#ffa94d" d="M 198.5 378 L 210.5 382 L 253.5 386 Q 254.8 383.8 259.5 385 L 263.5 386 L 264.5 385 L 277.5 385 L 288.5 383 L 290.5 383 L 301.5 382 L 313.5 378 L 316 380.5 L 318 390.5 L 318 401.5 L 319 402.5 L 318 405.5 L 319 408.5 L 316 425.5 L 312 434 L 303.5 439 L 298.5 439 L 286.5 442 L 284.5 442 L 273.5 442 L 272.5 443 L 270.5 443 L 244.5 443 L 243.5 442 L 241.5 442 L 229.5 442 L 228.5 441 L 226.5 441 L 206.5 438 L 200 432.5 L 196 422.5 L 196 417.5 L 194 411.5 L 194 409.5 L 195 387.5 L 198.5 378 Z "/>
    <path fill="#ffa94d" d="M 230 453 L 232.5 454 L 234.5 453 L 235.5 454 L 275.5 454 L 277.5 454 L 281.5 453 Q 284.8 454.8 281 456.5 L 278.5 460 L 270.5 464 Q 263.7 462.7 260.5 465 L 258.5 465 Q 253 466.5 251.5 464 L 249.5 465 L 237.5 462 L 232 457.5 L 230 453 Z "/>
    <path fill="#66d9e8" d="M 250.5 47 L 276.5 48 L 300.5 53 L 311.5 57 L 327.5 64 L 346.5 76 L 367 95.5 Q 386 117 395 148.5 L 395 153.5 L 398 166.5 L 398 192.5 L 392 220.5 L 384 240.5 L 367 268.5 L 346 293.5 L 333 313.5 L 327 327.5 L 321 355.5 Q 318.8 362.3 313.5 366 L 304.5 370 L 294.5 372 L 284.5 372 L 283 370.5 L 282 347.5 L 281 346.5 L 281 300.5 L 282 299.5 L 282 287.5 L 283 286.5 L 284 268.5 L 289 244 L 300.5 242 L 310.5 238 L 323 227.5 Q 328.3 222.3 328 211.5 L 327 207.5 L 320.5 199 L 314.5 196 L 306.5 196 Q 298.4 198.9 294 205.5 L 286 219.5 L 282 233.5 L 280.5 235 L 271.5 234 L 260 229 L 260 225.5 L 264 219.5 Q 264 213.5 267 210.5 L 268 197.5 L 264 186.5 L 260.5 183 L 250.5 181 Q 243.3 182.8 240 188.5 Q 236.4 194.9 236 204.5 L 240 218.5 L 245 225.5 L 246 230 L 236.5 237 L 228.5 240 L 226 237.5 L 221 222.5 L 209.5 207 L 203.5 204 L 196.5 204 Q 190 205.5 187 210.5 L 184 219.5 L 184 225.5 L 187 235.5 L 195.5 245 Q 204.8 252 221 251 L 225 267.5 L 225 273.5 L 227 278.5 L 229 305.5 L 230 306.5 L 230 316.5 L 231 317.5 L 231 362.5 L 229 372 L 217.5 372 L 207.5 370 Q 198.4 367.5 194 360.5 L 191 353.5 L 188 337.5 L 179 315.5 L 167 297.5 L 154 282.5 L 142 265.5 L 127 237.5 L 120 218.5 L 116 201.5 Q 117.5 196 115 194.5 L 115 163.5 L 120 140.5 L 126 125.5 L 143 98 Q 145.7 99.1 145 96.5 L 162.5 79 L 176.5 69 L 191.5 61 L 200.5 57 L 224.5 50 L 235.5 48 L 249.5 48 L 250.5 47 Z M 244 49 L 243 50 L 235 50 L 224 52 L 200 59 L 198 61 L 183 67 L 163 81 L 141 104 L 130 121 L 121 143 L 116 172 L 116 186 L 117 187 L 118 204 L 120 208 L 123 223 L 130 241 L 148 272 L 171 301 Q 170 303 173 302 L 184 322 L 189 335 L 194 358 L 197 361 L 199 364 L 207 368 L 227 371 Q 229 370 228 367 L 228 365 L 229 364 L 229 348 L 230 347 L 229 312 L 227 304 L 226 285 L 223 273 L 221 257 L 219 253 L 216 253 L 204 251 L 196 247 Q 186 241 183 229 Q 182 216 186 210 Q 189 204 197 202 Q 205 201 210 205 L 220 218 L 228 237 L 235 236 L 244 229 L 244 227 L 239 221 L 235 209 L 235 197 L 241 185 L 249 180 Q 257 179 262 182 Q 267 186 269 194 L 269 210 L 262 228 L 268 231 L 280 234 L 284 223 L 284 220 L 295 202 Q 299 196 308 194 L 315 194 L 323 198 L 329 209 L 329 221 L 325 228 Q 314 242 291 245 L 291 247 L 289 250 L 289 255 L 287 261 L 285 283 L 284 284 L 284 296 L 283 297 L 283 351 L 284 352 L 284 366 L 285 371 L 306 368 L 314 364 L 317 361 L 320 354 L 319 352 L 321 350 L 322 339 L 324 336 L 324 332 L 329 318 L 345 291 L 349 289 Q 348 286 351 287 L 352 284 Q 365 271 374 255 L 388 228 L 388 225 L 393 212 L 395 195 L 396 194 L 396 185 L 397 184 L 396 181 L 397 178 L 393 148 L 386 129 Q 377 108 362 93 L 359 91 L 358 88 Q 355 89 356 87 L 347 78 L 328 66 L 298 54 L 278 50 L 269 50 L 268 49 L 244 49 Z "/>
    <path fill="#66d9e8" d="M 252.5 190 L 258 193.5 L 259 204.5 L 254 219 Q 250.3 220.5 251 217.5 L 246 207.5 L 246 197.5 L 248 192 L 252.5 190 Z M 254 192 L 251 193 L 248 197 L 247 202 Q 247 211 252 216 L 255 213 L 257 205 L 256 193 L 254 192 Z "/>
    <path fill="#66d9e8" d="M 308.5 205 L 313.5 205 L 318 209.5 L 319 215.5 Q 316.1 223.6 309.5 228 L 298.5 233 L 292 234 L 292 230.5 L 298 215.5 L 306.5 206 L 308.5 205 Z M 309 207 L 302 213 Q 303 216 300 215 L 295 227 L 295 231 Q 305 230 312 224 L 317 217 L 317 212 L 313 207 L 309 207 Z "/>
    <path fill="#66d9e8" d="M 197.5 213 L 201.5 213 L 208 218.5 L 216 234.5 L 217 242 Q 202 242.4 196 232.5 L 193 224.5 L 193 219.5 L 197.5 213 Z M 197 215 L 195 220 Q 194 228 198 232 L 200 235 Q 205 240 215 240 L 214 234 L 208 222 L 202 215 L 197 215 Z "/>
    <path fill="#66d9e8" d="M 253.5 235 L 261.5 240 L 277.5 244 L 279 245.5 L 275 268.5 L 275 274.5 L 274 275.5 L 274 284.5 L 273 285.5 L 273 299.5 L 272 300.5 L 272 344.5 L 273 345.5 L 274 374 L 240.5 374 L 239 372.5 L 239 364.5 L 240 363.5 L 240 317.5 L 239 316.5 L 239 304.5 L 238 303.5 L 236 277.5 L 234 272.5 L 233 261.5 L 230 249 Q 244.3 245.2 253.5 235 Z M 254 237 L 241 247 L 232 250 L 238 279 L 240 308 L 241 309 L 241 323 L 242 324 L 242 356 L 241 357 L 241 372 L 261 373 L 263 373 L 264 372 L 273 372 L 272 371 L 272 358 L 271 357 L 271 337 L 270 336 L 271 289 L 272 288 L 272 279 L 273 278 L 273 271 L 274 270 L 277 247 L 276 245 Q 266 245 260 241 L 254 237 Z "/>
    <path fill="#66d9e8" d="M 327.5 249 Q 338.3 249.3 342 256.5 Q 346.4 261.6 345 272.5 Q 342 286.5 332.5 294 L 321.5 300 L 309.5 301 Q 301.2 299.3 297 293.5 Q 293.4 290.6 295 282.5 L 300.5 277 Q 303.4 274.4 309.5 275 L 316 269.5 L 318 264.5 L 319 255.5 L 324.5 250 L 327.5 249 Z M 327 251 L 325 252 L 320 258 L 319 268 L 316 273 Q 311 278 302 278 L 297 283 Q 295 291 299 294 L 308 299 L 323 298 L 334 291 Q 340 284 343 274 Q 345 262 340 257 L 333 251 L 327 251 Z "/>
    <path fill="#66d9e8" d="M 191.5 261 L 200.5 262 L 209 268.5 Q 213 273.5 213 282.5 Q 211.1 291.6 204.5 296 L 196.5 299 L 190.5 299 Q 182.2 296.8 178 290.5 Q 174.4 285.1 176 274.5 L 181.5 266 L 184.5 264 L 191.5 261 Z M 191 263 L 186 265 Q 179 269 177 278 Q 176 285 179 289 L 190 297 Q 200 299 205 294 Q 209 290 211 284 Q 212 273 207 269 Q 203 262 191 263 Z "/>
    <path fill="#f783ac" d="M 326.5 257 Q 332.5 255.5 334 258.5 L 332.5 258 Q 327.3 256.8 326 259.5 L 325.5 262 L 325 258.5 L 326.5 257 Z "/>
    <path fill="#f783ac" d="M 335.5 260 Q 339.3 263.3 338 271.5 L 337 271.5 L 337 266.5 L 335.5 260 Z "/>
    <path fill="#f783ac" d="M 324.5 263 Q 327.1 262.2 326 265.5 L 323 274.5 L 319.5 278 L 321 275.5 L 325 264.5 L 324.5 263 Z "/>
    <path fill="#f783ac" d="M 335.5 276 L 336 277.5 L 332.5 283 L 332 281.5 L 335.5 276 Z "/>
    <path fill="#f783ac" d="M 316.5 279 L 315.5 281 L 312.5 282 L 312.5 281 L 316.5 279 Z "/>
    <path fill="#f783ac" d="M 307.5 282 L 311 282.5 Q 305.3 282.8 303 286.5 L 305.5 291 L 307.5 292 L 320.5 292 L 323.5 290 L 322.5 292 L 315.5 294 L 310.5 294 L 306.5 293 L 302 288.5 L 304.5 283 L 307.5 282 Z "/>
    <path fill="#f783ac" d="M 330.5 284 L 330 285.5 L 327.5 289 L 325.5 290 L 330.5 284 Z "/>
  </g>
  <g id="line">
    <path fill="#1a1a1a" d="M 244.5 36 L 278.5 37 L 290.5 40 L 295.5 40 L 319.5 48 Q 352 62 374 86.5 Q 390.2 104.3 400 128.5 L 407 152.5 L 408 169.5 L 409 170.5 L 409 190.5 L 408 191.5 L 408 200.5 L 406 211.5 L 395 243.5 L 377 273.5 L 345 314.5 L 336 335.5 L 331 360.5 L 324 370.5 L 324 372.5 L 327 378.5 L 328 389.5 L 329 390.5 L 329 415.5 L 328 416.5 L 327 427.5 L 324 435.5 L 314.5 446 Q 307.3 451.1 296 451 Q 293.8 461.6 286.5 468 L 275.5 474 L 264.5 476 L 248.5 476 L 234.5 473 Q 226.8 469.8 222 463.5 L 215.5 451 Q 199.9 450.6 193 441.5 Q 187.1 434.9 185 424.5 L 184 413.5 L 183 412.5 L 183 392.5 L 188 370.5 L 181 358.5 L 178 342.5 L 168 318.5 L 131 268.5 L 116 239.5 L 108 216.5 L 104 194.5 L 104 162.5 L 111 132.5 L 119 114.5 Q 131.9 90.9 151.5 74 Q 169.5 58 193.5 48 L 217.5 40 L 222.5 40 L 234.5 37 L 243.5 37 L 244.5 36 Z M 251 47 L 250 48 L 236 48 L 225 50 L 201 57 L 192 61 L 177 69 L 163 79 L 145 97 Q 146 99 143 98 L 126 126 L 120 141 L 115 164 L 115 195 Q 118 196 116 202 L 120 219 L 127 238 L 142 266 L 154 283 L 167 298 L 179 316 L 188 338 L 191 354 L 194 361 Q 198 368 208 370 L 218 372 L 229 372 L 231 363 L 231 318 L 230 317 L 230 307 L 229 306 L 227 279 L 225 274 L 225 268 L 221 251 Q 205 252 196 245 L 187 236 L 184 226 L 184 220 L 187 211 Q 190 206 197 204 L 204 204 L 210 207 L 221 223 L 226 238 L 229 240 L 237 237 L 246 230 L 245 226 L 240 219 L 236 205 Q 236 195 240 189 Q 243 183 251 181 L 261 183 L 264 187 L 268 198 L 267 211 Q 264 213 264 220 L 260 226 L 260 229 L 272 234 L 281 235 L 282 234 L 286 220 L 294 206 Q 298 199 307 196 L 315 196 L 321 199 L 327 208 L 328 212 Q 328 222 323 228 L 311 238 L 301 242 L 289 244 L 284 269 L 283 287 L 282 288 L 282 300 L 281 301 L 281 347 L 282 348 L 283 371 L 285 372 L 295 372 L 305 370 L 314 366 Q 319 362 321 356 L 327 328 L 333 314 L 346 294 L 367 269 L 384 241 L 392 221 L 398 193 L 398 167 L 395 154 L 395 149 Q 386 117 367 96 L 347 76 L 328 64 L 312 57 L 301 53 L 277 48 L 251 47 Z M 253 190 L 248 192 L 246 198 L 246 208 L 251 218 Q 250 220 254 219 L 259 205 L 258 194 L 253 190 Z M 309 205 L 307 206 L 298 216 L 292 231 L 292 234 L 299 233 L 310 228 Q 316 224 319 216 L 318 210 L 314 205 L 309 205 Z M 198 213 L 193 220 L 193 225 L 196 233 Q 202 242 217 242 L 216 235 L 208 219 L 202 213 L 198 213 Z M 254 235 Q 244 245 230 249 L 233 262 L 234 273 L 236 278 L 238 304 L 239 305 L 239 317 L 240 318 L 240 364 L 239 365 L 239 373 L 241 374 L 274 374 L 273 346 L 272 345 L 272 301 L 273 300 L 273 286 L 274 285 L 274 276 L 275 275 L 275 269 L 279 246 L 278 244 L 262 240 L 254 235 Z M 199 378 L 196 382 L 195 394 L 194 395 L 195 419 L 200 433 Q 203 437 210 439 L 227 442 L 240 442 L 241 443 L 287 442 L 309 437 L 315 429 L 319 410 L 319 397 L 315 378 L 301 382 L 277 384 L 276 385 L 239 385 L 238 384 L 213 382 L 199 378 Z M 230 453 L 230 456 Q 234 461 242 464 Q 248 462 250 465 L 271 464 L 278 461 Q 282 458 283 453 L 277 453 L 276 454 L 236 454 L 230 453 Z "/>
    <path fill="#1a1a1a" d="M 326.5 251 L 332.5 251 L 340 256.5 Q 344.8 261.7 343 273.5 Q 340.4 284.4 333.5 291 L 322.5 298 L 307.5 299 L 299 293.5 Q 295.4 290.6 297 282.5 L 301.5 278 Q 311.5 278 316 272.5 L 319 267.5 L 320 257.5 L 324.5 252 L 326.5 251 Z M 329 256 L 327 257 Q 323 261 324 270 L 320 277 L 311 282 L 305 283 L 302 286 L 303 291 L 310 294 Q 321 295 327 290 Q 335 284 338 274 Q 339 262 335 258 L 329 256 Z "/>
    <path fill="#1a1a1a" d="M 190.5 263 Q 202.8 261.7 207 268.5 Q 212.2 272.8 211 283.5 Q 209.4 290.4 204.5 294 Q 200 298.5 189.5 297 L 179 288.5 Q 176.1 284.9 177 277.5 Q 178.6 268.6 185.5 265 L 190.5 263 Z M 192 268 L 188 270 L 183 276 Q 182 283 184 287 L 191 292 Q 198 293 202 290 L 206 284 L 205 275 Q 202 267 192 268 Z "/>
  </g>
</svg>
