<svg xmlns="http://www.w3.org/2000/svg" width="512" height="512" viewBox="0 0 512 512">
  <g id="color">
    <path fill="#ffffff" d="M 164.5 119 L 183 119.5 L 164.5 120 L 164.5 119 Z "/>
    <path fill="#ffffff" d="M 331.5 119 L 350 119.5 L 331.5 120 L 331.5 119 Z "/>
    <path fill="#ffffff" d="M 155.5 120 L 162 120.5 L 155.5 121 L 155.5 120 Z "/>
    <path fill="#ffffff" d="M 184.5 120 L 191 120.5 L 184.5 121 L 184.5 120 Z "/>
    <path fill="#ffffff" d="M 322.5 120 L 330 120.5 L 322.5 121 L 322.5 120 Z "/>
    <path fill="#ffffff" d="M 351.5 120 L 358 120.5 L 351.5 121 L 351.5 120 Z "/>
    <path fill="#ffffff" d="M 143.5 122 L 146 122.5 L 140.5 124 L 140.5 123 L 143.5 122 Z "/>
    <path fill="#ffffff" d="M 199.5 122 L 207 123.5 L 203.5 124 L 199.5 123 L 199.5 122 Z "/>
    <path fill="#ffffff" d="M 299.5 125 L 301 125.5 L 294.5 128 L 294.5 127 L 299.5 125 Z "/>
    <path fill="#ffffff" d="M 215.5 126 L 219 127.5 L 217.5 128 L 215.5 126 Z "/>
    <path fill="#ffffff" d="M 121.5 129 L 123 129.5 L 119.5 131 L 119.5 130 L 121.5 129 Z "/>
    <path fill="#ffffff" d="M 223.5 129 L 227 130.5 L 225.5 131 L 223.5 129 Z "/>
    <path fill="#ffffff" d="M 288.5 129 L 290 129.5 L 286.5 131 L 286.5 130 L 288.5 129 Z "/>
    <path fill="#ffffff" d="M 390.5 129 L 394 130.5 L 392.5 131 L 390.5 129 Z "/>
    <path fill="#ffffff" d="M 114.5 132 L 116 132.5 L 111.5 135 L 112.5 133 L 114.5 132 Z "/>
    <path fill="#ffffff" d="M 230.5 132 L 235 134.5 L 233.5 134 Q 229.8 133.8 230.5 132 Z "/>
    <path fill="#ffffff" d="M 281.5 132 L 283 132.5 L 278.5 135 L 279.5 133 L 281.5 132 Z "/>
    <path fill="#ffffff" d="M 397.5 132 L 402 134.5 L 400.5 134 Q 396.8 133.8 397.5 132 Z "/>
    <path fill="#ffffff" d="M 236.5 135 L 241 137.5 L 239.5 137 Q 235.7 136.7 236.5 135 Z "/>
    <path fill="#ffffff" d="M 275.5 135 L 277 135.5 L 272.5 138 L 273.5 136 L 275.5 135 Z "/>
    <path fill="#ffffff" d="M 403.5 135 L 408 137.5 L 406.5 137 Q 402.8 136.7 403.5 135 Z "/>
    <path fill="#ffffff" d="M 103.5 138 L 102.5 140 L 100.5 141 L 101.5 139 L 103.5 138 Z "/>
    <path fill="#ffffff" d="M 97.5 142 L 96.5 144 L 94.5 145 L 95.5 143 L 97.5 142 Z "/>
    <path fill="#ffffff" d="M 253.5 145 L 257.5 147 L 260 145.5 Q 259.5 148.5 255.5 148 L 253.5 145 Z "/>
    <path fill="#ffffff" d="M 87.5 149 L 83.5 154 L 82 153.5 L 87.5 149 Z "/>
    <path fill="#ffffff" d="M 57.5 183 L 57 184.5 L 55.5 187 L 56 185.5 L 57.5 183 Z "/>
    <path fill="#ffffff" d="M 455.5 183 L 458 186.5 L 456 185.5 L 455.5 183 Z "/>
    <path fill="#ffffff" d="M 162.5 185 L 183.5 185 L 188.5 186 L 198.5 189 L 215 198.5 L 215 201.5 L 209 215.5 L 207 226.5 L 204.5 229 L 196 235.5 Q 188.5 243.5 185 255.5 L 184 273.5 Q 187.5 292 199.5 302 L 218 311.5 Q 207.5 321.5 191.5 326 L 182.5 328 L 163.5 328 Q 134.5 322.5 119 303.5 Q 109.8 293.2 105 278.5 L 102 267.5 L 102 245.5 Q 107.9 217.4 126.5 202 Q 140.4 189.4 162.5 185 Z "/>
    <path fill="#ffffff" d="M 330.5 185 L 349.5 185 L 367.5 190 Q 383.4 197.1 394 209.5 Q 403 219.5 408 233.5 L 411 246.5 L 411 267.5 Q 405.7 293.2 389.5 308 Q 387.3 307.3 388 309.5 Q 375.3 321.8 355.5 327 Q 350.7 325.8 349.5 328 L 330.5 328 L 312.5 323 L 301.5 317 L 297 312.5 L 305 291.5 L 306 284.5 L 308.5 282 L 320 271.5 L 328 255.5 L 329 237.5 Q 325.9 220.1 314.5 211 L 309.5 207 L 295 200.5 L 307.5 192 L 317.5 188 L 330.5 185 Z "/>
    <path fill="#ffffff" d="M 54.5 188 L 54 189.5 L 52.5 193 L 52 191.5 L 54.5 188 Z "/>
    <path fill="#ffffff" d="M 51.5 194 L 51 195.5 L 49.5 199 L 49 197.5 L 51.5 194 Z "/>
    <path fill="#ffffff" d="M 461.5 194 L 464 198.5 L 463 198.5 L 461.5 194 Z "/>
    <path fill="#ffffff" d="M 47.5 202 L 48 203.5 L 46.5 206 L 46 204.5 L 47.5 202 Z "/>
    <path fill="#ffffff" d="M 465.5 202 L 467 205.5 L 466 205.5 L 465.5 202 Z "/>
    <path fill="#ffffff" d="M 44.5 210 L 45 211.5 L 43.5 214 L 43 212.5 L 44.5 210 Z "/>
    <path fill="#ffffff" d="M 468.5 210 L 471 216.5 L 470 216.5 L 468.5 210 Z "/>
    <path fill="#ffffff" d="M 37.5 239 L 38 245.5 L 37 245.5 L 37.5 239 Z "/>
    <path fill="#ffffff" d="M 475.5 239 L 476 247.5 L 475 247.5 L 475.5 239 Z "/>
    <path fill="#ffffff" d="M 266 242 L 268.5 242 L 273 245 L 271.5 248 L 263.5 251 L 250 262.5 L 244.5 270 L 238 265.5 L 247.5 261 L 261 251 L 266 242 Z "/>
    <path fill="#ffffff" d="M 36.5 247 L 37 264.5 L 36 264.5 L 36.5 247 Z "/>
    <path fill="#ffffff" d="M 476.5 249 L 477 265.5 L 475.5 274 L 475 266.5 L 476 265.5 L 476.5 249 Z "/>
    <path fill="#ffffff" d="M 37.5 266 L 38 273.5 L 37 273.5 L 37.5 266 Z "/>
    <path fill="#ffffff" d="M 472.5 287 L 473 290.5 L 471.5 294 L 471 291.5 L 472.5 287 Z "/>
    <path fill="#ffffff" d="M 43.5 298 L 45 302.5 L 44 302.5 L 43.5 298 Z "/>
    <path fill="#ffffff" d="M 469.5 298 L 470 300.5 L 468.5 303 L 468 301.5 L 469.5 298 Z "/>
    <path fill="#ffffff" d="M 46.5 307 L 48 310.5 L 47 310.5 L 46.5 307 Z "/>
    <path fill="#ffffff" d="M 466.5 307 L 467 308.5 L 465.5 311 L 465 309.5 L 466.5 307 Z "/>
    <path fill="#ffffff" d="M 54.5 324 L 57 327.5 L 55 326.5 L 54.5 324 Z "/>
    <path fill="#ffffff" d="M 458.5 324 L 458 325.5 L 454.5 331 L 455 329.5 L 458.5 324 Z "/>
    <path fill="#ffffff" d="M 61.5 335 L 66 340.5 L 63 338.5 L 61.5 335 Z "/>
    <path fill="#ffffff" d="M 252.5 367 L 250.5 370 L 248.5 371 L 249.5 369 L 252.5 367 Z "/>
    <path fill="#ffffff" d="M 260.5 367 L 265 370.5 L 263.5 370 L 260.5 367 Z "/>
    <path fill="#ffffff" d="M 94.5 368 L 99 371.5 L 97.5 371 L 94.5 368 Z "/>
    <path fill="#ffffff" d="M 246.5 371 L 244.5 374 L 242.5 375 L 243.5 373 L 246.5 371 Z "/>
    <path fill="#ffffff" d="M 409.5 374 L 408.5 376 L 406.5 377 L 407.5 375 L 409.5 374 Z "/>
    <path fill="#ffffff" d="M 240.5 375 L 239.5 377 L 231.5 381 L 232.5 379 L 240.5 375 Z "/>
    <path fill="#ffffff" d="M 272.5 375 L 283 380.5 L 281.5 381 L 273.5 377 L 272.5 375 Z "/>
    <path fill="#ffffff" d="M 118.5 382 L 122 383.5 L 120.5 384 L 118.5 382 Z "/>
    <path fill="#ffffff" d="M 225.5 382 L 227 382.5 L 223.5 384 L 223.5 383 L 225.5 382 Z "/>
    <path fill="#ffffff" d="M 393.5 382 L 395 382.5 L 391.5 384 L 391.5 383 L 393.5 382 Z "/>
    <path fill="#ffffff" d="M 125.5 385 L 130 386.5 L 127.5 387 L 125.5 385 Z "/>
    <path fill="#ffffff" d="M 293.5 385 L 297 386.5 L 295.5 387 L 293.5 385 Z "/>
    <path fill="#ffffff" d="M 134.5 388 L 144 390.5 L 141.5 391 L 134.5 389 L 134.5 388 Z "/>
    <path fill="#ffffff" d="M 208.5 388 L 211 388.5 L 205.5 390 L 205.5 389 L 208.5 388 Z "/>
    <path fill="#ffffff" d="M 376.5 388 L 379 388.5 L 373.5 390 L 373.5 389 L 376.5 388 Z "/>
    <path fill="#ffffff" d="M 152.5 392 L 158 392.5 L 152.5 393 L 152.5 392 Z "/>
    <path fill="#ffffff" d="M 187.5 392 L 193 392.5 L 187.5 393 L 187.5 392 Z "/>
    <path fill="#ffffff" d="M 320.5 392 L 326 392.5 L 320.5 393 L 320.5 392 Z "/>
    <path fill="#ffffff" d="M 356.5 392 L 362 392.5 L 356.5 393 L 356.5 392 Z "/>
    <path fill="#ffffff" d="M 159.5 393 L 186 393.5 L 159.5 394 L 159.5 393 Z "/>
    <path fill="#ffffff" d="M 327.5 393 L 355 393.5 L 327.5 394 L 327.5 393 Z "/>
    <path fill="#4da3ff" d="M 340.5 351 Q 354.2 350.3 359 358.5 L 361 366 L 352.5 366 L 351.5 367 L 329.5 367 L 328.5 368 L 326 367 L 326 363.5 L 330 356 L 340.5 351 Z "/>
    <path fill="#ffd43b" d="M 170.5 141 L 175.5 142 L 181 147.5 L 182 155.5 L 177.5 162 Q 174.2 165.2 166.5 164 L 159 158.5 L 158 151.5 Q 159.3 145.8 163.5 143 L 170.5 141 Z "/>
    <path fill="#9775fa" d="M 166.5 128 L 190.5 129 L 208.5 133 Q 232.2 139.8 249 153.5 L 228 177.5 L 219.5 191 Q 202.1 176.9 171.5 176 L 170.5 177 L 155.5 178 L 142.5 182 L 125.5 192 L 112 204.5 Q 102.3 215.8 97 231.5 L 94 245.5 L 94 267.5 L 98 284.5 L 105 298.5 L 115 312 Q 117.7 310.9 117 313.5 Q 127.9 324.6 143.5 331 L 163.5 336 L 183.5 336 Q 217.6 329.6 235 306.5 Q 246.6 293.1 252 273.5 L 262.5 262 L 280.5 253 L 283 255.5 L 292 274.5 L 298 281.5 L 298 285.5 L 294 299.5 L 283 322.5 Q 272.8 339.3 258.5 352 Q 240 369.5 213.5 379 L 185.5 385 L 160.5 385 L 135.5 380 L 110.5 369 Q 90.2 357.8 76 340.5 L 63 322.5 L 56 309.5 L 50 293.5 L 48 280.5 L 46 275.5 L 45 246.5 L 50 219.5 L 59 197.5 Q 70.9 173.9 90.5 158 Q 106.4 144.4 127.5 136 L 148.5 130 L 165.5 129 L 166.5 128 Z M 166 137 L 162 139 L 154 149 Q 152 158 156 163 Q 160 168 168 169 Q 177 169 182 165 L 186 158 Q 187 149 185 145 L 178 138 L 166 137 Z "/>
    <path fill="#9775fa" d="M 332.5 128 L 347.5 128 L 348.5 129 L 363.5 130 L 392.5 139 Q 418.9 151.6 437 172.5 L 450 190.5 L 457 203.5 L 463 219.5 L 468 246.5 L 468 266.5 L 463 293.5 L 450 322.5 Q 437.8 342.3 420.5 357 L 395.5 373 L 377.5 380 L 352.5 385 L 326.5 385 L 325.5 384 L 314.5 383 L 294.5 377 L 279.5 370 L 264 360 L 264 357.5 L 285 334.5 L 292.5 322 L 295.5 322 L 310.5 331 L 323.5 335 Q 328.3 333.7 329.5 336 L 350.5 336 L 369.5 331 L 381.5 325 L 399 310.5 Q 411.8 295.8 418 274.5 Q 416.5 269 419 267.5 L 419 244.5 Q 413.4 213.6 393.5 197 Q 381.8 185.7 364.5 180 L 351.5 177 L 327.5 177 Q 298.1 183.1 281 201.5 Q 266.5 216 260 238.5 L 247.5 251 L 236.5 257 L 229 258 L 218 238.5 L 215 231.5 L 215 225.5 L 219 211.5 L 228 192.5 L 239 176.5 L 249 166.5 L 249 165 L 269.5 149 L 292.5 137 L 307.5 132 L 322.5 129 L 331.5 129 L 332.5 128 Z M 340 345 L 329 350 Q 321 355 319 367 Q 318 372 322 373 L 365 372 L 368 370 Q 368 358 362 353 Q 357 347 349 345 L 340 345 Z "/>
    <path fill="#9775fa" d="M 287.5 208 L 303.5 213 L 314 222.5 Q 321.9 231.1 321 248.5 Q 317.4 266.4 304.5 275 L 299 270.5 L 288 248.5 L 277.5 238 L 271 233.5 Q 275.6 218.6 285.5 209 L 287.5 208 Z "/>
    <path fill="#9775fa" d="M 207.5 237 L 210 238.5 Q 216.8 259.8 232.5 272 L 242 278.5 Q 236.8 293.3 226.5 303 Q 218.1 303.9 213.5 301 Q 204.5 297 199 289.5 Q 191.1 279.9 192 261.5 Q 195.1 247.1 204.5 239 L 207.5 237 Z "/>
    <path fill="#66d9e8" d="M 339.5 350 Q 354.7 348.8 360 357.5 L 363 367 L 359.5 368 L 330.5 368 L 326.5 369 L 324 368 Q 325 357.7 332.5 353 L 339.5 350 Z M 341 351 L 330 356 L 326 364 L 326 367 L 329 368 L 330 367 L 352 367 L 353 366 L 361 366 L 359 359 Q 354 350 341 351 Z "/>
  </g>
  <g id="line">
    <path fill="#1a1a1a" d="M 162.5 120 L 193.5 121 L 211.5 125 L 227.5 131 Q 243.6 137.4 255.5 148 L 257.5 148 L 269.5 139 L 301.5 125 L 319.5 121 L 350.5 120 L 351.5 121 L 366.5 122 L 394.5 131 Q 422.8 143.8 442 165.5 Q 458.4 183.5 468 208.5 L 475 236.5 L 476 265.5 L 475 266.5 L 474 282.5 L 465 311.5 Q 451.9 340.4 429.5 360 Q 409.2 378.2 380.5 388 L 355.5 393 L 326.5 393 L 325.5 392 L 312.5 391 L 297.5 387 L 271.5 375 L 257.5 365 L 255.5 365 L 230.5 381 L 201.5 391 L 187.5 392 L 186.5 393 L 158.5 393 L 132.5 388 L 107.5 377 Q 86.4 365.1 71 347.5 Q 55.5 330 46 306.5 L 38 276.5 L 37 246.5 L 38 245.5 L 38 236.5 L 41 221.5 L 48 201.5 Q 60.8 173.3 82.5 154 Q 100.5 137.5 125.5 128 L 146.5 122 L 161.5 121 L 162.5 120 Z M 167 128 L 166 129 L 149 130 L 128 136 Q 106 144 91 158 Q 71 174 59 198 L 50 220 L 45 247 L 46 276 L 48 281 L 50 294 L 56 310 L 63 323 L 76 341 Q 90 358 111 369 L 136 380 L 161 385 L 186 385 L 214 379 Q 240 370 259 352 Q 273 339 283 323 L 294 300 L 298 286 L 298 282 L 292 275 L 283 256 L 281 253 L 263 262 L 252 274 Q 247 293 235 307 Q 218 330 184 336 L 164 336 L 144 331 Q 128 325 117 314 Q 118 311 115 312 L 105 299 L 98 285 L 94 268 L 94 246 L 97 232 Q 102 216 112 205 L 126 192 L 143 182 L 156 178 L 171 177 L 172 176 Q 202 177 220 191 L 228 178 L 249 154 Q 232 140 209 133 L 191 129 L 167 128 Z M 333 128 L 332 129 L 323 129 L 308 132 L 293 137 L 270 149 L 249 165 L 249 167 L 239 177 L 228 193 L 219 212 L 215 226 L 215 232 L 218 239 L 229 258 L 237 257 L 248 251 L 260 239 Q 267 216 281 202 Q 298 183 328 177 L 352 177 L 365 180 Q 382 186 394 197 Q 413 214 419 245 L 419 268 Q 417 269 418 275 Q 412 296 399 311 L 382 325 L 370 331 L 351 336 L 330 336 L 320 334 L 311 331 L 292 321 L 285 335 L 264 358 L 264 360 L 280 370 L 295 377 L 315 383 L 326 384 L 327 385 L 353 385 L 378 380 L 396 373 L 421 357 Q 438 342 450 323 L 463 294 L 468 267 L 468 247 L 463 220 L 457 204 L 450 191 L 437 173 Q 419 152 393 139 L 364 130 L 349 129 L 348 128 L 333 128 Z M 163 185 Q 140 189 127 202 Q 108 217 102 246 L 102 268 L 105 279 Q 110 293 119 304 Q 134 323 164 328 L 183 328 L 192 326 Q 208 322 218 312 L 200 302 Q 188 292 184 274 L 185 256 Q 189 244 196 236 L 205 229 L 207 227 L 209 216 L 215 202 L 215 199 L 199 189 L 189 186 L 184 185 L 163 185 Z M 331 185 L 318 188 L 308 192 L 295 201 L 310 207 L 315 211 Q 326 220 329 238 L 328 256 L 320 272 L 309 282 L 306 285 L 305 292 L 297 313 L 302 317 L 313 323 L 331 328 L 350 328 Q 351 326 356 327 Q 375 322 388 310 Q 387 307 390 308 Q 406 293 411 268 L 411 247 L 408 234 Q 403 220 394 210 Q 383 197 368 190 L 350 185 L 331 185 Z M 288 208 L 286 209 Q 276 219 271 234 L 278 238 L 288 249 L 299 271 L 305 275 Q 317 266 321 249 Q 322 231 314 223 L 304 213 L 288 208 Z M 208 237 L 205 239 Q 195 247 192 262 Q 191 280 199 290 Q 204 297 214 301 Q 218 304 227 303 Q 237 293 242 279 L 233 272 Q 217 260 210 239 L 208 237 Z M 266 242 L 261 251 L 248 261 L 238 266 L 245 270 L 250 263 L 264 251 L 272 248 L 273 245 L 269 242 L 266 242 Z "/>
    <path fill="#1a1a1a" d="M 165.5 137 L 177.5 138 L 185 144.5 Q 187.3 149.2 186 157.5 L 181.5 165 Q 177 169.5 167.5 169 Q 159.9 167.5 156 162.5 Q 152.3 158.2 154 148.5 L 161.5 139 L 165.5 137 Z M 171 141 L 164 143 Q 159 146 158 152 L 159 159 L 167 164 Q 174 165 178 162 L 182 156 L 181 148 L 176 142 L 171 141 Z "/>
    <path fill="#1a1a1a" d="M 339.5 345 L 348.5 345 Q 357.1 346.9 362 352.5 Q 367.8 358.2 368 369.5 L 364.5 372 L 321.5 373 Q 318.4 371.6 319 366.5 Q 321 355.5 328.5 350 L 339.5 345 Z M 340 350 L 333 353 Q 325 358 324 368 L 327 369 L 331 368 L 360 368 L 363 367 L 360 358 Q 355 349 340 350 Z "/>
  </g>
</svg>
