<svg xmlns="http://www.w3.org/2000/svg" width="512" height="512" viewBox="0 0 512 512">
  <g id="color">
    <path fill="#ffffff" d="M 203.5 85 L 208 85.5 L 203.5 86 L 203.5 85 Z "/>
    <path fill="#ffffff" d="M 217.5 85 L 222 85.5 L 217.5 86 L 217.5 85 Z "/>
    <path fill="#ffffff" d="M 226.5 87 Q 232.6 88.4 235 93.5 L 237 97.5 L 235 96.5 L 229.5 89 Q 225.8 88.7 226.5 87 Z "/>
    <path fill="#ffffff" d="M 182.5 90 L 184 90.5 L 179.5 92 L 179.5 91 L 182.5 90 Z "/>
    <path fill="#ffffff" d="M 171.5 94 L 173 94.5 L 169.5 96 L 169.5 95 L 171.5 94 Z "/>
    <path fill="#ffffff" d="M 158.5 100 L 157.5 102 L 155.5 103 L 156.5 101 L 158.5 100 Z "/>
    <path fill="#ffffff" d="M 152.5 103 L 151.5 105 L 149.5 106 L 150.5 104 L 152.5 103 Z "/>
    <path fill="#ffffff" d="M 145.5 107 L 144.5 109 L 140.5 111 L 141.5 109 L 145.5 107 Z "/>
    <path fill="#ffffff" d="M 386.5 107 L 388 107.5 L 384.5 109 L 384.5 108 L 386.5 107 Z "/>
    <path fill="#ffffff" d="M 241.5 108 L 243 111.5 L 242 111.5 L 241.5 108 Z "/>
    <path fill="#ffffff" d="M 134.5 113 L 133.5 115 L 131.5 116 L 132.5 114 L 134.5 113 Z "/>
    <path fill="#ffffff" d="M 400.5 114 L 403 117.5 L 401 116.5 L 400.5 114 Z "/>
    <path fill="#ffffff" d="M 127.5 117 L 125.5 120 L 123.5 121 L 124.5 119 L 127.5 117 Z "/>
    <path fill="#ffffff" d="M 366.5 117 L 365.5 119 L 361.5 121 L 362.5 119 L 366.5 117 Z "/>
    <path fill="#ffffff" d="M 245.5 118 L 248 124.5 L 247 124.5 L 245.5 118 Z "/>
    <path fill="#ffffff" d="M 118.5 123 L 117.5 125 L 114.5 127 L 116.5 124 L 118.5 123 Z "/>
    <path fill="#ffffff" d="M 248.5 126 L 251 132.5 L 250 132.5 L 248.5 126 Z "/>
    <path fill="#ffffff" d="M 112.5 127 L 111.5 129 L 108.5 131 L 110.5 128 L 112.5 127 Z "/>
    <path fill="#ffffff" d="M 347.5 127 L 346.5 129 L 344.5 130 L 345.5 128 L 347.5 127 Z "/>
    <path fill="#ffffff" d="M 407.5 127 L 410 130.5 L 408 129.5 L 407.5 127 Z "/>
    <path fill="#ffffff" d="M 106.5 131 L 105.5 133 L 103.5 134 L 104.5 132 L 106.5 131 Z "/>
    <path fill="#ffffff" d="M 334.5 134 L 333.5 136 L 329.5 138 L 330.5 136 L 334.5 134 Z "/>
    <path fill="#ffffff" d="M 411.5 134 L 414 137.5 L 412 136.5 L 411.5 134 Z "/>
    <path fill="#ffffff" d="M 321.5 141 L 320.5 143 L 318.5 144 L 319.5 142 L 321.5 141 Z "/>
    <path fill="#ffffff" d="M 415.5 141 L 418 144.5 L 416 143.5 L 415.5 141 Z "/>
    <path fill="#ffffff" d="M 87.5 144 L 85.5 147 L 82.5 149 L 84.5 146 L 87.5 144 Z "/>
    <path fill="#ffffff" d="M 256.5 147 L 258 150.5 L 257 150.5 L 256.5 147 Z "/>
    <path fill="#ffffff" d="M 421.5 152 L 424 155.5 L 422 154.5 L 421.5 152 Z "/>
    <path fill="#ffffff" d="M 295.5 155 L 294.5 157 L 292.5 158 L 293.5 156 L 295.5 155 Z "/>
    <path fill="#ffffff" d="M 288.5 159 L 287.5 161 L 285.5 162 L 286.5 160 L 288.5 159 Z "/>
    <path fill="#ffffff" d="M 425.5 159 L 428 162.5 L 426 161.5 L 425.5 159 Z "/>
    <path fill="#ffffff" d="M 62.5 163 L 59.5 167 L 54.5 171 L 58.5 166 L 62.5 163 Z "/>
    <path fill="#ffffff" d="M 428.5 164 L 431 167.5 L 429 166.5 L 428.5 164 Z "/>
    <path fill="#ffffff" d="M 263.5 165 L 265 168.5 L 264 168.5 L 263.5 165 Z "/>
    <path fill="#ffffff" d="M 277.5 165 L 276.5 167 L 274.5 168 L 275.5 166 L 277.5 165 Z "/>
    <path fill="#ffffff" d="M 270.5 169 L 269.5 171 L 266.5 172 L 265.5 170 L 267.5 171 L 270.5 169 Z "/>
    <path fill="#ffffff" d="M 432.5 171 L 435 174.5 L 433 173.5 L 432.5 171 Z "/>
    <path fill="#ffffff" d="M 441.5 187 L 445 192.5 L 443 191.5 L 441.5 187 Z "/>
    <path fill="#ffffff" d="M 445.5 194 L 448 197.5 L 446 196.5 L 445.5 194 Z "/>
    <path fill="#ffffff" d="M 38.5 200 L 40 204.5 L 39 204.5 L 38.5 200 Z "/>
    <path fill="#ffffff" d="M 449.5 201 L 452 204.5 L 450 203.5 L 449.5 201 Z "/>
    <path fill="#ffffff" d="M 41.5 210 L 43 214.5 L 42 214.5 L 41.5 210 Z "/>
    <path fill="#ffffff" d="M 456.5 214 L 459 217.5 L 457 216.5 L 456.5 214 Z "/>
    <path fill="#ffffff" d="M 45.5 222 L 47 226.5 L 46 226.5 L 45.5 222 Z "/>
    <path fill="#ffffff" d="M 463.5 227 L 466 231.5 L 465 231.5 L 463.5 227 Z "/>
    <path fill="#ffffff" d="M 48.5 231 L 50 235.5 L 49 235.5 L 48.5 231 Z "/>
    <path fill="#ffffff" d="M 51.5 240 L 53 243.5 L 52 243.5 L 51.5 240 Z "/>
    <path fill="#ffffff" d="M 470.5 241 L 473 246.5 L 472 246.5 L 470.5 241 Z "/>
    <path fill="#ffffff" d="M 54.5 248 L 57 254.5 L 56 254.5 L 54.5 248 Z "/>
    <path fill="#ffffff" d="M 473.5 248 L 475 251.5 L 474 251.5 L 473.5 248 Z "/>
    <path fill="#ffffff" d="M 476.5 256 L 477 263.5 L 476 263.5 L 476.5 256 Z "/>
    <path fill="#ffffff" d="M 58.5 259 L 60 262.5 L 59 262.5 L 58.5 259 Z "/>
    <path fill="#ffffff" d="M 65.5 276 L 67 279.5 L 66 279.5 L 65.5 276 Z "/>
    <path fill="#ffffff" d="M 460.5 277 L 459 279.5 L 458.5 282 L 458 279.5 L 460.5 277 Z "/>
    <path fill="#ffffff" d="M 68.5 283 L 71 288.5 L 70 288.5 L 68.5 283 Z "/>
    <path fill="#ffffff" d="M 71.5 290 L 74 295.5 L 73 295.5 L 71.5 290 Z "/>
    <path fill="#ffffff" d="M 466.5 297 L 469 302.5 L 468 302.5 L 466.5 297 Z "/>
    <path fill="#ffffff" d="M 75.5 299 L 78 304.5 L 77 304.5 L 75.5 299 Z "/>
    <path fill="#ffffff" d="M 471.5 308 L 473 311.5 L 472 311.5 L 471.5 308 Z "/>
    <path fill="#ffffff" d="M 82.5 314 L 85 318.5 L 83 317.5 L 82.5 314 Z "/>
    <path fill="#ffffff" d="M 199.5 318 Q 203.3 316.8 202 320.5 L 201 320.5 Q 201.8 318.3 199.5 319 L 197 320.5 L 199.5 318 Z "/>
    <path fill="#ffffff" d="M 473.5 318 L 474 320.5 L 468 325.5 Q 472.9 323.9 473.5 318 Z "/>
    <path fill="#ffffff" d="M 195.5 321 L 194.5 323 L 192.5 324 L 193.5 322 L 195.5 321 Z "/>
    <path fill="#ffffff" d="M 203.5 326 L 206 333.5 L 205 333.5 L 203.5 326 Z "/>
    <path fill="#ffffff" d="M 466.5 326 L 465.5 328 L 458.5 331 L 458.5 330 L 466.5 326 Z "/>
    <path fill="#ffffff" d="M 184.5 328 L 183.5 330 L 181.5 331 L 182.5 329 L 184.5 328 Z "/>
    <path fill="#ffffff" d="M 179.5 331 L 177.5 334 L 175.5 335 L 176.5 333 L 179.5 331 Z "/>
    <path fill="#ffffff" d="M 447.5 335 L 449 335.5 L 445.5 337 L 445.5 336 L 447.5 335 Z "/>
    <path fill="#ffffff" d="M 93.5 336 L 98 343.5 L 96 342.5 L 93.5 336 Z "/>
    <path fill="#ffffff" d="M 207.5 338 L 209 343.5 L 208 343.5 L 207.5 338 Z "/>
    <path fill="#ffffff" d="M 437.5 339 L 439 339.5 L 435.5 341 L 435.5 340 L 437.5 339 Z "/>
    <path fill="#ffffff" d="M 430.5 342 L 432 342.5 L 428.5 344 L 428.5 343 L 430.5 342 Z "/>
    <path fill="#ffffff" d="M 158.5 345 L 156.5 348 L 154.5 349 L 155.5 347 L 158.5 345 Z "/>
    <path fill="#ffffff" d="M 420.5 346 L 422 346.5 L 418.5 348 L 418.5 347 L 420.5 346 Z "/>
    <path fill="#ffffff" d="M 99.5 347 L 102 350.5 L 100 349.5 L 99.5 347 Z "/>
    <path fill="#ffffff" d="M 152.5 349 L 150.5 352 L 148.5 353 L 149.5 351 L 152.5 349 Z "/>
    <path fill="#ffffff" d="M 410.5 350 L 412 350.5 L 408.5 352 L 408.5 351 L 410.5 350 Z "/>
    <path fill="#ffffff" d="M 102.5 352 L 105 355.5 L 103 354.5 L 102.5 352 Z "/>
    <path fill="#ffffff" d="M 405.5 352 L 407 352.5 L 401.5 355 L 401.5 354 L 405.5 352 Z "/>
    <path fill="#ffffff" d="M 395.5 356 L 397 356.5 L 393.5 358 L 393.5 357 L 395.5 356 Z "/>
    <path fill="#ffffff" d="M 106.5 359 L 110 363.5 L 108 362.5 L 106.5 359 Z "/>
    <path fill="#ffffff" d="M 214.5 362 L 216 367.5 L 215 367.5 L 214.5 362 Z "/>
    <path fill="#ffffff" d="M 378.5 363 L 380 363.5 L 376.5 365 L 376.5 364 L 378.5 363 Z "/>
    <path fill="#ffffff" d="M 371.5 366 L 373 366.5 L 367.5 369 L 367.5 368 L 371.5 366 Z "/>
    <path fill="#ffffff" d="M 362.5 370 L 364 370.5 L 360.5 372 L 360.5 371 L 362.5 370 Z "/>
    <path fill="#ffffff" d="M 117.5 372 L 122 372.5 L 117.5 373 L 117.5 372 Z "/>
    <path fill="#ffffff" d="M 217.5 373 L 219 378.5 L 218 378.5 L 217.5 373 Z "/>
    <path fill="#ffffff" d="M 355.5 373 L 357 373.5 L 351.5 376 L 351.5 375 L 355.5 373 Z "/>
    <path fill="#ffffff" d="M 344.5 378 L 346 378.5 L 342.5 380 L 342.5 379 L 344.5 378 Z "/>
    <path fill="#ffffff" d="M 340.5 380 L 339.5 382 L 336.5 383 L 336.5 382 L 340.5 380 Z "/>
    <path fill="#ffffff" d="M 221.5 387 L 223 391.5 L 222 391.5 L 221.5 387 Z "/>
    <path fill="#ffffff" d="M 292.5 404 L 291.5 406 L 289.5 407 L 290.5 405 L 292.5 404 Z "/>
    <path fill="#ffffff" d="M 279.5 411 L 278.5 413 L 270.5 417 L 271.5 415 L 279.5 411 Z "/>
    <path fill="#ffffff" d="M 228.5 412 L 230 416.5 L 229 416.5 L 228.5 412 Z "/>
    <path fill="#ffffff" d="M 250.5 425 L 252 425.5 L 245.5 428 L 240.5 428 L 240.5 427 Q 247.2 427.7 250.5 425 Z "/>
    <path fill="#ffd43b" d="M 206.5 94 Q 219.9 92.1 226 97.5 Q 230.5 102.4 231 110 L 220.5 110 Q 212.5 113.5 201.5 114 L 167.5 127 L 118.5 155 L 97 170.5 L 96 172.5 Q 101.3 180.7 101 194.5 Q 96.8 216.3 81.5 227 L 78 229.5 L 82 243.5 L 96 276.5 L 109 304.5 L 111.5 307 L 123.5 302 L 134.5 302 Q 145.1 305.4 151 313.5 L 154.5 318 L 199.5 288 L 236.5 269 L 266.5 256 L 280.5 252 L 287 252 L 293 270 L 281.5 270 L 268.5 273 L 250.5 280 L 230.5 290 L 195.5 310 L 145.5 343 L 121.5 362 L 119 362 L 94 317.5 L 76 278.5 L 59 235.5 Q 53.5 212.5 44 193.5 L 44 190.5 L 96.5 149 L 141.5 120 L 172.5 104 L 191.5 97 L 206.5 94 Z "/>
    <path fill="#ffd43b" d="M 229.5 115 Q 234.9 113.1 234 116.5 L 237 124 L 225.5 127 L 213 137.5 L 203 153.5 L 199 164.5 L 195 185.5 L 195 198.5 L 196 199.5 L 196 208.5 L 200 222.5 Q 206 238 218.5 247 L 234.5 255 L 248 256 Q 249.7 260.1 245.5 259 Q 195.8 280.3 155.5 311 L 148.5 303 L 135.5 297 L 121.5 297 L 113 300 L 83 231 L 94 222.5 L 102 210.5 L 104 204.5 L 106 196.5 L 106 183.5 L 103 172.5 Q 134.6 149.1 171.5 131 L 204.5 119 L 218.5 116 L 228.5 116 L 229.5 115 Z M 147 216 L 140 218 L 130 245 L 129 255 L 134 257 L 150 258 L 151 259 Q 167 259 175 252 L 175 247 L 172 240 L 170 237 Q 160 238 155 236 L 161 222 L 161 219 L 158 216 L 147 216 Z "/>
    <path fill="#ffd43b" d="M 387.5 117 Q 392.9 115.1 392 118.5 L 451 222.5 L 465 251.5 L 467 261.5 L 454.5 271 L 418.5 293 L 298.5 363 L 268.5 383 L 247 401.5 Q 247.7 404.5 244 403 Q 253.2 378.4 268.5 359 L 289.5 346 L 410 280 L 410 275.5 L 407 269.5 L 407 257.5 L 415 242 L 418 240.5 Q 417.3 238.3 419.5 239 L 429 232.5 L 429 227.5 L 424 217.5 L 399 170.5 L 396.5 168 L 393.5 168 L 385.5 172 L 371.5 172 Q 358 168.5 351 158.5 L 348.5 155 L 344.5 155 L 338.5 158 L 297.5 180 L 276.5 193 L 273 193 L 269 179 L 292.5 168 L 387.5 117 Z "/>
    <path fill="#ffd43b" d="M 232.5 130 Q 239.5 128.5 241 132.5 L 250 155.5 L 251 162 L 242.5 163 L 236.5 151 Q 232.5 150.5 232 153.5 L 236 166.5 Q 224.7 172.2 225 189.5 L 229.5 196 Q 236.2 200.9 249 199 L 255 217.5 L 253.5 219 L 247.5 220 L 238.5 217 L 235 219.5 Q 234.5 224.5 238.5 225 Q 244.4 227.6 254.5 226 L 258 225 L 261 235 Q 264.8 236 266 233.5 L 264 222.5 L 271.5 215 L 273 216.5 L 282 240.5 L 276.5 245 L 264.5 250 L 260.5 251 L 241.5 251 Q 226 248 217 238.5 Q 201 222.5 200 191.5 L 201 190.5 L 202 174.5 L 207 158.5 Q 213.1 143.6 224.5 134 L 232.5 130 Z "/>
    <path fill="#ffd43b" d="M 345.5 161 L 349 163.5 L 353.5 169 L 363.5 175 L 380.5 178 L 394.5 175 L 423 229.5 L 409 241.5 L 403 252.5 L 401 266.5 L 403 276.5 L 340.5 313 L 277 347 L 288.5 328 L 302.5 324 Q 312.9 318.4 320 309.5 L 331 288.5 L 333 279.5 L 334 264.5 L 331 249.5 L 327 239.5 Q 319.6 226.4 308.5 217 L 295.5 210 L 283.5 208 L 281.5 209 L 279 208 L 276 199.5 Q 308.5 178 345.5 161 Z M 352 206 L 343 210 L 339 215 L 344 225 Q 348 227 357 226 L 358 228 L 353 241 L 354 244 L 360 247 Q 366 248 369 245 L 376 235 L 384 213 L 383 209 L 378 207 L 352 206 Z "/>
    <path fill="#ffd43b" d="M 247.5 168 Q 252.9 167.4 255 169 L 263 190.5 Q 261.8 193.3 260.5 191 Q 253.7 192.8 252 189.5 L 245 172.5 L 245 169 L 247.5 168 Z "/>
    <path fill="#ffd43b" d="M 238.5 173 Q 243.8 181 245 192 Q 235.3 194 232 188.5 L 232 182.5 L 238.5 173 Z "/>
    <path fill="#ffd43b" d="M 256 198 L 260.5 198 L 265 201.5 L 267 207.5 L 264 214 L 261.5 215 L 256 201.5 L 256 198 Z "/>
    <path fill="#ffd43b" d="M 350.5 211 L 370.5 211 L 379 213 L 369 237.5 L 364.5 242 L 360.5 243 Q 356.3 241.3 359 239.5 L 363 224.5 L 360.5 222 L 348.5 221 L 346 218.5 L 345 214.5 L 350.5 211 Z "/>
    <path fill="#ffd43b" d="M 283.5 213 L 294.5 215 L 310 225 L 311.5 228 Q 313.8 227.3 313 229.5 L 319 236.5 L 326 250.5 L 328 259.5 L 328 278.5 Q 323.6 301.6 308.5 314 L 299.5 320 L 293 321 L 302.5 304 L 305 302.5 L 304 295.5 Q 305.5 286.5 311 281.5 L 311 274.5 L 308.5 271 L 303 269 L 282 214.5 L 283.5 213 Z "/>
    <path fill="#ffd43b" d="M 151.5 220 Q 156.3 218.3 155 222.5 L 150 233.5 L 150 238.5 L 152.5 241 Q 163.5 239 168 243.5 L 170 248.5 L 162.5 253 L 148.5 254 L 147.5 253 L 134 252 L 134 248.5 L 142 225.5 L 145.5 221 Q 150.3 222.3 151.5 220 Z "/>
    <path fill="#ffd43b" d="M 286.5 278 Q 294.8 276.7 297 281.5 L 296 292.5 L 288 311.5 L 244 380.5 L 235.5 398 Q 232.9 398.8 234 395.5 L 229 380.5 L 228 372.5 L 235 355.5 L 275 300.5 L 284.5 279 L 286.5 278 Z "/>
    <path fill="#ffd43b" d="M 273.5 281 Q 278.9 279.1 278 282.5 L 274 291.5 L 263 308.5 L 235 345.5 L 226 363 Q 223 364.3 224 360.5 L 221 354.5 L 217 337.5 L 208 313.5 L 247.5 291 L 273.5 281 Z "/>
    <path fill="#ffd43b" d="M 449.5 284 Q 451.8 283.3 451 285.5 L 465 316.5 L 438.5 330 L 378.5 353 L 342.5 369 Q 298.7 389.2 258.5 413 L 246.5 418 L 246 415.5 L 252 408 L 255 406.5 Q 254.3 404.3 256.5 405 L 285.5 382 L 327.5 356 L 349.5 346 L 355.5 345 L 378.5 336 L 388.5 334 L 402.5 328 L 405 325.5 L 407 309 L 424.5 300 L 449.5 284 Z "/>
    <path fill="#ffd43b" d="M 398.5 315 L 400 315.5 L 400 322.5 L 391.5 327 L 367.5 335 L 367 333.5 L 398.5 315 Z "/>
  </g>
  <g id="line">
    <path fill="#1a1a1a" d="M 208.5 85 L 222.5 86 Q 230.2 87.8 234 93.5 L 240 104.5 L 263 166.5 L 266.5 172 L 367.5 117 L 383.5 109 L 388.5 107 L 392.5 107 L 398 110.5 L 459 218.5 L 475 252.5 L 476 264.5 L 470.5 271 L 458 279.5 L 463 292.5 L 471 307.5 L 474 317.5 Q 472.6 323.6 467.5 326 L 442.5 338 L 395.5 356 L 344.5 378 L 309.5 395 L 255.5 424 L 245.5 427 L 239.5 427 L 231 420.5 L 217 372.5 L 216 365.5 L 210 348.5 L 209 341.5 L 203 325.5 L 202 318 L 199.5 318 L 146.5 353 L 122.5 372 L 116.5 372 L 112 367.5 L 99 346.5 L 78 305.5 L 58 258.5 L 47 228.5 L 36 191.5 Q 38.8 182.8 45.5 178 L 48.5 176 L 64.5 162 L 96.5 138 L 135.5 113 L 175.5 93 L 195.5 87 L 207.5 86 L 208.5 85 Z M 207 94 L 192 97 L 173 104 L 142 120 L 97 149 L 44 191 L 44 194 Q 53 213 59 236 L 76 279 L 94 318 L 119 362 L 122 362 L 146 343 L 196 310 L 231 290 L 251 280 L 269 273 L 282 270 L 293 270 L 287 252 L 281 252 L 267 256 L 237 269 L 200 288 L 155 318 L 151 314 Q 145 305 135 302 L 124 302 L 112 307 L 109 305 L 96 277 L 82 244 L 78 230 L 82 227 Q 97 216 101 195 Q 101 181 96 173 L 97 171 L 119 155 L 168 127 L 202 114 Q 213 114 221 110 L 231 110 Q 230 102 226 98 Q 220 92 207 94 Z M 230 115 L 229 116 L 219 116 L 205 119 L 172 131 Q 135 149 103 173 L 106 184 L 106 197 L 104 205 L 102 211 L 94 223 L 83 231 L 113 300 L 122 297 L 136 297 L 149 303 L 156 311 Q 196 280 246 259 Q 250 260 248 256 L 235 255 L 219 247 Q 206 238 200 223 L 196 209 L 196 200 L 195 199 L 195 186 L 199 165 L 203 154 L 213 138 L 226 127 L 237 124 L 234 117 Q 235 113 230 115 Z M 388 117 L 293 168 L 269 179 L 273 193 L 277 193 L 298 180 L 339 158 L 345 155 L 349 155 L 351 159 Q 358 168 372 172 L 386 172 L 394 168 L 397 168 L 399 171 L 424 218 L 429 228 L 429 233 L 420 239 Q 417 238 418 241 L 415 242 L 407 258 L 407 270 L 410 276 L 410 280 L 290 346 L 269 359 Q 253 378 244 404 L 246 403 Q 248 404 247 402 L 269 383 L 299 363 L 419 293 L 455 271 L 467 262 L 465 252 L 451 223 L 392 119 Q 393 115 388 117 Z M 233 130 L 225 134 Q 213 144 207 159 L 202 175 L 201 191 L 200 192 Q 201 223 217 239 Q 226 248 242 251 L 261 251 L 265 250 L 277 245 L 282 241 L 273 217 L 272 215 L 264 223 L 266 234 Q 265 236 261 235 L 258 225 L 255 226 Q 244 228 239 225 Q 235 225 235 220 L 239 217 L 248 220 L 254 219 L 255 218 L 249 199 Q 236 201 230 196 L 225 190 Q 225 172 236 167 L 232 154 Q 232 151 237 151 L 243 163 L 251 162 L 250 156 L 241 133 Q 240 129 233 130 Z M 346 161 Q 309 178 276 200 L 279 208 L 282 209 L 284 208 L 296 210 L 309 217 Q 320 226 327 240 L 331 250 L 334 265 L 333 280 L 331 289 L 320 310 Q 313 318 303 324 L 289 328 L 277 347 L 341 313 L 403 277 L 401 267 L 403 253 L 409 242 L 423 230 L 395 175 L 381 178 L 364 175 L 354 169 L 349 164 L 346 161 Z M 248 168 L 245 169 L 245 173 L 252 190 Q 254 193 261 191 Q 262 193 263 191 L 255 169 Q 253 167 248 168 Z M 239 173 L 232 183 L 232 189 Q 235 194 245 192 Q 244 181 239 173 Z M 256 198 L 256 202 L 262 215 L 264 214 L 267 208 L 265 202 L 261 198 L 256 198 Z M 284 213 L 282 215 L 303 269 L 309 271 L 311 275 L 311 282 Q 305 286 304 296 L 305 303 L 303 304 L 293 321 L 300 320 L 309 314 Q 324 302 328 279 L 328 260 L 326 251 L 319 237 L 313 230 Q 314 227 312 228 L 310 225 L 295 215 L 284 213 Z M 287 278 L 285 279 L 275 301 L 235 356 L 228 373 L 229 381 L 234 396 Q 233 399 236 398 L 244 381 L 288 312 L 296 293 L 297 282 Q 295 277 287 278 Z M 274 281 L 248 291 L 208 314 L 217 338 L 221 355 L 224 361 Q 223 364 226 363 L 235 346 L 263 309 L 274 292 L 278 283 Q 279 279 274 281 Z M 450 284 L 425 300 L 407 309 L 405 326 L 403 328 L 389 334 L 379 336 L 356 345 L 350 346 L 328 356 L 286 382 L 257 405 Q 254 404 255 407 L 252 408 L 246 416 L 247 418 L 259 413 Q 299 389 343 369 L 379 353 L 439 330 L 465 317 L 451 286 Q 452 283 450 284 Z M 399 315 L 367 334 L 368 335 L 392 327 L 400 323 L 400 316 L 399 315 Z "/>
    <path fill="#1a1a1a" d="M 351.5 206 L 377.5 207 L 383 209 L 384 212.5 L 376 234.5 L 368.5 245 Q 365.6 247.6 359.5 247 L 354 243.5 L 353 240.5 L 358 227.5 L 356.5 226 Q 348.2 226.9 344 225 L 339 214.5 L 342.5 210 L 351.5 206 Z M 351 211 L 345 215 L 346 219 L 349 221 L 361 222 L 363 225 L 359 240 Q 356 241 361 243 L 365 242 L 369 238 L 379 213 L 371 211 L 351 211 Z "/>
    <path fill="#1a1a1a" d="M 146.5 216 L 157.5 216 L 161 218.5 L 161 221.5 L 155 236 Q 160.3 237.8 169.5 237 L 172 239.5 L 175 246.5 L 175 252 Q 166.7 259 150.5 259 L 149.5 258 L 133.5 257 L 129 254.5 L 130 244.5 L 140 218 L 146.5 216 Z M 152 220 Q 150 222 146 221 L 142 226 L 134 249 L 134 252 L 148 253 L 149 254 L 163 253 L 170 249 L 168 244 Q 163 239 153 241 L 150 239 L 150 234 L 155 223 Q 156 218 152 220 Z "/>
  </g>
</svg>
