<svg xmlns="http://www.w3.org/2000/svg" width="512" height="512" viewBox="0 0 512 512">
  <g id="color">
    <path fill="#ffffff" d="M 216.5 37 L 301 37.5 L 216.5 38 L 216.5 37 Z "/>
    <path fill="#ffffff" d="M 196.5 38 L 211 38.5 L 196.5 39 L 196.5 38 Z "/>
    <path fill="#ffffff" d="M 309.5 38 L 324 38.5 L 309.5 39 L 309.5 38 Z "/>
    <path fill="#ffffff" d="M 178.5 39 L 188 39.5 L 178.5 40 L 178.5 39 Z "/>
    <path fill="#ffffff" d="M 332.5 39 L 341 39.5 L 332.5 40 L 332.5 39 Z "/>
    <path fill="#ffffff" d="M 164.5 40 L 176 40.5 L 164.5 41 L 164.5 40 Z "/>
    <path fill="#ffffff" d="M 343.5 40 L 352 40.5 L 343.5 41 L 343.5 40 Z "/>
    <path fill="#ffffff" d="M 156.5 41 L 163 41.5 L 156.5 42 L 156.5 41 Z "/>
    <path fill="#ffffff" d="M 353.5 41 L 359 41.5 L 353.5 42 L 353.5 41 Z "/>
    <path fill="#ffffff" d="M 146.5 42 L 151 42.5 L 146.5 43 L 146.5 42 Z "/>
    <path fill="#ffffff" d="M 362.5 42 L 367 42.5 L 362.5 43 L 362.5 42 Z "/>
    <path fill="#ffffff" d="M 138.5 43 L 145 43.5 L 133.5 45 L 133.5 44 L 138.5 43 Z "/>
    <path fill="#ffffff" d="M 368.5 43 L 373 43.5 L 368.5 44 L 368.5 43 Z "/>
    <path fill="#ffffff" d="M 121.5 46 L 125 46.5 L 117.5 48 L 117.5 47 L 121.5 46 Z "/>
    <path fill="#ffffff" d="M 386.5 46 L 392 47.5 L 389.5 48 L 386.5 47 L 386.5 46 Z "/>
    <path fill="#ffffff" d="M 108.5 49 L 112 49.5 L 105.5 51 L 105.5 50 L 108.5 49 Z "/>
    <path fill="#ffffff" d="M 98.5 52 L 101 52.5 L 96.5 54 L 96.5 53 L 98.5 52 Z "/>
    <path fill="#ffffff" d="M 407.5 52 L 412 53.5 L 410.5 54 L 407.5 53 L 407.5 52 Z "/>
    <path fill="#ffffff" d="M 90.5 55 L 92 55.5 L 88.5 57 L 88.5 56 L 90.5 55 Z "/>
    <path fill="#ffffff" d="M 415.5 55 L 420 57.5 L 418.5 57 Q 414.8 56.7 415.5 55 Z "/>
    <path fill="#ffffff" d="M 80.5 60 L 79.5 62 L 76.5 64 L 78.5 61 L 80.5 60 Z "/>
    <path fill="#ffffff" d="M 430.5 64 L 434 68.5 L 433 68.5 L 430.5 64 Z "/>
    <path fill="#ffffff" d="M 71.5 68 L 70 70.5 L 68.5 73 L 69 71.5 L 71.5 68 Z "/>
    <path fill="#ffffff" d="M 67.5 74 L 68 75.5 L 66.5 78 L 66 76.5 L 67.5 74 Z "/>
    <path fill="#ffffff" d="M 438.5 74 L 441 77.5 L 439 76.5 L 438.5 74 Z "/>
    <path fill="#ffffff" d="M 442.5 81 L 444 84.5 L 443 84.5 L 442.5 81 Z "/>
    <path fill="#ffffff" d="M 64.5 82 L 65 84.5 L 63.5 88 L 63 85.5 L 64.5 82 Z "/>
    <path fill="#ffffff" d="M 445.5 89 L 447 95.5 L 446 95.5 L 445.5 89 Z "/>
    <path fill="#ffffff" d="M 60.5 99 L 61 103.5 L 60 103.5 L 60.5 99 Z "/>
    <path fill="#ffffff" d="M 448.5 102 L 450 109.5 L 449 109.5 L 448.5 102 Z "/>
    <path fill="#ffffff" d="M 59.5 105 L 60 109.5 L 59 109.5 L 59.5 105 Z "/>
    <path fill="#ffffff" d="M 58.5 115 L 59 122.5 L 58 122.5 L 58.5 115 Z "/>
    <path fill="#ffffff" d="M 451.5 120 L 452 126.5 L 451 126.5 L 451.5 120 Z "/>
    <path fill="#ffffff" d="M 57.5 125 L 58 153.5 L 57 153.5 L 57.5 125 Z "/>
    <path fill="#ffffff" d="M 452.5 128 L 453 158.5 L 452 158.5 L 452.5 128 Z "/>
    <path fill="#ffffff" d="M 58.5 156 L 59 162.5 L 58 162.5 L 58.5 156 Z "/>
    <path fill="#ffffff" d="M 451.5 160 L 452 164.5 L 451 164.5 L 451.5 160 Z "/>
    <path fill="#ffffff" d="M 60.5 171 L 62 176.5 L 61 176.5 L 60.5 171 Z "/>
    <path fill="#ffffff" d="M 63.5 181 L 66 184.5 L 64 183.5 L 63.5 181 Z "/>
    <path fill="#ffffff" d="M 445.5 183 L 445 184.5 L 440 191.5 L 441.5 194 L 439 190.5 L 445.5 183 Z "/>
    <path fill="#ffffff" d="M 70.5 192 L 70 193.5 L 68.5 196 L 69 194.5 L 70.5 192 Z "/>
    <path fill="#ffffff" d="M 67.5 197 L 67 198.5 L 65.5 202 L 65 200.5 L 67.5 197 Z "/>
    <path fill="#ffffff" d="M 64.5 203 L 65 204.5 L 63.5 207 L 63 205.5 L 64.5 203 Z "/>
    <path fill="#ffffff" d="M 448.5 207 L 450 212.5 L 449 212.5 L 448.5 207 Z "/>
    <path fill="#ffffff" d="M 451.5 219 Q 453.8 222.8 453 229.5 L 452 229.5 L 451.5 219 Z "/>
    <path fill="#ffffff" d="M 58.5 228 L 59 233.5 L 58 233.5 L 58.5 228 Z "/>
    <path fill="#ffffff" d="M 453.5 231 L 454 236.5 L 453 236.5 L 453.5 231 Z "/>
    <path fill="#ffffff" d="M 57.5 236 L 58 249.5 L 57 249.5 L 57.5 236 Z "/>
    <path fill="#ffffff" d="M 454.5 243 L 455 273.5 L 454 273.5 L 454.5 243 Z "/>
    <path fill="#ffffff" d="M 56.5 253 L 57 262.5 L 56 262.5 L 56.5 253 Z "/>
    <path fill="#ffffff" d="M 57.5 266 L 58 279.5 L 57 279.5 L 57.5 266 Z "/>
    <path fill="#ffffff" d="M 58.5 281 L 59 285.5 L 58 285.5 L 58.5 281 Z "/>
    <path fill="#ffffff" d="M 452.5 285 L 453 290.5 L 451.5 295 L 451 291.5 L 452.5 285 Z "/>
    <path fill="#ffffff" d="M 449.5 300 L 450 302.5 L 448.5 305 L 448 303.5 L 449.5 300 Z "/>
    <path fill="#ffffff" d="M 62.5 302 L 64 305.5 L 63 305.5 L 62.5 302 Z "/>
    <path fill="#ffffff" d="M 447.5 306 L 448 307.5 L 445.5 311 L 446 309.5 L 447.5 306 Z "/>
    <path fill="#ffffff" d="M 66.5 311 L 69 314.5 L 67 313.5 L 66.5 311 Z "/>
    <path fill="#ffffff" d="M 69.5 316 L 71 318.5 L 68 320.5 L 70 317.5 L 69.5 316 Z "/>
    <path fill="#ffffff" d="M 441.5 318 L 444 321.5 L 442 320.5 L 441.5 318 Z "/>
    <path fill="#ffffff" d="M 67.5 322 L 67 323.5 L 65.5 327 L 65 325.5 L 67.5 322 Z "/>
    <path fill="#ffffff" d="M 445.5 325 L 448 330.5 L 447 330.5 L 445.5 325 Z "/>
    <path fill="#ffffff" d="M 64.5 328 L 65 329.5 L 63.5 332 L 63 330.5 L 64.5 328 Z "/>
    <path fill="#ffffff" d="M 448.5 332 L 450 337.5 L 449 337.5 L 448.5 332 Z "/>
    <path fill="#ffffff" d="M 61.5 338 L 62 340.5 L 60.5 346 L 60 341.5 L 61.5 338 Z "/>
    <path fill="#ffffff" d="M 451.5 345 L 453 356.5 L 452 356.5 L 451.5 345 Z "/>
    <path fill="#ffffff" d="M 59.5 347 L 60 351.5 L 59 351.5 L 59.5 347 Z "/>
    <path fill="#ffffff" d="M 58.5 356 L 59 362.5 L 58 362.5 L 58.5 356 Z "/>
    <path fill="#ffffff" d="M 453.5 359 L 454 366.5 L 453 366.5 L 453.5 359 Z "/>
    <path fill="#ffffff" d="M 57.5 366 L 58 388.5 L 57 388.5 L 57.5 366 Z "/>
    <path fill="#ffffff" d="M 453.5 390 L 454 397.5 L 453 397.5 L 453.5 390 Z "/>
    <path fill="#ffffff" d="M 58.5 392 L 59 398.5 L 58 398.5 L 58.5 392 Z "/>
    <path fill="#ffffff" d="M 452.5 399 L 453 405.5 L 451.5 410 L 451 406.5 L 452.5 399 Z "/>
    <path fill="#ffffff" d="M 449.5 416 L 450 418.5 L 448.5 422 L 448 419.5 L 449.5 416 Z "/>
    <path fill="#ffffff" d="M 63.5 420 L 65 424.5 L 64 424.5 L 63.5 420 Z "/>
    <path fill="#ffffff" d="M 446.5 425 L 447 426.5 L 445.5 429 L 445 427.5 L 446.5 425 Z "/>
    <path fill="#ffffff" d="M 66.5 428 L 74 438.5 L 70 435.5 L 66.5 428 Z "/>
    <path fill="#ffffff" d="M 444.5 430 L 444 431.5 L 442.5 434 L 443 432.5 L 444.5 430 Z "/>
    <path fill="#ffffff" d="M 432.5 443 L 431.5 445 L 429.5 446 L 430.5 444 L 432.5 443 Z "/>
    <path fill="#ffffff" d="M 82.5 446 L 87 449.5 L 85.5 449 L 82.5 446 Z "/>
    <path fill="#ffffff" d="M 427.5 446 L 426.5 448 L 423.5 449 L 423.5 448 L 427.5 446 Z "/>
    <path fill="#ffffff" d="M 418.5 450 L 420 450.5 L 416.5 452 L 416.5 451 L 418.5 450 Z "/>
    <path fill="#ffffff" d="M 94.5 453 L 98 454.5 L 96.5 455 L 94.5 453 Z "/>
    <path fill="#ffffff" d="M 409.5 453 L 412 453.5 L 407.5 455 L 407.5 454 L 409.5 453 Z "/>
    <path fill="#ffffff" d="M 101.5 456 L 106 457.5 L 104.5 458 L 101.5 457 L 101.5 456 Z "/>
    <path fill="#ffffff" d="M 399.5 456 L 402 456.5 L 396.5 458 L 396.5 457 L 399.5 456 Z "/>
    <path fill="#ffffff" d="M 110.5 459 L 115 460.5 L 113.5 461 L 110.5 460 L 110.5 459 Z "/>
    <path fill="#ffffff" d="M 388.5 459 L 391 459.5 L 385.5 461 L 385.5 460 L 388.5 459 Z "/>
    <path fill="#ffffff" d="M 375.5 462 L 379 462.5 L 371.5 464 L 371.5 463 L 375.5 462 Z "/>
    <path fill="#ffffff" d="M 360.5 465 L 364 465.5 L 355.5 467 L 355.5 466 L 360.5 465 Z "/>
    <path fill="#ffffff" d="M 141.5 466 L 146 466.5 L 141.5 467 L 141.5 466 Z "/>
    <path fill="#ffffff" d="M 148.5 467 L 153 467.5 L 148.5 468 L 148.5 467 Z "/>
    <path fill="#ffffff" d="M 157.5 468 L 162 468.5 L 157.5 469 L 157.5 468 Z "/>
    <path fill="#ffffff" d="M 163.5 469 L 170 469.5 L 163.5 470 L 163.5 469 Z "/>
    <path fill="#ffffff" d="M 335.5 469 L 341 469.5 L 335.5 470 L 335.5 469 Z "/>
    <path fill="#ffffff" d="M 172.5 470 L 178 470.5 L 172.5 471 L 172.5 470 Z "/>
    <path fill="#ffffff" d="M 327.5 470 L 333 470.5 L 327.5 471 L 327.5 470 Z "/>
    <path fill="#ffffff" d="M 182.5 471 L 189 471.5 L 182.5 472 L 182.5 471 Z "/>
    <path fill="#ffffff" d="M 318.5 471 L 324 471.5 L 318.5 472 L 318.5 471 Z "/>
    <path fill="#ffffff" d="M 190.5 472 L 199 472.5 L 190.5 473 L 190.5 472 Z "/>
    <path fill="#ffffff" d="M 308.5 472 L 317 472.5 L 308.5 473 L 308.5 472 Z "/>
    <path fill="#ffffff" d="M 200.5 473 L 208 473.5 L 200.5 474 L 200.5 473 Z "/>
    <path fill="#ffffff" d="M 299.5 473 L 307 473.5 L 299.5 474 L 299.5 473 Z "/>
    <path fill="#ffffff" d="M 215.5 474 L 225 474.5 L 215.5 475 L 215.5 474 Z "/>
    <path fill="#ffffff" d="M 281.5 474 L 292 474.5 L 281.5 475 L 281.5 474 Z "/>
    <path fill="#ffffff" d="M 227.5 475 L 279 475.5 L 227.5 476 L 227.5 475 Z "/>
    <path fill="#4da3ff" d="M 244.5 50 L 302.5 51 L 303.5 52 L 326.5 52 L 327.5 53 L 339.5 53 L 340.5 54 L 353.5 54 L 358.5 56 L 373.5 57 L 383.5 60 L 388.5 60 L 401.5 65 L 404.5 65 L 421 73 Q 419.9 75.7 422.5 75 L 430 84.5 L 436 104.5 L 436 110.5 L 438 116.5 L 438 118.5 L 439 137.5 L 440 138.5 L 440 152.5 L 436 173.5 L 429.5 182 L 426.5 182 L 410.5 188 L 391.5 191 L 381.5 194 L 374.5 194 L 361.5 197 L 337.5 199 L 336.5 200 L 307.5 201 L 306.5 202 L 284.5 202 L 283.5 203 L 211.5 203 L 210.5 202 L 192.5 202 L 191.5 201 L 177.5 201 L 176.5 200 L 174.5 201 L 173.5 200 L 162.5 200 L 152.5 198 L 143.5 198 L 142.5 197 L 132.5 197 L 128.5 195 L 122.5 195 L 118.5 193 L 103.5 191 Q 100.3 187.7 93.5 188 L 88 185 L 87.5 183 L 86 183.5 L 90 181.5 L 89.5 180 L 88 180.5 L 91 179.5 L 93 176.5 L 95 172.5 L 94.5 171 L 96 171.5 L 96 166.5 L 98 161.5 L 98 159.5 L 97 156.5 L 99 156.5 Q 101.7 153.2 101 146.5 L 100 146.5 L 99.5 149 L 99 146.5 L 100.5 143 L 101.5 146 L 102 129 Q 98.5 130.1 100 122.5 L 101 122.5 L 101.5 127 L 105 112.5 L 105 110.5 L 106 106.5 L 114.5 96 L 117 94.5 L 116.5 93 L 118.5 94 L 120.5 94 L 123 91.5 L 123.5 89 L 124 91 L 126 90.5 Q 123.7 89.3 126.5 88 L 126.5 90 L 142.5 86 L 144.5 86 L 159.5 83 L 161 83.5 L 162 81.5 L 161.5 80 Q 164.1 79.3 163 82 L 167.5 82 L 172.5 81 L 175.5 78 L 184.5 74 L 186.5 74 L 192 70.5 L 191.5 69 L 194.5 70 L 201 64.5 L 201 62.5 Q 200.3 60.3 202.5 61 L 208 58 L 209 54 L 213 53 L 213.5 51 L 243.5 51 L 244.5 50 Z "/>
    <path fill="#4da3ff" d="M 101.5 113 Q 104.3 114.3 102 115.5 L 101.5 117 L 101.5 113 Z "/>
    <path fill="#4da3ff" d="M 93.5 163 L 95 167.5 L 92.5 171 L 92 169.5 L 93.5 163 Z "/>
    <path fill="#4da3ff" d="M 422.5 199 L 424.5 200 L 427.5 199 L 431 201.5 L 434 206.5 L 439 221.5 L 439 228.5 L 442 243.5 L 441 248.5 L 442 249.5 L 442 267.5 L 441 268.5 L 441 280.5 L 436 301.5 L 428.5 311 L 418.5 314 L 414.5 317 L 405.5 318 L 384.5 324 L 374.5 325 L 370.5 327 L 362.5 327 L 350.5 330 L 325.5 332 L 324.5 333 L 314.5 333 L 313.5 334 L 311.5 333 L 310.5 334 L 299.5 334 L 298.5 335 L 294.5 335 Q 288.3 333.3 286.5 336 L 215.5 336 L 214.5 335 L 173.5 333 L 165.5 331 L 153.5 331 L 152.5 330 L 125.5 327 L 118.5 324 L 109.5 323 L 106.5 321 L 102.5 321 L 94.5 318 L 79 307.5 L 73 292.5 L 71 282.5 L 70 244.5 L 71 243.5 L 71 232.5 L 73 221.5 L 77 206.5 L 80 201 L 85.5 200 L 102.5 206 L 117.5 208 L 127.5 211 L 142.5 212 L 151.5 214 L 153.5 213 L 154.5 214 L 167.5 214 L 168.5 215 L 191.5 216 L 192.5 217 L 264.5 218 L 265.5 219 L 266.5 218 L 278.5 218 L 279.5 217 L 303.5 217 L 305.5 216 L 307.5 216 L 322.5 216 L 323.5 215 L 334.5 215 L 335.5 214 L 347.5 214 L 362.5 211 L 377.5 210 L 381.5 208 L 387.5 208 L 402.5 205 L 422.5 199 Z M 251 226 L 247 228 Q 243 230 243 235 Q 240 236 242 238 Q 234 239 232 235 L 228 235 L 218 241 L 215 248 Q 214 254 218 257 L 217 262 L 212 263 L 206 271 L 206 283 L 208 283 L 208 285 Q 209 289 217 288 L 219 292 L 216 298 L 217 308 L 220 309 L 221 312 L 229 316 Q 230 314 235 315 L 240 312 L 243 316 L 245 322 L 251 325 Q 262 326 267 322 L 268 319 L 268 317 L 270 316 L 271 313 Q 277 312 279 315 L 288 314 L 295 307 L 296 304 Q 297 297 294 295 L 293 292 L 294 290 L 303 286 L 306 279 L 306 273 L 304 267 L 298 262 L 295 262 L 293 260 L 293 258 L 296 253 L 296 246 L 293 241 L 284 235 Q 277 234 276 238 L 273 237 L 270 238 L 268 232 Q 265 223 251 226 Z "/>
    <path fill="#4da3ff" d="M 252.5 263 L 258.5 263 L 266 267.5 Q 268.9 271.1 268 278.5 L 267 282 L 265 282.5 L 265.5 284 L 254.5 288 L 248.5 286 L 246 283.5 L 244 278.5 L 244.5 277 Q 241.5 277.9 243 273.5 Q 244.5 267 249.5 264 L 252.5 263 Z "/>
    <path fill="#4da3ff" d="M 427.5 327 L 433 328 L 436 335.5 L 440 356.5 L 440 364.5 L 441 365.5 L 441 391.5 L 438 410 L 436 410.5 L 437 414.5 L 433 424.5 L 424.5 434 L 423 433.5 Q 423.8 436.1 420.5 435 L 418.5 437 L 390.5 445 L 387.5 447 L 382.5 447 L 372.5 450 L 367.5 450 L 360.5 453 L 354.5 453 L 347.5 455 L 324.5 457 L 318.5 459 L 296.5 460 L 295.5 461 L 279.5 461 L 278.5 462 L 226.5 462 L 225.5 461 L 209.5 461 L 198.5 459 L 186.5 459 L 179.5 457 L 177.5 457 L 139.5 453 L 135.5 451 L 113.5 447 L 94.5 439 L 86 434 Q 87.1 431.3 84.5 432 Q 81.3 430.8 82 427 Q 79.3 428.1 80 425.5 L 74 412.5 L 72 401.5 Q 73.7 395.3 71 393.5 L 71 360.5 L 76 334.5 L 79.5 329 L 84.5 329 L 104.5 337 L 138.5 344 L 140.5 344 L 164.5 346 L 165.5 347 L 176.5 347 L 185.5 349 L 221.5 350 L 222.5 351 L 246.5 351 L 247.5 352 L 248.5 351 L 278.5 351 L 279.5 350 L 314.5 349 L 322.5 347 L 324.5 347 L 344.5 346 L 345.5 345 L 347.5 345 L 357.5 343 L 365.5 343 L 374.5 340 L 380.5 340 L 389.5 337 L 395.5 337 L 421.5 329 L 423 329.5 Q 422.1 326.5 426.5 328 L 427.5 327 Z M 251 367 L 247 369 Q 241 373 240 381 L 240 391 L 239 392 L 225 393 L 221 395 L 214 404 L 214 415 L 215 417 Q 219 427 237 424 L 239 424 Q 241 429 240 438 L 242 443 L 248 448 L 256 450 L 266 447 L 271 439 L 271 433 L 271 431 L 272 424 L 286 424 Q 292 423 295 419 L 298 413 L 298 406 L 295 398 L 287 393 L 273 392 L 272 390 L 271 378 L 268 372 Q 263 365 251 367 Z "/>
    <path fill="#ffd43b" d="M 251.5 233 Q 260 231 262 235.5 Q 261.6 241.9 265.5 244 L 274.5 247 L 280.5 243 L 283.5 243 L 288 246.5 L 289 250.5 L 285 256.5 L 285 259.5 L 287 265.5 L 289.5 268 L 295.5 269 L 299 271.5 L 299 279.5 L 297.5 281 L 290.5 282 L 287 285.5 L 285 290.5 L 285 294.5 L 289 299.5 L 289 302.5 L 283.5 308 L 280.5 308 L 272.5 304 L 263 309.5 L 262 315.5 L 259.5 318 L 251.5 318 L 250 316.5 Q 250.7 309.3 246.5 307 L 237.5 304 L 231.5 308 L 228.5 308 L 223 303.5 L 223 299.5 L 227 291.5 L 222.5 283 L 216.5 282 L 213 279.5 L 213 271.5 L 214.5 270 L 224 266.5 L 227 257.5 L 222 249.5 L 227.5 243 L 231.5 243 L 239.5 247 L 248 242.5 L 251.5 233 Z M 252 256 L 244 260 L 238 267 L 236 275 L 238 285 L 241 289 L 253 295 Q 262 296 267 292 Q 273 288 275 281 L 275 270 L 270 262 Q 265 254 252 256 Z "/>
    <path fill="#51cf66" d="M 254.5 374 Q 260.9 373.6 263 377.5 Q 266.7 386 265 399 L 267.5 400 L 285.5 400 L 290 403.5 L 291 409.5 L 289 415 L 284.5 417 L 267.5 417 L 265 418 L 265 433.5 L 261.5 441 L 254.5 443 L 248 438.5 L 247 435.5 L 247 419.5 L 244.5 417 L 226.5 417 L 222 413.5 L 221 405.5 L 224.5 401 L 226.5 400 L 244.5 400 L 247 397.5 L 247 381.5 L 251.5 375 L 254.5 374 Z "/>
    <path fill="#66d9e8" d="M 212.5 49 L 305.5 49 L 306.5 50 L 327.5 50 L 328.5 51 L 359.5 53 L 365.5 55 L 388.5 58 L 409.5 65 Q 421.8 69.8 429 79.5 L 438 105.5 L 440 125.5 L 441 126.5 L 441 142.5 L 442 144.5 L 441 145.5 L 441 160.5 L 438 173.5 L 430.5 183 L 405.5 191 L 368.5 198 L 346.5 200 L 345.5 201 L 336.5 201 L 335.5 202 L 288.5 204 L 287.5 205 L 208.5 205 L 207.5 204 L 164.5 202 L 163.5 201 L 153.5 201 L 152.5 200 L 128.5 198 L 91.5 189 L 80.5 184 L 75 178.5 L 72 171.5 L 69 155.5 L 69 123.5 L 70 122.5 L 72 99.5 L 75 90.5 L 75 86.5 L 79 76.5 L 83.5 72 L 97.5 65 L 122.5 58 L 128.5 58 L 134.5 56 L 155.5 54 L 156.5 53 L 177.5 52 L 178.5 51 L 194.5 51 L 195.5 50 L 211.5 50 L 212.5 49 Z M 245 50 L 244 51 L 214 51 L 213 53 L 209 54 L 208 58 L 205 59 L 205 61 L 198 68 L 187 74 L 185 74 L 176 78 L 173 81 L 168 82 L 163 82 Q 164 79 162 80 L 162 82 L 161 84 L 160 83 L 145 86 L 143 86 L 124 91 L 124 89 L 123 92 Q 121 96 120 93 L 115 96 L 106 107 L 105 111 L 105 113 L 102 127 L 101 123 L 100 123 Q 99 130 102 129 L 102 146 L 98 160 L 98 162 L 95 175 L 93 177 Q 94 179 91 178 L 88 185 L 94 188 Q 100 188 104 191 L 119 193 L 123 195 L 129 195 L 133 197 L 143 197 L 144 198 L 153 198 L 163 200 L 174 200 L 175 201 L 177 200 L 178 201 L 192 201 L 193 202 L 211 202 L 212 203 L 284 203 L 285 202 L 307 202 L 308 201 L 337 200 L 338 199 L 362 197 L 375 194 L 382 194 L 392 191 L 411 188 L 427 182 L 430 182 L 436 174 L 440 153 L 440 139 L 439 138 L 438 119 L 438 117 L 436 111 L 436 105 L 430 85 L 423 75 Q 420 76 421 73 L 405 65 L 402 65 L 389 60 L 384 60 L 374 57 L 359 56 L 354 54 L 341 54 L 340 53 L 328 53 L 327 52 L 304 52 L 303 51 L 245 50 Z M 102 113 L 102 117 L 102 116 Q 104 114 102 113 Z M 94 163 L 93 169 L 95 168 L 94 163 Z "/>
    <path fill="#66d9e8" d="M 83.5 197 L 89.5 200 L 111.5 206 L 117.5 206 L 127.5 209 L 151.5 211 L 152.5 212 L 164.5 212 L 165.5 213 L 177.5 213 L 178.5 214 L 190.5 214 L 191.5 215 L 210.5 215 L 211.5 216 L 282.5 216 L 283.5 215 L 307.5 215 L 308.5 214 L 336.5 213 L 337.5 212 L 347.5 212 L 348.5 211 L 363.5 210 L 398.5 203 L 403.5 203 L 423.5 197 L 428.5 197 L 435 203.5 L 440 218.5 L 442 236.5 L 443 237.5 L 444 265.5 L 443 266.5 L 443 278.5 L 440 294.5 L 436 305.5 L 430.5 312 L 413.5 319 L 393.5 323 L 389.5 325 L 350.5 332 L 335.5 333 L 334.5 334 L 311.5 335 L 310.5 336 L 299.5 336 L 298.5 337 L 282.5 337 L 281.5 338 L 216.5 338 L 215.5 337 L 199.5 337 L 198.5 336 L 188.5 336 L 187.5 335 L 163.5 334 L 162.5 333 L 137.5 331 Q 131 328 121.5 328 L 94.5 320 Q 84.2 316.3 78 308.5 L 74 301.5 L 69 281.5 L 68 245.5 L 69 244.5 L 69 233.5 L 70 232.5 L 71 221.5 L 75 206.5 L 81.5 198 L 83.5 197 Z M 423 199 L 403 205 L 388 208 L 382 208 L 378 210 L 363 211 L 348 214 L 336 214 L 335 215 L 324 215 L 323 216 L 308 216 L 306 216 L 304 217 L 280 217 L 279 218 L 267 218 L 266 219 L 265 218 L 193 217 L 192 216 L 169 215 L 168 214 L 155 214 L 154 213 L 152 214 L 143 212 L 128 211 L 118 208 L 103 206 L 86 200 L 80 201 L 77 207 L 73 222 L 71 233 L 71 244 L 70 245 L 71 283 L 73 293 L 79 308 L 95 318 L 103 321 L 107 321 L 110 323 L 119 324 L 126 327 L 153 330 L 154 331 L 166 331 L 174 333 L 215 335 L 216 336 L 287 336 Q 288 333 295 335 L 299 335 L 300 334 L 311 334 L 312 333 L 314 334 L 315 333 L 325 333 L 326 332 L 351 330 L 363 327 L 371 327 L 375 325 L 385 324 L 406 318 L 415 317 L 419 314 L 429 311 L 436 302 L 441 281 L 441 269 L 442 268 L 442 250 L 441 249 L 442 244 L 439 229 L 439 222 L 434 207 L 431 202 L 428 199 L 425 200 L 423 199 Z "/>
    <path fill="#66d9e8" d="M 250.5 226 Q 264.5 223.5 268 231.5 L 270 238 L 272.5 237 L 275.5 238 Q 277.4 234.4 283.5 235 L 293 241 L 296 245.5 L 296 252.5 L 293 257.5 L 293 259.5 L 294.5 262 L 297.5 262 L 304 266.5 L 306 272.5 L 306 278.5 L 302.5 286 L 294 289.5 L 293 291.5 L 294 294.5 Q 296.8 297.2 296 303.5 L 295 306.5 L 287.5 314 L 278.5 315 Q 276.5 312 270.5 313 L 269.5 316 L 268 316.5 L 268 318.5 L 267 322 Q 261.9 326.2 250.5 325 L 245 322 L 243 315.5 L 239.5 312 L 234.5 315 Q 229.7 313.7 228.5 316 L 221.5 312 L 220 312.5 L 221 310.5 L 217 307.5 L 216 297.5 L 219 291.5 L 216.5 288 Q 209.3 289.3 208 284.5 L 208 283 L 206 282.5 L 206 270.5 L 211.5 263 L 217 262 L 218 256.5 Q 214.2 254.2 215 247.5 L 218 241 L 227.5 235 L 231.5 235 Q 234.1 238.9 241.5 238 Q 239.9 236.3 243 234.5 Q 243.3 229.8 246.5 228 L 250.5 226 Z M 252 228 L 249 229 Q 243 231 244 239 L 240 241 L 231 237 L 226 238 L 217 248 L 217 252 L 221 258 L 221 261 L 218 264 Q 212 263 211 266 L 208 271 Q 206 279 209 283 L 213 286 L 219 287 L 221 291 L 221 294 L 217 301 L 218 306 L 229 314 Q 235 313 239 310 L 243 311 L 246 320 L 251 323 Q 259 324 264 322 Q 268 320 267 314 L 272 310 L 275 310 L 281 314 L 284 314 L 289 311 L 294 305 L 294 298 Q 290 296 291 290 Q 293 286 300 286 L 303 283 L 304 279 L 303 269 L 300 265 L 292 263 L 291 261 Q 290 255 294 254 L 294 246 L 284 237 Q 277 237 275 241 L 270 240 Q 266 237 266 232 Q 262 226 252 228 Z "/>
    <path fill="#66d9e8" d="M 253.5 261 Q 264.4 260.6 268 267.5 Q 270.9 271.1 270 278.5 Q 268.5 285 263.5 288 L 255.5 290 L 248.5 288 L 244 283.5 Q 240.5 279.5 242 270.5 L 246.5 264 L 253.5 261 Z M 253 263 L 250 264 Q 245 267 243 274 Q 241 278 245 277 L 244 279 L 246 284 L 249 286 L 255 288 L 266 284 L 265 283 L 267 282 L 268 279 Q 269 271 266 268 L 259 263 L 253 263 Z "/>
    <path fill="#66d9e8" d="M 80.5 325 L 87.5 329 L 104.5 335 L 137.5 342 L 146.5 342 L 147.5 343 L 174.5 345 L 175.5 346 L 185.5 346 L 186.5 347 L 197.5 347 L 198.5 348 L 218.5 348 L 219.5 349 L 280.5 349 L 281.5 348 L 298.5 348 L 299.5 347 L 334.5 345 L 335.5 344 L 343.5 344 L 351.5 342 L 365.5 341 L 403.5 333 L 423.5 326 L 431.5 325 L 437 332.5 L 441 349.5 L 442 365.5 L 443 366.5 L 443 390.5 L 442 391.5 L 441 405.5 L 437 420.5 Q 432.7 430.2 424.5 436 L 386.5 449 L 358.5 455 L 326.5 459 L 325.5 460 L 295.5 462 L 294.5 463 L 280.5 463 L 279.5 464 L 222.5 464 L 221.5 463 L 210.5 463 L 209.5 462 L 187.5 461 L 186.5 460 L 163.5 458 L 162.5 457 L 140.5 455 Q 132.8 451.2 121.5 451 L 96.5 442 Q 85.8 437.2 79 428.5 Q 73.3 419.2 71 406.5 L 71 400.5 L 69 392.5 L 69 361.5 L 73 338.5 L 78 326 L 80.5 325 Z M 428 327 L 427 328 Q 422 326 423 330 L 422 329 L 396 337 L 390 337 L 381 340 L 375 340 L 366 343 L 358 343 L 348 345 L 346 345 L 345 346 L 325 347 L 323 347 L 315 349 L 280 350 L 279 351 L 249 351 L 248 352 L 247 351 L 223 351 L 222 350 L 186 349 L 177 347 L 166 347 L 165 346 L 141 344 L 139 344 L 105 337 L 85 329 L 80 329 L 76 335 L 71 361 L 71 394 Q 74 395 72 402 L 74 413 L 80 426 Q 79 428 82 427 Q 81 431 85 432 Q 87 431 86 434 L 95 439 L 114 447 L 136 451 L 140 453 L 178 457 L 180 457 L 187 459 L 199 459 L 210 461 L 226 461 L 227 462 L 279 462 L 280 461 L 296 461 L 297 460 L 319 459 L 325 457 L 348 455 L 355 453 L 361 453 L 368 450 L 373 450 L 383 447 L 388 447 L 391 445 L 419 437 L 421 435 Q 424 436 423 434 L 425 434 L 433 425 L 437 415 L 436 411 L 438 410 L 441 392 L 441 366 L 440 365 L 440 357 L 436 336 L 433 328 L 428 327 Z "/>
    <path fill="#66d9e8" d="M 250.5 367 Q 263.4 365.1 268 371.5 L 271 377.5 L 272 389.5 L 273 392 L 286.5 393 L 295 397.5 L 298 405.5 L 298 412.5 L 294.5 419 Q 291.7 423.2 285.5 424 L 272 424 L 271 430.5 L 271 432.5 L 271 438.5 L 265.5 447 L 255.5 450 L 247.5 448 L 242 442.5 L 240 437.5 Q 241.1 428.9 238.5 424 L 236.5 424 Q 219.4 426.6 215 416.5 L 214 414.5 L 214 403.5 L 220.5 395 L 224.5 393 L 238.5 392 L 240 390.5 L 240 380.5 Q 241.5 372.9 246.5 369 L 250.5 367 Z M 251 369 L 249 370 L 243 377 L 241 394 Q 228 393 221 397 L 216 403 L 216 415 L 218 418 L 225 422 L 240 422 L 241 424 L 242 437 L 244 443 Q 247 447 253 448 L 263 447 L 269 439 L 270 424 L 272 422 L 287 422 L 291 420 L 296 413 Q 297 404 294 401 Q 288 392 272 394 L 270 393 L 269 378 L 266 373 Q 262 367 251 369 Z "/>
  </g>
  <g id="line">
    <path fill="#1a1a1a" d="M 211.5 38 L 308.5 38 L 309.5 39 L 331.5 39 L 332.5 40 L 361.5 42 L 362.5 43 L 385.5 46 L 389.5 48 L 404.5 51 L 422.5 59 L 433 67.5 L 435 70.5 L 438 73.5 L 444 85.5 L 450 110.5 L 451 126.5 L 452 127.5 L 452 159.5 L 448 178.5 L 439 191.5 L 447 203.5 L 451 217.5 L 453 236.5 L 454 237.5 L 454 279.5 L 452 285.5 L 451 296.5 L 448 305.5 L 441 318.5 L 446 326.5 L 451 342.5 L 453 366.5 L 454 367.5 L 454 389.5 L 453 390.5 L 451 411.5 L 448 422.5 L 442 434.5 L 433.5 443 L 420.5 450 L 406.5 455 L 380.5 462 L 375.5 462 L 349.5 468 L 342.5 468 L 341.5 469 L 318.5 471 L 317.5 472 L 299.5 473 L 298.5 474 L 281.5 474 L 280.5 475 L 225.5 475 L 224.5 474 L 208.5 474 L 198.5 472 L 189.5 472 L 188.5 471 L 178.5 471 L 161.5 468 L 153.5 468 L 119.5 462 L 93.5 453 L 74 440 L 65 425.5 L 61 412.5 L 59 402.5 L 59 392.5 L 58 391.5 L 58 363.5 L 59 362.5 L 59 352.5 L 63 332.5 L 71 317.5 L 64 306.5 L 59 288.5 L 58 266.5 L 57 265.5 L 57 250.5 L 58 249.5 L 59 225.5 L 62 210.5 L 71 190.5 Q 65.1 185.9 62 178.5 L 59 165.5 L 59 156.5 L 58 155.5 L 58 123.5 L 59 122.5 L 59 110.5 L 65 80.5 L 72 67 Q 74.7 68.1 74 65.5 L 81.5 60 L 94.5 54 L 125.5 46 L 144.5 44 L 151.5 42 L 175.5 41 L 176.5 40 L 187.5 40 L 188.5 39 L 210.5 39 L 211.5 38 Z M 213 49 L 212 50 L 196 50 L 195 51 L 179 51 L 178 52 L 157 53 L 156 54 L 135 56 L 129 58 L 123 58 L 98 65 L 84 72 L 79 77 L 75 87 L 75 91 L 72 100 L 70 123 L 69 124 L 69 156 L 72 172 L 75 179 L 81 184 L 92 189 L 129 198 L 153 200 L 154 201 L 164 201 L 165 202 L 208 204 L 209 205 L 288 205 L 289 204 L 336 202 L 337 201 L 346 201 L 347 200 L 369 198 L 406 191 L 431 183 L 438 174 L 441 161 L 441 146 L 442 145 L 441 143 L 441 127 L 440 126 L 438 106 L 429 80 Q 422 70 410 65 L 389 58 L 366 55 L 360 53 L 329 51 L 328 50 L 307 50 L 306 49 L 213 49 Z M 84 197 L 82 198 L 75 207 L 71 222 L 70 233 L 69 234 L 69 245 L 68 246 L 69 282 L 74 302 L 78 309 Q 84 316 95 320 L 122 328 Q 131 328 138 331 L 163 333 L 164 334 L 188 335 L 189 336 L 199 336 L 200 337 L 216 337 L 217 338 L 282 338 L 283 337 L 299 337 L 300 336 L 311 336 L 312 335 L 335 334 L 336 333 L 351 332 L 390 325 L 394 323 L 414 319 L 431 312 L 436 306 L 440 295 L 443 279 L 443 267 L 444 266 L 443 238 L 442 237 L 440 219 L 435 204 L 429 197 L 424 197 L 404 203 L 399 203 L 364 210 L 349 211 L 348 212 L 338 212 L 337 213 L 309 214 L 308 215 L 284 215 L 283 216 L 212 216 L 211 215 L 192 215 L 191 214 L 179 214 L 178 213 L 166 213 L 165 212 L 153 212 L 152 211 L 128 209 L 118 206 L 112 206 L 90 200 L 84 197 Z M 81 325 L 78 326 L 73 339 L 69 362 L 69 393 L 71 401 L 71 407 Q 73 419 79 429 Q 86 437 97 442 L 122 451 Q 133 451 141 455 L 163 457 L 164 458 L 187 460 L 188 461 L 210 462 L 211 463 L 222 463 L 223 464 L 280 464 L 281 463 L 295 463 L 296 462 L 326 460 L 327 459 L 359 455 L 387 449 L 425 436 Q 433 430 437 421 L 441 406 L 442 392 L 443 391 L 443 367 L 442 366 L 441 350 L 437 333 L 432 325 L 424 326 L 404 333 L 366 341 L 352 342 L 344 344 L 336 344 L 335 345 L 300 347 L 299 348 L 282 348 L 281 349 L 220 349 L 219 348 L 199 348 L 198 347 L 187 347 L 186 346 L 176 346 L 175 345 L 148 343 L 147 342 L 138 342 L 105 335 L 88 329 L 81 325 Z "/>
    <path fill="#1a1a1a" d="M 251.5 228 Q 262.3 226.3 266 231.5 Q 266.3 237.3 269.5 240 L 274.5 241 Q 277.3 237.3 283.5 237 L 294 245.5 L 294 253.5 Q 290.4 254.9 291 260.5 L 292 263 L 299.5 265 L 303 268.5 L 304 278.5 L 303 282.5 L 299.5 286 Q 293.1 285.6 291 289.5 Q 290.1 295.9 294 297.5 L 294 304.5 L 289 311 L 283.5 314 L 280.5 314 L 274.5 310 L 271.5 310 L 267 313.5 Q 267.9 320.4 263.5 322 Q 258.7 324.3 250.5 323 L 246 319.5 L 242.5 311 L 238.5 310 Q 235 313.5 228.5 314 L 218 305.5 L 217 300.5 L 221 293.5 L 221 290.5 L 218.5 287 L 212.5 286 L 209 282.5 Q 206.3 278.7 208 270.5 L 210.5 266 Q 212.2 263.2 217.5 264 L 221 260.5 L 221 257.5 L 217 251.5 L 217 247.5 L 225.5 238 L 230.5 237 L 239.5 241 L 244 239 Q 242.9 231.4 248.5 229 L 251.5 228 Z M 252 233 L 248 243 L 240 247 L 232 243 L 228 243 L 222 250 L 227 258 L 224 267 L 215 270 L 213 272 L 213 280 L 217 282 L 223 283 L 227 292 L 223 300 L 223 304 L 229 308 L 232 308 L 238 304 L 247 307 Q 251 309 250 317 L 252 318 L 260 318 L 262 316 L 263 310 L 273 304 L 281 308 L 284 308 L 289 303 L 289 300 L 285 295 L 285 291 L 287 286 L 291 282 L 298 281 L 299 280 L 299 272 L 296 269 L 290 268 L 287 266 L 285 260 L 285 257 L 289 251 L 288 247 L 284 243 L 281 243 L 275 247 L 266 244 Q 262 242 262 236 Q 260 231 252 233 Z "/>
    <path fill="#1a1a1a" d="M 251.5 256 Q 265.1 254.3 270 261.5 L 275 269.5 L 275 280.5 Q 272.9 288.4 266.5 292 Q 262.1 296 252.5 295 L 241 289 L 238 284.5 L 236 274.5 L 238 266.5 L 243.5 260 L 251.5 256 Z M 254 261 L 247 264 L 242 271 Q 241 280 244 284 L 249 288 L 256 290 L 264 288 Q 268 285 270 279 Q 271 271 268 268 Q 264 261 254 261 Z "/>
    <path fill="#1a1a1a" d="M 250.5 369 Q 262.4 366.6 266 372.5 L 269 378.5 L 270 392.5 L 271.5 394 Q 288 392 294 400.5 Q 297.3 404.2 296 412.5 L 290.5 420 L 286.5 422 L 271.5 422 L 270 423.5 L 269 438.5 L 262.5 447 L 252.5 448 Q 246.8 446.8 244 442.5 L 242 436.5 L 241 423.5 L 239.5 422 Q 223.9 424.6 218 417.5 L 216 414.5 L 216 403.5 L 220.5 397 Q 228.3 392.5 241 394 L 243 376.5 L 248.5 370 L 250.5 369 Z M 255 374 L 252 375 L 247 382 L 247 398 L 245 400 L 227 400 L 225 401 L 221 406 L 222 414 L 227 417 L 245 417 L 247 420 L 247 436 L 248 439 L 255 443 L 262 441 L 265 434 L 265 418 L 268 417 L 285 417 L 289 415 L 291 410 L 290 404 L 286 400 L 268 400 L 265 399 Q 267 386 263 378 Q 261 374 255 374 Z "/>
  </g>
</svg>
