<svg xmlns="http://www.w3.org/2000/svg" width="512" height="512" viewBox="0 0 512 512">
  <g id="color">
    <path fill="#ffffff" d="M 171.5 36 L 176 36.5 L 171.5 37 L 171.5 36 Z "/>
    <path fill="#ffffff" d="M 337.5 36 L 347 36.5 L 337.5 37 L 337.5 36 Z "/>
    <path fill="#ffffff" d="M 332.5 38 L 334 38.5 L 330.5 41 L 332.5 38 Z "/>
    <path fill="#ffffff" d="M 352.5 39 L 357 45.5 L 356 45.5 L 352.5 39 Z "/>
    <path fill="#ffffff" d="M 328.5 42 L 328 43.5 L 326.5 47 L 326 45.5 L 328.5 42 Z "/>
    <path fill="#ffffff" d="M 187.5 48 L 188 54.5 L 187 54.5 L 187.5 48 Z "/>
    <path fill="#ffffff" d="M 325.5 48 L 326 55.5 L 324.5 57 L 300.5 57 L 300.5 56 L 324.5 56 L 325 55.5 L 325.5 48 Z "/>
    <path fill="#ffffff" d="M 358.5 51 L 359 68.5 L 358 68.5 L 358.5 51 Z "/>
    <path fill="#ffffff" d="M 154.5 53 L 155 62.5 L 154 62.5 L 154.5 53 Z "/>
    <path fill="#ffffff" d="M 187.5 56 L 189.5 58 L 232 58.5 L 188 59 L 187.5 56 Z "/>
    <path fill="#ffffff" d="M 245.5 57 L 289 57.5 L 245.5 58 L 245.5 57 Z "/>
    <path fill="#ffffff" d="M 155.5 68 L 156 72.5 L 155 72.5 L 155.5 68 Z "/>
    <path fill="#ffffff" d="M 192 80 L 322 81 L 317.5 91 Q 311.3 89.2 309.5 92 L 279.5 92 Q 271 93.5 267 99.5 Q 264.2 102.2 265 108.5 L 271.5 116 L 279.5 118 L 293.5 118 L 297 117 L 292.5 123 Q 277.1 135.1 257.5 143 L 233.5 131 L 217 120 L 217.5 118 L 235.5 118 L 236.5 117 L 251.5 116 L 256 111.5 L 257 103.5 L 252.5 98 L 247.5 96 L 234.5 95 L 233.5 96 L 198.5 96 Q 193 89.7 192 80 Z "/>
    <path fill="#ffffff" d="M 352.5 94 L 353 95.5 L 351.5 98 L 351 96.5 L 352.5 94 Z "/>
    <path fill="#ffffff" d="M 163.5 99 L 165 102.5 L 164 102.5 L 163.5 99 Z "/>
    <path fill="#ffffff" d="M 349.5 101 L 350 102.5 L 348.5 105 L 348 103.5 L 349.5 101 Z "/>
    <path fill="#ffffff" d="M 166.5 106 L 169 109.5 L 167 108.5 L 166.5 106 Z "/>
    <path fill="#ffffff" d="M 345.5 110 L 345 111.5 L 343.5 114 L 344 112.5 L 345.5 110 Z "/>
    <path fill="#ffffff" d="M 342.5 115 L 342 116.5 L 340.5 119 L 341 117.5 L 342.5 115 Z "/>
    <path fill="#ffffff" d="M 172.5 116 L 176 120.5 L 173 118.5 L 172.5 116 Z "/>
    <path fill="#ffffff" d="M 203.5 148 L 208 151.5 L 206.5 151 L 203.5 148 Z "/>
    <path fill="#ffffff" d="M 311.5 148 L 309.5 151 L 303.5 155 L 305.5 152 L 311.5 148 Z "/>
    <path fill="#ffffff" d="M 301.5 155 L 299.5 158 L 297.5 159 L 298.5 157 L 301.5 155 Z "/>
    <path fill="#ffffff" d="M 215.5 156 L 219 158.5 L 217.5 158 L 215.5 156 Z "/>
    <path fill="#ffffff" d="M 215.5 164 L 214.5 166 L 212.5 167 L 213.5 165 L 215.5 164 Z "/>
    <path fill="#ffffff" d="M 307.5 168 L 314 173.5 L 310.5 171 L 307.5 168 Z "/>
    <path fill="#ffffff" d="M 202.5 172 L 199.5 176 L 195.5 179 L 198.5 175 L 202.5 172 Z "/>
    <path fill="#ffffff" d="M 258.5 178 Q 268.9 180.1 275 186.5 Q 260.9 185.4 256 193.5 L 255 199.5 L 258.5 205 L 265.5 208 Q 271 206.5 272.5 209 L 287.5 209 L 288.5 208 L 301.5 208 L 307 214.5 L 307 217 L 205 218 L 212.5 208 L 214.5 207 L 234.5 207 Q 241.1 206.1 244 201.5 L 245 194.5 L 242.5 190 Q 239.5 190.7 241 187 L 258.5 178 Z "/>
    <path fill="#ffffff" d="M 330.5 190 L 336 196.5 L 334 195.5 L 330.5 190 Z "/>
    <path fill="#ffffff" d="M 172.5 202 L 171 204.5 L 169.5 207 L 170 205.5 L 172.5 202 Z "/>
    <path fill="#ffffff" d="M 340.5 204 L 343 207.5 L 341 206.5 L 340.5 204 Z "/>
    <path fill="#ffffff" d="M 168.5 208 L 168 209.5 L 166.5 212 L 167 210.5 L 168.5 208 Z "/>
    <path fill="#ffffff" d="M 344.5 211 L 347 215.5 L 346 215.5 L 344.5 211 Z "/>
    <path fill="#ffffff" d="M 164.5 215 L 164 216.5 L 162.5 220 L 162 218.5 L 164.5 215 Z "/>
    <path fill="#ffffff" d="M 351.5 226 L 353 230.5 L 352 230.5 L 351.5 226 Z "/>
    <path fill="#ffffff" d="M 157.5 233 L 158 234.5 L 156.5 239 L 156 235.5 L 157.5 233 Z "/>
    <path fill="#ffffff" d="M 193.5 239 L 301.5 241 L 302.5 240 L 319 240 L 322 254.5 L 322 271.5 L 321 272.5 L 321 279 L 190 280 L 189 269.5 L 190.5 268 L 241.5 267 L 246.5 266 L 253 261.5 L 254 254.5 L 250.5 250 L 240.5 246 L 193.5 246 Q 192.3 248.3 191 245.5 Q 190.4 240.4 193.5 239 Z "/>
    <path fill="#ffffff" d="M 154.5 246 L 155 250.5 L 154 250.5 L 154.5 246 Z "/>
    <path fill="#ffffff" d="M 357.5 250 L 358 255.5 L 357 255.5 L 357.5 250 Z "/>
    <path fill="#ffffff" d="M 153.5 254 L 154 266.5 L 153 266.5 L 153.5 254 Z "/>
    <path fill="#ffffff" d="M 154.5 272 L 155 276.5 L 154 276.5 L 154.5 272 Z "/>
    <path fill="#ffffff" d="M 357.5 272 L 358 276.5 L 357 276.5 L 357.5 272 Z "/>
    <path fill="#ffffff" d="M 156.5 285 L 158 291.5 L 157 291.5 L 156.5 285 Z "/>
    <path fill="#ffffff" d="M 198 301 L 310 303 L 307 310 L 270.5 310 L 261.5 312 L 256 315 L 253 323.5 L 254 327.5 L 257.5 331 Q 263.9 335.8 276 334 Q 277.1 336.7 274.5 336 L 250.5 348 L 228 336 L 228 333 L 236.5 333 L 244 327.5 L 245 321.5 L 239.5 314 L 235.5 312 L 204.5 312 L 202 309.5 L 198 301 Z "/>
    <path fill="#ffffff" d="M 162.5 305 L 165 310.5 L 164 310.5 L 162.5 305 Z "/>
    <path fill="#ffffff" d="M 345.5 312 L 345 313.5 L 343.5 316 L 344 314.5 L 345.5 312 Z "/>
    <path fill="#ffffff" d="M 342.5 317 L 342 318.5 L 340.5 321 L 341 319.5 L 342.5 317 Z "/>
    <path fill="#ffffff" d="M 199.5 353 L 206 358.5 L 203.5 357 L 199.5 353 Z "/>
    <path fill="#ffffff" d="M 297.5 359 L 296.5 361 L 294.5 362 L 295.5 360 L 297.5 359 Z "/>
    <path fill="#ffffff" d="M 210.5 361 L 215 364.5 Q 215.8 366.8 213.5 366 L 210.5 368 L 211.5 366 L 214 364.5 L 210.5 361 Z "/>
    <path fill="#ffffff" d="M 296.5 369 L 300 371.5 L 298.5 371 L 296.5 369 Z "/>
    <path fill="#ffffff" d="M 203.5 371 L 202.5 373 L 199.5 375 L 201.5 372 L 203.5 371 Z "/>
    <path fill="#ffffff" d="M 249.5 382 L 280 397 L 279.5 399 L 265.5 399 L 257.5 402 L 255 404.5 L 254 413.5 L 260.5 419 L 281.5 421 L 282.5 420 L 303.5 420 L 305.5 419 L 312 426.5 L 312 429 L 278.5 429 L 277.5 430 L 228.5 431 L 227.5 432 L 192 432 Q 192.3 425.9 196.5 423 L 234.5 422 L 244 418 L 247 413.5 L 248 407.5 L 243.5 400 L 237.5 397 L 226.5 396 L 225 396.5 Q 223.8 392.8 227.5 394 L 249.5 382 Z "/>
    <path fill="#ffffff" d="M 172.5 400 L 171 402.5 L 168.5 406 L 170 403.5 L 172.5 400 Z "/>
    <path fill="#ffffff" d="M 339.5 406 L 343 410.5 L 341 409.5 L 339.5 406 Z "/>
    <path fill="#ffffff" d="M 167.5 407 L 167 408.5 L 165.5 411 L 166 409.5 L 167.5 407 Z "/>
    <path fill="#ffffff" d="M 164.5 412 L 165 413.5 L 162.5 417 L 163 415.5 L 164.5 412 Z "/>
    <path fill="#ffffff" d="M 344.5 414 L 347 418.5 L 346 418.5 L 344.5 414 Z "/>
    <path fill="#ffffff" d="M 160.5 421 L 161 422.5 L 159.5 425 L 159 423.5 L 160.5 421 Z "/>
    <path fill="#ffffff" d="M 157.5 429 L 158 431.5 L 156.5 436 L 156 432.5 L 157.5 429 Z "/>
    <path fill="#ffffff" d="M 351.5 429 L 353 433.5 L 352 433.5 L 351.5 429 Z "/>
    <path fill="#ffffff" d="M 154.5 444 L 155 449.5 L 154 449.5 L 154.5 444 Z "/>
    <path fill="#ffffff" d="M 355.5 444 L 357 453.5 L 356 453.5 L 355.5 444 Z "/>
    <path fill="#ffffff" d="M 265.5 452 L 303 452.5 L 265.5 453 L 265.5 452 Z "/>
    <path fill="#ffffff" d="M 307.5 452 L 321.5 452 L 323 453.5 L 322.5 457 L 322 453 L 307.5 453 L 307.5 452 Z "/>
    <path fill="#ffffff" d="M 231.5 453 L 253 453.5 L 231.5 454 L 231.5 453 Z "/>
    <path fill="#ffffff" d="M 323.5 459 L 325 467.5 L 324 467.5 Q 321.7 464.6 323.5 459 Z "/>
    <path fill="#ffffff" d="M 356.5 464 L 357 466.5 L 354.5 470 L 355 468.5 L 356.5 464 Z "/>
    <path fill="#ffffff" d="M 155.5 468 L 161 474.5 L 156 470.5 L 155.5 468 Z "/>
    <path fill="#ffffff" d="M 182.5 471 L 180.5 474 L 178.5 475 L 179.5 473 L 182.5 471 Z "/>
    <path fill="#ffffff" d="M 353.5 471 L 351.5 474 L 349.5 475 L 350.5 473 L 353.5 471 Z "/>
    <path fill="#ffffff" d="M 170.5 476 L 175 476.5 L 170.5 477 L 170.5 476 Z "/>
    <path fill="#4da3ff" d="M 232.5 194 Q 236.3 193.3 237 195.5 L 235.5 199 L 226 198.5 L 232.5 194 Z "/>
    <path fill="#9775fa" d="M 167.5 43 Q 177.6 41.4 180 47.5 L 181 49.5 L 182 71.5 L 187 89.5 Q 197 112.5 215.5 127 Q 230.6 138.4 249 146.5 L 245.5 150 L 235.5 155 L 229.5 156 Q 203 144.5 186 123.5 L 174 106.5 L 166 88.5 L 162 69.5 L 162 48.5 L 164.5 45 L 167.5 43 Z "/>
    <path fill="#9775fa" d="M 339.5 43 Q 347.8 41.7 350 46.5 Q 353.4 54.1 352 66.5 L 347 90.5 L 339 108.5 Q 329.9 124.4 316.5 136 L 286.5 157 L 228.5 187 Q 212 197 200 211.5 Q 189 224 184 242.5 L 183 254.5 L 182 255.5 L 182 272.5 Q 184.7 274.2 183 280.5 L 189 299.5 Q 197.1 317.4 210.5 330 L 222.5 340 L 241 351.5 Q 241.8 353.8 239.5 353 L 222.5 361 Q 199.5 349 184 329.5 Q 173.6 316.4 167 299.5 L 161 276.5 Q 162.3 268.3 160 263.5 L 161 262.5 L 162 241.5 L 167 225.5 Q 177.9 200.9 197.5 185 L 224.5 167 L 282.5 138 Q 299.6 128.1 312 113.5 L 326 90.5 L 332 66.5 L 332 49.5 L 335.5 45 L 339.5 43 Z "/>
    <path fill="#9775fa" d="M 257.5 64 L 324.5 64 L 325 64.5 L 325 71.5 L 324 74 L 320.5 75 L 271.5 75 L 270.5 74 L 219.5 74 L 218.5 73 L 189 73 L 188 66.5 L 189.5 65 L 200.5 65 L 203.5 66 L 204.5 65 L 256.5 65 L 257.5 64 Z "/>
    <path fill="#9775fa" d="M 216.5 102 L 246.5 102 L 250 104.5 Q 251 109 248.5 110 L 245.5 111 L 209.5 112 Q 204.5 108.6 203 103 L 215.5 103 L 216.5 102 Z "/>
    <path fill="#9775fa" d="M 286.5 164 Q 308 174.5 323 191.5 L 338 212.5 L 345 228.5 L 351 252.5 L 351 275.5 L 349 286.5 L 342 305.5 Q 333 322.5 319.5 335 L 306.5 346 L 283.5 360 L 240.5 379 L 221.5 389 Q 207.5 397.5 197 409.5 Q 188.2 420.2 183 434.5 L 179 452.5 L 179 464.5 L 175.5 469 L 166.5 470 L 162 466.5 L 160 453.5 L 161 452.5 L 161 444.5 L 163 433.5 L 166 424.5 L 177 404.5 L 192.5 388 L 202.5 380 L 224.5 367 Q 255.8 354.8 283.5 339 Q 297.6 330.6 308 318.5 Q 317.2 308.2 323 294.5 L 328 276.5 L 329 261.5 L 328 260.5 L 328 251.5 L 326 240.5 L 319 221.5 Q 309.3 202.7 293.5 190 L 269 174.5 Q 276.1 167.6 286.5 164 Z "/>
    <path fill="#9775fa" d="M 268.5 193 L 286.5 193 L 294 199.5 L 293.5 202 L 267.5 202 L 262 200 Q 261 195.3 264.5 194 L 268.5 193 Z "/>
    <path fill="#9775fa" d="M 285.5 223 L 311.5 223 L 314 225.5 L 316 232.5 L 314.5 234 L 258.5 234 L 257.5 233 L 196.5 233 L 195 231.5 L 198 225 L 200.5 224 L 201.5 225 L 212.5 225 L 213.5 224 L 284.5 224 L 285.5 223 Z "/>
    <path fill="#9775fa" d="M 201.5 252 L 238.5 252 L 247 255 Q 247.8 258.8 244.5 260 L 239.5 261 L 189.5 262 Q 186.8 260.8 188 255.5 L 189 253 L 200.5 253 L 201.5 252 Z "/>
    <path fill="#9775fa" d="M 242.5 286 L 317.5 286 L 318 289.5 L 314.5 296 L 243.5 296 L 242.5 295 L 195.5 295 L 194 293.5 L 192 287 L 241.5 287 L 242.5 286 Z "/>
    <path fill="#9775fa" d="M 217.5 318 L 232.5 318 L 238 321.5 Q 238.8 325.3 236.5 326 L 233.5 327 L 217.5 327 L 211 319 L 217.5 318 Z "/>
    <path fill="#9775fa" d="M 277.5 369 L 283.5 370 L 307.5 384 L 331 405.5 Q 341.7 418.8 347 437.5 L 350 450.5 L 350 464.5 L 347.5 468 Q 344.2 471.2 336.5 470 L 330 464.5 L 329 450.5 L 323 432.5 Q 315.8 417.7 304.5 407 Q 285.5 389.7 260 380 Q 258.3 375.9 262.5 377 L 277.5 369 Z "/>
    <path fill="#9775fa" d="M 266.5 405 L 291.5 405 L 299 411.5 Q 299.9 414.5 295.5 413 L 294.5 414 L 265.5 414 L 261 411.5 Q 259.1 406.1 262.5 407 L 266.5 405 Z "/>
    <path fill="#9775fa" d="M 295.5 435 L 315.5 435 L 318 437.5 L 320 444.5 Q 318.8 447.3 313.5 446 L 312.5 445 L 290.5 445 L 289.5 446 L 251.5 446 L 250.5 447 L 187 447 Q 186.3 441.7 189.5 439 L 199.5 439 L 200.5 438 L 235.5 438 L 236.5 437 L 267.5 437 L 268.5 436 L 294.5 436 L 295.5 435 Z "/>
    <path fill="#66d9e8" d="M 283.5 98 L 297.5 99 L 298.5 98 L 312.5 98 Q 315.8 99.8 312 101.5 L 305.5 111 L 280.5 112 L 275.5 111 L 272 107.5 Q 271 102 274.5 101 L 283.5 98 Z "/>
    <path fill="#66d9e8" d="M 231.5 193 Q 237.8 191.8 239 195.5 Q 239.5 199.5 236.5 200 L 223 201 L 224.5 198 L 231.5 193 Z M 233 194 L 226 199 L 236 199 L 237 196 Q 236 193 233 194 Z "/>
    <path fill="#66d9e8" d="M 270.5 316 L 296.5 317 L 299 316 Q 299.8 320.7 295.5 322 L 287.5 328 L 266.5 328 L 260 324.5 Q 259.3 319.8 262.5 319 L 270.5 316 Z "/>
    <path fill="#66d9e8" d="M 213.5 403 L 234.5 403 L 241 407.5 Q 241.8 413.3 237.5 414 L 231.5 416 L 202 416 L 202 413 Q 204.7 414.1 204 411.5 L 213.5 403 Z "/>
  </g>
  <g id="line">
    <path fill="#1a1a1a" d="M 170.5 36 L 179.5 38 L 184 41 L 187 46.5 L 187 54.5 L 188 55.5 L 188 57.5 L 188.5 59 L 231.5 59 L 232.5 58 L 324.5 57 L 326 55.5 L 326 47.5 L 329 41 L 336.5 37 L 347.5 37 L 355 42.5 L 358 49.5 L 358 71.5 L 354 90.5 L 346 109.5 Q 334.7 129.7 317.5 144 L 295 159 L 296.5 162 Q 316.3 172.7 330 189.5 Q 342.2 203.8 350 222.5 L 357 248.5 L 358 271.5 L 357 272.5 L 357 279.5 L 355 289.5 L 346 311.5 Q 335.5 330.5 319.5 344 L 288 365.5 Q 314.6 377.4 333 397.5 Q 343.4 409.6 350 425.5 Q 356.3 441.7 357 463.5 L 351.5 473 Q 347.2 477.2 338.5 477 L 331.5 475 L 327 472 L 324 465.5 L 323 453.5 L 321.5 452 L 265.5 452 L 264.5 453 L 231.5 453 L 230.5 454 L 186 454 L 185 466.5 L 180.5 473 L 175.5 476 Q 170.8 474.8 169.5 477 L 161.5 475 L 157 470.5 Q 152 463.9 154 450.5 L 158 428.5 L 165 411.5 Q 174.8 394.3 189.5 382 L 207.5 369 L 215 366 L 213.5 363 Q 196.6 353.4 184 339.5 L 169 319.5 L 161 302.5 L 155 279.5 L 154 251.5 Q 156.8 249.8 155 243.5 L 161 222.5 L 169 207.5 L 181 191 L 182.5 191 L 203.5 172 L 219.5 162 L 222 162 L 220.5 159 Q 202.6 149.9 189 136.5 Q 189.8 134.3 187.5 135 Q 171.4 119.1 162 96.5 L 156 74.5 L 155 49.5 Q 156.9 41.8 162.5 38 L 170.5 36 Z M 168 43 L 165 45 L 162 49 L 162 70 L 166 89 L 174 107 L 186 124 Q 203 144 230 156 L 236 155 L 248 148 Q 250 149 249 147 Q 231 138 216 127 Q 197 112 187 90 L 182 72 L 181 50 L 180 48 Q 178 41 168 43 Z M 340 43 L 336 45 L 332 50 L 332 67 L 326 91 L 312 114 Q 300 128 283 138 L 225 167 L 198 185 Q 178 201 167 226 L 162 242 L 161 263 L 160 264 Q 162 268 161 277 L 167 300 Q 174 316 184 330 Q 200 349 223 361 L 240 353 Q 242 354 241 352 L 223 340 L 211 330 Q 197 317 189 300 L 183 281 Q 185 274 182 273 L 182 256 L 183 255 L 184 243 Q 189 224 200 212 Q 212 197 229 187 L 287 157 L 317 136 Q 330 124 339 109 L 347 91 L 352 67 Q 353 54 350 47 Q 348 42 340 43 Z M 258 64 L 257 65 L 205 65 L 204 66 L 201 65 L 190 65 L 188 67 L 189 73 L 219 73 L 220 74 L 271 74 L 272 75 L 321 75 L 324 74 L 325 72 L 325 65 L 325 64 L 258 64 Z M 192 80 Q 193 90 199 96 L 234 96 L 235 95 L 248 96 L 253 98 L 257 104 L 256 112 L 252 116 L 237 117 L 236 118 L 218 118 L 217 120 L 234 131 L 258 143 Q 277 135 293 123 L 297 117 L 294 118 L 280 118 L 272 116 L 265 109 Q 264 102 267 100 Q 271 93 280 92 L 310 92 Q 311 89 318 91 L 322 81 L 192 80 Z M 284 98 L 275 101 Q 271 102 272 108 L 276 111 L 281 112 L 306 111 Q 311 106 314 98 L 299 98 L 298 99 L 284 98 Z M 217 102 L 216 103 L 203 103 Q 205 109 210 112 L 246 111 L 249 110 Q 251 109 250 105 L 247 102 L 217 102 Z M 287 164 L 271 173 Q 268 172 269 175 L 294 190 Q 309 203 319 222 L 326 241 L 328 252 L 328 261 L 329 262 L 328 277 L 323 295 Q 317 308 308 319 Q 298 331 284 339 Q 256 355 225 367 L 203 380 L 193 388 L 177 405 L 166 425 L 163 434 L 161 445 L 161 453 L 160 454 L 162 467 L 167 470 L 176 469 L 179 465 L 179 453 L 183 435 Q 188 420 197 410 Q 208 398 222 389 L 241 379 L 284 360 L 307 346 L 320 335 Q 333 322 342 306 L 349 287 L 351 276 L 351 253 L 345 229 L 338 213 L 323 192 Q 308 174 287 164 Z M 259 178 L 241 187 Q 239 191 243 190 L 245 195 L 244 202 Q 241 206 235 207 L 215 207 L 213 208 L 205 218 L 307 217 L 307 215 L 302 208 L 289 208 L 288 209 L 273 209 Q 271 207 266 208 L 259 205 L 255 200 L 256 194 Q 261 185 275 187 Q 269 180 259 178 Z M 232 193 L 225 198 L 223 201 L 237 200 Q 240 200 239 196 Q 238 192 232 193 Z M 269 193 L 265 194 Q 261 195 262 200 L 268 202 L 294 202 L 294 200 L 287 193 L 269 193 Z M 286 223 L 285 224 L 214 224 L 213 225 L 202 225 L 201 224 L 198 225 L 195 232 L 197 233 L 258 233 L 259 234 L 315 234 L 316 233 L 314 226 L 312 223 L 286 223 Z M 194 239 Q 190 240 191 246 Q 192 248 194 246 L 241 246 L 251 250 L 254 255 L 253 262 L 247 266 L 242 267 L 191 268 L 189 270 L 190 280 L 321 279 L 321 273 L 322 272 L 322 255 L 319 240 L 303 240 L 302 241 L 194 239 Z M 202 252 L 201 253 L 189 253 L 188 256 Q 187 261 190 262 L 240 261 L 245 260 Q 248 259 247 255 L 239 252 L 202 252 Z M 243 286 L 242 287 L 192 287 L 194 294 L 196 295 L 243 295 L 244 296 L 315 296 L 318 290 L 318 286 L 243 286 Z M 198 301 L 202 310 L 205 312 L 236 312 L 240 314 L 245 322 L 244 328 L 237 333 L 228 333 L 228 336 L 251 348 L 275 336 Q 277 337 276 334 Q 264 336 258 331 L 254 328 L 253 324 L 256 315 L 262 312 L 271 310 L 307 310 L 310 303 L 198 301 Z M 271 316 L 263 319 Q 259 320 260 325 L 267 328 L 288 328 L 296 322 Q 300 321 299 316 L 297 317 L 271 316 Z M 218 318 L 211 319 L 218 327 L 234 327 L 237 326 Q 239 325 238 322 L 233 318 L 218 318 Z M 278 369 L 263 377 Q 258 376 260 380 Q 286 390 305 407 Q 316 418 323 433 L 329 451 L 330 465 L 337 470 Q 344 471 348 468 L 350 465 L 350 451 L 347 438 Q 342 419 331 406 L 308 384 L 284 370 L 278 369 Z M 250 382 L 228 394 Q 224 393 225 397 L 227 396 L 238 397 L 244 400 L 248 408 L 247 414 L 244 418 L 235 422 L 197 423 Q 192 426 192 432 L 228 432 L 229 431 L 278 430 L 279 429 L 312 429 L 312 427 L 306 419 L 304 420 L 283 420 L 282 421 L 261 419 L 254 414 L 255 405 L 258 402 L 266 399 L 280 399 L 280 397 L 250 382 Z M 214 403 L 204 412 Q 205 414 202 413 L 202 416 L 232 416 L 238 414 Q 242 413 241 408 L 235 403 L 214 403 Z M 267 405 L 263 407 Q 259 406 261 412 L 266 414 L 295 414 L 296 413 Q 300 414 299 412 L 292 405 L 267 405 Z M 296 435 L 295 436 L 269 436 L 268 437 L 237 437 L 236 438 L 201 438 L 200 439 L 190 439 Q 186 442 187 447 L 251 447 L 252 446 L 290 446 L 291 445 L 313 445 L 314 446 Q 319 447 320 445 L 318 438 L 316 435 L 296 435 Z "/>
  </g>
</svg>
