<svg xmlns="http://www.w3.org/2000/svg" width="512" height="512" viewBox="0 0 512 512">
  <g id="color">
    <path fill="#ffffff" d="M 249.5 72 L 269 72.5 L 249.5 73 L 249.5 72 Z "/>
    <path fill="#ffffff" d="M 231.5 73 L 244 73.5 L 231.5 74 L 231.5 73 Z "/>
    <path fill="#ffffff" d="M 274.5 73 L 285 73.5 L 274.5 74 L 274.5 73 Z "/>
    <path fill="#ffffff" d="M 220.5 74 L 226 74.5 L 220.5 75 L 220.5 74 Z "/>
    <path fill="#ffffff" d="M 290.5 74 L 296 74.5 L 290.5 75 L 290.5 74 Z "/>
    <path fill="#ffffff" d="M 300.5 75 L 305 75.5 L 300.5 76 L 300.5 75 Z "/>
    <path fill="#ffffff" d="M 203.5 76 L 208 76.5 L 203.5 77 L 203.5 76 Z "/>
    <path fill="#ffffff" d="M 177.5 81 L 181 81.5 L 174.5 83 L 174.5 82 L 177.5 81 Z "/>
    <path fill="#ffffff" d="M 162.5 85 L 165 85.5 L 159.5 87 L 159.5 86 L 162.5 85 Z "/>
    <path fill="#ffffff" d="M 349.5 85 L 355 86.5 L 352.5 87 L 349.5 86 L 349.5 85 Z "/>
    <path fill="#ffffff" d="M 150.5 89 L 152 89.5 L 145.5 92 L 145.5 91 L 150.5 89 Z "/>
    <path fill="#ffffff" d="M 365.5 90 L 369 91.5 L 367.5 92 L 365.5 90 Z "/>
    <path fill="#ffffff" d="M 139.5 93 L 141 93.5 L 137.5 95 L 137.5 94 L 139.5 93 Z "/>
    <path fill="#ffffff" d="M 375.5 94 L 379 95.5 L 377.5 96 L 375.5 94 Z "/>
    <path fill="#ffffff" d="M 130.5 97 L 129.5 99 L 126.5 100 L 126.5 99 L 130.5 97 Z "/>
    <path fill="#ffffff" d="M 395.5 103 L 399 105.5 L 397.5 105 L 395.5 103 Z "/>
    <path fill="#ffffff" d="M 112.5 106 L 111.5 108 L 109.5 109 L 110.5 107 L 112.5 106 Z "/>
    <path fill="#ffffff" d="M 104.5 111 L 103.5 113 L 101.5 114 L 102.5 112 L 104.5 111 Z "/>
    <path fill="#ffffff" d="M 92.5 119 L 90.5 122 L 87.5 124 L 89.5 121 L 92.5 119 Z "/>
    <path fill="#ffffff" d="M 50.5 167 L 50 168.5 L 47.5 174 L 47 172.5 L 50.5 167 Z "/>
    <path fill="#ffffff" d="M 45.5 177 L 46 178.5 L 44.5 181 L 44 179.5 L 45.5 177 Z "/>
    <path fill="#ffffff" d="M 467.5 180 L 469 183.5 L 468 183.5 L 467.5 180 Z "/>
    <path fill="#ffffff" d="M 36.5 212 L 37 219.5 L 36 219.5 L 36.5 212 Z "/>
    <path fill="#ffffff" d="M 476.5 215 L 477 222.5 L 476 222.5 L 476.5 215 Z "/>
    <path fill="#ffffff" d="M 36.5 233 L 37 240.5 L 36 240.5 L 36.5 233 Z "/>
    <path fill="#ffffff" d="M 476.5 235 L 477 241.5 L 476 241.5 L 476.5 235 Z "/>
    <path fill="#ffffff" d="M 43.5 270 L 46 276.5 L 45 276.5 L 43.5 270 Z "/>
    <path fill="#ffffff" d="M 468.5 272 L 469 273.5 L 467.5 276 L 467 274.5 L 468.5 272 Z "/>
    <path fill="#ffffff" d="M 464.5 281 L 464 282.5 L 461.5 287 L 462 285.5 L 464.5 281 Z "/>
    <path fill="#ffffff" d="M 52.5 290 L 55 293.5 L 53 292.5 L 52.5 290 Z "/>
    <path fill="#ffffff" d="M 96.5 336 L 100 338.5 L 98.5 338 L 96.5 336 Z "/>
    <path fill="#ffffff" d="M 409.5 337 L 408.5 339 L 406.5 340 L 407.5 338 L 409.5 337 Z "/>
    <path fill="#ffffff" d="M 103.5 340 L 107 342.5 L 105.5 342 L 103.5 340 Z "/>
    <path fill="#ffffff" d="M 393.5 345 L 395 345.5 L 389.5 348 L 389.5 347 L 393.5 345 Z "/>
    <path fill="#ffffff" d="M 123.5 350 L 127 351.5 L 125.5 352 L 123.5 350 Z "/>
    <path fill="#ffffff" d="M 381.5 350 L 383 350.5 L 379.5 352 L 379.5 351 L 381.5 350 Z "/>
    <path fill="#ffffff" d="M 132.5 356 L 133 367.5 L 132 367.5 L 132.5 356 Z "/>
    <path fill="#ffffff" d="M 353.5 359 L 356 359.5 L 350.5 361 L 350.5 360 L 353.5 359 Z "/>
    <path fill="#ffffff" d="M 336.5 363 L 340 363.5 L 331.5 365 L 331.5 364 L 336.5 363 Z "/>
    <path fill="#ffffff" d="M 312.5 367 L 317 367.5 L 312.5 368 L 312.5 367 Z "/>
    <path fill="#ffffff" d="M 303.5 368 L 310 368.5 L 303.5 369 L 303.5 368 Z "/>
    <path fill="#ffffff" d="M 294.5 369 L 301 369.5 L 294.5 370 L 294.5 369 Z "/>
    <path fill="#ffffff" d="M 279.5 370 L 288 370.5 L 279.5 371 L 279.5 370 Z "/>
    <path fill="#ffffff" d="M 221.5 371 L 267 371.5 L 221.5 372 L 216.5 377 L 221.5 371 Z "/>
    <path fill="#ffffff" d="M 121.5 405 L 122 406.5 L 119.5 410 L 120 408.5 L 121.5 405 Z "/>
    <path fill="#ffffff" d="M 179.5 410 L 177.5 413 L 174.5 415 L 176.5 412 L 179.5 410 Z "/>
    <path fill="#ffffff" d="M 162.5 421 L 161.5 423 L 159.5 424 L 160.5 422 L 162.5 421 Z "/>
    <path fill="#ffffff" d="M 156.5 424 L 158 424.5 L 153.5 427 L 154.5 425 L 156.5 424 Z "/>
    <path fill="#ffffff" d="M 146.5 429 L 148 429.5 L 144.5 431 L 144.5 430 L 146.5 429 Z "/>
    <path fill="#ffffff" d="M 133.5 434 L 135 434.5 L 130.5 436 L 130.5 435 L 133.5 434 Z "/>
    <path fill="#4da3ff" d="M 241.5 89 L 277.5 89 L 278.5 90 L 290.5 90 L 291.5 91 L 318.5 94 L 343.5 100 L 346.5 102 L 356.5 104 L 369.5 109 L 390.5 119 L 410.5 132 L 423 142 L 425.5 146 L 429 148.5 L 446 171.5 L 451 184.5 L 454 188.5 L 461 218.5 L 461 238.5 L 458 254.5 L 452 271.5 L 437 295 L 435 295 Q 436.5 298.7 433.5 298 L 432 301 L 430 301 Q 431.1 303.7 428.5 303 L 426 304 L 421.5 310 L 409.5 319 L 390.5 330 L 366.5 340 L 345.5 346 L 319.5 351 L 297.5 353 L 296.5 354 L 260.5 355 L 259.5 356 L 225.5 356 L 224.5 355 L 215.5 355 L 210 359.5 L 202.5 369 Q 200.3 368.3 201 370.5 L 198 375 L 193 378.5 L 190.5 382 L 187 383 L 185.5 386 L 163.5 403 L 152.5 409 L 150 409 Q 151.1 411.7 148.5 411 L 138.5 416 L 135 416 L 141 401.5 L 145 387.5 L 148 370.5 L 148 352.5 Q 145.8 351.3 147 346.5 L 142.5 341 L 122.5 333 L 104 323 Q 105.3 320 101.5 321 L 81 303.5 L 67 284.5 L 58 265.5 L 57 257.5 L 54 250.5 L 53 237.5 L 52 236.5 L 52 214.5 L 59 185.5 L 73 160 Q 75.7 161.1 75 158.5 L 81.5 151 Q 83.8 151.8 83 149.5 L 86 145 L 115.5 123 L 134.5 113 L 149.5 108 L 154.5 105 L 170.5 100 L 178.5 99 L 185.5 96 L 190.5 96 L 215.5 91 L 240.5 90 L 241.5 89 Z M 316 182 L 310 184 L 305 192 L 303 199 L 299 202 L 292 202 L 282 205 L 277 213 Q 276 224 284 227 Q 283 229 286 228 L 290 234 Q 291 240 288 243 Q 287 252 290 256 L 295 260 L 299 261 L 305 260 L 317 253 L 331 260 Q 335 259 337 261 L 343 259 L 348 251 Q 350 242 346 240 L 346 233 L 357 222 L 359 217 L 357 209 Q 354 204 349 203 L 335 201 L 328 188 Q 325 181 316 182 Z M 177 190 Q 175 193 170 191 L 167 193 L 164 193 Q 165 196 163 195 Q 156 199 155 208 L 155 220 L 160 232 L 165 239 L 177 250 L 190 258 L 200 258 L 220 243 L 223 239 Q 222 236 225 237 Q 231 229 234 217 L 234 209 L 229 197 L 219 191 Q 202 188 197 197 L 193 197 L 184 191 L 177 190 Z "/>
    <path fill="#ffd43b" d="M 316.5 191 Q 321.3 190.3 322 193.5 L 327 205.5 L 330.5 209 L 340.5 211 L 347.5 211 L 350 213.5 L 350 216.5 L 338 228.5 L 337 237.5 Q 340.1 241.9 339 250.5 Q 338 253 333.5 252 L 321.5 245 L 316.5 244 L 302.5 252 L 298.5 252 Q 295 251 296 245.5 Q 299.1 240.1 299 231.5 L 295 225 L 286 217.5 L 285 214.5 L 286 212 L 288.5 211 L 301.5 210 L 308 206.5 L 313 194.5 L 316.5 191 Z "/>
    <path fill="#ff6b6b" d="M 171 199 L 177.5 200 L 180.5 199 L 188 204.5 Q 185.8 205.8 188.5 207 Q 190.8 206.3 190 208.5 L 191 211 L 195.5 212 L 197 209 L 199 208.5 Q 196.8 207.3 199.5 206 L 202.5 204 L 204 201 L 206.5 200 L 208.5 200 L 210.5 199 L 214.5 200 L 218.5 200 L 224 205.5 Q 221.5 207 225 208.5 L 224 216.5 L 225 218.5 Q 221.9 220.3 223.5 222 L 221 223.5 L 222 225.5 L 221 228 L 218 229.5 L 216 232.5 L 216.5 234 Q 215.3 231.8 214 234.5 L 215 235.5 L 208.5 242 Q 205.2 240.9 206 243.5 L 198.5 249 L 197 248.5 Q 197.8 250.8 195.5 250 L 193.5 249 L 191.5 250 L 191.5 248 L 189.5 249 L 180 241.5 Q 180.8 238.9 177.5 240 L 174.5 235 L 171 232.5 L 167 226.5 L 167.5 225 Q 164.9 225.8 166 222.5 L 164 219.5 L 165 217 L 163 216.5 L 163 214.5 L 164 210.5 L 163.5 209 L 165 209.5 L 164 206.5 L 166 205.5 L 165.5 204 L 168.5 202 L 171 201 L 171 199 Z "/>
    <path fill="#66d9e8" d="M 247.5 87 L 268.5 87 L 269.5 88 L 286.5 88 L 287.5 89 L 304.5 90 L 331.5 95 L 361.5 104 L 395.5 120 Q 415.8 131.8 431 148.5 Q 447 165.5 456 189.5 L 462 214.5 L 463 233.5 L 462 234.5 L 462 243.5 L 460 253.5 L 452 275.5 Q 442.4 293.9 427.5 307 L 415.5 317 L 394.5 330 L 365.5 342 L 344.5 348 L 318.5 353 L 293.5 355 L 292.5 356 L 276.5 356 L 275.5 357 L 215.5 357 L 213 358 L 209 364.5 L 190.5 384 Q 166.3 406.8 132.5 420 Q 129.8 418.8 132 417.5 L 140 399.5 L 144 384.5 L 144 379.5 L 146 372.5 L 146 349.5 L 142.5 343 L 127.5 336 L 122.5 335 L 104.5 325 Q 89.7 315.3 78 302.5 Q 65 287.5 57 267.5 L 51 243.5 L 50 219.5 L 51 218.5 L 51 209.5 L 53 199.5 L 60 179.5 Q 70.8 157.8 87.5 142 L 115.5 121 L 139.5 109 L 155.5 103 L 192.5 93 L 216.5 90 L 217.5 89 L 246.5 88 L 247.5 87 Z M 242 89 L 241 90 L 216 91 L 191 96 L 186 96 L 179 99 L 171 100 L 155 105 L 150 108 L 135 113 L 116 123 L 86 145 L 83 150 Q 84 152 82 151 L 75 159 Q 76 161 73 160 L 59 186 L 52 215 L 52 237 L 53 238 L 54 251 L 57 258 L 58 266 L 67 285 L 81 304 L 102 321 Q 105 320 104 323 L 123 333 L 143 341 L 147 347 Q 146 351 148 353 L 148 371 L 145 388 L 141 402 L 135 416 L 139 416 L 149 411 Q 151 412 150 409 L 153 409 L 164 403 L 186 386 L 187 383 L 191 382 L 193 379 L 198 375 L 201 371 Q 200 368 203 369 L 210 360 L 216 355 L 225 355 L 226 356 L 260 356 L 261 355 L 297 354 L 298 353 L 320 351 L 346 346 L 367 340 L 391 330 L 410 319 L 422 310 L 426 304 L 429 303 Q 431 304 430 301 L 432 301 L 434 298 Q 436 299 435 295 L 437 295 L 452 272 L 458 255 L 461 239 L 461 219 L 454 189 L 451 185 L 446 172 L 429 149 L 426 146 L 423 142 L 411 132 L 391 119 L 370 109 L 357 104 L 347 102 L 344 100 L 319 94 L 292 91 L 291 90 L 279 90 L 278 89 L 242 89 Z "/>
    <path fill="#66d9e8" d="M 315.5 182 Q 325.3 181.3 328 187.5 L 334.5 201 L 348.5 203 Q 354.3 204.3 357 208.5 L 359 216.5 L 357 221.5 L 346 232.5 L 346 239.5 Q 349.6 242.4 348 250.5 L 342.5 259 L 336.5 261 Q 335.2 258.8 330.5 260 L 316.5 253 L 304.5 260 L 298.5 261 L 294.5 260 L 290 255.5 Q 286.5 251.5 288 242.5 Q 290.8 239.8 290 233.5 L 285.5 228 Q 283.3 228.8 284 226.5 Q 276.4 223.6 277 212.5 L 281.5 205 L 291.5 202 L 298.5 202 L 303 198.5 L 305 191.5 L 310 184 L 315.5 182 Z M 315 184 L 313 185 L 307 192 L 303 202 L 300 203 L 298 203 L 284 206 L 279 212 L 280 221 L 292 233 Q 293 239 290 242 L 290 253 L 291 255 L 297 259 L 306 258 L 318 251 L 333 259 Q 340 260 343 257 L 346 251 Q 347 242 344 238 L 344 233 L 356 221 L 357 218 L 357 213 L 354 207 Q 347 203 335 203 L 331 200 L 330 195 L 326 188 Q 324 182 315 184 Z "/>
    <path fill="#66d9e8" d="M 176.5 190 L 183.5 191 L 192.5 197 L 196.5 197 Q 201.9 188.4 218.5 191 L 229 197 L 234 208.5 L 234 216.5 Q 231.1 228.9 225 237 Q 222.3 235.9 223 238.5 L 220 243 L 199.5 258 L 189.5 258 L 176.5 250 L 165 238.5 L 160 231.5 L 155 219.5 L 155 207.5 Q 156.5 199 162.5 195 Q 165.1 195.7 164 193 L 166.5 193 L 169.5 191 Q 175 192.5 176.5 190 Z M 174 192 L 167 194 L 163 197 L 158 204 L 156 212 Q 159 233 173 244 Q 175 243 174 246 Q 181 253 192 257 L 200 256 L 211 249 Q 226 238 232 219 L 232 209 L 229 201 Q 225 194 216 192 Q 201 191 196 200 L 194 200 L 184 193 L 174 192 Z "/>
    <path fill="#f783ac" d="M 164.5 207 L 165 209.5 L 163 210.5 L 164.5 207 Z "/>
    <path fill="#f783ac" d="M 224.5 210 L 225 216.5 L 224 216.5 L 224.5 210 Z "/>
    <path fill="#f783ac" d="M 219.5 228 L 219 229.5 L 214.5 235 L 218 230.5 L 219.5 228 Z "/>
  </g>
  <g id="line">
    <path fill="#1a1a1a" d="M 244.5 73 Q 377.3 71.2 441 138.5 L 457 159.5 L 470 186.5 L 475 205.5 L 476 222.5 L 477 223.5 L 477 234.5 L 476 235.5 L 475 250.5 L 467 276.5 Q 455 302.5 434.5 320 Q 417.4 334.9 395.5 345 L 376.5 353 L 346.5 362 L 336.5 363 L 319.5 367 L 294.5 369 L 293.5 370 L 279.5 370 L 278.5 371 L 221.5 371 L 216 376.5 L 210 385 L 207 386.5 L 204.5 390 L 202 391.5 Q 202.8 393.8 200.5 393 L 187.5 405 L 158.5 424 L 141.5 432 L 126.5 437 L 113.5 439 L 109 437 L 107 429.5 L 117 415.5 L 125 400.5 L 131 380.5 L 132 368.5 L 133 367.5 L 133 356.5 L 132 353 Q 118.5 349.7 107.5 343 L 95.5 336 L 77 322 L 75.5 319 L 72 316.5 Q 55.8 300.2 46 277.5 L 38 250.5 L 37 233.5 L 36 232.5 L 36 220.5 L 37 219.5 L 38 202.5 L 46 176.5 Q 56.5 152 74.5 135 Q 76.8 135.8 76 133.5 L 86.5 124 L 113.5 106 L 131.5 97 L 152.5 89 L 190.5 79 L 214.5 76 L 215.5 75 L 243.5 74 L 244.5 73 Z M 248 87 L 247 88 L 218 89 L 217 90 L 193 93 L 156 103 L 140 109 L 116 121 L 88 142 Q 71 158 60 180 L 53 200 L 51 210 L 51 219 L 50 220 L 51 244 L 57 268 Q 65 288 78 303 Q 90 315 105 325 L 123 335 L 128 336 L 143 343 L 146 350 L 146 373 L 144 380 L 144 385 L 140 400 L 131 420 Q 166 408 191 384 L 209 365 L 213 358 L 216 357 L 276 357 L 277 356 L 293 356 L 294 355 L 319 353 L 345 348 L 366 342 L 395 330 L 416 317 L 428 307 Q 442 294 452 276 L 460 254 L 462 244 L 462 235 L 463 234 L 462 215 L 456 190 Q 447 166 431 149 Q 416 132 396 120 L 362 104 L 332 95 L 305 90 L 288 89 L 287 88 L 270 88 L 269 87 L 248 87 Z "/>
    <path fill="#1a1a1a" d="M 314.5 184 Q 323.5 182.5 326 187.5 L 330 194.5 L 331 199.5 L 334.5 203 Q 346.8 203 354 207 L 357 212.5 L 357 217.5 L 356 220.5 L 344 232.5 L 344 237.5 Q 346.9 242.1 346 250.5 L 342.5 257 Q 339.5 260 332.5 259 L 317.5 251 L 305.5 258 L 296.5 259 L 291 254.5 L 290 252.5 L 290 241.5 Q 292.8 238.8 292 232.5 L 280 220.5 L 279 211.5 L 283.5 206 L 297.5 203 L 299.5 203 L 303 201.5 L 307 191.5 L 312.5 185 L 314.5 184 Z M 317 191 L 313 195 L 308 207 L 302 210 L 289 211 L 286 212 L 285 215 L 286 218 L 295 225 L 299 232 Q 299 240 296 246 Q 295 251 299 252 L 303 252 L 317 244 L 322 245 L 334 252 Q 338 253 339 251 Q 340 242 337 238 L 338 229 L 350 217 L 350 214 L 348 211 L 341 211 L 331 209 L 327 206 L 322 194 Q 321 190 317 191 Z "/>
    <path fill="#1a1a1a" d="M 173.5 192 L 183.5 193 L 193.5 200 L 195.5 200 Q 200.9 191.4 215.5 192 Q 224.6 193.9 229 200.5 L 232 208.5 L 232 218.5 Q 225.5 238 210.5 249 L 199.5 256 L 191.5 257 Q 181.2 252.8 174 245.5 Q 174.8 243.3 172.5 244 Q 158.7 233.3 156 211.5 L 158 203.5 L 162.5 197 L 166.5 194 L 173.5 192 Z M 172 199 L 170 200 Q 165 203 163 210 L 164 221 Q 168 230 175 238 L 192 250 Q 198 251 201 248 L 215 236 Q 214 233 217 234 L 225 219 L 225 208 L 222 202 L 217 199 Q 208 198 205 201 Q 199 204 197 211 L 194 212 L 188 205 Q 184 197 172 199 Z "/>
  </g>
</svg>
