<svg xmlns="http://www.w3.org/2000/svg" width="512" height="512" viewBox="0 0 512 512">
  <g id="color">
    <path fill="#ffffff" d="M 241.5 64 L 242 68.5 L 238.5 70 L 238.5 69 L 241 69 L 241.5 64 Z "/>
    <path fill="#ffffff" d="M 271.5 66 L 273.5 69 L 275 69.5 L 272 70 L 271.5 66 Z "/>
    <path fill="#ffffff" d="M 232.5 75 L 233 82.5 L 230.5 84 L 230.5 83 L 232 82.5 L 232.5 75 Z "/>
    <path fill="#ffffff" d="M 282.5 83 L 286 84.5 L 284.5 85 L 282.5 83 Z "/>
    <path fill="#ffffff" d="M 220.5 87 L 222 87.5 L 217.5 90 L 218.5 88 L 220.5 87 Z "/>
    <path fill="#ffffff" d="M 291.5 87 L 296 89.5 L 294.5 89 Q 290.8 88.7 291.5 87 Z "/>
    <path fill="#ffffff" d="M 187.5 116 L 187 117.5 L 185.5 120 L 186 118.5 L 187.5 116 Z "/>
    <path fill="#ffffff" d="M 330.5 124 L 334 131.5 L 333 131.5 L 330.5 124 Z "/>
    <path fill="#ffffff" d="M 336.5 138 L 338 143.5 L 337 143.5 L 336.5 138 Z "/>
    <path fill="#ffffff" d="M 172.5 158 L 173 166.5 L 171 167.5 L 172 166.5 L 172.5 158 Z "/>
    <path fill="#ffffff" d="M 340.5 158 L 341 166.5 L 342 167.5 L 340 166.5 L 340.5 158 Z "/>
    <path fill="#ffffff" d="M 155.5 191 L 156 199.5 L 155 199.5 L 155.5 191 Z "/>
    <path fill="#ffffff" d="M 357.5 197 L 358 200.5 L 356.5 203 L 356 201.5 L 357.5 197 Z "/>
    <path fill="#ffffff" d="M 349.5 229 L 350 250.5 L 349 250.5 L 349.5 229 Z "/>
    <path fill="#ffffff" d="M 163.5 231 L 164 250.5 L 163 250.5 L 163.5 231 Z "/>
    <path fill="#ffffff" d="M 153.5 253 L 155 253.5 L 148.5 256 L 148.5 255 L 153.5 253 Z "/>
    <path fill="#ffffff" d="M 361.5 254 L 365 255.5 L 363.5 256 L 361.5 254 Z "/>
    <path fill="#ffffff" d="M 141.5 263 L 142 281.5 L 141 281.5 L 141.5 263 Z "/>
    <path fill="#ffffff" d="M 371.5 264 L 372 281.5 L 371 281.5 L 371.5 264 Z "/>
    <path fill="#ffffff" d="M 68.5 281 L 110 281.5 L 68.5 282 L 68.5 281 Z "/>
    <path fill="#ffffff" d="M 402.5 281 L 444 281.5 L 402.5 282 L 402.5 281 Z "/>
    <path fill="#ffffff" d="M 466.5 283 L 469 286.5 L 468 286.5 L 466.5 283 Z "/>
    <path fill="#ffffff" d="M 469.5 288 L 470 293.5 L 469 293.5 L 469.5 288 Z "/>
    <path fill="#ffffff" d="M 43.5 289 L 44 298.5 L 43 298.5 L 43.5 289 Z "/>
    <path fill="#ffffff" d="M 44.5 306 L 45 314.5 L 44 314.5 L 44.5 306 Z "/>
    <path fill="#ffffff" d="M 468.5 306 L 469 315.5 L 468 315.5 L 468.5 306 Z "/>
    <path fill="#ffffff" d="M 45.5 317 L 47 320.5 L 45 319.5 L 45.5 317 Z "/>
    <path fill="#ffffff" d="M 467.5 317 L 468 319.5 L 466 320.5 L 467.5 317 Z "/>
    <path fill="#ffffff" d="M 48.5 322 L 49 328.5 L 48 328.5 L 48.5 322 Z "/>
    <path fill="#ffffff" d="M 464.5 324 L 465 328.5 L 464 328.5 L 464.5 324 Z "/>
    <path fill="#ffffff" d="M 459.5 335 L 458 337.5 L 457.5 358 L 457 337.5 L 459.5 335 Z "/>
    <path fill="#ffffff" d="M 55.5 339 L 56 360.5 L 55 360.5 L 55.5 339 Z "/>
    <path fill="#ffffff" d="M 54.5 368 L 55 399.5 L 54 399.5 L 54.5 368 Z "/>
    <path fill="#ffffff" d="M 458.5 369 L 459 397.5 L 458 397.5 L 458.5 369 Z "/>
    <path fill="#ffffff" d="M 48.5 421 L 47.5 423 L 43 422.5 L 48.5 421 Z "/>
    <path fill="#ffffff" d="M 464.5 421 L 470 422.5 L 465.5 423 L 464.5 421 Z "/>
    <path fill="#ffffff" d="M 472.5 423 L 476 427.5 L 475 427.5 L 472.5 423 Z "/>
    <path fill="#ffffff" d="M 36.5 429 L 37 457.5 L 36 457.5 L 36.5 429 Z "/>
    <path fill="#ffffff" d="M 476.5 429 L 477 457.5 L 476 457.5 L 476.5 429 Z "/>
    <path fill="#ffffff" d="M 39.5 463 L 43 464.5 L 40.5 465 L 39.5 463 Z "/>
    <path fill="#ffffff" d="M 473.5 463 L 472.5 465 L 470 464.5 L 473.5 463 Z "/>
    <path fill="#ffffff" d="M 45.5 465 L 69 465.5 L 45.5 466 L 45.5 465 Z "/>
    <path fill="#ffffff" d="M 445.5 465 L 469 465.5 L 445.5 466 L 445.5 465 Z "/>
    <path fill="#ffffff" d="M 121.5 466 L 170 466.5 L 121.5 467 L 121.5 466 Z "/>
    <path fill="#ffffff" d="M 336.5 466 L 393 466.5 L 336.5 467 L 336.5 466 Z "/>
    <path fill="#ffffff" d="M 205.5 467 L 299 467.5 L 205.5 468 L 205.5 467 Z "/>
    <path fill="#4da3ff" d="M 250.5 87 L 262.5 87 Q 273 89.5 279 96.5 Q 299.6 117.4 303 155.5 Q 302.3 157.8 298.5 157 L 282.5 154 L 245.5 153 L 242.5 154 L 229.5 154 L 228.5 155 L 221.5 155 Q 216.9 157.8 210 157 Q 213 115.8 236.5 94 L 250.5 87 Z "/>
    <path fill="#4da3ff" d="M 222.5 95 L 223 96.5 L 215 108.5 L 207 127.5 L 202 146.5 L 201 159 L 180 163 Q 179.6 146.9 185 135.5 Q 191.4 119.9 202.5 109 L 214.5 99 L 222.5 95 Z "/>
    <path fill="#4da3ff" d="M 290.5 96 L 293.5 96 L 311 109 L 320 120.5 L 328 135.5 L 333 153.5 L 333 163 L 312 159 L 311 146.5 L 306 126.5 L 301 113.5 L 292 100.5 L 290.5 96 Z "/>
    <path fill="#ffd43b" d="M 252.5 50 Q 262.3 48.3 265 53.5 L 267 60.5 L 266 63.5 L 267 67.5 L 265.5 69 L 247 69 L 247 55.5 L 250.5 51 L 252.5 50 Z "/>
    <path fill="#ffd43b" d="M 248.5 74 L 270 74.5 L 248.5 75 L 248.5 74 Z "/>
    <path fill="#ffd43b" d="M 254.5 79 L 259 79.5 L 254.5 80 L 254.5 79 Z "/>
    <path fill="#ffd43b" d="M 244.5 160 L 267.5 160 L 268.5 161 L 291.5 162 L 292.5 163 L 315.5 166 L 335.5 171 L 340 173.5 Q 341.8 180.2 338.5 182 L 316.5 177 L 285.5 174 L 284.5 173 L 246.5 172 L 245.5 173 L 228.5 173 L 227.5 174 L 219.5 174 L 210.5 176 L 202.5 176 L 174.5 182 Q 171.3 180.3 173 173.5 L 177.5 171 L 207.5 164 L 229.5 162 L 230.5 161 L 243.5 161 L 244.5 160 Z "/>
    <path fill="#ffd43b" d="M 232.5 178 L 280.5 178 L 281.5 179 L 292.5 179 L 293.5 180 L 325.5 184 Q 332.2 187.8 342.5 188 L 352 192.5 Q 353.5 199.5 349.5 201 L 327.5 194 L 300.5 189 L 282.5 188 L 281.5 187 L 249.5 186 L 248.5 187 L 231.5 187 L 230.5 188 L 221.5 188 L 220.5 189 L 200.5 191 L 174.5 197 L 164.5 201 L 161 198.5 Q 159.5 192.5 162.5 191 L 193.5 183 L 220.5 180 L 221.5 179 L 231.5 179 L 232.5 178 Z "/>
    <path fill="#ffd43b" d="M 236.5 192 Q 243.5 190.5 243 193.5 L 244 194.5 L 244 235.5 L 239.5 238 L 224.5 239 L 223 237.5 L 223 194.5 L 224.5 193 L 235.5 193 L 236.5 192 Z "/>
    <path fill="#ffd43b" d="M 249 192 L 262.5 192 L 264 193.5 L 264 235.5 L 262.5 237 L 249.5 237 L 249 236.5 L 249 192 Z "/>
    <path fill="#ffd43b" d="M 270 192 L 288.5 193 L 290 194.5 L 290 237.5 L 288.5 239 Q 283 236.5 273.5 238 L 269 235.5 L 270 207.5 L 269 206.5 L 269 194.5 L 270 192 Z "/>
    <path fill="#ffd43b" d="M 215.5 194 L 218 196.5 L 218 237.5 L 217 240 L 205.5 241 L 204 239.5 L 204 231.5 Q 206.3 230.3 205 225.5 L 204 224.5 L 204 197.5 L 205.5 196 L 215.5 194 Z "/>
    <path fill="#ffd43b" d="M 297.5 194 L 307.5 196 L 309 197.5 L 308 225.5 L 309 226.5 L 309 239.5 Q 307.8 242.3 302.5 241 L 296 240 L 295 237.5 L 295 195 L 297.5 194 Z "/>
    <path fill="#ffd43b" d="M 197.5 197 L 199 197.5 L 199 241.5 L 197.5 243 L 186.5 245 L 185 243.5 L 185 201.5 L 188.5 199 L 197.5 197 Z "/>
    <path fill="#ffd43b" d="M 314 197 L 324.5 199 L 328 201.5 L 328 244.5 L 324.5 245 Q 321.6 242.4 315.5 243 L 314 241.5 L 314 197 Z "/>
    <path fill="#ffd43b" d="M 176.5 202 L 180 203.5 L 180 246.5 L 176.5 247 L 171.5 249 L 170 247.5 L 170 204 L 176.5 202 Z "/>
    <path fill="#ffd43b" d="M 334.5 202 L 343 204 L 343 234.5 Q 345.8 236.2 344 242.5 L 343 246.5 Q 345.3 247.7 342.5 249 L 334 247 L 333 244.5 L 333 203.5 L 334.5 202 Z "/>
    <path fill="#ffd43b" d="M 252.5 242 L 280.5 243 L 281.5 244 L 305.5 246 L 341.5 254 L 365 262 L 366 264.5 L 366 281.5 L 364.5 283 L 332.5 283 L 263.5 248 L 253.5 247 L 180.5 283 L 150.5 283 L 147 282 L 147 265.5 L 150.5 261 L 157.5 258 L 159.5 258 L 196.5 248 L 221.5 245 L 222.5 244 L 251.5 243 L 252.5 242 Z "/>
    <path fill="#ffd43b" d="M 238.5 268 L 240 268.5 L 235.5 271 L 236.5 269 L 238.5 268 Z "/>
    <path fill="#ffd43b" d="M 252.5 268 L 260.5 268 L 269.5 272 L 321 298.5 L 311.5 299 L 310.5 300 L 222.5 300 L 221.5 301 L 191.5 301 L 192 299.5 Q 191.3 297.3 193.5 298 L 252.5 268 Z "/>
    <path fill="#ffd43b" d="M 220.5 277 L 219.5 279 L 217.5 280 L 218.5 278 L 220.5 277 Z "/>
    <path fill="#ffd43b" d="M 67.5 287 L 163.5 288 L 166 289 Q 167.1 291.7 164.5 291 L 150 299.5 Q 151.1 302.8 148.5 302 L 147.5 303 L 133.5 303 L 132.5 302 L 50.5 302 L 49 300.5 L 49 289.5 L 50.5 288 L 66.5 288 L 67.5 287 Z "/>
    <path fill="#ffd43b" d="M 398.5 287 L 444.5 287 L 445.5 288 L 463 288 Q 465.3 291.6 464 300.5 L 462.5 302 L 380.5 302 L 379.5 303 L 364.5 303 L 360.5 297 L 349.5 291 L 347 291 L 347.5 288 L 397.5 288 L 398.5 287 Z "/>
    <path fill="#ffd43b" d="M 197.5 288 L 199 288.5 L 195.5 291 L 197.5 288 Z "/>
    <path fill="#ffd43b" d="M 347.5 296 L 351 298.5 L 346.5 299 L 346.5 298 L 348 297.5 L 347.5 296 Z "/>
    <path fill="#ffd43b" d="M 164.5 300 L 169 300.5 L 164.5 301 L 164.5 300 Z "/>
    <path fill="#ffd43b" d="M 171.5 300 L 176 300.5 L 171.5 301 L 171.5 300 Z "/>
    <path fill="#ffd43b" d="M 336.5 304 Q 346.1 302.4 350 306.5 L 349 308.5 L 349 310.5 Q 349.6 315.9 348.5 316 L 280.5 316 L 279.5 317 L 209.5 317 L 208.5 316 L 164 316 L 164 308.5 L 163 307.5 L 164.5 306 L 255.5 306 L 256.5 305 L 335.5 305 L 336.5 304 Z "/>
    <path fill="#ffd43b" d="M 51.5 307 L 51 308.5 L 50.5 312 L 50 308.5 L 51.5 307 Z "/>
    <path fill="#ffd43b" d="M 59.5 307 L 87 307.5 L 59.5 308 L 59.5 307 Z "/>
    <path fill="#ffd43b" d="M 91.5 307 L 103 307.5 L 91.5 308 L 91.5 307 Z "/>
    <path fill="#ffd43b" d="M 407.5 307 L 416 307.5 L 407.5 308 L 407.5 307 Z "/>
    <path fill="#ffd43b" d="M 426.5 307 L 445 307.5 L 426.5 308 L 426.5 307 Z "/>
    <path fill="#ffd43b" d="M 447.5 307 L 460 307.5 L 447.5 308 L 447.5 307 Z "/>
    <path fill="#ffd43b" d="M 152.5 308 L 158 308.5 L 152.5 309 L 152.5 308 Z "/>
    <path fill="#ffd43b" d="M 462.5 312 L 463 315.5 L 461 316.5 L 462.5 312 Z "/>
    <path fill="#ffd43b" d="M 62.5 317 L 72 317.5 L 62.5 318 L 62.5 317 Z "/>
    <path fill="#ffd43b" d="M 73.5 317 L 85 317.5 L 73.5 318 L 73.5 317 Z "/>
    <path fill="#ffd43b" d="M 87.5 317 L 92 317.5 L 87.5 318 L 87.5 317 Z "/>
    <path fill="#ffd43b" d="M 420.5 317 L 438 317.5 L 420.5 318 L 420.5 317 Z "/>
    <path fill="#ffd43b" d="M 441.5 317 L 446 317.5 L 441.5 318 L 441.5 317 Z "/>
    <path fill="#ffd43b" d="M 324.5 321 L 334 321.5 L 324.5 322 L 324.5 321 Z "/>
    <path fill="#ffd43b" d="M 198.5 322 L 206 322 L 206 329.5 L 208 334 L 213 336 L 213 361.5 L 212 362.5 L 212 412.5 L 207 417.5 L 206 423 L 198.5 423 L 197 421.5 Q 196.2 414.7 191 412.5 L 191 357.5 L 190 356.5 L 190 336 L 195 333.5 Q 198 330.5 197 323.5 L 198.5 322 Z "/>
    <path fill="#ffd43b" d="M 240 322 L 272.5 322 Q 273.8 322.3 273 328.5 L 277.5 335 L 281 337.5 L 280 341.5 L 280 374.5 L 279 375.5 L 279 412.5 L 275 416.5 L 272.5 423 L 269 422.5 L 269 403.5 L 266 394.5 L 261.5 390 L 255.5 389 Q 249.8 390.3 247 394.5 L 244 403.5 L 244 423 Q 240.2 424 239 421.5 Q 238.8 414.7 234 412.5 L 234 373.5 L 233 372.5 L 233 339.5 L 232 337.5 L 239 331.5 L 240 322 Z M 251 343 L 248 344 L 245 348 L 245 367 L 246 371 L 249 372 Q 262 374 268 369 L 267 347 Q 263 341 251 343 Z "/>
    <path fill="#ffd43b" d="M 285.5 322 L 292 322.5 L 285.5 323 L 285.5 322 Z "/>
    <path fill="#ffd43b" d="M 307 322 L 316 322 L 316 330.5 L 319.5 335 L 323 336 L 323 353.5 L 322 354.5 L 322 407.5 Q 319.8 408.8 321 413.5 L 317 417.5 L 314.5 423 Q 308.5 424.5 307 421.5 Q 306.2 414.7 301 412.5 L 301 363.5 L 300 362.5 L 300 336 L 306 331.5 L 307 322 Z "/>
    <path fill="#ffd43b" d="M 55.5 323 L 55 324.5 L 54.5 327 L 54 324.5 L 55.5 323 Z "/>
    <path fill="#ffd43b" d="M 83 323 Q 89 320.8 87 327.5 L 91.5 335 L 95 337.5 L 94 342.5 L 94 375.5 L 93 376.5 L 93 414 Q 90.3 412.9 91 415.5 L 86.5 423 Q 82.1 424.5 83 421.5 L 77 412.5 L 76 336 L 80 335 L 83 328.5 L 83 323 Z "/>
    <path fill="#ffd43b" d="M 94.5 323 L 100 323.5 L 93.5 325 L 94.5 323 Z "/>
    <path fill="#ffd43b" d="M 103.5 323 L 108 323.5 L 103.5 324 L 103.5 323 Z "/>
    <path fill="#ffd43b" d="M 158 323 Q 162.6 321.8 164 324.5 Q 162.7 332.8 167.5 335 L 171 336 L 171 351.5 L 170 352.5 L 170 384.5 L 169 385.5 L 169 412.5 L 162.5 423 Q 158 424 157 421.5 L 153.5 414 L 152 413.5 L 152 382.5 L 151 381.5 L 151 344.5 Q 148.5 343 150 337.5 L 156 332.5 L 158 323 Z "/>
    <path fill="#ffd43b" d="M 212.5 323 L 212 324.5 L 211.5 328 L 211 324.5 L 212.5 323 Z "/>
    <path fill="#ffd43b" d="M 350 323 L 355 323 L 355 327.5 L 359.5 335 L 363 337.5 L 362 342.5 L 362 376.5 L 361 377.5 L 361 412.5 L 354.5 423 Q 350 424 349 421.5 Q 348.8 414.7 344 412.5 L 343 346.5 L 342 345.5 L 342 336 L 348 332.5 L 350 323 Z "/>
    <path fill="#ffd43b" d="M 362.5 323 L 368 323.5 L 361.5 325 L 362.5 323 Z "/>
    <path fill="#ffd43b" d="M 410.5 323 L 419 323.5 L 410.5 324 L 410.5 323 Z "/>
    <path fill="#ffd43b" d="M 426 323 L 430 323 L 430 329.5 L 435.5 336 Q 437.8 335.3 437 337.5 L 438 340.5 L 437 341.5 L 437 374.5 L 436 375.5 L 436 412.5 Q 430.6 416 430 423 Q 426.2 424 425 421.5 L 425 418.5 L 420 413.5 L 420 378.5 L 419 377.5 L 419 341.5 L 418 337.5 L 424 332.5 L 426 323 Z "/>
    <path fill="#ffd43b" d="M 457.5 323 Q 459.8 323.8 459 327.5 L 458 327.5 L 457.5 323 Z "/>
    <path fill="#ffd43b" d="M 122.5 324 Q 125.3 323.4 124 329.5 L 129.5 336 L 131 336.5 L 131 362.5 L 130 363.5 L 130 405.5 L 129 406.5 L 130 410.5 L 124 420.5 L 124 423 Q 119.9 424.7 121 420.5 L 115 411.5 L 115 361.5 L 114 360.5 L 114 336 L 119 333.5 L 122.5 324 Z "/>
    <path fill="#ffd43b" d="M 389 324 Q 394.3 322.2 392 329.5 L 395.5 335 L 399 336 L 399 358.5 L 398 359.5 L 398 412.5 L 390.5 423 Q 387.9 423.8 389 420.5 L 384 413.5 L 383 409.5 L 384 406.5 L 383 405.5 L 383 363.5 L 382 362.5 L 382 336 L 388 331.5 L 389 324 Z "/>
    <path fill="#ffd43b" d="M 169.5 327 L 171.5 330 L 175 330.5 L 171.5 331 Q 167.9 329.9 169.5 327 Z "/>
    <path fill="#ffd43b" d="M 321.5 327 L 324 330.5 L 321 328.5 L 321.5 327 Z "/>
    <path fill="#ffd43b" d="M 361.5 327 L 363.5 330 L 367 329.5 Q 367.8 331.8 365.5 331 L 363.5 331 L 361 328.5 L 361.5 327 Z "/>
    <path fill="#ffd43b" d="M 191.5 328 L 189.5 331 L 186 330.5 Q 190.3 330.8 191.5 328 Z "/>
    <path fill="#ffd43b" d="M 233.5 328 L 231.5 331 L 228 330.5 L 233.5 328 Z "/>
    <path fill="#ffd43b" d="M 279.5 328 Q 280.8 330.8 285 330.5 L 281.5 331 L 279.5 328 Z "/>
    <path fill="#ffd43b" d="M 343.5 328 L 341.5 331 L 338 330.5 Q 342.3 330.8 343.5 328 Z "/>
    <path fill="#ffd43b" d="M 329.5 329 L 336 329.5 L 329.5 330 L 329.5 329 Z "/>
    <path fill="#ffd43b" d="M 58.5 330 L 63 330.5 L 58.5 331 L 58.5 330 Z "/>
    <path fill="#ffd43b" d="M 95.5 330 L 101 330.5 L 95.5 331 L 95.5 330 Z "/>
    <path fill="#ffd43b" d="M 411.5 330 L 418 330.5 L 411.5 331 L 411.5 330 Z "/>
    <path fill="#ffd43b" d="M 438.5 330 L 443 330.5 L 438.5 331 L 438.5 330 Z "/>
    <path fill="#ffd43b" d="M 63.5 335 L 70 336 L 70 347.5 L 71 348.5 L 72 409.5 L 69.5 413 Q 63.3 414.8 61.5 412 L 60 412.5 L 61 337.5 L 63.5 335 Z "/>
    <path fill="#ffd43b" d="M 102.5 335 L 108 336 L 109 339.5 L 110 411.5 L 108.5 413 L 100.5 413 L 99 411.5 L 99 351.5 L 100 350.5 L 100 336 L 102.5 335 Z "/>
    <path fill="#ffd43b" d="M 138.5 335 Q 143.8 333.8 145 336.5 L 147 412 L 136 413 L 135 410.5 L 135 374.5 L 136 373.5 L 136 340.5 L 138.5 335 Z "/>
    <path fill="#ffd43b" d="M 177.5 335 Q 183.5 333.5 185 336.5 L 186 413 L 175.5 413 L 175 412.5 L 175 363.5 L 176 362.5 L 176 336.5 L 177.5 335 Z "/>
    <path fill="#ffd43b" d="M 220.5 335 L 227 335 L 227 349.5 L 228 350.5 L 228 400.5 L 229 401.5 L 229 403.5 L 229 411.5 L 227.5 413 L 217.5 413 L 217 412.5 L 217 379.5 L 218 378.5 L 218 344.5 Q 220.7 342.8 219 336.5 L 220.5 335 Z "/>
    <path fill="#ffd43b" d="M 286 335 L 294 335 L 294 340.5 L 295 341.5 L 296 412 Q 292.6 414.1 285 413 L 285 351.5 L 286 350.5 L 286 335 Z "/>
    <path fill="#ffd43b" d="M 329.5 335 Q 335.5 333.5 337 336.5 L 338 413 L 327.5 413 L 327 412.5 L 327 363.5 L 328 362.5 L 328 336.5 L 329.5 335 Z "/>
    <path fill="#ffd43b" d="M 369.5 335 Q 374.8 333.8 376 336.5 L 377 338.5 L 377 370.5 L 378 371.5 L 378 413 L 367.5 413 L 366 411.5 L 367 353.5 L 368 352.5 L 368 336.5 L 369.5 335 Z "/>
    <path fill="#ffd43b" d="M 447.5 335 L 452 337.5 L 453 412.5 L 450.5 413 Q 443.7 413.9 441 412 L 441 387.5 L 442 386.5 L 442 349.5 L 443 348.5 L 443 336 L 447.5 335 Z "/>
    <path fill="#ffd43b" d="M 405.5 336 L 413 336 L 413 352.5 L 414 353.5 L 414 413 L 404.5 413 L 404 411.5 L 403 410.5 L 403 376.5 L 404 375.5 L 404 337.5 L 405.5 336 Z "/>
    <path fill="#ffd43b" d="M 250.5 346 Q 254.3 345.3 255 347.5 Q 256.8 354.3 253.5 356 Q 249 357 248 354.5 Q 246.5 347.5 250.5 346 Z "/>
    <path fill="#ffd43b" d="M 259.5 346 L 264 347 L 265 355 L 259.5 356 Q 256.3 354.3 258 347.5 L 259.5 346 Z "/>
    <path fill="#ffd43b" d="M 248 358 L 255 358 L 255 367.5 Q 254 370 249.5 369 L 248 367.5 L 248 358 Z "/>
    <path fill="#ffd43b" d="M 258 358 L 265 358 L 265 368 L 258 368 L 258 358 Z "/>
    <path fill="#ffd43b" d="M 254.5 393 L 258 393.5 L 253.5 395 L 254.5 393 Z "/>
    <path fill="#ffd43b" d="M 259.5 394 L 263 398.5 L 262 398.5 L 259.5 394 Z "/>
    <path fill="#ffd43b" d="M 248.5 405 L 249 418.5 L 248 418.5 L 248.5 405 Z "/>
    <path fill="#ffd43b" d="M 65.5 418 L 74 418.5 L 65.5 419 L 65.5 418 Z "/>
    <path fill="#ffd43b" d="M 96.5 418 L 112.5 418 L 115 420.5 L 112.5 419 L 96.5 419 L 94.5 420 L 94.5 419 L 96.5 418 Z "/>
    <path fill="#ffd43b" d="M 138.5 418 L 149 418.5 L 138.5 419 L 138.5 418 Z "/>
    <path fill="#ffd43b" d="M 214.5 418 L 213 420.5 L 212.5 423 L 212 420.5 L 214.5 418 Z "/>
    <path fill="#ffd43b" d="M 282.5 418 L 288 418.5 L 282.5 419 L 282.5 418 Z "/>
    <path fill="#ffd43b" d="M 294.5 418 Q 300 417 301 420.5 L 298.5 419 Q 293.5 420 294.5 418 Z "/>
    <path fill="#ffd43b" d="M 364.5 418 L 380.5 418 L 383 420.5 L 382.5 423 L 380.5 419 L 364.5 419 L 364.5 418 Z "/>
    <path fill="#ffd43b" d="M 402.5 418 L 411 418.5 L 402.5 419 L 402.5 418 Z "/>
    <path fill="#ffd43b" d="M 412.5 418 L 419 419 L 419 423 L 417.5 423 L 418 421.5 L 416.5 419 Q 411.5 420 412.5 418 Z "/>
    <path fill="#ffd43b" d="M 439.5 418 L 449 418.5 L 439.5 419 L 439.5 418 Z "/>
    <path fill="#ffd43b" d="M 450.5 418 L 455 418.5 L 450.5 419 L 450.5 418 Z "/>
    <path fill="#ffd43b" d="M 56.5 419 L 56 420.5 L 55.5 423 L 55 420.5 L 56.5 419 Z "/>
    <path fill="#ffd43b" d="M 75.5 419 L 77 423 L 75 422.5 L 76 420.5 L 75.5 419 Z "/>
    <path fill="#ffd43b" d="M 399.5 419 L 399 420.5 Q 398.3 422.8 400.5 422 L 400.5 423 Q 396.8 424.3 398 420.5 L 399.5 419 Z "/>
    <path fill="#ffd43b" d="M 144.5 422 L 151 422.5 L 144.5 423 L 144.5 422 Z "/>
    <path fill="#ffd43b" d="M 249.5 422 L 257 422.5 L 249.5 423 L 249.5 422 Z "/>
    <path fill="#ffd43b" d="M 44 428 L 58.5 428 L 59.5 429 L 95.5 429 L 96.5 428 L 114.5 428 L 115.5 429 L 132.5 429 L 133.5 428 L 149.5 428 L 152.5 429 Q 153.8 426.7 155 429.5 L 155 439.5 L 153.5 441 Q 147.3 440.3 146 444.5 L 145 446.5 L 144.5 461 L 142.5 461 L 131.5 461 L 130.5 460 L 53.5 460 L 52.5 459 L 43 459 L 42 456.5 L 42 431.5 L 44 428 Z "/>
    <path fill="#ffd43b" d="M 162.5 428 L 196.5 429 L 197.5 428 L 216.5 428 L 219.5 429 L 221.5 428 L 223.5 428 L 236.5 428 L 237.5 429 L 283.5 429 L 284.5 428 L 347.5 428 L 353 430.5 L 353 443.5 L 355.5 446 L 362 447 Q 363.8 450.8 363 458.5 L 362 461 L 299.5 461 L 298.5 462 L 213.5 462 L 212.5 461 L 151 461 Q 149.1 458.3 150 451.5 L 151 447 L 157.5 446 L 160 443.5 L 160 429.5 L 161.5 429 L 162.5 428 Z "/>
    <path fill="#ffd43b" d="M 359.5 428 L 379.5 428 L 380.5 429 L 459.5 429 L 460.5 428 L 468.5 428 L 471 431.5 L 471 456.5 L 468.5 459 Q 463 457.5 461.5 460 L 386.5 460 L 385.5 461 L 369 461 L 368 458.5 L 368 446.5 L 364.5 442 L 358 440.5 L 358 438.5 L 358 429.5 L 359.5 428 Z "/>
    <path fill="#ffa94d" d="M 244.5 74 L 248.5 75 L 271.5 75 L 274 76 L 275 81 L 254.5 79 L 253.5 80 L 244.5 80 L 239 81 L 239 76 L 240.5 76 L 244.5 74 Z "/>
    <path fill="#ffa94d" d="M 251.5 253 Q 260.5 252 265.5 255 L 313.5 279 L 316.5 282 L 319.5 282 L 339.5 292 L 348 297.5 L 345.5 299 L 336.5 299 L 335.5 300 L 310.5 286 L 307.5 286 L 300.5 281 L 299.5 282 Q 297.2 277.8 295 279.5 Q 295.8 277.3 293.5 278 L 276.5 269 L 275 269.5 Q 275.8 267.3 273.5 268 L 268.5 265 L 267 265.5 Q 267.8 262.9 264.5 264 L 261.5 262 L 255.5 261 L 246 264 Q 247.3 267 243.5 266 L 228 273 Q 229.3 276 225.5 275 L 208.5 283 L 205.5 286 L 197.5 288 L 191.5 293 L 177.5 300 L 169.5 301 L 164.5 300 L 161 301 Q 159.3 296.5 164.5 298 L 171.5 293 L 199 281 L 199.5 279 L 201.5 279 L 251.5 253 Z "/>
    <path fill="#ffa94d" d="M 52.5 307 L 54.5 308 L 58.5 307 L 59.5 308 L 86.5 308 L 90.5 307 L 91.5 308 L 102.5 308 L 105.5 307 L 106.5 308 L 146.5 308 L 148.5 309 L 151.5 308 L 158 309 L 157.5 318 L 155.5 318 L 92.5 318 L 87.5 317 L 85.5 318 L 84.5 317 L 73.5 317 L 71.5 317 L 52.5 317 Q 53.1 314.3 50 315 L 50 312.5 L 52.5 307 Z "/>
    <path fill="#ffa94d" d="M 406.5 307 L 407.5 308 L 415.5 308 L 417.5 308 L 425.5 307 L 426.5 308 L 444.5 308 L 446.5 307 L 447.5 308 L 459.5 308 Q 460.8 305.8 462 308.5 L 463 311.5 L 460.5 317 L 447.5 317 L 446.5 318 L 441.5 317 L 438.5 318 L 437.5 317 L 420.5 317 L 415.5 318 L 413.5 317 L 412.5 318 L 355 318 L 356 308 L 359.5 309 L 360.5 308 L 405.5 308 L 406.5 307 Z "/>
    <path fill="#ffa94d" d="M 334.5 321 L 336.5 322 L 338.5 321 L 343 322 L 344 327.5 Q 342.8 331.3 336.5 330 Q 335 327.5 329.5 329 L 324.5 331 L 321 326.5 L 322 322 L 333.5 322 L 334.5 321 Z "/>
    <path fill="#ffa94d" d="M 170 322 L 190.5 322 L 191 324.5 L 192 327.5 Q 191 331 185.5 330 L 182.5 329 L 171.5 330 L 169 324.5 L 170 322 Z "/>
    <path fill="#ffa94d" d="M 213 322 L 226.5 322 L 227.5 323 L 229.5 322 L 231.5 323 L 233 322.5 L 234 327.5 Q 232 330.5 226.5 330 L 224.5 330 L 222.5 329 L 221.5 330 L 213.5 330 Q 211 329 212 324.5 L 213 322 Z "/>
    <path fill="#ffa94d" d="M 281.5 322 L 291.5 323 Q 293 320.5 298.5 322 L 301 323 L 301 329.5 L 299.5 330 L 297.5 330 L 288.5 329 L 285.5 330 Q 280 331 279 327.5 Q 278.3 322.8 281.5 322 Z "/>
    <path fill="#ffa94d" d="M 56.5 323 L 68.5 323 L 69.5 324 L 71.5 323 L 74.5 324 Q 75.8 321.8 77 324.5 L 76 326.5 L 77 328.5 L 76 331 Q 69.6 328.9 58.5 330 L 57.5 331 L 54 327.5 L 56.5 323 Z "/>
    <path fill="#ffa94d" d="M 100.5 323 L 107.5 324 L 111.5 324 L 116 325 L 113.5 330 L 111.5 331 L 110.5 330 L 94 329.5 L 94.5 328 Q 91.9 328.8 93 325.5 L 94.5 324 Q 99.2 325.3 100.5 323 Z "/>
    <path fill="#ffa94d" d="M 132.5 323 L 133.5 324 L 148.5 324 L 150.5 323 Q 152.8 323.8 152 327.5 L 150 331 L 145.5 330 Q 144 332.5 142.5 329 L 139.5 330 L 137.5 330 L 133.5 331 L 129 327.5 L 130 324 L 132.5 323 Z "/>
    <path fill="#ffa94d" d="M 368.5 323 L 375.5 324 L 380.5 323 L 383 324 L 383 329 Q 380.3 327.9 381 330.5 L 379.5 330 L 375.5 329 L 370.5 330 L 369.5 329 L 367 330.5 L 366.5 329 Q 364.3 333.3 362 328.5 L 361 325.5 L 362.5 324 Q 367.3 325.3 368.5 323 Z "/>
    <path fill="#ffa94d" d="M 400.5 323 L 402.5 324 L 404.5 324 L 409.5 323 L 410.5 324 L 420 324 L 419 330 L 402.5 330 L 401.5 331 L 398 328.5 Q 396.1 323.1 399.5 324 L 400.5 323 Z "/>
    <path fill="#ffa94d" d="M 437.5 323 L 441.5 323 L 456.5 323 L 458 324.5 L 458 330 L 455.5 330 L 453.5 331 L 452.5 330 L 436 330 L 435 326.5 L 437.5 323 Z "/>
    <path fill="#ffa94d" d="M 254.5 394 Q 261 393 262 397.5 L 264 400.5 L 264 402.5 L 265 417.5 L 263.5 423 L 261.5 423 L 258.5 422 L 256.5 422 Q 249.8 423.8 248 420.5 L 249 418.5 L 249 402.5 L 250 397.5 L 252.5 395 L 254.5 394 Z M 260 407 L 257 410 Q 260 415 262 410 Q 263 406 260 407 Z "/>
    <path fill="#ffa94d" d="M 57.5 418 L 60.5 419 L 64.5 418 L 65.5 419 L 74.5 419 L 76 420.5 L 74.5 423 L 72.5 422 Q 71 424.5 65.5 423 L 63.5 423 L 56.5 423 L 56 420.5 L 57.5 418 Z "/>
    <path fill="#ffa94d" d="M 137.5 418 L 138.5 419 L 149.5 419 L 151 420.5 Q 151.5 423.5 144.5 422 L 141.5 423 L 138.5 422 L 133.5 423 L 131.5 423 L 130 422.5 L 132.5 419 L 137.5 418 Z "/>
    <path fill="#ffa94d" d="M 175.5 418 L 177.5 419 Q 179 416.5 184.5 418 L 190 419 L 191 421.5 L 189.5 423 L 179.5 423 L 177.5 423 L 171.5 422 L 170 422.5 Q 168.9 419.2 171.5 420 L 175.5 418 Z "/>
    <path fill="#ffa94d" d="M 215.5 418 L 217.5 418 L 231.5 419 L 234 421.5 Q 228.4 424.4 218.5 423 L 216.5 423 Q 211.7 424.7 213 420.5 L 215.5 418 Z "/>
    <path fill="#ffa94d" d="M 288.5 418 L 292.5 419 L 294.5 419 Q 300 418 301 421.5 Q 294.6 424.6 283.5 423 L 281.5 422 L 280 422.5 L 279 420.5 L 288.5 418 Z "/>
    <path fill="#ffa94d" d="M 325.5 418 L 328.5 419 L 333.5 418 L 337.5 418 L 343 420.5 L 340.5 423 L 338.5 423 L 322.5 423 L 322 420.5 L 325.5 418 Z "/>
    <path fill="#ffa94d" d="M 400 418 Q 403 420 410.5 419 L 412.5 419 Q 417 418 418 420.5 L 416.5 423 L 405.5 422 L 401.5 423 L 399 422 L 400 418 Z "/>
    <path fill="#ffa94d" d="M 449.5 418 Q 450.8 420.3 455.5 419 L 458 421.5 Q 451.3 424.8 439.5 423 L 437 422 L 438.5 419 L 448.5 419 L 449.5 418 Z "/>
    <path fill="#ffa94d" d="M 96.5 419 L 112.5 419 L 115 421.5 Q 113.3 424.8 106.5 423 L 104.5 423 L 100.5 422 L 96.5 423 L 94 422 Q 92.9 419.3 95.5 420 L 96.5 419 Z "/>
    <path fill="#ffa94d" d="M 363.5 419 L 380.5 419 L 382 420.5 Q 383.3 424.7 378.5 423 L 374.5 422 Q 372.8 424.7 366.5 423 L 363.5 422 Q 361.3 422.8 362 420.5 L 363.5 419 Z "/>
    <path fill="#66d9e8" d="M 252.5 85 Q 271.7 84.8 280 95.5 L 289 106.5 L 298 124.5 L 303 140.5 L 305 157.5 L 302.5 159 L 295.5 157 L 276.5 156 L 275.5 155 L 237.5 155 L 236.5 156 L 216.5 157 L 209.5 159 Q 206.5 157.5 208 151.5 L 211 136.5 L 220 113.5 Q 226 101.4 235.5 93 L 247.5 86 L 252.5 85 Z M 251 87 L 237 94 Q 213 116 210 157 Q 217 158 222 155 L 229 155 L 230 154 L 243 154 L 246 153 L 283 154 L 299 157 Q 302 158 303 156 Q 300 117 279 97 Q 273 90 263 87 L 251 87 Z "/>
    <path fill="#66d9e8" d="M 227.5 91 L 230 91.5 L 225 96.5 L 214 113.5 L 206 135.5 L 203 149.5 L 203 157.5 L 200.5 161 L 178 165 L 180 145.5 L 185 131.5 Q 191.6 118.1 201.5 108 Q 211.9 96.9 227.5 91 Z M 223 95 L 215 99 L 203 109 Q 191 120 185 136 Q 180 147 180 163 L 201 159 L 202 147 L 207 128 L 215 109 L 223 97 L 223 95 Z "/>
    <path fill="#66d9e8" d="M 284 91 L 299.5 98 L 318 115.5 Q 326.9 126.6 332 141.5 L 335 165 L 311 160 L 310 157.5 L 309 142.5 L 302 120.5 L 294 104.5 L 284 91 Z M 291 96 L 292 101 L 301 114 L 306 127 L 311 147 L 312 159 L 333 163 L 333 154 L 328 136 L 320 121 L 311 109 L 294 96 L 291 96 Z "/>
  </g>
  <g id="line">
    <path fill="#1a1a1a" d="M 254.5 44 Q 264.7 43.8 269 49.5 L 272 58.5 L 272 65.5 L 271 67.5 L 272 70 Q 277 69.2 279 72.5 Q 281.7 75.8 281 82.5 L 282.5 84 Q 306.7 92.3 321 110.5 Q 329.8 120.7 335 134.5 L 339 148.5 L 340 166.5 L 341.5 168 L 344 169.5 Q 347.4 174.7 346 184 L 353.5 186 L 356 188.5 L 358 196.5 L 356 203.5 L 353.5 206 Q 349 205.5 349 206.5 L 349 251 L 365.5 256 L 370 260.5 L 371 262.5 L 371 282 L 463.5 282 L 468 285.5 L 470 294.5 L 470 302.5 L 468 306.5 Q 469.3 317.1 466 322 L 464 322.5 L 464 330.5 L 460.5 335 L 457 337.5 L 459 411.5 L 458 412.5 L 463 417.5 L 465.5 423 Q 473.5 421.5 475 426.5 L 476 428.5 L 476 460.5 L 475 463 L 469.5 465 L 445.5 465 L 444.5 466 L 170.5 467 L 169.5 466 L 69.5 466 L 68.5 465 L 43.5 465 L 38 463 L 37 460.5 L 37 427.5 L 39.5 424 L 47.5 423 L 49 421.5 Q 49.7 414.7 55 412.5 L 54 411.5 L 54 400.5 L 55 399.5 L 55 361.5 L 56 360.5 L 56 336 L 50 332.5 L 49 322 Q 46.3 323.1 47 320.5 L 45 316.5 L 45 306.5 L 43 299.5 L 44 298.5 L 44 287.5 L 47.5 283 L 49.5 282 L 142 282 L 142 262.5 L 144 258 L 164 251 L 164 207.5 L 162.5 207 L 158 204.5 Q 154.3 200.2 156 190.5 L 158.5 187 L 167 184 Q 164.9 172.6 170.5 168 L 173 166.5 L 174 147.5 L 179 131.5 L 188 115.5 L 204.5 98 L 214.5 91 L 233 82.5 Q 232 75 234 72 L 242 68.5 L 241 58.5 L 242 53.5 L 246.5 47 L 254.5 44 Z M 253 50 L 251 51 L 247 56 L 247 69 L 266 69 L 267 68 L 266 64 L 267 61 L 265 54 Q 262 48 253 50 Z M 243 74 L 241 75 Q 237 76 238 81 L 248 81 L 249 80 L 266 80 L 267 81 L 275 81 L 274 75 L 270 74 L 243 74 Z M 253 85 L 248 86 L 236 93 Q 226 101 220 114 L 211 137 L 208 152 Q 206 157 210 159 L 217 157 L 237 156 L 238 155 L 276 155 L 277 156 L 296 157 L 303 159 L 305 158 L 303 141 L 298 125 L 289 107 L 280 96 Q 272 85 253 85 Z M 228 91 Q 212 97 202 108 Q 192 118 185 132 L 180 146 L 178 165 L 201 161 L 203 158 L 203 150 L 206 136 L 214 114 L 225 97 L 230 92 L 228 91 Z M 284 91 Q 293 101 300 116 L 308 139 L 310 149 L 310 158 L 311 160 L 335 165 L 332 142 Q 327 127 318 116 L 300 98 L 289 92 L 284 91 Z M 245 160 L 244 161 L 231 161 L 230 162 L 208 164 L 175 172 L 173 174 L 173 182 L 203 176 L 211 176 L 220 174 L 228 174 L 229 173 L 246 173 L 247 172 L 285 173 L 286 174 L 317 177 L 338 182 L 340 182 L 340 174 L 336 171 L 316 166 L 293 163 L 292 162 L 269 161 L 268 160 L 245 160 Z M 233 178 L 232 179 L 222 179 L 221 180 L 214 180 L 213 181 L 189 184 L 168 189 L 161 193 Q 160 200 164 201 L 175 197 L 201 191 L 221 189 L 222 188 L 231 188 L 232 187 L 249 187 L 250 186 L 282 187 L 283 188 L 301 189 L 328 194 L 350 201 Q 354 200 352 193 L 343 188 Q 332 188 326 184 L 294 180 L 293 179 L 282 179 L 281 178 L 233 178 Z M 237 192 L 236 193 L 225 193 L 223 195 L 223 238 L 225 239 L 240 238 L 244 236 L 244 195 L 243 194 Q 244 190 237 192 Z M 249 192 L 249 237 L 264 237 L 264 192 L 249 192 Z M 270 192 L 269 195 L 269 207 L 270 208 L 269 236 L 274 238 Q 283 237 289 239 L 290 238 L 290 195 L 289 193 L 270 192 Z M 216 194 L 206 196 L 204 198 L 204 225 L 205 226 Q 206 230 204 232 L 204 240 L 206 241 L 217 240 L 218 238 L 218 197 L 216 194 Z M 298 194 L 295 195 L 295 238 L 296 240 L 303 241 Q 308 242 309 240 L 309 227 L 308 226 L 309 198 L 308 196 L 298 194 Z M 198 197 L 189 199 L 185 202 L 185 244 L 187 245 L 198 243 L 199 242 L 199 198 L 198 197 Z M 314 197 L 314 242 L 316 243 Q 322 242 325 245 L 328 245 L 328 202 L 325 199 L 314 197 Z M 177 202 L 172 204 L 170 205 L 170 249 L 180 247 L 180 203 L 177 202 Z M 333 202 L 333 246 L 343 249 Q 345 248 343 247 L 344 243 Q 346 236 343 235 L 343 204 L 333 202 Z M 253 242 L 252 243 L 223 244 L 222 245 L 197 248 L 172 254 L 151 261 L 147 266 L 147 282 L 151 283 L 181 283 L 254 247 L 264 248 L 333 283 L 365 283 L 366 282 L 366 265 L 365 262 L 342 254 L 306 246 L 282 244 L 281 243 L 253 242 Z M 257 252 L 252 253 L 162 298 Q 159 300 162 301 Q 172 303 179 300 L 200 288 L 253 262 L 260 262 L 270 266 L 336 300 L 337 299 L 351 299 L 262 253 L 257 252 Z M 253 268 L 193 298 L 191 301 L 222 301 L 223 300 L 311 300 L 312 299 L 321 299 L 270 272 L 261 268 L 253 268 Z M 68 287 L 67 288 L 51 288 L 49 290 L 49 301 L 51 302 L 133 302 L 134 303 L 148 303 L 149 302 Q 151 303 150 300 Q 156 293 166 291 L 167 288 L 68 287 Z M 399 287 L 398 288 L 347 288 L 346 290 L 361 297 L 365 303 L 380 303 L 381 302 L 463 302 L 464 301 Q 465 292 463 288 L 446 288 L 445 287 L 399 287 Z M 337 304 L 336 305 L 257 305 L 256 306 L 165 306 L 163 308 L 164 309 L 164 316 L 209 316 L 210 317 L 280 317 L 281 316 L 349 316 Q 350 316 349 311 L 349 309 L 350 307 Q 346 302 337 304 Z M 52 307 L 50 309 Q 49 315 51 317 L 62 317 L 63 318 L 158 318 L 158 318 L 158 308 L 52 307 Z M 407 307 L 406 308 L 356 308 L 355 309 L 355 318 L 450 318 L 451 317 L 462 317 Q 465 315 463 309 L 462 307 L 407 307 Z M 325 321 L 321 324 Q 320 330 324 331 L 328 330 L 342 331 Q 345 330 344 324 L 341 321 L 325 321 Z M 170 322 L 169 325 Q 168 330 172 331 L 176 330 L 190 331 Q 193 330 192 324 L 191 322 L 170 322 Z M 199 322 L 197 324 Q 198 331 195 334 L 190 336 L 190 357 L 191 358 L 191 413 Q 196 415 197 422 L 199 423 L 206 423 L 207 418 L 212 413 L 212 363 L 213 362 L 213 336 L 208 334 L 206 330 L 206 322 L 199 322 Z M 214 322 L 211 325 L 212 330 L 215 331 L 218 330 L 232 331 Q 235 330 234 324 L 233 322 L 214 322 Z M 240 322 L 239 332 L 232 338 L 233 340 L 233 373 L 234 374 L 234 413 Q 239 415 239 422 Q 240 424 244 423 L 244 404 L 247 395 Q 250 390 256 389 L 262 390 L 266 395 L 269 404 L 269 423 L 273 423 L 275 417 L 279 413 L 279 376 L 280 375 L 280 342 L 281 338 L 278 335 L 273 329 Q 274 322 273 322 L 240 322 Z M 281 322 L 279 324 Q 278 330 282 331 L 286 330 L 296 330 L 297 331 L 301 330 L 302 325 L 300 322 L 281 322 Z M 307 322 L 306 332 L 300 336 L 300 363 L 301 364 L 301 413 Q 306 415 307 422 Q 309 425 315 423 L 317 418 L 321 414 Q 320 409 322 408 L 322 355 L 323 354 L 323 336 L 320 335 L 316 331 L 316 322 L 307 322 Z M 56 323 L 54 325 Q 53 330 57 331 Q 62 333 64 330 L 76 331 L 78 328 L 77 325 L 77 323 L 56 323 Z M 83 323 L 83 329 L 80 335 L 76 336 L 77 413 L 83 422 Q 82 425 87 423 L 91 416 Q 90 413 93 414 L 93 377 L 94 376 L 94 343 L 95 338 L 92 335 L 87 328 Q 89 321 83 323 Z M 95 323 L 93 325 Q 92 330 96 331 Q 100 332 102 330 L 114 331 L 116 326 L 112 323 L 95 323 Z M 133 323 L 129 326 L 132 331 L 137 330 Q 143 328 145 331 Q 151 332 152 329 Q 153 324 151 323 L 147 324 L 135 324 L 133 323 Z M 158 323 L 156 333 L 150 338 Q 149 343 151 345 L 151 382 L 152 383 L 152 414 L 154 414 L 157 422 Q 158 424 163 423 L 169 413 L 169 386 L 170 385 L 170 353 L 171 352 L 171 336 L 168 335 Q 163 333 164 325 Q 163 322 158 323 Z M 350 323 L 348 333 L 342 336 L 342 346 L 343 347 L 344 413 Q 349 415 349 422 Q 350 424 355 423 L 361 413 L 361 378 L 362 377 L 362 343 L 363 338 L 360 335 L 355 328 L 355 323 L 350 323 Z M 363 323 L 361 325 Q 360 330 364 331 L 369 330 L 382 331 L 384 326 L 381 323 L 376 324 L 363 323 Z M 401 323 L 397 326 L 400 331 L 405 330 L 418 331 Q 421 330 420 325 L 419 323 L 401 323 Z M 426 323 L 424 333 L 418 338 L 419 342 L 419 378 L 420 379 L 420 414 L 425 419 L 425 422 Q 426 424 430 423 Q 431 416 436 413 L 436 376 L 437 375 L 437 342 L 438 341 L 437 338 Q 438 335 436 336 L 430 330 L 430 323 L 426 323 Z M 436 323 L 435 326 L 436 330 L 439 331 L 444 330 L 457 331 Q 460 330 459 325 L 458 323 L 436 323 Z M 123 324 L 119 334 L 114 336 L 114 361 L 115 362 L 115 412 L 121 421 Q 120 425 124 423 L 124 421 L 130 411 L 129 407 L 130 406 L 130 364 L 131 363 L 131 337 L 130 336 L 124 330 Q 125 323 123 324 Z M 389 324 L 388 332 L 382 336 L 382 363 L 383 364 L 383 406 L 384 407 L 383 410 L 384 414 L 389 421 Q 388 424 391 423 L 398 413 L 398 360 L 399 359 L 399 336 L 396 335 L 392 330 Q 394 322 389 324 Z M 64 335 L 61 338 L 60 413 L 71 413 L 72 412 L 71 349 L 70 348 L 70 336 L 64 335 Z M 103 335 L 100 336 L 100 351 L 99 352 L 99 413 L 109 413 L 110 412 L 109 340 L 108 336 L 103 335 Z M 139 335 L 136 341 L 136 374 L 135 375 L 135 412 L 137 413 L 146 413 L 147 412 L 145 337 Q 144 334 139 335 Z M 178 335 L 176 337 L 176 363 L 175 364 L 175 413 L 176 413 L 186 413 L 185 337 Q 184 334 178 335 Z M 221 335 L 219 337 Q 221 343 218 345 L 218 379 L 217 380 L 217 413 L 218 413 L 228 413 L 229 412 L 229 404 L 229 402 L 228 401 L 228 351 L 227 350 L 227 335 L 221 335 Z M 286 335 L 286 351 L 285 352 L 285 413 L 295 413 L 296 412 L 296 377 L 295 376 L 295 342 L 294 341 L 294 335 L 286 335 Z M 330 335 L 328 337 L 328 363 L 327 364 L 327 413 L 328 413 L 338 413 L 337 337 Q 336 334 330 335 Z M 370 335 L 368 337 L 368 353 L 367 354 L 366 412 L 368 413 L 378 413 L 378 372 L 377 371 L 377 339 L 376 337 Q 375 334 370 335 Z M 448 335 L 443 336 L 443 349 L 442 350 L 441 412 L 443 413 L 453 413 L 452 338 L 448 335 Z M 406 336 L 404 338 L 403 412 L 405 413 L 414 413 L 414 354 L 413 353 L 413 336 L 406 336 Z M 255 393 L 250 398 L 248 406 L 248 421 L 249 423 L 264 423 L 265 422 L 265 410 L 264 409 L 263 398 Q 261 393 255 393 Z M 58 418 Q 54 419 55 423 L 77 423 L 77 421 L 74 418 L 58 418 Z M 97 418 L 96 419 Q 93 418 94 421 Q 92 422 95 423 L 115 423 L 115 421 L 113 418 L 97 418 Z M 134 418 L 132 419 L 130 423 L 151 423 L 151 421 L 149 418 L 134 418 Z M 174 418 L 173 419 Q 169 418 170 421 Q 168 422 171 423 L 191 423 L 191 421 L 189 418 L 174 418 Z M 215 418 L 212 421 L 213 423 L 234 423 L 233 419 L 231 418 L 215 418 Z M 283 418 L 281 419 L 279 422 L 281 423 L 300 423 L 301 421 L 299 418 L 283 418 Z M 325 418 L 321 422 L 323 423 L 343 423 L 344 422 L 343 419 L 341 418 L 325 418 Z M 365 418 L 362 419 L 361 423 L 383 423 L 383 421 L 381 418 L 365 418 Z M 401 418 Q 397 419 398 423 L 419 423 L 419 419 L 417 418 L 401 418 Z M 440 418 L 437 419 L 436 423 L 458 423 L 458 421 L 455 418 L 440 418 Z M 45 428 L 42 432 L 42 457 L 43 459 L 53 459 L 54 460 L 131 460 L 132 461 L 145 461 L 145 447 L 146 445 L 151 441 L 155 441 L 155 430 Q 154 427 153 429 L 150 428 L 134 428 L 133 429 L 116 429 L 115 428 L 97 428 L 96 429 L 45 428 Z M 163 428 L 162 429 L 160 430 L 160 444 L 158 446 L 151 447 L 150 452 Q 149 458 151 461 L 213 461 L 214 462 L 299 462 L 300 461 L 362 461 L 363 459 Q 364 451 362 447 L 356 446 L 353 444 L 353 431 L 348 428 L 285 428 L 284 429 L 238 429 L 237 428 L 224 428 L 222 428 L 220 429 L 217 428 L 198 428 L 197 429 L 163 428 Z M 360 428 L 358 430 L 358 441 L 365 442 L 368 447 L 368 460 L 370 461 L 386 461 L 387 460 L 462 460 L 463 459 L 470 459 L 471 457 L 471 432 L 469 428 L 461 428 L 460 429 L 381 429 L 380 428 L 360 428 Z "/>
    <path fill="#1a1a1a" d="M 250.5 343 Q 262.6 340.9 267 346.5 L 268 368.5 Q 261.9 373.9 248.5 372 L 246 371 L 245 366.5 L 245 347.5 L 247.5 344 L 250.5 343 Z M 251 346 Q 247 348 248 355 Q 249 357 254 356 Q 257 354 255 348 Q 254 345 251 346 Z M 260 346 L 258 348 Q 256 354 260 356 L 265 355 L 264 347 L 260 346 Z M 248 358 L 248 368 L 250 369 Q 254 370 255 368 L 255 358 L 248 358 Z M 258 358 L 258 368 L 265 368 L 265 358 L 258 358 Z "/>
    <path fill="#1a1a1a" d="M 259.5 407 Q 261.8 406.3 261 408.5 Q 263.8 410.2 259.5 412 L 258 408.5 L 259.5 407 Z "/>
  </g>
</svg>
