<svg xmlns="http://www.w3.org/2000/svg" width="512" height="512" viewBox="0 0 512 512">
  <g id="color">
    <path fill="#ffffff" d="M 203.5 141 L 214 141.5 L 203.5 142 L 203.5 141 Z "/>
    <path fill="#ffffff" d="M 401.5 141 L 412 141.5 L 401.5 142 L 401.5 141 Z "/>
    <path fill="#ffffff" d="M 421.5 144 L 426 146.5 L 424.5 146 Q 420.7 145.7 421.5 144 Z "/>
    <path fill="#ffffff" d="M 141.5 153 L 144 157.5 L 143 157.5 L 141.5 153 Z "/>
    <path fill="#ffffff" d="M 72.5 156 L 73 157.5 L 71.5 160 L 71 158.5 L 72.5 156 Z "/>
    <path fill="#ffffff" d="M 376.5 156 L 375 158.5 L 373.5 161 L 374 159.5 L 376.5 156 Z "/>
    <path fill="#ffffff" d="M 241.5 160 L 244 164.5 L 243 164.5 L 241.5 160 Z "/>
    <path fill="#ffffff" d="M 146.5 167 L 147 177.5 L 146 177.5 L 146.5 167 Z "/>
    <path fill="#ffffff" d="M 370.5 167 L 371 168.5 L 369.5 172 L 369 169.5 L 370.5 167 Z "/>
    <path fill="#ffffff" d="M 345.5 168 L 346 176.5 L 345 176.5 L 345.5 168 Z "/>
    <path fill="#ffffff" d="M 170.5 173 L 171 185.5 L 170 185.5 L 170.5 173 Z "/>
    <path fill="#ffffff" d="M 246.5 174 L 247 184.5 L 246 184.5 L 246.5 174 Z "/>
    <path fill="#ffffff" d="M 368.5 174 L 369 184.5 L 368 184.5 L 368.5 174 Z "/>
    <path fill="#ffffff" d="M 444.5 174 L 445 184.5 L 444 184.5 L 444.5 174 Z "/>
    <path fill="#ffffff" d="M 270.5 186 L 272 189.5 L 271 189.5 L 270.5 186 Z "/>
    <path fill="#ffffff" d="M 143.5 187 L 144 188.5 L 140.5 194 L 141 192.5 L 143.5 187 Z "/>
    <path fill="#ffffff" d="M 369.5 187 L 372 194.5 L 371 194.5 L 369.5 187 Z "/>
    <path fill="#ffffff" d="M 442.5 191 L 443 192.5 L 441.5 195 L 441 193.5 L 442.5 191 Z "/>
    <path fill="#ffffff" d="M 139.5 195 L 133 202.5 L 132.5 204 L 132 202.5 L 139.5 195 Z "/>
    <path fill="#ffffff" d="M 242.5 196 L 242 197.5 L 240.5 200 L 241 198.5 L 242.5 196 Z "/>
    <path fill="#ffffff" d="M 175.5 198 L 178 201.5 L 176 200.5 L 175.5 198 Z "/>
    <path fill="#ffffff" d="M 279.5 204 L 281 204.5 L 275.5 207 L 275.5 206 L 279.5 204 Z "/>
    <path fill="#ffffff" d="M 335.5 205 L 340 207.5 L 338.5 207 Q 334.7 206.8 335.5 205 Z "/>
    <path fill="#ffffff" d="M 269.5 209 L 267.5 212 L 265.5 213 L 266.5 211 L 269.5 209 Z "/>
    <path fill="#ffffff" d="M 146.5 210 L 151 213.5 L 148.5 212 L 146.5 210 Z "/>
    <path fill="#ffffff" d="M 178.5 210 L 180 210.5 L 175.5 213 L 176.5 211 L 178.5 210 Z "/>
    <path fill="#ffffff" d="M 237.5 210 L 242 212.5 L 240.5 212 Q 236.8 211.8 237.5 210 Z "/>
    <path fill="#ffffff" d="M 262.5 214 L 255.5 222 L 251 218.5 L 254.5 221 L 262.5 214 Z "/>
    <path fill="#ffffff" d="M 356.5 220 L 359.5 222 L 361 221.5 L 358.5 223 L 356.5 220 Z "/>
    <path fill="#ffffff" d="M 54.5 224 L 53 226.5 L 51.5 229 L 52 227.5 L 54.5 224 Z "/>
    <path fill="#ffffff" d="M 463.5 235 L 467 240.5 L 465 239.5 L 463.5 235 Z "/>
    <path fill="#ffffff" d="M 44.5 241 L 45 242.5 L 43.5 245 L 43 243.5 L 44.5 241 Z "/>
    <path fill="#ffffff" d="M 37.5 266 L 38 270.5 L 37 270.5 L 37.5 266 Z "/>
    <path fill="#ffffff" d="M 475.5 270 L 476 275.5 L 475 275.5 L 475.5 270 Z "/>
    <path fill="#ffffff" d="M 36.5 277 L 37 283.5 L 36 283.5 L 36.5 277 Z "/>
    <path fill="#ffffff" d="M 37.5 289 L 39 296.5 L 38 296.5 L 37.5 289 Z "/>
    <path fill="#ffffff" d="M 475.5 289 L 476 293.5 L 475 293.5 L 475.5 289 Z "/>
    <path fill="#ffffff" d="M 459.5 314 L 459 315.5 L 458.5 319 L 458 315.5 L 459.5 314 Z "/>
    <path fill="#ffffff" d="M 54.5 316 L 55 322.5 L 54 322.5 L 54.5 316 Z "/>
    <path fill="#ffffff" d="M 107.5 323 L 110 324.5 L 111 330.5 L 110 330.5 L 109 324 L 107.5 323 Z "/>
    <path fill="#ffffff" d="M 307.5 323 L 309 327.5 L 308 327.5 L 307.5 323 Z "/>
    <path fill="#ffffff" d="M 208.5 324 L 209.5 326 L 207 325.5 L 208.5 324 Z "/>
    <path fill="#ffffff" d="M 406.5 324 Q 409.6 325.4 409 330.5 L 408 330.5 L 406.5 325 L 405 325.5 L 406.5 324 Z "/>
    <path fill="#ffffff" d="M 105.5 328 L 106 336.5 L 105 336.5 L 105.5 328 Z "/>
    <path fill="#ffffff" d="M 309.5 329 L 310 336.5 L 309 336.5 L 309.5 329 Z "/>
    <path fill="#ffffff" d="M 403.5 330 L 404 347.5 L 403 347.5 L 403.5 330 Z "/>
    <path fill="#ffffff" d="M 303.5 332 L 304 349.5 L 303 349.5 L 303.5 332 Z "/>
    <path fill="#ffffff" d="M 211.5 333 L 212 349.5 L 211 349.5 L 211.5 333 Z "/>
    <path fill="#ffffff" d="M 205.5 334 L 206 349.5 L 205 349.5 L 205.5 334 Z "/>
    <path fill="#ffffff" d="M 409.5 334 L 410 349.5 L 409 349.5 L 409.5 334 Z "/>
    <path fill="#ffffff" d="M 54.5 339 L 55 344.5 L 54 344.5 L 54.5 339 Z "/>
    <path fill="#ffffff" d="M 458.5 342 L 459 346.5 L 458 346.5 L 458.5 342 Z "/>
    <path fill="#ffffff" d="M 104.5 346 L 105 352.5 L 104 352.5 L 104.5 346 Z "/>
    <path fill="#ffffff" d="M 456.5 356 L 457 358.5 L 454.5 364 L 454 362.5 L 456.5 356 Z "/>
    <path fill="#ffffff" d="M 213.5 358 L 215 362.5 L 214 362.5 L 213.5 358 Z "/>
    <path fill="#ffffff" d="M 356 361 L 358 361.5 L 353.5 368 L 354 366.5 L 356 361 Z "/>
    <path fill="#ffffff" d="M 101.5 363 L 102 364.5 L 98.5 370 L 99 368.5 L 101.5 363 Z "/>
    <path fill="#ffffff" d="M 114.5 363 L 116 366.5 L 115 366.5 L 114.5 363 Z "/>
    <path fill="#ffffff" d="M 265.5 374 L 273 378.5 L 271.5 379 Q 266.5 377.5 265.5 374 Z "/>
    <path fill="#ffffff" d="M 170.5 375 L 175 377.5 L 173.5 378 L 170.5 375 Z "/>
    <path fill="#ffffff" d="M 224.5 375 L 230 377.5 L 227.5 378 L 224.5 375 Z "/>
    <path fill="#ffffff" d="M 321.5 375 L 325 377.5 L 323.5 377 L 321.5 375 Z "/>
    <path fill="#ffffff" d="M 368.5 375 L 374 377.5 L 371.5 378 L 368.5 375 Z "/>
    <path fill="#ffffff" d="M 69.5 376 L 74 378.5 L 72.5 379 L 69.5 376 Z "/>
    <path fill="#ffffff" d="M 91.5 376 L 90.5 378 L 87.5 379 L 87.5 378 L 91.5 376 Z "/>
    <path fill="#ffffff" d="M 124.5 376 L 129 378.5 L 127.5 379 L 124.5 376 Z "/>
    <path fill="#ffffff" d="M 388.5 376 L 387.5 378 L 385 377.5 L 388.5 376 Z "/>
    <path fill="#ffffff" d="M 423.5 376 L 427 377.5 L 425.5 378 L 423.5 376 Z "/>
    <path fill="#ffffff" d="M 442.5 376 L 441.5 378 L 439 377.5 L 442.5 376 Z "/>
    <path fill="#ffffff" d="M 176.5 378 L 186 378.5 L 176.5 379 L 176.5 378 Z "/>
    <path fill="#ffffff" d="M 231.5 378 L 240 378.5 L 231.5 379 L 231.5 378 Z "/>
    <path fill="#ffffff" d="M 375.5 378 L 384 378.5 L 375.5 379 L 375.5 378 Z "/>
    <path fill="#ffffff" d="M 76.5 379 L 85 379.5 L 76.5 380 L 76.5 379 Z "/>
    <path fill="#ffffff" d="M 131.5 379 L 140 379.5 L 131.5 380 L 131.5 379 Z "/>
    <path fill="#ffffff" d="M 275.5 379 L 284 379.5 L 275.5 380 L 275.5 379 Z "/>
    <path fill="#ffffff" d="M 329.5 379 L 338 379.5 L 329.5 380 L 329.5 379 Z "/>
    <path fill="#4da3ff" d="M 100.5 143 L 114.5 143 L 125 147 Q 123.9 149.7 126.5 149 Q 138.9 156.1 138 176.5 L 135 186.5 L 129 195 L 114.5 202 L 100.5 202 Q 89 199 83 190.5 L 78 178.5 L 78 165.5 L 86 151 L 100.5 143 Z "/>
    <path fill="#4da3ff" d="M 92.5 210 L 100.5 212 L 115.5 212 Q 118.2 209.2 124.5 210 L 143 218 Q 141.9 220.7 144.5 220 L 152 226.5 L 154 229.5 L 143 251.5 L 139 269.5 L 138 288.5 L 141 302.5 L 149.5 313 L 153 315.5 L 153 343.5 L 152 344.5 L 151 355.5 Q 148.6 365.1 141.5 370 L 132.5 371 Q 126.4 369.6 124 364.5 L 120 352.5 L 120 329.5 L 119 324.5 L 112.5 315 L 106.5 314 L 100 318.5 L 96 332.5 L 96 351.5 L 94 359.5 L 88.5 368 Q 85.9 367.3 87 370 L 84.5 370 Q 83 372.5 77.5 371 L 69 365.5 L 64 352.5 Q 65.5 347 63 345.5 L 63 315.5 L 64 310.5 L 60.5 306 L 54.5 305 L 48 298.5 L 45 285.5 L 45 276.5 L 46 275.5 L 46 268.5 L 48 258.5 L 54 240.5 Q 60 229 69.5 221 L 84.5 212 L 92.5 210 Z "/>
    <path fill="#ffd43b" d="M 201.5 149 Q 223.5 147.5 232 159.5 Q 240.5 167 239 184.5 Q 236 197.5 226.5 204 Q 219.1 210.6 204.5 210 L 196.5 208 L 187 201.5 L 179 189.5 L 178 173.5 Q 181 161.5 189.5 155 L 201.5 149 Z "/>
    <path fill="#ffd43b" d="M 190.5 214 L 194.5 214 L 203.5 217 L 214.5 217 L 222.5 214 L 226.5 214 Q 243.8 219.2 254 231.5 L 262 243.5 L 267 256.5 L 270 269.5 L 271 288.5 L 268 300.5 L 262.5 307 L 255.5 309 L 253 311.5 Q 251.3 317.8 254 319.5 L 254 341.5 L 250 360.5 L 243.5 369 Q 239.8 372.3 231.5 371 Q 225.4 369.6 223 364.5 L 219 351.5 L 219 333.5 Q 216.8 332.3 218 327.5 L 213.5 318 L 205.5 317 Q 200.5 320 199 326.5 L 197 356.5 Q 194.9 365.4 188.5 370 L 177.5 371 L 170 365.5 L 165 354.5 L 164 339.5 L 163 338.5 L 163 325.5 L 164 324.5 L 164 310.5 L 153.5 306 L 151 303.5 L 147 293.5 L 146 279.5 L 147 278.5 L 148 265.5 L 154 246.5 Q 160.2 233.2 170.5 224 L 190.5 214 Z M 227 241 L 223 243 L 217 252 Q 216 258 219 261 L 226 266 Q 233 268 237 265 L 243 257 L 242 248 Q 239 240 227 241 Z "/>
    <path fill="#ff6b6b" d="M 299.5 142 L 300.5 143 L 312.5 143 L 314.5 142 L 318 143 L 318.5 145 L 320.5 144 L 320.5 146 L 326.5 150 Q 328.3 147.2 330 151.5 L 329 152.5 L 332 155.5 L 332.5 157 L 334 156.5 L 336 161.5 L 335.5 163 Q 338.1 162.2 337 165.5 L 338 166.5 L 338 174.5 L 338 176.5 L 337.5 178 L 336 177.5 L 337 181.5 L 335 181.5 L 336 184.5 L 335 187 L 333 187.5 L 333.5 189 L 331 190.5 Q 333.2 191.8 330.5 193 Q 329.3 190.7 328 193.5 Q 328.5 197.5 325.5 198 L 323.5 198 Q 321.3 197.3 322 199.5 L 319.5 201 L 317.5 200 L 317.5 202 L 315.5 201 L 315.5 203 L 307.5 202 L 307.5 203 L 310 203.5 L 303.5 204 L 303.5 202 L 297.5 203 L 297.5 201 L 294.5 200 L 293 200.5 L 292.5 199 L 291 199.5 L 290.5 198 Q 289.2 200.3 288 197.5 L 287.5 196 L 286.5 197 L 283 193.5 Q 285.8 191.8 281.5 190 L 279 188.5 L 279.5 187 L 278 186.5 L 279 184 L 277 183.5 L 278 181 L 276 180.5 Q 278.5 179 277 173.5 L 276 173.5 L 275.5 176 L 275 172.5 L 275 170.5 L 277 165.5 L 277 163.5 L 279 160.5 L 278.5 159 L 280 159.5 L 279 157.5 L 281 157.5 L 285.5 150 L 288 148.5 L 288.5 147 Q 289.8 149.3 291 146.5 L 291.5 145 L 293.5 146 L 293.5 144 L 296.5 145 L 300 143.5 L 299.5 142 Z "/>
    <path fill="#ff6b6b" d="M 289.5 209 L 293.5 210 L 296 209 Q 294.8 212 298.5 211 L 301.5 210 L 301.5 211 L 300 211.5 L 312.5 212 L 312.5 211 L 311 210.5 L 314.5 210 L 317 211 L 317.5 209 L 322.5 210 L 324 209.5 Q 323.3 211.8 325.5 211 L 327.5 210 L 327.5 212 L 330.5 211 L 333 212 L 333.5 214 L 335 213.5 L 335.5 215 L 337 214.5 L 338.5 217 L 340 216.5 Q 339.3 218.8 341.5 218 L 346 220.5 L 345.5 222 L 354 228.5 Q 351.7 229.8 354.5 231 L 357 232.5 L 356 234.5 L 358.5 238 L 360 237.5 L 360 239.5 L 361 243 L 363 243.5 L 363 247.5 Q 362.3 249.8 364.5 249 L 364 250.5 L 366 253.5 L 365 255.5 L 367 255.5 L 366 259.5 L 368 259.5 L 367 262.5 L 369 266.5 Q 366.5 268 370 269.5 L 369 276.5 L 369 278.5 L 369 286.5 L 370 287.5 L 370 289.5 L 368 292.5 L 369 294.5 L 366 299.5 Q 368.3 300.8 365.5 302 L 360.5 306 L 358.5 307 Q 357 304.5 355.5 308 L 353.5 307 L 352.5 310 L 351 309.5 L 351 314.5 L 353 315 L 353 317.5 L 353 319.5 L 352 323.5 L 353 326.5 L 352 328.5 L 352 339.5 L 353 344.5 L 352 344.5 L 351.5 342 L 351 347.5 L 352 350.5 L 351 355 Q 348.3 353.9 349 356.5 L 349 358.5 Q 350.1 361.8 347.5 361 L 348 362.5 L 344.5 367 L 343 367.5 L 343.5 369 L 342 368.5 L 340.5 371 L 336.5 372 L 334.5 372 Q 328.4 373.3 329 370.5 L 327 370.5 L 327 369 L 325 369 Q 326.1 366.3 323.5 367 L 322 363.5 Q 322.8 361.3 320.5 362 L 320.5 360 Q 318.3 360.8 319 358.5 L 320 355.5 L 318 355.5 L 319 353.5 L 319 351.5 L 318.5 347 L 317 347.5 L 317.5 341 L 318.5 346 L 319 340 Q 316 341.3 317 337.5 L 317 335.5 L 318 329 Q 315.3 330.1 316 327.5 L 317 323 L 315 322.5 L 316 320.5 L 314 320.5 Q 316.3 319.3 313.5 318 Q 311.3 318.8 312 316.5 L 309.5 316 L 302.5 315 Q 304.3 317.5 299.5 320 L 298 320.5 L 298.5 322 L 297 322.5 L 298 325 Q 295.3 323.9 296 326.5 L 297 330 L 295 330.5 L 296 332.5 L 295 333.5 L 295 342.5 L 296 346.5 L 295 348.5 L 296 351.5 L 295 351.5 L 294.5 349 L 294 354.5 L 295 356.5 Q 291.9 358.3 293.5 360 L 292 359.5 L 293 361.5 L 291 362 L 290 364.5 L 290.5 366 L 289 365.5 L 288.5 369 L 287 368.5 L 285.5 371 L 282.5 372 L 278.5 371 L 275 371.5 L 274.5 370 L 273 370.5 L 272.5 369 L 271 369.5 L 268.5 366 L 266 364.5 L 267 362.5 L 265 362.5 L 266 360.5 L 264 360.5 L 263 356.5 L 264 354.5 Q 260.5 352.5 261 346.5 L 262 341.5 L 262 339.5 L 261 337.5 L 261 335.5 L 262 315.5 L 261.5 314 L 264 315 Q 262.9 312.3 265.5 313 Q 267.3 309.9 269 311.5 L 269.5 310 L 271 310.5 L 274 306.5 L 273.5 305 L 275 304.5 L 274.5 303 Q 276.8 303.8 276 301.5 L 276 299.5 Q 274.5 295.1 277.5 296 L 277.5 290 L 279 289.5 L 279 275.5 L 277 275.5 L 278 268 Q 274.7 269.3 276 264.5 L 275 261.5 L 276 258.5 L 274 258.5 L 275 255 Q 272.3 256.1 273 253.5 L 273.5 252 Q 271.3 252.8 272 250.5 L 273 248.5 L 271 248.5 L 272 246.5 L 270 245.5 L 270.5 244 L 269 243.5 L 270 241.5 L 268 241.5 L 268.5 240 L 267 239.5 L 267.5 238 L 266 237.5 L 267 235.5 L 263 232.5 L 263.5 231 L 261 229.5 L 262 227.5 L 261 226.5 L 267.5 220 Q 268.8 222.3 270 219.5 L 271.5 217 L 273 217.5 L 274.5 215 L 276.5 216 L 276.5 214 L 278.5 215 L 278.5 213 L 280.5 214 L 280.5 212 L 282.5 213 L 283.5 211 L 285 211.5 Q 284.3 209.3 286.5 210 L 289.5 211 L 289.5 209 Z "/>
    <path fill="#51cf66" d="M 400.5 149 Q 410.6 147.4 416.5 150 Q 424.8 153.2 430 159.5 L 437 173.5 L 437 184.5 Q 434 197.5 424.5 204 Q 417.4 210.4 403.5 210 Q 388.2 207.3 381 196.5 L 376 183.5 L 376 175.5 L 378 167.5 L 385 157 L 390.5 153 L 400.5 149 Z M 395 169 L 391 173 Q 390 179 395 180 L 399 179 L 401 176 L 400 171 Q 399 168 395 169 Z "/>
    <path fill="#51cf66" d="M 388.5 214 L 392.5 214 L 400.5 217 L 412.5 217 L 420.5 214 L 424.5 214 Q 441.9 219.2 452 231.5 Q 461.6 243.4 466 260.5 L 468 271.5 L 468 292.5 L 465 301.5 L 459.5 307 Q 453.8 307.3 451 310.5 L 452 341.5 L 448 359.5 L 441.5 369 Q 437.8 372.3 429.5 371 L 421 364.5 L 417 352.5 L 417 331.5 L 416 326.5 Q 414.5 320 409.5 317 Q 402.3 315.8 400 319.5 L 396 329.5 L 396 349.5 Q 393.8 350.7 395 355.5 L 391 365.5 L 387.5 369 Q 383.9 371.9 376.5 371 Q 370 369.5 367 364.5 L 364 358.5 L 362 348.5 L 361 325.5 L 362 324.5 L 362 313 L 365.5 312 L 373 304.5 L 377 293.5 L 378 276.5 L 377 275.5 L 377 266.5 L 373 249.5 L 364 229.5 L 376.5 219 L 388.5 214 Z "/>
    <path fill="#66d9e8" d="M 99.5 142 Q 113.5 140 121.5 144 L 133 153.5 L 139 165.5 L 139 179.5 Q 135.3 191.3 126.5 198 L 116.5 203 L 103.5 204 Q 91 201.5 84 193.5 Q 76.3 185.7 76 170.5 L 80 157.5 L 90.5 146 L 99.5 142 Z M 101 143 L 86 151 L 78 166 L 78 179 L 83 191 Q 89 199 101 202 L 115 202 L 129 195 L 135 187 L 138 177 Q 139 156 127 149 Q 124 150 125 147 L 115 143 L 101 143 Z "/>
    <path fill="#66d9e8" d="M 90.5 209 L 96.5 209 L 102.5 211 L 113.5 211 Q 117.5 208 125.5 209 Q 142.9 213.6 153 225.5 Q 155.6 226.9 155 231.5 L 147 244.5 L 141 264.5 Q 142.3 269.3 140 270.5 L 140 293.5 L 142 301.5 L 147.5 310 L 154 314.5 L 155 337.5 L 154 338.5 L 154 348.5 L 151 359.5 Q 148.8 366.3 143.5 370 Q 139.8 373.3 131.5 372 L 123 365.5 L 119 353.5 L 118 327.5 L 116 320.5 L 111.5 316 Q 103.2 314.7 101 319.5 L 98 327.5 L 97 353.5 Q 95 364 88.5 370 Q 84.8 373.3 76.5 372 L 67 364.5 L 62 348.5 L 61 324.5 L 62 323.5 L 62 309.5 L 59.5 307 L 52.5 305 L 47 299.5 L 44 287.5 L 44 273.5 L 45 272.5 L 46 260.5 L 51 244.5 Q 57 229.5 68.5 220 Q 77.5 212.5 90.5 209 Z M 93 210 L 85 212 L 70 221 Q 60 229 54 241 L 48 259 L 46 269 L 46 276 L 45 277 L 45 286 L 48 299 L 55 305 L 61 306 L 64 311 L 63 316 L 63 346 Q 66 347 64 353 L 69 366 L 78 371 Q 83 373 85 370 L 87 370 Q 86 367 89 368 L 94 360 L 96 352 L 96 333 L 100 319 L 107 314 L 113 315 L 119 325 L 120 330 L 120 353 L 124 365 Q 126 370 133 371 L 142 370 Q 149 365 151 356 L 152 345 L 153 344 L 153 316 L 150 313 L 141 303 L 138 289 L 139 270 L 143 252 L 154 230 L 152 227 L 145 220 Q 142 221 143 218 L 125 210 Q 118 209 116 212 L 101 212 L 93 210 Z "/>
    <path fill="#66d9e8" d="M 228.5 248 Q 234 247 235 250.5 L 236 255.5 Q 234.8 260.3 227.5 259 Q 223.5 257.5 225 250.5 L 228.5 248 Z "/>
    <path fill="#f783ac" d="M 300.5 142 L 313 142.5 Q 299.9 141.4 292.5 146 L 292.5 145 L 300.5 142 Z "/>
    <path fill="#f783ac" d="M 320.5 145 L 323.5 146 L 333 155.5 L 332.5 157 L 323.5 147 Q 319.8 146.8 320.5 145 Z "/>
    <path fill="#f783ac" d="M 283.5 152 L 283 153.5 L 278.5 161 L 279 159.5 L 283.5 152 Z "/>
    <path fill="#f783ac" d="M 276.5 168 L 277 170.5 L 275 171.5 L 276.5 168 Z "/>
    <path fill="#f783ac" d="M 276.5 173 L 277 179.5 L 276 179.5 L 276.5 173 Z "/>
    <path fill="#f783ac" d="M 332.5 189 L 330 192.5 L 328.5 195 L 328 193.5 L 332.5 189 Z "/>
    <path fill="#f783ac" d="M 294.5 200 L 298 201.5 L 295.5 202 L 294.5 200 Z "/>
    <path fill="#f783ac" d="M 317.5 200 L 319 200.5 L 315.5 202 L 315.5 201 L 317.5 200 Z "/>
    <path fill="#f783ac" d="M 299.5 202 L 304 202.5 L 299.5 203 L 299.5 202 Z "/>
    <path fill="#f783ac" d="M 307.5 202 L 314 202.5 L 307.5 203 L 307.5 202 Z "/>
    <path fill="#f783ac" d="M 290.5 209 L 294 209.5 L 287.5 211 L 287.5 210 L 290.5 209 Z "/>
    <path fill="#f783ac" d="M 318.5 209 L 323 209.5 L 318.5 210 L 318.5 209 Z "/>
    <path fill="#f783ac" d="M 300.5 211 L 313 211.5 L 300.5 212 L 300.5 211 Z "/>
    <path fill="#f783ac" d="M 279.5 213 L 281 213.5 L 274.5 217 L 275.5 215 L 279.5 213 Z "/>
    <path fill="#f783ac" d="M 340.5 217 L 352 226.5 L 346.5 222 L 340.5 218 L 340.5 217 Z "/>
    <path fill="#f783ac" d="M 355.5 232 L 362 242.5 L 361 242.5 L 355.5 232 Z "/>
    <path fill="#f783ac" d="M 366.5 257 L 368 262.5 L 367 262.5 L 366.5 257 Z "/>
    <path fill="#f783ac" d="M 278.5 275 L 279 289.5 L 278 289.5 L 278.5 275 Z "/>
    <path fill="#f783ac" d="M 369.5 278 L 370 286.5 L 369 286.5 L 369.5 278 Z "/>
    <path fill="#f783ac" d="M 273.5 306 L 271 309.5 L 270.5 311 L 270 309.5 L 273.5 306 Z "/>
    <path fill="#f783ac" d="M 353.5 307 L 352 309.5 L 351.5 315 L 351 309.5 L 353.5 307 Z "/>
    <path fill="#f783ac" d="M 262.5 314 L 264 314.5 L 262 315 L 261.5 326 L 261 315.5 L 262.5 314 Z "/>
    <path fill="#f783ac" d="M 302.5 315 L 304 315.5 L 299.5 319 L 302.5 315 Z "/>
    <path fill="#f783ac" d="M 313.5 318 L 316 321.5 L 315 321.5 L 313.5 318 Z "/>
    <path fill="#f783ac" d="M 352.5 328 L 353 339.5 L 352 339.5 L 352.5 328 Z "/>
    <path fill="#f783ac" d="M 317.5 329 L 318 333.5 L 317 333.5 L 317.5 329 Z "/>
    <path fill="#f783ac" d="M 295.5 333 L 296 342.5 L 295 342.5 L 295.5 333 Z "/>
    <path fill="#f783ac" d="M 317.5 340 Q 320.3 339.4 319 345.5 L 318 345.5 L 317.5 340 Z "/>
    <path fill="#f783ac" d="M 261.5 341 L 262 345.5 L 261 345.5 L 261.5 341 Z "/>
    <path fill="#f783ac" d="M 351.5 342 L 352 347.5 L 351 347.5 L 351.5 342 Z "/>
    <path fill="#f783ac" d="M 295.5 347 L 296 348.5 L 294.5 355 L 294 349.5 L 295.5 347 Z "/>
    <path fill="#f783ac" d="M 318.5 347 L 319 351.5 L 318 351.5 L 318.5 347 Z "/>
    <path fill="#f783ac" d="M 265.5 360 L 268 364.5 L 266 363.5 L 265.5 360 Z "/>
    <path fill="#f783ac" d="M 291.5 362 L 292 363.5 L 289.5 367 L 289 365.5 L 291.5 362 Z "/>
    <path fill="#f783ac" d="M 321.5 362 L 324 365.5 L 321 363.5 L 321.5 362 Z "/>
  </g>
  <g id="line">
    <path fill="#1a1a1a" d="M 102.5 134 Q 129.1 133.4 139 149.5 Q 144.1 155.9 146 165.5 L 146 179.5 L 140 194.5 L 132 204 L 144.5 209 L 161.5 223 Q 170.4 213.4 184 208.5 Q 176.6 202.9 173 193.5 Q 169.4 185.6 171 172.5 Q 174.5 157 185.5 149 L 200.5 142 L 216.5 142 Q 231.1 145.9 239 156.5 Q 244.1 162.9 246 172.5 L 246 186.5 Q 242.7 200.7 233 208.5 Q 246.3 213.2 255.5 222 L 264.5 213 L 283 203.5 Q 267.6 193.4 268 167.5 Q 270.6 153.1 279.5 145 L 293.5 136 L 301.5 134 L 312.5 134 Q 329.6 137.4 338 149.5 Q 343.1 155.9 345 165.5 L 345 180.5 Q 341.5 192.5 335 200 L 331 202.5 Q 330.3 204.8 332.5 204 Q 346.6 209.4 356 219.5 L 358.5 223 Q 368.3 213.8 382 208.5 Q 367.7 198.3 369 172.5 Q 372.4 157.9 382.5 150 L 398.5 142 L 414.5 142 Q 426.5 145.5 434 152 Q 440.5 159.5 444 171.5 L 444 187.5 L 439 199.5 L 431 208.5 Q 449.3 214.2 459 228.5 Q 475.9 250.1 476 288.5 L 474 299.5 L 467.5 310 L 458 315.5 L 459 319.5 L 459 341.5 L 458 342.5 L 457 355.5 L 454 364.5 L 445.5 375 L 432.5 379 L 422.5 376 L 415 368.5 L 410 353.5 Q 412.4 334.6 406.5 324 L 403 330.5 L 403 350.5 L 401 361.5 Q 398.2 370.2 391.5 375 Q 386 379.5 374.5 378 Q 365.4 375.5 361 368.5 L 358 361 Q 355.3 359.9 356 362.5 L 347.5 375 Q 341.8 380.8 328.5 379 L 319 373.5 L 311 357.5 Q 312.5 352 310 350.5 L 310 329.5 L 308 323 L 305 324.5 L 303 332.5 L 303 352.5 L 302 357.5 Q 299.8 368.8 292.5 375 Q 286.8 380.8 273.5 379 L 264 374 L 258 363 Q 255.3 361.9 256 364.5 L 247.5 375 Q 242.3 379.8 230.5 378 Q 221.4 375.5 217 368.5 L 212 353.5 L 212 333.5 Q 209.8 332.3 211 327.5 L 208.5 324 L 207 325.5 L 205 334.5 L 205 352.5 L 203 361.5 Q 200.2 370.2 193.5 375 Q 187.7 379.7 175.5 378 Q 168.1 375.4 164 369.5 L 160 360 Q 157.3 358.9 158 361.5 Q 154.8 370.8 147.5 376 Q 142 381 129.5 379 Q 122.1 376.4 118 370.5 L 112 355.5 L 111 327.5 L 108.5 323 Q 106.3 322.3 107 324.5 L 105 328.5 L 105 345.5 L 104 346.5 L 103 359.5 Q 100.3 370.3 92.5 376 Q 87 381 74.5 379 L 65 374 L 59 364.5 L 56 354.5 L 55 339.5 L 54 338.5 L 54 323.5 L 55 322.5 L 55 314.5 Q 46.8 311.2 42 304.5 L 37 288.5 L 37 271.5 L 41 251.5 L 45 240.5 Q 52.1 223.6 65.5 213 L 84 203.5 Q 75.3 196.7 71 185.5 L 69 177.5 L 69 168.5 Q 71.9 151.9 82.5 143 Q 90.4 136.4 102.5 134 Z M 100 142 L 91 146 L 80 158 L 76 171 Q 76 186 84 194 Q 91 201 104 204 L 117 203 L 127 198 Q 135 191 139 180 L 139 166 L 133 154 L 122 144 Q 113 140 100 142 Z M 300 142 L 290 146 Q 278 153 275 169 Q 274 186 283 194 Q 290 202 304 204 L 316 203 L 326 198 Q 335 191 338 178 L 338 167 Q 336 157 330 152 Q 325 144 315 142 L 300 142 Z M 202 149 L 190 155 Q 181 162 178 174 L 179 190 L 187 202 L 197 208 L 205 210 Q 219 211 227 204 Q 236 198 239 185 Q 241 167 232 160 Q 224 147 202 149 Z M 401 149 L 391 153 L 385 157 L 378 168 L 376 176 L 376 184 L 381 197 Q 388 207 404 210 Q 417 210 425 204 Q 434 198 437 185 L 437 174 L 430 160 Q 425 153 417 150 Q 411 147 401 149 Z M 91 209 Q 77 212 69 220 Q 57 230 51 245 L 46 261 L 45 273 L 44 274 L 44 288 L 47 300 L 53 305 L 60 307 L 62 310 L 62 324 L 61 325 L 62 349 L 67 365 L 77 372 Q 85 373 89 370 Q 95 364 97 354 L 98 328 L 101 320 Q 103 315 112 316 L 116 321 L 118 328 L 119 354 L 123 366 L 132 372 Q 140 373 144 370 Q 149 366 151 360 L 154 349 L 154 339 L 155 338 L 154 315 L 148 310 L 142 302 L 140 294 L 140 271 Q 142 269 141 265 L 147 245 L 155 232 Q 156 227 153 226 Q 143 214 126 209 Q 118 208 114 211 L 103 211 L 97 209 L 91 209 Z M 290 209 Q 271 214 261 227 L 261 230 L 271 247 L 275 260 L 278 277 L 277 296 L 273 307 Q 269 313 261 314 L 260 317 L 261 319 L 261 350 L 266 365 L 276 372 L 284 372 L 289 369 Q 294 362 296 352 L 296 331 L 297 326 Q 299 319 304 316 L 312 317 L 316 324 L 318 356 L 322 366 L 330 372 Q 339 374 343 370 L 348 364 L 353 345 L 353 316 L 352 311 Q 355 306 362 306 L 367 301 L 370 291 Q 372 250 354 229 Q 343 214 324 209 L 318 209 L 311 211 L 290 209 Z M 191 214 L 171 224 Q 160 233 154 247 L 148 266 L 147 279 L 146 280 L 147 294 L 151 304 L 154 306 L 164 311 L 164 325 L 163 326 L 163 339 L 164 340 L 165 355 L 170 366 L 178 371 L 189 370 Q 195 365 197 357 L 199 327 Q 201 320 206 317 L 214 318 L 218 328 Q 217 332 219 334 L 219 352 L 223 365 Q 225 370 232 371 Q 240 372 244 369 L 250 361 L 254 342 L 254 320 Q 251 318 253 312 L 256 309 L 263 307 L 268 301 L 271 289 L 270 270 L 267 257 L 262 244 L 254 232 Q 244 219 227 214 L 223 214 L 215 217 L 204 217 L 195 214 L 191 214 Z M 389 214 L 377 219 L 364 230 L 373 250 L 377 267 L 377 276 L 378 277 L 377 294 L 373 305 L 366 312 L 362 313 L 362 325 L 361 326 L 362 349 L 364 359 L 367 365 Q 370 369 377 371 Q 384 372 388 369 L 391 366 L 395 356 Q 394 351 396 350 L 396 330 L 400 320 Q 402 316 410 317 Q 414 320 416 327 L 417 332 L 417 353 L 421 365 L 430 371 Q 438 372 442 369 L 448 360 L 452 342 L 451 311 Q 454 307 460 307 L 465 302 L 468 293 L 468 272 L 466 261 Q 462 243 452 232 Q 442 219 425 214 L 421 214 L 413 217 L 401 217 L 393 214 L 389 214 Z "/>
    <path fill="#1a1a1a" d="M 394.5 169 Q 399 168 400 170.5 L 401 175.5 L 398.5 179 L 394.5 180 Q 390.3 178.7 391 172.5 L 394.5 169 Z "/>
    <path fill="#1a1a1a" d="M 226.5 241 Q 238.8 239.8 242 247.5 L 243 256.5 L 236.5 265 Q 233 267.5 225.5 266 L 219 260.5 Q 216.4 257.6 217 251.5 L 222.5 243 L 226.5 241 Z M 229 248 L 225 251 Q 224 258 228 259 Q 235 260 236 256 L 235 251 Q 234 247 229 248 Z "/>
  </g>
</svg>
