<svg xmlns="http://www.w3.org/2000/svg" width="512" height="512" viewBox="0 0 512 512">
  <g id="color">
    <path fill="#ffffff" d="M 254.5 49 L 260 49.5 L 254.5 50 L 254.5 49 Z "/>
    <path fill="#ffffff" d="M 262.5 49 L 267 49.5 L 262.5 50 L 262.5 49 Z "/>
    <path fill="#ffffff" d="M 273.5 51 L 278 52.5 L 276.5 53 L 273.5 52 L 273.5 51 Z "/>
    <path fill="#ffffff" d="M 242.5 52 L 244 52.5 L 240.5 54 L 240.5 53 L 242.5 52 Z "/>
    <path fill="#ffffff" d="M 228.5 59 L 227.5 61 L 225.5 62 L 226.5 60 L 228.5 59 Z "/>
    <path fill="#ffffff" d="M 223.5 62 L 222.5 64 L 219.5 66 L 221.5 63 L 223.5 62 Z "/>
    <path fill="#ffffff" d="M 297.5 62 L 301 64.5 L 299.5 64 L 297.5 62 Z "/>
    <path fill="#ffffff" d="M 302.5 65 L 308 69.5 L 305.5 68 L 302.5 65 Z "/>
    <path fill="#ffffff" d="M 369.5 118 L 378 125.5 L 373.5 122 L 369.5 118 Z "/>
    <path fill="#ffffff" d="M 117.5 144 L 113.5 149 L 109.5 152 L 112.5 148 L 117.5 144 Z "/>
    <path fill="#ffffff" d="M 47.5 201 L 43 206.5 L 41.5 209 L 42 207.5 L 47.5 201 Z "/>
    <path fill="#ffffff" d="M 40.5 210 L 40 211.5 L 38.5 215 L 38 213.5 L 40.5 210 Z "/>
    <path fill="#ffffff" d="M 477.5 219 L 478 225.5 L 477 225.5 L 477.5 219 Z "/>
    <path fill="#ffffff" d="M 38.5 232 L 40 235.5 L 39 235.5 L 38.5 232 Z "/>
    <path fill="#ffffff" d="M 463.5 243 L 462.5 245 L 459.5 246 L 459.5 245 L 463.5 243 Z "/>
    <path fill="#ffffff" d="M 48.5 246 L 53 249.5 L 51.5 249 L 48.5 246 Z "/>
    <path fill="#ffffff" d="M 442.5 250 L 443 256.5 L 442 256.5 L 442.5 250 Z "/>
    <path fill="#ffffff" d="M 71.5 256 L 72 265.5 L 71 265.5 L 71.5 256 Z "/>
    <path fill="#ffffff" d="M 443.5 258 L 444 266.5 L 443 266.5 L 443.5 258 Z "/>
    <path fill="#ffffff" d="M 444.5 271 L 445 278.5 L 444 278.5 L 444.5 271 Z "/>
    <path fill="#ffffff" d="M 70.5 277 L 71 307.5 L 70 307.5 L 70.5 277 Z "/>
    <path fill="#ffffff" d="M 445.5 287 L 446 297.5 L 445 297.5 L 445.5 287 Z "/>
    <path fill="#ffffff" d="M 446.5 307 L 447 325.5 L 446 325.5 L 446.5 307 Z "/>
    <path fill="#ffffff" d="M 70.5 316 L 71 356.5 L 70 356.5 L 70.5 316 Z "/>
    <path fill="#ffffff" d="M 447.5 330 L 448 389.5 L 447 389.5 L 447.5 330 Z "/>
    <path fill="#ffffff" d="M 71.5 369 L 72 381.5 L 71 381.5 L 71.5 369 Z "/>
    <path fill="#ffffff" d="M 72.5 391 L 73 398.5 L 72 398.5 L 72.5 391 Z "/>
    <path fill="#ffffff" d="M 446.5 394 L 447 405.5 L 446 405.5 L 446.5 394 Z "/>
    <path fill="#ffffff" d="M 73.5 402 L 74 410.5 L 73 410.5 L 73.5 402 Z "/>
    <path fill="#ffffff" d="M 445.5 410 L 446 415.5 L 445 415.5 L 445.5 410 Z "/>
    <path fill="#ffffff" d="M 74.5 413 L 75 417.5 L 74 417.5 L 74.5 413 Z "/>
    <path fill="#ffffff" d="M 443.5 425 L 444 428.5 L 442.5 432 L 442 429.5 L 443.5 425 Z "/>
    <path fill="#ffffff" d="M 77.5 430 L 79 434.5 L 78 434.5 L 77.5 430 Z "/>
    <path fill="#ffffff" d="M 440.5 436 L 441 437.5 L 437.5 443 L 438 441.5 L 440.5 436 Z "/>
    <path fill="#ffffff" d="M 93.5 451 L 98 453.5 L 96.5 454 L 93.5 451 Z "/>
    <path fill="#ffffff" d="M 420.5 455 L 422 455.5 L 417.5 457 L 417.5 456 L 420.5 455 Z "/>
    <path fill="#ffffff" d="M 402.5 458 L 407 458.5 L 402.5 459 L 402.5 458 Z "/>
    <path fill="#ffffff" d="M 120.5 459 L 125 459.5 L 120.5 460 L 120.5 459 Z "/>
    <path fill="#ffffff" d="M 389.5 459 L 398 459.5 L 389.5 460 L 389.5 459 Z "/>
    <path fill="#ffffff" d="M 127.5 460 L 135 460.5 L 127.5 461 L 127.5 460 Z "/>
    <path fill="#ffffff" d="M 367.5 460 L 387 460.5 L 367.5 461 L 367.5 460 Z "/>
    <path fill="#ffffff" d="M 138.5 461 L 145 461.5 L 138.5 462 L 138.5 461 Z "/>
    <path fill="#ffffff" d="M 346.5 461 L 360 461.5 L 346.5 462 L 346.5 461 Z "/>
    <path fill="#ffffff" d="M 153.5 462 L 166 462.5 L 153.5 463 L 153.5 462 Z "/>
    <path fill="#ffffff" d="M 300.5 462 L 327 462.5 L 300.5 463 L 300.5 462 Z "/>
    <path fill="#ffffff" d="M 176.5 463 L 205 463.5 L 176.5 464 L 176.5 463 Z "/>
    <path fill="#ffffff" d="M 237.5 463 L 280 463.5 L 237.5 464 L 237.5 463 Z "/>
    <path fill="#ffffff" d="M 220.5 464 L 230 464.5 L 220.5 465 L 220.5 464 Z "/>
    <path fill="#4da3ff" d="M 258.5 117 L 264.5 117 L 271.5 119 L 291.5 131 L 374.5 200 L 416.5 233 L 421 235 Q 419.9 237.7 422.5 237 L 430 242.5 L 430 260.5 L 431 261.5 L 431 263.5 L 431 278.5 L 432 280.5 L 431 282.5 L 432 283.5 L 433 321.5 L 434 322.5 L 434 387.5 L 433 388.5 L 433 403.5 L 432 404.5 L 431 421.5 L 429 429.5 L 422.5 440 Q 416.5 443.8 408 444 L 408 437.5 L 409 436.5 L 409 401.5 L 408 398.5 L 408 387.5 L 404 366.5 L 399 354.5 L 386.5 340 L 379.5 336 L 369.5 333 L 359.5 333 L 350.5 335 L 341.5 339 L 330 349.5 L 321 365.5 L 316 387.5 L 316 389.5 L 315 426.5 L 317 437.5 L 317 439.5 L 318 447.5 L 316.5 449 L 278.5 449 L 277.5 450 L 187.5 450 L 186.5 449 L 178.5 449 L 176.5 450 L 175.5 449 L 140.5 448 L 139.5 447 L 122.5 446 L 107.5 443 L 99.5 440 L 94 435.5 L 90 426.5 L 87 411.5 L 86 384.5 L 85 383.5 L 84 334.5 L 83 333.5 L 84 332.5 L 84 302.5 L 83 300.5 L 84 299.5 L 84 256.5 L 85 255.5 L 84 252.5 L 85 250.5 L 84 249.5 L 84 242 L 94.5 236 L 148.5 196 L 153 194 Q 151.9 191.3 154.5 192 L 227.5 134 L 247.5 121 L 258.5 117 Z M 246 228 L 245 229 L 235 229 L 234 230 L 221 231 L 212 236 L 208 243 L 205 258 L 205 295 L 205 297 L 206 298 L 207 313 L 211 321 L 216 325 L 230 330 L 279 330 L 297 326 Q 305 321 308 311 L 309 306 L 309 289 L 310 288 L 309 286 L 310 281 L 309 278 L 309 260 L 309 258 L 308 249 L 301 235 L 286 228 L 246 228 Z "/>
    <path fill="#ffd43b" d="M 258.5 238 L 284.5 239 L 295 245.5 L 297 249.5 Q 295.5 255 298 256.5 L 299 293.5 L 298 294.5 L 298 305.5 L 292.5 315 L 285.5 318 Q 279.3 316.3 277.5 319 L 230.5 319 L 225.5 318 L 220 315 L 217 306.5 L 217 297.5 L 216 296.5 L 216 250.5 L 218 244.5 L 220.5 242 L 231.5 239 L 257.5 239 L 258.5 238 Z "/>
    <path fill="#ffd43b" d="M 356.5 345 Q 378.9 342.6 386 355.5 Q 392.4 364.6 395 377.5 L 396 392.5 L 397 393.5 L 397 403.5 L 398 404.5 L 398 424.5 L 397 425.5 L 397 441.5 L 398 447 L 389.5 447 L 388.5 448 L 336.5 449 L 335.5 450 L 327 450 L 327 432.5 L 326 431.5 L 326 402.5 L 327 401.5 L 328 383.5 L 332 369.5 Q 335.7 357.7 344.5 351 L 356.5 345 Z M 380 397 Q 375 399 376 407 Q 378 411 385 410 L 389 405 L 388 400 Q 387 396 380 397 Z "/>
    <path fill="#9775fa" d="M 252.5 62 L 267.5 62 L 279.5 66 L 300.5 79 Q 382.6 142.9 460 211.5 L 465 219.5 L 465 226.5 L 461.5 231 L 454.5 235 L 445.5 235 L 434.5 230 L 419.5 219 L 297.5 119 L 276.5 107 L 268.5 104 L 260.5 103 L 246.5 107 L 224.5 120 L 142.5 185 Q 113.4 203.9 87.5 226 L 67.5 238 L 58.5 239 L 52 233.5 Q 48.1 229.4 49 220.5 L 56 209 L 220.5 79 L 239.5 67 L 252.5 62 Z "/>
    <path fill="#66d9e8" d="M 261.5 115 Q 262.8 117.3 267.5 116 L 276.5 120 L 296.5 133 L 375.5 199 L 431 241.5 L 432 271.5 L 433 272.5 L 433 291.5 L 434 292.5 L 434 316.5 L 435 317.5 L 436 373.5 L 435 374.5 L 435 394.5 L 434 395.5 L 434 409.5 L 433 410.5 L 432 424.5 Q 429.5 434.5 423.5 441 L 414.5 445 L 407 446 L 407 391.5 L 406 390.5 L 406 381.5 L 404 371.5 L 395 350.5 L 385.5 341 L 372.5 335 L 355.5 335 Q 339.3 338.8 331 350.5 L 323 364.5 L 318 384.5 L 318 392.5 L 317 393.5 L 317 432.5 L 318 433.5 L 318 442.5 L 320 450 L 301.5 450 L 300.5 451 L 203.5 452 L 202.5 451 L 146.5 450 L 145.5 449 L 135.5 449 L 134.5 448 L 119.5 447 L 103.5 443 Q 96.1 440.4 92 434.5 L 87 419.5 L 87 412.5 L 85 405.5 L 85 394.5 L 84 393.5 L 83 341.5 L 82 340.5 L 82 283.5 L 83 282.5 L 83 242.5 L 86.5 239 L 151.5 193 L 233.5 128 L 252.5 117 L 261.5 115 Z M 259 117 L 248 121 L 228 134 L 155 192 Q 152 191 153 194 L 149 196 L 95 236 L 84 242 L 84 250 L 85 251 L 84 253 L 85 256 L 84 257 L 84 300 L 83 301 L 84 303 L 84 333 L 83 334 L 84 335 L 85 384 L 86 385 L 87 412 L 90 427 L 94 436 L 100 440 L 108 443 L 123 446 L 140 447 L 141 448 L 176 449 L 177 450 L 179 449 L 187 449 L 188 450 L 278 450 L 279 449 L 317 449 L 318 448 L 317 440 L 317 438 L 315 427 L 316 390 L 316 388 L 321 366 L 330 350 L 342 339 L 351 335 L 360 333 L 370 333 L 380 336 L 387 340 L 399 355 L 404 367 L 408 388 L 408 399 L 409 402 L 409 437 L 408 438 L 408 444 Q 417 444 423 440 L 429 430 L 431 422 L 432 405 L 433 404 L 433 389 L 434 388 L 434 323 L 433 322 L 432 284 L 431 283 L 432 281 L 431 279 L 431 264 L 431 262 L 430 261 L 430 243 L 423 237 Q 420 238 421 235 L 417 233 L 375 200 L 292 131 L 272 119 L 265 117 L 259 117 Z "/>
    <path fill="#66d9e8" d="M 245.5 228 L 285.5 228 L 301 235 L 308 248.5 L 309 257.5 L 309 259.5 L 309 277.5 L 310 280.5 L 309 285.5 L 310 287.5 L 309 288.5 L 309 305.5 L 308 310.5 Q 304.9 320.9 296.5 326 L 278.5 330 L 229.5 330 L 215.5 325 L 211 320.5 L 207 312.5 L 206 297.5 L 205 296.5 L 205 294.5 L 205 257.5 L 208 242.5 L 211.5 236 L 220.5 231 L 233.5 230 L 234.5 229 L 244.5 229 L 245.5 228 Z M 255 229 L 254 230 L 239 230 L 230 232 L 222 232 L 211 238 L 207 254 L 207 266 L 206 267 L 207 305 L 210 317 L 212 320 Q 216 325 223 327 L 236 328 L 237 329 L 285 328 L 299 323 L 307 310 Q 305 303 308 302 L 307 252 L 306 247 L 300 237 L 288 230 Q 281 232 280 229 L 255 229 Z "/>
  </g>
  <g id="line">
    <path fill="#1a1a1a" d="M 260.5 49 L 268.5 50 L 281.5 54 L 308.5 70 Q 390.8 133.8 468 202.5 L 476 214.5 L 477 227.5 Q 473.8 236.8 466.5 242 L 454.5 247 L 445.5 247 L 442 246 L 443 266.5 L 444 267.5 L 444 278.5 L 445 279.5 L 446 325.5 L 447 326.5 L 447 393.5 L 446 394.5 L 445 419.5 L 442 432.5 Q 439 442.5 432.5 449 L 425.5 454 L 416.5 457 L 402.5 458 L 401.5 459 L 389.5 459 L 388.5 460 L 367.5 460 L 366.5 461 L 346.5 461 L 345.5 462 L 205.5 464 L 204.5 463 L 145.5 462 L 144.5 461 L 117.5 459 L 98.5 454 Q 88.5 450.5 83 442.5 L 77 429.5 L 74 412.5 L 74 402.5 L 73 401.5 L 73 391.5 L 72 390.5 L 72 369.5 L 71 368.5 L 71 316.5 Q 68.2 314.8 70 308.5 L 71 307.5 L 71 266.5 L 72 265.5 L 72 249 L 64.5 251 L 57.5 251 L 53.5 250 L 44 242.5 L 37 228.5 L 37 218.5 Q 41 206.5 49.5 199 L 212.5 70 L 239.5 54 L 251.5 50 L 259.5 50 L 260.5 49 Z M 253 62 L 240 67 L 221 79 L 56 209 L 49 221 Q 48 229 52 234 L 59 239 L 68 238 L 88 226 Q 113 204 143 185 L 225 120 L 247 107 L 261 103 L 269 104 L 277 107 L 298 119 L 420 219 L 435 230 L 446 235 L 455 235 L 462 231 L 465 227 L 465 220 L 460 212 Q 383 143 301 79 L 280 66 L 268 62 L 253 62 Z M 262 115 L 253 117 L 234 128 L 152 193 L 87 239 L 83 243 L 83 283 L 82 284 L 82 341 L 83 342 L 84 394 L 85 395 L 85 406 L 87 413 L 87 420 L 92 435 Q 96 440 104 443 L 120 447 L 135 448 L 136 449 L 146 449 L 147 450 L 203 451 L 204 452 L 301 451 L 302 450 L 320 450 L 318 443 L 318 434 L 317 433 L 317 394 L 318 393 L 318 385 L 323 365 L 331 351 Q 339 339 356 335 L 373 335 L 386 341 L 395 351 L 404 372 L 406 382 L 406 391 L 407 392 L 407 446 L 415 445 L 424 441 Q 430 435 432 425 L 433 411 L 434 410 L 434 396 L 435 395 L 435 375 L 436 374 L 435 318 L 434 317 L 434 293 L 433 292 L 433 273 L 432 272 L 431 242 L 376 199 L 297 133 L 277 120 L 268 116 Q 263 117 262 115 Z M 357 345 L 345 351 Q 336 358 332 370 L 328 384 L 327 402 L 326 403 L 326 432 L 327 433 L 327 450 L 336 450 L 337 449 L 389 448 L 390 447 L 398 447 L 397 442 L 397 426 L 398 425 L 398 405 L 397 404 L 397 394 L 396 393 L 395 378 Q 392 365 386 356 Q 379 343 357 345 Z "/>
    <path fill="#1a1a1a" d="M 254.5 229 L 279.5 229 Q 281.3 231.8 287.5 230 L 300 236.5 L 306 246.5 L 307 251.5 L 308 301.5 Q 305.3 303.3 307 309.5 L 298.5 323 L 284.5 328 L 236.5 329 L 235.5 328 L 222.5 327 Q 215.8 324.8 212 319.5 L 210 316.5 L 207 304.5 L 206 266.5 L 207 265.5 L 207 253.5 L 211 238 L 221.5 232 L 229.5 232 L 238.5 230 L 253.5 230 L 254.5 229 Z M 259 238 L 258 239 L 232 239 L 221 242 L 218 245 L 216 251 L 216 297 L 217 298 L 217 307 L 220 315 L 226 318 L 231 319 L 278 319 Q 279 316 286 318 L 293 315 L 298 306 L 298 295 L 299 294 L 298 257 Q 296 255 297 250 L 295 246 L 285 239 L 259 238 Z "/>
    <path fill="#1a1a1a" d="M 379.5 397 Q 386.5 395.5 388 399.5 L 389 404.5 L 384.5 410 Q 377.6 410.9 376 406.5 Q 374.5 398.5 379.5 397 Z "/>
  </g>
</svg>
