<svg xmlns="http://www.w3.org/2000/svg" width="512" height="512" viewBox="0 0 512 512">
  <g id="color">
    <path fill="#ffffff" d="M 246.5 42 L 251 42.5 L 246.5 43 L 246.5 42 Z "/>
    <path fill="#ffffff" d="M 261.5 42 L 271 43.5 L 267.5 44 Q 266.2 41.7 261.5 43 L 261.5 42 Z "/>
    <path fill="#ffffff" d="M 234.5 45 L 237 45.5 L 229.5 48 L 229.5 47 L 234.5 45 Z "/>
    <path fill="#ffffff" d="M 226.5 48 L 228 48.5 L 222.5 51 L 222.5 50 L 226.5 48 Z "/>
    <path fill="#ffffff" d="M 285.5 48 L 289 49.5 L 287.5 50 L 285.5 48 Z "/>
    <path fill="#ffffff" d="M 292.5 51 L 298 53.5 L 296.5 54 L 292.5 52 L 292.5 51 Z "/>
    <path fill="#ffffff" d="M 217.5 52 L 219 52.5 L 213.5 55 L 213.5 54 L 217.5 52 Z "/>
    <path fill="#ffffff" d="M 202.5 59 L 204 59.5 L 192.5 65 L 192.5 64 L 202.5 59 Z "/>
    <path fill="#ffffff" d="M 309.5 59 L 315 61.5 L 313.5 62 L 309.5 60 L 309.5 59 Z "/>
    <path fill="#ffffff" d="M 316.5 62 L 321 64.5 L 319.5 65 L 316.5 62 Z "/>
    <path fill="#ffffff" d="M 190.5 65 L 189.5 67 L 186.5 68 L 186.5 67 L 190.5 65 Z "/>
    <path fill="#ffffff" d="M 330.5 69 L 335 71.5 L 333.5 71 Q 329.7 70.7 330.5 69 Z "/>
    <path fill="#ffffff" d="M 175.5 72 L 177 72.5 L 171.5 75 L 171.5 74 L 175.5 72 Z "/>
    <path fill="#ffffff" d="M 336.5 72 L 342 74.5 L 340.5 75 L 336.5 73 L 336.5 72 Z "/>
    <path fill="#ffffff" d="M 167.5 76 L 166.5 78 L 163.5 79 L 163.5 78 L 167.5 76 Z "/>
    <path fill="#ffffff" d="M 351.5 79 L 357 81.5 L 355.5 82 L 351.5 80 L 351.5 79 Z "/>
    <path fill="#ffffff" d="M 154.5 82 L 156 82.5 L 150.5 85 L 150.5 84 L 154.5 82 Z "/>
    <path fill="#ffffff" d="M 366.5 86 L 372 88.5 L 370.5 89 L 366.5 87 L 366.5 86 Z "/>
    <path fill="#ffffff" d="M 139.5 89 L 141 89.5 L 135.5 92 L 135.5 91 L 139.5 89 Z "/>
    <path fill="#ffffff" d="M 373.5 89 L 378 91.5 L 376.5 92 L 373.5 89 Z "/>
    <path fill="#ffffff" d="M 381.5 93 L 385 94.5 L 383.5 95 L 381.5 93 Z "/>
    <path fill="#ffffff" d="M 394.5 99 L 400 101.5 L 398.5 102 L 394.5 100 L 394.5 99 Z "/>
    <path fill="#ffffff" d="M 115.5 100 L 117 100.5 L 113.5 102 L 113.5 101 L 115.5 100 Z "/>
    <path fill="#ffffff" d="M 108.5 103 L 110 103.5 L 105.5 106 L 106.5 104 L 108.5 103 Z "/>
    <path fill="#ffffff" d="M 403.5 103 L 409 105.5 L 407.5 106 L 403.5 104 L 403.5 103 Z "/>
    <path fill="#ffffff" d="M 102.5 106 L 104 106.5 L 98.5 109 L 98.5 108 L 102.5 106 Z "/>
    <path fill="#ffffff" d="M 93.5 110 L 95 110.5 L 89.5 113 L 89.5 112 L 93.5 110 Z "/>
    <path fill="#ffffff" d="M 418.5 110 L 424 112.5 L 422.5 113 L 418.5 111 L 418.5 110 Z "/>
    <path fill="#ffffff" d="M 72.5 120 L 74 120.5 L 69.5 123 L 70.5 121 L 72.5 120 Z "/>
    <path fill="#ffffff" d="M 439.5 120 L 445 122.5 L 443.5 123 L 439.5 121 L 439.5 120 Z "/>
    <path fill="#ffffff" d="M 66.5 123 L 68 123.5 L 63.5 126 L 64.5 124 L 66.5 123 Z "/>
    <path fill="#ffffff" d="M 446.5 123 L 450 125.5 L 448.5 125 L 446.5 123 Z "/>
    <path fill="#ffffff" d="M 59.5 127 L 58.5 129 L 56.5 130 L 57.5 128 L 59.5 127 Z "/>
    <path fill="#ffffff" d="M 453.5 127 L 457 129.5 L 455.5 129 L 453.5 127 Z "/>
    <path fill="#ffffff" d="M 54.5 130 L 52.5 133 L 48.5 136 L 51.5 132 L 54.5 130 Z "/>
    <path fill="#ffffff" d="M 45.5 138 L 42 142.5 L 40.5 145 L 41 143.5 L 45.5 138 Z "/>
    <path fill="#ffffff" d="M 467.5 138 L 473 144.5 L 471 143.5 L 467.5 138 Z "/>
    <path fill="#ffffff" d="M 38.5 148 L 39 149.5 L 37.5 155 L 37 150.5 L 38.5 148 Z "/>
    <path fill="#ffffff" d="M 475.5 151 L 476 160.5 L 474.5 164 L 474 161.5 L 475 160.5 L 475.5 151 Z "/>
    <path fill="#ffffff" d="M 37.5 157 L 39 163.5 L 38 163.5 L 37.5 157 Z "/>
    <path fill="#ffffff" d="M 472.5 167 L 472 168.5 L 470.5 171 L 471 169.5 L 472.5 167 Z "/>
    <path fill="#ffffff" d="M 469.5 172 L 462.5 180 L 458.5 183 L 461.5 179 L 469.5 172 Z "/>
    <path fill="#ffffff" d="M 56.5 183 L 62 187.5 L 59.5 186 L 56.5 183 Z "/>
    <path fill="#ffffff" d="M 456.5 183 L 454.5 186 L 451.5 188 L 453.5 185 L 456.5 183 Z "/>
    <path fill="#ffffff" d="M 69.5 192 L 73 194.5 L 71.5 194 L 69.5 192 Z "/>
    <path fill="#ffffff" d="M 443.5 192 L 442.5 194 L 440.5 195 L 441.5 193 L 443.5 192 Z "/>
    <path fill="#ffffff" d="M 438.5 195 L 437.5 197 L 435.5 198 L 436.5 196 L 438.5 195 Z "/>
    <path fill="#ffffff" d="M 76.5 196 L 80 198.5 L 78.5 198 L 76.5 196 Z "/>
    <path fill="#ffffff" d="M 81.5 199 L 87 202.5 Q 87.8 204.8 85.5 204 L 83.5 205 L 83.5 204 L 86 202.5 Q 81.7 201.7 81.5 199 Z "/>
    <path fill="#ffffff" d="M 431.5 199 L 430.5 201 L 428.5 202 L 429.5 200 L 431.5 199 Z "/>
    <path fill="#ffffff" d="M 426.5 202 L 430 204.5 L 428.5 205 L 426 204 L 426.5 202 Z "/>
    <path fill="#ffffff" d="M 437.5 208 L 445 211.5 L 443.5 212 L 437.5 209 L 437.5 208 Z "/>
    <path fill="#ffffff" d="M 72.5 209 L 74 209.5 L 69.5 212 L 70.5 210 L 72.5 209 Z "/>
    <path fill="#ffffff" d="M 446.5 212 L 450 214.5 L 448.5 214 L 446.5 212 Z "/>
    <path fill="#ffffff" d="M 59.5 216 L 58.5 218 L 56.5 219 L 57.5 217 L 59.5 216 Z "/>
    <path fill="#ffffff" d="M 453.5 216 L 457 218.5 L 455.5 218 L 453.5 216 Z "/>
    <path fill="#ffffff" d="M 458.5 219 L 465 224.5 L 461.5 222 L 458.5 219 Z "/>
    <path fill="#ffffff" d="M 469.5 229 L 473 233.5 L 471 232.5 L 469.5 229 Z "/>
    <path fill="#ffffff" d="M 39.5 235 L 39 236.5 Q 36.6 241.6 38 250.5 L 39 252.5 L 38 252.5 L 37 250.5 L 37 239.5 L 39.5 235 Z "/>
    <path fill="#ffffff" d="M 474.5 237 Q 477.9 240.6 476 249.5 L 474.5 253 L 474 250.5 L 475 249.5 L 475 239.5 L 474.5 237 Z "/>
    <path fill="#ffffff" d="M 40.5 256 L 45 262.5 L 44 262.5 L 40.5 256 Z "/>
    <path fill="#ffffff" d="M 472.5 256 L 472 257.5 L 468.5 263 L 468 261.5 L 472.5 256 Z "/>
    <path fill="#ffffff" d="M 449.5 277 L 448.5 279 L 446.5 280 L 447.5 278 L 449.5 277 Z "/>
    <path fill="#ffffff" d="M 444.5 280 L 443.5 282 L 441.5 283 L 442.5 281 L 444.5 280 Z "/>
    <path fill="#ffffff" d="M 439.5 283 L 438.5 285 L 435.5 287 L 437.5 284 L 439.5 283 Z "/>
    <path fill="#ffffff" d="M 80.5 287 L 85 290.5 L 82.5 289 L 80.5 287 Z "/>
    <path fill="#ffffff" d="M 75.5 294 L 77 294.5 L 71.5 297 L 71.5 296 L 75.5 294 Z "/>
    <path fill="#ffffff" d="M 436.5 294 L 442 296.5 L 440.5 297 L 436.5 295 L 436.5 294 Z "/>
    <path fill="#ffffff" d="M 69.5 297 L 68.5 299 L 64.5 301 L 65.5 299 L 69.5 297 Z "/>
    <path fill="#ffffff" d="M 443.5 297 L 449 300.5 L 447.5 300 Q 443.5 299.5 443.5 297 Z "/>
    <path fill="#ffffff" d="M 474.5 323 Q 476.8 324.8 476 329.5 L 475 329.5 L 474.5 323 Z "/>
    <path fill="#ffffff" d="M 475.5 332 L 476 336.5 L 474.5 339 L 474 337.5 L 475.5 332 Z "/>
    <path fill="#ffffff" d="M 38.5 338 L 43 345.5 L 40 343.5 L 38.5 338 Z "/>
    <path fill="#ffffff" d="M 57.5 359 L 62 362.5 L 59.5 361 L 57.5 359 Z "/>
    <path fill="#ffffff" d="M 66.5 365 L 71 368.5 L 68.5 367 L 66.5 365 Z "/>
    <path fill="#ffffff" d="M 446.5 365 L 445.5 367 L 442.5 369 L 444.5 366 L 446.5 365 Z "/>
    <path fill="#ffffff" d="M 74.5 370 L 78 372.5 L 76.5 372 L 74.5 370 Z "/>
    <path fill="#ffffff" d="M 433.5 373 L 432.5 375 L 430.5 376 L 431.5 374 L 433.5 373 Z "/>
    <path fill="#ffffff" d="M 81.5 374 L 87 377.5 L 85.5 377 Q 81.5 376.5 81.5 374 Z "/>
    <path fill="#ffffff" d="M 90.5 379 L 94 381.5 L 92.5 381 L 90.5 379 Z "/>
    <path fill="#ffffff" d="M 422.5 379 L 421.5 381 L 419.5 382 L 420.5 380 L 422.5 379 Z "/>
    <path fill="#ffffff" d="M 97.5 383 L 107 388.5 L 105.5 389 L 98.5 385 L 97.5 383 Z "/>
    <path fill="#ffffff" d="M 415.5 383 L 414.5 385 L 412.5 386 L 413.5 384 L 415.5 383 Z "/>
    <path fill="#ffffff" d="M 404.5 389 L 403.5 391 L 401.5 392 L 402.5 390 L 404.5 389 Z "/>
    <path fill="#ffffff" d="M 111.5 391 L 115 393.5 L 113.5 393 L 111.5 391 Z "/>
    <path fill="#ffffff" d="M 121.5 397 L 125 399.5 L 123.5 399 L 121.5 397 Z "/>
    <path fill="#ffffff" d="M 391.5 397 L 390.5 399 L 388.5 400 L 389.5 398 L 391.5 397 Z "/>
    <path fill="#ffffff" d="M 126.5 400 L 130 402.5 L 128.5 402 L 126.5 400 Z "/>
    <path fill="#ffffff" d="M 386.5 400 L 385.5 402 L 383.5 403 L 384.5 401 L 386.5 400 Z "/>
    <path fill="#ffffff" d="M 131.5 403 L 135 405.5 L 133.5 405 L 131.5 403 Z "/>
    <path fill="#ffffff" d="M 136.5 406 L 141 409.5 L 138.5 408 L 136.5 406 Z "/>
    <path fill="#ffffff" d="M 376.5 406 L 375.5 408 L 372.5 410 L 374.5 407 L 376.5 406 Z "/>
    <path fill="#ffffff" d="M 142.5 410 L 146 412.5 L 144.5 412 L 142.5 410 Z "/>
    <path fill="#ffffff" d="M 370.5 410 L 369.5 412 L 367.5 413 L 368.5 411 L 370.5 410 Z "/>
    <path fill="#ffffff" d="M 365.5 413 L 363.5 416 L 361.5 417 L 362.5 415 L 365.5 413 Z "/>
    <path fill="#ffffff" d="M 153.5 417 L 157 419.5 L 155.5 419 L 153.5 417 Z "/>
    <path fill="#ffffff" d="M 359.5 417 L 358.5 419 L 356.5 420 L 357.5 418 L 359.5 417 Z "/>
    <path fill="#ffffff" d="M 158.5 420 L 163 423.5 L 161.5 423 L 158.5 420 Z "/>
    <path fill="#ffffff" d="M 354.5 420 L 352.5 423 L 350.5 424 L 351.5 422 L 354.5 420 Z "/>
    <path fill="#ffffff" d="M 348.5 424 L 347.5 426 L 345.5 427 L 346.5 425 L 348.5 424 Z "/>
    <path fill="#ffffff" d="M 343.5 427 L 341.5 430 L 339.5 431 L 340.5 429 L 343.5 427 Z "/>
    <path fill="#ffffff" d="M 331.5 435 L 330.5 437 L 328.5 438 L 329.5 436 L 331.5 435 Z "/>
    <path fill="#ffffff" d="M 186.5 438 L 190 440.5 L 188.5 440 L 186.5 438 Z "/>
    <path fill="#ffffff" d="M 326.5 438 L 325.5 440 L 323.5 441 L 324.5 439 L 326.5 438 Z "/>
    <path fill="#ffffff" d="M 191.5 441 L 195 443.5 L 193.5 443 L 191.5 441 Z "/>
    <path fill="#ffffff" d="M 321.5 441 L 320.5 443 L 318.5 444 L 319.5 442 L 321.5 441 Z "/>
    <path fill="#ffffff" d="M 316.5 444 L 315.5 446 L 313.5 447 L 314.5 445 L 316.5 444 Z "/>
    <path fill="#ffffff" d="M 201.5 447 L 205 449.5 L 203.5 449 L 201.5 447 Z "/>
    <path fill="#ffffff" d="M 304.5 451 L 303.5 453 L 301.5 454 L 302.5 452 L 304.5 451 Z "/>
    <path fill="#ffffff" d="M 213.5 454 L 217 456.5 L 215.5 456 L 213.5 454 Z "/>
    <path fill="#ffffff" d="M 299.5 454 L 298.5 456 L 296.5 457 L 297.5 455 L 299.5 454 Z "/>
    <path fill="#ffffff" d="M 218.5 457 L 224 460.5 L 222.5 460 Q 218.5 459.5 218.5 457 Z "/>
    <path fill="#ffffff" d="M 292.5 458 L 291.5 460 L 289.5 461 L 290.5 459 L 292.5 458 Z "/>
    <path fill="#ffffff" d="M 233.5 465 L 240 467.5 L 238.5 468 L 233.5 466 L 233.5 465 Z "/>
    <path fill="#ffffff" d="M 278.5 465 L 280 465.5 L 276.5 467 L 276.5 466 L 278.5 465 Z "/>
    <path fill="#ffffff" d="M 266.5 469 L 269 469.5 L 262.5 471 L 262.5 470 L 266.5 469 Z "/>
    <path fill="#4da3ff" d="M 356.5 136 L 365.5 137 L 371 140 L 376 149.5 L 376 157.5 Q 374.4 164.4 369.5 168 Q 363.7 172.2 352.5 171 Q 345.3 169.2 342 163.5 L 340 153.5 L 343 144.5 L 348.5 139 L 356.5 136 Z "/>
    <path fill="#ffd43b" d="M 250.5 51 L 267.5 52 L 288.5 59 L 357.5 93 L 405.5 114 L 448.5 135 L 463 146.5 Q 467.7 150.3 466 160.5 L 453.5 175 L 430.5 190 L 377.5 219 L 326.5 252 L 287.5 275 L 267.5 284 Q 260.4 286.4 249.5 285 L 227.5 276 L 125.5 213 L 84.5 191 L 59.5 175 L 48 163.5 Q 45.3 159.7 47 151.5 L 55.5 141 L 64.5 135 L 92.5 121 L 172.5 85 L 224.5 59 L 240.5 53 L 250.5 51 Z M 356 128 L 344 133 Q 334 139 332 152 L 333 163 L 336 169 Q 341 176 351 179 Q 361 180 368 178 L 377 172 Q 382 167 384 160 Q 386 144 379 138 L 367 129 L 356 128 Z "/>
    <path fill="#ff6b6b" d="M 290 301 L 297 303.5 L 299 306.5 L 299 308.5 L 299.5 310 L 301 309.5 L 300 311.5 L 303 312.5 L 302.5 314 L 305 315.5 L 306 317.5 L 304 317.5 L 305.5 321 L 306.5 319 L 308 321.5 L 306 321.5 L 307.5 324 L 309 323.5 L 310 325.5 Q 307 329.5 299 328.5 L 307 329.5 L 296.5 330 L 293.5 328 L 287.5 330 L 286.5 329 L 278.5 329 L 277 327.5 L 276 325.5 L 278 324.5 L 277.5 323 L 279 323.5 L 278 321.5 L 280 320.5 L 280 318.5 L 281.5 316 L 283 316.5 L 282 314.5 L 284 314.5 L 283 312.5 L 286 311.5 L 285 309.5 L 287 309.5 L 286 307.5 L 290 301 Z "/>
    <path fill="#9775fa" d="M 94.5 296 L 102.5 299 L 125.5 312 Q 172.2 343.8 222.5 372 L 246.5 382 L 261.5 383 L 278.5 378 L 301.5 366 L 386.5 313 L 412.5 298 L 418.5 296 L 446.5 309 L 463 321.5 Q 467.7 325.3 466 335.5 L 459.5 345 L 442.5 358 L 380.5 393 L 341.5 419 L 290.5 450 L 270.5 460 L 261.5 462 L 250.5 462 L 240.5 459 L 215.5 446 L 122.5 387 L 70.5 358 L 52 343.5 Q 46.1 339.4 46 329.5 Q 48.1 322.1 53.5 318 L 64.5 310 L 94.5 296 Z "/>
    <path fill="#66d9e8" d="M 352.5 135 Q 368.6 132.9 374 141.5 Q 378.2 146.8 378 156.5 Q 376.1 165.6 369.5 170 L 361.5 173 L 353.5 173 Q 344.6 171.4 341 164.5 Q 337.7 159.8 339 150.5 Q 340.9 140.9 348.5 137 L 352.5 135 Z M 357 136 L 349 139 L 343 145 L 340 154 L 342 164 Q 345 169 353 171 Q 364 172 370 168 Q 374 164 376 158 L 376 150 L 371 140 L 366 137 L 357 136 Z "/>
    <path fill="#66d9e8" d="M 95.5 209 L 99.5 209 L 114.5 217 L 187.5 263 L 229.5 287 L 249.5 294 L 264.5 294 L 289.5 284 L 325.5 263 L 386.5 224 L 413.5 209 L 417.5 209 L 448.5 224 L 464 236.5 Q 467.5 240.5 466 249.5 L 454.5 263 L 430.5 279 L 382.5 305 Q 335.6 336.6 285.5 365 L 266.5 373 L 250.5 374 L 233.5 368 L 208.5 354 L 124.5 301 L 76.5 275 L 57.5 262 L 50 254.5 Q 45.1 250.4 47 239.5 L 55.5 230 L 64.5 224 L 95.5 209 Z M 291 293 L 289 294 Q 277 308 269 326 L 270 334 L 274 336 L 279 337 L 311 336 L 314 335 L 317 330 Q 316 321 312 316 L 301 298 Q 299 292 291 293 Z "/>
    <path fill="#f783ac" d="M 297.5 306 L 303 313.5 L 300 311.5 L 297.5 306 Z "/>
    <path fill="#f783ac" d="M 287.5 307 L 287 308.5 L 279.5 321 L 281 318.5 L 287.5 307 Z "/>
    <path fill="#f783ac" d="M 304.5 317 L 308 323.5 L 306 322.5 L 304.5 317 Z "/>
    <path fill="#f783ac" d="M 308.5 325 L 310 327.5 L 308.5 329 L 299.5 329 L 299.5 328 Q 306.3 329.3 309 326.5 L 308.5 325 Z "/>
    <path fill="#f783ac" d="M 276.5 326 L 278.5 329 L 287 329.5 L 284.5 331 Q 282.8 328.2 276.5 330 L 275 328.5 L 276.5 326 Z "/>
    <path fill="#f783ac" d="M 293.5 328 L 296 329.5 L 289.5 330 L 289.5 329 L 293.5 328 Z "/>
  </g>
  <g id="line">
    <path fill="#1a1a1a" d="M 251.5 42 L 260.5 42 L 271.5 44 L 289.5 50 L 346.5 78 L 445.5 123 L 467 137.5 L 474 147.5 Q 476.3 152.3 475 160.5 Q 471.7 172.7 462.5 179 Q 446 192.7 426 202 Q 424.9 204.7 427.5 204 L 452.5 216 L 469 228.5 L 475 239.5 L 475 249.5 L 473 255.5 L 463.5 267 Q 448.2 280.3 429 289 L 430.5 292 L 455.5 304 L 471 317.5 Q 475.3 322.7 476 331.5 Q 473.1 347.6 461.5 355 L 441.5 369 L 397.5 393 L 332.5 435 L 288.5 461 L 273.5 468 L 261.5 471 L 252.5 471 L 232.5 465 L 198.5 446 L 138.5 407 L 103.5 386 L 71.5 369 L 56.5 359 L 43 346.5 Q 37.4 341.1 37 330.5 L 40 320.5 L 51.5 308 L 85 290.5 L 58.5 274 L 45 262.5 L 38 250.5 L 38 239.5 Q 40.8 230.3 47.5 225 Q 64.5 211.4 87 204 L 85.5 201 Q 60.8 189.8 43 171.5 Q 38 165.5 37 155.5 Q 39.1 142.6 47.5 136 L 60.5 127 L 88.5 113 L 164.5 79 L 212.5 55 L 228.5 48 L 251.5 42 Z M 251 51 L 241 53 L 225 59 L 173 85 L 93 121 L 65 135 L 56 141 L 47 152 Q 45 160 48 164 L 60 175 L 85 191 L 126 213 L 228 276 L 250 285 Q 260 286 268 284 L 288 275 L 327 252 L 378 219 L 431 190 L 454 175 L 466 161 Q 468 150 463 147 L 449 135 L 406 114 L 358 93 L 289 59 L 268 52 L 251 51 Z M 96 209 L 65 224 L 56 230 L 47 240 Q 45 250 50 255 L 58 262 L 77 275 L 125 301 L 209 354 L 234 368 L 251 374 L 267 373 L 286 365 Q 336 337 383 305 L 431 279 L 455 263 L 466 250 Q 467 241 464 237 L 449 224 L 418 209 L 414 209 L 387 224 L 326 263 L 290 284 L 265 294 L 250 294 L 230 287 L 188 263 L 115 217 L 100 209 L 96 209 Z M 95 296 L 65 310 L 54 318 Q 48 322 46 330 Q 46 339 52 344 L 71 358 L 123 387 L 216 446 L 241 459 L 251 462 L 262 462 L 271 460 L 291 450 L 342 419 L 381 393 L 443 358 L 460 345 L 466 336 Q 468 325 463 322 L 447 309 L 419 296 L 413 298 L 387 313 L 302 366 L 279 378 L 262 383 L 247 382 L 223 372 Q 172 344 126 312 L 103 299 L 95 296 Z "/>
    <path fill="#1a1a1a" d="M 355.5 128 L 366.5 129 L 379 137.5 Q 386 144 384 159.5 Q 381.8 167.3 376.5 172 L 367.5 178 Q 360.8 180.3 350.5 179 Q 341.2 175.8 336 168.5 L 333 162.5 L 332 151.5 Q 334.3 138.8 343.5 133 L 355.5 128 Z M 353 135 L 349 137 Q 341 141 339 151 Q 338 160 341 165 Q 345 171 354 173 L 362 173 L 370 170 Q 376 166 378 157 Q 378 147 374 142 Q 369 133 353 135 Z "/>
    <path fill="#1a1a1a" d="M 290.5 293 Q 299.1 291.9 301 297.5 L 312 315.5 Q 316.3 320.7 317 329.5 L 313.5 335 L 310.5 336 L 278.5 337 L 273.5 336 L 270 333.5 L 269 325.5 Q 276.5 307.5 288.5 294 L 290.5 293 Z M 293 300 L 290 301 L 275 329 L 277 330 Q 283 328 285 331 L 286 330 L 307 330 L 310 328 Q 305 314 297 304 L 293 300 Z "/>
  </g>
</svg>
