<svg xmlns="http://www.w3.org/2000/svg" width="512" height="512" viewBox="0 0 512 512">
  <g id="color">
    <path fill="#ffffff" d="M 174.5 92 L 204 92.5 L 166.5 94 L 166.5 93 Q 172.8 94.7 174.5 92 Z "/>
    <path fill="#ffffff" d="M 205.5 93 L 212 93.5 L 205.5 94 L 205.5 93 Z "/>
    <path fill="#ffffff" d="M 221.5 95 L 234 97.5 L 231.5 98 L 221.5 96 L 221.5 95 Z "/>
    <path fill="#ffffff" d="M 142.5 98 L 145 98.5 L 137.5 101 L 137.5 100 L 142.5 98 Z "/>
    <path fill="#ffffff" d="M 236.5 98 L 246 100.5 L 243.5 101 L 236.5 99 L 236.5 98 Z "/>
    <path fill="#ffffff" d="M 131.5 102 L 133 102.5 L 129.5 104 L 129.5 103 L 131.5 102 Z "/>
    <path fill="#ffffff" d="M 251.5 102 L 257 103.5 L 254.5 104 L 251.5 103 L 251.5 102 Z "/>
    <path fill="#ffffff" d="M 124.5 105 L 123.5 107 L 120.5 108 L 120.5 107 L 124.5 105 Z "/>
    <path fill="#ffffff" d="M 261.5 105 L 267 106.5 L 264.5 107 L 261.5 106 L 261.5 105 Z "/>
    <path fill="#ffffff" d="M 118.5 108 L 117.5 110 L 115.5 111 L 116.5 109 L 118.5 108 Z "/>
    <path fill="#ffffff" d="M 273.5 108 L 279 109.5 L 276.5 110 L 273.5 109 L 273.5 108 Z "/>
    <path fill="#ffffff" d="M 112.5 111 L 114 111.5 L 109.5 114 L 110.5 112 L 112.5 111 Z "/>
    <path fill="#ffffff" d="M 290.5 112 L 295 112.5 L 290.5 113 L 290.5 112 Z "/>
    <path fill="#ffffff" d="M 340.5 112 L 359 112.5 L 340.5 113 L 340.5 112 Z "/>
    <path fill="#ffffff" d="M 296.5 113 L 301 113.5 L 296.5 114 L 296.5 113 Z "/>
    <path fill="#ffffff" d="M 331.5 113 L 338 113.5 L 331.5 114 L 331.5 113 Z "/>
    <path fill="#ffffff" d="M 361.5 113 L 370 113.5 L 361.5 114 L 361.5 113 Z "/>
    <path fill="#ffffff" d="M 107.5 114 L 105.5 117 L 103.5 118 L 104.5 116 L 107.5 114 Z "/>
    <path fill="#ffffff" d="M 307.5 114 L 326 114.5 L 307.5 115 L 307.5 114 Z "/>
    <path fill="#ffffff" d="M 375.5 114 L 380 114.5 L 375.5 115 L 375.5 114 Z "/>
    <path fill="#ffffff" d="M 383.5 115 L 394 116.5 L 389.5 117 Q 388.3 114.8 383.5 116 L 383.5 115 Z "/>
    <path fill="#ffffff" d="M 93.5 124 L 89.5 129 L 76 141.5 L 75.5 143 L 75 141.5 L 93.5 124 Z "/>
    <path fill="#ffffff" d="M 435.5 125 L 440 126.5 L 438.5 127 L 435.5 126 L 435.5 125 Z "/>
    <path fill="#ffffff" d="M 444.5 128 L 448 129.5 L 446.5 130 L 444.5 128 Z "/>
    <path fill="#ffffff" d="M 470.5 144 L 473 147.5 L 470 145.5 L 470.5 144 Z "/>
    <path fill="#ffffff" d="M 476.5 156 Q 479.1 160.9 478 169.5 L 477 169.5 L 476.5 156 Z "/>
    <path fill="#ffffff" d="M 63.5 157 L 63 158.5 L 61.5 161 L 62 159.5 L 63.5 157 Z "/>
    <path fill="#ffffff" d="M 56.5 169 L 56 170.5 L 54.5 173 L 55 171.5 L 56.5 169 Z "/>
    <path fill="#ffffff" d="M 53.5 174 L 54 175.5 L 51.5 180 L 51 178.5 L 53.5 174 Z "/>
    <path fill="#ffffff" d="M 474.5 177 L 475 178.5 L 472.5 182 L 473 180.5 L 474.5 177 Z "/>
    <path fill="#ffffff" d="M 49.5 183 L 50 184.5 L 48.5 187 L 48 185.5 L 49.5 183 Z "/>
    <path fill="#ffffff" d="M 471.5 183 L 471 184.5 L 461.5 195 L 470 185.5 L 471.5 183 Z "/>
    <path fill="#ffffff" d="M 46.5 190 L 47 192.5 L 45.5 195 L 45 193.5 L 46.5 190 Z "/>
    <path fill="#ffffff" d="M 455.5 198 L 454.5 200 L 451.5 202 L 453.5 199 L 455.5 198 Z "/>
    <path fill="#ffffff" d="M 449.5 202 L 448.5 204 L 446.5 205 L 447.5 203 L 449.5 202 Z "/>
    <path fill="#ffffff" d="M 42.5 203 L 43 205.5 L 41.5 209 L 41 206.5 L 42.5 203 Z "/>
    <path fill="#ffffff" d="M 438.5 208 L 437.5 210 L 435.5 211 L 436.5 209 L 438.5 208 Z "/>
    <path fill="#ffffff" d="M 39.5 215 L 40 218.5 L 38.5 223 L 38 219.5 L 39.5 215 Z "/>
    <path fill="#ffffff" d="M 36.5 234 L 37 243.5 L 36 243.5 L 36.5 234 Z "/>
    <path fill="#ffffff" d="M 35.5 245 L 36 266.5 L 35 266.5 L 35.5 245 Z "/>
    <path fill="#ffffff" d="M 396.5 247 L 393 251.5 L 386.5 259 L 392 252.5 L 396.5 247 Z "/>
    <path fill="#ffffff" d="M 36.5 268 L 37 276.5 L 36 276.5 L 36.5 268 Z "/>
    <path fill="#ffffff" d="M 374.5 270 L 370.5 275 L 366.5 278 L 369.5 274 L 374.5 270 Z "/>
    <path fill="#ffffff" d="M 364.5 278 L 362.5 281 L 359.5 283 L 361.5 280 L 364.5 278 Z "/>
    <path fill="#ffffff" d="M 357.5 283 L 356.5 285 L 354.5 286 L 355.5 284 L 357.5 283 Z "/>
    <path fill="#ffffff" d="M 351.5 286 L 353 286.5 L 348.5 289 L 349.5 287 L 351.5 286 Z "/>
    <path fill="#ffffff" d="M 345.5 289 L 347 289.5 L 343.5 291 L 343.5 290 L 345.5 289 Z "/>
    <path fill="#ffffff" d="M 39.5 292 L 40 296.5 L 39 296.5 L 39.5 292 Z "/>
    <path fill="#ffffff" d="M 279.5 293 L 281 293.5 L 279 294 L 278.5 296 L 278 294.5 L 279.5 293 Z "/>
    <path fill="#ffffff" d="M 335.5 293 L 337 293.5 L 332.5 295 L 332.5 294 L 335.5 293 Z "/>
    <path fill="#ffffff" d="M 323.5 296 L 327 296.5 L 317.5 298 L 317.5 297 Q 322.3 298.3 323.5 296 Z "/>
    <path fill="#ffffff" d="M 292.5 297 L 297 297.5 L 292.5 298 L 292.5 297 Z "/>
    <path fill="#ffffff" d="M 298.5 298 L 316 298.5 L 298.5 299 L 298.5 298 Z "/>
    <path fill="#ffffff" d="M 273.5 306 L 273 307.5 L 270.5 311 L 272 308.5 L 273.5 306 Z "/>
    <path fill="#ffffff" d="M 42.5 308 L 44 314.5 L 43 314.5 L 42.5 308 Z "/>
    <path fill="#ffffff" d="M 45.5 322 L 47 331.5 L 46 331.5 L 45.5 322 Z "/>
    <path fill="#ffffff" d="M 251.5 328 L 250.5 330 L 248.5 331 L 249.5 329 L 251.5 328 Z "/>
    <path fill="#ffffff" d="M 245.5 331 L 247 331.5 L 239.5 335 L 239.5 334 L 245.5 331 Z "/>
    <path fill="#ffffff" d="M 237.5 335 L 236.5 337 L 232.5 338 L 232.5 337 L 237.5 335 Z "/>
    <path fill="#ffffff" d="M 47.5 336 L 48 342.5 L 47 342.5 L 47.5 336 Z "/>
    <path fill="#ffffff" d="M 228.5 338 L 230 338.5 L 225.5 340 L 225.5 339 L 228.5 338 Z "/>
    <path fill="#ffffff" d="M 212.5 342 L 216 342.5 L 209.5 344 L 209.5 343 L 212.5 342 Z "/>
    <path fill="#ffffff" d="M 191.5 348 L 193 348.5 L 189.5 350 L 189.5 349 L 191.5 348 Z "/>
    <path fill="#ffffff" d="M 184.5 351 L 186 351.5 L 181.5 354 L 182.5 352 L 184.5 351 Z "/>
    <path fill="#ffffff" d="M 179.5 354 L 178.5 356 L 176.5 357 L 177.5 355 L 179.5 354 Z "/>
    <path fill="#ffffff" d="M 47.5 357 L 48 366.5 L 47 366.5 L 47.5 357 Z "/>
    <path fill="#ffffff" d="M 47.5 382 L 48 386.5 L 47 386.5 L 47.5 382 Z "/>
    <path fill="#ffffff" d="M 52.5 400 L 56 404.5 L 53 402.5 L 52.5 400 Z "/>
    <path fill="#ffffff" d="M 118.5 410 L 117.5 412 L 110.5 415 L 110.5 414 L 118.5 410 Z "/>
    <path fill="#ffffff" d="M 65.5 413 L 70 415.5 L 68.5 416 L 65.5 413 Z "/>
    <path fill="#ffffff" d="M 71.5 416 L 76 417.5 L 73.5 418 L 71.5 416 Z "/>
    <path fill="#ffffff" d="M 86.5 419 L 91 419.5 L 86.5 420 L 86.5 419 Z "/>
    <path fill="#ff6b6b" d="M 218.5 196 L 220.5 196 Q 225 195 226 197.5 Q 228.6 198.9 228 203.5 L 223.5 209 Q 218.1 209.6 216 208 L 214 204.5 L 215 199.5 L 218.5 196 Z "/>
    <path fill="#ff6b6b" d="M 156.5 275 L 160 275.5 L 158 276 L 157 279.5 L 157 281.5 Q 158.1 284.8 155.5 284 L 156 285.5 L 155 296.5 L 160 305.5 Q 159 308 154.5 307 L 148 304 L 148 302 Q 145.3 303.1 146 300.5 L 144 297.5 L 143 288.5 L 144 288.5 L 144.5 290 L 145 287.5 L 144 285.5 L 149.5 278 L 156.5 275 Z "/>
    <path fill="#ffa94d" d="M 178.5 101 L 198.5 101 L 208.5 103 L 210.5 102 L 216.5 104 L 236.5 107 L 247.5 111 L 254.5 112 L 257.5 114 L 261.5 114 L 281.5 120 L 310 124 L 294 143.5 L 287 155.5 L 277 180.5 L 274 195.5 Q 275 199 280.5 198 L 282 196.5 L 285 182.5 L 291 166.5 L 297 154.5 L 311 135 L 327.5 123 L 332.5 122 L 367.5 122 L 368.5 123 L 385.5 124 L 397.5 127 L 410.5 128 L 435.5 134 Q 451.3 138.7 462 148.5 Q 469.1 154.4 469 167.5 Q 465.2 181.7 454.5 189 L 418.5 210 L 399 228.5 Q 384.3 251.8 363.5 269 L 335.5 285 L 319.5 289 L 302.5 290 L 287.5 287 L 281 283.5 L 282 280.5 L 282 254.5 L 281 253.5 L 279 225.5 L 277.5 224 L 274.5 223 L 271 225.5 L 271 236.5 L 272 237.5 L 272 247.5 L 273 248.5 L 273 258.5 L 274 259.5 L 274 274.5 L 270 294.5 L 260 311 Q 257.3 309.9 258 312.5 L 236.5 327 L 214.5 334 L 197.5 337 L 179.5 344 Q 161.8 353.3 150 368.5 L 124.5 396 L 104.5 408 L 97.5 410 L 85.5 411 L 73.5 408 Q 66.1 405.4 62 399.5 L 56 384.5 L 56 363.5 L 57 362.5 L 57 340.5 L 56 339.5 L 54 318.5 L 51 309.5 L 51 304.5 L 46 282.5 L 45 259.5 L 44 257.5 L 45 255.5 Q 42.7 254.2 44 249.5 L 45 248.5 L 45 235.5 L 48 222.5 L 48 216.5 L 58 185.5 Q 70.3 157.3 91.5 138 L 99 133 Q 97.9 130.3 100.5 131 Q 113.9 119.4 131.5 112 L 148.5 106 L 168.5 102 L 170.5 102 Q 176.8 103.8 178.5 101 Z M 163 130 L 159 131 Q 155 132 156 137 Q 163 139 167 135 Q 169 136 168 132 Q 167 129 163 130 Z M 136 140 L 115 154 L 99 171 L 86 193 L 79 216 L 78 231 Q 79 233 83 232 L 84 231 L 85 218 L 90 200 Q 97 181 109 169 Q 120 154 138 146 Q 141 147 139 142 L 136 140 Z M 218 191 L 216 192 L 210 199 Q 209 205 211 209 L 219 214 Q 225 215 228 212 Q 234 209 232 198 Q 229 190 218 191 Z M 155 270 L 146 275 Q 140 280 138 288 L 138 295 L 144 307 L 153 312 Q 164 314 168 309 L 167 306 Q 168 303 165 304 L 160 295 L 161 285 L 169 276 L 169 272 Q 164 269 155 270 Z "/>
    <path fill="#f783ac" d="M 158 276 Q 160.7 274.9 160 277.5 L 157 279.5 L 158 276 Z "/>
  </g>
  <g id="line">
    <path fill="#1a1a1a" d="M 174.5 93 L 204.5 93 L 205.5 94 L 220.5 95 L 235.5 98 L 243.5 101 L 247.5 101 L 264.5 107 L 290.5 113 L 306.5 114 L 307.5 115 L 325.5 115 L 326.5 114 L 337.5 114 L 338.5 113 L 360.5 113 L 361.5 114 L 374.5 114 L 375.5 115 L 402.5 118 L 431.5 124 L 457.5 134 L 470 144.5 Q 478.3 152.7 477 170.5 Q 472.5 186.5 460.5 195 Q 445 206.5 426.5 215 L 408 231.5 Q 393.6 252.6 375.5 270 Q 360.8 283.9 340.5 292 L 328.5 296 L 323.5 296 L 316.5 298 L 297.5 298 L 279.5 293 L 274 305.5 L 263.5 319 Q 261.3 318.3 262 320.5 L 247.5 331 L 231.5 338 L 201.5 345 L 182.5 352 Q 166.4 361.4 155 375.5 Q 144.6 390.6 130.5 402 Q 121.5 410 109.5 415 L 95.5 419 L 81.5 419 Q 64.7 416.3 56 405.5 Q 45.4 392.6 47 367.5 L 48 366.5 L 48 336.5 L 37 279.5 L 36 244.5 L 37 243.5 L 38 223.5 L 47 189.5 Q 57.5 162.8 74 143 Q 76.7 144.1 76 141.5 Q 87.8 128.3 102.5 118 L 125.5 105 L 157.5 95 L 173.5 94 L 174.5 93 Z M 179 101 L 178 102 L 169 102 L 153 105 L 132 112 Q 109 122 92 138 Q 70 157 58 186 L 48 217 L 48 223 L 45 236 L 45 249 L 44 250 L 46 283 L 51 305 L 51 310 L 54 319 L 56 340 L 57 341 L 57 363 L 56 364 L 56 385 L 62 400 Q 66 405 74 408 L 86 411 L 98 410 L 105 408 L 125 396 L 150 369 Q 162 353 180 344 L 198 337 L 215 334 L 237 327 L 258 313 Q 257 310 260 311 L 270 295 L 274 275 L 274 260 L 273 259 L 273 249 L 272 248 L 272 238 L 271 237 L 271 226 L 275 223 L 278 224 L 279 226 L 281 254 L 282 255 L 282 281 L 281 284 L 288 287 L 303 290 L 320 289 L 336 285 L 364 269 Q 384 252 399 229 L 419 210 L 455 189 Q 465 182 469 168 Q 469 154 462 149 Q 451 139 436 134 L 411 128 L 398 127 L 386 124 L 369 123 L 368 122 L 333 122 L 328 123 L 311 135 L 297 155 L 291 167 L 285 183 L 282 197 L 281 198 Q 275 199 274 196 L 277 181 L 287 156 L 294 144 L 310 124 L 282 120 L 228 105 L 217 104 L 211 102 L 200 102 L 199 101 L 179 101 Z "/>
    <path fill="#1a1a1a" d="M 162.5 130 Q 167 129 168 131.5 Q 169.5 135.9 166.5 135 Q 163.4 138.6 156 137 Q 155 132.3 158.5 131 L 162.5 130 Z "/>
    <path fill="#1a1a1a" d="M 135.5 140 L 139 141.5 Q 140.9 146.9 137.5 146 Q 120.1 154.1 109 168.5 Q 97 181.5 90 199.5 L 85 217.5 L 84 230.5 L 82.5 232 Q 78.8 232.8 78 230.5 L 79 215.5 L 86 192.5 Q 96.7 169.7 114.5 154 L 135.5 140 Z "/>
    <path fill="#1a1a1a" d="M 217.5 191 Q 229 190.1 232 197.5 Q 234 209 227.5 212 Q 224.8 214.8 218.5 214 L 211 208.5 Q 208.7 205.3 210 198.5 L 215.5 192 L 217.5 191 Z M 219 196 L 214 203 L 216 208 Q 218 210 224 209 L 228 204 L 227 199 Q 226 195 219 196 Z "/>
    <path fill="#1a1a1a" d="M 154.5 270 Q 164.4 268.9 169 272 L 169 275.5 L 161 284.5 L 160 294.5 L 165 304 Q 167.7 302.9 167 305.5 L 168 308.5 Q 164.4 314.4 152.5 312 L 144 307 L 138 294.5 L 138 287.5 Q 140.3 279.8 145.5 275 L 154.5 270 Z M 157 275 L 150 278 Q 145 282 143 289 L 143 294 L 146 302 Q 150 308 160 307 L 155 297 Q 154 284 160 278 Q 161 273 157 275 Z "/>
  </g>
</svg>
