<svg xmlns="http://www.w3.org/2000/svg" width="512" height="512" viewBox="0 0 512 512">
  <g id="color">
    <path fill="#ffffff" d="M 245.5 36 L 270 36.5 L 245.5 37 L 245.5 36 Z "/>
    <path fill="#ffffff" d="M 211.5 43 L 213 43.5 L 208.5 45 L 208.5 44 L 211.5 43 Z "/>
    <path fill="#ffffff" d="M 301.5 43 L 306 44.5 L 304.5 45 L 301.5 44 L 301.5 43 Z "/>
    <path fill="#ffffff" d="M 203.5 46 L 205 46.5 L 199.5 49 L 199.5 48 L 203.5 46 Z "/>
    <path fill="#ffffff" d="M 312.5 47 L 317 49.5 L 315.5 49 Q 311.7 48.7 312.5 47 Z "/>
    <path fill="#ffffff" d="M 318.5 50 L 323 52.5 L 321.5 52 Q 317.8 51.7 318.5 50 Z "/>
    <path fill="#ffffff" d="M 193.5 51 L 192.5 53 L 190.5 54 L 191.5 52 L 193.5 51 Z "/>
    <path fill="#ffffff" d="M 186.5 55 L 185.5 57 L 183.5 58 L 184.5 56 L 186.5 55 Z "/>
    <path fill="#ffffff" d="M 158.5 79 L 155 83.5 L 151.5 88 L 154 84.5 L 158.5 79 Z "/>
    <path fill="#ffffff" d="M 365.5 93 L 368 96.5 L 366 95.5 L 365.5 93 Z "/>
    <path fill="#ffffff" d="M 368.5 98 L 373 105.5 L 371 104.5 L 368.5 98 Z "/>
    <path fill="#ffffff" d="M 252.5 100 L 268.5 101 L 281.5 104 Q 295.9 109.1 305 119.5 L 315 134.5 L 323 159.5 L 324 170.5 L 325 171.5 L 325 180.5 L 326 181.5 L 326 217.5 L 323.5 222 L 279.5 222 L 278.5 223 L 189 224 L 188 221.5 L 188 208.5 L 187 207.5 L 187 185.5 L 188 184.5 L 188 173.5 L 192 151.5 L 197 137.5 Q 203.7 121.7 216.5 112 L 229.5 105 L 252.5 100 Z "/>
    <path fill="#ffffff" d="M 142.5 102 L 142 103.5 L 139.5 109 L 139 107.5 L 142.5 102 Z "/>
    <path fill="#ffffff" d="M 375.5 112 L 377 115.5 L 376 115.5 L 375.5 112 Z "/>
    <path fill="#ffffff" d="M 136.5 114 L 137 115.5 L 135.5 118 L 135 116.5 L 136.5 114 Z "/>
    <path fill="#ffffff" d="M 383.5 136 L 386 145.5 L 385 145.5 L 383.5 136 Z "/>
    <path fill="#ffffff" d="M 388.5 161 L 389 167.5 L 388 167.5 L 388.5 161 Z "/>
    <path fill="#ffffff" d="M 124.5 163 L 125 169.5 L 124 169.5 L 124.5 163 Z "/>
    <path fill="#ffffff" d="M 389.5 169 L 390 176.5 L 389 176.5 L 389.5 169 Z "/>
    <path fill="#ffffff" d="M 123.5 172 L 124 184.5 L 123 184.5 L 123.5 172 Z "/>
    <path fill="#ffffff" d="M 390.5 183 L 391 214.5 L 390 214.5 L 390.5 183 Z "/>
    <path fill="#ffffff" d="M 123.5 205 L 124 218.5 L 123 218.5 L 123.5 205 Z "/>
    <path fill="#ffffff" d="M 390.5 222 L 397 222.5 L 390.5 223 L 390.5 222 Z "/>
    <path fill="#ffffff" d="M 108.5 224 L 114 224.5 L 108.5 225 L 108.5 224 Z "/>
    <path fill="#ffffff" d="M 412.5 225 L 416 226.5 L 414.5 227 L 412.5 225 Z "/>
    <path fill="#ffffff" d="M 93.5 229 L 92.5 231 L 86.5 236 L 91.5 230 L 93.5 229 Z "/>
    <path fill="#ffffff" d="M 85.5 237 L 85 238.5 L 83.5 241 L 84 239.5 L 85.5 237 Z "/>
    <path fill="#ffffff" d="M 431.5 243 L 433 248.5 L 432 248.5 L 431.5 243 Z "/>
    <path fill="#ffffff" d="M 81.5 246 L 82 248.5 L 80.5 254 L 80 249.5 L 81.5 246 Z "/>
    <path fill="#ffffff" d="M 79.5 255 L 80 260.5 L 79 260.5 L 79.5 255 Z "/>
    <path fill="#ffffff" d="M 434.5 258 L 435 265.5 L 434 265.5 L 434.5 258 Z "/>
    <path fill="#ffffff" d="M 78.5 266 L 79 275.5 L 78 275.5 L 78.5 266 Z "/>
    <path fill="#ffffff" d="M 434.5 294 L 435 313.5 L 434 313.5 L 434.5 294 Z "/>
    <path fill="#ffffff" d="M 78.5 335 L 79 353.5 L 78 353.5 L 78.5 335 Z "/>
    <path fill="#ffffff" d="M 435.5 339 L 436 368.5 L 435 368.5 L 435.5 339 Z "/>
    <path fill="#ffffff" d="M 436.5 374 L 437 423.5 L 436 423.5 L 436.5 374 Z "/>
    <path fill="#ffffff" d="M 79.5 378 L 80 414.5 L 79 414.5 L 79.5 378 Z "/>
    <path fill="#ffffff" d="M 80.5 424 L 81 438.5 L 80 438.5 L 80.5 424 Z "/>
    <path fill="#ffffff" d="M 435.5 427 L 436 434.5 L 435 434.5 L 435.5 427 Z "/>
    <path fill="#ffffff" d="M 81.5 441 L 82 445.5 L 81 445.5 L 81.5 441 Z "/>
    <path fill="#ffffff" d="M 84.5 458 L 87 462.5 L 85 461.5 L 84.5 458 Z "/>
    <path fill="#ffffff" d="M 92.5 468 L 97 470.5 L 95.5 471 L 92.5 468 Z "/>
    <path fill="#ffffff" d="M 416.5 468 L 418 468.5 L 413.5 470 L 413.5 469 L 416.5 468 Z "/>
    <path fill="#ffffff" d="M 406.5 470 L 411 470.5 L 406.5 471 L 406.5 470 Z "/>
    <path fill="#ffffff" d="M 393.5 471 L 401 471.5 L 393.5 472 L 393.5 471 Z "/>
    <path fill="#ffffff" d="M 377.5 472 L 386 472.5 L 377.5 473 L 377.5 472 Z "/>
    <path fill="#ffffff" d="M 108.5 473 L 121 473.5 L 108.5 474 L 108.5 473 Z "/>
    <path fill="#ffffff" d="M 360.5 473 L 373 473.5 L 360.5 474 L 360.5 473 Z "/>
    <path fill="#ffffff" d="M 125.5 474 L 139 474.5 L 125.5 475 L 125.5 474 Z "/>
    <path fill="#ffffff" d="M 341.5 474 L 356 474.5 L 341.5 475 L 341.5 474 Z "/>
    <path fill="#ffffff" d="M 150.5 475 L 162 475.5 L 150.5 476 L 150.5 475 Z "/>
    <path fill="#ffffff" d="M 311.5 475 L 329 475.5 L 311.5 476 L 311.5 475 Z "/>
    <path fill="#ffffff" d="M 177.5 476 L 196 476.5 L 177.5 477 L 177.5 476 Z "/>
    <path fill="#ffffff" d="M 269.5 476 L 293 476.5 L 269.5 477 L 269.5 476 Z "/>
    <path fill="#ffffff" d="M 207.5 477 L 258 477.5 L 207.5 478 L 207.5 477 Z "/>
    <path fill="#4da3ff" d="M 254.5 51 L 279.5 53 L 299.5 58 L 303.5 61 L 308.5 62 L 318.5 67 L 330 75 Q 328.9 77.7 331.5 77 L 337 81.5 Q 336.3 83.8 338.5 83 L 354 102.5 L 363 120.5 L 369 139.5 L 372 152.5 L 374 174.5 L 375 175.5 L 375 219 L 370.5 221 L 369.5 220 L 340 220 L 341 212.5 L 341 210.5 L 340 174.5 L 333 139.5 L 323 118.5 L 314.5 108 L 311 105.5 Q 311.8 103.3 309.5 104 L 301.5 97 L 281.5 88 L 270.5 86 L 242.5 86 L 232.5 88 L 218.5 93 L 197 109.5 L 185 127.5 L 177 151.5 L 174 168.5 L 172 200.5 L 173 201.5 L 174 223 L 139 223 L 139 211.5 L 138 210.5 L 138 176.5 L 139 175.5 L 139 166.5 L 141 159.5 L 143 141.5 L 145 138.5 L 150 120.5 Q 157.8 101.8 170.5 88 Q 172.8 88.8 172 86.5 Q 185.9 71.4 205.5 62 L 228.5 54 L 240.5 53 L 241.5 52 L 253.5 52 L 254.5 51 Z "/>
    <path fill="#4da3ff" d="M 314.5 236 L 365.5 236 L 366.5 237 L 397.5 238 L 408.5 240 L 415 244.5 L 419 253.5 L 419 261.5 L 420 262.5 L 420 345.5 L 421 346.5 L 421 377.5 L 422 378.5 L 422 418.5 L 421 419.5 L 421 432.5 L 420 433.5 L 419 444.5 Q 418.1 451.1 413.5 454 L 405.5 456 L 395.5 456 L 394.5 457 L 366.5 458 L 365.5 459 L 346.5 459 L 345.5 460 L 315.5 460 L 314.5 461 L 285.5 461 L 284.5 462 L 188.5 462 L 187.5 461 L 161.5 461 L 160.5 460 L 116.5 459 L 115.5 458 L 101.5 457 L 98 453.5 L 95 437.5 L 95 410.5 L 94 409.5 L 93 273.5 L 94 272.5 L 94 257.5 L 95 252.5 L 98 245.5 L 101.5 242 L 114.5 239 L 224.5 239 L 225.5 238 L 313.5 237 L 314.5 236 Z M 278 297 Q 271 298 268 303 L 268 308 Q 280 318 284 337 L 283 349 L 276 363 L 268 370 Q 265 369 266 372 L 263 373 L 262 377 L 263 381 L 268 384 L 279 387 L 287 387 L 300 383 L 313 374 L 322 362 L 326 345 L 326 338 L 324 328 L 318 316 Q 311 305 300 300 L 289 297 L 278 297 Z M 211 311 L 200 316 Q 191 323 188 336 Q 187 351 195 358 Q 200 365 212 367 L 222 367 L 233 362 Q 241 356 244 345 L 244 333 L 237 320 Q 230 309 211 311 Z "/>
    <path fill="#ffd43b" d="M 213.5 321 Q 227.6 320.9 232 330.5 L 234 339.5 L 231 348.5 L 225.5 354 L 215.5 357 Q 205.5 355.5 201 348.5 Q 197.9 344.1 199 335.5 Q 200.6 328.6 205.5 325 L 213.5 321 Z "/>
    <path fill="#66d9e8" d="M 244.5 50 L 271.5 50 L 301.5 57 L 325.5 70 L 344 86.5 L 358 106.5 L 364 118.5 L 371 140.5 L 374 154.5 L 376 178.5 L 377 179.5 L 377 218.5 L 376 222 L 339 222 L 339 181.5 L 338 180.5 L 338 170.5 L 335 154.5 L 328 131.5 L 319 115.5 L 304.5 101 L 281.5 90 L 264.5 87 L 248.5 87 L 247.5 88 L 235.5 89 L 213.5 98 L 196 113.5 L 186 129.5 L 178 154.5 L 176 164.5 L 176 172.5 L 175 173.5 L 175 183.5 L 174 184.5 L 174 207.5 L 175 208.5 L 176 224 L 173.5 225 L 152.5 225 L 151.5 224 L 138 224 L 137 221.5 L 137 207.5 L 136 206.5 L 136 182.5 L 137 181.5 L 137 170.5 L 138 169.5 L 138 162.5 L 139 161.5 L 141 143.5 L 149 118.5 Q 160 93.5 179.5 77 Q 191.2 66.7 206.5 60 L 222.5 54 L 244.5 50 Z M 255 51 L 254 52 L 242 52 L 241 53 L 229 54 L 206 62 Q 186 71 172 87 Q 173 89 171 88 Q 158 102 150 121 L 145 139 L 143 142 L 141 160 L 139 167 L 139 176 L 138 177 L 138 211 L 139 212 L 139 223 L 174 223 L 173 202 L 172 201 L 174 169 L 177 152 L 185 128 L 197 110 L 219 93 L 233 88 L 243 86 L 271 86 L 282 88 L 302 97 L 310 104 Q 312 103 311 106 L 315 108 L 323 119 L 333 140 L 340 175 L 341 211 L 341 213 L 340 220 L 370 220 L 371 221 L 375 219 L 375 176 L 374 175 L 372 153 L 369 140 L 363 121 L 354 103 L 339 83 Q 336 84 337 82 L 332 77 Q 329 78 330 75 L 319 67 L 309 62 L 304 61 L 300 58 L 280 53 L 255 51 Z "/>
    <path fill="#66d9e8" d="M 287.5 235 L 381.5 235 L 382.5 236 L 395.5 236 L 396.5 237 L 408.5 238 L 417 244.5 L 421 255.5 L 422 284.5 L 421 285.5 L 421 318.5 L 422 319.5 L 422 357.5 L 423 358.5 L 423 428.5 L 422 429.5 L 422 437.5 L 420 447.5 L 413.5 456 L 402.5 458 L 392.5 458 L 391.5 459 L 361.5 460 L 360.5 461 L 338.5 461 L 337.5 462 L 267.5 463 L 266.5 464 L 205.5 464 L 204.5 463 L 170.5 463 L 169.5 462 L 120.5 461 L 119.5 460 L 102.5 459 L 98 457 L 96 452.5 L 94 441.5 L 94 433.5 L 93 432.5 L 91 282.5 L 92 281.5 L 93 253.5 Q 94.5 245 100.5 241 L 107.5 238 L 153.5 237 L 154.5 238 L 183.5 238 L 184.5 237 L 238.5 237 L 239.5 236 L 286.5 236 L 287.5 235 Z M 315 236 L 314 237 L 226 238 L 225 239 L 115 239 L 102 242 L 98 246 L 95 253 L 94 258 L 94 273 L 93 274 L 94 410 L 95 411 L 95 438 L 98 454 L 102 457 L 116 458 L 117 459 L 161 460 L 162 461 L 188 461 L 189 462 L 285 462 L 286 461 L 315 461 L 316 460 L 346 460 L 347 459 L 366 459 L 367 458 L 395 457 L 396 456 L 406 456 L 414 454 Q 418 451 419 445 L 420 434 L 421 433 L 421 420 L 422 419 L 422 379 L 421 378 L 421 347 L 420 346 L 420 263 L 419 262 L 419 254 L 415 245 L 409 240 L 398 238 L 367 237 L 366 236 L 315 236 Z "/>
    <path fill="#66d9e8" d="M 277.5 297 L 288.5 297 L 299.5 300 Q 311.1 305.4 318 315.5 L 324 327.5 L 326 337.5 L 326 344.5 L 322 361.5 L 313 374 L 299.5 383 L 286.5 387 L 278.5 387 L 267.5 384 L 263 380.5 L 262 376.5 L 263 373 L 266 371.5 Q 265.3 369.3 267.5 370 L 276 362.5 L 283 348.5 L 284 336.5 Q 280.4 317.6 268 307.5 L 268 302.5 Q 270.9 297.9 277.5 297 Z M 280 298 L 273 300 L 269 304 L 270 309 L 281 322 L 285 333 L 285 347 L 278 363 L 268 371 L 264 376 L 264 380 Q 269 384 277 385 L 292 384 L 307 377 Q 320 367 324 348 L 323 331 L 316 316 Q 309 306 298 301 L 292 299 L 280 298 Z "/>
    <path fill="#66d9e8" d="M 210.5 311 Q 229.6 309.4 237 319.5 L 244 332.5 L 244 344.5 Q 241.1 356.1 232.5 362 L 221.5 367 L 211.5 367 Q 200.2 365.3 195 357.5 Q 187.2 350.8 188 335.5 Q 190.6 322.6 199.5 316 L 210.5 311 Z M 210 313 L 200 318 Q 193 324 190 334 L 190 345 L 196 357 L 207 364 L 217 366 L 226 364 L 232 361 Q 241 354 243 341 L 242 340 L 242 332 L 236 321 L 224 313 L 210 313 Z "/>
    <path fill="#f783ac" d="M 284.5 307 L 293.5 309 L 306 317.5 Q 312.2 324.3 315 334.5 L 315 347.5 Q 312.3 358.9 306 366 L 293.5 374 L 281.5 376 L 280 373.5 Q 295 361.5 294 333.5 L 290 319.5 L 283 309.5 L 284.5 307 Z "/>
  </g>
  <g id="line">
    <path fill="#1a1a1a" d="M 240.5 37 L 274.5 37 L 298.5 42 L 325.5 54 Q 339.9 62.6 351 74.5 Q 364.1 88.4 373 106.5 L 382 130.5 Q 382.4 140.1 386 146.5 L 388 167.5 L 389 168.5 L 389 176.5 L 390 177.5 L 390 223 L 400.5 223 L 411.5 225 L 420.5 229 L 428 236.5 L 431 242.5 L 434 254.5 L 435 293.5 L 434 294.5 L 434 313.5 L 435 314.5 L 435 368.5 L 436 369.5 L 436 426.5 L 435 427.5 L 434 445.5 L 431 455.5 L 422.5 466 L 412.5 470 Q 407 468.5 405.5 471 L 360.5 473 L 359.5 474 L 341.5 474 L 340.5 475 L 269.5 476 L 268.5 477 L 196.5 477 L 195.5 476 L 162.5 476 L 161.5 475 L 139.5 475 L 138.5 474 L 106.5 473 L 97.5 471 Q 90.8 468.8 87 463.5 L 83 454.5 L 82 441.5 L 81 440.5 L 81 424.5 L 80 423.5 L 80 378.5 L 79 377.5 L 79 335.5 L 78 334.5 L 78 279.5 L 79 277.5 L 79 275.5 L 79 261.5 L 83 241.5 L 91.5 231 L 102.5 226 L 113.5 225 L 114.5 224 L 123.5 224 L 125 222.5 L 124 220.5 L 124 205.5 L 123 204.5 L 123 185.5 L 124 184.5 L 124 170.5 L 125 169.5 L 125 160.5 L 126 159.5 L 127 146.5 L 135 118.5 L 148 92.5 L 169.5 68 Q 185.7 53.7 207.5 45 L 224.5 40 L 240.5 37 Z M 245 50 L 223 54 L 207 60 Q 191 67 180 77 Q 160 94 149 119 L 141 144 L 139 162 L 138 163 L 138 170 L 137 171 L 137 182 L 136 183 L 136 207 L 137 208 L 137 222 L 138 224 L 152 224 L 153 225 L 174 225 L 176 224 L 175 209 L 174 208 L 174 185 L 175 184 L 175 174 L 176 173 L 176 165 L 178 155 L 186 130 L 196 114 L 214 98 L 236 89 L 248 88 L 249 87 L 265 87 L 282 90 L 305 101 L 319 116 L 328 132 L 335 155 L 338 171 L 338 181 L 339 182 L 339 222 L 376 222 L 377 219 L 377 180 L 376 179 L 374 155 L 371 141 L 364 119 L 358 107 L 344 87 L 326 70 L 302 57 L 272 50 L 245 50 Z M 253 100 L 230 105 L 217 112 Q 204 122 197 138 L 192 152 L 188 174 L 188 185 L 187 186 L 187 208 L 188 209 L 188 222 L 189 224 L 279 223 L 280 222 L 324 222 L 326 218 L 326 182 L 325 181 L 325 172 L 324 171 L 323 160 L 315 135 L 305 120 Q 296 109 282 104 L 269 101 L 253 100 Z M 288 235 L 287 236 L 240 236 L 239 237 L 185 237 L 184 238 L 155 238 L 154 237 L 108 238 L 101 241 Q 94 245 93 254 L 92 282 L 91 283 L 93 433 L 94 434 L 94 442 L 96 453 L 98 457 L 103 459 L 120 460 L 121 461 L 170 462 L 171 463 L 205 463 L 206 464 L 267 464 L 268 463 L 338 462 L 339 461 L 361 461 L 362 460 L 392 459 L 393 458 L 403 458 L 414 456 L 420 448 L 422 438 L 422 430 L 423 429 L 423 359 L 422 358 L 422 320 L 421 319 L 421 286 L 422 285 L 421 256 L 417 245 L 409 238 L 397 237 L 396 236 L 383 236 L 382 235 L 288 235 Z "/>
    <path fill="#1a1a1a" d="M 279.5 298 L 291.5 299 L 297.5 301 Q 309.1 305.9 316 315.5 L 323 330.5 L 324 347.5 Q 320.4 367.4 306.5 377 L 291.5 384 L 276.5 385 Q 268.8 383.8 264 379.5 L 264 375.5 L 267.5 371 L 278 362.5 L 285 346.5 L 285 332.5 L 281 321.5 L 270 308.5 L 269 303.5 L 272.5 300 L 279.5 298 Z M 283 307 L 283 310 L 290 320 L 294 334 Q 295 359 283 371 L 279 375 L 281 376 L 294 374 L 306 366 Q 312 359 315 348 L 315 335 Q 312 324 306 318 L 294 309 L 283 307 Z "/>
    <path fill="#1a1a1a" d="M 209.5 313 L 223.5 313 L 236 320.5 L 242 331.5 L 242 339.5 L 243 340.5 Q 240.8 354.3 231.5 361 L 225.5 364 L 216.5 366 L 206.5 364 L 196 356.5 L 190 344.5 L 190 333.5 Q 192.9 323.9 199.5 318 L 209.5 313 Z M 214 321 L 206 325 Q 201 329 199 336 Q 198 344 201 349 Q 205 356 216 357 L 226 354 L 231 349 L 234 340 L 232 331 Q 228 321 214 321 Z "/>
  </g>
</svg>
