<svg xmlns="http://www.w3.org/2000/svg" width="512" height="512" viewBox="0 0 512 512">
  <g id="color">
    <path fill="#ffffff" d="M 204.5 35 L 235.5 35 L 243 36.5 L 236.5 37 L 235.5 36 L 204.5 36 L 204.5 35 Z "/>
    <path fill="#ffffff" d="M 196.5 36 L 203 36.5 L 196.5 37 L 196.5 36 Z "/>
    <path fill="#ffffff" d="M 183.5 38 L 187 38.5 L 179.5 40 L 179.5 39 L 183.5 38 Z "/>
    <path fill="#ffffff" d="M 266.5 41 L 272 42.5 L 269.5 43 L 266.5 42 L 266.5 41 Z "/>
    <path fill="#ffffff" d="M 167.5 42 L 170 42.5 L 165.5 44 L 165.5 43 L 167.5 42 Z "/>
    <path fill="#ffffff" d="M 279.5 45 L 283 46.5 L 281.5 47 L 279.5 45 Z "/>
    <path fill="#ffffff" d="M 151.5 48 L 153 48.5 L 149.5 50 L 149.5 49 L 151.5 48 Z "/>
    <path fill="#ffffff" d="M 287.5 48 L 293 50.5 L 291.5 51 L 287.5 49 L 287.5 48 Z "/>
    <path fill="#ffffff" d="M 144.5 51 L 143.5 53 L 140.5 54 L 140.5 53 L 144.5 51 Z "/>
    <path fill="#ffffff" d="M 138.5 54 L 137.5 56 L 135.5 57 L 136.5 55 L 138.5 54 Z "/>
    <path fill="#ffffff" d="M 306.5 57 L 310 59.5 L 308.5 59 L 306.5 57 Z "/>
    <path fill="#ffffff" d="M 131.5 58 L 130.5 60 L 128.5 61 L 129.5 59 L 131.5 58 Z "/>
    <path fill="#ffffff" d="M 311.5 60 L 315 62.5 L 313.5 62 L 311.5 60 Z "/>
    <path fill="#ffffff" d="M 126.5 61 L 125.5 63 L 123.5 64 L 124.5 62 L 126.5 61 Z "/>
    <path fill="#ffffff" d="M 316.5 63 L 321 66.5 L 319.5 66 L 316.5 63 Z "/>
    <path fill="#ffffff" d="M 118.5 66 L 116.5 69 L 107.5 76 L 111.5 71 L 118.5 66 Z "/>
    <path fill="#ffffff" d="M 86.5 95 L 82 100.5 L 78.5 105 L 81 101.5 L 86.5 95 Z "/>
    <path fill="#ffffff" d="M 353.5 97 L 362 107.5 L 359 105.5 L 353.5 97 Z "/>
    <path fill="#ffffff" d="M 76.5 107 L 75 109.5 L 71.5 115 L 72 113.5 L 76.5 107 Z "/>
    <path fill="#ffffff" d="M 364.5 112 L 372 125.5 L 371 125.5 L 364.5 112 Z "/>
    <path fill="#ffffff" d="M 69.5 117 L 69 118.5 L 65.5 125 L 66 123.5 L 69.5 117 Z "/>
    <path fill="#ffffff" d="M 372.5 127 L 375 131.5 L 374 131.5 L 372.5 127 Z "/>
    <path fill="#ffffff" d="M 63.5 128 L 63 129.5 L 58.5 139 L 58 137.5 L 63.5 128 Z "/>
    <path fill="#ffffff" d="M 376.5 135 L 378 138.5 L 377 138.5 L 376.5 135 Z "/>
    <path fill="#ffffff" d="M 378.5 140 L 381 146.5 L 380 146.5 L 378.5 140 Z "/>
    <path fill="#ffffff" d="M 56.5 142 L 57 144.5 L 55.5 147 L 55 145.5 L 56.5 142 Z "/>
    <path fill="#ffffff" d="M 382.5 152 L 384 156.5 L 383 156.5 L 382.5 152 Z "/>
    <path fill="#ffffff" d="M 52.5 154 L 53 156.5 L 51.5 159 L 51 157.5 L 52.5 154 Z "/>
    <path fill="#ffffff" d="M 47.5 176 L 48 180.5 L 47 180.5 L 47.5 176 Z "/>
    <path fill="#ffffff" d="M 46.5 183 L 47 190.5 L 46 190.5 L 46.5 183 Z "/>
    <path fill="#ffffff" d="M 389.5 186 L 390 194.5 L 389 194.5 L 389.5 186 Z "/>
    <path fill="#ffffff" d="M 45.5 192 L 46 212.5 L 45 212.5 L 45.5 192 Z "/>
    <path fill="#ffffff" d="M 390.5 197 L 391 211.5 L 390 211.5 L 390.5 197 Z "/>
    <path fill="#ffffff" d="M 389.5 213 L 390 222.5 L 389 222.5 L 389.5 213 Z "/>
    <path fill="#ffffff" d="M 46.5 214 L 47 222.5 L 46 222.5 L 46.5 214 Z "/>
    <path fill="#ffffff" d="M 47.5 225 L 48 229.5 L 47 229.5 L 47.5 225 Z "/>
    <path fill="#ffffff" d="M 388.5 225 L 389 229.5 L 388 229.5 L 388.5 225 Z "/>
    <path fill="#ffffff" d="M 48.5 233 L 50 241.5 L 49 241.5 L 48.5 233 Z "/>
    <path fill="#ffffff" d="M 384.5 246 L 385 248.5 L 382.5 255 L 382 252.5 L 384.5 246 Z "/>
    <path fill="#ffffff" d="M 380.5 259 L 381 260.5 L 378.5 266 L 378 264.5 L 380.5 259 Z "/>
    <path fill="#ffffff" d="M 55.5 261 L 57 264.5 L 56 264.5 L 55.5 261 Z "/>
    <path fill="#ffffff" d="M 377.5 267 L 378 268.5 L 375.5 273 L 375 271.5 L 377.5 267 Z "/>
    <path fill="#ffffff" d="M 58.5 269 L 60 272.5 L 59 272.5 L 58.5 269 Z "/>
    <path fill="#ffffff" d="M 374.5 274 L 374 275.5 L 372.5 279 L 372 277.5 L 374.5 274 Z "/>
    <path fill="#ffffff" d="M 61.5 276 L 64 281.5 L 63 281.5 L 61.5 276 Z "/>
    <path fill="#ffffff" d="M 371.5 280 L 371 281.5 L 368.5 286 L 369 284.5 L 371.5 280 Z "/>
    <path fill="#ffffff" d="M 64.5 283 L 67 286.5 L 65 285.5 L 64.5 283 Z "/>
    <path fill="#ffffff" d="M 367.5 287 L 367 288.5 L 365.5 291 L 366 289.5 L 367.5 287 Z "/>
    <path fill="#ffffff" d="M 68.5 290 L 71 293.5 L 69 292.5 L 68.5 290 Z "/>
    <path fill="#ffffff" d="M 71.5 295 L 74 298.5 L 72 297.5 L 71.5 295 Z "/>
    <path fill="#ffffff" d="M 358.5 301 L 358 302.5 L 358 304.5 L 372 318.5 L 357 304.5 L 358.5 301 Z "/>
    <path fill="#ffffff" d="M 77.5 304 L 83 310.5 L 78 306.5 L 77.5 304 Z "/>
    <path fill="#ffffff" d="M 88.5 318 L 102 330.5 L 100.5 331 L 88.5 318 Z "/>
    <path fill="#ffffff" d="M 120.5 345 L 131 351.5 L 129.5 352 L 121.5 347 L 120.5 345 Z "/>
    <path fill="#ffffff" d="M 132.5 352 L 136 354.5 L 134.5 354 L 132.5 352 Z "/>
    <path fill="#ffffff" d="M 295.5 353 L 297.5 353 L 304 359.5 L 297.5 354 L 294.5 355 L 295.5 353 Z "/>
    <path fill="#ffffff" d="M 291.5 355 L 293 355.5 L 287.5 358 L 287.5 357 L 291.5 355 Z "/>
    <path fill="#ffffff" d="M 139.5 356 L 145 358.5 L 143.5 359 L 139.5 357 L 139.5 356 Z "/>
    <path fill="#ffffff" d="M 146.5 359 L 150 360.5 L 148.5 361 L 146.5 359 Z "/>
    <path fill="#ffffff" d="M 282.5 359 L 284 359.5 L 280.5 361 L 280.5 360 L 282.5 359 Z "/>
    <path fill="#ffffff" d="M 274.5 362 L 276 362.5 L 268.5 365 L 268.5 364 L 274.5 362 Z "/>
    <path fill="#ffffff" d="M 156.5 363 L 161 364.5 L 159.5 365 L 156.5 364 L 156.5 363 Z "/>
    <path fill="#ffffff" d="M 163.5 365 L 168 366.5 L 165.5 367 L 163.5 365 Z "/>
    <path fill="#ffffff" d="M 264.5 365 L 267 365.5 L 257.5 368 L 257.5 367 L 264.5 365 Z "/>
    <path fill="#ffffff" d="M 308.5 366 L 316 374.5 L 311 370.5 L 308.5 366 Z "/>
    <path fill="#ffffff" d="M 178.5 369 L 188 370.5 L 183.5 371 L 178.5 370 L 178.5 369 Z "/>
    <path fill="#ffffff" d="M 246.5 369 L 251 369.5 L 241.5 371 L 241.5 370 L 246.5 369 Z "/>
    <path fill="#ffffff" d="M 191.5 371 L 196 371.5 L 191.5 372 L 191.5 371 Z "/>
    <path fill="#ffffff" d="M 233.5 371 L 238 371.5 L 233.5 372 L 233.5 371 Z "/>
    <path fill="#ffffff" d="M 201.5 372 L 228 372.5 L 201.5 373 L 201.5 372 Z "/>
    <path fill="#ffffff" d="M 451.5 398 L 459 407.5 L 457 406.5 L 451.5 398 Z "/>
    <path fill="#ffffff" d="M 459.5 409 L 462 412.5 L 460 411.5 L 459.5 409 Z "/>
    <path fill="#ffffff" d="M 463.5 416 L 466 421.5 L 465 421.5 L 463.5 416 Z "/>
    <path fill="#ffffff" d="M 467.5 428 L 468 438.5 L 467 438.5 L 467.5 428 Z "/>
    <path fill="#ffffff" d="M 359.5 432 L 368 441.5 L 363 437.5 L 359.5 432 Z "/>
    <path fill="#ffffff" d="M 465.5 444 L 466 445.5 L 463.5 450 L 463 448.5 L 465.5 444 Z "/>
    <path fill="#ffffff" d="M 462.5 451 L 462 452.5 L 459.5 456 L 461 453.5 L 462.5 451 Z "/>
    <path fill="#ffffff" d="M 446.5 468 L 444.5 471 L 442.5 472 L 443.5 470 L 446.5 468 Z "/>
    <path fill="#ffffff" d="M 401.5 472 L 406 474.5 L 404.5 475 L 401.5 472 Z "/>
    <path fill="#ffffff" d="M 437.5 473 L 439 473.5 L 435.5 475 L 435.5 474 L 437.5 473 Z "/>
    <path fill="#ffffff" d="M 414.5 477 L 420 477.5 L 414.5 478 L 414.5 477 Z "/>
    <path fill="#ffffff" d="M 421.5 477 L 428 477.5 L 421.5 478 L 421.5 477 Z "/>
    <path fill="#4da3ff" d="M 206.5 49 L 233.5 49 L 234.5 50 L 243.5 50 L 248.5 52 L 257.5 53 L 260.5 55 L 272.5 57 L 282.5 62 L 288 63 Q 286.8 66 290.5 65 L 294 66 L 294.5 68 L 296.5 68 L 311 76 Q 309.8 79 313.5 78 Q 325.7 85.8 335 96.5 L 337 99.5 L 341 102.5 L 356 123.5 L 355 124.5 L 358 127.5 L 367 147.5 L 375 179.5 L 374 181.5 L 375 182.5 L 377 199.5 L 376 203.5 L 377 208.5 L 376 209.5 L 376 223.5 L 374 227.5 L 374 229.5 L 372 243.5 Q 369 246.5 369 252.5 L 367 254.5 L 367 256.5 L 360 274 Q 357.3 272.9 358 275.5 L 346.5 294 Q 344.3 293.3 345 295.5 L 344 298 L 342 298 Q 343.5 301.8 340.5 301 L 336 308 L 333 309.5 L 329.5 314 Q 327.3 313.3 328 315.5 L 323.5 319 L 322 318.5 L 322 321 Q 319.3 319.9 320 322.5 L 318 322.5 Q 318.8 324.8 316.5 324 Q 308.2 332.7 296.5 338 Q 295 335.5 293.5 339 L 283.5 345 L 275.5 348 L 271.5 348 L 267.5 351 L 263.5 351 Q 260.9 350.3 262 353 L 257.5 353 L 249.5 356 L 243.5 356 L 236.5 358 L 234.5 358 Q 229 356.5 227.5 359 L 199.5 359 L 195.5 357 L 191.5 358 L 164.5 352 L 154.5 347 L 152.5 347 L 149.5 345 L 147.5 345 L 130 335.5 Q 130.7 332.5 127 334 L 127 332 L 124.5 332 Q 112.6 324.9 104 314.5 Q 104.8 312.3 102.5 313 L 101 310 L 97 307.5 L 86 293.5 L 85 289 L 82 287.5 L 78 277 Q 75.3 278.1 76 275.5 L 69 260.5 L 66 251.5 L 66 247.5 L 64 244.5 L 65 242.5 L 63 239.5 L 61 230.5 L 61 228.5 L 60 215.5 L 59 214.5 L 59 212.5 L 60 182.5 L 63 173.5 L 63 171.5 Q 63.2 158.7 69 151.5 L 69 149.5 Q 74.3 132.2 84.5 120 L 86 119.5 Q 83.5 118 87 116.5 L 95.5 105 L 97 105.5 L 99.5 101 Q 101.8 101.8 101 99.5 L 109.5 91 L 111 91 Q 109.9 88.3 112.5 89 L 124.5 79 L 126 79.5 L 127.5 77 L 143.5 67 L 154.5 62 L 157.5 62 L 166.5 57 L 173.5 55 L 178.5 55 L 181.5 53 L 191.5 52 L 196.5 50 L 205.5 50 L 206.5 49 Z M 211 76 L 210 77 L 195 78 L 178 82 L 176 82 Q 175 85 171 84 Q 169 87 168 85 L 144 98 Q 141 97 142 100 L 133 106 L 129 110 L 128 109 L 125 113 Q 126 115 123 114 L 120 118 Q 121 120 119 119 L 104 139 Q 105 141 102 140 L 101 146 L 98 149 L 94 160 Q 95 163 93 162 L 93 164 L 91 166 Q 92 172 89 174 L 88 187 L 87 188 L 87 199 L 86 200 L 86 211 L 87 212 L 88 227 L 88 229 L 92 241 L 92 246 L 94 248 L 97 258 L 104 272 L 116 289 L 134 305 L 137 310 L 139 309 L 138 311 L 142 312 Q 144 311 143 314 L 146 314 L 162 323 L 173 327 L 189 330 L 191 330 L 197 332 L 208 332 L 209 333 L 221 333 L 222 332 L 240 331 L 242 331 L 274 321 L 291 311 Q 294 312 293 309 L 296 308 Q 298 309 297 307 L 299 307 L 302 303 Q 304 304 303 301 L 308 298 L 311 296 L 317 289 Q 319 290 318 288 L 321 286 L 337 262 L 342 247 L 344 245 L 345 239 Q 348 237 346 236 L 350 215 L 350 195 L 349 194 L 348 180 L 348 178 L 347 176 L 347 174 L 340 153 L 337 148 L 337 145 L 328 131 L 315 115 Q 316 112 313 113 L 313 111 L 295 97 Q 291 98 292 95 L 290 94 Q 287 95 288 93 L 287 93 Q 278 87 267 84 Q 265 80 264 83 L 260 81 L 241 77 L 211 76 Z "/>
    <path fill="#4da3ff" d="M 209.5 91 L 241.5 92 L 254.5 95 L 271 101 L 271.5 103 Q 273 100.5 274.5 104 Q 277.8 102.9 277 105.5 Q 278.8 103.9 280.5 107 L 284 108 L 284.5 110 L 286.5 110 L 298 118.5 Q 297.3 120.8 299.5 120 L 306 128 Q 308.7 126.9 308 129.5 L 318 141.5 L 327 159.5 L 334 184.5 L 333 186.5 L 335 193.5 L 334 197.5 L 335 198.5 L 335 216.5 L 334 217.5 L 334 225.5 L 331 231.5 L 331 233.5 L 330 239.5 L 321 260 Q 318.3 258.9 319 261.5 L 313.5 270 Q 310.9 269.2 312 272.5 L 309 274 L 308 277.5 L 300.5 285 L 299 284.5 Q 299.5 288.5 296.5 289 Q 293.2 293.6 287 294 L 284.5 298 L 265.5 308 L 259.5 309 L 257.5 311 L 248.5 314 Q 239.9 313.9 234.5 317 L 205.5 318 L 204.5 317 L 195.5 317 L 190.5 315 L 188.5 315 Q 181.7 315.7 179.5 312 L 177.5 312 L 164.5 308 L 152 300.5 L 151.5 299 Q 150 301.5 148.5 298 L 132 284.5 L 130 280 L 125 276.5 L 120 268.5 L 120 266 Q 117.3 267.1 118 264.5 Q 113.2 261.7 114 255 L 112 254.5 L 112.5 253 Q 110.3 253.8 111 251.5 L 104 231.5 L 104 229.5 L 103 227.5 L 103 225.5 L 102 214.5 L 101 213.5 L 101 211.5 L 101 194.5 L 103 188.5 L 103 186.5 L 105 171.5 L 109 160 L 111 159.5 L 110 158.5 L 113 155.5 L 113 153.5 Q 119 139 129.5 129 L 132.5 127 L 134 124 L 137 122.5 L 138.5 120 L 148.5 112 L 155 110 Q 153.9 107.3 156.5 108 Q 167.5 100 182.5 96 L 198.5 92 L 208.5 92 L 209.5 91 Z M 168 120 L 158 124 L 148 132 L 148 134 L 143 144 Q 142 154 145 161 L 153 172 L 164 176 L 177 176 L 178 175 Q 182 176 181 173 L 184 173 L 188 170 Q 194 166 196 157 Q 199 155 197 154 L 198 152 L 198 144 L 193 131 Q 188 123 177 121 L 175 121 Q 169 123 168 120 Z M 143 182 L 138 183 L 131 187 L 124 198 L 123 202 L 123 212 L 127 222 L 137 230 Q 141 229 143 231 L 148 230 L 150 230 L 154 228 L 160 222 L 163 213 L 163 200 L 160 191 L 150 182 L 143 182 Z M 300 192 L 286 198 L 282 206 L 279 226 L 274 236 Q 275 238 272 237 L 269 243 L 266 245 Q 267 247 265 246 Q 257 252 253 262 L 253 270 L 257 278 Q 261 283 269 284 L 280 283 L 288 278 Q 290 279 289 276 L 292 276 L 305 260 L 308 258 L 317 238 L 321 217 L 317 200 L 316 200 L 315 199 Q 310 193 300 192 Z "/>
    <path fill="#ffd43b" d="M 167.5 128 Q 183.4 126.6 188 136.5 Q 191.2 140.8 191 148.5 L 188 158.5 L 182.5 165 L 173.5 169 L 165.5 169 L 155 162.5 Q 149.8 157.7 150 147.5 Q 151.8 137.3 158.5 132 L 167.5 128 Z "/>
    <path fill="#ffd43b" d="M 348.5 313 L 355 318.5 L 394.5 359 L 417 379.5 Q 416.3 381.8 418.5 381 L 421.5 385 L 424 386.5 Q 423.3 388.8 425.5 388 L 450 415.5 L 455 426.5 L 455 440.5 Q 450.6 450.6 442.5 457 L 428.5 465 L 420.5 466 Q 419 463.5 413.5 465 L 401.5 459 L 379 437.5 L 324 365.5 L 309 348.5 L 309 346.5 L 329.5 332 L 348.5 313 Z "/>
    <path fill="#ff6b6b" d="M 143.5 191 Q 151.2 190.3 154 194.5 L 153 197.5 L 154.5 201 L 156 200.5 Q 153.5 202 155 207.5 L 155 209.5 L 152 219 L 146 221.5 L 148 222.5 L 146.5 223 L 141.5 222 L 140 222.5 L 140.5 221 L 137.5 222 L 135.5 218 L 134 218.5 L 134 216.5 L 133.5 215 L 132 215.5 L 133 213.5 L 131 213.5 L 132 212.5 L 132 201.5 L 133 200.5 L 132 198 L 136 195.5 L 135.5 194 L 143.5 191 Z "/>
    <path fill="#51cf66" d="M 297.5 200 Q 307.6 198.4 310 204.5 Q 314.7 210.4 313 222.5 L 309 238.5 L 303 250.5 L 287.5 269 L 277.5 276 L 268.5 277 L 262 271.5 L 260 264.5 L 265 255 L 268 253.5 Q 267.3 251.3 269.5 252 Q 278.4 244.8 284 234.5 L 287 224.5 L 288 210.5 L 292 203 L 297.5 200 Z "/>
    <path fill="#66d9e8" d="M 209.5 47 L 241.5 48 L 272.5 55 L 280.5 58 L 282.5 60 L 301.5 68 L 320.5 81 L 344 103.5 L 351 112.5 L 365 137.5 L 371 154.5 L 372 161.5 L 374 164.5 L 377 181.5 L 377 188.5 L 378 189.5 L 378 220.5 L 377 221.5 L 377 228.5 Q 374.3 231.8 375 238.5 L 371 252.5 L 361 275.5 Q 346.8 301.3 325.5 320 L 302.5 337 L 278.5 349 L 253.5 357 L 248.5 357 L 235.5 360 L 202.5 361 L 201.5 360 L 193.5 360 L 192.5 359 L 181.5 358 L 164.5 354 L 136.5 342 Q 111 327.5 93 305.5 L 79 285.5 L 65 254.5 L 58 221.5 L 58 184.5 L 64 156.5 L 76 129.5 Q 90.8 104.3 112.5 86 L 143.5 65 L 159.5 58 L 177.5 52 L 197.5 48 L 208.5 48 L 209.5 47 Z M 207 49 L 206 50 L 197 50 L 192 52 L 182 53 L 179 55 L 174 55 L 167 57 L 158 62 L 155 62 L 144 67 L 128 77 L 126 80 L 125 79 L 113 89 Q 110 88 111 91 L 110 91 L 101 100 Q 102 102 100 101 L 97 106 L 96 105 L 87 117 Q 83 118 86 120 L 85 120 Q 74 132 69 150 L 69 152 Q 63 159 63 172 L 63 174 L 60 183 L 59 213 L 59 215 L 60 216 L 61 229 L 61 231 L 63 240 L 65 243 L 64 245 L 66 248 L 66 252 L 69 261 L 76 276 Q 75 278 78 277 L 82 288 L 85 289 L 86 294 L 97 308 L 101 310 L 103 313 Q 105 312 104 315 Q 110 323 120 328 Q 121 331 123 329 L 122 331 L 125 332 L 127 332 L 127 334 Q 131 332 130 336 L 148 345 L 150 345 L 153 347 L 155 347 L 165 352 L 192 358 L 196 357 L 200 359 L 228 359 Q 229 357 235 358 L 237 358 L 244 356 L 250 356 L 258 353 L 262 353 Q 261 350 264 351 L 268 351 L 272 348 L 276 348 L 288 343 L 287 342 L 289 342 L 294 339 Q 295 335 297 338 Q 308 333 317 324 Q 319 325 318 323 L 320 323 Q 319 320 322 321 L 322 319 L 324 319 L 328 316 Q 327 313 330 314 L 329 313 L 331 313 L 333 310 L 335 306 L 334 308 L 336 308 L 341 301 Q 344 302 342 298 L 344 298 L 345 296 Q 344 293 347 294 L 358 276 Q 357 273 360 274 L 367 257 L 367 255 L 369 253 Q 369 246 372 244 L 374 230 L 374 228 L 376 224 L 376 210 L 377 209 L 376 204 L 377 200 L 375 183 L 374 182 L 375 180 L 367 148 L 358 128 L 355 125 L 356 124 L 341 103 L 337 100 L 335 97 Q 326 86 314 78 Q 310 79 311 76 L 297 68 L 295 68 L 294 66 L 291 65 Q 287 66 288 63 L 283 62 L 273 57 L 261 55 L 258 53 L 249 52 L 244 50 L 235 50 L 234 49 L 207 49 Z "/>
    <path fill="#66d9e8" d="M 210.5 76 L 240.5 77 L 259.5 81 L 263.5 83 Q 265 80.5 266.5 84 Q 278.5 86.5 286.5 93 L 288 92.5 Q 287.3 94.8 289.5 94 L 292 95 Q 290.8 98 294.5 97 L 313 111 L 313 113 Q 315.7 111.9 315 114.5 L 328 130.5 L 337 144.5 L 337 147.5 L 340 152.5 L 347 173.5 L 347 175.5 L 348 177.5 L 348 179.5 L 349 193.5 L 350 194.5 L 350 214.5 L 346 235.5 Q 348.5 237 345 238.5 L 344 244.5 L 342 246.5 L 337 261.5 L 321 286 L 318 287.5 Q 318.8 289.8 316.5 289 L 310.5 296 L 307.5 298 L 303 301 Q 304.1 303.7 301.5 303 L 298.5 307 L 297 306.5 Q 297.8 308.8 295.5 308 L 293 309 Q 294.3 312 290.5 311 L 273.5 321 L 241.5 331 L 239.5 331 L 221.5 332 L 220.5 333 L 208.5 333 L 207.5 332 L 196.5 332 L 190.5 330 L 188.5 330 L 172.5 327 L 161.5 323 L 145.5 314 L 143 314 Q 144.1 311.3 141.5 312 L 137 309.5 L 135.5 307 L 134 307.5 Q 136.3 306.3 133.5 305 L 127.5 300 L 126 300.5 L 127 299.5 L 116 288.5 L 104 271.5 L 97 257.5 L 94 247.5 L 92 245.5 L 92 240.5 L 88 228.5 L 88 226.5 L 87 211.5 L 86 210.5 L 86 199.5 L 87 198.5 L 87 187.5 L 88 186.5 L 89 173.5 Q 92 171.5 91 165.5 L 93 163.5 L 92.5 162 Q 95.1 162.8 94 159.5 L 98 148.5 L 101 145.5 L 102 140 Q 104.7 141.1 104 138.5 L 115 123.5 L 114.5 122 Q 115.8 124.2 117 121.5 L 118.5 119 Q 120.8 119.8 120 117.5 L 122.5 114 Q 125.8 115.1 125 112.5 L 127.5 109 L 128.5 110 L 132.5 106 L 142 99.5 Q 141.3 97.3 143.5 98 L 167.5 85 Q 169 87.5 170.5 84 Q 174.8 84.8 175.5 82 L 177.5 82 L 194.5 78 L 209.5 77 L 210.5 76 Z M 208 78 L 207 79 L 194 80 L 171 86 L 150 96 L 132 109 Q 115 123 104 142 L 93 167 L 88 194 L 88 215 L 93 242 Q 102 270 119 290 L 142 310 L 160 320 L 180 327 L 195 330 L 204 330 L 205 331 L 236 330 L 255 326 L 278 317 L 304 300 Q 321 285 333 265 L 343 242 L 348 217 L 348 193 L 344 170 L 337 150 L 332 140 L 317 119 L 295 99 L 270 86 L 243 79 L 235 79 L 234 78 L 208 78 Z "/>
    <path fill="#66d9e8" d="M 210.5 89 L 239.5 90 L 268.5 98 L 290.5 110 L 303 120 L 304.5 123 Q 306.8 122.3 306 124.5 L 318 138.5 L 331 165.5 L 336 186.5 L 337 214.5 L 333 235.5 L 326 253.5 Q 317.2 269.9 306 283 L 284.5 300 L 260.5 312 L 238.5 318 L 221.5 319 L 220.5 320 L 208.5 320 L 207.5 319 L 195.5 319 L 186.5 316 L 181.5 316 L 164.5 310 Q 142.7 299.8 128 282.5 Q 114.6 267.9 107 247.5 L 101 226.5 L 99 199.5 L 100 198.5 L 100 187.5 L 106 163.5 L 120 137.5 L 140.5 116 Q 155.3 104.8 173.5 97 L 194.5 91 L 209.5 90 L 210.5 89 Z M 210 91 L 209 92 L 199 92 L 183 96 Q 168 100 157 108 Q 154 107 155 110 L 149 112 L 139 120 L 137 123 L 134 124 L 133 127 L 130 129 Q 119 139 113 154 L 113 156 L 110 159 L 111 160 L 109 160 L 105 172 L 103 187 L 103 189 L 101 195 L 101 212 L 101 214 L 102 215 L 103 226 L 103 228 L 104 230 L 104 232 L 111 252 Q 110 254 113 253 L 112 255 L 114 255 Q 113 262 118 265 Q 117 267 120 266 L 120 269 L 125 277 L 130 280 L 132 285 L 149 298 Q 150 301 152 299 L 152 301 L 165 308 L 178 312 L 180 312 Q 182 316 189 315 L 191 315 L 196 317 L 205 317 L 206 318 L 235 317 Q 240 314 249 314 L 258 311 L 260 309 L 266 308 L 265 307 L 267 307 L 285 298 L 287 294 Q 293 294 297 289 Q 299 289 299 285 Q 300 282 302 284 Q 308 281 309 274 L 312 273 Q 311 269 314 270 L 319 262 Q 318 259 321 260 L 330 240 L 331 234 L 331 232 L 334 226 L 334 218 L 335 217 L 335 199 L 334 198 L 335 194 L 333 187 L 334 185 L 327 160 L 318 142 L 308 130 Q 309 127 306 128 L 300 120 Q 297 121 298 119 L 287 110 L 285 110 L 284 108 L 281 107 Q 279 104 277 106 Q 278 103 275 104 Q 273 100 272 103 L 271 101 L 255 95 L 242 92 L 210 91 Z "/>
    <path fill="#66d9e8" d="M 167.5 120 Q 169 122.5 174.5 121 L 176.5 121 Q 187.5 123 193 130.5 L 198 143.5 L 198 151.5 L 197 153.5 Q 199.5 155 196 156.5 Q 194.1 165.6 187.5 170 L 183.5 173 L 181 173 Q 182.3 176.3 177.5 175 L 176.5 176 L 163.5 176 L 153 172 L 145 160.5 Q 141.6 154.4 143 143.5 L 148 133.5 L 147.5 132 L 157.5 124 L 162 122.5 L 161.5 121 L 164.5 122 L 167.5 120 Z M 168 122 L 155 128 Q 146 135 144 148 L 146 159 L 150 166 Q 154 171 162 174 Q 180 177 188 168 L 194 160 L 197 149 Q 196 137 191 131 Q 187 125 180 123 L 168 122 Z "/>
    <path fill="#66d9e8" d="M 142.5 182 L 149.5 182 L 160 190.5 L 163 199.5 L 163 212.5 L 160 221.5 L 153.5 228 L 149.5 230 L 147.5 230 L 142.5 231 Q 141.3 228.8 136.5 230 L 127 221.5 L 123 211.5 L 123 201.5 L 124 197.5 L 131 187 L 137.5 183 L 142.5 182 Z M 142 184 L 135 187 L 128 194 L 125 201 L 125 214 L 129 222 Q 133 227 141 229 Q 149 230 154 226 L 158 222 L 162 210 Q 162 198 158 191 L 150 184 L 142 184 Z "/>
    <path fill="#66d9e8" d="M 299.5 192 Q 309.8 192.8 315 198.5 L 315.5 200 L 317 199.5 L 321 216.5 L 317 237.5 L 308 258 L 305 259.5 L 292 276 L 289 276 Q 290.1 278.7 287.5 278 L 279.5 283 L 268.5 284 Q 261 282.6 257 277.5 L 253 269.5 L 253 261.5 Q 256.5 251.5 264.5 246 Q 266.8 246.8 266 244.5 L 269 243 L 272 237 Q 274.7 238.1 274 235.5 L 279 225.5 L 282 205.5 L 286 198 L 299.5 192 Z M 299 194 L 289 199 L 283 209 L 280 229 L 271 243 L 265 248 Q 258 252 255 261 Q 253 270 257 275 Q 260 280 268 282 L 277 282 L 290 275 Q 302 265 310 250 L 317 232 L 318 219 L 319 218 L 317 205 L 314 199 L 307 195 L 299 194 Z "/>
    <path fill="#f783ac" d="M 141.5 190 Q 150.2 188.3 153 192.5 L 151.5 193 Q 149.2 190.3 143.5 191 L 136.5 194 L 138.5 191 L 141.5 190 Z "/>
    <path fill="#f783ac" d="M 134.5 195 L 136 195.5 L 132.5 198 L 134.5 195 Z "/>
    <path fill="#f783ac" d="M 153.5 195 L 155 196.5 L 156 207.5 L 155 207.5 L 155 201.5 Q 152 199 153.5 195 Z "/>
    <path fill="#f783ac" d="M 131 200 L 133 200.5 L 132 201.5 L 132 212.5 L 138 220.5 L 136.5 220 Q 133.9 220.7 135 218 L 133 218 L 133 215.5 L 131 212.5 L 130 203.5 L 131 200 Z "/>
    <path fill="#f783ac" d="M 155.5 209 L 156 212.5 L 149.5 222 L 141.5 223 L 139 221.5 L 140.5 221 L 145.5 222 L 152 219 L 155.5 209 Z "/>
  </g>
  <g id="line">
    <path fill="#1a1a1a" d="M 203.5 36 L 235.5 36 L 236.5 37 L 245.5 37 L 261.5 40 L 278.5 45 Q 320.1 59.9 347 89.5 Q 369.3 113.2 381 147.5 L 388 175.5 L 389 194.5 L 390 195.5 L 390 212.5 L 389 213.5 L 388 232.5 L 381 258.5 L 372 279.5 L 357 302.5 L 357 304.5 L 376 323.5 L 376 325 L 377.5 325 L 386 333.5 Q 385.3 335.8 387.5 335 L 451 397.5 Q 460.3 408.2 466 422.5 L 467 439.5 Q 461.6 458.1 447.5 468 L 434.5 475 L 420.5 478 L 409.5 476 L 398.5 471 L 377 452.5 Q 346.4 418.1 320 379.5 L 297.5 353 L 277.5 362 L 251.5 369 L 233.5 371 L 232.5 372 L 196.5 372 L 182.5 369 L 176.5 369 L 152.5 362 Q 123.5 350.3 102 332 Q 103.1 329.3 100.5 330 Q 72.8 305.7 58 268.5 L 51 247.5 L 50 237.5 L 48 232.5 L 47 214.5 L 46 213.5 L 46 191.5 L 47 190.5 L 47 181.5 L 48 180.5 L 49 168.5 L 57 141.5 Q 72.4 105.9 99.5 82 Q 119.5 63.5 145.5 51 L 173.5 41 L 194.5 37 L 202.5 37 L 203.5 36 Z M 210 47 L 209 48 L 198 48 L 178 52 L 160 58 L 144 65 L 113 86 Q 91 104 76 130 L 64 157 L 58 185 L 58 222 L 65 255 L 79 286 L 93 306 Q 111 328 137 342 L 165 354 L 182 358 L 193 359 L 194 360 L 202 360 L 203 361 L 236 360 L 249 357 L 254 357 L 279 349 L 303 337 L 326 320 Q 347 301 361 276 L 371 253 L 375 239 Q 374 232 377 229 L 377 222 L 378 221 L 378 190 L 377 189 L 377 182 L 374 165 L 372 162 L 371 155 L 365 138 L 351 113 L 344 104 L 321 81 L 302 68 L 283 60 L 281 58 L 273 55 L 242 48 L 210 47 Z M 349 313 L 330 332 L 309 347 L 309 349 L 324 366 L 379 438 L 402 459 L 414 465 Q 419 464 421 466 L 429 465 L 443 457 Q 451 451 455 441 L 455 427 L 450 416 L 426 388 Q 423 389 424 387 L 422 385 L 419 381 Q 416 382 417 380 L 395 359 L 355 319 L 349 313 Z "/>
    <path fill="#1a1a1a" d="M 207.5 78 L 233.5 78 L 234.5 79 L 242.5 79 L 269.5 86 L 294.5 99 L 317 118.5 L 332 139.5 L 337 149.5 L 344 169.5 L 348 192.5 L 348 216.5 L 343 241.5 L 333 264.5 Q 321.3 285.3 303.5 300 L 277.5 317 L 254.5 326 L 235.5 330 L 204.5 331 L 203.5 330 L 194.5 330 L 179.5 327 L 159.5 320 L 141.5 310 L 119 289.5 Q 101.7 269.8 93 241.5 L 88 214.5 L 88 193.5 L 93 166.5 L 104 141.5 Q 115.2 122.7 131.5 109 L 149.5 96 L 170.5 86 L 193.5 80 L 206.5 79 L 207.5 78 Z M 211 89 L 210 90 L 195 91 L 174 97 Q 155 105 141 116 L 120 138 L 106 164 L 100 188 L 100 199 L 99 200 L 101 227 L 107 248 Q 115 268 128 283 Q 143 300 165 310 L 182 316 L 187 316 L 196 319 L 208 319 L 209 320 L 221 320 L 222 319 L 239 318 L 261 312 L 285 300 L 306 283 Q 317 270 326 254 L 333 236 L 337 215 L 336 187 L 331 166 L 318 139 L 306 125 Q 307 122 305 123 L 303 120 L 291 110 L 269 98 L 240 90 L 211 89 Z "/>
    <path fill="#1a1a1a" d="M 167.5 122 L 179.5 123 Q 186.9 125.1 191 130.5 Q 196.2 137.2 197 148.5 L 194 159.5 L 187.5 168 Q 180.1 176.6 161.5 174 Q 154.1 171.4 150 165.5 L 146 158.5 L 144 147.5 Q 146 134.5 154.5 128 L 167.5 122 Z M 168 128 L 159 132 Q 152 137 150 148 Q 150 158 155 163 L 166 169 L 174 169 L 183 165 L 188 159 L 191 149 Q 191 141 188 137 Q 183 127 168 128 Z "/>
    <path fill="#1a1a1a" d="M 141.5 184 L 149.5 184 L 158 190.5 Q 162.2 197.8 162 209.5 L 158 221.5 L 153.5 226 Q 149.4 229.9 140.5 229 Q 133.1 226.9 129 221.5 L 125 213.5 L 125 200.5 L 128 193.5 L 134.5 187 L 141.5 184 Z M 142 190 L 139 191 Q 132 195 130 204 Q 129 213 133 218 L 141 223 L 150 222 Q 154 219 156 213 Q 158 199 153 193 Q 150 188 142 190 Z "/>
    <path fill="#1a1a1a" d="M 298.5 194 L 306.5 195 L 314 199 L 317 204.5 L 319 217.5 L 318 218.5 L 317 231.5 L 310 249.5 Q 302.1 264.6 289.5 275 L 276.5 282 L 267.5 282 Q 260.3 280.2 257 274.5 Q 253.3 270.2 255 260.5 Q 257.9 252.4 264.5 248 L 271 242.5 L 280 228.5 L 283 208.5 L 288.5 199 L 298.5 194 Z M 298 200 L 292 203 L 288 211 L 287 225 L 284 235 Q 278 245 270 252 Q 267 251 268 254 L 265 255 L 260 265 L 262 272 L 269 277 L 278 276 L 288 269 L 303 251 L 309 239 L 313 223 Q 315 210 310 205 Q 308 198 298 200 Z "/>
  </g>
</svg>
