<svg xmlns="http://www.w3.org/2000/svg" width="512" height="512" viewBox="0 0 512 512">
  <g id="color">
    <path fill="#ffffff" d="M 62.5 119 L 66 120.5 L 64.5 120 Q 61.5 120.5 62.5 119 Z "/>
    <path fill="#ffffff" d="M 158.5 133 L 163 133.5 L 158.5 134 L 158.5 133 Z "/>
    <path fill="#ffffff" d="M 165.5 134 L 170 134.5 L 165.5 135 L 165.5 134 Z "/>
    <path fill="#ffffff" d="M 179.5 136 L 185 136.5 L 179.5 137 L 179.5 136 Z "/>
    <path fill="#ffffff" d="M 443.5 136 L 444 143.5 L 443 143.5 L 443.5 136 Z "/>
    <path fill="#ffffff" d="M 189.5 137 L 195 137.5 L 189.5 138 L 189.5 137 Z "/>
    <path fill="#ffffff" d="M 200.5 138 L 206 138.5 L 200.5 139 L 200.5 138 Z "/>
    <path fill="#ffffff" d="M 215.5 139 L 225 139.5 L 215.5 140 L 215.5 139 Z "/>
    <path fill="#ffffff" d="M 320.5 139 L 326 139.5 L 320.5 140 L 320.5 139 Z "/>
    <path fill="#ffffff" d="M 285.5 145 L 290 147.5 L 288.5 147 Q 284.7 146.8 285.5 145 Z "/>
    <path fill="#ffffff" d="M 335.5 147 Q 340.8 145.8 342 148.5 L 340.5 148 Q 334.5 149.3 335.5 147 Z "/>
    <path fill="#ffffff" d="M 442.5 147 L 443 149.5 L 440.5 153 L 441 151.5 L 442.5 147 Z "/>
    <path fill="#ffffff" d="M 54.5 154 L 55 155.5 L 53.5 158 L 53 156.5 L 54.5 154 Z "/>
    <path fill="#ffffff" d="M 419.5 160 L 421 160.5 L 416.5 163 L 417.5 161 L 419.5 160 Z "/>
    <path fill="#ffffff" d="M 347.5 161 L 349.5 163 L 357 163.5 L 349.5 164 L 347.5 161 Z "/>
    <path fill="#ffffff" d="M 367.5 163 L 372 163.5 L 367.5 164 L 367.5 163 Z "/>
    <path fill="#ffffff" d="M 457.5 172 L 458 180.5 L 457 180.5 L 457.5 172 Z "/>
    <path fill="#ffffff" d="M 42.5 181 L 43 186.5 L 42 186.5 L 42.5 181 Z "/>
    <path fill="#ffffff" d="M 369.5 195 L 368 197.5 L 367.5 202 L 367 197.5 L 369.5 195 Z "/>
    <path fill="#ffffff" d="M 453.5 197 L 452 199.5 L 451.5 202 L 451 199.5 L 453.5 197 Z "/>
    <path fill="#ffffff" d="M 374.5 198 L 379 198.5 L 374.5 199 L 374.5 198 Z "/>
    <path fill="#ffffff" d="M 366.5 203 L 366.5 205 L 369.5 203 L 367.5 206 Q 364.2 207.1 365 204.5 L 366.5 203 Z "/>
    <path fill="#ffffff" d="M 42.5 234 L 43 240.5 L 42 240.5 L 42.5 234 Z "/>
    <path fill="#ffffff" d="M 437.5 260 L 438 264.5 L 437 264.5 L 437.5 260 Z "/>
    <path fill="#ffffff" d="M 419.5 290 L 416 294.5 L 415.5 296 L 415 294.5 L 419.5 290 Z "/>
    <path fill="#ffffff" d="M 74.5 302 L 78 304.5 L 76.5 305 L 74.5 302 Z "/>
    <path fill="#ffffff" d="M 92.5 307 Q 96.5 306.5 97 309.5 L 94.5 308 Q 91.5 308.5 92.5 307 Z "/>
    <path fill="#ffffff" d="M 145.5 330 L 150 330.5 L 145.5 331 L 145.5 330 Z "/>
    <path fill="#ffffff" d="M 330.5 343 L 335 343.5 L 330.5 344 L 330.5 343 Z "/>
    <path fill="#ffffff" d="M 327.5 346 Q 327.4 351.1 331 352.5 L 327 349.5 L 327.5 346 Z "/>
    <path fill="#ffffff" d="M 310.5 358 L 316 358.5 L 310.5 359 L 310.5 358 Z "/>
    <path fill="#ffffff" d="M 226.5 374 Q 229.5 374.5 229 378.5 L 228 378.5 L 226.5 374 Z "/>
    <path fill="#ffffff" d="M 420.5 381 L 421 383.5 L 416.5 389 L 419 385.5 L 420.5 381 Z "/>
    <path fill="#ffffff" d="M 404.5 385 L 408.5 390 L 412 390.5 L 408.5 391 Q 404.4 388.7 404.5 385 Z "/>
    <path fill="#4da3ff" d="M 82 124 L 119.5 133 L 165.5 141 L 188.5 143 L 189.5 144 L 212.5 145 L 213.5 146 L 237.5 146 L 239.5 147 L 241.5 147 L 267.5 146 Q 270.8 151.2 279.5 151 L 281.5 151 L 292 155 L 287 163.5 L 287 168 L 293.5 169 L 295.5 168 L 301.5 170 L 313.5 165 L 328 170.5 L 322 175.5 L 318 186.5 L 319 189 L 321 189.5 L 321 197.5 L 320 200.5 L 322 211.5 L 327.5 219 Q 335.5 220.5 337 215.5 L 339 211.5 L 340 203.5 L 337 195.5 L 337 188.5 L 338 184.5 L 340.5 182 Q 342.8 182.8 342 180.5 L 344 176 Q 349.7 175.6 352 179.5 L 352 185.5 L 350 191.5 L 352.5 195 L 360 194 L 361 200.5 Q 357.3 204.3 357 211.5 L 358 215 Q 361.2 218 368.5 218 Q 383.8 212.8 393 201.5 L 395 194.5 Q 392.8 193.3 395.5 192 L 405.5 191 L 414 184.5 L 415 179.5 L 414 175.5 L 420.5 167 L 439.5 162 L 446 156.5 L 450 145.5 L 450 134.5 L 452.5 132 L 457.5 131 L 463 142.5 L 469 148.5 L 469 150.5 L 460 156.5 L 452 169.5 L 451 181.5 L 455 188.5 L 452 190 L 450.5 193 Q 439.3 196.8 433 205.5 L 432 209.5 Q 434.6 212.4 434 218.5 L 431.5 223 L 428.5 222 L 426 223.5 L 426.5 225 L 424.5 225 L 421.5 224 L 418 226.5 L 417 238.5 L 422 244.5 Q 420.9 252.1 425.5 254 L 429 255 L 431 263.5 L 427 269.5 L 427 273.5 L 423.5 277 Q 421.3 276.3 422 278.5 L 413.5 288 Q 411.3 287.3 412 289.5 Q 407.3 300.3 399 307.5 Q 394.5 314 394 324.5 L 398 339.5 L 406 350.5 L 413 364.5 L 415 371.5 L 415 379.5 L 414 383 L 410 383 L 410 381.5 L 399 371.5 L 392 362.5 L 391 349.5 L 387.5 345 L 384.5 343 L 383 340 L 379 338.5 Q 379.8 335.9 376.5 337 L 372.5 336 L 363.5 340 L 355.5 335 L 345.5 335 L 338.5 337 L 325.5 338 L 321 340 L 319 343.5 L 319 346.5 L 320 350 Q 317.4 352.7 310.5 352 L 305.5 348 L 286.5 347 L 272 353 L 268.5 358 Q 258.2 361.7 252 369.5 L 249 377.5 L 249 384.5 L 250 388 L 245.5 388 L 238 385 L 233 372.5 Q 226.9 366.1 224 356.5 L 218.5 350 L 210.5 346 L 205.5 346 L 199 350.5 L 197.5 353 Q 191.6 352.4 189 348.5 L 185 336.5 L 171.5 323 L 163.5 321 L 154.5 321 Q 152 325.5 143.5 324 L 127.5 321 L 97.5 302 L 89.5 300 L 87.5 300 Q 81 301 79 297.5 L 77 290.5 L 68.5 280 L 57 272.5 L 56 263.5 L 51 253.5 L 51 247.5 L 51 245.5 Q 51.8 241.3 49 240.5 L 48 230.5 L 44 222.5 L 44 215.5 L 45 211.5 L 43 204.5 L 48 193.5 L 49 180.5 L 57 166.5 L 63 150.5 L 65 142.5 L 65.5 127 L 72 131.5 L 71 137.5 Q 72 140 76.5 139 L 81 133.5 L 82 124 Z M 280 236 L 278 242 L 277 243 L 271 244 L 268 247 Q 268 251 271 252 L 271 253 L 273 254 L 273 263 L 276 264 L 283 261 L 289 264 Q 293 264 293 262 L 292 257 L 292 255 L 297 249 L 297 246 L 296 244 L 288 243 L 286 238 Q 285 235 280 236 Z "/>
    <path fill="#4da3ff" d="M 426.5 231 L 429 235 Q 426 236.3 427 232.5 L 426.5 231 Z "/>
    <path fill="#ffd43b" d="M 282 239 Q 284.7 237.9 284 240.5 L 287.5 246 Q 292.8 244.8 294 247.5 L 289 254.5 L 290 259.5 Q 288.3 262.8 286.5 259 L 281.5 258 L 276.5 261 Q 273.7 259.8 276 258.5 L 276 252.5 L 271 247.5 L 277.5 246 L 281 242.5 L 282 239 Z "/>
    <path fill="#66d9e8" d="M 81.5 122 L 99.5 127 L 103.5 127 L 107.5 129 L 166.5 140 L 191.5 142 L 192.5 143 L 204.5 143 L 205.5 144 L 219.5 144 L 220.5 145 L 264.5 145 L 267.5 144 L 273.5 149 L 281.5 149 L 288.5 153 L 296 154.5 Q 289.5 158 288 166.5 Q 288.8 168.8 292.5 168 L 296.5 167 L 300.5 169 L 313.5 163 L 315.5 165 L 327.5 168 Q 331.6 164.1 340.5 165 L 345 166.5 L 342.5 168 L 333.5 169 Q 326.8 171.3 323 176.5 L 319 186.5 L 323 189.5 L 322 191.5 L 322 206.5 L 327.5 218 Q 334.8 219.3 336 214.5 Q 339.3 209.8 338 200.5 Q 334.2 195.8 336 185.5 L 338.5 182 L 342 179.5 L 344.5 175 Q 351.1 174.4 353 178.5 L 354 183.5 Q 351.4 186.4 352 192.5 Q 352.8 194.8 356.5 194 L 359.5 192 L 363 199.5 Q 358.8 203.8 358 211.5 L 360.5 215 Q 363.7 217.3 370.5 216 Q 383.5 210.5 392 200.5 L 394 195.5 L 393 192.5 L 397.5 190 L 407.5 189 L 413 183.5 L 413 174.5 L 418.5 167 Q 427 162.5 438.5 161 L 445 155.5 L 448 149.5 L 449 134.5 L 450 131 L 457.5 129 Q 462.8 132.2 463 140.5 L 471 149.5 L 467.5 154 L 461 157.5 Q 458.8 165.3 453 169.5 L 452 180.5 L 453 184.5 L 455.5 187 L 458 188.5 L 436 203.5 Q 433 205.5 434 211.5 L 435 212.5 L 435 220.5 L 432.5 225 L 426 224 L 426 227.5 L 431 234.5 L 431 236.5 Q 429.3 239.8 427.5 236 Q 425.3 236.8 426 234.5 L 424 226 Q 420.2 225 419 227.5 L 419 239.5 L 423 243.5 Q 422.3 249.6 424 252 L 430 255.5 Q 432.8 258.2 432 264.5 L 428 270.5 L 429 273.5 L 422 279.5 L 416.5 287 L 413 289.5 L 408 299.5 L 398 311.5 L 396 318.5 L 396 329.5 L 401 342.5 L 407 349.5 L 409 356.5 L 415 366.5 L 416 381.5 L 415 384 L 410.5 385 L 404.5 378 L 399 373.5 L 391 363.5 Q 388.7 358.7 390 350.5 L 384.5 344 L 376.5 338 L 370.5 338 L 363.5 342 Q 359 335.5 347.5 336 L 341.5 338 L 327.5 339 L 321 342.5 L 320 346.5 L 322 351 Q 317.4 350.4 315.5 354 L 311.5 354 L 309 353 Q 310.1 350.3 307.5 351 Q 305.8 348.2 300.5 349 L 296.5 350 L 295.5 349 L 283.5 349 L 276.5 352 L 267.5 360 L 254 368.5 Q 249.3 373.3 250 383.5 L 252 390 Q 241 390.2 236 383.5 L 233 374.5 Q 226.4 368.6 224 358.5 L 216.5 350 L 207.5 347 L 203.5 348 L 199 352.5 L 197.5 355 L 188 349.5 L 186 341.5 L 183 336.5 L 170.5 324 L 161.5 322 L 154.5 322 L 151.5 326 L 129.5 323 L 102.5 308 L 97.5 303 L 80.5 301 L 78 300 Q 76.6 287.2 67.5 281 L 55 272.5 L 55 264.5 L 50 254.5 L 49 249.5 Q 51.3 248.2 50 243.5 L 48 241.5 L 47 231.5 L 43 223.5 L 43 208.5 L 42 203.5 L 47 193.5 L 48 179.5 Q 56.9 166.4 62 149.5 L 64 140.5 L 64 126 L 73 129 L 72 136.5 Q 73.2 139 77 138 L 80 131.5 L 80 123.5 L 81.5 122 Z M 82 124 L 81 134 L 77 139 Q 72 140 71 138 L 72 132 L 66 127 L 65 143 L 63 151 L 57 167 L 49 181 L 48 194 L 43 205 L 45 212 L 44 216 L 44 223 L 48 231 L 49 241 Q 52 241 51 246 L 51 248 L 51 254 L 56 264 L 57 273 L 69 280 L 77 291 L 79 298 Q 81 301 88 300 L 90 300 L 98 302 L 128 321 L 144 324 Q 152 326 155 321 L 164 321 L 172 323 L 185 337 L 189 349 Q 192 352 198 353 L 199 351 L 206 346 L 211 346 L 219 350 L 224 357 Q 227 366 233 373 L 238 385 L 246 388 L 250 388 L 249 385 L 249 378 L 252 370 Q 258 362 269 358 L 272 353 L 287 347 L 306 348 L 311 352 Q 317 353 320 350 L 319 347 L 319 344 L 321 340 L 326 338 L 339 337 L 346 335 L 356 335 L 364 340 L 373 336 L 377 337 Q 380 336 379 339 L 383 340 L 385 343 L 388 345 L 391 350 L 392 363 L 399 372 L 410 382 L 410 383 L 414 383 L 415 380 L 415 372 L 413 365 L 406 351 L 398 340 L 394 325 Q 395 314 399 308 Q 407 300 412 290 Q 411 287 414 288 L 422 279 Q 421 276 424 277 L 427 274 L 427 270 L 431 264 L 429 255 L 426 254 Q 421 252 422 245 L 417 239 L 418 227 L 422 224 L 424 225 L 429 222 L 432 223 L 434 219 Q 435 212 432 210 L 433 206 Q 439 197 451 193 L 452 190 L 455 189 L 451 182 L 452 170 L 460 157 L 469 151 L 469 149 L 463 143 L 458 131 L 453 132 L 450 135 L 450 146 L 446 157 L 440 162 L 421 167 L 414 176 L 415 180 L 414 185 L 406 191 L 396 192 Q 393 193 395 195 L 393 202 Q 384 213 369 218 Q 361 218 358 215 L 357 212 Q 357 204 361 201 L 360 194 L 353 195 L 350 192 L 352 186 L 352 180 Q 350 176 344 176 L 342 181 Q 343 183 341 182 L 338 185 L 337 189 L 337 196 L 340 204 L 339 212 L 337 216 Q 336 221 328 219 L 322 212 L 320 201 L 321 198 L 321 190 L 319 189 L 318 187 L 322 176 L 328 171 L 314 165 L 302 170 L 296 168 L 294 169 L 287 168 L 287 164 L 292 155 L 282 151 L 280 151 Q 271 151 268 146 L 242 147 L 240 147 L 238 146 L 214 146 L 213 145 L 190 144 L 189 143 L 166 141 L 120 133 L 82 124 Z "/>
    <path fill="#66d9e8" d="M 316 142 L 326.5 143 L 330 146.5 L 331.5 149 L 337.5 150 L 340 152.5 L 342 158.5 L 339.5 160 L 337.5 159 L 327.5 163 L 323.5 163 L 318 161 L 319 155 L 314.5 155 L 304.5 163 L 300.5 164 L 297 161.5 L 300.5 157 L 307 153.5 L 311.5 147 L 316 143.5 L 316 142 Z "/>
    <path fill="#66d9e8" d="M 356.5 166 Q 373.3 163.2 378 172.5 L 379 177 L 376.5 178 L 368.5 174 Q 365.8 175.3 368 176.5 L 367 192 Q 364.3 193.1 365 190.5 L 361.5 186 L 358 186 L 358 178.5 L 356 174 L 350 170.5 L 351 167 L 356.5 166 Z "/>
    <path fill="#66d9e8" d="M 338.5 172 L 339 174.5 L 332 182.5 Q 329.6 187.6 331 196.5 Q 334.7 200.8 333 210.5 L 332 213 L 329 211.5 L 327 207.5 L 326 197.5 L 330 179.5 Q 326.3 177.8 329.5 176 L 338.5 172 Z "/>
    <path fill="#66d9e8" d="M 407.5 178 L 409 180.5 L 408 183 L 403.5 185 L 394.5 186 L 388 189 Q 386.9 186.3 389.5 187 L 392.5 184 L 403.5 181 L 407.5 178 Z "/>
    <path fill="#66d9e8" d="M 386.5 197 L 387 198.5 L 374.5 209 L 366.5 212 Q 363.5 210.5 366.5 209 L 374 203.5 Q 373.2 200.9 376.5 202 L 386.5 197 Z "/>
    <path fill="#66d9e8" d="M 280 236 Q 284.6 234.8 286 237.5 L 288 243 L 295.5 244 L 297 245.5 L 297 248.5 L 292 254.5 L 292 256.5 L 293 261.5 Q 292.5 264.5 288.5 264 L 282.5 261 L 275.5 264 L 273 263 L 273 253.5 L 271 253 L 271 251.5 Q 267.5 251 268 246.5 L 270.5 244 L 276.5 243 L 278 241.5 L 280 236 Z M 282 237 L 279 243 L 276 245 Q 268 242 270 250 L 273 251 L 275 255 L 274 262 Q 279 263 282 260 L 289 262 Q 290 265 292 261 L 291 259 L 291 254 L 296 249 L 296 247 L 295 245 L 289 244 Q 286 244 286 240 Q 286 236 282 237 Z "/>
  </g>
  <g id="line">
    <path fill="#1a1a1a" d="M 78.5 117 L 82.5 117 L 94.5 121 L 98.5 121 L 130.5 129 L 141.5 130 L 158.5 134 L 178.5 136 L 179.5 137 L 199.5 138 L 200.5 139 L 214.5 139 L 215.5 140 L 262.5 140 Q 263.3 136.3 268.5 137 L 273.5 144 L 277.5 145 L 281.5 144 L 291.5 149 L 294.5 149 L 297.5 148 Q 299.2 150.8 305.5 149 L 313 142.5 L 315.5 139 L 327.5 140 L 331 142.5 L 333.5 147 L 340.5 148 L 342 149.5 L 345 159.5 L 349.5 164 L 366.5 163 L 374.5 165 L 381 171.5 L 382 177.5 Q 380.5 181.5 373.5 180 L 371 179 Q 369.1 184.6 370 194.5 L 367 197.5 L 367 202.5 L 365 206 Q 368.8 206.8 370 203.5 L 373.5 199 L 378.5 199 L 385 194.5 Q 382.7 193.3 384 188.5 L 387.5 184 L 403.5 177 L 409 172.5 L 415.5 163 L 421.5 160 L 437.5 156 L 442 151.5 L 445 131.5 L 449.5 125 L 452.5 126 Q 453.9 123.4 458.5 124 L 464 128.5 L 468 139.5 L 470.5 142 L 475 145.5 L 476 151.5 L 472.5 156 L 464 161.5 L 460.5 168 L 458 169.5 L 457 180.5 L 458 183 L 464 184 L 465 187.5 L 463 192 L 451 199.5 Q 451.8 205.3 447.5 206 L 439 210.5 Q 441.3 213.7 440 220.5 L 435 232.5 L 436 235.5 L 434 244.5 L 431 249.5 L 437 258.5 L 437 265.5 L 435 270.5 L 436 273.5 L 426 282.5 L 420.5 290 L 415 294.5 L 413 300.5 L 402 314.5 Q 399.4 320.4 401 330.5 L 419 363.5 L 421 371.5 L 421 380.5 Q 419.8 386.3 415.5 389 L 408.5 390 L 400.5 381 L 396 377.5 L 388 367.5 L 385 358.5 L 385 351.5 L 380.5 347 L 373.5 342 Q 370.4 346.9 362.5 347 L 354.5 341 L 347.5 341 L 346.5 342 L 330.5 343 L 327 344 L 327 349.5 L 331 353.5 L 331 355.5 Q 330 359 324.5 358 L 320.5 356 Q 317.6 359.6 309.5 358 L 304.5 354 L 300.5 354 L 296.5 355 L 288.5 353 L 278.5 356 L 270.5 364 L 260.5 369 L 257 372.5 Q 253.7 376.2 255 384.5 L 257 392.5 L 256 395 L 250.5 396 L 235.5 390 L 232 386.5 L 229 376.5 Q 221.6 370.4 219 359.5 L 212.5 353 L 206.5 352 L 199.5 360 Q 188.6 358.9 184 351.5 L 181 341.5 L 175.5 335 L 171 331.5 L 169.5 329 L 157 327 L 155.5 330 L 150.5 331 L 149.5 330 L 128.5 328 L 103.5 314 L 94.5 307 L 78.5 305 L 74 301.5 Q 72.5 289 63.5 284 L 51 275.5 Q 48.5 272 50 264.5 Q 45.5 258.5 44 249.5 L 45 244.5 Q 41.6 241.9 43 234.5 L 38 223.5 L 37 203.5 L 42 194.5 L 43 179.5 Q 52.1 164.6 58 146.5 L 59 141.5 L 59 123.5 L 61.5 120 L 64.5 120 L 72.5 125 L 75 125 Q 73.5 119.6 76.5 118 L 78.5 117 Z M 82 122 L 80 124 L 80 132 L 77 138 Q 73 139 72 137 L 73 129 L 64 126 L 64 141 L 62 150 Q 57 166 48 180 L 47 194 L 42 204 L 43 209 L 43 224 L 47 232 L 48 242 L 50 244 Q 51 248 49 250 L 50 255 L 55 265 L 55 273 L 68 281 Q 77 287 78 300 L 81 301 L 98 303 L 103 308 L 130 323 L 152 326 L 155 322 L 162 322 L 171 324 L 183 337 L 186 342 L 188 350 L 198 355 L 199 353 L 204 348 L 208 347 L 217 350 L 224 359 Q 226 369 233 375 L 236 384 Q 241 390 252 390 L 250 384 Q 249 373 254 369 L 268 360 L 277 352 L 284 349 L 296 349 L 297 350 L 301 349 Q 306 348 308 351 Q 310 350 309 353 L 312 354 L 316 354 Q 317 350 322 351 L 320 347 L 321 343 L 328 339 L 342 338 L 348 336 Q 359 336 364 342 L 371 338 L 377 338 L 385 344 L 390 351 Q 389 359 391 364 L 399 374 L 405 378 L 411 385 L 415 384 L 416 382 L 415 367 L 409 357 L 407 350 L 401 343 L 396 330 L 396 319 L 398 312 L 408 300 L 413 290 L 417 287 L 422 280 L 429 274 L 428 271 L 432 265 Q 433 258 430 256 L 424 252 Q 422 250 423 244 L 419 240 L 419 228 Q 420 225 424 226 L 426 235 Q 425 237 428 236 Q 429 240 431 237 L 431 235 L 426 228 L 428 224 L 433 225 L 435 221 L 435 213 L 434 212 Q 433 206 436 204 L 458 189 L 456 187 L 453 185 L 452 181 L 453 170 Q 459 165 461 158 L 468 154 L 471 150 L 463 141 Q 463 132 458 129 L 450 131 L 449 135 L 448 150 L 445 156 L 439 161 Q 427 162 419 167 L 413 175 L 413 184 L 408 189 L 398 190 L 393 193 L 394 196 L 392 201 Q 384 211 371 216 Q 364 217 361 215 L 358 212 Q 359 204 363 200 L 360 192 L 357 194 Q 353 195 352 193 Q 351 186 354 184 L 353 179 Q 351 174 345 175 L 342 180 L 339 182 L 336 186 Q 334 196 338 201 Q 339 210 336 215 Q 335 219 328 218 L 322 207 L 322 192 L 323 190 L 319 187 L 323 177 Q 327 171 334 169 L 343 168 L 345 167 L 341 165 Q 332 164 328 168 L 316 165 L 314 163 L 301 169 L 297 167 L 293 168 Q 289 169 288 167 Q 290 158 296 155 L 289 153 L 282 149 L 274 149 L 268 144 L 265 145 L 221 145 L 220 144 L 206 144 L 205 143 L 193 143 L 192 142 L 167 140 L 108 129 L 104 127 L 100 127 L 82 122 Z M 316 142 L 316 144 L 312 147 L 307 154 L 301 157 L 297 162 L 301 164 L 305 163 L 315 155 L 319 155 L 318 161 L 324 163 L 328 163 L 338 159 L 342 160 L 340 153 L 338 150 L 332 149 L 330 147 L 327 143 L 316 142 Z M 357 166 L 351 167 L 350 171 L 356 174 L 358 179 L 358 186 L 362 186 L 367 193 L 368 177 Q 366 175 369 174 L 377 178 L 379 177 L 378 173 Q 373 163 357 166 Z M 339 172 L 330 176 Q 326 178 330 180 L 326 198 L 327 208 L 329 212 L 332 213 L 333 211 Q 335 201 331 197 Q 330 188 332 183 L 339 175 L 339 172 Z M 407 178 L 404 181 L 393 184 L 390 187 Q 387 186 388 189 L 388 190 L 395 186 L 404 185 L 408 183 L 409 180 L 407 178 Z M 387 197 L 377 202 Q 373 201 374 204 Q 371 209 364 211 L 367 212 L 375 209 L 388 198 L 387 197 Z "/>
    <path fill="#1a1a1a" d="M 281.5 237 Q 285.5 236.5 286 239.5 Q 285.5 243.5 288.5 244 L 294.5 245 L 296 246.5 L 296 248.5 L 291 253.5 L 291 258.5 L 292 260.5 Q 290.2 264.8 288.5 262 L 281.5 260 Q 279.3 263 274 262 L 275 254.5 L 272.5 251 L 270 249.5 Q 267.7 242.3 275.5 245 L 279 242.5 L 281.5 237 Z M 282 239 L 281 243 L 278 246 L 271 248 L 276 253 L 276 259 Q 274 260 277 261 L 282 258 L 285 258 L 290 261 L 289 255 L 294 248 Q 293 245 288 246 L 284 241 Q 285 238 282 239 Z "/>
  </g>
</svg>
