<svg xmlns="http://www.w3.org/2000/svg" width="512" height="512" viewBox="0 0 512 512">
  <g id="color">
    <path fill="#ffffff" d="M 249.5 36 L 276 36.5 L 249.5 37 L 249.5 36 Z "/>
    <path fill="#ffffff" d="M 238.5 37 L 244 37.5 L 238.5 38 L 238.5 37 Z "/>
    <path fill="#ffffff" d="M 225.5 39 L 228 39.5 L 221.5 42 L 222.5 40 L 225.5 39 Z "/>
    <path fill="#ffffff" d="M 289.5 39 L 297 44.5 L 298 47.5 L 297 47.5 L 292.5 41 Q 288.8 40.7 289.5 39 Z "/>
    <path fill="#ffffff" d="M 219.5 42 L 216 46.5 L 215.5 48 L 215 46.5 L 219.5 42 Z "/>
    <path fill="#ffffff" d="M 248.5 46 L 275.5 46 L 286.5 48 L 289 50.5 L 285 77 L 228.5 77 L 228 73.5 Q 224.3 64.2 224 51.5 L 226.5 49 L 230.5 48 L 247.5 47 L 248.5 46 Z "/>
    <path fill="#ffffff" d="M 214.5 50 L 215 56.5 L 214 56.5 L 214.5 50 Z "/>
    <path fill="#ffffff" d="M 218.5 75 L 219 76.5 Q 217.5 79.5 211.5 78 L 211.5 77 Q 218.8 78.5 218.5 75 Z "/>
    <path fill="#ffffff" d="M 296.5 77 L 303 77.5 L 296.5 78 L 296.5 77 Z "/>
    <path fill="#ffffff" d="M 201.5 79 L 203 79.5 L 195 85.5 L 193.5 89 L 193 87.5 L 199.5 80 L 201.5 79 Z "/>
    <path fill="#ffffff" d="M 310.5 79 L 318 84.5 L 313.5 81 Q 309.7 80.8 310.5 79 Z "/>
    <path fill="#ffffff" d="M 241.5 86 L 291.5 86 L 292.5 87 L 307.5 88 L 311 91.5 L 311 102.5 L 307.5 106 Q 302.4 108.4 293.5 107 L 292.5 108 L 219.5 108 L 218.5 107 L 208.5 107 L 203 103.5 Q 200.3 99.7 202 91.5 L 205.5 88 L 209.5 87 L 240.5 87 L 241.5 86 Z "/>
    <path fill="#ffffff" d="M 193.5 105 L 196 109.5 L 194 108.5 L 193.5 105 Z "/>
    <path fill="#ffffff" d="M 319.5 105 L 320 106.5 L 317.5 110 L 318 108.5 L 319.5 105 Z "/>
    <path fill="#ffffff" d="M 310.5 114 L 312 114.5 L 307.5 116 L 307.5 115 L 310.5 114 Z "/>
    <path fill="#ffffff" d="M 207.5 116 L 210 117.5 L 209.5 120 L 209 117 L 207.5 116 Z "/>
    <path fill="#ffffff" d="M 304.5 116 L 304 117.5 L 303.5 120 L 303 117.5 L 304.5 116 Z "/>
    <path fill="#ffffff" d="M 219 117 L 233.5 117 L 234.5 118 L 275.5 118 L 276.5 117 L 294 117 Q 291.9 123.4 293 134.5 L 292 135.5 L 292 162.5 L 293 163.5 L 294 178.5 L 297 190.5 L 305 210.5 L 381 345.5 L 403 390.5 L 413 418.5 L 414 435.5 Q 411.9 443.9 405.5 448 L 387.5 456 L 363.5 461 L 338.5 463 L 337.5 464 L 326.5 464 L 325.5 465 L 313.5 465 L 312.5 466 L 246.5 468 L 245.5 467 L 216.5 467 L 215.5 466 L 184.5 465 L 183.5 464 L 173.5 464 L 172.5 463 L 143.5 460 L 138.5 458 L 125.5 456 L 114.5 452 L 102 442.5 Q 97.2 436.3 99 423.5 L 105 403.5 L 124 363.5 L 180 263.5 L 211 204.5 L 219 179.5 L 220 163.5 L 221 162.5 L 221 136.5 L 220 135.5 L 220 120.5 L 219 117 Z M 263 194 L 261 195 L 255 203 L 256 212 L 264 217 Q 271 218 274 215 L 278 210 Q 279 202 276 199 Q 273 193 263 194 Z M 228 223 L 225 224 Q 223 227 224 234 L 223 235 L 215 236 L 212 241 L 214 250 L 218 251 L 224 251 L 224 259 L 231 263 L 237 262 Q 242 259 240 251 L 249 250 L 251 248 L 251 238 Q 249 234 242 235 Q 238 233 240 227 Q 238 221 228 223 Z M 284 231 L 279 233 Q 275 235 276 241 L 274 242 Q 268 247 267 256 L 268 265 Q 271 270 279 272 L 295 272 L 301 269 Q 305 266 306 261 Q 307 250 303 246 Q 300 241 294 239 L 291 235 Q 289 231 284 231 Z M 217 280 L 216 281 L 202 282 L 184 288 L 180 292 L 178 298 L 135 377 Q 127 393 122 413 L 122 427 L 125 432 L 140 440 L 160 445 L 177 447 L 178 448 L 187 448 L 188 449 L 211 450 L 212 451 L 229 451 L 230 452 L 283 452 L 284 451 L 300 451 L 301 450 L 335 448 L 371 441 L 387 433 L 391 427 L 391 412 L 382 385 L 364 348 L 330 285 L 326 285 L 319 289 L 304 292 L 291 292 L 290 291 L 266 288 L 262 286 L 237 281 L 217 280 Z "/>
    <path fill="#ffffff" d="M 210.5 125 L 211 130.5 L 210 130.5 L 210.5 125 Z "/>
    <path fill="#ffffff" d="M 302.5 126 L 303 131.5 L 302 131.5 L 302.5 126 Z "/>
    <path fill="#ffffff" d="M 211.5 136 L 212 161.5 L 211 161.5 L 211.5 136 Z "/>
    <path fill="#ffffff" d="M 301.5 139 L 302 159.5 L 301 159.5 L 301.5 139 Z "/>
    <path fill="#ffffff" d="M 302.5 165 L 303 169.5 L 302 169.5 L 302.5 165 Z "/>
    <path fill="#ffffff" d="M 204.5 193 L 205 194.5 L 203.5 197 L 203 195.5 L 204.5 193 Z "/>
    <path fill="#ffffff" d="M 308.5 193 L 310 196.5 L 309 196.5 L 308.5 193 Z "/>
    <path fill="#ffffff" d="M 312.5 203 L 316 208.5 L 314 207.5 L 312.5 203 Z "/>
    <path fill="#ffffff" d="M 195.5 213 L 195 214.5 L 192.5 219 L 193 217.5 L 195.5 213 Z "/>
    <path fill="#ffffff" d="M 191.5 220 L 192 221.5 L 189.5 225 L 190 223.5 L 191.5 220 Z "/>
    <path fill="#ffffff" d="M 321.5 220 L 324 223.5 L 322 222.5 L 321.5 220 Z "/>
    <path fill="#ffffff" d="M 325.5 227 L 328 230.5 L 326 229.5 L 325.5 227 Z "/>
    <path fill="#ffffff" d="M 186.5 230 L 186 231.5 L 183.5 236 L 184 234.5 L 186.5 230 Z "/>
    <path fill="#ffffff" d="M 330.5 236 L 333 239.5 L 331 238.5 L 330.5 236 Z "/>
    <path fill="#ffffff" d="M 334.5 243 L 337 246.5 L 335 245.5 L 334.5 243 Z "/>
    <path fill="#ffffff" d="M 178.5 245 L 178 246.5 L 176.5 249 L 177 247.5 L 178.5 245 Z "/>
    <path fill="#ffffff" d="M 339.5 252 L 342 255.5 L 340 254.5 L 339.5 252 Z "/>
    <path fill="#ffffff" d="M 173.5 254 L 173 255.5 L 171.5 258 L 172 256.5 L 173.5 254 Z "/>
    <path fill="#ffffff" d="M 343.5 259 L 346 262.5 L 344 261.5 L 343.5 259 Z "/>
    <path fill="#ffffff" d="M 168.5 263 L 168 264.5 L 166.5 267 L 167 265.5 L 168.5 263 Z "/>
    <path fill="#ffffff" d="M 348.5 268 L 351 271.5 L 349 270.5 L 348.5 268 Z "/>
    <path fill="#ffffff" d="M 352.5 275 L 355 278.5 L 353 277.5 L 352.5 275 Z "/>
    <path fill="#ffffff" d="M 159.5 279 L 159 280.5 L 155.5 287 L 156 285.5 L 159.5 279 Z "/>
    <path fill="#ffffff" d="M 356.5 282 L 359 285.5 L 357 284.5 L 356.5 282 Z "/>
    <path fill="#ffffff" d="M 361.5 291 L 364 294.5 L 362 293.5 L 361.5 291 Z "/>
    <path fill="#ffffff" d="M 150.5 295 L 150 296.5 L 148.5 299 L 149 297.5 L 150.5 295 Z "/>
    <path fill="#ffffff" d="M 365.5 298 L 368 301.5 L 366 300.5 L 365.5 298 Z "/>
    <path fill="#ffffff" d="M 370.5 307 L 373 310.5 L 371 309.5 L 370.5 307 Z "/>
    <path fill="#ffffff" d="M 143.5 308 L 143 309.5 L 141.5 312 L 142 310.5 L 143.5 308 Z "/>
    <path fill="#ffffff" d="M 374.5 314 L 377 317.5 L 375 316.5 L 374.5 314 Z "/>
    <path fill="#ffffff" d="M 138.5 317 L 138 318.5 L 136.5 321 L 137 319.5 L 138.5 317 Z "/>
    <path fill="#ffffff" d="M 379.5 323 L 383 328.5 L 381 327.5 L 379.5 323 Z "/>
    <path fill="#ffffff" d="M 388.5 340 L 391 343.5 L 389 342.5 L 388.5 340 Z "/>
    <path fill="#ffffff" d="M 125.5 341 L 125 342.5 L 123.5 345 L 124 343.5 L 125.5 341 Z "/>
    <path fill="#ffffff" d="M 391.5 345 L 394 349.5 L 392 348.5 L 391.5 345 Z "/>
    <path fill="#ffffff" d="M 120.5 350 L 120 351.5 L 118.5 355 L 118 353.5 L 120.5 350 Z "/>
    <path fill="#ffffff" d="M 396.5 355 L 399 359.5 L 397 358.5 L 396.5 355 Z "/>
    <path fill="#ffffff" d="M 116.5 358 L 116 359.5 L 113.5 364 L 114 362.5 L 116.5 358 Z "/>
    <path fill="#ffffff" d="M 112.5 365 L 113 366.5 L 110.5 370 L 111 368.5 L 112.5 365 Z "/>
    <path fill="#ffffff" d="M 107.5 376 L 107 377.5 L 105.5 381 L 105 379.5 L 107.5 376 Z "/>
    <path fill="#ffffff" d="M 409.5 382 L 412 387.5 L 411 387.5 L 409.5 382 Z "/>
    <path fill="#ffffff" d="M 414.5 394 L 416 397.5 L 415 397.5 L 414.5 394 Z "/>
    <path fill="#ffffff" d="M 97.5 397 L 98 398.5 L 96.5 401 L 96 399.5 L 97.5 397 Z "/>
    <path fill="#ffffff" d="M 93.5 407 L 94 409.5 L 92.5 413 L 92 410.5 L 93.5 407 Z "/>
    <path fill="#ffffff" d="M 423.5 423 L 424 436.5 L 423 436.5 L 423.5 423 Z "/>
    <path fill="#ffffff" d="M 89.5 424 L 90 435.5 L 89 435.5 L 89.5 424 Z "/>
    <path fill="#ffffff" d="M 421.5 442 L 422 443.5 L 419.5 447 L 420 445.5 L 421.5 442 Z "/>
    <path fill="#ffffff" d="M 107.5 458 L 112 460.5 L 110.5 461 L 107.5 458 Z "/>
    <path fill="#ffffff" d="M 405.5 458 L 404.5 460 L 401.5 461 L 401.5 460 L 405.5 458 Z "/>
    <path fill="#ffffff" d="M 157.5 471 L 162 471.5 L 157.5 472 L 157.5 471 Z "/>
    <path fill="#ffffff" d="M 350.5 471 L 355 471.5 L 350.5 472 L 350.5 471 Z "/>
    <path fill="#ffffff" d="M 165.5 472 L 172 472.5 L 165.5 473 L 165.5 472 Z "/>
    <path fill="#ffffff" d="M 340.5 472 L 347 472.5 L 340.5 473 L 340.5 472 Z "/>
    <path fill="#ffffff" d="M 173.5 473 L 180 473.5 L 173.5 474 L 173.5 473 Z "/>
    <path fill="#ffffff" d="M 331.5 473 L 338 473.5 L 331.5 474 L 331.5 473 Z "/>
    <path fill="#ffffff" d="M 185.5 474 L 193 474.5 L 185.5 475 L 185.5 474 Z "/>
    <path fill="#ffffff" d="M 317.5 474 L 326 474.5 L 317.5 475 L 317.5 474 Z "/>
    <path fill="#ffffff" d="M 201.5 475 L 210 475.5 L 201.5 476 L 201.5 475 Z "/>
    <path fill="#ffffff" d="M 300.5 475 L 309 475.5 L 300.5 476 L 300.5 475 Z "/>
    <path fill="#ffffff" d="M 217.5 476 L 237 476.5 L 217.5 477 L 217.5 476 Z "/>
    <path fill="#ffffff" d="M 272.5 476 L 292 476.5 L 272.5 477 L 272.5 476 Z "/>
    <path fill="#ffffff" d="M 243.5 477 L 266 477.5 L 243.5 478 L 243.5 477 Z "/>
    <path fill="#4da3ff" d="M 263 200 L 266 201.5 L 263 203 Q 264.3 207.1 261 206 L 261 202 Q 264 203 263 200 Z "/>
    <path fill="#4da3ff" d="M 280.5 250 L 279 252.5 L 278.5 255 L 278 252.5 L 280.5 250 Z "/>
    <path fill="#4da3ff" d="M 271.5 256 L 272 261.5 L 271 261.5 L 271.5 256 Z "/>
    <path fill="#4da3ff" d="M 213.5 287 L 237.5 288 L 284.5 298 L 307.5 298 L 327 293 L 360.5 356 L 362 355.5 L 361 357.5 L 370 374.5 L 382 403.5 L 385 421.5 L 384 425.5 L 380.5 429 L 363.5 436 L 342.5 440 L 326.5 441 L 325.5 442 L 288.5 444 L 287.5 445 L 223.5 445 L 222.5 444 L 195.5 443 L 194.5 442 L 158.5 438 L 137.5 432 L 129 425.5 L 128 420.5 L 129 419.5 L 130 407.5 L 140 381.5 L 156 350.5 L 159 347.5 L 162 339.5 L 172 323.5 L 181 304.5 L 188.5 293 L 205.5 288 Q 211.7 289.8 213.5 287 Z "/>
    <path fill="#ff6b6b" d="M 230.5 224 Q 236.1 223.9 238 227.5 L 237 235 L 245 236 Q 243.9 238.7 246.5 238 Q 250.7 238.8 250 244.5 L 249 244.5 L 248.5 243 L 246 249 L 239.5 249 L 238 250.5 L 237.5 258 L 236 257.5 Q 237.1 260.8 234.5 260 L 229.5 259 L 228 259.5 L 228 257 Q 225 258.3 226 254.5 L 227 252.5 L 226 249 L 219.5 249 L 218.5 248 Q 216.8 250.8 215 246.5 L 214 244.5 Q 216.8 243.8 216 239.5 L 215.5 238 L 217.5 238 L 220 238 L 220.5 236 L 224.5 236 L 226 234.5 L 226 229.5 Q 228.8 228.4 228 225 L 230.5 224 Z "/>
    <path fill="#66d9e8" d="M 264.5 196 Q 271 196 274 199.5 Q 276.8 202.2 276 208.5 L 271.5 214 L 263.5 215 L 258 210.5 L 257 205.5 L 259 199.5 L 261.5 197 L 264.5 196 Z M 263 200 Q 264 203 261 202 L 261 206 Q 264 207 263 203 L 266 202 L 263 200 Z "/>
    <path fill="#66d9e8" d="M 281.5 234 Q 288.8 232.8 290 237.5 L 291.5 241 L 295.5 242 L 301 246 L 304 253.5 L 304 259.5 Q 302.8 265.3 298.5 268 Q 292 272 279.5 270 Q 273 268.5 270 263.5 L 270 251.5 L 278 241.5 Q 277 235 281.5 234 Z M 272 256 L 271 262 L 272 262 L 272 256 Z "/>
    <path fill="#66d9e8" d="M 208.5 286 L 234.5 286 L 280.5 296 L 301.5 297 L 302.5 296 L 311.5 296 L 326.5 291 L 332 298.5 L 334 304.5 L 341 315.5 L 374 379.5 L 385 408.5 L 386 424.5 L 380.5 431 L 357.5 439 L 339.5 441 L 338.5 442 L 331.5 442 L 330.5 443 L 323.5 443 L 322.5 444 L 280.5 446 L 279.5 447 L 232.5 447 L 231.5 446 L 189.5 444 L 188.5 443 L 160.5 440 L 138.5 434 Q 131.8 431.8 128 426.5 Q 125.3 422.7 127 414.5 L 131 399.5 L 139 380.5 L 175 314.5 L 177 308.5 L 187.5 292 L 208.5 286 Z M 214 287 Q 212 290 206 288 L 189 293 L 181 305 L 172 324 L 162 340 L 159 348 L 156 351 L 140 382 L 130 408 L 129 420 L 128 421 L 129 426 L 138 432 L 159 438 L 195 442 L 196 443 L 223 444 L 224 445 L 288 445 L 289 444 L 326 442 L 327 441 L 343 440 L 364 436 L 381 429 L 384 426 L 385 422 L 383 407 L 375 386 L 356 347 L 345 329 L 342 321 L 327 293 L 308 298 L 285 298 L 238 288 L 214 287 Z "/>
    <path fill="#f783ac" d="M 216 237 L 220 237.5 L 216 239.5 Q 216.8 243.3 214.5 244 L 214 241.5 L 216 237 Z "/>
    <path fill="#f783ac" d="M 245.5 237 L 249 238.5 L 248.5 240 L 245.5 237 Z "/>
    <path fill="#f783ac" d="M 248.5 243 L 249 246.5 L 246.5 248 L 248 245.5 L 248.5 243 Z "/>
    <path fill="#f783ac" d="M 229.5 259 L 234 259.5 L 229.5 260 L 229.5 259 Z "/>
  </g>
  <g id="line">
    <path fill="#1a1a1a" d="M 244.5 37 L 279.5 37 L 288.5 39 L 296 44.5 Q 299.5 48.5 298 57.5 L 294 77 L 296.5 78 Q 304.8 76.7 309.5 79 L 318 85.5 L 320 89.5 L 321 98.5 Q 318.8 99.8 320 104.5 L 314.5 113 L 303 117.5 L 302 138.5 L 301 139.5 L 301 159.5 L 302 160.5 L 303 177.5 L 311 201.5 L 383 329.5 L 413 390.5 L 422 416.5 L 423 421.5 L 423 437.5 Q 420.4 449.4 411.5 455 Q 402.1 461.6 389.5 465 L 359.5 471 L 340.5 472 L 330.5 474 L 317.5 474 L 316.5 475 L 300.5 475 L 299.5 476 L 237.5 477 L 236.5 476 L 210.5 476 L 209.5 475 L 180.5 474 L 171.5 472 L 146.5 470 L 126.5 466 L 104.5 457 L 94 447.5 L 90 437.5 L 90 421.5 L 94 406.5 L 100 391.5 L 113 364.5 L 191 223.5 L 205 194.5 L 211 170.5 L 211 162.5 L 212 161.5 L 212 136.5 L 211 135.5 L 210 117.5 L 208.5 116 Q 199.9 115.6 196 110.5 L 193 104.5 L 192 94.5 L 195 85.5 L 199.5 81 L 206.5 78 L 217.5 78 L 219 76.5 L 215 59.5 L 215 48.5 L 220.5 42 L 228.5 39 L 243.5 38 L 244.5 37 Z M 249 46 L 248 47 L 231 48 L 227 49 L 224 52 Q 224 64 228 74 L 229 77 L 285 77 L 289 51 L 287 48 L 276 46 L 249 46 Z M 242 86 L 241 87 L 210 87 L 206 88 L 202 92 Q 200 100 203 104 L 209 107 L 219 107 L 220 108 L 293 108 L 294 107 Q 302 108 308 106 L 311 103 L 311 92 L 308 88 L 293 87 L 292 86 L 242 86 Z M 219 117 L 220 121 L 220 136 L 221 137 L 221 163 L 220 164 L 219 180 L 211 205 L 180 264 L 124 364 L 105 404 L 99 424 Q 97 436 102 443 L 115 452 L 126 456 L 139 458 L 144 460 L 173 463 L 174 464 L 184 464 L 185 465 L 216 466 L 217 467 L 246 467 L 247 468 L 313 466 L 314 465 L 326 465 L 327 464 L 338 464 L 339 463 L 364 461 L 388 456 L 406 448 Q 412 444 414 436 L 413 419 L 403 391 L 381 346 L 305 211 L 297 191 L 294 179 L 293 164 L 292 163 L 292 136 L 293 135 Q 292 123 294 117 L 277 117 L 276 118 L 235 118 L 234 117 L 219 117 Z "/>
    <path fill="#1a1a1a" d="M 262.5 194 Q 272.6 192.9 276 198.5 Q 279.2 201.8 278 209.5 L 273.5 215 Q 270.5 218 263.5 217 L 256 211.5 L 255 202.5 L 260.5 195 L 262.5 194 Z M 265 196 L 262 197 L 259 200 L 257 206 L 258 211 L 264 215 L 272 214 L 276 209 Q 277 202 274 200 Q 271 196 265 196 Z "/>
    <path fill="#1a1a1a" d="M 227.5 223 Q 237.8 220.8 240 226.5 Q 238.3 233.3 241.5 235 Q 248.8 233.8 251 237.5 L 251 247.5 L 248.5 250 L 240 251 Q 241.5 259.2 236.5 262 L 230.5 263 L 224 258.5 L 224 251 L 217.5 251 L 214 250 L 212 240.5 L 214.5 236 L 222.5 235 L 224 233.5 Q 223.1 226.7 225 224 L 227.5 223 Z M 231 224 L 229 225 Q 224 227 226 235 L 225 236 L 217 237 L 214 242 Q 213 248 218 249 L 226 249 L 226 258 Q 228 262 236 260 Q 240 258 238 251 L 240 249 L 248 248 L 250 245 L 249 239 Q 246 235 240 236 Q 236 234 238 228 Q 236 224 231 224 Z "/>
    <path fill="#1a1a1a" d="M 283.5 231 Q 289.1 230.9 291 234.5 L 293.5 239 Q 300 240.5 303 245.5 Q 307.2 250.3 306 260.5 Q 304.8 266.3 300.5 269 L 294.5 272 L 278.5 272 Q 271.3 270.2 268 264.5 L 267 255.5 Q 268.4 246.9 273.5 242 L 276 240.5 Q 275.2 234.7 278.5 233 L 283.5 231 Z M 282 234 Q 277 235 278 242 L 270 252 L 270 264 Q 273 268 280 270 Q 292 272 299 268 Q 303 265 304 260 L 304 254 L 301 246 L 296 242 L 292 241 L 290 238 Q 289 233 282 234 Z "/>
    <path fill="#1a1a1a" d="M 216.5 280 L 236.5 281 L 261.5 286 L 265.5 288 L 289.5 291 L 290.5 292 L 303.5 292 L 318.5 289 L 325.5 285 L 329.5 285 L 364 347.5 L 382 384.5 L 391 411.5 L 391 426.5 L 386.5 433 L 370.5 441 L 334.5 448 L 300.5 450 L 299.5 451 L 283.5 451 L 282.5 452 L 229.5 452 L 228.5 451 L 211.5 451 L 210.5 450 L 187.5 449 L 186.5 448 L 177.5 448 L 176.5 447 L 159.5 445 L 139.5 440 L 125 431.5 L 122 426.5 L 122 412.5 Q 126.8 392.8 135 376.5 L 178 297.5 L 180 291.5 L 183.5 288 L 201.5 282 L 215.5 281 L 216.5 280 Z M 209 286 L 188 292 L 177 309 L 175 315 L 139 381 L 131 400 L 127 415 Q 125 423 128 427 Q 132 432 139 434 L 161 440 L 189 443 L 190 444 L 232 446 L 233 447 L 280 447 L 281 446 L 323 444 L 324 443 L 331 443 L 332 442 L 339 442 L 340 441 L 358 439 L 381 431 L 386 425 L 385 409 L 374 380 L 341 316 L 334 305 L 332 299 L 327 291 L 312 296 L 303 296 L 302 297 L 281 296 L 235 286 L 209 286 Z "/>
  </g>
</svg>
