<svg xmlns="http://www.w3.org/2000/svg" width="512" height="512" viewBox="0 0 512 512">
  <g id="color">
    <path fill="#ffffff" d="M 325.5 51 L 330 51.5 L 325.5 52 L 325.5 51 Z "/>
    <path fill="#ffffff" d="M 318.5 52 L 323 52.5 L 315.5 54 L 315.5 53 L 318.5 52 Z "/>
    <path fill="#ffffff" d="M 332.5 52 Q 337.3 51.3 339 53.5 L 337.5 54 L 332.5 53 L 332.5 52 Z "/>
    <path fill="#ffffff" d="M 312.5 54 L 314 54.5 L 307.5 58 L 308.5 56 L 312.5 54 Z "/>
    <path fill="#ffffff" d="M 341.5 54 L 348 57.5 L 346.5 57 L 341.5 55 L 341.5 54 Z "/>
    <path fill="#ffffff" d="M 295.5 68 L 295 69.5 L 293.5 72 L 294 70.5 L 295.5 68 Z "/>
    <path fill="#ffffff" d="M 359.5 68 L 362 71.5 L 360 70.5 L 359.5 68 Z "/>
    <path fill="#ffffff" d="M 363.5 75 L 365 78.5 L 364 78.5 L 363.5 75 Z "/>
    <path fill="#ffffff" d="M 125.5 82 L 141 82.5 L 122.5 84 L 122.5 83 L 125.5 82 Z "/>
    <path fill="#ffffff" d="M 366.5 84 L 367 96.5 L 366 96.5 L 366.5 84 Z "/>
    <path fill="#ffffff" d="M 115.5 85 L 117 85.5 L 113.5 87 L 113.5 86 L 115.5 85 Z "/>
    <path fill="#ffffff" d="M 288.5 85 L 289 96.5 L 288 96.5 L 288.5 85 Z "/>
    <path fill="#ffffff" d="M 156.5 88 L 160 90.5 L 158.5 90 L 156.5 88 Z "/>
    <path fill="#ffffff" d="M 362.5 108 L 363 109.5 L 360.5 113 L 361 111.5 L 362.5 108 Z "/>
    <path fill="#ffffff" d="M 91.5 109 L 92 110.5 L 90.5 114 L 90 111.5 L 91.5 109 Z "/>
    <path fill="#ffffff" d="M 175.5 110 L 177 113.5 L 176 113.5 L 175.5 110 Z "/>
    <path fill="#ffffff" d="M 88.5 119 L 89 123.5 L 88 123.5 L 88.5 119 Z "/>
    <path fill="#ffffff" d="M 354.5 119 L 350.5 124 L 348.5 125 L 349.5 123 L 354.5 119 Z "/>
    <path fill="#ffffff" d="M 178.5 120 L 179 135.5 L 178 135.5 L 178.5 120 Z "/>
    <path fill="#ffffff" d="M 87.5 125 L 88 130.5 L 87 130.5 L 87.5 125 Z "/>
    <path fill="#ffffff" d="M 346.5 125 L 345.5 127 L 342.5 128 L 342.5 127 L 346.5 125 Z "/>
    <path fill="#ffffff" d="M 321.5 130 L 334 130.5 L 321.5 131 L 321.5 130 Z "/>
    <path fill="#ffffff" d="M 301.5 131 L 302 132.5 L 298.5 139 L 298 137.5 L 301.5 131 Z "/>
    <path fill="#ffffff" d="M 88.5 132 L 89 136.5 L 88 136.5 L 88.5 132 Z "/>
    <path fill="#ffffff" d="M 311.5 133 L 312 134.5 L 309.5 139 L 309 137.5 L 311.5 133 Z "/>
    <path fill="#ffffff" d="M 176.5 142 L 177 143.5 L 174.5 148 L 175 146.5 L 176.5 142 Z "/>
    <path fill="#ffffff" d="M 90.5 143 L 93 148.5 L 92 148.5 L 90.5 143 Z "/>
    <path fill="#ffffff" d="M 305.5 146 L 306 147.5 L 303.5 152 L 303 150.5 L 305.5 146 Z "/>
    <path fill="#ffffff" d="M 173.5 149 L 174 150.5 L 170 155.5 L 170 157.5 L 179.5 168 L 169 157.5 L 169 155.5 L 173.5 149 Z "/>
    <path fill="#ffffff" d="M 93.5 150 L 96 153.5 L 94 152.5 L 93.5 150 Z "/>
    <path fill="#ffffff" d="M 291.5 153 L 292 154.5 L 288.5 161 L 288 159.5 L 291.5 153 Z "/>
    <path fill="#ffffff" d="M 425.5 154 L 439 154.5 L 425.5 155 L 425.5 154 Z "/>
    <path fill="#ffffff" d="M 416.5 156 L 419 156.5 L 415.5 158 L 416.5 156 Z "/>
    <path fill="#ffffff" d="M 300.5 157 L 301 158.5 L 299.5 161 L 299 159.5 L 300.5 157 Z "/>
    <path fill="#ffffff" d="M 412.5 158 L 414 158.5 L 409.5 161 L 410.5 159 L 412.5 158 Z "/>
    <path fill="#ffffff" d="M 452.5 159 L 456 161.5 L 453.5 160 L 452.5 159 Z "/>
    <path fill="#ffffff" d="M 161.5 164 L 171 172.5 L 162.5 165 L 161.5 164 Z "/>
    <path fill="#ffffff" d="M 297.5 164 L 298 165.5 L 295.5 170 L 295 168.5 L 297.5 164 Z "/>
    <path fill="#ffffff" d="M 107.5 165 L 113 168.5 L 111.5 169 L 107.5 165 Z "/>
    <path fill="#ffffff" d="M 159.5 165 L 158.5 167 L 156.5 168 L 157.5 166 L 159.5 165 Z "/>
    <path fill="#ffffff" d="M 284.5 168 L 285 169.5 L 283.5 172 L 283 170.5 L 284.5 168 Z "/>
    <path fill="#ffffff" d="M 114.5 169 L 120 171.5 L 118.5 172 Q 114.5 171.5 114.5 169 Z "/>
    <path fill="#ffffff" d="M 151.5 169 L 153 169.5 L 146.5 172 L 146.5 171 L 151.5 169 Z "/>
    <path fill="#ffffff" d="M 465.5 169 L 470 175.5 L 468 174.5 L 465 170.5 L 465.5 169 Z "/>
    <path fill="#ffffff" d="M 126.5 173 L 140 173.5 L 126.5 174 L 126.5 173 Z "/>
    <path fill="#ffffff" d="M 394.5 175 L 394 176.5 L 390.5 185 L 390 182.5 L 394.5 175 Z "/>
    <path fill="#ffffff" d="M 280.5 177 L 281 178.5 L 278.5 183 L 278 181.5 L 280.5 177 Z "/>
    <path fill="#ffffff" d="M 290.5 179 L 291 180.5 L 289.5 183 L 289 181.5 L 290.5 179 Z "/>
    <path fill="#ffffff" d="M 471.5 179 L 474 184.5 L 473 184.5 L 471.5 179 Z "/>
    <path fill="#ffffff" d="M 276.5 186 L 277 187.5 L 275.5 190 L 275 188.5 L 276.5 186 Z "/>
    <path fill="#ffffff" d="M 287.5 186 L 288 187.5 L 285.5 192 L 285 190.5 L 287.5 186 Z "/>
    <path fill="#ffffff" d="M 474.5 187 Q 477.8 193.8 476 205.5 L 474.5 209 L 474 206.5 L 475 205.5 L 475 191.5 L 474.5 187 Z "/>
    <path fill="#ffffff" d="M 248.5 190 L 263 190.5 L 248.5 191 L 248.5 190 Z "/>
    <path fill="#ffffff" d="M 388.5 190 L 389 194.5 L 388 194.5 L 388.5 190 Z "/>
    <path fill="#ffffff" d="M 235.5 193 L 238 193.5 L 233.5 195 L 233.5 194 L 235.5 193 Z "/>
    <path fill="#ffffff" d="M 206.5 196 L 214.5 205 L 218.5 202 L 216.5 205 L 214.5 206 L 206 197.5 L 206.5 196 Z "/>
    <path fill="#ffffff" d="M 226.5 197 L 225.5 199 L 223.5 200 L 224.5 198 L 226.5 197 Z "/>
    <path fill="#ffffff" d="M 287.5 199 L 292 202.5 L 289.5 201 L 287.5 199 Z "/>
    <path fill="#ffffff" d="M 388.5 201 L 389 205.5 L 383.5 208 L 383.5 207 L 388 206 L 388.5 201 Z "/>
    <path fill="#ffffff" d="M 473.5 211 L 474 212.5 L 470.5 219 L 471 217.5 L 473.5 211 Z "/>
    <path fill="#ffffff" d="M 363.5 213 L 366 213.5 L 358.5 216 L 358.5 215 L 363.5 213 Z "/>
    <path fill="#ffffff" d="M 206.5 214 L 206 215.5 L 204.5 218 L 205 216.5 L 206.5 214 Z "/>
    <path fill="#ffffff" d="M 354.5 216 L 356 216.5 L 351.5 218 L 351.5 217 L 354.5 216 Z "/>
    <path fill="#ffffff" d="M 387.5 216 L 389 216.5 L 382.5 219 L 382.5 218 L 387.5 216 Z "/>
    <path fill="#ffffff" d="M 306.5 218 L 309 221.5 L 307 220.5 L 306.5 218 Z "/>
    <path fill="#ffffff" d="M 203.5 219 L 203 220.5 L 201.5 223 L 202 221.5 L 203.5 219 Z "/>
    <path fill="#ffffff" d="M 393.5 219 L 397 223.5 L 394 221.5 L 393.5 219 Z "/>
    <path fill="#ffffff" d="M 341.5 220 L 343 220.5 L 338.5 222 L 338.5 221 L 341.5 220 Z "/>
    <path fill="#ffffff" d="M 375.5 220 L 377 220.5 L 372.5 222 L 372.5 221 L 375.5 220 Z "/>
    <path fill="#ffffff" d="M 469.5 220 L 469 221.5 L 467.5 224 L 468 222.5 L 469.5 220 Z "/>
    <path fill="#ffffff" d="M 309.5 223 L 311 226.5 L 310 226.5 L 309.5 223 Z "/>
    <path fill="#ffffff" d="M 365.5 223 L 367 223.5 L 362.5 225 L 362.5 224 L 365.5 223 Z "/>
    <path fill="#ffffff" d="M 199.5 226 L 200 227.5 L 198.5 230 L 198 228.5 L 199.5 226 Z "/>
    <path fill="#ffffff" d="M 318.5 227 L 321 227.5 L 316.5 229 L 316.5 228 L 318.5 227 Z "/>
    <path fill="#ffffff" d="M 352.5 227 L 355 227.5 L 350.5 229 L 350.5 228 L 352.5 227 Z "/>
    <path fill="#ffffff" d="M 343.5 230 L 345 230.5 L 340.5 232 L 340.5 231 L 343.5 230 Z "/>
    <path fill="#ffffff" d="M 333.5 233 L 335 233.5 L 327.5 236 L 327.5 235 L 333.5 233 Z "/>
    <path fill="#ffffff" d="M 406.5 233 L 411 236.5 L 409.5 236 L 406.5 233 Z "/>
    <path fill="#ffffff" d="M 196.5 235 L 197 237.5 L 195.5 243 L 195 238.5 L 196.5 235 Z "/>
    <path fill="#ffffff" d="M 452.5 236 L 451.5 238 L 448.5 239 L 448.5 238 L 452.5 236 Z "/>
    <path fill="#ffffff" d="M 320.5 237 L 323 237.5 L 317.5 239 L 317.5 238 L 320.5 237 Z "/>
    <path fill="#ffffff" d="M 420.5 240 L 428 241.5 L 423.5 242 L 420.5 241 L 420.5 240 Z "/>
    <path fill="#ffffff" d="M 441.5 240 L 444 240.5 L 436.5 242 L 436.5 241 L 441.5 240 Z "/>
    <path fill="#ffffff" d="M 315.5 243 L 316 257.5 L 315 257.5 L 315.5 243 Z "/>
    <path fill="#ffffff" d="M 194.5 245 L 195 253.5 L 194 253.5 L 194.5 245 Z "/>
    <path fill="#ffffff" d="M 195.5 257 L 197 264.5 L 196 264.5 L 195.5 257 Z "/>
    <path fill="#ffffff" d="M 314.5 260 L 315 263.5 L 313.5 267 L 313 264.5 L 314.5 260 Z "/>
    <path fill="#ffffff" d="M 311.5 272 L 312 273.5 L 309.5 277 L 310 275.5 L 311.5 272 Z "/>
    <path fill="#ffffff" d="M 191.5 274 L 193 274.5 L 187.5 277 L 187.5 276 L 191.5 274 Z "/>
    <path fill="#ffffff" d="M 182.5 278 L 184 278.5 L 180.5 280 L 180.5 279 L 182.5 278 Z "/>
    <path fill="#ffffff" d="M 200.5 281 L 202 281.5 L 198.5 283 L 198.5 282 L 200.5 281 Z "/>
    <path fill="#ffffff" d="M 76.5 282 L 89 282.5 L 76.5 283 L 76.5 282 Z "/>
    <path fill="#ffffff" d="M 67.5 284 L 69 284.5 L 65.5 286 L 65.5 285 L 67.5 284 Z "/>
    <path fill="#ffffff" d="M 95.5 284 L 100 285.5 L 98.5 286 L 95.5 285 L 95.5 284 Z "/>
    <path fill="#ffffff" d="M 169.5 284 L 171 284.5 L 167.5 286 L 167.5 285 L 169.5 284 Z "/>
    <path fill="#ffffff" d="M 316.5 286 L 321 289.5 L 318.5 288 L 316.5 286 Z "/>
    <path fill="#ffffff" d="M 162.5 287 L 164 287.5 L 158.5 290 L 158.5 289 L 162.5 287 Z "/>
    <path fill="#ffffff" d="M 59.5 288 L 58.5 290 Q 50.7 293.2 46.5 300 L 54.5 291 L 59.5 288 Z "/>
    <path fill="#ffffff" d="M 300 289 L 303.5 289 L 309 293.5 L 306.5 292 L 301.5 290 L 295 295.5 L 300 289 Z "/>
    <path fill="#ffffff" d="M 180.5 290 L 182 290.5 L 176.5 293 L 176.5 292 L 180.5 290 Z "/>
    <path fill="#ffffff" d="M 149.5 293 L 151 293.5 L 145.5 296 L 145.5 295 L 149.5 293 Z "/>
    <path fill="#ffffff" d="M 326.5 293 L 331 296.5 L 328.5 295 L 326.5 293 Z "/>
    <path fill="#ffffff" d="M 171.5 294 L 173 294.5 L 167.5 297 L 167.5 296 L 171.5 294 Z "/>
    <path fill="#ffffff" d="M 313.5 296 L 318 299.5 L 316.5 299 L 313.5 296 Z "/>
    <path fill="#ffffff" d="M 140.5 297 L 142 297.5 L 138.5 299 L 138.5 298 L 140.5 297 Z "/>
    <path fill="#ffffff" d="M 335.5 299 L 341 303.5 L 338.5 302 L 335.5 299 Z "/>
    <path fill="#ffffff" d="M 133.5 300 L 135 300.5 L 127.5 304 L 127.5 303 L 133.5 300 Z "/>
    <path fill="#ffffff" d="M 222.5 300 L 227 303.5 L 225.5 303 L 222.5 300 Z "/>
    <path fill="#ffffff" d="M 288.5 300 L 287.5 302 L 285.5 303 L 286.5 301 L 288.5 300 Z "/>
    <path fill="#ffffff" d="M 155.5 301 L 157 301.5 L 151.5 304 L 151.5 303 L 155.5 301 Z "/>
    <path fill="#ffffff" d="M 120.5 302 L 122 305 L 125.5 304 L 124.5 306 L 121 304.5 L 120.5 302 Z "/>
    <path fill="#ffffff" d="M 323.5 303 L 328 306.5 L 326.5 306 L 323.5 303 Z "/>
    <path fill="#ffffff" d="M 228.5 304 L 232 305.5 L 230.5 306 L 228.5 304 Z "/>
    <path fill="#ffffff" d="M 278.5 305 L 280 305.5 L 276.5 307 L 276.5 306 L 278.5 305 Z "/>
    <path fill="#ffffff" d="M 41.5 307 L 42 308.5 L 39.5 313 L 39 311.5 L 41.5 307 Z "/>
    <path fill="#ffffff" d="M 272.5 307 L 274 307.5 L 269.5 309 L 269.5 308 L 272.5 307 Z "/>
    <path fill="#ffffff" d="M 411.5 307 L 416 308.5 L 414.5 309 L 411.5 308 L 411.5 307 Z "/>
    <path fill="#ffffff" d="M 140.5 308 L 142 308.5 L 138.5 310 L 138.5 309 L 140.5 308 Z "/>
    <path fill="#ffffff" d="M 239.5 308 L 240 312.5 L 239 312.5 L 239.5 308 Z "/>
    <path fill="#ffffff" d="M 249 310 L 261 310.5 L 250 311 L 249.5 313 L 249 310 Z "/>
    <path fill="#ffffff" d="M 379.5 310 L 381 310.5 L 376.5 313 L 377.5 311 L 379.5 310 Z "/>
    <path fill="#ffffff" d="M 419.5 310 L 424 312.5 L 422.5 312 Q 418.8 311.7 419.5 310 Z "/>
    <path fill="#ffffff" d="M 133.5 311 L 135 311.5 L 131.5 313 L 131.5 312 L 133.5 311 Z "/>
    <path fill="#ffffff" d="M 355.5 313 L 361 317.5 L 358.5 316 L 355.5 313 Z "/>
    <path fill="#ffffff" d="M 369.5 317 L 366.5 321 Q 362.5 321.5 362 318.5 L 364.5 320 Q 369 320.5 369.5 317 Z "/>
    <path fill="#ffffff" d="M 37.5 318 L 38 322.5 L 37 322.5 L 37.5 318 Z "/>
    <path fill="#ffffff" d="M 346.5 319 L 352 323.5 L 349.5 322 L 346.5 319 Z "/>
    <path fill="#ffffff" d="M 128.5 322 L 129 333.5 L 128 333.5 L 128.5 322 Z "/>
    <path fill="#ffffff" d="M 36.5 324 L 37 332.5 L 36 332.5 L 36.5 324 Z "/>
    <path fill="#ffffff" d="M 353.5 324 L 358 327.5 L 355.5 326 L 353.5 324 Z "/>
    <path fill="#ffffff" d="M 437.5 326 L 440 329.5 L 438 328.5 L 437.5 326 Z "/>
    <path fill="#ffffff" d="M 440.5 331 L 442 334.5 L 441 334.5 L 440.5 331 Z "/>
    <path fill="#ffffff" d="M 37.5 334 L 39 341.5 L 38 341.5 L 37.5 334 Z "/>
    <path fill="#ffffff" d="M 358.5 334 L 359 335.5 L 357.5 339 L 357 336.5 L 358.5 334 Z "/>
    <path fill="#ffffff" d="M 125.5 343 L 126 345.5 L 121.5 353 L 122 351.5 L 125.5 343 Z "/>
    <path fill="#ffffff" d="M 233.5 343 L 234 347.5 L 232.5 353 L 232 348.5 L 233.5 343 Z "/>
    <path fill="#ffffff" d="M 243.5 343 L 244 347.5 L 242.5 352 L 242 348.5 L 243.5 343 Z "/>
    <path fill="#ffffff" d="M 444.5 346 L 445 355.5 L 444 355.5 L 444.5 346 Z "/>
    <path fill="#ffffff" d="M 355.5 347 L 356 354.5 L 355 354.5 L 355.5 347 Z "/>
    <path fill="#ffffff" d="M 45.5 355 L 52 362.5 L 48 359.5 L 45.5 355 Z "/>
    <path fill="#ffffff" d="M 356.5 358 L 358 363.5 L 357 363.5 L 356.5 358 Z "/>
    <path fill="#ffffff" d="M 442.5 363 L 443 364.5 L 441.5 367 L 441 365.5 L 442.5 363 Z "/>
    <path fill="#ffffff" d="M 54.5 364 L 59 367.5 L 57.5 367 L 54.5 364 Z "/>
    <path fill="#ffffff" d="M 229.5 364 L 230 368.5 L 229 368.5 L 229.5 364 Z "/>
    <path fill="#ffffff" d="M 239.5 365 L 240 369.5 L 239 369.5 L 239.5 365 Z "/>
    <path fill="#ffffff" d="M 104.5 368 L 103.5 370 L 100.5 371 L 100.5 370 L 104.5 368 Z "/>
    <path fill="#ffffff" d="M 359.5 368 L 362 372.5 L 360 371.5 L 359.5 368 Z "/>
    <path fill="#ffffff" d="M 439.5 371 L 439 372.5 L 437.5 375 L 438 373.5 L 439.5 371 Z "/>
    <path fill="#ffffff" d="M 69.5 372 L 76 373.5 L 72.5 374 L 69.5 373 L 69.5 372 Z "/>
    <path fill="#ffffff" d="M 93.5 372 L 96 372.5 L 89.5 374 L 89.5 373 L 93.5 372 Z "/>
    <path fill="#ffffff" d="M 80.5 374 L 85 374.5 L 80.5 375 L 80.5 374 Z "/>
    <path fill="#ffffff" d="M 362.5 374 L 374 386.5 L 363 376.5 L 362.5 374 Z "/>
    <path fill="#ffffff" d="M 227.5 376 L 226.5 378 L 219 377.5 L 227.5 376 Z "/>
    <path fill="#ffffff" d="M 237.5 377 L 238 379 L 240 379.5 L 238.5 380 L 237.5 377 Z "/>
    <path fill="#ffffff" d="M 206.5 381 L 205.5 383 L 203.5 384 L 204.5 382 L 206.5 381 Z "/>
    <path fill="#ffffff" d="M 243.5 381 L 248 383.5 L 246.5 383 Q 242.7 382.8 243.5 381 Z "/>
    <path fill="#ffffff" d="M 196.5 388 L 193 392.5 L 190.5 396 L 192 393.5 L 196.5 388 Z "/>
    <path fill="#ffffff" d="M 376.5 388 L 381 390.5 L 379.5 391 L 376.5 388 Z "/>
    <path fill="#ffffff" d="M 384.5 392 L 389 393.5 L 386.5 394 L 384.5 392 Z "/>
    <path fill="#ffffff" d="M 414.5 392 L 416 392.5 L 411.5 394 L 411.5 393 L 414.5 392 Z "/>
    <path fill="#ffffff" d="M 189.5 397 L 189 398.5 L 187.5 402 L 187 400.5 L 189.5 397 Z "/>
    <path fill="#ffffff" d="M 186.5 403 L 187 404.5 L 185.5 407 L 185 405.5 L 186.5 403 Z "/>
    <path fill="#ffffff" d="M 266.5 407 L 268 413.5 L 267 413.5 L 266.5 407 Z "/>
    <path fill="#ffffff" d="M 183.5 413 L 184 425.5 L 183 425.5 L 183.5 413 Z "/>
    <path fill="#ffffff" d="M 185.5 432 L 187 435.5 L 186 435.5 L 185.5 432 Z "/>
    <path fill="#ffffff" d="M 263.5 438 L 263 439.5 L 261.5 442 L 262 440.5 L 263.5 438 Z "/>
    <path fill="#ffffff" d="M 199.5 452 L 204 455.5 L 202.5 455 L 199.5 452 Z "/>
    <path fill="#ffffff" d="M 247.5 455 L 246.5 457 L 244.5 458 L 245.5 456 L 247.5 455 Z "/>
    <path fill="#ffffff" d="M 218.5 461 L 233 461.5 L 218.5 462 L 218.5 461 Z "/>
    <path fill="#4da3ff" d="M 322.5 63 L 333.5 63 L 347 70 L 348.5 73 Q 350.8 72.3 350 74.5 L 354 80.5 L 356 95.5 Q 353.3 106.8 345.5 113 Q 338.8 121.3 321.5 119 Q 310.4 116.6 305 108.5 L 301 101.5 L 299 88.5 L 302 77.5 L 310.5 68 L 322.5 63 Z M 327 75 L 320 78 L 313 87 Q 312 95 314 100 L 322 107 L 325 108 Q 335 110 340 105 L 345 98 Q 347 86 342 82 Q 338 74 327 75 Z "/>
    <path fill="#4da3ff" d="M 129.5 93 L 142.5 94 Q 154.1 97.9 161 106.5 L 166 115.5 L 168 122.5 L 168 133.5 Q 164.8 147.3 155.5 155 L 144.5 161 L 131.5 163 L 119.5 160 Q 111.1 156.4 106 149.5 L 100 138.5 Q 97.7 131.8 99 121.5 Q 102.3 107.2 112.5 100 Q 119.1 94.6 129.5 93 Z M 132 111 L 121 116 L 117 124 Q 116 134 120 139 L 130 145 L 136 145 L 142 143 Q 148 139 150 130 Q 150 122 146 118 Q 143 111 134 111 L 132 111 Z "/>
    <path fill="#4da3ff" d="M 427.5 165 L 435.5 165 L 442.5 167 Q 452.4 170.1 458 177.5 L 464 189.5 L 465 200.5 Q 462.5 202 464 207.5 L 460 215.5 L 449.5 226 L 436.5 231 L 427.5 231 L 415.5 227 L 405 217.5 Q 398.7 208.8 399 193.5 Q 400.9 184 405 178 Q 407.7 179.1 407 176.5 L 412 172.5 Q 411.3 170.3 413.5 171 L 427.5 165 Z M 426 176 L 420 179 Q 412 184 410 194 Q 408 206 414 212 Q 418 218 428 220 L 439 219 L 449 214 L 450 208 L 438 201 Q 429 196 431 180 Q 430 175 426 176 Z "/>
    <path fill="#4da3ff" d="M 255.5 201 L 271.5 204 L 280 208.5 L 282 213 L 284 213.5 L 284 220 Q 287.8 218.5 287 221.5 L 288 221.5 L 289.5 218 L 290 219.5 L 289 221.5 L 290 224.5 L 285 229.5 L 284 234.5 Q 286.3 235.8 285 240.5 L 284.5 242 L 290.5 241 L 293 242 L 292 237 Q 295.8 238 297 235.5 Q 295.9 231.3 300 233 L 301 239 L 299 239.5 L 301 240.5 Q 299.3 244.7 297.5 242 L 292.5 244 L 291 243.5 L 290 249 L 287.5 248 L 284 249 L 282 252.5 L 284 253 L 282.5 257 L 280.5 256 L 280.5 258 Q 277.9 257.2 279 260.5 L 281.5 262 L 284 258 Q 286.7 256.9 286 259.5 Q 288.5 261 285 262.5 Q 283.1 268.8 288 267 L 288 262 L 290 262 Q 289 269.3 291.5 274 L 293.5 263 L 295.5 267 L 296 265 L 299.5 263 L 299 264.5 L 299 267 Q 296.3 265.9 297 268.5 L 296 271.5 Q 296.8 274.1 293.5 273 L 292 275.5 Q 294.3 276.8 291.5 278 L 287 276 L 287 273 L 285 273 Q 286.1 270.3 283.5 271 L 278 274.5 L 280 281 Q 283.7 279.6 282 285.5 L 282 287.5 L 281 291 L 274 292 L 272 286.5 L 279 284 L 279 279 Q 276.3 280.1 277 277.5 L 274.5 273 L 274 284 L 268 283 L 267.5 280 L 265 281 L 263.5 284 L 259.5 284 L 259 286 L 256.5 286 L 254 287 L 255 284.5 L 251.5 284 L 248 286.5 L 249 284 Q 252 285 251 282 L 238.5 283 L 234 286 Q 235.1 288.7 232.5 288 Q 231.4 290.8 228 290 L 226.5 287 L 224 285.5 Q 222.3 280.3 227.5 282 L 227 280.5 L 226.5 279 Q 225.8 281.8 221.5 281 L 220 278 Q 213.4 276.9 210 271.5 L 206 258.5 L 206 242.5 Q 209.5 224 221.5 214 L 224.5 212 L 229.5 208 L 241.5 203 Q 246.3 200.8 254.5 202 L 255.5 201 Z M 278 262 L 276 264 L 277 268 Q 276 270 279 269 L 278 262 Z "/>
    <path fill="#4da3ff" d="M 296 244 L 298 244.5 L 295.5 250 L 293 249.5 L 296 249 L 296 244 Z "/>
    <path fill="#4da3ff" d="M 288.5 250 Q 293.1 248.8 291 254 L 287 251.5 L 288.5 250 Z "/>
    <path fill="#4da3ff" d="M 261.5 287 L 264 293 Q 260.3 291.8 262 297 L 257.5 297 L 257.5 296 Q 262.3 297.7 261 293.5 L 258 292 Q 256.9 289.3 259.5 290 L 261.5 287 Z "/>
    <path fill="#4da3ff" d="M 255.5 288 L 256 290 L 252.5 291 L 253.5 289 L 255.5 288 Z "/>
    <path fill="#4da3ff" d="M 79.5 293 L 85.5 293 L 96.5 296 Q 105.5 300 111 307.5 L 117 321.5 L 117 335.5 Q 113.6 348.6 104.5 356 L 93.5 362 L 76.5 363 Q 62.5 360 55 350.5 Q 46.5 341 48 321.5 Q 51.9 306.9 62.5 299 L 79.5 293 Z M 85 305 L 82 308 L 84 318 L 84 323 L 81 331 L 68 342 L 69 344 L 71 343 L 70 345 L 78 349 L 90 349 L 100 344 L 106 334 L 106 323 L 100 312 L 90 305 L 85 305 Z "/>
    <path fill="#4da3ff" d="M 242.5 293 L 249 294 L 248.5 296 L 241 296 L 242.5 293 Z "/>
    <path fill="#4da3ff" d="M 394.5 317 Q 415.5 316.5 425 327.5 L 433 342.5 L 433 344.5 L 434 350.5 L 430 366.5 L 418.5 379 Q 409.7 385.2 393.5 384 L 387.5 382 L 375 374 L 367 357.5 L 367 343.5 Q 369.9 332.9 376.5 326 L 394.5 317 Z M 394 328 L 389 331 L 381 340 L 378 350 L 381 362 Q 386 369 396 372 Q 409 373 416 367 Q 419 365 419 361 L 417 358 L 407 354 Q 398 348 400 331 Q 399 327 394 328 Z "/>
    <path fill="#4da3ff" d="M 225.5 388 L 239.5 391 L 252 401.5 L 256 409.5 L 257 423.5 L 253 435.5 L 244.5 445 L 233.5 450 L 217.5 450 Q 208.6 447.4 203 441.5 Q 193.5 433.5 194 415.5 Q 197 402.5 205.5 395 L 211.5 391 L 225.5 388 Z M 223 404 L 216 407 L 209 417 Q 208 427 213 432 L 224 437 Q 232 437 237 433 L 240 429 L 242 422 L 241 415 L 238 410 Q 234 403 223 404 Z "/>
    <path fill="#ffd43b" d="M 439.5 209 L 441 212 L 438.5 213 L 439.5 209 Z "/>
    <path fill="#ffd43b" d="M 391.5 336 Q 396.1 334.6 394 340.5 L 393 340.5 Q 394.5 336.1 391.5 337 L 387 340.5 L 391.5 336 Z "/>
    <path fill="#ffd43b" d="M 384.5 347 L 385 353.5 L 384 353.5 L 384.5 347 Z "/>
    <path fill="#ffd43b" d="M 386.5 358 L 389.5 362 L 392 363.5 L 390.5 363 L 387 360.5 L 386.5 358 Z "/>
    <path fill="#ff6b6b" d="M 325.5 83 Q 334.5 81.5 337 86.5 L 338 94.5 L 334.5 100 L 327.5 101 L 321 96.5 L 320 88.5 L 323.5 84 L 325.5 83 Z "/>
    <path fill="#ff6b6b" d="M 130.5 119 L 136.5 119 L 142 124.5 L 143 129.5 L 141 134 Q 138.3 132.9 139 135.5 Q 137 138.5 131.5 138 L 126 134.5 Q 122.8 132.2 124 125.5 L 128.5 120 L 130.5 119 Z "/>
    <path fill="#ff6b6b" d="M 219.5 411 Q 229.6 409.4 233 414.5 L 236 420.5 L 232 426.5 L 232.5 428 Q 231 425.5 229.5 429 Q 219 431 217 424.5 Q 214.7 421.3 216 414.5 L 218 414.5 L 219.5 411 Z "/>
    <path fill="#ffa94d" d="M 421.5 185 L 425 185 L 425 192.5 Q 427.1 202.4 434.5 207 L 440 210.5 Q 438.4 214.9 431.5 214 L 425.5 212 L 424.5 213 L 420.5 209 L 417.5 207 Q 419.1 205.3 416 203.5 L 415 198.5 L 417 190.5 L 421.5 185 Z "/>
    <path fill="#ffa94d" d="M 91.5 312 L 92 314 L 94 314 Q 92.9 316.7 95.5 316 L 99 319.5 L 99 321.5 L 101 327.5 L 99 332.5 Q 101.5 334 98 335.5 L 97 339 L 86.5 344 L 83.5 343 L 81.5 343 L 78 342.5 L 79 340 L 83 339 L 90 325.5 L 90 316.5 L 89.5 313 L 91.5 312 Z "/>
    <path fill="#ffa94d" d="M 391.5 337 Q 394.5 336.1 393 340.5 L 394 343.5 L 395 345.5 L 394 347.5 L 401.5 358 L 409 362 Q 410.1 364.7 407.5 364 L 401.5 366 L 399.5 366 L 396.5 365 Q 395 367.5 393.5 364 L 388 360.5 Q 383.1 356.4 385 345.5 L 391.5 337 Z "/>
    <path fill="#66d9e8" d="M 324.5 61 L 330.5 61 L 338.5 63 L 352 73.5 Q 358.9 81.6 357 98.5 Q 353.3 109.8 344.5 116 L 333.5 121 L 322.5 121 L 313.5 118 L 306 113 L 299 100.5 L 298 84.5 Q 300.9 72.9 309.5 67 L 318.5 62 Q 323.2 63.3 324.5 61 Z M 323 63 L 311 68 L 302 78 L 299 89 L 301 102 L 305 109 Q 310 117 322 119 Q 339 121 346 113 Q 353 107 356 96 L 354 81 L 350 75 Q 351 72 349 73 L 347 70 L 334 63 L 323 63 Z "/>
    <path fill="#66d9e8" d="M 326.5 75 Q 338.2 74.3 342 81.5 Q 346.7 86.3 345 97.5 L 339.5 105 Q 335.4 109.9 324.5 108 L 321.5 107 L 314 99.5 Q 311.8 94.7 313 86.5 L 319.5 78 L 326.5 75 Z M 326 77 L 320 80 Q 315 83 314 90 L 316 100 L 322 105 L 330 107 L 339 104 Q 343 101 344 95 L 344 90 L 341 83 Q 337 76 326 77 Z "/>
    <path fill="#66d9e8" d="M 125.5 92 L 141.5 92 L 144.5 93 Q 156.1 97.4 163 106.5 L 169 119.5 L 169 137.5 Q 164.7 149.7 155.5 157 L 141.5 164 L 125.5 164 Q 114.2 160.8 107 153.5 L 98 137.5 L 97 123.5 Q 100.4 106.4 112.5 98 L 125.5 92 Z M 130 93 Q 119 95 113 100 Q 102 107 99 122 Q 98 132 100 139 L 106 150 Q 111 156 120 160 L 132 163 L 145 161 L 156 155 Q 165 147 168 134 L 168 123 L 166 116 L 161 107 Q 154 98 143 94 L 130 93 Z "/>
    <path fill="#66d9e8" d="M 131.5 111 L 133.5 111 Q 142.6 111.4 146 117.5 Q 150 121.5 150 129.5 Q 148.3 138.8 141.5 143 L 135.5 145 L 129.5 145 L 120 138.5 Q 115.5 134 117 123.5 L 121 116 L 131.5 111 Z M 130 113 L 127 114 Q 120 118 118 127 Q 118 135 122 139 L 130 143 Q 139 145 143 140 L 148 132 Q 149 122 145 119 L 140 114 L 130 113 Z "/>
    <path fill="#66d9e8" d="M 424.5 164 Q 449.5 162.5 459 176.5 L 466 190.5 L 466 205.5 Q 462.5 219 452.5 226 L 440.5 232 L 424.5 232 Q 411 228.5 404 218.5 L 398 205.5 L 398 189.5 Q 402 177 411.5 170 L 424.5 164 Z M 428 165 L 414 171 Q 411 170 412 173 L 407 177 Q 408 179 405 178 Q 401 184 399 194 Q 399 209 405 218 L 416 227 L 428 231 L 437 231 L 450 226 L 460 216 L 464 208 Q 463 202 465 201 L 464 190 L 458 178 Q 452 170 443 167 L 436 165 L 428 165 Z "/>
    <path fill="#66d9e8" d="M 425.5 176 Q 430.5 175.5 431 179.5 Q 428.6 195.9 437.5 201 L 450 207.5 L 449 214 L 438.5 219 L 427.5 220 Q 418.3 218.3 414 211.5 Q 408.3 206.2 410 193.5 Q 412.4 183.9 419.5 179 L 425.5 176 Z M 425 178 L 421 180 Q 413 185 411 197 Q 411 207 416 212 Q 420 216 427 218 L 436 218 L 446 214 Q 450 213 449 208 L 447 208 L 436 202 Q 427 196 429 180 Q 428 177 425 178 Z "/>
    <path fill="#66d9e8" d="M 246.5 200 L 263.5 200 L 276.5 204 Q 288.3 209.7 296 219.5 L 305 237.5 L 306 258.5 Q 302.2 277.7 289.5 288 L 281.5 294 L 270.5 299 L 260.5 301 L 252.5 301 L 251.5 300 L 243.5 300 L 232.5 296 Q 221.6 290.9 215 281.5 Q 207.9 273.6 205 261.5 L 204 244.5 L 206 235.5 L 212 222.5 L 222.5 211 Q 232.2 203.2 246.5 200 Z M 256 201 L 255 202 Q 246 201 242 203 L 230 208 L 225 212 L 222 214 Q 210 224 206 243 L 206 259 L 210 272 Q 213 277 220 278 L 222 281 Q 226 282 227 279 L 227 281 L 228 282 Q 222 280 224 286 L 227 287 L 228 290 Q 231 291 233 288 Q 235 289 234 286 L 239 283 Q 245 285 247 282 Q 252 280 251 284 L 255 285 L 254 287 L 257 286 L 259 286 L 260 284 L 264 284 L 265 281 L 268 280 L 268 283 L 274 284 L 275 273 L 277 278 Q 276 280 279 279 L 278 275 L 284 271 Q 286 270 285 273 L 287 273 L 287 276 L 291 278 L 293 277 Q 289 271 290 262 L 288 262 L 288 267 Q 283 269 285 263 Q 288 261 286 260 Q 287 257 284 258 L 282 262 L 279 261 Q 278 257 281 258 L 281 256 L 283 257 L 284 253 L 282 253 L 284 249 L 288 248 L 290 249 L 291 244 L 293 244 L 298 242 Q 299 245 301 241 L 299 240 L 301 239 L 300 233 Q 296 231 297 236 Q 296 238 292 237 L 293 242 L 291 241 L 285 242 L 285 241 Q 286 236 284 235 L 285 230 L 290 225 L 289 220 L 288 222 L 287 222 Q 288 219 284 220 L 284 214 L 282 213 L 280 209 L 272 204 L 256 201 Z M 296 244 L 297 249 L 298 245 L 296 244 Z M 289 250 L 287 252 L 291 254 Q 293 249 289 250 Z M 294 263 Q 291 267 292 274 L 294 273 Q 297 274 296 272 L 297 269 Q 296 266 299 267 L 299 264 L 296 265 L 296 267 L 294 263 Z M 280 279 L 279 284 L 272 287 L 274 292 L 281 291 L 282 288 L 282 286 Q 284 280 280 281 L 280 279 Z M 262 287 L 260 290 Q 257 289 258 292 L 261 293 L 262 290 L 262 287 Z M 256 288 L 254 289 L 253 291 L 256 290 L 256 288 Z M 243 293 L 241 296 L 249 296 L 249 294 L 243 293 Z M 262 293 L 261 296 L 257 297 L 262 297 L 262 293 Z "/>
    <path fill="#66d9e8" d="M 277.5 262 L 279 269 Q 276.3 270.1 277 267.5 L 276 263.5 L 277.5 262 Z "/>
    <path fill="#66d9e8" d="M 263.5 270 Q 266.8 268.9 266 271.5 L 264.5 271 L 262.5 272 L 263.5 270 Z "/>
    <path fill="#66d9e8" d="M 83.5 291 L 96.5 294 Q 106.8 298.7 113 307.5 Q 117.5 313.5 119 322.5 L 119 335.5 L 112 350.5 L 104.5 358 Q 95.9 365.9 78.5 365 Q 77.3 362.7 72.5 364 L 63.5 360 L 54 351.5 Q 45.2 342.3 46 323.5 L 49 313.5 L 57 301 L 71.5 293 L 82.5 292 L 83.5 291 Z M 80 293 L 63 299 Q 52 307 48 322 Q 47 341 55 351 Q 63 360 77 363 L 94 362 L 105 356 Q 114 349 117 336 L 117 322 L 111 308 Q 106 300 97 296 L 86 293 L 80 293 Z "/>
    <path fill="#66d9e8" d="M 84.5 305 L 89.5 305 L 100 311.5 L 106 322.5 L 106 333.5 L 100 344 L 89.5 349 L 77.5 349 L 72.5 347 L 69 343.5 L 68 341.5 L 81 330.5 L 84 322.5 L 84 317.5 L 82 307.5 L 84.5 305 Z M 84 307 L 85 314 L 85 326 L 79 336 L 72 340 L 70 344 L 83 348 Q 92 348 97 344 Q 103 340 105 331 Q 105 321 101 316 Q 97 307 84 307 Z "/>
    <path fill="#66d9e8" d="M 395.5 315 L 403.5 315 L 411.5 317 Q 421.8 320.7 428 328.5 L 433 337.5 L 435 344.5 L 435 356.5 L 430 369.5 L 418.5 381 Q 410 386.5 395.5 386 Q 380.7 383.3 373 373.5 L 367 363.5 L 365 355.5 L 365 345.5 Q 367.5 331.5 376.5 324 Q 383.6 317.1 395.5 315 Z M 395 317 L 377 326 Q 370 333 367 344 L 367 358 L 375 374 L 388 382 L 394 384 Q 410 385 419 379 L 430 367 L 434 351 L 433 345 L 433 343 L 425 328 Q 416 316 395 317 Z "/>
    <path fill="#66d9e8" d="M 393.5 328 Q 399 327 400 330.5 Q 397.5 348 406.5 354 L 416.5 358 L 419 360.5 Q 418.8 365.3 415.5 367 Q 408.7 372.7 395.5 372 Q 385.8 369.3 381 361.5 L 378 349.5 L 381 339.5 L 388.5 331 L 393.5 328 Z M 394 330 L 389 333 Q 382 337 380 347 Q 379 358 384 363 L 395 370 L 405 370 L 416 365 Q 418 364 417 360 L 407 356 L 401 351 L 398 342 L 399 332 Q 398 329 394 330 Z "/>
    <path fill="#66d9e8" d="M 219.5 387 Q 229.8 385.7 236.5 388 Q 246.6 392.4 253 400.5 L 258 410.5 L 259 422.5 L 256 433.5 L 244.5 447 L 232.5 452 L 218.5 452 Q 206.2 449.3 200 440.5 Q 190.9 432.1 193 412.5 Q 196.4 399.9 205.5 393 L 219.5 387 Z M 226 388 L 212 391 L 206 395 Q 197 402 194 416 Q 194 434 203 442 Q 209 447 218 450 L 234 450 L 245 445 L 253 436 L 257 424 L 256 410 L 252 402 L 240 391 L 226 388 Z "/>
    <path fill="#66d9e8" d="M 222.5 404 Q 234 403 238 409.5 L 241 414.5 L 242 421.5 L 240 428.5 L 237 433 Q 232.3 436.6 223.5 437 L 213 431.5 Q 207.8 427.2 209 416.5 L 215.5 407 L 222.5 404 Z M 222 406 L 214 410 L 211 416 Q 210 425 213 429 Q 216 433 223 435 L 229 435 L 235 432 Q 239 429 240 423 Q 240 414 236 410 Q 232 405 222 406 Z "/>
    <path fill="#f783ac" d="M 325.5 81 Q 336.1 80 339 86.5 L 340 94.5 L 335.5 101 Q 332.8 103.8 326.5 103 L 319 97.5 L 318 89.5 L 323.5 82 L 325.5 81 Z M 326 83 L 324 84 L 320 89 L 321 97 L 328 101 L 335 100 L 338 95 L 337 87 Q 335 81 326 83 Z "/>
    <path fill="#f783ac" d="M 130.5 117 Q 140.3 116.3 143 122.5 L 144 131.5 L 141 137 Q 137.8 140 129.5 139 L 124 134.5 L 122 126.5 L 126.5 119 L 130.5 117 Z M 131 119 L 129 120 L 124 126 Q 123 132 126 135 L 132 138 Q 137 139 139 136 Q 138 133 141 134 L 143 130 L 142 125 L 137 119 L 131 119 Z "/>
    <path fill="#f783ac" d="M 224.5 409 L 234 413.5 L 237 420.5 L 233.5 427 Q 231.3 426.3 232 428.5 Q 229.5 432.5 221.5 431 L 217 428 L 215 424.5 L 215 416.5 L 216 416.5 Q 214.6 426.9 221.5 429 Q 232 431 234 424.5 L 236 420.5 L 231.5 413 Q 228 410 221 410.5 L 224.5 409 Z "/>
  </g>
  <g id="line">
    <path fill="#1a1a1a" d="M 323.5 52 L 331.5 52 L 340.5 54 Q 352.1 58.4 359 67.5 L 366 82.5 L 366 99.5 Q 362.5 111.5 356 119 L 347.5 125 L 338.5 129 Q 331.4 131.4 320.5 130 L 314.5 128 L 303 150.5 L 285 192.5 L 283 194.5 L 283 198 Q 295.4 202.8 303 213.5 L 312.5 230 L 340.5 222 L 346.5 219 L 353.5 218 L 378.5 209 L 385.5 208 L 389 205.5 L 388 195.5 Q 390.5 194 389 188.5 L 395 174.5 L 405.5 163 L 422.5 155 L 440.5 155 Q 456.2 158.8 465 169.5 L 474 185.5 L 475 205.5 Q 471.1 223.6 458.5 233 Q 447.8 241.8 428.5 242 L 418.5 240 L 411.5 237 L 397 224.5 L 393 218.5 L 393 216 L 390.5 215 L 381.5 219 L 315 239 L 315 259.5 L 312 271.5 L 308 280.5 L 364.5 321 L 366.5 321 Q 377.8 305.8 404.5 306 L 416.5 309 Q 425.3 312.3 431 318.5 Q 430.3 320.8 432.5 320 Q 439.8 327.2 443 338.5 L 444 343.5 L 444 358.5 L 440 370.5 L 428.5 385 L 410.5 394 L 394.5 395 Q 373.6 391.4 364 376.5 L 359 367.5 L 356 357.5 L 356 343.5 L 361 330.5 L 360 328 L 303.5 289 L 300 289 L 293.5 297 L 275.5 307 L 264.5 310 L 249 310 L 237 378.5 L 251.5 386 L 259 393.5 Q 268.3 403.7 268 423.5 L 264 437.5 Q 259.8 446.3 252.5 452 Q 246.7 457.7 237.5 460 Q 229.6 462.6 217.5 461 Q 202.6 457.4 194 447.5 Q 187.2 439.8 184 428.5 L 184 411.5 Q 187.6 395.6 198.5 387 L 207.5 381 L 217.5 378 L 226.5 378 L 228 376.5 L 231 357.5 L 234 347.5 L 234 341.5 L 238 324.5 L 238 318.5 L 240 308 L 227.5 304 Q 215.3 297.2 207 286.5 L 203.5 281 L 193.5 284 L 191.5 286 L 127 314 L 127 320.5 L 128 321.5 L 128 334.5 Q 124.5 354 111.5 364 Q 99.8 374.8 76.5 374 Q 58.8 370.7 49 359.5 Q 36.5 348 37 323.5 L 39 313.5 L 43 304.5 L 54.5 292 Q 62.3 285.8 73.5 283 L 91.5 283 Q 105.1 286.6 114 294 L 122.5 306 L 188.5 277 L 199 270.5 L 195 256.5 L 195 243.5 L 198 230.5 L 207 214.5 L 207 211.5 L 162.5 164 L 153.5 169 L 141.5 173 L 125.5 173 Q 105.9 168.6 96 154.5 L 90 142.5 L 88 124.5 L 90 114.5 L 94 104.5 L 107.5 90 L 120.5 84 L 125.5 83 L 141.5 83 Q 158.8 86.7 168 98.5 L 177 114.5 L 178 118.5 L 178 137.5 L 175 146.5 L 169 157.5 L 182.5 172 Q 184.8 171.3 184 173.5 L 214.5 206 Q 225 196 241.5 192 L 263.5 191 L 273.5 193 L 302 132.5 L 305 122 L 296 114.5 Q 290.9 108.1 289 98.5 L 289 83.5 Q 292.5 68 303.5 60 L 314.5 54 L 323.5 52 Z M 325 61 Q 323 63 319 62 L 310 67 Q 301 73 298 85 L 299 101 L 306 113 L 314 118 L 323 121 L 334 121 L 345 116 Q 353 110 357 99 Q 359 82 352 74 L 339 63 L 331 61 L 325 61 Z M 126 92 L 113 98 Q 100 106 97 124 L 98 138 L 107 154 Q 114 161 126 164 L 142 164 L 156 157 Q 165 150 169 138 L 169 120 L 163 107 Q 156 97 145 93 L 142 92 L 126 92 Z M 425 164 L 412 170 Q 402 177 398 190 L 398 206 L 404 219 Q 411 228 425 232 L 441 232 L 453 226 Q 462 219 466 206 L 466 191 L 459 177 Q 449 163 425 164 Z M 247 200 Q 232 203 223 211 L 212 223 L 206 236 L 204 245 L 205 262 Q 208 274 215 282 Q 222 291 233 296 L 244 300 L 252 300 L 253 301 L 261 301 L 271 299 L 282 294 L 290 288 Q 302 278 306 259 L 305 238 L 296 220 Q 288 210 277 204 L 264 200 L 247 200 Z M 84 291 L 83 292 L 72 293 L 57 301 L 49 314 L 46 324 Q 45 342 54 352 L 64 360 L 73 364 Q 77 363 79 365 Q 96 366 105 358 L 112 351 L 119 336 L 119 323 Q 118 313 113 308 Q 107 299 97 294 L 84 291 Z M 396 315 Q 384 317 377 324 Q 368 332 365 346 L 365 356 L 367 364 L 373 374 Q 381 383 396 386 Q 410 387 419 381 L 430 370 L 435 357 L 435 345 L 433 338 L 428 329 Q 422 321 412 317 L 404 315 L 396 315 Z M 220 387 L 206 393 Q 196 400 193 413 Q 191 432 200 441 Q 206 449 219 452 L 233 452 L 245 447 L 256 434 L 259 423 L 258 411 L 253 401 Q 247 392 237 388 Q 230 386 220 387 Z "/>
    <path fill="#1a1a1a" d="M 325.5 77 Q 337 76 341 82.5 L 344 89.5 L 344 94.5 Q 343.1 101.1 338.5 104 L 329.5 107 L 321.5 105 L 316 99.5 L 314 89.5 Q 314.9 82.9 319.5 80 L 325.5 77 Z M 326 81 L 324 82 L 318 90 L 319 98 L 327 103 Q 333 104 336 101 L 340 95 L 339 87 Q 336 80 326 81 Z "/>
    <path fill="#1a1a1a" d="M 129.5 113 L 139.5 114 L 145 118.5 Q 149.2 122.3 148 131.5 L 142.5 140 Q 139 144.5 129.5 143 L 122 138.5 Q 118 134.5 118 126.5 Q 119.6 117.6 126.5 114 L 129.5 113 Z M 131 117 L 127 119 L 122 127 L 124 135 L 130 139 Q 138 140 141 137 L 144 132 L 143 123 Q 140 116 131 117 Z "/>
    <path fill="#1a1a1a" d="M 424.5 178 Q 428.3 177.3 429 179.5 Q 427 196 435.5 202 L 446.5 208 L 449 208 L 445.5 214 L 435.5 218 L 426.5 218 Q 419.6 216.5 416 211.5 Q 410.8 206.7 411 196.5 Q 413 185.5 420.5 180 L 424.5 178 Z M 424 184 L 422 185 L 417 191 L 415 199 L 417 207 Q 420 212 428 214 Q 436 216 440 212 Q 442 213 441 211 L 434 206 L 426 196 L 425 186 L 424 184 Z "/>
    <path fill="#1a1a1a" d="M 84 307 Q 96.5 306.8 101 315.5 Q 105.2 320.8 105 330.5 Q 103.3 339.8 96.5 344 Q 92 348.5 82.5 348 L 74.5 346 L 70 342.5 L 71 340 L 79 336 L 85 325.5 L 85 313.5 L 84 307 Z M 91 312 L 89 314 L 90 317 L 90 324 L 84 337 L 80 340 L 78 343 L 83 344 Q 91 344 96 340 L 100 334 Q 99 329 101 328 L 99 320 L 91 312 Z "/>
    <path fill="#1a1a1a" d="M 393.5 330 Q 398 329 399 331.5 L 398 341.5 L 401 350.5 L 406.5 356 L 417 361.5 L 415.5 365 L 404.5 370 L 394.5 370 L 384 362.5 Q 378.7 357.8 380 346.5 Q 381.9 337.4 388.5 333 L 393.5 330 Z M 392 336 Q 386 340 384 348 Q 383 356 387 361 L 396 366 Q 406 368 410 364 L 405 360 Q 397 355 394 345 L 394 337 L 392 336 Z "/>
    <path fill="#1a1a1a" d="M 221.5 406 Q 231.9 404.6 236 409.5 Q 240.2 413.8 240 422.5 Q 239.1 429.1 234.5 432 L 228.5 435 L 222.5 435 Q 216 433.5 213 428.5 Q 209.5 424.5 211 415.5 L 214 410 L 221.5 406 Z M 225 409 L 220 411 L 215 417 L 215 425 L 217 428 L 222 431 L 231 430 Q 235 427 237 421 L 235 415 Q 232 410 225 409 Z "/>
  </g>
</svg>
