<svg xmlns="http://www.w3.org/2000/svg" width="512" height="512" viewBox="0 0 512 512">
  <g id="color">
    <path fill="#ffffff" d="M 251.5 51 L 257 51.5 L 251.5 52 L 251.5 51 Z "/>
    <path fill="#ffffff" d="M 260.5 53 Q 266.6 55.4 265 65.5 L 264 65.5 L 264 58.5 L 260.5 53 Z "/>
    <path fill="#ffffff" d="M 193.5 54 L 200.5 54 L 208 60.5 L 207.5 62 L 202.5 56 L 193.5 55 L 192 55.5 L 193.5 54 Z "/>
    <path fill="#ffffff" d="M 187.5 60 L 187 61.5 L 185.5 66 L 185 64.5 L 187.5 60 Z "/>
    <path fill="#ffffff" d="M 209.5 66 L 211 79.5 L 210 79.5 L 209.5 66 Z "/>
    <path fill="#ffffff" d="M 263.5 67 L 264 69.5 L 262.5 72 L 262 70.5 L 263.5 67 Z "/>
    <path fill="#ffffff" d="M 237.5 68 L 238 69.5 L 235.5 75 L 235 73.5 L 237.5 68 Z "/>
    <path fill="#ffffff" d="M 184.5 69 L 185 73.5 L 184 73.5 L 184.5 69 Z "/>
    <path fill="#ffffff" d="M 274.5 72 L 280 72.5 L 274.5 73 L 274.5 72 Z "/>
    <path fill="#ffffff" d="M 281.5 73 L 287 77.5 L 288 80.5 L 287 80.5 L 282.5 74 L 281.5 73 Z "/>
    <path fill="#ffffff" d="M 260.5 75 L 260 76.5 L 255.5 85 L 255 83.5 L 260.5 75 Z "/>
    <path fill="#ffffff" d="M 268.5 75 L 264 80.5 L 260.5 85 L 263 81.5 L 268.5 75 Z "/>
    <path fill="#ffffff" d="M 184.5 79 L 185 84.5 L 184 84.5 L 184.5 79 Z "/>
    <path fill="#ffffff" d="M 117.5 85 L 124 85.5 L 117.5 86 L 117.5 85 Z "/>
    <path fill="#ffffff" d="M 254.5 86 L 254 87.5 L 252.5 91 L 252 89.5 L 254.5 86 Z "/>
    <path fill="#ffffff" d="M 212.5 87 L 215 91.5 L 213 90.5 L 212.5 87 Z "/>
    <path fill="#ffffff" d="M 287.5 87 L 288 89.5 L 285.5 95 L 285 93.5 L 287.5 87 Z "/>
    <path fill="#ffffff" d="M 230.5 89 L 231 90.5 L 228.5 94 L 229 92.5 L 230.5 89 Z "/>
    <path fill="#ffffff" d="M 110.5 91 L 110 92.5 L 109.5 95 L 109 92.5 L 110.5 91 Z "/>
    <path fill="#ffffff" d="M 227.5 95 L 224.5 99 Q 219.8 99.8 218 97.5 L 219.5 97 L 224.5 98 L 227.5 95 Z "/>
    <path fill="#ffffff" d="M 284.5 96 L 284 97.5 L 282.5 100 L 283 98.5 L 284.5 96 Z "/>
    <path fill="#ffffff" d="M 279.5 104 L 277 107.5 L 276.5 109 L 276 107.5 L 279.5 104 Z "/>
    <path fill="#ffffff" d="M 112.5 111 L 115 120.5 L 114 120.5 L 112.5 111 Z "/>
    <path fill="#ffffff" d="M 336.5 119 L 342 119.5 L 336.5 120 L 336.5 119 Z "/>
    <path fill="#ffffff" d="M 82.5 120 L 81 122.5 L 80.5 127 L 80 122.5 L 82.5 120 Z "/>
    <path fill="#ffffff" d="M 259.5 120 L 261 120.5 L 255.5 123 L 255.5 122 L 259.5 120 Z "/>
    <path fill="#ffffff" d="M 332.5 120 L 335 120.5 L 329.5 123 L 330.5 121 L 332.5 120 Z "/>
    <path fill="#ffffff" d="M 347.5 122 L 351 127.5 L 350 127.5 L 347.5 122 Z "/>
    <path fill="#ffffff" d="M 253.5 123 L 252.5 125 L 242.5 132 L 246.5 127 L 253.5 123 Z "/>
    <path fill="#ffffff" d="M 208.5 124 L 211 127.5 L 210 127.5 L 208.5 124 Z "/>
    <path fill="#ffffff" d="M 114.5 128 L 115 130.5 L 112.5 134 L 113 132.5 L 114.5 128 Z "/>
    <path fill="#ffffff" d="M 351.5 129 L 352 133.5 L 351 133.5 L 351.5 129 Z "/>
    <path fill="#ffffff" d="M 82.5 130 L 85 133.5 L 83 132.5 L 82.5 130 Z "/>
    <path fill="#ffffff" d="M 97.5 130 L 103 134.5 L 101.5 134 L 97.5 130 Z "/>
    <path fill="#ffffff" d="M 212.5 132 L 213 137.5 L 212 137.5 L 212.5 132 Z "/>
    <path fill="#ffffff" d="M 317.5 134 L 317 135.5 L 315.5 138 L 316 136.5 L 317.5 134 Z "/>
    <path fill="#ffffff" d="M 350.5 136 L 351 137.5 L 348.5 141 L 349 139.5 L 350.5 136 Z "/>
    <path fill="#ffffff" d="M 135.5 138 L 136 139.5 L 133.5 144 L 133 142.5 L 135.5 138 Z "/>
    <path fill="#ffffff" d="M 313.5 141 L 314 142.5 L 312.5 145 L 312 143.5 L 313.5 141 Z "/>
    <path fill="#ffffff" d="M 89.5 143 L 92 149.5 L 91 149.5 L 89.5 143 Z "/>
    <path fill="#ffffff" d="M 237.5 143 L 238 150.5 L 237 150.5 L 237.5 143 Z "/>
    <path fill="#ffffff" d="M 207.5 149 L 207 150.5 L 200.5 158 L 198.5 159 L 199.5 157 L 206 151.5 L 207.5 149 Z "/>
    <path fill="#ffffff" d="M 130.5 150 L 131 158.5 L 130 158.5 L 130.5 150 Z "/>
    <path fill="#ffffff" d="M 54.5 153 L 59 155.5 L 57.5 155 Q 53.8 154.7 54.5 153 Z "/>
    <path fill="#ffffff" d="M 309.5 155 L 310 166.5 L 309 166.5 L 309.5 155 Z "/>
    <path fill="#ffffff" d="M 60.5 156 L 65 158.5 L 63.5 159 L 60.5 156 Z "/>
    <path fill="#ffffff" d="M 239.5 156 L 241 159.5 L 240 159.5 L 239.5 156 Z "/>
    <path fill="#ffffff" d="M 89.5 159 L 88.5 161 L 84.5 162 L 84.5 161 L 89.5 159 Z "/>
    <path fill="#ffffff" d="M 36.5 160 L 38 167.5 L 37 167.5 L 36.5 160 Z "/>
    <path fill="#ffffff" d="M 68.5 160 L 74 161.5 L 71.5 162 L 68.5 161 L 68.5 160 Z "/>
    <path fill="#ffffff" d="M 333.5 161 Q 332.7 166.8 336 168.5 L 333 166.5 L 333.5 161 Z "/>
    <path fill="#ffffff" d="M 132.5 163 L 139.5 171 L 142 172.5 L 140.5 172 L 133 165.5 L 132.5 163 Z "/>
    <path fill="#ffffff" d="M 181.5 163 L 185 163.5 L 178.5 165 L 178.5 164 L 181.5 163 Z "/>
    <path fill="#ffffff" d="M 172.5 166 L 174 166.5 L 169.5 169 L 170.5 167 L 172.5 166 Z "/>
    <path fill="#ffffff" d="M 166.5 169 L 168 169.5 L 163.5 172 L 164.5 170 L 166.5 169 Z "/>
    <path fill="#ffffff" d="M 143.5 173 L 148 174.5 L 145.5 175 L 143.5 173 Z "/>
    <path fill="#ffffff" d="M 158.5 173 L 160 173.5 L 155.5 175 L 155.5 174 L 158.5 173 Z "/>
    <path fill="#ffffff" d="M 251.5 173 L 259 179.5 L 256.5 178 L 251.5 173 Z "/>
    <path fill="#ffffff" d="M 306.5 175 L 306 176.5 L 298.5 185 L 296.5 186 L 297.5 184 L 305 177.5 L 306.5 175 Z "/>
    <path fill="#ffffff" d="M 347.5 175 L 348 179.5 L 347 179.5 L 347.5 175 Z "/>
    <path fill="#ffffff" d="M 347.5 181 L 348 183 L 353 184.5 L 350.5 185 L 347 182.5 L 347.5 181 Z "/>
    <path fill="#ffffff" d="M 370.5 182 L 375 182.5 L 370.5 183 L 370.5 182 Z "/>
    <path fill="#ffffff" d="M 364.5 183 L 367 183.5 Q 364.3 185.8 358.5 185 L 358.5 184 Q 363.3 185.3 364.5 183 Z "/>
    <path fill="#ffffff" d="M 376.5 183 L 382 186.5 L 379.5 185 Q 375.8 184.8 376.5 183 Z "/>
    <path fill="#ffffff" d="M 102.5 185 L 108 185.5 L 102.5 186 L 102.5 185 Z "/>
    <path fill="#ffffff" d="M 60.5 186 L 69 188.5 L 66.5 189 L 60.5 187 L 60.5 186 Z "/>
    <path fill="#ffffff" d="M 271.5 186 L 277 187.5 L 274.5 188 L 271.5 187 L 271.5 186 Z "/>
    <path fill="#ffffff" d="M 293.5 186 L 295 186.5 L 290.5 188 L 290.5 187 L 293.5 186 Z "/>
    <path fill="#ffffff" d="M 278.5 188 L 289 188.5 L 278.5 189 L 278.5 188 Z "/>
    <path fill="#ffffff" d="M 72.5 189 L 78 189.5 L 72.5 190 L 72.5 189 Z "/>
    <path fill="#ffffff" d="M 82.5 189 L 88 189.5 L 82.5 190 L 82.5 189 Z "/>
    <path fill="#ffffff" d="M 383.5 190 L 384 196.5 L 382.5 199 L 382 197.5 L 383.5 190 Z "/>
    <path fill="#ffffff" d="M 126.5 204 L 128 207.5 L 127 207.5 L 126.5 204 Z "/>
    <path fill="#ffffff" d="M 375.5 205 L 374.5 207 L 371.5 208 L 371.5 207 L 375.5 205 Z "/>
    <path fill="#ffffff" d="M 339.5 206 L 343 207.5 L 341.5 208 L 339.5 206 Z "/>
    <path fill="#ffffff" d="M 352.5 210 L 362 210.5 L 352.5 211 L 352.5 210 Z "/>
    <path fill="#ffffff" d="M 300.5 216 L 300 217.5 L 298.5 220 L 299 218.5 L 300.5 216 Z "/>
    <path fill="#ffffff" d="M 297.5 221 L 298 222.5 L 295.5 229 L 295 226.5 L 297.5 221 Z "/>
    <path fill="#ffffff" d="M 127.5 225 L 128 226.5 L 126.5 230 L 126 227.5 L 127.5 225 Z "/>
    <path fill="#ffffff" d="M 124.5 236 L 125 240.5 L 124 240.5 L 124.5 236 Z "/>
    <path fill="#ffffff" d="M 293.5 237 L 294 256.5 L 293 256.5 L 293.5 237 Z "/>
    <path fill="#ffffff" d="M 123.5 244 L 124 248.5 L 123 248.5 L 123.5 244 Z "/>
    <path fill="#ffffff" d="M 124.5 252 L 125 256.5 L 124 256.5 L 124.5 252 Z "/>
    <path fill="#ffffff" d="M 125.5 260 L 126 269.5 L 125 269.5 L 125.5 260 Z "/>
    <path fill="#ffffff" d="M 295.5 265 L 297 270.5 L 296 270.5 L 295.5 265 Z "/>
    <path fill="#ffffff" d="M 302.5 283 L 305 286.5 L 303 285.5 L 302.5 283 Z "/>
    <path fill="#ffffff" d="M 66.5 290 L 80 290.5 L 66.5 291 L 66.5 290 Z "/>
    <path fill="#ffffff" d="M 56.5 292 L 59 292.5 Q 49 294.5 43.5 301 L 46.5 297 L 56.5 292 Z "/>
    <path fill="#ffffff" d="M 93.5 293 L 100 293.5 L 93.5 294 L 93.5 293 Z "/>
    <path fill="#ffffff" d="M 140.5 302 L 150 302.5 L 140.5 303 L 140.5 302 Z "/>
    <path fill="#ffffff" d="M 136.5 303 L 139 303.5 L 133.5 306 L 134.5 304 L 136.5 303 Z "/>
    <path fill="#ffffff" d="M 151.5 303 L 155 304.5 L 153.5 304 Q 150.5 304.5 151.5 303 Z "/>
    <path fill="#ffffff" d="M 41.5 304 L 42 308.5 L 41 308.5 L 41.5 304 Z "/>
    <path fill="#ffffff" d="M 131.5 306 L 130.5 308 L 125.5 312 L 129.5 307 L 131.5 306 Z "/>
    <path fill="#ffffff" d="M 254.5 309 Q 265 307.5 271 310.5 L 267.5 311 L 266.5 310 L 254.5 310 L 254.5 309 Z "/>
    <path fill="#ffffff" d="M 247.5 310 L 253 310.5 L 244.5 312 L 244.5 311 L 247.5 310 Z "/>
    <path fill="#ffffff" d="M 72.5 312 L 81.5 312 L 82 314.5 L 75.5 320 L 78.5 316 L 81 314.5 L 80.5 313 L 72.5 313 L 72.5 312 Z "/>
    <path fill="#ffffff" d="M 166.5 312 L 171 314.5 L 169.5 315 L 166.5 312 Z "/>
    <path fill="#ffffff" d="M 275.5 312 L 281 315.5 L 279.5 315 Q 275.5 314.5 275.5 312 Z "/>
    <path fill="#ffffff" d="M 331.5 312 L 335 314.5 L 333.5 314 L 331.5 312 Z "/>
    <path fill="#ffffff" d="M 65.5 313 L 70 313.5 L 65.5 314 L 65.5 313 Z "/>
    <path fill="#ffffff" d="M 124.5 313 L 124 314.5 L 122.5 317 L 123 315.5 L 124.5 313 Z "/>
    <path fill="#ffffff" d="M 49.5 315 L 58 315.5 L 49.5 316 L 49.5 315 Z "/>
    <path fill="#ffffff" d="M 338.5 316 L 342 318.5 L 340.5 318 L 338.5 316 Z "/>
    <path fill="#ffffff" d="M 226.5 318 L 220 325.5 L 218.5 328 L 219 326.5 L 226.5 318 Z "/>
    <path fill="#ffffff" d="M 179.5 319 Q 185.9 323.2 188 331.5 L 187 331.5 Q 184.4 323.2 179.5 319 Z "/>
    <path fill="#ffffff" d="M 343.5 319 L 348 321.5 L 346.5 321 Q 342.8 320.7 343.5 319 Z "/>
    <path fill="#ffffff" d="M 349.5 322 L 354 324.5 L 352.5 324 Q 348.8 323.7 349.5 322 Z "/>
    <path fill="#ffffff" d="M 120.5 323 L 121 347.5 L 119.5 353 L 119 348.5 L 120 347.5 L 120.5 323 Z "/>
    <path fill="#ffffff" d="M 355.5 325 L 361 327.5 L 359.5 328 L 355.5 326 L 355.5 325 Z "/>
    <path fill="#ffffff" d="M 217.5 329 L 218 330.5 L 216.5 333 L 216 331.5 L 217.5 329 Z "/>
    <path fill="#ffffff" d="M 364.5 329 L 370 331.5 L 368.5 332 L 364.5 330 L 364.5 329 Z "/>
    <path fill="#ffffff" d="M 371.5 332 L 376 334.5 L 374.5 335 L 371.5 332 Z "/>
    <path fill="#ffffff" d="M 92.5 335 L 95 335.5 L 92.5 341 L 92 339.5 L 93 336.5 L 87.5 341 L 82.5 345 L 86.5 340 L 92.5 335 Z "/>
    <path fill="#ffffff" d="M 377.5 335 L 381 337.5 L 379.5 337 L 377.5 335 Z "/>
    <path fill="#ffffff" d="M 189.5 337 L 190 351.5 L 189 351.5 L 189.5 337 Z "/>
    <path fill="#ffffff" d="M 58.5 338 L 59 342.5 L 58 342.5 L 58.5 338 Z "/>
    <path fill="#ffffff" d="M 308.5 338 L 313 341.5 L 311.5 341 L 308.5 338 Z "/>
    <path fill="#ffffff" d="M 214.5 339 L 215 345.5 L 214 345.5 L 214.5 339 Z "/>
    <path fill="#ffffff" d="M 384.5 339 L 388 341.5 L 386.5 341 L 384.5 339 Z "/>
    <path fill="#ffffff" d="M 314.5 342 L 318 344.5 L 316.5 344 L 314.5 342 Z "/>
    <path fill="#ffffff" d="M 389.5 342 L 394 345.5 L 391.5 344 L 389.5 342 Z "/>
    <path fill="#ffffff" d="M 59.5 344 L 61 347.5 L 60 347.5 L 59.5 344 Z "/>
    <path fill="#ffffff" d="M 90.5 345 L 91 346.5 L 89.5 349 L 89 347.5 L 90.5 345 Z "/>
    <path fill="#ffffff" d="M 321.5 346 L 325 348.5 L 323.5 348 L 321.5 346 Z "/>
    <path fill="#ffffff" d="M 73.5 349 L 75 349.5 Q 72.3 352.3 65.5 351 L 65.5 350 Q 71.8 351.8 73.5 349 Z "/>
    <path fill="#ffffff" d="M 215.5 349 Q 217.4 357.6 224 361.5 L 217 355.5 Q 214 353 215.5 349 Z "/>
    <path fill="#ffffff" d="M 326.5 349 L 331 351.5 L 329.5 351 Q 325.7 350.7 326.5 349 Z "/>
    <path fill="#ffffff" d="M 88.5 350 L 89 351.5 L 86.5 356 L 86 354.5 L 88.5 350 Z "/>
    <path fill="#ffffff" d="M 332.5 352 L 344 357.5 L 342.5 358 L 332.5 353 L 332.5 352 Z "/>
    <path fill="#ffffff" d="M 117.5 359 L 118 361.5 L 116.5 364 L 116 362.5 L 117.5 359 Z "/>
    <path fill="#ffffff" d="M 185.5 359 L 170 375.5 L 168.5 378 L 169 376.5 L 185.5 359 Z "/>
    <path fill="#ffffff" d="M 114.5 367 L 115 368.5 L 112.5 372 L 113 370.5 L 114.5 367 Z "/>
    <path fill="#ffffff" d="M 365.5 368 L 369 370.5 L 367.5 370 L 365.5 368 Z "/>
    <path fill="#ffffff" d="M 238.5 369 L 242 371.5 L 240.5 371 L 238.5 369 Z "/>
    <path fill="#ffffff" d="M 111.5 373 L 110 375.5 L 102.5 384 L 100.5 385 L 101.5 383 L 109 376.5 L 111.5 373 Z "/>
    <path fill="#ffffff" d="M 247.5 375 L 255 383.5 L 252 381.5 L 247.5 375 Z "/>
    <path fill="#ffffff" d="M 82.5 377 L 88 384.5 L 83 380.5 L 82.5 377 Z "/>
    <path fill="#ffffff" d="M 167.5 379 L 167 380.5 L 165.5 384 L 165 382.5 L 167.5 379 Z "/>
    <path fill="#ffffff" d="M 164.5 385 L 165 386.5 L 162.5 393 L 162 390.5 L 164.5 385 Z "/>
    <path fill="#ffffff" d="M 255.5 385 L 258 389.5 L 257 389.5 L 255.5 385 Z "/>
    <path fill="#ffffff" d="M 195.5 386 L 197 386.5 L 192 390.5 L 189.5 397 L 189 394.5 L 195.5 386 Z "/>
    <path fill="#ffffff" d="M 202.5 386 L 206 387.5 L 204.5 388 L 202.5 386 Z "/>
    <path fill="#ffffff" d="M 210.5 389 L 216 390.5 L 213.5 391 L 210.5 390 L 210.5 389 Z "/>
    <path fill="#ffffff" d="M 438.5 394 L 441 397.5 L 439 396.5 L 438.5 394 Z "/>
    <path fill="#ffffff" d="M 259.5 395 L 260 402.5 L 259 402.5 L 259.5 395 Z "/>
    <path fill="#ffffff" d="M 161.5 396 L 162 400.5 L 161 400.5 L 161.5 396 Z "/>
    <path fill="#ffffff" d="M 442.5 401 L 445 404.5 L 443 403.5 L 442.5 401 Z "/>
    <path fill="#ffffff" d="M 161.5 404 L 162 409.5 L 161 409.5 L 161.5 404 Z "/>
    <path fill="#ffffff" d="M 232.5 404 L 235 407.5 L 233 406.5 L 232.5 404 Z "/>
    <path fill="#ffffff" d="M 404.5 405 L 407 408.5 L 405 407.5 L 404.5 405 Z "/>
    <path fill="#ffffff" d="M 187.5 406 L 188 409.5 L 185.5 416 L 185 414.5 L 187.5 406 Z "/>
    <path fill="#ffffff" d="M 256.5 409 L 253.5 413 Q 250.2 416.2 242.5 415 L 239 412.5 L 240.5 413 L 249.5 414 L 256.5 409 Z "/>
    <path fill="#ffffff" d="M 454.5 409 L 461 410.5 L 458.5 411 L 454.5 410 L 454.5 409 Z "/>
    <path fill="#ffffff" d="M 407.5 410 L 410 413.5 L 408 412.5 L 407.5 410 Z "/>
    <path fill="#ffffff" d="M 162.5 411 L 166 418.5 L 164 417.5 Q 161 415 162.5 411 Z "/>
    <path fill="#ffffff" d="M 466.5 412 L 474 414.5 L 472.5 415 L 466.5 413 L 466.5 412 Z "/>
    <path fill="#ffffff" d="M 445.5 415 L 448 415.5 L 444 417.5 L 439.5 423 L 436.5 425 L 438.5 422 L 443 418.5 L 445.5 415 Z "/>
    <path fill="#ffffff" d="M 450.5 416 L 458 417.5 L 454.5 418 L 450.5 417 L 450.5 416 Z "/>
    <path fill="#ffffff" d="M 411.5 417 L 414 420.5 L 412 419.5 L 411.5 417 Z "/>
    <path fill="#ffffff" d="M 463.5 419 L 468 420.5 L 466.5 421 L 463.5 420 L 463.5 419 Z "/>
    <path fill="#ffffff" d="M 169.5 422 L 177 423.5 L 171.5 424 L 169.5 422 Z "/>
    <path fill="#ffffff" d="M 426.5 426 L 432 426.5 L 425.5 428 L 426.5 426 Z "/>
    <path fill="#ffffff" d="M 417.5 430 L 418 435.5 L 417 435.5 L 417.5 430 Z "/>
    <path fill="#ffffff" d="M 424.5 436 L 425 441.5 L 424 441.5 L 424.5 436 Z "/>
    <path fill="#ffffff" d="M 416.5 441 L 417 449.5 L 416 450.5 L 415.5 459 L 415 450.5 L 416 449.5 L 416.5 441 Z "/>
    <path fill="#ffffff" d="M 423.5 446 L 424 458.5 L 422.5 461 L 422 459.5 L 423 458.5 L 423.5 446 Z "/>
    <path fill="#4da3ff" d="M 251.5 61 Q 257.8 58.8 256 64.5 L 243 87.5 L 242 99.5 L 245.5 104 L 253.5 104 L 260 99.5 L 267 90 Q 269.7 91.1 269 88.5 L 274.5 82 L 279 81 L 279 87.5 L 274 97.5 L 265.5 107 Q 256.1 114.8 243 118 Q 244.1 120.7 241.5 120 L 237 123 L 230 134.5 L 229 153 Q 224.7 151.1 217 152 L 221 141.5 L 221 129.5 Q 218.6 119.4 211.5 114 L 209 112.5 Q 209.8 110.3 207.5 111 L 198 99.5 L 193 82.5 L 193 71.5 L 196 64 L 200 65.5 L 202 73.5 L 203 88.5 Q 206.4 99.6 214.5 106 Q 217.8 109.2 225.5 108 L 236 99.5 L 241 89.5 L 245 72.5 L 251.5 61 Z "/>
    <path fill="#4da3ff" d="M 120.5 94 L 124 95 L 129 104.5 L 130 126.5 L 126 140.5 L 122 148.5 L 122 160.5 Q 125.4 171.6 133.5 178 L 141 182.5 L 137.5 185 L 136 184.5 L 130.5 193 L 127 187 L 111.5 177 L 101.5 176 L 90.5 180 L 73.5 181 Q 58.4 178.1 49 169.5 L 46 163.5 L 46.5 161 L 49.5 161 L 69.5 170 L 85.5 171 L 93.5 168 L 98 163.5 Q 102.9 159.4 101 148.5 L 100 144 Q 104.2 145.9 112.5 145 L 121 137.5 L 124 128.5 L 124 119.5 L 118 101.5 L 118 95 L 120.5 94 Z "/>
    <path fill="#4da3ff" d="M 338.5 128 L 342 129 L 342 134.5 L 326 155.5 Q 323.6 160.6 325 169.5 L 328 175 L 333.5 178 L 337 178 L 339 186.5 L 343.5 191 L 351.5 194 L 362.5 194 L 372.5 191 Q 376.8 192.8 374 194.5 L 371.5 198 L 368.5 198 L 364.5 201 L 352.5 201 L 343.5 199 L 332.5 193 L 319.5 192 L 312.5 194 L 304.5 200 L 299 202 Q 300 205 297 204 L 297 201.5 L 294 197.5 L 306.5 190 L 311 185.5 L 317 174.5 L 318 159.5 L 321 146.5 L 328.5 134 L 331.5 132 L 338.5 128 Z "/>
    <path fill="#4da3ff" d="M 128 283 Q 131.8 281.5 131 284.5 L 130.5 286 Q 132.8 285.3 132 287.5 L 137 294.5 Q 135.3 292.9 133.5 296 Q 122.6 299.1 117 307.5 L 112 320.5 L 112 345.5 L 109 359.5 L 104 369.5 L 96.5 377 Q 92 378 91 375.5 L 91 367.5 L 101 344.5 L 103 329.5 L 100.5 326 L 94.5 324 L 87.5 328 L 74.5 340 L 68 341 L 68 337.5 L 73.5 331 L 86 322.5 Q 85.3 320.3 87.5 321 Q 91.8 318.8 91 311.5 L 88.5 307 L 82.5 304 L 67.5 304 L 58.5 307 L 51 307 L 53.5 303 Q 61.8 299.3 73.5 299 L 90.5 302 L 101.5 302 Q 102.8 299.7 107.5 301 L 120 294 L 122.5 290 Q 124.8 290.8 124 288.5 L 128 283 Z "/>
    <path fill="#4da3ff" d="M 197.5 331 L 199.5 331 L 207 331 L 207 334.5 L 206 335.5 L 206 351.5 Q 209.1 362.4 217.5 368 L 240.5 381 L 247 387.5 Q 246 391.3 249 390 L 249 393.5 L 250 394.5 L 250 403.5 Q 248.4 406.5 243 405 L 237 396.5 L 237 394.5 L 229.5 387 L 225.5 384 L 216.5 381 Q 207.5 381 202.5 377 L 195.5 377 L 186 383.5 L 180 394.5 L 179 409.5 L 175.5 414 Q 171.1 415.5 172 412.5 Q 168.8 406.8 170 396.5 L 171 391.5 L 179 377 L 181 377 L 181 375 L 183 375 L 183 373 L 185 373 Q 183.9 370.3 186.5 371 L 191 365 Q 193.7 366.1 193 363.5 L 197 356.5 L 199 342.5 L 198 341.5 L 197.5 331 Z "/>
    <path fill="#ff6b6b" d="M 215.5 155 Q 226.7 153.3 232 157.5 L 231 159.5 L 233 159.5 L 232 161.5 L 234 161.5 L 233 164 L 235 164.5 L 234.5 166 L 237 167.5 L 241.5 175 L 244.5 177 L 253 184.5 L 253.5 186 Q 254.8 183.8 256 186.5 L 256.5 188 L 258 187.5 Q 257.3 189.8 259.5 189 L 262.5 191 L 264 190.5 L 264.5 192 L 266.5 192 L 269.5 194 L 271.5 194 L 274 194 Q 272.9 196.7 275.5 196 L 277.5 195 Q 279.3 197.8 285.5 196 L 293 200.5 L 296 207.5 L 296 209.5 L 292 218 L 290 218.5 L 290 220.5 L 287 226.5 L 288 230 L 286 230.5 L 287 232.5 L 286 234.5 L 287 239.5 L 285 244.5 L 286 249.5 L 286 253.5 L 287 261.5 L 286.5 263 Q 289.1 262.2 288 265.5 Q 285.5 267 289 268.5 L 291 274.5 L 290 277 Q 292.7 275.9 292 278.5 L 293 280.5 L 292.5 282 Q 294.8 281.3 294 283.5 L 294.5 286 L 297 287.5 L 296.5 289 L 298 289.5 L 297.5 291 Q 300.1 290.2 299 293.5 Q 296.5 301.5 290.5 306 L 282.5 308 L 280 307 Q 281.1 304.3 278.5 305 L 277.5 306 Q 275.8 302.9 274 304.5 L 273.5 303 L 270.5 304 L 261.5 301 L 256.5 301 Q 255.1 303.6 250.5 303 L 248.5 302 L 248.5 304 L 241.5 305 L 240 304.5 Q 240.8 307.1 237.5 306 L 236 305.5 Q 236.8 308.1 233.5 307 L 231.5 307 L 228.5 309 L 224.5 312 L 223 311.5 L 223 313 Q 219.2 311.5 220 314.5 L 212.5 323 L 211 323.5 L 211.5 325 Q 207 329.5 196.5 328 L 193 326.5 L 194 324.5 L 192 324.5 L 192 322.5 L 185.5 315 L 180 311.5 L 180.5 310 Q 175.2 310.7 174.5 307 L 172.5 308 L 170 307 L 168.5 304 Q 167.3 306.3 166 303.5 Q 167.1 300.2 164.5 301 L 163 301.5 Q 163.8 298.9 160.5 300 L 158.5 297 L 157 297.5 L 156.5 296 L 154.5 297 L 147.5 294 L 145.5 294 L 138 291 L 134 285.5 L 132 276.5 L 133 272.5 L 132 269 L 134 268.5 L 133 263.5 Q 135.5 262 132 260.5 L 133 256.5 Q 129.8 255.2 131 249.5 L 132 244.5 L 131 240.5 L 133 237.5 L 132 234.5 Q 135.5 233 133 231.5 L 135 224.5 L 137 222.5 L 136 219.5 Q 134.3 213.3 137 211.5 L 136.5 209 Q 133.5 209.9 135 205.5 L 135 203.5 L 134.5 202 L 133 202.5 L 134 192.5 L 139.5 186 Q 142 183 148 183.5 L 147.5 182 L 150.5 183 L 167 179 Q 165.9 176.3 168.5 177 L 171 176.5 Q 170.3 174.3 172.5 175 L 175 174.5 L 175.5 173 L 176.5 174 L 181.5 171 L 186.5 170 L 190 170.5 Q 189.3 168.3 191.5 169 L 193 169.5 Q 192.2 166.9 195.5 168 L 199.5 166 L 201.5 165 Q 202.8 167.3 204 164.5 Q 203.3 162.3 205.5 163 L 210 160 L 211.5 157 L 215.5 155 Z M 249 219 L 243 221 Q 237 224 237 234 Q 235 235 238 237 L 237 239 Q 236 244 238 246 Q 239 248 237 247 L 237 249 Q 233 254 226 256 L 224 255 L 223 257 L 221 257 L 221 258 L 217 258 L 214 264 L 214 271 L 217 277 L 219 276 L 223 279 L 226 279 L 226 281 L 228 280 L 230 281 L 240 279 L 243 277 L 245 278 L 248 276 Q 247 273 250 274 L 261 262 Q 260 259 263 260 L 262 258 L 266 247 L 265 245 Q 263 238 266 237 L 262 230 Q 263 225 261 226 L 258 222 L 249 219 Z M 178 241 Q 176 244 174 243 Q 175 245 173 244 L 170 250 L 169 249 L 164 251 Q 161 252 163 254 Q 164 256 161 255 L 162 260 L 162 262 L 161 265 L 163 269 L 163 271 L 174 278 L 183 278 L 185 278 L 188 277 L 187 276 L 189 275 Q 194 271 195 264 L 195 262 L 196 259 Q 197 256 194 257 L 193 254 L 193 252 L 187 247 L 184 245 L 182 246 Q 183 242 179 244 L 178 241 Z "/>
    <path fill="#51cf66" d="M 300.5 295 L 312.5 308 L 335.5 324 L 383.5 347 Q 401.3 358.2 415 373.5 Q 429.8 389.7 439 411.5 L 437 416 L 428.5 420 L 422.5 420 L 405 392.5 L 393.5 380 L 372.5 364 L 315.5 335 Q 298.5 324 285 309.5 Q 293.2 307.7 297 301.5 L 300.5 295 Z "/>
    <path fill="#ffa94d" d="M 297.5 297 L 298 298.5 L 294 305 L 289.5 307 L 289.5 306 L 295 301.5 L 297.5 297 Z "/>
    <path fill="#ffa94d" d="M 285.5 307 L 288 307.5 L 284.5 309 L 285.5 307 Z "/>
    <path fill="#9775fa" d="M 216.5 152 L 226 152.5 L 216.5 153 L 216.5 152 Z "/>
    <path fill="#9775fa" d="M 141.5 182 L 140.5 184 L 133.5 190 L 134 188.5 Q 133.3 186.3 135.5 187 L 141.5 182 Z "/>
    <path fill="#9775fa" d="M 293.5 197 Q 297.3 199.7 298 205.5 L 297 205.5 L 293 198.5 L 293.5 197 Z "/>
    <path fill="#9775fa" d="M 129.5 281 Q 131.8 280.3 131 282.5 L 139 294.5 L 134 290.5 L 129.5 281 Z "/>
    <path fill="#9775fa" d="M 206.5 329 L 207 331 L 196 330.5 L 205.5 330 L 206.5 329 Z "/>
    <path fill="#66d9e8" d="M 252.5 59 Q 256.3 58.3 257 60.5 L 257 66.5 L 245 88.5 L 244 99.5 Q 244.8 103.8 250.5 103 Q 259.1 100.6 263 93.5 L 274.5 80 Q 280.6 78.8 280 81.5 L 281 86.5 Q 276.4 100.9 265.5 109 Q 256.7 116.2 244.5 120 L 237 126.5 Q 230 134 230 148.5 L 231 153 L 229 152.5 L 229 139.5 L 230 134.5 L 237 123 L 243 120 Q 241.8 117 245.5 118 L 261.5 110 L 272 100.5 L 279 87.5 L 279 81 Q 272.6 81.3 270 86.5 L 269 90 Q 266.3 88.9 267 91.5 L 258.5 101 L 253.5 104 L 245.5 104 Q 240.3 101.3 242 91.5 L 244 85.5 L 255 67.5 L 256 61 Q 251.4 59.8 250 62.5 L 245 72.5 L 241 89.5 L 236 99.5 L 229.5 106 Q 226.2 109.2 218.5 108 L 209 100.5 L 203 88.5 L 202 73.5 L 198.5 64 Q 195.2 62.9 196 65.5 Q 191.2 70.7 193 82.5 L 198 99.5 L 207.5 111 Q 209.8 110.3 209 112.5 L 213 115.5 Q 223 122.5 221 141.5 L 217 152 L 215 151.5 Q 219.9 144.9 220 133.5 Q 217.8 132.3 219 127.5 L 216 121.5 Q 203.5 112.5 196 98.5 L 192 87.5 L 191 72.5 L 193 64.5 L 196.5 61 L 201 63.5 L 203 68.5 L 204 85.5 Q 207.1 96.4 213 103 L 218.5 106 L 225.5 106 L 233 100.5 L 240 86.5 L 245 68.5 L 250.5 60 L 252.5 59 Z "/>
    <path fill="#66d9e8" d="M 118.5 93 Q 125.8 91.8 127 96.5 L 130 102.5 L 132 111.5 L 132 125.5 L 129 137.5 L 124 147.5 L 123 157.5 Q 125.5 169.5 133.5 176 L 141 180 Q 142.1 182.7 139.5 182 L 129 173.5 L 122 160.5 L 122 148.5 L 129 131.5 L 130 126.5 L 130 110.5 Q 127.8 109.3 129 104.5 L 124 95 L 120.5 94 L 118 95 L 118 101.5 L 124 119.5 L 124 128.5 Q 122.4 139.4 114.5 144 Q 111 146.5 103.5 145 L 100 144 Q 101.8 149.3 101 158.5 L 93.5 168 L 85.5 171 L 73.5 171 L 63.5 168 L 49.5 161 L 46.5 161 L 47 164.5 L 47 166.5 L 51.5 172 L 68.5 180 L 84.5 181 L 101.5 176 L 107.5 176 L 117.5 180 L 127 187 L 131 193.5 L 129.5 194 L 120.5 184 L 108.5 178 L 101.5 178 L 89.5 182 L 75.5 183 L 60.5 179 Q 51.5 175.5 46 168.5 Q 42.8 166 44 160 L 49.5 159 L 68.5 168 Q 75.2 170.3 85.5 169 L 93.5 166 L 97 162.5 Q 100.8 157.8 99 147.5 L 96 140 L 103.5 143 L 112.5 143 L 119 137.5 L 122 129.5 L 122 117.5 L 117 104.5 L 116 96.5 L 118.5 93 Z "/>
    <path fill="#66d9e8" d="M 335.5 127 Q 342.5 125.5 344 129.5 L 343 136.5 L 328 155.5 L 326 161.5 L 326 167.5 L 331.5 175 L 338.5 176 L 340 177.5 Q 338.6 187.9 345.5 190 Q 351.6 193.4 362.5 192 Q 366.5 189 374.5 190 Q 377.5 190.5 377 194.5 L 373.5 199 Q 366.8 204.8 352.5 203 Q 340.6 200.9 332.5 195 L 318.5 194 Q 306.5 198 298.5 206 L 298 204.5 L 299 202 L 304.5 200 L 312.5 194 L 319.5 192 L 327.5 192 L 335.5 194 L 346.5 200 L 364.5 201 L 374 195.5 L 375 193.5 Q 373.3 189.2 371.5 192 Q 365.4 191.4 362.5 194 L 351.5 194 Q 343 192.5 339 186.5 L 337 178 L 333.5 178 L 328 175 L 325 169.5 L 325 158.5 L 329 150.5 L 342 134.5 L 342 129 L 338.5 128 L 330 132 Q 331.1 134.7 328.5 134 Q 322.4 139.9 320 149.5 L 318 159.5 L 318 169.5 L 316 177.5 L 306.5 190 L 295 196.5 L 296.5 199 L 293 197 L 294.5 194 Q 306.1 190.6 312 181.5 L 316 171.5 L 316 160.5 L 320 144.5 Q 323.1 136.1 329.5 131 L 335.5 127 Z "/>
    <path fill="#66d9e8" d="M 137.5 183 L 137 184.5 L 135.5 187 L 136 185.5 L 137.5 183 Z "/>
    <path fill="#66d9e8" d="M 245.5 225 Q 254.8 223.7 257 229.5 Q 261.9 236 260 249.5 Q 256.7 262.2 247.5 269 Q 240.8 275.8 226.5 275 L 219 269.5 Q 218 263 222.5 262 Q 232.9 260.4 239 254.5 Q 243.8 249.8 244 240.5 L 242 234.5 L 242 229.5 L 245.5 225 Z "/>
    <path fill="#66d9e8" d="M 128.5 281 L 129.5 283 Q 127.3 282.3 128 284.5 L 124 290 L 120 292.5 Q 120.8 294.8 118.5 294 L 107.5 301 L 90.5 302 L 83.5 300 L 68.5 299 L 55.5 302 L 51 305.5 L 51.5 307 L 58.5 307 Q 67.1 302.1 82.5 304 L 90 308.5 L 91 315.5 L 87.5 321 Q 85.3 320.3 86 322.5 L 70 334.5 Q 67.2 336.5 68 341 L 74.5 340 L 87.5 328 L 96.5 324 L 102 327.5 L 103 335.5 L 100 347.5 L 98 349.5 L 91 367.5 L 91 375.5 Q 92 378 96.5 377 L 104 369.5 L 109 359.5 L 112 345.5 L 112 320.5 L 113 316.5 Q 116.1 305.6 124.5 300 L 135.5 294 L 139 295.5 Q 127.7 298.2 121 305.5 L 114 319.5 L 114 344.5 L 111 358.5 Q 107.5 369 100.5 376 Q 98.2 379.7 91.5 379 Q 87 377 89 368.5 L 100 341.5 L 101 329.5 Q 99.3 326.3 94.5 326 Q 84.2 331.2 77.5 340 L 68.5 344 L 66 343 L 66 337.5 L 73.5 329 Q 82.5 325 88 317.5 L 89 310.5 L 82.5 306 L 74.5 305 L 53.5 309 L 49 308 Q 48.3 303.3 52.5 302 L 59.5 299 L 70.5 298 L 71.5 297 L 72.5 298 L 88.5 299 L 89.5 300 L 103.5 300 Q 117.2 295.8 125 285.5 L 128.5 281 Z "/>
    <path fill="#66d9e8" d="M 207.5 330 L 209 333.5 L 208 334.5 L 208 351.5 Q 210.4 361.1 217.5 366 L 240.5 379 L 248 386.5 Q 253.5 391.5 252 403.5 L 249.5 407 L 246.5 408 L 240 403.5 L 229.5 389 L 216.5 383 Q 207.5 383 202.5 379 L 195.5 379 L 185 387.5 L 182 394.5 L 180 411.5 L 178 415 L 172.5 416 L 169 411.5 L 168 398.5 Q 171.7 378.7 185.5 369 L 190 365.5 L 195 357.5 L 197 349.5 L 197 338.5 L 195 331.5 L 197 331 L 199 346.5 L 197 356.5 L 193 365 Q 190.3 363.9 191 366.5 L 185 371 L 185 373 L 183 373 L 183 375 L 181 375 L 181 377 Q 178.3 375.9 179 378.5 L 171 391.5 L 170 406.5 L 172 414 Q 175.8 415 177 412.5 L 179 409.5 L 180 394.5 Q 182.3 386.8 187.5 382 L 195.5 377 L 202.5 377 L 208.5 380 L 216.5 381 L 225.5 384 L 237 394.5 L 237 396.5 L 243 405 Q 248.4 406.5 250 403.5 Q 250.7 394.9 249 390 Q 246 391.3 247 387.5 L 240.5 381 L 217.5 368 L 210 360.5 Q 203.5 352.5 206 335.5 L 207.5 330 Z "/>
    <path fill="#f783ac" d="M 214.5 153 Q 227.3 150.7 232 156.5 L 230.5 156 L 215.5 155 L 212.5 157 L 213 155.5 L 214.5 153 Z "/>
    <path fill="#f783ac" d="M 231.5 158 L 234 163.5 L 233 163.5 L 231.5 158 Z "/>
    <path fill="#f783ac" d="M 142.5 182 Q 147 181 148 183.5 L 142.5 184 L 137 188.5 Q 132.9 191.9 132.5 199 L 132 192.5 L 139.5 184 L 142.5 182 Z "/>
    <path fill="#f783ac" d="M 286.5 196 L 293 197 L 298 207.5 L 295.5 209 L 296 207.5 L 290.5 198 Q 285.9 198.8 286.5 196 Z "/>
    <path fill="#f783ac" d="M 237.5 238 L 238 244.5 L 237 244.5 L 237.5 238 Z "/>
    <path fill="#f783ac" d="M 131.5 244 L 132 248.5 L 131 248.5 L 131.5 244 Z "/>
    <path fill="#f783ac" d="M 172.5 244 L 173 245.5 L 173 247.5 L 174.5 250 L 179.5 250 L 187 253 L 190 259.5 L 190 263.5 L 185.5 271 Q 182.6 273.6 176.5 273 L 169 268.5 Q 166.3 265.2 167 258.5 L 172.5 244 Z "/>
    <path fill="#f783ac" d="M 132.5 272 L 133 275.5 L 132 279.5 L 134 285.5 L 138 291 L 146 294.5 L 141.5 295 L 134 288.5 L 130 280.5 L 130 276.5 L 132.5 272 Z "/>
    <path fill="#f783ac" d="M 247.5 275 L 246.5 277 L 244.5 278 L 245.5 276 L 247.5 275 Z "/>
    <path fill="#f783ac" d="M 256.5 301 L 262 301.5 L 256.5 302 L 256.5 301 Z "/>
    <path fill="#f783ac" d="M 193.5 324 L 196.5 328 Q 206.7 329.7 210.5 325 L 211 327.5 Q 206.4 331.4 196.5 330 L 194 328.5 Q 196.5 327 193 325.5 L 193.5 324 Z "/>
  </g>
  <g id="line">
    <path fill="#1a1a1a" d="M 250.5 52 Q 260.6 50.4 263 56.5 Q 265.3 59.7 264 66.5 L 261 74.5 L 252 89.5 L 251 94.5 L 260 86.5 L 269.5 75 Q 272.4 71.4 280.5 73 L 286 77.5 Q 288.8 80.2 288 86.5 Q 282.9 103.9 270.5 114 L 263.5 119 L 249.5 125 L 242 131.5 Q 236.5 138 237 150.5 L 242 163.5 L 248 172 L 266.5 185 L 278.5 189 L 288.5 189 Q 300.4 186.4 306 177.5 L 310 166.5 L 310 154.5 L 312 145.5 L 322 128 L 324 128 Q 322.9 125.3 325.5 126 Q 330.3 119.3 342.5 120 L 349 124.5 Q 352.2 127.8 351 135.5 L 348 141.5 L 335 156.5 L 333 161.5 L 333 166.5 L 335.5 169 L 342.5 170 L 346 172 Q 348 175 347 182.5 L 348.5 184 L 350.5 185 L 363.5 185 Q 367.2 181.7 375.5 183 L 382 187.5 L 383 196.5 Q 381.6 202.6 376.5 205 L 363.5 210 L 351.5 210 L 343.5 208 L 328.5 201 L 319.5 201 Q 308.3 204.8 302 213.5 L 295 226.5 L 293 237.5 L 293 256.5 L 295 262.5 L 295 267.5 L 299 278.5 L 313.5 299 L 316.5 301 Q 326.3 311.2 339.5 318 L 370.5 332 L 388.5 342 Q 407.8 353.8 422 370.5 L 434 386.5 L 446.5 408 L 465.5 412 L 476 416.5 L 477 418.5 L 474.5 422 L 453.5 416 L 445.5 415 L 439.5 422 L 435.5 425 L 426.5 426 L 425 427.5 L 424 445.5 L 423 446.5 L 423 458.5 L 422 461 L 419.5 462 L 416 459.5 L 418 425.5 L 414 421.5 L 406 406.5 L 393 389 Q 390.3 390.1 391 387.5 L 367.5 369 L 313.5 342 Q 294.5 330 279.5 314 L 266.5 309 L 254.5 309 Q 253 311.5 247.5 310 L 229.5 316 L 219 325.5 Q 213.7 332.7 214 345.5 L 217 355.5 L 223.5 362 L 242.5 372 L 252 380.5 Q 260.3 387.7 259 404.5 L 253.5 412 Q 250.2 415.2 242.5 414 L 237 410.5 L 235 407.5 L 224.5 394 L 221.5 392 L 198.5 385 L 191 390.5 L 189 394.5 L 188 405.5 L 185 416.5 L 179.5 422 L 171.5 423 L 166 419.5 L 162 410.5 L 161 401.5 Q 163.8 399.7 162 393.5 L 168 378.5 L 188 356.5 L 190 351.5 L 190 337.5 Q 188 325 179.5 319 L 165.5 312 L 153.5 303 L 140.5 302 Q 130.4 304.4 125 311.5 L 120 323.5 L 120 347.5 L 118 358.5 Q 113.8 374.3 102.5 383 Q 99.3 386.8 91.5 386 L 84 380.5 Q 80.5 376.5 82 367.5 L 95 335.5 L 92.5 335 L 77.5 348 Q 73.1 351.1 64.5 350 L 61 347.5 Q 58 344.5 59 337.5 L 61 332.5 L 71.5 322 L 82 314.5 L 81.5 312 L 72.5 312 L 60.5 315 L 47.5 315 L 43 311.5 L 42 303.5 L 46.5 298 L 59.5 292 L 81.5 291 L 93.5 294 L 99.5 294 Q 114.3 289.8 122 278.5 L 126 269.5 L 126 260.5 L 124 251.5 L 124 241.5 L 126 230.5 L 129 222.5 L 129 209.5 Q 124.8 195.8 114.5 188 L 111.5 186 L 102.5 185 L 89.5 189 L 78.5 190 L 77.5 189 L 69.5 189 L 59.5 186 Q 49.2 181.8 42 174.5 Q 36.5 170 37 159.5 L 42.5 153 L 50.5 152 L 71.5 162 L 86.5 162 L 92 159 L 93 153.5 L 91 145.5 L 81 127.5 L 81 122.5 L 84.5 120 L 88.5 122 L 100.5 134 L 108.5 137 L 114 132.5 L 115 130.5 L 115 117.5 L 109 101.5 L 109 95.5 Q 110.5 89 115.5 86 L 125.5 86 L 130 89 Q 140.1 100.6 139 124.5 L 136 137.5 L 130 150.5 L 130 158.5 Q 132.4 167.5 139.5 172 Q 145 177 157.5 175 L 174.5 166 L 195.5 161 L 207 151.5 L 212 141.5 L 213 132.5 L 211 126.5 Q 199.5 118 192 105.5 L 185 87.5 L 184 74.5 L 187 61.5 L 191.5 56 L 200.5 55 L 207 60.5 L 209 65.5 L 210 79.5 L 212 88.5 L 216 96 L 218 96 Q 216.9 98.7 219.5 98 L 224.5 99 L 231 90.5 L 239 64.5 L 245.5 55 L 250.5 52 Z M 253 59 L 251 60 L 245 69 L 240 87 L 233 101 L 226 106 L 219 106 L 213 103 Q 207 96 204 86 L 203 69 L 201 64 L 197 61 L 193 65 L 191 73 L 192 88 L 196 99 Q 204 112 216 122 L 219 128 Q 218 132 220 134 L 219 143 L 213 156 Q 208 163 199 167 L 176 173 L 166 179 L 151 183 Q 149 181 144 182 L 134 176 Q 125 170 123 158 L 124 148 L 129 138 L 132 126 L 132 112 L 130 103 L 127 97 Q 126 92 119 93 L 116 97 L 117 105 L 122 118 L 122 130 L 119 138 L 113 143 L 104 143 L 96 140 L 99 148 Q 101 158 97 163 L 94 166 L 86 169 Q 75 170 69 168 L 50 159 L 44 160 Q 43 166 46 169 Q 51 176 61 179 L 76 183 L 90 182 L 102 178 L 109 178 L 121 184 L 131 196 L 136 210 L 136 224 L 133 231 L 131 241 Q 129 254 133 262 L 132 274 L 125 286 Q 117 296 104 300 L 90 300 L 89 299 L 73 298 L 72 297 L 71 298 L 60 299 L 53 302 Q 48 303 49 308 L 54 309 L 75 305 L 83 306 L 89 311 L 88 318 Q 83 325 74 329 L 66 338 L 66 343 L 69 344 L 78 340 Q 84 331 95 326 Q 99 326 101 330 L 100 342 L 89 369 Q 87 377 92 379 Q 98 380 101 376 Q 108 369 111 359 L 114 345 L 114 320 L 121 306 Q 128 298 140 295 Q 150 294 157 297 L 171 307 Q 180 309 186 315 Q 192 321 195 330 L 197 339 L 197 350 L 195 358 L 190 366 L 186 369 Q 172 379 168 399 L 169 412 L 173 416 L 178 415 L 180 412 L 182 395 L 185 388 L 196 379 L 203 379 Q 208 383 217 383 L 230 389 L 240 404 L 247 408 L 250 407 L 252 404 Q 254 392 248 387 L 241 379 L 218 366 Q 210 361 208 352 L 208 335 L 209 330 L 214 321 Q 220 312 231 308 L 255 302 Q 273 301 284 308 Q 298 323 316 335 L 373 364 L 394 380 L 405 393 L 423 420 L 429 420 L 437 416 L 439 412 Q 430 390 415 374 Q 401 358 384 347 L 336 324 L 313 308 Q 301 298 294 284 L 288 268 L 287 256 L 286 255 L 286 241 L 287 240 L 288 226 L 298 207 Q 306 198 319 194 L 333 195 Q 341 201 353 203 Q 367 205 374 199 L 377 195 Q 377 191 375 190 Q 367 189 363 192 Q 352 193 346 190 Q 339 188 340 178 L 339 176 L 332 175 L 326 168 L 326 162 L 329 154 L 344 135 Q 345 128 342 127 L 336 127 L 330 131 Q 323 136 320 145 L 316 161 L 316 172 L 312 182 L 304 190 L 292 196 L 279 196 L 269 193 Q 256 189 248 180 L 235 166 L 231 156 Q 233 150 230 149 Q 230 134 237 127 L 245 120 Q 257 116 266 109 Q 276 101 281 87 L 280 82 Q 281 79 275 80 L 263 94 Q 259 101 251 103 Q 245 104 244 100 L 245 89 L 257 67 L 257 61 Q 256 58 253 59 Z "/>
    <path fill="#1a1a1a" d="M 248.5 219 L 258 222 L 265 235.5 L 265 250.5 Q 261.4 266.4 249.5 274 L 239.5 279 L 226.5 280 L 222.5 279 L 216 274.5 Q 212.8 271.2 214 263.5 L 218.5 258 L 232.5 253 L 237 248.5 Q 239.7 244.7 238 236.5 Q 235.5 235 237 229.5 L 241.5 222 L 248.5 219 Z M 246 225 L 242 230 L 242 235 L 244 241 Q 244 250 239 255 Q 233 260 223 262 Q 218 263 219 270 L 227 275 Q 241 276 248 269 Q 257 262 260 250 Q 262 236 257 230 Q 255 224 246 225 Z "/>
    <path fill="#1a1a1a" d="M 176.5 242 Q 179.8 240.9 179 243.5 L 188.5 248 L 192 251.5 L 195 257.5 L 195 264.5 Q 193.4 271.5 188.5 275 Q 184 279.5 173.5 278 L 164 270.5 L 161 260.5 L 163 252.5 L 166.5 249 L 170 250.5 L 167 258.5 L 167 263.5 L 171.5 271 Q 174.4 273.6 180.5 273 L 187 269.5 Q 190.7 266.7 190 259.5 L 187 253 L 179.5 250 L 174.5 250 L 173 248.5 Q 172 244 174.5 243 L 176.5 242 Z "/>
  </g>
</svg>
