<svg xmlns="http://www.w3.org/2000/svg" width="512" height="512" viewBox="0 0 512 512">
  <g id="color">
    <path fill="#ffffff" d="M 266.5 36 L 307 36.5 L 266.5 37 L 266.5 36 Z "/>
    <path fill="#ffffff" d="M 248.5 37 L 263 37.5 L 248.5 38 L 248.5 37 Z "/>
    <path fill="#ffffff" d="M 308.5 37 L 315 37.5 L 308.5 38 L 308.5 37 Z "/>
    <path fill="#ffffff" d="M 227.5 38 L 243 38.5 L 227.5 39 L 227.5 38 Z "/>
    <path fill="#ffffff" d="M 209.5 39 L 216 39.5 L 209.5 40 L 209.5 39 Z "/>
    <path fill="#ffffff" d="M 324.5 40 L 331 42.5 L 329.5 43 L 324.5 41 L 324.5 40 Z "/>
    <path fill="#ffffff" d="M 186.5 44 L 188 44.5 L 184.5 46 L 184.5 45 L 186.5 44 Z "/>
    <path fill="#ffffff" d="M 169.5 59 L 169 60.5 L 167.5 64 L 167 62.5 L 169.5 59 Z "/>
    <path fill="#ffffff" d="M 347.5 63 L 349 67.5 L 348 67.5 L 347.5 63 Z "/>
    <path fill="#ffffff" d="M 164.5 73 L 165 77.5 L 164 77.5 L 164.5 73 Z "/>
    <path fill="#ffffff" d="M 163.5 79 L 164 84.5 L 163 84.5 L 163.5 79 Z "/>
    <path fill="#ffffff" d="M 351.5 80 L 352 84.5 L 351 84.5 L 351.5 80 Z "/>
    <path fill="#ffffff" d="M 352.5 87 L 353 95.5 L 352 95.5 L 352.5 87 Z "/>
    <path fill="#ffffff" d="M 162.5 88 L 163 94.5 L 162 94.5 L 162.5 88 Z "/>
    <path fill="#ffffff" d="M 353.5 99 L 354 111.5 L 353 111.5 L 353.5 99 Z "/>
    <path fill="#ffffff" d="M 161.5 107 L 162 142.5 L 161 142.5 L 161.5 107 Z "/>
    <path fill="#ffffff" d="M 354.5 120 L 355 143.5 L 354 143.5 L 354.5 120 Z "/>
    <path fill="#ffffff" d="M 162.5 162 L 163 177.5 L 162 177.5 L 162.5 162 Z "/>
    <path fill="#ffffff" d="M 163.5 189 L 164 208.5 L 163 208.5 L 163.5 189 Z "/>
    <path fill="#ffffff" d="M 164.5 212 L 165 232.5 L 164 232.5 L 164.5 212 Z "/>
    <path fill="#ffffff" d="M 355.5 217 L 356 242.5 L 355 242.5 L 355.5 217 Z "/>
    <path fill="#ffffff" d="M 165.5 241 L 166 270.5 L 165 270.5 L 165.5 241 Z "/>
    <path fill="#ffffff" d="M 356.5 250 L 357 266.5 L 356 266.5 L 356.5 250 Z "/>
    <path fill="#ffffff" d="M 366.5 269 L 378 269.5 L 366.5 270 L 366.5 269 Z "/>
    <path fill="#ffffff" d="M 395.5 269 L 401 269.5 L 395.5 270 L 395.5 269 Z "/>
    <path fill="#ffffff" d="M 164.5 275 L 165 277 L 123 276.5 L 163.5 276 L 164.5 275 Z "/>
    <path fill="#ffffff" d="M 111.5 277 L 116 277.5 L 111.5 278 L 111.5 277 Z "/>
    <path fill="#ffffff" d="M 97.5 281 L 99 281.5 L 93.5 285 L 95.5 282 L 97.5 281 Z "/>
    <path fill="#ffffff" d="M 426.5 289 L 427 299.5 L 426 299.5 L 426.5 289 Z "/>
    <path fill="#ffffff" d="M 86.5 292 L 87 293.5 L 85.5 299 L 85 294.5 L 86.5 292 Z "/>
    <path fill="#ffffff" d="M 85.5 300 L 87 309.5 L 86 309.5 L 85.5 300 Z "/>
    <path fill="#ffffff" d="M 89.5 316 L 93 321.5 L 91 320.5 L 89.5 316 Z "/>
    <path fill="#ffffff" d="M 93.5 323 L 96 326.5 L 94 325.5 L 93.5 323 Z "/>
    <path fill="#ffffff" d="M 412.5 327 L 411 329.5 L 408.5 333 L 410 330.5 L 412.5 327 Z "/>
    <path fill="#ffffff" d="M 96.5 328 L 101 333.5 L 98 331.5 L 96.5 328 Z "/>
    <path fill="#ffffff" d="M 227.5 465 L 231 467.5 L 229.5 467 L 227.5 465 Z "/>
    <path fill="#ffffff" d="M 232.5 468 L 241 472.5 L 239.5 473 L 233.5 470 L 232.5 468 Z "/>
    <path fill="#ffffff" d="M 276.5 470 L 275.5 472 L 272.5 473 L 272.5 472 L 276.5 470 Z "/>
    <path fill="#ffffff" d="M 249.5 475 L 255 475.5 L 249.5 476 L 249.5 475 Z "/>
    <path fill="#ffffff" d="M 256.5 475 L 264 475.5 L 256.5 476 L 256.5 475 Z "/>
    <path fill="#4da3ff" d="M 267.5 51 L 303.5 51 Q 305.3 53.8 311.5 52 L 313 53.5 L 322 79.5 L 322 88.5 L 324 99.5 L 324 143.5 Q 321.7 144.8 323 149.5 L 323 151.5 L 322 234.5 L 323 235.5 L 323 248.5 L 324 249.5 L 324 251.5 L 324 256.5 L 328 271.5 L 333.5 279 L 342.5 283 L 348.5 283 L 356.5 285 L 369.5 285 L 370.5 284 L 397.5 284 L 398.5 287 L 401.5 286 L 401.5 288 L 406.5 289 L 409.5 288 Q 412.7 290.3 412 296.5 L 408.5 306 Q 407.3 303.8 406 306.5 Q 407 310.3 404 309 L 405 306.5 L 404 302 L 400 303.5 L 401.5 306 Q 404.5 305.2 403 309 Q 400.3 307.9 401 310.5 L 403 314.5 L 395.5 325 L 390.5 324 L 389 327.5 L 390 329.5 Q 388 333.2 386 331.5 Q 387.3 336.8 384.5 338 L 382 339.5 L 375.5 347 L 375 345 L 372 345 Q 373.3 342 369.5 343 L 367 342 L 367 344 Q 369.7 342.9 369 345.5 L 369.5 347 L 367 347 Q 368 344 365 345 L 365 348.5 L 361 355.5 L 366 356.5 L 361.5 362 L 356 362.5 L 359 363 L 355.5 368 L 356 364.5 L 354.5 361 L 346 370.5 L 346.5 372 L 342 375.5 L 341 378.5 L 343 377.5 L 343.5 376 L 345 379.5 L 343 383 L 339.5 381 L 339 382.5 L 340 385 L 337.5 386 L 336.5 384 L 333 391 L 330 391 Q 331.5 394.7 328.5 394 L 327 396.5 L 328 398.5 L 323 402.5 Q 323.8 404.8 321.5 404 L 298 433 Q 295.3 431.9 296 434.5 L 293.5 438 L 291 439.5 L 287.5 444 L 282 448.5 L 281.5 450 L 280 449.5 Q 280.8 451.8 278.5 451 L 270.5 458 L 256.5 462 L 244.5 459 L 235.5 454 L 209 430.5 Q 209.8 428.3 207.5 429 L 200.5 421 Q 198.3 421.8 199 419.5 L 195 417 Q 196.1 414.3 193.5 415 L 187 407 L 184 405.5 L 184 404 L 182 404 Q 183.1 401.3 180.5 402 L 175 395 L 169 390.5 L 159.5 380 Q 157.3 380.8 158 378.5 L 142.5 361 L 140 359.5 L 134.5 352 Q 132.3 352.8 133 350.5 L 104 314.5 L 100 304.5 L 100 297.5 L 107.5 293 L 125.5 292 L 126.5 291 L 167.5 291 L 173.5 289 L 176 286.5 L 180 271.5 Q 177.7 270.3 179 265.5 L 180 264.5 L 180 230.5 L 179 229.5 L 178 185.5 L 177 184.5 L 176 102.5 L 177 101.5 L 177 86.5 L 180 75.5 L 180 70.5 L 182 65 Q 184.7 66.1 184 63.5 L 189.5 59 L 201.5 55 L 230.5 54 L 231.5 53 L 233.5 53 L 255.5 53 L 256.5 52 L 266.5 52 L 267.5 51 Z M 248 158 L 245 162 L 238 166 L 232 177 Q 231 186 234 192 L 242 198 Q 244 197 243 200 L 245 199 L 253 201 Q 254 199 259 200 L 264 197 Q 270 193 272 184 Q 274 174 270 170 Q 271 167 269 168 L 267 166 L 258 159 L 248 158 Z M 256 223 L 241 227 Q 238 226 239 229 L 237 230 L 233 235 Q 235 240 231 239 L 225 256 L 225 272 L 225 274 L 233 290 L 241 295 L 251 298 L 259 298 L 267 296 L 275 291 L 283 281 L 287 269 L 287 254 L 284 244 L 278 233 L 273 229 Q 270 230 271 228 L 270 226 L 256 223 Z M 391 292 Q 389 297 392 300 Q 391 303 394 302 L 394 300 L 399 303 L 400 299 L 394 298 L 395 296 Q 400 298 399 294 Q 398 291 397 293 Q 392 294 391 292 Z M 383 319 L 378 329 L 382 330 L 383 332 L 385 329 Q 386 326 383 327 L 382 325 L 383 322 L 383 319 Z M 371 338 L 369 341 L 370 342 L 372 341 L 371 338 Z M 358 357 L 357 359 L 362 359 L 358 357 Z "/>
    <path fill="#4da3ff" d="M 328.5 60 L 333 66.5 L 333 69.5 L 329.5 76 L 327 62.5 L 328.5 60 Z "/>
    <path fill="#4da3ff" d="M 333.5 84 L 337 85.5 L 338 105 L 333 105 L 333 102.5 L 333 100.5 L 332 93.5 L 334 90.5 L 333 86.5 L 333.5 84 Z "/>
    <path fill="#4da3ff" d="M 334.5 114 Q 338.2 116.8 337.5 124 L 340 123 L 339.5 134 L 338.5 129 L 338 133 L 336 133 L 336 126.5 L 334 125.5 L 334 118.5 L 333 116.5 L 334.5 114 Z "/>
    <path fill="#4da3ff" d="M 334.5 134 L 338 135.5 L 337.5 155 L 337 142.5 L 335.5 140 L 334 140.5 L 334.5 134 Z "/>
    <path fill="#4da3ff" d="M 339.5 139 L 340 148.5 L 339 148.5 L 339.5 139 Z "/>
    <path fill="#4da3ff" d="M 336 159 Q 339.5 157.9 338 165.5 Q 335 166.8 336 171 L 338 171.5 L 338 178.5 L 335 179.5 L 334.5 192 L 333 185.5 L 334 183.5 L 332 175.5 L 334.5 163 L 335 166 Q 338.7 167.3 337 161.5 L 336 159 Z "/>
    <path fill="#4da3ff" d="M 337.5 182 L 338 191.5 L 337 191.5 L 336 187.5 L 336 185.5 L 337.5 182 Z "/>
    <path fill="#4da3ff" d="M 335.5 203 L 339 208.5 L 339 229 Q 336.3 227.9 337 230.5 L 334.5 234 L 332 228.5 L 333 223.5 L 333 221.5 L 334 219.5 L 332 219 L 333 215.5 Q 330.8 214.3 332 209.5 L 336 204.5 L 335.5 203 Z "/>
    <path fill="#4da3ff" d="M 340.5 245 L 341 257.5 L 342 258.5 L 340 263 L 337 264.5 L 336.5 267 L 333 253 L 335 253 Q 333.5 249.2 336.5 250 L 338 250.5 L 338.5 249 L 339.5 253 L 340.5 245 Z "/>
    <path fill="#4da3ff" d="M 252 250 Q 256.7 249 258 252.5 L 261 261.5 L 259 267 L 255.5 269 L 251.5 269 Q 248.1 266.4 249 259.5 L 252 250 Z "/>
    <path fill="#4da3ff" d="M 340.5 266 L 341 269 Q 336.9 270.3 338 267 L 340.5 266 Z "/>
    <path fill="#ffd43b" d="M 250.5 166 Q 260.6 165.9 264 172.5 L 265 182.5 Q 263.8 188.3 259.5 191 Q 256 194.5 248.5 194 L 241 189.5 Q 237.7 185.8 239 177.5 L 246.5 168 L 250.5 166 Z "/>
    <path fill="#ff6b6b" d="M 248 231 L 256.5 232 L 262 231 Q 260.9 233.7 263.5 233 L 265 232.5 L 264.5 234 L 266.5 233 L 270 235.5 L 269.5 237 L 273 238.5 L 272.5 240 L 275 241.5 L 274 242.5 L 278 246.5 L 277 248.5 L 279 249 L 278 253.5 L 279 253.5 L 279.5 252 L 280 254.5 L 279 256.5 L 280 259.5 L 279 261.5 L 280 263.5 L 279 265.5 L 279 267.5 L 280 269.5 Q 277.9 278.9 271.5 284 L 269 284.5 Q 271.3 285.8 268.5 287 L 267 286.5 Q 267.8 288.8 265.5 288 L 263.5 288 L 260.5 290 Q 259 287.5 257.5 291 Q 248.5 292 244 288.5 L 244.5 287 L 242.5 288 L 239.5 284 Q 238.2 286.3 237 283.5 L 237 281 Q 234.3 282.1 235 279.5 Q 232 276.5 232 270.5 Q 234.5 269 231 267.5 L 233 260.5 L 232 256.5 L 232.5 254 L 234 254.5 L 233 251.5 L 235 251.5 L 236 248.5 L 235.5 247 L 237 246.5 L 236 244.5 L 238 244.5 L 237 242.5 L 240 238 Q 242.7 239.1 242 236.5 L 243 233 L 245.5 232 L 248 233 L 248 231 Z M 253 242 L 247 246 L 247 248 L 245 248 L 246 250 L 244 251 L 244 253 L 242 256 L 243 259 L 243 260 L 242 258 L 241 266 L 243 265 L 244 270 L 243 272 L 245 271 L 244 273 L 250 276 Q 256 274 258 277 L 258 275 L 261 276 L 263 273 Q 262 270 265 271 Q 267 270 265 269 L 267 269 L 266 267 L 267 265 Q 269 257 266 254 L 267 252 Q 264 253 265 251 L 265 249 L 261 245 Q 258 246 259 244 L 258 244 L 253 242 Z "/>
    <path fill="#66d9e8" d="M 278.5 49 L 309.5 50 L 314 52.5 Q 321 65.5 324 82.5 L 325 99.5 L 326 100.5 L 326 137.5 L 325 138.5 L 325 167.5 L 324 168.5 L 324 239.5 L 325 240.5 L 325 252.5 L 328 266.5 Q 329.8 274.2 335.5 278 L 338.5 280 L 348.5 281 L 354.5 283 L 370.5 283 L 371.5 282 L 397.5 282 L 407.5 285 L 413 289.5 L 414 297.5 L 411 306.5 L 402 320.5 L 374 354 Q 371.3 352.9 372 355.5 L 318 412.5 L 290.5 444 L 270.5 460 L 261.5 463 L 251.5 463 L 242.5 460 L 229.5 452 L 162 385.5 Q 162.8 383.3 160.5 384 L 148.5 370 Q 146.3 370.8 147 368.5 Q 122.8 344.2 103 315.5 L 98 304.5 L 98 297.5 L 103.5 293 L 114.5 290 L 139.5 290 L 144.5 289 L 149.5 290 L 150.5 289 L 169.5 289 L 175 284.5 L 178 272.5 L 178 227.5 L 177 226.5 L 176 180.5 L 175 179.5 L 174 108.5 L 175 107.5 L 176 81.5 L 180 65.5 L 183.5 61 Q 191.5 55 203.5 53 L 233.5 52 L 234.5 51 L 254.5 51 L 255.5 50 L 277.5 50 L 278.5 49 Z M 268 51 L 267 52 L 257 52 L 256 53 L 234 53 L 232 53 L 231 54 L 202 55 L 190 59 L 184 64 Q 185 66 182 65 L 180 71 L 180 76 L 177 87 L 177 102 L 176 103 L 177 185 L 178 186 L 179 230 L 180 231 L 180 265 L 179 266 Q 178 270 180 272 L 176 287 L 174 289 L 168 291 L 127 291 L 126 292 L 108 293 L 100 298 L 100 305 L 104 315 L 133 351 Q 132 353 135 352 L 140 360 L 143 361 L 158 379 Q 157 381 160 380 L 169 391 L 175 395 L 181 402 Q 183 401 182 404 L 184 404 L 184 406 L 187 407 L 194 415 Q 196 414 195 417 L 199 420 Q 198 422 201 421 L 208 429 Q 210 428 209 431 L 236 454 L 245 459 L 257 462 L 271 458 L 279 451 Q 281 452 280 450 L 282 450 L 282 449 L 288 444 L 291 440 L 294 438 L 296 435 Q 295 432 298 433 L 322 404 Q 324 405 323 403 L 327 400 L 328 398 L 325 399 L 329 394 Q 331 395 330 391 L 333 391 L 338 383 L 337 385 L 338 386 L 340 385 L 339 383 L 340 381 L 343 383 L 345 380 L 344 376 L 343 378 L 340 380 L 342 376 L 347 372 L 346 371 L 355 361 L 356 363 Q 357 361 362 362 L 366 357 L 361 356 L 362 354 L 361 354 L 360 352 L 363 353 Q 366 350 365 345 Q 368 344 367 347 L 370 347 L 369 346 Q 370 343 367 344 Q 366 341 369 342 L 370 339 L 372 340 Q 373 342 371 341 L 370 343 Q 373 342 372 345 L 375 345 L 376 347 L 382 340 L 386 337 Q 387 332 385 331 L 388 332 L 390 330 L 389 328 L 391 324 L 396 325 L 403 315 L 401 311 Q 400 308 403 309 Q 404 305 402 306 L 400 304 L 404 302 L 405 307 L 404 309 Q 407 310 406 307 Q 407 304 409 306 L 412 297 Q 413 290 410 288 L 407 289 L 402 288 L 402 286 L 399 287 L 398 284 L 371 284 L 370 285 L 357 285 L 349 283 L 343 283 L 334 279 L 328 272 L 324 257 L 324 252 L 324 250 L 323 249 L 323 236 L 322 235 L 323 152 L 323 150 Q 322 145 324 144 L 324 100 L 322 89 L 322 80 L 313 54 L 312 52 Q 305 54 304 51 L 268 51 Z M 356 363 L 355 366 Q 357 369 359 365 Q 360 361 356 363 Z "/>
    <path fill="#66d9e8" d="M 321.5 54 L 324.5 54 L 333 61.5 L 336 67.5 L 339 82.5 L 340 101.5 L 341 102.5 L 341 118.5 L 342 119.5 L 342 207.5 L 343 208.5 L 343 245.5 L 344 246.5 L 344 271.5 L 345 273.5 L 341.5 275 L 335 269.5 L 331 257.5 L 330 236.5 L 329 235.5 L 329 172.5 L 330 171.5 L 330 147.5 L 331 146.5 L 331 98.5 L 330 97.5 L 330 85.5 L 327 71.5 L 321.5 54 Z M 329 60 L 327 63 L 330 76 L 333 70 L 333 67 L 329 60 Z M 334 84 L 333 87 L 334 91 L 332 94 L 333 101 L 333 103 L 333 105 L 338 105 L 337 86 L 334 84 Z M 335 114 L 333 117 L 334 119 L 334 126 L 336 127 L 336 133 L 338 133 L 339 129 L 340 134 L 340 123 L 338 124 Q 338 117 335 114 Z M 335 134 L 334 141 L 336 140 L 337 143 L 338 155 L 338 136 L 335 134 Z M 340 139 L 339 149 L 340 149 L 340 139 Z M 336 159 L 337 166 L 338 166 Q 339 158 336 159 Z M 335 163 L 332 176 L 334 184 L 333 186 L 335 192 L 335 180 L 338 179 L 338 172 L 336 171 L 337 167 L 335 166 L 335 163 Z M 338 182 L 336 186 L 336 188 L 337 192 L 338 192 L 338 182 Z M 337 204 L 332 210 Q 331 214 333 216 L 332 219 L 334 220 L 333 222 L 333 224 L 332 229 L 335 234 L 337 231 Q 336 228 339 229 L 339 208 L 338 212 L 337 212 L 338 208 L 337 204 Z M 341 245 L 340 253 L 339 249 L 338 251 L 337 250 Q 334 249 335 253 L 333 253 L 337 267 L 337 265 L 340 263 L 342 259 L 341 258 L 341 245 Z M 341 266 L 338 267 Q 337 270 341 269 L 341 266 Z "/>
    <path fill="#66d9e8" d="M 247.5 158 L 257.5 159 L 267 165.5 L 268.5 168 Q 270.8 167.3 270 169.5 Q 273.7 173.8 272 183.5 Q 270.1 192.6 263.5 197 L 258.5 200 Q 253.7 198.8 252.5 201 L 244.5 199 L 243 199.5 Q 243.8 197.3 241.5 198 L 234 191.5 Q 230.9 186.1 232 176.5 L 238 166 L 245 161.5 L 247.5 158 Z M 247 160 L 247 162 Q 245 166 240 166 L 234 176 L 233 181 Q 233 188 237 193 L 247 199 Q 257 201 262 196 Q 269 191 271 181 L 270 173 L 266 167 L 258 161 L 247 160 Z "/>
    <path fill="#66d9e8" d="M 255.5 223 L 269.5 226 L 271 227.5 Q 270.3 229.8 272.5 229 L 278 233 L 284 243.5 L 287 253.5 L 287 268.5 L 283 280.5 L 274.5 291 L 266.5 296 L 258.5 298 L 250.5 298 L 240.5 295 L 233 289.5 L 225 273.5 L 225 271.5 L 225 255.5 L 231 239 Q 234.7 240.3 233 234.5 L 236.5 230 L 239 228.5 Q 238.3 226.3 240.5 227 L 255.5 223 Z M 255 225 Q 253 228 247 226 L 241 229 L 235 235 L 235 239 L 230 246 L 227 256 L 227 264 L 226 265 L 227 275 L 232 286 Q 238 294 250 296 Q 265 297 273 290 L 281 281 L 285 270 L 285 253 L 279 238 L 269 228 L 255 225 Z "/>
    <path fill="#66d9e8" d="M 252.5 248 Q 257.6 247.4 259 250.5 L 262 256.5 L 262 264.5 L 257.5 270 L 251.5 271 L 248 267.5 L 248 255.5 L 252.5 248 Z M 252 250 L 249 260 Q 248 266 252 269 L 256 269 L 259 267 L 261 262 L 258 253 Q 257 249 252 250 Z "/>
    <path fill="#66d9e8" d="M 390.5 292 Q 391.8 294.3 396.5 293 Q 397.8 290.8 399 293.5 Q 400.4 298.1 394.5 296 L 393.5 298 L 400 298.5 L 399 303 L 393.5 300 L 393.5 302 Q 390.9 302.8 392 299.5 Q 388.8 297.3 390.5 292 Z "/>
    <path fill="#66d9e8" d="M 382.5 319 L 383 321.5 L 382 324.5 L 383 327 Q 385.7 325.9 385 328.5 L 382.5 332 L 382 330 L 378 328.5 L 382.5 319 Z "/>
    <path fill="#66d9e8" d="M 357.5 357 L 362 358.5 L 356.5 359 L 357.5 357 Z "/>
    <path fill="#f783ac" d="M 251.5 231 L 257 231.5 L 251.5 232 L 251.5 231 Z "/>
    <path fill="#f783ac" d="M 262.5 232 L 266 233.5 L 264.5 234 L 262.5 232 Z "/>
    <path fill="#f783ac" d="M 242.5 234 L 243 235.5 L 241.5 238 L 241 235.5 L 242.5 234 Z "/>
    <path fill="#f783ac" d="M 246.5 246 L 246 247.5 L 244.5 250 L 245 248.5 L 246.5 246 Z "/>
    <path fill="#f783ac" d="M 235.5 248 L 235 249.5 L 234.5 252 L 234 249.5 L 235.5 248 Z "/>
    <path fill="#f783ac" d="M 242.5 257 L 242 258.5 L 241.5 266 L 241 258.5 L 242.5 257 Z "/>
  </g>
  <g id="line">
    <path fill="#1a1a1a" d="M 263.5 37 L 307.5 37 Q 309.2 39.8 315.5 38 L 331.5 43 L 342 52.5 L 347 61.5 L 349 68.5 L 352 85.5 L 352 95.5 L 353 96.5 L 354 143.5 L 355 144.5 L 355 242.5 L 356 243.5 L 356 266.5 L 358.5 271 L 360.5 270 L 394.5 269 L 412.5 273 L 423 281.5 Q 427.8 287.7 426 300.5 L 419 317.5 L 408 333.5 L 371 374.5 L 371 376 L 368 377.5 L 310 441.5 L 290.5 461 L 271.5 473 L 255.5 476 L 244.5 474 L 231.5 468 L 203 445 L 203 443.5 L 180.5 421 L 178 419.5 L 176.5 417 L 173 414.5 Q 173.8 412.3 171.5 413 L 167.5 408 Q 165.3 408.8 166 406.5 L 162 404 L 159.5 400 Q 157.3 400.8 158 398.5 L 143.5 383 Q 141.3 383.8 142 381.5 Q 117 356.5 96 327.5 L 88 313.5 L 85 299.5 L 88 289.5 L 92.5 285 L 101.5 280 L 116.5 277 L 165 277 L 166 270.5 L 166 241.5 L 165 240.5 L 165 212.5 L 164 211.5 L 164 189.5 L 163 188.5 L 163 162.5 L 162 161.5 L 162 95.5 L 163 94.5 L 163 85.5 L 164 84.5 L 166 67.5 L 174 52 L 188.5 44 L 205.5 40 L 262.5 38 L 263.5 37 Z M 279 49 L 278 50 L 256 50 L 255 51 L 235 51 L 234 52 L 204 53 Q 192 55 184 61 L 180 66 L 176 82 L 175 108 L 174 109 L 175 180 L 176 181 L 177 227 L 178 228 L 178 273 L 175 285 L 170 289 L 151 289 L 150 290 L 145 289 L 140 290 L 115 290 L 104 293 L 98 298 L 98 305 L 103 316 Q 123 344 147 369 Q 146 371 149 370 L 161 384 Q 163 383 162 386 L 230 452 L 243 460 L 252 463 L 262 463 L 271 460 L 291 444 L 318 413 L 372 356 Q 371 353 374 354 L 402 321 L 411 307 L 414 298 L 413 290 L 408 285 L 398 282 L 372 282 L 371 283 L 355 283 L 349 281 L 339 280 L 336 278 Q 330 274 328 267 L 325 253 L 325 241 L 324 240 L 324 169 L 325 168 L 325 139 L 326 138 L 326 101 L 325 100 L 324 83 Q 321 66 314 53 L 310 50 L 279 49 Z M 322 54 L 327 72 L 330 86 L 330 98 L 331 99 L 331 147 L 330 148 L 330 172 L 329 173 L 329 236 L 330 237 L 331 258 L 335 270 L 342 275 L 345 274 L 344 272 L 344 247 L 343 246 L 343 209 L 342 208 L 342 120 L 341 119 L 341 103 L 340 102 L 339 83 L 336 68 L 333 62 L 325 54 L 322 54 Z "/>
    <path fill="#1a1a1a" d="M 247 160 L 257.5 161 L 266 166.5 L 270 172.5 L 271 180.5 Q 269.3 191.3 261.5 196 Q 257 200.5 246.5 199 L 237 192.5 Q 233.3 188.2 233 180.5 L 234 175.5 L 240 166 Q 244.7 165.6 247 161.5 L 247 160 Z M 251 166 L 247 168 L 239 178 Q 238 186 241 190 L 249 194 Q 256 195 260 191 Q 264 188 265 183 L 264 173 Q 261 166 251 166 Z "/>
    <path fill="#1a1a1a" d="M 254.5 225 L 268.5 228 L 279 237.5 L 285 252.5 L 285 269.5 L 281 280.5 L 272.5 290 Q 265.2 297.2 249.5 296 Q 237.7 293.8 232 285.5 L 227 274.5 L 226 264.5 L 227 263.5 L 227 255.5 L 230 245.5 L 235 238.5 L 235 234.5 L 240.5 229 L 246.5 226 Q 252.8 227.8 254.5 225 Z M 255 230 L 244 233 L 233 252 Q 231 256 232 265 L 231 266 Q 231 277 237 284 Q 242 289 251 291 L 258 291 L 269 287 Q 277 281 280 270 L 280 253 L 273 239 L 265 232 L 255 230 Z "/>
    <path fill="#1a1a1a" d="M 250.5 243 L 256.5 243 L 264 248.5 Q 268.4 253.7 267 264.5 L 261.5 274 Q 257.8 277.3 249.5 276 L 245 272.5 Q 241.8 268.2 242 260.5 L 244 251.5 L 250.5 243 Z M 253 248 L 248 256 L 248 268 L 252 271 L 258 270 L 262 265 L 262 257 L 259 251 Q 258 247 253 248 Z "/>
  </g>
</svg>
