<svg xmlns="http://www.w3.org/2000/svg" width="512" height="512" viewBox="0 0 512 512">
  <g id="color">
    <path fill="#ffffff" d="M 260.5 36 L 269 36.5 L 260.5 37 L 260.5 36 Z "/>
    <path fill="#ffffff" d="M 248.5 37 L 254 37.5 L 248.5 38 L 248.5 37 Z "/>
    <path fill="#ffffff" d="M 281.5 38 L 288 39.5 L 285.5 40 L 281.5 39 L 281.5 38 Z "/>
    <path fill="#ffffff" d="M 292.5 41 L 299 44.5 L 297.5 44 L 292.5 42 L 292.5 41 Z "/>
    <path fill="#ffffff" d="M 214.5 46 L 216 46.5 L 209.5 49 L 209.5 48 L 214.5 46 Z "/>
    <path fill="#ffffff" d="M 302.5 46 L 307 49.5 L 304.5 48 L 302.5 46 Z "/>
    <path fill="#ffffff" d="M 204.5 50 L 206 50.5 L 200.5 53 L 200.5 52 L 204.5 50 Z "/>
    <path fill="#ffffff" d="M 194.5 55 L 193.5 57 L 191.5 58 L 192.5 56 L 194.5 55 Z "/>
    <path fill="#ffffff" d="M 187.5 59 L 186.5 61 L 184.5 62 L 185.5 60 L 187.5 59 Z "/>
    <path fill="#ffffff" d="M 320.5 65 L 324.5 70 L 328 70.5 L 324.5 71 Q 320.4 68.7 320.5 65 Z "/>
    <path fill="#ffffff" d="M 333.5 72 L 338 73.5 L 336.5 74 L 333.5 73 L 333.5 72 Z "/>
    <path fill="#ffffff" d="M 167.5 73 L 156 85.5 L 152.5 90 L 155 86.5 L 167.5 73 Z "/>
    <path fill="#ffffff" d="M 363.5 96 L 367 100.5 L 365 99.5 L 363.5 96 Z "/>
    <path fill="#ffffff" d="M 367.5 102 L 370 107.5 L 369 107.5 L 367.5 102 Z "/>
    <path fill="#ffffff" d="M 143.5 103 L 144 104.5 L 141.5 109 L 141 107.5 L 143.5 103 Z "/>
    <path fill="#ffffff" d="M 139.5 112 L 140 113.5 L 138.5 116 L 138 114.5 L 139.5 112 Z "/>
    <path fill="#ffffff" d="M 372.5 116 L 374 122.5 L 373 122.5 L 372.5 116 Z "/>
    <path fill="#ffffff" d="M 134.5 129 L 135 133.5 L 134 133.5 L 134.5 129 Z "/>
    <path fill="#ffffff" d="M 375.5 133 L 376 149.5 L 375 149.5 L 375.5 133 Z "/>
    <path fill="#ffffff" d="M 133.5 135 L 134 142.5 L 133 142.5 L 133.5 135 Z "/>
    <path fill="#ffffff" d="M 133.5 149 L 134 156.5 L 133 156.5 L 133.5 149 Z "/>
    <path fill="#ffffff" d="M 134.5 158 L 135 162.5 L 134 162.5 L 134.5 158 Z "/>
    <path fill="#ffffff" d="M 369.5 178 L 370 180.5 L 369 184.5 L 369.5 186 Q 367.3 185.3 368 181.5 L 369.5 178 Z "/>
    <path fill="#ffffff" d="M 141.5 185 L 142 187.5 L 139.5 191 L 140 189.5 L 141.5 185 Z "/>
    <path fill="#ffffff" d="M 138.5 192 L 139 193.5 L 137.5 196 L 137 194.5 L 138.5 192 Z "/>
    <path fill="#ffffff" d="M 221.5 193 Q 225.5 192.5 226 195.5 Q 228.8 198.2 228 204.5 L 225.5 206 L 221.5 205 L 217 206 Q 215.1 197.3 219.5 194 L 221.5 193 Z "/>
    <path fill="#ffffff" d="M 288.5 193 Q 293.3 192.3 294 195.5 L 296 204.5 Q 295.3 206.8 291.5 206 L 287.5 205 L 285.5 206 Q 283.3 205.3 284 201.5 L 286 195.5 L 288.5 193 Z "/>
    <path fill="#ffffff" d="M 376.5 203 L 377 208.5 L 376 208.5 L 376.5 203 Z "/>
    <path fill="#ffffff" d="M 137.5 216 L 139 219.5 L 138 219.5 L 137.5 216 Z "/>
    <path fill="#ffffff" d="M 373.5 219 L 374 220.5 L 371.5 224 L 372 222.5 L 373.5 219 Z "/>
    <path fill="#ffffff" d="M 370.5 225 L 370 226.5 L 363.5 234 L 369 227.5 L 370.5 225 Z "/>
    <path fill="#ffffff" d="M 157.5 238 L 162 239.5 L 159.5 240 L 157.5 238 Z "/>
    <path fill="#ffffff" d="M 353.5 238 L 355 238.5 L 350.5 240 L 350.5 239 L 353.5 238 Z "/>
    <path fill="#ffffff" d="M 167.5 246 L 169 251.5 L 168 251.5 L 167.5 246 Z "/>
    <path fill="#ffffff" d="M 171.5 259 L 174 264.5 L 173 264.5 L 171.5 259 Z "/>
    <path fill="#ffffff" d="M 175.5 268 L 178 271.5 L 176 270.5 L 175.5 268 Z "/>
    <path fill="#ffffff" d="M 179.5 275 L 184 280.5 L 181 278.5 L 179.5 275 Z "/>
    <path fill="#ffffff" d="M 194.5 292 L 199 297.5 L 194.5 300 L 194.5 299 L 198 298 L 194.5 292 Z "/>
    <path fill="#ffffff" d="M 316.5 293 L 314 296.5 Q 313.3 298.8 315.5 298 L 318 299.5 L 316.5 300 L 313 297.5 L 316.5 293 Z "/>
    <path fill="#ffffff" d="M 185.5 302 L 187 302.5 L 180.5 305 L 180.5 304 L 185.5 302 Z "/>
    <path fill="#ffffff" d="M 173.5 306 L 175 306.5 L 171.5 308 L 171.5 307 L 173.5 306 Z "/>
    <path fill="#ffffff" d="M 337.5 306 L 341 307.5 L 339.5 308 L 337.5 306 Z "/>
    <path fill="#ffffff" d="M 163.5 310 L 165 310.5 L 161.5 312 L 161.5 311 L 163.5 310 Z "/>
    <path fill="#ffffff" d="M 350.5 311 L 354 312.5 L 352.5 313 L 350.5 311 Z "/>
    <path fill="#ffffff" d="M 158.5 312 L 160 312.5 L 156.5 314 L 156.5 313 L 158.5 312 Z "/>
    <path fill="#ffffff" d="M 357.5 314 L 364 317.5 L 362.5 317 L 357.5 315 L 357.5 314 Z "/>
    <path fill="#ffffff" d="M 151.5 315 L 153 315.5 L 148.5 318 L 149.5 316 L 151.5 315 Z "/>
    <path fill="#ffffff" d="M 365.5 318 L 372 321.5 L 370.5 321 L 365.5 319 L 365.5 318 Z "/>
    <path fill="#ffffff" d="M 375.5 323 L 379 325.5 L 377.5 325 L 375.5 323 Z "/>
    <path fill="#ffffff" d="M 135.5 324 L 134.5 326 L 132.5 327 L 133.5 325 L 135.5 324 Z "/>
    <path fill="#ffffff" d="M 381.5 327 L 386 330.5 L 383.5 329 L 381.5 327 Z "/>
    <path fill="#ffffff" d="M 410.5 356 L 413 359.5 L 411 358.5 L 410.5 356 Z "/>
    <path fill="#ffffff" d="M 100.5 358 L 100 359.5 L 98.5 363 L 98 361.5 L 100.5 358 Z "/>
    <path fill="#ffffff" d="M 414.5 363 L 417 368.5 L 416 368.5 L 414.5 363 Z "/>
    <path fill="#ffffff" d="M 419.5 375 L 421 378.5 L 420 378.5 L 419.5 375 Z "/>
    <path fill="#ffffff" d="M 91.5 378 L 92 379.5 L 90.5 383 L 90 380.5 L 91.5 378 Z "/>
    <path fill="#ffffff" d="M 423.5 387 L 425 392.5 L 424 392.5 L 423.5 387 Z "/>
    <path fill="#ffffff" d="M 83.5 410 L 84 414.5 L 83 414.5 L 83.5 410 Z "/>
    <path fill="#ffffff" d="M 429.5 414 L 430 418.5 L 429 418.5 L 429.5 414 Z "/>
    <path fill="#ffffff" d="M 82.5 416 L 83 421.5 L 82 421.5 L 82.5 416 Z "/>
    <path fill="#ffffff" d="M 81.5 424 L 82 428.5 L 81 428.5 L 81.5 424 Z "/>
    <path fill="#ffffff" d="M 431.5 432 L 432 437.5 L 431 437.5 L 431.5 432 Z "/>
    <path fill="#ffffff" d="M 80.5 434 L 81 444.5 L 80 444.5 L 80.5 434 Z "/>
    <path fill="#ffffff" d="M 80.5 447 L 81 451.5 L 80 451.5 L 80.5 447 Z "/>
    <path fill="#ffffff" d="M 430.5 454 L 431 455.5 L 427.5 460 L 429 457.5 L 430.5 454 Z "/>
    <path fill="#ffffff" d="M 91.5 464 L 97 465.5 L 93.5 466 L 91.5 464 Z "/>
    <path fill="#ffffff" d="M 420.5 464 L 422 464.5 L 416.5 466 L 416.5 465 L 420.5 464 Z "/>
    <path fill="#ffffff" d="M 410.5 466 L 415 466.5 L 410.5 467 L 410.5 466 Z "/>
    <path fill="#ffffff" d="M 105.5 467 L 110 467.5 L 105.5 468 L 105.5 467 Z "/>
    <path fill="#ffffff" d="M 402.5 467 L 407 467.5 L 402.5 468 L 402.5 467 Z "/>
    <path fill="#ffffff" d="M 115.5 468 L 122 468.5 L 115.5 469 L 115.5 468 Z "/>
    <path fill="#ffffff" d="M 390.5 468 L 396 468.5 L 390.5 469 L 390.5 468 Z "/>
    <path fill="#ffffff" d="M 125.5 469 L 133 469.5 L 125.5 470 L 125.5 469 Z "/>
    <path fill="#ffffff" d="M 380.5 469 L 388 469.5 L 380.5 470 L 380.5 469 Z "/>
    <path fill="#ffffff" d="M 135.5 470 L 143 470.5 L 135.5 471 L 135.5 470 Z "/>
    <path fill="#ffffff" d="M 371.5 470 L 379 470.5 L 371.5 471 L 371.5 470 Z "/>
    <path fill="#ffffff" d="M 148.5 471 L 156 471.5 L 148.5 472 L 148.5 471 Z "/>
    <path fill="#ffffff" d="M 361.5 471 L 367 471.5 L 361.5 472 L 361.5 471 Z "/>
    <path fill="#ffffff" d="M 162.5 472 L 172 472.5 L 162.5 473 L 162.5 472 Z "/>
    <path fill="#ffffff" d="M 349.5 472 L 356 472.5 L 349.5 473 L 349.5 472 Z "/>
    <path fill="#ffffff" d="M 178.5 473 L 190 473.5 L 178.5 474 L 178.5 473 Z "/>
    <path fill="#ffffff" d="M 334.5 473 L 344 473.5 L 334.5 474 L 334.5 473 Z "/>
    <path fill="#ffffff" d="M 192.5 474 L 208 474.5 L 192.5 475 L 192.5 474 Z "/>
    <path fill="#ffffff" d="M 321.5 474 L 333 474.5 L 321.5 475 L 321.5 474 Z "/>
    <path fill="#ffffff" d="M 214.5 475 L 228 475.5 L 214.5 476 L 214.5 475 Z "/>
    <path fill="#ffffff" d="M 304.5 475 L 316 475.5 L 304.5 476 L 304.5 475 Z "/>
    <path fill="#ffffff" d="M 244.5 476 L 289 476.5 L 244.5 477 L 244.5 476 Z "/>
    <path fill="#4da3ff" d="M 256.5 50 Q 286.7 47.8 301 61.5 Q 300.3 63.8 302.5 63 L 316.5 82 L 333.5 86 Q 342.4 89.6 348 96.5 L 355 105.5 L 357 113.5 L 360 118.5 Q 359.4 124.6 362 127.5 L 363 146.5 L 362 149.5 Q 362.1 165.6 355.5 175 L 352.5 174 L 350.5 174 Q 344.8 175.8 347 169.5 L 343 150.5 L 337.5 144 Q 321.4 139.9 311 131 L 299.5 113 L 292.5 112 L 284 118 Q 285.1 120.7 282.5 120 L 265.5 131 L 257.5 133 L 255.5 135 L 253.5 135 L 233.5 141 L 219.5 142 L 218.5 143 L 204.5 143 L 202.5 144 L 201.5 143 Q 189.4 144.6 181.5 142 Q 173.2 143.2 170 149.5 L 165 174 L 152 176 L 148 163.5 L 146 142.5 L 147 141.5 L 147 132.5 L 149 123.5 L 157 105.5 Q 165.7 91.2 178.5 81 L 194.5 70 L 212.5 61 L 236.5 53 L 241.5 53 L 247.5 51 L 255.5 51 L 256.5 50 Z "/>
    <path fill="#4da3ff" d="M 292.5 131 L 296 133.5 L 297.5 137 L 300 138.5 L 301.5 141 L 304 142.5 Q 303.3 144.8 305.5 144 L 313.5 150 Q 318.7 154.3 327.5 155 L 330 157.5 L 334 181.5 L 337.5 186 Q 341.5 189.5 350.5 188 L 359 192 L 363 200.5 L 363 212.5 L 358.5 221 L 357 220.5 L 354.5 224 L 345.5 228 L 340.5 228 L 334 233.5 Q 331.4 259.4 317.5 274 Q 315.3 273.3 316 275.5 L 314 279 L 312 279 L 312 281 Q 309.3 279.9 310 282.5 Q 298.2 294.2 280.5 300 L 268.5 303 L 244.5 303 L 225.5 298 L 203 283.5 Q 203.8 281.3 201.5 282 L 195.5 274 Q 193.3 274.8 194 272.5 L 187 263.5 L 183 255.5 L 178 233.5 L 174.5 229 L 160.5 226 L 152 218.5 L 149 210.5 L 149 200.5 L 154.5 191 Q 159.7 186.7 170.5 188 L 177 183.5 L 180 173.5 L 182 157.5 L 183.5 156 L 194.5 158 L 211.5 158 L 213.5 158 L 236.5 155 L 261.5 148 L 282.5 138 L 292.5 131 Z M 222 180 L 213 184 Q 206 189 204 200 L 205 211 L 207 216 L 211 218 L 221 218 L 222 217 Q 226 216 228 218 L 236 217 L 240 210 Q 241 193 234 186 L 228 181 L 222 180 Z M 286 181 L 282 183 L 276 189 L 272 201 L 273 211 L 275 216 L 279 218 L 287 218 L 288 217 L 291 218 L 303 218 L 305 217 L 308 207 L 307 195 L 304 189 L 295 181 L 286 181 Z "/>
    <path fill="#4da3ff" d="M 209.5 307 L 212.5 307 L 222.5 312 L 235.5 316 L 256.5 318 L 258.5 317 L 260.5 317 L 277.5 316 L 299.5 307 L 302.5 307 L 312.5 312 L 332.5 318 L 337.5 321 L 340.5 321 L 360.5 330 L 382.5 344 L 395 356.5 L 405 372.5 L 414 400.5 L 414 405.5 L 418 424.5 L 418 431.5 L 419 432.5 L 419 450.5 L 415.5 453 L 403.5 454 L 402.5 455 L 381.5 456 L 380.5 457 L 371.5 457 L 370.5 458 L 352.5 459 L 351.5 460 L 321.5 461 L 320.5 462 L 308.5 462 L 307.5 463 L 264.5 464 L 262.5 464 L 259.5 463 L 225.5 463 L 224.5 462 L 204.5 462 L 203.5 461 L 154.5 459 L 153.5 458 L 141.5 458 L 140.5 457 L 108.5 455 L 94 452 L 93 449.5 L 93 435.5 L 94 434.5 L 94 426.5 L 96 419.5 L 97 406.5 L 106 375.5 L 117 356.5 L 128.5 345 Q 143.3 332.7 162.5 325 L 197.5 312 L 204 311 Q 202.8 308 206.5 309 L 209.5 307 Z "/>
    <path fill="#66d9e8" d="M 256.5 48 L 272.5 48 L 286.5 51 Q 300 56 308 66.5 L 316.5 80 L 337.5 86 L 352 98.5 L 359 110.5 L 363 124.5 L 364 129.5 L 364 152.5 L 360 173.5 L 357.5 177 L 346 176 L 342 153.5 L 337.5 146 L 321.5 140 Q 311.8 134.8 305 126.5 L 301 117.5 L 297.5 114 L 292.5 114 Q 275 131 248.5 139 L 237.5 142 L 216.5 144 L 215.5 145 L 190.5 145 L 189.5 144 L 179.5 144 L 173 148.5 L 170 154.5 L 167 168.5 L 167 174.5 L 165.5 176 L 159.5 176 L 151.5 178 L 148 170.5 L 145 156.5 L 145 134.5 L 150 115.5 L 155 105.5 Q 164.5 90 178.5 79 L 194.5 68 L 218.5 57 L 242.5 50 L 255.5 49 L 256.5 48 Z M 257 50 L 256 51 L 248 51 L 242 53 L 237 53 L 213 61 L 195 70 L 179 81 Q 166 91 157 106 L 149 124 L 147 133 L 147 142 L 146 143 L 148 164 L 152 176 L 165 174 L 170 150 Q 173 143 182 142 Q 189 145 202 143 L 203 144 L 205 143 L 219 143 L 220 142 L 234 141 L 254 135 L 256 135 L 258 133 L 266 131 L 283 120 Q 285 121 284 118 L 293 112 L 300 113 L 311 131 Q 321 140 338 144 L 343 151 L 347 170 Q 345 176 351 174 L 353 174 L 356 175 Q 362 166 362 150 L 363 147 L 362 128 Q 359 125 360 119 L 357 114 L 355 106 L 348 97 Q 342 90 334 86 L 317 82 L 303 63 Q 300 64 301 62 Q 287 48 257 50 Z "/>
    <path fill="#66d9e8" d="M 291.5 129 Q 295.9 127.5 295 130.5 L 307.5 144 L 321.5 152 L 331 155.5 L 335 173.5 L 335 178.5 L 340.5 186 L 349.5 186 Q 357.1 187.5 361 192.5 L 365 201.5 L 365 210.5 Q 363.1 219.1 357.5 224 Q 351.3 229.3 340.5 230 L 336 233.5 L 334 245.5 L 327 263.5 Q 318.8 277.8 306.5 288 Q 295.3 297.3 279.5 302 L 266.5 305 L 245.5 305 Q 229.7 302.3 217.5 296 Q 205 289 196 278.5 Q 187.9 270.1 183 258.5 Q 177.6 247.9 176 233.5 L 172.5 230 L 158.5 227 L 153 222.5 L 147 210.5 L 147 201.5 L 153.5 190 L 161.5 186 Q 171.6 187.7 175 184 L 177 179.5 L 180 158.5 L 182.5 155 Q 188 153.5 189.5 156 L 215.5 156 L 216.5 155 L 232.5 154 L 256.5 148 L 277.5 139 L 291.5 129 Z M 293 131 L 283 138 L 262 148 L 237 155 L 214 158 L 212 158 L 195 158 L 184 156 L 182 158 L 180 174 L 177 184 L 171 188 Q 160 187 155 191 L 149 201 L 149 211 L 152 219 L 161 226 L 175 229 L 178 234 L 183 256 L 187 264 L 194 273 Q 193 275 196 274 L 202 282 Q 204 281 203 284 L 226 298 L 245 303 L 269 303 L 281 300 Q 298 294 310 283 Q 309 280 312 281 L 312 279 L 314 279 L 316 276 Q 315 273 318 274 Q 331 259 334 234 L 341 228 L 346 228 L 355 224 L 357 221 L 359 221 L 363 213 L 363 201 L 359 192 L 351 188 Q 342 190 338 186 L 334 182 L 330 158 L 328 155 Q 319 154 314 150 L 306 144 Q 303 145 304 143 L 302 141 L 300 139 L 298 137 L 296 134 L 293 131 Z "/>
    <path fill="#66d9e8" d="M 221.5 180 L 227.5 181 L 234 185.5 Q 241.4 193.1 240 209.5 L 235.5 217 L 227.5 218 Q 226.3 215.7 221.5 217 L 220.5 218 L 210.5 218 L 207 215.5 L 205 210.5 L 204 199.5 Q 205.8 189.3 212.5 184 L 221.5 180 Z M 221 182 L 216 184 Q 208 189 206 199 L 206 207 L 208 214 L 213 217 L 216 216 L 235 216 L 238 211 Q 240 197 235 190 Q 231 182 221 182 Z "/>
    <path fill="#66d9e8" d="M 285.5 181 L 294.5 181 L 304 188.5 L 307 194.5 L 308 206.5 L 305 217 L 302.5 218 L 290.5 218 L 287.5 217 L 286.5 218 L 278.5 218 L 275 215.5 L 273 210.5 L 272 200.5 L 276 188.5 L 281.5 183 L 285.5 181 Z M 288 182 L 283 184 Q 276 189 274 199 Q 273 208 276 214 L 279 216 L 296 216 L 297 217 L 303 216 L 306 208 L 306 198 L 302 189 Q 298 182 288 182 Z "/>
    <path fill="#66d9e8" d="M 209.5 305 L 212.5 305 L 221.5 310 L 239.5 315 L 265.5 316 L 284.5 312 L 299.5 305 L 302.5 305 L 314.5 311 L 331.5 316 L 356.5 326 L 387 345 L 388.5 348 L 392 350.5 L 393.5 353 Q 395.8 352.3 395 354.5 L 399 358.5 L 408 375.5 L 414 394.5 L 420 427.5 L 421 449.5 L 417.5 454 L 407.5 456 L 400.5 456 L 399.5 457 L 391.5 457 L 390.5 458 L 368.5 459 L 367.5 460 L 350.5 461 L 349.5 462 L 320.5 463 L 319.5 464 L 300.5 464 L 299.5 465 L 232.5 465 L 231.5 464 L 188.5 463 L 187.5 462 L 170.5 462 L 169.5 461 L 156.5 461 L 155.5 460 L 145.5 460 L 144.5 459 L 120.5 458 L 119.5 457 L 98.5 455 L 94.5 454 L 92 451.5 Q 89.7 448.3 91 441.5 L 92 440.5 L 92 429.5 L 94 421.5 L 94 414.5 L 98 394.5 L 108 367.5 L 121.5 349 Q 134 337.5 149.5 329 L 167.5 322 L 169.5 320 L 197.5 311 L 209.5 305 Z M 210 307 L 207 309 Q 203 308 204 311 L 198 312 L 163 325 Q 143 333 129 345 L 117 357 L 106 376 L 97 407 L 96 420 L 94 427 L 94 435 L 93 436 L 93 450 L 94 452 L 109 455 L 141 457 L 142 458 L 154 458 L 155 459 L 204 461 L 205 462 L 225 462 L 226 463 L 260 463 L 263 464 L 265 464 L 308 463 L 309 462 L 321 462 L 322 461 L 352 460 L 353 459 L 371 458 L 372 457 L 381 457 L 382 456 L 403 455 L 404 454 L 416 453 L 419 451 L 419 433 L 418 432 L 418 425 L 414 406 L 414 401 L 405 373 L 395 357 L 383 344 L 361 330 L 341 321 L 338 321 L 333 318 L 313 312 L 303 307 L 300 307 L 278 316 L 261 317 L 259 317 L 257 318 L 236 316 L 223 312 L 213 307 L 210 307 Z "/>
  </g>
  <g id="line">
    <path fill="#1a1a1a" d="M 254.5 37 L 275.5 37 L 280.5 38 L 291.5 41 L 308 50 Q 306.9 52.7 309.5 52 L 316 58.5 L 324.5 71 L 329.5 71 L 342.5 76 L 358 88.5 Q 367.6 98.9 372 114.5 L 375 129.5 L 375 154.5 L 368 184.5 Q 377.4 192.6 376 211.5 Q 372.8 226.3 362.5 234 Q 356 239.3 346 240 Q 339.7 273.9 317.5 293 L 313 296.5 L 314.5 299 L 347.5 310 L 374.5 323 Q 392.2 333.3 405 348.5 L 414 362.5 L 421 379.5 L 425 393.5 L 430 419.5 L 432 449.5 Q 430.3 457.3 425.5 462 L 419.5 465 L 409.5 467 L 402.5 467 L 401.5 468 L 390.5 468 L 389.5 469 L 380.5 469 L 370.5 471 L 321.5 474 L 320.5 475 L 304.5 475 L 303.5 476 L 228.5 476 L 227.5 475 L 208.5 475 L 207.5 474 L 156.5 472 L 155.5 471 L 143.5 471 L 132.5 469 L 102.5 467 L 90.5 464 L 83 457.5 L 81 453.5 L 80 445.5 L 81 444.5 L 81 429.5 L 82 428.5 L 85 402.5 L 94 371.5 Q 102.9 348.9 120.5 335 Q 136 322.5 155.5 314 L 175.5 306 L 195.5 300 L 199 297.5 L 194.5 292 L 188 286.5 L 175 267.5 L 169 252.5 L 167 242.5 L 164.5 240 Q 150 237.5 143 227.5 L 137 215.5 L 136 200.5 L 142 185.5 L 136 169.5 L 133 143.5 L 134 142.5 L 134 134.5 L 135 133.5 L 136 122.5 L 145 100.5 Q 154.8 84.8 168.5 73 L 181.5 63 L 208.5 49 L 228.5 42 L 254.5 37 Z M 257 48 L 256 49 L 243 50 L 219 57 L 195 68 L 179 79 Q 165 90 155 106 L 150 116 L 145 135 L 145 157 L 148 171 L 152 178 L 160 176 L 166 176 L 167 175 L 167 169 L 170 155 L 173 149 L 180 144 L 190 144 L 191 145 L 216 145 L 217 144 L 238 142 L 249 139 Q 275 131 293 114 L 298 114 L 301 118 L 305 127 Q 312 135 322 140 L 338 146 L 342 154 L 346 176 L 358 177 L 360 174 L 364 153 L 364 130 L 363 125 L 359 111 L 352 99 L 338 86 L 317 80 L 308 67 Q 300 56 287 51 L 273 48 L 257 48 Z M 292 129 L 278 139 L 257 148 L 233 154 L 217 155 L 216 156 L 190 156 Q 188 154 183 155 L 180 159 L 177 180 L 175 184 Q 172 188 162 186 L 154 190 L 147 202 L 147 211 L 153 223 L 159 227 L 173 230 L 176 234 Q 178 248 183 259 Q 188 270 196 279 Q 205 289 218 296 Q 230 302 246 305 L 267 305 L 280 302 Q 295 297 307 288 Q 319 278 327 264 L 334 246 L 336 234 L 341 230 Q 351 229 358 224 Q 363 219 365 211 L 365 202 L 361 193 Q 357 187 350 186 L 341 186 L 335 179 L 335 174 L 331 156 L 322 152 L 308 144 L 295 131 Q 296 127 292 129 Z M 210 305 L 198 311 L 170 320 L 168 322 L 150 329 Q 134 337 122 349 L 108 368 L 98 395 L 94 415 L 94 422 L 92 430 L 92 441 L 91 442 Q 90 448 92 452 L 95 454 L 99 455 L 120 457 L 121 458 L 145 459 L 146 460 L 156 460 L 157 461 L 170 461 L 171 462 L 188 462 L 189 463 L 232 464 L 233 465 L 300 465 L 301 464 L 320 464 L 321 463 L 350 462 L 351 461 L 368 460 L 369 459 L 391 458 L 392 457 L 400 457 L 401 456 L 408 456 L 418 454 L 421 450 L 420 428 L 414 395 L 408 376 L 399 359 L 395 355 Q 396 352 394 353 L 392 351 L 389 348 L 387 345 L 357 326 L 332 316 L 315 311 L 303 305 L 300 305 L 285 312 L 266 316 L 240 315 L 222 310 L 213 305 L 210 305 Z "/>
    <path fill="#1a1a1a" d="M 220.5 182 Q 231.3 182.3 235 189.5 Q 239.8 196.7 238 210.5 L 234.5 216 L 215.5 216 L 212.5 217 L 208 213.5 L 206 206.5 L 206 198.5 Q 208 188.5 215.5 184 L 220.5 182 Z M 222 193 L 220 194 Q 215 197 217 206 L 222 205 L 226 206 L 228 205 Q 229 198 226 196 Q 225 193 222 193 Z "/>
    <path fill="#1a1a1a" d="M 287.5 182 Q 297.9 182.1 302 188.5 L 306 197.5 L 306 207.5 L 302.5 216 L 296.5 217 L 295.5 216 L 278.5 216 L 276 213.5 Q 272.6 208.4 274 198.5 Q 276.1 189.1 282.5 184 L 287.5 182 Z M 289 193 L 286 196 L 284 202 Q 283 205 286 206 L 288 205 L 292 206 Q 295 207 296 205 L 294 196 Q 293 192 289 193 Z "/>
  </g>
</svg>
