<svg xmlns="http://www.w3.org/2000/svg" width="512" height="512" viewBox="0 0 512 512">
  <g id="color">
    <path fill="#ffffff" d="M 362.5 36 L 370 36.5 L 362.5 37 L 362.5 36 Z "/>
    <path fill="#ffffff" d="M 358.5 37 L 360 37.5 L 356 40.5 L 355.5 42 L 355 40.5 L 358.5 37 Z "/>
    <path fill="#ffffff" d="M 372.5 37 Q 377.3 39.3 377 46.5 L 376 46.5 Q 375.8 39.3 372.5 37 Z "/>
    <path fill="#ffffff" d="M 354.5 45 L 355 49.5 L 354 49.5 L 354.5 45 Z "/>
    <path fill="#ffffff" d="M 378.5 47 L 392.5 47 L 400 48.5 L 393.5 49 L 392.5 48 L 378.5 48 L 378.5 47 Z "/>
    <path fill="#ffffff" d="M 408.5 50 L 415 51.5 L 412.5 52 L 408.5 51 L 408.5 50 Z "/>
    <path fill="#ffffff" d="M 420.5 53 L 427 55.5 L 425.5 56 L 420.5 54 L 420.5 53 Z "/>
    <path fill="#ffffff" d="M 353.5 55 L 354 69.5 L 353 69.5 L 353.5 55 Z "/>
    <path fill="#ffffff" d="M 428.5 56 L 432 58.5 L 430.5 58 L 428.5 56 Z "/>
    <path fill="#ffffff" d="M 433.5 59 L 444 68.5 L 435.5 61 L 433.5 59 Z "/>
    <path fill="#ffffff" d="M 352.5 71 L 353 87.5 L 352 87.5 L 352.5 71 Z "/>
    <path fill="#ffffff" d="M 447.5 75 L 450 79.5 L 449 79.5 L 447.5 75 Z "/>
    <path fill="#ffffff" d="M 450.5 81 L 452 84.5 L 451 84.5 L 450.5 81 Z "/>
    <path fill="#ffffff" d="M 353.5 89 L 354 103.5 L 353 103.5 L 353.5 89 Z "/>
    <path fill="#ffffff" d="M 453.5 89 L 455 94.5 L 454 94.5 L 453.5 89 Z "/>
    <path fill="#ffffff" d="M 457.5 108 L 458 116.5 L 457 116.5 L 457.5 108 Z "/>
    <path fill="#ffffff" d="M 354.5 109 L 355 114.5 L 354 114.5 L 354.5 109 Z "/>
    <path fill="#ffffff" d="M 377.5 110 Q 385.2 108.8 389 111.5 L 386.5 112 L 385.5 111 L 377.5 111 L 377.5 110 Z "/>
    <path fill="#ffffff" d="M 376.5 112 L 377 116.5 L 372.5 122 L 375 118.5 L 376.5 112 Z "/>
    <path fill="#ffffff" d="M 355.5 117 L 359 121.5 L 355 118.5 L 355.5 117 Z "/>
    <path fill="#ffffff" d="M 393.5 119 L 394 124.5 L 392 125.5 L 393.5 119 Z "/>
    <path fill="#ffffff" d="M 458.5 119 L 459 125 L 464 125.5 L 459.5 126 Q 456.4 124.4 458.5 119 Z "/>
    <path fill="#ffffff" d="M 360.5 122 L 371 122.5 L 360.5 123 L 360.5 122 Z "/>
    <path fill="#ffffff" d="M 469.5 129 L 471 132.5 L 470 132.5 L 469.5 129 Z "/>
    <path fill="#ffffff" d="M 380.5 133 L 381 139.5 L 380 139.5 L 380.5 133 Z "/>
    <path fill="#ffffff" d="M 383.5 145 L 387 146.5 L 385.5 147 L 383.5 145 Z "/>
    <path fill="#ffffff" d="M 467.5 145 L 469 145.5 L 465.5 147 L 465.5 146 L 467.5 145 Z "/>
    <path fill="#ffffff" d="M 460.5 147 L 464 147.5 L 460 148 L 459.5 165 L 459 148.5 L 460.5 147 Z "/>
    <path fill="#ffffff" d="M 392.5 151 L 393 193.5 L 392 193.5 L 392.5 151 Z "/>
    <path fill="#ffffff" d="M 460.5 186 L 461 193.5 L 460 193.5 L 460.5 186 Z "/>
    <path fill="#ffffff" d="M 247.5 205 L 266.5 205 L 271 206.5 L 267.5 207 L 266.5 206 L 247.5 206 L 244.5 207 L 244.5 206 L 247.5 205 Z "/>
    <path fill="#ffffff" d="M 459.5 206 L 460 214 Q 468.2 212.5 471 217.5 L 469.5 221 L 470 219.5 L 468.5 216 L 460.5 215 L 459 213.5 L 459.5 206 Z "/>
    <path fill="#ffffff" d="M 276.5 208 L 280 209.5 L 278.5 210 L 276.5 208 Z "/>
    <path fill="#ffffff" d="M 281.5 210 L 288 213.5 L 286.5 213 L 281.5 211 L 281.5 210 Z "/>
    <path fill="#ffffff" d="M 393.5 210 L 394 213.5 Q 392.5 216.5 386.5 215 L 386.5 214 L 393 214 L 393.5 210 Z "/>
    <path fill="#ffffff" d="M 226.5 213 L 224.5 216 L 222.5 217 L 223.5 215 L 226.5 213 Z "/>
    <path fill="#ffffff" d="M 289.5 214 L 293 216.5 L 291.5 216 L 289.5 214 Z "/>
    <path fill="#ffffff" d="M 384.5 220 L 392 221.5 L 385.5 222 L 384.5 220 Z "/>
    <path fill="#ffffff" d="M 393.5 221 Q 396.8 222.8 395 229.5 L 391.5 235 L 390 234.5 L 393 232.5 L 394 222.5 L 393.5 221 Z "/>
    <path fill="#ffffff" d="M 459 221 L 461 221.5 L 459.5 230 L 459 221 Z "/>
    <path fill="#ffffff" d="M 462.5 221 L 468 221.5 L 462.5 222 L 462.5 221 Z "/>
    <path fill="#ffffff" d="M 132.5 224 L 140 224.5 L 130.5 226 L 130.5 225 L 132.5 224 Z "/>
    <path fill="#ffffff" d="M 301.5 224 L 307 227.5 L 304.5 228 L 301.5 224 Z "/>
    <path fill="#ffffff" d="M 374.5 224 Q 385.6 222.4 389 228.5 L 385.5 226 L 374.5 225 L 370.5 228 L 372.5 225 L 374.5 224 Z "/>
    <path fill="#ffffff" d="M 327.5 227 L 332 229.5 L 330.5 229 Q 326.8 228.7 327.5 227 Z "/>
    <path fill="#ffffff" d="M 126.5 229 L 127 230.5 L 124.5 237 L 121 236.5 L 125 236 Q 124.1 231.3 126.5 229 Z "/>
    <path fill="#ffffff" d="M 369.5 229 L 370 230.5 L 367.5 237 L 368 235.5 Q 367.3 230.8 369.5 229 Z "/>
    <path fill="#ffffff" d="M 183.5 230 L 183 231.5 L 182.5 234 L 182 231.5 L 183.5 230 Z "/>
    <path fill="#ffffff" d="M 146.5 232 L 147 236 L 161 236.5 L 147.5 237 Q 144.8 235.8 146.5 232 Z "/>
    <path fill="#ffffff" d="M 337.5 235 L 342 235.5 L 337.5 236 L 337.5 235 Z "/>
    <path fill="#ffffff" d="M 352.5 236 L 364 236.5 L 352.5 237 L 352.5 236 Z "/>
    <path fill="#ffffff" d="M 110.5 237 L 119 237.5 L 110.5 238 L 110.5 237 Z "/>
    <path fill="#ffffff" d="M 104.5 238 L 109 238.5 L 104.5 239 L 104.5 238 Z "/>
    <path fill="#ffffff" d="M 99.5 239 L 102 239.5 L 92.5 242 L 92.5 241 L 99.5 239 Z "/>
    <path fill="#ffffff" d="M 458.5 239 L 459 244.5 L 458 244.5 L 458.5 239 Z "/>
    <path fill="#ffffff" d="M 86.5 243 L 88 243.5 L 84.5 245 L 84.5 244 L 86.5 243 Z "/>
    <path fill="#ffffff" d="M 80.5 246 L 79.5 248 L 77.5 249 L 78.5 247 L 80.5 246 Z "/>
    <path fill="#ffffff" d="M 457.5 247 L 458 251.5 L 457 251.5 L 457.5 247 Z "/>
    <path fill="#ffffff" d="M 455.5 258 L 456 260.5 L 453.5 266 L 453 264.5 L 455.5 258 Z "/>
    <path fill="#ffffff" d="M 59.5 271 L 60 272.5 L 58.5 276 L 58 273.5 L 59.5 271 Z "/>
    <path fill="#ffffff" d="M 56.5 281 L 57 284.5 L 55.5 289 L 55 285.5 L 56.5 281 Z "/>
    <path fill="#ffffff" d="M 434.5 288 L 433.5 290 L 428.5 292 L 428.5 291 L 434.5 288 Z "/>
    <path fill="#ffffff" d="M 419.5 294 L 422 294.5 L 417.5 296 L 417.5 295 L 419.5 294 Z "/>
    <path fill="#ffffff" d="M 401.5 298 L 406 298.5 L 401.5 299 L 401.5 298 Z "/>
    <path fill="#ffffff" d="M 53.5 299 L 54 307.5 L 53 307.5 L 53.5 299 Z "/>
    <path fill="#ffffff" d="M 153.5 299 L 164 299.5 L 153.5 300 L 153.5 299 Z "/>
    <path fill="#ffffff" d="M 351.5 299 L 362 299.5 L 351.5 300 L 351.5 299 Z "/>
    <path fill="#ffffff" d="M 391.5 299 L 396 299.5 L 391 301.5 L 390.5 305 L 390 300.5 L 391.5 299 Z "/>
    <path fill="#ffffff" d="M 122.5 300 Q 125.8 298.9 125 301.5 L 123.5 301 L 121.5 302 L 122.5 300 Z "/>
    <path fill="#ffffff" d="M 172.5 300 L 179 300.5 L 172.5 301 L 172.5 300 Z "/>
    <path fill="#ffffff" d="M 180.5 300 L 183 301.5 L 184 304.5 L 182 303.5 Q 183.1 300.2 180.5 301 L 180.5 300 Z "/>
    <path fill="#ffffff" d="M 336.5 300 L 343 300.5 L 336.5 301 L 336.5 300 Z "/>
    <path fill="#ffffff" d="M 368.5 300 L 370 307.5 L 369 307.5 L 368.5 300 Z "/>
    <path fill="#ffffff" d="M 146.5 301 L 147 305.5 L 146 305.5 L 146.5 301 Z "/>
    <path fill="#ffffff" d="M 119.5 302 L 120 303.5 L 118.5 307 L 118 304.5 L 119.5 302 Z "/>
    <path fill="#ffffff" d="M 125.5 303 L 128.5 310 L 130 310.5 L 128.5 311 Q 123.6 308.9 125.5 303 Z "/>
    <path fill="#ffffff" d="M 331.5 305 L 330.5 307 L 327.5 308 L 327.5 307 L 331.5 305 Z "/>
    <path fill="#ffffff" d="M 209.5 306 L 219 314.5 L 210.5 307 L 207.5 308 L 207.5 307 L 209.5 306 Z "/>
    <path fill="#ffffff" d="M 304.5 306 L 309 307.5 L 306.5 308 L 304.5 307 L 296 314.5 L 304.5 306 Z "/>
    <path fill="#ffffff" d="M 189.5 308 L 194 308.5 L 189.5 309 L 189.5 308 Z "/>
    <path fill="#ffffff" d="M 201.5 308 L 206 308.5 L 201.5 309 L 201.5 308 Z "/>
    <path fill="#ffffff" d="M 52.5 309 L 53 319.5 L 50.5 321 L 50.5 320 L 52 319.5 L 52.5 309 Z "/>
    <path fill="#ffffff" d="M 371.5 310 L 376 311.5 L 373.5 312 L 371.5 310 Z "/>
    <path fill="#ffffff" d="M 117.5 314 Q 116.9 318.6 119.5 320 L 122 320.5 L 118 321 L 117.5 314 Z "/>
    <path fill="#ffffff" d="M 224.5 318 L 228 320.5 L 226.5 320 L 224.5 318 Z "/>
    <path fill="#ffffff" d="M 290.5 318 L 288.5 321 L 287 320.5 L 290.5 318 Z "/>
    <path fill="#ffffff" d="M 45.5 321 L 47 321.5 L 43.5 324 L 45.5 321 Z "/>
    <path fill="#ffffff" d="M 285.5 321 L 284.5 323 L 281.5 324 L 281.5 323 L 285.5 321 Z "/>
    <path fill="#ffffff" d="M 127.5 324 Q 131.7 326.8 130 335.5 L 129 335.5 Q 130 326.8 127.5 324 Z "/>
    <path fill="#ffffff" d="M 238.5 325 L 243 326.5 L 240.5 327 L 238.5 325 Z "/>
    <path fill="#ffffff" d="M 275.5 325 L 277 325.5 L 272.5 327 L 272.5 326 L 275.5 325 Z "/>
    <path fill="#ffffff" d="M 40.5 328 L 41 335.5 L 40 335.5 L 40.5 328 Z "/>
    <path fill="#ffffff" d="M 251.5 328 L 264 328.5 L 251.5 329 L 251.5 328 Z "/>
    <path fill="#ffffff" d="M 128.5 337 L 129 338.5 L 126 340.5 L 128.5 337 Z "/>
    <path fill="#ffffff" d="M 42.5 339 L 46 341.5 L 44.5 342 L 42.5 339 Z "/>
    <path fill="#ffffff" d="M 123.5 341 L 125 341.5 L 119 343 L 118.5 382 L 118 343.5 L 123.5 341 Z "/>
    <path fill="#ffffff" d="M 52.5 343 L 53 347.5 L 52 347.5 L 52.5 343 Z "/>
    <path fill="#ffffff" d="M 51.5 358 L 52 397.5 L 51 397.5 L 51.5 358 Z "/>
    <path fill="#ffffff" d="M 119.5 392 L 120 446 L 124 446.5 L 119 447 L 119.5 392 Z "/>
    <path fill="#ffffff" d="M 52.5 411 L 53 437.5 L 52 437.5 L 52.5 411 Z "/>
    <path fill="#ffffff" d="M 53.5 441 L 54 445.5 Q 52.8 448.3 47.5 447 L 47.5 446 L 53 446 L 53.5 441 Z "/>
    <path fill="#ffffff" d="M 129.5 448 Q 132.8 449.8 133 454.5 L 132 454.5 L 129.5 448 Z "/>
    <path fill="#ffffff" d="M 40.5 456 L 41 465.5 L 40 465.5 L 40.5 456 Z "/>
    <path fill="#ffffff" d="M 132.5 466 L 133 469.5 L 131 470.5 L 132.5 466 Z "/>
    <path fill="#ffffff" d="M 42.5 471 Q 44.6 474.4 50 474.5 L 46.5 475 L 42.5 471 Z "/>
    <path fill="#ffffff" d="M 118.5 474 L 126 474.5 L 118.5 475 L 118.5 474 Z "/>
    <path fill="#ffffff" d="M 51.5 475 L 58 475.5 L 51.5 476 L 51.5 475 Z "/>
    <path fill="#ffffff" d="M 105.5 475 L 117 475.5 L 105.5 476 L 105.5 475 Z "/>
    <path fill="#ffffff" d="M 64.5 476 L 96 476.5 L 64.5 477 L 64.5 476 Z "/>
    <path fill="#4da3ff" d="M 363 44 Q 366.8 43 368 45.5 L 369 47.5 L 369 59.5 L 370 60.5 L 370 73.5 L 371 75.5 L 371 77.5 L 370 83.5 L 371 85.5 L 370 86.5 L 369 111.5 L 367 115 Q 361.4 117.2 363 111.5 L 361 102.5 L 361 100.5 L 361 58.5 L 362 57.5 Q 361.2 48.9 363 44 Z "/>
    <path fill="#4da3ff" d="M 379 55 L 408.5 58 L 429 65 Q 427.9 67.7 430.5 67 L 435 70 L 444 84.5 Q 444.2 93.8 448 99.5 L 450 123 L 428.5 122 L 427.5 123 L 406.5 123 L 404.5 124 L 402 123 L 402 118.5 L 399 109.5 L 394.5 105 L 385.5 102 L 379 101.5 L 379 99.5 L 379 55 Z "/>
    <path fill="#4da3ff" d="M 406.5 132 L 448.5 132 L 449.5 133 L 460.5 133 L 463 134.5 L 462 137.5 L 462.5 139 Q 459 141.5 451.5 140 L 450.5 141 L 416.5 142 L 415.5 141 L 403.5 141 L 402.5 140 L 392.5 140 L 391.5 139 Q 390.3 141.3 389 138.5 L 390 135.5 L 389.5 134 L 405.5 133 L 406.5 132 Z "/>
    <path fill="#4da3ff" d="M 401 150 L 408.5 150 L 409.5 151 L 428.5 151 L 429.5 150 L 452 150 L 452 192.5 L 453 194.5 L 452 195.5 L 452 213 L 449.5 212 L 447.5 213 L 446.5 212 L 408.5 212 L 405.5 213 L 403.5 213 L 401 210.5 L 400 168.5 L 401 167.5 L 401 150 Z M 423 163 L 416 165 L 412 168 Q 405 173 403 181 Q 405 186 402 188 L 404 193 L 408 194 L 446 194 L 448 193 L 450 190 L 451 185 L 445 173 L 443 170 L 435 164 L 423 163 Z "/>
    <path fill="#4da3ff" d="M 252.5 213 L 262.5 213 L 275.5 216 L 289.5 224 L 294 228.5 L 294.5 230 L 296 229.5 L 298 232.5 Q 308.7 243.8 311 263.5 L 311 265.5 L 311 272.5 L 307 287.5 L 298 303 L 288.5 311 L 274.5 318 L 273 317.5 Q 273.9 320.9 268.5 319 L 267.5 320 L 255.5 321 L 244.5 319 L 233.5 315 L 218 304 L 206 282.5 L 205 277.5 L 205 255.5 L 208 249.5 L 208 246.5 L 216 232 Q 218.7 233.1 218 230.5 Q 223.7 223.7 233 220.5 L 232.5 219 Q 239 218.5 242.5 215 Q 249.2 215.7 252.5 213 Z M 253 221 L 238 225 L 223 238 Q 220 237 221 241 L 219 241 L 214 253 L 212 266 L 212 268 Q 212 279 216 287 L 225 300 L 242 310 L 253 313 L 262 313 L 272 311 L 288 302 L 291 298 Q 290 295 293 296 L 298 289 L 303 273 L 302 257 L 300 250 L 294 240 Q 287 230 277 225 L 263 221 L 253 221 Z "/>
    <path fill="#4da3ff" d="M 415.5 221 L 436.5 221 L 438.5 222 L 442.5 221 L 443.5 222 L 452 222 L 451 225.5 L 451 229.5 L 451 240.5 L 450 241.5 L 450 243.5 L 450 249.5 L 447 261.5 L 436.5 278 L 416.5 288 L 400.5 291 L 392 291 L 393 288.5 L 393 286.5 L 393 252.5 L 392 251.5 L 392 243 L 395 243 Q 393.9 240.3 396.5 241 L 399 240 Q 403.3 233.7 402 222 L 414.5 222 L 415.5 221 Z "/>
    <path fill="#4da3ff" d="M 255.5 231 L 259 231.5 L 259 246.5 Q 261.3 247.7 258.5 249 L 255 247.5 Q 253.5 242 256 240.5 Q 253.5 239 255 233.5 L 255.5 231 Z "/>
    <path fill="#4da3ff" d="M 245.5 232 L 246 251.5 L 247 252.5 L 241 259.5 Q 241.6 264.6 238.5 266 L 236.5 266 L 222 275 Q 220.2 271.2 221 263.5 L 225 250.5 L 233.5 239 L 236 239 Q 234.9 236.3 237.5 237 L 245.5 232 Z "/>
    <path fill="#4da3ff" d="M 134.5 233 L 136.5 233 Q 138.8 232.3 138 234.5 L 140 240.5 L 141 280.5 L 140 281.5 L 140 294.5 L 138 304 L 135.5 303 Q 134.3 305.3 133 302.5 L 133 293.5 L 131 283.5 L 131 281.5 L 132 279.5 L 131 278.5 L 131 259.5 L 131 257.5 L 133 239.5 L 133 237.5 Q 132.3 233.8 134.5 233 Z "/>
    <path fill="#4da3ff" d="M 270.5 233 L 284 241 L 284 243 Q 286.7 241.9 286 244.5 Q 291.2 249.3 293 257.5 L 294 269.5 L 292.5 275 L 275 264.5 L 270 253 Q 267.3 254.1 268 251.5 L 269 249.5 L 268 248.5 L 268 235.5 L 270.5 233 Z "/>
    <path fill="#4da3ff" d="M 377.5 233 Q 381.3 232.3 382 234.5 Q 384.5 240 383 249.5 L 384 250.5 L 384 292.5 L 383 295.5 Q 384.5 302.5 380.5 304 Q 375.7 305.7 377 301.5 L 375 290.5 L 376 288.5 L 375 287.5 L 375 247.5 L 376 246.5 L 376 234.5 L 377.5 233 Z "/>
    <path fill="#4da3ff" d="M 314.5 234 Q 321.6 233.3 325 235 Q 326.9 240.6 326 250.5 L 327 251.5 L 327 282.5 L 326 285.5 L 326 293.5 Q 323.8 294.7 325 299.5 L 323.5 301 L 321.5 301 L 316.5 300 L 313.5 301 Q 311.3 300.3 312 296.5 L 318 283.5 L 320 271.5 L 320 269.5 L 319 253.5 Q 317.1 243.4 312 236.5 L 314.5 234 Z "/>
    <path fill="#4da3ff" d="M 190.5 235 L 192.5 235 L 202 235 L 202 239.5 L 198 248.5 L 195 267.5 L 196 268.5 L 196 278.5 L 198 286.5 L 204 298.5 Q 202 302 195.5 301 L 190 300 L 189 293.5 L 188 267.5 L 189 262.5 L 189 260.5 Q 187.1 245.6 191 236.5 L 190.5 235 Z "/>
    <path fill="#4da3ff" d="M 152.5 244 L 154.5 244 L 178.5 244 L 180 245.5 L 179 255.5 L 179 257.5 L 179 280.5 L 180 281.5 L 180 292 L 157.5 292 L 156.5 291 L 149 291 L 149 275.5 L 150 274.5 L 150 272.5 L 149 267.5 L 149 265.5 L 149 245.5 L 151.5 245 L 152.5 244 Z "/>
    <path fill="#4da3ff" d="M 335 244 L 355.5 244 L 356.5 245 L 366 245 L 366 290.5 Q 365.8 291.8 359.5 291 L 354.5 292 L 336.5 292 L 336 290.5 L 335 285.5 L 336 284.5 L 336 254.5 L 335 252.5 L 336 249.5 L 335 244 Z "/>
    <path fill="#4da3ff" d="M 113.5 245 L 115.5 245 L 123 245 L 123 258.5 L 122 259.5 L 122 280.5 L 123 281.5 L 123 293 L 115 295 L 111 302.5 L 110 314.5 L 107.5 318 L 103.5 317 L 80.5 317 L 78.5 317 L 62.5 318 L 61.5 319 L 61 316.5 L 61 304.5 L 62 303.5 L 63 286.5 L 65 283.5 L 67 273.5 L 76.5 259 L 91.5 250 L 113.5 245 Z "/>
    <path fill="#4da3ff" d="M 254.5 259 Q 261.4 258.1 264 261.5 L 265 270.5 L 261.5 275 Q 252.5 276.5 250 271.5 L 249 265.5 L 252.5 260 L 254.5 259 Z "/>
    <path fill="#4da3ff" d="M 240 275 L 243 276.5 Q 244.3 280.3 240.5 279 Q 239.2 282.7 235 282 Q 236.1 284.7 233.5 284 Q 232.3 287 228 286 L 227.5 288 L 227 283 L 235.5 278 L 240 277 L 240 275 Z "/>
    <path fill="#4da3ff" d="M 273.5 275 L 289 283 L 288 287 L 284.5 287 L 271 277.5 L 273.5 275 Z "/>
    <path fill="#4da3ff" d="M 249.5 284 L 264.5 284 L 278 292.5 L 280 295.5 L 277.5 298 L 265.5 303 L 249.5 303 L 240.5 300 L 234 296 L 235.5 293 L 249.5 284 Z "/>
    <path fill="#4da3ff" d="M 86.5 326 L 87.5 327 L 110.5 327 Q 112 329.5 117.5 328 L 121 330.5 L 120 335 L 109.5 335 L 108.5 336 L 58.5 336 L 57.5 335 L 49 334.5 L 49 332.5 Q 47.2 326.4 54.5 329 L 60.5 327 L 85.5 327 L 86.5 326 Z "/>
    <path fill="#4da3ff" d="M 60.5 345 Q 66.8 343.2 68.5 346 L 70.5 346 L 96.5 346 L 97.5 345 L 110 345 L 110 354.5 L 111 355.5 L 111 411.5 L 112 414.5 L 111 416.5 L 112 417.5 L 112 429.5 L 112 431.5 L 112 443.5 L 111 444.5 L 111.5 446 L 96 446 L 96 437.5 Q 101.3 433.8 100 423.5 Q 98.6 417.4 93.5 415 Q 90.6 412.4 84.5 413 Q 77.9 413.9 75 418.5 L 72 426.5 L 73 431.5 L 77 438.5 L 77 443.5 L 76 446 L 62.5 446 L 62 444.5 L 61 443.5 L 61 432.5 L 60 431.5 L 61 429.5 L 60 428.5 L 60 347.5 L 60.5 345 Z "/>
    <path fill="#4da3ff" d="M 49 454 L 54.5 455 L 69.5 455 L 71.5 456 L 72.5 455 L 87.5 455 L 90.5 456 L 91.5 455 L 120.5 455 L 122.5 454 L 125 455 L 125 465.5 L 123.5 467 L 78.5 469 L 76.5 469 Q 67.8 466.2 54.5 468 L 48 465.5 L 49 462.5 L 48 460.5 L 49 454 Z "/>
    <path fill="#ffd43b" d="M 82.5 418 Q 88.6 416.8 88 419.5 L 80.5 433 L 78 431.5 L 77 424.5 L 82.5 418 Z "/>
    <path fill="#ffd43b" d="M 92.5 420 Q 96.6 421.9 96 428.5 L 91.5 435 L 84 436 Q 86.1 426.4 92.5 420 Z "/>
    <path fill="#ffd43b" d="M 89.5 438 L 91 439.5 L 92 445.5 L 91 448 L 81 448 L 81 439 L 88.5 439 L 89.5 438 Z "/>
    <path fill="#ff6b6b" d="M 417.5 169 L 419.5 169 L 431.5 169 L 442 177.5 Q 445.3 181.4 444 189 L 440.5 188 L 435.5 189 L 432 187 L 432.5 185 L 434 185.5 L 433 183.5 L 436 181.5 L 437 177.5 L 436 174 L 430.5 177 L 429 176.5 L 430 178.5 L 417.5 188 L 410.5 190 Q 407.5 189.5 408 185.5 L 409 184.5 L 407.5 182 L 409 182.5 L 411 176.5 L 417.5 169 Z "/>
    <path fill="#ff6b6b" d="M 428.5 185 L 430.5 188 L 429 187.5 Q 429.9 190.9 424.5 189 L 426.5 186 L 428.5 185 Z "/>
    <path fill="#66d9e8" d="M 364.5 42 L 370 44.5 Q 372.5 52 371 63.5 L 372 64.5 L 372 97.5 L 371 98.5 L 371 111.5 L 368.5 116 L 364.5 117 L 361 116 L 361 108.5 L 359 100.5 L 359 57.5 L 360 56.5 L 361 44.5 L 362.5 43 L 364.5 42 Z M 363 44 Q 361 49 362 58 L 361 59 L 361 101 L 361 103 L 363 112 Q 361 117 367 115 L 369 112 L 370 87 L 371 86 L 370 84 L 371 78 L 371 76 L 370 74 L 370 61 L 369 60 L 369 48 L 368 46 Q 367 43 363 44 Z "/>
    <path fill="#66d9e8" d="M 378.5 53 L 402.5 55 L 419.5 59 Q 432 63 439 72.5 L 447 88.5 L 451 106.5 L 452 123.5 L 450.5 125 L 439.5 125 L 438.5 124 L 419.5 124 L 418.5 125 L 400 125 Q 401 112.3 393.5 107 L 385.5 104 L 378.5 104 L 377 102.5 L 378 71.5 L 377 70.5 L 377 54.5 L 378.5 53 Z M 379 55 L 379 100 L 379 102 L 386 102 L 395 105 L 399 110 L 402 119 L 402 123 L 405 124 L 407 123 L 428 123 L 429 122 L 450 123 L 448 100 Q 444 94 444 85 L 435 70 L 431 67 Q 428 68 429 65 L 409 58 L 379 55 Z "/>
    <path fill="#66d9e8" d="M 407.5 130 L 450.5 130 L 451.5 131 L 462.5 132 L 464 133.5 L 464 141 L 459.5 141 L 449.5 143 L 420.5 144 L 419.5 143 L 391.5 142 L 387 139.5 Q 385.8 133.3 389.5 132 L 406.5 131 L 407.5 130 Z M 407 132 L 406 133 L 390 134 L 390 136 L 389 139 Q 390 141 392 139 L 393 140 L 403 140 L 404 141 L 416 141 L 417 142 L 451 141 L 452 140 Q 459 142 463 139 L 462 138 L 463 135 L 461 133 L 450 133 L 449 132 L 407 132 Z "/>
    <path fill="#66d9e8" d="M 400.5 148 L 405.5 149 L 442.5 149 L 443.5 148 L 453 148 L 454 151.5 L 453 156.5 L 454 157.5 L 454 214 L 400.5 214 L 400 213.5 L 400 206.5 L 399 205.5 L 399 149.5 L 400.5 148 Z M 401 150 L 401 168 L 400 169 L 401 211 L 404 213 L 406 213 L 409 212 L 447 212 L 448 213 L 450 212 L 452 213 L 452 196 L 453 195 L 452 193 L 452 150 L 430 150 L 429 151 L 410 151 L 409 150 L 401 150 Z "/>
    <path fill="#66d9e8" d="M 422.5 163 L 434.5 164 L 443 169.5 L 445 172.5 L 451 184.5 L 450 189.5 L 447.5 193 L 445.5 194 L 407.5 194 L 404 193 L 402 187.5 Q 404.5 186 403 180.5 Q 405.5 172.5 411.5 168 L 415.5 165 L 422.5 163 Z M 422 165 L 415 168 L 405 180 L 405 191 L 407 192 L 447 192 L 448 190 Q 449 178 444 174 Q 438 164 422 165 Z "/>
    <path fill="#66d9e8" d="M 254.5 211 L 261.5 211 L 275.5 214 Q 290.4 220.1 300 231.5 Q 307.2 240.3 311 252.5 L 312 257.5 L 312 275.5 Q 307.4 298.9 291.5 311 L 275.5 320 L 255.5 323 L 239.5 320 L 231.5 316 L 214 301.5 L 207 289.5 L 204 280.5 L 203 275.5 L 203 257.5 Q 207.6 235.6 222.5 224 L 230.5 218 L 239.5 214 L 254.5 211 Z M 253 213 Q 249 216 243 215 Q 239 218 233 219 L 233 221 Q 224 224 218 231 Q 219 233 216 232 L 208 247 L 208 250 L 205 256 L 205 278 L 206 283 L 218 304 L 234 315 L 245 319 L 256 321 L 268 320 L 269 319 Q 274 321 273 318 L 275 318 L 289 311 L 298 303 L 307 288 L 311 273 L 311 266 L 311 264 Q 309 244 298 233 L 296 230 L 295 230 L 294 229 L 290 224 L 276 216 L 263 213 L 253 213 Z "/>
    <path fill="#66d9e8" d="M 416.5 219 L 453 220 L 454 222.5 L 453 223.5 L 452 248.5 L 449 261.5 L 442 274.5 L 435.5 281 L 416.5 290 L 399.5 293 L 391 293 L 391 247.5 L 390 242 L 397 238.5 L 400 231.5 L 400 221.5 L 401.5 220 L 415.5 220 L 416.5 219 Z M 416 221 L 415 222 L 402 222 Q 403 234 399 240 L 397 241 Q 394 240 395 243 L 392 243 L 392 252 L 393 253 L 393 287 L 393 289 L 392 291 L 401 291 L 417 288 L 437 278 L 447 262 L 450 250 L 450 244 L 450 242 L 451 241 L 451 230 L 451 226 L 452 222 L 444 222 L 443 221 L 439 222 L 437 221 L 416 221 Z "/>
    <path fill="#66d9e8" d="M 252.5 221 L 262.5 221 L 276.5 225 Q 287.1 230.4 294 239.5 L 300 249.5 L 302 256.5 L 303 272.5 L 298 288.5 L 292.5 296 Q 290.3 295.3 291 297.5 L 287.5 302 L 271.5 311 L 261.5 313 L 252.5 313 L 241.5 310 L 225 300 L 216 286.5 Q 212.5 278.5 212 267.5 L 212 265.5 L 214 252.5 L 219 241 L 221 241 Q 219.5 237.3 222.5 238 L 237.5 225 L 252.5 221 Z M 253 223 L 241 226 L 231 232 L 219 246 L 216 253 L 214 263 L 215 278 Q 218 289 225 297 L 237 306 L 253 311 L 263 311 L 272 309 L 285 302 Q 297 292 301 274 Q 302 251 292 240 Q 285 231 275 226 L 263 223 L 253 223 Z "/>
    <path fill="#66d9e8" d="M 254 229 Q 259.4 227.5 261 230.5 L 261 249.5 L 259.5 251 Q 254.1 251.6 254 250.5 L 254 229 Z M 256 231 L 255 234 Q 254 239 256 241 Q 254 242 255 248 L 259 249 Q 261 248 259 247 L 259 232 L 256 231 Z "/>
    <path fill="#66d9e8" d="M 267 230 Q 279.7 232.9 287 242.5 L 295 258.5 L 295 274.5 L 294 277 L 289.5 276 L 273 265.5 L 273 262.5 L 267 253.5 L 267 230 Z M 271 233 L 268 236 L 268 249 L 269 250 L 268 252 Q 267 254 270 253 L 275 265 L 293 275 L 294 270 L 293 258 Q 291 249 286 245 Q 287 242 284 243 L 284 241 L 271 233 Z "/>
    <path fill="#66d9e8" d="M 133.5 231 Q 138.8 229.8 140 232.5 L 141 245.5 L 142 246.5 L 142 294.5 L 140 305 L 133.5 306 L 131 303.5 L 129 264.5 L 130 263.5 L 130 241.5 Q 132.8 239.7 131 233.5 L 133.5 231 Z M 135 233 Q 132 234 133 238 L 133 240 L 131 258 L 131 260 L 131 279 L 132 280 L 131 282 L 131 284 L 133 294 L 133 303 L 135 302 L 138 304 L 140 295 L 140 282 L 141 281 L 140 241 L 138 235 Q 139 232 137 233 L 135 233 Z "/>
    <path fill="#66d9e8" d="M 243.5 231 Q 248 230.5 248 231.5 L 248 253.5 Q 241.8 258.1 241 267 L 221.5 277 L 220 275.5 L 219 264.5 L 225 246.5 L 233.5 237 L 243.5 231 Z M 246 232 L 238 237 Q 235 236 236 239 L 234 239 L 225 251 L 221 264 Q 220 271 222 275 L 237 266 L 239 266 Q 242 265 241 260 L 247 253 L 246 252 L 246 232 Z "/>
    <path fill="#66d9e8" d="M 376.5 231 Q 383.5 229.5 383 232.5 L 384 233.5 L 385 252.5 L 386 253.5 L 386 289.5 L 385 290.5 L 385 299.5 L 382.5 305 L 376.5 306 L 374 300.5 L 374 287.5 L 373 286.5 L 373 253.5 L 374 252.5 L 374 236.5 L 376.5 231 Z M 378 233 L 376 235 L 376 247 L 375 248 L 375 288 L 376 289 L 375 291 L 377 302 Q 376 306 381 304 Q 385 303 383 296 L 384 293 L 384 251 L 383 250 Q 385 240 382 235 Q 381 232 378 233 Z "/>
    <path fill="#66d9e8" d="M 315.5 232 Q 323.4 231.1 327 234.5 L 328 239.5 L 328 256.5 L 329 257.5 L 329 276.5 L 328 277.5 L 328 292.5 L 326 302 L 315.5 303 L 309 302 L 317 280.5 L 318 258.5 L 314 243.5 L 310 236.5 L 310 233 L 315.5 232 Z M 315 234 L 312 237 Q 317 243 319 254 L 320 270 L 320 272 L 318 284 L 312 297 Q 311 300 314 301 L 317 300 L 322 301 L 324 301 L 325 300 Q 324 295 326 294 L 326 286 L 327 283 L 327 252 L 326 251 Q 327 241 325 235 Q 322 233 315 234 Z "/>
    <path fill="#66d9e8" d="M 190.5 233 L 204.5 233 L 206 234.5 L 199 250.5 L 197 260.5 L 197 273.5 L 199 283.5 L 203 294.5 L 206 298.5 L 206 302 L 195.5 303 L 189 302 L 188 299.5 L 188 288.5 L 187 287.5 L 187 245.5 L 188 244.5 L 188 235.5 L 190.5 233 Z M 193 235 L 190 238 Q 191 242 189 244 L 189 261 L 189 263 L 188 268 L 189 294 L 190 300 L 196 301 Q 202 302 204 299 L 198 287 L 196 279 L 196 269 L 195 268 L 198 249 L 202 240 L 202 235 L 193 235 Z "/>
    <path fill="#66d9e8" d="M 159.5 242 L 180.5 242 L 182 243.5 Q 183.2 248.2 181 249.5 L 181 286.5 Q 183.2 287.7 182 292.5 L 180.5 294 L 162.5 294 L 161.5 293 L 148.5 293 L 147 291.5 L 148 262.5 L 147 261.5 L 147 244.5 L 148.5 243 L 158.5 243 L 159.5 242 Z M 153 244 L 152 245 L 149 246 L 149 266 L 149 268 L 150 273 L 150 275 L 149 276 L 149 291 L 157 291 L 158 292 L 180 292 L 180 282 L 179 281 L 179 258 L 179 256 L 180 246 L 179 244 L 155 244 L 153 244 Z "/>
    <path fill="#66d9e8" d="M 334.5 242 L 366.5 243 L 368 244.5 L 367 268.5 L 368 269.5 L 368 291.5 L 366.5 293 L 355.5 293 L 354.5 294 L 334.5 294 Q 331.8 292.8 333 287.5 L 334 286.5 L 334 248.5 L 333 243.5 L 334.5 242 Z M 335 244 L 336 250 L 335 253 L 336 255 L 336 285 L 335 286 L 336 291 L 337 292 L 355 292 L 360 291 Q 366 292 366 291 L 366 245 L 357 245 L 356 244 L 335 244 Z "/>
    <path fill="#66d9e8" d="M 117.5 243 L 125 243 L 125 248.5 L 124 249.5 L 124 287.5 L 125 292.5 L 115 298.5 L 111 308.5 L 111 318.5 L 109.5 320 L 106.5 319 L 76.5 319 L 75.5 320 L 59 320 L 60 295.5 L 61 294.5 L 62 283.5 L 68 267.5 L 78.5 255 Q 87 249 98.5 246 L 116.5 244 L 117.5 243 Z M 114 245 L 92 250 L 77 259 L 67 274 L 65 284 L 63 287 L 62 304 L 61 305 L 61 317 L 63 318 L 79 317 L 81 317 L 104 317 L 108 318 L 110 315 L 111 303 L 115 295 L 123 293 L 123 282 L 122 281 L 122 260 L 123 259 L 123 245 L 116 245 L 114 245 Z "/>
    <path fill="#66d9e8" d="M 254.5 257 Q 264.9 255.6 267 262.5 L 268 268.5 L 262.5 276 L 254.5 277 L 248 271.5 L 247 265.5 L 252.5 258 L 254.5 257 Z M 255 259 L 253 260 L 249 266 L 250 272 Q 252 277 262 275 L 265 271 L 264 262 Q 261 258 255 259 Z "/>
    <path fill="#66d9e8" d="M 273.5 272 L 291 283.5 L 289 289 L 283.5 288 L 270 278.5 Q 270.3 273.8 273.5 272 Z M 274 275 L 271 278 L 285 287 L 288 287 L 289 283 L 274 275 Z "/>
    <path fill="#66d9e8" d="M 240.5 273 L 244 274.5 L 245 278.5 L 230.5 289 L 226 290 L 224 283.5 L 240.5 273 Z M 240 275 L 240 277 L 236 278 L 227 283 L 228 288 L 228 286 Q 232 287 234 284 Q 236 285 235 282 Q 239 283 241 279 Q 244 280 243 277 L 240 275 Z "/>
    <path fill="#66d9e8" d="M 263.5 281 L 283 293 L 278.5 299 L 265.5 305 L 249.5 305 L 237.5 300 L 232 295.5 Q 230.9 292.2 233.5 293 L 249.5 282 L 253.5 282 Q 254.8 284.3 259.5 283 L 263.5 281 Z M 250 284 L 236 293 L 234 296 L 241 300 L 250 303 L 266 303 L 278 298 L 280 296 L 278 293 L 265 284 L 250 284 Z "/>
    <path fill="#66d9e8" d="M 64.5 325 L 111.5 325 Q 113.3 327.8 119.5 326 L 123 328.5 Q 124.5 334.5 121.5 336 L 109.5 337 L 108.5 338 L 60.5 338 L 59.5 337 L 50.5 337 L 47 334.5 Q 45.8 328.3 49.5 327 L 63.5 326 L 64.5 325 Z M 87 326 L 86 327 L 61 327 L 55 329 Q 47 326 49 333 L 49 335 L 58 335 L 59 336 L 109 336 L 110 335 L 120 335 L 121 331 L 118 328 Q 112 330 111 327 L 88 327 L 87 326 Z "/>
    <path fill="#66d9e8" d="M 59.5 343 L 67.5 343 L 68.5 344 L 101.5 344 L 102.5 343 L 110.5 343 L 112 344.5 L 112 364.5 L 113 365.5 L 113 446.5 L 111.5 448 L 95 448 Q 92.9 444.7 94 436.5 Q 98.9 433.4 99 425.5 Q 97.5 419 92.5 416 L 83.5 415 L 76 420.5 Q 73.2 423.2 74 429.5 L 78 436.5 L 78 448 L 62.5 448 L 60 447 L 59 441.5 L 58 419.5 L 58 417.5 L 58 344.5 L 59.5 343 Z M 61 345 L 60 348 L 60 429 L 61 430 L 60 432 L 61 433 L 61 444 L 62 445 L 63 446 L 76 446 L 77 444 L 77 439 L 73 432 L 72 427 L 75 419 Q 78 414 85 413 Q 91 412 94 415 Q 99 417 100 424 Q 101 434 96 438 L 96 446 L 112 446 L 111 445 L 112 444 L 112 432 L 112 430 L 112 418 L 111 417 L 112 415 L 111 412 L 111 356 L 110 355 L 110 345 L 98 345 L 97 346 L 71 346 L 69 346 Q 67 343 61 345 Z "/>
    <path fill="#66d9e8" d="M 48.5 453 L 75.5 454 L 77.5 454 L 124.5 453 L 127 455.5 L 127 466.5 L 123.5 469 L 106.5 469 L 105.5 470 L 58.5 470 L 57.5 469 L 49.5 469 L 47 466.5 L 47 454.5 L 48.5 453 Z M 49 454 L 48 461 L 49 463 L 48 466 L 55 468 Q 68 466 77 469 L 79 469 L 124 467 L 125 466 L 125 455 L 123 454 L 121 455 L 92 455 L 91 456 L 88 455 L 73 455 L 72 456 L 70 455 L 55 455 L 49 454 Z "/>
    <path fill="#f783ac" d="M 423.5 167 Q 438.3 166.7 443 176.5 Q 446.5 180 446 187.5 L 443.5 190 L 434.5 190 L 433 187.5 L 435.5 189 L 440.5 188 L 444 189 L 444 181.5 L 437.5 173 L 436 173.5 Q 438.3 172.3 435.5 171 Q 430.5 167 419.5 169 L 418 169.5 L 423.5 167 Z "/>
    <path fill="#f783ac" d="M 416.5 170 L 411 176.5 L 408 183.5 L 408 185.5 L 409 188.5 L 407 189 Q 406.3 176.1 414.5 171 L 416.5 170 Z "/>
    <path fill="#f783ac" d="M 436.5 177 L 437 179.5 L 434.5 183 L 434 181.5 L 436.5 177 Z "/>
    <path fill="#f783ac" d="M 425.5 185 L 428 185.5 L 423.5 189 L 423 186 L 425.5 185 Z "/>
    <path fill="#f783ac" d="M 419.5 186 L 420 187.5 Q 418.8 191.3 412.5 190 L 412.5 189 Q 418.1 189.6 419.5 186 Z "/>
    <path fill="#f783ac" d="M 429.5 187 Q 432.5 188.5 429.5 190 L 425 189.5 L 429 189 L 429.5 187 Z "/>
  </g>
  <g id="line">
    <path fill="#1a1a1a" d="M 360.5 37 L 371.5 37 L 375 40.5 L 376 47 L 378.5 48 L 402.5 49 L 416.5 52 Q 434.1 56.9 444 69.5 L 450 80.5 L 455 95.5 L 458 124.5 L 459.5 126 Q 466.4 125.3 469 128 Q 471.9 131.9 471 140.5 L 469 145 L 459 148.5 L 460 205.5 Q 457.3 207.3 459 213.5 Q 460.5 216.5 466.5 215 L 470 217.5 L 468.5 221 L 459 221 L 459 238.5 L 458 239.5 L 456 257.5 L 453 267.5 Q 447.8 278.8 438.5 286 L 425.5 293 Q 419.5 293 416.5 296 L 400.5 299 L 391.5 299 L 390 300.5 Q 390.8 306.6 389 309 Q 385.3 312.4 376.5 312 L 370 308.5 L 369 300.5 L 367.5 299 L 333 300 L 330.5 306 L 321.5 309 L 314.5 309 L 304.5 306 Q 295.4 317.9 280.5 324 L 266.5 328 L 247.5 328 Q 223.3 322.2 209.5 306 L 206.5 308 L 194.5 309 L 184 306 L 181.5 300 L 147 299 Q 145.4 301.1 146 306.5 L 142.5 311 L 133.5 312 L 127 308.5 L 125 300 L 119 302 L 118 304.5 L 117 318.5 L 118 321 Q 124.5 319.8 127 323.5 Q 130.5 327.5 129 336.5 L 125.5 341 L 119.5 342 L 118 343.5 L 119 447 Q 127.5 445.6 131 450.5 Q 134.4 455.6 133 465.5 L 129.5 473 L 118.5 474 L 117.5 475 L 105.5 475 L 104.5 476 L 58.5 476 L 57.5 475 L 46.5 474 L 42 470.5 Q 39.4 464.6 41 454.5 L 42 450.5 L 44.5 448 L 52.5 447 L 54 445.5 L 53 440.5 L 53 411.5 L 52 410.5 L 52 348.5 L 53 343 L 46.5 342 L 42 338.5 Q 39.5 335 41 327.5 L 42 324 L 53 319.5 L 54 295.5 L 58 276.5 Q 63.1 258.6 76.5 249 L 91.5 242 Q 98.5 242 102.5 239 L 124.5 237 L 126 235.5 Q 125.3 228.3 129.5 226 L 140.5 225 L 145 228.5 L 146 235.5 L 147.5 237 L 182 236 L 184 229 Q 190 224.8 202.5 226 L 210.5 228 Q 219.3 216.3 233.5 210 L 247.5 206 L 266.5 206 L 280.5 210 L 293.5 217 L 301 223 L 304.5 228 L 312.5 226 L 322.5 226 L 332 230.5 L 333 236 L 367.5 237 L 369 235.5 L 370 228.5 L 372.5 226 Q 375.7 223.7 382.5 225 L 389 229.5 L 390 235 L 394 232.5 L 395 222.5 L 393.5 221 Q 386 222 383 220 L 383 216 L 384.5 216 Q 386.3 213.2 392.5 215 L 394 213.5 L 393 209.5 L 393 148 Q 386.1 147.7 382 143.5 L 381 132.5 L 383 128 L 389.5 127 L 394 124.5 L 393 115.5 L 390.5 112 Q 385.6 108.7 377 110 L 376 116.5 L 371.5 122 L 359.5 122 L 356 118.5 L 354 108.5 L 353 70.5 L 354 69.5 L 355 42.5 L 358.5 38 L 360.5 37 Z M 365 42 L 363 43 L 361 45 L 360 57 L 359 58 L 359 101 L 361 109 L 361 116 L 365 117 L 369 116 L 371 112 L 371 99 L 372 98 L 372 65 L 371 64 Q 373 52 370 45 L 365 42 Z M 379 53 L 377 55 L 377 71 L 378 72 L 377 103 L 379 104 L 386 104 L 394 107 Q 401 112 400 125 L 419 125 L 420 124 L 439 124 L 440 125 L 451 125 L 452 124 L 451 107 L 447 89 L 439 73 Q 432 63 420 59 L 403 55 L 379 53 Z M 408 130 L 407 131 L 390 132 Q 386 133 387 140 L 392 142 L 420 143 L 421 144 L 450 143 L 460 141 L 464 141 L 464 134 L 463 132 L 452 131 L 451 130 L 408 130 Z M 401 148 L 399 150 L 399 206 L 400 207 L 400 214 L 401 214 L 454 214 L 454 158 L 453 157 L 454 152 L 453 148 L 444 148 L 443 149 L 406 149 L 401 148 Z M 255 211 L 240 214 L 231 218 L 223 224 Q 208 236 203 258 L 203 276 L 204 281 L 207 290 L 214 302 L 232 316 L 240 320 L 256 323 L 276 320 L 292 311 Q 307 299 312 276 L 312 258 L 311 253 Q 307 240 300 232 Q 290 220 276 214 L 262 211 L 255 211 Z M 417 219 L 416 220 L 402 220 L 400 222 L 400 232 L 397 239 L 390 242 L 391 248 L 391 293 L 400 293 L 417 290 L 436 281 L 442 275 L 449 262 L 452 249 L 453 224 L 454 223 L 453 220 L 417 219 Z M 134 231 L 131 234 Q 133 240 130 242 L 130 264 L 129 265 L 131 304 L 134 306 L 140 305 L 142 295 L 142 247 L 141 246 L 140 233 Q 139 230 134 231 Z M 377 231 L 374 237 L 374 253 L 373 254 L 373 287 L 374 288 L 374 301 L 377 306 L 383 305 L 385 300 L 385 291 L 386 290 L 386 254 L 385 253 L 384 234 L 383 233 Q 384 229 377 231 Z M 316 232 L 310 233 L 310 237 L 314 244 L 318 259 L 317 281 L 309 302 L 316 303 L 326 302 L 328 293 L 328 278 L 329 277 L 329 258 L 328 257 L 328 240 L 327 235 Q 323 231 316 232 Z M 191 233 L 188 236 L 188 245 L 187 246 L 187 288 L 188 289 L 188 300 L 189 302 L 196 303 L 206 302 L 206 299 L 203 295 L 199 284 L 197 274 L 197 261 L 199 251 L 206 235 L 205 233 L 191 233 Z M 160 242 L 159 243 L 149 243 L 147 245 L 147 262 L 148 263 L 147 292 L 149 293 L 162 293 L 163 294 L 181 294 L 182 293 Q 183 288 181 287 L 181 250 Q 183 248 182 244 L 181 242 L 160 242 Z M 335 242 L 333 244 L 334 249 L 334 287 L 333 288 Q 332 293 335 294 L 355 294 L 356 293 L 367 293 L 368 292 L 368 270 L 367 269 L 368 245 L 367 243 L 335 242 Z M 118 243 L 117 244 L 99 246 Q 87 249 79 255 L 68 268 L 62 284 L 61 295 L 60 296 L 59 320 L 76 320 L 77 319 L 107 319 L 110 320 L 111 319 L 111 309 L 115 299 L 125 293 L 124 288 L 124 250 L 125 249 L 125 243 L 118 243 Z M 65 325 L 64 326 L 50 327 Q 46 328 47 335 L 51 337 L 60 337 L 61 338 L 109 338 L 110 337 L 122 336 Q 124 335 123 329 L 120 326 Q 113 328 112 325 L 65 325 Z M 60 343 L 58 345 L 58 418 L 58 420 L 59 442 L 60 447 L 63 448 L 78 448 L 78 437 L 74 430 Q 73 423 76 421 L 84 415 L 93 416 Q 97 419 99 426 Q 99 433 94 437 Q 93 445 95 448 L 112 448 L 113 447 L 113 366 L 112 365 L 112 345 L 111 343 L 103 343 L 102 344 L 69 344 L 68 343 L 60 343 Z M 83 418 L 77 425 L 78 432 L 81 433 L 88 420 Q 89 417 83 418 Z M 93 420 Q 86 426 84 436 L 92 435 L 96 429 Q 97 422 93 420 Z M 90 438 L 89 439 L 81 439 L 81 448 L 91 448 L 92 446 L 91 440 L 90 438 Z M 49 453 L 47 455 L 47 467 L 50 469 L 58 469 L 59 470 L 106 470 L 107 469 L 124 469 L 127 467 L 127 456 L 125 453 L 78 454 L 76 454 L 49 453 Z "/>
    <path fill="#1a1a1a" d="M 421.5 165 Q 438.5 163.5 444 173.5 Q 449.3 178.2 448 189.5 L 447 192 L 406.5 192 L 405 190.5 L 405 179.5 L 414.5 168 L 421.5 165 Z M 424 167 L 415 171 Q 406 176 407 189 Q 410 191 418 190 L 420 187 L 427 182 L 430 178 L 436 174 Q 436 181 432 186 L 435 190 L 444 190 L 446 188 Q 447 180 443 177 Q 438 167 424 167 Z M 425 185 L 423 189 L 430 190 L 431 188 Q 430 184 425 185 Z "/>
    <path fill="#1a1a1a" d="M 252.5 223 L 262.5 223 L 274.5 226 Q 285.2 230.8 292 239.5 Q 302.2 250.8 301 273.5 Q 296.9 291.9 284.5 302 L 271.5 309 L 262.5 311 L 252.5 311 L 236.5 306 L 225 296.5 Q 217.7 289.3 215 277.5 L 214 262.5 L 216 252.5 L 219 245.5 L 230.5 232 L 240.5 226 L 252.5 223 Z M 254 229 L 254 251 Q 254 252 260 251 L 261 250 L 261 231 Q 259 228 254 229 Z M 267 230 L 267 254 L 273 263 L 273 266 L 290 276 L 294 277 L 295 275 L 295 259 L 287 243 Q 280 233 267 230 Z M 244 231 L 234 237 L 225 247 L 219 265 L 220 276 L 222 277 L 241 267 Q 242 258 248 254 L 248 232 Q 248 231 244 231 Z M 255 257 L 253 258 L 247 266 L 248 272 L 255 277 L 263 276 L 268 269 L 267 263 Q 265 256 255 257 Z M 274 272 Q 270 274 270 279 L 284 288 L 289 289 L 291 284 L 274 272 Z M 241 273 L 224 284 L 226 290 L 231 289 L 245 279 L 244 275 L 241 273 Z M 264 281 L 260 283 Q 255 284 254 282 L 250 282 L 234 293 Q 231 292 232 296 L 238 300 L 250 305 L 266 305 L 279 299 L 283 293 L 264 281 Z "/>
  </g>
</svg>
