<svg xmlns="http://www.w3.org/2000/svg" width="512" height="512" viewBox="0 0 512 512">
  <g id="color">
    <path fill="#ffffff" d="M 253.5 35 L 259 35.5 L 253.5 36 L 253.5 35 Z "/>
    <path fill="#ffffff" d="M 208.5 82 L 208 83.5 L 206.5 86 L 207 84.5 L 208.5 82 Z "/>
    <path fill="#ffffff" d="M 204.5 89 L 204 90.5 L 202.5 93 L 203 91.5 L 204.5 89 Z "/>
    <path fill="#ffffff" d="M 320.5 116 L 323 121.5 L 322 121.5 L 320.5 116 Z "/>
    <path fill="#ffffff" d="M 326.5 131 L 328 134.5 L 327 134.5 L 326.5 131 Z "/>
    <path fill="#ffffff" d="M 177.5 155 L 178 157.5 L 176.5 161 L 176 158.5 L 177.5 155 Z "/>
    <path fill="#ffffff" d="M 172.5 177 L 173 181.5 L 172 181.5 L 172.5 177 Z "/>
    <path fill="#ffffff" d="M 171.5 183 L 172 187.5 L 171 187.5 L 171.5 183 Z "/>
    <path fill="#ffffff" d="M 340.5 188 L 341 192.5 L 340 192.5 L 340.5 188 Z "/>
    <path fill="#ffffff" d="M 170.5 191 L 171 195.5 L 170 195.5 L 170.5 191 Z "/>
    <path fill="#ffffff" d="M 341.5 195 L 342 200.5 L 341 200.5 L 341.5 195 Z "/>
    <path fill="#ffffff" d="M 169.5 201 L 170 206.5 L 169 206.5 L 169.5 201 Z "/>
    <path fill="#ffffff" d="M 342.5 205 L 343 212.5 L 342 212.5 L 342.5 205 Z "/>
    <path fill="#ffffff" d="M 168.5 214 L 169 227.5 L 168 227.5 L 168.5 214 Z "/>
    <path fill="#ffffff" d="M 343.5 220 L 344 255.5 L 343 255.5 L 343.5 220 Z "/>
    <path fill="#ffffff" d="M 168.5 249 L 169 261.5 L 168 261.5 L 168.5 249 Z "/>
    <path fill="#ffffff" d="M 342.5 263 L 343 270.5 L 355 282.5 L 342 270.5 L 342.5 263 Z "/>
    <path fill="#ffffff" d="M 385.5 318 L 389 325.5 L 388 325.5 L 385.5 318 Z "/>
    <path fill="#ffffff" d="M 389.5 328 L 390 332.5 L 389 332.5 L 389.5 328 Z "/>
    <path fill="#ffffff" d="M 121.5 334 L 122 348.5 L 121 348.5 L 121.5 334 Z "/>
    <path fill="#ffffff" d="M 390.5 345 L 391 358.5 L 390 358.5 L 390.5 345 Z "/>
    <path fill="#ffffff" d="M 120.5 354 L 121 397.5 L 120 397.5 L 120.5 354 Z "/>
    <path fill="#ffffff" d="M 319.5 362 L 317.5 365 L 316 364.5 L 319.5 362 Z "/>
    <path fill="#ffffff" d="M 193.5 363 L 199 365.5 L 196.5 366 L 193.5 363 Z "/>
    <path fill="#ffffff" d="M 201.5 366 Q 204.8 367.8 203 374.5 L 202 374.5 Q 202.6 367.8 201.5 366 Z "/>
    <path fill="#ffffff" d="M 202.5 379 L 203 383.5 L 202 383.5 L 202.5 379 Z "/>
    <path fill="#ffffff" d="M 203.5 385 L 208 390.5 L 203 386.5 L 203.5 385 Z "/>
    <path fill="#ffffff" d="M 390.5 389 L 391 399.5 L 390 399.5 L 390.5 389 Z "/>
    <path fill="#ffffff" d="M 208.5 402 L 209 403.5 L 207.5 406 L 207 404.5 L 208.5 402 Z "/>
    <path fill="#ffffff" d="M 305.5 410 L 306 414.5 L 305 414.5 L 305.5 410 Z "/>
    <path fill="#ffffff" d="M 205.5 414 L 206 426.5 L 205 426.5 L 205.5 414 Z "/>
    <path fill="#ffffff" d="M 305.5 426 L 306 430.5 L 305 430.5 L 305.5 426 Z "/>
    <path fill="#ffffff" d="M 302.5 438 L 303 439.5 L 299.5 445 L 300 443.5 L 302.5 438 Z "/>
    <path fill="#ffffff" d="M 279.5 442 L 281 442.5 L 279 443 L 278.5 445 L 278 443.5 L 279.5 442 Z "/>
    <path fill="#ffffff" d="M 283.5 447 L 288 453.5 L 285 451.5 L 283.5 447 Z "/>
    <path fill="#ffffff" d="M 276.5 450 L 277 451.5 L 275.5 454 L 275 452.5 L 276.5 450 Z "/>
    <path fill="#ffffff" d="M 238.5 451 L 240 455.5 L 239 455.5 L 238.5 451 Z "/>
    <path fill="#ffffff" d="M 227.5 453 L 224.5 457 L 221 455.5 L 222.5 456 Q 227 456.5 227.5 453 Z "/>
    <path fill="#ffffff" d="M 274.5 455 L 275 456.5 L 273.5 459 L 273 457.5 L 274.5 455 Z "/>
    <path fill="#ffffff" d="M 243.5 464 L 246 467.5 L 244 466.5 L 243.5 464 Z "/>
    <path fill="#ffffff" d="M 255.5 476 L 260 477.5 L 257.5 478 L 255.5 476 Z "/>
    <path fill="#4da3ff" d="M 311.5 124 Q 315.3 122.8 314 126.5 L 324 153.5 L 325 162.5 L 330 180.5 L 330 188.5 L 331 189.5 L 332 204.5 L 333 205.5 L 333 215.5 L 334 216.5 L 334 257.5 L 333 259.5 L 334 261.5 L 333 262.5 L 332 282.5 L 331 283.5 L 331 291.5 L 330 292.5 L 328 310.5 L 320 341.5 L 313.5 355 L 310.5 357 L 300.5 359 L 293.5 359 L 286.5 361 L 272.5 361 L 273 359.5 L 273 341.5 L 274 339.5 L 273 337.5 L 274 336.5 L 274 301.5 Q 271.8 300.2 273 295.5 L 269.5 291 L 259.5 289 L 258.5 290 L 244.5 290 L 238 295.5 L 238 349.5 L 239 350.5 L 239 361 L 228.5 361 L 227.5 360 L 225.5 361 L 218.5 359 L 200.5 357 L 196 353.5 L 192 339.5 L 190 337.5 Q 189.2 325.8 185 317.5 L 180 288.5 L 179 267.5 L 178 266.5 L 178 212.5 L 179 211.5 L 179 199.5 L 180 198.5 L 181 183.5 L 186 163.5 L 186 161.5 L 194 133.5 L 198.5 125 L 218.5 132 L 220.5 132 L 226.5 134 L 242.5 135 L 243.5 136 L 271.5 136 L 296.5 131 L 307.5 127 L 311.5 124 Z M 249 162 Q 239 164 234 169 Q 222 177 219 194 L 219 205 L 223 215 Q 222 218 225 217 L 227 222 L 236 229 Q 238 228 237 231 L 251 235 L 261 235 L 269 233 L 281 226 L 289 215 L 292 206 L 292 191 L 290 184 L 285 176 Q 278 167 268 163 Q 260 161 249 162 Z "/>
    <path fill="#4da3ff" d="M 158.5 295 L 161 299.5 L 167 323.5 L 167 336.5 L 164 349.5 L 164.5 351 Q 161.9 350.2 163 353.5 L 158 367.5 L 159 369.5 L 157 369.5 L 150.5 383 L 132.5 398 L 130 398 L 131 395.5 L 130 394.5 L 130 353.5 L 131 352.5 L 131 332.5 L 134 322 Q 136.7 323.1 136 320.5 L 139 316 Q 141.7 317.1 141 314.5 L 158.5 295 Z "/>
    <path fill="#4da3ff" d="M 352.5 295 L 357 301 L 361 303.5 L 364 309 L 367 310.5 L 372 318 L 376 320.5 L 380 327.5 L 380 329.5 Q 378.5 335 381 336.5 L 382 385.5 L 381 389.5 L 381 391.5 Q 382.5 398.5 379.5 398 L 371 391.5 Q 371.8 389.3 369.5 390 L 358 380.5 Q 358.7 377.9 356 379 L 356 376.5 L 353.5 369 L 352.5 371 L 352 369.5 L 353 366.5 L 352 366.5 L 351.5 368 L 351 366.5 L 352 363.5 L 349 356.5 L 349 352.5 L 346.5 345 L 345.5 347 L 345 344.5 L 346 341.5 L 345 340.5 L 345 321.5 L 352.5 295 Z "/>
    <path fill="#4da3ff" d="M 212 370 L 222.5 372 L 229.5 372 L 231.5 372 Q 236.9 371.4 239 373 L 240 382.5 L 238.5 384 L 235.5 383 L 221.5 383 L 220.5 382 L 219.5 383 L 212 383 Q 210.1 380.3 211 373.5 L 212 370 Z "/>
    <path fill="#4da3ff" d="M 298.5 370 L 301 370.5 L 300 371.5 L 300 381.5 L 298.5 383 L 296.5 384 L 295.5 383 L 286.5 383 L 284.5 383 L 273.5 383 L 273 380.5 L 272 376.5 L 273 373 L 277.5 372 L 279.5 373 L 286.5 371 L 297.5 371 L 298.5 370 Z "/>
    <path fill="#ffd43b" d="M 253.5 44 L 257.5 44 L 265.5 48 L 278 60.5 Q 298 84.8 310 116 Q 296.4 122.7 278.5 126 L 245.5 127 L 244.5 126 L 228.5 125 L 201 118 L 204 107.5 L 218 82.5 Q 228.8 64.3 243.5 50 L 253.5 44 Z "/>
    <path fill="#ffd43b" d="M 236.5 392 L 242 392.5 L 236.5 393 L 236.5 392 Z "/>
    <path fill="#ffd43b" d="M 228.5 407 L 229 411.5 L 228 411.5 L 228.5 407 Z "/>
    <path fill="#ffa94d" d="M 221.5 392 L 226 393 Q 222.6 400.8 224 414.5 L 228.5 423 L 233.5 423 L 238.5 419 L 242 419 L 249 436.5 L 253.5 441 L 258.5 442 L 265 436.5 L 269 429.5 L 271 422 L 278.5 425 L 284 423 L 288 412.5 L 288 404.5 L 285 392 L 292.5 392 L 293 393.5 L 297 399.5 L 301 412.5 L 301 428.5 L 296 441.5 L 290.5 448 L 281.5 437 L 277.5 436 L 275 438.5 L 271 452.5 L 265 463.5 L 265 466 Q 262.3 464.9 263 467.5 L 258.5 473 L 251 468 L 244 455.5 L 241 440.5 L 236.5 434 L 234.5 434 L 230 438.5 L 224 447.5 L 224 450 L 218 445.5 L 211 430.5 L 210 416.5 L 213 403.5 L 219.5 393 L 221.5 392 Z "/>
    <path fill="#ffa94d" d="M 233.5 392 L 243 393 L 245 404.5 L 249.5 411 L 256.5 413 L 259.5 412 L 264 409.5 L 266 406.5 L 269 394.5 Q 266.8 393.3 269.5 392 L 271.5 393 Q 273 390.5 278.5 392 L 282 398.5 L 283 413.5 L 281 419 L 271.5 416 L 267 419.5 L 260 436 L 256.5 437 L 252 432.5 L 248 423.5 L 248 420.5 L 243.5 414 L 239.5 413 L 230 418 L 228 406.5 L 230 396.5 L 233.5 392 Z "/>
    <path fill="#66d9e8" d="M 313.5 122 L 324 149.5 L 333 192.5 L 334 214.5 L 335 215.5 L 335 262.5 L 334 263.5 L 333 286.5 L 332 287.5 L 332 293.5 L 328 311.5 L 328 316.5 L 321 342.5 L 316 354.5 L 313.5 357 L 302.5 360 L 288.5 361 L 287.5 362 L 271 362 L 272 357.5 L 273 310.5 L 272 309.5 L 272 295.5 L 268.5 292 L 266.5 291 L 245.5 291 L 240 294.5 L 239 297.5 L 239 341.5 L 240 342.5 L 240 361.5 Q 238.8 364.3 237.5 362 L 223.5 362 L 222.5 361 L 209.5 360 L 200.5 358 L 195 353.5 L 187 330.5 L 181 303.5 L 180 289.5 L 178 281.5 L 178 271.5 L 177 270.5 L 176 223.5 L 177 222.5 L 178 197.5 L 179 196.5 L 182 171.5 L 191 138.5 L 197 123 L 212.5 129 L 230.5 133 L 243.5 134 L 244.5 135 L 269.5 135 L 292.5 131 L 313.5 122 Z M 312 124 L 308 127 L 297 131 L 272 136 L 244 136 L 243 135 L 227 134 L 221 132 L 219 132 L 199 125 L 194 134 L 186 162 L 186 164 L 181 184 L 180 199 L 179 200 L 179 212 L 178 213 L 178 267 L 179 268 L 180 289 L 185 318 Q 189 326 190 338 L 192 340 L 196 354 L 201 357 L 219 359 L 226 361 L 228 360 L 229 361 L 239 361 L 239 351 L 238 350 L 238 296 L 245 290 L 259 290 L 260 289 L 270 291 L 273 296 Q 272 300 274 302 L 274 337 L 273 338 L 274 340 L 273 342 L 273 360 L 273 361 L 287 361 L 294 359 L 301 359 L 311 357 L 314 355 L 320 342 L 328 311 L 330 293 L 331 292 L 331 284 L 332 283 L 333 263 L 334 262 L 333 260 L 334 258 L 334 217 L 333 216 L 333 206 L 332 205 L 331 190 L 330 189 L 330 181 L 325 163 L 324 154 L 314 127 Q 315 123 312 124 Z "/>
    <path fill="#66d9e8" d="M 248.5 162 Q 260 160.5 267.5 163 Q 278.3 167.2 285 175.5 L 290 183.5 L 292 190.5 L 292 205.5 L 289 214.5 L 281 226 L 268.5 233 L 260.5 235 L 250.5 235 L 237 231 Q 238.1 228.3 235.5 229 L 227 221.5 L 225 217 Q 222 218.3 223 214.5 L 219 204.5 L 219 193.5 Q 222.1 177.1 233.5 169 Q 239.2 163.7 248.5 162 Z M 251 163 L 243 165 L 232 172 Q 223 180 220 195 Q 219 210 226 219 L 236 228 L 244 232 L 253 234 L 265 233 L 279 226 Q 288 218 291 205 L 291 193 Q 290 183 285 178 Q 279 169 269 165 L 262 163 L 251 163 Z "/>
    <path fill="#66d9e8" d="M 251.5 167 L 259.5 167 L 267.5 169 L 280 178.5 L 286 189.5 L 287 202.5 Q 284.5 215 276.5 222 Q 268.1 231.1 248.5 229 Q 236.1 225.9 230 216.5 L 225 204.5 L 225 191.5 Q 228.7 178.7 238.5 172 L 251.5 167 Z M 252 176 L 242 181 Q 236 185 234 193 Q 232 205 237 211 Q 241 218 250 220 Q 262 222 269 217 Q 276 212 278 203 L 277 191 L 272 182 L 264 177 L 252 176 Z "/>
    <path fill="#66d9e8" d="M 250.5 181 L 261.5 181 L 271 188.5 Q 274.4 193.6 273 203.5 L 267.5 212 L 260.5 216 L 251.5 216 Q 244.8 213.8 241 208.5 Q 236.7 204.3 238 194.5 L 244.5 184 L 250.5 181 Z "/>
    <path fill="#66d9e8" d="M 169.5 282 L 171 284.5 L 172 297.5 L 176 319.5 L 186 352.5 L 144.5 390 L 131.5 400 L 129 400 L 129 343.5 L 130 342.5 Q 128.3 331.8 131 325.5 L 141 312.5 L 169.5 282 Z M 159 295 L 141 315 Q 142 317 139 316 L 136 321 Q 137 323 134 322 L 131 333 L 131 353 L 130 354 L 130 395 L 131 396 L 130 398 L 133 398 L 151 383 L 157 370 L 159 370 L 158 368 L 163 354 Q 162 350 165 351 L 164 350 L 167 337 L 167 324 L 161 300 L 159 295 Z "/>
    <path fill="#66d9e8" d="M 341 282 Q 343.7 280.9 343 283.5 Q 363.1 302.4 380 324.5 L 382 333.5 L 382 350.5 L 383 351.5 L 383 394.5 L 382 400 L 374.5 396 L 326 353.5 L 338 307.5 L 341 282 Z M 353 295 L 345 322 L 345 341 L 346 342 L 345 345 L 346 347 L 347 345 L 349 353 L 349 357 L 356 377 L 356 379 Q 359 378 358 381 L 370 390 Q 372 389 371 392 L 380 398 Q 383 399 381 392 L 381 390 L 382 386 L 381 337 Q 379 335 380 330 L 380 328 L 376 321 L 372 318 L 367 311 L 364 309 L 361 304 L 357 301 L 353 295 Z "/>
    <path fill="#66d9e8" d="M 247 298 L 263.5 298 L 265 299.5 L 264 361.5 L 263 362.5 L 263 374.5 L 262 375.5 L 261 391.5 L 258 404 L 255.5 405 L 253 404 L 250 388.5 L 249 368.5 L 248 367.5 L 247 298 Z "/>
    <path fill="#66d9e8" d="M 210 368 L 241 371 L 242 385 L 211.5 385 L 210 383.5 L 209 374.5 L 210 368 Z M 212 370 L 211 374 Q 210 380 212 383 L 220 383 L 221 382 L 222 383 L 236 383 L 239 384 L 240 383 L 239 373 Q 237 371 232 372 L 230 372 L 223 372 L 212 370 Z "/>
    <path fill="#66d9e8" d="M 298.5 368 L 302 368.5 L 302 382.5 L 299.5 385 L 270 385 L 270 373.5 L 271 371 L 297.5 369 L 298.5 368 Z M 299 370 L 298 371 L 287 371 L 280 373 L 278 372 L 273 373 L 272 377 L 273 381 L 274 383 L 285 383 L 287 383 L 296 383 L 297 384 L 299 383 L 300 382 L 300 372 L 301 371 L 299 370 Z "/>
  </g>
  <g id="line">
    <path fill="#1a1a1a" d="M 252.5 36 L 259.5 36 L 267.5 39 L 282 52.5 Q 315.9 93.6 333 151.5 L 338 172.5 L 341 200.5 L 342 201.5 L 342 212.5 L 343 213.5 L 343 262.5 Q 340.3 264.3 342 270.5 L 376 306.5 Q 383.7 313.3 388 323.5 L 390 333.5 L 391 388.5 L 390 389.5 L 390 402.5 L 388 407 L 381.5 409 Q 372.5 406 366.5 400 L 326.5 364 L 321.5 361 Q 317.2 366 309 366 L 309 382.5 L 308 386.5 L 303.5 391 L 298 392 Q 306.6 403.7 306 425.5 L 303 437.5 Q 299.7 447.2 292.5 453 L 288.5 454 L 281 442 L 278 443.5 Q 273.9 463.4 262.5 476 L 257.5 477 Q 250.1 474.4 246 468.5 L 241 459.5 L 235.5 440 L 224.5 456 Q 218.2 455.4 216 450.5 L 207 433.5 Q 204.2 424.8 206 411.5 L 210 398.5 L 214 392.5 Q 206.7 391.8 204 386.5 L 202 375.5 Q 204.8 373.8 203 367.5 L 188.5 361 L 142.5 402 L 133.5 408 L 127.5 409 L 123 405.5 L 121 399.5 L 121 349.5 L 122 348.5 L 122 330.5 L 124 321.5 L 131 311.5 L 169 270.5 L 169 249.5 L 168 248.5 L 168 228.5 L 169 227.5 L 170 196.5 L 171 195.5 L 171 188.5 L 172 187.5 L 174 170.5 L 186 128.5 Q 204.5 79 237.5 44 Q 243.3 38.3 252.5 36 Z M 254 44 L 244 50 Q 229 64 218 83 L 204 108 L 201 118 L 229 125 L 245 126 L 246 127 L 279 126 Q 296 123 310 116 Q 298 85 278 61 L 266 48 L 258 44 L 254 44 Z M 314 122 L 293 131 L 270 135 L 245 135 L 244 134 L 231 133 L 213 129 L 197 123 L 191 139 L 182 172 L 179 197 L 178 198 L 177 223 L 176 224 L 177 271 L 178 272 L 178 282 L 180 290 L 181 304 L 187 331 L 195 354 L 201 358 L 210 360 L 223 361 L 224 362 L 238 362 Q 239 364 240 362 L 240 343 L 239 342 L 239 298 L 240 295 L 246 291 L 267 291 L 269 292 L 272 296 L 272 310 L 273 311 L 272 358 L 271 362 L 288 362 L 289 361 L 303 360 L 314 357 L 316 355 L 321 343 L 328 317 L 328 312 L 332 294 L 332 288 L 333 287 L 334 264 L 335 263 L 335 216 L 334 215 L 333 193 L 324 150 L 314 122 Z M 170 282 L 141 313 L 131 326 Q 128 332 130 343 L 129 344 L 129 400 L 132 400 L 145 390 L 186 353 L 176 320 L 172 298 L 171 285 L 170 282 Z M 341 282 L 338 308 L 326 354 L 375 396 L 382 400 L 383 395 L 383 352 L 382 351 L 382 334 L 380 325 Q 363 302 343 284 Q 344 281 341 282 Z M 247 298 L 248 368 L 249 369 L 250 389 L 253 404 L 256 405 L 258 404 L 261 392 L 262 376 L 263 375 L 263 363 L 264 362 L 265 300 L 264 298 L 247 298 Z M 210 368 L 209 375 L 210 384 L 212 385 L 242 385 L 241 371 L 210 368 Z M 299 368 L 298 369 L 271 371 L 270 374 L 270 385 L 300 385 L 302 383 L 302 369 L 299 368 Z M 220 392 L 213 403 L 210 415 L 211 432 L 217 445 L 224 450 L 231 438 L 236 434 L 238 435 L 241 442 L 244 456 L 251 468 L 259 473 Q 271 459 276 437 L 279 436 L 282 437 L 288 447 L 292 448 L 299 436 L 302 422 Q 301 404 293 394 L 293 392 L 285 392 L 288 405 L 287 417 L 282 424 L 277 424 L 271 422 L 265 437 L 259 442 L 253 440 L 248 435 L 243 421 L 241 418 L 233 423 L 230 423 L 226 420 L 224 412 L 224 403 L 227 394 L 227 392 L 220 392 Z M 232 392 L 228 404 Q 227 413 230 418 L 233 418 L 238 414 L 244 414 L 247 419 L 252 433 L 257 437 L 259 437 L 263 432 L 267 420 L 270 417 L 275 417 Q 276 420 281 419 L 283 415 L 283 403 L 281 395 L 279 392 L 270 392 L 268 394 L 266 407 L 261 412 L 257 413 L 250 411 Q 244 406 244 395 L 242 392 L 232 392 Z "/>
    <path fill="#1a1a1a" d="M 250.5 163 L 261.5 163 L 268.5 165 Q 278.8 169.2 285 177.5 Q 289.5 183.5 291 192.5 L 291 204.5 Q 288 218.5 278.5 226 L 264.5 233 L 252.5 234 L 243.5 232 L 235.5 228 L 226 218.5 Q 219.4 210.1 220 194.5 Q 222.6 180.1 231.5 172 L 242.5 165 L 250.5 163 Z M 252 167 L 239 172 Q 229 179 225 192 L 225 205 L 230 217 Q 236 226 249 229 Q 268 231 277 222 Q 284 215 287 203 L 286 190 L 280 179 L 268 169 L 260 167 L 252 167 Z "/>
    <path fill="#1a1a1a" d="M 251.5 176 L 263.5 177 L 272 182 L 277 190.5 L 278 202.5 Q 275.6 212.1 268.5 217 Q 262.3 221.8 249.5 220 Q 240.9 217.6 237 210.5 Q 232.3 204.7 234 192.5 Q 236.1 185.1 241.5 181 L 251.5 176 Z M 251 181 L 245 184 L 238 195 Q 237 204 241 209 Q 245 214 252 216 L 261 216 L 268 212 L 273 204 Q 274 194 271 189 L 262 181 L 251 181 Z "/>
  </g>
</svg>
