<svg xmlns="http://www.w3.org/2000/svg" width="512" height="512" viewBox="0 0 512 512">
  <g id="color">
    <path fill="#ffffff" d="M 277.5 35 L 287 35.5 L 277.5 36 L 277.5 35 Z "/>
    <path fill="#ffffff" d="M 215.5 36 L 262 36.5 L 215.5 37 L 215.5 36 Z "/>
    <path fill="#ffffff" d="M 300.5 36 L 341 36.5 L 300.5 37 L 300.5 36 Z "/>
    <path fill="#ffffff" d="M 155.5 37 L 192 37.5 L 155.5 38 L 155.5 37 Z "/>
    <path fill="#ffffff" d="M 358.5 37 L 377 37.5 L 358.5 38 L 358.5 37 Z "/>
    <path fill="#ffffff" d="M 123.5 38 L 137 38.5 L 123.5 39 L 123.5 38 Z "/>
    <path fill="#ffffff" d="M 389.5 38 L 395 38.5 L 389.5 39 L 389.5 38 Z "/>
    <path fill="#ffffff" d="M 114.5 39 L 118 39.5 Q 111.9 39.9 109.5 44 L 112.5 40 L 114.5 39 Z "/>
    <path fill="#ffffff" d="M 397.5 39 L 403 42.5 L 404 44.5 L 402 43.5 L 400.5 41 Q 396.8 40.7 397.5 39 Z "/>
    <path fill="#ffffff" d="M 107.5 49 L 108 62.5 L 107 62.5 L 107.5 49 Z "/>
    <path fill="#ffffff" d="M 405.5 51 L 406 62.5 L 405 62.5 L 405.5 51 Z "/>
    <path fill="#ffffff" d="M 120.5 75 L 124 75.5 L 124 109.5 L 123 109.5 L 123 76.5 L 120.5 76 L 120.5 75 Z "/>
    <path fill="#ffffff" d="M 387.5 77 L 388 92.5 L 387 92.5 L 387.5 77 Z "/>
    <path fill="#ffffff" d="M 122.5 128 L 123 151.5 L 122 151.5 L 122.5 128 Z "/>
    <path fill="#ffffff" d="M 387.5 154 L 388 296.5 L 387 296.5 L 387.5 154 Z "/>
    <path fill="#ffffff" d="M 121.5 182 L 122 230.5 L 121 230.5 L 121.5 182 Z "/>
    <path fill="#ffffff" d="M 121.5 311 L 122 349.5 L 121 349.5 L 121.5 311 Z "/>
    <path fill="#ffffff" d="M 122.5 376 L 123 396.5 L 122 396.5 L 122.5 376 Z "/>
    <path fill="#ffffff" d="M 123.5 411 L 124 433.5 L 123 433.5 L 123.5 411 Z "/>
    <path fill="#ffffff" d="M 387.5 428 L 388 435.5 L 387 435.5 L 387.5 428 Z "/>
    <path fill="#ffffff" d="M 119.5 436 L 124 436.5 L 119.5 437 L 119.5 436 Z "/>
    <path fill="#ffffff" d="M 393.5 436 L 398 436.5 L 393.5 437 L 393.5 436 Z "/>
    <path fill="#ffffff" d="M 399.5 437 L 404 440.5 L 400.5 438 L 399.5 437 Z "/>
    <path fill="#ffffff" d="M 106.5 448 L 107 457.5 L 106 457.5 L 106.5 448 Z "/>
    <path fill="#ffffff" d="M 109.5 469 L 113 473.5 L 109 470.5 L 109.5 469 Z "/>
    <path fill="#ffffff" d="M 400.5 471 L 399.5 473 L 397 472.5 L 400.5 471 Z "/>
    <path fill="#ffffff" d="M 386.5 473 L 396 473.5 L 386.5 474 L 386.5 473 Z "/>
    <path fill="#ffffff" d="M 336.5 474 L 369 474.5 L 336.5 475 L 336.5 474 Z "/>
    <path fill="#ffffff" d="M 121.5 475 L 137 475.5 L 121.5 476 L 121.5 475 Z "/>
    <path fill="#ffffff" d="M 280.5 475 L 304 475.5 L 280.5 476 L 280.5 475 Z "/>
    <path fill="#ffffff" d="M 151.5 476 L 181 476.5 L 151.5 477 L 151.5 476 Z "/>
    <path fill="#ffffff" d="M 237.5 476 L 266 476.5 L 237.5 477 L 237.5 476 Z "/>
    <path fill="#ffffff" d="M 187.5 477 L 229 477.5 L 187.5 478 L 187.5 477 Z "/>
    <path fill="#4da3ff" d="M 252.5 45 L 358.5 46 L 359.5 47 L 388.5 47 L 396 49 L 396 62.5 L 393.5 65 L 374.5 65 L 373.5 66 L 370.5 65 L 256.5 65 L 255.5 66 L 253.5 66 L 120.5 66 L 117 63.5 L 116 53.5 L 117 49 L 120.5 48 L 147.5 48 L 148.5 47 L 251.5 46 L 252.5 45 Z "/>
    <path fill="#4da3ff" d="M 267.5 75 L 329.5 75 L 330.5 76 L 333.5 75 L 334.5 76 L 379 76.5 L 378 78.5 L 379 79.5 L 379 162.5 L 378 165.5 L 379 169.5 L 379 171.5 L 378 176.5 Q 380.5 178 379 183.5 L 378 184.5 L 378 192.5 L 379 193.5 L 379 209.5 L 378 210.5 L 378 230.5 L 379 235.5 L 379 237.5 L 378 245.5 L 379 246.5 L 379 255.5 L 378 258.5 L 379 259.5 L 379 432.5 L 378 435 L 250.5 435 Q 249 437.5 243.5 436 L 241.5 435 L 240.5 436 L 153.5 436 L 151.5 435 Q 149.8 437.7 143.5 436 L 141.5 436 L 134.5 435 L 133 433.5 L 133 423.5 L 132 422.5 L 132 392.5 L 131 391.5 L 131 334.5 L 130 333.5 L 130 184.5 L 131 180.5 L 131 178.5 L 131 142.5 L 132 141.5 L 131 137.5 L 132 136.5 L 132 92.5 L 133 91.5 L 133.5 76 L 135.5 77 L 137.5 76 L 138.5 77 L 203.5 77 L 204.5 76 L 266.5 76 L 267.5 75 Z M 242 86 L 241 87 L 216 87 L 215 88 L 165 88 Q 163 90 159 89 L 154 92 L 148 102 L 147 116 L 146 117 L 148 146 L 152 157 L 162 160 L 173 160 L 174 161 L 233 162 L 234 163 L 245 163 L 246 162 L 249 163 L 252 162 Q 257 161 259 163 L 260 162 L 287 162 L 289 162 Q 295 164 297 161 L 307 161 L 308 162 L 309 161 L 349 160 L 360 157 L 363 153 L 366 139 L 366 115 L 362 96 L 358 91 L 348 88 L 323 88 L 322 87 L 300 87 L 299 86 L 246 86 L 245 87 L 242 86 Z M 222 169 L 221 170 L 182 170 L 181 171 L 177 170 L 175 170 L 162 171 L 154 174 Q 149 178 148 185 L 147 198 L 146 201 L 148 228 L 151 237 L 159 242 L 184 243 L 185 244 L 218 244 L 219 245 L 321 244 L 322 243 L 342 243 L 343 242 L 345 243 Q 346 240 353 242 L 361 238 L 364 232 L 366 221 L 366 201 L 365 200 L 365 190 L 363 180 Q 359 173 351 171 L 317 170 L 316 169 L 314 170 L 309 169 L 222 169 Z M 240 251 L 239 252 L 206 252 L 205 253 L 166 253 L 155 256 L 149 264 L 147 275 L 147 286 L 146 287 L 148 311 L 151 320 L 155 323 L 162 325 L 195 326 L 196 327 L 224 327 L 226 327 L 229 328 L 231 327 L 235 328 L 256 328 L 257 327 L 260 328 L 261 327 L 334 326 L 335 325 L 349 325 L 359 322 L 364 315 L 365 304 L 366 303 L 366 283 L 365 282 L 364 267 L 362 261 Q 359 256 353 254 L 329 253 L 328 252 L 299 252 L 298 251 L 296 252 L 293 251 L 245 251 L 244 252 L 240 251 Z M 231 334 L 230 335 L 194 335 L 192 335 Q 186 334 185 336 L 163 336 L 155 339 Q 150 343 148 350 L 147 368 L 146 369 L 148 392 L 150 400 L 153 405 L 164 408 L 204 409 L 205 410 L 287 410 L 288 409 Q 292 408 294 410 L 296 409 L 345 408 L 346 407 L 354 407 L 359 405 L 362 402 L 364 397 L 366 386 L 366 366 L 365 365 L 364 349 L 362 344 L 354 337 L 335 336 L 334 335 L 331 336 L 329 335 L 299 335 L 298 334 L 231 334 Z "/>
    <path fill="#4da3ff" d="M 318.5 118 L 335.5 118 L 339 119 Q 340.6 121.1 340 126.5 L 336.5 129 L 315.5 129 L 313 128 Q 311.2 120.9 315.5 119 L 318.5 118 Z M 326 120 L 325 121 L 317 121 L 315 123 Q 314 126 317 127 L 334 127 L 336 125 Q 338 126 337 123 L 335 120 L 326 120 Z "/>
    <path fill="#4da3ff" d="M 127.5 445 L 138.5 445 L 139.5 446 L 245.5 446 L 246.5 445 L 390.5 445 L 397 447.5 Q 398.3 458.5 396 464 L 387.5 464 L 386.5 465 L 295.5 466 L 294.5 467 L 250.5 467 L 247.5 468 Q 246.3 465.8 241.5 467 L 240.5 468 L 172.5 468 L 170.5 467 L 168.5 468 L 167.5 467 L 124.5 467 L 117 465 Q 114.8 458.1 116 447 L 127.5 445 Z "/>
    <path fill="#ffd43b" d="M 285.5 116 Q 292.4 115.1 294 119.5 L 295 126.5 L 291.5 131 L 286.5 132 L 281 128.5 L 280 121.5 L 283.5 117 L 285.5 116 Z "/>
    <path fill="#9775fa" d="M 244.5 95 L 293.5 95 L 294.5 96 L 348.5 97 L 355 100.5 L 358 128.5 L 357 129.5 L 356 145.5 L 353.5 150 Q 348.4 152.4 339.5 151 L 338.5 152 L 226.5 154 L 225.5 153 L 169.5 152 L 168.5 151 L 160.5 151 L 158 148.5 L 155 131.5 L 155 113.5 L 156 112.5 L 157 101.5 L 159.5 98 L 161.5 97 L 201.5 97 L 202.5 96 L 243.5 96 L 244.5 95 Z M 284 112 L 282 113 L 276 120 Q 275 127 277 131 L 284 136 Q 291 137 295 134 L 299 129 L 300 124 L 298 118 Q 295 110 284 112 Z M 319 118 L 316 119 Q 311 121 313 128 L 316 129 L 337 129 L 340 127 Q 341 121 339 119 L 336 118 L 319 118 Z "/>
    <path fill="#9775fa" d="M 261.5 177 L 310.5 178 L 311.5 179 L 340.5 179 L 341.5 180 L 350.5 180 L 355 183.5 L 356 195.5 L 357 196.5 L 357 221.5 Q 354.8 222.8 356 227.5 L 353.5 232 L 344.5 234 L 327.5 234 L 326.5 235 L 206.5 236 L 205.5 235 L 165.5 234 L 160.5 233 L 158 230.5 L 155 214.5 L 155 195.5 L 157 184.5 L 160.5 180 L 169.5 180 L 170.5 179 L 260.5 178 L 261.5 177 Z "/>
    <path fill="#9775fa" d="M 234.5 260 L 327.5 261 L 328.5 262 L 347.5 262 L 354 264 L 357 279.5 L 357 303.5 Q 354.5 305 356 310.5 L 353.5 315 L 337.5 316 L 336.5 317 L 311.5 317 L 310.5 318 L 218.5 319 L 217.5 318 L 193.5 318 L 192.5 317 L 160.5 316 L 158 313.5 L 155 296.5 L 155 278.5 L 158 264 L 163.5 262 L 198.5 262 L 199.5 261 L 233.5 261 L 234.5 260 Z "/>
    <path fill="#9775fa" d="M 223.5 343 L 306.5 343 L 307.5 344 L 334.5 344 L 335.5 345 L 349.5 345 L 355 348.5 L 356 361.5 L 357 362.5 L 357 387.5 Q 354.8 388.7 356 393.5 L 352.5 398 L 347.5 399 L 332.5 399 L 331.5 400 L 228.5 402 L 227.5 401 L 200.5 401 L 199.5 400 L 163.5 399 L 158 396.5 L 156 387.5 L 156 378.5 L 155 377.5 L 155 360.5 L 157 349.5 L 159.5 346 L 161.5 345 L 175.5 345 L 176.5 344 L 222.5 344 L 223.5 343 Z "/>
    <path fill="#66d9e8" d="M 262.5 43 L 379.5 45 L 380.5 46 L 394.5 46 L 397 48.5 L 398 50.5 L 398 63.5 L 395.5 66 L 391.5 67 L 121.5 68 L 116 65.5 L 115 63.5 L 115 49.5 L 116 47 L 123.5 47 L 124.5 46 L 148.5 46 L 149.5 45 L 261.5 44 L 262.5 43 Z M 253 45 L 252 46 L 149 47 L 148 48 L 121 48 L 117 49 L 116 54 L 117 64 L 121 66 L 254 66 L 256 66 L 257 65 L 371 65 L 374 66 L 375 65 L 394 65 L 396 63 L 396 49 L 389 47 L 360 47 L 359 46 L 253 45 Z "/>
    <path fill="#66d9e8" d="M 227.5 74 L 379.5 74 L 380 74.5 L 380 91.5 L 381 92.5 L 381 150.5 L 380 151.5 L 380 297.5 L 381 298.5 L 381 422.5 L 380 423.5 L 380 436 L 275.5 436 L 273.5 437 L 271.5 437 L 164.5 438 L 163.5 437 L 132 437 L 131 432.5 L 130 370.5 L 129 369.5 L 129 367.5 L 128 220.5 L 129 219.5 L 129 163.5 L 130 162.5 L 131 76.5 L 132.5 75 L 226.5 75 L 227.5 74 Z M 268 75 L 267 76 L 205 76 L 204 77 L 139 77 L 138 76 L 136 77 L 134 76 L 133 92 L 132 93 L 132 137 L 131 138 L 132 142 L 131 143 L 131 179 L 131 181 L 130 185 L 130 334 L 131 335 L 131 392 L 132 393 L 132 423 L 133 424 L 133 434 L 135 435 L 142 436 L 144 436 Q 150 438 152 435 L 154 436 L 241 436 L 242 435 L 244 436 Q 249 438 251 435 L 378 435 L 379 433 L 379 260 L 378 259 L 379 256 L 379 247 L 378 246 L 379 238 L 379 236 L 378 231 L 378 211 L 379 210 L 379 194 L 378 193 L 378 185 L 379 184 Q 381 178 378 177 L 379 172 L 379 170 L 378 166 L 379 163 L 379 80 L 378 79 L 379 77 L 335 76 L 334 75 L 331 76 L 330 75 L 268 75 Z "/>
    <path fill="#66d9e8" d="M 241.5 86 L 244.5 87 L 245.5 86 L 298.5 86 L 299.5 87 L 321.5 87 L 322.5 88 L 347.5 88 L 357.5 91 L 362 95.5 L 366 114.5 L 366 138.5 L 363 152.5 L 359.5 157 L 348.5 160 L 308.5 161 L 307.5 162 L 306.5 161 L 296.5 161 Q 294.8 163.8 288.5 162 L 286.5 162 L 259.5 162 L 258.5 163 Q 257 160.5 251.5 162 L 248.5 163 L 245.5 162 L 244.5 163 L 233.5 163 L 232.5 162 L 173.5 161 L 172.5 160 L 161.5 160 L 152 157 L 148 145.5 L 146 116.5 L 147 115.5 L 148 101.5 L 153.5 92 L 158.5 89 Q 163.3 90.3 164.5 88 L 214.5 88 L 215.5 87 L 240.5 87 L 241.5 86 Z M 242 88 L 241 89 L 204 89 L 203 90 L 162 90 L 153 94 L 150 101 L 149 112 L 148 113 L 148 133 L 149 134 L 149 143 L 152 154 L 160 158 L 192 159 L 193 160 L 220 160 L 221 161 L 312 160 L 313 159 L 352 158 L 358 156 Q 362 153 363 148 L 364 134 L 365 133 L 363 105 L 360 96 L 354 91 L 349 90 L 302 89 L 301 88 L 242 88 Z "/>
    <path fill="#66d9e8" d="M 325.5 120 L 334.5 120 L 337 122.5 Q 338.1 125.8 335.5 125 L 333.5 127 L 316.5 127 Q 314.3 126.3 315 122.5 L 316.5 121 L 324.5 121 L 325.5 120 Z "/>
    <path fill="#66d9e8" d="M 221.5 169 L 308.5 169 L 313.5 170 L 315.5 169 L 316.5 170 L 350.5 171 Q 359.4 172.6 363 179.5 L 365 189.5 L 365 199.5 L 366 200.5 L 366 220.5 L 364 231.5 L 361 238 L 352.5 242 Q 346.2 240.3 344.5 243 L 342.5 242 L 341.5 243 L 321.5 243 L 320.5 244 L 218.5 245 L 217.5 244 L 184.5 244 L 183.5 243 L 158.5 242 L 151 236.5 L 148 227.5 L 146 200.5 L 147 197.5 L 148 184.5 Q 149.3 177.8 153.5 174 L 161.5 171 L 174.5 170 L 176.5 170 L 180.5 171 L 181.5 170 L 220.5 170 L 221.5 169 Z M 248 170 L 247 171 L 213 171 L 212 172 L 168 172 L 156 175 L 150 183 L 149 195 L 148 196 L 149 225 L 152 236 L 159 240 L 164 241 L 209 242 L 210 243 L 330 242 L 331 241 L 353 240 L 358 238 L 362 233 L 364 224 L 364 197 L 361 180 L 355 174 L 346 172 L 291 171 L 290 170 L 248 170 Z "/>
    <path fill="#66d9e8" d="M 239.5 251 L 243.5 252 L 244.5 251 L 292.5 251 L 295.5 252 L 297.5 251 L 298.5 252 L 327.5 252 L 328.5 253 L 352.5 254 Q 359 255.5 362 260.5 L 364 266.5 L 365 281.5 L 366 282.5 L 366 302.5 L 365 303.5 L 364 314.5 L 358.5 322 L 348.5 325 L 334.5 325 L 333.5 326 L 260.5 327 L 259.5 328 L 256.5 327 L 255.5 328 L 234.5 328 L 230.5 327 L 228.5 328 L 225.5 327 L 223.5 327 L 195.5 327 L 194.5 326 L 161.5 325 L 154.5 323 L 151 319.5 L 148 310.5 L 146 286.5 L 147 285.5 L 147 274.5 L 149 263.5 L 154.5 256 L 165.5 253 L 204.5 253 L 205.5 252 L 238.5 252 L 239.5 251 Z M 232 253 L 231 254 L 163 255 L 153 259 L 150 266 L 149 279 L 148 280 L 149 308 L 153 320 L 160 323 Q 166 321 168 324 L 217 325 L 218 326 L 270 326 L 271 325 L 341 324 L 342 323 L 355 322 L 359 320 L 361 318 L 363 312 L 364 298 L 365 297 L 363 271 L 360 261 L 358 258 L 350 255 L 335 255 L 334 254 L 232 253 Z "/>
    <path fill="#66d9e8" d="M 230.5 334 L 297.5 334 L 298.5 335 L 328.5 335 L 330.5 336 L 333.5 335 L 334.5 336 L 353.5 337 L 362 343.5 L 364 348.5 L 365 364.5 L 366 365.5 L 366 385.5 L 364 396.5 L 362 401.5 L 358.5 405 L 353.5 407 L 345.5 407 L 344.5 408 L 295.5 409 L 293.5 410 Q 292.3 407.7 287.5 409 L 286.5 410 L 204.5 410 L 203.5 409 L 163.5 408 L 153 405 L 150 399.5 L 148 391.5 L 146 368.5 L 147 367.5 L 148 349.5 Q 149.6 342.6 154.5 339 L 162.5 336 L 184.5 336 Q 186 333.5 191.5 335 L 193.5 335 L 229.5 335 L 230.5 334 Z M 218 336 L 217 337 L 173 337 L 172 338 L 161 338 L 155 341 L 150 348 L 149 363 L 148 364 L 149 390 L 152 401 Q 155 405 162 406 L 194 407 L 195 408 L 229 408 L 230 409 L 332 407 L 333 406 L 349 406 L 357 404 L 362 398 L 364 390 L 364 381 L 365 380 L 364 362 L 361 345 L 354 339 L 342 338 L 341 337 L 312 337 L 311 336 L 218 336 Z "/>
    <path fill="#66d9e8" d="M 277.5 443 L 384.5 443 L 385.5 444 Q 394.4 442.8 398 445 L 399 454.5 L 398 455.5 L 398 463.5 L 395.5 466 L 329.5 467 L 328.5 468 L 277.5 468 L 276.5 469 L 230.5 469 L 229.5 470 L 184.5 470 L 183.5 469 L 137.5 469 L 136.5 468 L 118.5 468 L 116 467 L 114 456.5 L 114 447.5 L 115 445 L 118.5 444 L 179.5 444 L 180.5 445 L 194.5 445 L 195.5 444 L 276.5 444 L 277.5 443 Z M 128 445 L 116 447 Q 115 458 117 465 L 125 467 L 168 467 L 169 468 L 171 467 L 173 468 L 241 468 L 242 467 Q 246 466 248 468 L 251 467 L 295 467 L 296 466 L 387 465 L 388 464 L 396 464 Q 398 458 397 448 L 391 445 L 247 445 L 246 446 L 140 446 L 139 445 L 128 445 Z "/>
  </g>
  <g id="line">
    <path fill="#1a1a1a" d="M 262.5 36 L 388.5 38 Q 390.2 40.7 396.5 39 L 402 42.5 L 405 48.5 L 405 65.5 L 402 72 Q 396.5 75 387 74 L 387 92.5 L 388 93.5 L 388 153.5 L 387 154.5 L 387 296.5 L 388 297.5 L 388 427.5 L 387 428.5 L 387 436 L 398.5 437 L 404 441.5 L 406 449.5 L 406 458.5 L 404 467.5 L 401.5 471 L 396.5 473 L 386.5 473 L 385.5 474 L 280.5 475 L 279.5 476 L 237.5 476 L 236.5 477 L 181.5 477 L 180.5 476 L 116.5 475 L 110 470.5 L 107 459.5 L 107 447.5 L 109 441.5 L 111.5 439 Q 116.4 436.1 124 437 L 123 376.5 L 122 375.5 L 121 231.5 L 122 230.5 L 122 152.5 L 123 151.5 L 124 75 Q 115.8 75.8 111 73 L 108 65.5 L 108 47.5 L 112.5 41 L 118.5 39 L 136.5 39 L 137.5 38 L 261.5 37 L 262.5 36 Z M 263 43 L 262 44 L 150 45 L 149 46 L 125 46 L 124 47 L 116 47 L 115 50 L 115 64 L 116 66 L 122 68 L 392 67 L 396 66 L 398 64 L 398 51 L 397 49 L 395 46 L 381 46 L 380 45 L 263 43 Z M 228 74 L 227 75 L 133 75 L 131 77 L 130 163 L 129 164 L 129 220 L 128 221 L 129 368 L 129 370 L 130 371 L 131 433 L 132 437 L 164 437 L 165 438 L 272 437 L 274 437 L 276 436 L 380 436 L 380 424 L 381 423 L 381 299 L 380 298 L 380 152 L 381 151 L 381 93 L 380 92 L 380 75 L 380 74 L 228 74 Z M 278 443 L 277 444 L 196 444 L 195 445 L 181 445 L 180 444 L 119 444 L 115 445 L 114 448 L 114 457 L 116 467 L 119 468 L 137 468 L 138 469 L 184 469 L 185 470 L 230 470 L 231 469 L 277 469 L 278 468 L 329 468 L 330 467 L 396 466 L 398 464 L 398 456 L 399 455 L 398 445 Q 394 443 386 444 L 385 443 L 278 443 Z "/>
    <path fill="#1a1a1a" d="M 241.5 88 L 300.5 88 L 301.5 89 L 348.5 90 L 353.5 91 L 360 95.5 L 363 104.5 L 365 132.5 L 364 133.5 L 363 147.5 Q 361.8 153.3 357.5 156 L 351.5 158 L 312.5 159 L 311.5 160 L 220.5 161 L 219.5 160 L 192.5 160 L 191.5 159 L 159.5 158 L 152 153.5 L 149 142.5 L 149 133.5 L 148 132.5 L 148 112.5 L 151 97.5 L 156.5 92 L 161.5 90 L 202.5 90 L 203.5 89 L 240.5 89 L 241.5 88 Z M 245 95 L 244 96 L 203 96 L 202 97 L 162 97 L 160 98 L 157 102 L 156 113 L 155 114 L 155 132 L 158 149 L 161 151 L 169 151 L 170 152 L 226 153 L 227 154 L 339 152 L 340 151 Q 348 152 354 150 L 356 146 L 357 130 L 358 129 L 355 101 L 349 97 L 295 96 L 294 95 L 245 95 Z "/>
    <path fill="#1a1a1a" d="M 283.5 112 Q 295.3 110.2 298 117.5 L 300 123.5 L 299 128.5 L 294.5 134 Q 291.2 137.2 283.5 136 L 277 130.5 Q 274.5 127 276 119.5 L 281.5 113 L 283.5 112 Z M 286 116 L 284 117 L 280 122 L 281 129 L 287 132 L 292 131 L 295 127 L 294 120 Q 292 115 286 116 Z "/>
    <path fill="#1a1a1a" d="M 247.5 170 L 289.5 170 L 290.5 171 L 345.5 172 L 354.5 174 L 361 179.5 L 364 196.5 L 364 223.5 L 362 232.5 L 357.5 238 L 352.5 240 L 330.5 241 L 329.5 242 L 209.5 243 L 208.5 242 L 163.5 241 L 158.5 240 L 152 235.5 L 149 224.5 L 148 195.5 L 149 194.5 L 150 182.5 L 155.5 175 L 167.5 172 L 211.5 172 L 212.5 171 L 246.5 171 L 247.5 170 Z M 262 177 L 261 178 L 171 179 L 170 180 L 161 180 L 157 185 L 155 196 L 155 215 L 158 231 L 161 233 L 166 234 L 206 235 L 207 236 L 327 235 L 328 234 L 345 234 L 354 232 L 356 228 Q 355 223 357 222 L 357 197 L 356 196 L 355 184 L 351 180 L 342 180 L 341 179 L 312 179 L 311 178 L 262 177 Z "/>
    <path fill="#1a1a1a" d="M 231.5 253 L 333.5 254 L 334.5 255 L 349.5 255 L 357.5 258 L 360 260.5 L 363 270.5 L 365 296.5 L 364 297.5 L 363 311.5 L 361 317.5 L 358.5 320 L 354.5 322 L 341.5 323 L 340.5 324 L 270.5 325 L 269.5 326 L 217.5 326 L 216.5 325 L 167.5 324 Q 165.8 321.3 159.5 323 L 153 319.5 L 149 307.5 L 148 279.5 L 149 278.5 L 150 265.5 L 153 259 L 162.5 255 L 230.5 254 L 231.5 253 Z M 235 260 L 234 261 L 200 261 L 199 262 L 164 262 L 158 264 L 155 279 L 155 297 L 158 314 L 161 316 L 193 317 L 194 318 L 218 318 L 219 319 L 311 318 L 312 317 L 337 317 L 338 316 L 354 315 L 356 311 Q 355 305 357 304 L 357 280 L 354 264 L 348 262 L 329 262 L 328 261 L 235 260 Z "/>
    <path fill="#1a1a1a" d="M 217.5 336 L 310.5 336 L 311.5 337 L 340.5 337 L 341.5 338 L 353.5 339 L 361 344.5 L 364 361.5 L 365 379.5 L 364 380.5 L 364 389.5 L 362 397.5 L 356.5 404 L 348.5 406 L 332.5 406 L 331.5 407 L 229.5 409 L 228.5 408 L 194.5 408 L 193.5 407 L 161.5 406 Q 154.9 405.1 152 400.5 L 149 389.5 L 148 363.5 L 149 362.5 L 150 347.5 L 154.5 341 L 160.5 338 L 171.5 338 L 172.5 337 L 216.5 337 L 217.5 336 Z M 224 343 L 223 344 L 177 344 L 176 345 L 162 345 L 160 346 L 157 350 L 155 361 L 155 378 L 156 379 L 156 388 L 158 397 L 164 399 L 200 400 L 201 401 L 228 401 L 229 402 L 332 400 L 333 399 L 348 399 L 353 398 L 356 394 Q 355 389 357 388 L 357 363 L 356 362 L 355 349 L 350 345 L 336 345 L 335 344 L 308 344 L 307 343 L 224 343 Z "/>
  </g>
</svg>
