<svg xmlns="http://www.w3.org/2000/svg" width="512" height="512" viewBox="0 0 512 512">
  <g id="color">
    <path fill="#ffffff" d="M 206.5 36 L 251 36.5 L 206.5 37 L 206.5 36 Z "/>
    <path fill="#ffffff" d="M 289.5 36 L 305 36.5 L 289.5 37 L 289.5 36 Z "/>
    <path fill="#ffffff" d="M 331.5 36 L 340 36.5 L 331.5 37 L 331.5 36 Z "/>
    <path fill="#ffffff" d="M 186.5 37 L 200 37.5 L 178.5 39 L 178.5 38 Q 184.8 39.8 186.5 37 Z "/>
    <path fill="#ffffff" d="M 342.5 37 Q 348.3 36.3 351 38.5 L 348.5 39 Q 347.2 36.8 342.5 38 L 342.5 37 Z "/>
    <path fill="#ffffff" d="M 168.5 39 L 173 39.5 L 168.5 40 L 168.5 39 Z "/>
    <path fill="#ffffff" d="M 353.5 39 L 361 41.5 L 359.5 42 L 353.5 40 L 353.5 39 Z "/>
    <path fill="#ffffff" d="M 162.5 40 L 167 40.5 L 159.5 42 L 159.5 41 L 162.5 40 Z "/>
    <path fill="#ffffff" d="M 155.5 42 L 157 42.5 L 152.5 44 L 152.5 43 L 155.5 42 Z "/>
    <path fill="#ffffff" d="M 366.5 44 L 370 46.5 L 368.5 46 L 366.5 44 Z "/>
    <path fill="#ffffff" d="M 142.5 47 L 144 47.5 L 139.5 50 L 140.5 48 L 142.5 47 Z "/>
    <path fill="#ffffff" d="M 379.5 55 L 385 61.5 L 382 59.5 L 379.5 55 Z "/>
    <path fill="#ffffff" d="M 385.5 63 L 389 69.5 L 388 69.5 L 385.5 63 Z "/>
    <path fill="#ffffff" d="M 122.5 65 L 122 66.5 L 117.5 74 L 118 72.5 L 122.5 65 Z "/>
    <path fill="#ffffff" d="M 390.5 73 L 392 76.5 L 391 76.5 L 390.5 73 Z "/>
    <path fill="#ffffff" d="M 116.5 75 L 117 76.5 L 115.5 79 L 115 77.5 L 116.5 75 Z "/>
    <path fill="#ffffff" d="M 393.5 81 L 395 86.5 L 394 86.5 L 393.5 81 Z "/>
    <path fill="#ffffff" d="M 113.5 83 L 114 85.5 L 112.5 89 L 112 86.5 L 113.5 83 Z "/>
    <path fill="#ffffff" d="M 395.5 89 L 397 96.5 L 396 96.5 L 395.5 89 Z "/>
    <path fill="#ffffff" d="M 111.5 91 L 112 94.5 L 110.5 103 L 110 95.5 L 111.5 91 Z "/>
    <path fill="#ffffff" d="M 397.5 99 L 398 104.5 L 397 104.5 L 397.5 99 Z "/>
    <path fill="#ffffff" d="M 109.5 106 L 110 118.5 L 109 118.5 L 109.5 106 Z "/>
    <path fill="#ffffff" d="M 398.5 109 L 399 123.5 L 400 124.5 L 400 200.5 L 399 200.5 L 399 124.5 L 398 123.5 L 398.5 109 Z "/>
    <path fill="#ffffff" d="M 109.5 132 L 110 153.5 L 109 153.5 L 109.5 132 Z "/>
    <path fill="#ffffff" d="M 110.5 161 L 112 201.5 L 111 202.5 L 110.5 243 L 110 202.5 Q 112.3 201.2 111 196.5 L 110 195.5 L 110.5 161 Z "/>
    <path fill="#ffffff" d="M 400.5 233 L 401 262.5 L 400 262.5 L 400.5 233 Z "/>
    <path fill="#ffffff" d="M 109.5 253 L 110 300.5 L 109 300.5 L 109.5 253 Z "/>
    <path fill="#ffffff" d="M 401.5 266 L 402 288.5 L 401 288.5 L 401.5 266 Z "/>
    <path fill="#ffffff" d="M 402.5 293 L 403 309.5 L 402 309.5 L 402.5 293 Z "/>
    <path fill="#ffffff" d="M 110.5 309 L 111 329.5 L 112 330.5 L 112 373.5 L 111 374.5 L 111 402.5 L 112 403.5 L 112 411.5 L 111 411.5 L 111 403.5 L 110 402.5 L 110 373.5 L 111 372.5 L 111 330.5 L 110 329.5 L 110.5 309 Z "/>
    <path fill="#ffffff" d="M 403.5 323 L 404 350.5 L 403 350.5 L 403.5 323 Z "/>
    <path fill="#ffffff" d="M 402.5 362 L 403 373.5 L 402 373.5 L 402.5 362 Z "/>
    <path fill="#ffffff" d="M 401.5 376 L 402 392.5 L 401 392.5 L 401.5 376 Z "/>
    <path fill="#ffffff" d="M 400.5 395 L 401 405.5 L 400 405.5 L 400.5 395 Z "/>
    <path fill="#ffffff" d="M 399.5 410 L 400 414.5 L 398.5 419 L 398 415.5 L 399.5 410 Z "/>
    <path fill="#ffffff" d="M 112.5 415 L 113 419.5 L 112 419.5 L 112.5 415 Z "/>
    <path fill="#ffffff" d="M 396.5 424 L 397 426.5 L 395.5 429 L 395 427.5 L 396.5 424 Z "/>
    <path fill="#ffffff" d="M 115.5 430 L 117 434.5 L 116 434.5 L 115.5 430 Z "/>
    <path fill="#ffffff" d="M 118.5 438 L 120 441.5 L 119 441.5 L 118.5 438 Z "/>
    <path fill="#ffffff" d="M 389.5 441 L 389 442.5 L 385.5 447 L 388 443.5 L 389.5 441 Z "/>
    <path fill="#ffffff" d="M 120.5 443 L 128 452.5 L 124 449.5 L 120.5 443 Z "/>
    <path fill="#ffffff" d="M 384.5 448 L 376.5 457 L 367.5 463 L 368.5 461 Q 378.2 456.2 384.5 448 Z "/>
    <path fill="#ffffff" d="M 141.5 463 L 146 465.5 L 144.5 466 L 141.5 463 Z "/>
    <path fill="#ffffff" d="M 365.5 463 L 364.5 465 L 361.5 466 L 361.5 465 L 365.5 463 Z "/>
    <path fill="#ffffff" d="M 147.5 466 L 152 467.5 L 149.5 468 L 147.5 466 Z "/>
    <path fill="#ffffff" d="M 358.5 466 L 360 466.5 L 356.5 468 L 356.5 467 L 358.5 466 Z "/>
    <path fill="#ffffff" d="M 156.5 469 L 165 470.5 L 160.5 471 L 156.5 470 L 156.5 469 Z "/>
    <path fill="#ffffff" d="M 349.5 469 L 352 469.5 L 346.5 471 L 346.5 470 L 349.5 469 Z "/>
    <path fill="#ffffff" d="M 168.5 471 L 173 471.5 L 168.5 472 L 168.5 471 Z "/>
    <path fill="#ffffff" d="M 336.5 471 L 343 471.5 L 336.5 472 L 336.5 471 Z "/>
    <path fill="#ffffff" d="M 174.5 472 L 180 472.5 L 174.5 473 L 174.5 472 Z "/>
    <path fill="#ffffff" d="M 296.5 472 L 334 472.5 L 296.5 473 L 296.5 472 Z "/>
    <path fill="#ffffff" d="M 181.5 473 L 186 473.5 L 181.5 474 L 181.5 473 Z "/>
    <path fill="#ffffff" d="M 282.5 473 L 294 473.5 L 282.5 474 L 282.5 473 Z "/>
    <path fill="#ffffff" d="M 189.5 474 L 199.5 474 L 208 475.5 L 200.5 476 L 199.5 475 L 189.5 475 L 189.5 474 Z "/>
    <path fill="#ffffff" d="M 263.5 474 L 275 474.5 L 250.5 476 L 250.5 475 L 262.5 475 L 263.5 474 Z "/>
    <path fill="#ffffff" d="M 211.5 476 L 222 476.5 L 211.5 477 L 211.5 476 Z "/>
    <path fill="#ffffff" d="M 233.5 476 L 247 476.5 L 233.5 477 L 233.5 476 Z "/>
    <path fill="#4da3ff" d="M 214.5 50 L 295.5 51 L 296.5 50 L 333.5 50 L 334.5 51 L 346.5 52 L 355.5 55 L 368 63.5 L 377 81.5 L 380 98.5 L 380 100.5 L 380 115.5 L 381 117.5 L 381 119.5 Q 382.7 132.2 380 140.5 L 381 141.5 L 381 230.5 L 382 233.5 L 381 235.5 L 382 236.5 L 382 276.5 L 383 277.5 L 383 279.5 L 383 297.5 L 384 298.5 L 384 312.5 L 385 313.5 L 385 358.5 L 384 359.5 L 384 373.5 L 382 384.5 L 382 405.5 L 381 406.5 L 381 408.5 L 380 417.5 L 378 419.5 L 377 425.5 L 371 437 L 368 438.5 L 366.5 441 L 359.5 446 L 357 446 Q 358.3 449 354.5 448 L 350.5 451 L 337.5 454 L 301.5 454 L 300.5 455 L 271.5 456 L 270.5 457 L 249.5 458 L 248.5 459 L 208.5 459 L 192.5 456 Q 178.7 451.3 171 440.5 L 167 432.5 L 163 418.5 L 163 416.5 L 161 406.5 L 161 399.5 L 160 398.5 L 160 389.5 L 161 385.5 L 160 384.5 L 160 306.5 L 161 305.5 L 161 283.5 L 162 282.5 L 161 280.5 L 162 279.5 L 162 205.5 L 161 204.5 L 160 154.5 L 159 153.5 L 159 107.5 L 160 106.5 L 160 98.5 L 162 88.5 Q 165.3 85.3 165 78.5 L 173 65 L 190.5 54 L 197.5 52 L 213.5 51 L 214.5 50 Z M 338 87 L 333 89 L 326 98 Q 325 108 329 113 L 334 116 Q 337 115 336 118 L 338 117 L 340 118 L 348 115 L 353 109 Q 352 105 355 106 L 354 105 L 355 100 L 352 95 L 352 93 L 346 88 L 338 87 Z M 299 147 L 294 149 L 245 149 L 232 152 L 227 155 Q 223 154 224 157 L 218 159 Q 212 162 210 170 L 207 180 L 206 195 L 205 196 L 206 198 L 206 302 L 207 303 L 206 305 L 207 306 L 207 319 L 208 320 L 209 338 L 214 348 L 221 353 L 236 357 L 275 357 L 276 356 L 279 357 L 281 356 L 307 356 Q 308 354 313 355 L 322 351 L 330 343 L 335 330 L 336 313 L 337 312 L 337 301 L 338 300 L 338 283 L 340 276 L 340 269 L 343 260 L 343 256 L 345 253 L 346 243 L 349 236 L 349 231 L 353 214 L 354 211 L 354 198 L 349 186 L 349 183 L 333 158 Q 328 150 318 147 L 301 147 L 299 147 Z M 208 368 L 206 369 L 202 374 L 198 374 L 192 379 L 190 379 L 190 381 L 185 391 L 185 405 Q 189 415 197 420 Q 199 419 198 422 L 206 424 L 216 424 L 228 418 Q 236 412 238 400 L 239 397 L 237 386 L 233 379 Q 228 372 221 369 Q 216 367 208 368 Z "/>
    <path fill="#4da3ff" d="M 160.5 54 L 165 54.5 L 151 74.5 L 146 96.5 Q 147.8 102.8 145 104.5 L 145 160.5 Q 147.2 161.8 146 166.5 L 145 168.5 L 146 169.5 L 147 204.5 L 146 207.5 L 147 208.5 L 148 233.5 L 147 234.5 L 147 243.5 L 148 244.5 L 148 255.5 L 147 256.5 L 147 284.5 L 146 286.5 L 147 287.5 L 147 299.5 L 146 300.5 L 146 322.5 L 145 326.5 L 146 329.5 L 145 330.5 L 145 383.5 L 146 385.5 L 145 388.5 L 146 389.5 L 146 402.5 L 149 417.5 L 149 425.5 L 151 428.5 L 151 430.5 L 156 443.5 L 163.5 454 Q 166.1 453.2 165 456.5 L 163.5 456 Q 156.8 457.2 154.5 454 L 152.5 454 L 146.5 452 L 136 442.5 L 130 432.5 L 129 425.5 L 127 422.5 L 127 417.5 L 125 411.5 L 125 403.5 L 124 402.5 L 124 379.5 Q 126.5 378 125 372.5 L 124 370.5 L 125 369.5 L 125 333.5 L 124 330.5 L 125 328.5 L 124 327.5 L 124 308.5 L 123 307.5 L 123 287.5 L 122 282.5 L 123 281.5 L 123 269.5 L 122 265.5 L 123 264.5 L 123 242.5 L 124 240.5 L 124 238.5 L 124 205.5 Q 126.2 204.3 125 199.5 L 124 198.5 L 124 164.5 L 123 161.5 L 124 156.5 L 123 155.5 L 122 110.5 L 124 104.5 L 123 102.5 L 127 83 Q 130.3 84.3 129 79.5 Q 132.7 76.4 133 71 Q 135.7 72.1 135 69.5 L 139 67 Q 137.9 64.3 140.5 65 L 146.5 60 L 160.5 54 Z "/>
    <path fill="#4da3ff" d="M 298.5 161 L 315.5 161 L 321 164.5 L 332 181.5 L 285.5 182 L 274.5 184 L 272.5 183 Q 271.3 185.3 266.5 184 L 256 189 L 255 183.5 L 250 174 L 247 172.5 L 243.5 168 L 237 164.5 L 243.5 163 L 280.5 163 L 282.5 162 Q 284 164.5 289.5 163 L 298.5 161 Z "/>
    <path fill="#4da3ff" d="M 233.5 167 L 234 172.5 L 241 180.5 Q 238.5 182 242 183.5 Q 241.3 186.1 244 185 L 244 188.5 Q 248.3 192 247 200 Q 243.7 198.7 245 203.5 L 243 205.5 L 243 209.5 L 241 211.5 L 236 229.5 L 234 231.5 L 234 236.5 L 228 253.5 L 228 258 Q 224.5 256.9 226 264.5 L 220.5 283 L 219 261.5 L 219 259.5 L 220 248.5 L 219 247.5 L 219 194.5 L 221 185.5 L 221 183.5 L 225 171 L 233.5 167 Z "/>
    <path fill="#4da3ff" d="M 270.5 195 L 327.5 195 Q 329 197.5 334.5 196 L 338 198.5 L 339 207.5 L 334 226.5 L 334 230.5 L 332 232.5 Q 333 238.5 330 240.5 L 330 242.5 L 326 262.5 L 324 266.5 L 323 279.5 L 321 286.5 L 321 297.5 L 318 313.5 L 316 315.5 L 315 325.5 L 310 339 L 306.5 341 L 283.5 341 L 282.5 342 L 268.5 342 L 267.5 343 L 238.5 343 L 228.5 341 L 225 337.5 L 228 310.5 L 231 302.5 L 231 300.5 L 231 296.5 L 235 284.5 L 235 279.5 L 239 268.5 L 240 259.5 Q 242.8 257.8 242 252.5 L 244 250.5 L 244 248.5 L 253 214.5 Q 256.8 203.3 265.5 197 L 270.5 195 Z "/>
    <path fill="#ffd43b" d="M 203.5 379 Q 219.2 376.8 224 385.5 L 226 388.5 L 226 400.5 L 217.5 411 Q 213.7 413.7 205.5 412 L 198 406.5 Q 193.7 401.4 195 390.5 Q 197.6 383.1 203.5 379 Z "/>
    <path fill="#ff6b6b" d="M 337.5 90 Q 347.3 89.3 350 95.5 Q 352.5 99 351 106.5 L 348 112 L 337.5 115 L 331 110.5 L 328 100.5 Q 329.5 94 334.5 91 L 337.5 90 Z "/>
    <path fill="#9775fa" d="M 337.5 87 Q 347.5 86.5 351 92.5 L 352 94.5 L 345.5 89 L 337.5 88 L 337.5 87 Z "/>
    <path fill="#9775fa" d="M 334.5 88 L 336 88.5 L 329 93.5 Q 325.5 97.5 327 106.5 Q 328.4 112.6 333.5 115 L 335 115.5 L 333.5 116 L 329 112.5 Q 324.5 108 326 97.5 L 332.5 89 L 334.5 88 Z "/>
    <path fill="#9775fa" d="M 352.5 96 Q 355.3 98.7 354 105.5 L 353 105.5 Q 353.4 98.7 352.5 96 Z "/>
    <path fill="#9775fa" d="M 352.5 107 L 353 108.5 L 347.5 115 L 344.5 116 L 344.5 115 L 351 110.5 L 352.5 107 Z "/>
    <path fill="#9775fa" d="M 336.5 116 L 343 116.5 L 336.5 117 L 336.5 116 Z "/>
    <path fill="#66d9e8" d="M 220.5 48 L 239.5 48 L 240.5 49 L 305.5 49 L 306.5 48 L 331.5 48 L 332.5 49 L 345.5 50 L 357.5 54 Q 365.3 57.3 370 63.5 L 379 82.5 L 381 92.5 L 382 123.5 L 383 124.5 L 382 126.5 L 383 127.5 L 383 147.5 L 382 152.5 L 383 153.5 L 383 253.5 L 384 254.5 L 384 282.5 L 385 283.5 L 385 299.5 L 386 300.5 L 387 349.5 L 386 350.5 L 386 371.5 L 384 382.5 L 384 404.5 Q 381.3 406.3 383 412.5 Q 380.7 424.7 375 433.5 L 366.5 443 L 352.5 452 L 343.5 455 L 281.5 457 L 280.5 458 L 268.5 458 L 267.5 459 L 244.5 460 L 243.5 461 L 212.5 461 L 211.5 460 L 203.5 460 L 193.5 458 L 185.5 455 L 169 440.5 L 163 425.5 L 159 404.5 L 159 391.5 L 158 390.5 L 158 319.5 L 159 318.5 L 159 290.5 L 160 289.5 L 160 197.5 L 159 196.5 L 159 178.5 L 158 177.5 L 157 115.5 L 158 114.5 L 158 99.5 L 161 85.5 L 167 71.5 L 172 64 L 188.5 53 L 200.5 50 L 219.5 49 L 220.5 48 Z M 215 50 L 214 51 L 198 52 L 191 54 L 173 65 L 165 79 Q 165 85 162 89 L 160 99 L 160 107 L 159 108 L 159 154 L 160 155 L 161 205 L 162 206 L 162 280 L 161 281 L 162 283 L 161 284 L 161 306 L 160 307 L 160 385 L 161 386 L 160 390 L 160 399 L 161 400 L 161 407 L 163 417 L 163 419 L 167 433 L 171 441 Q 179 451 193 456 L 209 459 L 249 459 L 250 458 L 271 457 L 272 456 L 301 455 L 302 454 L 338 454 L 351 451 L 355 448 Q 358 449 357 446 L 360 446 L 367 441 L 368 439 L 371 437 L 377 426 L 378 420 L 380 418 L 381 409 L 381 407 L 382 406 L 382 385 L 384 374 L 384 360 L 385 359 L 385 314 L 384 313 L 384 299 L 383 298 L 383 280 L 383 278 L 382 277 L 382 237 L 381 236 L 382 234 L 381 231 L 381 142 L 380 141 Q 383 132 381 120 L 381 118 L 380 116 L 380 101 L 380 99 L 377 82 L 368 64 L 356 55 L 347 52 L 335 51 L 334 50 L 297 50 L 296 51 L 215 50 Z "/>
    <path fill="#66d9e8" d="M 167.5 51 Q 170.8 49.9 170 52.5 Q 160.8 60.3 155 71.5 L 150 85.5 L 149 97.5 L 147 104.5 L 147 166.5 L 148 167.5 L 148 192.5 L 149 193.5 L 149 294.5 L 148 295.5 L 148 323.5 L 147 324.5 L 147 380.5 L 148 381.5 L 148 401.5 L 149 402.5 L 149 410.5 L 150 411.5 L 152 428.5 L 158 442.5 L 170 459 Q 157.8 459 148.5 455 L 134 443.5 L 128 433.5 L 123 412.5 L 122 375.5 L 123 374.5 L 123 326.5 L 122 325.5 L 122 309.5 L 121 308.5 L 121 237.5 L 122 236.5 L 123 193.5 L 122 192.5 L 122 167.5 L 121 166.5 L 120 109.5 L 121 108.5 L 121 100.5 L 123 94.5 L 123 89.5 L 126 80.5 Q 131.3 68.3 141.5 61 L 154.5 54 L 167.5 51 Z M 161 54 L 147 60 L 141 65 Q 138 64 139 67 L 135 70 Q 136 72 133 71 Q 133 76 129 80 Q 130 84 127 83 L 123 103 L 124 105 L 122 111 L 123 156 L 124 157 L 123 162 L 124 165 L 124 199 L 125 200 Q 126 204 124 206 L 124 239 L 124 241 L 123 243 L 123 265 L 122 266 L 123 270 L 123 282 L 122 283 L 123 288 L 123 308 L 124 309 L 124 328 L 125 329 L 124 331 L 125 334 L 125 370 L 124 371 L 125 373 Q 127 378 124 380 L 124 403 L 125 404 L 125 412 L 127 418 L 127 423 L 129 426 L 130 433 L 136 443 L 147 452 L 153 454 L 155 454 Q 157 457 164 456 L 165 457 Q 166 453 164 454 L 156 444 L 151 431 L 151 429 L 149 426 L 149 418 L 146 403 L 146 390 L 145 389 L 146 386 L 145 384 L 145 331 L 146 330 L 145 327 L 146 323 L 146 301 L 147 300 L 147 288 L 146 287 L 147 285 L 147 257 L 148 256 L 148 245 L 147 244 L 147 235 L 148 234 L 147 209 L 146 208 L 147 205 L 146 170 L 145 169 L 146 167 Q 147 162 145 161 L 145 105 Q 148 103 146 97 L 151 75 L 165 55 L 161 54 Z "/>
    <path fill="#66d9e8" d="M 298.5 147 L 300.5 147 L 317.5 147 Q 327.8 149.8 333 157.5 L 349 182.5 L 349 185.5 L 354 197.5 L 354 210.5 L 353 213.5 L 349 230.5 L 349 235.5 L 346 242.5 L 345 252.5 L 343 255.5 L 343 259.5 L 340 268.5 L 340 275.5 L 338 282.5 L 338 299.5 L 337 300.5 L 337 311.5 L 336 312.5 L 335 329.5 L 330 342.5 L 321.5 351 L 312.5 355 Q 307.8 353.8 306.5 356 L 280.5 356 L 278.5 357 L 275.5 356 L 274.5 357 L 235.5 357 L 220.5 353 L 214 347.5 L 209 337.5 L 208 319.5 L 207 318.5 L 207 305.5 L 206 304.5 L 207 302.5 L 206 301.5 L 206 197.5 L 205 195.5 L 206 194.5 L 207 179.5 L 210 169.5 Q 211.8 162.3 217.5 159 L 224 157 Q 222.8 154 226.5 155 L 231.5 152 L 244.5 149 L 293.5 149 L 298.5 147 Z M 311 148 L 310 149 L 288 150 L 287 151 L 243 151 L 232 154 L 218 161 L 211 172 L 207 194 L 207 206 L 208 207 L 208 223 L 207 224 L 207 286 L 208 287 L 208 308 L 209 309 L 209 323 L 210 324 L 211 338 L 215 346 Q 219 352 228 354 Q 235 356 246 355 L 247 356 L 282 355 L 283 354 L 310 354 L 323 348 L 328 343 L 333 332 L 338 271 L 352 213 L 352 198 L 350 190 L 332 159 L 324 151 L 311 148 Z "/>
    <path fill="#66d9e8" d="M 304.5 159 Q 318.5 157 323 164.5 L 334 182.5 Q 332.8 185.3 327.5 184 L 326.5 183 L 299.5 183 L 298.5 184 L 270.5 185 L 255 191 Q 252.3 176.9 242.5 169 L 237.5 167 L 236 170.5 L 246 185.5 L 249 194.5 L 249 200.5 L 244 209.5 L 239 223.5 L 237 234.5 L 235 237.5 L 227 264.5 L 226 272.5 L 224 275.5 L 223 284.5 L 219.5 293 L 218 290.5 L 218 267.5 L 217 266.5 L 217 190.5 L 220 176.5 L 226.5 168 L 235.5 163 L 244.5 161 L 282.5 161 L 283.5 160 L 303.5 160 L 304.5 159 Z M 299 161 L 290 163 Q 284 165 283 162 L 281 163 L 244 163 L 237 165 L 244 168 L 247 173 L 250 174 L 255 184 L 256 189 L 267 184 Q 271 185 273 183 L 275 184 L 286 182 L 332 182 L 321 165 L 316 161 L 299 161 Z M 234 167 L 225 171 L 221 184 L 221 186 L 219 195 L 219 248 L 220 249 L 219 260 L 219 262 L 221 283 L 226 265 Q 225 257 228 258 L 228 254 L 234 237 L 234 232 L 236 230 L 241 212 L 243 210 L 243 206 L 245 204 Q 244 199 247 200 Q 248 192 244 189 L 244 185 Q 241 186 242 184 Q 238 182 241 181 L 234 173 L 234 167 Z "/>
    <path fill="#66d9e8" d="M 270.5 193 L 327.5 193 L 336.5 195 L 340 198.5 L 341 202.5 L 340 203.5 L 339 216.5 L 336 224.5 L 336 228.5 L 325 270.5 L 325 277.5 L 323 283.5 L 322 302.5 L 320 312.5 L 318 316.5 L 314 334.5 L 309.5 341 L 305.5 343 L 280.5 343 L 279.5 344 L 263.5 344 L 262.5 345 L 239.5 345 L 228.5 343 L 224 339.5 L 223 334.5 L 225 325.5 L 225 316.5 L 227 311.5 L 229 297.5 L 232 289.5 L 233 280.5 L 235 276.5 L 235 272.5 L 237 268.5 L 243 242.5 L 252 212.5 L 259 200 L 270.5 193 Z M 271 195 L 266 197 Q 257 203 253 215 L 244 249 L 244 251 L 242 253 Q 243 258 240 260 L 239 269 L 235 280 L 235 285 L 231 297 L 231 301 L 231 303 L 228 311 L 225 338 L 229 341 L 239 343 L 268 343 L 269 342 L 283 342 L 284 341 L 307 341 L 310 339 L 315 326 L 316 316 L 318 314 L 321 298 L 321 287 L 323 280 L 324 267 L 326 263 L 330 243 L 330 241 Q 333 239 332 233 L 334 231 L 334 227 L 339 208 L 338 199 L 335 196 Q 329 198 328 195 L 271 195 Z "/>
    <path fill="#66d9e8" d="M 207.5 368 Q 215.7 366.8 220.5 369 Q 228.3 372.3 233 378.5 L 237 385.5 L 239 396.5 L 238 399.5 Q 236 412 227.5 418 L 215.5 424 L 205.5 424 L 198 422 Q 199.1 419.3 196.5 420 Q 188.5 414.5 185 404.5 L 185 390.5 L 190 380.5 L 189.5 379 L 191.5 379 L 197.5 374 L 202 374 L 205.5 369 L 207.5 368 Z M 208 370 L 206 371 L 203 375 L 202 376 L 196 377 L 190 383 L 186 395 L 187 406 L 191 413 Q 195 420 205 422 L 220 421 L 228 416 L 235 406 L 237 397 L 235 386 L 230 377 L 218 370 L 208 370 Z "/>
    <path fill="#f783ac" d="M 336.5 88 L 345.5 89 L 352 95.5 L 353 106.5 L 347.5 114 Q 343.8 117.3 335.5 116 L 328 109.5 L 327 97.5 L 332.5 90 L 336.5 88 Z M 338 90 L 335 91 Q 330 94 328 101 L 331 111 L 338 115 L 348 112 L 351 107 Q 353 99 350 96 Q 347 89 338 90 Z "/>
  </g>
  <g id="line">
    <path fill="#1a1a1a" d="M 305.5 36 L 330.5 36 L 331.5 37 L 341.5 37 L 352.5 39 L 365.5 44 L 377 52 L 377 54 Q 379.7 52.9 379 55.5 L 385 62.5 L 392 77.5 L 398 105.5 L 398 123.5 L 399 124.5 L 399 200.5 L 400 201.5 L 400 262.5 L 401 263.5 L 401 288.5 L 402 289.5 L 402 309.5 L 403 310.5 L 403 361.5 L 402 362.5 L 402 375.5 L 401 376.5 L 400 409.5 L 397 423.5 Q 391.4 444.4 376.5 456 L 360.5 466 L 345.5 471 L 336.5 471 L 335.5 472 L 296.5 472 L 295.5 473 L 282.5 473 L 281.5 474 L 263.5 474 L 262.5 475 L 250.5 475 L 249.5 476 L 222.5 477 L 221.5 476 L 208.5 476 L 199.5 474 L 186.5 474 L 179.5 472 L 155.5 469 L 136.5 461 L 128 453.5 L 120 442.5 L 114 425.5 L 112 414.5 L 112 403.5 L 111 402.5 L 111 374.5 L 112 373.5 L 112 330.5 L 111 329.5 L 111 309.5 L 110 308.5 L 110 243.5 L 111 242.5 L 111 202.5 Q 113.8 200.8 112 194.5 L 111 193.5 L 111 161.5 L 110 160.5 L 109 119.5 L 110 118.5 L 111 95.5 L 114 82.5 L 117 74.5 L 128 58 L 138.5 50 L 148.5 45 L 173.5 39 L 199.5 38 L 200.5 37 L 304.5 37 L 305.5 36 Z M 221 48 L 220 49 L 201 50 L 189 53 L 172 64 L 167 72 L 161 86 L 158 100 L 158 115 L 157 116 L 158 178 L 159 179 L 159 197 L 160 198 L 160 290 L 159 291 L 159 319 L 158 320 L 158 391 L 159 392 L 159 405 L 163 426 L 169 441 L 186 455 L 194 458 L 204 460 L 212 460 L 213 461 L 244 461 L 245 460 L 268 459 L 269 458 L 281 458 L 282 457 L 344 455 L 353 452 L 367 443 L 375 434 Q 381 425 383 413 Q 381 406 384 405 L 384 383 L 386 372 L 386 351 L 387 350 L 386 301 L 385 300 L 385 284 L 384 283 L 384 255 L 383 254 L 383 154 L 382 153 L 383 148 L 383 128 L 382 127 L 383 125 L 382 124 L 381 93 L 379 83 L 370 64 Q 365 57 358 54 L 346 50 L 333 49 L 332 48 L 307 48 L 306 49 L 241 49 L 240 48 L 221 48 Z M 168 51 L 155 54 L 142 61 Q 131 68 126 81 L 123 90 L 123 95 L 121 101 L 121 109 L 120 110 L 121 167 L 122 168 L 122 193 L 123 194 L 122 237 L 121 238 L 121 309 L 122 310 L 122 326 L 123 327 L 123 375 L 122 376 L 123 413 L 128 434 L 134 444 L 149 455 L 158 458 L 170 459 L 158 443 L 152 429 L 150 412 L 149 411 L 149 403 L 148 402 L 148 382 L 147 381 L 147 325 L 148 324 L 148 296 L 149 295 L 149 194 L 148 193 L 148 168 L 147 167 L 147 105 L 149 98 L 150 86 L 155 72 Q 161 60 170 53 Q 171 50 168 51 Z "/>
    <path fill="#1a1a1a" d="M 310.5 148 L 323.5 151 L 332 158.5 L 350 189.5 L 352 197.5 L 352 212.5 L 338 270.5 L 333 331.5 L 328 342.5 L 322.5 348 L 309.5 354 L 282.5 354 L 281.5 355 L 246.5 356 L 245.5 355 Q 234.6 356.4 227.5 354 Q 219.2 351.9 215 345.5 L 211 337.5 L 210 323.5 L 209 322.5 L 209 308.5 L 208 307.5 L 208 286.5 L 207 285.5 L 207 223.5 L 208 222.5 L 208 206.5 L 207 205.5 L 207 193.5 L 211 171.5 L 217.5 161 L 231.5 154 L 242.5 151 L 286.5 151 L 287.5 150 L 309.5 149 L 310.5 148 Z M 305 159 L 304 160 L 284 160 L 283 161 L 245 161 L 236 163 L 227 168 L 220 177 L 217 191 L 217 267 L 218 268 L 218 291 L 220 293 L 223 285 L 227 265 L 235 238 L 237 235 L 239 224 L 244 210 L 249 201 L 249 195 L 246 186 L 236 171 L 238 167 L 243 169 Q 252 177 255 191 L 271 185 L 299 184 L 300 183 L 327 183 L 328 184 L 334 184 L 323 165 Q 318 157 305 159 Z M 271 193 L 259 200 L 252 213 L 243 243 L 237 269 L 235 273 L 235 277 L 233 281 L 232 290 L 229 298 L 227 312 L 225 317 L 225 326 L 223 335 L 224 340 L 229 343 L 240 345 L 263 345 L 264 344 L 280 344 L 281 343 L 306 343 L 310 341 L 314 335 L 318 317 L 320 313 L 322 303 L 323 284 L 325 278 L 325 271 L 336 229 L 336 225 L 339 217 L 340 204 L 341 203 L 340 199 L 337 195 L 328 193 L 271 193 Z "/>
    <path fill="#1a1a1a" d="M 207.5 370 L 217.5 370 L 230 377 L 235 385.5 L 237 396.5 L 235 405.5 L 227.5 416 L 219.5 421 L 204.5 422 Q 195.4 419.5 191 412.5 L 187 405.5 L 186 394.5 L 190 382.5 L 195.5 377 L 201.5 376 L 203 374.5 L 205.5 371 L 207.5 370 Z M 204 379 Q 198 383 195 391 Q 194 401 198 407 L 206 412 Q 214 414 218 411 L 226 401 L 226 389 L 224 386 Q 219 377 204 379 Z "/>
  </g>
</svg>
