<svg xmlns="http://www.w3.org/2000/svg" width="512" height="512" viewBox="0 0 512 512">
  <g id="color">
    <path fill="#ffffff" d="M 155.5 37 L 158 37.5 L 154.5 39 L 155.5 37 Z "/>
    <path fill="#ffffff" d="M 346.5 37 L 348 37.5 L 343.5 40 L 344.5 38 L 346.5 37 Z "/>
    <path fill="#ffffff" d="M 356.5 37 L 361 39.5 L 359.5 39 Q 355.8 38.7 356.5 37 Z "/>
    <path fill="#ffffff" d="M 176.5 46 L 179 50.5 L 178 50.5 L 176.5 46 Z "/>
    <path fill="#ffffff" d="M 143.5 51 L 144 52.5 L 142.5 55 L 142 53.5 L 143.5 51 Z "/>
    <path fill="#ffffff" d="M 180.5 54 L 182 59.5 L 181 59.5 L 180.5 54 Z "/>
    <path fill="#ffffff" d="M 371.5 56 L 374 65.5 L 374 72.5 L 373 72.5 L 373 65.5 L 371.5 56 Z "/>
    <path fill="#ffffff" d="M 140.5 61 L 141 66.5 Q 138.5 68 140 73.5 L 138.5 75 L 126 74.5 L 139 74 L 140.5 61 Z "/>
    <path fill="#ffffff" d="M 182.5 62 L 183 66.5 L 182 66.5 L 182.5 62 Z "/>
    <path fill="#ffffff" d="M 330.5 63 L 331 68.5 L 330 68.5 L 330.5 63 Z "/>
    <path fill="#ffffff" d="M 183.5 72 L 184.5 73 L 226 73.5 L 183 74 L 183.5 72 Z "/>
    <path fill="#ffffff" d="M 236.5 72 L 280 72.5 L 236.5 73 L 236.5 72 Z "/>
    <path fill="#ffffff" d="M 329.5 72 L 330 74 L 299 73.5 L 328.5 73 L 329.5 72 Z "/>
    <path fill="#ffffff" d="M 375.5 74 L 396 74.5 L 375.5 75 L 375.5 74 Z "/>
    <path fill="#ffffff" d="M 101.5 75 L 118 75.5 L 92.5 77 L 92.5 76 L 100.5 76 L 101.5 75 Z "/>
    <path fill="#ffffff" d="M 401.5 75 L 415.5 75 L 423 76.5 L 416.5 77 L 415.5 76 L 401.5 76 L 401.5 75 Z "/>
    <path fill="#ffffff" d="M 79.5 78 L 83 78.5 L 76.5 80 L 76.5 79 L 79.5 78 Z "/>
    <path fill="#ffffff" d="M 429.5 78 L 434 79.5 L 432.5 80 L 429.5 79 L 429.5 78 Z "/>
    <path fill="#ffffff" d="M 70.5 81 L 69.5 83 L 67.5 84 L 68.5 82 L 70.5 81 Z "/>
    <path fill="#ffffff" d="M 437.5 81 L 446 88.5 L 439.5 83 L 437.5 81 Z "/>
    <path fill="#ffffff" d="M 59.5 92 L 60 93.5 L 58.5 96 L 58 94.5 L 59.5 92 Z "/>
    <path fill="#ffffff" d="M 447.5 92 L 449 95.5 L 448 95.5 L 447.5 92 Z "/>
    <path fill="#ffffff" d="M 450.5 100 Q 452.8 103.8 452 110.5 L 451 110.5 L 450.5 100 Z "/>
    <path fill="#ffffff" d="M 56.5 103 L 57 108.5 L 56 108.5 L 56.5 103 Z "/>
    <path fill="#ffffff" d="M 176.5 103 L 178 105.5 L 176 112.5 L 170.5 118 L 163.5 121 L 159.5 121 Q 151.8 119.2 148 113.5 Q 145 110.3 146 104 Q 148.7 102.9 148 105.5 L 155.5 112 L 162.5 113 Q 170.1 111.5 174 106.5 L 176.5 103 Z "/>
    <path fill="#ffffff" d="M 336.5 103 L 341.5 109 L 346.5 112 L 353.5 113 Q 361.8 111.8 365 105.5 Q 364.2 102.5 368 104 L 367 110.5 L 361.5 118 L 354.5 121 L 349.5 121 Q 341.9 119.2 338 113.5 Q 334.9 109.6 336.5 103 Z M 348 115 L 347 117 L 352 117 L 348 115 Z "/>
    <path fill="#ffffff" d="M 55.5 113 L 56 125.5 L 55 125.5 L 55.5 113 Z "/>
    <path fill="#ffffff" d="M 452.5 116 L 453 127.5 L 452 127.5 L 452.5 116 Z "/>
    <path fill="#ffffff" d="M 54.5 127 L 55 194.5 L 54 194.5 L 54.5 127 Z "/>
    <path fill="#ffffff" d="M 453.5 137 L 455 171.5 L 454 171.5 L 453.5 137 Z "/>
    <path fill="#ffffff" d="M 455.5 178 L 456 190.5 L 455 190.5 L 455.5 178 Z "/>
    <path fill="#ffffff" d="M 456.5 200 L 457 215.5 L 456 215.5 L 456.5 200 Z "/>
    <path fill="#ffffff" d="M 53.5 213 L 54 245.5 L 53 245.5 L 53.5 213 Z "/>
    <path fill="#ffffff" d="M 457.5 217 L 458 237.5 L 457 237.5 L 457.5 217 Z "/>
    <path fill="#ffffff" d="M 458.5 243 L 459 258.5 L 458 258.5 L 458.5 243 Z "/>
    <path fill="#ffffff" d="M 459.5 274 L 460 300.5 L 459 300.5 L 459.5 274 Z "/>
    <path fill="#ffffff" d="M 52.5 282 L 53 337.5 L 52 337.5 L 52.5 282 Z "/>
    <path fill="#ffffff" d="M 460.5 306 L 461 377.5 L 460 377.5 L 460.5 306 Z "/>
    <path fill="#ffffff" d="M 53.5 361 L 54 385.5 L 53 385.5 L 53.5 361 Z "/>
    <path fill="#ffffff" d="M 459.5 382 L 460 402.5 L 459 402.5 L 459.5 382 Z "/>
    <path fill="#ffffff" d="M 54.5 396 L 56 429.5 L 55 429.5 L 54.5 396 Z "/>
    <path fill="#ffffff" d="M 458.5 411 L 459 421.5 L 458 421.5 L 458.5 411 Z "/>
    <path fill="#ffffff" d="M 457.5 424 L 458 435.5 L 457 435.5 L 457.5 424 Z "/>
    <path fill="#ffffff" d="M 56.5 434 L 57 439.5 L 56 439.5 L 56.5 434 Z "/>
    <path fill="#ffffff" d="M 57.5 442 L 59 447.5 L 58 447.5 L 57.5 442 Z "/>
    <path fill="#ffffff" d="M 455.5 443 L 456 445.5 L 451.5 454 L 452 452.5 L 455.5 443 Z "/>
    <path fill="#ffffff" d="M 60.5 452 L 66 459.5 L 62 456.5 L 60.5 452 Z "/>
    <path fill="#ffffff" d="M 444.5 461 L 443.5 463 L 441.5 464 L 442.5 462 L 444.5 461 Z "/>
    <path fill="#ffffff" d="M 71.5 464 L 76 466.5 L 74.5 467 L 71.5 464 Z "/>
    <path fill="#ffffff" d="M 436.5 465 L 438 465.5 L 433.5 467 L 433.5 466 L 436.5 465 Z "/>
    <path fill="#ffffff" d="M 80.5 468 L 92 469.5 L 85.5 470 L 80.5 469 L 80.5 468 Z "/>
    <path fill="#ffffff" d="M 419.5 468 L 427 468.5 L 419.5 469 L 419.5 468 Z "/>
    <path fill="#ffffff" d="M 411.5 469 L 418 469.5 L 411.5 470 L 411.5 469 Z "/>
    <path fill="#ffffff" d="M 96.5 470 L 103 470.5 L 96.5 471 L 96.5 470 Z "/>
    <path fill="#ffffff" d="M 400.5 470 L 407 470.5 L 400.5 471 L 400.5 470 Z "/>
    <path fill="#ffffff" d="M 105.5 471 L 115 471.5 L 105.5 472 L 105.5 471 Z "/>
    <path fill="#ffffff" d="M 387.5 471 L 397 471.5 L 387.5 472 L 387.5 471 Z "/>
    <path fill="#ffffff" d="M 116.5 472 L 126 472.5 L 116.5 473 L 116.5 472 Z "/>
    <path fill="#ffffff" d="M 375.5 472 L 385 472.5 L 375.5 473 L 375.5 472 Z "/>
    <path fill="#ffffff" d="M 132.5 473 L 143 473.5 L 132.5 474 L 132.5 473 Z "/>
    <path fill="#ffffff" d="M 358.5 473 L 368 473.5 L 358.5 474 L 358.5 473 Z "/>
    <path fill="#ffffff" d="M 148.5 474 L 165 474.5 L 148.5 475 L 148.5 474 Z "/>
    <path fill="#ffffff" d="M 335.5 474 L 352 474.5 L 335.5 475 L 335.5 474 Z "/>
    <path fill="#ffffff" d="M 166.5 475 L 186 475.5 L 166.5 476 L 166.5 475 Z "/>
    <path fill="#ffffff" d="M 314.5 475 L 334 475.5 L 314.5 476 L 314.5 475 Z "/>
    <path fill="#ffffff" d="M 197.5 476 L 223 476.5 L 197.5 477 L 197.5 476 Z "/>
    <path fill="#ffffff" d="M 276.5 476 L 301 476.5 L 276.5 477 L 276.5 476 Z "/>
    <path fill="#4da3ff" d="M 408.5 160 L 413 161 L 413 176.5 L 414 177.5 L 415 189.5 L 415 191.5 L 415 202.5 L 416 203.5 Q 413.8 204.8 415 209.5 L 416 210.5 L 413 213.5 L 406.5 221 Q 404.3 220.3 405 222.5 L 401 225.5 L 396.5 231 L 395 230.5 L 390.5 236 L 388 236 Q 389.1 238.7 386.5 238 L 381.5 243 L 375 246 Q 376.1 248.7 373.5 248 L 370 249.5 Q 372.3 250.8 369.5 252 L 356.5 260 L 352.5 247 L 351 247.5 L 350 243 Q 347.3 244.1 348 241.5 L 342.5 235 L 337 233 L 336.5 231 L 335 231.5 L 335.5 230 L 333.5 231 L 325.5 227 L 308.5 227 L 306.5 229 L 295.5 233 L 290 237.5 Q 290.7 240.1 288 239 L 288 241.5 L 282 249.5 L 281 255.5 L 283.5 259 L 291.5 260 L 293.5 258 L 303.5 257 L 311 259 Q 309.9 261.7 312.5 261 L 316 263.5 L 318 266.5 L 321 271.5 L 322 280 L 320 280 Q 321.1 282.7 318.5 282 L 297.5 292 L 293.5 292 L 284.5 296 L 280.5 296 L 277.5 298 Q 265.8 298.3 257.5 302 L 252.5 302 L 249.5 304 L 238.5 305 L 230.5 308 L 228.5 307 L 225.5 309 L 224 299 Q 221.3 300.1 222 297.5 L 217.5 291 L 205.5 283 Q 200.8 280.8 192.5 282 L 183 284 Q 184.3 287 180.5 286 L 174 291.5 Q 174.7 294.1 172 293 L 172 295.5 L 167 304.5 L 166 312.5 L 169 325 L 171 325.5 Q 168.5 327 172 328.5 L 171 331.5 L 171.5 333 L 164.5 338 L 162.5 338 L 157.5 343 L 156 342.5 Q 157.1 345.8 154.5 345 L 146.5 352 L 143 353 Q 144.1 355.7 141.5 355 Q 123.8 370.3 109.5 389 Q 107.3 388.3 108 390.5 L 97.5 406 L 96 401.5 L 96 380.5 L 95 379.5 Q 96.4 368.6 94 361.5 L 94 359.5 L 93 278.5 L 94 274.5 L 94 272.5 L 94 216.5 L 95 215.5 Q 92.5 214 94 208.5 L 96 198.5 L 95 195.5 L 95 193.5 Q 97.7 185.2 96 172.5 L 97 170.5 L 96 166.5 L 96 164.5 Q 95.3 162.3 97.5 163 L 98.5 164 L 224.5 164 L 226.5 164 L 244.5 162 L 247.5 163 Q 248.7 160.8 253.5 162 L 254.5 163 L 264.5 163 L 268.5 162 Q 269.8 164.2 274.5 163 L 275.5 162 L 290.5 162 L 291.5 161 L 293.5 162 L 295.5 161 L 299.5 162 L 300.5 161 L 407.5 161 L 408.5 160 Z "/>
    <path fill="#4da3ff" d="M 421.5 161 L 444 161.5 L 442 162 L 442.5 166 L 443.5 164 L 445 211.5 L 447 218.5 L 446 220.5 Q 448.5 222 447 227.5 L 446 230.5 L 447 231.5 L 447 250.5 L 448 251.5 L 447 254.5 L 448 255.5 L 448 285.5 L 449 286.5 L 450 368.5 L 449 370.5 L 449 372.5 L 448 413.5 L 447 414.5 L 447 425.5 L 445 436.5 L 446 440.5 L 444 446 L 441 447.5 L 434.5 455 Q 427.3 458.3 415.5 457 L 413.5 459 L 403.5 459 L 402.5 460 L 389.5 461 L 386.5 460 L 377.5 462 L 375.5 461 L 374.5 462 L 360.5 462 L 359.5 463 L 357.5 463 L 353.5 464 L 348.5 463 L 345.5 464 L 341.5 463 L 340.5 464 L 326.5 464 L 325.5 465 L 286.5 465 L 285.5 466 L 276.5 466 L 274.5 465 L 273.5 466 L 219.5 466 L 218.5 465 L 172.5 465 L 171.5 464 L 152.5 463 L 150.5 464 L 139.5 462 L 108.5 461 L 100.5 459 L 85.5 458 L 84.5 457 L 82.5 457 Q 75.9 456.6 73 452.5 L 68 442.5 Q 69 433.5 66 428.5 L 67 425.5 L 66 420.5 L 67 417.5 L 66 416.5 L 66 404.5 L 65 403.5 L 66 398.5 L 65 397.5 L 65 362.5 L 64 361.5 L 64 251.5 L 65 250.5 L 65 241.5 L 64 239.5 L 65 235.5 L 65 233.5 L 65 188.5 L 66 187.5 L 65 186.5 L 65 177.5 L 66 175.5 L 65 173.5 L 66 172.5 L 66 164.5 L 65.5 163 Q 68.7 160.7 75.5 162 L 76.5 163 L 88 163 L 88 191.5 L 87 192.5 L 87 214.5 L 86 215.5 L 86 253.5 L 85 254.5 L 85 318.5 L 85 320.5 Q 83.7 327.3 86 330.5 L 86 332.5 L 86 358.5 L 87 359.5 L 86 362.5 L 87 363.5 L 87 383.5 L 88 384.5 L 88 395.5 L 89 396.5 L 89 409.5 Q 91.3 410.8 90 415.5 L 96 428 L 112.5 436 L 148.5 441 L 152.5 440 L 153.5 441 L 165.5 441 L 166.5 442 L 170.5 441 L 173.5 442 L 175.5 442 L 220.5 444 L 222.5 443 L 223.5 444 L 284.5 444 L 285.5 443 L 311.5 443 L 314.5 442 Q 316 444.5 321.5 443 L 329.5 441 L 350.5 441 L 351.5 440 Q 359.7 441.7 363.5 439 L 365.5 440 L 370.5 438 L 384.5 438 L 403.5 434 Q 405.5 430.5 411.5 431 L 419 423.5 L 423 414.5 L 425 404.5 L 424 401.5 L 425 400.5 L 425 390.5 L 426 389.5 L 426 368.5 Q 428.2 367.3 427 362.5 L 427 360.5 L 427 298.5 L 426 294.5 Q 428.5 293 427 287.5 L 426 286.5 L 426 253.5 L 425 252.5 L 425 228.5 L 424 227.5 L 425 223.5 L 424 222.5 L 423 210.5 L 424 206.5 L 424 204.5 L 423 202.5 L 423 189.5 L 422 188.5 L 422 186.5 L 422 169.5 Q 419.7 168.2 421 163.5 L 421.5 161 Z "/>
    <path fill="#4da3ff" d="M 413.5 226 L 416 226.5 L 416 233.5 L 417 234.5 L 418 285.5 L 419 287.5 Q 416.5 289 418 294.5 L 419 295.5 L 419 359.5 L 418 360.5 L 418 381.5 L 417 384.5 L 417 386.5 L 415 413.5 L 407.5 423 L 401.5 426 L 400 425.5 Q 400.5 428.5 393.5 427 L 387.5 429 L 378.5 429 L 369.5 431 L 355.5 431 L 354.5 432 L 344.5 432 L 343.5 433 L 284.5 434 L 283.5 435 L 265.5 435 L 264.5 436 L 230.5 436 L 219.5 434 L 217.5 435 L 213.5 434 L 210.5 435 L 209.5 434 L 174.5 434 L 173.5 433 Q 162 434.5 154.5 432 L 152.5 432 L 131.5 431 L 110 427 L 109.5 425 L 107.5 425 L 101 420.5 L 101.5 419 L 100 418.5 L 104 409.5 L 110 401 Q 112.7 402.1 112 399.5 L 122.5 386 Q 124.8 386.8 124 384.5 L 132.5 375 Q 134.8 375.8 134 373.5 L 137 372 L 141.5 366 L 148 362 Q 146.9 359.3 149.5 360 L 156.5 353 L 172 342.5 Q 171.3 340.3 173.5 341 L 182.5 337 L 186.5 340 L 201.5 341 L 211.5 337 L 218 331.5 L 221 326 L 223 325.5 L 222.5 324 Q 224.8 324.8 224 322.5 L 224 320.5 Q 222.8 316.8 226.5 318 L 229.5 316 L 237.5 315 L 241.5 313 L 267.5 309 L 271.5 307 L 273.5 307 L 287.5 303 L 291.5 303 L 303 299 Q 301.7 295.7 306.5 297 L 317 293 L 316 299.5 L 318 303 Q 328.2 304.4 334.5 301 L 349 289.5 L 352 285.5 Q 349.5 284 353 282.5 L 355 271.5 L 358.5 268 L 365 266 Q 363.9 263.3 366.5 264 Q 370 259 376 258 Q 374.9 255.3 377.5 256 L 391 247 L 392.5 244 L 397 242 L 399.5 238 L 410 231 L 411 227 L 413.5 226 Z "/>
    <path fill="#ffd43b" d="M 160.5 46 Q 166.9 46.7 169 51.5 L 172 57.5 L 174 67.5 L 174 83.5 L 169 98.5 L 163.5 104 L 159.5 104 L 155 100.5 L 151 92.5 Q 151.7 86.8 149 84.5 L 149 65.5 L 152 54.5 L 156.5 48 L 160.5 46 Z "/>
    <path fill="#ffd43b" d="M 350.5 46 L 358 49.5 L 362 56.5 L 365 75.5 L 364 76.5 L 364 86.5 L 361 95.5 L 355.5 103 L 350.5 104 L 345 99.5 L 340 87.5 L 339 69.5 L 343 53.5 L 348.5 47 L 350.5 46 Z "/>
    <path fill="#ffd43b" d="M 217.5 82 L 300.5 82 L 301.5 83 L 331 83 L 333 95.5 Q 329.3 99.8 331 109.5 Q 333.5 117.5 339.5 122 Q 344.8 126.2 354.5 126 Q 364.5 124.5 369 117.5 Q 373.2 112.2 373 102.5 L 371 96.5 L 371 91.5 L 373 84 L 401.5 84 L 402.5 85 L 414.5 85 L 415.5 86 L 427.5 87 Q 434.9 89.6 439 95.5 L 442 104.5 L 442 112.5 L 443 113.5 L 444 150 L 321.5 150 L 320.5 151 L 231.5 152 L 230.5 153 L 91.5 153 L 90.5 152 L 67.5 152 L 64 151 L 64 123.5 L 65 122.5 L 66 102.5 L 67 97.5 L 72.5 91 L 84.5 87 L 99.5 86 L 100.5 85 L 141 84 Q 140.3 90.9 143 95.5 Q 139.2 100.2 141 110.5 Q 143.6 117.9 149.5 122 L 154.5 125 L 163.5 126 Q 174.3 124.3 179 116.5 Q 182.8 111.8 183 103.5 L 180 92.5 L 183.5 83 L 216.5 83 L 217.5 82 Z "/>
    <path fill="#ffd43b" d="M 347.5 115 L 352 116.5 L 347 117 L 347.5 115 Z "/>
    <path fill="#ffd43b" d="M 314.5 237 L 325.5 238 Q 335.2 241.8 341 249.5 L 345 257.5 L 346 267.5 Q 343.8 280.8 335.5 288 L 330 290 Q 333.1 284.4 332 273.5 Q 329.7 262.7 324 256 L 315.5 250 L 307.5 247 L 299.5 247 L 298 245.5 L 306.5 239 L 314.5 237 Z "/>
    <path fill="#ff6b6b" d="M 200.5 293 L 203.5 295 L 205 294.5 Q 202.8 295.7 205.5 297 L 207.5 296 L 211 299.5 L 210 300.5 L 212.5 305 L 214 304.5 L 213 307 L 215 307.5 L 215 316 L 212 317.5 L 210 322.5 L 210.5 324 L 208.5 324 L 207 324.5 L 209 325.5 L 204.5 329 L 201.5 328 L 200.5 329 L 192.5 329 L 185.5 326 L 184.5 327 L 181 323.5 L 182 321.5 Q 178.2 317.3 178.5 309 L 177.5 314 L 177 309.5 L 178.5 304 Q 179.8 306.3 181 303.5 L 182 300.5 Q 179.2 298.7 183.5 297 L 182.5 300 L 192.5 294 Q 198.8 295.8 200.5 293 Z "/>
    <path fill="#66d9e8" d="M 311.5 159 L 413.5 159 L 415 160.5 L 415 178.5 L 417 189.5 L 417 212.5 L 408.5 222 Q 385.3 245.3 355.5 262 Q 352.5 260 353 254.5 L 345 240 L 343 240 Q 344.1 237.3 341.5 238 L 338.5 235 L 324.5 229 L 310.5 229 L 292 238 L 286 246.5 L 283 255.5 Q 284 259 289.5 258 Q 294.3 253.8 304.5 255 Q 315.2 257.3 320 265.5 Q 324 270.5 324 279.5 L 321.5 283 L 302.5 292 L 277.5 300 L 257.5 303 L 224 311 L 220 297.5 L 213.5 290 L 201.5 284 L 191.5 284 Q 181 286.5 175 293.5 L 169 305.5 L 169 317.5 L 176 331.5 L 138 360 L 136.5 363 L 134 364.5 Q 134.8 366.8 132.5 366 L 127.5 372 L 122 376.5 L 96.5 409 L 95 407.5 Q 96.8 401.3 94 399.5 L 94 381.5 L 93 380.5 L 93 364.5 L 92 363.5 L 92 310.5 L 91 309.5 L 91 291.5 L 91 289.5 L 92 286.5 L 92 220.5 L 93 219.5 L 94 163.5 L 96.5 161 L 104.5 161 L 105.5 162 L 217.5 162 L 218.5 161 L 310.5 160 L 311.5 159 Z M 409 160 L 408 161 L 301 161 L 300 162 L 296 161 L 294 162 L 292 161 L 291 162 L 276 162 L 275 163 Q 270 164 269 162 L 265 163 L 255 163 L 254 162 Q 249 161 248 163 L 245 162 L 227 164 L 225 164 L 99 164 L 98 163 Q 95 162 96 165 L 96 167 L 97 171 L 96 173 Q 98 185 95 194 L 95 196 L 96 199 L 94 209 Q 93 214 95 216 L 94 217 L 94 273 L 94 275 L 93 279 L 94 360 L 94 362 Q 96 369 95 380 L 96 381 L 96 402 L 98 406 L 108 391 Q 107 388 110 389 Q 124 370 142 355 Q 144 356 143 353 L 147 352 L 155 345 Q 157 346 156 343 L 158 343 L 163 338 L 165 338 L 172 333 L 171 332 L 172 329 Q 168 327 171 326 L 169 325 L 166 313 L 167 305 L 172 296 L 172 293 Q 175 294 174 292 L 181 286 Q 184 287 183 284 L 193 282 Q 201 281 206 283 L 218 291 L 222 298 Q 221 300 224 299 L 226 309 L 229 307 L 231 308 L 239 305 L 250 304 L 253 302 L 258 302 Q 266 298 278 298 L 281 296 L 285 296 L 294 292 L 298 292 L 319 282 Q 321 283 320 280 L 322 280 L 321 272 L 318 267 L 316 264 L 313 261 Q 310 262 311 259 L 304 257 L 294 258 L 292 260 L 284 259 L 281 256 L 282 250 L 288 242 L 288 239 Q 291 240 290 238 L 296 233 L 307 229 L 309 227 L 326 227 L 334 231 L 336 230 L 337 233 L 343 235 L 348 242 Q 347 244 350 243 L 351 248 L 353 247 L 357 260 L 370 252 Q 372 251 370 250 L 374 248 Q 376 249 375 246 L 382 243 L 387 238 Q 389 239 388 236 L 391 236 L 395 231 L 397 231 L 401 226 L 405 223 Q 404 220 407 221 L 413 214 L 416 211 L 415 210 Q 414 205 416 204 L 415 203 L 415 192 L 415 190 L 414 178 L 413 177 L 413 161 L 409 160 Z "/>
    <path fill="#66d9e8" d="M 419 159 L 444.5 159 Q 445.6 159.1 445 164.5 L 446 165.5 L 446 189.5 L 447 190.5 L 447 203.5 L 448 204.5 L 450 285.5 L 451 286.5 L 451 390.5 L 450 391.5 L 450 413.5 L 449 414.5 L 448 438.5 Q 446 449.5 438.5 455 L 432.5 458 L 421.5 459 L 420.5 460 L 410.5 460 L 409.5 461 L 390.5 462 L 389.5 463 L 361.5 464 L 360.5 465 L 345.5 465 L 344.5 466 L 281.5 467 L 280.5 468 L 219.5 468 L 218.5 467 L 179.5 467 L 178.5 466 L 156.5 466 L 155.5 465 L 110.5 463 L 109.5 462 L 101.5 462 L 100.5 461 L 92.5 461 L 91.5 460 L 80.5 459 Q 73.3 457.2 70 451.5 L 66 442.5 Q 67.5 437 65 435.5 L 64 399.5 L 63 398.5 L 63 366.5 L 62 365.5 L 62 240.5 L 63 239.5 L 63 181.5 L 64 180.5 L 64 160 L 77.5 160 L 80.5 161 L 82.5 161 L 89.5 161 L 90 161.5 L 90 188.5 L 89 189.5 L 89 208.5 L 88 209.5 L 88 256.5 L 87 257.5 L 87 336.5 L 88 337.5 L 88 370.5 L 89 371.5 L 89 386.5 L 90 387.5 L 90 397.5 L 91 398.5 L 91 410.5 L 95 422.5 L 101.5 429 L 109.5 433 L 117.5 435 L 148.5 438 L 149.5 439 L 167.5 439 L 168.5 440 L 185.5 440 L 186.5 441 L 217.5 441 L 218.5 442 L 282.5 442 L 283.5 441 L 310.5 441 L 311.5 440 L 350.5 439 L 351.5 438 L 383.5 436 L 399.5 433 L 408.5 430 L 415 425.5 L 421 413.5 L 422 401.5 L 423 400.5 L 424 368.5 L 425 367.5 L 425 286.5 L 424 285.5 L 424 252.5 L 423 251.5 L 422 205.5 L 421 204.5 L 420 168.5 L 419 167.5 L 419 159 Z M 422 161 L 421 164 Q 420 168 422 170 L 422 187 L 422 189 L 423 190 L 423 203 L 424 205 L 424 207 L 423 211 L 424 223 L 425 224 L 424 228 L 425 229 L 425 253 L 426 254 L 426 287 L 427 288 Q 429 293 426 295 L 427 299 L 427 361 L 427 363 Q 428 367 426 369 L 426 390 L 425 391 L 425 401 L 424 402 L 425 405 L 423 415 L 419 424 L 412 431 Q 406 431 404 434 L 385 438 L 371 438 L 366 440 L 364 439 Q 360 442 352 440 L 351 441 L 330 441 L 322 443 Q 316 445 315 442 L 312 443 L 286 443 L 285 444 L 224 444 L 223 443 L 221 444 L 176 442 L 174 442 L 171 441 L 167 442 L 166 441 L 154 441 L 153 440 L 149 441 L 113 436 L 96 428 L 90 416 Q 91 411 89 410 L 89 397 L 88 396 L 88 385 L 87 384 L 87 364 L 86 363 L 87 360 L 86 359 L 86 333 L 86 331 Q 84 327 85 321 L 85 319 L 85 255 L 86 254 L 86 216 L 87 215 L 87 193 L 88 192 L 88 163 L 77 163 L 76 162 Q 69 161 66 163 L 66 165 L 66 173 L 65 174 L 66 176 L 65 178 L 65 187 L 66 188 L 65 189 L 65 234 L 65 236 L 64 240 L 65 242 L 65 251 L 64 252 L 64 362 L 65 363 L 65 398 L 66 399 L 65 404 L 66 405 L 66 417 L 67 418 L 66 421 L 67 426 L 66 429 Q 69 434 68 443 L 73 453 Q 76 457 83 457 L 85 457 L 86 458 L 101 459 L 109 461 L 140 462 L 151 464 L 153 463 L 172 464 L 173 465 L 219 465 L 220 466 L 274 466 L 275 465 L 277 466 L 286 466 L 287 465 L 326 465 L 327 464 L 341 464 L 342 463 L 346 464 L 349 463 L 354 464 L 358 463 L 360 463 L 361 462 L 375 462 L 376 461 L 378 462 L 387 460 L 390 461 L 403 460 L 404 459 L 414 459 L 416 457 Q 427 458 435 455 L 441 448 L 444 446 L 446 441 L 445 437 L 447 426 L 447 415 L 448 414 L 449 373 L 449 371 L 450 369 L 449 287 L 448 286 L 448 256 L 447 255 L 448 252 L 447 251 L 447 232 L 446 231 L 447 228 Q 449 222 446 221 L 447 219 L 445 212 L 444 164 L 443 166 L 442 162 L 444 162 L 422 161 Z "/>
    <path fill="#66d9e8" d="M 416.5 221 L 418 221.5 L 418 237.5 L 419 238.5 L 419 257.5 L 420 258.5 L 420 294.5 L 421 295.5 L 421 358.5 L 420 359.5 L 420 384.5 L 418 393.5 L 417 413.5 Q 414.9 421.4 408.5 425 L 402.5 428 L 387.5 431 L 371.5 432 L 370.5 433 L 359.5 433 L 358.5 434 L 326.5 435 L 325.5 436 L 299.5 436 L 298.5 437 L 251.5 437 Q 250.2 439.2 245.5 438 L 244.5 437 L 175.5 436 L 174.5 435 L 156.5 435 L 155.5 434 L 131.5 433 L 111.5 429 L 101 423.5 L 98 416.5 Q 116.5 386 142.5 363 Q 159.3 346.3 181.5 335 L 191.5 339 L 201.5 339 Q 211.9 335.9 218 328.5 Q 221.5 325 222 318.5 L 224.5 316 L 246.5 310 L 267.5 307 L 283.5 303 L 320 290 L 317 297.5 L 319.5 301 L 322.5 302 Q 324 299.5 329.5 301 L 337.5 297 L 347 288.5 L 352 279.5 L 353 271.5 L 355.5 268 L 383.5 250 L 416.5 221 Z M 414 226 L 411 227 L 410 231 L 400 238 L 397 242 L 393 244 L 391 247 L 378 256 Q 375 255 376 258 Q 370 259 367 264 Q 364 263 365 266 L 359 268 L 355 272 L 353 283 Q 349 284 352 286 L 349 290 L 335 301 Q 328 304 318 303 L 316 300 L 317 293 L 307 297 Q 302 296 303 299 L 292 303 L 288 303 L 274 307 L 272 307 L 268 309 L 242 313 L 238 315 L 230 316 L 227 318 Q 223 317 224 321 L 224 323 Q 225 325 223 324 L 223 326 L 221 326 L 218 332 L 212 337 L 202 341 L 187 340 L 183 337 L 174 341 Q 171 340 172 343 L 157 353 L 150 360 Q 147 359 148 362 L 142 366 L 137 372 L 134 374 Q 135 376 133 375 L 124 385 Q 125 387 123 386 L 112 400 Q 113 402 110 401 L 104 410 L 100 419 L 102 419 L 101 421 L 108 425 L 110 425 L 110 427 L 132 431 L 153 432 L 155 432 Q 162 435 174 433 L 175 434 L 210 434 L 211 435 L 214 434 L 218 435 L 220 434 L 231 436 L 265 436 L 266 435 L 284 435 L 285 434 L 344 433 L 345 432 L 355 432 L 356 431 L 370 431 L 379 429 L 388 429 L 394 427 Q 400 428 400 426 L 402 426 L 408 423 L 415 414 L 417 387 L 417 385 L 418 382 L 418 361 L 419 360 L 419 296 L 418 295 Q 417 289 419 288 L 418 286 L 417 235 L 416 234 L 416 227 L 414 226 Z "/>
    <path fill="#f783ac" d="M 195.5 292 L 200 293.5 L 192.5 294 L 182 300 L 179.5 305 L 179 303.5 L 186.5 295 L 195.5 292 Z "/>
    <path fill="#f783ac" d="M 202.5 294 Q 209.4 295.6 212 301.5 L 214 306.5 L 213 306.5 L 206.5 297 Q 201.8 296.2 202.5 294 Z "/>
    <path fill="#f783ac" d="M 178.5 309 Q 178.9 321.6 186.5 327 Q 191.5 330 200.5 329 L 203.5 328 L 203.5 329 L 197.5 331 L 194.5 330 Q 183.8 329.2 180 321.5 Q 176.3 317.3 178.5 309 Z "/>
    <path fill="#f783ac" d="M 213.5 316 L 214 317.5 L 210 325 L 207 324.5 L 211 321.5 L 213.5 316 Z "/>
  </g>
  <g id="line">
    <path fill="#1a1a1a" d="M 158.5 37 Q 172 36.5 176 45.5 L 182 60.5 L 183 74 L 225.5 74 L 226.5 73 L 298.5 73 L 299.5 74 L 330 74 L 331 62.5 L 334 51.5 L 342.5 40 L 348.5 37 L 355.5 37 L 362 40 L 370 52.5 L 373 65.5 L 373 72.5 L 375.5 75 L 400.5 75 L 401.5 76 L 424.5 77 Q 439 79.5 446 89.5 L 451 104.5 L 452 127.5 L 453 128.5 L 453 154.5 L 454 155.5 L 454 171.5 L 455 172.5 L 457 237.5 L 458 238.5 L 458 258.5 L 459 259.5 L 460 381.5 L 459 382.5 L 459 410.5 L 458 411.5 L 458 423.5 L 457 424.5 L 456 442.5 Q 453.1 454.1 445.5 461 L 438.5 465 L 427.5 468 L 400.5 470 L 399.5 471 L 375.5 472 L 374.5 473 L 314.5 475 L 313.5 476 L 223.5 477 L 222.5 476 L 186.5 476 L 185.5 475 L 165.5 475 L 164.5 474 L 143.5 474 L 142.5 473 L 126.5 473 L 125.5 472 L 115.5 472 L 114.5 471 L 92.5 470 L 76.5 467 L 66 461 L 60 451.5 L 56 433.5 L 56 415.5 L 55 414.5 L 55 396.5 L 54 395.5 L 54 361.5 L 53 360.5 L 53 246.5 L 54 245.5 L 55 126.5 L 56 125.5 L 56 109.5 L 57 108.5 L 57 100.5 L 60 91.5 L 66.5 84 L 74.5 80 L 89.5 77 L 117.5 76 L 118.5 75 L 138.5 75 L 140 73.5 L 142 55.5 Q 145.4 44.9 153.5 39 L 158.5 37 Z M 161 46 L 157 48 L 152 55 L 149 66 L 149 85 Q 152 87 151 93 L 155 101 L 160 104 L 164 104 L 169 99 L 174 84 L 174 68 L 172 58 L 169 52 Q 167 47 161 46 Z M 351 46 L 349 47 L 343 54 L 339 70 L 340 88 L 345 100 L 351 104 L 356 103 L 361 96 L 364 87 L 364 77 L 365 76 L 362 57 L 358 50 L 351 46 Z M 218 82 L 217 83 L 184 83 L 180 93 L 183 104 Q 183 112 179 117 Q 174 124 164 126 L 155 125 L 150 122 Q 144 118 141 111 Q 139 100 143 96 Q 140 91 141 84 L 101 85 L 100 86 L 85 87 L 73 91 L 67 98 L 66 103 L 65 123 L 64 124 L 64 151 L 68 152 L 91 152 L 92 153 L 231 153 L 232 152 L 321 151 L 322 150 L 444 150 L 443 114 L 442 113 L 442 105 L 439 96 Q 435 90 428 87 L 416 86 L 415 85 L 403 85 L 402 84 L 373 84 L 371 92 L 371 97 L 373 103 Q 373 112 369 118 Q 365 125 355 126 Q 345 126 340 122 Q 334 118 331 110 Q 329 100 333 96 L 331 83 L 302 83 L 301 82 L 218 82 Z M 177 103 L 174 107 Q 170 112 163 113 L 156 112 L 148 106 Q 149 103 146 104 Q 145 110 148 114 Q 152 119 160 121 L 164 121 L 171 118 L 176 113 L 178 106 L 177 103 Z M 337 103 Q 335 110 338 114 Q 342 119 350 121 L 355 121 L 362 118 L 367 111 L 368 104 Q 364 102 365 106 Q 362 112 354 113 L 347 112 L 342 109 L 337 103 Z M 312 159 L 311 160 L 219 161 L 218 162 L 106 162 L 105 161 L 97 161 L 94 164 L 93 220 L 92 221 L 92 287 L 91 290 L 91 292 L 91 310 L 92 311 L 92 364 L 93 365 L 93 381 L 94 382 L 94 400 Q 97 401 95 408 L 97 409 L 122 377 L 128 372 L 133 366 Q 135 367 134 365 L 137 363 L 138 360 L 176 332 L 169 318 L 169 306 L 175 294 Q 181 287 192 284 L 202 284 L 214 290 L 220 298 L 224 311 L 258 303 L 278 300 L 303 292 L 322 283 L 324 280 Q 324 271 320 266 Q 315 257 305 255 L 297 255 L 290 258 L 286 258 L 283 255 L 286 247 L 292 238 L 311 229 L 325 229 L 339 235 L 342 238 Q 344 237 343 240 L 345 240 L 353 255 Q 352 260 356 262 Q 385 245 409 222 L 417 213 L 417 190 L 415 179 L 415 161 L 414 159 L 312 159 Z M 419 159 L 419 168 L 420 169 L 421 205 L 422 206 L 423 252 L 424 253 L 424 286 L 425 287 L 425 368 L 424 369 L 423 401 L 422 402 L 421 414 L 415 426 L 409 430 L 400 433 L 384 436 L 352 438 L 351 439 L 312 440 L 311 441 L 284 441 L 283 442 L 219 442 L 218 441 L 187 441 L 186 440 L 169 440 L 168 439 L 150 439 L 149 438 L 118 435 L 110 433 L 102 429 L 95 423 L 91 411 L 91 399 L 90 398 L 90 388 L 89 387 L 89 372 L 88 371 L 88 338 L 87 337 L 87 258 L 88 257 L 88 210 L 89 209 L 89 190 L 90 189 L 90 162 L 90 161 L 83 161 L 81 161 L 78 160 L 64 160 L 64 181 L 63 182 L 63 240 L 62 241 L 62 366 L 63 367 L 63 399 L 64 400 L 65 436 Q 68 437 66 443 L 70 452 Q 73 457 81 459 L 92 460 L 93 461 L 101 461 L 102 462 L 110 462 L 111 463 L 156 465 L 157 466 L 179 466 L 180 467 L 219 467 L 220 468 L 281 468 L 282 467 L 345 466 L 346 465 L 361 465 L 362 464 L 390 463 L 391 462 L 410 461 L 411 460 L 421 460 L 422 459 L 433 458 L 439 455 Q 446 450 448 439 L 449 415 L 450 414 L 450 392 L 451 391 L 451 287 L 450 286 L 448 205 L 447 204 L 447 191 L 446 190 L 446 166 L 445 165 Q 446 159 445 159 L 419 159 Z M 417 221 L 384 250 L 356 268 L 353 272 L 352 280 L 347 289 Q 340 297 330 301 L 320 301 L 318 300 L 318 295 Q 321 293 320 290 L 284 303 L 268 307 L 247 310 L 225 316 L 222 319 Q 221 325 218 329 Q 212 336 202 339 L 192 339 L 182 335 Q 159 346 143 363 Q 116 386 98 417 L 101 424 L 112 429 L 132 433 L 156 434 L 157 435 L 175 435 L 176 436 L 245 437 L 246 438 Q 250 439 252 437 L 299 437 L 300 436 L 326 436 L 327 435 L 359 434 L 360 433 L 371 433 L 372 432 L 388 431 L 403 428 L 409 425 Q 415 421 417 414 L 418 394 L 420 385 L 420 360 L 421 359 L 421 296 L 420 295 L 420 259 L 419 258 L 419 239 L 418 238 L 418 222 L 417 221 Z M 315 237 L 307 239 L 302 242 L 298 247 L 311 248 L 324 256 Q 330 263 332 274 Q 333 284 330 290 L 336 288 Q 344 281 346 268 L 345 258 L 341 250 Q 335 242 326 238 L 315 237 Z M 195 292 L 184 297 L 179 303 L 177 310 Q 177 319 181 324 Q 185 330 195 331 Q 202 331 207 328 Q 213 324 215 316 Q 216 304 211 300 Q 206 292 195 292 Z "/>
  </g>
</svg>
