<svg xmlns="http://www.w3.org/2000/svg" width="512" height="512" viewBox="0 0 512 512">
  <g id="color">
    <path fill="#ffffff" d="M 324.5 73 L 362 73.5 L 324.5 74 L 324.5 73 Z "/>
    <path fill="#ffffff" d="M 312.5 74 L 320 74.5 L 312.5 75 L 312.5 74 Z "/>
    <path fill="#ffffff" d="M 365.5 74 L 371 74.5 L 365.5 75 L 365.5 74 Z "/>
    <path fill="#ffffff" d="M 298.5 75 L 306 75.5 L 298.5 76 L 298.5 75 Z "/>
    <path fill="#ffffff" d="M 284.5 76 L 296 76.5 L 284.5 77 L 284.5 76 Z "/>
    <path fill="#ffffff" d="M 272.5 77 L 282 77.5 L 272.5 78 L 272.5 77 Z "/>
    <path fill="#ffffff" d="M 254.5 78 L 264 78.5 L 254.5 79 L 254.5 78 Z "/>
    <path fill="#ffffff" d="M 236.5 79 L 248 79.5 L 236.5 80 L 236.5 79 Z "/>
    <path fill="#ffffff" d="M 390.5 79 L 395 81.5 L 393.5 81 Q 389.8 80.8 390.5 79 Z "/>
    <path fill="#ffffff" d="M 225.5 80 L 235 80.5 L 225.5 81 L 225.5 80 Z "/>
    <path fill="#ffffff" d="M 213.5 81 L 220 81.5 L 213.5 82 L 213.5 81 Z "/>
    <path fill="#ffffff" d="M 199.5 82 L 207 82.5 L 199.5 83 L 199.5 82 Z "/>
    <path fill="#ffffff" d="M 396.5 82 L 400 84.5 L 397.5 83 L 396.5 82 Z "/>
    <path fill="#ffffff" d="M 189.5 83 L 198 83.5 L 189.5 84 L 189.5 83 Z "/>
    <path fill="#ffffff" d="M 179.5 84 L 186 84.5 L 179.5 85 L 179.5 84 Z "/>
    <path fill="#ffffff" d="M 167.5 85 L 174 85.5 L 167.5 86 L 167.5 85 Z "/>
    <path fill="#ffffff" d="M 401.5 85 L 411 95.5 L 408 93.5 L 401.5 85 Z "/>
    <path fill="#ffffff" d="M 157.5 86 L 165 86.5 L 157.5 87 L 157.5 86 Z "/>
    <path fill="#ffffff" d="M 150.5 87 L 156 87.5 L 150.5 88 L 150.5 87 Z "/>
    <path fill="#ffffff" d="M 141.5 88 L 146 88.5 L 141.5 89 L 141.5 88 Z "/>
    <path fill="#ffffff" d="M 130.5 89 L 137 89.5 L 130.5 90 L 130.5 89 Z "/>
    <path fill="#ffffff" d="M 123.5 90 L 129 90.5 L 123.5 91 L 123.5 90 Z "/>
    <path fill="#ffffff" d="M 107.5 92 L 112 92.5 L 100.5 94 L 100.5 93 Q 106 94.5 107.5 92 Z "/>
    <path fill="#ffffff" d="M 85.5 96 L 88 96.5 L 82.5 98 L 82.5 97 L 85.5 96 Z "/>
    <path fill="#ffffff" d="M 411.5 97 L 414 102.5 L 413 102.5 L 411.5 97 Z "/>
    <path fill="#ffffff" d="M 75.5 99 L 77 99.5 L 73.5 101 L 73.5 100 L 75.5 99 Z "/>
    <path fill="#ffffff" d="M 68.5 102 L 67.5 104 L 65.5 105 L 66.5 103 L 68.5 102 Z "/>
    <path fill="#ffffff" d="M 63.5 105 L 62.5 107 L 57.5 111 L 61.5 106 L 63.5 105 Z "/>
    <path fill="#ffffff" d="M 54.5 113 L 51 117.5 L 49.5 120 L 50 118.5 L 54.5 113 Z "/>
    <path fill="#ffffff" d="M 416.5 113 L 417 120.5 L 416 120.5 L 416.5 113 Z "/>
    <path fill="#ffffff" d="M 47.5 124 L 48 127.5 L 46.5 131 L 46 128.5 L 47.5 124 Z "/>
    <path fill="#ffffff" d="M 421.5 132 L 425 134.5 L 423.5 134 L 421.5 132 Z "/>
    <path fill="#ffffff" d="M 43.5 143 L 44 147.5 L 43 147.5 L 43.5 143 Z "/>
    <path fill="#ffffff" d="M 437.5 146 L 441 150.5 L 439 149.5 L 437.5 146 Z "/>
    <path fill="#ffffff" d="M 42.5 150 L 43 154.5 L 42 154.5 L 42.5 150 Z "/>
    <path fill="#ffffff" d="M 441.5 152 L 444 157.5 L 443 157.5 L 441.5 152 Z "/>
    <path fill="#ffffff" d="M 41.5 159 L 42 165.5 L 41 165.5 L 41.5 159 Z "/>
    <path fill="#ffffff" d="M 444.5 160 L 446 164.5 L 445 164.5 L 444.5 160 Z "/>
    <path fill="#ffffff" d="M 40.5 167 L 41 175.5 L 40 175.5 L 40.5 167 Z "/>
    <path fill="#ffffff" d="M 39.5 179 L 40 187.5 L 39 187.5 L 39.5 179 Z "/>
    <path fill="#ffffff" d="M 448.5 179 L 449 196.5 L 450 198.5 L 449 198.5 L 448 196.5 L 448.5 179 Z "/>
    <path fill="#ffffff" d="M 38.5 197 L 39 209.5 L 38 209.5 L 38.5 197 Z "/>
    <path fill="#ffffff" d="M 451.5 199 L 456 201.5 L 454.5 201 Q 450.8 200.7 451.5 199 Z "/>
    <path fill="#ffffff" d="M 457.5 202 L 466 209.5 L 467 211.5 L 465 210.5 L 459.5 204 L 457.5 202 Z "/>
    <path fill="#ffffff" d="M 467.5 213 L 471 220.5 L 470 220.5 L 467.5 213 Z "/>
    <path fill="#ffffff" d="M 37.5 218 L 38 265.5 L 37 265.5 L 37.5 218 Z "/>
    <path fill="#ffffff" d="M 474.5 237 L 475 241.5 L 474 241.5 L 474.5 237 Z "/>
    <path fill="#ffffff" d="M 475.5 244 L 476 252.5 L 475 252.5 L 475.5 244 Z "/>
    <path fill="#ffffff" d="M 476.5 254 L 477 270.5 L 476 270.5 L 476.5 254 Z "/>
    <path fill="#ffffff" d="M 38.5 276 L 39 291.5 L 38 291.5 L 38.5 276 Z "/>
    <path fill="#ffffff" d="M 476.5 280 L 477 292.5 L 476 292.5 L 476.5 280 Z "/>
    <path fill="#ffffff" d="M 475.5 294 L 476 300.5 L 475 300.5 L 475.5 294 Z "/>
    <path fill="#ffffff" d="M 39.5 302 L 40 313.5 L 39 313.5 L 39.5 302 Z "/>
    <path fill="#ffffff" d="M 473.5 308 L 474 310.5 L 471.5 316 L 471 314.5 L 473.5 308 Z "/>
    <path fill="#ffffff" d="M 40.5 317 L 41 329.5 L 40 329.5 L 40.5 317 Z "/>
    <path fill="#ffffff" d="M 470.5 317 L 470 318.5 L 467.5 322 L 469 319.5 L 470.5 317 Z "/>
    <path fill="#ffffff" d="M 462.5 326 L 461.5 328 L 459.5 329 L 460.5 327 L 462.5 326 Z "/>
    <path fill="#ffffff" d="M 41.5 331 L 42 340.5 L 41 340.5 L 41.5 331 Z "/>
    <path fill="#ffffff" d="M 456.5 333 L 457 344.5 L 456 344.5 L 456.5 333 Z "/>
    <path fill="#ffffff" d="M 42.5 346 L 43 351.5 L 42 351.5 L 42.5 346 Z "/>
    <path fill="#ffffff" d="M 43.5 354 L 45 365.5 L 44 365.5 L 43.5 354 Z "/>
    <path fill="#ffffff" d="M 456.5 365 L 457 374.5 L 456 374.5 L 456.5 365 Z "/>
    <path fill="#ffffff" d="M 46.5 375 L 48 382.5 L 47 382.5 L 46.5 375 Z "/>
    <path fill="#ffffff" d="M 455.5 376 L 456 381.5 L 455 381.5 L 455.5 376 Z "/>
    <path fill="#ffffff" d="M 453.5 388 L 454 389.5 L 451.5 395 L 451 393.5 L 453.5 388 Z "/>
    <path fill="#ffffff" d="M 50.5 390 L 52 393.5 L 51 393.5 L 50.5 390 Z "/>
    <path fill="#ffffff" d="M 450.5 396 L 451 397.5 L 447.5 403 L 448 401.5 L 450.5 396 Z "/>
    <path fill="#ffffff" d="M 58.5 406 L 69.5 418 L 76 422.5 L 74.5 422 L 60 409.5 L 58.5 406 Z "/>
    <path fill="#ffffff" d="M 434.5 416 L 432.5 419 L 430.5 420 L 431.5 418 L 434.5 416 Z "/>
    <path fill="#ffffff" d="M 428.5 420 L 427.5 422 L 424.5 423 L 424.5 422 L 428.5 420 Z "/>
    <path fill="#ffffff" d="M 85.5 427 L 90 428.5 L 87.5 429 L 85.5 427 Z "/>
    <path fill="#ffffff" d="M 406.5 427 L 410 427.5 L 400.5 429 L 400.5 428 Q 405.3 429.3 406.5 427 Z "/>
    <path fill="#ffffff" d="M 382.5 430 L 390 430.5 L 382.5 431 L 382.5 430 Z "/>
    <path fill="#ffffff" d="M 100.5 431 L 105 431.5 L 100.5 432 L 100.5 431 Z "/>
    <path fill="#ffffff" d="M 371.5 431 L 381 431.5 L 371.5 432 L 371.5 431 Z "/>
    <path fill="#ffffff" d="M 106.5 432 L 112 432.5 L 106.5 433 L 106.5 432 Z "/>
    <path fill="#ffffff" d="M 362.5 432 L 369 432.5 L 362.5 433 L 362.5 432 Z "/>
    <path fill="#ffffff" d="M 116.5 433 L 123 433.5 L 116.5 434 L 116.5 433 Z "/>
    <path fill="#ffffff" d="M 348.5 433 L 356 433.5 L 348.5 434 L 348.5 433 Z "/>
    <path fill="#ffffff" d="M 126.5 434 L 138 434.5 L 126.5 435 L 126.5 434 Z "/>
    <path fill="#ffffff" d="M 332.5 434 L 344 434.5 L 332.5 435 L 332.5 434 Z "/>
    <path fill="#ffffff" d="M 139.5 435 L 150 435.5 L 139.5 436 L 139.5 435 Z "/>
    <path fill="#ffffff" d="M 320.5 435 L 331 435.5 L 320.5 436 L 320.5 435 Z "/>
    <path fill="#ffffff" d="M 156.5 436 L 166 436.5 L 156.5 437 L 156.5 436 Z "/>
    <path fill="#ffffff" d="M 302.5 436 L 313 436.5 L 302.5 437 L 302.5 436 Z "/>
    <path fill="#ffffff" d="M 173.5 437 L 191 437.5 L 173.5 438 L 173.5 437 Z "/>
    <path fill="#ffffff" d="M 274.5 437 L 293 437.5 L 274.5 438 L 274.5 437 Z "/>
    <path fill="#ffffff" d="M 193.5 438 L 272 438.5 L 193.5 439 L 193.5 438 Z "/>
    <path fill="#4da3ff" d="M 457.5 224 Q 462.3 222.3 461 226.5 L 464 237.5 L 465 255.5 L 466 256.5 L 466 290.5 L 465 291.5 L 465 301.5 L 462 311 Q 459.3 309.9 460 312.5 L 456.5 318 L 445.5 323 L 433.5 324 L 432.5 325 L 418.5 325 L 417.5 326 L 403.5 326 L 402.5 327 L 383.5 327 L 382.5 328 L 328.5 328 L 327.5 327 L 319.5 327 L 304.5 323 L 297.5 320 L 290 313.5 L 283 299.5 L 281 279.5 L 282 278.5 L 282 267.5 L 286 255.5 L 291 248 L 299.5 242 L 315.5 237 L 323.5 237 L 332.5 235 L 347.5 235 L 348.5 234 L 412.5 232 L 413.5 231 L 425.5 231 L 426.5 230 L 428.5 230 L 436.5 230 L 452.5 227 L 457.5 224 Z M 394 259 L 386 261 L 378 265 L 372 270 L 364 282 L 364 290 L 369 299 L 377 304 L 387 304 L 405 295 Q 412 289 415 280 Q 414 270 408 265 Q 409 262 406 263 L 406 261 L 400 259 L 394 259 Z M 332 264 L 326 267 L 324 271 L 317 267 Q 309 266 307 269 L 302 276 L 302 282 L 307 291 L 317 298 L 318 301 L 326 304 L 332 303 Q 343 295 347 280 Q 348 272 345 269 Q 342 262 332 264 Z "/>
    <path fill="#ffd43b" d="M 334.5 82 L 355.5 82 L 356.5 83 L 366.5 83 L 383.5 86 Q 393.4 89.6 400 96.5 L 406 107.5 L 408 126.5 Q 407.3 128.8 403.5 128 L 390.5 125 L 381.5 125 L 380 123.5 Q 378.9 112.1 371.5 107 Q 365.5 102.5 356.5 101 L 332.5 101 L 331.5 102 L 318.5 102 L 309.5 104 L 288.5 105 L 277.5 107 L 265.5 107 L 264.5 108 L 249.5 108 L 248.5 109 L 233.5 109 L 232.5 110 L 218.5 110 L 217.5 111 L 202.5 111 L 201.5 112 L 185.5 112 L 184.5 113 L 174.5 113 L 173.5 114 L 149.5 115 L 135.5 118 L 122.5 119 L 110.5 122 L 99.5 126 L 89.5 135 L 77.5 135 L 66.5 133 L 61 128.5 L 59 122.5 L 66.5 114 L 84.5 106 L 104.5 102 L 125.5 100 L 126.5 99 L 136.5 99 L 153.5 96 L 164.5 96 L 165.5 95 L 174.5 95 L 175.5 94 L 194.5 93 L 195.5 92 L 206.5 92 L 207.5 91 L 217.5 91 L 218.5 90 L 229.5 90 L 230.5 89 L 245.5 89 L 246.5 88 L 275.5 87 L 276.5 86 L 289.5 86 L 290.5 85 L 305.5 85 L 306.5 84 L 333.5 83 L 334.5 82 Z "/>
    <path fill="#ffd43b" d="M 327.5 110 L 356.5 110 Q 365.8 111.8 370 118.5 L 371 124 L 268.5 125 L 267.5 126 L 249.5 126 L 248.5 127 L 232.5 127 L 231.5 128 L 195.5 129 L 194.5 130 L 184.5 130 L 183.5 131 L 164.5 131 L 163.5 132 L 150.5 132 L 149.5 133 L 103.5 134 L 101 135 Q 99.3 130.9 103.5 132 L 113.5 128 L 136.5 124 L 143.5 124 L 144.5 123 L 198.5 120 L 199.5 119 L 223.5 119 L 224.5 118 L 241.5 118 L 242.5 117 L 256.5 117 L 257.5 116 L 274.5 116 L 275.5 115 L 286.5 115 L 287.5 114 L 317.5 112 L 327.5 110 Z "/>
    <path fill="#ffd43b" d="M 315.5 132 L 356.5 132 L 357.5 133 L 382.5 133 L 383.5 134 L 398.5 135 L 414.5 139 Q 423.9 143.1 430 150.5 Q 436.7 160.3 439 174.5 L 440 219 L 437.5 220 L 426.5 220 L 425.5 221 L 360.5 223 L 359.5 224 L 343.5 224 L 342.5 225 L 319.5 226 L 304.5 229 L 296.5 232 Q 286.2 236.7 280 245.5 L 276 252.5 L 272 265.5 L 271 289.5 L 272 290.5 L 273 301.5 L 276 309.5 L 286.5 324 L 301.5 333 Q 308.5 333 312.5 336 L 324.5 337 L 325.5 338 L 334.5 338 L 335.5 339 L 365.5 339 L 366.5 338 L 423.5 336 L 424.5 335 L 435.5 335 L 447 333 L 447 343.5 L 448 344.5 L 448 367.5 L 447 368.5 L 446 383.5 L 443 392.5 Q 438.6 402.6 430.5 409 L 424.5 413 L 410.5 418 L 393.5 421 L 385.5 421 L 384.5 422 L 374.5 422 L 373.5 423 L 363.5 423 L 362.5 424 L 352.5 424 L 351.5 425 L 339.5 425 L 338.5 426 L 304.5 427 L 303.5 428 L 220.5 430 L 219.5 429 L 163.5 428 L 162.5 427 L 132.5 426 L 131.5 425 L 119.5 425 L 118.5 424 L 104.5 423 L 85.5 418 Q 74.3 412.2 67 402.5 Q 59.9 394.6 57 382.5 L 53 363.5 L 52 346.5 L 50 336.5 L 48 288.5 L 47 287.5 L 47 202.5 L 48 201.5 L 50 163.5 L 51 162.5 L 53 140.5 L 55 134 L 63.5 140 L 76.5 143 L 122.5 143 L 123.5 142 L 147.5 142 L 148.5 141 L 159.5 141 L 160.5 140 L 177.5 140 L 178.5 139 L 210.5 138 L 211.5 137 L 226.5 137 L 227.5 136 L 268.5 135 L 269.5 134 L 285.5 134 L 286.5 133 L 314.5 133 L 315.5 132 Z "/>
    <path fill="#ff6b6b" d="M 330.5 271 Q 338 269.5 341 272.5 L 340 275.5 Q 339.3 278.1 342 277 L 342 280.5 L 341 280.5 L 340.5 279 L 338 287 Q 335.3 285.9 336 288.5 L 336.5 290 Q 333.2 288.9 334 291.5 L 333.5 294 Q 331.3 293.3 332 295.5 L 330 295.5 Q 330.8 297.8 328.5 297 L 326.5 298 Q 325 294.5 323.5 297 Q 321.3 297.8 322 295.5 L 318 294 L 315.5 290 Q 314.2 292.3 313 289.5 Q 315.8 287.7 311.5 286 Q 310.3 288.3 309 285.5 L 310 283.5 L 309 281 Q 306.3 282.1 307 279.5 L 308 277.5 L 307.5 276 L 309 276.5 L 308 274.5 L 311 273.5 Q 310.1 270.5 314.5 272 L 314.5 274 L 320 275 L 321.5 279 L 323.5 279 L 326 277.5 Q 325.3 275.3 327.5 276 L 330.5 271 Z "/>
    <path fill="#51cf66" d="M 392.5 264 Q 401.5 262.5 404 267.5 L 404 273.5 L 396.5 283 L 387.5 289 Q 382.1 292.1 372.5 291 L 368 284.5 Q 369.8 276.9 375.5 273 Q 382.3 266.8 392.5 264 Z "/>
    <path fill="#51cf66" d="M 407.5 275 Q 409.8 274.3 409 276.5 L 410 280.5 L 400.5 292 L 390.5 298 L 377.5 299 L 374.5 295 Q 394.7 293.2 404 280.5 L 407.5 275 Z "/>
    <path fill="#66d9e8" d="M 450.5 207 L 457 212.5 Q 458.7 217.3 454.5 216 L 450.5 217 Q 447.3 215.3 449 208.5 L 450.5 207 Z "/>
    <path fill="#66d9e8" d="M 459.5 221 L 462 222.5 L 467 246.5 L 468 288.5 L 467 289.5 L 466 305.5 Q 462.9 315.4 455.5 321 L 444.5 325 L 417.5 327 L 416.5 328 L 375.5 329 L 374.5 330 L 331.5 330 L 330.5 329 L 315.5 328 L 302.5 324 Q 294.1 320.9 289 314.5 Q 277 300 280 270.5 L 284 255.5 L 294.5 243 L 307.5 237 L 324.5 235 L 325.5 234 L 430.5 229 L 431.5 228 L 449.5 226 L 459.5 221 Z M 458 224 L 453 227 L 437 230 L 429 230 L 427 230 L 426 231 L 414 231 L 413 232 L 349 234 L 348 235 L 333 235 L 324 237 L 316 237 L 300 242 L 291 248 L 286 256 L 282 268 L 282 279 L 281 280 L 283 300 L 290 314 L 298 320 L 305 323 L 320 327 L 328 327 L 329 328 L 383 328 L 384 327 L 403 327 L 404 326 L 418 326 L 419 325 L 433 325 L 434 324 L 446 323 L 457 318 L 460 313 Q 459 310 462 311 L 465 302 L 465 292 L 466 291 L 466 257 L 465 256 L 464 238 L 461 227 Q 462 222 458 224 Z "/>
    <path fill="#66d9e8" d="M 393.5 259 L 399.5 259 L 406 261 L 406 263 Q 408.7 261.9 408 264.5 Q 413.9 269.6 415 279.5 Q 411.9 289.4 404.5 295 L 386.5 304 L 376.5 304 L 369 298.5 L 364 289.5 L 364 281.5 L 371.5 270 L 377.5 265 L 385.5 261 L 393.5 259 Z M 393 261 L 377 268 Q 368 274 365 285 Q 366 293 371 299 L 376 302 Q 380 301 382 303 Q 396 301 405 293 Q 410 288 413 280 L 413 276 L 408 267 Q 405 259 393 261 Z "/>
    <path fill="#66d9e8" d="M 331.5 264 Q 342.3 262.2 345 268.5 Q 347.9 272.1 347 279.5 Q 342.8 294.8 331.5 303 L 325.5 304 L 318 301 L 316.5 298 L 307 290.5 L 302 281.5 L 302 275.5 L 306.5 269 Q 309.1 265.6 316.5 267 L 323.5 271 L 326 267 L 331.5 264 Z M 335 265 L 330 267 L 325 273 L 317 269 L 310 269 L 306 271 L 304 276 L 304 282 L 310 292 L 323 301 L 331 302 L 334 298 L 337 296 L 345 281 Q 346 272 343 268 L 338 265 L 335 265 Z "/>
    <path fill="#f783ac" d="M 333.5 269 Q 339.3 268.2 341 271.5 L 339.5 272 L 331 270.5 L 333.5 269 Z "/>
    <path fill="#f783ac" d="M 328.5 272 L 329 274.5 L 327 275.5 L 328.5 272 Z "/>
    <path fill="#f783ac" d="M 314.5 273 Q 318.3 272.3 319 274.5 L 317.5 275 L 314.5 274 L 314.5 273 Z "/>
    <path fill="#f783ac" d="M 340.5 273 L 342 273 L 342 277 Q 339.3 278.1 340 275.5 L 340.5 273 Z "/>
    <path fill="#f783ac" d="M 308.5 275 L 309 276.5 L 307.5 279 L 307 277.5 L 308.5 275 Z "/>
    <path fill="#f783ac" d="M 340.5 279 L 341 282.5 L 336.5 289 L 336 287 Q 338.7 288.1 338 285.5 L 340.5 279 Z "/>
    <path fill="#f783ac" d="M 307.5 281 Q 309.8 280.3 309 282.5 L 309.5 284 Q 307.3 284.8 308 282.5 L 307.5 281 Z "/>
    <path fill="#f783ac" d="M 310.5 285 L 313.5 289 L 311 287.5 L 310.5 285 Z "/>
    <path fill="#f783ac" d="M 315.5 290 L 317.5 293 L 315 292 L 315.5 290 Z "/>
    <path fill="#f783ac" d="M 334 290 L 336 290.5 L 333 292.5 L 334 290 Z "/>
    <path fill="#f783ac" d="M 330.5 295 L 331 296.5 L 327.5 299 L 328.5 297 Q 331 297.7 330.5 295 Z "/>
  </g>
  <g id="line">
    <path fill="#1a1a1a" d="M 320.5 74 L 364.5 74 L 365.5 75 L 379.5 76 Q 398.1 79.9 408 92.5 L 414 103.5 L 416 112.5 L 417 130.5 L 418.5 132 Q 430.8 135.7 437 145.5 L 444 158.5 L 447 169.5 Q 445.5 175 448 176.5 L 448 196.5 L 449 199 Q 459 201.6 465 209.5 L 471 221.5 L 474 234.5 L 477 279.5 L 476 280.5 L 476 293.5 L 475 294.5 L 474 307.5 L 471 316.5 L 463.5 326 L 455 331.5 L 456 332.5 L 456 344.5 L 457 345.5 L 457 364.5 L 456 365.5 L 455 382.5 L 451 395.5 Q 445.9 408.4 435.5 416 L 415.5 426 L 393.5 430 L 371.5 431 L 361.5 433 L 332.5 434 L 331.5 435 L 302.5 436 L 301.5 437 L 274.5 437 L 273.5 438 L 191.5 438 L 190.5 437 L 166.5 437 L 165.5 436 L 150.5 436 L 149.5 435 L 138.5 435 L 137.5 434 L 123.5 434 L 122.5 433 L 112.5 433 L 111.5 432 L 93.5 430 Q 72.6 424.4 61 409.5 L 56 402.5 L 48 383.5 L 45 368.5 L 43 346.5 L 42 345.5 L 42 331.5 L 41 330.5 L 40 302.5 L 39 301.5 L 39 276.5 L 38 275.5 L 38 210.5 L 39 209.5 L 40 176.5 L 41 175.5 L 42 155.5 L 43 154.5 L 45 136.5 L 49 120.5 L 56.5 111 L 69.5 102 L 77.5 99 L 92.5 95 L 106.5 94 L 112.5 92 L 164.5 87 L 165.5 86 L 173.5 86 L 174.5 85 L 197.5 84 L 207.5 82 L 234.5 81 L 235.5 80 L 247.5 80 L 248.5 79 L 263.5 79 L 264.5 78 L 281.5 78 L 282.5 77 L 295.5 77 L 296.5 76 L 319.5 75 L 320.5 74 Z M 335 82 L 334 83 L 307 84 L 306 85 L 291 85 L 290 86 L 277 86 L 276 87 L 247 88 L 246 89 L 231 89 L 230 90 L 219 90 L 218 91 L 208 91 L 207 92 L 196 92 L 195 93 L 176 94 L 175 95 L 166 95 L 165 96 L 154 96 L 137 99 L 127 99 L 126 100 L 105 102 L 85 106 L 67 114 L 59 123 L 61 129 L 67 133 L 78 135 L 90 135 L 100 126 L 111 122 L 123 119 L 136 118 L 150 115 L 174 114 L 175 113 L 185 113 L 186 112 L 202 112 L 203 111 L 218 111 L 219 110 L 233 110 L 234 109 L 249 109 L 250 108 L 265 108 L 266 107 L 278 107 L 289 105 L 310 104 L 319 102 L 332 102 L 333 101 L 357 101 Q 366 102 372 107 Q 379 112 380 124 L 382 125 L 391 125 L 404 128 Q 407 129 408 127 L 406 108 L 400 97 Q 393 90 384 86 L 367 83 L 357 83 L 356 82 L 335 82 Z M 328 110 L 318 112 L 288 114 L 287 115 L 276 115 L 275 116 L 258 116 L 257 117 L 243 117 L 242 118 L 225 118 L 224 119 L 200 119 L 199 120 L 145 123 L 144 124 L 137 124 L 114 128 L 102 132 L 100 135 L 104 134 L 150 133 L 151 132 L 164 132 L 165 131 L 184 131 L 185 130 L 195 130 L 196 129 L 232 128 L 233 127 L 249 127 L 250 126 L 268 126 L 269 125 L 371 124 L 370 119 Q 366 112 357 110 L 328 110 Z M 316 132 L 315 133 L 287 133 L 286 134 L 270 134 L 269 135 L 228 136 L 227 137 L 212 137 L 211 138 L 179 139 L 178 140 L 161 140 L 160 141 L 149 141 L 148 142 L 124 142 L 123 143 L 77 143 L 64 140 L 55 134 L 53 141 L 51 163 L 50 164 L 48 202 L 47 203 L 47 288 L 48 289 L 50 337 L 52 347 L 53 364 L 57 383 Q 60 395 67 403 Q 74 412 86 418 L 105 423 L 119 424 L 120 425 L 132 425 L 133 426 L 163 427 L 164 428 L 220 429 L 221 430 L 304 428 L 305 427 L 339 426 L 340 425 L 352 425 L 353 424 L 363 424 L 364 423 L 374 423 L 375 422 L 385 422 L 386 421 L 394 421 L 411 418 L 425 413 L 431 409 Q 439 403 443 393 L 446 384 L 447 369 L 448 368 L 448 345 L 447 344 L 447 333 L 436 335 L 425 335 L 424 336 L 367 338 L 366 339 L 336 339 L 335 338 L 326 338 L 325 337 L 313 336 Q 308 333 302 333 L 287 324 L 276 310 L 273 302 L 272 291 L 271 290 L 272 266 L 276 253 L 280 246 Q 286 237 297 232 L 305 229 L 320 226 L 343 225 L 344 224 L 360 224 L 361 223 L 426 221 L 427 220 L 438 220 L 440 219 L 439 175 Q 437 160 430 151 Q 424 143 415 139 L 399 135 L 384 134 L 383 133 L 358 133 L 357 132 L 316 132 Z M 451 207 L 449 209 Q 447 215 451 217 L 455 216 Q 459 217 457 213 L 451 207 Z M 460 221 L 450 226 L 432 228 L 431 229 L 326 234 L 325 235 L 308 237 L 295 243 L 284 256 L 280 271 Q 277 300 289 315 Q 294 321 303 324 L 316 328 L 331 329 L 332 330 L 375 330 L 376 329 L 417 328 L 418 327 L 445 325 L 456 321 Q 463 315 466 306 L 467 290 L 468 289 L 467 247 L 462 223 L 460 221 Z "/>
    <path fill="#1a1a1a" d="M 392.5 261 Q 405.1 258.9 408 266.5 L 413 275.5 L 413 279.5 Q 410.5 288 404.5 293 Q 395.5 300.5 381.5 303 Q 380.3 300.8 375.5 302 L 371 298.5 Q 366.1 293.4 365 284.5 Q 368.1 273.6 376.5 268 L 392.5 261 Z M 393 264 Q 382 267 376 273 Q 370 277 368 285 L 373 291 Q 382 292 388 289 L 397 283 L 404 274 L 404 268 Q 402 262 393 264 Z M 408 275 L 404 281 Q 395 293 375 295 L 378 299 L 391 298 L 401 292 L 410 281 L 409 277 Q 410 274 408 275 Z "/>
    <path fill="#1a1a1a" d="M 334.5 265 L 337.5 265 L 343 268 Q 346.1 271.6 345 280.5 L 337 296 L 334 297.5 L 330.5 302 L 322.5 301 L 310 291.5 L 304 281.5 L 304 275.5 L 306 271 L 309.5 269 L 316.5 269 L 324.5 273 L 329.5 267 L 334.5 265 Z M 334 269 L 328 272 L 325 279 L 315 272 L 310 273 L 307 277 Q 306 283 309 286 Q 316 295 328 299 L 330 298 Q 337 291 342 281 L 341 272 Q 339 268 334 269 Z "/>
  </g>
</svg>
