<svg xmlns="http://www.w3.org/2000/svg" width="512" height="512" viewBox="0 0 512 512">
  <g id="color">
    <path fill="#ffffff" d="M 251.5 50 L 262 50.5 L 251.5 51 L 251.5 50 Z "/>
    <path fill="#ffffff" d="M 245.5 51 L 248 51.5 L 239.5 54 L 239.5 53 L 245.5 51 Z "/>
    <path fill="#ffffff" d="M 269.5 52 L 274 53.5 L 272.5 54 L 269.5 53 L 269.5 52 Z "/>
    <path fill="#ffffff" d="M 236.5 54 L 238 54.5 L 232.5 57 L 232.5 56 L 236.5 54 Z "/>
    <path fill="#ffffff" d="M 230.5 57 L 229.5 59 L 227.5 60 L 228.5 58 L 230.5 57 Z "/>
    <path fill="#ffffff" d="M 282.5 57 L 287 59.5 L 285.5 59 Q 281.8 58.7 282.5 57 Z "/>
    <path fill="#ffffff" d="M 204.5 82 L 203 84.5 L 200.5 88 L 202 85.5 L 204.5 82 Z "/>
    <path fill="#ffffff" d="M 309.5 83 L 313 87.5 L 311 86.5 L 309.5 83 Z "/>
    <path fill="#ffffff" d="M 197.5 92 L 197 93.5 L 194.5 97 L 196 94.5 L 197.5 92 Z "/>
    <path fill="#ffffff" d="M 315.5 92 L 318 95.5 L 316 94.5 L 315.5 92 Z "/>
    <path fill="#ffffff" d="M 318.5 97 L 321 100.5 L 319 99.5 L 318.5 97 Z "/>
    <path fill="#ffffff" d="M 321.5 102 L 324 105.5 L 322 104.5 L 321.5 102 Z "/>
    <path fill="#ffffff" d="M 187.5 108 L 187 109.5 L 184.5 114 L 185 112.5 L 187.5 108 Z "/>
    <path fill="#ffffff" d="M 327.5 113 L 333 122.5 L 331 121.5 L 327.5 113 Z "/>
    <path fill="#ffffff" d="M 223.5 116 L 229.5 116 L 245.5 119 L 249 122.5 L 239 149.5 L 233.5 157 L 220.5 156 Q 217.8 153.2 211.5 154 L 207 151.5 L 207 147.5 L 210 140.5 L 220 119.5 L 223.5 116 Z "/>
    <path fill="#ffffff" d="M 182.5 117 L 182 118.5 L 180.5 121 L 181 119.5 L 182.5 117 Z "/>
    <path fill="#ffffff" d="M 179.5 122 L 179 123.5 L 177.5 126 L 178 124.5 L 179.5 122 Z "/>
    <path fill="#ffffff" d="M 334.5 126 L 337 129.5 L 335 128.5 L 334.5 126 Z "/>
    <path fill="#ffffff" d="M 172.5 135 L 172 136.5 L 168.5 143 L 169 141.5 L 172.5 135 Z "/>
    <path fill="#ffffff" d="M 342.5 141 L 345 144.5 L 343 143.5 L 342.5 141 Z "/>
    <path fill="#ffffff" d="M 164.5 150 L 164 151.5 L 162.5 154 L 163 152.5 L 164.5 150 Z "/>
    <path fill="#ffffff" d="M 348.5 152 L 351 155.5 L 349 154.5 L 348.5 152 Z "/>
    <path fill="#ffffff" d="M 352.5 159 L 357 166.5 L 355 165.5 L 352.5 159 Z "/>
    <path fill="#ffffff" d="M 157.5 163 L 157 164.5 L 153.5 171 L 154 169.5 L 157.5 163 Z "/>
    <path fill="#ffffff" d="M 358.5 170 L 361 173.5 L 359 172.5 L 358.5 170 Z "/>
    <path fill="#ffffff" d="M 149.5 178 L 149 179.5 L 147.5 182 L 148 180.5 L 149.5 178 Z "/>
    <path fill="#ffffff" d="M 367.5 186 L 370 189.5 L 368 188.5 L 367.5 186 Z "/>
    <path fill="#ffffff" d="M 143.5 189 L 143 190.5 L 138.5 199 L 139 197.5 L 143.5 189 Z "/>
    <path fill="#ffffff" d="M 373.5 197 L 376 200.5 L 374 199.5 L 373.5 197 Z "/>
    <path fill="#ffffff" d="M 136.5 202 L 136 203.5 L 134.5 206 L 135 204.5 L 136.5 202 Z "/>
    <path fill="#ffffff" d="M 131.5 211 L 131 212.5 L 128.5 217 L 129 215.5 L 131.5 211 Z "/>
    <path fill="#ffffff" d="M 382.5 213 L 385 216.5 L 383 215.5 L 382.5 213 Z "/>
    <path fill="#ffffff" d="M 124.5 224 L 124 225.5 L 122.5 228 L 123 226.5 L 124.5 224 Z "/>
    <path fill="#ffffff" d="M 388.5 224 L 393 231.5 L 391 230.5 L 388.5 224 Z "/>
    <path fill="#ffffff" d="M 119.5 233 L 119 234.5 L 117.5 237 L 118 235.5 L 119.5 233 Z "/>
    <path fill="#ffffff" d="M 113.5 244 L 113 245.5 L 110.5 250 L 111 248.5 L 113.5 244 Z "/>
    <path fill="#ffffff" d="M 400.5 246 L 403 249.5 L 401 248.5 L 400.5 246 Z "/>
    <path fill="#ffffff" d="M 109.5 251 L 109 252.5 L 105.5 259 L 106 257.5 L 109.5 251 Z "/>
    <path fill="#ffffff" d="M 403.5 251 L 406 254.5 L 404 253.5 L 403.5 251 Z "/>
    <path fill="#ffffff" d="M 408.5 260 L 412 265.5 L 410 264.5 L 408.5 260 Z "/>
    <path fill="#ffffff" d="M 103.5 262 L 103 263.5 L 99.5 270 L 100 268.5 L 103.5 262 Z "/>
    <path fill="#ffffff" d="M 97.5 273 L 97 274.5 L 95.5 277 L 96 275.5 L 97.5 273 Z "/>
    <path fill="#ffffff" d="M 418.5 278 L 421 281.5 L 419 280.5 L 418.5 278 Z "/>
    <path fill="#ffffff" d="M 92.5 282 L 92 283.5 L 90.5 286 L 91 284.5 L 92.5 282 Z "/>
    <path fill="#ffffff" d="M 88.5 289 L 88 290.5 L 84.5 297 L 85 295.5 L 88.5 289 Z "/>
    <path fill="#ffffff" d="M 424.5 289 L 427 292.5 L 425 291.5 L 424.5 289 Z "/>
    <path fill="#ffffff" d="M 429.5 298 L 433 303.5 L 431 302.5 L 429.5 298 Z "/>
    <path fill="#ffffff" d="M 82.5 300 L 82 301.5 L 78.5 308 L 79 306.5 L 82.5 300 Z "/>
    <path fill="#ffffff" d="M 433.5 305 L 436 308.5 L 434 307.5 L 433.5 305 Z "/>
    <path fill="#ffffff" d="M 76.5 311 L 76 312.5 L 74.5 315 L 75 313.5 L 76.5 311 Z "/>
    <path fill="#ffffff" d="M 439.5 316 L 442 319.5 L 440 318.5 L 439.5 316 Z "/>
    <path fill="#ffffff" d="M 70.5 322 L 70 323.5 L 68.5 327 L 68 325.5 L 70.5 322 Z "/>
    <path fill="#ffffff" d="M 67.5 328 L 67 329.5 L 65.5 332 L 66 330.5 L 67.5 328 Z "/>
    <path fill="#ffffff" d="M 448.5 333 L 451 336.5 L 449 335.5 L 448.5 333 Z "/>
    <path fill="#ffffff" d="M 457.5 350 L 463 361.5 L 462 361.5 L 457 351.5 L 457.5 350 Z "/>
    <path fill="#ffffff" d="M 49.5 363 L 50 364.5 L 47.5 369 L 47 367.5 L 49.5 363 Z "/>
    <path fill="#ffffff" d="M 463.5 363 L 466 367.5 L 465 367.5 L 463.5 363 Z "/>
    <path fill="#ffffff" d="M 467.5 371 L 469 374.5 L 468 374.5 L 467.5 371 Z "/>
    <path fill="#ffffff" d="M 45.5 372 L 46 373.5 L 44.5 376 L 44 374.5 L 45.5 372 Z "/>
    <path fill="#ffffff" d="M 469.5 376 L 472 382.5 L 471 382.5 L 469.5 376 Z "/>
    <path fill="#ffffff" d="M 43.5 377 L 44 378.5 L 42.5 381 L 42 379.5 L 43.5 377 Z "/>
    <path fill="#ffffff" d="M 472.5 384 L 474 389.5 L 473 389.5 L 472.5 384 Z "/>
    <path fill="#ffffff" d="M 39.5 388 L 40 390.5 L 38.5 394 L 38 391.5 L 39.5 388 Z "/>
    <path fill="#ffffff" d="M 36.5 401 L 37 414.5 L 36 414.5 L 36.5 401 Z "/>
    <path fill="#ffffff" d="M 476.5 401 L 477 414.5 L 476 414.5 L 476.5 401 Z "/>
    <path fill="#ffffff" d="M 39.5 424 L 41 427.5 L 40 427.5 L 39.5 424 Z "/>
    <path fill="#ffffff" d="M 473.5 424 L 474 425.5 L 472.5 428 L 472 426.5 L 473.5 424 Z "/>
    <path fill="#ffffff" d="M 41.5 429 L 44 432.5 L 42 431.5 L 41.5 429 Z "/>
    <path fill="#ffffff" d="M 471.5 429 L 471 430.5 L 469.5 433 L 470 431.5 L 471.5 429 Z "/>
    <path fill="#ffffff" d="M 53.5 442 L 57 444.5 L 55.5 444 L 53.5 442 Z "/>
    <path fill="#ffffff" d="M 459.5 442 L 458.5 444 L 456.5 445 L 457.5 443 L 459.5 442 Z "/>
    <path fill="#ffffff" d="M 452.5 446 L 451.5 448 L 447.5 449 L 447.5 448 L 452.5 446 Z "/>
    <path fill="#ffffff" d="M 67.5 449 L 72 450.5 L 69.5 451 L 67.5 449 Z "/>
    <path fill="#ffffff" d="M 79.5 452 L 89 453.5 L 83.5 454 L 79.5 453 L 79.5 452 Z "/>
    <path fill="#ffffff" d="M 429.5 452 L 434 452.5 L 422.5 454 L 422.5 453 Q 428 454.5 429.5 452 Z "/>
    <path fill="#ffffff" d="M 91.5 454 L 97 454.5 L 91.5 455 L 91.5 454 Z "/>
    <path fill="#ffffff" d="M 411.5 454 L 419 454.5 L 411.5 455 L 411.5 454 Z "/>
    <path fill="#ffffff" d="M 102.5 455 L 125 456.5 L 111.5 457 L 110.5 456 L 102.5 456 L 102.5 455 Z "/>
    <path fill="#ffffff" d="M 390.5 455 L 404 455.5 L 390.5 456 L 390.5 455 Z "/>
    <path fill="#ffffff" d="M 372.5 456 L 389 456.5 L 372.5 457 L 372.5 456 Z "/>
    <path fill="#ffffff" d="M 131.5 457 L 140 457.5 L 131.5 458 L 131.5 457 Z "/>
    <path fill="#ffffff" d="M 354.5 457 L 366 457.5 L 354.5 458 L 354.5 457 Z "/>
    <path fill="#ffffff" d="M 148.5 458 L 158 458.5 L 148.5 459 L 148.5 458 Z "/>
    <path fill="#ffffff" d="M 332.5 458 L 345 458.5 L 332.5 459 L 332.5 458 Z "/>
    <path fill="#ffffff" d="M 159.5 459 L 176 459.5 L 159.5 460 L 159.5 459 Z "/>
    <path fill="#ffffff" d="M 312.5 459 L 331 459.5 L 312.5 460 L 312.5 459 Z "/>
    <path fill="#ffffff" d="M 182.5 460 L 200 460.5 L 182.5 461 L 182.5 460 Z "/>
    <path fill="#ffffff" d="M 286.5 460 L 306 460.5 L 286.5 461 L 286.5 460 Z "/>
    <path fill="#ffffff" d="M 212.5 461 L 273 461.5 L 212.5 462 L 212.5 461 Z "/>
    <path fill="#ffd43b" d="M 251.5 64 L 259.5 64 L 271.5 67 Q 285.3 73.7 294 85.5 L 309 108.5 L 330 149.5 L 342 169.5 L 343 173.5 L 393 261.5 L 447 361.5 L 459 389.5 L 462 402.5 L 462 413.5 Q 460 424.5 452.5 430 Q 446.1 435.1 436.5 437 L 425.5 439 L 416.5 439 L 415.5 440 L 405.5 440 L 404.5 441 L 345.5 443 L 344.5 444 L 328.5 444 L 327.5 445 L 302.5 445 L 301.5 446 L 273.5 446 L 272.5 447 L 210.5 447 L 209.5 446 L 162.5 445 L 161.5 444 L 148.5 444 L 147.5 443 L 134.5 443 L 133.5 442 L 113.5 442 L 112.5 441 L 102.5 441 L 101.5 440 L 86.5 439 L 67.5 434 L 57 427 L 52 417.5 L 51 403.5 L 54 389.5 L 61 372.5 L 81 332.5 L 129 246.5 L 192 126.5 L 211 95.5 L 225.5 78 L 241.5 67 L 251.5 64 Z M 225 106 L 219 108 L 212 115 L 197 148 L 198 156 L 206 162 L 230 167 Q 238 167 242 163 L 246 158 L 258 128 L 258 120 L 255 114 L 248 110 L 225 106 Z M 245 182 L 236 185 Q 231 188 229 195 L 231 239 L 233 250 L 234 280 L 236 291 L 236 305 L 237 306 L 237 315 L 239 319 Q 243 325 252 326 L 260 326 L 269 323 L 276 314 L 277 289 L 279 280 L 279 264 L 280 263 L 281 240 L 282 239 L 283 209 L 284 208 L 284 194 L 280 186 L 272 182 L 245 182 Z M 255 337 L 247 339 L 242 342 Q 234 347 232 358 Q 231 371 237 378 L 250 386 L 264 386 L 272 382 Q 279 377 281 367 L 281 358 L 277 348 Q 271 337 255 337 Z M 393 344 L 390 346 Q 387 345 388 348 Q 378 347 374 352 Q 364 359 362 374 Q 361 390 369 399 L 378 406 L 387 410 Q 391 409 393 411 Q 409 411 417 403 L 425 392 L 428 380 L 427 368 L 421 357 Q 413 344 393 344 Z "/>
    <path fill="#ffd43b" d="M 250.5 191 L 269.5 191 L 275 195.5 L 274 214.5 L 273 215.5 L 272 246.5 L 270 257.5 L 269 286.5 L 267 297.5 L 267 310.5 L 263.5 315 L 261.5 316 L 250.5 316 L 247 313.5 L 246 311.5 L 245 289.5 L 244 288.5 L 244 274.5 L 243 273.5 L 243 259.5 L 242 258.5 L 242 248.5 L 241 247.5 L 240 217.5 L 239 216.5 L 238 196.5 L 240.5 193 L 250.5 191 Z "/>
    <path fill="#ffd43b" d="M 251.5 347 L 261.5 347 L 267 350 L 272 358.5 L 272 365.5 L 265.5 375 Q 261.5 378.5 252.5 377 Q 246.8 375.8 244 371.5 Q 240.1 367.4 241 358.5 L 246.5 350 L 251.5 347 Z "/>
    <path fill="#ffd43b" d="M 389.5 353 L 399.5 353 Q 408.7 355.8 414 362.5 Q 420.2 368.8 418 383.5 Q 415.3 393.3 407.5 398 Q 401.3 402.8 388.5 401 Q 379.2 398.3 375 390.5 L 372 384.5 L 372 370.5 Q 374.5 362.5 380.5 358 L 389.5 353 Z "/>
  </g>
  <g id="line">
    <path fill="#1a1a1a" d="M 248.5 51 L 264.5 51 L 275.5 54 Q 292.2 60.3 302 73.5 L 324 106.5 L 361 176.5 L 370 190.5 L 376 203.5 L 385 217.5 L 391 230.5 L 451 337.5 L 472 383.5 L 476 400.5 L 476 415.5 Q 473 433.5 460.5 442 L 443.5 450 L 421.5 454 L 411.5 454 L 410.5 455 L 390.5 455 L 389.5 456 L 372.5 456 L 371.5 457 L 354.5 457 L 353.5 458 L 332.5 458 L 331.5 459 L 312.5 459 L 311.5 460 L 286.5 460 L 285.5 461 L 200.5 461 L 199.5 460 L 176.5 460 L 175.5 459 L 158.5 459 L 157.5 458 L 140.5 458 L 139.5 457 L 97.5 455 L 96.5 454 L 77.5 452 Q 55.5 448 44 433.5 L 38 420.5 L 37 415.5 L 37 400.5 L 40 387.5 L 46 371.5 L 65 332.5 L 140 197.5 L 177 126.5 L 192 100.5 L 205 81.5 L 222.5 63 L 231.5 57 L 248.5 51 Z M 252 64 L 242 67 L 226 78 L 211 96 L 192 127 L 129 247 L 81 333 L 61 373 L 54 390 L 51 404 L 52 418 L 57 427 L 68 434 L 87 439 L 102 440 L 103 441 L 113 441 L 114 442 L 134 442 L 135 443 L 148 443 L 149 444 L 162 444 L 163 445 L 210 446 L 211 447 L 273 447 L 274 446 L 302 446 L 303 445 L 328 445 L 329 444 L 345 444 L 346 443 L 405 441 L 406 440 L 416 440 L 417 439 L 426 439 L 437 437 Q 446 435 453 430 Q 460 425 462 414 L 462 403 L 459 390 L 447 362 L 393 262 L 343 174 L 342 170 L 330 150 L 309 109 L 294 86 Q 285 74 272 67 L 260 64 L 252 64 Z "/>
    <path fill="#1a1a1a" d="M 224.5 106 L 247.5 110 L 255 114 L 258 119.5 L 258 127.5 L 246 157.5 L 241.5 163 Q 237.5 167 229.5 167 L 205.5 162 L 198 155.5 L 197 147.5 L 212 114.5 L 218.5 108 L 224.5 106 Z M 224 116 L 220 120 L 210 141 L 207 148 L 207 152 L 212 154 Q 218 153 221 156 L 234 157 L 239 150 L 249 123 L 246 119 L 230 116 L 224 116 Z "/>
    <path fill="#1a1a1a" d="M 244.5 182 L 271.5 182 L 280 186 L 284 193.5 L 284 207.5 L 283 208.5 L 282 238.5 L 281 239.5 L 280 262.5 L 279 263.5 L 279 279.5 L 277 288.5 L 276 313.5 L 268.5 323 L 259.5 326 L 251.5 326 Q 243 324.5 239 318.5 L 237 314.5 L 237 305.5 L 236 304.5 L 236 290.5 L 234 279.5 L 233 249.5 L 231 238.5 L 229 194.5 Q 230.5 188 235.5 185 L 244.5 182 Z M 251 191 L 241 193 L 238 197 L 239 217 L 240 218 L 241 248 L 242 249 L 242 259 L 243 260 L 243 274 L 244 275 L 244 289 L 245 290 L 246 312 L 247 314 L 251 316 L 262 316 L 264 315 L 267 311 L 267 298 L 269 287 L 270 258 L 272 247 L 273 216 L 274 215 L 275 196 L 270 191 L 251 191 Z "/>
    <path fill="#1a1a1a" d="M 254.5 337 Q 270.6 337.4 277 347.5 L 281 357.5 L 281 366.5 Q 278.9 376.9 271.5 382 L 263.5 386 L 249.5 386 L 237 377.5 Q 230.8 371.2 232 357.5 Q 234.4 347.4 241.5 342 L 246.5 339 L 254.5 337 Z M 252 347 L 247 350 L 241 359 Q 240 367 244 372 Q 247 376 253 377 Q 262 378 266 375 L 272 366 L 272 359 L 267 350 L 262 347 L 252 347 Z "/>
    <path fill="#1a1a1a" d="M 392.5 344 Q 412.8 344.2 421 356.5 L 427 367.5 L 428 379.5 L 425 391.5 L 416.5 403 Q 408.5 411 392.5 411 Q 391.3 408.7 386.5 410 L 377.5 406 L 369 398.5 Q 361.3 390.2 362 373.5 Q 364.4 359.4 373.5 352 Q 378.3 346.8 388 348 Q 386.9 345.3 389.5 346 L 392.5 344 Z M 390 353 L 381 358 Q 375 363 372 371 L 372 385 L 375 391 Q 379 398 389 401 Q 401 403 408 398 Q 415 393 418 384 Q 420 369 414 363 Q 409 356 400 353 L 390 353 Z "/>
  </g>
</svg>
