<svg xmlns="http://www.w3.org/2000/svg" width="512" height="512" viewBox="0 0 512 512">
  <g id="color">
    <path fill="#ffffff" d="M 240.5 36 L 276 36.5 L 240.5 37 L 240.5 36 Z "/>
    <path fill="#ffffff" d="M 222.5 37 L 235 37.5 L 214.5 39 L 214.5 38 Q 220.8 39.8 222.5 37 Z "/>
    <path fill="#ffffff" d="M 280.5 37 L 291.5 37 L 300 38.5 L 292.5 39 L 291.5 38 L 280.5 38 L 280.5 37 Z "/>
    <path fill="#ffffff" d="M 205.5 39 L 210 39.5 L 199.5 41 L 199.5 40 Q 204.3 41.2 205.5 39 Z "/>
    <path fill="#ffffff" d="M 303.5 39 L 308 39.5 L 303.5 40 L 303.5 39 Z "/>
    <path fill="#ffffff" d="M 309.5 40 L 319 41.5 L 315.5 42 Q 314.3 39.7 309.5 41 L 309.5 40 Z "/>
    <path fill="#ffffff" d="M 188.5 42 L 192 42.5 L 185.5 44 L 185.5 43 L 188.5 42 Z "/>
    <path fill="#ffffff" d="M 322.5 42 L 329 43.5 L 325.5 44 L 322.5 43 L 322.5 42 Z "/>
    <path fill="#ffffff" d="M 176.5 45 L 179 45.5 L 173.5 47 L 173.5 46 L 176.5 45 Z "/>
    <path fill="#ffffff" d="M 335.5 45 L 340 46.5 L 338.5 47 L 335.5 46 L 335.5 45 Z "/>
    <path fill="#ffffff" d="M 341.5 47 L 346 48.5 L 344.5 49 L 341.5 48 L 341.5 47 Z "/>
    <path fill="#ffffff" d="M 161.5 50 L 163 50.5 L 153.5 55 L 153.5 54 L 161.5 50 Z "/>
    <path fill="#ffffff" d="M 349.5 50 L 354 51.5 L 351.5 52 L 349.5 50 Z "/>
    <path fill="#ffffff" d="M 355.5 52 L 360 54.5 L 358.5 54 Q 354.7 54.5 355.5 52 Z "/>
    <path fill="#ffffff" d="M 151.5 55 L 150.5 57 L 147.5 58 L 147.5 57 L 151.5 55 Z "/>
    <path fill="#ffffff" d="M 142.5 60 L 141.5 62 L 133.5 68 L 136.5 64 L 142.5 60 Z "/>
    <path fill="#ffffff" d="M 370.5 60 L 380 67.5 L 376.5 65 Q 371.3 63.3 370.5 60 Z "/>
    <path fill="#ffffff" d="M 387.5 74 L 396 85.5 L 394 84.5 L 387 75.5 L 387.5 74 Z "/>
    <path fill="#ffffff" d="M 123.5 77 L 121 80.5 L 117.5 86 L 118 84.5 L 123.5 77 Z "/>
    <path fill="#ffffff" d="M 116.5 87 L 116 88.5 L 114.5 91 L 115 89.5 L 116.5 87 Z "/>
    <path fill="#ffffff" d="M 396.5 87 L 399 90.5 L 397 89.5 L 396.5 87 Z "/>
    <path fill="#ffffff" d="M 399.5 92 L 402 97.5 L 401 97.5 L 399.5 92 Z "/>
    <path fill="#ffffff" d="M 112.5 94 L 113 95.5 L 111.5 98 L 111 96.5 L 112.5 94 Z "/>
    <path fill="#ffffff" d="M 235.5 94 L 277.5 94 L 278.5 95 L 295.5 96 L 317.5 101 L 338 112 L 338 114 Q 340.7 112.9 340 115.5 L 346 126.5 L 347 144.5 L 342 165.5 L 336.5 174 L 314.5 162 L 289.5 154 Q 280 154 273.5 151 L 242.5 151 L 235.5 153 L 223.5 154 L 206.5 159 L 176.5 174 Q 165.1 159.4 166 132.5 L 168 123.5 L 173 114 L 175 114 Q 173.9 111.3 176.5 112 Q 184.3 104.8 195.5 101 L 217.5 96 L 234.5 95 L 235.5 94 Z "/>
    <path fill="#ffffff" d="M 110.5 99 L 111 100.5 L 109.5 105 L 109 101.5 L 110.5 99 Z "/>
    <path fill="#ffffff" d="M 402.5 99 L 404 103.5 L 403 103.5 L 402.5 99 Z "/>
    <path fill="#ffffff" d="M 107.5 109 L 108 113.5 L 106.5 119 L 106 114.5 L 107.5 109 Z "/>
    <path fill="#ffffff" d="M 405.5 109 L 407 117.5 L 406 117.5 L 405.5 109 Z "/>
    <path fill="#ffffff" d="M 407.5 122 L 408 138.5 L 407 138.5 L 407.5 122 Z "/>
    <path fill="#ffffff" d="M 105.5 124 L 106 137.5 L 105 137.5 L 105.5 124 Z "/>
    <path fill="#ffffff" d="M 106.5 142 L 108 153.5 L 107 153.5 L 106.5 142 Z "/>
    <path fill="#ffffff" d="M 406.5 143 L 407 148.5 L 405.5 154 L 405 149.5 L 406.5 143 Z "/>
    <path fill="#ffffff" d="M 403.5 160 L 404 163.5 L 402.5 167 L 402 164.5 L 403.5 160 Z "/>
    <path fill="#ffffff" d="M 109.5 161 L 111 166.5 L 110 166.5 L 109.5 161 Z "/>
    <path fill="#ffffff" d="M 111.5 169 L 113 173.5 L 112 173.5 L 111.5 169 Z "/>
    <path fill="#ffffff" d="M 401.5 169 L 402 170.5 L 400.5 174 L 400 171.5 L 401.5 169 Z "/>
    <path fill="#ffffff" d="M 114.5 178 L 116 182.5 L 115 182.5 L 114.5 178 Z "/>
    <path fill="#ffffff" d="M 398.5 178 L 399 179.5 L 397.5 183 L 397 180.5 L 398.5 178 Z "/>
    <path fill="#ffffff" d="M 116.5 184 L 119 190.5 L 118 190.5 L 116.5 184 Z "/>
    <path fill="#ffffff" d="M 395.5 186 L 396 188.5 L 394.5 191 L 394 189.5 L 395.5 186 Z "/>
    <path fill="#ffffff" d="M 119.5 192 L 121 195.5 L 120 195.5 L 119.5 192 Z "/>
    <path fill="#ffffff" d="M 393.5 192 L 394 193.5 L 392.5 196 L 392 194.5 L 393.5 192 Z "/>
    <path fill="#ffffff" d="M 122.5 199 L 124 202.5 L 123 202.5 L 122.5 199 Z "/>
    <path fill="#ffffff" d="M 390.5 199 L 391 200.5 L 389.5 203 L 389 201.5 L 390.5 199 Z "/>
    <path fill="#ffffff" d="M 125.5 206 L 127 210.5 L 126 210.5 L 125.5 206 Z "/>
    <path fill="#ffffff" d="M 387.5 206 L 388 208.5 L 386.5 211 L 386 209.5 L 387.5 206 Z "/>
    <path fill="#ffffff" d="M 126.5 216 L 127 217.5 L 124 219.5 L 126.5 216 Z "/>
    <path fill="#ffffff" d="M 386.5 216 L 397 230.5 L 394 228.5 L 386.5 216 Z "/>
    <path fill="#ffffff" d="M 123.5 221 L 121 224.5 L 116.5 231 L 117 229.5 L 123.5 221 Z "/>
    <path fill="#ffffff" d="M 113.5 235 L 113 236.5 L 111.5 239 L 112 237.5 L 113.5 235 Z "/>
    <path fill="#ffffff" d="M 399.5 235 L 402 238.5 L 400 237.5 L 399.5 235 Z "/>
    <path fill="#ffffff" d="M 110.5 240 L 110 241.5 L 108.5 244 L 109 242.5 L 110.5 240 Z "/>
    <path fill="#ffffff" d="M 410.5 255 L 415 264.5 L 414 264.5 L 410 256.5 L 410.5 255 Z "/>
    <path fill="#ffffff" d="M 100.5 259 L 101 260.5 L 98.5 265 L 99 263.5 L 100.5 259 Z "/>
    <path fill="#ffffff" d="M 415.5 266 L 418 272.5 L 417 272.5 L 415.5 266 Z "/>
    <path fill="#ffffff" d="M 96.5 269 L 97 270.5 L 95.5 273 L 95 271.5 L 96.5 269 Z "/>
    <path fill="#ffffff" d="M 94.5 274 L 95 276.5 L 93.5 279 L 93 277.5 L 94.5 274 Z "/>
    <path fill="#ffffff" d="M 418.5 274 L 420 279.5 L 419 279.5 L 418.5 274 Z "/>
    <path fill="#ffffff" d="M 91.5 284 L 92 286.5 L 90.5 290 L 90 287.5 L 91.5 284 Z "/>
    <path fill="#ffffff" d="M 421.5 284 L 423 289.5 L 422 289.5 L 421.5 284 Z "/>
    <path fill="#ffffff" d="M 89.5 292 L 90 294.5 L 87.5 304 L 87 300.5 L 89.5 292 Z "/>
    <path fill="#ffffff" d="M 423.5 292 L 426 303.5 L 425 303.5 L 423.5 292 Z "/>
    <path fill="#ffffff" d="M 86.5 306 L 87 311.5 L 85.5 320 L 85 312.5 L 86.5 306 Z "/>
    <path fill="#ffffff" d="M 426.5 307 L 428 318.5 L 427 318.5 L 426.5 307 Z "/>
    <path fill="#ffffff" d="M 428.5 322 L 429 346.5 L 428 346.5 L 428.5 322 Z "/>
    <path fill="#ffffff" d="M 84.5 323 L 85 344.5 L 84 344.5 L 84.5 323 Z "/>
    <path fill="#ffffff" d="M 85.5 348 L 87 360.5 L 86 360.5 L 85.5 348 Z "/>
    <path fill="#ffffff" d="M 427.5 349 L 428 355.5 L 426.5 361 L 426 356.5 L 427.5 349 Z "/>
    <path fill="#ffffff" d="M 87.5 363 L 90 372.5 L 89 372.5 L 87.5 363 Z "/>
    <path fill="#ffffff" d="M 90.5 374 L 92 379.5 L 91 379.5 L 90.5 374 Z "/>
    <path fill="#ffffff" d="M 422.5 375 L 423 376.5 L 421.5 380 L 421 377.5 L 422.5 375 Z "/>
    <path fill="#ffffff" d="M 92.5 381 L 95 387.5 L 94 387.5 L 92.5 381 Z "/>
    <path fill="#ffffff" d="M 419.5 384 L 420 385.5 L 418.5 388 L 418 386.5 L 419.5 384 Z "/>
    <path fill="#ffffff" d="M 98.5 395 L 103 402.5 L 101 401.5 L 98.5 395 Z "/>
    <path fill="#ffffff" d="M 412.5 399 L 412 400.5 L 410.5 403 L 411 401.5 L 412.5 399 Z "/>
    <path fill="#ffffff" d="M 103.5 404 L 106 407.5 L 104 406.5 L 103.5 404 Z "/>
    <path fill="#ffffff" d="M 409.5 404 L 409 405.5 L 407.5 408 L 408 406.5 L 409.5 404 Z "/>
    <path fill="#ffffff" d="M 397.5 421 L 384.5 435 L 368.5 447 L 369.5 445 L 377.5 440 L 397.5 421 Z "/>
    <path fill="#ffffff" d="M 135.5 439 L 142 444.5 L 139.5 443 L 135.5 439 Z "/>
    <path fill="#ffffff" d="M 146.5 447 L 150 449.5 L 148.5 449 L 146.5 447 Z "/>
    <path fill="#ffffff" d="M 366.5 447 L 365.5 449 L 363.5 450 L 364.5 448 L 366.5 447 Z "/>
    <path fill="#ffffff" d="M 361.5 450 L 360.5 452 L 358.5 453 L 359.5 451 L 361.5 450 Z "/>
    <path fill="#ffffff" d="M 170.5 460 L 177 462.5 L 175.5 463 L 170.5 461 L 170.5 460 Z "/>
    <path fill="#ffffff" d="M 341.5 460 L 343 460.5 L 336.5 463 L 336.5 462 L 341.5 460 Z "/>
    <path fill="#ffffff" d="M 178.5 463 L 182 464.5 L 180.5 465 L 178.5 463 Z "/>
    <path fill="#ffffff" d="M 333.5 463 L 335 463.5 L 331.5 465 L 331.5 464 L 333.5 463 Z "/>
    <path fill="#ffffff" d="M 186.5 466 L 192 467.5 L 189.5 468 L 186.5 467 L 186.5 466 Z "/>
    <path fill="#ffffff" d="M 324.5 466 L 327 466.5 L 321.5 468 L 321.5 467 L 324.5 466 Z "/>
    <path fill="#ffffff" d="M 197.5 469 L 203 470.5 L 200.5 471 L 197.5 470 L 197.5 469 Z "/>
    <path fill="#ffffff" d="M 313.5 469 L 317 469.5 L 310.5 471 L 310.5 470 L 313.5 469 Z "/>
    <path fill="#ffffff" d="M 205.5 471 L 218 473.5 L 214.5 474 L 205.5 472 L 205.5 471 Z "/>
    <path fill="#ffffff" d="M 305.5 471 L 309 471.5 L 300.5 473 L 300.5 472 L 305.5 471 Z "/>
    <path fill="#ffffff" d="M 221.5 474 L 236 475.5 L 227.5 476 Q 226.3 473.8 221.5 475 L 221.5 474 Z "/>
    <path fill="#ffffff" d="M 286.5 474 L 293 474.5 L 277.5 476 L 277.5 475 L 285.5 475 L 286.5 474 Z "/>
    <path fill="#ffffff" d="M 239.5 476 L 252 476.5 L 239.5 477 L 239.5 476 Z "/>
    <path fill="#ffffff" d="M 263.5 476 L 274 476.5 L 263.5 477 L 263.5 476 Z "/>
    <path fill="#4da3ff" d="M 238.5 51 L 292.5 52 L 293.5 53 L 307.5 54 L 323.5 57 L 349.5 65 L 370.5 78 L 379 86.5 Q 386.8 96.3 391 109.5 L 392 120.5 L 393 121.5 L 393 141.5 L 387 169.5 L 374 201.5 L 371 211.5 L 371 216.5 L 373 222.5 L 385 239.5 L 386 250.5 L 387 251.5 L 387 262.5 L 388 263.5 L 388 280.5 L 387 281.5 L 386 298.5 L 379 323.5 Q 375.5 327 375 333.5 L 357 363 Q 354.3 361.9 355 364.5 L 339.5 381 Q 315.8 402.3 281.5 413 L 249.5 419 L 217.5 419 L 216.5 418 L 197.5 416 L 189.5 413 L 184.5 413 L 157.5 403 L 125.5 384 L 102 361.5 L 100 357.5 L 99 332.5 L 98 331.5 L 99 330.5 L 100 310.5 L 108 278.5 L 119 253.5 L 135 228 Q 137.7 229.1 137 226.5 L 142 216.5 L 142 209.5 L 124 163.5 L 120 141.5 L 120 120.5 L 124 103.5 L 129 93.5 L 142.5 78 L 161.5 66 L 185.5 58 L 205.5 54 L 213.5 54 L 222.5 52 L 237.5 52 L 238.5 51 Z M 232 80 Q 230 82 226 81 L 224 81 L 223 82 L 211 83 L 209 83 L 186 90 L 170 99 Q 155 109 152 131 L 152 145 L 155 158 L 155 163 L 157 165 L 160 176 L 165 184 L 173 188 L 183 187 L 190 182 L 207 174 L 210 174 L 212 172 L 231 167 L 245 166 L 246 165 L 268 165 L 269 166 L 277 166 L 292 169 Q 315 176 334 188 Q 341 189 345 186 Q 352 180 355 171 L 359 158 L 360 147 L 361 146 L 361 130 L 360 125 L 358 118 L 352 108 L 337 94 L 313 85 L 298 82 L 282 81 L 281 80 L 234 80 L 232 80 Z M 243 180 L 232 186 Q 227 191 225 199 L 225 207 L 230 217 L 243 224 Q 253 225 259 221 Q 265 217 268 209 Q 270 195 265 190 L 256 181 L 243 180 Z M 245 368 L 238 372 L 232 380 L 231 384 Q 230 394 234 399 Q 238 405 247 407 Q 257 408 262 403 L 268 396 L 268 388 L 267 386 Q 260 387 257 385 L 252 380 L 253 376 L 252 369 Q 250 367 245 368 Z "/>
    <path fill="#4da3ff" d="M 244.5 189 Q 255.1 187.9 258 194.5 L 259 196.5 L 259 207.5 L 254.5 213 Q 251.2 216.2 243.5 215 L 236 209.5 Q 233.3 206.2 234 199.5 Q 235.3 193.8 239.5 191 L 244.5 189 Z "/>
    <path fill="#4da3ff" d="M 242.5 380 Q 244.4 387.1 249.5 391 L 257 394 L 255.5 397 L 247.5 398 L 241 393.5 L 239 386.5 L 242.5 380 Z "/>
    <path fill="#66d9e8" d="M 244.5 49 L 270.5 49 L 271.5 50 L 298.5 51 L 299.5 52 L 322.5 55 L 337.5 59 Q 364.4 67.6 381 86.5 Q 389 96.5 393 110.5 L 394 121.5 L 395 122.5 L 395 139.5 L 390 165.5 L 374 206.5 L 373 217.5 L 375 222.5 L 386 237.5 L 388 245.5 L 388 254.5 L 389 255.5 L 390 278.5 L 389 279.5 L 389 288.5 L 386 305.5 L 377 332.5 L 362 358.5 L 339.5 383 Q 326.6 394.6 310.5 403 L 280.5 415 L 255.5 420 L 224.5 421 L 223.5 420 L 211.5 420 L 210.5 419 L 193.5 417 L 162.5 407 Q 124.6 390.9 100 361.5 L 97 345.5 L 97 322.5 L 98 321.5 L 99 306.5 L 107 276.5 L 120 248.5 L 139 220.5 L 140 209.5 L 123 165.5 L 118 139.5 L 118 122.5 L 119 121.5 L 120 110.5 L 126 95.5 Q 131.8 84.3 141.5 77 L 164.5 63 L 186.5 56 L 215.5 51 L 243.5 50 L 244.5 49 Z M 239 51 L 238 52 L 223 52 L 214 54 L 206 54 L 186 58 L 162 66 L 143 78 L 129 94 L 124 104 L 120 121 L 120 142 L 124 164 L 142 210 L 142 217 L 137 227 Q 138 229 135 228 L 119 254 L 108 279 L 100 311 L 99 331 L 98 332 L 99 333 L 100 358 L 102 362 L 126 384 L 158 403 L 185 413 L 190 413 L 198 416 L 217 418 L 218 419 L 250 419 L 282 413 Q 316 402 340 381 L 355 365 Q 354 362 357 363 L 375 334 Q 376 327 379 324 L 386 299 L 387 282 L 388 281 L 388 264 L 387 263 L 387 252 L 386 251 L 385 240 L 373 223 L 371 217 L 371 212 L 374 202 L 387 170 L 393 142 L 393 122 L 392 121 L 391 110 Q 387 96 379 87 L 371 78 L 350 65 L 324 57 L 308 54 L 294 53 L 293 52 L 239 51 Z "/>
    <path fill="#66d9e8" d="M 231.5 80 L 233.5 80 L 280.5 80 L 281.5 81 L 297.5 82 L 312.5 85 L 336.5 94 L 352 107.5 L 358 117.5 L 360 124.5 L 361 129.5 L 361 145.5 L 360 146.5 L 359 157.5 L 355 170.5 Q 351.9 180.4 344.5 186 Q 341.2 189.2 333.5 188 Q 315.2 175.8 291.5 169 L 276.5 166 L 268.5 166 L 267.5 165 L 245.5 165 L 244.5 166 L 230.5 167 L 211.5 172 L 209.5 174 L 206.5 174 L 189.5 182 L 182.5 187 L 172.5 188 L 165 184 L 160 175.5 L 157 164.5 L 155 162.5 L 155 157.5 L 152 144.5 L 152 130.5 Q 155.4 109.4 169.5 99 L 185.5 90 L 208.5 83 L 210.5 83 L 222.5 82 L 223.5 81 L 225.5 81 Q 230.3 82.3 231.5 80 Z M 245 81 L 244 82 L 230 82 L 221 84 L 214 84 L 200 87 L 179 95 L 171 100 L 159 114 L 154 128 L 154 148 Q 156 149 155 154 L 159 169 L 164 180 L 172 186 L 181 186 L 198 176 L 219 168 L 246 163 L 274 164 L 295 168 L 316 176 L 333 186 Q 340 188 344 185 L 349 180 L 354 169 L 359 148 L 359 129 L 356 118 L 351 109 L 337 96 L 314 87 L 285 82 L 245 81 Z "/>
    <path fill="#66d9e8" d="M 242.5 180 L 255.5 181 L 265 189.5 Q 270.2 195.3 268 208.5 Q 265.1 216.6 258.5 221 Q 253.3 225.3 242.5 224 L 230 217 L 225 206.5 L 225 198.5 Q 226.7 190.7 231.5 186 L 242.5 180 Z M 242 182 L 236 185 Q 229 189 227 198 L 227 208 L 231 216 L 242 222 Q 253 224 259 219 Q 265 214 267 207 Q 268 196 264 191 L 254 182 L 242 182 Z "/>
    <path fill="#66d9e8" d="M 244.5 187 Q 256.3 186.7 260 194.5 L 261 206.5 L 254.5 215 L 249.5 217 L 243.5 217 L 234 209.5 L 232 199.5 Q 233.8 192.3 239.5 189 L 244.5 187 Z M 245 189 L 240 191 Q 235 194 234 200 Q 233 206 236 210 L 244 215 Q 251 216 255 213 L 259 208 L 259 197 L 258 195 Q 255 188 245 189 Z "/>
    <path fill="#66d9e8" d="M 395.5 256 L 404 272.5 L 412 298.5 L 415 315.5 L 416 342.5 L 415 343.5 L 415 352.5 L 412 367.5 L 401 394.5 Q 389.7 413.2 373.5 427 L 353.5 441 L 337.5 449 L 317.5 455 L 314.5 457 L 281.5 463 L 242.5 464 L 241.5 463 L 231.5 463 L 230.5 462 L 222.5 462 L 221.5 461 L 210.5 460 L 175.5 449 L 161.5 442 L 144.5 431 L 125 412.5 L 112 394.5 Q 106.8 387.2 105 376.5 L 108.5 379 L 139.5 402 L 176.5 418 L 214.5 426 L 253.5 426 L 254.5 425 L 267.5 424 L 275.5 421 L 286.5 419 L 318.5 405 Q 341.8 391.3 359 371.5 L 378 343.5 L 389 316.5 L 394 293.5 L 395 258.5 Q 392.8 257.3 395.5 256 Z "/>
    <path fill="#66d9e8" d="M 244.5 368 Q 249.9 367.4 252 369 L 253 375.5 L 252 379.5 L 256.5 385 Q 259.7 387.3 266.5 386 L 268 387.5 L 268 395.5 L 261.5 403 Q 256.7 407.7 246.5 407 Q 238.2 404.9 234 398.5 Q 229.5 394 231 383.5 L 232 379.5 L 237.5 372 L 244.5 368 Z M 244 370 L 241 372 Q 233 376 232 387 Q 232 395 236 399 L 245 405 Q 256 407 261 402 L 267 394 L 267 388 L 265 387 L 263 388 Q 256 388 253 385 Q 249 382 251 372 Q 249 368 244 370 Z "/>
    <path fill="#66d9e8" d="M 243.5 377 Q 246.9 376.1 245 381.5 L 249 389 L 259 394.5 L 256.5 398 Q 253 400.5 245.5 399 L 239 393.5 L 238 384.5 L 243.5 377 Z M 243 380 L 239 387 L 241 394 L 248 398 L 256 397 L 257 394 L 250 391 Q 244 387 243 380 Z "/>
  </g>
  <g id="line">
    <path fill="#1a1a1a" d="M 235.5 37 L 279.5 37 L 280.5 38 L 302.5 39 L 315.5 42 L 321.5 42 L 325.5 44 L 334.5 45 L 351.5 52 L 354.5 52 L 366.5 58 L 381 68 Q 379.9 70.7 382.5 70 Q 395.1 81.4 402 98.5 L 407 118.5 L 407 142.5 L 402 168.5 L 400 171.5 L 394 191.5 L 387 206.5 L 386 216.5 L 404 242.5 L 418 273.5 L 426 304.5 L 426 311.5 L 428 319.5 L 428 348.5 L 423 374.5 L 413 398.5 Q 401.8 419.3 384.5 434 Q 360.9 454.9 327.5 466 L 295.5 474 L 252.5 477 L 251.5 476 L 236.5 476 L 235.5 475 L 218.5 474 Q 212.8 470.7 203.5 471 L 169.5 460 L 142.5 445 Q 127.8 434.8 116 421.5 Q 100.9 404.1 92 380.5 L 87 362.5 L 86 348.5 L 85 347.5 L 85 320.5 L 86 319.5 L 87 304.5 L 95 273.5 L 108 244.5 Q 116 229.5 127 217.5 L 127 208.5 L 119 191.5 L 109 160.5 L 107 142.5 L 106 141.5 L 106 119.5 L 108 113.5 L 108 108.5 L 113 93.5 Q 119.8 79.8 130.5 70 L 133.5 68 L 146.5 58 L 172.5 47 L 210.5 39 L 234.5 38 L 235.5 37 Z M 245 49 L 244 50 L 216 51 L 187 56 L 165 63 L 142 77 Q 132 84 126 96 L 120 111 L 119 122 L 118 123 L 118 140 L 123 166 L 140 210 L 139 221 L 120 249 L 107 277 L 99 307 L 98 322 L 97 323 L 97 346 L 100 362 Q 125 391 163 407 L 194 417 L 211 419 L 212 420 L 224 420 L 225 421 L 256 420 L 281 415 L 311 403 Q 327 395 340 383 L 362 359 L 377 333 L 386 306 L 389 289 L 389 280 L 390 279 L 389 256 L 388 255 L 388 246 L 386 238 L 375 223 L 373 218 L 374 207 L 390 166 L 395 140 L 395 123 L 394 122 L 393 111 Q 389 97 381 87 Q 364 68 338 59 L 323 55 L 300 52 L 299 51 L 272 50 L 271 49 L 245 49 Z M 396 256 Q 393 257 395 259 L 394 294 L 389 317 L 378 344 L 359 372 Q 342 391 319 405 L 287 419 L 276 421 L 268 424 L 255 425 L 254 426 L 215 426 L 177 418 L 140 402 L 109 379 L 105 377 Q 107 387 112 395 L 125 413 L 145 431 L 162 442 L 176 449 L 211 460 L 222 461 L 223 462 L 231 462 L 232 463 L 242 463 L 243 464 L 282 463 L 315 457 L 318 455 L 338 449 L 354 441 L 374 427 Q 390 413 401 395 L 412 368 L 415 353 L 415 344 L 416 343 L 415 316 L 412 299 L 404 273 L 396 256 Z "/>
    <path fill="#1a1a1a" d="M 244.5 81 L 284.5 82 L 313.5 87 L 336.5 96 L 351 108.5 L 356 117.5 L 359 128.5 L 359 147.5 L 354 168.5 L 349 179.5 L 343.5 185 Q 340 187.5 332.5 186 L 315.5 176 L 294.5 168 L 273.5 164 L 245.5 163 L 218.5 168 L 197.5 176 L 180.5 186 L 171.5 186 L 164 179.5 L 159 168.5 L 155 153.5 Q 156.3 148.8 154 147.5 L 154 127.5 L 159 113.5 L 170.5 100 L 178.5 95 L 199.5 87 L 213.5 84 L 220.5 84 L 229.5 82 L 243.5 82 L 244.5 81 Z M 236 94 L 235 95 L 218 96 L 196 101 Q 184 105 177 112 Q 174 111 175 114 L 173 114 L 168 124 L 166 133 Q 165 159 177 174 L 207 159 L 224 154 L 236 153 L 243 151 L 274 151 Q 280 154 290 154 L 315 162 L 337 174 L 342 166 L 347 145 L 346 127 L 340 116 Q 341 113 338 114 L 338 112 L 318 101 L 296 96 L 279 95 L 278 94 L 236 94 Z "/>
    <path fill="#1a1a1a" d="M 241.5 182 L 253.5 182 L 264 190.5 Q 268.4 195.7 267 206.5 Q 264.5 214.5 258.5 219 Q 253.3 223.8 241.5 222 L 231 216 L 227 207.5 L 227 197.5 Q 228.6 188.6 235.5 185 L 241.5 182 Z M 245 187 L 240 189 Q 234 192 232 200 L 234 210 L 244 217 L 250 217 L 255 215 L 261 207 L 260 195 Q 256 187 245 187 Z "/>
    <path fill="#1a1a1a" d="M 243.5 370 Q 249.5 368.5 251 371.5 Q 249.3 381.6 253 385 Q 256 387.7 262.5 388 L 264.5 387 L 267 388 L 267 393.5 L 260.5 402 Q 255.7 406.7 244.5 405 L 236 398.5 Q 232 394.5 232 386.5 Q 233.5 376.5 240.5 372 L 243.5 370 Z M 244 377 L 238 385 L 239 394 L 246 399 Q 253 401 257 398 L 259 395 L 249 389 L 245 382 Q 247 376 244 377 Z "/>
  </g>
</svg>
