<svg xmlns="http://www.w3.org/2000/svg" width="512" height="512" viewBox="0 0 512 512">
  <g id="color">
    <path fill="#ffffff" d="M 218.5 36 L 241 36.5 L 218.5 37 L 218.5 36 Z "/>
    <path fill="#ffffff" d="M 209.5 37 L 217 37.5 L 209.5 38 L 209.5 37 Z "/>
    <path fill="#ffffff" d="M 242.5 37 L 248 37.5 L 242.5 38 L 242.5 37 Z "/>
    <path fill="#ffffff" d="M 197.5 39 L 201 39.5 L 194.5 41 L 194.5 40 L 197.5 39 Z "/>
    <path fill="#ffffff" d="M 255.5 39 L 261 40.5 L 258.5 41 L 255.5 40 L 255.5 39 Z "/>
    <path fill="#ffffff" d="M 185.5 42 L 189 42.5 L 183.5 44 L 183.5 43 L 185.5 42 Z "/>
    <path fill="#ffffff" d="M 266.5 42 L 270 43.5 L 268.5 44 L 266.5 42 Z "/>
    <path fill="#ffffff" d="M 179.5 44 L 182 44.5 L 174.5 47 L 174.5 46 L 179.5 44 Z "/>
    <path fill="#ffffff" d="M 171.5 47 L 173 47.5 L 169.5 49 L 169.5 48 L 171.5 47 Z "/>
    <path fill="#ffffff" d="M 166.5 49 L 168 49.5 L 162.5 52 L 162.5 51 L 166.5 49 Z "/>
    <path fill="#ffffff" d="M 282.5 49 L 286 51.5 L 284.5 51 L 282.5 49 Z "/>
    <path fill="#ffffff" d="M 287.5 52 L 300 61.5 L 296.5 59 L 288.5 54 L 287.5 52 Z "/>
    <path fill="#ffffff" d="M 150.5 57 L 149.5 59 L 147.5 60 L 148.5 58 L 150.5 57 Z "/>
    <path fill="#ffffff" d="M 145.5 60 L 144.5 62 L 142.5 63 L 143.5 61 L 145.5 60 Z "/>
    <path fill="#ffffff" d="M 301.5 62 L 321 82.5 L 314 76.5 L 301.5 62 Z "/>
    <path fill="#ffffff" d="M 137.5 65 L 136.5 67 L 130.5 71 L 132.5 68 L 137.5 65 Z "/>
    <path fill="#ffffff" d="M 128.5 71 L 125.5 75 L 112.5 86 L 118.5 79 L 128.5 71 Z "/>
    <path fill="#ffffff" d="M 327.5 92 L 345 114.5 L 341 111.5 L 327.5 92 Z "/>
    <path fill="#ffffff" d="M 93.5 105 L 91 108.5 L 90.5 110 L 90 108.5 L 93.5 105 Z "/>
    <path fill="#ffffff" d="M 88.5 111 L 87 113.5 L 84.5 117 L 86 114.5 L 88.5 111 Z "/>
    <path fill="#ffffff" d="M 83.5 118 L 82 120.5 L 78.5 126 L 79 124.5 L 83.5 118 Z "/>
    <path fill="#ffffff" d="M 77.5 127 L 77 128.5 L 75.5 131 L 76 129.5 L 77.5 127 Z "/>
    <path fill="#ffffff" d="M 72.5 135 L 72 136.5 L 68.5 143 L 69 141.5 L 72.5 135 Z "/>
    <path fill="#ffffff" d="M 67.5 144 L 68 145.5 L 65.5 149 L 66 147.5 L 67.5 144 Z "/>
    <path fill="#ffffff" d="M 64.5 150 L 65 151.5 L 63.5 154 L 63 152.5 L 64.5 150 Z "/>
    <path fill="#ffffff" d="M 384.5 152 L 396 159.5 L 394.5 159 Q 386.5 157 384.5 152 Z "/>
    <path fill="#ffffff" d="M 397.5 160 L 401 162.5 L 399.5 162 L 397.5 160 Z "/>
    <path fill="#ffffff" d="M 59.5 161 L 60 162.5 L 57.5 168 L 57 166.5 L 59.5 161 Z "/>
    <path fill="#ffffff" d="M 408.5 166 L 412 168.5 L 410.5 168 L 408.5 166 Z "/>
    <path fill="#ffffff" d="M 56.5 169 L 57 170.5 L 55.5 173 L 55 171.5 L 56.5 169 Z "/>
    <path fill="#ffffff" d="M 413.5 169 L 420 173.5 L 418.5 173 Q 413.9 171.8 413.5 169 Z "/>
    <path fill="#ffffff" d="M 54.5 174 L 55 175.5 L 52.5 181 L 52 179.5 L 54.5 174 Z "/>
    <path fill="#ffffff" d="M 51.5 183 L 52 184.5 L 50.5 188 L 50 185.5 L 51.5 183 Z "/>
    <path fill="#ffffff" d="M 48.5 192 L 49 194.5 L 47.5 198 L 47 195.5 L 48.5 192 Z "/>
    <path fill="#ffffff" d="M 450.5 201 Q 459.3 208.7 464 220.5 L 462 219.5 L 460 214.5 L 450.5 201 Z "/>
    <path fill="#ffffff" d="M 45.5 203 L 46 206.5 L 44.5 210 L 44 207.5 L 45.5 203 Z "/>
    <path fill="#ffffff" d="M 43.5 212 L 44 214.5 L 42.5 220 L 42 215.5 L 43.5 212 Z "/>
    <path fill="#ffffff" d="M 466.5 226 L 469 232.5 L 468 232.5 L 466.5 226 Z "/>
    <path fill="#ffffff" d="M 40.5 227 L 41 231.5 L 39.5 238 L 39 232.5 L 40.5 227 Z "/>
    <path fill="#ffffff" d="M 469.5 234 L 472 241.5 L 471 241.5 L 469.5 234 Z "/>
    <path fill="#ffffff" d="M 38.5 241 L 39 246.5 L 38 246.5 L 38.5 241 Z "/>
    <path fill="#ffffff" d="M 472.5 243 L 474 248.5 L 473 248.5 L 472.5 243 Z "/>
    <path fill="#ffffff" d="M 37.5 248 L 38 259.5 L 37 259.5 L 37.5 248 Z "/>
    <path fill="#ffffff" d="M 475.5 256 L 476 264.5 L 475 264.5 L 475.5 256 Z "/>
    <path fill="#ffffff" d="M 36.5 261 L 37 285.5 L 36 285.5 L 36.5 261 Z "/>
    <path fill="#ffffff" d="M 476.5 267 L 477 282.5 L 476 282.5 L 476.5 267 Z "/>
    <path fill="#ffffff" d="M 475.5 285 L 476 292.5 L 475 292.5 L 475.5 285 Z "/>
    <path fill="#ffffff" d="M 37.5 288 L 38 297.5 L 37 297.5 L 37.5 288 Z "/>
    <path fill="#ffffff" d="M 38.5 299 L 39 304.5 L 38 304.5 L 38.5 299 Z "/>
    <path fill="#ffffff" d="M 473.5 300 L 474 303.5 L 472.5 307 L 472 304.5 L 473.5 300 Z "/>
    <path fill="#ffffff" d="M 39.5 307 L 41 316.5 L 40 316.5 L 39.5 307 Z "/>
    <path fill="#ffffff" d="M 468.5 320 L 469 321.5 L 467.5 324 L 467 322.5 L 468.5 320 Z "/>
    <path fill="#ffffff" d="M 42.5 323 L 44 329.5 L 43 329.5 L 42.5 323 Z "/>
    <path fill="#ffffff" d="M 465.5 328 L 466 329.5 L 464.5 332 L 464 330.5 L 465.5 328 Z "/>
    <path fill="#ffffff" d="M 44.5 332 L 46 336.5 L 45 336.5 L 44.5 332 Z "/>
    <path fill="#ffffff" d="M 47.5 342 L 49 345.5 L 48 345.5 L 47.5 342 Z "/>
    <path fill="#ffffff" d="M 50.5 350 L 52 353.5 L 50 352.5 L 50.5 350 Z "/>
    <path fill="#ffffff" d="M 455.5 350 L 455 351.5 L 453.5 354 L 454 352.5 L 455.5 350 Z "/>
    <path fill="#ffffff" d="M 52.5 356 L 55 361.5 L 54 361.5 L 52.5 356 Z "/>
    <path fill="#ffffff" d="M 451.5 357 L 451 358.5 L 448.5 363 L 449 361.5 L 451.5 357 Z "/>
    <path fill="#ffffff" d="M 57.5 367 L 62 375.5 L 60 374.5 L 57.5 367 Z "/>
    <path fill="#ffffff" d="M 445.5 367 L 444 369.5 L 432.5 385 L 435 381.5 L 445.5 367 Z "/>
    <path fill="#ffffff" d="M 62.5 377 L 65 380.5 L 63 379.5 L 62.5 377 Z "/>
    <path fill="#ffffff" d="M 65.5 382 L 68 385.5 L 66 384.5 L 65.5 382 Z "/>
    <path fill="#ffffff" d="M 68.5 387 L 71 390.5 L 69 389.5 L 68.5 387 Z "/>
    <path fill="#ffffff" d="M 426.5 392 L 404.5 415 L 403 414.5 L 426.5 392 Z "/>
    <path fill="#ffffff" d="M 82.5 406 L 91 415.5 L 89 416 L 82 407.5 L 82.5 406 Z "/>
    <path fill="#ffffff" d="M 390.5 425 L 388.5 428 L 385.5 430 L 387.5 427 L 390.5 425 Z "/>
    <path fill="#ffffff" d="M 106.5 430 L 123 442.5 L 120.5 441 L 108.5 433 L 106.5 430 Z "/>
    <path fill="#ffffff" d="M 383.5 430 L 381.5 433 L 378.5 435 L 380.5 432 L 383.5 430 Z "/>
    <path fill="#ffffff" d="M 373.5 437 L 372.5 439 L 370.5 440 L 371.5 438 L 373.5 437 Z "/>
    <path fill="#ffffff" d="M 365.5 442 L 364.5 444 L 362.5 445 L 363.5 443 L 365.5 442 Z "/>
    <path fill="#ffffff" d="M 128.5 445 L 132 447.5 L 130.5 447 L 128.5 445 Z "/>
    <path fill="#ffffff" d="M 360.5 445 L 359.5 447 L 356.5 448 L 356.5 447 L 360.5 445 Z "/>
    <path fill="#ffffff" d="M 354.5 448 L 353.5 450 L 341.5 456 L 342.5 454 L 354.5 448 Z "/>
    <path fill="#ffffff" d="M 137.5 450 L 143 452.5 L 141.5 453 L 137.5 451 L 137.5 450 Z "/>
    <path fill="#ffffff" d="M 144.5 453 L 149 455.5 L 147.5 455 Q 143.7 455.5 144.5 453 Z "/>
    <path fill="#ffffff" d="M 150.5 456 L 154 457.5 L 152.5 458 L 150.5 456 Z "/>
    <path fill="#ffffff" d="M 338.5 456 L 340 456.5 L 336.5 458 L 336.5 457 L 338.5 456 Z "/>
    <path fill="#ffffff" d="M 331.5 459 L 333 459.5 L 329.5 461 L 329.5 460 L 331.5 459 Z "/>
    <path fill="#ffffff" d="M 164.5 461 L 170 462.5 L 167.5 463 L 164.5 462 L 164.5 461 Z "/>
    <path fill="#ffffff" d="M 326.5 461 L 328 461.5 L 321.5 464 L 321.5 463 L 326.5 461 Z "/>
    <path fill="#ffffff" d="M 175.5 464 L 181 465.5 L 178.5 466 L 175.5 465 L 175.5 464 Z "/>
    <path fill="#ffffff" d="M 317.5 464 L 320 464.5 L 314.5 466 L 314.5 465 L 317.5 464 Z "/>
    <path fill="#ffffff" d="M 311.5 466 L 313 466.5 L 305.5 469 L 305.5 468 L 311.5 466 Z "/>
    <path fill="#ffffff" d="M 187.5 467 L 195 468.5 L 192.5 469 L 187.5 468 L 187.5 467 Z "/>
    <path fill="#ffffff" d="M 197.5 469 L 205 470.5 L 201.5 471 L 197.5 470 L 197.5 469 Z "/>
    <path fill="#ffffff" d="M 300.5 469 L 303 469.5 L 297.5 471 L 297.5 470 L 300.5 469 Z "/>
    <path fill="#ffffff" d="M 212.5 472 L 221 473.5 L 216.5 474 L 212.5 473 L 212.5 472 Z "/>
    <path fill="#ffffff" d="M 287.5 472 L 291 472.5 L 283.5 474 L 283.5 473 L 287.5 472 Z "/>
    <path fill="#ffffff" d="M 223.5 474 L 228 474.5 L 223.5 475 L 223.5 474 Z "/>
    <path fill="#ffffff" d="M 274.5 474 L 280 474.5 L 274.5 475 L 274.5 474 Z "/>
    <path fill="#ffffff" d="M 229.5 475 L 238 475.5 L 229.5 476 L 229.5 475 Z "/>
    <path fill="#ffffff" d="M 263.5 475 L 273 475.5 L 263.5 476 L 262.5 477 L 239.5 477 L 239.5 476 L 262.5 476 L 263.5 475 Z "/>
    <path fill="#4da3ff" d="M 221.5 54 L 239.5 54 L 254.5 57 L 269.5 62 L 286 72 Q 284.9 74.7 287.5 74 L 290 75 Q 288.9 77.7 291.5 77 L 304 89.5 L 304 91 Q 306.7 89.9 306 92.5 L 328 122.5 L 346.5 144 Q 348.8 143.3 348 145.5 L 353 149 L 354.5 152 L 368 162 Q 366.9 164.7 369.5 164 L 412.5 190 L 435 210.5 L 446 226.5 L 454 245.5 L 457 259.5 L 457 288.5 L 451 313.5 L 441 337.5 L 428 359.5 L 407 386 Q 404.3 384.9 405 387.5 L 393.5 399 L 392 399 Q 393.1 401.7 390.5 401 L 386 404 Q 387.1 406.7 384.5 406 L 362.5 423 L 328.5 441 L 325.5 441 L 323.5 443 L 317.5 444 L 315.5 446 L 312.5 446 L 300.5 451 L 275.5 456 L 258.5 457 L 256.5 458 L 255.5 457 L 232.5 457 Q 231 454.5 225.5 456 L 198.5 451 L 177.5 446 L 174.5 444 L 170.5 444 L 141.5 432 L 118 417 Q 119.1 414.3 116.5 415 L 109 408.5 Q 109.8 406.3 107.5 407 L 106 404 L 101 400.5 L 99 397.5 L 91 388.5 L 78 367.5 L 67 342.5 L 64 333.5 L 64 329.5 L 62 326.5 L 57 302.5 L 56 281.5 L 55 280.5 L 55 266.5 L 56 265.5 L 56 250.5 L 57 249.5 L 57 240.5 L 59 235.5 L 59 227.5 L 61 223.5 L 62 212.5 L 64 209.5 L 68 190.5 L 75 174.5 L 75 171.5 L 88 144.5 L 104 120 Q 106.7 121.1 106 118.5 L 117.5 106 Q 119.8 106.8 119 104.5 L 136.5 88 L 164.5 70 L 192.5 59 L 197.5 59 L 200.5 57 L 220.5 55 L 221.5 54 Z M 198 86 L 190 89 L 188 88 L 185 90 Q 182 89 183 92 L 182 91 L 180 92 L 177 91 L 177 93 L 176 92 L 174 93 L 175 95 L 174 94 L 171 96 L 167 96 Q 168 99 166 98 Q 164 101 163 99 L 161 103 L 159 104 L 160 101 L 157 103 Q 158 105 156 104 Q 154 107 152 106 L 150 109 L 148 110 Q 145 111 147 113 Q 145 117 144 114 L 141 115 L 141 117 L 132 126 Q 129 125 130 128 L 128 128 Q 129 132 125 134 Q 126 136 124 135 L 124 137 L 123 136 L 119 143 Q 120 145 117 144 L 117 148 L 116 147 L 115 149 L 116 152 L 114 152 L 114 154 L 113 153 L 111 156 L 112 158 L 110 158 L 111 160 L 108 166 Q 109 172 106 175 L 109 176 L 107 176 L 110 184 L 115 185 Q 118 184 117 187 L 127 183 L 135 170 L 137 170 L 137 167 L 136 167 L 137 165 L 139 166 L 138 165 L 140 162 L 143 160 L 144 158 L 144 156 L 148 152 Q 147 149 150 150 L 149 148 L 153 147 L 161 139 L 160 138 Q 161 135 163 137 L 167 134 Q 166 131 169 132 L 169 130 L 174 128 L 177 125 L 178 126 L 182 124 L 182 122 L 184 123 L 184 121 L 188 121 Q 187 118 190 119 L 191 117 L 192 119 L 193 116 L 197 118 L 196 117 L 206 113 L 211 107 Q 210 104 213 105 L 212 104 L 213 102 L 213 100 L 212 95 L 211 95 L 209 95 L 210 93 L 208 91 L 208 90 L 204 88 L 204 90 L 203 88 L 200 88 L 198 88 L 200 87 L 198 86 Z M 102 204 L 101 205 Q 97 204 98 207 Q 95 205 93 210 L 94 213 L 93 212 L 91 217 L 89 219 L 90 222 L 89 226 L 90 228 L 92 229 L 90 230 L 92 231 L 91 233 L 94 235 L 97 235 L 96 237 L 99 235 L 99 237 L 102 236 L 104 237 L 106 237 L 113 235 L 116 230 L 116 228 L 118 228 L 117 224 L 118 221 L 117 214 L 115 212 L 115 211 Q 117 212 116 210 L 115 210 L 111 206 Q 109 207 108 204 L 107 205 L 102 204 Z M 205 237 L 186 245 L 172 260 L 166 275 L 166 295 L 170 307 L 177 318 Q 186 330 204 334 L 220 334 L 238 325 L 246 315 L 249 307 L 249 295 L 239 272 L 240 269 L 238 255 L 235 250 Q 230 242 221 238 L 205 237 Z M 322 286 L 317 288 L 311 294 L 311 299 L 304 301 Q 294 308 291 323 L 291 333 L 295 342 L 303 349 L 309 352 Q 313 351 315 353 L 325 352 L 339 345 L 349 334 L 355 320 Q 357 304 350 297 L 340 288 Q 333 285 322 286 Z "/>
    <path fill="#ffd43b" d="M 223.5 255 L 226 259.5 L 225 259.5 L 223.5 255 Z "/>
    <path fill="#ffd43b" d="M 235.5 300 L 236 304.5 L 235 304.5 L 235.5 300 Z "/>
    <path fill="#ffd43b" d="M 198.5 318 L 204 320.5 L 202.5 321 L 198.5 319 L 198.5 318 Z "/>
    <path fill="#ff6b6b" d="M 323.5 299 Q 332.7 297.8 336.5 302 L 336.5 300 L 340 303.5 L 340 305.5 L 341 316.5 L 337 326.5 L 337.5 328 L 336.5 327 L 329 334.5 L 329.5 336 L 327.5 335 Q 323 339.5 313.5 339 L 308.5 337 L 307 337.5 Q 309.3 336.2 306.5 335 L 305 335.5 L 306 333.5 Q 302.5 329.5 304 320.5 L 305 316.5 L 304.5 315 L 306 315.5 L 308 310.5 L 307.5 309 L 311 306.5 L 312 302 L 318.5 302 L 323.5 299 Z "/>
    <path fill="#ffa94d" d="M 208.5 248 L 217.5 250 L 223 254 L 226 260.5 L 226 275.5 L 227 280.5 L 234 292.5 L 236 299.5 L 233 310.5 L 227.5 316 L 218.5 321 L 204.5 321 L 193 316 Q 194.1 313.3 191.5 314 L 188.5 310 L 187 310 L 187 307 Q 184.3 308.1 185 305.5 L 181 298.5 L 178 286.5 L 178 284.5 Q 179.7 262.2 194.5 253 L 208.5 248 Z "/>
    <path fill="#66d9e8" d="M 227.5 52 L 236.5 52 L 237.5 53 L 249.5 54 L 271.5 61 L 297 79 Q 295.9 81.7 298.5 81 L 300 84 Q 302.7 82.9 302 85.5 L 311 95.5 L 339 133.5 L 361.5 156 L 373.5 165 L 415.5 190 L 429 201.5 L 431 204.5 L 444 219.5 L 455 243.5 L 459 262.5 L 459 286.5 L 453 313.5 L 442 339.5 L 426 365.5 L 402 392.5 L 402 394 L 365.5 423 L 337.5 439 L 323.5 445 L 299.5 453 L 281.5 457 L 257.5 459 L 256.5 460 L 244.5 460 L 243.5 459 L 225.5 458 L 214.5 455 L 198.5 453 L 174.5 447 L 154.5 440 Q 120.5 425.5 98 399.5 L 77 369.5 L 63 336.5 L 55 302.5 L 54 283.5 L 53 282.5 L 53 262.5 L 54 261.5 L 55 242.5 L 60 213.5 L 65 198.5 L 66 191.5 L 74 169.5 L 90 138.5 L 103 119.5 L 118 103.5 L 118 102 L 143.5 81 L 171.5 65 L 189.5 58 L 201.5 55 L 207.5 55 L 214.5 53 L 226.5 53 L 227.5 52 Z M 222 54 L 221 55 L 201 57 L 198 59 L 193 59 L 165 70 L 137 88 L 119 105 Q 120 107 118 106 L 106 119 Q 107 121 104 120 L 88 145 L 75 172 L 75 175 L 68 191 L 64 210 L 62 213 L 61 224 L 59 228 L 59 236 L 57 241 L 57 250 L 56 251 L 56 266 L 55 267 L 55 281 L 56 282 L 57 303 L 62 327 L 64 330 L 64 334 L 67 343 L 78 368 L 91 389 L 99 398 L 101 401 L 106 404 L 108 407 Q 110 406 109 409 L 117 415 Q 119 414 118 417 L 142 432 L 171 444 L 175 444 L 178 446 L 199 451 L 226 456 Q 231 455 233 457 L 256 457 L 257 458 L 259 457 L 276 456 L 301 451 L 313 446 L 316 446 L 318 444 L 324 443 L 326 441 L 329 441 L 363 423 L 385 406 Q 387 407 386 404 L 391 401 Q 393 402 392 399 L 394 399 L 405 388 Q 404 385 407 386 L 428 360 L 441 338 L 451 314 L 457 289 L 457 260 L 454 246 L 446 227 L 435 211 L 413 190 L 370 164 Q 367 165 368 162 L 355 152 L 353 149 L 348 146 Q 349 143 347 144 L 328 123 L 306 93 Q 307 90 304 91 L 304 90 L 292 77 Q 289 78 290 75 L 288 74 Q 285 75 286 72 L 270 62 L 255 57 L 240 54 L 222 54 Z "/>
    <path fill="#66d9e8" d="M 197.5 86 L 201.5 88 L 203 87.5 L 203.5 90 L 204 88 L 208 89.5 L 207.5 91 L 210 92.5 L 209 94.5 L 210.5 95 L 212 94.5 L 213 99.5 L 213 101.5 L 212 103.5 L 212.5 105 Q 210.3 104.3 211 106.5 L 206 113 L 196 116.5 L 196.5 118 L 193.5 117 L 191 118.5 L 190.5 117 L 190 119 Q 187 118 188 121 L 183.5 121 L 183.5 123 L 177.5 126 L 176.5 125 L 173.5 128 L 169 130 L 169 132 Q 166.3 130.9 167 133.5 L 162.5 137 Q 161.3 134.8 160 137.5 L 161 138.5 L 152.5 147 L 149 147.5 L 150 150 Q 147.3 148.9 148 151.5 L 144 155.5 L 144 157.5 L 142.5 160 L 140 161.5 L 138 164.5 L 138.5 166 Q 135.5 165.1 137 169.5 L 135 169.5 L 127 183 L 117 187 Q 118.3 184 114.5 185 L 110 184 L 107 176 L 109 175.5 L 106 174.5 Q 108.6 171.6 108 165.5 L 111 159.5 L 110 157.5 L 113.5 152 L 116 151.5 L 115 148.5 L 115.5 147 L 117 147.5 L 117 144 Q 119.7 145.1 119 142.5 L 123.5 135 Q 125.8 135.8 125 133.5 L 125.5 131 Q 126.8 133.3 128 130.5 L 128 128 L 130 128 Q 128.9 125.3 131.5 126 L 141 116.5 L 141 115 L 144 113.5 Q 143.3 111.3 145.5 112 L 150 108.5 L 152 105.5 Q 153.8 107.1 155.5 104 Q 157.8 104.8 157 102.5 L 160.5 100 L 162 100.5 L 162.5 99 Q 164 101.5 165.5 98 Q 168.1 98.7 167 96 L 170.5 96 L 173.5 94 L 175 94.5 L 174 92.5 L 177.5 91 L 179.5 92 L 181.5 91 L 183 91.5 Q 182.3 89.3 184.5 90 L 187.5 88 L 189.5 89 L 197.5 86 Z "/>
    <path fill="#66d9e8" d="M 101.5 204 L 106.5 205 L 107.5 204 Q 109.3 207.1 111 205.5 L 113.5 209 Q 114.8 206.8 116 209.5 Q 116.8 211.8 114.5 211 L 114.5 212 L 117 213.5 L 118 220.5 L 117 223.5 L 118 227.5 L 112.5 235 L 105.5 237 L 103.5 237 L 101.5 236 L 98.5 237 L 96 236.5 L 94.5 234 Q 92.7 236.8 91 232.5 L 92 230.5 L 90 229.5 L 92 228.5 L 90 228 L 89 225.5 L 90 221.5 L 89 218.5 L 91 216.5 Q 91.5 209 96.5 206 L 98 206.5 Q 97.2 203.9 100.5 205 L 101.5 204 Z "/>
    <path fill="#66d9e8" d="M 204.5 237 L 220.5 238 Q 229.9 241.6 235 249.5 L 238 254.5 L 240 268.5 L 239 271.5 L 249 294.5 L 249 306.5 L 246 314.5 L 238 325 L 219.5 334 L 203.5 334 Q 186.1 329.9 177 317.5 L 170 306.5 L 166 294.5 L 166 274.5 L 172 259.5 L 185.5 245 L 204.5 237 Z M 203 239 L 185 248 L 173 262 L 168 275 L 168 284 L 167 285 L 168 296 L 170 302 L 179 318 L 191 327 L 203 332 Q 208 331 210 333 L 220 332 L 235 325 Q 244 319 247 307 L 247 294 L 238 276 L 238 263 L 233 250 Q 226 236 203 239 Z "/>
    <path fill="#66d9e8" d="M 321.5 286 Q 333 284.5 339.5 288 L 350 296.5 Q 356.9 303.6 355 319.5 L 349 333.5 L 338.5 345 L 324.5 352 L 314.5 353 Q 313.3 350.7 308.5 352 L 302.5 349 L 295 341.5 L 291 332.5 L 291 322.5 Q 293.6 308.1 303.5 301 L 311 299 L 311 293.5 L 316.5 288 L 321.5 286 Z M 322 288 L 317 290 Q 311 292 312 300 L 311 301 L 305 302 Q 295 309 293 323 L 293 333 L 297 342 Q 302 349 313 351 Q 331 351 340 342 L 345 337 L 353 321 Q 355 304 348 297 Q 343 291 335 288 L 322 288 Z "/>
    <path fill="#f783ac" d="M 321.5 298 L 332.5 298 L 341 305.5 L 342 307.5 L 342 319.5 Q 338.2 329.2 330.5 335 L 321.5 340 L 312.5 340 L 306 337 L 303 331.5 L 303 318.5 L 307.5 310 L 308 311.5 Q 302.6 317.1 304 329.5 L 308.5 337 Q 311.8 339.7 318.5 339 Q 331.1 336.1 337 326.5 L 341 316.5 L 341 309.5 L 340 305.5 L 336.5 302 Q 332.7 297.8 323.5 299 L 318.5 302 L 312 302 Q 312.1 306.9 308.5 309 L 308 307.5 L 312.5 300 Q 319.2 301.2 321.5 298 Z "/>
  </g>
  <g id="line">
    <path fill="#1a1a1a" d="M 217.5 37 L 241.5 37 L 242.5 38 L 254.5 39 L 271.5 44 Q 296.9 55.6 314 75.5 L 345 116.5 L 362.5 136 L 389.5 157 L 423.5 176 L 443 192.5 L 445 195.5 Q 460.7 210.8 469 233.5 L 475 255.5 L 476 284.5 L 475 285.5 L 474 299.5 L 469 319.5 L 456 349.5 Q 435.5 387 404.5 414 L 401.5 416 Q 367.7 446.7 320.5 464 L 282.5 474 L 263.5 475 L 262.5 476 L 238.5 476 L 237.5 475 L 221.5 474 L 200.5 469 L 195.5 469 L 191.5 467 L 181.5 466 L 149.5 456 L 123.5 443 Q 105.4 431.6 91 416.5 L 83 406 Q 80.3 407.1 81 404.5 L 75 397.5 L 62 376.5 L 47 341.5 L 42 322.5 Q 42 313 39 306.5 L 39 299.5 L 38 298.5 L 37 260.5 L 38 259.5 L 38 247.5 L 39 246.5 L 41 225.5 L 52 181.5 L 68 143.5 L 89 110 Q 91.7 111.1 91 108.5 L 100 97 Q 102.7 98.1 102 95.5 Q 123.1 72.6 151.5 57 L 182.5 44 L 201.5 39 L 216.5 38 L 217.5 37 Z M 228 52 L 227 53 L 215 53 L 208 55 L 202 55 L 190 58 L 172 65 L 144 81 L 118 102 L 118 104 L 103 120 L 90 139 L 74 170 L 66 192 L 65 199 L 60 214 L 55 243 L 54 262 L 53 263 L 53 283 L 54 284 L 55 303 L 63 337 L 77 370 L 98 400 Q 120 426 155 440 L 175 447 L 199 453 L 215 455 L 226 458 L 244 459 L 245 460 L 257 460 L 258 459 L 282 457 L 300 453 L 324 445 L 338 439 L 366 423 L 402 394 L 402 393 L 426 366 L 442 340 L 453 314 L 459 287 L 459 263 L 455 244 L 444 220 L 431 205 L 429 202 L 416 190 L 374 165 L 362 156 L 339 134 L 311 96 L 302 86 Q 303 83 300 84 L 299 81 Q 296 82 297 79 L 272 61 L 250 54 L 238 53 L 237 52 L 228 52 Z "/>
    <path fill="#1a1a1a" d="M 202.5 239 Q 225.5 236.5 233 249.5 L 238 262.5 L 238 275.5 L 247 293.5 L 247 306.5 Q 243.7 318.7 234.5 325 L 219.5 332 L 209.5 333 Q 208 330.5 202.5 332 L 190.5 327 L 179 317.5 L 170 301.5 L 168 295.5 L 167 284.5 L 168 283.5 L 168 274.5 L 173 261.5 L 184.5 248 L 202.5 239 Z M 209 248 Q 197 250 190 256 L 181 269 L 179 274 L 179 282 L 178 283 L 179 295 L 187 310 Q 193 317 203 321 L 219 321 L 226 318 Q 233 314 236 305 L 235 295 L 228 283 L 226 276 L 226 259 L 225 257 Q 220 249 209 248 Z "/>
    <path fill="#1a1a1a" d="M 321.5 288 L 334.5 288 Q 343 290.5 348 296.5 Q 355.3 303.7 353 320.5 L 345 336.5 L 339.5 342 Q 330.5 351 312.5 351 Q 302.1 348.9 297 341.5 L 293 332.5 L 293 322.5 Q 295.3 308.8 304.5 302 L 311 301 L 311 303.5 L 303 318.5 L 303 331.5 L 307.5 338 Q 311.8 341.7 321.5 340 Q 332.2 336.2 338 327.5 L 342 319.5 L 342 307.5 L 336.5 300 Q 331.8 296.2 321.5 298 Q 319 301.2 313 300 L 312 295.5 L 316.5 290 L 321.5 288 Z "/>
  </g>
</svg>
